<svg xmlns="http://www.w3.org/2000/svg" viewBox="0 0 537.53 179.41"><defs><style>.cls-1{fill:#c9caca;}.cls-2,.cls-5{font-size:12px;}.cls-2,.cls-5,.cls-6{fill:#231815;}.cls-2{font-family:MicrosoftYaHeiLight, Microsoft YaHei;}.cls-3{fill:#fff;}.cls-3,.cls-4{stroke:#231815;stroke-miterlimit:10;}.cls-4{fill:none;}.cls-5{font-family:MicrosoftYaHei-Bold, Microsoft YaHei;font-weight:700;}</style></defs><g id="图层_2" data-name="图层 2"><g id="图层_1-2" data-name="图层 1"><rect class="cls-1" x="458.2" y="155.41" width="77.6" height="24"/><text class="cls-2" transform="translate(473 170.97)">句子谓语</text><rect class="cls-3" x="0.5" y="105.56" width="133.07" height="36.42"/><text class="cls-2" transform="translate(15.38 121.12)">分词动作(短暂动词)<tspan x="-1.56" y="14.4">(先发生, 用&quot;完成式&quot;)</tspan></text><rect class="cls-3" x="158.64" y="105.56" width="133.07" height="36.42"/><text class="cls-2" transform="translate(173.51 121.12)">分词动作(短暂动词)<tspan x="-1.56" y="14.4">(先发生, 用&quot;完成式&quot;)</tspan></text><rect class="cls-3" x="316.77" y="105.56" width="133.07" height="36.42"/><text class="cls-2" transform="translate(331.65 121.12)">分词动作(短暂动词)<tspan x="-1.56" y="14.4">(先发生, 用&quot;完成式&quot;)</tspan></text><path class="cls-4" d="M64.37,91.38h0a16,16,0,0,1,16-16H212.64l8.53-8.53,9.33,9.33H375A10.94,10.94,0,0,1,386,87.11h0"/><text class="cls-5" transform="translate(153.17 53.18)">该短暂动作已多次重复发生</text><line class="cls-4" x1="11.82" y1="18.45" x2="531.5" y2="18.45"/><path class="cls-6" d="M537.53,18.45A30.31,30.31,0,0,0,529,23.2l1.72-4.75L529,13.69A30.34,30.34,0,0,0,537.53,18.45Z"/><text class="cls-2" transform="translate(239.73 10.27)">时间先后</text></g></g></svg>