<svg xmlns="http://www.w3.org/2000/svg" viewBox="0 0 421.2 177.23"><defs><style>.cls-1{fill:#c9caca;}.cls-2,.cls-5{font-size:12px;}.cls-2,.cls-5,.cls-6{fill:#231815;}.cls-2{font-family:MicrosoftYaHeiLight, Microsoft YaHei;}.cls-3{fill:#fff;}.cls-3,.cls-4{stroke:#231815;stroke-miterlimit:10;}.cls-4{fill:none;}.cls-5{font-family:MicrosoftYaHei-Bold, Microsoft YaHei;font-weight:700;}</style></defs><g id="图层_2" data-name="图层 2"><g id="图层_1-2" data-name="图层 1"><rect class="cls-1" x="343.52" y="153.23" width="77.6" height="24"/><text class="cls-2" transform="translate(358.32 168.79)">句子谓语</text><rect class="cls-3" x="9.59" y="110.09" width="327.61" height="36.42"/><text class="cls-2" transform="translate(137.26 125.65)">分词动作(延续动词)<tspan x="-1.56" y="14.4">(先发生, 用&quot;完成式&quot;)</tspan></text><path class="cls-4" d="M12.78,95.91h0a16,16,0,0,1,16-16H161.05l8.53-8.53,9.33,9.33H323.45a10.93,10.93,0,0,1,10.93,10.93h0"/><text class="cls-5" transform="translate(104.08 57.71)">该动作, 已持续了一段时间</text><line class="cls-4" y1="18.45" x2="415.16" y2="18.45"/><path class="cls-6" d="M421.2,18.45a30.31,30.31,0,0,0-8.55,4.75l1.72-4.75-1.72-4.76A30.34,30.34,0,0,0,421.2,18.45Z"/><text class="cls-2" transform="translate(190.6 10.27)">时间先后</text></g></g></svg>