<svg xmlns="http://www.w3.org/2000/svg" viewBox="0 0 362.97 135.87"><defs><style>.cls-1{fill:none;}.cls-1,.cls-4{stroke:#231815;stroke-miterlimit:10;}.cls-2{fill:#c9caca;}.cls-3{font-size:12px;font-family:MicrosoftYaHeiLight, Microsoft YaHei;}.cls-3,.cls-5{fill:#231815;}.cls-4{fill:#fff;}</style></defs><g id="图层_2" data-name="图层 2"><g id="图层_1-2" data-name="图层 1"><path class="cls-1" d="M272.13,88.9h0a6.77,6.77,0,0,1-6.78,6.78H209.29l-3.62,3.62-4-4H140.45a4.63,4.63,0,0,1-4.64-4.63h0"/><rect class="cls-2" x="278.77" y="89.19" width="77.6" height="24"/><text class="cls-3" transform="translate(293.57 104.75)">句子谓语</text><rect class="cls-4" x="0.5" y="39.33" width="133.07" height="36.42"/><text class="cls-3" transform="translate(43.03 54.9)">分词动作<tspan x="-29.21" y="14.4">(先发生, 用&quot;完成式&quot;)</tspan></text><line class="cls-1" x1="1.38" y1="18.45" x2="356.94" y2="18.45"/><path class="cls-5" d="M363,18.45a30.12,30.12,0,0,0-8.54,4.75l1.72-4.75-1.72-4.76A30.15,30.15,0,0,0,363,18.45Z"/><text class="cls-3" transform="translate(156.84 10.27)">时间先后</text><text class="cls-3" transform="translate(180.62 118.33)">有段较长<tspan x="0" y="14.4">时间间隔</tspan></text></g></g></svg>