<svg id="图层_1" data-name="图层 1" xmlns="http://www.w3.org/2000/svg" viewBox="0 0 205.6 190.57"><defs><style>.cls-1,.cls-3{font-size:12px;font-family:MicrosoftYaHeiLight, Microsoft YaHei;}.cls-1,.cls-5{fill:#231815;}.cls-2{fill:#c30d23;}.cls-3{fill:#094;}.cls-4,.cls-6{fill:none;stroke:#231815;stroke-miterlimit:10;}.cls-6{stroke-dasharray:2.02 2.02;}</style></defs><text class="cls-1" transform="translate(95.05 171.13)"><tspan xml:space="preserve">名词      </tspan><tspan class="cls-2" x="45.3" y="0">分词做定语</tspan></text><text class="cls-1" transform="translate(95.05 53.9)"><tspan xml:space="preserve">名词      </tspan><tspan class="cls-2" x="45.3" y="0">分词做定语</tspan></text><text class="cls-3" transform="translate(97.05 72.87)">(主)</text><text class="cls-1" transform="translate(160.42 72.87)">(谓)</text><text class="cls-3" transform="translate(97.05 187.43)">(宾)</text><text class="cls-1" transform="translate(160.42 187.43)">(谓)</text><path class="cls-4" d="M300.07,305.32a28.09,28.09,0,0,0-27.74-18.67A27.76,27.76,0,0,0,251,299" transform="translate(-144.6 -152.89)"/><polygon class="cls-5" points="103.2 152.42 104.22 141.72 106.72 145.7 111.42 145.5 103.2 152.42"/><path class="cls-4" d="M296.87,181.61a27.52,27.52,0,0,0-49.07,6.3" transform="translate(-144.6 -152.89)"/><polygon class="cls-5" points="155.47 35.02 154.4 24.32 151.91 28.31 147.22 28.13 155.47 35.02"/><text class="cls-1" transform="translate(118.38 127.94)">干它</text><text class="cls-1" transform="translate(118.38 10.27)">干它</text><text class="cls-1" transform="translate(1.66 160.21)">这是被动关系</text><text class="cls-1" transform="translate(1.66 42.16)">这是主动关系</text><line class="cls-4" y1="103.35" x2="1" y2="103.35"/><line class="cls-6" x1="3.02" y1="103.35" x2="203.59" y2="103.35"/><line class="cls-4" x1="204.6" y1="103.35" x2="205.6" y2="103.35"/></svg>