<svg xmlns="http://www.w3.org/2000/svg" viewBox="0 0 470 245.47"><defs><style>.cls-1{fill:#dcdddd;}.cls-2{fill:#231815;}.cls-3{font-size:21px;}.cls-3,.cls-7,.cls-8{font-family:MicrosoftYaHeiLight, Microsoft YaHei;}.cls-4{fill:#3e3a39;}.cls-10,.cls-5,.cls-6,.cls-9{fill:none;stroke-miterlimit:10;}.cls-5,.cls-6{stroke:#3e3a39;}.cls-5{stroke-width:2px;}.cls-7{font-size:24px;}.cls-8{font-size:15px;}.cls-10,.cls-9{stroke:#231815;}.cls-10{stroke-dasharray:1.99 1.99;}</style></defs><title>资源 14</title><g id="图层_2" data-name="图层 2"><g id="图层_1-2" data-name="图层 1"><rect class="cls-1" x="39" y="70.83" width="239" height="59"/><circle class="cls-2" cx="258" cy="111.01" r="8.82"/><circle class="cls-2" cx="57" cy="111.01" r="8.82"/><text class="cls-3" transform="translate(107.89 17.98)">过去完成时</text><text class="cls-3" transform="translate(351.88 239.98)">now</text><text class="cls-3" transform="translate(241.66 239.98)">past</text><line class="cls-4" y1="177.16" x2="470" y2="177.16"/><line class="cls-5" y1="177.16" x2="455.88" y2="177.16"/><polygon class="cls-4" points="470 177.16 450.1 185.29 454.82 177.16 450.1 169.03 470 177.16"/><line class="cls-6" x1="369.97" y1="75.83" x2="369.97" y2="216.86"/><text class="cls-7" transform="translate(134.5 100.14)">回顾</text><text class="cls-8" transform="translate(3.5 87.56)">更远的过去</text><text class="cls-8" transform="translate(247 87.56)">过去</text><line class="cls-9" x1="74.88" y1="110.75" x2="75.88" y2="110.75"/><line class="cls-10" x1="77.87" y1="110.75" x2="264" y2="110.75"/><line class="cls-9" x1="265" y1="110.75" x2="266" y2="110.75"/><polygon class="cls-2" points="67.82 110.75 77.77 114.82 75.41 110.75 77.77 106.69 67.82 110.75"/></g></g></svg>