<svg xmlns="http://www.w3.org/2000/svg" viewBox="0 0 663 421.03"><defs><style>.cls-1,.cls-5{fill:none;stroke:#3e3a39;stroke-miterlimit:10;}.cls-2{font-size:21px;}.cls-2,.cls-6,.cls-7{font-family:MicrosoftYaHeiLight, Microsoft YaHei;}.cls-3{letter-spacing:-0.02em;}.cls-4{fill:#3e3a39;}.cls-5{stroke-width:2px;}.cls-6{font-size:16px;}.cls-7{font-size:17px;fill:#fff;}.cls-8{letter-spacing:-0.1em;}.cls-9{letter-spacing:-0.3em;}.cls-10{fill:#172a88;}</style></defs><title>资源 46</title><g id="图层_2" data-name="图层 2"><g id="图层_1-2" data-name="图层 1"><line class="cls-1" x1="329.42" x2="329.42" y2="421.03"/><text class="cls-2" transform="translate(314.22 234.14)">now</text><text class="cls-2" transform="translate(95.61 234.14)">past</text><text class="cls-2" transform="translate(516.43 234.14)">futu<tspan class="cls-3" x="37.27" y="0">r</tspan><tspan x="44.31" y="0">e</tspan></text><line class="cls-4" x1="46.94" y1="211.32" x2="575.94" y2="211.32"/><line class="cls-5" x1="46.94" y1="211.32" x2="561.82" y2="211.32"/><polygon class="cls-4" points="575.95 211.32 556.05 219.45 560.77 211.32 556.05 203.19 575.95 211.32"/><text class="cls-6" transform="translate(54.52 160.01)">(条件)从过</text><circle cx="92.5" cy="70.16" r="60.5"/><text class="cls-7" transform="translate(80.22 54.81)"><tspan xml:space="preserve"> i</tspan><tspan class="cls-8" x="8.8" y="0">f</tspan><tspan x="12.09" y="0">…</tspan><tspan class="cls-9" x="24.32" y="0">​</tspan><tspan x="-24.79" y="20.4">had done</tspan><tspan x="-30.15" y="40.8">/ had been</tspan></text><text class="cls-6" transform="translate(293.52 160.01)">(条件)从现</text><circle cx="331.5" cy="70.16" r="60.5"/><text class="cls-7" transform="translate(304.54 65.01)"><tspan xml:space="preserve"> i</tspan><tspan class="cls-8" x="8.8" y="0">f</tspan><tspan x="12.09" y="0">…</tspan><tspan class="cls-9" x="24.32" y="0">​</tspan><tspan x="24.32" y="0">did </tspan><tspan x="-7.01" y="20.4">/ i</tspan><tspan class="cls-8" x="8.51" y="20.4">f</tspan><tspan x="11.81" y="20.4">...we</tspan><tspan class="cls-3" x="45.73" y="20.4">r</tspan><tspan x="51.43" y="20.4">e</tspan></text><text class="cls-6" transform="translate(532.52 160.01)">(条件)从将</text><circle cx="570.5" cy="70.16" r="60.5"/><text class="cls-7" transform="translate(558.22 54.81)"><tspan xml:space="preserve"> i</tspan><tspan class="cls-8" x="8.8" y="0">f</tspan><tspan x="12.09" y="0">…</tspan><tspan class="cls-9" x="24.32" y="0">​</tspan><tspan x="-31.89" y="20.4">we</tspan><tspan class="cls-3" x="-10.19" y="20.4">r</tspan><tspan x="-4.49" y="20.4">e to do </tspan><tspan x="-32.1" y="40.8">/ should do</tspan></text><text class="cls-6" transform="translate(312.04 376.7)">主 现</text><rect class="cls-10" x="239" y="281.67" width="185" height="74.04"/><text class="cls-6" transform="translate(75.41 376.7)">主过</text><rect class="cls-10" y="281.67" width="185" height="74.04"/><text class="cls-7" transform="translate(15.08 303.72)"><tspan xml:space="preserve">would  + have done</tspan><tspan x="4.65" y="20.4">could + have done</tspan><tspan x="3.61" y="40.8">might + have done</tspan></text><text class="cls-7" transform="translate(281.39 303.72)"><tspan xml:space="preserve">would  + do</tspan><tspan x="4.65" y="20.4">could + do</tspan><tspan x="3.61" y="40.8">might + do</tspan></text><text class="cls-6" transform="translate(553.41 376.7)">主将</text><rect class="cls-10" x="478" y="281.67" width="185" height="74.04"/><text class="cls-7" transform="translate(521.39 303.72)"><tspan xml:space="preserve">would  + do</tspan><tspan x="4.65" y="20.4">could + do</tspan><tspan x="3.61" y="40.8">might + do</tspan></text></g></g></svg>