<svg xmlns="http://www.w3.org/2000/svg" viewBox="0 0 115.85 86.73"><defs><style>.cls-1,.cls-6{fill:none;stroke-miterlimit:10;}.cls-1{stroke:#231815;stroke-width:0.5px;}.cls-2{font-size:8px;font-family:AdobeSongStd-Light-GBpc-EUC-H, Adobe Song Std;}.cls-2,.cls-5{fill:#231815;}.cls-3{font-size:7px;}.cls-4{font-size:6px;}.cls-6{stroke:#e60012;stroke-width:0.75px;}.cls-7{fill:#e60012;}</style></defs><title>资源 17</title><g id="图层_2" data-name="图层 2"><g id="图层_1-2" data-name="图层 1"><polyline class="cls-1" points="45.73 41.17 41.3 36.73 37 41.03"/><text class="cls-2" transform="translate(87.08 7.04)">W<tspan class="cls-3" x="7.78" y="0">子空间</tspan></text><text class="cls-2" transform="translate(12.12 7.04)">V<tspan class="cls-3" x="5.69" y="0">子空间</tspan></text><text class="cls-2" transform="translate(32.73 26.55)">x<tspan class="cls-4" x="3.73" y="0">向量</tspan></text><line class="cls-1" x1="0.18" y1="86.55" x2="80.06" y2="6.67"/><polygon class="cls-5" points="82.56 4.18 80.47 9.13 79.87 6.86 77.6 6.26 82.56 4.18"/><line class="cls-1" x1="82.55" y1="86.55" x2="2.67" y2="6.67"/><polygon class="cls-5" points="0.18 4.18 5.13 6.26 2.86 6.86 2.26 9.13 0.18 4.18"/><line class="cls-6" x1="41.37" y1="45.36" x2="27.85" y2="31.84"/><polygon class="cls-7" points="24.1 28.1 31.53 31.22 28.13 32.13 27.22 35.53 24.1 28.1"/></g></g></svg>