<svg xmlns="http://www.w3.org/2000/svg" xmlns:xlink="http://www.w3.org/1999/xlink" viewBox="0 0 331.85 198.48"><defs><style>.cls-1,.cls-16,.cls-2,.cls-4,.cls-8{fill:none;}.cls-2{stroke:#e60012;stroke-width:0.5px;}.cls-16,.cls-2,.cls-4,.cls-8{stroke-miterlimit:10;}.cls-3{fill:#e60012;}.cls-16,.cls-4{stroke:#231815;}.cls-4{stroke-width:0.75px;}.cls-5,.cls-6,.cls-7{fill:#231815;}.cls-6{font-size:8px;}.cls-6,.cls-7{font-family:AdobeSongStd-Light-GBpc-EUC-H, Adobe Song Std;}.cls-7{font-size:16.78px;}.cls-8{stroke:#000;}.cls-16,.cls-8{stroke-width:0.25px;}.cls-9{isolation:isolate;}.cls-10{clip-path:url(#clip-path);}.cls-11{clip-path:url(#clip-path-2);}.cls-12{clip-path:url(#clip-path-3);}.cls-13{clip-path:url(#clip-path-4);}.cls-14{clip-path:url(#clip-path-5);}.cls-15{clip-path:url(#clip-path-6);}</style><clipPath id="clip-path"><polygon class="cls-1" points="225.66 91.09 225.58 134.51 207.35 126.08 207.43 82.66 225.66 91.09"/></clipPath><clipPath id="clip-path-2"><polygon class="cls-1" points="186.88 140.93 168.64 132.5 168.72 89.07 186.96 97.5 186.88 140.93"/></clipPath><clipPath id="clip-path-3"><polygon class="cls-1" points="295.65 87.63 295.61 113.23 284.86 108.26 284.9 82.66 295.65 87.63"/></clipPath><clipPath id="clip-path-4"><polygon class="cls-1" points="272.78 117.01 262.03 112.04 262.08 86.44 272.83 91.41 272.78 117.01"/></clipPath><clipPath id="clip-path-5"><polygon class="cls-1" points="84.3 91.09 84.22 134.51 65.98 126.08 66.06 82.66 84.3 91.09"/></clipPath><clipPath id="clip-path-6"><polygon class="cls-1" points="45.51 140.93 27.27 132.5 27.35 89.07 45.59 97.5 45.51 140.93"/></clipPath></defs><title>资源 19</title><g id="图层_2" data-name="图层 2"><g id="图层_1-2" data-name="图层 1"><line class="cls-2" x1="273.47" y1="19.62" x2="248.69" y2="47.15"/><polygon class="cls-3" points="246.32 49.77 248.14 44.71 248.86 46.95 251.16 47.43 246.32 49.77"/><line class="cls-2" x1="27.27" y1="76.59" x2="46.38" y2="99.04"/><polygon class="cls-3" points="48.67 101.73 43.9 99.26 46.21 98.84 46.99 96.62 48.67 101.73"/><line class="cls-4" x1="73.15" y1="112.15" x2="178.57" y2="112.15"/><polygon class="cls-5" points="183.86 112.15 176.4 115.2 178.17 112.15 176.4 109.1 183.86 112.15"/><text class="cls-6" transform="translate(95.39 97.77)">矩阵A<tspan x="0" y="9.6">变换规则</tspan></text><text class="cls-7" transform="translate(86.15 62.27)">Ax = b</text><text class="cls-7" transform="translate(0 49.77)">零空间<tspan x="0" y="20.14">的维度</tspan></text><text class="cls-7" transform="translate(281.5 14.77)">列空间<tspan x="0" y="20.14">的维度</tspan></text><text class="cls-6" transform="translate(95.39 124.27)">将3维物体<tspan x="0" y="9.6">投射到4维空间中</tspan></text><text class="cls-6" transform="translate(227.68 62.27)">4维空间</text><text class="cls-6" transform="translate(190.03 109.72)">Ax子空间内的<tspan x="0" y="9.6">4维的</tspan><tspan x="0" y="19.2">b向量</tspan></text><text class="cls-6" transform="translate(263.91 99.52)">真正自由的<tspan x="0" y="9.6">4维向量</tspan></text><text class="cls-6" transform="translate(48.67 112.15)">三维的<tspan x="0" y="9.6">a向量</tspan></text><polygon class="cls-8" points="168.72 89.07 207.43 82.66 207.35 126.08 168.64 132.5 168.72 89.07"/><polygon class="cls-8" points="186.96 97.5 225.66 91.09 225.58 134.51 186.88 140.93 186.96 97.5"/><g class="cls-9"><g class="cls-10"><polygon class="cls-8" points="225.66 91.09 225.58 134.51 207.35 126.08 207.43 82.66 225.66 91.09"/></g></g><g class="cls-9"><g class="cls-11"><polygon class="cls-8" points="186.88 140.93 168.64 132.5 168.72 89.07 186.96 97.5 186.88 140.93"/></g></g><polygon class="cls-8" points="262.08 86.44 284.9 82.66 284.86 108.26 262.03 112.04 262.08 86.44"/><polygon class="cls-8" points="272.83 91.41 295.65 87.63 295.61 113.23 272.78 117.01 272.83 91.41"/><g class="cls-9"><g class="cls-12"><polygon class="cls-8" points="295.65 87.63 295.61 113.23 284.86 108.26 284.9 82.66 295.65 87.63"/></g></g><g class="cls-9"><g class="cls-13"><polygon class="cls-8" points="272.78 117.01 262.03 112.04 262.08 86.44 272.83 91.41 272.78 117.01"/></g></g><polygon class="cls-8" points="27.35 89.07 66.06 82.66 65.98 126.08 27.27 132.5 27.35 89.07"/><polygon class="cls-8" points="45.59 97.5 84.3 91.09 84.22 134.51 45.51 140.93 45.59 97.5"/><g class="cls-9"><g class="cls-14"><polygon class="cls-8" points="84.3 91.09 84.22 134.51 65.98 126.08 66.06 82.66 84.3 91.09"/></g></g><g class="cls-9"><g class="cls-15"><polygon class="cls-8" points="45.51 140.93 27.27 132.5 27.35 89.07 45.59 97.5 45.51 140.93"/></g></g><circle class="cls-16" cx="225.37" cy="109.72" r="88.63"/></g></g></svg>