<svg xmlns="http://www.w3.org/2000/svg" xmlns:xlink="http://www.w3.org/1999/xlink" viewBox="0 0 312.16 176.14"><defs><style>.cls-1,.cls-14,.cls-2,.cls-6,.cls-7{fill:none;}.cls-2{stroke:#000;}.cls-14,.cls-2,.cls-6,.cls-7{stroke-miterlimit:10;}.cls-2,.cls-6{stroke-width:0.25px;}.cls-3{isolation:isolate;}.cls-4{clip-path:url(#clip-path);}.cls-5{clip-path:url(#clip-path-2);}.cls-14,.cls-6,.cls-7{stroke:#231815;}.cls-7{stroke-width:0.5px;}.cls-10,.cls-11,.cls-8,.cls-9{fill:#231815;}.cls-9{font-size:31.69px;}.cls-10,.cls-9{font-family:MicrosoftYaHeiLight, Microsoft YaHei;}.cls-10{font-size:46.37px;}.cls-11,.cls-12,.cls-13{font-size:8px;}.cls-11,.cls-13{font-family:MicrosoftYaHei, Microsoft YaHei;}.cls-12{fill:#c30d23;font-family:MicrosoftYaHei-Bold, Microsoft YaHei;font-weight:700;}.cls-13{fill:#172a88;}.cls-14{stroke-width:3px;}</style><clipPath id="clip-path"><polygon class="cls-1" points="208.33 89.33 208.19 164.79 176.5 150.14 176.64 74.67 208.33 89.33"/></clipPath><clipPath id="clip-path-2"><polygon class="cls-1" points="140.92 175.94 109.23 161.29 109.37 85.83 141.06 100.48 140.92 175.94"/></clipPath></defs><title>资源 21</title><g id="图层_2" data-name="图层 2"><g id="图层_1-2" data-name="图层 1"><polygon class="cls-2" points="109.37 85.83 176.64 74.67 176.5 150.14 109.23 161.29 109.37 85.83"/><polygon class="cls-2" points="141.06 100.48 208.33 89.33 208.19 164.79 140.92 175.94 141.06 100.48"/><g class="cls-3"><g class="cls-4"><polygon class="cls-2" points="208.33 89.33 208.19 164.79 176.5 150.14 176.64 74.67 208.33 89.33"/></g></g><g class="cls-3"><g class="cls-5"><polygon class="cls-2" points="140.92 175.94 109.23 161.29 109.37 85.83 141.06 100.48 140.92 175.94"/></g></g><rect class="cls-6" x="26.68" y="88.74" width="40.85" height="54.85"/><line class="cls-6" x1="26.68" y1="134.45" x2="67.53" y2="134.45"/><line class="cls-6" x1="26.68" y1="125.31" x2="67.53" y2="125.31"/><line class="cls-6" x1="26.68" y1="116.17" x2="67.53" y2="116.17"/><line class="cls-6" x1="26.68" y1="107.02" x2="67.53" y2="107.02"/><line class="cls-6" x1="26.68" y1="97.88" x2="67.53" y2="97.88"/><line class="cls-6" x1="57.32" y1="88.74" x2="57.32" y2="143.59"/><line class="cls-6" x1="47.1" y1="88.74" x2="47.1" y2="143.59"/><line class="cls-6" x1="36.89" y1="88.74" x2="36.89" y2="143.59"/><line class="cls-7" x1="45.5" y1="61.73" x2="45.5" y2="44.62"/><polygon class="cls-8" points="45.5 65.26 47.53 60.28 45.5 61.47 43.47 60.28 45.5 65.26"/><line class="cls-7" x1="116.01" y1="113.34" x2="98.91" y2="113.34"/><polygon class="cls-8" points="119.54 113.34 114.57 111.31 115.75 113.34 114.57 115.38 119.54 113.34"/><text class="cls-9" transform="translate(35.86 77.5) rotate(90)">{</text><text class="cls-10" transform="translate(78.58 102.1) rotate(180) scale(0.68 1)">{</text><text class="cls-11" transform="translate(37.93 75.86)">n列</text><text class="cls-11" transform="translate(80.93 116.17)">m行</text><text class="cls-12" transform="translate(0 19.34)">接收一个n维(n个基轴)空间的物体</text><text class="cls-11" transform="translate(29 158.68)">新基矩阵A</text><text class="cls-12" transform="translate(124.33 116.17)">输出到m维空间中</text><text class="cls-13" transform="translate(124.33 132.5)">列空间 C(A) ←每一列(每个基)被用m维的坐标来定位.<tspan x="0" y="9.6">左零空间 N(A</tspan></text><text class="cls-13" transform="translate(173.5 139.44) scale(0.58)">T</text><text class="cls-13" transform="translate(176.18 142.1)">)</text><text class="cls-13" transform="translate(54.26 31.94)">行空间 R(A)=C(A</text><text class="cls-13" transform="translate(116.41 29.28) scale(0.58)">T</text><text class="cls-13" transform="translate(119.08 31.94)">)<tspan x="-64.82" y="9.6">零空间 N(A)</tspan></text><polygon class="cls-2" points="99 44.63 2.87 44.63 36.89 0.13 133.03 0.13 99 44.63"/><line class="cls-14" x1="31.33" y1="92.38" x2="31.33" y2="139.38"/><line class="cls-14" x1="41.83" y1="92.38" x2="41.83" y2="139.38"/><line class="cls-14" x1="52.33" y1="92.38" x2="52.33" y2="139.38"/><line class="cls-14" x1="62.83" y1="92.38" x2="62.83" y2="139.38"/></g></g></svg>