<svg xmlns="http://www.w3.org/2000/svg" viewBox="0 0 106.88 104.58"><defs><style>.cls-1,.cls-4,.cls-5,.cls-6{fill:none;stroke:#231815;stroke-miterlimit:10;}.cls-1{stroke-width:0.5px;}.cls-2,.cls-3{fill:#231815;}.cls-3{font-size:8px;font-family:AdobeSongStd-Light-GBpc-EUC-H, Adobe Song Std;}.cls-4,.cls-5,.cls-6{stroke-width:0.25px;}.cls-5{stroke-dasharray:2.11 2.11;}.cls-6{stroke-dasharray:2.08 2.08;}</style></defs><title>资源 23</title><g id="图层_2" data-name="图层 2"><g id="图层_1-2" data-name="图层 1"><line class="cls-1" x1="47.8" y1="59.36" x2="47.8" y2="15.24"/><polygon class="cls-2" points="47.8 11.71 49.83 16.68 47.8 15.5 45.77 16.68 47.8 11.71"/><line class="cls-1" x1="47.8" y1="59.36" x2="91.92" y2="59.36"/><polygon class="cls-2" points="95.45 59.36 90.47 61.39 91.66 59.36 90.47 57.32 95.45 59.36"/><line class="cls-1" x1="47.8" y1="59.36" x2="16.6" y2="90.55"/><polygon class="cls-2" points="14.11 93.05 16.19 88.09 16.79 90.37 19.06 90.97 14.11 93.05"/><text class="cls-3" transform="translate(39.33 7.04)">轴x</text><text class="cls-3" transform="translate(51.06 9.7) scale(0.58)">1</text><text class="cls-3" transform="translate(0 73.4)">系数k倍</text><text class="cls-3" transform="translate(101 61.22)">x</text><text class="cls-3" transform="translate(104.73 63.88) scale(0.58)">2</text><text class="cls-3" transform="translate(12.67 99.88)">x</text><text class="cls-3" transform="translate(16.39 102.55) scale(0.58)">3</text><line class="cls-4" x1="32.28" y1="74.88" x2="33.28" y2="74.88"/><line class="cls-5" x1="35.39" y1="74.88" x2="63.87" y2="74.88"/><polyline class="cls-4" points="64.93 74.88 65.93 74.88 65.93 73.88"/><polyline class="cls-6" points="65.93 71.8 65.93 39.53 71.73 33.72"/><line class="cls-4" x1="72.47" y1="32.99" x2="73.17" y2="32.28"/><path class="cls-2" d="M73.8,33a.94.94,0,0,0-1.33-1.33,1,1,0,0,0,0,1.33A.94.94,0,0,0,73.8,33Z"/><polyline class="cls-4" points="47.8 55.28 51.84 55.28 51.84 59.36"/><polyline class="cls-4" points="47.8 55.28 44.59 58.34 44.59 62.42"/><text class="cls-3" transform="translate(77.59 32.77)">b</text></g></g></svg>