<svg xmlns="http://www.w3.org/2000/svg" viewBox="0 0 323.67 190.15"><defs><style>.cls-1,.cls-2,.cls-3{fill:none;stroke-miterlimit:10;}.cls-1,.cls-3{stroke:#231815;}.cls-1,.cls-2{stroke-width:3px;}.cls-2{stroke:#9fa0a0;}.cls-3{stroke-width:0.5px;}.cls-4,.cls-5{fill:#231815;}.cls-5,.cls-7{font-size:8px;font-family:MicrosoftYaHei, Microsoft YaHei;}.cls-6,.cls-7{fill:#c30d23;}</style></defs><title>资源 26</title><g id="图层_2" data-name="图层 2"><g id="图层_1-2" data-name="图层 1"><line class="cls-1" x1="137.68" y1="48.94" x2="137.68" y2="95.94"/><line class="cls-2" x1="145.18" y1="48.94" x2="145.18" y2="95.94"/><line class="cls-1" x1="152.68" y1="48.94" x2="152.68" y2="95.94"/><line class="cls-2" x1="160.18" y1="48.94" x2="160.18" y2="95.94"/><line class="cls-2" x1="167.68" y1="48.94" x2="167.68" y2="95.94"/><line class="cls-1" x1="175.18" y1="48.94" x2="175.18" y2="95.94"/><polyline class="cls-3" points="138.03 104.24 138.03 116.91 175.18 116.91 175.18 103.47"/><polygon class="cls-4" points="138.03 100.71 135.99 105.68 138.03 104.5 140.06 105.68 138.03 100.71"/><polygon class="cls-4" points="175.18 99.94 177.22 104.91 175.18 103.73 173.15 104.91 175.18 99.94"/><polyline class="cls-3" points="167.68 39.73 167.68 27.06 144.24 27.06 144.24 40.5"/><polygon class="cls-4" points="167.68 43.26 169.72 38.29 167.68 39.47 165.65 38.29 167.68 43.26"/><polygon class="cls-4" points="144.24 44.03 142.2 39.06 144.24 40.24 146.27 39.06 144.24 44.03"/><line class="cls-3" x1="152.68" y1="130.44" x2="152.68" y2="103.47"/><polygon class="cls-4" points="152.68 99.94 154.72 104.91 152.68 103.73 150.65 104.91 152.68 99.94"/><line class="cls-3" x1="160.18" y1="13.53" x2="160.18" y2="40.5"/><polygon class="cls-4" points="160.18 44.03 158.15 39.06 160.18 40.24 162.22 39.06 160.18 44.03"/><line class="cls-3" x1="259.49" y1="144.2" x2="259.49" y2="171.17"/><polygon class="cls-4" points="259.49 174.7 257.45 169.72 259.49 170.9 261.52 169.72 259.49 174.7"/><text class="cls-5" transform="translate(85.59 140.36)">矩阵的 rank = 主元列 = 基本变量 = <tspan class="cls-6" x="131.13" y="0">零空间</tspan><tspan x="155.13" y="0">的维度数 dimension</tspan></text><text class="cls-5" transform="translate(145.18 6.86)">自由变量</text><text class="cls-5" transform="translate(80.89 72.44)">共n列 → <tspan x="-80.89" y="12">即输入矩阵A中的是一个n维物体</tspan></text><text class="cls-7" transform="translate(183.23 78.1)">= 向量0</text><text class="cls-7" transform="translate(245.49 188.1)">= 矩阵列数n - rank数</text></g></g></svg>