<svg xmlns="http://www.w3.org/2000/svg" viewBox="0 0 192.97 195.12"><defs><style>.cls-1,.cls-10,.cls-11,.cls-13,.cls-3,.cls-8{fill:none;stroke-miterlimit:10;}.cls-1,.cls-13{stroke:#231815;}.cls-1,.cls-13,.cls-8{stroke-width:0.5px;}.cls-2,.cls-5,.cls-6,.cls-7{fill:#231815;}.cls-3{stroke:#1d2088;}.cls-10,.cls-11,.cls-3{stroke-width:0.75px;}.cls-4{fill:#1d2088;}.cls-5,.cls-6,.cls-7{font-size:11.49px;font-family:MicrosoftYaHei, Microsoft YaHei;}.cls-6{letter-spacing:0em;}.cls-7{letter-spacing:0em;}.cls-10,.cls-8{stroke:#c30d23;}.cls-9{fill:#c30d23;}.cls-11{stroke:#13ae67;}.cls-12{fill:#13ae67;}.cls-13{stroke-dasharray:2 2;}</style></defs><title>资源 28</title><g id="图层_2" data-name="图层 2"><g id="图层_1-2" data-name="图层 1"><line class="cls-1" y1="153.82" x2="171.05" y2="153.82"/><polygon class="cls-2" points="174.58 153.82 169.61 155.86 170.79 153.82 169.61 151.79 174.58 153.82"/><line class="cls-3" x1="41.92" y1="153.82" x2="108.91" y2="56.85"/><polygon class="cls-4" points="111.92 52.49 110.18 60.36 108.68 57.17 105.17 56.9 111.92 52.49"/><line class="cls-1" x1="41.92" y1="195.12" x2="41.92" y2="24.06"/><polygon class="cls-2" points="41.92 20.53 43.95 25.51 41.92 24.33 39.88 25.51 41.92 20.53"/><text class="cls-5" transform="translate(15.06 32.52)">W</text><text class="cls-5" transform="translate(26.75 28.69) scale(0.58)">⊥</text><text class="cls-6" transform="translate(33.45 32.52)"> </text><text class="cls-5" transform="translate(26.06 59.19)">z</text><text class="cls-5" transform="translate(109.06 44.85)">b</text><text class="cls-5" transform="translate(109.06 166.52)">p</text><text class="cls-5" transform="translate(149.06 166.52)">y</text><text class="cls-5" transform="translate(164.72 175.52)">W</text><text class="cls-5" transform="translate(36.06 9.85)">α</text><text class="cls-7" transform="translate(43.71 13.68) scale(0.58)">2</text><text class="cls-5" transform="translate(181.39 156.52)">α</text><text class="cls-7" transform="translate(189.04 160.35) scale(0.58)">1</text><line class="cls-8" x1="111.92" y1="56.02" x2="111.92" y2="153.82"/><polygon class="cls-9" points="111.92 52.49 109.88 57.47 111.92 56.28 113.95 57.47 111.92 52.49"/><line class="cls-10" x1="41.92" y1="57.79" x2="41.92" y2="153.82"/><polygon class="cls-9" points="41.92 52.49 38.87 59.95 41.92 58.18 44.97 59.95 41.92 52.49"/><line class="cls-11" x1="106.62" y1="153.82" x2="41.92" y2="153.82"/><polygon class="cls-12" points="111.92 153.82 104.45 150.78 106.22 153.82 104.45 156.87 111.92 153.82"/><line class="cls-13" x1="111.92" y1="52.49" x2="149.92" y2="153.82"/><text class="cls-5" transform="translate(57.5 148.03)">θ</text><path class="cls-1" d="M53.83,153.82a7.77,7.77,0,0,0-5.93-9.25"/></g></g></svg>