<?xml version="1.0" encoding="UTF-8"?>
<svg id="_图层_2" data-name="图层 2" xmlns="http://www.w3.org/2000/svg" viewBox="0 0 289.58 289.58">
  <defs>
    <style>
      .cls-1 {
        stroke: #e60012;
      }

      .cls-1, .cls-2, .cls-3, .cls-4, .cls-5, .cls-6, .cls-7, .cls-8 {
        fill: none;
      }

      .cls-1, .cls-2, .cls-3, .cls-4, .cls-5, .cls-6, .cls-8, .cls-9 {
        stroke-miterlimit: 10;
      }

      .cls-2 {
        stroke: #094;
      }

      .cls-2, .cls-3, .cls-4, .cls-5, .cls-6, .cls-8 {
        stroke-width: .5px;
      }

      .cls-3 {
        stroke-dasharray: 0 0 2 2;
      }

      .cls-3, .cls-4, .cls-5, .cls-6, .cls-8, .cls-9 {
        stroke: #231815;
      }

      .cls-10, .cls-11, .cls-12, .cls-13 {
        font-family: MicrosoftYaHei, 'Microsoft YaHei';
        font-size: 8px;
      }

      .cls-10, .cls-14 {
        fill: #898989;
      }

      .cls-11, .cls-15 {
        fill: #e60012;
      }

      .cls-12, .cls-16 {
        fill: #094;
      }

      .cls-4 {
        stroke-dasharray: 0 0 1.93 1.93;
      }

      .cls-13, .cls-17 {
        fill: #231815;
      }

      .cls-5 {
        stroke-dasharray: 0 0 1.99 1.99;
      }

      .cls-6 {
        stroke-dasharray: 0 0 1.95 1.95;
      }

      .cls-9 {
        fill: #fff;
      }
    </style>
  </defs>
  <g id="_图层_1-2" data-name="图层 1">
    <g>
      <g>
        <line class="cls-8" x1="272.82" y1="237.55" x2="40.22" y2="237.55"/>
        <polygon class="cls-17" points="276.35 237.55 271.38 235.52 272.56 237.55 271.38 239.58 276.35 237.55"/>
      </g>
      <g>
        <line class="cls-8" x1="81.89" y1="13.16" x2="81.89" y2="260.88"/>
        <polygon class="cls-17" points="81.89 9.63 79.86 14.6 81.89 13.42 83.92 14.6 81.89 9.63"/>
      </g>
      <text class="cls-13" transform="translate(4.88 88.35)"><tspan x="0" y="0">这个距离的值</tspan><tspan x="0" y="9.6">就是任意小的数</tspan><tspan x="0" y="19.2">ε</tspan></text>
      <text class="cls-13" transform="translate(4.88 153.3)"><tspan x="0" y="0">这个距离的值</tspan><tspan x="0" y="9.6">就是任意小的数</tspan><tspan x="0" y="19.2">ε</tspan></text>
      <text class="cls-13" transform="translate(147.87 270)"><tspan x="0" y="0">这个距离的值</tspan><tspan x="0" y="9.6">就是δ</tspan></text>
      <text class="cls-10" transform="translate(40.22 55.84)"><tspan x="0" y="0">极限值 +ε</tspan></text>
      <text class="cls-10" transform="translate(40.22 188.77)"><tspan x="0" y="0">极限值 -ε</tspan></text>
      <text class="cls-13" transform="translate(211.26 270)"><tspan x="0" y="0">这个距离的值</tspan><tspan x="0" y="9.6">就是δ</tspan></text>
      <text class="cls-13" transform="translate(217.54 15.43)"><tspan x="0" y="0">y=2x-1</tspan></text>
      <path class="cls-8" d="M75.19,112.91l-2.23-2.07c-.97-.9-1.48-1.97-1.48-3.07v-16.49c0-1.42-.86-2.78-2.4-3.78l-1.31-.63,1.31-.63c1.54-1,2.4-2.36,2.4-3.78v-16.49c0-1.1,.52-2.17,1.48-3.07l2.23-2.07"/>
      <path class="cls-8" d="M75.19,179.34l-2.23-2.07c-.97-.9-1.48-1.97-1.48-3.07v-16.49c0-1.42-.86-2.78-2.4-3.78l-1.31-.63,1.31-.63c1.54-1,2.4-2.36,2.4-3.78v-16.49c0-1.1,.52-2.17,1.48-3.07l2.23-2.07"/>
      <path class="cls-8" d="M197.04,252.93l-1.25,1.34c-.54,.58-1.19,.89-1.85,.89h-9.91c-.85,0-1.67,.52-2.28,1.44l-.38,.79-.38-.79c-.6-.93-1.42-1.44-2.28-1.44h-9.91c-.66,0-1.3-.31-1.85-.89l-1.25-1.34"/>
      <path class="cls-8" d="M229.5,252.93l-1.25,1.34c-.54,.58-1.19,.89-1.85,.89h-9.91c-.85,0-1.67,.52-2.28,1.44l-.38,.79-.38-.79c-.6-.93-1.42-1.44-2.28-1.44h-9.91c-.66,0-1.3-.31-1.85-.89l-1.25-1.34"/>
      <line class="cls-8" x1="255.96" y1="5.14" x2="118.42" y2="277.47"/>
      <polyline class="cls-2" points="81.89 88.53 213.85 88.53 213.85 237.55"/>
      <g>
        <line class="cls-8" x1="81.89" y1="57.52" x2="82.89" y2="57.52"/>
        <line class="cls-5" x1="84.88" y1="57.52" x2="227.51" y2="57.52"/>
        <polyline class="cls-8" points="228.5 57.52 229.5 57.52 229.5 58.52"/>
        <line class="cls-3" x1="229.5" y1="60.52" x2="229.5" y2="235.55"/>
        <line class="cls-8" x1="229.5" y1="236.55" x2="229.5" y2="237.55"/>
      </g>
      <g>
        <line class="cls-8" x1="81.89" y1="179.5" x2="82.89" y2="179.5"/>
        <line class="cls-6" x1="84.84" y1="179.5" x2="165.92" y2="179.5"/>
        <polyline class="cls-8" points="166.9 179.5 167.9 179.5 167.9 180.5"/>
        <line class="cls-4" x1="167.9" y1="182.43" x2="167.9" y2="235.58"/>
        <line class="cls-8" x1="167.9" y1="236.55" x2="167.9" y2="237.55"/>
      </g>
      <polyline class="cls-1" points="81.89 121.45 197.04 121.45 197.04 237.55"/>
      <circle class="cls-9" cx="197.04" cy="121.98" r="5.27"/>
      <circle class="cls-15" cx="81.89" cy="121.45" r="3.69"/>
      <circle class="cls-15" cx="196.86" cy="237.55" r="3.69"/>
      <circle class="cls-16" cx="81.89" cy="88.53" r="3.69"/>
      <circle class="cls-14" cx="81.89" cy="56.96" r="3.69"/>
      <circle class="cls-14" cx="81.89" cy="179.34" r="3.69"/>
      <circle class="cls-14" cx="167.9" cy="237.55" r="3.69"/>
      <circle class="cls-14" cx="229.5" cy="237.55" r="3.69"/>
      <circle class="cls-16" cx="213.85" cy="237.55" r="3.69"/>
      <text class="cls-11" transform="translate(88.93 116.7)"><tspan x="0" y="0">极限值 y=1</tspan></text>
      <text class="cls-12" transform="translate(88.93 84.83)"><tspan x="0" y="0">y=f(x)</tspan></text>
      <g>
        <text class="cls-11" transform="translate(187.79 247.33)"><tspan x="0" y="0">x</tspan></text>
        <text class="cls-11" transform="translate(191.85 249.99) scale(.58)"><tspan x="0" y="0">0</tspan></text>
        <text class="cls-11" transform="translate(194.58 247.33)"><tspan x="0" y="0">=1</tspan></text>
      </g>
      <text class="cls-10" transform="translate(222.75 247.61)"><tspan x="0" y="0">x</tspan></text>
      <text class="cls-10" transform="translate(226.81 250.27) scale(.58)"><tspan x="0" y="0">0</tspan></text>
      <text class="cls-10" transform="translate(229.54 247.61)"><tspan x="0" y="0">+δ</tspan></text>
      <text class="cls-10" transform="translate(159.84 247.61)"><tspan x="0" y="0">x</tspan></text>
      <text class="cls-10" transform="translate(163.89 250.27) scale(.58)"><tspan x="0" y="0">0</tspan></text>
      <text class="cls-10" transform="translate(166.63 247.61)"><tspan x="0" y="0">-δ</tspan></text>
      <text class="cls-12" transform="translate(211.16 247.33)"><tspan x="0" y="0">x</tspan></text>
      <rect class="cls-7" width="289.58" height="289.58"/>
    </g>
  </g>
</svg>