<svg viewBox="0 0 1100 318" xmlns:xlink="http://www.w3.org/1999/xlink" height="318" width="1100" xmlns="http://www.w3.org/2000/svg">
    <defs/>
    <g transform="translate(-312.76,-68.00)">
        <g transform="translate(314.26,200.00)" id="shape1">
            <path fill="#3f5cb8" fill-rule="nonzero" stroke="#3f5cb8" stroke-width="3" d="M4.0,.0L92.0,.0C94.2,.0,96.0,1.8,96.0,4.0L96.0,50.0C96.0,52.2,94.2,54.0,92.0,54.0L4.0,54.0C1.8,54.0,.0,52.2,.0,50.0L.0,4.0C.0,1.8,1.8,.0,4.0,.0z"/>
            <text xml:space="preserve" style="fill:#ffffff;font-family:Microsoft YaHei;font-size:9.00pt">
                <tspan x="24.8" y="32.0">中心主题</tspan>
            </text>
        </g>
        <g transform="translate(473.26,81.75)" id="shape2">
            <path fill="#eaebf1" fill-rule="nonzero" stroke="#eaebf1" d="M4.0,.0L260.0,.0C262.2,.0,264.0,1.8,264.0,4.0L264.0,51.0C264.0,53.2,262.2,55.0,260.0,55.0L4.0,55.0C1.8,55.0,.0,53.2,.0,51.0L.0,4.0C.0,1.8,1.8,.0,4.0,.0z"/>
            <text xml:space="preserve" style="fill:#303030;font-family:Microsoft YaHei;font-size:9.00pt">
                <tspan x="21.8" y="24.0">让步状语从句</tspan>
                <tspan x="21.8" y="41.0">While there are </tspan>
                <tspan x="114.8" style="fill:#42c181">instances </tspan>
                <tspan x="171.8" style="fill:#000000">存在一些情况</tspan>
            </text>
        </g>
        <g transform="translate(762.26,69.00)" id="shape3">
            <path fill="none" stroke="#696969" d="M.0,80.5L271.0,80.5"/>
            <text xml:space="preserve" style="fill:#454545;font-family:Microsoft YaHei;font-size:9.00pt">
                <tspan x="11.5" y="19.8">后定 </tspan>
                <tspan x="11.5" y="36.8">in which consumer abuse and exploitation </tspan>
                <tspan x="11.5" y="53.8">`谓` result (v.)  from </tspan>
                <tspan x="128.5" style="fill:#42c181">advertising</tspan>
                <tspan x="11.5" y="70.8">（在这些情况中，消费者侵害源于广告）</tspan>
            </text>
        </g>
        <g transform="translate(1058.26,77.50)" id="shape4">
            <path fill="none" stroke="#696969" d="M.0,63.5L237.0,63.5"/>
            <text xml:space="preserve" style="fill:#454545;font-family:Microsoft YaHei;font-size:9.00pt">
                <tspan x="11.5" y="19.8">后定</tspan>
                <tspan x="11.5" y="36.8">that is false, misleading, or irrelevant</tspan>
                <tspan x="11.5" y="53.8">（那些虚假、误导或不相关的广告）</tspan>
            </text>
        </g>
        <g transform="translate(473.26,182.50)" id="shape5">
            <path fill="#eaebf1" fill-rule="nonzero" stroke="#eaebf1" d="M4.0,.0L250.0,.0C252.2,.0,254.0,1.8,254.0,4.0L254.0,51.0C254.0,53.2,252.2,55.0,250.0,55.0L4.0,55.0C1.8,55.0,.0,53.2,.0,51.0L.0,4.0C.0,1.8,1.8,.0,4.0,.0z"/>
            <text xml:space="preserve" style="fill:#303030;font-family:Microsoft YaHei;font-size:9.00pt">
                <tspan x="21.8" y="24.0">It does not follow that...</tspan>
                <tspan x="21.8" y="41.0">这并不意味着…”、“由此不能推断出…</tspan>
            </text>
        </g>
        <g transform="translate(752.26,186.75)" id="shape6">
            <path fill="none" stroke="#696969" d="M.0,46.5L424.0,46.5"/>
            <text xml:space="preserve" style="fill:#454545;font-family:Microsoft YaHei;font-size:9.00pt">
                <tspan x="11.5" y="19.8">`主` these cases `谓` need to be remedied (补救,治疗,纠正) 需要被补救 </tspan>
                <tspan x="11.5" y="36.8">by governmental intervention 被政府干预 in the marketplace,</tspan>
            </text>
        </g>
        <g transform="translate(473.26,283.25)" id="shape7">
            <path fill="#eaebf1" fill-rule="nonzero" stroke="#eaebf1" d="M4.0,.0L394.0,.0C396.2,.0,398.0,1.8,398.0,4.0L398.0,85.0C398.0,87.2,396.2,89.0,394.0,89.0L4.0,89.0C1.8,89.0,.0,87.2,.0,85.0L.0,4.0C.0,1.8,1.8,.0,4.0,.0z"/>
            <text xml:space="preserve" style="fill:#303030;font-family:Microsoft YaHei;font-size:9.00pt">
                <tspan x="21.8" y="24.0">原因状</tspan>
                <tspan x="21.8" y="41.0">because it is possible </tspan>
                <tspan x="21.8" y="58.0">for consumers’ interests to be protected </tspan>
                <tspan x="21.8" y="75.0">方式状 through </tspan>
                <tspan x="111.8" style="font-weight:bold">resort (v.)  to</tspan>
                <tspan x="192.8"> 求助于 the courts,  通过诉诸法院</tspan>
            </text>
        </g>
        <g transform="translate(896.26,270.50)" id="shape8">
            <path fill="none" stroke="#696969" d="M.0,114.5L515.0,114.5"/>
            <text xml:space="preserve" style="fill:#454545;font-family:Microsoft YaHei;font-size:9.00pt;font-weight:bold">
                <tspan x="11.5" y="19.8">either</tspan>
                <tspan x="47.5" style="font-weight:normal"> by consumers themselves  选项一，“由消费者自己”</tspan>
                <tspan x="11.5" y="53.8">or</tspan>
                <tspan x="24.5" style="font-weight:normal"> by those competing sellers 选项二，“由那些竞争商家”</tspan>
                <tspan x="11.5" y="70.8" style="font-weight:normal"> who see their market shares decline (v.) 看到他们的市场份额下降  </tspan>
                <tspan x="11.5" y="87.8" style="font-weight:normal">in the face of inroads 在面对（市场的）入侵时 based on such advertising 基于此类广告</tspan>
                <tspan x="11.5" y="104.8" style="font-weight:normal">的</tspan>
            </text>
        </g>
    </g>
</svg>
