<svg xmlns="http://www.w3.org/2000/svg" xmlns:xlink="http://www.w3.org/1999/xlink" width="684" viewBox="0 0 684 473" height="473">
    <defs/>
    <g transform="translate(-120.00,-151.00)">
        <g id="shape1" transform="translate(121.00,245.50)">
            <path stroke="#323232" fill="#ffffff" fill-rule="nonzero" d="M682.1,56.0L682.1,.0L.0,.0L.0,56.0L682.1,56.0z"/>
            <text xml:space="preserve" style="fill:#191919;font-family:Microsoft YaHei;font-size:10.00pt">
                <tspan y="24.0" x="252.6"> (1925年-1926年) 省港大罷工</tspan>
                <tspan y="43.0" x="290.6">反殖民+民生诉求</tspan>
            </text>
        </g>
        <g id="shape2" transform="translate(121.00,378.00)">
            <path stroke="#323232" fill="#cfe9d8" fill-rule="nonzero" d="M136.0,56.0L136.0,.0L.0,.0L.0,56.0L136.0,56.0z"/>
            <text xml:space="preserve" style="fill:#191919;font-family:Microsoft YaHei;font-size:10.00pt">
                <tspan y="33.5" x="48.5">组织者</tspan>
            </text>
        </g>
        <g id="shape3" transform="translate(121.00,567.00)">
            <path stroke="#323232" fill="#f5cfcf" fill-rule="nonzero" d="M682.1,56.0L682.1,.0L.0,.0L.0,56.0L682.1,56.0z"/>
            <text xml:space="preserve" style="fill:#191919;font-family:Microsoft YaHei;font-size:10.00pt">
                <tspan y="33.5" x="328.1">港府</tspan>
            </text>
        </g>
        <g id="shape4" transform="translate(618.37,378.00)">
            <path stroke="#323232" fill="#cfe9d8" fill-rule="nonzero" d="M184.7,56.0L184.7,.0L.0,.0L.0,56.0L184.7,56.0z"/>
            <text xml:space="preserve" style="fill:#191919;font-family:Microsoft YaHei;font-size:10.00pt">
                <tspan y="33.5" x="66.4">宣传渠道</tspan>
            </text>
        </g>
        <g id="shape5" transform="translate(419.38,378.00)">
            <path stroke="#323232" fill="#cfe9d8" fill-rule="nonzero" d="M184.7,56.0L184.7,.0L.0,.0L.0,56.0L184.7,56.0z"/>
            <text xml:space="preserve" style="fill:#191919;font-family:Microsoft YaHei;font-size:10.00pt">
                <tspan y="33.5" x="72.9">参与者</tspan>
            </text>
        </g>
        <g id="shape6" transform="translate(394.05,152.00)">
            <path stroke="#323232" fill="#f5cfcf" fill-rule="nonzero" d="M136.0,56.0L136.0,.0L.0,.0L.0,56.0L136.0,56.0z"/>
            <text xml:space="preserve" style="fill:#191919;font-family:Microsoft YaHei;font-size:10.00pt">
                <tspan y="33.5" x="6.5">香港生产/生活受影响</tspan>
            </text>
        </g>
        <g id="shape7" transform="translate(267.50,378.00)">
            <path stroke="#323232" fill="#cfe9d8" fill-rule="nonzero" d="M136.0,56.0L136.0,.0L.0,.0L.0,56.0L136.0,56.0z"/>
            <text xml:space="preserve" style="fill:#191919;font-family:Microsoft YaHei;font-size:10.00pt">
                <tspan y="33.5" x="42.0">工會資金</tspan>
            </text>
        </g>
        <g id="shape8" transform="translate(189.00,364.00)">
            <path stroke="#191919" fill="none" d="M.0,.0L.0,-44.0"/>
            <path stroke="#191919" fill="#191919" d="M-3.0,-44.0L.0,-50.0L3.0,-44.0L-3.0,-44.0" stroke-width="1" stroke-linecap="round"/>
            <rect fill="#ffffff" y="-33.8" width="26.0" height="19.0" x="-12.0"/>
            <text xml:space="preserve" style="fill:#191919;font-family:Microsoft YaHei;font-size:10.00pt">
                <tspan y="-18.8" x="-12.0">支柱</tspan>
            </text>
        </g>
        <g id="shape9" transform="translate(332.48,558.00)">
            <path stroke="#191919" fill="none" d="M.0,.0L.0,-108.0"/>
            <path stroke="#191919" fill="#191919" d="M-3.0,-108.0L.0,-114.0L3.0,-108.0L-3.0,-108.0" stroke-width="1" stroke-linecap="round"/>
            <rect fill="#ffffff" y="-74.3" width="52.0" height="19.0" x="-25.0"/>
            <rect fill="#ffffff" y="-55.3" width="52.0" height="19.0" x="-25.0"/>
            <text xml:space="preserve" style="fill:#191919;font-family:Microsoft YaHei;font-size:10.00pt">
                <tspan y="-59.3" x="-25.0">限制资金</tspan>
                <tspan y="-40.3" x="-25.0">使用目的</tspan>
            </text>
        </g>
        <g id="shape10" transform="translate(478.24,558.00)">
            <path stroke="#191919" fill="none" d="M.0,.0L.0,-108.0"/>
            <path stroke="#191919" fill="#191919" d="M-3.0,-108.0L.0,-114.0L3.0,-108.0L-3.0,-108.0" stroke-width="1" stroke-linecap="round"/>
            <rect fill="#ffffff" y="-83.8" width="55.0" height="19.0" x="-26.5"/>
            <rect fill="#ffffff" y="-64.8" width="39.0" height="19.0" x="-18.5"/>
            <rect fill="#ffffff" y="-45.8" width="91.0" height="19.0" x="-44.5"/>
            <text xml:space="preserve" style="fill:#191919;font-family:Microsoft YaHei;font-size:10.00pt">
                <tspan y="-68.8" x="-26.5">建立機構,</tspan>
                <tspan y="-49.8" x="-18.5">來保護</tspan>
                <tspan y="-30.8" x="-44.5">不愿罷工的工人</tspan>
            </text>
        </g>
        <g id="shape11" transform="translate(549.24,558.00)">
            <path stroke="#191919" fill="none" d="M.0,.0L.0,-108.0"/>
            <path stroke="#191919" fill="#191919" d="M-3.0,-108.0L.0,-114.0L3.0,-108.0L-3.0,-108.0" stroke-width="1" stroke-linecap="round"/>
            <rect fill="#ffffff" y="-64.8" width="26.0" height="19.0" x="-12.0"/>
            <text xml:space="preserve" style="fill:#191919;font-family:Microsoft YaHei;font-size:10.00pt">
                <tspan y="-49.8" x="-12.0">教育</tspan>
            </text>
        </g>
        <g id="shape12" transform="translate(676.03,558.00)">
            <path stroke="#191919" fill="none" d="M.0,.0L.0,-108.0"/>
            <path stroke="#191919" fill="#191919" d="M-3.0,-108.0L.0,-114.0L3.0,-108.0L-3.0,-108.0" stroke-width="1" stroke-linecap="round"/>
            <rect fill="#ffffff" y="-83.8" width="65.0" height="19.0" x="-31.5"/>
            <rect fill="#ffffff" y="-64.8" width="81.0" height="19.0" x="-39.5"/>
            <rect fill="#ffffff" y="-45.8" width="52.0" height="19.0" x="-25.0"/>
            <text xml:space="preserve" style="fill:#191919;font-family:Microsoft YaHei;font-size:10.00pt">
                <tspan y="-68.8" x="-31.5">建立自己的</tspan>
                <tspan y="-49.8" x="-39.5">宣傳媒體徵地,</tspan>
                <tspan y="-30.8" x="-25.0">来反罢工</tspan>
            </text>
        </g>
        <g id="shape13" transform="translate(753.48,558.00)">
            <path stroke="#191919" fill="none" d="M.0,.0L.0,-108.0"/>
            <path stroke="#191919" fill="#191919" d="M-3.0,-108.0L.0,-114.0L3.0,-108.0L-3.0,-108.0" stroke-width="1" stroke-linecap="round"/>
            <rect fill="#ffffff" y="-74.3" width="26.0" height="19.0" x="-12.0"/>
            <rect fill="#ffffff" y="-55.3" width="39.0" height="19.0" x="-18.5"/>
            <text xml:space="preserve" style="fill:#191919;font-family:Microsoft YaHei;font-size:10.00pt">
                <tspan y="-59.3" x="-12.0">审查</tspan>
                <tspan y="-40.3" x="-18.5">与限制</tspan>
            </text>
        </g>
        <g id="shape14" transform="translate(331.00,364.00)">
            <path stroke="#191919" fill="none" d="M.0,.0L.0,-44.0"/>
            <path stroke="#191919" fill="#191919" d="M-3.0,-44.0L.0,-50.0L3.0,-44.0L-3.0,-44.0" stroke-width="1" stroke-linecap="round"/>
            <rect fill="#ffffff" y="-33.8" width="26.0" height="19.0" x="-12.0"/>
            <text xml:space="preserve" style="fill:#191919;font-family:Microsoft YaHei;font-size:10.00pt">
                <tspan y="-18.8" x="-12.0">支柱</tspan>
            </text>
        </g>
        <g id="shape15" transform="translate(511.74,364.00)">
            <path stroke="#191919" fill="none" d="M.0,.0L.0,-44.0"/>
            <path stroke="#191919" fill="#191919" d="M-3.0,-44.0L.0,-50.0L3.0,-44.0L-3.0,-44.0" stroke-width="1" stroke-linecap="round"/>
            <rect fill="#ffffff" y="-33.8" width="26.0" height="19.0" x="-12.0"/>
            <text xml:space="preserve" style="fill:#191919;font-family:Microsoft YaHei;font-size:10.00pt">
                <tspan y="-18.8" x="-12.0">支柱</tspan>
            </text>
        </g>
        <g id="shape16" transform="translate(710.74,364.00)">
            <path stroke="#191919" fill="none" d="M.0,.0L.0,-44.0"/>
            <path stroke="#191919" fill="#191919" d="M-3.0,-44.0L.0,-50.0L3.0,-44.0L-3.0,-44.0" stroke-width="1" stroke-linecap="round"/>
            <rect fill="#ffffff" y="-33.8" width="26.0" height="19.0" x="-12.0"/>
            <text xml:space="preserve" style="fill:#191919;font-family:Microsoft YaHei;font-size:10.00pt">
                <tspan y="-18.8" x="-12.0">支柱</tspan>
            </text>
        </g>
        <g id="shape17" transform="translate(462.05,245.50)">
            <path stroke="#191919" fill="none" d="M.0,.0L.0,-31.5"/>
            <path stroke="#191919" fill="#191919" d="M-3.0,-31.5L.0,-37.5L3.0,-31.5L-3.0,-31.5" stroke-width="1" stroke-linecap="round"/>
        </g>
        <g id="shape18" transform="translate(186.74,548.00)">
            <path stroke="#191919" fill="none" d="M.0,.0L.0,-89.0"/>
            <path stroke="#191919" fill="#191919" d="M-3.0,-89.0L.0,-95.0L3.0,-89.0L-3.0,-89.0" stroke-width="1" stroke-linecap="round"/>
            <rect fill="#ffffff" y="-68.0" width="85.0" height="19.0" x="-41.5"/>
            <rect fill="#ffffff" y="-49.0" width="123.0" height="19.0" x="-60.5"/>
            <rect fill="#ffffff" y="-30.0" width="116.0" height="19.0" x="-57.0"/>
            <text xml:space="preserve" style="fill:#191919;font-family:Microsoft YaHei;font-size:10.00pt">
                <tspan y="-53.0" x="-41.5">限制罷工目的, </tspan>
                <tspan y="-34.0" x="-60.5">只能針對"經濟問題", </tspan>
                <tspan y="-15.0" x="-57.0">不準針對"政治目的"</tspan>
            </text>
        </g>
    </g>
</svg>
