<svg width="595" xmlns="http://www.w3.org/2000/svg" height="1679" viewBox="0 0 595 1679" xmlns:xlink="http://www.w3.org/1999/xlink">
    <defs/>
    <g transform="translate(-245.00,-264.00)">
        <g transform="translate(331.00,345.00)" id="shape1">
            <path fill="#ffffff" d="M.0,.0L56.0,.0L56.0,156.0L.0,156.0L.0,.0z" fill-rule="nonzero" stroke="#323232"/>
            <text style="fill:#191919;font-family:Microsoft YaHei;font-size:10.00pt" xml:space="preserve">
                <tspan x="12.0" y="83.5">1984</tspan>
            </text>
        </g>
        <g transform="translate(426.69,265.00)" id="shape2">
            <path fill="#f5cfcf" d="M.0,.0L88.8,.0L88.8,54.0L.0,54.0L.0,.0z" fill-rule="nonzero" stroke="#323232"/>
            <text style="fill:#191919;font-family:Microsoft YaHei;font-size:10.00pt" xml:space="preserve">
                <tspan x="22.9" y="23.0">红色 表</tspan>
                <tspan x="11.9" y="42.0">计划建议的</tspan>
            </text>
        </g>
        <g transform="translate(516.19,265.00)" id="shape3">
            <path fill="#cfe9d8" d="M.0,.0L88.8,.0L88.8,54.0L.0,54.0L.0,.0z" fill-rule="nonzero" stroke="#323232"/>
            <text style="fill:#191919;font-family:Microsoft YaHei;font-size:10.00pt" xml:space="preserve">
                <tspan x="22.9" y="23.0">绿色 表</tspan>
                <tspan x="11.9" y="42.0">实际做到的</tspan>
            </text>
        </g>
        <g transform="translate(397.00,737.00)" id="shape4">
            <text style="fill:#191919;font-family:Microsoft YaHei;font-size:10.00pt" xml:space="preserve">
                <tspan x="4.0" y="19.0">5月 /港府发布</tspan>
                <tspan x="4.0" y="38.0">《綠皮書： 一九八七年"代議政制"發展檢討》</tspan>
            </text>
        </g>
        <g transform="translate(331.00,492.32)" id="shape5">
            <path fill="#ffffff" d="M.0,.0L56.0,.0L56.0,156.0L.0,156.0L.0,.0z" fill-rule="nonzero" stroke="#323232"/>
            <text style="fill:#191919;font-family:Microsoft YaHei;font-size:10.00pt" xml:space="preserve">
                <tspan x="12.0" y="83.5">1985</tspan>
            </text>
        </g>
        <g transform="translate(331.00,694.00)" id="shape6">
            <path fill="#ffffff" d="M.0,.0L56.0,.0L56.0,156.0L.0,156.0L.0,.0z" fill-rule="nonzero" stroke="#323232"/>
            <text style="fill:#191919;font-family:Microsoft YaHei;font-size:10.00pt" xml:space="preserve">
                <tspan x="12.0" y="83.5">1987</tspan>
            </text>
        </g>
        <g transform="translate(397.00,557.41)" id="shape7">
            <path fill="#f5cfcf" d="M.0,.0L132.0,.0L132.0,32.7L.0,32.7L.0,.0z" fill-rule="nonzero" stroke="#323232"/>
            <text style="fill:#191919;font-family:Microsoft YaHei;font-size:10.00pt" xml:space="preserve">
                <tspan x="15.5" y="21.8">立法局/ 间接选举</tspan>
            </text>
        </g>
        <g transform="translate(397.00,594.65)" id="shape8">
            <path fill="#cfe9d8" d="M.0,.0L132.0,.0L132.0,53.7L.0,53.7L.0,.0z" fill-rule="nonzero" stroke="#323232"/>
            <text style="fill:#191919;font-family:Microsoft YaHei;font-size:10.00pt" xml:space="preserve">
                <tspan x="29.5" y="22.8">9月: 立法局/</tspan>
                <tspan x="27.0" y="41.8">首次间接选举</tspan>
            </text>
        </g>
        <g transform="translate(331.00,850.00)" id="shape9">
            <path fill="#ffffff" d="M.0,.0L56.0,.0L56.0,156.0L.0,156.0L.0,.0z" fill-rule="nonzero" stroke="#323232"/>
            <text style="fill:#191919;font-family:Microsoft YaHei;font-size:10.00pt" xml:space="preserve">
                <tspan x="12.0" y="83.5">1988</tspan>
            </text>
        </g>
        <g transform="translate(397.00,850.00)" id="shape10">
            <text style="fill:#191919;font-family:Microsoft YaHei;font-size:10.00pt" xml:space="preserve">
                <tspan x="4.0" y="19.0">1月 /立法局議員李柱銘</tspan>
                <tspan x="4.0" y="38.0">前往伦敦, 游说英国支持香港直选</tspan>
            </text>
        </g>
        <g transform="translate(331.00,1214.00)" id="shape11">
            <path fill="#ffffff" d="M.0,.0L56.0,.0L56.0,156.0L.0,156.0L.0,.0z" fill-rule="nonzero" stroke="#323232"/>
            <text style="fill:#191919;font-family:Microsoft YaHei;font-size:10.00pt" xml:space="preserve">
                <tspan x="12.0" y="83.5">1991</tspan>
            </text>
        </g>
        <g transform="translate(397.00,400.00)" id="shape12">
            <path fill="#ebebeb" d="M132.0,46.0L132.0,.0L.0,.0L.0,46.0L132.0,46.0z" fill-rule="nonzero"/>
            <text style="fill:#191919;font-family:Microsoft YaHei;font-size:10.00pt" xml:space="preserve">
                <tspan x="4.0" y="19.0">7月/ 港府发布</tspan>
                <tspan x="4.0" y="38.0">《代議政制綠皮書》</tspan>
            </text>
        </g>
        <g transform="translate(463.00,446.00)" id="shape13">
            <path fill="none" d="M.0,.0L.0,105.4" stroke="#191919"/>
            <path stroke-width="1" fill="#191919" d="M3.0,105.4L.0,111.4L-3.0,105.4L3.0,105.4" stroke-linecap="round" stroke="#191919"/>
            <rect fill="#ffffff" width="26.0" x="-12.0" y="40.2" height="19.0"/>
            <text style="fill:#191919;font-family:Microsoft YaHei;font-size:10.00pt" xml:space="preserve">
                <tspan x="-12.0" y="55.2">建议</tspan>
            </text>
        </g>
        <g transform="translate(397.00,906.00)" id="shape14">
            <path fill="#ebebeb" d="M217.0,54.0L217.0,.0L.0,.0L.0,54.0L217.0,54.0z" fill-rule="nonzero"/>
            <text style="fill:#191919;font-family:Microsoft YaHei;font-size:10.00pt" xml:space="preserve">
                <tspan x="4.0" y="23.0">2月 /港府發表</tspan>
                <tspan x="4.0" y="42.0">《白皮書："代議政制"今後的發展》</tspan>
            </text>
        </g>
        <g transform="translate(397.00,1275.66)" id="shape15">
            <path fill="#f5cfcf" d="M.0,.0L132.0,.0L132.0,32.7L.0,32.7L.0,.0z" fill-rule="nonzero" stroke="#323232"/>
            <text style="fill:#191919;font-family:Microsoft YaHei;font-size:10.00pt" xml:space="preserve">
                <tspan x="15.5" y="22.0">立法局/ 直接选举</tspan>
            </text>
        </g>
        <g transform="translate(462.97,960.00)" id="shape16">
            <path fill="none" d="M.0,.0L.0,283.7L.0,283.7L.0,309.7" stroke="#191919"/>
            <path stroke-width="1" fill="#191919" d="M3.0,309.7L.0,315.7L-3.0,309.7L3.0,309.7" stroke-linecap="round" stroke="#191919"/>
        </g>
        <g transform="translate(331.00,1002.00)" id="shape17">
            <path fill="#ffffff" d="M.0,.0L56.0,.0L56.0,156.0L.0,156.0L.0,.0z" fill-rule="nonzero" stroke="#323232"/>
            <text style="fill:#191919;font-family:Microsoft YaHei;font-size:10.00pt" xml:space="preserve">
                <tspan x="12.0" y="83.5">1989</tspan>
            </text>
        </g>
        <g transform="translate(246.00,1065.26)" id="shape18">
            <text style="fill:#191919;font-family:Microsoft YaHei;font-size:10.00pt" xml:space="preserve">
                <tspan x="4.0" y="19.0">天安门事件</tspan>
            </text>
        </g>
        <g transform="translate(517.75,1104.00)" id="shape19">
            <path fill="#ebebeb" d="M174.5,54.0L174.5,.0L.0,.0L.0,54.0L174.5,54.0z" fill-rule="nonzero"/>
            <text style="fill:#191919;font-family:Microsoft YaHei;font-size:10.00pt" xml:space="preserve">
                <tspan x="4.3" y="23.0">天安门事件后, 英国受到压力,</tspan>
                <tspan x="4.3" y="42.0">英國人同意:</tspan>
            </text>
        </g>
        <g transform="translate(539.00,1265.16)" id="shape20">
            <path fill="#f5cfcf" d="M.0,.0L132.0,.0L132.0,53.7L.0,53.7L.0,.0z" fill-rule="nonzero" stroke="#323232"/>
            <text style="fill:#191919;font-family:Microsoft YaHei;font-size:10.00pt" xml:space="preserve">
                <tspan x="15.5" y="22.8">立法局/ 直接选举</tspan>
                <tspan x="51.5" y="41.8">18席</tspan>
            </text>
        </g>
        <g transform="translate(605.00,1158.00)" id="shape21">
            <path fill="none" d="M.0,.0L.0,101.2" stroke="#191919"/>
            <path stroke-width="1" fill="#191919" d="M3.0,101.2L.0,107.2L-3.0,101.2L3.0,101.2" stroke-linecap="round" stroke="#191919"/>
        </g>
        <g transform="translate(331.00,1398.00)" id="shape22">
            <path fill="#ffffff" d="M.0,.0L56.0,.0L56.0,156.0L.0,156.0L.0,.0z" fill-rule="nonzero" stroke="#323232"/>
            <text style="fill:#191919;font-family:Microsoft YaHei;font-size:10.00pt" xml:space="preserve">
                <tspan x="12.0" y="83.5">1997</tspan>
            </text>
        </g>
        <g transform="translate(331.00,1592.00)" id="shape23">
            <path fill="#ffffff" d="M.0,.0L56.0,.0L56.0,156.0L.0,156.0L.0,.0z" fill-rule="nonzero" stroke="#323232"/>
            <text style="fill:#191919;font-family:Microsoft YaHei;font-size:10.00pt" xml:space="preserve">
                <tspan x="12.0" y="83.5">1999</tspan>
            </text>
        </g>
        <g transform="translate(331.00,1786.00)" id="shape24">
            <path fill="#ffffff" d="M.0,.0L56.0,.0L56.0,156.0L.0,156.0L.0,.0z" fill-rule="nonzero" stroke="#323232"/>
            <text style="fill:#191919;font-family:Microsoft YaHei;font-size:10.00pt" xml:space="preserve">
                <tspan x="12.0" y="83.5">2003</tspan>
            </text>
        </g>
        <g transform="translate(706.75,1104.00)" id="shape25">
            <path fill="#ebebeb" d="M132.0,54.0L132.0,.0L.0,.0L.0,54.0L132.0,54.0z" fill-rule="nonzero"/>
            <text style="fill:#191919;font-family:Microsoft YaHei;font-size:10.00pt" xml:space="preserve">
                <tspan x="4.0" y="32.5">中國容许</tspan>
            </text>
        </g>
        <g transform="translate(706.75,1449.16)" id="shape26">
            <path fill="#f5cfcf" d="M.0,.0L132.0,.0L132.0,53.7L.0,53.7L.0,.0z" fill-rule="nonzero" stroke="#323232"/>
            <text style="fill:#191919;font-family:Microsoft YaHei;font-size:10.00pt" xml:space="preserve">
                <tspan x="15.5" y="23.0">立法局/ 直接选举</tspan>
                <tspan x="51.5" y="42.0">20席</tspan>
            </text>
        </g>
        <g transform="translate(706.75,1636.16)" id="shape27">
            <path fill="#f5cfcf" d="M.0,.0L132.0,.0L132.0,53.7L.0,53.7L.0,.0z" fill-rule="nonzero" stroke="#323232"/>
            <text style="fill:#191919;font-family:Microsoft YaHei;font-size:10.00pt" xml:space="preserve">
                <tspan x="15.5" y="23.0">立法局/ 直接选举</tspan>
                <tspan x="51.5" y="42.0">24席</tspan>
            </text>
        </g>
        <g transform="translate(706.75,1825.16)" id="shape28">
            <path fill="#f5cfcf" d="M.0,.0L132.0,.0L132.0,53.7L.0,53.7L.0,.0z" fill-rule="nonzero" stroke="#323232"/>
            <text style="fill:#191919;font-family:Microsoft YaHei;font-size:10.00pt" xml:space="preserve">
                <tspan x="15.5" y="23.0">立法局/ 直接选举</tspan>
                <tspan x="51.5" y="42.0">30席</tspan>
            </text>
        </g>
        <g transform="translate(772.75,1158.00)" id="shape29">
            <path fill="none" d="M.0,.0L.0,285.2" stroke="#191919"/>
            <path stroke-width="1" fill="#191919" d="M3.0,285.2L.0,291.2L-3.0,285.2L3.0,285.2" stroke-linecap="round" stroke="#191919"/>
        </g>
        <g transform="translate(772.75,1502.84)" id="shape30">
            <path fill="none" d="M.0,.0L.0,127.3" stroke="#191919"/>
            <path stroke-width="1" fill="#191919" d="M3.0,127.3L.0,133.3L-3.0,127.3L3.0,127.3" stroke-linecap="round" stroke="#191919"/>
        </g>
        <g transform="translate(772.75,1689.84)" id="shape31">
            <path fill="none" d="M.0,.0L.0,129.3" stroke="#191919"/>
            <path stroke-width="1" fill="#191919" d="M3.0,129.3L.0,135.3L-3.0,129.3L3.0,129.3" stroke-linecap="round" stroke="#191919"/>
        </g>
        <g transform="translate(539.00,1323.00)" id="shape32">
            <path fill="#cfe9d8" d="M.0,.0L132.0,.0L132.0,72.7L.0,72.7L.0,.0z" fill-rule="nonzero" stroke="#323232"/>
            <text style="fill:#191919;font-family:Microsoft YaHei;font-size:10.00pt" xml:space="preserve">
                <tspan x="9.0" y="22.8">立法局/ 在可直接选</tspan>
                <tspan x="30.5" y="41.8">举的18席中,</tspan>
                <tspan x="19.0" y="60.8">民主派赢得12席</tspan>
            </text>
        </g>
    </g>
</svg>
