<svg xmlns="http://www.w3.org/2000/svg" xmlns:xlink="http://www.w3.org/1999/xlink" width="741" viewBox="0 0 741 483" height="483">
    <defs/>
    <g transform="translate(-16.00,-123.00)">
        <g id="shape1" transform="translate(370.50,237.00)">
            <path stroke="#323232" fill="#ffffff" fill-rule="nonzero" d="M136.0,56.0L136.0,.0L.0,.0L.0,56.0L136.0,56.0z"/>
            <text xml:space="preserve" style="fill:#191919;font-family:Microsoft YaHei;font-size:10.00pt">
                <tspan y="24.0" x="13.5">(1922) 海員大罷工</tspan>
                <tspan y="43.0" x="33.5">→ 要求加薪</tspan>
            </text>
        </g>
        <g id="shape2" transform="translate(121.00,368.85)">
            <path stroke="#323232" fill="#cfe9d8" fill-rule="nonzero" d="M136.0,56.0L136.0,.0L.0,.0L.0,56.0L136.0,56.0z"/>
            <text xml:space="preserve" style="fill:#191919;font-family:Microsoft YaHei;font-size:10.00pt">
                <tspan y="24.0" x="45.0">组织者: </tspan>
                <tspan y="43.0" x="42.0">海員工會</tspan>
            </text>
        </g>
        <g id="shape3" transform="translate(189.00,368.85)">
            <path stroke="#191919" fill="none" d="M.0,.0L243.8,-74.1"/>
            <path stroke="#191919" fill="#191919" d="M242.9,-77.0L249.5,-75.9L244.6,-71.2L242.9,-77.0" stroke-width="1" stroke-linecap="round"/>
            <rect fill="#ffffff" y="-41.6" width="26.0" height="19.0" x="93.5"/>
            <text xml:space="preserve" style="fill:#191919;font-family:Microsoft YaHei;font-size:10.00pt">
                <tspan y="-26.6" x="93.5">组织</tspan>
            </text>
        </g>
        <g id="shape4" transform="translate(370.50,549.00)">
            <path stroke="#323232" fill="#f5cfcf" fill-rule="nonzero" d="M136.0,56.0L136.0,.0L.0,.0L.0,56.0L136.0,56.0z"/>
            <text xml:space="preserve" style="fill:#191919;font-family:Microsoft YaHei;font-size:10.00pt">
                <tspan y="33.5" x="55.0">港府</tspan>
            </text>
        </g>
        <g id="shape5" transform="translate(438.50,549.00)">
            <path stroke="#191919" fill="none" d="M.0,.0L-244.1,-121.5"/>
            <path stroke="#191919" fill="#191919" d="M-245.5,-118.8L-249.5,-124.1L-242.8,-124.2L-245.5,-118.8" stroke-width="1" stroke-linecap="round"/>
            <rect fill="#ffffff" y="-98.8" width="85.0" height="19.0" x="-201.9"/>
            <rect fill="#ffffff" y="-79.8" width="78.0" height="19.0" x="-198.4"/>
            <text xml:space="preserve" style="fill:#191919;font-family:Microsoft YaHei;font-size:10.00pt">
                <tspan y="-83.8" x="-201.9">列为非法組織, </tspan>
                <tspan y="-64.8" x="-198.4">拘捕工會領袖</tspan>
            </text>
        </g>
        <g id="shape6" transform="translate(454.00,368.85)">
            <path stroke="#323232" fill="#cfe9d8" fill-rule="nonzero" d="M136.0,56.0L136.0,.0L.0,.0L.0,56.0L136.0,56.0z"/>
            <text xml:space="preserve" style="fill:#191919;font-family:Microsoft YaHei;font-size:10.00pt">
                <tspan y="24.0" x="53.5">活动:</tspan>
                <tspan y="43.0" x="29.0">舉行公眾集會</tspan>
            </text>
        </g>
        <g id="shape7" transform="translate(620.00,368.85)">
            <path stroke="#323232" fill="#cfe9d8" fill-rule="nonzero" d="M136.0,56.0L136.0,.0L.0,.0L.0,56.0L136.0,56.0z"/>
            <text xml:space="preserve" style="fill:#191919;font-family:Microsoft YaHei;font-size:10.00pt">
                <tspan y="24.0" x="40.5">宣传渠道:</tspan>
                <tspan y="43.0" x="42.0">張貼海報</tspan>
            </text>
        </g>
        <g id="shape8" transform="translate(438.50,549.00)">
            <path stroke="#191919" fill="none" d="M.0,.0L80.2,-119.2"/>
            <path stroke="#191919" fill="#191919" d="M77.7,-120.8L83.5,-124.1L82.6,-117.5L77.7,-120.8" stroke-width="1" stroke-linecap="round"/>
            <rect fill="#ffffff" y="-83.4" width="26.0" height="19.0" x="37.7"/>
            <text xml:space="preserve" style="fill:#191919;font-family:Microsoft YaHei;font-size:10.00pt">
                <tspan y="-68.4" x="37.7">禁止</tspan>
            </text>
        </g>
        <g id="shape9" transform="translate(438.50,549.00)">
            <path stroke="#191919" fill="none" d="M.0,.0L244.1,-121.5"/>
            <path stroke="#191919" fill="#191919" d="M242.8,-124.2L249.5,-124.1L245.5,-118.8L242.8,-124.2" stroke-width="1" stroke-linecap="round"/>
            <rect fill="#ffffff" y="-83.4" width="26.0" height="19.0" x="136.4"/>
            <text xml:space="preserve" style="fill:#191919;font-family:Microsoft YaHei;font-size:10.00pt">
                <tspan y="-68.4" x="136.4">禁止</tspan>
            </text>
        </g>
        <g id="shape10" transform="translate(287.33,368.85)">
            <path stroke="#323232" fill="#cfe9d8" fill-rule="nonzero" d="M136.0,56.0L136.0,.0L.0,.0L.0,56.0L136.0,56.0z"/>
            <text xml:space="preserve" style="fill:#191919;font-family:Microsoft YaHei;font-size:10.00pt">
                <tspan y="33.5" x="48.5">参与者</tspan>
            </text>
        </g>
        <g id="shape11" transform="translate(438.50,549.00)">
            <path stroke="#191919" fill="none" d="M.0,.0L-79.8,-119.2"/>
            <path stroke="#191919" fill="#191919" d="M-82.3,-117.5L-83.2,-124.1L-77.3,-120.8L-82.3,-117.5" stroke-width="1" stroke-linecap="round"/>
            <rect fill="#ffffff" y="-97.1" width="107.0" height="19.0" x="-104.8"/>
            <rect fill="#ffffff" y="-78.1" width="78.0" height="19.0" x="-90.3"/>
            <text xml:space="preserve" style="fill:#191919;font-family:Microsoft YaHei;font-size:10.00pt">
                <tspan y="-82.1" x="-104.8">授予警察更大權力,</tspan>
                <tspan y="-63.1" x="-90.3">改善情報蒐集</tspan>
            </text>
        </g>
        <g id="shape12" transform="translate(370.50,124.00)">
            <path stroke="#323232" fill="#f5cfcf" fill-rule="nonzero" d="M136.0,56.0L136.0,.0L.0,.0L.0,56.0L136.0,56.0z"/>
            <text xml:space="preserve" style="fill:#191919;font-family:Microsoft YaHei;font-size:10.00pt">
                <tspan y="33.5" x="6.5">香港生产/生活受影响</tspan>
            </text>
        </g>
        <g id="shape13" transform="translate(438.50,237.00)">
            <path stroke="#191919" fill="none" d="M.0,.0L.0,-51.0"/>
            <path stroke="#191919" fill="#191919" d="M-3.0,-51.0L.0,-57.0L3.0,-51.0L-3.0,-51.0" stroke-width="1" stroke-linecap="round"/>
        </g>
        <g id="shape14" transform="translate(370.50,577.00)">
            <path stroke="#191919" fill="none" d="M.0,.0L-298.0,.0L-298.0,-425.0L-6.0,-425.0"/>
            <path stroke="#191919" fill="#191919" d="M-6.0,-428.0L.0,-425.0L-6.0,-422.0L-6.0,-428.0" stroke-width="1" stroke-linecap="round"/>
            <rect fill="#ffffff" y="-289.4" width="104.0" height="19.0" x="-349.0"/>
            <text xml:space="preserve" style="fill:#191919;font-family:Microsoft YaHei;font-size:10.00pt">
                <tspan y="-274.4" x="-349.0">增加平时物资储备</tspan>
            </text>
        </g>
        <g id="shape15" transform="translate(355.33,368.85)">
            <path stroke="#191919" fill="none" d="M.0,.0L78.7,-71.8"/>
            <path stroke="#191919" fill="#191919" d="M76.7,-74.0L83.2,-75.9L80.8,-69.6L76.7,-74.0" stroke-width="1" stroke-linecap="round"/>
        </g>
        <g id="shape16" transform="translate(522.00,368.85)">
            <path stroke="#191919" fill="none" d="M.0,.0L-79.1,-71.8"/>
            <path stroke="#191919" fill="#191919" d="M-81.1,-69.6L-83.5,-75.9L-77.0,-74.0L-81.1,-69.6" stroke-width="1" stroke-linecap="round"/>
        </g>
        <g id="shape17" transform="translate(688.00,368.85)">
            <path stroke="#191919" fill="none" d="M.0,.0L-243.8,-74.1"/>
            <path stroke="#191919" fill="#191919" d="M-244.6,-71.2L-249.5,-75.9L-242.9,-77.0L-244.6,-71.2" stroke-width="1" stroke-linecap="round"/>
        </g>
    </g>
</svg>
