<svg width="717" height="739" viewBox="0 0 717 739" xmlns="http://www.w3.org/2000/svg" xmlns:xlink="http://www.w3.org/1999/xlink">
    <defs/>
    <g transform="translate(-2886.00,-1152.00)">
        <g id="shape1" transform="translate(2887.00,1210.00)">
            <path d="M715.0,680.0L715.0,.0L.0,.0L.0,680.0L715.0,680.0z" fill="#ffffff" fill-rule="nonzero" stroke="#323232"/>
            <text style="fill:#191919;font-family:Microsoft YaHei;font-size:10.00pt" xml:space="preserve">
                <tspan style="font-size:12.00pt;font-weight:bold" y="21.0" x="4.0">Commonwealth citizen (父集)</tspan>
                <tspan y="41.0" x="4.0">英联邦公民</tspan>
            </text>
        </g>
        <g id="shape2" transform="translate(3411.00,1286.00)">
            <path d="M170.0,207.0L170.0,.0L.0,.0L.0,207.0L170.0,207.0z" fill="#f5cfcf" fill-rule="nonzero" stroke="#323232"/>
            <text style="fill:#191919;font-family:Microsoft YaHei;font-size:10.00pt" xml:space="preserve">
                <tspan style="fill:#c00000" y="19.0" x="4.0">独立国家</tspan>
                <tspan y="57.0" x="4.0">加拿大、</tspan>
                <tspan y="76.0" x="4.0">澳大利亚、新西兰、</tspan>
                <tspan y="95.0" x="4.0">印度、巴基斯坦、南非等</tspan>
            </text>
        </g>
        <g id="shape3" transform="translate(2936.00,1153.00)">
            <path d="M195.0,57.0L195.0,.0L.0,.0L.0,57.0L195.0,57.0z" fill="#d7d7d7" fill-rule="nonzero"/>
            <text style="fill:#191919;font-family:Microsoft YaHei;font-size:10.00pt" xml:space="preserve">
                <tspan y="19.0" x="4.0">Commonwealth Immigrants </tspan>
                <tspan y="38.0" x="4.0">Act 1962 (1962年联邦移民法)</tspan>
            </text>
        </g>
        <g id="shape4" transform="translate(3164.70,1153.00)">
            <path d="M116.4,48.0L116.4,.0L.0,.0L.0,48.0L116.4,48.0z" fill="#cfe9d8" fill-rule="nonzero"/>
            <text style="fill:#191919;font-family:Microsoft YaHei;font-size:10.00pt" xml:space="preserve">
                <tspan y="19.0" x="4.2">有居英权</tspan>
                <tspan y="38.0" x="4.2">Right of Abode</tspan>
            </text>
        </g>
        <g id="shape5" transform="translate(3285.35,1153.00)">
            <path d="M116.4,48.0L116.4,.0L.0,.0L.0,48.0L116.4,48.0z" fill="#f5cfcf" fill-rule="nonzero"/>
            <text style="fill:#191919;font-family:Microsoft YaHei;font-size:10.00pt" xml:space="preserve">
                <tspan y="19.0" x="4.2">无居英权</tspan>
            </text>
        </g>
        <g id="shape6" transform="translate(2936.00,1286.00)">
            <path stroke-width="3" d="M413.0,377.0L413.0,.0L.0,.0L.0,377.0L413.0,377.0z" fill="none" stroke="#323232"/>
            <text style="fill:#191919;font-family:Microsoft YaHei;font-size:10.00pt" xml:space="preserve">
                <tspan style="font-size:12.00pt;font-weight:bold" y="21.0" x="4.0">CUKC (子集)</tspan>
                <tspan y="41.0" x="4.0">Citizen of the United Kingdom and Colonies </tspan>
                <tspan y="60.0" x="4.0">英国及殖民地公民</tspan>
            </text>
        </g>
        <g id="shape7" transform="translate(2957.24,1418.73)">
            <path d="M173.8,207.1L173.8,.0L.0,.0L.0,207.1L173.8,207.1z" fill="#cfe9d8" fill-rule="nonzero" stroke="#323232"/>
            <text style="fill:#191919;font-family:Microsoft YaHei;font-size:10.00pt" xml:space="preserve">
                <tspan y="19.0" x="4.4">英国本土</tspan>
                <tspan y="57.0" x="4.4">England, Scotland, Wales, </tspan>
                <tspan y="76.0" x="4.4">Northern Ireland</tspan>
            </text>
        </g>
        <g id="shape8" transform="translate(3155.50,1419.09)">
            <path d="M170.0,208.2L170.0,.0L.0,.0L.0,208.2L170.0,208.2z" fill="#f5cfcf" fill-rule="nonzero" stroke="#323232"/>
            <text style="fill:#191919;font-family:Microsoft YaHei;font-size:10.00pt" xml:space="preserve">
                <tspan style="fill:#c00000" y="19.0" x="4.0">未独立</tspan>
                <tspan y="38.0" x="4.0">的殖民地 / 属地</tspan>
                <tspan y="76.0" x="4.0">香港、</tspan>
                <tspan y="95.0" x="4.0">直布罗陀、百慕大、</tspan>
                <tspan y="114.0" x="4.0">开曼群岛, 马耳他等</tspan>
            </text>
        </g>
        <g id="group9" transform="translate(2986.00,1517.64)">
            <path id="shape10" d="M22.3,.0L15.4,.0L8.5,.0C3.4,.0,.0,4.1,.0,7.9L.0,26.5C.0,30.1,5.7,30.1,5.7,26.5L5.7,9.3L6.8,9.3L6.8,56.0C6.8,61.0,14.5,60.8,14.7,56.0L14.7,29.1L15.9,29.1L16.1,29.1L16.1,56.0C16.4,61.1,24.0,60.6,24.0,56.0L24.0,9.3L24.9,9.3L24.9,26.5C24.9,30.1,30.8,30.1,30.8,26.5L30.8,7.9C30.8,4.1,27.4,.0,22.3,.0L22.3,.0z" fill="#42c181" transform="translate(0.00,17.32)" fill-rule="nonzero" stroke="#42c181"/>
            <path id="shape11" d="M.0,7.8C.0,3.5,3.5,.0,7.8,.0C12.0,.0,15.5,3.5,15.5,7.8C15.5,12.1,12.0,15.5,7.8,15.5C3.5,15.5,.0,12.1,.0,7.8z" fill="#42c181" transform="translate(7.65,0.00)" fill-rule="nonzero" stroke="#42c181"/>
        </g>
        <g id="group12" transform="translate(3030.20,1517.64)">
            <g id="group13">
                <path id="shape14" d="M22.3,.0L15.4,.0L8.5,.0C3.4,.0,.0,4.1,.0,7.9L.0,26.5C.0,30.1,5.7,30.1,5.7,26.5L5.7,9.3L6.8,9.3L6.8,56.0C6.8,61.0,14.5,60.8,14.7,56.0L14.7,29.1L15.9,29.1L16.1,29.1L16.1,56.0C16.4,61.1,24.0,60.6,24.0,56.0L24.0,9.3L24.9,9.3L24.9,26.5C24.9,30.1,30.8,30.1,30.8,26.5L30.8,7.9C30.8,4.1,27.4,.0,22.3,.0L22.3,.0z" fill="#c00000" transform="translate(0.00,17.32)" fill-rule="nonzero" stroke="#c00000"/>
                <path id="shape15" d="M.0,7.8C.0,3.5,3.5,.0,7.8,.0C12.0,.0,15.5,3.5,15.5,7.8C15.5,12.1,12.0,15.5,7.8,15.5C3.5,15.5,.0,12.1,.0,7.8z" fill="#c00000" transform="translate(7.65,0.00)" fill-rule="nonzero" stroke="#c00000"/>
            </g>
            <g id="shape16" transform="translate(0.00,23.10)">
                <path d="M.0,15.4C.0,6.9,6.9,.0,15.4,.0C23.9,.0,30.8,6.9,30.8,15.4C30.8,23.9,23.9,30.8,15.4,30.8C6.9,30.8,.0,23.9,.0,15.4z" fill="#42c181" fill-rule="nonzero" stroke="#323232"/>
                <text style="fill:#ffffff;font-family:Microsoft YaHei;font-size:14.00pt;font-weight:bold" xml:space="preserve">
                    <tspan y="22.4" x="9.4">P</tspan>
                </text>
            </g>
        </g>
        <g id="group17" transform="translate(3229.10,1294.00)">
            <g id="group18">
                <path id="shape19" d="M22.3,.0L15.4,.0L8.5,.0C3.4,.0,.0,4.1,.0,7.9L.0,26.5C.0,30.1,5.7,30.1,5.7,26.5L5.7,9.3L6.8,9.3L6.8,56.0C6.8,61.0,14.5,60.8,14.7,56.0L14.7,29.1L15.9,29.1L16.1,29.1L16.1,56.0C16.4,61.1,24.0,60.6,24.0,56.0L24.0,9.3L24.9,9.3L24.9,26.5C24.9,30.1,30.8,30.1,30.8,26.5L30.8,7.9C30.8,4.1,27.4,.0,22.3,.0L22.3,.0z" fill="#c00000" transform="translate(0.00,17.32)" fill-rule="nonzero" stroke="#c00000"/>
                <path id="shape20" d="M.0,7.8C.0,3.5,3.5,.0,7.8,.0C12.0,.0,15.5,3.5,15.5,7.8C15.5,12.1,12.0,15.5,7.8,15.5C3.5,15.5,.0,12.1,.0,7.8z" fill="#c00000" transform="translate(7.65,0.00)" fill-rule="nonzero" stroke="#c00000"/>
            </g>
        </g>
        <g id="shape21" transform="translate(3155.50,1544.00)">
            <text style="fill:#191919;font-family:Microsoft YaHei;font-size:12.00pt;font-weight:bold" xml:space="preserve">
                <tspan y="22.5" x="20.0">British Overseas </tspan>
                <tspan y="44.5" x="42.5">Territories </tspan>
                <tspan y="66.5" x="19.0">Citizen（BOTC）</tspan>
            </text>
        </g>
        <g id="shape22" transform="translate(3155.50,1701.00)">
            <path d="M170.0,160.0L170.0,.0L.0,.0L.0,160.0L170.0,160.0z" fill="#f5cfcf" fill-rule="nonzero" stroke="#323232"/>
            <text style="fill:#191919;font-family:Microsoft YaHei;font-size:10.00pt" xml:space="preserve">
                <tspan style="fill:#c00000" y="19.0" x="4.0">后独立</tspan>
                <tspan y="38.0" x="4.0">的殖民地 / 属地</tspan>
                <tspan y="76.0" x="4.0">肯尼亚等</tspan>
            </text>
        </g>
        <g id="shape23" transform="translate(3155.50,1800.00)">
            <text style="fill:#191919;font-family:Microsoft YaHei;font-size:12.00pt;font-weight:bold" xml:space="preserve">
                <tspan y="17.0" x="20.0">British Overseas </tspan>
                <tspan y="39.0" x="24.0">Citizen（BOC）</tspan>
            </text>
        </g>
        <g id="group24" transform="translate(3272.60,1455.00)">
            <g id="group25">
                <path id="shape26" d="M22.3,.0L15.4,.0L8.5,.0C3.4,.0,.0,4.1,.0,7.9L.0,26.5C.0,30.1,5.7,30.1,5.7,26.5L5.7,9.3L6.8,9.3L6.8,56.0C6.8,61.0,14.5,60.8,14.7,56.0L14.7,29.1L15.9,29.1L16.1,29.1L16.1,56.0C16.4,61.1,24.0,60.6,24.0,56.0L24.0,9.3L24.9,9.3L24.9,26.5C24.9,30.1,30.8,30.1,30.8,26.5L30.8,7.9C30.8,4.1,27.4,.0,22.3,.0L22.3,.0z" fill="#c00000" transform="translate(0.00,17.32)" fill-rule="nonzero" stroke="#c00000"/>
                <path id="shape27" d="M.0,7.8C.0,3.5,3.5,.0,7.8,.0C12.0,.0,15.5,3.5,15.5,7.8C15.5,12.1,12.0,15.5,7.8,15.5C3.5,15.5,.0,12.1,.0,7.8z" fill="#c00000" transform="translate(7.65,0.00)" fill-rule="nonzero" stroke="#c00000"/>
            </g>
        </g>
        <g id="group28" transform="translate(3272.60,1718.00)">
            <g id="group29">
                <path id="shape30" d="M22.3,.0L15.4,.0L8.5,.0C3.4,.0,.0,4.1,.0,7.9L.0,26.5C.0,30.1,5.7,30.1,5.7,26.5L5.7,9.3L6.8,9.3L6.8,56.0C6.8,61.0,14.5,60.8,14.7,56.0L14.7,29.1L15.9,29.1L16.1,29.1L16.1,56.0C16.4,61.1,24.0,60.6,24.0,56.0L24.0,9.3L24.9,9.3L24.9,26.5C24.9,30.1,30.8,30.1,30.8,26.5L30.8,7.9C30.8,4.1,27.4,.0,22.3,.0L22.3,.0z" fill="#c00000" transform="translate(0.00,17.32)" fill-rule="nonzero" stroke="#c00000"/>
                <path id="shape31" d="M.0,7.8C.0,3.5,3.5,.0,7.8,.0C12.0,.0,15.5,3.5,15.5,7.8C15.5,12.1,12.0,15.5,7.8,15.5C3.5,15.5,.0,12.1,.0,7.8z" fill="#c00000" transform="translate(7.65,0.00)" fill-rule="nonzero" stroke="#c00000"/>
            </g>
        </g>
        <g id="shape32" transform="translate(3240.50,1627.27)">
            <path d="M.0,.0L.0,67.7" fill="none" stroke-dasharray="6,4" stroke="#191919"/>
            <path stroke-width="1" d="M3.0,67.7L.0,73.7L-3.0,67.7L3.0,67.7" fill="#191919" stroke-linecap="round" stroke="#191919"/>
        </g>
        <g id="shape33" transform="translate(3213.00,1351.00)">
            <path d="M.0,.0C-33.9,-0.0,-67.9,-0.1,-96.1,4.4C-124.3,8.9,-146.8,17.9,-157.9,29.2C-167.7,39.1,-168.9,50.7,-168.9,62.6" fill="none" stroke="#191919"/>
            <path stroke-width="1" d="M-165.9,61.7L-168.9,67.7L-171.9,61.7L-165.9,61.7" fill="#191919" stroke-linecap="round" stroke="#191919"/>
        </g>
        <g id="shape34" transform="translate(3240.50,1384.00)">
            <path d="M.0,.0C.0,1.9,.0,3.9,.0,8.8C.0,13.6,-0.0,21.4,.0,26.3C.0,28.0,.0,29.3,.0,30.4" fill="none" stroke="#191919"/>
            <path stroke-width="1" d="M3.0,29.1L.0,35.1L-3.0,29.1L3.0,29.1" fill="#191919" stroke-linecap="round" stroke="#191919"/>
        </g>
        <g id="shape35" transform="translate(3269.00,1356.00)">
            <path d="M.0,.0C33.1,3.6,66.3,7.3,85.0,61.0C103.7,114.7,108.0,218.5,100.8,287.5C93.9,353.7,76.6,387.9,58.8,420.8" fill="none" stroke="#191919"/>
            <path stroke-width="1" d="M62.0,421.2L56.5,425.0L56.7,418.3L62.0,421.2" fill="#191919" stroke-linecap="round" stroke="#191919"/>
        </g>
        <g id="shape36" transform="translate(3032.96,1375.47)">
            <path d="M.0,14.0C.0,6.3,6.3,.0,14.0,.0C21.8,.0,28.0,6.3,28.0,14.0C28.0,21.8,21.8,28.0,14.0,28.0C6.3,28.0,.0,21.8,.0,14.0z" fill="#ffffff" fill-rule="nonzero" stroke="#323232"/>
            <text style="fill:#191919;font-family:Microsoft YaHei;font-size:11.00pt" xml:space="preserve">
                <tspan y="20.0" x="9.5">1</tspan>
            </text>
        </g>
        <g id="shape37" transform="translate(3226.48,1375.47)">
            <path d="M.0,14.0C.0,6.3,6.3,.0,14.0,.0C21.8,.0,28.0,6.3,28.0,14.0C28.0,21.8,21.8,28.1,14.0,28.1C6.3,28.1,.0,21.8,.0,14.0z" fill="#ffffff" fill-rule="nonzero" stroke="#323232"/>
            <text style="fill:#191919;font-family:Microsoft YaHei;font-size:11.00pt" xml:space="preserve">
                <tspan y="20.0" x="9.5">2</tspan>
            </text>
        </g>
        <g id="shape38" transform="translate(3329.52,1375.47)">
            <path d="M.0,14.0C.0,6.3,6.3,.0,14.0,.0C21.8,.0,28.0,6.3,28.0,14.0C28.0,21.8,21.8,28.1,14.0,28.1C6.3,28.1,.0,21.8,.0,14.0z" fill="#ffffff" fill-rule="nonzero" stroke="#323232"/>
            <text style="fill:#191919;font-family:Microsoft YaHei;font-size:11.00pt" xml:space="preserve">
                <tspan y="20.0" x="9.5">3</tspan>
            </text>
        </g>
    </g>
</svg>
