<svg width="371" viewBox="0 0 371 143" height="143" xmlns="http://www.w3.org/2000/svg" xmlns:xlink="http://www.w3.org/1999/xlink">
    <defs/>
    <g transform="translate(-185.00,-226.00)">
        <g id="shape1" transform="translate(435.00,227.00)">
            <path fill="#ffffff" stroke="#323232" fill-rule="nonzero" d="M120.0,47.0L120.0,.0L.0,.0L.0,47.0L120.0,47.0z"/>
            <text style="fill:#191919;font-family:Microsoft YaHei;font-size:10.00pt" xml:space="preserve">
                <tspan x="40.5" y="29.0">会议中</tspan>
            </text>
        </g>
        <g id="shape2" transform="translate(435.00,321.00)">
            <path fill="#ffffff" stroke="#323232" fill-rule="nonzero" d="M120.0,47.0L120.0,.0L.0,.0L.0,47.0L120.0,47.0z"/>
            <text style="fill:#191919;font-family:Microsoft YaHei;font-size:10.00pt" xml:space="preserve">
                <tspan x="27.5" y="29.0">做出决策后</tspan>
            </text>
        </g>
        <g id="shape3" transform="translate(495.00,274.00)">
            <path fill="none" stroke="#191919" d="M.0,.0L.0,41.0"/>
            <path fill="#191919" stroke="#191919" stroke-linecap="round" stroke-width="1" d="M3.0,41.0L.0,47.0L-3.0,41.0L3.0,41.0"/>
        </g>
        <g id="shape4" transform="translate(186.00,227.00)">
            <path fill="#ffffff" stroke="#323232" fill-rule="nonzero" d="M120.0,47.0L120.0,.0L.0,.0L.0,47.0L120.0,47.0z"/>
            <text style="fill:#191919;font-family:Microsoft YaHei;font-size:10.00pt" xml:space="preserve">
                <tspan x="53.5" y="29.0">你</tspan>
            </text>
        </g>
        <g id="shape5" transform="translate(306.00,250.50)">
            <path fill="none" stroke="#191919" d="M.0,.0L123.0,.0"/>
            <path fill="#191919" stroke="#191919" stroke-linecap="round" stroke-width="1" d="M123.0,-3.0L129.0,.0L123.0,3.0L123.0,-3.0"/>
            <rect fill="#ffffff" x="30.7" y="-19.0" width="52.0" height="19.0"/>
            <rect fill="#ffffff" x="17.7" y="0.0" width="78.0" height="19.0"/>
            <text style="fill:#c00000;font-family:Microsoft YaHei;font-size:10.00pt" xml:space="preserve">
                <tspan x="30.7" y="-4.0">可以自由</tspan>
                <tspan x="17.7" y="15.0">发表不同意见</tspan>
            </text>
        </g>
        <g id="shape6" transform="translate(246.00,274.00)">
            <path fill="none" stroke="#191919" d="M.0,.0L.0,70.5L183.0,70.5"/>
            <path fill="#191919" stroke="#191919" stroke-linecap="round" stroke-width="1" d="M183.0,67.5L189.0,70.5L183.0,73.5L183.0,67.5"/>
            <rect fill="#ffffff" x="84.1" y="51.5" width="68.0" height="19.0"/>
            <rect fill="#ffffff" x="56.1" y="70.5" width="124.0" height="19.0"/>
            <text style="fill:#c00000;font-family:Microsoft YaHei;font-size:10.00pt" xml:space="preserve">
                <tspan x="84.1" y="66.5">你要么同意,</tspan>
                <tspan x="56.1" y="85.5">要么不同意, 你就辞职</tspan>
            </text>
        </g>
    </g>
</svg>
