<svg viewBox="0 0 560 203" xmlns:xlink="http://www.w3.org/1999/xlink" height="203" xmlns="http://www.w3.org/2000/svg" width="560">
    <defs/>
    <g transform="translate(-312.00,-214.50)">
        <g transform="translate(317.00,302.00)" id="shape1">
            <path fill="none" stroke="#191919" d="M.0,.0L490.0,.0"/>
            <path stroke-linecap="round" fill="#191919" stroke-width="1" stroke="#191919" d="M490.0,-3.0L496.0,.0L490.0,3.0L490.0,-3.0"/>
        </g>
        <g transform="translate(397.00,270.00)" id="shape2">
            <path fill="#ffffff" fill-rule="nonzero" d="M146.0,70.0L146.0,.0L.0,.0L.0,70.0L146.0,70.0z" stroke="#323232"/>
            <text xml:space="preserve" style="fill:#191919;font-family:Microsoft YaHei;font-size:10.00pt">
                <tspan y="21.5" x="18.0">where historically </tspan>
                <tspan y="40.5" x="6.5">people </tspan>
                <tspan x="51.5" style="fill:#c00000">had preferred</tspan>
                <tspan x="135.5"> </tspan>
                <tspan y="59.5" x="39.0">to rely on...</tspan>
            </text>
        </g>
        <g transform="translate(591.00,270.00)" id="shape3">
            <path fill="#ffffff" fill-rule="nonzero" d="M146.0,70.0L146.0,.0L.0,.0L.0,70.0L146.0,70.0z" stroke="#323232"/>
            <text xml:space="preserve" style="fill:#191919;font-family:Microsoft YaHei;font-size:10.00pt">
                <tspan y="31.0" x="32.0">This they </tspan>
                <tspan x="91.0" style="fill:#c00000">did</tspan>
                <tspan x="110.0"> </tspan>
                <tspan y="50.0" x="4.5">by assuming the role...</tspan>
            </text>
        </g>
        <g transform="translate(634.00,225.00)" id="shape4">
            <text xml:space="preserve" style="fill:#191919;font-family:Microsoft YaHei;font-size:10.00pt;font-weight:bold">
                <tspan y="23.0" x="17.0">过去</tspan>
            </text>
        </g>
        <g transform="translate(811.00,282.50)" id="shape5">
            <text xml:space="preserve" style="fill:#191919;font-family:Microsoft YaHei;font-size:10.00pt">
                <tspan y="23.0" x="10.5">时间线</tspan>
            </text>
        </g>
        <g transform="translate(415.50,215.50)" id="shape6">
            <text xml:space="preserve" style="fill:#191919;font-family:Microsoft YaHei;font-size:10.00pt;font-weight:bold">
                <tspan y="32.5" x="9.0">过去的过去</tspan>
            </text>
        </g>
        <g transform="translate(410.00,355.00)" id="shape7">
            <text xml:space="preserve" style="fill:#191919;font-family:Microsoft YaHei;font-size:10.00pt">
                <tspan y="19.0" x="4.0">历史上人们一直更</tspan>
                <tspan y="38.0" x="4.0">倾向于依靠...</tspan>
            </text>
        </g>
        <g transform="translate(604.00,355.00)" id="shape8">
            <text xml:space="preserve" style="fill:#191919;font-family:Microsoft YaHei;font-size:10.00pt">
                <tspan y="19.0" x="4.0">19世纪的行为</tspan>
            </text>
        </g>
    </g>
</svg>
