<svg id="Layer_1" data-name="Layer 1" xmlns="http://www.w3.org/2000/svg" viewBox="0 0 586.2 474.51"><defs><style>.cls-1{fill:#00a651;}.cls-1,.cls-2{opacity:0.2;}.cls-2{fill:#9b8579;}.cls-3{fill:none;stroke:#231f20;stroke-miterlimit:10;}.cls-14,.cls-15,.cls-4,.cls-5,.cls-6{fill:#231f20;}.cls-5{font-size:12px;}.cls-12,.cls-13,.cls-14,.cls-15,.cls-5,.cls-6{font-family:MicrosoftYaHei, Microsoft YaHei;}.cls-12,.cls-6{font-size:14px;}.cls-7{letter-spacing:-0.01em;}.cls-8{letter-spacing:-0.01em;}.cls-9{letter-spacing:-0.01em;}.cls-10,.cls-12,.cls-13{fill:#be1e2d;}.cls-11{letter-spacing:-0.01em;}.cls-13,.cls-15{font-size:15px;}.cls-14{font-size:11px;}</style></defs><rect class="cls-1" x="220.21" width="94.5" height="464.4"/><rect class="cls-2" x="29.01" width="178.88" height="464.4"/><line class="cls-3" x1="59.9" y1="135.4" x2="373.46" y2="135.4"/><polygon class="cls-4" points="380.52 135.4 370.57 139.47 372.93 135.4 370.57 131.34 380.52 135.4"/><circle class="cls-3" cx="116.6" cy="133.99" r="7.22"/><circle class="cls-3" cx="273.3" cy="133.99" r="7.22"/><text class="cls-5" transform="translate(261.05 164.15)">now</text><text class="cls-6" transform="translate(262.19 46.36)">will</text><text class="cls-6" transform="translate(253.38 241.2)">It will </text><text class="cls-6" transform="translate(41.32 241.2)">ha<tspan class="cls-7" x="16.36" y="0">v</tspan><tspan x="23.62" y="0">e done some good</tspan></text><text class="cls-6" transform="translate(81.54 46.36)">ha<tspan class="cls-7" x="16.36" y="0">v</tspan><tspan x="23.62" y="0">e done</tspan></text><polyline class="cls-3" points="273.3 115.43 273.3 72.13 116.6 72.13 116.6 108.37"/><polygon class="cls-4" points="116.6 115.43 112.54 105.48 116.6 107.84 120.67 105.48 116.6 115.43"/><polyline class="cls-3" points="273.3 251.51 273.3 268.01 116.6 268.01 116.6 258.57"/><polygon class="cls-4" points="116.6 251.51 120.67 261.46 116.6 259.1 112.54 261.46 116.6 251.51"/><text class="cls-6" transform="translate(250.73 321.62)">He will</text><text class="cls-6" transform="translate(59.8 321.62)"><tspan xml:space="preserve"> ha</tspan><tspan class="cls-7" x="20.5" y="0">v</tspan><tspan x="27.76" y="0">e fo</tspan><tspan class="cls-8" x="53.6" y="0">r</tspan><tspan x="58.75" y="0">got</tspan><tspan class="cls-9" x="81.82" y="0">t</tspan><tspan x="86.92" y="0">en...</tspan></text><text class="cls-6" transform="translate(324.84 321.62)">他大概<tspan class="cls-10" x="42" y="0">(对过去做推测)</tspan><tspan x="135.35" y="0">已经忘了。</tspan></text><text class="cls-6" transform="translate(324.84 241.37)">它大概<tspan class="cls-10" x="42" y="0">(对过去做推测)</tspan><tspan x="135.35" y="0">还是带来了一些好处</tspan></text><polyline class="cls-3" points="273.3 331.93 273.3 348.42 116.6 348.42 116.6 338.99"/><polygon class="cls-4" points="116.6 331.93 120.67 341.88 116.6 339.51 112.54 341.88 116.6 331.93"/><text class="cls-6" transform="translate(258.06 404.09)">I will</text><text class="cls-6" transform="translate(0 404.09)">ha<tspan class="cls-7" x="16.36" y="0">v</tspan><tspan x="23.62" y="0">e d</tspan><tspan class="cls-8" x="44.66" y="0">r</tspan><tspan x="49.81" y="0">opped it in the </tspan><tspan class="cls-11" x="153.13" y="0">p</tspan><tspan x="161.87" y="0">ark</tspan></text><text class="cls-12" transform="translate(324.84 404.09)">想必我刚才<tspan class="cls-4" x="70" y="0">一定是把钥匙掉在公园里了</tspan></text><polyline class="cls-3" points="273.3 414.4 273.3 430.89 116.6 430.89 116.6 421.46"/><polygon class="cls-4" points="116.6 414.4 120.67 424.35 116.6 421.99 112.54 424.35 116.6 414.4"/><text class="cls-13" transform="translate(237.1 22.65)">1.站在现在</text><text class="cls-13" transform="translate(65.4 22.65)">2.对过去做推测</text><text class="cls-14" transform="translate(38.58 193.47)">当我们回顾这件事时，我们将会认识到，它 (到那时) 已经产生了某种影响。</text><text class="cls-15" transform="translate(253.73 470.62)">现在</text><text class="cls-15" transform="translate(109.38 470.68)">过去</text></svg>