<svg width="723" xmlns="http://www.w3.org/2000/svg" xmlns:xlink="http://www.w3.org/1999/xlink" height="336" viewBox="0 0 723 336">
    <defs/>
    <g transform="translate(-188.00,-174.50)">
        <g id="shape1" transform="translate(428.00,265.00)">
            <path fill="#d7d7d7" d="M120.0,37.0L120.0,.0L.0,.0L.0,37.0L120.0,37.0z" fill-rule="nonzero" stroke="#323232"/>
            <text xml:space="preserve" style="fill:#191919;font-family:Microsoft YaHei;font-size:10.00pt">
                <tspan x="33.5" y="24.0">Henry III</tspan>
            </text>
        </g>
        <g id="shape2" transform="translate(428.00,184.00)">
            <path fill="#ffffff" d="M120.0,37.0L120.0,.0L.0,.0L.0,37.0L120.0,37.0z" fill-rule="nonzero" stroke="#323232"/>
            <text xml:space="preserve" style="fill:#191919;font-family:Microsoft YaHei;font-size:10.00pt">
                <tspan x="29.5" y="24.0">Charles IX</tspan>
            </text>
        </g>
        <g id="shape3" transform="translate(488.00,221.00)">
            <path fill="none" d="M.0,.0L.0,38.0" stroke="#191919"/>
            <path fill="#191919" stroke-linecap="round" d="M3.0,38.0L.0,44.0L-3.0,38.0L3.0,38.0" stroke="#191919" stroke-width="1"/>
        </g>
        <g id="shape4" transform="translate(753.00,256.50)">
            <path fill="#d7d7d7" d="M120.0,54.0L120.0,.0L.0,.0L.0,54.0L120.0,54.0z" fill-rule="nonzero" stroke="#323232"/>
            <text xml:space="preserve" style="fill:#191919;font-family:Microsoft YaHei;font-size:10.00pt">
                <tspan x="14.0" y="23.0">Henry of Guise</tspan>
                <tspan x="17.0" y="42.0">(极端天主教派)</tspan>
            </text>
        </g>
        <g id="shape5" transform="translate(753.00,175.50)">
            <path fill="#ffffff" d="M120.0,54.0L120.0,.0L.0,.0L.0,54.0L120.0,54.0z" fill-rule="nonzero" stroke="#323232"/>
            <text xml:space="preserve" style="fill:#191919;font-family:Microsoft YaHei;font-size:10.00pt">
                <tspan x="6.0" y="23.0">the ultra-Catholic </tspan>
                <tspan x="22.0" y="42.0">Holy League</tspan>
            </text>
        </g>
        <g id="shape6" transform="translate(813.00,229.50)">
            <path fill="none" d="M.0,.0L.0,21.0" stroke="#191919"/>
            <path fill="#191919" stroke-linecap="round" d="M3.0,21.0L.0,27.0L-3.0,21.0L3.0,21.0" stroke="#191919" stroke-width="1"/>
        </g>
        <g id="shape7" transform="translate(624.00,175.50)">
            <path fill="#ffffff" d="M120.0,54.0L120.0,.0L.0,.0L.0,54.0L120.0,54.0z" fill-rule="nonzero" stroke="#323232"/>
            <text xml:space="preserve" style="fill:#191919;font-family:Microsoft YaHei;font-size:10.00pt">
                <tspan x="13.5" y="32.5">Spanish throne</tspan>
            </text>
        </g>
        <g id="shape8" transform="translate(684.00,229.50)">
            <path fill="none" d="M.0,.0L.0,11.0L129.0,11.0L129.0,21.0" stroke="#191919"/>
            <path fill="#191919" stroke-linecap="round" d="M132.0,21.0L129.0,27.0L126.0,21.0L132.0,21.0" stroke="#191919" stroke-width="1"/>
        </g>
        <g id="shape9" transform="translate(753.00,283.50)">
            <path fill="none" d="M.0,.0L-199.0,.0" stroke="#191919"/>
            <path fill="#191919" stroke-linecap="round" d="M-199.0,3.0L-205.0,.0L-199.0,-3.0L-199.0,3.0" stroke="#191919" stroke-width="1"/>
            <rect width="89.0" fill="#ffffff" x="-148.2" height="19.0" y="-9.5"/>
            <text xml:space="preserve" style="fill:#191919;font-family:Microsoft YaHei;font-size:10.00pt">
                <tspan x="-148.2" y="5.5">1.贬为首席大臣</tspan>
            </text>
        </g>
        <g id="shape10" transform="translate(527.24,302.00)">
            <path fill="none" d="M.0,.0L.0,40.5L285.8,40.5L285.8,14.5" stroke="#191919"/>
            <path fill="#191919" stroke-linecap="round" d="M282.8,14.5L285.8,8.5L288.8,14.5L282.8,14.5" stroke="#191919" stroke-width="1"/>
            <rect width="37.0" fill="#ffffff" x="113.5" height="19.0" y="31.0"/>
            <text xml:space="preserve" style="fill:#191919;font-family:Microsoft YaHei;font-size:10.00pt">
                <tspan x="113.5" y="46.0">2.暗杀</tspan>
            </text>
        </g>
        <g id="shape11" transform="translate(189.00,247.00)">
            <path fill="#d7d7d7" d="M196.0,73.0L196.0,.0L.0,.0L.0,73.0L196.0,73.0z" fill-rule="nonzero" stroke="#323232"/>
            <text xml:space="preserve" style="fill:#191919;font-family:Microsoft YaHei;font-size:10.00pt">
                <tspan x="44.5" y="32.5">Henry of Navarre</tspan>
                <tspan x="67.0" y="51.5">(Henry IV)</tspan>
            </text>
        </g>
        <g id="shape12" transform="translate(488.00,302.00)">
            <path fill="none" d="M.0,.0L.0,76.0L418.0,76.0L418.0,-99.5L391.0,-99.5" stroke="#191919"/>
            <path fill="#191919" stroke-linecap="round" d="M391.0,-96.5L385.0,-99.5L391.0,-102.5L391.0,-96.5" stroke="#191919" stroke-width="1"/>
            <rect width="104.0" fill="#ffffff" x="144.4" height="19.0" y="66.5"/>
            <text xml:space="preserve" style="fill:#191919;font-family:Microsoft YaHei;font-size:10.00pt">
                <tspan x="144.4" y="81.5">3.rid 巴黎 of 组织</tspan>
            </text>
        </g>
        <g id="shape13" transform="translate(428.00,472.00)">
            <path fill="#ffffff" d="M120.0,37.0L120.0,.0L.0,.0L.0,37.0L120.0,37.0z" fill-rule="nonzero" stroke="#323232"/>
            <text xml:space="preserve" style="fill:#191919;font-family:Microsoft YaHei;font-size:10.00pt">
                <tspan x="42.5" y="24.0">monk</tspan>
            </text>
        </g>
        <g id="shape14" transform="translate(453.20,472.00)">
            <path fill="none" d="M.0,.0L.0,-164.0" stroke="#191919"/>
            <path fill="#191919" stroke-linecap="round" d="M-3.0,-164.0L.0,-170.0L3.0,-164.0L-3.0,-164.0" stroke="#191919" stroke-width="1"/>
            <rect width="37.0" fill="#ffffff" x="-17.5" height="19.0" y="-89.6"/>
            <text xml:space="preserve" style="fill:#191919;font-family:Microsoft YaHei;font-size:10.00pt">
                <tspan x="-17.5" y="-74.6">4.暗杀</tspan>
            </text>
        </g>
        <g id="shape15" transform="translate(220.00,184.00)">
            <text xml:space="preserve" style="fill:#191919;font-family:Microsoft YaHei;font-size:10.00pt">
                <tspan x="28.5" y="23.5">5.最后成为</tspan>
                <tspan x="34.0" y="42.5">法国国王</tspan>
            </text>
        </g>
        <g id="shape16" transform="translate(194.74,374.35)">
            <path fill="#ffffff" d="M184.5,45.0L184.5,.0L.0,.0L.0,45.0L184.5,45.0z" fill-rule="nonzero" stroke="#323232"/>
            <text xml:space="preserve" style="fill:#191919;font-family:Microsoft YaHei;font-size:10.00pt">
                <tspan x="32.8" y="18.5">the Edict of Nantes</tspan>
                <tspan x="66.3" y="37.5">南特敕令</tspan>
            </text>
        </g>
        <g id="shape17" transform="translate(287.00,320.00)">
            <path fill="none" d="M.0,.0L.0,48.4" stroke="#191919"/>
            <path fill="#191919" stroke-linecap="round" d="M3.0,48.4L.0,54.4L-3.0,48.4L3.0,48.4" stroke="#191919" stroke-width="1"/>
            <rect width="26.0" fill="#ffffff" x="-12.0" height="19.0" y="16.4"/>
            <text xml:space="preserve" style="fill:#191919;font-family:Microsoft YaHei;font-size:10.00pt">
                <tspan x="-12.0" y="31.4">发布</tspan>
            </text>
        </g>
    </g>
</svg>
