<svg width="901" height="499" xmlns="http://www.w3.org/2000/svg" viewBox="0 0 901 499" xmlns:xlink="http://www.w3.org/1999/xlink">
    <defs/>
    <g transform="translate(-319.14,-131.00)">
        <g transform="translate(320.14,208.00)" id="shape1">
            <path fill="#ffffff" stroke="#323232" d="M131.6,38.0L131.6,.0L.0,.0L.0,38.0L131.6,38.0z" fill-rule="nonzero"/>
            <text xml:space="preserve" style="fill:#191919;font-family:Microsoft YaHei;font-size:10.00pt">
                <tspan y="24.5" x="11.8">自由主义改革 停滞</tspan>
            </text>
        </g>
        <g transform="translate(644.26,208.00)" id="shape2">
            <path fill="#ffffff" stroke="#323232" d="M131.6,38.0L131.6,.0L.0,.0L.0,38.0L131.6,38.0z" fill-rule="nonzero"/>
            <text xml:space="preserve" style="fill:#191919;font-family:Microsoft YaHei;font-size:10.00pt">
                <tspan y="24.5" x="39.8">食物短缺</tspan>
            </text>
        </g>
        <g transform="translate(737.00,132.00)" id="shape3">
            <text xml:space="preserve" style="fill:#191919;font-family:Microsoft YaHei;font-size:14.00pt">
                <tspan y="28.1" x="41.0">俄国</tspan>
            </text>
        </g>
        <g transform="translate(482.20,208.00)" id="shape4">
            <path fill="#ffffff" stroke="#323232" d="M131.6,38.0L131.6,.0L.0,.0L.0,38.0L131.6,38.0z" fill-rule="nonzero"/>
            <text xml:space="preserve" style="fill:#191919;font-family:Microsoft YaHei;font-size:10.00pt">
                <tspan y="24.5" x="39.8">参加一战</tspan>
            </text>
        </g>
        <g transform="translate(630.16,294.00)" id="shape5">
            <path fill="#ffffff" stroke="#323232" d="M159.8,54.0L159.8,.0L.0,.0L.0,54.0L159.8,54.0z" fill-rule="nonzero"/>
            <text xml:space="preserve" style="fill:#191919;font-family:Microsoft YaHei;font-size:10.00pt">
                <tspan y="23.0" x="14.9">人民抗议主食价格飞涨</tspan>
                <tspan y="42.0" x="47.9"> (二月革命)</tspan>
            </text>
        </g>
        <g transform="translate(425.00,411.34)" id="shape6">
            <path fill="#ffffff" stroke="#323232" d="M170.0,31.4L170.0,.0L.0,.0L.0,31.4L170.0,31.4z" fill-rule="nonzero"/>
            <text xml:space="preserve" style="fill:#191919;font-family:Microsoft YaHei;font-size:10.00pt">
                <tspan y="21.2" x="39.5">尼古拉二世退位</tspan>
            </text>
        </g>
        <g transform="translate(625.06,389.23)" id="shape7">
            <path fill="#d7d7d7" stroke="#323232" d="M170.0,53.5L170.0,.0L.0,.0L.0,53.5L170.0,53.5z" fill-rule="nonzero"/>
            <text xml:space="preserve" style="fill:#191919;font-family:Microsoft YaHei;font-size:10.00pt">
                <tspan y="22.8" x="8.5">"杜马"（Duma）立法机构</tspan>
                <tspan y="41.8" x="52.5">控制了俄国</tspan>
            </text>
        </g>
        <g transform="translate(710.06,246.00)" id="shape8">
            <path fill="none" stroke="#191919" d="M.0,.0L.0,42.0"/>
            <path fill="#191919" stroke="#191919" stroke-linecap="round" d="M3.0,42.0L.0,48.0L-3.0,42.0L3.0,42.0" stroke-width="1"/>
        </g>
        <g transform="translate(710.06,348.00)" id="shape9">
            <path fill="none" stroke="#191919" d="M.0,.0L-0.0,35.2"/>
            <path fill="#191919" stroke="#191919" stroke-linecap="round" d="M3.0,35.2L-0.0,41.2L-3.0,35.2L3.0,35.2" stroke-width="1"/>
        </g>
        <g transform="translate(710.06,348.00)" id="shape10">
            <path fill="none" stroke="#191919" d="M.0,.0L.0,25.2L-200.1,25.2L-200.1,57.3"/>
            <path fill="#191919" stroke="#191919" stroke-linecap="round" d="M-197.1,57.3L-200.1,63.3L-203.1,57.3L-197.1,57.3" stroke-width="1"/>
        </g>
        <g transform="translate(548.00,246.00)" id="shape11">
            <path fill="none" stroke="#191919" d="M.0,.0L.0,16.0L162.1,16.0L162.1,42.0"/>
            <path fill="#191919" stroke="#191919" stroke-linecap="round" d="M165.1,42.0L162.1,48.0L159.1,42.0L165.1,42.0" stroke-width="1"/>
        </g>
        <g transform="translate(385.94,246.00)" id="shape12">
            <path fill="none" stroke="#191919" d="M.0,.0L.0,16.0L324.1,16.0L324.1,42.0"/>
            <path fill="#191919" stroke="#191919" stroke-linecap="round" d="M327.1,42.0L324.1,48.0L321.1,42.0L327.1,42.0" stroke-width="1"/>
        </g>
        <g transform="translate(945.00,275.00)" id="shape13">
            <path fill="#ffffff" stroke="#323232" d="M159.8,73.0L159.8,.0L.0,.0L.0,73.0L159.8,73.0z" fill-rule="nonzero"/>
            <text xml:space="preserve" style="fill:#191919;font-family:Microsoft YaHei;font-size:10.00pt">
                <tspan y="23.0" x="14.9">马克思主义社会民主党</tspan>
                <tspan y="42.0" x="30.4">（Marxist Social </tspan>
                <tspan y="61.0" x="19.9">Democratic party）</tspan>
            </text>
        </g>
        <g transform="translate(831.00,379.73)" id="shape14">
            <path fill="#ffffff" stroke="#323232" d="M170.0,72.5L170.0,.0L.0,.0L.0,72.5L170.0,72.5z" fill-rule="nonzero"/>
            <text xml:space="preserve" style="fill:#191919;font-family:Microsoft YaHei;font-size:10.00pt">
                <tspan y="23.0" x="51.0">相对温和派:</tspan>
                <tspan y="42.0" x="10.0">孟什维克（Mensheviks）</tspan>
                <tspan y="61.0" x="7.5">愿意建立一个"议会民主制"</tspan>
            </text>
        </g>
        <g transform="translate(1048.99,379.73)" id="shape15">
            <path fill="#d7d7d7" stroke="#323232" d="M170.0,92.3L170.0,.0L.0,.0L.0,92.3L170.0,92.3z" fill-rule="nonzero"/>
            <text xml:space="preserve" style="fill:#191919;font-family:Microsoft YaHei;font-size:10.00pt">
                <tspan y="23.1" x="64.0">激进派:</tspan>
                <tspan y="42.1" x="8.0">布尔什维克（Bolsheviks）</tspan>
                <tspan y="61.1" x="57.5">列宁领导.</tspan>
                <tspan y="80.1" x="37.0">"推翻"临时政府"</tspan>
            </text>
        </g>
        <g transform="translate(1024.90,348.00)" id="shape16">
            <path fill="none" stroke="#191919" d="M.0,.0L.0,15.7L-108.9,15.7L-108.9,25.7"/>
            <path fill="#191919" stroke="#191919" stroke-linecap="round" d="M-105.9,25.7L-108.9,31.7L-111.9,25.7L-105.9,25.7" stroke-width="1"/>
        </g>
        <g transform="translate(1024.90,348.00)" id="shape17">
            <path fill="none" stroke="#191919" d="M.0,.0L.0,15.7L109.1,15.7L109.1,25.7"/>
            <path fill="#191919" stroke="#191919" stroke-linecap="round" d="M112.1,25.7L109.1,31.7L106.1,25.7L112.1,25.7" stroke-width="1"/>
        </g>
        <g transform="translate(1080.76,529.00)" id="shape18">
            <path fill="#ffffff" stroke="#323232" d="M106.5,38.0L106.5,.0L.0,.0L.0,38.0L106.5,38.0z" fill-rule="nonzero"/>
            <text xml:space="preserve" style="fill:#191919;font-family:Microsoft YaHei;font-size:10.00pt">
                <tspan y="24.5" x="14.7">改名"共产党"</tspan>
            </text>
        </g>
        <g transform="translate(1134.00,472.00)" id="shape19">
            <path fill="none" stroke="#191919" d="M.0,.0L.0,32.0L-423.9,32.0L-423.9,-23.2"/>
            <path fill="#191919" stroke="#191919" stroke-linecap="round" d="M-426.9,-23.2L-423.9,-29.2L-420.9,-23.2L-426.9,-23.2" stroke-width="1"/>
            <rect fill="#ffffff" y="-5.6" width="26.0" height="19.0" x="-435.9"/>
            <text xml:space="preserve" style="fill:#191919;font-family:Microsoft YaHei;font-size:10.00pt">
                <tspan y="9.4" x="-435.9">推翻</tspan>
            </text>
        </g>
        <g transform="translate(1134.00,472.00)" id="shape20">
            <path fill="none" stroke="#191919" d="M.0,.0L.0,51.0"/>
            <path fill="#191919" stroke="#191919" stroke-linecap="round" d="M3.0,51.0L.0,57.0L-3.0,51.0L3.0,51.0" stroke-width="1"/>
        </g>
        <g transform="translate(656.82,529.00)" id="shape21">
            <path fill="#d7d7d7" stroke="#323232" d="M106.5,38.0L106.5,.0L.0,.0L.0,38.0L106.5,38.0z" fill-rule="nonzero"/>
            <text xml:space="preserve" style="fill:#191919;font-family:Microsoft YaHei;font-size:10.00pt">
                <tspan y="24.5" x="7.7">反共产主义力量</tspan>
            </text>
        </g>
        <g transform="translate(862.76,591.00)" id="shape22">
            <path fill="#ffffff" stroke="#323232" d="M106.5,38.0L106.5,.0L.0,.0L.0,38.0L106.5,38.0z" fill-rule="nonzero"/>
            <text xml:space="preserve" style="fill:#191919;font-family:Microsoft YaHei;font-size:10.00pt">
                <tspan y="24.5" x="40.2">内战</tspan>
            </text>
        </g>
        <g transform="translate(763.31,548.00)" id="shape23">
            <path fill="none" stroke="#191919" d="M.0,.0L152.7,.0L152.7,37.0"/>
            <path fill="#191919" stroke="#191919" stroke-linecap="round" d="M155.7,37.0L152.7,43.0L149.7,37.0L155.7,37.0" stroke-width="1"/>
        </g>
        <g transform="translate(1080.76,548.00)" id="shape24">
            <path fill="none" stroke="#191919" d="M.0,.0L-164.8,.0L-164.8,37.0"/>
            <path fill="#191919" stroke="#191919" stroke-linecap="round" d="M-161.8,37.0L-164.8,43.0L-167.8,37.0L-161.8,37.0" stroke-width="1"/>
        </g>
    </g>
</svg>
