<svg viewBox="0 0 655 200" height="200" xmlns:xlink="http://www.w3.org/1999/xlink" width="655" xmlns="http://www.w3.org/2000/svg">
    <defs/>
    <g transform="translate(-298.00,-225.00)">
        <path d="M136.0,27.1L136.0,.0L.0,.0L.0,27.1L136.0,27.1z" id="shape1" fill-rule="nonzero" transform="translate(618.00,311.85)" fill="#d7d7d7"/>
        <path d="M72.0,27.1L72.0,.0L.0,.0L.0,27.1L72.0,27.1z" id="shape2" fill-rule="nonzero" transform="translate(578.00,231.85)" fill="#d7d7d7"/>
        <g id="shape3" transform="translate(299.00,226.00)">
            <text style="fill:#191919;font-family:Microsoft YaHei;font-size:10.00pt" xml:space="preserve">
                <tspan y="23.5" x="4.0">His major contribution... was an emphasis on empiricism</tspan>
            </text>
        </g>
        <g id="shape4" transform="translate(580.00,286.00)">
            <text style="fill:#191919;font-family:Microsoft YaHei;font-size:10.00pt" xml:space="preserve">
                <tspan style="fill:#42c181" y="23.0" x="4.0">which</tspan>
                <tspan x="40.0"> when being defined </tspan>
                <tspan y="42.0" x="4.0">is the pursuit of knowledge through inductive reasoning</tspan>
            </text>
        </g>
        <g id="shape5" transform="translate(626.00,369.85)">
            <text style="fill:#191919;font-family:Microsoft YaHei;font-size:10.00pt" xml:space="preserve">
                <tspan style="fill:#42c181" y="23.0" x="4.0">which</tspan>
                <tspan x="40.0"> when being defined </tspan>
                <tspan y="42.0" x="4.0">means...</tspan>
            </text>
        </g>
        <g id="shape6" transform="translate(642.48,378.00)">
            <path d="M.0,.0L.0,-33.0" stroke="#191919" fill="none"/>
            <path d="M-3.0,-33.0L.0,-39.0L3.0,-33.0L-3.0,-33.0" stroke-linecap="round" stroke-width="1" stroke="#191919" fill="#191919"/>
        </g>
        <g id="shape7" transform="translate(614.00,298.00)">
            <path d="M.0,.0L.0,-33.0" stroke="#191919" fill="none"/>
            <path d="M-3.0,-33.0L.0,-39.0L3.0,-33.0L-3.0,-33.0" stroke-linecap="round" stroke-width="1" stroke="#191919" fill="#191919"/>
        </g>
    </g>
</svg>
