<svg xmlns:xlink="http://www.w3.org/1999/xlink" viewBox="0 0 355 520" xmlns="http://www.w3.org/2000/svg" width="355" height="520">
    <defs/>
    <g transform="translate(-405.00,-217.00)">
        <g transform="translate(416.13,218.00)" id="shape1">
            <path d="M342.7,56.0L342.7,.0L.0,.0L.0,56.0L342.7,56.0z" fill="#ffffff" fill-rule="nonzero"/>
            <text xml:space="preserve" style="fill:#191919;font-family:Microsoft YaHei;font-size:10.00pt">
                <tspan y="24.0" x="158.4">荷兰</tspan>
                <tspan y="43.0" x="147.9">(共和制)</tspan>
            </text>
        </g>
        <g transform="translate(416.13,302.00)" id="shape2">
            <path d="M342.7,92.0L342.7,.0L.0,.0L.0,92.0L342.7,92.0z" stroke="#323232" fill="#ffffff" fill-rule="nonzero"/>
            <text xml:space="preserve" style="fill:#191919;font-family:Microsoft YaHei;font-size:10.00pt">
                <tspan y="19.0" x="4.4">联邦政府</tspan>
                <tspan y="38.0" x="4.4"></tspan>
                <tspan y="57.0" x="4.4">联省议会（States General）:</tspan>
                <tspan y="76.0" x="4.4">主要处理外交政策, 和战争事务。</tspan>
            </text>
        </g>
        <g transform="translate(416.13,520.50)" id="shape3">
            <path d="M342.7,36.5L342.7,.0L.0,.0L.0,36.5L342.7,36.5z" stroke="#323232" fill="#ffffff" fill-rule="nonzero"/>
            <text xml:space="preserve" style="fill:#191919;font-family:Microsoft YaHei;font-size:10.00pt">
                <tspan y="19.0" x="4.4">省级政府</tspan>
            </text>
        </g>
        <g transform="translate(416.13,552.71)" id="shape4">
            <path d="M171.4,79.6L171.4,.0L.0,.0L.0,79.6L171.4,79.6z" stroke="#323232" fill="#ffffff" fill-rule="nonzero"/>
            <text xml:space="preserve" style="fill:#191919;font-family:Microsoft YaHei;font-size:10.00pt">
                <tspan y="19.0" x="4.2">省议会: 等级会议（estate）</tspan>
                <tspan y="38.0" x="4.2">掌握着大部分权力.</tspan>
            </text>
        </g>
        <g transform="translate(587.48,552.71)" id="shape5">
            <path d="M171.4,79.6L171.4,.0L.0,.0L.0,79.6L171.4,79.6z" stroke="#323232" fill="#ffffff" fill-rule="nonzero"/>
            <text xml:space="preserve" style="fill:#191919;font-family:Microsoft YaHei;font-size:10.00pt">
                <tspan y="19.0" x="4.2">寡头政治（oligarchy）:</tspan>
                <tspan y="38.0" x="4.2">通常由富有的商人和乡村地</tspan>
                <tspan y="57.0" x="4.2">主组成.</tspan>
            </text>
        </g>
        <g transform="translate(416.13,680.00)" id="shape6">
            <path d="M171.4,55.5L171.4,.0L.0,.0L.0,55.5L171.4,55.5z" stroke="#323232" fill="#ffffff" fill-rule="nonzero"/>
            <text xml:space="preserve" style="fill:#191919;font-family:Microsoft YaHei;font-size:10.00pt">
                <tspan y="19.0" x="4.2">执政（stadholder）:</tspan>
                <tspan y="38.0" x="4.2">负责履行礼仪, 承担军事防御</tspan>
            </text>
        </g>
        <g transform="translate(501.80,632.29)" id="shape7">
            <path stroke="#191919" d="M.0,.0L.0,41.7" fill="none"/>
            <path stroke="#191919" d="M3.0,41.7L.0,47.7L-3.0,41.7L3.0,41.7" stroke-linecap="round" fill="#191919" stroke-width="1"/>
            <rect fill="#ffffff" y="14.2" width="26.0" x="-12.0" height="19.0"/>
            <text xml:space="preserve" style="fill:#191919;font-family:Microsoft YaHei;font-size:10.00pt">
                <tspan y="29.2" x="-12.0">任命</tspan>
            </text>
        </g>
        <g transform="translate(449.26,394.00)" id="shape8">
            <path stroke="#191919" d="M.0,.0L.0,120.5" fill="none"/>
            <path stroke="#191919" d="M3.0,120.5L.0,126.5L-3.0,120.5L3.0,120.5" stroke-linecap="round" fill="#191919" stroke-width="1"/>
            <rect fill="#ffffff" y="30.4" width="78.0" x="-38.0" height="19.0"/>
            <rect fill="#ffffff" y="49.4" width="78.0" x="-38.0" height="19.0"/>
            <rect fill="#ffffff" y="68.4" width="64.0" x="-31.0" height="19.0"/>
            <text xml:space="preserve" style="fill:#191919;font-family:Microsoft YaHei;font-size:10.00pt">
                <tspan y="45.4" x="-38.0">所有重大问题</tspan>
                <tspan y="64.4" x="-38.0">都必须提交给</tspan>
                <tspan y="83.4" x="-31.0">"省级政府"</tspan>
            </text>
        </g>
        <g transform="translate(561.26,520.50)" id="shape9">
            <path stroke="#191919" d="M.0,.0L.0,-120.5" fill="none"/>
            <path stroke="#191919" d="M-3.0,-120.5L.0,-126.5L3.0,-120.5L-3.0,-120.5" stroke-linecap="round" fill="#191919" stroke-width="1"/>
            <rect fill="#ffffff" y="-89.6" width="78.0" x="-38.0" height="19.0"/>
            <rect fill="#ffffff" y="-70.6" width="78.0" x="-38.0" height="19.0"/>
            <text xml:space="preserve" style="fill:#191919;font-family:Microsoft YaHei;font-size:10.00pt">
                <tspan y="-74.6" x="-38.0">每个省级政府</tspan>
                <tspan y="-55.6" x="-38.0">都拥有否决权</tspan>
            </text>
        </g>
    </g>
</svg>
