<svg xmlns="http://www.w3.org/2000/svg" height="369" viewBox="0 0 464 369" width="464" xmlns:xlink="http://www.w3.org/1999/xlink">
    <defs/>
    <g transform="translate(-264.00,-191.00)">
        <g id="shape1" transform="translate(465.94,192.00)">
            <path fill-rule="nonzero" stroke="#323232" fill="#ffffff" d="M261.4,35.0L261.4,.0L.0,.0L.0,35.0L261.4,35.0z"/>
            <text xml:space="preserve" style="fill:#191919;font-family:Microsoft YaHei;font-size:10.00pt">
                <tspan y="23.0" x="103.2">B(消费者)</tspan>
            </text>
        </g>
        <g id="shape2" transform="translate(265.00,192.00)">
            <path fill-rule="nonzero" stroke="#323232" fill="#ffffff" d="M120.0,35.0L120.0,.0L.0,.0L.0,35.0L120.0,35.0z"/>
            <text xml:space="preserve" style="fill:#191919;font-family:Microsoft YaHei;font-size:10.00pt">
                <tspan y="23.0" x="38.5">A(店家)</tspan>
            </text>
        </g>
        <g id="shape3" transform="translate(265.00,255.50)">
            <path fill-rule="nonzero" stroke="#323232" fill="#ffffff" d="M120.0,54.0L120.0,.0L.0,.0L.0,54.0L120.0,54.0z"/>
            <text xml:space="preserve" style="fill:#191919;font-family:Microsoft YaHei;font-size:10.00pt">
                <tspan y="23.0" x="20.5">hundred and </tspan>
                <tspan y="42.0" x="23.0">forty dollars</tspan>
            </text>
        </g>
        <g id="shape4" transform="translate(325.00,227.00)">
            <path stroke="#191919" fill="none" d="M.0,.0L.0,22.5"/>
            <path stroke-width="1" stroke-linecap="round" stroke="#191919" fill="#191919" d="M3.0,22.5L.0,28.5L-3.0,22.5L3.0,22.5"/>
        </g>
        <g id="shape5" transform="translate(465.94,255.50)">
            <path fill-rule="nonzero" stroke="#323232" fill="#ffffff" d="M261.4,54.0L261.4,.0L.0,.0L.0,54.0L261.4,54.0z"/>
            <text xml:space="preserve" style="fill:#191919;font-family:Microsoft YaHei;font-size:10.00pt">
                <tspan y="23.0" x="22.7">that’s a bit out of my price range. </tspan>
                <tspan y="42.0" x="38.7">Can you give me a better deal</tspan>
            </text>
        </g>
        <g id="shape6" transform="translate(596.65,227.00)">
            <path stroke="#191919" fill="none" d="M.0,.0L.0,22.5"/>
            <path stroke-width="1" stroke-linecap="round" stroke="#191919" fill="#191919" d="M3.0,22.5L.0,28.5L-3.0,22.5L3.0,22.5"/>
        </g>
        <g id="shape7" transform="translate(265.00,335.00)">
            <path fill-rule="nonzero" stroke="#323232" fill="#ffffff" d="M120.0,54.0L120.0,.0L.0,.0L.0,54.0L120.0,54.0z"/>
            <text xml:space="preserve" style="fill:#191919;font-family:Microsoft YaHei;font-size:10.00pt">
                <tspan y="23.0" x="20.5">one hundred </tspan>
                <tspan y="42.0" x="40.0">dollars</tspan>
            </text>
        </g>
        <g id="shape8" transform="translate(465.94,335.00)">
            <path fill-rule="nonzero" stroke="#323232" fill="#ffffff" d="M261.4,54.0L261.4,.0L.0,.0L.0,54.0L261.4,54.0z"/>
            <text xml:space="preserve" style="fill:#191919;font-family:Microsoft YaHei;font-size:10.00pt">
                <tspan y="23.0" x="22.7"> That’s still more than I wanted to </tspan>
                <tspan y="42.0" x="23.2">spend. What if I take both dresses?</tspan>
            </text>
        </g>
        <g id="shape9" transform="translate(325.00,309.50)">
            <path stroke="#191919" fill="none" d="M.0,.0L-0.0,19.5"/>
            <path stroke-width="1" stroke-linecap="round" stroke="#191919" fill="#191919" d="M3.0,19.5L-0.0,25.5L-3.0,19.5L3.0,19.5"/>
        </g>
        <g id="shape10" transform="translate(596.65,309.50)">
            <path stroke="#191919" fill="none" d="M.0,.0L-0.0,19.5"/>
            <path stroke-width="1" stroke-linecap="round" stroke="#191919" fill="#191919" d="M3.0,19.5L-0.0,25.5L-3.0,19.5L3.0,19.5"/>
        </g>
        <g id="shape11" transform="translate(465.94,282.50)">
            <path stroke="#191919" fill="none" d="M.0,.0L-74.9,.0"/>
            <path stroke-width="1" stroke-linecap="round" stroke="#191919" fill="#191919" d="M-74.9,3.0L-80.9,.0L-74.9,-3.0L-74.9,3.0"/>
        </g>
        <g id="shape12" transform="translate(465.94,362.00)">
            <path stroke="#191919" fill="none" d="M.0,.0L-74.9,.0"/>
            <path stroke-width="1" stroke-linecap="round" stroke="#191919" fill="#191919" d="M-74.9,3.0L-80.9,.0L-74.9,-3.0L-74.9,3.0"/>
        </g>
        <g id="shape13" transform="translate(465.94,419.00)">
            <path fill-rule="nonzero" stroke="#323232" fill="#ffffff" d="M261.4,54.0L261.4,.0L.0,.0L.0,54.0L261.4,54.0z"/>
            <text xml:space="preserve" style="fill:#191919;font-family:Microsoft YaHei;font-size:10.00pt">
                <tspan y="32.5" x="68.7">It’s still a bit pricey</tspan>
            </text>
        </g>
        <g id="shape14" transform="translate(265.00,409.50)">
            <path fill-rule="nonzero" stroke="#323232" fill="#ffffff" d="M120.0,73.0L120.0,.0L.0,.0L.0,73.0L120.0,73.0z"/>
            <text xml:space="preserve" style="fill:#191919;font-family:Microsoft YaHei;font-size:10.00pt">
                <tspan y="23.0" x="5.5">One hundred and </tspan>
                <tspan y="42.0" x="8.0">ninety dollars for </tspan>
                <tspan y="61.0" x="44.0">both.</tspan>
            </text>
        </g>
        <g id="shape15" transform="translate(325.00,389.00)">
            <path stroke="#191919" fill="none" d="M.0,.0L.0,14.5"/>
            <path stroke-width="1" stroke-linecap="round" stroke="#191919" fill="#191919" d="M3.0,14.5L.0,20.5L-3.0,14.5L3.0,14.5"/>
        </g>
        <g id="shape16" transform="translate(465.94,446.00)">
            <path stroke="#191919" fill="none" d="M.0,.0L-74.9,.0"/>
            <path stroke-width="1" stroke-linecap="round" stroke="#191919" fill="#191919" d="M-74.9,3.0L-80.9,.0L-74.9,-3.0L-74.9,3.0"/>
        </g>
        <g id="shape17" transform="translate(265.00,503.72)">
            <path fill-rule="nonzero" stroke="#323232" fill="#ffffff" d="M120.0,55.3L120.0,.0L.0,.0L.0,55.3L120.0,55.3z"/>
            <text xml:space="preserve" style="fill:#191919;font-family:Microsoft YaHei;font-size:10.00pt">
                <tspan y="23.6" x="17.0"> One hundred </tspan>
                <tspan y="42.6" x="12.5">dollars for both</tspan>
            </text>
        </g>
        <g id="shape18" transform="translate(325.00,482.50)">
            <path stroke="#191919" fill="none" d="M.0,.0L.0,15.2"/>
            <path stroke-width="1" stroke-linecap="round" stroke="#191919" fill="#191919" d="M3.0,15.2L.0,21.2L-3.0,15.2L3.0,15.2"/>
        </g>
        <g id="shape19" transform="translate(465.94,503.72)">
            <path fill-rule="nonzero" stroke="#323232" fill="#ffffff" d="M261.4,55.3L261.4,.0L.0,.0L.0,55.3L261.4,55.3z"/>
            <text xml:space="preserve" style="fill:#191919;font-family:Microsoft YaHei;font-size:10.00pt">
                <tspan y="33.1" x="49.7"> Great! You’ve got a deal</tspan>
            </text>
        </g>
        <g id="shape20" transform="translate(465.94,531.36)">
            <path stroke="#191919" fill="none" d="M.0,.0L-74.9,.0"/>
            <path stroke-width="1" stroke-linecap="round" stroke="#191919" fill="#191919" d="M-74.9,3.0L-80.9,.0L-74.9,-3.0L-74.9,3.0"/>
        </g>
    </g>
</svg>
