<svg id="图层_1" data-name="图层 1" xmlns="http://www.w3.org/2000/svg" viewBox="0 0 343.1 223"><rect x="68.28" y="73.17" width="114.44" height="71.65" style="fill:#fff;stroke:#231815;stroke-miterlimit:10"/><rect x="215.05" y="73.17" width="114.44" height="71.65" style="fill:#fff;stroke:#231815;stroke-miterlimit:10"/><rect x="110.83" y="0.5" width="29.33" height="29.33" style="fill:#231815;stroke:#fff;stroke-miterlimit:10"/><text transform="translate(116.5 13.17)" style="font-size:9px;fill:#fff;font-family:MicrosoftYaHeiLight, Microsoft YaHei">本质<tspan x="0" y="10.8">理论</tspan></text><text transform="translate(107.5 116.75)" style="font-size:9px;fill:#231815;font-family:MicrosoftYaHeiLight, Microsoft YaHei">万物表象</text><text transform="translate(68.85 63.15)" style="font-size:9px;fill:#231815;font-family:MicrosoftYaHei, Microsoft YaHei">演绎推理</text><line x1="125.5" y1="31.61" x2="125.5" y2="85.44" style="fill:none;stroke:#231815;stroke-miterlimit:10"/><polygon points="125.5 92.5 121.44 82.55 125.5 84.91 129.56 82.55 125.5 92.5" style="fill:#231815"/><line x1="125.5" y1="31.61" x2="103.15" y2="82.82" style="fill:none;stroke:#231815;stroke-miterlimit:10"/><polygon points="100.33 89.29 100.58 78.55 103.36 82.34 108.03 81.8 100.33 89.29" style="fill:#231815"/><line x1="302.65" y1="129.68" x2="280.3" y2="180.89" style="fill:none;stroke:#231815;stroke-miterlimit:10"/><polygon points="277.48 187.36 277.73 176.61 280.51 180.4 285.18 179.86 277.48 187.36" style="fill:#231815"/><line x1="125.13" y1="31.61" x2="147.48" y2="82.82" style="fill:none;stroke:#231815;stroke-miterlimit:10"/><polygon points="150.3 89.29 142.59 81.8 147.26 82.34 150.04 78.55 150.3 89.29" style="fill:#231815"/><line x1="242" y1="129.68" x2="264.35" y2="180.89" style="fill:none;stroke:#231815;stroke-miterlimit:10"/><polygon points="267.17 187.36 259.47 179.87 264.14 180.4 266.92 176.61 267.17 187.36" style="fill:#231815"/><text transform="translate(62.41 50.63)" style="font-size:10px;fill:#c30d23;font-family:MicrosoftYaHei, Microsoft YaHei">deducti<tspan x="36.03" y="0" style="letter-spacing:-0.00634765625em">v</tspan><tspan x="41.22" y="0">e</tspan></text><rect x="257.6" y="193.17" width="29.33" height="29.33" style="fill:#231815;stroke:#fff;stroke-miterlimit:10"/><text transform="translate(263.27 205.83)" style="font-size:9px;fill:#fff;font-family:MicrosoftYaHeiLight, Microsoft YaHei">本质<tspan x="0" y="10.8">理论</tspan></text><text transform="translate(254.27 116.75)" style="font-size:9px;fill:#231815;font-family:MicrosoftYaHeiLight, Microsoft YaHei">万物表象</text><line x1="272.27" y1="126.72" x2="272.27" y2="180.55" style="fill:none;stroke:#231815;stroke-miterlimit:10"/><polygon points="272.27 187.61 268.21 177.66 272.27 180.02 276.34 177.66 272.27 187.61" style="fill:#231815"/><text transform="translate(203.6 164.9)" style="font-size:10px;fill:#c30d23;font-family:MicrosoftYaHei, Microsoft YaHei">inducti<tspan x="32.78" y="0" style="letter-spacing:-0.00634765625em">v</tspan><tspan x="37.97" y="0">e</tspan></text><text transform="translate(207.59 177.52)" style="font-size:9px;fill:#231815;font-family:MicrosoftYaHei, Microsoft YaHei">归纳推理</text><text transform="translate(0 50.75)" style="font-size:9px;fill:#c30d23;font-family:MicrosoftYaHei, Microsoft YaHei">de 解散群组</text><text transform="translate(296.5 168.1)" style="font-size:9px;fill:#c30d23;font-family:MicrosoftYaHei, Microsoft YaHei">in 聚众为一</text></svg>