<svg id="图层_1" data-name="图层 1" xmlns="http://www.w3.org/2000/svg" viewBox="0 0 270.87 239.83"><defs><style>.cls-1,.cls-10,.cls-11,.cls-12,.cls-16,.cls-2,.cls-3,.cls-4,.cls-7,.cls-8,.cls-9{fill:none;stroke-miterlimit:10;}.cls-1,.cls-16,.cls-3{stroke:#231815;}.cls-1{stroke-width:0.25px;}.cls-2,.cls-7,.cls-8,.cls-9{stroke:#22ac38;}.cls-10,.cls-11,.cls-12,.cls-4{stroke:#e83828;}.cls-5,.cls-6{font-size:7px;}.cls-13,.cls-18,.cls-5,.cls-6{font-family:MicrosoftYaHeiLight, Microsoft YaHei;}.cls-6{fill:#22ac38;}.cls-10,.cls-11,.cls-12,.cls-16,.cls-7,.cls-8,.cls-9{stroke-width:0.5px;}.cls-8{stroke-dasharray:1.96 1.96;}.cls-9{stroke-dasharray:1.95 1.95;}.cls-11{stroke-dasharray:1.96 1.96;}.cls-12{stroke-dasharray:1.97 1.97;}.cls-13{font-size:5px;}.cls-14{fill:#00913a;}.cls-15{fill:#e83828;}.cls-17{fill:#231815;}.cls-18{font-size:10px;}.cls-19{letter-spacing:-0.02em;}.cls-20{letter-spacing:0.07em;}</style></defs><rect class="cls-1" x="61.44" y="42.56" width="153.47" height="153.47"/><line class="cls-2" x1="61.44" y1="196.03" x2="214.91" y2="42.56"/><path class="cls-3" d="M45.8,318.8S145,288.4,199.4,166" transform="translate(15.61 -124)"/><path class="cls-3" d="M199.4,166c-.73,12.22-5.17,63.72-48,106.13-42.62,42.21-93.84,46.29-106.13,46.94" transform="translate(15.61 -124)"/><path class="cls-4" d="M46.6,319.6c146.4,0,152.8-75.2,152.8-152.8" transform="translate(15.61 -124)"/><text class="cls-5" transform="translate(26.87 32.76)">收入累积%</text><text class="cls-6" transform="translate(144.22 104.12) rotate(-45)">绝对公平线</text><text class="cls-5" transform="translate(222.03 209.37)">人口累积%</text><text class="cls-5" transform="translate(43.8 48.22)">100<tspan x="2.69" y="30">80</tspan><tspan x="2.69" y="60">60</tspan><tspan x="2.57" y="90">40</tspan><tspan x="2.69" y="120">20</tspan><tspan x="6.59" y="150">0</tspan></text><text class="cls-5" transform="translate(208.16 201.31) rotate(90)">100<tspan x="2.69" y="30">80</tspan><tspan x="2.69" y="60">60</tspan><tspan x="2.57" y="90">40</tspan><tspan x="2.69" y="120">20</tspan><tspan x="6.59" y="150">0</tspan></text><line class="cls-7" x1="120.54" y1="195.6" x2="120.54" y2="194.6"/><line class="cls-8" x1="120.54" y1="192.64" x2="120.54" y2="138.78"/><polyline class="cls-7" points="120.54 137.8 120.54 136.8 119.54 136.8"/><line class="cls-9" x1="117.59" y1="136.8" x2="63.85" y2="136.8"/><line class="cls-7" x1="62.87" y1="136.8" x2="61.87" y2="136.8"/><line class="cls-10" x1="179.74" y1="195.6" x2="179.74" y2="194.6"/><line class="cls-11" x1="179.74" y1="192.64" x2="179.74" y2="166.12"/><polyline class="cls-10" points="179.74 165.14 179.74 164.14 178.74 164.14"/><line class="cls-12" x1="176.77" y1="164.14" x2="63.39" y2="164.14"/><line class="cls-10" x1="62.41" y1="164.14" x2="61.41" y2="164.14"/><text class="cls-13" transform="translate(89.37 220.52)">↑<tspan x="-8.73" y="6">这里表示</tspan><tspan x="-11.23" y="12">一个国家中</tspan><tspan x="-16.12" y="18">20%的数量人口</tspan></text><text class="cls-13" x="15.61" y="-124"><tspan x="13.17" y="47.44">这里表示 →</tspan><tspan x="13.74" y="53.44">一个国家中</tspan><tspan x="5.38" y="59.44">全部100%的财富量</tspan></text><text class="cls-13" transform="translate(64.9 100.22)">如果一个国家是绝对公平的<tspan x="0.56" y="6">那么, 就会在绝对公平线上.</tspan><tspan x="4.88" y="12">比如, 一国40%的人口, </tspan><tspan x="0.06" y="18">正好拿到一国40%的财富量</tspan></text><text class="cls-13" transform="translate(203.93 164.06)">如果一个国家是及其不公平的<tspan x="-1.94" y="6">那么, 就会在曲率最大的曲线上.</tspan><tspan x="7.42" y="12">比如, 一国80%的人口, </tspan><tspan x="2.6" y="18">只能拿到一国20%的财富量</tspan></text><text class="cls-13" x="15.61" y="-124"><tspan x="13.17" y="167.51">这里表示 →</tspan><tspan x="13.74" y="173.51">一个国家中</tspan><tspan x="0" y="179.51">全部财富中, 占20%的量</tspan></text><text class="cls-13" transform="translate(209.47 220.52)">↑<tspan x="-8.73" y="6">这里表示</tspan><tspan x="-16.23" y="12">一个国家中全部</tspan><tspan x="-12.08" y="18">100%的人口</tspan></text><circle class="cls-14" cx="120.14" cy="137" r="2.67"/><circle class="cls-15" cx="179.27" cy="164.2" r="2.67"/><line class="cls-16" x1="105.14" y1="120.94" x2="115.98" y2="131.77"/><polygon class="cls-17" points="118.47 134.27 113.52 132.19 115.79 131.59 116.39 129.31 118.47 134.27"/><line class="cls-16" x1="188.7" y1="169.83" x2="199.54" y2="180.67"/><polygon class="cls-17" points="186.21 167.34 188.29 172.29 188.89 170.02 191.16 169.42 186.21 167.34"/><text class="cls-18" transform="translate(108.48 8.56)">Lo<tspan class="cls-19" x="11.01" y="0">r</tspan><tspan x="14.36" y="0">enz cu</tspan><tspan class="cls-20" x="44.14" y="0">r</tspan><tspan x="48.36" y="0">ve</tspan><tspan x="4.35" y="12">洛伦兹曲线</tspan></text></svg>