<svg xmlns="http://www.w3.org/2000/svg" height="684" viewBox="0 0 1045 684" xmlns:xlink="http://www.w3.org/1999/xlink" width="1045">
    <defs/>
    <g transform="translate(-1077.13,-75.00)">
        <g id="shape1" transform="translate(1353.26,213.00)">
            <path d="M120.0,70.0L120.0,.0L.0,.0L.0,70.0L120.0,70.0z" fill-rule="nonzero" stroke="#323232" fill="#ffffff"/>
            <text style="fill:#191919;font-family:Microsoft YaHei;font-size:10.00pt" xml:space="preserve">
                <tspan x="25.0" y="31.0">three main </tspan>
                <tspan x="7.0" y="50.0">public assemblies</tspan>
            </text>
        </g>
        <g id="shape2" transform="translate(1836.39,222.00)">
            <path d="M120.0,70.0L120.0,.0L.0,.0L.0,70.0L120.0,70.0z" fill-rule="nonzero" stroke="#323232" fill="#d7d7d7"/>
            <text style="fill:#191919;font-family:Microsoft YaHei;font-size:10.00pt" xml:space="preserve">
                <tspan x="39.0" y="31.0">Senate</tspan>
                <tspan x="40.5" y="50.0">元老院</tspan>
            </text>
        </g>
        <g id="shape3" transform="translate(1344.26,343.00)">
            <path d="M138.0,70.0L138.0,.0L.0,.0L.0,70.0L138.0,70.0z" fill-rule="nonzero" stroke="#323232" fill="#d7d7d7"/>
            <text style="fill:#191919;font-family:Microsoft YaHei;font-size:10.00pt" xml:space="preserve">
                <tspan x="9.5" y="31.0">the Tribal Assembly</tspan>
                <tspan x="9.5" y="50.0">部族大会 (平民,贵族)</tspan>
            </text>
        </g>
        <g id="shape4" transform="translate(1119.52,343.00)">
            <path d="M120.0,70.0L120.0,.0L.0,.0L.0,70.0L120.0,70.0z" fill-rule="nonzero" stroke="#323232" fill="#d7d7d7"/>
            <text style="fill:#191919;font-family:Microsoft YaHei;font-size:10.00pt" xml:space="preserve">
                <tspan x="22.5" y="21.5">the Plebeian </tspan>
                <tspan x="31.0" y="40.5">Assembly</tspan>
                <tspan x="15.0" y="59.5">平民大会 (平民)</tspan>
            </text>
        </g>
        <g id="shape5" transform="translate(1572.74,343.00)">
            <path d="M138.0,70.0L138.0,.0L.0,.0L.0,70.0L138.0,70.0z" fill-rule="nonzero" stroke="#323232" fill="#d7d7d7"/>
            <text style="fill:#191919;font-family:Microsoft YaHei;font-size:10.00pt" xml:space="preserve">
                <tspan x="25.0" y="21.5">the Centuriate </tspan>
                <tspan x="40.0" y="40.5">Assembly</tspan>
                <tspan x="9.5" y="59.5">百人大会 (平民,贵族)</tspan>
            </text>
        </g>
        <g id="shape6" transform="translate(1078.13,454.00)">
            <path d="M202.8,70.0L202.8,.0L.0,.0L.0,70.0L202.8,70.0z" fill-rule="nonzero" stroke="#323232" fill="#b0ddc1"/>
            <text style="fill:#191919;font-family:Microsoft YaHei;font-size:10.00pt" xml:space="preserve">
                <tspan x="33.9" y="31.0">possessed veto power</tspan>
                <tspan x="62.9" y="50.0">拥有"否决权"</tspan>
            </text>
        </g>
        <g id="shape7" transform="translate(1078.13,548.00)">
            <path d="M202.8,70.0L202.8,.0L.0,.0L.0,70.0L202.8,70.0z" fill-rule="nonzero" stroke="#323232" fill="#b0ddc1"/>
            <text style="fill:#191919;font-family:Microsoft YaHei;font-size:10.00pt" xml:space="preserve">
                <tspan x="31.9" y="21.5">present (v.) laws to the </tspan>
                <tspan x="33.9" y="40.5">assembly for approval</tspan>
                <tspan x="42.9" y="59.5">向议会提出法律提案</tspan>
            </text>
        </g>
        <g id="shape8" transform="translate(1078.13,643.00)">
            <path d="M202.8,70.0L202.8,.0L.0,.0L.0,70.0L202.8,70.0z" fill-rule="nonzero" stroke="#323232" fill="#fedad0"/>
            <text style="fill:#191919;font-family:Microsoft YaHei;font-size:10.00pt" xml:space="preserve">
                <tspan x="27.9" y="21.5">annually elected the ten </tspan>
                <tspan x="76.4" y="40.5">tribunes</tspan>
                <tspan x="34.9" y="59.5">选出保民官: 10人/每年</tspan>
            </text>
        </g>
        <g id="shape9" transform="translate(1179.52,413.00)">
            <path d="M.0,.0L.0,35.0" stroke="#191919" fill="none"/>
            <path d="M3.0,35.0L.0,41.0L-3.0,35.0L3.0,35.0" stroke-linecap="round" stroke-width="1" stroke="#191919" fill="#191919"/>
        </g>
        <g id="shape10" transform="translate(1311.87,454.00)">
            <path d="M202.8,70.0L202.8,.0L.0,.0L.0,70.0L202.8,70.0z" fill-rule="nonzero" stroke="#323232" fill="#fedad0"/>
            <text style="fill:#191919;font-family:Microsoft YaHei;font-size:10.00pt" xml:space="preserve">
                <tspan x="30.4" y="21.5">elected the Quaestors , </tspan>
                <tspan x="70.9" y="40.5">treasurers</tspan>
                <tspan x="68.9" y="59.5">选出财务官</tspan>
            </text>
        </g>
        <g id="shape11" transform="translate(1413.26,413.00)">
            <path d="M.0,.0L.0,35.0" stroke="#191919" fill="none"/>
            <path d="M3.0,35.0L.0,41.0L-3.0,35.0L3.0,35.0" stroke-linecap="round" stroke-width="1" stroke="#191919" fill="#191919"/>
        </g>
        <g id="shape12" transform="translate(1540.35,454.00)">
            <path d="M202.8,70.0L202.8,.0L.0,.0L.0,70.0L202.8,70.0z" fill-rule="nonzero" stroke="#323232" fill="#ffffff"/>
            <text style="fill:#191919;font-family:Microsoft YaHei;font-size:10.00pt" xml:space="preserve">
                <tspan x="66.4" y="31.0">declare war</tspan>
                <tspan x="69.4" y="50.0">有"宣战"权</tspan>
            </text>
        </g>
        <g id="shape13" transform="translate(1641.74,413.00)">
            <path d="M.0,.0L.0,35.0" stroke="#191919" fill="none"/>
            <path d="M3.0,35.0L.0,41.0L-3.0,35.0L3.0,35.0" stroke-linecap="round" stroke-width="1" stroke="#191919" fill="#191919"/>
        </g>
        <g id="shape14" transform="translate(1540.35,537.00)">
            <path d="M202.8,92.0L202.8,.0L.0,.0L.0,92.0L202.8,92.0z" fill-rule="nonzero" stroke="#323232" fill="#fedad0"/>
            <text style="fill:#191919;font-family:Microsoft YaHei;font-size:10.00pt" xml:space="preserve">
                <tspan x="11.4" y="23.0">elected military commanders, </tspan>
                <tspan x="31.9" y="42.0">judges, and the censor</tspan>
                <tspan x="6.9" y="61.0">选出军事指挥官、法官, 和监察官</tspan>
                <tspan x="64.9" y="80.0">(做人口普查)</tspan>
            </text>
        </g>
        <g id="shape15" transform="translate(1795.00,343.00)">
            <path d="M202.8,70.0L202.8,.0L.0,.0L.0,70.0L202.8,70.0z" fill-rule="nonzero" stroke="#323232" fill="#b0ddc1"/>
            <text style="fill:#191919;font-family:Microsoft YaHei;font-size:10.00pt" xml:space="preserve">
                <tspan x="5.4" y="21.5">decided how public money was </tspan>
                <tspan x="66.4" y="40.5">to be spent</tspan>
                <tspan x="23.9" y="59.5">决定"公共资金"的使用方式</tspan>
            </text>
        </g>
        <g id="shape16" transform="translate(1795.00,426.00)">
            <path d="M202.8,70.0L202.8,.0L.0,.0L.0,70.0L202.8,70.0z" fill-rule="nonzero" stroke="#323232" fill="#b0ddc1"/>
            <text style="fill:#191919;font-family:Microsoft YaHei;font-size:10.00pt" xml:space="preserve">
                <tspan x="5.9" y="21.5"> advised elected (a.) officials on </tspan>
                <tspan x="31.4" y="40.5">their course  of action </tspan>
                <tspan x="6.9" y="59.5">对民选官员的行动方案, 提供建议</tspan>
            </text>
        </g>
        <g id="shape17" transform="translate(1413.26,283.00)">
            <path d="M.0,.0L.0,28.0L-233.7,28.0L-233.7,54.0" stroke="#191919" fill="none"/>
            <path d="M-230.7,54.0L-233.7,60.0L-236.7,54.0L-230.7,54.0" stroke-linecap="round" stroke-width="1" stroke="#191919" fill="#191919"/>
        </g>
        <g id="shape18" transform="translate(1413.26,283.00)">
            <path d="M.0,.0L.0,54.0" stroke="#191919" fill="none"/>
            <path d="M3.0,54.0L.0,60.0L-3.0,54.0L3.0,54.0" stroke-linecap="round" stroke-width="1" stroke="#191919" fill="#191919"/>
        </g>
        <g id="shape19" transform="translate(1413.26,283.00)">
            <path d="M.0,.0L.0,28.0L228.5,28.0L228.5,54.0" stroke="#191919" fill="none"/>
            <path d="M231.5,54.0L228.5,60.0L225.5,54.0L231.5,54.0" stroke-linecap="round" stroke-width="1" stroke="#191919" fill="#191919"/>
        </g>
        <g id="shape20" transform="translate(1550.00,76.00)">
            <path d="M215.0,52.0L215.0,.0L.0,.0L.0,52.0L215.0,52.0z" fill-rule="nonzero" stroke="#323232" fill="#ffffff"/>
            <text style="fill:#191919;font-family:Microsoft YaHei;font-size:10.00pt" xml:space="preserve">
                <tspan x="45.0" y="31.5">The Roman Republic</tspan>
            </text>
        </g>
        <g id="shape21" transform="translate(1657.50,128.00)">
            <path d="M.0,.0L.0,61.0L-244.2,61.0L-244.2,79.0" stroke="#191919" fill="none"/>
            <path d="M-241.2,79.0L-244.2,85.0L-247.2,79.0L-241.2,79.0" stroke-linecap="round" stroke-width="1" stroke="#191919" fill="#191919"/>
        </g>
        <g id="shape22" transform="translate(1657.50,128.00)">
            <path d="M.0,.0L.0,61.0L238.9,61.0L238.9,88.0" stroke="#191919" fill="none"/>
            <path d="M241.9,88.0L238.9,94.0L235.9,88.0L241.9,88.0" stroke-linecap="round" stroke-width="1" stroke="#191919" fill="#191919"/>
        </g>
        <g id="shape23" transform="translate(1896.39,292.00)">
            <path d="M.0,.0L.0,45.0" stroke="#191919" fill="none"/>
            <path d="M3.0,45.0L.0,51.0L-3.0,45.0L3.0,45.0" stroke-linecap="round" stroke-width="1" stroke="#191919" fill="#191919"/>
        </g>
        <g id="shape24" transform="translate(1540.35,454.00)">
            <path d="M202.8,70.0L202.8,.0L.0,.0L.0,70.0L202.8,70.0z" fill-rule="nonzero" stroke="#323232" fill="#b0ddc1"/>
            <text style="fill:#191919;font-family:Microsoft YaHei;font-size:10.00pt" xml:space="preserve">
                <tspan x="66.4" y="31.0">declare war</tspan>
                <tspan x="69.4" y="50.0">有"宣战"权</tspan>
            </text>
        </g>
        <g id="shape25" transform="translate(1179.52,713.00)">
            <path d="M.0,.0L.0,32.0L456.2,32.0C456.2,28.7,458.9,26.0,462.2,26.0C465.5,26.0,468.2,28.7,468.2,32.0L937.5,32.0L937.5,-456.0L782.9,-456.0" stroke-dasharray="6,4" stroke="#191919" fill="none"/>
            <path d="M782.9,-453.0L776.9,-456.0L782.9,-459.0L782.9,-453.0" stroke-linecap="round" stroke-width="1" stroke="#191919" fill="#191919"/>
            <rect x="532.9" y="22.5" height="19.0" width="228.0" fill="#ffffff"/>
            <text style="fill:#191919;font-family:Microsoft YaHei;font-size:10.00pt" xml:space="preserve">
                <tspan x="532.9" y="37.5">民选官员在卸任后, 也会成为元老院一员</tspan>
            </text>
        </g>
        <g id="shape26" transform="translate(1641.74,629.00)">
            <path d="M.0,.0L.0,111.0" stroke-dasharray="6,4" stroke="#191919" fill="none"/>
            <path d="M3.0,111.0L.0,117.0L-3.0,111.0L3.0,111.0" stroke-linecap="round" stroke-width="1" stroke="#191919" fill="#191919"/>
        </g>
        <g id="shape27" transform="translate(1413.26,524.00)">
            <path d="M.0,.0L.0,191.0L-0.4,191.0L-0.4,215.0" stroke-dasharray="6,4" stroke="#191919" fill="none"/>
            <path d="M2.6,215.0L-0.4,221.0L-3.4,215.0L2.6,215.0" stroke-linecap="round" stroke-width="1" stroke="#191919" fill="#191919"/>
        </g>
    </g>
</svg>
