<svg id="图层_1" data-name="图层 1" xmlns="http://www.w3.org/2000/svg" xmlns:xlink="http://www.w3.org/1999/xlink" viewBox="0 0 394.43 216.72"><defs><style>.cls-1,.cls-3{fill:none;}.cls-2{fill:#fff;fill-rule:evenodd;}.cls-3{stroke:#d9d9d9;stroke-linejoin:round;stroke-width:0.72px;}.cls-4{fill:#4472c4;}.cls-5{fill:#ea5514;}.cls-6{clip-path:url(#clip-path);}.cls-10,.cls-11,.cls-12,.cls-13,.cls-14,.cls-16,.cls-17,.cls-7,.cls-8,.cls-9{isolation:isolate;}.cls-10,.cls-8,.cls-9{font-size:5.04px;fill:#404040;}.cls-10,.cls-11,.cls-12,.cls-13,.cls-8,.cls-9{font-family:CenturyGothic, Century Gothic;}.cls-8{letter-spacing:-0.01em;}.cls-9{letter-spacing:-0.01em;}.cls-11,.cls-12,.cls-13{font-size:9px;}.cls-11,.cls-12,.cls-13,.cls-14,.cls-16,.cls-17{fill:#595959;}.cls-12{letter-spacing:-0.01em;}.cls-13{letter-spacing:0.01em;}.cls-14{font-size:12px;}.cls-14,.cls-16,.cls-17{font-family:MicrosoftYaHei, Microsoft YaHei;}.cls-15{letter-spacing:-0.01em;}.cls-16{font-size:6px;}.cls-17{font-size:11px;}.cls-18{letter-spacing:-0.08em;}</style><clipPath id="clip-path" transform="translate(-63.01 -20.97)"><polygon class="cls-1" points="91.81 237.33 451.81 237.33 451.81 21.33 91.81 21.33 91.81 237.33 91.81 237.33"/></clipPath></defs><polygon class="cls-2" points="28.92 0.36 388.92 0.36 388.92 216.36 28.92 216.36 28.92 0.36 28.92 0.36"/><path class="cls-3" d="M129.13,115.77H440.89m-311.76-11.4H440.89M129.13,92.85H440.89M129.13,81.45H440.89M129.13,69.93H440.89M129.13,58.53H440.89" transform="translate(-63.01 -20.97)"/><polygon class="cls-4" points="71.76 50.88 76.92 50.88 76.92 106.32 71.76 106.32 71.76 50.88 71.76 50.88"/><polygon class="cls-4" points="88.2 50.88 93.24 50.88 93.24 106.32 88.2 106.32 88.2 50.88 88.2 50.88"/><polygon class="cls-4" points="104.52 51.36 109.68 51.36 109.68 106.32 104.52 106.32 104.52 51.36 104.52 51.36"/><polygon class="cls-4" points="120.96 51.48 126.12 51.48 126.12 106.32 120.96 106.32 120.96 51.48 120.96 51.48"/><polygon class="cls-4" points="137.4 51.72 142.56 51.72 142.56 106.32 137.4 106.32 137.4 51.72 137.4 51.72"/><polygon class="cls-4" points="153.72 51.72 158.88 51.72 158.88 106.32 153.72 106.32 153.72 51.72 153.72 51.72"/><polygon class="cls-4" points="170.16 51.84 175.32 51.84 175.32 106.32 170.16 106.32 170.16 51.84 170.16 51.84"/><polygon class="cls-4" points="186.6 51.84 191.76 51.84 191.76 106.32 186.6 106.32 186.6 51.84 186.6 51.84"/><polygon class="cls-4" points="203.04 51.96 208.2 51.96 208.2 106.32 203.04 106.32 203.04 51.96 203.04 51.96"/><polygon class="cls-4" points="219.36 52.08 224.52 52.08 224.52 106.32 219.36 106.32 219.36 52.08 219.36 52.08"/><polygon class="cls-4" points="235.8 52.08 240.96 52.08 240.96 106.32 235.8 106.32 235.8 52.08 235.8 52.08"/><polygon class="cls-4" points="252.24 52.44 257.4 52.44 257.4 106.32 252.24 106.32 252.24 52.44 252.24 52.44"/><polygon class="cls-4" points="268.68 53.04 273.84 53.04 273.84 106.32 268.68 106.32 268.68 53.04 268.68 53.04"/><polygon class="cls-5" points="285 53.16 290.16 53.16 290.16 106.32 285 106.32 285 53.16 285 53.16"/><polygon class="cls-4" points="301.44 53.52 306.6 53.52 306.6 106.32 301.44 106.32 301.44 53.52 301.44 53.52"/><polygon class="cls-4" points="317.88 54.12 323.04 54.12 323.04 106.32 317.88 106.32 317.88 54.12 317.88 54.12"/><polygon class="cls-4" points="334.32 59.28 339.48 59.28 339.48 106.32 334.32 106.32 334.32 59.28 334.32 59.28"/><polygon class="cls-5" points="350.64 61.2 355.8 61.2 355.8 106.32 350.64 106.32 350.64 61.2 350.64 61.2"/><polygon class="cls-4" points="367.08 69.36 372.24 69.36 372.24 106.32 367.08 106.32 367.08 69.36 367.08 69.36"/><polygon class="cls-1" points="66 107.04 378.6 107.04 378.6 37.44 66 37.44 66 107.04 66 107.04"/><g class="cls-6"><line class="cls-3" x1="66.12" y1="106.32" x2="377.88" y2="106.32"/></g><g class="cls-6"><path class="cls-3" d="M129.13,127.29V215m16.44-87.72V215m16.32-87.72V215m16.44-87.72V215m16.44-87.72V215m16.44-87.72V215m16.32-87.72V215M244,127.29V215m16.44-87.72V215m16.44-87.72V215m16.32-87.72V215m16.44-87.72V215m16.44-87.72V215m16.32-87.72V215m16.44-87.72V215m16.44-87.72V215m16.44-87.72V215M408,127.29V215m16.44-87.72V215m16.44-87.72V215" transform="translate(-63.01 -20.97)"/></g><g class="cls-6"><path class="cls-3" d="M129.13,215v17.28M145.57,215v17.28M161.89,215v17.28M178.33,215v17.28M194.77,215v17.28M211.21,215v17.28M227.53,215v17.28M244,215v17.28M260.41,215v17.28M276.85,215v17.28M293.17,215v17.28M309.61,215v17.28M326.05,215v17.28M342.37,215v17.28M358.81,215v17.28M375.25,215v17.28M391.69,215v17.28M408,215v17.28M424.45,215v17.28M440.89,215v17.28" transform="translate(-63.01 -20.97)"/></g><g class="cls-7"><text class="cls-8" transform="translate(68.07 45.29)">0</text><text class="cls-9" transform="translate(70.83 45.29)">.</text><text class="cls-8" transform="translate(72.16 45.29)">96</text><text class="cls-10" transform="translate(77.68 45.29)">7</text></g><g class="cls-7"><text class="cls-8" transform="translate(84.48 45.35)">0</text><text class="cls-9" transform="translate(87.24 45.35)">.</text><text class="cls-8" transform="translate(88.57 45.35)">96</text><text class="cls-10" transform="translate(94.09 45.35)">6</text></g><g class="cls-7"><text class="cls-8" transform="translate(100.9 45.76)">0</text><text class="cls-9" transform="translate(103.66 45.76)">.</text><text class="cls-8" transform="translate(104.99 45.76)">95</text><text class="cls-10" transform="translate(110.51 45.76)">9</text></g><g class="cls-7"><text class="cls-8" transform="translate(117.3 45.94)">0</text><text class="cls-9" transform="translate(120.06 45.94)">.</text><text class="cls-8" transform="translate(121.39 45.94)">95</text><text class="cls-10" transform="translate(126.91 45.94)">6</text></g><g class="cls-7"><text class="cls-8" transform="translate(133.71 46.15)">0</text><text class="cls-9" transform="translate(136.47 46.15)">.</text><text class="cls-8" transform="translate(137.8 46.15)">95</text><text class="cls-10" transform="translate(143.32 46.15)">2</text></g><g class="cls-7"><text class="cls-8" transform="translate(150.12 46.15)">0</text><text class="cls-9" transform="translate(152.88 46.15)">.</text><text class="cls-8" transform="translate(154.21 46.15)">95</text><text class="cls-10" transform="translate(159.73 46.15)">2</text></g><g class="cls-7"><text class="cls-8" transform="translate(166.53 46.27)">0</text><text class="cls-9" transform="translate(169.29 46.27)">.</text><text class="cls-8" transform="translate(170.62 46.27)">95</text><text class="cls-10" transform="translate(176.14 46.27)">0</text></g><g class="cls-7"><text class="cls-8" transform="translate(182.93 46.27)">0</text><text class="cls-9" transform="translate(185.69 46.27)">.</text><text class="cls-8" transform="translate(187.02 46.27)">95</text><text class="cls-10" transform="translate(192.54 46.27)">0</text></g><g class="cls-7"><text class="cls-8" transform="translate(199.35 46.33)">0</text><text class="cls-9" transform="translate(202.11 46.33)">.</text><text class="cls-8" transform="translate(203.44 46.33)">94</text><text class="cls-10" transform="translate(208.96 46.33)">9</text></g><g class="cls-7"><text class="cls-8" transform="translate(215.75 46.5)">0</text><text class="cls-9" transform="translate(218.51 46.5)">.</text><text class="cls-8" transform="translate(219.84 46.5)">94</text><text class="cls-10" transform="translate(225.36 46.5)">6</text></g><g class="cls-7"><text class="cls-8" transform="translate(232.16 46.5)">0</text><text class="cls-9" transform="translate(234.92 46.5)">.</text><text class="cls-8" transform="translate(236.25 46.5)">94</text><text class="cls-10" transform="translate(241.77 46.5)">6</text></g><g class="cls-7"><text class="cls-8" transform="translate(248.57 46.85)">0</text><text class="cls-9" transform="translate(251.33 46.85)">.</text><text class="cls-8" transform="translate(252.66 46.85)">94</text><text class="cls-10" transform="translate(258.18 46.85)">0</text></g><g class="cls-7"><text class="cls-8" transform="translate(264.98 47.48)">0</text><text class="cls-9" transform="translate(267.74 47.48)">.</text><text class="cls-8" transform="translate(269.07 47.48)">92</text><text class="cls-10" transform="translate(274.59 47.48)">9</text></g><g class="cls-7"><text class="cls-8" transform="translate(281.39 47.6)">0</text><text class="cls-9" transform="translate(284.15 47.6)">.</text><text class="cls-8" transform="translate(285.48 47.6)">92</text><text class="cls-10" transform="translate(291 47.6)">7</text></g><g class="cls-7"><text class="cls-8" transform="translate(297.8 47.99)">0</text><text class="cls-9" transform="translate(300.56 47.99)">.</text><text class="cls-8" transform="translate(301.89 47.99)">92</text><text class="cls-10" transform="translate(307.41 47.99)">0</text></g><g class="cls-7"><text class="cls-8" transform="translate(314.21 48.57)">0</text><text class="cls-9" transform="translate(316.97 48.57)">.</text><text class="cls-8" transform="translate(318.3 48.57)">91</text><text class="cls-10" transform="translate(323.82 48.57)">0</text></g><g class="cls-7"><text class="cls-8" transform="translate(330.61 53.67)">0</text><text class="cls-9" transform="translate(333.37 53.67)">.</text><text class="cls-8" transform="translate(334.7 53.67)">82</text><text class="cls-10" transform="translate(340.22 53.67)">1</text></g><g class="cls-7"><text class="cls-8" transform="translate(347.03 55.56)">0</text><text class="cls-9" transform="translate(349.79 55.56)">.</text><text class="cls-8" transform="translate(351.12 55.56)">78</text><text class="cls-10" transform="translate(356.64 55.56)">8</text></g><g class="cls-7"><text class="cls-8" transform="translate(363.44 63.81)">0</text><text class="cls-9" transform="translate(366.2 63.81)">.</text><text class="cls-8" transform="translate(367.53 63.81)">64</text><text class="cls-10" transform="translate(373.05 63.81)">4</text></g><g class="cls-7"><text class="cls-11" transform="translate(35.37 109.28)">0</text><text class="cls-12" transform="translate(40.4 109.28)">.</text><text class="cls-11" transform="translate(42.8 109.28)">00</text><text class="cls-11" transform="translate(52.87 109.28)">0</text></g><g class="cls-7"><text class="cls-11" transform="translate(35.37 97.82)">0</text><text class="cls-12" transform="translate(40.4 97.82)">.</text><text class="cls-11" transform="translate(42.8 97.82)">20</text><text class="cls-11" transform="translate(52.87 97.82)">0</text></g><g class="cls-7"><text class="cls-11" transform="translate(35.37 86.35)">0</text><text class="cls-12" transform="translate(40.4 86.35)">.</text><text class="cls-11" transform="translate(42.8 86.35)">40</text><text class="cls-11" transform="translate(52.87 86.35)">0</text></g><g class="cls-7"><text class="cls-11" transform="translate(35.37 74.89)">0</text><text class="cls-12" transform="translate(40.4 74.89)">.</text><text class="cls-11" transform="translate(42.8 74.89)">60</text><text class="cls-11" transform="translate(52.87 74.89)">0</text></g><g class="cls-7"><text class="cls-11" transform="translate(35.37 63.42)">0</text><text class="cls-12" transform="translate(40.4 63.42)">.</text><text class="cls-11" transform="translate(42.8 63.42)">80</text><text class="cls-11" transform="translate(52.87 63.42)">0</text></g><g class="cls-7"><text class="cls-11" transform="translate(35.37 51.96)">1</text><text class="cls-12" transform="translate(40.4 51.96)">.</text><text class="cls-11" transform="translate(42.8 51.96)">00</text><text class="cls-11" transform="translate(52.87 51.96)">0</text></g><g class="cls-7"><text class="cls-11" transform="translate(35.37 40.49)">1</text><text class="cls-12" transform="translate(40.4 40.49)">.</text><text class="cls-11" transform="translate(42.8 40.49)">20</text><text class="cls-11" transform="translate(52.87 40.49)">0</text></g><g class="cls-7"><text class="cls-11" transform="translate(77.71 160.96) rotate(-90)">S</text><text class="cls-13" transform="translate(77.71 156.51) rotate(-90)">w</text><text class="cls-11" transform="translate(77.71 148.96) rotate(-90)">i</text><text class="cls-11" transform="translate(77.71 147.16) rotate(-90)">t</text><text class="cls-11" transform="translate(77.71 144.16) rotate(-90)">z</text><text class="cls-11" transform="translate(77.71 140.32) rotate(-90)">e</text><text class="cls-12" transform="translate(77.71 134.45) rotate(-90)">r</text><text class="cls-11" transform="translate(77.71 131.8) rotate(-90)">l</text><text class="cls-13" transform="translate(77.71 130) rotate(-90)">a</text><text class="cls-12" transform="translate(77.71 123.76) rotate(-90)">n</text><text class="cls-11" transform="translate(77.71 118.36) rotate(-90)">d</text></g><g class="cls-7"><text class="cls-13" transform="translate(94.11 145.86) rotate(-90)">N</text><text class="cls-11" transform="translate(94.11 139.15) rotate(-90)">o</text><text class="cls-12" transform="translate(94.11 133.26) rotate(-90)">r</text><text class="cls-13" transform="translate(94.11 130.62) rotate(-90)">w</text><text class="cls-11" transform="translate(94.11 123.07) rotate(-90)">a</text><text class="cls-11" transform="translate(94.11 116.95) rotate(-90)">y</text></g><g class="cls-7"><text class="cls-11" transform="translate(110.52 145.46) rotate(-90)">I</text><text class="cls-13" transform="translate(110.52 143.42) rotate(-90)">c</text><text class="cls-12" transform="translate(110.52 137.55) rotate(-90)">e</text><text class="cls-11" transform="translate(110.52 131.78) rotate(-90)">l</text><text class="cls-13" transform="translate(110.52 129.98) rotate(-90)">a</text><text class="cls-12" transform="translate(110.52 123.74) rotate(-90)">n</text><text class="cls-11" transform="translate(110.52 118.33) rotate(-90)">d</text></g><g class="cls-7"><text class="cls-11" transform="translate(126.92 163.48) rotate(-90)">H</text><text class="cls-11" transform="translate(126.92 157.36) rotate(-90)">o</text><text class="cls-11" transform="translate(126.92 151.48) rotate(-90)">n</text><text class="cls-13" transform="translate(126.92 145.96) rotate(-90)">g</text><text class="cls-12" transform="translate(126.92 139.84) rotate(-90)"> </text><text class="cls-13" transform="translate(126.92 137.44) rotate(-90)">K</text><text class="cls-11" transform="translate(126.92 132.04) rotate(-90)">o</text><text class="cls-11" transform="translate(126.92 126.16) rotate(-90)">n</text><text class="cls-12" transform="translate(126.92 120.64) rotate(-90)">g</text><text class="cls-11" transform="translate(126.92 114.64) rotate(-90)">,</text><text class="cls-11" transform="translate(126.92 112.12) rotate(-90)">…</text></g><g class="cls-7"><text class="cls-11" transform="translate(143.34 152) rotate(-90)">D</text><text class="cls-11" transform="translate(143.34 145.29) rotate(-90)">e</text><text class="cls-12" transform="translate(143.34 139.41) rotate(-90)">n</text><text class="cls-13" transform="translate(143.34 134) rotate(-90)">m</text><text class="cls-11" transform="translate(143.34 125.49) rotate(-90)">a</text><text class="cls-12" transform="translate(143.34 119.37) rotate(-90)">r</text><text class="cls-11" transform="translate(143.34 116.72) rotate(-90)">k</text></g><g class="cls-7"><text class="cls-11" transform="translate(159.75 147.46) rotate(-90)">S</text><text class="cls-13" transform="translate(159.75 143.01) rotate(-90)">w</text><text class="cls-12" transform="translate(159.75 135.46) rotate(-90)">e</text><text class="cls-13" transform="translate(159.75 129.69) rotate(-90)">d</text><text class="cls-11" transform="translate(159.75 123.46) rotate(-90)">e</text><text class="cls-11" transform="translate(159.75 117.58) rotate(-90)">n</text></g><g class="cls-7"><text class="cls-11" transform="translate(176.16 153.46) rotate(-90)">G</text><text class="cls-11" transform="translate(176.16 145.66) rotate(-90)">e</text><text class="cls-11" transform="translate(176.16 139.78) rotate(-90)">r</text><text class="cls-11" transform="translate(176.16 137.03) rotate(-90)">m</text><text class="cls-11" transform="translate(176.16 128.62) rotate(-90)">a</text><text class="cls-11" transform="translate(176.16 122.5) rotate(-90)">n</text><text class="cls-11" transform="translate(176.16 116.99) rotate(-90)">y</text></g><g class="cls-7"><text class="cls-11" transform="translate(192.57 142.35) rotate(-90)">I</text><text class="cls-11" transform="translate(192.57 140.31) rotate(-90)">r</text><text class="cls-12" transform="translate(192.57 137.56) rotate(-90)">e</text><text class="cls-11" transform="translate(192.57 131.8) rotate(-90)">l</text><text class="cls-13" transform="translate(192.57 129.99) rotate(-90)">a</text><text class="cls-12" transform="translate(192.57 123.76) rotate(-90)">n</text><text class="cls-11" transform="translate(192.57 118.35) rotate(-90)">d</text></g><g class="cls-7"><text class="cls-11" transform="translate(208.98 156.71) rotate(-90)">S</text><text class="cls-11" transform="translate(208.98 152.26) rotate(-90)">i</text><text class="cls-11" transform="translate(208.98 150.46) rotate(-90)">n</text><text class="cls-13" transform="translate(208.98 144.95) rotate(-90)">g</text><text class="cls-11" transform="translate(208.98 138.83) rotate(-90)">a</text><text class="cls-11" transform="translate(208.98 132.71) rotate(-90)">p</text><text class="cls-11" transform="translate(208.98 126.59) rotate(-90)">o</text><text class="cls-11" transform="translate(208.98 120.7) rotate(-90)">r</text><text class="cls-11" transform="translate(208.98 117.95) rotate(-90)">e</text></g><g class="cls-7"><text class="cls-13" transform="translate(225.39 149.43) rotate(-90)">A</text><text class="cls-12" transform="translate(225.39 142.72) rotate(-90)">u</text><text class="cls-11" transform="translate(225.39 137.31) rotate(-90)">s</text><text class="cls-13" transform="translate(225.39 133.83) rotate(-90)">t</text><text class="cls-12" transform="translate(225.39 130.71) rotate(-90)">r</text><text class="cls-11" transform="translate(225.39 128.07) rotate(-90)">a</text><text class="cls-11" transform="translate(225.39 121.95) rotate(-90)">lia</text></g><g class="cls-7"><text class="cls-13" transform="translate(241.8 164.86) rotate(-90)">N</text><text class="cls-12" transform="translate(241.8 158.15) rotate(-90)">e</text><text class="cls-13" transform="translate(241.8 152.38) rotate(-90)">t</text><text class="cls-12" transform="translate(241.8 149.27) rotate(-90)">h</text><text class="cls-11" transform="translate(241.8 143.86) rotate(-90)">e</text><text class="cls-11" transform="translate(241.8 137.98) rotate(-90)">r</text><text class="cls-11" transform="translate(241.8 135.23) rotate(-90)">l</text><text class="cls-11" transform="translate(241.8 133.43) rotate(-90)">a</text><text class="cls-11" transform="translate(241.8 127.31) rotate(-90)">n</text><text class="cls-12" transform="translate(241.8 121.79) rotate(-90)">d</text><text class="cls-11" transform="translate(241.8 115.67) rotate(-90)">s</text></g><g class="cls-7"><text class="cls-11" transform="translate(258.21 182.06) rotate(-90)">U</text><text class="cls-11" transform="translate(258.21 176.18) rotate(-90)">n</text><text class="cls-11" transform="translate(258.21 170.66) rotate(-90)">i</text><text class="cls-11" transform="translate(258.21 168.86) rotate(-90)">t</text><text class="cls-11" transform="translate(258.21 165.85) rotate(-90)">e</text><text class="cls-11" transform="translate(258.21 159.98) rotate(-90)">d</text><text class="cls-11" transform="translate(258.21 153.86) rotate(-90)"> </text><text class="cls-11" transform="translate(258.21 151.34) rotate(-90)">K</text><text class="cls-11" transform="translate(258.21 146.06) rotate(-90)">i</text><text class="cls-11" transform="translate(258.21 144.26) rotate(-90)">n</text><text class="cls-13" transform="translate(258.21 138.74) rotate(-90)">g</text><text class="cls-11" transform="translate(258.21 132.62) rotate(-90)">d</text><text class="cls-11" transform="translate(258.21 126.5) rotate(-90)">o</text><text class="cls-11" transform="translate(258.21 120.62) rotate(-90)">m</text></g><g class="cls-7"><text class="cls-11" transform="translate(274.61 182.37) rotate(-90)">K</text><text class="cls-11" transform="translate(274.61 177.09) rotate(-90)">o</text><text class="cls-13" transform="translate(274.61 171.2) rotate(-90)">r</text><text class="cls-11" transform="translate(274.61 168.45) rotate(-90)">e</text><text class="cls-11" transform="translate(274.61 162.58) rotate(-90)">a</text><text class="cls-11" transform="translate(274.61 156.46) rotate(-90)"> </text><text class="cls-12" transform="translate(274.61 153.94) rotate(-90)">(</text><text class="cls-13" transform="translate(274.61 150.7) rotate(-90)">R</text><text class="cls-11" transform="translate(274.61 145.18) rotate(-90)">e</text><text class="cls-11" transform="translate(274.61 139.3) rotate(-90)">p</text><text class="cls-12" transform="translate(274.61 133.18) rotate(-90)">u</text><text class="cls-13" transform="translate(274.61 127.77) rotate(-90)">b</text><text class="cls-11" transform="translate(274.61 121.54) rotate(-90)">li</text><text class="cls-12" transform="translate(274.61 117.93) rotate(-90)">c</text><text class="cls-11" transform="translate(274.61 112.16) rotate(-90)">…</text></g><g class="cls-7"><text class="cls-11" transform="translate(291.03 168.97) rotate(-90)">U</text><text class="cls-11" transform="translate(291.03 163.09) rotate(-90)">n</text><text class="cls-11" transform="translate(291.03 157.57) rotate(-90)">i</text><text class="cls-11" transform="translate(291.03 155.77) rotate(-90)">t</text><text class="cls-11" transform="translate(291.03 152.76) rotate(-90)">e</text><text class="cls-11" transform="translate(291.03 146.89) rotate(-90)">d</text><text class="cls-11" transform="translate(291.03 140.77) rotate(-90)"> </text><text class="cls-13" transform="translate(291.03 138.25) rotate(-90)">S</text><text class="cls-11" transform="translate(291.03 133.69) rotate(-90)">t</text><text class="cls-11" transform="translate(291.03 130.69) rotate(-90)">a</text><text class="cls-13" transform="translate(291.03 124.57) rotate(-90)">t</text><text class="cls-12" transform="translate(291.03 121.46) rotate(-90)">e</text><text class="cls-11" transform="translate(291.03 115.69) rotate(-90)">s</text></g><g class="cls-7"><text class="cls-11" transform="translate(307.43 140.42) rotate(-90)">J</text><text class="cls-11" transform="translate(307.43 136.09) rotate(-90)">a</text><text class="cls-13" transform="translate(307.43 129.97) rotate(-90)">p</text><text class="cls-11" transform="translate(307.43 123.73) rotate(-90)">a</text><text class="cls-11" transform="translate(307.43 117.61) rotate(-90)">n</text></g><g class="cls-7"><text class="cls-11" transform="translate(323.85 142.54) rotate(-90)">F</text><text class="cls-11" transform="translate(323.85 138.21) rotate(-90)">r</text><text class="cls-11" transform="translate(323.85 135.46) rotate(-90)">a</text><text class="cls-11" transform="translate(323.85 129.34) rotate(-90)">n</text><text class="cls-12" transform="translate(323.85 123.82) rotate(-90)">c</text><text class="cls-11" transform="translate(323.85 118.05) rotate(-90)">e</text></g><g class="cls-7"><text class="cls-13" transform="translate(340.25 193.32) rotate(-90)">R</text><text class="cls-12" transform="translate(340.25 187.8) rotate(-90)">u</text><text class="cls-11" transform="translate(340.25 182.4) rotate(-90)">ss</text><text class="cls-11" transform="translate(340.25 175.43) rotate(-90)">i</text><text class="cls-13" transform="translate(340.25 173.62) rotate(-90)">a</text><text class="cls-12" transform="translate(340.25 167.39) rotate(-90)">n</text><text class="cls-11" transform="translate(340.25 161.98) rotate(-90)"> </text><text class="cls-11" transform="translate(340.25 159.46) rotate(-90)">F</text><text class="cls-11" transform="translate(340.25 155.13) rotate(-90)">e</text><text class="cls-13" transform="translate(340.25 149.26) rotate(-90)">d</text><text class="cls-12" transform="translate(340.25 143.02) rotate(-90)">e</text><text class="cls-11" transform="translate(340.25 137.25) rotate(-90)">r</text><text class="cls-11" transform="translate(340.25 134.5) rotate(-90)">a</text><text class="cls-13" transform="translate(340.25 128.38) rotate(-90)">t</text><text class="cls-11" transform="translate(340.25 125.26) rotate(-90)">i</text><text class="cls-11" transform="translate(340.25 123.46) rotate(-90)">o</text><text class="cls-11" transform="translate(340.25 117.58) rotate(-90)">n</text></g><g class="cls-7"><text class="cls-11" transform="translate(356.66 138.39) rotate(-90)">C</text><text class="cls-11" transform="translate(356.66 131.07) rotate(-90)">h</text><text class="cls-11" transform="translate(356.66 125.56) rotate(-90)">i</text><text class="cls-12" transform="translate(356.66 123.76) rotate(-90)">n</text><text class="cls-11" transform="translate(356.66 118.35) rotate(-90)">a</text></g><g class="cls-7"><text class="cls-11" transform="translate(373.07 133.79) rotate(-90)">I</text><text class="cls-11" transform="translate(373.07 131.75) rotate(-90)">n</text><text class="cls-12" transform="translate(373.07 126.24) rotate(-90)">d</text><text class="cls-11" transform="translate(373.07 120.12) rotate(-90)">ia</text></g><text class="cls-11" transform="translate(71.81 208.65)">1</text><text class="cls-11" transform="translate(88.22 208.65)">2</text><text class="cls-11" transform="translate(104.63 208.65)">3</text><text class="cls-11" transform="translate(121.04 208.65)">4</text><text class="cls-11" transform="translate(137.44 208.65)">5</text><text class="cls-11" transform="translate(153.86 208.65)">5</text><text class="cls-11" transform="translate(170.26 208.65)">7</text><text class="cls-11" transform="translate(186.68 208.65)">7</text><text class="cls-11" transform="translate(203.08 208.65)">9</text><g class="cls-7"><text class="cls-11" transform="translate(217 208.65)">1</text><text class="cls-11" transform="translate(222.03 208.65)">0</text></g><g class="cls-7"><text class="cls-11" transform="translate(233.4 208.65)">1</text><text class="cls-11" transform="translate(238.43 208.65)">0</text></g><g class="cls-7"><text class="cls-11" transform="translate(249.82 208.65)">1</text><text class="cls-11" transform="translate(254.85 208.65)">5</text></g><g class="cls-7"><text class="cls-11" transform="translate(266.22 208.65)">1</text><text class="cls-11" transform="translate(271.25 208.65)">9</text></g><g class="cls-7"><text class="cls-11" transform="translate(282.64 208.65)">2</text><text class="cls-11" transform="translate(287.67 208.65)">0</text></g><g class="cls-7"><text class="cls-11" transform="translate(299.04 208.65)">2</text><text class="cls-11" transform="translate(304.07 208.65)">4</text></g><g class="cls-7"><text class="cls-11" transform="translate(315.45 208.65)">2</text><text class="cls-11" transform="translate(320.48 208.65)">8</text></g><g class="cls-7"><text class="cls-11" transform="translate(331.86 208.65)">5</text><text class="cls-11" transform="translate(336.89 208.65)">6</text></g><g class="cls-7"><text class="cls-11" transform="translate(348.27 208.65)">7</text><text class="cls-11" transform="translate(353.3 208.65)">5</text></g><g class="cls-7"><text class="cls-11" transform="translate(362.18 208.65)">1</text><text class="cls-12" transform="translate(367.21 208.65)">3</text><text class="cls-11" transform="translate(372.14 208.65)">4</text></g><polygon class="cls-3" points="28.92 0.36 388.92 0.36 388.92 216.36 28.92 216.36 28.92 0.36 28.92 0.36"/><g class="cls-7"><text class="cls-14" transform="translate(112.95 23.45)">Human De<tspan class="cls-15" x="61.45" y="0">v</tspan><tspan x="67.67" y="0" xml:space="preserve">elopment Index (HDI)  2022</tspan></text></g><g class="cls-7"><text class="cls-16" transform="translate(351.51 39.47)">HIGH</text><text class="cls-16" transform="translate(351.51 46.67)">↓</text></g><g class="cls-7"><text class="cls-16" transform="translate(368.59 49.01)">MEDIUM</text><text class="cls-16" transform="translate(368.59 56.21)">↓</text></g><text class="cls-17" transform="translate(0 209.48)">HDI rank →</text><g class="cls-7"><text class="cls-17" transform="translate(38.36 13.17)"><tspan class="cls-18">V</tspan><tspan x="6.58" y="0">alue</tspan></text><text class="cls-17" transform="translate(50.34 26.37)">↓</text></g></svg>