<svg xmlns:xlink="http://www.w3.org/1999/xlink" viewBox="0 0 793 1014" height="1014" width="793" xmlns="http://www.w3.org/2000/svg">
    <defs/>
    <g transform="translate(-536.00,-348.50)">
        <path d="M.0,.0L506.0,.0L506.0,312.5L.0,312.5L.0,.0z" fill="#ebebeb" id="shape1" transform="translate(822.00,1048.49)" fill-rule="nonzero"/>
        <path d="M.0,.0L506.0,.0L506.0,245.0L.0,245.0L.0,.0z" fill="#ebebeb" id="shape2" transform="translate(822.00,747.05)" fill-rule="nonzero"/>
        <path d="M.0,.0L506.0,.0L506.0,170.5L.0,170.5L.0,.0z" fill="#ebebeb" id="shape3" transform="translate(822.00,548.50)" fill-rule="nonzero"/>
        <path d="M.0,.0L506.0,.0L506.0,170.5L.0,170.5L.0,.0z" fill="#ebebeb" id="shape4" transform="translate(822.00,349.50)" fill-rule="nonzero"/>
        <g id="shape5" transform="translate(939.00,455.07)">
            <path d="M.0,.0L47.0,.0L47.0,47.0L.0,47.0L.0,.0z" fill="#ffffff" fill-rule="nonzero" stroke="#323232"/>
            <text style="fill:#191919;font-family:Microsoft YaHei;font-size:10.00pt" xml:space="preserve">
                <tspan x="13.5" y="29.0">1%</tspan>
            </text>
        </g>
        <g id="shape6" transform="translate(850.00,463.43)">
            <text style="fill:#191919;font-family:Microsoft YaHei;font-size:10.00pt" xml:space="preserve">
                <tspan x="13.1" y="18.6">第1步</tspan>
            </text>
        </g>
        <g id="shape7" transform="translate(1042.00,455.07)">
            <path d="M.0,.0L47.0,.0L47.0,47.0L.0,47.0L.0,.0z" fill="#ffffff" fill-rule="nonzero" stroke="#323232"/>
            <text style="fill:#191919;font-family:Microsoft YaHei;font-size:10.00pt" xml:space="preserve">
                <tspan x="13.5" y="29.0">1%</tspan>
            </text>
        </g>
        <g id="shape8" transform="translate(1104.00,455.07)">
            <path d="M.0,.0L47.0,.0L47.0,47.0L.0,47.0L.0,.0z" fill="#ffffff" fill-rule="nonzero" stroke="#323232"/>
            <text style="fill:#191919;font-family:Microsoft YaHei;font-size:10.00pt" xml:space="preserve">
                <tspan x="13.5" y="29.0">1%</tspan>
            </text>
        </g>
        <g id="shape9" transform="translate(1238.00,455.07)">
            <path d="M.0,.0L47.0,.0L47.0,47.0L.0,47.0L.0,.0z" fill="#ffffff" fill-rule="nonzero" stroke="#323232"/>
            <text style="fill:#191919;font-family:Microsoft YaHei;font-size:10.00pt" xml:space="preserve">
                <tspan x="13.5" y="29.0">1%</tspan>
            </text>
        </g>
        <g id="shape10" transform="translate(1171.00,455.07)">
            <text style="fill:#191919;font-family:Microsoft YaHei;font-size:10.00pt" xml:space="preserve">
                <tspan x="14.5" y="21.2">......</tspan>
            </text>
        </g>
        <path d="M.0,.0L9.0,.0C11.5,-0.4,14.0,.5,15.8,2.2C17.5,4.0,18.4,6.5,18.0,9.0L18.0,86.5C17.6,89.0,18.5,91.5,20.2,93.3C22.0,95.0,24.5,95.9,27.0,95.5C24.5,95.1,22.0,96.0,20.2,97.7C18.5,99.5,17.6,102.0,18.0,104.5L18.0,182.0C18.4,184.5,17.5,187.0,15.8,188.8C14.0,190.5,11.5,191.4,9.0,191.0L.0,191.0" fill="none" id="shape11" transform="matrix(0.00,-1.00,-1.00,0.00,1255.0,448.6)" stroke="#999999"/>
        <g id="shape12" transform="translate(1098.50,349.50)">
            <text style="fill:#191919;font-family:Microsoft YaHei;font-size:10.00pt" xml:space="preserve">
                <tspan x="40.5" y="23.0">主持人</tspan>
                <tspan x="31.0" y="42.0">99张彩票,</tspan>
                <tspan x="8.5" y="61.0">整体中奖率=99%</tspan>
            </text>
        </g>
        <g id="shape13" transform="translate(902.50,394.57)">
            <text style="fill:#191919;font-family:Microsoft YaHei;font-size:10.00pt" xml:space="preserve">
                <tspan x="53.5" y="23.0">你</tspan>
                <tspan x="36.5" y="42.0">1张彩票</tspan>
            </text>
        </g>
        <g id="shape14" transform="translate(939.00,654.08)">
            <path d="M.0,.0L47.0,.0L47.0,47.0L.0,47.0L.0,.0z" fill="#ffffff" fill-rule="nonzero" stroke="#323232"/>
            <text style="fill:#191919;font-family:Microsoft YaHei;font-size:10.00pt" xml:space="preserve">
                <tspan x="13.5" y="29.0">1%</tspan>
            </text>
        </g>
        <g id="shape15" transform="translate(1042.00,654.08)">
            <path d="M.0,.0L47.0,.0L47.0,47.0L.0,47.0L.0,.0z" fill="#ffffff" fill-rule="nonzero" stroke="#323232"/>
            <text style="fill:#191919;font-family:Microsoft YaHei;font-size:10.00pt" xml:space="preserve">
                <tspan x="13.5" y="29.0">1%</tspan>
            </text>
        </g>
        <g id="shape16" transform="translate(1104.00,654.08)">
            <path d="M.0,.0L47.0,.0L47.0,47.0L.0,47.0L.0,.0z" fill="#ffffff" fill-rule="nonzero" stroke="#323232"/>
            <text style="fill:#191919;font-family:Microsoft YaHei;font-size:10.00pt" xml:space="preserve">
                <tspan x="13.5" y="29.0">1%</tspan>
            </text>
        </g>
        <g id="shape17" transform="translate(1238.00,654.08)">
            <path d="M.0,.0L47.0,.0L47.0,47.0L.0,47.0L.0,.0z" fill="#ffffff" fill-rule="nonzero" stroke="#323232"/>
            <text style="fill:#191919;font-family:Microsoft YaHei;font-size:10.00pt" xml:space="preserve">
                <tspan x="13.5" y="29.0">1%</tspan>
            </text>
        </g>
        <g id="shape18" transform="translate(1171.00,654.08)">
            <text style="fill:#191919;font-family:Microsoft YaHei;font-size:10.00pt" xml:space="preserve">
                <tspan x="14.5" y="21.2">......</tspan>
            </text>
        </g>
        <path d="M.0,.0L9.0,.0C11.5,-0.4,14.0,.5,15.8,2.2C17.5,4.0,18.4,6.5,18.0,9.0L18.0,86.5C17.6,89.0,18.5,91.5,20.2,93.3C22.0,95.0,24.5,95.9,27.0,95.5C24.5,95.1,22.0,96.0,20.2,97.7C18.5,99.5,17.6,102.0,18.0,104.5L18.0,182.0C18.4,184.5,17.5,187.0,15.8,188.8C14.0,190.5,11.5,191.4,9.0,191.0L.0,191.0" fill="none" id="shape19" transform="matrix(0.00,-1.00,-1.00,0.00,1255.0,647.6)" stroke="#999999"/>
        <g id="shape20" transform="translate(1098.50,548.50)">
            <text style="fill:#191919;font-family:Microsoft YaHei;font-size:10.00pt" xml:space="preserve">
                <tspan x="53.5" y="23.0">你</tspan>
                <tspan x="32.5" y="42.0">99张彩票</tspan>
                <tspan x="8.5" y="61.0">整体中奖率=99%</tspan>
            </text>
        </g>
        <g id="shape21" transform="translate(902.50,593.58)">
            <text style="fill:#191919;font-family:Microsoft YaHei;font-size:10.00pt" xml:space="preserve">
                <tspan x="40.5" y="23.0">主持人</tspan>
                <tspan x="36.5" y="42.0">1张彩票</tspan>
            </text>
        </g>
        <g id="shape22" transform="translate(850.00,645.43)">
            <text style="fill:#191919;font-family:Microsoft YaHei;font-size:10.00pt" xml:space="preserve">
                <tspan x="13.1" y="23.5">第2步</tspan>
                <tspan x="10.6" y="42.5">交换后</tspan>
            </text>
        </g>
        <g id="shape23" transform="translate(939.00,852.30)">
            <path d="M.0,.0L47.0,.0L47.0,47.0L.0,47.0L.0,.0z" fill="#b0ddc1" fill-rule="nonzero" stroke="#323232"/>
            <text style="fill:#191919;font-family:Microsoft YaHei;font-size:10.00pt" xml:space="preserve">
                <tspan x="13.5" y="29.0">1%</tspan>
            </text>
        </g>
        <g id="shape24" transform="translate(1042.00,852.30)">
            <path d="M.0,.0L47.0,.0L47.0,47.0L.0,47.0L.0,.0z" fill="#fedad0" fill-rule="nonzero" stroke="#323232"/>
            <text style="fill:#191919;font-family:Microsoft YaHei;font-size:10.00pt" xml:space="preserve">
                <tspan x="13.5" y="29.0">1%</tspan>
            </text>
        </g>
        <g id="shape25" transform="translate(1171.00,852.30)">
            <text style="fill:#191919;font-family:Microsoft YaHei;font-size:10.00pt" xml:space="preserve">
                <tspan x="14.5" y="21.2">......</tspan>
            </text>
        </g>
        <path d="M.0,.0L9.0,.0C11.5,-0.4,14.0,.5,15.8,2.2C17.5,4.0,18.4,6.5,18.0,9.0L18.0,66.5C17.6,68.9,18.5,71.4,20.2,73.2C22.0,75.0,24.5,75.8,27.0,75.5C24.5,75.1,22.0,75.9,20.2,77.7C18.5,79.5,17.6,82.0,18.0,84.5L18.0,141.9C18.4,144.4,17.5,146.9,15.8,148.7C14.0,150.4,11.5,151.3,9.0,150.9L.0,150.9" fill="none" id="shape26" transform="matrix(0.00,1.00,1.00,0.00,1119.0,907.0)" stroke="#999999"/>
        <g id="shape27" transform="translate(902.50,791.80)">
            <text style="fill:#191919;font-family:Microsoft YaHei;font-size:10.00pt" xml:space="preserve">
                <tspan x="40.5" y="23.0">主持人</tspan>
                <tspan x="36.5" y="42.0">1张彩票</tspan>
            </text>
        </g>
        <g id="shape28" transform="translate(850.00,843.65)">
            <text style="fill:#191919;font-family:Microsoft YaHei;font-size:10.00pt" xml:space="preserve">
                <tspan x="13.1" y="33.0">第3步</tspan>
            </text>
        </g>
        <g id="group29" transform="translate(1104.00,852.30)">
            <g id="shape30">
                <path d="M.0,.0L47.0,.0L47.0,47.0L.0,47.0L.0,.0z" fill="#fedad0" fill-rule="nonzero" stroke="#323232"/>
                <text style="fill:#191919;font-family:Microsoft YaHei;font-size:10.00pt" xml:space="preserve">
                    <tspan x="13.5" y="29.0">1%</tspan>
                </text>
            </g>
            <path d="M.0,.0L63.7,.0" fill="none" id="shape31" transform="matrix(0.68,0.74,-0.74,0.68,4.0,0.0)" stroke="#191919"/>
            <path d="M.0,.0L-43.0,43.0" fill="none" id="shape32" transform="translate(47.00,4.00)" stroke="#191919"/>
        </g>
        <g id="group33" transform="translate(1239.00,852.30)">
            <g id="shape34">
                <path d="M.0,.0L47.0,.0L47.0,47.0L.0,47.0L.0,.0z" fill="#fedad0" fill-rule="nonzero" stroke="#323232"/>
                <text style="fill:#191919;font-family:Microsoft YaHei;font-size:10.00pt" xml:space="preserve">
                    <tspan x="13.5" y="29.0">1%</tspan>
                </text>
            </g>
            <path d="M.0,.0L63.7,.0" fill="none" id="shape35" transform="matrix(0.68,0.74,-0.74,0.68,4.0,0.0)" stroke="#191919"/>
            <path d="M.0,.0L-43.0,43.0" fill="none" id="shape36" transform="translate(47.00,4.00)" stroke="#191919"/>
        </g>
        <g id="shape37" transform="translate(1098.50,746.00)">
            <text style="fill:#191919;font-family:Microsoft YaHei;font-size:10.00pt" xml:space="preserve">
                <tspan x="53.5" y="23.0">你</tspan>
                <tspan x="32.5" y="42.0">99张彩票</tspan>
                <tspan x="8.5" y="61.0">整体中奖率=99%</tspan>
            </text>
        </g>
        <g id="shape38" transform="translate(1134.50,941.70)">
            <text style="fill:#191919;font-family:Microsoft YaHei;font-size:10.00pt" xml:space="preserve">
                <tspan x="40.5" y="13.5">撕开后</tspan>
                <tspan x="34.0" y="32.5">是空彩票</tspan>
            </text>
        </g>
        <path d="M.0,.0L9.0,.0C11.5,-0.4,14.0,.5,15.8,2.2C17.5,4.0,18.4,6.5,18.0,9.0L18.0,86.5C17.6,89.0,18.5,91.5,20.2,93.3C22.0,95.0,24.5,95.9,27.0,95.5C24.5,95.1,22.0,96.0,20.2,97.7C18.5,99.5,17.6,102.0,18.0,104.5L18.0,182.0C18.4,184.5,17.5,187.0,15.8,188.8C14.0,190.5,11.5,191.4,9.0,191.0L.0,191.0" fill="none" id="shape39" transform="matrix(0.00,-1.00,-1.00,0.00,1255.0,845.8)" stroke="#999999"/>
        <g id="shape40" transform="translate(952.76,897.15)">
            <text style="fill:#191919;font-family:Microsoft YaHei;font-size:10.00pt" xml:space="preserve">
                <tspan x="6.2" y="19.0">a</tspan>
            </text>
        </g>
        <g id="shape41" transform="translate(1055.76,897.15)">
            <text style="fill:#191919;font-family:Microsoft YaHei;font-size:10.00pt" xml:space="preserve">
                <tspan x="5.7" y="19.0">b</tspan>
            </text>
        </g>
        <g id="shape42" transform="translate(1020.00,1264.50)">
            <path d="M.0,.0L29.1,-33.5" fill="none" stroke="#191919"/>
            <path stroke-linecap="round" d="M26.8,-35.4L33.0,-38.0L31.3,-31.5L26.8,-35.4" fill="#191919" stroke="#191919" stroke-width="1"/>
        </g>
        <g id="shape43" transform="translate(1020.00,1264.50)">
            <path d="M.0,.0L-29.1,-33.5" fill="none" stroke="#191919"/>
            <path stroke-linecap="round" d="M-31.3,-31.5L-33.0,-38.0L-26.8,-35.4L-31.3,-31.5" fill="#191919" stroke="#191919" stroke-width="1"/>
        </g>
        <g id="shape44" transform="translate(939.00,1155.30)">
            <path d="M.0,.0L47.0,.0L47.0,47.0L.0,47.0L.0,.0z" fill="#ffffff" fill-rule="nonzero" stroke="#323232"/>
            <text style="fill:#191919;font-family:Microsoft YaHei;font-size:10.00pt" xml:space="preserve">
                <tspan x="13.5" y="29.0">1%</tspan>
            </text>
        </g>
        <g id="shape45" transform="translate(1042.00,1155.30)">
            <path d="M.0,.0L47.0,.0L47.0,47.0L.0,47.0L.0,.0z" fill="#ffffff" fill-rule="nonzero" stroke="#323232"/>
            <text style="fill:#191919;font-family:Microsoft YaHei;font-size:10.00pt" xml:space="preserve">
                <tspan x="13.5" y="29.0">1%</tspan>
            </text>
        </g>
        <g id="shape46" transform="translate(1171.00,1155.30)">
            <text style="fill:#191919;font-family:Microsoft YaHei;font-size:10.00pt" xml:space="preserve">
                <tspan x="14.5" y="21.2">......</tspan>
            </text>
        </g>
        <g id="shape47" transform="translate(902.50,1094.80)">
            <text style="fill:#191919;font-family:Microsoft YaHei;font-size:10.00pt" xml:space="preserve">
                <tspan x="40.5" y="23.0">主持人</tspan>
                <tspan x="36.5" y="42.0">1张彩票</tspan>
            </text>
        </g>
        <g id="shape48" transform="translate(850.00,1146.65)">
            <text style="fill:#191919;font-family:Microsoft YaHei;font-size:10.00pt" xml:space="preserve">
                <tspan x="13.1" y="33.0">第3步</tspan>
            </text>
        </g>
        <g id="group49" transform="translate(1104.00,1155.30)">
            <g id="shape50">
                <path d="M.0,.0L47.0,.0L47.0,47.0L.0,47.0L.0,.0z" fill="#ffffff" fill-rule="nonzero" stroke="#323232"/>
                <text style="fill:#191919;font-family:Microsoft YaHei;font-size:10.00pt" xml:space="preserve">
                    <tspan x="13.5" y="29.0">1%</tspan>
                </text>
            </g>
            <path d="M.0,.0L63.7,.0" fill="none" id="shape51" transform="matrix(0.68,0.74,-0.74,0.68,4.0,0.0)" stroke="#191919"/>
            <path d="M.0,.0L-43.0,43.0" fill="none" id="shape52" transform="translate(47.00,3.99)" stroke="#191919"/>
        </g>
        <g id="group53" transform="translate(1239.00,1155.30)">
            <g id="shape54">
                <path d="M.0,.0L47.0,.0L47.0,47.0L.0,47.0L.0,.0z" fill="#ffffff" fill-rule="nonzero" stroke="#323232"/>
                <text style="fill:#191919;font-family:Microsoft YaHei;font-size:10.00pt" xml:space="preserve">
                    <tspan x="13.5" y="29.0">1%</tspan>
                </text>
            </g>
            <path d="M.0,.0L63.7,.0" fill="none" id="shape55" transform="matrix(0.68,0.74,-0.74,0.68,4.0,0.0)" stroke="#191919"/>
            <path d="M.0,.0L-43.0,43.0" fill="none" id="shape56" transform="translate(47.00,3.99)" stroke="#191919"/>
        </g>
        <g id="shape57" transform="translate(1098.50,1049.00)">
            <text style="fill:#191919;font-family:Microsoft YaHei;font-size:10.00pt" xml:space="preserve">
                <tspan x="53.5" y="23.0">你</tspan>
                <tspan x="32.5" y="42.0">99张彩票</tspan>
                <tspan x="8.5" y="61.0">整体中奖率=99%</tspan>
            </text>
        </g>
        <path d="M.0,.0L9.0,.0C11.5,-0.4,14.0,.5,15.8,2.2C17.5,4.0,18.4,6.5,18.0,9.0L18.0,86.5C17.6,89.0,18.5,91.5,20.2,93.3C22.0,95.0,24.5,95.9,27.0,95.5C24.5,95.1,22.0,96.0,20.2,97.7C18.5,99.5,17.6,102.0,18.0,104.5L18.0,182.0C18.4,184.5,17.5,187.0,15.8,188.8C14.0,190.5,11.5,191.4,9.0,191.0L.0,191.0" fill="none" id="shape58" transform="matrix(0.00,-1.00,-1.00,0.00,1255.0,1148.8)" stroke="#999999"/>
        <g id="shape59" transform="translate(850.00,1250.00)">
            <text style="fill:#191919;font-family:Microsoft YaHei;font-size:10.00pt" xml:space="preserve">
                <tspan x="123.5" y="32.5">注意: 现在你比较的,</tspan>
                <tspan x="71.5" y="51.5">不是仅仅是只有这两张a和b的概率比! </tspan>
                <tspan x="83.0" y="70.5">而依然是 a 和 99张整体的概率比!</tspan>
                <tspan x="11.0" y="89.5">即, 你只买1张的概率, 和一箱(99张)的中奖概率, 是不一样的</tspan>
            </text>
        </g>
        <g id="shape60" transform="translate(952.76,1200.15)">
            <text style="fill:#191919;font-family:Microsoft YaHei;font-size:10.00pt" xml:space="preserve">
                <tspan x="6.2" y="19.0">a</tspan>
            </text>
        </g>
        <g id="shape61" transform="translate(1055.76,1200.15)">
            <text style="fill:#191919;font-family:Microsoft YaHei;font-size:10.00pt" xml:space="preserve">
                <tspan x="5.7" y="19.0">b</tspan>
            </text>
        </g>
        <g id="shape62" transform="translate(537.00,631.58)">
            <text style="fill:#191919;font-family:Microsoft YaHei;font-size:10.00pt" xml:space="preserve">
                <tspan x="81.0" y="23.0">三门问题中是后交换, </tspan>
                <tspan x="89.5" y="42.0">我们这里是先交换,</tspan>
                <tspan x="40.5" y="61.0">先交换和后交换有区别么? 没有区别</tspan>
                <tspan x="35.5" y="80.0">所以我们这里就先交换, 能看得更明白</tspan>
            </text>
        </g>
        <g id="shape63" transform="translate(850.00,671.00)">
            <path d="M.0,.0L-50.0,.0" fill="none" stroke="#191919"/>
            <path stroke-linecap="round" d="M-50.0,3.0L-56.0,.0L-50.0,-3.0L-50.0,3.0" fill="#191919" stroke="#191919" stroke-width="1"/>
        </g>
    </g>
</svg>
