<svg xmlns:xlink="http://www.w3.org/1999/xlink" viewBox="0 0 297 557" height="557" width="297" xmlns="http://www.w3.org/2000/svg">
    <defs/>
    <g transform="translate(-363.78,-219.00)">
        <g id="shape1" transform="translate(444.00,283.00)">
            <path d="M.0,.0L47.0,.0L47.0,47.0L.0,47.0L.0,.0z" fill="#ffffff" fill-rule="nonzero" stroke="#323232"/>
            <text style="fill:#191919;font-family:Microsoft YaHei;font-size:10.00pt" xml:space="preserve">
                <tspan x="20.5" y="29.0">?</tspan>
            </text>
        </g>
        <g id="shape2" transform="translate(510.00,283.00)">
            <path d="M.0,.0L47.0,.0L47.0,47.0L.0,47.0L.0,.0z" fill="#ffffff" fill-rule="nonzero" stroke="#323232"/>
            <text style="fill:#191919;font-family:Microsoft YaHei;font-size:10.00pt" xml:space="preserve">
                <tspan x="20.5" y="29.0">?</tspan>
            </text>
        </g>
        <g id="shape3" transform="translate(576.00,283.00)">
            <path d="M.0,.0L47.0,.0L47.0,47.0L.0,47.0L.0,.0z" fill="#ffffff" fill-rule="nonzero" stroke="#323232"/>
            <text style="fill:#191919;font-family:Microsoft YaHei;font-size:10.00pt" xml:space="preserve">
                <tspan x="20.5" y="29.0">?</tspan>
            </text>
        </g>
        <g id="shape4" transform="translate(444.00,373.35)">
            <path d="M.0,.0L47.0,.0L47.0,47.0L.0,47.0L.0,.0z" fill="#ffffff" fill-rule="nonzero" stroke="#323232"/>
            <text style="fill:#191919;font-family:Microsoft YaHei;font-size:10.00pt" xml:space="preserve">
                <tspan x="10.5" y="29.0">你选</tspan>
            </text>
        </g>
        <g id="shape5" transform="translate(510.00,373.35)">
            <path d="M.0,.0L47.0,.0L47.0,47.0L.0,47.0L.0,.0z" fill="#ffffff" fill-rule="nonzero" stroke="#323232"/>
            <text style="fill:#191919;font-family:Microsoft YaHei;font-size:10.00pt" xml:space="preserve">
                <tspan x="20.5" y="29.0">?</tspan>
            </text>
        </g>
        <g id="shape6" transform="translate(576.00,373.35)">
            <path d="M.0,.0L47.0,.0L47.0,47.0L.0,47.0L.0,.0z" fill="#ffffff" fill-rule="nonzero" stroke="#323232"/>
            <text style="fill:#191919;font-family:Microsoft YaHei;font-size:10.00pt" xml:space="preserve">
                <tspan x="20.5" y="29.0">?</tspan>
            </text>
        </g>
        <g id="shape7" transform="translate(444.00,558.00)">
            <path d="M.0,.0L47.0,.0L47.0,47.0L.0,47.0L.0,.0z" fill="#ffffff" fill-rule="nonzero" stroke="#323232"/>
            <text style="fill:#191919;font-family:Microsoft YaHei;font-size:10.00pt" xml:space="preserve">
                <tspan x="10.5" y="29.0">你选</tspan>
            </text>
        </g>
        <g id="shape8" transform="translate(510.00,558.00)">
            <path d="M.0,.0L47.0,.0L47.0,47.0L.0,47.0L.0,.0z" fill="#ffffff" fill-rule="nonzero" stroke="#323232"/>
            <text style="fill:#191919;font-family:Microsoft YaHei;font-size:10.00pt" xml:space="preserve">
                <tspan x="20.5" y="29.0">?</tspan>
            </text>
        </g>
        <g id="shape9" transform="translate(576.00,558.00)">
            <path d="M.0,.0L47.0,.0L47.0,47.0L.0,47.0L.0,.0z" fill="#ffffff" fill-rule="nonzero" stroke="#323232"/>
            <text style="fill:#191919;font-family:Microsoft YaHei;font-size:10.00pt" xml:space="preserve">
                <tspan x="17.0" y="29.0">羊</tspan>
            </text>
        </g>
        <g id="shape10" transform="translate(539.50,451.00)">
            <text style="fill:#191919;font-family:Microsoft YaHei;font-size:10.00pt" xml:space="preserve">
                <tspan x="14.5" y="26.5">主持人帮你打开</tspan>
                <tspan x="17.5" y="45.5">剩下的两扇中, </tspan>
                <tspan x="27.5" y="64.5">有羊的一扇</tspan>
            </text>
        </g>
        <g id="shape11" transform="translate(600.00,520.00)">
            <path d="M.0,.0L-0.0,32.0" fill="none" stroke="#191919"/>
            <path stroke-linecap="round" d="M3.0,32.0L-0.0,38.0L-3.0,32.0L3.0,32.0" fill="#191919" stroke="#191919" stroke-width="1"/>
        </g>
        <g id="shape12" transform="translate(444.00,642.50)">
            <path d="M.0,.0L47.0,.0L47.0,47.0L.0,47.0L.0,.0z" fill="#ffffff" fill-rule="nonzero" stroke="#323232"/>
            <text style="fill:#191919;font-family:Microsoft YaHei;font-size:10.00pt" xml:space="preserve">
                <tspan x="20.5" y="29.0">?</tspan>
            </text>
        </g>
        <g id="shape13" transform="translate(510.00,642.50)">
            <path d="M.0,.0L47.0,.0L47.0,47.0L.0,47.0L.0,.0z" fill="#ffffff" fill-rule="nonzero" stroke="#323232"/>
            <text style="fill:#191919;font-family:Microsoft YaHei;font-size:10.00pt" xml:space="preserve">
                <tspan x="20.5" y="29.0">?</tspan>
            </text>
        </g>
        <g id="shape14" transform="translate(576.00,642.50)">
            <path d="M.0,.0L47.0,.0L47.0,47.0L.0,47.0L.0,.0z" fill="#ffffff" fill-rule="nonzero" stroke="#323232"/>
            <text style="fill:#191919;font-family:Microsoft YaHei;font-size:10.00pt" xml:space="preserve">
                <tspan x="17.0" y="29.0">羊</tspan>
            </text>
        </g>
        <g id="shape15" transform="translate(444.00,721.00)">
            <text style="fill:#191919;font-family:Microsoft YaHei;font-size:10.00pt" xml:space="preserve">
                <tspan x="8.0" y="23.0">重新给你一次选择</tspan>
                <tspan x="14.5" y="42.0">机会, 你选哪个?</tspan>
            </text>
        </g>
        <g id="shape16" transform="translate(501.00,727.50)">
            <path d="M.0,.0L29.1,-33.5" fill="none" stroke="#191919"/>
            <path stroke-linecap="round" d="M26.8,-35.4L33.0,-38.0L31.3,-31.5L26.8,-35.4" fill="#191919" stroke="#191919" stroke-width="1"/>
        </g>
        <g id="shape17" transform="translate(501.00,727.50)">
            <path d="M.0,.0L-29.1,-33.5" fill="none" stroke="#191919"/>
            <path stroke-linecap="round" d="M-31.3,-31.5L-33.0,-38.0L-26.8,-35.4L-31.3,-31.5" fill="#191919" stroke="#191919" stroke-width="1"/>
        </g>
        <path d="M.0,.0L9.0,.0C11.5,-0.4,14.0,.5,15.8,2.2C17.5,4.0,18.4,6.5,18.0,9.0L18.0,60.5C17.6,63.0,18.5,65.5,20.2,67.3C22.0,69.0,24.5,69.9,27.0,69.5C24.5,69.1,22.0,70.0,20.2,71.7C18.5,73.5,17.6,76.0,18.0,78.5L18.0,130.0C18.4,132.5,17.5,135.0,15.8,136.8C14.0,138.5,11.5,139.4,9.0,139.0L.0,139.0" fill="none" id="shape18" transform="matrix(0.00,-1.00,-1.00,0.00,605.0,278.5)" stroke="#999999"/>
        <g id="shape19" transform="translate(475.50,220.00)">
            <text style="fill:#191919;font-family:Microsoft YaHei;font-size:10.00pt" xml:space="preserve">
                <tspan x="14.5" y="19.0">其中只有一辆车</tspan>
            </text>
        </g>
        <g id="shape20" transform="translate(364.78,383.78)">
            <text style="fill:#191919;font-family:Microsoft YaHei;font-size:10.00pt" xml:space="preserve">
                <tspan x="13.1" y="18.6">第1步</tspan>
            </text>
        </g>
        <g id="shape21" transform="translate(364.78,563.93)">
            <text style="fill:#191919;font-family:Microsoft YaHei;font-size:10.00pt" xml:space="preserve">
                <tspan x="13.1" y="23.1">第2步</tspan>
            </text>
        </g>
        <g id="shape22" transform="translate(364.78,648.43)">
            <text style="fill:#191919;font-family:Microsoft YaHei;font-size:10.00pt" xml:space="preserve">
                <tspan x="13.1" y="23.5">第3步</tspan>
            </text>
        </g>
    </g>
</svg>
