<svg xmlns="http://www.w3.org/2000/svg" viewBox="0 0 247.68 200"><defs><style>.cls-1,.cls-2,.cls-4,.cls-8,.cls-9{fill:none;stroke-miterlimit:10;}.cls-1{stroke:#ccc;}.cls-2,.cls-4{stroke:#000;}.cls-3,.cls-5,.cls-6,.cls-7{font-size:10px;font-family:MicrosoftYaHeiLight, Microsoft YaHei;}.cls-3{fill:blue;}.cls-4{stroke-width:0.75px;}.cls-6{fill:red;}.cls-7{fill:#006837;}.cls-8{stroke:red;}.cls-9{stroke:#006837;}</style></defs><title>资源 1</title><g id="图层_2" data-name="图层 2"><g id="图层_2-2" data-name="图层 2"><circle class="cls-1" cx="100" cy="100" r="67.75"/><line class="cls-2" x1="100" x2="100" y2="200"/><line class="cls-2" y1="100" x2="200" y2="100"/><line class="cls-2" x1="100" y1="99.88" x2="155.33" y2="62.25"/><line class="cls-2" x1="100" y1="99.88" x2="155.33" y2="138.25"/><text class="cls-3" transform="translate(127.71 93.31)">α</text><text class="cls-3" transform="translate(125.56 111.19)">-α</text><path class="cls-4" d="M120.29,109.48a8.31,8.31,0,0,0,2.22-2.45,9,9,0,0,0,.73-7.38"/><path d="M116.09,111.19a22.68,22.68,0,0,1,7.3.71l-2.6-2.75-.24-3.79A22.74,22.74,0,0,1,116.09,111.19Z"/><path class="cls-4" d="M118.14,92.36a8.6,8.6,0,0,1,2.88,1,6.1,6.1,0,0,1,3.17,5.13"/><path d="M113.61,92.54A22.47,22.47,0,0,1,120.09,96l-1.36-3.54L120,88.85A22.54,22.54,0,0,1,113.61,92.54Z"/><text class="cls-5" transform="translate(116.5 75.75)">r=1</text><text class="cls-6" transform="translate(146.89 87.25)">y</text><text class="cls-5" transform="translate(175.05 87.25)">sin(α) = y</text><text class="cls-5" transform="translate(174.42 118.75)">sin(-α) = -y</text><text class="cls-7" transform="translate(143.74 115.25)">-y</text><text class="cls-3" transform="translate(152.32 48.75)">逆时针旋转, 是正角度</text><text class="cls-3" transform="translate(152.32 156.75)">顺时针旋转, 是负角度</text><line class="cls-8" x1="155.33" y1="61.95" x2="155.33" y2="100.12"/><line class="cls-9" x1="155.33" y1="101.49" x2="155.33" y2="139.66"/></g></g></svg>