<svg xmlns="http://www.w3.org/2000/svg" viewBox="0 0 587.05 370.55"><defs><style>.cls-1,.cls-10,.cls-6,.cls-8,.cls-9{fill:none;stroke-miterlimit:10;}.cls-1,.cls-6{stroke:#3e3a39;}.cls-2{fill:#231815;}.cls-3{font-size:21px;}.cls-12,.cls-3,.cls-7{font-family:MicrosoftYaHeiLight, Microsoft YaHei;}.cls-4{letter-spacing:-0.02em;}.cls-5{fill:#3e3a39;}.cls-6{stroke-width:2px;}.cls-7{font-size:15px;}.cls-8,.cls-9{stroke:#231815;}.cls-9{stroke-dasharray:3.81 3.81;}.cls-10{stroke:#b5b5b6;}.cls-11{fill:#b5b5b6;}.cls-12{font-size:30px;}</style></defs><title>资源 17</title><g id="图层_2" data-name="图层 2"><g id="图层_1-2" data-name="图层 1"><line class="cls-1" x1="307.53" y1="48.91" x2="307.53" y2="341.94"/><circle class="cls-2" cx="308.05" cy="190.33" r="8.82"/><circle class="cls-2" cx="144.05" cy="225.91" r="8.82"/><circle class="cls-2" cx="250.05" cy="225.91" r="8.82"/><text class="cls-3" transform="translate(288.93 365.06)">now</text><text class="cls-3" transform="translate(417.16 365.06)">futu<tspan class="cls-4" x="37.27" y="0">r</tspan><tspan x="44.31" y="0">e</tspan></text><text class="cls-3" transform="translate(147.7 365.06)">past</text><line class="cls-5" x1="87.05" y1="302.24" x2="587.05" y2="302.24"/><line class="cls-6" x1="87.05" y1="302.24" x2="572.92" y2="302.24"/><polygon class="cls-5" points="587.05 302.24 567.15 310.37 571.87 302.24 567.15 294.11 587.05 302.24"/><text class="cls-7" transform="translate(219.72 90.63)">至今未完成</text><text class="cls-7" transform="translate(213.5 253.95)">已完成, <tspan x="-81.96" y="17">但对现在有后果影响</tspan></text><text class="cls-7" transform="translate(333.22 90.63)">未来还将继续延续下去</text><text class="cls-7" transform="translate(250.01 12.84)">have been doing<tspan x="4.71" y="24.57">现在完成进行时</tspan></text><line class="cls-8" x1="148.05" y1="225.91" x2="231.99" y2="225.91"/><polygon class="cls-2" points="239.05 225.91 229.1 229.98 231.46 225.91 229.1 221.85 239.05 225.91"/><line class="cls-8" x1="250.05" y1="225.91" x2="252.05" y2="225.91"/><line class="cls-9" x1="255.86" y1="225.91" x2="292.08" y2="225.91"/><line class="cls-8" x1="293.99" y1="225.91" x2="295.99" y2="225.91"/><polygon class="cls-2" points="303.05 225.91 293.1 229.98 295.46 225.91 293.1 221.85 303.05 225.91"/><line class="cls-10" x1="317.05" y1="190.33" x2="401.99" y2="190.33"/><polygon class="cls-11" points="409.05 190.33 399.1 194.39 401.46 190.33 399.1 186.26 409.05 190.33"/><line class="cls-10" x1="317.05" y1="146.91" x2="401.99" y2="146.91"/><polygon class="cls-11" points="409.05 146.91 399.1 150.98 401.46 146.91 399.1 142.85 409.05 146.91"/><line class="cls-10" x1="317.05" y1="100.91" x2="401.99" y2="100.91"/><polygon class="cls-11" points="409.05 100.91 399.1 104.98 401.46 100.91 399.1 96.85 409.05 100.91"/><circle class="cls-2" cx="308.05" cy="146.91" r="8.82"/><circle class="cls-2" cx="307.53" cy="146.91" r="8.82"/><circle class="cls-2" cx="144.05" cy="146.91" r="8.82"/><line class="cls-8" x1="144.05" y1="146.91" x2="290.16" y2="146.91"/><polygon class="cls-2" points="297.22 146.91 287.27 150.98 289.63 146.91 287.27 142.85 297.22 146.91"/><circle class="cls-2" cx="308.05" cy="102.91" r="8.82"/><circle class="cls-2" cx="38.87" cy="102.91" r="8.82"/><line class="cls-8" x1="37.05" y1="102.91" x2="290.16" y2="102.91"/><polygon class="cls-2" points="297.22 102.91 287.27 106.98 289.63 102.91 287.27 98.85 297.22 102.91"/><text class="cls-12" transform="translate(0 110.57)">1.</text><text class="cls-12" transform="translate(97.67 152.88)">2.</text><text class="cls-12" transform="translate(263.06 199.88)">3.</text><text class="cls-12" transform="translate(97.8 233.88)">4.</text></g></g></svg>