<svg xmlns="http://www.w3.org/2000/svg" viewBox="0 0 500 253.64"><defs><style>.cls-1,.cls-2,.cls-4,.cls-6{fill:none;stroke:#3e3a39;stroke-miterlimit:10;}.cls-2{stroke-dasharray:4.37 4.37;}.cls-3{fill:#3e3a39;}.cls-4{stroke-dasharray:4.02 4.02;}.cls-5,.cls-8{font-size:21px;font-family:MicrosoftYaHeiLight, Microsoft YaHei;}.cls-6{stroke-width:2px;}.cls-7{fill:#231815;}.cls-8{fill:#fff;}</style></defs><title>资源 24</title><g id="图层_2" data-name="图层 2"><g id="图层_1-2" data-name="图层 1"><line class="cls-1" x1="305.69" y1="110.32" x2="307.69" y2="110.32"/><line class="cls-2" x1="312.05" y1="110.32" x2="327.33" y2="110.32"/><line class="cls-1" x1="329.51" y1="110.32" x2="331.51" y2="110.32"/><polygon class="cls-3" points="338.57 110.32 328.63 114.39 330.99 110.32 328.63 106.26 338.57 110.32"/><line class="cls-1" x1="342.48" x2="342.48" y2="225.03"/><line class="cls-1" x1="301.48" x2="301.48" y2="2"/><line class="cls-4" x1="301.48" y1="6.02" x2="301.48" y2="221.02"/><line class="cls-1" x1="301.48" y1="223.03" x2="301.48" y2="225.03"/><text class="cls-5" transform="translate(323.88 248.14)">now</text><text class="cls-5" transform="translate(182.66 248.14)">past</text><line class="cls-3" y1="185.32" x2="500" y2="185.32"/><line class="cls-6" y1="185.32" x2="485.88" y2="185.32"/><polygon class="cls-3" points="500 185.32 480.1 193.45 484.82 185.32 480.1 177.19 500 185.32"/><rect class="cls-7" x="118.89" y="85.69" width="182" height="45.48" rx="11.53" ry="11.53"/><text class="cls-8" transform="translate(127.7 113.64)">have been doing</text></g></g></svg>