<svg xmlns="http://www.w3.org/2000/svg" viewBox="0 0 521.11 321.64"><defs><style>.cls-1{fill:#dcdddd;}.cls-2,.cls-5{fill:none;stroke:#3e3a39;stroke-miterlimit:10;}.cls-3{fill:#3e3a39;}.cls-4{font-size:21px;}.cls-4,.cls-6,.cls-8{font-family:MicrosoftYaHeiLight, Microsoft YaHei;}.cls-5{stroke-width:2px;}.cls-6{font-size:14px;}.cls-6,.cls-7{fill:#231815;}.cls-8{font-size:13px;fill:#fff;}</style></defs><title>资源 22</title><g id="图层_2" data-name="图层 2"><g id="图层_1-2" data-name="图层 1"><rect class="cls-1" y="23.63" width="364" height="62"/><rect class="cls-1" x="282" y="138.63" width="82" height="62"/><line class="cls-2" x1="363.59" x2="363.59" y2="293.03"/><line class="cls-2" x1="183.59" y1="136" x2="183.59" y2="158.97"/><polygon class="cls-3" points="183.59 166.03 179.53 156.08 183.59 158.44 187.66 156.08 183.59 166.03"/><line class="cls-2" x1="183.59" y1="112.03" x2="183.59" y2="89.06"/><polygon class="cls-3" points="183.59 82 187.66 91.95 183.59 89.59 179.53 91.95 183.59 82"/><text class="cls-4" transform="translate(344.99 316.14)">now</text><text class="cls-4" transform="translate(203.77 316.14)">past</text><line class="cls-3" x1="21.11" y1="253.32" x2="521.11" y2="253.32"/><line class="cls-5" x1="21.11" y1="253.32" x2="506.99" y2="253.32"/><polygon class="cls-3" points="521.11 253.32 501.21 261.45 505.93 253.32 501.21 245.19 521.11 253.32"/><text class="cls-6" transform="translate(15.62 37.67)">较长时间段</text><text class="cls-6" transform="translate(288.62 154.99)">较短时间段</text><text class="cls-6" transform="translate(132.67 128.36)">表示动作在&quot;延续&quot;</text><rect class="cls-7" x="5" y="168.48" width="373.75" height="24.52" rx="11.53" ry="11.53"/><text class="cls-8" transform="translate(147.1 184.67)">无限延续动词</text><rect class="cls-7" x="5" y="49.48" width="373.75" height="24.52" rx="11.53" ry="11.53"/><text class="cls-8" transform="translate(147.1 65.67)">无限延续动词</text></g></g></svg>