<svg xmlns="http://www.w3.org/2000/svg" viewBox="0 0 500 259.64"><defs><style>.cls-1{font-size:22px;font-family:MicrosoftYaHei, Microsoft YaHei;}.cls-2,.cls-3,.cls-6,.cls-7,.cls-8{fill:none;stroke-miterlimit:10;}.cls-2,.cls-3,.cls-6{stroke:#3e3a39;}.cls-2{stroke-dasharray:4 4;}.cls-4{font-size:21px;}.cls-10,.cls-4{font-family:MicrosoftYaHeiLight, Microsoft YaHei;}.cls-5{fill:#3e3a39;}.cls-6{stroke-width:2px;}.cls-7,.cls-8{stroke:#231815;}.cls-8{stroke-dasharray:3.81 3.81;}.cls-10,.cls-9{fill:#231815;}.cls-10{font-size:14px;}</style></defs><title>资源 28</title><g id="图层_2" data-name="图层 2"><g id="图层_1-2" data-name="图层 1"><text class="cls-1" transform="translate(26.61 23.93)">had been doing</text><line class="cls-2" x1="220.48" x2="220.48" y2="231.03"/><line class="cls-3" x1="357.48" x2="357.48" y2="231.03"/><text class="cls-4" transform="translate(339.51 254.14)">now</text><text class="cls-4" transform="translate(198.29 254.14)">past</text><line class="cls-5" y1="191.32" x2="500" y2="191.32"/><line class="cls-6" y1="191.32" x2="485.88" y2="191.32"/><polygon class="cls-5" points="500 191.32 480.1 199.45 484.82 191.32 480.1 183.19 500 191.32"/><line class="cls-7" x1="219.5" y1="75.02" x2="221.5" y2="75.02"/><line class="cls-8" x1="225.31" y1="75.02" x2="261.53" y2="75.02"/><line class="cls-7" x1="263.44" y1="75.02" x2="265.44" y2="75.02"/><polygon class="cls-9" points="272.5 75.02 262.55 79.08 264.91 75.02 262.55 70.95 272.5 75.02"/><rect class="cls-9" x="10.89" y="63.48" width="23.06" height="23.06" rx="11.53" ry="11.53"/><rect class="cls-9" x="60.41" y="63.48" width="23.06" height="23.06" rx="11.53" ry="11.53"/><rect class="cls-9" x="109.92" y="63.48" width="23.06" height="23.06" rx="11.53" ry="11.53"/><rect class="cls-9" x="159.44" y="63.48" width="23.06" height="23.06" rx="11.53" ry="11.53"/><rect class="cls-9" x="208.95" y="63.48" width="23.06" height="23.06" rx="11.53" ry="11.53"/><text class="cls-10" transform="translate(47.87 154.04)">表示事件在&quot;重复&quot;发生</text><path d="M134.87,115.84h39.68q10.53,0,16.6-3.36t6.07-11.27h5.67q0,10.37-6.88,15.23t-24.7,4.88H136.49q-9.72,0-15.79,2.44t-6.88,11H109q-1.62-7.92-6.48-10.67t-16.19-2.74H51.47q-17.8,0-24.7-4.88t-6.88-15.23h5.67q0,7.92,5.66,11.27t17,3.36H87.91q13,0,17.81,4.26t4.86,9.15h1.62c0-3.66,1.9-6.8,5.67-9.45S127.32,115.84,134.87,115.84Z"/></g></g></svg>