<svg id="图层_1" data-name="图层 1" xmlns="http://www.w3.org/2000/svg" xmlns:xlink="http://www.w3.org/1999/xlink" viewBox="0 0 1474.2 410.78"><image width="2211" height="913" transform="translate(943.56 0) scale(0.24)" xlink:href="0038.png"/><circle cx="41.3" cy="315.86" r="41.3" style="fill:#172a88"/><text transform="translate(7.77 328.34)" style="font-size:41.479305267333984px;fill:#fff;font-family:MicrosoftYaHei, Microsoft YaHei">Mg</text><circle cx="185.84" cy="315.72" r="41.3" style="fill:#c30d23"/><text transform="translate(169.8 328.21)" style="font-size:41.479305267333984px;fill:#fff;font-family:MicrosoftYaHei, Microsoft YaHei">H</text><circle cx="264.48" cy="315.72" r="41.3" style="fill:#094"/><text transform="translate(245.09 328.21)" style="font-size:41.479305267333984px;fill:#fff;font-family:MicrosoftYaHei, Microsoft YaHei">Cl</text><text transform="translate(88.54 338.89)" style="font-size:72px;fill:#231815;font-family:MicrosoftYaHei, Microsoft YaHei">+</text><circle cx="432.78" cy="315.86" r="41.3" style="fill:#172a88"/><text transform="translate(399.25 328.34)" style="font-size:41.479305267333984px;fill:#fff;font-family:MicrosoftYaHei, Microsoft YaHei">Mg</text><circle cx="674.57" cy="315.72" r="41.3" style="fill:#c30d23"/><text transform="translate(658.53 328.21)" style="font-size:41.479305267333984px;fill:#fff;font-family:MicrosoftYaHei, Microsoft YaHei">H</text><circle cx="515.39" cy="315.72" r="41.3" style="fill:#094"/><text transform="translate(488.91 328.21)" style="font-size:41.479305267333984px;fill:#fff;font-family:MicrosoftYaHei, Microsoft YaHei">Cl</text><text transform="translate(527.69 342.02) scale(0.58)" style="font-size:41.479305267333984px;fill:#fff;font-family:MicrosoftYaHei, Microsoft YaHei">2</text><text transform="translate(565.89 338.89)" style="font-size:72px;fill:#231815;font-family:MicrosoftYaHei, Microsoft YaHei">+</text><text transform="translate(321.15 338.89)" style="font-size:72px;fill:#231815;font-family:MicrosoftYaHei, Microsoft YaHei">=</text><path d="M157.26,238.22c19-16.95,114.53-98.65,256.52-91.31,98.82,5.11,169.35,50.72,203.38,77.66" transform="translate(25.97 17.46)" style="fill:none;stroke:#231815;stroke-miterlimit:10;stroke-width:3px"/><polygon points="659.32 255.68 628.6 245.89 641.86 241.08 644.25 227.18 659.32 255.68" style="fill:#231815"/><text transform="translate(254.48 78.87) scale(0.58)" style="font-size:60px;fill:#231815;font-family:MicrosoftYaHei, Microsoft YaHei">把<tspan x="60" y="0" style="fill:#c30d23">氢</tspan><tspan x="120" y="0">解放独立出来了, </tspan><tspan x="106.1" y="85.76">即置换出来了</tspan></text><text transform="translate(598.24 403.64) scale(0.58)" style="font-size:48px;fill:#c30d23;font-family:MicrosoftYaHei, Microsoft YaHei">我独立自由啦!</text></svg>