<svg xmlns="http://www.w3.org/2000/svg" xmlns:xlink="http://www.w3.org/1999/xlink" height="412" viewBox="0 0 579 412" width="579">
    <defs/>
    <g transform="translate(-1027.62,-200.00)">
        <g id="shape1" transform="translate(1282.99,207.52)">
            <path stroke="#323232" d="M67.8,403.0L67.8,.0L.0,.0L.0,403.0L67.8,403.0z" fill="#ffffff" fill-rule="nonzero"/>
            <text xml:space="preserve" style="fill:#191919;font-family:Microsoft YaHei;font-size:10.00pt">
                <tspan y="197.5" x="29.4">A</tspan>
                <tspan y="216.5" x="10.9">(Sandy)</tspan>
            </text>
        </g>
        <g id="shape2" transform="translate(1537.36,207.52)">
            <path stroke="#323232" d="M67.8,266.5L67.8,.0L.0,.0L.0,266.5L67.8,266.5z" fill="#ffffff" fill-rule="nonzero"/>
            <text xml:space="preserve" style="fill:#191919;font-family:Microsoft YaHei;font-size:10.00pt">
                <tspan y="129.2" x="29.9">B</tspan>
                <tspan y="148.2" x="13.4">(Tracy)</tspan>
            </text>
        </g>
        <g id="shape3" transform="translate(1028.62,454.00)">
            <path stroke="#323232" d="M67.8,156.5L67.8,.0L.0,.0L.0,156.5L67.8,156.5z" fill="#ffffff" fill-rule="nonzero"/>
            <text xml:space="preserve" style="fill:#191919;font-family:Microsoft YaHei;font-size:10.00pt">
                <tspan y="83.8" x="29.4">C</tspan>
            </text>
        </g>
        <g id="shape4" transform="translate(1350.78,232.50)">
            <path stroke="#191919" d="M.0,.0L154.6,.0L154.6,4.3L180.6,4.3" fill="none"/>
            <path stroke="#191919" stroke-linecap="round" stroke-width="1" d="M180.6,1.3L186.6,4.3L180.6,7.3L180.6,1.3" fill="#191919"/>
            <rect y="-28.5" height="19.0" x="61.7" width="71.0" fill="#ffffff"/>
            <rect y="-9.5" height="19.0" x="36.7" width="121.0" fill="#ffffff"/>
            <rect y="9.5" height="19.0" x="36.2" width="122.0" fill="#ffffff"/>
            <text xml:space="preserve" style="fill:#191919;font-family:Microsoft YaHei;font-size:10.00pt">
                <tspan y="-13.5" x="61.7">you wanna </tspan>
                <tspan y="5.5" x="36.7">go to the sock hop </tspan>
                <tspan y="24.5" x="36.2">with me this Friday?</tspan>
            </text>
        </g>
        <g id="shape5" transform="translate(1537.36,305.04)">
            <path stroke="#191919" d="M.0,.0L-180.6,.0" fill="none"/>
            <path stroke="#191919" stroke-linecap="round" stroke-width="1" d="M-180.6,3.0L-186.6,.0L-180.6,-3.0L-180.6,3.0" fill="#191919"/>
            <rect y="-19.0" height="19.0" x="-118.3" width="55.0" fill="#ffffff"/>
            <rect y="0.0" height="19.0" x="-151.3" width="121.0" fill="#ffffff"/>
            <text xml:space="preserve" style="fill:#191919;font-family:Microsoft YaHei;font-size:10.00pt">
                <tspan y="-4.0" x="-118.3">The girls </tspan>
                <tspan y="15.0" x="-151.3">gotta ask the guys. </tspan>
            </text>
        </g>
        <g id="shape6" transform="translate(1350.78,378.79)">
            <path stroke="#191919" d="M.0,.0L93.3,.0L93.3,.1L180.6,.1" fill="none"/>
            <path stroke="#191919" stroke-linecap="round" stroke-width="1" d="M180.6,-2.9L186.6,.1L180.6,3.1L180.6,-2.9" fill="#191919"/>
            <rect y="-19.0" height="19.0" x="48.0" width="87.0" fill="#ffffff"/>
            <rect y="0.0" height="19.0" x="45.5" width="92.0" fill="#ffffff"/>
            <text xml:space="preserve" style="fill:#191919;font-family:Microsoft YaHei;font-size:10.00pt">
                <tspan y="-4.0" x="48.0">when are you </tspan>
                <tspan y="15.0" x="45.5">gonna ask me?</tspan>
            </text>
        </g>
        <g id="shape7" transform="translate(1110.05,463.00)">
            <path stroke="#191919" d="M.0,.0L153.3,.0" fill="none"/>
            <path stroke="#191919" stroke-linecap="round" stroke-width="1" d="M153.3,-3.0L159.3,.0L153.3,3.0L153.3,-3.0" fill="#191919"/>
            <rect y="-9.5" height="19.0" x="17.9" width="132.0" fill="#ffffff"/>
            <text xml:space="preserve" style="fill:#191919;font-family:Microsoft YaHei;font-size:10.00pt">
                <tspan y="5.5" x="17.9">Ease off my girl, man.</tspan>
            </text>
        </g>
        <g id="shape8" transform="translate(1269.36,519.52)">
            <path stroke="#191919" d="M.0,.0L-153.3,.0" fill="none"/>
            <path stroke="#191919" stroke-linecap="round" stroke-width="1" d="M-153.3,3.0L-159.3,.0L-153.3,-3.0L-153.3,3.0" fill="#191919"/>
            <rect y="-9.5" height="19.0" x="-140.2" width="126.0" fill="#ffffff"/>
            <text xml:space="preserve" style="fill:#191919;font-family:Microsoft YaHei;font-size:10.00pt">
                <tspan y="5.5" x="-140.2">Your girl? Says who?</tspan>
            </text>
        </g>
        <g id="shape9" transform="translate(1110.05,578.41)">
            <path stroke="#191919" d="M.0,.0L153.3,.0" fill="none"/>
            <path stroke="#191919" stroke-linecap="round" stroke-width="1" d="M153.3,-3.0L159.3,.0L153.3,3.0L153.3,-3.0" fill="#191919"/>
            <rect y="-9.5" height="19.0" x="19.2" width="124.0" fill="#ffffff"/>
            <text xml:space="preserve" style="fill:#191919;font-family:Microsoft YaHei;font-size:10.00pt">
                <tspan y="5.5" x="19.2">Says me, pipsqueak!</tspan>
            </text>
        </g>
    </g>
</svg>
