<svg xmlns:xlink="http://www.w3.org/1999/xlink" height="647" width="544" viewBox="0 0 544 647" xmlns="http://www.w3.org/2000/svg">
    <defs/>
    <g transform="translate(-238.00,-138.00)">
        <g id="shape1" transform="translate(239.00,140.14)">
            <path d="M120.0,643.9L120.0,.0L.0,.0L.0,643.9L120.0,643.9z" fill-rule="nonzero" fill="#ffffff" stroke="#323232"/>
            <text xml:space="preserve" style="fill:#191919;font-family:Microsoft YaHei;font-size:10.00pt">
                <tspan x="55.5" y="289.5">A</tspan>
                <tspan x="27.0" y="308.5">(professor)</tspan>
                <tspan x="24.5" y="346.5">(支持 global </tspan>
                <tspan x="35.5" y="365.5">cooling)</tspan>
            </text>
        </g>
        <g id="shape2" transform="translate(661.00,140.14)">
            <path d="M120.0,643.9L120.0,.0L.0,.0L.0,643.9L120.0,643.9z" fill-rule="nonzero" fill="#ffffff" stroke="#323232"/>
            <text xml:space="preserve" style="fill:#191919;font-family:Microsoft YaHei;font-size:10.00pt">
                <tspan x="56.0" y="291.5">B</tspan>
                <tspan x="21.5" y="310.5">(Young lady)</tspan>
                <tspan x="24.5" y="344.5">(支持 global </tspan>
                <tspan x="31.5" y="363.5">warming)</tspan>
            </text>
        </g>
        <g id="shape3" transform="translate(378.00,208.00)">
            <path d="M.0,.0L249.0,.0" fill="none" stroke="#191919"/>
            <path d="M249.0,-3.0L255.0,.0L249.0,3.0L249.0,-3.0" stroke-linecap="round" fill="#191919" stroke-width="1" stroke="#191919"/>
            <rect x="59.5" height="19.0" width="131.0" fill="#ffffff" y="-66.5"/>
            <rect x="65.5" height="19.0" width="119.0" fill="#ffffff" y="-47.5"/>
            <rect x="47.5" height="19.0" width="155.0" fill="#ffffff" y="-28.5"/>
            <rect x="55.5" height="19.0" width="139.0" fill="#ffffff" y="9.5"/>
            <rect x="56.5" height="19.0" width="137.0" fill="#ffffff" y="28.5"/>
            <rect x="46.5" height="19.0" width="157.0" fill="#ffffff" y="47.5"/>
            <text xml:space="preserve" style="fill:#191919;font-family:Microsoft YaHei;font-size:10.00pt">
                <tspan x="59.5" y="-51.5">global warming is the</tspan>
                <tspan x="65.5" y="-32.5">greatest deception </tspan>
                <tspan x="47.5" y="-13.5">of the early 21st century.</tspan>
                <tspan x="55.5" y="24.5">there's more evidence </tspan>
                <tspan x="56.5" y="43.5">in the scientific record</tspan>
                <tspan x="46.5" y="62.5">supporting global cooling</tspan>
            </text>
        </g>
        <g id="shape4" transform="translate(638.00,321.00)">
            <path d="M.0,.0L-254.0,.0" fill="none" stroke="#191919"/>
            <path d="M-254.0,3.0L-260.0,.0L-254.0,-3.0L-254.0,3.0" stroke-linecap="round" fill="#191919" stroke-width="1" stroke="#191919"/>
            <rect x="-222.7" height="19.0" width="196.0" fill="#ffffff" y="-19.0"/>
            <rect x="-187.2" height="19.0" width="125.0" fill="#ffffff" y="0.0"/>
            <text xml:space="preserve" style="fill:#191919;font-family:Microsoft YaHei;font-size:10.00pt">
                <tspan x="-222.7" y="-4.0">what explains the rapid melting </tspan>
                <tspan x="-187.2" y="15.0">of the polar ice caps</tspan>
            </text>
        </g>
        <g id="shape5" transform="translate(378.00,397.00)">
            <path d="M.0,.0L249.0,.0" fill="none" stroke="#191919"/>
            <path d="M249.0,-3.0L255.0,.0L249.0,3.0L249.0,-3.0" stroke-linecap="round" fill="#191919" stroke-width="1" stroke="#191919"/>
            <rect x="54.5" height="19.0" width="141.0" fill="#ffffff" y="-28.5"/>
            <rect x="42.0" height="19.0" width="166.0" fill="#ffffff" y="-9.5"/>
            <rect x="104.5" height="19.0" width="41.0" fill="#ffffff" y="9.5"/>
            <text xml:space="preserve" style="fill:#191919;font-family:Microsoft YaHei;font-size:10.00pt">
                <tspan x="54.5" y="-13.5">If you look at the data </tspan>
                <tspan x="42.0" y="5.5">from nineteen seventy-five</tspan>
                <tspan x="104.5" y="24.5">you'll...</tspan>
            </text>
        </g>
        <g id="shape6" transform="translate(638.00,472.00)">
            <path d="M.0,.0L-254.0,.0" fill="none" stroke="#191919"/>
            <path d="M-254.0,3.0L-260.0,.0L-254.0,-3.0L-254.0,3.0" stroke-linecap="round" fill="#191919" stroke-width="1" stroke="#191919"/>
            <rect x="-215.7" height="19.0" width="182.0" fill="#ffffff" y="-19.0"/>
            <rect x="-190.2" height="19.0" width="131.0" fill="#ffffff" y="0.0"/>
            <text xml:space="preserve" style="fill:#191919;font-family:Microsoft YaHei;font-size:10.00pt">
                <tspan x="-215.7" y="-4.0">you would look at the record </tspan>
                <tspan x="-190.2" y="15.0">starting in the 1880s.</tspan>
            </text>
        </g>
        <g id="shape7" transform="translate(378.00,567.00)">
            <path d="M.0,.0L249.0,.0" fill="none" stroke="#191919"/>
            <path d="M249.0,-3.0L255.0,.0L249.0,3.0L249.0,-3.0" stroke-linecap="round" fill="#191919" stroke-width="1" stroke="#191919"/>
            <rect x="71.5" height="19.0" width="107.0" fill="#ffffff" y="-47.5"/>
            <rect x="81.0" height="19.0" width="88.0" fill="#ffffff" y="-28.5"/>
            <rect x="46.5" height="19.0" width="157.0" fill="#ffffff" y="-9.5"/>
            <rect x="83.0" height="19.0" width="84.0" fill="#ffffff" y="9.5"/>
            <rect x="33.5" height="19.0" width="183.0" fill="#ffffff" y="28.5"/>
            <text xml:space="preserve" style="fill:#191919;font-family:Microsoft YaHei;font-size:10.00pt">
                <tspan x="71.5" y="-32.5">there is evidence </tspan>
                <tspan x="81.0" y="-13.5">for both sides.</tspan>
                <tspan x="46.5" y="5.5">there’s greater evidence</tspan>
                <tspan x="83.0" y="24.5">in support of </tspan>
                <tspan x="33.5" y="43.5">the global cooling hypothesis.</tspan>
            </text>
        </g>
        <g id="shape8" transform="translate(638.00,671.00)">
            <path d="M.0,.0L-254.0,.0" fill="none" stroke="#191919"/>
            <path d="M-254.0,3.0L-260.0,.0L-254.0,-3.0L-254.0,3.0" stroke-linecap="round" fill="#191919" stroke-width="1" stroke="#191919"/>
            <rect x="-176.2" height="19.0" width="103.0" fill="#ffffff" y="-28.5"/>
            <rect x="-206.7" height="19.0" width="164.0" fill="#ffffff" y="-9.5"/>
            <rect x="-154.2" height="19.0" width="59.0" fill="#ffffff" y="9.5"/>
            <text xml:space="preserve" style="fill:#e54648;font-family:Microsoft YaHei;font-size:10.00pt">
                <tspan x="-176.2" y="-13.5">Everyone knows </tspan>
                <tspan x="-206.7" y="5.5">you're in the pocket of the</tspan>
                <tspan x="-154.2" y="24.5">oil lobby. </tspan>
            </text>
        </g>
        <g id="shape9" transform="translate(378.00,742.00)">
            <path d="M.0,.0L244.0,.0" fill="none" stroke="#191919"/>
            <path d="M244.0,-3.0L250.0,.0L244.0,3.0L244.0,-3.0" stroke-linecap="round" fill="#191919" stroke-width="1" stroke="#191919"/>
            <rect x="88.6" height="19.0" width="110.0" fill="#ffffff" y="-19.0"/>
            <rect x="61.1" height="19.0" width="165.0" fill="#ffffff" y="0.0"/>
            <text xml:space="preserve" style="fill:#191919;font-family:Microsoft YaHei;font-size:10.00pt">
                <tspan x="88.6" y="-4.0">Some people just </tspan>
                <tspan x="61.1" y="15.0">cannot handle civil debate!</tspan>
            </text>
        </g>
    </g>
</svg>
