<svg xmlns="http://www.w3.org/2000/svg" height="443" viewBox="0 0 758 443" width="758" xmlns:xlink="http://www.w3.org/1999/xlink">
    <defs/>
    <g transform="translate(-339.00,-85.00)">
        <g id="shape1" transform="translate(340.00,176.00)">
            <path fill-rule="nonzero" stroke="#323232" fill="#d0d9f1" d="M222.6,37.0L222.6,.0L.0,.0L.0,37.0L222.6,37.0z"/>
            <text xml:space="preserve" style="fill:#191919;font-family:Microsoft YaHei;font-size:10.00pt">
                <tspan y="24.0" x="76.3">A (Armand)</tspan>
            </text>
        </g>
        <g id="shape2" transform="translate(608.91,176.00)">
            <path fill-rule="nonzero" stroke="#323232" fill="#ffffff" d="M222.6,37.0L222.6,.0L.0,.0L.0,37.0L222.6,37.0z"/>
            <text xml:space="preserve" style="fill:#191919;font-family:Microsoft YaHei;font-size:10.00pt">
                <tspan y="24.0" x="87.3">B (Ellen)</tspan>
            </text>
        </g>
        <g id="shape3" transform="translate(873.41,176.00)">
            <path fill-rule="nonzero" stroke="#323232" fill="#d0d9f1" d="M222.6,37.0L222.6,.0L.0,.0L.0,37.0L222.6,37.0z"/>
            <text xml:space="preserve" style="fill:#191919;font-family:Microsoft YaHei;font-size:10.00pt">
                <tspan y="24.0" x="106.8">C</tspan>
            </text>
        </g>
        <g id="shape4" transform="translate(340.00,246.00)">
            <path fill-rule="nonzero" stroke="#323232" fill="#ffffff" d="M222.6,65.0L222.6,.0L.0,.0L.0,65.0L222.6,65.0z"/>
            <text xml:space="preserve" style="fill:#191919;font-family:Microsoft YaHei;font-size:10.00pt">
                <tspan y="28.5" x="10.8">Please make yourselves at home.</tspan>
                <tspan y="47.5" x="6.3"> I hope you brought your appetite</tspan>
            </text>
        </g>
        <g id="shape5" transform="translate(608.91,246.00)">
            <path fill-rule="nonzero" stroke="#323232" fill="#ffffff" d="M222.6,65.0L222.6,.0L.0,.0L.0,65.0L222.6,65.0z"/>
            <text xml:space="preserve" style="fill:#191919;font-family:Microsoft YaHei;font-size:10.00pt">
                <tspan y="28.5" x="32.8">Your house is lovely, Very </tspan>
                <tspan y="47.5" x="12.8">interesting decor …very…Gothic</tspan>
            </text>
        </g>
        <g id="shape6" transform="translate(340.00,340.00)">
            <path fill-rule="nonzero" stroke="#323232" fill="#ffffff" d="M222.6,65.0L222.6,.0L.0,.0L.0,65.0L222.6,65.0z"/>
            <text xml:space="preserve" style="fill:#191919;font-family:Microsoft YaHei;font-size:10.00pt">
                <tspan y="28.5" x="14.8">Can I offer you a glass of wine?</tspan>
                <tspan y="47.5" x="47.3">A very special merlot</tspan>
            </text>
        </g>
        <g id="shape7" transform="translate(608.91,340.00)">
            <path fill-rule="nonzero" stroke="#323232" fill="#ffffff" d="M222.6,65.0L222.6,.0L.0,.0L.0,65.0L222.6,65.0z"/>
            <text xml:space="preserve" style="fill:#191919;font-family:Microsoft YaHei;font-size:10.00pt">
                <tspan y="28.5" x="16.3"> It’s a bit bitter for my taste… </tspan>
                <tspan y="47.5" x="53.3">almost tastes like…</tspan>
            </text>
        </g>
        <g id="shape8" transform="translate(873.41,340.00)">
            <path fill-rule="nonzero" stroke="#323232" fill="#ffffff" d="M222.6,65.0L222.6,.0L.0,.0L.0,65.0L222.6,65.0z"/>
            <text xml:space="preserve" style="fill:#191919;font-family:Microsoft YaHei;font-size:10.00pt">
                <tspan y="38.0" x="67.3"> it’s delicious</tspan>
            </text>
        </g>
        <g id="shape9" transform="translate(608.91,426.00)">
            <path fill-rule="nonzero" stroke="#323232" fill="#fedad0" d="M222.6,65.0L222.6,.0L.0,.0L.0,65.0L222.6,65.0z"/>
            <text xml:space="preserve" style="fill:#191919;font-family:Microsoft YaHei;font-size:10.00pt">
                <tspan y="38.0" x="83.3"> pass out</tspan>
            </text>
        </g>
        <g id="shape10" transform="translate(873.41,426.00)">
            <path fill-rule="nonzero" stroke="#323232" fill="#ffffff" d="M222.6,65.0L222.6,.0L.0,.0L.0,65.0L222.6,65.0z"/>
            <text xml:space="preserve" style="fill:#191919;font-family:Microsoft YaHei;font-size:10.00pt">
                <tspan y="38.0" x="94.3"> Yeah</tspan>
            </text>
        </g>
        <g id="shape11" transform="translate(340.00,426.00)">
            <path fill-rule="nonzero" stroke="#323232" fill="#ffffff" d="M222.6,65.0L222.6,.0L.0,.0L.0,65.0L222.6,65.0z"/>
            <text xml:space="preserve" style="fill:#191919;font-family:Microsoft YaHei;font-size:10.00pt">
                <tspan y="19.0" x="20.3"> I hope that you (指C) didn’t </tspan>
                <tspan y="38.0" x="27.3">poison her drink too much! </tspan>
                <tspan y="57.0" x="44.8">You’ll ruin our meal!</tspan>
            </text>
        </g>
        <g id="shape12" transform="translate(562.59,278.50)">
            <path stroke="#191919" fill="none" d="M.0,.0L40.3,.0"/>
            <path stroke-width="1" stroke-linecap="round" stroke="#191919" fill="#191919" d="M40.3,-3.0L46.3,.0L40.3,3.0L40.3,-3.0"/>
        </g>
        <g id="shape13" transform="translate(562.59,372.50)">
            <path stroke="#191919" fill="none" d="M.0,.0L40.3,.0"/>
            <path stroke-width="1" stroke-linecap="round" stroke="#191919" fill="#191919" d="M40.3,-3.0L46.3,.0L40.3,3.0L40.3,-3.0"/>
        </g>
        <g id="shape14" transform="translate(873.41,458.50)">
            <path stroke="#191919" fill="none" d="M.0,.0L-35.9,.0"/>
            <path stroke-width="1" stroke-linecap="round" stroke="#191919" fill="#191919" d="M-35.9,3.0L-41.9,.0L-35.9,-3.0L-35.9,3.0"/>
        </g>
        <g id="shape15" transform="translate(451.30,491.00)">
            <path stroke="#191919" fill="none" d="M.0,.0L.0,32.0L533.4,32.0L533.4,6.0"/>
            <path stroke-width="1" stroke-linecap="round" stroke="#191919" fill="#191919" d="M530.4,6.0L533.4,.0L536.4,6.0L530.4,6.0"/>
        </g>
        <g id="shape16" transform="translate(608.91,86.00)">
            <text xml:space="preserve" style="fill:#191919;font-family:Microsoft YaHei;font-size:10.00pt">
                <tspan y="23.0" x="68.3">C与A是一伙的, </tspan>
                <tspan y="42.0" x="37.3">C把B骗进来, 让A把B灌醉,</tspan>
                <tspan y="61.0" x="52.8">让后C与A就能吃掉B</tspan>
            </text>
        </g>
    </g>
</svg>
