<svg xmlns="http://www.w3.org/2000/svg" height="404" width="1026" viewBox="0 0 1026 404" xmlns:xlink="http://www.w3.org/1999/xlink">
    <defs/>
    <g transform="translate(-48.51,-348.35)">
        <g transform="translate(482.76,349.85)" id="shape1">
            <path d="M.0,.0L157.0,.0L157.0,94.0L.0,94.0L.0,.0z" stroke-width="3" fill="#3f5cb8" fill-rule="nonzero" stroke="#3f5cb8"/>
            <text style="fill:#ffffff;font-family:Microsoft YaHei;font-size:10.00pt" xml:space="preserve">
                <tspan y="33.5" x="41.3">战争胜败结果</tspan>
                <tspan y="52.5" x="67.3">算法</tspan>
                <tspan y="71.5" x="25.8">(用MECE原则来切)</tspan>
            </text>
        </g>
        <g transform="translate(267.76,503.85)" id="shape2">
            <path d="M.0,.0L107.0,.0L107.0,59.0L.0,59.0L.0,.0z" fill="#eaebf1" fill-rule="nonzero" stroke="#eaebf1"/>
            <text style="fill:#303030;font-family:Microsoft YaHei;font-size:10.00pt" xml:space="preserve">
                <tspan y="25.5" x="22.8">统帅的能力</tspan>
                <tspan y="44.5" x="42.3">算法</tspan>
            </text>
        </g>
        <g transform="translate(127.76,607.85)" id="shape3">
            <path d="M.0,.0L76.0,.0L76.0,49.0L.0,49.0L.0,.0z" fill="none" stroke="#696969"/>
            <text style="fill:#454545;font-family:Microsoft YaHei;font-size:10.00pt" xml:space="preserve">
                <tspan y="20.5" x="13.8">政治能力</tspan>
                <tspan y="39.5" x="26.8">算法</tspan>
            </text>
        </g>
        <g transform="translate(294.51,607.85)" id="shape4">
            <path d="M.0,.0L76.0,.0L76.0,49.0L.0,49.0L.0,.0z" fill="none" stroke="#696969"/>
            <text style="fill:#454545;font-family:Microsoft YaHei;font-size:10.00pt" xml:space="preserve">
                <tspan y="20.5" x="13.8">财政能力</tspan>
                <tspan y="39.5" x="26.8">算法</tspan>
            </text>
        </g>
        <g transform="translate(801.01,503.85)" id="shape5">
            <path d="M.0,.0L94.0,.0L94.0,59.0L.0,59.0L.0,.0z" fill="#eaebf1" fill-rule="nonzero" stroke="#eaebf1"/>
            <text style="fill:#303030;font-family:Microsoft YaHei;font-size:10.00pt" xml:space="preserve">
                <tspan y="25.5" x="22.8">国家实力</tspan>
                <tspan y="44.5" x="35.8">算法</tspan>
            </text>
        </g>
        <g transform="translate(383.01,607.85)" id="shape6">
            <path d="M.0,.0L76.0,.0L76.0,49.0L.0,49.0L.0,.0z" fill="none" stroke="#696969"/>
            <text style="fill:#454545;font-family:Microsoft YaHei;font-size:10.00pt" xml:space="preserve">
                <tspan y="20.5" x="13.8">领导能力</tspan>
                <tspan y="39.5" x="26.8">算法</tspan>
            </text>
        </g>
        <g transform="translate(471.51,607.85)" id="shape7">
            <path d="M.0,.0L76.0,.0L76.0,49.0L.0,49.0L.0,.0z" fill="none" stroke="#696969"/>
            <text style="fill:#454545;font-family:Microsoft YaHei;font-size:10.00pt" xml:space="preserve">
                <tspan y="20.5" x="13.8">战争谋略</tspan>
                <tspan y="39.5" x="26.8">算法</tspan>
            </text>
        </g>
        <g transform="translate(626.76,607.85)" id="shape8">
            <path d="M.0,.0L168.0,.0L168.0,68.0L.0,68.0L.0,.0z" fill="none" stroke="#696969"/>
            <text style="fill:#454545;font-family:Microsoft YaHei;font-size:10.00pt" xml:space="preserve">
                <tspan y="20.5" x="59.8">经济实力</tspan>
                <tspan y="39.5" x="72.8">算法</tspan>
                <tspan y="58.5" x="13.8">GDP公式 = C+I+G+NX</tspan>
            </text>
        </g>
        <g transform="translate(811.01,607.85)" id="shape9">
            <path d="M.0,.0L89.0,.0L89.0,68.0L.0,68.0L.0,.0z" fill="none" stroke="#696969"/>
            <text style="fill:#454545;font-family:Microsoft YaHei;font-size:10.00pt" xml:space="preserve">
                <tspan y="20.5" x="13.8">政治清明度</tspan>
                <tspan y="39.5" x="33.3">算法</tspan>
                <tspan y="58.5" x="19.8">公式 = ...</tspan>
            </text>
        </g>
        <g transform="translate(912.51,607.85)" id="shape10">
            <path d="M.0,.0L115.0,.0L115.0,49.0L.0,49.0L.0,.0z" fill="none" stroke="#696969"/>
            <text style="fill:#454545;font-family:Microsoft YaHei;font-size:10.00pt" xml:space="preserve">
                <tspan y="20.5" x="13.8">政治人事凝聚力</tspan>
                <tspan y="39.5" x="46.3">算法</tspan>
            </text>
        </g>
        <g transform="translate(623.01,720.85)" id="shape11">
            <path d="M.0,.0L33.0,.0L33.0,30.0L.0,30.0L.0,.0z" fill="none" stroke="#696969"/>
            <text style="fill:#454545;font-family:Microsoft YaHei;font-size:10.00pt" xml:space="preserve">
                <tspan y="20.5" x="13.8">C</tspan>
            </text>
        </g>
        <g transform="translate(1040.01,607.85)" id="shape12">
            <path d="M.0,.0L33.0,.0L33.0,30.0L.0,30.0L.0,.0z" fill="none" stroke="#696969"/>
            <text style="fill:#454545;font-family:Microsoft YaHei;font-size:10.00pt" xml:space="preserve">
                <tspan y="20.5" x="13.8">...</tspan>
            </text>
        </g>
        <g transform="translate(560.01,607.85)" id="shape13">
            <path d="M.0,.0L33.0,.0L33.0,30.0L.0,30.0L.0,.0z" fill="none" stroke="#696969"/>
            <text style="fill:#454545;font-family:Microsoft YaHei;font-size:10.00pt" xml:space="preserve">
                <tspan y="20.5" x="13.8">...</tspan>
            </text>
        </g>
        <g transform="translate(49.51,701.85)" id="shape14">
            <path d="M.0,.0L89.0,.0L89.0,30.0L.0,30.0L.0,.0z" fill="none" stroke="#696969"/>
            <text style="fill:#454545;font-family:Microsoft YaHei;font-size:10.00pt" xml:space="preserve">
                <tspan y="20.5" x="13.8">人性理解度</tspan>
            </text>
        </g>
        <g transform="translate(151.01,701.85)" id="shape15">
            <path d="M.0,.0L131.0,.0L131.0,30.0L.0,30.0L.0,.0z" fill="none" stroke="#696969"/>
            <text style="fill:#454545;font-family:Microsoft YaHei;font-size:10.00pt" xml:space="preserve">
                <tspan y="20.5" x="13.8">纵横捭阖,外交能力</tspan>
            </text>
        </g>
        <g transform="translate(668.51,720.85)" id="shape16">
            <path d="M.0,.0L28.0,.0L28.0,30.0L.0,30.0L.0,.0z" fill="none" stroke="#696969"/>
            <text style="fill:#454545;font-family:Microsoft YaHei;font-size:10.00pt" xml:space="preserve">
                <tspan y="20.5" x="13.8">I</tspan>
            </text>
        </g>
        <g transform="translate(709.01,720.85)" id="shape17">
            <path d="M.0,.0L34.0,.0L34.0,30.0L.0,30.0L.0,.0z" fill="none" stroke="#696969"/>
            <text style="fill:#454545;font-family:Microsoft YaHei;font-size:10.00pt" xml:space="preserve">
                <tspan y="20.5" x="13.8">G</tspan>
            </text>
        </g>
        <g transform="translate(755.51,720.85)" id="shape18">
            <path d="M.0,.0L43.0,.0L43.0,30.0L.0,30.0L.0,.0z" fill="none" stroke="#696969"/>
            <text style="fill:#454545;font-family:Microsoft YaHei;font-size:10.00pt" xml:space="preserve">
                <tspan y="20.5" x="13.8">NX</tspan>
            </text>
        </g>
    </g>
</svg>
