<svg xmlns="http://www.w3.org/2000/svg" viewBox="0 0 301.92 88.74"><defs><style>.cls-1,.cls-11,.cls-13,.cls-14,.cls-15,.cls-3,.cls-4{fill:none;stroke-miterlimit:10;}.cls-1,.cls-11,.cls-13{stroke:#231815;}.cls-1,.cls-3,.cls-4{stroke-width:0.5px;}.cls-12,.cls-2,.cls-6{fill:#231815;}.cls-15,.cls-3,.cls-4{stroke:#c30d23;}.cls-4{stroke-dasharray:1.95 1.95;}.cls-5,.cls-8{fill:#c30d23;}.cls-6,.cls-7,.cls-8{font-size:6px;}.cls-6{font-family:MicrosoftYaHeiLight, Microsoft YaHei;}.cls-10,.cls-7{fill:#094;}.cls-7,.cls-8{font-family:MicrosoftYaHei-Bold, Microsoft YaHei;font-weight:700;}.cls-9{letter-spacing:0em;}.cls-11{stroke-width:0.75px;}.cls-12{font-size:60.16px;font-family:Old-Newspapers-Sung, Old Newspapers Sung;}.cls-13{stroke-width:0.25px;}.cls-14{stroke:#094;}.cls-14,.cls-15{stroke-width:2px;}</style></defs><title>资源 2</title><g id="图层_2" data-name="图层 2"><g id="图层_1-2" data-name="图层 1"><line class="cls-1" y1="51.83" x2="177.35" y2="51.83"/><polygon class="cls-2" points="180.88 51.83 175.91 53.86 177.09 51.83 175.91 49.79 180.88 51.83"/><line class="cls-1" x1="37.53" y1="88.74" x2="37.53" y2="34.12"/><polygon class="cls-2" points="37.53 30.59 39.56 35.56 37.53 34.38 35.5 35.56 37.53 30.59"/><line class="cls-3" x1="174.48" y1="42.72" x2="173.48" y2="42.72"/><line class="cls-4" x1="171.53" y1="42.72" x2="121.83" y2="42.72"/><line class="cls-3" x1="120.86" y1="42.72" x2="119.86" y2="42.72"/><polygon class="cls-5" points="116.33 42.72 121.3 40.69 120.12 42.72 121.3 44.75 116.33 42.72"/><text class="cls-6" transform="translate(28.99 26.28)">极限 a</text><text class="cls-6" transform="translate(55.03 79.96)">距离 = ξ - a</text><text class="cls-7" transform="translate(102.9 40.25)">ξ</text><text class="cls-6" transform="translate(72.79 44.56)">itme = n</text><text class="cls-8" transform="translate(79.41 35.74)">x(n)</text><text class="cls-8" transform="translate(128.37 30.74)">x数列的i<tspan class="cls-9" x="23.29" y="0">t</tspan><tspan x="25.74" y="0">em项, 不断增加, 注意方向是朝左的</tspan><tspan x="0" y="7.2">即 x数列中速度数在不断缩小</tspan></text><text class="cls-8" transform="translate(112.4 5.16)">x的第n项, 所在位置, 离极限a 所在的距离.<tspan x="0" y="9">肯定是 小于 ξ-a 的这段距离的. </tspan><tspan class="cls-10" x="84.02" y="9">即红线段距离, 肯定是小于绿线段距离的</tspan></text><line class="cls-11" x1="104.78" y1="44.56" x2="104.78" y2="59.66"/><text class="cls-12" transform="translate(89.03 73.77) rotate(-90)">{</text><circle class="cls-5" cx="85.48" cy="51.36" r="2.39"/><circle class="cls-2" cx="116.91" cy="51.36" r="2.39"/><circle class="cls-2" cx="130.76" cy="51.36" r="2.39"/><circle class="cls-2" cx="143.01" cy="51.36" r="2.39"/><path class="cls-13" d="M109.51,11.47s-16.21-1-24.57,15.68"/><polygon class="cls-2" points="84.19 28.75 84.4 26.07 85.04 27.05 86.22 26.98 84.19 28.75"/><line class="cls-14" x1="37.53" y1="56.32" x2="104.78" y2="56.32"/><line class="cls-15" x1="37.53" y1="48.97" x2="85.48" y2="48.97"/></g></g></svg>