<svg xmlns="http://www.w3.org/2000/svg" viewBox="0 0 183.64 198.61"><defs><style>.cls-1,.cls-3,.cls-4,.cls-5,.cls-6,.cls-7,.cls-8{fill:none;stroke-miterlimit:10;}.cls-1,.cls-3,.cls-4,.cls-5,.cls-6{stroke:#231815;}.cls-1,.cls-3,.cls-4,.cls-5,.cls-6,.cls-8{stroke-width:0.5px;}.cls-10,.cls-12,.cls-13,.cls-2{fill:#231815;}.cls-3{stroke-dasharray:1.98 1.98;}.cls-4{stroke-dasharray:1.97 1.97;}.cls-5{stroke-dasharray:1.96 1.96;}.cls-6{stroke-dasharray:1.93 1.93;}.cls-7{stroke:#094;stroke-width:0.75px;}.cls-8{stroke:#c30d23;}.cls-10,.cls-11,.cls-9{font-size:5px;}.cls-9{fill:#094;}.cls-10,.cls-11,.cls-12,.cls-13,.cls-9{font-family:MicrosoftYaHeiLight, Microsoft YaHei;}.cls-11{fill:#c30d23;}.cls-12{font-size:18.82px;}.cls-13{font-size:7.68px;}</style></defs><title>资源 2</title><g id="图层_2" data-name="图层 2"><g id="图层_1-2" data-name="图层 1"><line class="cls-1" x1="48.03" y1="198.61" x2="48.03" y2="3.53"/><polygon class="cls-2" points="48.03 0 50.07 4.97 48.03 3.79 46 4.97 48.03 0"/><line class="cls-1" x1="1.5" y1="135.61" x2="180.11" y2="135.61"/><polygon class="cls-2" points="183.64 135.61 178.66 137.64 179.85 135.61 178.66 133.57 183.64 135.61"/><path class="cls-1" d="M28.21,190A210.6,210.6,0,0,0,84.5,149.61c57-57.33,61.4-127.27,62-143.33"/><circle class="cls-1" cx="129.96" cy="81.16" r="2.54"/><line class="cls-1" x1="49.84" y1="60.9" x2="50.84" y2="60.9"/><line class="cls-3" x1="52.82" y1="60.9" x2="135.14" y2="60.9"/><polyline class="cls-1" points="136.13 60.9 137.13 60.9 137.13 61.9"/><line class="cls-4" x1="137.14" y1="63.87" x2="137.14" y2="133.62"/><line class="cls-1" x1="137.14" y1="134.61" x2="137.14" y2="135.61"/><line class="cls-1" x1="48.03" y1="96.95" x2="49.03" y2="96.95"/><line class="cls-5" x1="51" y1="96.95" x2="120.66" y2="96.95"/><polyline class="cls-1" points="121.64 96.95 122.64 96.95 122.64 97.95"/><line class="cls-6" x1="122.64" y1="99.88" x2="122.64" y2="133.64"/><line class="cls-1" x1="122.64" y1="134.61" x2="122.64" y2="135.61"/><polyline class="cls-7" points="48.03 81.16 129.96 81.16 129.96 135.61"/><polyline class="cls-8" points="48.03 70.93 133.67 70.93 133.67 135.61"/><text class="cls-9" transform="translate(32.81 84.61)">极限A</text><text class="cls-10" transform="translate(52.47 57.98)">A+ε</text><text class="cls-9" transform="translate(128.56 141.11)">x</text><text class="cls-9" transform="translate(130.83 142.78) scale(0.58)">0</text><text class="cls-11" transform="translate(133.28 140.61)">X</text><text class="cls-11" transform="translate(50.51 69.61)">Y</text><text class="cls-10" transform="translate(110.23 133.11)">x</text><text class="cls-10" transform="translate(112.51 134.78) scale(0.58)">0</text><text class="cls-10" transform="translate(114.13 133.11)">-δ</text><text class="cls-10" transform="translate(123.84 142.86)">δ</text><text class="cls-10" transform="translate(138.49 133.11)">x</text><text class="cls-10" transform="translate(140.76 134.78) scale(0.58)">0</text><text class="cls-10" transform="translate(142.38 133.11)">+δ</text><text class="cls-10" transform="translate(52.15 93.48)">A-ε</text><text class="cls-10" transform="translate(0 72.86)">任意小的数 ε=0.1</text><text class="cls-12" transform="translate(40.21 76.23)">{</text><text class="cls-13" transform="translate(128.39 138.19) rotate(-90)">{</text></g></g></svg>