<svg xmlns="http://www.w3.org/2000/svg" viewBox="0 0 182.14 201.75"><defs><style>.cls-1,.cls-3,.cls-4,.cls-5,.cls-6,.cls-7,.cls-8{fill:none;}.cls-1,.cls-3,.cls-4,.cls-5,.cls-6{stroke:#231815;}.cls-1,.cls-12,.cls-3,.cls-4,.cls-5,.cls-6,.cls-7,.cls-8{stroke-miterlimit:10;}.cls-1,.cls-3,.cls-4,.cls-5,.cls-6,.cls-8{stroke-width:0.5px;}.cls-10,.cls-13,.cls-14,.cls-2{fill:#231815;}.cls-3{stroke-dasharray:1.96 1.96;}.cls-4{stroke-dasharray:2.03 2.03;}.cls-5{stroke-dasharray:1.99 1.99;}.cls-6{stroke-dasharray:2.03 2.03;}.cls-12,.cls-7{stroke:#094;}.cls-7{stroke-width:0.75px;}.cls-8{stroke:#c30d23;}.cls-10,.cls-11,.cls-9{font-size:5px;font-family:MicrosoftYaHeiLight, Microsoft YaHei;}.cls-9{fill:#094;}.cls-11{fill:#c30d23;}.cls-12{fill:#fff;}.cls-13{font-size:14.4px;}.cls-13,.cls-14{font-family:AdobeSongStd-Light-GBpc-EUC-H, Adobe Song Std;}.cls-14{font-size:8.11px;}</style></defs><title>资源 5</title><g id="图层_2" data-name="图层 2"><g id="图层_1-2" data-name="图层 1"><line class="cls-1" x1="46.53" y1="198.61" x2="46.53" y2="3.53"/><polygon class="cls-2" points="46.53 0 48.56 4.97 46.53 3.79 44.5 4.97 46.53 0"/><line class="cls-1" y1="135.61" x2="178.61" y2="135.61"/><polygon class="cls-2" points="182.14 135.61 177.16 137.64 178.34 135.61 177.16 133.57 182.14 135.61"/><line class="cls-1" x1="46.53" y1="30.28" x2="47.53" y2="30.28"/><line class="cls-3" x1="49.49" y1="30.28" x2="134.69" y2="30.28"/><polyline class="cls-1" points="135.67 30.28 136.67 30.28 136.67 31.28"/><line class="cls-4" x1="136.67" y1="33.3" x2="136.67" y2="133.59"/><line class="cls-1" x1="136.67" y1="134.61" x2="136.67" y2="135.61"/><line class="cls-1" x1="46.53" y1="82.94" x2="47.53" y2="82.94"/><line class="cls-5" x1="49.52" y1="82.94" x2="100.32" y2="82.94"/><polyline class="cls-1" points="101.31 82.94 102.31 82.94 102.31 83.94"/><line class="cls-6" x1="102.31" y1="85.97" x2="102.31" y2="133.59"/><line class="cls-1" x1="102.31" y1="134.61" x2="102.31" y2="135.61"/><polyline class="cls-7" points="46.53 57.98 118.9 57.98 118.9 135.61"/><polyline class="cls-8" points="46.53 43.89 128 43.89 128 135.61"/><text class="cls-9" transform="translate(25.8 60)">极限值A</text><text class="cls-10" transform="translate(34.7 31.94)">A+ε</text><text class="cls-10" transform="translate(138.98 18.61)">y = 2x-1</text><text class="cls-9" transform="translate(117.05 142.4)">x</text><text class="cls-9" transform="translate(119.33 144.07) scale(0.58)">0</text><text class="cls-11" transform="translate(31.62 45.28)">y=f(x)</text><text class="cls-10" transform="translate(52.34 53.46)">=f(x) - A</text><text class="cls-11" transform="translate(126.86 143.24)">x</text><text class="cls-10" transform="translate(119.42 130.74)">=x-x0</text><text class="cls-10" transform="translate(97.73 142.4)">x</text><text class="cls-10" transform="translate(100 144.07) scale(0.58)">0</text><text class="cls-10" transform="translate(101.62 142.4)">-δ</text><text class="cls-10" transform="translate(135.65 142.4)">x</text><text class="cls-10" transform="translate(137.93 144.07) scale(0.58)">0</text><text class="cls-10" transform="translate(139.55 142.4)">+δ</text><text class="cls-10" transform="translate(35.38 84.61)">A-ε</text><line class="cls-1" x1="27.33" y1="201.61" x2="141.67" y2="22.28"/><circle class="cls-12" cx="118.9" cy="57.98" r="2.54"/><text class="cls-13" transform="translate(46.09 55.45)">}</text><text class="cls-14" transform="translate(125.91 135.11) rotate(-90)">}</text></g></g></svg>