<svg xmlns="http://www.w3.org/2000/svg" viewBox="0 0 182.14 198.61"><defs><style>.cls-1,.cls-3{fill:none;stroke-miterlimit:10;}.cls-1{stroke:#231815;stroke-width:0.5px;}.cls-2,.cls-7{fill:#231815;}.cls-3{stroke:#094;stroke-width:0.75px;}.cls-4,.cls-7{font-size:5px;}.cls-4,.cls-5,.cls-6{fill:#094;}.cls-4,.cls-5,.cls-7{font-family:MicrosoftYaHeiLight, Microsoft YaHei;}.cls-5{font-size:7px;}</style></defs><title>资源 6</title><g id="图层_2" data-name="图层 2"><g id="图层_1-2" data-name="图层 1"><line class="cls-1" x1="46.53" y1="198.61" x2="46.53" y2="3.53"/><polygon class="cls-2" points="46.53 0 48.56 4.97 46.53 3.79 44.5 4.97 46.53 0"/><line class="cls-1" y1="135.61" x2="178.61" y2="135.61"/><polygon class="cls-2" points="182.14 135.61 177.16 137.64 178.34 135.61 177.16 133.57 182.14 135.61"/><polyline class="cls-3" points="46.53 57.98 118.9 57.98 118.9 135.61"/><text class="cls-4" transform="translate(23.8 60.52)">极限值A</text><text class="cls-5" transform="translate(117.18 144.24)">x</text><text class="cls-5" transform="translate(120.36 146.57) scale(0.58)">0</text><line class="cls-1" x1="36.54" y1="186.46" x2="150.88" y2="7.13"/><circle class="cls-6" cx="118.9" cy="135.61" r="2.54"/><line class="cls-1" x1="90.67" y1="143.4" x2="109.14" y2="143.4"/><polygon class="cls-2" points="112.67 143.4 107.69 145.44 108.87 143.4 107.69 141.37 112.67 143.4"/><line class="cls-1" x1="149.33" y1="143.4" x2="130.86" y2="143.4"/><polygon class="cls-2" points="127.33 143.4 132.31 141.37 131.13 143.4 132.31 145.44 127.33 143.4"/><text class="cls-7" transform="translate(94.17 153.28)">左极限</text><text class="cls-7" transform="translate(130.83 153.28)">右极限</text></g></g></svg>