<svg xmlns="http://www.w3.org/2000/svg" viewBox="0 0 358.8 135.9"><defs><style>.cls-1,.cls-10,.cls-11,.cls-3,.cls-8,.cls-9{fill:none;stroke-miterlimit:10;stroke-width:0.5px;}.cls-1{stroke:#231815;}.cls-2,.cls-4{fill:#231815;}.cls-3{stroke:#c30d23;}.cls-4,.cls-5,.cls-6,.cls-7{font-size:8px;font-family:MicrosoftYaHeiLight, Microsoft YaHei;}.cls-5{fill:#036eb8;}.cls-6{fill:#094;}.cls-7{fill:#c30d23;}.cls-8,.cls-9{stroke:#094;}.cls-9{stroke-dasharray:1.98 1.98;}.cls-10,.cls-11{stroke:#036eb8;}.cls-11{stroke-dasharray:2 2;}</style></defs><g id="图层_2" data-name="图层 2"><g id="图层_1-2" data-name="图层 1"><line class="cls-1" x1="43.53" y1="129.94" x2="43.53" y2="3.53"/><polygon class="cls-2" points="43.53 0 45.56 4.97 43.53 3.79 41.5 4.97 43.53 0"/><line class="cls-1" x1="3.33" y1="105.94" x2="271" y2="105.94"/><polygon class="cls-2" points="274.53 105.94 269.56 107.97 270.74 105.94 269.56 103.91 274.53 105.94"/><path class="cls-1" d="M13.2,37.94C28,15.77,53.66,4.24,78.2,8.61c18.3,3.26,24.64,18.27,43.66,31.66,32.49,22.87,106.35,21.12,121.67,21.34"/><path class="cls-1" d="M.2,89.27C33.89,132,54.6,138.11,67.53,134.94c22.7-5.57,28.64-41.57,49.33-41.33,17.3.2,22.51,25.46,37.67,23.66,14.88-1.76,16-26.83,42.67-43.33,8.35-5.18,40.94-7.69,46.33-9"/><path class="cls-3" d="M6.86,71.27c33-18.57,55.39-18,70-13.66,23.93,7.1,33.69,26.28,54,22.66,16.1-2.87,17.71-16.29,35.67-17,12.79-.5,16.85,6.12,32.33,3.67,5.82-.92,9.63-2.55,18.67-3.33a249,249,0,0,1,26-.34"/><text class="cls-4" transform="translate(151.39 127.61)">y</text><text class="cls-5" transform="translate(46.98 72.27)">极限 a</text><text class="cls-5" transform="translate(281.16 45.6)">从第n项开始, <tspan x="-28.65" y="12">x数列 就被y和z数列 夹在中间,</tspan><tspan x="-28.73" y="24">所以它们的极限值 一定都趋同</tspan></text><text class="cls-6" transform="translate(213.31 81.85)">第n项, (n &gt; n</text><text class="cls-6" transform="translate(260.25 84.51) scale(0.58)">0</text><text class="cls-6" transform="translate(262.85 81.85)">)</text><text class="cls-4" transform="translate(123.19 34.65)">z</text><text class="cls-6" transform="translate(184.18 114.81)">item = n</text><text class="cls-6" transform="translate(214.95 117.47) scale(0.58)">0</text><text class="cls-7" transform="translate(131.71 74.79)">x</text><line class="cls-8" x1="200.86" y1="34.65" x2="200.86" y2="35.65"/><line class="cls-9" x1="200.86" y1="37.63" x2="200.86" y2="103.95"/><line class="cls-8" x1="200.86" y1="104.94" x2="200.86" y2="105.94"/><line class="cls-10" x1="243.53" y1="63.27" x2="242.53" y2="63.27"/><line class="cls-11" x1="240.53" y1="63.27" x2="45.53" y2="63.27"/><line class="cls-10" x1="44.53" y1="63.27" x2="43.53" y2="63.27"/><path class="cls-2" d="M237.68,88.29c-.09,4.64,2.48,5.39,5,5.39a36.24,36.24,0,0,0,5.54-.57,30.21,30.21,0,0,1,5.51-.63c5.8,0,8.27,3.92,8.27,9v.76h-2.37v-1.14c0-4.32-2.21-5.84-6.13-5.84a30.41,30.41,0,0,0-5.12.58,31.22,31.22,0,0,1-5.12.57c-3.68,0-5.84-1.66-6.58-4.1h-.12c-.74,2.44-3.08,4.13-6.71,4.1a31.22,31.22,0,0,1-5.11-.57,31.47,31.47,0,0,0-5.21-.58c-4.07,0-6.18,1.85-6.18,5.84v1.14H211v-.76c0-5,2.32-9,8.8-9a28.13,28.13,0,0,1,5.35.63,34.07,34.07,0,0,0,5.3.57c2.17,0,5.12-.75,5-5.39Z"/></g></g></svg>