<svg xmlns="http://www.w3.org/2000/svg" viewBox="0 0 182.14 198.61"><defs><style>.cls-1{fill:#dcdddd;}.cls-10,.cls-11,.cls-2,.cls-4,.cls-5,.cls-6,.cls-9{fill:none;stroke-miterlimit:10;}.cls-11,.cls-2{stroke:#231815;}.cls-10,.cls-11,.cls-2,.cls-9{stroke-width:0.5px;}.cls-3,.cls-7,.cls-8{fill:#231815;}.cls-4{stroke:#036eb8;}.cls-4,.cls-5,.cls-6{stroke-width:2px;}.cls-5{stroke:#c30d23;}.cls-6{stroke:#094;}.cls-7,.cls-8{font-size:9px;font-family:MicrosoftYaHeiLight, Microsoft YaHei;}.cls-8{letter-spacing:0em;}.cls-10,.cls-9{stroke:#a2a2a2;}.cls-10,.cls-11{stroke-dasharray:2.02 2.02;}</style></defs><g id="图层_2" data-name="图层 2"><g id="图层_1-2" data-name="图层 1"><path class="cls-1" d="M64.05,131.79,86.67,99.63H46.46C46.52,102.23,47.27,117.76,64.05,131.79Z"/><path class="cls-1" d="M46.71,99.38H86.54l36.54-52c-12.28.65-30.13,3.26-46.44,12C49.22,74,46.88,94.71,46.71,99.38Z"/><line class="cls-2" x1="46.53" y1="198.61" x2="46.53" y2="3.53"/><polygon class="cls-3" points="46.53 0 48.56 4.97 46.53 3.79 44.5 4.97 46.53 0"/><line class="cls-2" y1="99.31" x2="178.61" y2="99.31"/><polygon class="cls-3" points="182.14 99.31 177.16 101.34 178.34 99.31 177.16 97.27 182.14 99.31"/><path class="cls-2" d="M123.65,46.82a126.79,126.79,0,0,1,19.41.45"/><path class="cls-4" d="M46.53,99.31c.07-3.13,1.15-25,30.07-40.48,16.22-8.66,33.92-11.38,47.05-12"/><path class="cls-2" d="M64.13,131.47a72.74,72.74,0,0,0,12.47,8.31c28.53,15.22,61.58,12.08,66.46,11.56"/><path class="cls-5" d="M46.53,99.31c.06,2.59.82,18.13,17.6,32.16"/><line class="cls-2" x1="64.13" y1="131.47" x2="28.44" y2="182.21"/><line class="cls-6" x1="123.65" y1="46.82" x2="64.13" y2="131.47"/><line class="cls-2" x1="143.06" y1="19.22" x2="123.65" y2="46.82"/><text class="cls-7" transform="translate(143.06 11.64)">y=x-4</text><text class="cls-7" transform="translate(127.71 57.93)">(8,4)</text><text class="cls-7" transform="translate(74.17 127.26)">(2,-2)</text><text class="cls-7" transform="translate(149.84 151.96)">y</text><text class="cls-7" transform="translate(154.24 148.96) scale(0.58)">2</text><text class="cls-8" transform="translate(157.16 151.96)">=2x</text><line class="cls-9" x1="64.67" y1="175.88" x2="64.67" y2="174.88"/><line class="cls-10" x1="64.67" y1="172.87" x2="64.67" y2="20.7"/><line class="cls-9" x1="64.67" y1="19.7" x2="64.67" y2="18.7"/><line class="cls-2" x1="12.69" y1="46.65" x2="13.69" y2="46.65"/><line class="cls-11" x1="15.7" y1="46.65" x2="167.87" y2="46.65"/><line class="cls-2" x1="168.88" y1="46.65" x2="169.88" y2="46.65"/><line class="cls-2" x1="12.69" y1="132.11" x2="13.69" y2="132.11"/><line class="cls-11" x1="15.7" y1="132.11" x2="167.87" y2="132.11"/><line class="cls-2" x1="168.88" y1="132.11" x2="169.88" y2="132.11"/><line class="cls-9" x1="123.65" y1="175.88" x2="123.65" y2="174.88"/><line class="cls-10" x1="123.65" y1="172.87" x2="123.65" y2="20.7"/><line class="cls-9" x1="123.65" y1="19.7" x2="123.65" y2="18.7"/></g></g></svg>