<svg xmlns="http://www.w3.org/2000/svg" viewBox="0 0 225.25 61.61"><defs><style>.cls-1{font-size:12px;fill:#231815;font-family:AdobeSongStd-Light-GBpc-EUC-H, Adobe Song Std;}.cls-2,.cls-4,.cls-6{fill:none;stroke-miterlimit:10;stroke-width:0.5px;}.cls-2{stroke:#172a88;}.cls-3{fill:#172a88;}.cls-4{stroke:#7e318e;}.cls-5{fill:#7e318e;}.cls-6{stroke:#094;}.cls-7{fill:#094;}</style></defs><title>资源 11</title><g id="图层_2" data-name="图层 2"><g id="图层_1-2" data-name="图层 1"><text class="cls-1" transform="translate(0 34.56)">z</text><text class="cls-1" transform="translate(41.37 10.56)">u<tspan x="0" y="24">v</tspan><tspan x="0" y="48">w</tspan></text><text class="cls-1" transform="translate(89.14 22.56)">x<tspan x="0" y="24">y</tspan></text><line class="cls-2" x1="11.15" y1="25.1" x2="34.99" y2="11.54"/><polygon class="cls-3" points="38.05 9.8 34.73 14.03 34.76 11.68 32.73 10.49 38.05 9.8"/><line class="cls-4" x1="6.93" y1="39.07" x2="36.66" y2="52.06"/><polygon class="cls-5" points="39.89 53.47 34.52 53.34 36.42 51.95 36.15 49.62 39.89 53.47"/><line class="cls-4" x1="53.16" y1="54.01" x2="80.11" y2="29.21"/><polygon class="cls-5" points="82.71 26.82 80.42 31.69 79.92 29.39 77.67 28.7 82.71 26.82"/><line class="cls-2" x1="53.16" y1="7.21" x2="82.22" y2="19.9"/><polygon class="cls-3" points="85.45 21.31 80.08 21.18 81.97 19.79 81.7 17.45 85.45 21.31"/><line class="cls-6" x1="10.26" y1="32.08" x2="33.63" y2="32.08"/><polygon class="cls-7" points="37.16 32.08 32.18 34.12 33.36 32.08 32.18 30.05 37.16 32.08"/><line class="cls-6" x1="48.73" y1="30.88" x2="81.98" y2="24.53"/><polygon class="cls-7" points="85.45 23.87 80.94 26.8 81.72 24.58 80.18 22.81 85.45 23.87"/><text class="cls-1" transform="translate(130.29 34.56)">z</text><text class="cls-1" transform="translate(171.65 10.56)">u<tspan x="0" y="24">v</tspan><tspan x="0" y="48">w</tspan></text><text class="cls-1" transform="translate(219.43 22.56)">x<tspan x="0" y="24">y</tspan></text><line class="cls-2" x1="141.44" y1="25.1" x2="165.27" y2="11.54"/><polygon class="cls-3" points="168.34 9.8 165.02 14.03 165.04 11.68 163.01 10.49 168.34 9.8"/><line class="cls-4" x1="137.21" y1="39.07" x2="166.94" y2="52.06"/><polygon class="cls-5" points="170.18 53.47 164.81 53.34 166.7 51.95 166.43 49.62 170.18 53.47"/><line class="cls-4" x1="183.45" y1="54.01" x2="210.43" y2="44.36"/><polygon class="cls-5" points="213.76 43.17 209.76 46.76 210.18 44.45 208.39 42.93 213.76 43.17"/><line class="cls-2" x1="183.45" y1="7.21" x2="213.9" y2="35.26"/><polygon class="cls-3" points="216.5 37.66 211.46 35.78 213.71 35.09 214.22 32.79 216.5 37.66"/><line class="cls-6" x1="140.54" y1="32.08" x2="163.91" y2="32.08"/><polygon class="cls-7" points="167.44 32.08 162.47 34.12 163.65 32.08 162.47 30.05 167.44 32.08"/><line class="cls-6" x1="179.02" y1="30.88" x2="213.07" y2="39.37"/><polygon class="cls-7" points="216.5 40.22 211.18 40.99 212.82 39.3 212.16 37.05 216.5 40.22"/></g></g></svg>