<svg xmlns="http://www.w3.org/2000/svg" viewBox="0 0 1031.08 997.69"><defs><style>.cls-1{font-size:124.5px;}.cls-1,.cls-14,.cls-2,.cls-25,.cls-3,.cls-8,.cls-9{fill:#231815;}.cls-1,.cls-14,.cls-15,.cls-16,.cls-17,.cls-18,.cls-19,.cls-2,.cls-20,.cls-21,.cls-22,.cls-25,.cls-26,.cls-27,.cls-28,.cls-29,.cls-3,.cls-30,.cls-31,.cls-32,.cls-33,.cls-34,.cls-35,.cls-36,.cls-8{font-family:AdobeSongStd-Light-GBpc-EUC-H, Adobe Song Std;}.cls-2{font-size:41.82px;}.cls-14,.cls-15,.cls-16,.cls-17,.cls-18,.cls-19,.cls-20,.cls-21,.cls-22,.cls-25,.cls-3{font-size:21px;}.cls-10,.cls-11,.cls-37,.cls-4,.cls-5,.cls-6{fill:none;}.cls-4,.cls-5,.cls-6,.cls-7{stroke:#231815;}.cls-10,.cls-11,.cls-37,.cls-4,.cls-5,.cls-6,.cls-7{stroke-miterlimit:10;}.cls-5{stroke-dasharray:2 2;}.cls-6{stroke-dasharray:1.99 1.99;}.cls-38,.cls-7{fill:#094;}.cls-7{opacity:0.2;}.cls-8{font-size:15.31px;}.cls-10{stroke:#c30d23;}.cls-11{stroke:#601986;}.cls-12,.cls-17,.cls-18,.cls-19,.cls-23,.cls-26,.cls-27,.cls-30,.cls-31,.cls-34{fill:#c30d23;}.cls-13,.cls-20,.cls-21,.cls-22,.cls-32,.cls-33{fill:#601986;}.cls-14,.cls-18,.cls-21{letter-spacing:0em;}.cls-15,.cls-36{fill:#00a0e9;}.cls-16,.cls-35{fill:#ea5514;}.cls-19,.cls-22,.cls-24,.cls-25{letter-spacing:0em;}.cls-23{letter-spacing:0em;}.cls-26,.cls-27,.cls-28,.cls-29{font-size:5.89px;}.cls-27,.cls-29{letter-spacing:0em;}.cls-28,.cls-29{fill:#7e318e;}.cls-30,.cls-31,.cls-32,.cls-33,.cls-34,.cls-35,.cls-36{font-size:10.86px;}.cls-31,.cls-33{letter-spacing:0em;}.cls-34{letter-spacing:0em;}.cls-37{stroke:#094;}</style></defs><title>资源 31</title><g id="图层_2" data-name="图层 2"><g id="图层_1-2" data-name="图层 1"><text class="cls-1" transform="translate(164.95 899.7) scale(0.58)"><tspan xml:space="preserve">[                  ]</tspan></text><text class="cls-2" transform="translate(180 894.32)">∫</text><text class="cls-2" transform="translate(221.82 908.25) scale(0.58)"><tspan xml:space="preserve">              </tspan><tspan x="121.17" y="-47.77" xml:space="preserve">   </tspan></text><text class="cls-2" transform="translate(307.6 894.32)"><tspan xml:space="preserve">f(x,y)  dy</tspan></text><text class="cls-3" transform="translate(0 654.37)">绿色的切片面积, 就是 z函数下方的阴影面积了, 即</text><text class="cls-3" transform="translate(0 835.86)">那么整个体积, 就是在x轴的[a,b]范围上, 把所有的绿色切片的面积, 都加总起来.<tspan x="0" y="32">即</tspan></text><text class="cls-3" transform="translate(745.46 654.37)">← 因为x点已经被固定在x0处了</text><line class="cls-4" x1="293.43" y1="221.53" x2="294.09" y2="222.28"/><line class="cls-5" x1="295.41" y1="223.78" x2="416.32" y2="360.98"/><line class="cls-4" x1="416.99" y1="361.73" x2="417.65" y2="362.48"/><line class="cls-4" x1="213.1" y1="246.18" x2="213.76" y2="246.93"/><line class="cls-6" x1="215.08" y1="248.42" x2="311.63" y2="357.99"/><line class="cls-4" x1="312.29" y1="358.73" x2="312.95" y2="359.48"/><line class="cls-4" x1="395.96" y1="246.18" x2="396.62" y2="246.93"/><line class="cls-6" x1="397.93" y1="248.42" x2="494.48" y2="357.99"/><line class="cls-4" x1="495.14" y1="358.73" x2="495.8" y2="359.48"/><path class="cls-7" d="M297.7,56.51,295.07,225l101.26,112.2L399,168.71S353.86,11.75,297.7,56.51Z"/><text class="cls-8" transform="translate(337.11 367.6) rotate(-90)">{</text><text class="cls-8" transform="translate(323.36 379.93)">dx</text><text class="cls-8" transform="translate(353.89 367.6) rotate(-90)">{</text><text class="cls-8" transform="translate(340.14 379.93)">dx</text><text class="cls-8" transform="translate(370.64 367.6) rotate(-90)">{</text><text class="cls-8" transform="translate(356.89 379.93)">dx</text><text class="cls-8" transform="translate(380.62 332.1) rotate(-45)">{</text><text class="cls-8" transform="translate(359.36 334.29)">dy</text><text class="cls-8" transform="translate(366.17 317.9) rotate(-45)">{</text><text class="cls-8" transform="translate(344.91 320.09)">dy</text><text class="cls-8" transform="translate(353.42 304.65) rotate(-45)">{</text><text class="cls-8" transform="translate(332.16 306.84)">dy</text><line class="cls-4" x1="216.96" y1="359.48" x2="216.96" y2="38.14"/><polygon class="cls-9" points="216.96 31.08 221.02 41.02 216.96 38.66 212.89 41.02 216.96 31.08"/><line class="cls-4" x1="216.96" y1="359.48" x2="108.8" y2="244.62"/><polygon class="cls-9" points="103.96 239.48 113.74 243.94 109.16 245.01 107.82 249.51 103.96 239.48"/><line class="cls-4" x1="216.96" y1="359.48" x2="510.92" y2="359.48"/><path class="cls-9" d="M517,359.48a30.2,30.2,0,0,0-8.55,4.76l1.72-4.76-1.72-4.75A30.18,30.18,0,0,0,517,359.48Z"/><text class="cls-3" transform="translate(527.96 362.48)">x</text><text class="cls-3" transform="translate(89.1 233.48)">y</text><text class="cls-3" transform="translate(214.1 18.48)">z</text><path class="cls-10" d="M282.73,321.67a243.18,243.18,0,0,0,111,13,239.39,239.39,0,0,0,69-19"/><path class="cls-11" d="M383.43,236.18a243.3,243.3,0,0,0-111-13,239.71,239.71,0,0,0-69,19"/><path class="cls-4" d="M282.73,165.52a243.18,243.18,0,0,0,111,13,239.39,239.39,0,0,0,69-19"/><path class="cls-4" d="M399,63.13a243.48,243.48,0,0,0-111-13,239.94,239.94,0,0,0-69,19"/><circle class="cls-12" cx="395.96" cy="334.29" r="4.75"/><circle class="cls-13" cx="293.43" cy="221.53" r="4.75"/><path class="cls-4" d="M203.43,80.78v157l79.3,85.84v-157S246.13,29,203.43,80.78Z"/><path class="cls-4" d="M382.4,76.16v157L461.7,319V162S425.1,24.38,382.4,76.16Z"/><text class="cls-3" transform="translate(413.65 380.54)">x</text><text class="cls-14" transform="translate(423.43 387.53) scale(0.58)">0</text><text class="cls-15" transform="translate(307.03 379.93)">a</text><text class="cls-16" transform="translate(486.65 380.54)">b</text><text class="cls-17" transform="translate(474.65 319)">红色曲线函数 y=φ</text><text class="cls-18" transform="translate(648.19 325.99) scale(0.58)">1</text><text class="cls-19" transform="translate(653.85 319)">(x)</text><text class="cls-20" transform="translate(388.21 233.48)">紫色曲线函数 y=φ</text><text class="cls-21" transform="translate(561.75 240.47) scale(0.58)">2</text><text class="cls-22" transform="translate(567.4 233.48)">(x)</text><text class="cls-3" transform="translate(0 471.82)"><tspan xml:space="preserve">底座上, 红色的曲线,  函数是 </tspan><tspan class="cls-23" x="258.38" y="0">y=φ</tspan></text><text class="cls-17" transform="translate(301.58 478.82) scale(0.58)">1</text><text class="cls-17" transform="translate(307.23 471.82)">(x)<tspan class="cls-9" x="25.49" y="0" xml:space="preserve">,  </tspan><tspan class="cls-9" x="-307.24" y="32" xml:space="preserve">                                            由于m点在红色曲线上, 所以该点的坐标, 就是φ</tspan></text><text class="cls-3" transform="translate(625.6 510.82) scale(0.58)">1</text><text class="cls-3" transform="translate(631.25 503.82)">(x</text><text class="cls-3" transform="translate(648.89 510.82) scale(0.58)">0</text><text class="cls-3" transform="translate(654.55 503.82)">)<tspan x="-654.55" y="32" xml:space="preserve">                 紫色的曲线, 函数是 </tspan><tspan class="cls-13" x="-398.96" y="32">y=φ</tspan></text><text class="cls-21" transform="translate(298.78 542.82) scale(0.58)">2</text><text class="cls-20" transform="translate(304.44 535.82)"><tspan class="cls-24">(x)</tspan><tspan x="-304.44" y="32" xml:space="preserve">                                            </tspan><tspan class="cls-9" x="-113.18" y="32">由于n点在红色曲线上, 所以该点的坐标, 就是φ</tspan></text><text class="cls-14" transform="translate(620.01 574.82) scale(0.58)">2</text><text class="cls-25" transform="translate(625.67 567.82)">(x</text><text class="cls-14" transform="translate(643.31 574.82) scale(0.58)">0</text><text class="cls-25" transform="translate(648.96 567.82)">)</text><text class="cls-17" transform="translate(400.71 323.62)">m</text><text class="cls-26" transform="translate(418.12 320.9)">=φ</text><text class="cls-26" transform="translate(427.57 322.86) scale(0.58)">1</text><text class="cls-27" transform="translate(429.16 320.9)">(x</text><text class="cls-26" transform="translate(434.11 322.86) scale(0.58)">0</text><text class="cls-26" transform="translate(435.69 320.9)">)</text><text class="cls-28" transform="translate(316.62 213.65)">=φ</text><text class="cls-28" transform="translate(326.07 215.61) scale(0.58)">2</text><text class="cls-29" transform="translate(327.66 213.65)">(x</text><text class="cls-28" transform="translate(332.61 215.61) scale(0.58)">0</text><text class="cls-28" transform="translate(334.19 213.65)">)</text><text class="cls-20" transform="translate(303.03 216.78)">n</text><text class="cls-3" transform="translate(303.03 38.54)">z=f(x,y)</text><polyline class="cls-4" points="581.98 672.61 586.35 675.64 619.27 675.64 622.5 678.99"/><polyline class="cls-4" points="663.01 672.61 658.63 675.64 625.72 675.64 622.5 678.99"/><polyline class="cls-4" points="692.31 672.61 694.35 675.64 709.65 675.64 711.15 678.99"/><polyline class="cls-4" points="729.98 672.61 727.95 675.64 712.64 675.64 711.15 678.99"/><polyline class="cls-4" points="509.12 672.61 512.42 675.64 537.21 675.64 539.63 678.99"/><polyline class="cls-4" points="570.15 672.61 566.85 675.64 542.06 675.64 539.63 678.99"/><text class="cls-30" transform="translate(529.03 658.37)">y=φ</text><text class="cls-30" transform="translate(551.38 661.98) scale(0.58)">1</text><text class="cls-30" transform="translate(554.3 658.37)">(x</text><text class="cls-30" transform="translate(563.43 661.98) scale(0.58)">0</text><text class="cls-31" transform="translate(566.35 658.37)">)</text><text class="cls-32" transform="translate(537 629)">y=φ</text><text class="cls-32" transform="translate(559.34 632.61) scale(0.58)">2</text><text class="cls-32" transform="translate(562.27 629)">(x</text><text class="cls-32" transform="translate(571.39 632.61) scale(0.58)">0</text><text class="cls-33" transform="translate(574.32 629)">)</text><text class="cls-2" transform="translate(464.88 656.32)">= ∫</text><text class="cls-2" transform="translate(540.65 670.25) scale(0.58)"><tspan xml:space="preserve">     </tspan><tspan x="43.28" y="-47.77" xml:space="preserve">   </tspan></text><text class="cls-2" transform="translate(581.02 656.32)"><tspan xml:space="preserve">f(x,y)  dy</tspan></text><text class="cls-3" transform="translate(587.98 695.58) scale(0.58)">Z轴上的高度</text><text class="cls-3" transform="translate(688.65 695.58) scale(0.58)">Y轴上的细分宽度</text><text class="cls-3" transform="translate(496.15 700.08) scale(0.58)">把Y轴上的<tspan x="0" y="27.44">所有细分长条Dy</tspan><tspan x="0" y="54.89">(的面积),</tspan><tspan x="0" y="82.33">加总起来</tspan></text><polyline class="cls-4" points="198.19 921.35 212.15 929.25 317.14 929.25 327.42 937.99"/><polyline class="cls-4" points="456.65 921.35 442.7 929.25 337.7 929.25 327.42 937.99"/><polyline class="cls-4" points="503.82 908.51 505.85 911.54 521.15 911.54 522.65 914.89"/><polyline class="cls-4" points="541.48 908.51 539.45 911.54 524.15 911.54 522.65 914.89"/><polyline class="cls-4" points="92.29 921.35 95.58 924.38 120.37 924.38 122.8 927.73"/><polyline class="cls-4" points="153.31 921.35 150.02 924.38 125.23 924.38 122.8 927.73"/><text class="cls-30" transform="translate(211.27 896.37)">y轴下限y=φ</text><text class="cls-34" transform="translate(271.11 899.98) scale(0.58)">1</text><text class="cls-30" transform="translate(274.04 896.37)">(x</text><text class="cls-30" transform="translate(283.16 899.98) scale(0.58)">0</text><text class="cls-30" transform="translate(286.09 896.37)">)</text><text class="cls-32" transform="translate(219.24 867)">y轴上限 y=φ</text><text class="cls-32" transform="translate(281.32 870.61) scale(0.58)">2</text><text class="cls-33" transform="translate(284.25 867)">(x</text><text class="cls-32" transform="translate(293.37 870.61) scale(0.58)">0</text><text class="cls-32" transform="translate(296.3 867)">)</text><text class="cls-35" transform="translate(109.92 896.37)">y轴下限a</text><text class="cls-36" transform="translate(117.89 867)">x轴上限 b</text><text class="cls-2" transform="translate(45.77 894.32)">= ∫</text><text class="cls-2" transform="translate(500.43 894.32)">dx</text><text class="cls-3" transform="translate(293.22 958.58) scale(0.58)">绿色切片面积<tspan x="0" y="30.87">(只在YZ轴)</tspan></text><text class="cls-3" transform="translate(500.43 936.66) scale(0.58)">绿色切片面积<tspan x="0" y="30.87">在X轴上的厚度</tspan></text><text class="cls-3" transform="translate(87.29 958.58) scale(0.58)">把X轴上的所有细分厚度<tspan x="0" y="30.87">即绿色切片的体积</tspan><tspan x="0" y="61.75">加总起来</tspan></text><polyline class="cls-4" points="682.28 133.01 686.65 136.04 719.57 136.04 722.79 139.39"/><polyline class="cls-4" points="763.31 133.01 758.94 136.04 726.02 136.04 722.79 139.39"/><polyline class="cls-4" points="792.61 133.01 794.65 136.04 809.95 136.04 811.45 139.39"/><polyline class="cls-4" points="830.28 133.01 828.25 136.04 812.95 136.04 811.45 139.39"/><polyline class="cls-4" points="609.42 133.01 612.72 136.04 637.51 136.04 639.93 139.39"/><polyline class="cls-4" points="670.45 133.01 667.15 136.04 642.36 136.04 639.93 139.39"/><text class="cls-30" transform="translate(629.33 118.77)">y=φ</text><text class="cls-30" transform="translate(651.68 122.39) scale(0.58)">1</text><text class="cls-30" transform="translate(654.6 118.77)">(x</text><text class="cls-30" transform="translate(663.73 122.39) scale(0.58)">0</text><text class="cls-31" transform="translate(666.65 118.77)">)</text><text class="cls-32" transform="translate(637.3 89.4)">y=φ</text><text class="cls-32" transform="translate(659.64 93.02) scale(0.58)">2</text><text class="cls-32" transform="translate(662.57 89.4)">(x</text><text class="cls-32" transform="translate(671.69 93.02) scale(0.58)">0</text><text class="cls-33" transform="translate(674.62 89.4)">)</text><text class="cls-2" transform="translate(565.18 116.72)">= ∫</text><text class="cls-2" transform="translate(640.95 130.65) scale(0.58)"><tspan xml:space="preserve">     </tspan><tspan x="43.28" y="-47.77" xml:space="preserve">   </tspan></text><text class="cls-2" transform="translate(681.32 116.72)"><tspan xml:space="preserve">f(x,y)  dy</tspan></text><text class="cls-3" transform="translate(688.28 155.98) scale(0.58)">Z轴上的高度</text><text class="cls-3" transform="translate(788.95 155.98) scale(0.58)">Y轴上的细分宽度</text><text class="cls-3" transform="translate(596.45 160.48) scale(0.58)">把Y轴上的<tspan x="0" y="27.44">所有细分长条Dy</tspan><tspan x="0" y="54.89">(的面积),</tspan><tspan x="0" y="82.33">加总起来</tspan></text><path class="cls-37" d="M552.65,110.54a181.3,181.3,0,0,0-81-26c-62-4.33-108.24,25.68-126.48,39.61"/><polygon class="cls-38" points="339.65 128.54 344.93 119.18 345.6 123.84 349.97 125.56 339.65 128.54"/><text class="cls-3" transform="translate(561.12 69.13)">这块绿色的切片面积</text></g></g></svg>