<svg xmlns="http://www.w3.org/2000/svg" viewBox="0 0 252.18 117.39"><defs><style>.cls-1{fill:#c30d23;opacity:0.1;}.cls-2,.cls-6,.cls-7,.cls-8,.cls-9{fill:none;stroke-miterlimit:10;}.cls-2,.cls-7,.cls-9{stroke:#231815;}.cls-2,.cls-6,.cls-7{stroke-width:0.5px;}.cls-3,.cls-5{fill:#231815;}.cls-4,.cls-5{font-size:9px;font-family:MicrosoftYaHeiLight, Microsoft YaHei;}.cls-4{fill:#094;}.cls-6{stroke:#c30d23;}.cls-7{stroke-dasharray:1.98 1.98;}.cls-8{stroke:#094;}</style></defs><title>资源 13</title><g id="图层_2" data-name="图层 2"><g id="图层_1-2" data-name="图层 1"><rect class="cls-1" x="9.18" y="30.43" width="71.34" height="71.34"/><rect class="cls-1" x="158.76" y="30.43" width="71.34" height="71.34"/><line class="cls-2" x1="9.34" y1="101.78" x2="9.34" y2="3.53"/><polygon class="cls-3" points="9.34 0 11.37 4.97 9.34 3.79 7.31 4.97 9.34 0"/><line class="cls-2" x1="9.34" y1="101.78" x2="99.14" y2="101.78"/><polygon class="cls-3" points="102.67 101.78 97.7 103.81 98.88 101.78 97.7 99.74 102.67 101.78"/><text class="cls-4" transform="translate(47.17 77.04)">ρ</text><text class="cls-4" transform="translate(169.97 60.04)">ρ</text><text class="cls-5" transform="translate(79 115.04)">a</text><text class="cls-5" transform="translate(0 34.04)">a</text><polyline class="cls-6" points="9.52 30.59 80.52 30.59 80.52 101.59"/><line class="cls-2" x1="9.34" y1="101.78" x2="10.05" y2="101.07"/><line class="cls-7" x1="11.45" y1="99.67" x2="97.43" y2="13.68"/><line class="cls-2" x1="98.13" y1="12.98" x2="98.83" y2="12.28"/><line class="cls-8" x1="9.34" y1="101.78" x2="80.7" y2="67.06"/><text class="cls-5" transform="translate(30.83 99.28)">θ</text><path class="cls-9" d="M22.83,94.53a6,6,0,0,1,2.5,7.25"/><line class="cls-2" x1="158.84" y1="101.78" x2="158.84" y2="3.53"/><polygon class="cls-3" points="158.84 0 160.88 4.97 158.84 3.79 156.81 4.97 158.84 0"/><line class="cls-2" x1="158.84" y1="101.78" x2="248.65" y2="101.78"/><polygon class="cls-3" points="252.18 101.78 247.2 103.81 248.38 101.78 247.2 99.74 252.18 101.78"/><text class="cls-5" transform="translate(228.5 115.04)">a</text><text class="cls-5" transform="translate(149.5 34.04)">a</text><polyline class="cls-6" points="159.03 30.59 230.03 30.59 230.03 101.59"/><line class="cls-2" x1="158.84" y1="101.78" x2="159.55" y2="101.07"/><line class="cls-7" x1="160.95" y1="99.67" x2="246.93" y2="13.68"/><line class="cls-2" x1="247.63" y1="12.98" x2="248.34" y2="12.28"/><line class="cls-8" x1="158.84" y1="101.78" x2="192.33" y2="30.59"/><text class="cls-5" transform="translate(174.71 94.03)">θ</text><text class="cls-5" transform="translate(177.59 42.53)">θ</text><path class="cls-9" d="M166.76,85.33A13.5,13.5,0,0,1,172.33,92a13.64,13.64,0,0,1,0,9.47"/><path class="cls-9" d="M190.39,36.42a7.4,7.4,0,0,1-7.36-6"/></g></g></svg>