<svg xmlns="http://www.w3.org/2000/svg" xmlns:xlink="http://www.w3.org/1999/xlink" style="vertical-align:-2.505ex" width="59.478ex" height="6.259ex" viewBox="0 -1616.6 25608.3 2695"><defs><path id="j" stroke-width="1" d="M56 237v13l14 20h299v150l1 150q10 13 19 13 13 0 20-15V270h298q15-8 15-20t-15-20H409V-68q-8-14-18-14h-4q-12 0-18 14v298H70q-14 7-14 20z"/><path id="a" stroke-width="1" d="M370 305h-21l-36 15-16 38q0 23 15 38 5 5 5 6t-10 2q-26 4-49 4-49 0-80-32-47-47-47-157 0-82 31-129 41-61 110-61 41 0 66 26t36 62q2 8 5 10t16 2h14q6-6 6-9 0-4-4-16t-16-33-29-38-48-31-69-13q-86 0-150 64T34 214q0 104 65 169t151 65 120-27 34-64q0-23-17-37z"/><path id="c" stroke-width="1" d="M295 316q0 40-27 69t-78 29q-36 0-62-13-30-19-30-52-1-5 0-13t16-24 43-25q18-5 44-9t44-9 32-13q17-8 33-20t32-41 17-62q0-62-38-102T198-10h-8q-52 0-96 36l-8-7-9-9Q71 4 65-1L54-11H42q-3 0-9 6v137q0 21 2 25t10 5h9q12 0 16-4t5-12 7-27 19-42q35-51 97-51 97 0 97 78 0 29-18 47-20 24-83 36t-83 23q-36 17-57 46t-21 62q0 39 17 66t43 40 50 18 44 5h11q40 0 70-15l15-8 9 7q10 9 22 17h12q3 0 9-6V310l-6-6h-28q-6 6-6 12z"/><path id="d" stroke-width="1" d="M52 289q7 42 54 97t116 56q35 0 64-18t43-45q42 63 101 63 37 0 64-22t28-59q0-29-14-47t-27-22-23-4q-19 0-31 11t-12 29q0 46 50 63-11 13-40 13-13 0-19-2-38-16-56-66-60-221-60-258 0-28 16-40t35-12q37 0 73 33t49 81q3 10 6 11t16 2h4q15 0 15-8 0-1-2-11-16-57-62-101T333-11q-70 0-106 63-41-62-94-62h-6q-49 0-70 26T35 71q0 32 19 52t45 20q43 0 43-42 0-20-12-35t-23-20-13-5l-3-1q0-1 6-4t16-7 19-3q36 0 62 45 9 16 23 68t28 108 16 66q5 27 5 39 0 28-15 40t-34 12q-40 0-75-32t-49-82q-2-9-5-10t-16-2H58q-6 6-6 11z"/><path id="e" stroke-width="1" d="M56 347q0 13 14 20h637q15-8 15-20 0-11-14-19l-318-1H72q-16 5-16 20zm0-194q0 15 16 20h636q14-10 14-20 0-13-15-20H70q-14 7-14 20z"/><path id="f" stroke-width="1" d="M213 578l-13-5q-14-5-40-10t-58-7H83v46h19q47 2 87 15t56 24 28 22q2 3 12 3 9 0 17-6V361l1-300q7-7 12-9t24-4 62-2h26V0h-11q-21 3-159 3-136 0-157-3H88v46h64q16 0 25 1t16 3 8 2 6 5 6 4v517z"/><path id="g" stroke-width="1" d="M84 237v13l14 20h581q15-8 15-20t-15-20H98q-14 7-14 20z"/><path id="h" stroke-width="1" d="M109 429q-27 0-43 18t-16 44q0 71 53 123t132 52q91 0 152-56t62-145q0-43-20-82t-48-68-80-74q-36-31-100-92l-59-56 76-1q157 0 167 5 7 2 24 89v3h40v-3q-1-3-13-91T421 3V0H50v31q0 7 6 15t30 35q29 32 50 56 9 10 34 37t34 37 29 33 28 34 23 30 21 32 15 29 13 32 7 30 3 33q0 63-34 109t-97 46q-33 0-58-17t-35-33-10-19q0-1 5-1 18 0 37-14t19-46q0-25-16-42t-45-18z"/><path id="i" stroke-width="1" d="M78 661q0 21 18 38t42 17 42-16 19-39q0-7-20-229t-21-226q-2-8-19-8-18 0-20 8-1 3-21 225T78 661zm1-600q0 28 18 44t44 16q23-2 40-17t17-43q0-30-17-45T139 1q-25 0-42 15T79 61z"/><path id="b" stroke-width="1" d="M28 214q0 95 65 164t157 70q90 0 155-68t66-165q0-95-64-160T250-10q-97 0-159 67T28 214zM250 30q122 0 122 163v57q0 22-1 38t-7 38-16 36-31 28-49 20q-5 1-16 1-30 0-57-12-43-22-56-61t-13-92v-20q0-96 19-135 32-61 105-61z"/><path id="k" stroke-width="1" d="M462 0q-18 3-129 3-116 0-134-3h-9v46h58q7 0 17 2t14 5 7 8q1 2 1 54v50H28v46l151 231q153 232 155 233 2 2 21 2h18l6-6V211h92v-46h-92v-51-48q0-7 6-12 8-7 57-8h29V0h-9zM293 211v334L74 212l109-1h110z"/><path id="l" stroke-width="1" d="M42 313q0 163 81 258t180 95q69 0 99-36t30-80q0-25-14-40t-39-15q-23 0-38 14t-15 39q0 44 47 53-22 22-62 25-71 0-117-60-47-66-47-202l1-4q5 6 8 13 41 60 107 60h4q46 0 81-19 24-14 48-40t39-57q21-49 21-107v-18q0-23-5-43-11-59-64-115T253-22q-28 0-54 8t-56 30-51 59-36 97-14 141zm215 84q-30 0-52-17t-34-45-17-57-6-62q0-83 12-119t38-58q24-18 53-18 51 0 78 38 13 18 18 45t5 105q0 80-5 107t-18 45q-27 36-72 36z"/><path id="m" stroke-width="1" d="M78 250q0 24 17 42t43 18q24 0 42-16t19-43q0-25-17-43t-43-18-43 17-18 43zm447 0q0 24 17 42t43 18q24 0 42-16t19-43q0-25-17-43t-43-18-43 17-18 43zm447 0q0 24 17 42t43 18q24 0 42-16t19-43q0-25-17-43t-43-18-43 17-18 43z"/><path id="n" stroke-width="1" d="M94 250q0 69 10 131t23 107 37 88 38 67 42 52 33 34 25 21h17q14 0 14-9 0-3-17-21t-41-53-49-86-42-138-17-193 17-192 41-139 49-86 42-53 17-21q0-9-15-9h-16l-28 24q-94 85-137 212T94 250z"/><path id="o" stroke-width="1" d="M60 749l4 1h22l28-24q94-85 137-212t43-264q0-68-10-131T261 12t-37-88-38-67-41-51-32-33-23-19l-4-4H63q-3 0-5 3t-3 9q1 1 11 13Q221-64 221 250T66 725q-10 12-11 13 0 8 5 11z"/><path id="p" stroke-width="1" d="M21 287q1 6 3 16t12 38 20 47 33 37 46 17q36 0 60-18t30-34 6-21q0-2 1-2l11 11q61 64 139 64 54 0 87-27t34-79-38-157-38-127q0-26 17-26 6 0 9 1 29 5 52 38t35 80q2 8 20 8 20 0 20-8 0-1-4-15-8-29-22-57t-46-56-69-27q-47 0-68 27t-21 56q0 19 36 120t37 152q0 59-44 59h-5q-86 0-145-101l-7-12-33-134Q156 26 151 16q-13-27-43-27-13 0-21 6T76 7t-2 10q0 13 38 163t40 163q1 5 1 23 0 39-24 39-38 0-63-100-6-20-6-21-2-6-19-6H27q-6 6-6 9z"/><path id="q" stroke-width="1" d="M201-11q-75 0-121 49T34 156q0 65 30 123t82 101q76 61 155 61 32 0 40-1 13-3 26-7t35-16 36-30 26-49 12-70q0-107-86-193T201-11zm-80 131q0-50 26-72t59-22q44 0 83 32t62 84q9 21 23 74t14 92q0 44-18 67-24 30-64 30-63 0-111-58-37-44-55-117t-19-110z"/><path id="r" stroke-width="1" d="M152 251q0 395 236 599h28q6-6 6-9 0-4-19-25t-46-63-55-104-47-167-19-232q0-126 19-231t46-166 55-104 47-64 19-25q0-3-6-9h-28q-29 24-56 53t-61 83-59 116-42 153-18 195z"/><path id="s" stroke-width="1" d="M305 251q0-396-236-600H56q-13 0-17 2t-4 9q2 5 25 31t48 68 52 103 44 163 17 223-17 223-44 163-52 104-48 67-25 32q0 11 15 11h19q128-107 187-284 49-141 49-315z"/></defs><g fill="currentColor" stroke="currentColor" stroke-width="0" transform="scale(1 -1)"><use xlink:href="#a"/><use x="444" xlink:href="#b"/><use x="945" xlink:href="#c"/><use x="1506" xlink:href="#d"/><use x="2356" xlink:href="#e"/><use x="3412" xlink:href="#f"/><use x="4135" xlink:href="#g"/><path stroke="none" d="M5255 220h1146v60H5255z"/><g transform="translate(5315 676)"><use xlink:href="#d"/><use x="809" y="513" transform="scale(.707)" xlink:href="#h"/></g><g transform="translate(5438 -692)"><use xlink:href="#h"/><use x="500" xlink:href="#i"/></g><use x="6744" xlink:href="#j"/><path stroke="none" d="M7865 220h1146v60H7865z"/><g transform="translate(7925 676)"><use xlink:href="#d"/><use x="809" y="513" transform="scale(.707)" xlink:href="#k"/></g><g transform="translate(8048 -692)"><use xlink:href="#k"/><use x="500" xlink:href="#i"/></g><use x="9354" xlink:href="#g"/><path stroke="none" d="M10474 220h1146v60h-1146z"/><g transform="translate(10534 676)"><use xlink:href="#d"/><use x="809" y="513" transform="scale(.707)" xlink:href="#l"/></g><g transform="translate(10657 -692)"><use xlink:href="#l"/><use x="500" xlink:href="#i"/></g><use x="11963" xlink:href="#j"/><use x="12964" xlink:href="#m"/><use x="14358" xlink:href="#j"/><g transform="translate(15359)"><use xlink:href="#n"/><use x="389" xlink:href="#g"/><use x="1168" xlink:href="#f"/><use x="1668" xlink:href="#o"/><use x="2910" y="675" transform="scale(.707)" xlink:href="#p"/></g><g><path stroke="none" d="M18062 220h2278v60h-2278z"/><g transform="translate(18475 676)"><use xlink:href="#d"/><g transform="matrix(.707 0 0 .707 572 362)"><use xlink:href="#h"/><use x="500" xlink:href="#p"/></g></g><g transform="translate(18122 -726)"><use xlink:href="#n"/><use x="389" xlink:href="#h"/><use x="890" xlink:href="#p"/><use x="1490" xlink:href="#o"/><use x="1880" xlink:href="#i"/></g></g><use x="20683" xlink:href="#j"/><use x="21683" xlink:href="#q"/><g transform="translate(22335)"><use xlink:href="#r"/><g transform="translate(458)"><use xlink:href="#d"/><g transform="matrix(.707 0 0 .707 572 412)"><use xlink:href="#h"/><use x="500" xlink:href="#p"/><use x="1101" xlink:href="#j"/><use x="1879" xlink:href="#f"/></g></g><use x="2813" y="-1" xlink:href="#s"/></g></g></svg>