<svg xmlns="http://www.w3.org/2000/svg" viewBox="0 0 174.42 125.33"><defs><style>.cls-1,.cls-2,.cls-4,.cls-5,.cls-6,.cls-9{fill:none;}.cls-2,.cls-9{stroke:#231815;}.cls-2,.cls-4,.cls-5,.cls-6,.cls-9{stroke-miterlimit:10;}.cls-2{stroke-width:0.5px;}.cls-3,.cls-7,.cls-8{fill:#231815;}.cls-4,.cls-5{stroke:#c30d23;}.cls-4,.cls-5,.cls-6,.cls-9{stroke-width:0.25px;}.cls-5{stroke-dasharray:2.03 2.03;}.cls-6{stroke:#9fa0a0;stroke-dasharray:2 2;}.cls-7{font-size:6px;}.cls-11,.cls-7,.cls-8{font-family:MicrosoftYaHei, Microsoft YaHei;}.cls-11,.cls-8{font-size:5px;}.cls-10,.cls-11{fill:#c30d23;}</style></defs><g id="图层_2" data-name="图层 2"><g id="图层_1-2" data-name="图层 1"><rect class="cls-1" width="174.42" height="125.33"/><line class="cls-2" x1="26.6" y1="66" x2="163.8" y2="66"/><polygon class="cls-3" points="167.33 66 162.35 68.03 163.53 66 162.35 63.97 167.33 66"/><line class="cls-2" x1="107.85" y1="120" x2="107.85" y2="11.53"/><polygon class="cls-3" points="107.85 8 109.89 12.97 107.85 11.79 105.82 12.97 107.85 8"/><path class="cls-2" d="M153.27,52.63A187,187,0,0,1,94.06,44,144,144,0,0,1,53.33,23.67"/><line class="cls-4" x1="60.8" y1="29.44" x2="60.8" y2="30.44"/><line class="cls-5" x1="60.8" y1="32.47" x2="60.8" y2="63.98"/><line class="cls-4" x1="60.8" y1="65" x2="60.8" y2="66"/><line class="cls-6" x1="144.93" y1="53.33" x2="144.93" y2="66"/><text class="cls-7" transform="translate(123.95 74.67)">b</text><text class="cls-7" transform="translate(7.56 51.08)">-∞</text><text class="cls-7" transform="translate(58.31 74.67)">N</text><text class="cls-8" transform="translate(118.3 94.19)">此x点处,<tspan x="0" y="7">y有确定值,</tspan><tspan x="0" y="14">即y有界</tspan></text><line class="cls-9" x1="125.62" y1="80.43" x2="125.62" y2="87.11"/><polygon class="cls-3" points="125.62 78.67 124.6 81.15 125.62 80.56 126.63 81.15 125.62 78.67"/><text class="cls-8" transform="translate(46.35 94.19)">一个很大的数</text><line class="cls-9" x1="60.65" y1="80.43" x2="60.65" y2="87.11"/><polygon class="cls-3" points="60.66 78.67 59.64 81.15 60.66 80.56 61.67 81.15 60.66 78.67"/><line class="cls-4" x1="50.88" y1="51.08" x2="57.56" y2="51.08"/><polygon class="cls-10" points="49.11 51.08 51.6 52.1 51.01 51.08 51.6 50.06 49.11 51.08"/><text class="cls-11" transform="translate(23.5 47.72)">向左推进, <tspan x="0" y="7">趋近于 -∞</tspan></text></g></g></svg>