<svg viewBox="0 0 255 319" height="319" xmlns:xlink="http://www.w3.org/1999/xlink" width="255" xmlns="http://www.w3.org/2000/svg">
    <defs/>
    <g transform="translate(-684.26,-237.35)">
        <g id="shape1" transform="translate(686.26,239.35)">
            <path stroke="#eaebf1" d="M4.0,.0L73.0,.0C75.2,.0,77.0,1.8,77.0,4.0L77.0,41.0C77.0,43.2,75.2,45.0,73.0,45.0L4.0,45.0C1.8,45.0,.0,43.2,.0,41.0L.0,4.0C.0,1.8,1.8,.0,4.0,.0z" fill-rule="nonzero" stroke-width="4" fill="#eaebf1"/>
            <text style="fill:#303030;font-family:Microsoft YaHei;font-size:12.00pt" xml:space="preserve">
                <tspan y="29.0" x="24.3">主题</tspan>
            </text>
        </g>
        <g id="shape2" transform="translate(686.26,413.35)">
            <path stroke="#eaebf1" d="M4.0,.0L73.0,.0C75.2,.0,77.0,1.8,77.0,4.0L77.0,41.0C77.0,43.2,75.2,45.0,73.0,45.0L4.0,45.0C1.8,45.0,.0,43.2,.0,41.0L.0,4.0C.0,1.8,1.8,.0,4.0,.0z" fill-rule="nonzero" stroke-width="4" fill="#eaebf1"/>
            <text style="fill:#303030;font-family:Microsoft YaHei;font-size:12.00pt" xml:space="preserve">
                <tspan y="29.0" x="24.3">主题</tspan>
            </text>
        </g>
        <g id="shape3" transform="translate(788.26,317.35)">
            <path stroke="#696969" d="M.0,32.3L62.0,32.3" stroke-width="4" fill="none"/>
            <text style="fill:#454545;font-family:Microsoft YaHei;font-size:10.00pt" xml:space="preserve">
                <tspan y="20.9" x="12.9">子主题</tspan>
            </text>
        </g>
        <g id="shape4" transform="translate(788.26,358.30)">
            <path stroke="#696969" d="M.0,32.3L62.0,32.3" stroke-width="4" fill="none"/>
            <text style="fill:#454545;font-family:Microsoft YaHei;font-size:10.00pt" xml:space="preserve">
                <tspan y="20.9" x="12.9">子主题</tspan>
            </text>
        </g>
        <g id="shape5" transform="translate(788.26,399.25)">
            <path stroke="#696969" d="M.0,32.3L62.0,32.3" stroke-width="4" fill="none"/>
            <text style="fill:#454545;font-family:Microsoft YaHei;font-size:10.00pt" xml:space="preserve">
                <tspan y="20.9" x="12.9">子主题</tspan>
            </text>
        </g>
        <g id="shape6" transform="translate(788.26,481.15)">
            <path stroke="#696969" d="M.0,32.3L62.0,32.3" stroke-width="4" fill="none"/>
            <text style="fill:#454545;font-family:Microsoft YaHei;font-size:10.00pt" xml:space="preserve">
                <tspan y="20.9" x="12.9">子主题</tspan>
            </text>
        </g>
        <g id="shape7" transform="translate(875.26,440.20)">
            <path stroke="#696969" d="M.0,32.3L62.0,32.3" stroke-width="4" fill="none"/>
            <text style="fill:#454545;font-family:Microsoft YaHei;font-size:10.00pt" xml:space="preserve">
                <tspan y="20.9" x="12.9">子主题</tspan>
            </text>
        </g>
        <g id="shape8" transform="translate(875.26,481.15)">
            <path stroke="#696969" d="M.0,32.3L62.0,32.3" stroke-width="4" fill="none"/>
            <text style="fill:#454545;font-family:Microsoft YaHei;font-size:10.00pt" xml:space="preserve">
                <tspan y="20.9" x="12.9">子主题</tspan>
            </text>
        </g>
        <g id="shape9" transform="translate(875.26,522.10)">
            <path stroke="#696969" d="M.0,32.3L62.0,32.3" stroke-width="4" fill="none"/>
            <text style="fill:#454545;font-family:Microsoft YaHei;font-size:10.00pt" xml:space="preserve">
                <tspan y="20.9" x="12.9">子主题</tspan>
            </text>
        </g>
    </g>
</svg>
