<svg xmlns="http://www.w3.org/2000/svg" viewBox="0 0 112.26 83.6"><defs><style>.cls-1,.cls-3{fill:none;stroke:#231815;stroke-miterlimit:10;}.cls-1{stroke-width:0.25px;}.cls-2,.cls-4{fill:#231815;}.cls-3{stroke-width:0.24px;}.cls-4{font-size:4px;font-family:MicrosoftYaHeiLight, Microsoft YaHei;}</style></defs><title>资源 5</title><g id="图层_2" data-name="图层 2"><g id="图层_1-2" data-name="图层 1"><polyline class="cls-1" points="33.67 7.9 33.67 69.63 98.9 69.63"/><polygon class="cls-2" points="33.67 6.13 32.65 8.62 33.67 8.03 34.68 8.62 33.67 6.13"/><polygon class="cls-2" points="100.67 69.63 98.18 70.65 98.77 69.63 98.18 68.62 100.67 69.63"/><line class="cls-3" x1="37.75" y1="37.42" x2="95.08" y2="37.42"/><line class="cls-3" x1="66.42" y1="7.8" x2="66.42" y2="67.05"/><text class="cls-4" transform="translate(8 34.76)">差异化<tspan x="-8" y="4.8">或品牌形象感知</tspan><tspan x="0.78" y="9.6">(面子)</tspan></text><text class="cls-4" transform="translate(104.33 71.09)">high</text><text class="cls-4" transform="translate(30 3.42)">high</text><text class="cls-4" transform="translate(28 74.76)">low</text><text class="cls-4" transform="translate(52 77.76)">成本或价值感知<tspan x="8.78" y="4.8">(里子)</tspan></text><text class="cls-4" transform="translate(79 55.13)">实用型</text><text class="cls-4" transform="translate(75 21.47)">追求极致型</text><text class="cls-4" transform="translate(40.67 55.13)">价格敏感型</text><text class="cls-4" transform="translate(44.67 21.47)">虚荣型<tspan x="-1.22" y="4.8">(消费者)</tspan></text></g></g></svg>