<?xml version="1.0" encoding="utf-8"?>
<!-- Generator: Adobe Illustrator 19.1.0, SVG Export Plug-In . SVG Version: 6.00 Build 0)  -->
<svg version="1.1" id="Layer_1" xmlns="http://www.w3.org/2000/svg" xmlns:xlink="http://www.w3.org/1999/xlink" x="0px" y="0px"
	 width="318px" height="371px" viewBox="-5 -58 318 371"
	 style="enable-background:new -5 -58 318 371;" xml:space="preserve">
<style type="text/css">
	.st0{fill:#61CFFA;}
	.st1{fill:#BBEF9A;stroke:#979F82;stroke-width:0.5;stroke-linejoin:round;}
	.st2{fill:none;stroke:#677664;stroke-linecap:round;stroke-linejoin:round;}
	.st3{fill:#EDAEF4;stroke:#677664;stroke-width:0.5;stroke-linejoin:round;}
	.st4{fill:#EDAEF4;stroke:#677664;stroke-width:0.5;stroke-linecap:round;stroke-linejoin:round;}
	.st5{fill:#F9D53D;stroke:#677664;stroke-width:0.5;stroke-linejoin:round;}
	.st6{fill:#6AA7EF;stroke:#677664;stroke-width:0.5;stroke-linejoin:round;}
	.st7{fill:#F9D53D;stroke:#677664;stroke-width:0.5;stroke-linecap:round;stroke-linejoin:round;}
	.st8{fill:#69C130;stroke:#677664;stroke-width:0.5;stroke-miterlimit:10;}
	.st9{fill:#6AA7EF;stroke:#677664;stroke-width:0.5;stroke-miterlimit:10;}
	.st10{fill:#EDAEF4;stroke:#677664;stroke-width:0.5;stroke-miterlimit:10;}
	.st11{fill:#69C130;stroke:#677664;stroke-width:0.5;stroke-linejoin:round;}
	.st12{fill:#FFFFFF;}
	.st13{fill:#004BC4;}
	.st14{font-family:'Verdana';}
	.st15{font-size:11px;}
	.st16{enable-background:new    ;}
	.st17{fill:none;stroke:#000000;stroke-miterlimit:10;}
	.st18{fill:#FFFFFF;stroke:#000000;stroke-width:0.5;stroke-miterlimit:10;}
	.st19{fill:#DE8CEA;stroke:#000000;stroke-width:0.5;stroke-miterlimit:10;}
	.st20{fill:#6AA7EF;stroke:#000000;stroke-width:0.5;stroke-miterlimit:10;}
	.st21{fill:#FFE36E;stroke:#000000;stroke-width:0.5;stroke-miterlimit:10;}
</style>
<rect x="-62" y="-63.132" class="st0" width="379.332" height="380.012"/>
<g id="UnitedStates">
	<polygon id="Manhattan_1_" class="st1" points="172.493,102.452 172.643,101.421 171.318,102.894 171.021,104.074 171.908,103.925
			"/>
	<polygon id="Vineyard_1_" class="st1" points="229.504,90.518 229.799,89.635 229.504,89.49 228.47,89.93 228.18,88.899
		227.145,88.753 227,88.31 225.819,88.899 224.349,90.814 223.758,90.665 223.465,90.963 223.758,91.698 224.495,91.698
		225.969,90.814 228.033,90.963 	"/>
	<polyline class="st1" points="-3.07,-3.345 -3.365,-3.513 -3.382,-2.964 -4.399,-3.345 -5.504,-3.296 -5.667,-3.03 -5.08,-2.697
		-4.061,-1.63 -3.055,-1.537 -2.856,-1.608 -2.717,-1.944 -2.509,-1.972 -2.274,-2.785 -2.788,-2.892 -3.07,-3.345 	"/>
	<polygon id="LongIsland_1_" class="st1" points="172.348,103.925 171.169,104.959 171.464,106.725 172.348,106.725
		173.527,105.694 174.703,105.547 174.999,106.429 172.938,107.313 173.818,107.46 176.175,106.725 179.126,105.694
		181.186,105.398 183.841,104.074 184.867,104.367 185.163,103.777 187.667,103.484 193.413,101.863 193.413,102.304
		185.753,105.25 184.277,105.398 184.277,105.842 185.163,105.99 198.57,100.833 205.934,97.444 206.375,97.002 206.228,96.707
		204.608,96.854 202.691,98.032 201.366,97.15 200.78,97.738 200.336,97.297 199.6,98.032 198.716,97.444 198.57,98.032
		197.095,99.212 196.801,99.947 196.215,100.244 196.65,100.833 196.064,101.127 195.329,100.98 195.034,99.947 194.004,99.505
		195.18,99.212 195.625,98.473 196.65,98.18 197.536,97.444 197.391,96.562 200.046,94.938 199.306,94.646 198.861,94.938
		194.888,97.738 192.675,98.473 188.552,99.062 185.602,98.768 183.986,100.095 181.775,99.36 181.481,99.947 179.861,99.36
		180.007,100.244 179.565,100.686 179.126,100.095 178.68,100.095 177.505,100.538 176.915,101.127 176.915,101.863
		176.324,101.275 175.439,102.747 174.559,102.304 173.965,103.041 172.938,102.747 	"/>
	<path id="Frontier_4_" class="st1" d="M-62.15,316.944l1.03,1.179h0.296l0.589-2.061l0.591-3.686l0.586-1.915v-0.731l0.738-1.034
		l1.03-0.739l-0.738,0.889l1.034,2.501l0.149,1.771l-0.59,1.026l0.44,1.771l2.062,2.501v0.743l-3.238,0.287l-0.439,0.448l0.29,0.292
		l3.242-0.441l3.534-0.735l0.147-0.738h0.885l0.149-0.886l0.585,0.149l0.445-0.441l-0.296,0.591l-0.589,0.587v0.443l1.77-0.739
		l0.291-0.44l1.03-0.149l0.296-0.735l1.324-0.587l0.736-1.03l-0.438-1.62l0.292-0.594l1.18,1.184v0.881l0.439,0.149l0.591-1.478
		l0.295-0.438l0.445,1.325l0.585,0.294l-0.295,0.591l-0.439,0.587l-1.767,0.44l-0.59,0.148l-0.444,0.441l0.444,0.294l1.474-0.589
		l4.417-0.735l3.682-0.295l0.146-0.445l0.886-0.142l0.145-0.739l0.59-0.149l0.445,0.889l0.735-0.149l0.586-0.44l1.033,0.294
		l0.74-0.294l1.616,0.885l0.303,0.736l-0.439,0.292l-1.329-0.44l-1.177-0.295l-0.587,0.295h-0.885h-1.769l0.294,0.589l1.475,0.146
		l6.188,2.064l0.59,0.295l3.977,3.092v-1.326v-0.735l-0.444-0.146l-0.296-0.295l-0.884,0.44l-0.292-0.594l1.176-1.175l0.74,0.145
		l0.294,1.03l0.886,0.153l-0.591,1.03l0.146,0.587l1.918,0.885l0.438-0.296l0.591,0.296l0.443,1.475h-0.299l-2.502-1.624
		l-0.294,0.149l0.149,0.44l2.646,1.77v0.59l1.771,0.882l0.295,0.149v0.593l0.296,0.583l0.439,0.443l0.441,0.736v0.735l-0.146,0.885
		l-0.146,0.736l-0.444,0.295l-0.145-0.146l-0.441-0.587l-0.149-0.739l0.149-0.884v-1.476l-0.149-0.146l-0.146,0.146l-0.296,0.299
		l-0.149,0.291v0.59v0.59l0.149,0.59l0.146,1.031l0.59,0.881l0.296,0.149l0.145-0.149h0.444l0.292-0.292l0.443-0.148h0.587
		l0.447,0.148l0.146-0.294l0.587-0.441h0.298h0.732h1.18l0.59,0.146l0.295-0.146v-0.589l0.292-0.149h0.298l0.294-0.292l0.143-0.444
		h0.299h0.291l0.298,0.146l-0.149,0.299l-0.148,0.586l0.148,0.149h0.149l0.587-0.443l0.735-0.591l1.329-0.881l1.621-0.735
		l1.03-0.739l0.441-0.143h0.294l0.149,0.143l0.441-0.296l0.295-0.145h0.145l0.295,0.298l0.441,0.288h0.593l0.146,0.149l0.146-0.295
		l0.149-0.143v-0.447l-0.441-0.295l-0.443-0.146l-0.441-0.295l0.146-0.145h0.295h0.59v-0.149l-0.296-0.587l-0.149-0.447l0.591-0.438
		l0.299-0.149H2.52h0.299l0.149-0.146v-0.59h0.586h0.149l0.295-0.149l0.735,0.443l0.295,0.146l0.292-0.146l0.443-0.146h0.591
		l0.589-0.148l0.886,0.148l0.586,0.587l1.915,1.771l0.736,0.145l1.474,0.886l1.178,1.62l0.738,0.44l-0.444,0.59l0.149,0.736
		l0.736,0.885h1.03l0.149,0.589l1.177,0.591l0.149,1.619l0.145,1.472l0.736,0.591l0.593,0.589l0.146,0.587h0.441l1.034,0.445
		l0.731,1.025l0.149,1.185l1.18,0.439l0.146,1.177l0.44,0.738l3.831,0.445l0.295,0.291l-0.149,0.735l0.299,0.736l0.732,0.148v1.03
		l0.299,0.444l0.146,0.883l0.295,0.443l1.179,0.881v0.736h-0.885l-0.294,0.593l0.294,0.441l0.591,0.294l-0.149,1.327l0.443,0.738
		l-0.738,1.177l0.295,1.03l-0.146,1.176l-0.296,1.18v0.735l-0.294,1.034l-0.44,1.03v1.329l-0.739,1.173l-0.441,1.034l0.149,2.502
		l-0.738,1.771l-0.292,1.176l0.437,1.328h0.886l0.294,1.617l1.621,1.031l0.443-1.617v-0.884l-0.148-0.591l0.296-0.146l-0.886-1.03
		l-0.881-0.445l0.44-0.735v-1.18l0.44-0.149l0.444,0.591l0.586,0.145l0.888,0.594l0.441,1.031l-0.149,1.03l0.74,0.738l0.29-0.443
		l-0.145-0.885l0.589-1.03l0.586,0.294v0.591l0.445,1.325l-0.739,1.326l-0.736,0.439l0.149,1.031l-1.472,0.884v0.591l-0.589,1.03
		l0.146,1.329l-1.18-0.152l-0.295,1.325l1.176,0.739l0.742,1.033v0.736l1.472,4.122l-0.149,1.034l0.886,1.325l0.294,0.881
		l1.032,1.032l0.147,1.033l0.886,1.031l0.586,0.295l1.18,0.294l0.296-0.885l-1.621-2.505l0.295-0.586l1.177,1.026l1.915-0.44
		l0.295,0.295l-0.295,0.441l-0.885,0.294l0.589,2.654l-0.147,0.735l-0.288,0.591v0.885l0.436,1.322v0.884l0.441,0.591l1.034,0.292
		l-0.44,0.298l0.735,0.734l0.881,1.032l0.591-0.292v0.881l0.441,0.74l-0.147,0.881v1.915l1.18,5.008l1.178,1.769l0.885-0.145
		l1.325,0.439l0.739-0.295l0.146,0.441l1.911,1.18l0.445,0.587l0.884,2.064l1.472,2.651l0.59,0.439l-0.294,0.441l0.738,1.034
		l0.146,1.325l0.882,0.59l1.916,0.587l0.294,0.738l0.886-0.295v1.621l-0.591,0.589l-1.03-0.145l-0.881-0.89l-0.295-0.585
		l-0.885-0.441l-0.595,1.18l0.153,0.736l0.731,1.471l0.89,0.736l0.437-0.296h1.769l0.74-0.738l0.735-0.147l0.886,0.591h1.472
		l1.175-0.881l0.74-0.149l0.149-0.586l1.176,0.586l0.44-0.441h0.734l0.296-1.034l0.444-0.585l1.177-1.326l-0.586-2.654l0.586-1.031
		v-1.03l0.444-0.589l0.294-0.147l0.146-1.324l0.885-1.18l0.441-2.064h0.444v1.18l0.145,0.294l0.441-0.146v-1.328l-0.294-1.028
		l0.151-1.03l0.143-1.915l0.441-2.509l0.149-2.207l0.146-0.881l0.447-5.746l0.146-3.242l-0.593-4.125l-0.879-3.387l-1.183-0.738
		l0.148-0.882l-0.295-1.031l-1.769-3.685l-0.296-2.501l-0.589-2.065l-1.322-2.946l-0.444-1.18l-2.65-6.479l-2.212-7.366
		l-1.176-5.011l0.295-0.292l0.731,0.736h0.445l-0.445-1.18l-1.911-3.388v-1.474l-1.03-0.441l0.146-1.18l-2.206-5.011l-0.299-1.321
		l-1.472-4.42l-0.735-1.621l-0.295-2.356l-0.586-1.03l0.29-0.59l-1.324-5.743l-0.149-1.03l-0.292-2.949l-0.885,0.44l-0.295-0.292
		l0.295-0.59l-0.149-1.62l-0.146-0.881l-0.149-0.739v-1.03l0.149-1.03l-0.149-0.296l-0.589,0.146l-0.733-0.146l-0.149-0.884h0.74
		l0.292-1.032l-0.587-1.18l0.438-0.589l-0.143-0.441l0.292-0.735l0.734-0.589l-0.295-0.591l-0.589,0.149l-0.143-0.444l0.143-0.296
		l0.294,0.149l1.035-0.589l0.29-0.885v-0.591l-0.438-0.291l-0.148,1.18l-0.586,0.441l-0.447-0.591l-0.143-1.03l-0.591-0.443
		l0.296-0.441l-0.296-0.591h0.296l0.731,1.032h0.59l0.149-2.062l0.586-0.439l-0.142-0.445l-0.594-1.03l0.149-0.146l0.444-0.294
		l1.322,0.145l0.148-1.326l0.445-0.29l0.586,0.439l0.44-1.474l0.59-0.886l-0.145-0.439l-1.326,0.146l0.145-0.736l1.326-0.294
		l0.59,0.149l0.296-1.182v-1.329l-0.736,0.153v-0.739l-0.443-0.439l0.585-0.295l0.739,0.439l1.325-1.62l0.146-0.295l-1.177-0.735
		l0.296-0.739l1.767,0.448l0.589-0.595l-0.146-1.03l1.18-0.294l0.735-1.031l-0.885-0.59l0.149-0.736l0.587-0.439l0.148-0.885
		l0.59,0.44l1.618-1.326l0.589-0.735l-0.735-0.885l-1.176,0.885l-0.149-0.295l0.439-0.881l-0.149-0.445l-0.877-1.766l0.146-0.884
		l0.295-0.296l0.735,1.03l1.177,1.771l0.886,0.145l0.589-0.443l1.326-1.621l0.589-0.295l0.146-0.735l-1.326-0.439l0.149-0.591
		l0.441-0.146l1.18,0.146l0.881-0.441l0.441,0.149l0.299,0.587l2.061-1.471l-0.146-0.885l0.881,0.146l1.621-0.59l0.884-0.44h0.885
		l0.441-1.178l0.738-0.593l-0.738-0.587l0.439-0.735v-0.589l0.445-0.149l0.295,1.18h0.735l1.916-1.767l1.179-0.885l-0.148-1.03
		l0.885-0.591l1.03-0.881h1.326l0.589-0.885h0.736l0.149-0.736h0.735l0.735-0.443l0.295-0.885l0.591,0.149l0.29-0.444l0.149-0.735
		l-0.439-0.739l-0.886-0.583l-0.296-0.743l0.146-1.175l0.59,0.145l-0.146,1.03l1.18-0.292l0.586-1.03l0.444-1.328l1.913-2.651
		l2.504-2.946l3.392-2.356l1.324-0.881h1.472l1.915-1.18l0.594,0.587l1.763-0.438l2.654,0.587l1.472-1.771l0.294-2.206l0.296,2.206
		l0.44,0.445l0.443-1.771l0.292-1.911l1.771-3.391l3.682-3.091l1.911-1.034l0.885-0.736l-0.292-0.441l-1.03-0.443l0.146-0.731
		l0.739-0.591l-0.739-1.034l-0.296-1.176l0.444-0.149l0.441,1.034l0.586,0.438l0.299,0.888l-0.591,0.735l1.182,1.03l2.5-1.619
		l0.296-1.621l-0.296-1.155l0.591,0.125l0.59,1.767l2.949-1.032l2.942,0.146l0.441-0.44l-0.883-0.295l0.292-0.735h0.89v0.885
		l0.436,0.295l0.448-0.149l0.143-1.03l0.59,0.148l-0.146,1.031l0.591,0.291l0.735-0.44l0.146-0.736l0.74-0.589l0.439-0.591
		l0.295-0.885h0.739l0.731-0.589l-0.29-0.587l0.731-0.294l-0.59-1.472l-0.882,1.616h-1.324l0.735-1.03l-0.441-0.441l0.146-0.885
		h-0.735l-0.295,1.03h-1.18l0.299,1.621h-0.444l-0.59-1.03l-0.736,0.149l0.295,1.18h-0.585v-0.888l-0.74,0.149l-0.59,0.738
		l-1.767-0.444l-1.474-0.885l-1.472-1.915l-0.886-0.438l0.149-1.034l0.441-0.295l1.176,1.617l0.739,0.149l0.441,0.885l0.734,0.149
		l0.886,0.881l2.062-1.325h0.884l0.299-0.885l1.472-1.177l-0.44-0.444l-0.744,0.444l-0.881-0.738l1.18-0.736l0.886,0.444l-0.44-1.03
		h1.026v-1.329l-1.915-0.441l-0.295,0.735l-0.731-0.881h-1.33v-0.885l-3.682-1.18l-0.886-0.881l0.441-0.591l2.359,1.034l0.736-0.593
		l0.296,0.885l1.619,0.295l0.881,0.735l0.735-0.44l-0.287-1.03l0.143-0.444l-1.176-1.031l0.585-0.298l0.885,0.594l0.595-0.296
		l0.881-0.148v-0.586l0.736,0.437l-0.146,0.888l-1.325,0.441l0.439,2.064l2.208-0.885l-0.292,1.03l0.885,0.441l0.146-0.886
		l1.18,1.035l0.146-0.299l1.766,0.593l1.18-0.593l0.445-1.909l0.734,0.732l0.587-1.176l0.298-1.181h0.736l0.441-1.475l0.589,0.444
		l0.296,0.444l0.439-0.148l0.886-0.591l0.145-0.885l-0.439-0.882l0.295-0.294l0.44,0.146l-0.146-0.882l0.296-1.62l-0.445-0.59
		l-0.439-0.885l-0.146-0.735l-1.18-0.886l-0.589,0.441l-0.147,0.884l-0.883-0.149l-0.736,0.885l0.146,1.035l-0.146,1.471
		l-0.593,1.621v0.146h-1.028l-1.034-0.881l1.625,0.146v-1.031l-0.739-0.44l0.148-0.444l0.591-0.146l-0.149-1.18l-0.296-0.44
		l0.74-0.295l0.143-0.885l-0.587-0.295l0.299-0.586l-1.774-0.299l-2.353,0.593l-0.149,0.438l-1.328,0.299l-0.292-1.03l-1.03,0.439
		l-4.42,0.591l0.145-1.03l0.591-0.445l-0.883-1.916l-0.294-1.619l0.146-0.882l0.44-0.594l0.149-0.735l-0.735-1.176l0.586-0.149
		l0.591,0.735l0.439,0.736l-0.735,1.033v1.476l0.595,2.058h0.731l1.769,0.593l1.032-0.44v-1.035h1.623l0.146-0.439l-1.033-0.591
		l0.148-0.439l0.44-0.149l2.21,1.325l0.147-0.295l-0.733-1.621l1.768,1.325l1.619-0.29v-0.591l-1.03-0.735v-0.736l-0.885-0.446
		l0.296-0.587h0.439l2.506,2.505l0.736,0.146l-0.736-0.882l0.146-0.736l-0.146-1.033l0.589,0.149l0.147,0.884l0.589,0.438
		l1.03,2.506l0.445,0.294l-0.445-2.501l-0.736-1.329l-0.443-2.942l-0.885,0.587l-0.884-1.326l-0.143-0.736l-0.886-0.443l0.591-0.735
		l-0.149-0.886l0.884,0.74l0.441,1.03l1.03,0.146l-0.439-1.176l-0.736-1.621l0.291-0.295h0.594l0.44,0.736l0.146,1.18l0.734,3.682
		l1.329,4.125l0.296,2.502l1.03,0.593l0.441,1.177l1.616,3.388l0.444-0.292l-1.03-2.801l-2.062-4.271l-0.884-2.801l-1.472-5.302
		v-0.886l-1.624-4.863l-0.438-1.619l-0.734-0.292l-0.889,0.735l-0.736-0.59l-0.735-0.146l-0.886-0.444l-1.18-0.292l-0.29,1.326
		h-1.476l-1.03,0.44l-0.149-1.329l-0.146-0.291l-1.77-0.735l0.145-0.591l-0.586-0.148l-0.884-0.736l0.299-0.881l-0.149-0.299
		l-0.296-0.881l-0.885,0.295l-0.587-0.295l-0.295-0.74l-1.471,0.147l-1.624-0.883v-0.295l1.326-0.145l0.298-1.18l0.437,0.149
		l-0.149,1.03l0.448,0.439l1.766,0.441l0.587-0.146l1.03,0.295l0.448,0.59l-0.152,1.176l0.589,0.591l1.621,1.03l0.885,1.325
		l0.441-0.291l1.769-0.591l0.591-0.738l-0.591-0.735h-0.589l-0.292-0.292l0.441-0.74l-0.296-0.294h-1.033l-0.441-1.03l-1.03-0.149
		l-3.391-3.093l-0.439-0.884l-0.591-0.442l-0.292-0.882l-0.593-0.442v-0.591l0.445-0.146l1.324,1.768l0.881,1.179l2.801,2.652h0.885
		l1.03-0.444l-0.148-0.441l-0.587-0.145l-0.735,0.29l-0.295-0.439l0.591-0.442v-0.441l-0.445-0.296l0.59-0.44l-0.145-0.442
		l0.586-0.147l0.589,0.885l0.591-0.295l0.589,1.474h0.292l0.299-2.358l-0.889-0.293l-0.583-1.033l-1.623-0.146l-0.441-0.441
		l0.441-0.295l2.064,0.295l0.142-0.737l-0.438-0.147h-0.735l-1.18-0.736l-1.325,0.147l-0.89-1.029l-0.145-1.18l-1.621-1.179
		l-1.176-1.178l-0.739-1.475l-0.736-0.442l-1.176-1.619l-0.294-0.737h0.146h0.59l1.325,2.21l1.325,0.738l0.59,1.176l1.03,0.737
		l1.625,1.326l0.44,1.324l0.881-0.293l0.445,0.736l1.619,0.147l-0.299-1.326l0.445-0.293l0.291-0.884l-0.438-0.738l0.146-0.588
		v-0.591l1.18,0.591l0.439-0.737l-0.149-0.884l-1.915-0.885l-1.47-1.03l-0.736,0.442l-0.296-0.737l-0.738-0.442v-0.442l-1.177-1.618
		h-0.444v0.439l-0.586-0.735h-0.444l-0.44,0.441l-0.734-0.736l-1.182-0.146l-1.915-1.031l0.149-0.442l-0.886-0.737l-0.589-1.176
		l0.295-0.445l-0.295-0.883l-0.292,0.148l0.292-1.473l0.589,0.294l0.591,2.209l0.736,0.442l0.294,0.589l1.03,0.294l-0.437-1.03
		l0.287-0.591l1.479,2.654l0.735-0.884l0.883,0.44v0.295l1.325,0.442l0.443,0.441v0.589l0.886-0.146l0.586,0.295l0.149-1.03
		l0.591,0.146l0.145,1.766h0.441l0.44,0.886l0.447,0.293l-0.153-1.325l0.299-0.735l-1.033-1.03l-0.146-1.18l0.295-0.441
		l-0.148-0.295l-1.768-0.296l-0.294-0.736l-2.651-2.502v-0.444l0.445-0.146l1.32,1.178l1.476,1.324l0.295,0.59l1.03,0.297
		l0.295-0.591l-2.501-3.979l0.146-1.177l-0.299-2.358l-0.441-0.884l0.886-0.882l0.149-0.442l-0.886-0.591l0.445-0.588v-0.737
		l0.291-0.296l0.59,0.739l0.295-0.443l-0.735-1.327l1.177,0.149l0.439-0.295l-0.146-0.59l-0.735-0.294l-0.591-1.18l1.032,0.443
		l0.294-0.591l-0.294-0.442h-0.591l-0.146-0.588l-0.735-0.146l-0.146-1.032l-0.889-0.145v-0.444l-0.441-0.588h0.885l0.292,0.295
		l0.444,0.439l1.326,0.298l0.149-0.149l-0.445-0.737l0.735-0.146l0.149-1.181l0.735,0.296v-1.179l0.591-0.147l0.291,0.885h0.447
		l0.295-1.031l0.733,0.294l0.148-0.885l1.03,0.149l0.59-1.328l-0.59-0.588l0.886-1.326l0.589-0.294l0.445,0.294l1.026-0.589
		l-0.591,2.209l1.917-0.884v1.178h-1.181l-0.146,0.591l-0.591,0.146l-0.147,0.736l0.884,0.296l-0.438,0.44l-2.064-0.146
		l-0.444,0.883h-0.586v0.59l-1.18,1.623l-0.444,1.471l0.589,0.59l0.149,0.884l0.296-0.146l0.149-0.591l0.736-0.297l0.589,0.149
		l-0.885,1.473l0.296,0.884l-1.034,0.885l0.298,1.766l0.291,1.768l-1.475-1.03l-0.441,0.295l-0.29,0.884l-0.441,0.589l0.146,0.293
		l1.616,0.296l0.297,0.737l1.324-1.033l-0.146,1.622l1.475,1.621h-0.885l-1.03-0.885h-1.472l-0.295,1.033l0.295,0.439l0.882-0.439
		l0.44,0.735l-1.176,0.146l-0.889,1.621l0.742,1.619l1.177,0.296l0.591,1.179l1.619,1.325l0.296-1.768l0.884-0.146l-0.289,0.879
		l0.885,0.884l0.149-1.03l0.736-0.885l0.146,0.295l-0.296,1.62l0.739-0.147v0.737h-0.889l-0.438,1.62l2.356-0.442l0.292,0.442
		l-1.177,0.441l-0.294,0.885l1.62-0.147v0.295l-1.768,1.03l0.587,2.062l0.595-0.881l2.646-0.296l0.149,0.588l-1.476,0.442
		l0.587,0.589l-0.291,2.358h-1.616l-0.445,1.915l-0.736,0.737l0.296,0.735l-0.889,0.294l-0.142,0.885l-0.296,1.768l-0.589,0.589
		l0.439,1.031l-0.735,0.883l-0.297,1.768l0.147,0.885l0.591,1.619l0.591,0.296v-1.03l0.883-1.915l0.441-1.475l0.885-0.735
		l-0.145-1.473l0.437-0.442l1.033-0.295l0.736-1.473l1.18-0.885v-1.029l0.732-1.771l1.918-2.945l0.292-1.914l1.034-1.328
		l0.438-1.324l1.918-2.946l0.441,0.59l-1.325,3.534l-1.322,1.916l-0.445,0.885l0.445,1.03l0.881-1.915l1.325-1.916l1.032-3.387
		l0.74-1.622l0.298-1.031v-1.179l0.587-1.324l-0.295-2.209l-1.474-0.296l-0.883,0.148v-0.737l1.032,0.295l0.443-0.737l-0.593-0.737
		l0.884-0.589l0.444,0.296l-0.146,0.589h0.736l-0.59-2.505l-1.77-0.59l-1.767-1.914l-0.294-1.18l-0.299-1.03l-1.173-2.209
		l0.146-1.031v-1.621l-0.59-1.326l-1.62-1.473l-1.03-1.916l0.294-1.62l-0.44-0.734v-1.326l0.732-0.59l0.594-0.147l-0.594,1.473
		l0.884,0.737l-0.29,1.766l1.616,1.621l0.444,0.885l1.027,0.442l0.593,1.03l0.886,0.148l1.176,1.03l0.739,1.03l1.03-0.586
		l1.325,0.735l1.031,0.147l0.587,0.588l-1.32,3.977l0.586,0.442l1.475-0.588l0.885-1.327l1.176-2.798l2.214-2.505l1.913-2.209
		l0.738-0.294l0.735-1.328l-0.294-1.62l1.18,0.147v-0.588l1.471-1.62l0.882-1.325v-1.769l0.739-1.325v-2.358l0.881-1.03v2.355
		l-0.437,1.622l0.145,0.587l0.441,0.149l0.885-6.629l0.146-1.033l0.738-2.208l-0.148-3.389l-0.735-0.588v1.179l-1.471-0.591h-1.625
		l-0.291-0.441l-0.739-0.294l-0.291-0.296l2.502-1.472l1.18-1.18l-0.735-1.177l1.616-3.096l0.886-1.473l0.589-0.442l0.146,2.21
		h0.443v-0.737l0.882,0.591l0.149-1.621l2.061-1.768l0.146-1.031l0.738,0.296l2.502-0.738l1.476-1.619l2.061,0.146l1.03-1.03
		l1.476,0.294l0.294-0.589l1.767-1.033l0.589-1.325h0.736l0.149,0.886l1.77-0.148l1.472,0.148l0.735-0.442l2.065,0.294l2.354-0.146
		l0.441-1.178l0.589,0.735l0.736,0.149l1.18-0.298V91.42l1.326,0.442l1.324-0.148l3.388-0.735l-0.295,0.735l1.03-0.294l3.98-1.327
		l0.149-0.442l0.731-0.294l-0.146,0.736l0.441,0.148l0.297-1.326l0.587-0.589l-0.44-2.061l1.03-1.771h0.591l0.734,1.473
		l-0.589,2.506l0.294,0.589l1.18,0.146l0.441-0.882l-0.146-0.736h0.586l0.148,0.884l1.322-0.738v-0.883h0.594l0.296,0.883
		l1.03-0.735h0.735l-0.146-0.884l0.736-0.59l1.179,0.296l0.441-0.738l1.03-1.915l0.886-0.44l0.44,0.147l0.736,0.293l-0.587,3.684
		l2.801-0.296l1.026-1.473l2.359-0.294l0.586,0.147l1.034-0.588l3.238,0.292l0.149,1.326l0.586-1.178l-0.438-1.768l0.438-0.884
		l-0.438-0.883l0.291-0.296l-1.325-3.683l-1.324-1.325l-1.621-0.296l-0.591,0.296l0.591,0.884l0.885-0.442l1.322,1.032l-0.288,1.473
		l0.882,0.146l0.439,1.473l-0.439,1.032l-4.714,1.473l-2.359-0.441l-1.03-0.885l-0.59-2.946l-1.471-0.44l-0.59-0.884l0.44-0.739
		l0.736,0.443l0.294-0.294l-0.586-1.324l-1.18-1.033l-0.146-1.177l-1.031-0.886l-1.033-0.147l-0.883-0.883l-0.298,1.325l-1.03-0.295
		l-0.882-0.735l-0.148-1.768l0.294-0.296l0.591-1.03l2.21-1.325l-0.444-0.445l0.146-0.587l2.655-0.588l0.295-0.591l-0.295-0.883
		l-1.767-1.032l-0.443-3.389l1.915-3.094l-0.296-0.588l0.296-1.031l1.03,0.146l0.736-1.766l0.294-1.18l1.18-2.358l1.325-0.441
		l1.326-1.619l-0.295-0.737l0.44-1.474l2.214-0.443l0.146-0.585l-1.181-1.327l1.476-2.211l1.176-0.883l2.211-0.884l0.295,0.589
		l1.324-0.735v1.913l0.736,1.326l0.298-0.146l0.292-0.738l-0.292-1.325l1.326-1.621l1.617,0.886l0.738-0.443V37.8l1.03,0.441
		l0.146,1.031h0.44l0.595-1.18l0.29-1.618l0.594-1.033l0.735,0.296l-0.299,0.737l0.595,0.293l0.585-0.59h1.181l-0.59,0.737
		l0.441,0.738l0.885-1.179l0.738-0.443v-0.59l1.03-0.442v-0.734l-0.443-0.738l1.175-1.915l0.299-1.03l0.587-0.588l0.445-1.326
		l-0.445-0.59l0.296-0.885l1.769-0.295l0.296-0.293l0.734-2.063l0.441,0.737v0.884l-0.739,1.621l0.889-0.591h0.59l0.587,0.885
		l-1.472-0.147v0.884l-0.736,0.146l0.143,0.591l2.065,0.294l0.589,1.03l0.295-0.441l1.62,0.441v-0.589l-0.589-0.591v-1.618
		l0.884-0.294l1.326-1.769v1.326l0.735,0.442l1.472-1.179v-0.885l0.888,0.885l0.882-1.18l0.739,1.18l0.587-0.294l0.443,0.587
		l-0.443,0.443l0.735,0.589v1.473l1.479-1.619l-0.299-1.179l0.439-0.59l0.591,0.736l0.738,0.59l0.441-1.03v-1.176l0.885-0.738
		l0.886-0.146l0.29,1.178l0.441,0.146l0.738-0.735l1.177,0.296l0.591-0.738l-0.146-1.032l0.735-0.44l0.735,0.59l0.295-0.737h0.736
		l-0.291,0.588l0.589,0.444l0.438-2.062h1.329l0.59,1.03l1.325-0.293l1.767-2.211l1.034-0.295l-0.149-1.324l-0.587,0.293
		l-0.589-0.736l-0.591,0.295l-0.885-0.442l0.146-1.179l1.62,0.148l0.148-1.179l-0.885-1.18l0.591-1.03l-1.329-1.768l-1.472-0.589
		l-0.881,0.884h-1.184l-1.173-2.211l0.586-1.913l-1.03-2.652l0.882-0.146l0.148-1.622l-0.294-0.44h-1.326l-2.21-0.59l-0.736-1.179
		l-1.03,0.295l-0.294-0.295l-0.591-0.442l0.295-1.913l0.445-0.442l-0.445-0.738l0.445-1.473l-0.149-22.243l-0.296-1.179
		l-1.767-1.473l-0.738-1.179L266.49-33.2h-2.797l-0.74,1.475l-1.766-0.296l-0.884,0.147l-0.735,0.737l-2.356,0.295l-2.506,1.031
		l-2.206-1.326l-0.149-3.683l-1.916-0.441l-1.03,0.148l-12.22,15.465l-0.735,2.944l-0.297,1.915l-0.883,1.473l-1.472,1.18
		l-1.625,3.093l0.885,1.031l-1.03,2.21v1.179l0.74,0.294l-0.74,1.914l-1.03,0.295l-0.735,0.884l0.145,1.473l-1.616,1.475
		l-1.034,0.147l-2.061,2.061l-0.59,0.886l1.475,2.063l-0.444,0.587l-1.62-0.587l-0.882,0.147l-0.443,3.239l-0.883-0.148
		l-0.738-1.766l-1.18,0.147l-1.177,0.736l-1.77,0.882l-1.548-0.558l-1.249,0.558l-0.949,0.493l0.363,0.98l-1.773,3.685h-6.184
		l-11.193,0.146l-10.462-0.146l-2.651,0.293l-11.048,0.296h-11.343l-1.476-0.442l-3.236,0.884L150.13,18.8l-7.804,6.968
		l-0.444,0.397l0.145,1.03l-0.885,1.179l-3.24,2.65l-5.306,2.801l-0.292,0.884l0.885,0.441l0.438,1.915v0.148h0.447l0.587-0.884
		l-0.587-0.444l0.295-0.588l1.618,0.736l-1.032,0.884l0.886,0.44l-0.149,1.033l-1.03,0.884l-0.736-0.441l-0.439,0.441l0.29,1.031
		l0.74,0.883l0.29,1.769v2.356l-1.03,1.178l-1.915-0.294l-1.325,0.442l-0.44,1.03l-1.18,0.148l-0.591,0.588l-1.176,0.885
		l-0.59,0.885l-1.916,0.588h-1.176l-1.034,1.032l-0.441-0.589l-3.389-0.295l-2.647,0.295l-2.359,0.736l-0.441,0.588l-0.294-0.735
		l-1.178-0.146l-2.064-1.474l-3.976-0.59l-1.472-0.148l-6.19,0.148l-1.027,0.147l-2.359,0.294l-2.796,0.589l-2.065,0.296
		l-0.735,0.439l-0.149,2.652l-0.735,0.886c0,0,0.111,0.111,0.236,0.237c0.018,0.02,2.122,0.392,2.122,0.392l0.402,0.396
		l-0.009,0.599l-0.653,0.605l-0.124,0.625l0.512,0.574l0.134,1.036l0.566,1.312l-0.231,1.33l-0.689,0.573l-2.016,1.028l-0.433,1.075
		l-0.853,0.894l-0.455,1.104l-0.931,0.146l-1.482,1.083l-1.194,0.523l-0.242,0.42l-0.721,0.449l-0.572,0.767l-1.278,1.003
		l-1.575,0.763l-1.681,1.221l-1.83,0.935l-1.173,0.399l-3.305,1.879l-0.42,0.096l0.353-0.541l0.738-0.232l-0.106-0.274l-0.24-0.01
		l-0.655,0.423l-0.473,0.756l-0.938,0.675l-2.938,1.479l-1.472,0.339l-0.68,0.476l-4.556,1.334l-1.972,0.891l-2.058,0.535
		l-5.071,2.193l-1.605,1.14l-0.959,1.013l-0.598,0.234l-0.707,0.811l-1.312,0.942l-1.45,0.785l-0.429,0.067l-1.014-0.293
		l-0.572,0.426l-0.271-0.011l-1.347-0.347l-0.846-0.413l-0.845,0.008l-2.307,0.57l-1.146,0.706l-2.089,0.272l-1.553,0.806
		l-0.765-0.256l-1.136-0.719l-1.048-0.964l-0.443-0.647l-0.054,0.243l0.198,0.371l0.92,0.966l-1.328-0.921l-0.373-0.05l-0.753,0.246
		l-0.693-0.614l-0.263,0.019l-0.494,0.525l-0.493,0.045l-0.697,0.411l-0.735-0.549l-0.256,0.333l-0.221-0.459l-1.069-0.132
		l0.11-0.206l1.297,0.095l0.571-0.495l1.368-0.163l0.602,0.209l0.447-0.294l1.475,0.061l0.117-0.104l-0.035-0.633l-0.342-0.17
		l-1.044,0.129l-0.253-0.306l-0.078-0.53l-0.352-0.239l-0.228,0.064l0.068,0.383l-0.207,0.357l-0.628,0.439l-1.11-0.054
		l-1.158-0.764L21.4,85.718l-2.651-1.195l-1.339-1.394l-0.42,0.328l-1.855-0.664l0.093-0.877l0.334-0.216l0.217,0.256l0.096-1.103
		l0.259-0.519l1.078-1.188l0.173,0.118l0.634-1.12l0.838,0.028l0.015-0.492l-0.207-0.485l0.448,0.133l0.285-0.127l0.448-1.015
		l0.322,0.375l-0.238-1.369l0.444-0.977c-0.014-0.015,0.632-2.517,0.632-2.517l0.797-1.175l1.56-1.188l1.223-0.263l0.843-0.668
		l0.443-1.275l-0.213-0.867l0.202-0.926l0.694-0.727l0.749,0.01l0.195-0.427l-0.548-0.556l-0.039-0.561l0.231-0.236l0.598-0.038
		l0.813-0.759l0.359-0.012L30,62.525l-0.277,0.779l0.326,0.449c0,0,0.037,0.051,0.084,0.117c0.251,0,0.977,0,0.977,0l0.59-5.154
		l0.881-1.621L31.7,53.414L31.11,48.7l-1.031-3.241l-0.148-2.505l-0.146-2.504l-2.356-4.124l-3.831-1.032l-3.976,1.62l-2.946,3.241
		l-0.885,1.915l-1.034,0.294l-2.797,2.797l-2.651-1.175l-1.62-2.801l0.735-2.651l1.18-1.915l2.651-0.146l1.472-1.327l0.294-1.916
		l0.886-2.061l1.328-0.149l1.472-1.619l0.441-3.535l0.589-4.124l-1.324-2.946l-1.621-2.505l0.586-1.621l2.21,0.591l-0.294-2.062
		l-1.617-1.622l-0.149-1.62l-1.62-1.471L8.72,5.98L5.175,5.394L4.144,3.332L2.819,2.743L0.755,2.596l-3.091-1.473l-2.947-1.474
		l-1.475,1.179l-1.617-0.442l-0.886,0.441l0.736,0.884l-2.65,2.208l0.589,2.651l1.913,1.622h-2.502l-4.125,1.913l-0.441,1.621
		l0.295,2.945l-0.44,2.946l-0.59,1.18l-0.882,1.619l-1.034,0.592l1.034-2.357l-0.153-1.474l0.299-0.885l-1.034,0.589l-1.03,3.535
		h-0.295l-0.146-1.473l1.033-3.83l-0.446-1.914l0.738-0.296l0.292-1.178l-1.913,1.178l-1.769,2.358l-1.472,1.768l-1.326-0.295
		l-1.032,1.179l-1.178,0.146v2.503l-2.945,1.771l0.441,2.061l-0.292,1.621l-0.591,3.241l-1.03,1.325l-0.738,2.503l-2.356,2.799
		l1.176,1.917l0.296,2.651v1.178l-1.617,2.061l1.321,3.979l3.245,7.22l0.881,7.069l-0.294,1.621l0.734,0.735l-0.291,0.442
		l-0.593-0.294l-0.733,4.86l-1.619,3.536l-4.566,7.659l-2.947,2.063l-1.769,1.179l-4.861,1.767l-1.915,0.148l-0.883-0.295
		l-2.214-2.063l-0.881-1.03l-0.44-1.326l-0.444-2.946l-0.587-1.474l-1.623-1.914l-1.03-2.503l0.589-3.241l-0.146-1.18l-0.149-2.504
		l0.441-0.885l0.295-2.208l-0.882-1.621l-0.148-2.355l-0.882-1.18l0.291-1.326l-0.44-2.355l0.295-2.653l1.472-2.946l0.443-1.473
		l1.18-3.683l-0.44-2.062v-1.325l0.287-2.799l1.035-2.21l2.062-1.18l-0.296-2.8l-0.146-1.178l1.177-3.535l1.479-2.356l1.03-2.799
		l1.911-2.21v-1.03l0.736-1.03l0.443-1.18l1.18-0.736l0.149-1.915l1.177-1.326V10.4l-0.885-0.295l-1.03,0.295l-0.591,0.591
		l0.296,1.03l-2.211,0.59v1.03l-0.735,1.473l-0.59,0.295l-1.03,2.505l0.295,0.737l-0.591,0.735l-0.294-0.735l-0.591-0.297
		l-0.439,0.59l-2.062,0.294l-2.356,3.831l-0.298,0.293l-2.211,1.033l-0.589,1.178l-1.472,0.296l-0.299-0.736l0.89-2.211l0.146-1.178
		l0.881-0.885l0.294-0.884l1.327-1.473l1.03-1.473l2.358-1.03l0.441-1.916c0,0,0.146-1.327,0.164-1.359l3.54-4.417l1.768-3.536
		l0.438-0.886l1.77-2.356l0.59-0.147l0.146-1.767l1.915-2.358l0.295,0.148l-0.589,1.622l0.149,2.65l1.911-0.589l1.325-1.767v-1.179
		l2.212,0.588l1.033-1.325l0.586,0.589L-35.61-0.09l-1.18,0.292l-0.291,1.327l-0.59,0.296l-0.15,0.736l1.622,0.736l0.144-1.031
		l0.594-0.737l0.882-0.293l0.736-0.736l1.18-0.739h0.884l0.437-1.031l0.295-1.473l0.888-0.736l2.502-0.443l1.475,0.149l1.47,0.442
		l0.74-0.591l3.532-0.147l2.801-2.355l2.8,0.146l3.536,0.736l2.061,0.59l1.179,1.621l1.323,0.295l0.294,0.882l1.327,0.591
		l0.443-0.443l-0.148-0.737l0.588-2.356l2.207,0.147l0.741,0.738l1.619-0.589l0.735,0.589l5.307,0.441h1.03l0.885-0.441v-0.443
		L6.373-5.542l-0.299-1.47L5.047-7.604l-2.21-0.882l0.735-1.032l-0.44-2.506l-0.886-1.618l-1.324-0.443l-3.537,0.884l-0.294-0.738
		l-1.472-0.441l-2.21,0.738l-2.801-0.591l-0.881-1.031l0.146-2.357l1.326-2.798l-3.092,0.295l-1.621,0.148l-3.244,1.324
		l-3.238-0.147l-2.21,0.295l-1.766-0.148l-0.74-0.147l-1.766,0.443l-1.915,0.146l-5.45,2.653l-2.947,2.503l-0.441-0.738
		l-1.475-0.441l-1.619,0.591l-2.502-1.915l-1.77,0.441h-0.441l-0.445,0.441l-2.941-0.147l-0.445-1.473l-1.034-1.178l-0.735-0.148
		l-0.587-1.325l-0.739-0.442l-0.146-1.473l-1.176-0.737l-4.275-1.474h-2.207l-1.919,0.148l-1.03,1.326l-0.59-0.147l1.18-1.472
		l0.885-0.737l-0.445-0.296l-2.356,1.77l-0.199,0.033"/>
	<polygon id="Nantucket_1_" class="st1" points="238.044,92.289 236.867,90.077 236.428,90.077 236.279,91.256 237.017,91.404
		236.279,92.289 234.952,91.991 234.216,92.582 235.688,92.877 237.607,92.877 	"/>
</g>
<g id="Canada">
	<polyline class="st1" points="8.15,-10.634 7.133,-10.548 6.862,-10.687 6.728,-10.257 7.382,-9.961 7.371,-9.236 6.191,-8.666
		5.737,-8.057 5.41,-8.145 5.111,-8.586 4.894,-8.581 4.57,-8.285 4.492,-7.575 4.698,-7.551 4.966,-7.892 5.254,-7.33
		5.584,-7.313 5.988,-6.839 6.202,-7.225 7.193,-6.887 7.99,-7.366 8.262,-7.324 8.604,-6.934 9.396,-6.839 10.018,-7.067
		10.277,-7.876 10.64,-8.434 10.585,-8.683 9.68,-8.852 9.013,-10.357 8.15,-10.634 	"/>
	<polyline class="st1" points="38.226,-8.97 38.125,-9.401 37.623,-9.237 36.593,-7.288 36.422,-6.668 36.677,-5.776 36.603,-5.422
		36.376,-5.504 36.248,-5.935 35.829,-6.162 35.612,-6.503 35.794,-8.605 35.238,-8.866 34.432,-8.703 34.556,-10.095
		33.703,-10.621 32.64,-10.416 31.553,-9.418 31.252,-8.953 31.299,-8.482 31.003,-7.347 30.658,-7.104 30.48,-7.359 30.484,-7.717
		29.624,-8.913 29.617,-9.325 29.414,-9.389 29.097,-8.938 28.778,-8.847 28.579,-9.077 28.544,-9.722 28.309,-10.214
		26.301,-9.346 25.992,-8.457 25.896,-8.422 25.925,-8.692 25.686,-8.913 25.343,-8.903 25.001,-8.167 24.269,-7.918 24.137,-7.565
		24.194,-7.343 24.756,-7.149 24.717,-6.728 25.115,-6.995 25.494,-6.782 25.515,-6.125 25.189,-5.373 25.047,-5.406 24.89,-6.074
		24.419,-6.303 24.23,-6.684 23.984,-6.682 23.557,-6.197 23.291,-6.389 23.273,-6.789 23.109,-6.921 22.395,-6.644 22.1,-6.328
		21.753,-6.292 21.373,-7.191 20.728,-7.333 20.31,-7.806 20.751,-9.237 20.634,-9.422 20.033,-9.33 19.759,-8.821 18.662,-8.7
		18.596,-8.266 18.16,-7.808 17.928,-7.836 17.631,-8.274 17.015,-8.361 16.568,-7.411 16.194,-7.679 16.012,-8.195 15.119,-8.298
		14.582,-7.461 14.478,-6.78 14.617,-6.363 14.93,-6.222 16.167,-6.378 16.685,-6.268 17.233,-5.885 17.627,-6.053 18.01,-5.705
		18.424,-5.67 18.774,-5.885 19.002,-5.652 18.938,-5.246 20.2,-5.016 20.588,-5.366 20.839,-5.16 21.174,-5.24 21.714,-4.991
		22.008,-5.305 22.464,-5.006 22.904,-5.3 23.81,-4.675 25.388,-4.54 26.465,-3.648 26.887,-3.612 27.635,-3.859 28.028,-3.77
		28.569,-3.54 28.743,-3.131 29.372,-3.302 29.727,-2.764 30.359,-2.622 30.832,-2.2 32.251,-2.139 32.35,-1.971 32.24,-1.62
		32.758,-1.509 32.716,-1.264 32.868,-1.243 33.701,-1.542 33.952,-2.243 34.71,-2.656 35.402,-3.798 35.913,-4.307 37.125,-4.834
		37.335,-4.357 36.72,-3.922 36.514,-3.37 35.761,-2.793 35.363,-1.934 35.139,-1.933 35.235,-2.422 35.071,-2.486 33.941,-1.38
		34.543,-1.28 34.703,-1.736 34.968,-1.546 35.192,-1.042 36.021,-0.761 36.77,-1.176 37.484,-2.622 37.989,-2.855 37.911,-3.174
		38.075,-3.661 38.802,-4.939 38.596,-5.195 39.134,-5.704 39.465,-6.467 39.493,-7.276 39.347,-7.447 38.572,-7.077 37.698,-7.039
		38.308,-8.473 38.226,-8.97 	"/>
	<polyline class="st1" points="12.718,-8.588 12.301,-8.731 11.462,-8.282 11.277,-7.619 10.772,-7.22 10.673,-6.14 11.11,-6.311
		12.597,-5.7 13.299,-6.169 13.868,-6.977 13.846,-7.911 13.665,-8.167 13.121,-8.113 12.718,-8.588 	"/>
	<polyline class="st1" points="3.356,-14.324 2.83,-14.351 2.442,-14.581 1.789,-14.214 1.131,-14.262 0.705,-14.6 0.473,-14.38
		1.131,-12.48 2.239,-11.49 3.445,-9.479 3.903,-9.757 4.127,-10.129 4.045,-11.383 4.33,-11.532 4.912,-11.184 5.303,-11.166
		5.303,-11.742 5.492,-12.157 5.434,-12.626 5.6,-12.948 5.421,-13.201 5.083,-13.07 4.766,-13.333 4.542,-13.853 4.287,-13.892
		4.049,-13.673 3.356,-14.324 	"/>
	<path class="st1" d="M212.288,15.265l1.773-3.685l-0.363-0.98l0.949-0.493l1.249-0.558l1.548,0.558l1.77-0.882l1.177-0.736
		l1.18-0.147l0.738,1.766l0.883,0.148l0.443-3.239l0.882-0.147l1.62,0.587l0.444-0.587l-1.475-2.063l0.59-0.886l2.061-2.061
		l1.034-0.147l1.616-1.475l-0.145-1.473l0.735-0.884l1.03-0.295l0.74-1.914l-0.74-0.294v-1.179l1.03-2.21
		c0,0-0.803-0.936-0.879-1.024c0.126-0.23,1.619-3.072,1.619-3.072l1.472-1.18l0.883-1.473l0.297-1.915l0.735-2.944l12.22-15.465
		l1.03-0.148l1.916,0.441l0.149,3.683l2.206,1.326l2.506-1.031l2.356-0.295l0.735-0.737l0.884-0.147l1.766,0.296l0.74-1.475h2.797
		l4.271,3.536l0.738,1.179l1.767,1.473l0.296,1.179l0.149,22.243l-0.445,1.473l0.445,0.738l-0.445,0.442l-0.295,1.913l0.591,0.442
		l0.294,0.295l1.03-0.295l0.736,1.179l2.21,0.59h1.326l0.294,0.44l-0.148,1.622l-0.882,0.146l1.03,2.652l-0.586,1.913l1.173,2.211
		h1.184l0.881-0.884l1.472,0.589l1.329,1.768"/>
	<path class="st1" d="M142.325,25.769l7.804-6.968l4.566-2.505l3.236-0.884l1.476,0.442h11.343l11.048-0.296l2.651-0.293
		l10.462,0.146l11.193-0.146h6.184"/>
	<path class="st1" d="M284.891,13.624c0.671-0.047,0.671-0.047,0.671-0.047c0.333,0.474,0.463,0.546,0.52,0.52
		c0.163-0.073-0.262-0.951,0.074-1.263c0.135-0.125,0.303-0.076,0.966,0c1.204,0.139,1.337,0.057,1.486,0.223
		c0.425,0.472-0.213,1.604,0,1.709c0.173,0.085,0.524-0.698,1.041-0.669c0.439,0.024,0.552,0.61,0.966,0.595
		c0.36-0.013,0.411-0.46,0.892-0.595c0.403-0.113,0.522,0.158,0.966,0.149c1.022-0.02,1.932-1.486,1.932-1.486
		c0.327-0.044,0.78-0.051,1.041,0.223c0.418,0.439,0.021,1.264,0.297,1.412c0.291,0.156,0.698-0.777,1.784-1.115
		c0.685-0.213,1.115-0.025,1.412-0.372c0.313-0.364,0.062-1.023,0.149-1.041c0.088-0.018,0.157,0.672,0.519,0.819
		c0.337,0.136,0.814-0.247,1.18-0.612c-0.162-0.216-0.192-0.498-0.075-0.717c0.15-0.281,0.52-0.417,0.86-0.287
		c0.12-0.205,0.429-0.664,0.983-0.819c0.072-0.02,0.551-0.155,0.697,0.041c0.132,0.177-0.136,0.451,0,0.819
		c0.019,0.05,0.083,0.225,0.246,0.328c0.346,0.219,0.723-0.144,1.27,0c0.19,0.05,0.33,0.143,0.41,0.205
		c0.579-0.665,1.147-1.024,1.557-1.229c1.843-0.922,3.894-0.43,4.256-1.337c0.109-0.274,0.034-0.596,0.299-0.789
		c0.257-0.187,0.473,0.01,0.838-0.12c0.463-0.164,0.47-0.606,0.958-1.078c0.273-0.264,0.545-0.379,1.078-0.599
		c0.568-0.234,1.467-0.542,2.694-0.719c-0.126,3.429-0.252,6.857-0.378,10.286c-0.965,0.55-1.938,1.118-2.919,1.703
		c-1.894,1.13-3.719,2.268-5.473,3.406c-0.646,0.914-0.543,1.148-0.486,1.216c0.215,0.26,1.222-0.111,1.82-0.425
		c0.52-0.273,0.746-0.509,0.855-0.427c0.156,0.117-0.031,0.796-0.45,1.253c-0.494,0.54-1.512,0.992-2.312,0.514
		c-0.584-0.349-0.737-1.006-0.771-1.174c-1.896,1.431-3.792,2.862-5.688,4.294c-0.219,0.464-0.555,1.076-1.064,1.725
		c-0.434,0.553-0.781,0.861-0.734,0.917c0.061,0.073,0.747-0.306,1.284-0.881c0.465-0.497,0.711-1.025,0.844-1.395
		c1.003-0.758,2.006-1.517,3.009-2.275c0.44-0.061,0.881-0.122,1.321-0.183c-0.022,0.171-0.081,0.435-0.257,0.697
		c-0.423,0.63-1.16,0.721-1.284,0.734c-0.954,1.162-1.908,2.324-2.862,3.486c-0.014,0.704-0.111,1.684-0.477,2.789
		c-0.289,0.874-0.663,1.574-0.991,2.092c0.285,0.3,0.787,0.914,1.028,1.835c0.382,1.462-0.166,2.665-0.333,3.001
		c0.11,0.442,0.385,1.296,1.111,2.112c0.608,0.682,1.269,1.043,1.667,1.222c0.111-0.593,0.222-1.185,0.333-1.778
		c0.37,0.296,0.741,0.593,1.111,0.889c0.37-0.37,0.741-0.741,1.111-1.111c0.259,0.704,0.519,1.408,0.778,2.112
		c-0.106,0.355-0.277,1.123,0,2c0.126,0.4,0.364,1.154,1.111,1.556c0.078,0.042,0.962,0.501,1.667,0.111s0.644-1.306,1-1.334
		c0.555-0.044,0.997,2.159,1.445,2.112c0.45-0.048,0.359-2.317,1-2.445c0.486-0.097,0.985,1.118,1.334,1
		c0.396-0.133-0.271-1.691,0.445-2.556c0.602-0.728,1.633-0.299,3.334-0.778c1.184-0.333,2.044-0.923,2.556-1.334l-2.496-76
		l-1.782-7.876l-2.571,1.319l-1.385,1.187l-1.055,0.264h-1.319l-1.055-0.659l-0.396-1.549l-0.791-1.617l-0.923-1.055l-0.923-0.396
		h-3.561v-0.659l-3.429-1.055l-1.451-0.659v-0.929h-1.714l-0.396,0.664l-4.22,1.319l-1.187-0.396l1.583-0.396l3.297-1.192
		l0.132-1.05l2.506,0.132l0.923,0.918v-1.05h2.901l1.055,0.396l2.506-2.374l1.978,1.978h1.055l2.242,1.05h1.055l1.978,1.324h1.846
		l1.319-0.264l-0.179-14.826l-46.506-0.42l-0.813,1.286l-0.58,0.618l-0.696-0.618l-1.16,0.966l-3.828,2.32l-1.392,1.16l-2.552,1.508
		l-1.508,0.58l-1.044,0.464l-4.872,4.524l-2.32,1.856l-2.436,1.044l-1.508,2.668l-0.696,1.74l-1.16,1.083l-1.392,1.585l-1.276,1.74
		l-1.16,0.696l-0.58,0.928l-1.624,0.58l-0.857,2.088l-0.731,1.392l-1.183,0.348l-0.825,1.044l-1.74,2.552l-0.812,0.812l-1.624,2.088
		l-1.74,0.464l-1.624,1.044l-2.388,0.696l-1.904,1.392l-3.364,0.464v-0.58h0.696l2.552-0.464l1.16-1.044l1.392-1.624l0.58-1.16
		l2.056-2.784l1.076-1.972l0.58-1.392l0.928-1.044v-1.178h1.508l1.856-0.562l1.637-1.392l0.799-2.32l1.74-1.392l1.289-1.044
		l1.263-1.856l0.696-0.928l0.812-0.928v-0.928l0.464-1.16v-1.173l0.464-0.914l0.464-0.58l1.16-1.044l1.972-1.624l1.508-1.16
		l0.696-0.928l1.276-2.088l0.812-1.624l0.464-1.392h0.928h0.778l0.802-0.464v-1.082v-0.943L-34.185-63.13H-63.5v2.666l0.779,0.23
		l1.361-2.302l25.775,0.039l-0.235,0.552c0.011,0.015,0.512,0.273,0.512,0.273l0.512,0.562l0.341,1.8l0.476,1.258l-0.053,0.259
		l0.294,0.427l0.338,0.111l-0.103,0.421l0.185,0.381l-0.043,0.491l0.427,0.612l0.504,1.508l0.491,0.395l0.089,0.594l0.306,0.565
		l1.025,1.204l0.13,0.447l1.076,0.537l0.017,0.427l0.413,0.073l0.576,0.88l0.359,0.253l0.944,0.448l1.785,0.449l1.574-0.028
		l1.941-0.079l1.727-0.84l4.31-0.614l1.173-0.021l0.309,0.413l0.198-0.374l0.669,0.226l0.142,0.68l-0.523,0.509l-0.354,0.764
		l-0.37,0.17l-0.046,0.631l0.479,0.573l0.274,0.04l-0.032,0.122l-0.597,1.11l-0.132,0.168l-0.362,0.023l-0.214,0.387l0.406,0.748
		l-0.518,0.7l0.066,0.745l-0.33,0.01l0.008,0.11l0.338,0.4l0.883,0.527l0.121,0.596l0.463,0.421l1.56,0.505l1.612,1.114l0.232,0.369
		l0.113,0.706l0.331,0.276l0.611-0.065l0.884,1.584l-0.082,0.23l-0.649,0.527l-0.342,0.942l-0.468,0.564l0.124,0.558l-0.498,0.533
		l0.403,0.762l-0.942,1.364l0.123,0.568l-0.194,0.266l0.074,0.456l0.949,0.582l0.782-0.164l0.498,0.82l0.421,0.325l0.321-0.065
		l-0.068-0.565l0.31-0.315l0.813,0.249l1.009-0.249l1.336,0.822l0.182,0.273L-4.37-26.11l0.021,0.372l-0.352,0.393l-0.262,0.013
		l-0.47-0.309l-0.532-0.003l-0.964,0.634l0.156,0.421l-0.142,0.624l0.103,0.459l-0.342,0.42l0.385,0.788l0.388,0.061l0.273-0.987
		l0.243-0.37l0.219-0.072l0.349,0.281l0.412,1.006l-0.726,0.607l-1.307,1.88l-0.236,0.536l0.122,0.581l0.764,0.479l0.353,0.651
		l0.642,0.1l0.072-0.571l0.409-0.172l0.326-0.434L-4-18.67l0.393-0.173l0.932,0.242l0.504-0.194l0.783-0.714l0.476-0.085
		l0.238,0.219l0.593-0.064l0.76,0.873l-0.465,2.732l0.167,0.284l0.863,0.622l0.762,0.067l1.826-0.414l0.33,0.828l1.57-0.179
		l1.035,0.52l1.432-0.445c-0.015-0.003,0.807,0.698,0.807,0.698l0.479-0.237l4.748,0.836l0.533-0.161l0.469,0.311l0.719-0.29
		l0.695,0.35h1.063l0.465-0.414l0.822,0.141l0.398-0.187l0.411,0.049l0.737-0.413l1.162-0.063l1.112-0.63l0.046,0.194l-0.76,0.55
		l-0.058,0.273l0.239,0.205l2.249-0.542l0.975-0.648l0.137,0.034l-0.032,0.339l0.199,0.109l0.445-0.293l1.237-0.115l0.081,0.253
		l-0.856,0.077l0.134,0.268l0.238-0.028l0.741,0.354l0.432-0.307l0.78,0.109l0.528,0.386l0.906,0.156l0.366-0.394l2.143,0.442
		l2.545-0.361l0.384-0.186l0.77,0.04l0.1,0.157l-0.817,0.863l0.202,0.915l0.174,0.132l0.263-0.863l-0.145-0.353l1.205-0.375
		l0.013-0.782l0.474-0.248l0.267,0.33l1.014,0.23l-0.14,0.307l0.19,0.354l-1.399,0.612l-0.828,0.479l-0.026,0.191l1.671-0.792
		l1.223-0.155l-2.043,0.824l1.169,0.05l-1.379,1.311l0.007,0.166l2.502-1.926l0.056,0.22l-0.256,0.674l0.217,0.109l0.768-0.549
		l1.454,0.267l0.653-0.037l0.866,0.252l0.306-0.285l0.417,0.02l0.102-0.377l0.353-0.394l-0.132-0.172l-0.362,0.035l-0.597,0.602
		l-0.058-0.17l0.309-0.448l0.275-0.177l0.582-0.066l0.238,0.492l-0.404,1.157l0.489,0.286l0.417-0.499l0.606-0.061l0.463-0.296
		l1.173-0.006l0.596,0.194l0.615-0.405l0.568,0.482l0.513-0.218l0.213-0.388l0.214,0.903l0.219-0.028l0.149-0.459l0.274,0.053
		l0.537,1.331l0.892,0.171l-0.035,0.173l-0.477,0.087l-0.06,0.311l0.725,0.148l0.212,0.506l0.37,0.238l-0.032,0.618l0.175,0.404
		l0.82,0.687l-0.244,0.209l0.128,0.157l0.344-0.01l0.032,0.468l0.455,0.31l0.199-0.098l0.387,0.211l-0.06,0.628l0.309,0.156
		l0.128,0.47l0.728-0.441l0.566-0.082l-0.37-0.842l0.494,0.355l0.178,0.546l0.291,0.301l0.085,0.745l-0.189,0.443l0.117,0.886
		l0.292,0.56l0.413,0.214l0.092,0.323L59.01-1.034l0.307,0.428l0.246,0.039l0.085-0.365l-0.27-0.84l0.491,0.11l0.021,0.88
		l0.373,0.526L60.51-0.19l0.393-0.185l0.299,0.443l0.39-0.172l0.647,0.062l0.011-0.206l-0.539-0.523l0.337-0.57l0.54-0.343
		l0.511,0.026l0.608,0.456l0.011,0.387l0.429,0.46l0.093,0.596l-0.536,1.012l-0.598,0.6l-0.043,0.231l0.356,0.403l-0.053,0.257
		l0.149,0.31l0.181-0.032l0.129-0.335l0.368-0.23l0.203,0.382l0.47,0.026l0.113,0.456l0.326,0.129l0.161,0.282l-0.36,0.557
		l-0.547,0.163l-0.667-0.116l-0.037,0.162l0.495,0.299l-0.121,0.199l0.384,0.377l0.842,0.167l0.224,0.779l1.013,0.22l0.053,0.728
		l0.463,0.709l0.638-0.378l0.687,0.381l0.004,0.656l0.642,0.214l-0.021,0.382l-0.26,0.165l0.786,0.287l-0.11,0.776l0.529,0.246
		l0.224-0.042l0.37-0.708l-0.124-0.308L70.149,9.31l0.775-0.411l0.181,0.803l-0.429,0.637l-0.064,0.641l0.329,0.262l0.502,0.014
		l0.228,0.355l-0.548-0.044l-0.654,0.365l-0.402-0.35l-0.368,0.212l-0.481-0.271l-0.934,0.186l-0.035-0.674l-0.21-0.247
		l-0.238-0.064l-0.597,0.243l-0.015-0.249l0.307-0.586l-0.534-0.37l-0.612,0.09l-0.454,0.264l-0.512,1.03l-0.526-0.179l-0.188,0.1
		l-0.092,0.777l0.139,0.706l1.243,0.339l0.796,0.576l0.092,0.333l-0.164,1.035l0.31,0.951l0.071,0.757l-0.217,0.74l-0.938,1.365
		l-0.622-0.059l-1.77-0.78l-0.898,0.024l-2.285-0.367l-0.943-0.733l-1.506-0.203l-0.498-0.56l-0.213-0.916l-0.39-0.763l-0.217-0.106
		l-1.433,0.241l-0.884,0.57L53.87,15.4l-1.301,2.211l-0.139-0.038l-0.078-0.333l0.574-3.247l-0.257-0.742L52.5,13.122l-1.481-0.064
		l-0.645,0.364l-1.013,1.099l-0.27-0.11l0.234-0.798l0.842-0.601l0.406-0.538l0.312-0.767l-0.249-1.026l0.707-0.829l0.025-0.233
		l-0.515-0.093l-0.844,0.285l-0.122,0.46l0.29,0.165l-0.528,0.686l-0.235-0.013l-0.039-0.33L49.13,10.71l-0.392,0.352l-0.318,0.062
		l0.446-0.62L48.902,10l-1.376-0.085l-0.144-0.146l0.253-0.494l-0.289-0.316l-0.309,0.066l-0.132,0.459L46.604,9.37l-0.281-0.698
		l-0.171-1.49l-0.768-0.603l-0.277-0.453l-0.106-0.459l0.646-1.048l-0.144-0.541l-2.627,0.52L41.68,4.494l-1.388,0.164l-0.185-0.122
		l0.143-0.335l-0.111-0.046l-0.93,0.322l0.074,0.441l-0.349,0.395l0.011,0.261l0.249,0.065l0.067,0.223l0.672-0.168l0.181,0.271
		l0.47-0.046l0.28,0.179l0.334-0.283L41.07,6.728l0.395,0.089l0.341,0.538l0.433,0.187l0.228,0.492l0.831,0.701l0.601,1.374
		l0.189-0.374l0.304,0.154l0.325-0.27l0.262,0.189l-0.128,0.351l0.36,0.005l-0.157,1.142l0.394,0.913l0.391,0.171l0.153,0.832
		l0.625,0.197l-0.071,0.557l0.298,0.319l0.217,1.423l-0.351,0.366l0.579,0.771l0.082,0.867l-1.411,2.451l-0.252,1.657l-1.102,0.48
		l-0.86,1.613l-0.519,0.193l-0.135,0.5l0.135,1.09l-0.23,1.222l-0.644,1.765l-0.8,0.848l-0.238,0.549l0.881,3.2l0.378,5.463
		l0.902,4.149l-0.079,1.86l-0.329,1.284l-1.983,2.242l-1.841,1.236l-0.886,1.804l-1.452,1.366L33.238,54.3l-0.135-0.105l-0.95,1.11
		l0.428,1.789L31.7,58.715c0,0-0.54,4.714-0.587,5.125l-1.064-0.088l-0.205,0.587l0.342,0.421l-0.402,0.177l-0.277,0.369l0.402,0.27
		l0.316,0.562l0.965,0.038l0.637,0.372l0.416,0.026l0.192,0.364l0.54-0.386l0.217,0.045l0.011,0.613l-0.182,0.319l0.334,1.532
		l-0.679,0.987l-0.562,0.51l-0.341,0.071l-1.333-0.216l-0.98,0.243l-2.093-0.195l-3.021-0.903l-0.832,0.475l-0.867-0.023
		l-0.649,0.808l-0.268,0.901l-0.109,1.389l-0.47,2.304l0.195,0.354l1.865,0.88l0.9,0.723l0.745,0.208l1.021-0.005l2.206-0.984
		l1.159,0.062l0.508,0.316l0.683,0.793l0.732,1.686l0.4-2.381l0.58-1.017l0.64-0.753l1.062-0.709l2.267-0.898l2.18-1.264
		l1.108-0.246l1.677,0.088l-0.125-0.267l0.171-0.321l1.041-0.701l-0.063,0.59l-0.59,0.788l0.149,0.199l0.462-0.149l0.245-0.162
		l0.195-1.396l0.501-1.122l0.936-0.902l1.634-1.175l0.353-0.525l1.314-1.172l1.854-1.098l0.687-0.147l0.813-0.548l0.789-0.278
		l2.754-0.236l1.759,0.29l2.16,0.1l1.653,0.517l1.674,0.768l2.732,0.858l2.342-0.02l1.771,0.515l1.279,0.047l1.104,0.324
		l1.218-0.262l-1.428-0.444l-1.087,0.046l-1.635-0.261l-0.469-0.227l-0.146-0.282l-1.465,0.04l-0.267-0.193l0.043-0.492l0.505-0.635
		l0.813-0.534l0.128,0.058l-0.018,0.307l0.334-0.029l0.391-0.958l1.407-1.405l0.699-0.343l1.272,0.058l1.536-0.34l0.7,0.073
		l1.045-0.354l1.192-0.031l1.898-0.81l0.385,0.024l0.938,0.448l0.913-0.341l0.63,0.211l0.283-0.169l0.637,0.146l0.55-0.583
		l1.753,0.255l1.076-0.296l1.648,0.065l0.89,0.354l0.309,0.448l0.188,0.035l0.089-0.478l0.359-0.015l0.427-0.338l0.528,0.065
		l1.052-0.298l0.452-0.748l-0.281-0.598l-0.749-0.235l-0.991-1.041l0.162-1.091l-0.76-0.567l0.007-0.242l0.231-0.222l0.787-0.811
		l0.149-2.652l-0.168-0.033l-4.034,1.653l-0.64,0.142l-1.069-0.495l-2.374-0.104l-2.267-0.982l-0.775-0.575l-0.292-0.939
		l0.285-0.818l0.768-0.642l1.566-2.096l0.313-0.552l0.071-0.885l0.338-0.492l0.692-0.527l0.576-0.089l0.753-1.108l1.678,0.164
		l0.426-0.56l0.803-0.359l1.76-1.49l0.771-0.378l0.771-1.056l0.957-0.063l1.415-0.756l0.632,0.245l0.738,0.009l0.783-0.361
		l1.144,0.097l2.207-0.659l1.854,0.264l0.769-0.356l2.885-0.792l1.589,0.011l1.062-0.268l1.216,0.001l0.749-0.2l0.913,0.096
		l1.792-0.702l0.646,0.019l0.612,0.379l0.753,0.017l-0.011-0.26l-0.491-0.007l-0.426-0.265l0.545-0.381l0.24,0.017l0.203,0.236
		l1.226-0.179l0.281,0.339l0.657,0.147l0.018,0.277l-0.696,0.073l1.472,1.401l2.408-0.509l0.523,0.072l0.206,0.255l0.561-0.323
		l0.117,0.046l-0.06,0.243l-0.54,0.369l-0.455-0.371l-0.246,0.025l0.605,0.907l0.213,0.074l1.709-0.932l-0.054,0.318L118.676,39
		l0.384,0.281l0.424-0.125l0.372,0.41l0.377,0.008l0.906-0.578l2.704-1.11l1.01-0.181l-0.021-0.231l-0.228-0.085l-1.119,0.211
		l-1.142-0.243l-0.419,0.582l-0.159-0.396l0.248-0.598l0.312-0.154l-0.018-0.405l1.617-0.846l0.244-0.77l0.754-0.634l0.043-0.346
		l-0.327,0.073l-1.849,1.336l-0.653,0.138l-1.112-0.232l-0.571,0.502l-0.016-0.248l0.825-1.445l0.011-0.73l0.225-0.674l-0.149-0.152
		l-0.487,0.255l-0.579,0.065l-0.633,0.393l-1.208,0.041l-0.636,0.632l0.532,0.136l-0.043,0.118l-0.842,0.277l-0.327-0.124
		l0.355-0.674l-0.245-0.121l0.451-0.304l-0.139-0.178l-1.507,0.172l-1.212,0.459l-1.484,0.908l-0.195-0.089l0.031-0.138l0.484-0.711
		l1.253-0.16l2.374-1.048l0.455,0.297l1.209-0.472l0.554,0.554l2.413-0.968l0.473-0.009l0.195,0.105l-0.061,0.128l-0.395,0.173
		l-0.267,0.395l-0.082,1.016l0.416-0.155l1.508-1.294l0.646,0.423l-0.407,0.372l-0.48-0.107l-0.889,0.427l-0.323,0.479l-0.859,0.681
		l0.163,0.152l0.512,0.039l-0.296,0.534l0.968-0.233l0.482-0.242l0.431-0.567l1.305-0.997l1.48-0.661l1.084-0.708l0.353-0.016
		l0.562-0.334l0.344,0.289l1.682-0.14l0.386-0.624l0.223,0.027l0.071,0.329l0.214-0.073l1.706-0.922l0.568-0.552l1.479-0.406
		l0.398,0.084l0.813-0.299l0.71-0.527l0.938-0.054l0.88-0.399l0.87-0.67l1.759-1.99l0.509,0.337l-0.082,0.271
		c0,0-0.037,0.123-0.075,0.247c0.245-0.219,0.49-0.438,0.49-0.438"/>
	<polyline class="st1" points="34.711,-12.102 34.721,-12.32 33.974,-12.496 33.808,-12.203 33.693,-12.387 32.252,-11.983
		32.209,-11.492 32.469,-11.147 32.819,-11.199 33.343,-10.964 33.603,-11.145 34.277,-11.15 34.704,-10.814 34.892,-11.241
		34.654,-11.72 34.711,-12.102 	"/>
	<polyline class="st1" points="23.22,-8.832 23.108,-9.224 22.4,-9.259 21.515,-9.017 21.128,-8.669 21.175,-8.212 20.762,-8.261
		20.72,-8.017 21.181,-7.87 21.41,-7.638 22.194,-7.625 23.054,-8.24 23.22,-8.832 	"/>
	<polyline class="st1" points="86.924,46.646 85.861,46.81 85.979,47.269 85.738,47.64 85.915,48.172 86.843,48.642 86.984,48.65
		87.113,47.78 87.598,47.187 87.397,46.796 86.924,46.646 	"/>
</g>
<path id="ProclamationLine_1_" class="st2" d="M285.334,18.931l-0.589-0.736l-0.591,0.295l-0.885-0.442l0.146-1.179l1.62,0.148
	l0.148-1.179l-0.885-1.18l0.591-1.03l-1.329-1.768l-1.472-0.589l-0.881,0.884h-1.184l-1.173-2.211l0.586-1.913l-1.03-2.652
	l0.882-0.146l0.148-1.622l-0.294-0.44h-1.326l-2.21-0.59l-0.736-1.179l-1.03,0.295l-0.294-0.295l-0.591-0.442l0.295-1.913
	l0.445-0.442l-0.445-0.738l0.445-1.473l-0.149-22.243l0.074-23.098c0,0-3.803,0.622-4.673,0.87s-2.361,0.373-3.978,0
	s-4.474,0.124-6.835,1.74s-4.351,2.983-6.463,3.356s-5.593,2.734-8.7,5.717s-4.102,3.977-4.474,7.084s-2.113,4.226-4.848,5.344
	s-2.734,4.35-3.355,6.462s-3.107,2.983-3.978,4.599c0.526,2.969-2.378,5.356-1.411,7.556c0.968,2.202-0.426,4.769-0.437,6.194
	c-0.014,1.424-0.786,2.406-1.94,2.45c-1.155,0.043-0.58,2.377-2.523,4.828c-1.944,2.447-3.168,1.47-4.396,1.232
	c-1.227-0.236-3.313,1.597-5.881,6.091c-2.56,4.494-4.762,9.071-9.494,9.752c-3.245,0.464-6.248,12.119-8.385,18.242
	c-2.139,6.124-7.846,6.071-10.471-0.478c-2.63-6.548-4.426-14.353-8.754-8.686c-4.327,5.667-10.774,9.174-15.923,14.664
	c-5.149,5.496-5.604,19.966-12.747,21.331c-7.143,1.363-15.312-4.631-19.041-4.556c-3.734,0.074-8.709,4.75-6.344,9.815
	c2.368,5.066,3.956,7.9-1.37,10.391c-5.324,2.495-6.099,3.476-8.327,7.29c-2.228,3.82-10.344,11.088-10.021,17.188
	c0.775,14.731,0.178,21.675-5.917,27.259c-5.142,4.709-2.878,8.251-4.484,17.673c-0.639,3.748-5.611,2.923-5.729,11.685
	c-0.082,5.933-4.69,7.573-6.616,13.185c-1.645,4.798-2.815,16.552-11.51,18.161c-8.693,1.606-17.207,6.472-21.081,11.655
	c-3.87,5.196-1.34,9.485-9.417,10.732c-8.084,1.248-13.635,1.504-14.104,7.488c-0.877,11.393-7.203,9.85-6.819,13.144
	c0.381,3.298,1.699,17.499-0.156,22.25c-1.852,4.758-1.684,9.075,2.602,13.181c4.278,4.114,10.434,10.544,10.928,15.359
	c0.49,4.813,5.64,15.411,12.124,20.255"/>
<g id="Massachusetts">
	<polygon id="Vineyard" class="st3" points="229.504,90.518 229.799,89.635 229.504,89.49 228.47,89.93 228.18,88.899
		227.145,88.753 227,88.31 225.819,88.899 224.349,90.814 223.758,90.665 223.465,90.963 223.758,91.698 224.495,91.698
		225.969,90.814 228.033,90.963 	"/>
	<polygon id="Nantucket" class="st3" points="238.044,92.289 236.867,90.077 236.428,90.077 236.279,91.256 237.017,91.404
		236.279,92.289 234.952,91.991 234.216,92.582 235.688,92.877 237.607,92.877 	"/>
	<path class="st3" d="M216.496,62.535l-32.913-0.291c0,0-0.092,0.362-0.186,0.729l-1.326,3.977l-2.505,9.574h7.513l0.589,0.147
		h3.093l0.144,0.739h1.035l0.15-0.739h3.83h6.183l0.589,0.149l5.008-0.149v0.59l4.861-0.294l1.621-0.147l0.294,0.884l0.885,4.272
		l2.651,0.737l0.146,0.588l0.735,3.536h0.594l0.296,0.882l1.03-0.735h0.736l-0.147-0.884l0.736-0.59l1.179,0.296l0.442-0.738
		l1.03-1.915l0.886-0.44l0.44,0.147l0.736,0.293l-0.587,3.684l2.801-0.296l1.027-1.473l2.359-0.294l0.586,0.148l1.034-0.588
		l3.238,0.292l0.15,1.326l0.586-1.178l-0.438-1.767l0.438-0.884l-0.438-0.883l0.291-0.296l-1.325-3.683l-1.324-1.325l-1.621-0.296
		l-0.591,0.296l0.591,0.884l0.884-0.442l1.323,1.032l-0.288,1.473l0.882,0.146l0.439,1.473l-0.439,1.032l-4.714,1.473l-2.36-0.442
		l-1.03-0.885l-0.59-2.946l-1.471-0.44l-0.589-0.884l0.44-0.739l0.736,0.443l0.294-0.294l-0.586-1.324l-1.179-1.033l-0.146-1.177
		l-1.031-0.886l-1.033-0.147l-0.883-0.883l-0.298,1.325l-1.03-0.295l-0.882-0.735l-0.148-1.768l0.293-0.296l0.591-1.03l2.21-1.325
		l-0.444-0.445l0.145-0.587l2.656-0.588l0.295-0.591l-0.295-0.883l-1.767-1.032l-0.443-3.389l-1.032-0.439l-2.209,0.439
		l-0.737,1.033l-0.881-0.148l-0.74,0.588v1.179h-0.734L216.496,62.535z"/>
	<path class="st4" d="M225.143-5.212c-0.052-0.337-0.143-0.671-0.287-0.996c-0.967-2.2,1.937-4.587,1.411-7.556
		c0.871-1.616,3.357-2.487,3.978-4.599s0.62-5.344,3.355-6.462s4.476-2.237,4.848-5.344s1.367-4.101,4.474-7.084
		c3.107-2.983,6.588-5.344,8.7-5.717c2.112-0.373,4.102-1.74,6.463-3.356s5.218-2.113,6.835-1.74c1.617,0.373,3.108,0.248,3.978,0
		c0.87-0.248,4.673-0.87,4.673-0.87s0.017-0.003,0.049-0.008c0,0.421-0.073,23.092-0.073,23.092l0.149,22.243l-0.445,1.473
		l0.445,0.738l-0.445,0.442l-0.295,1.913l0.591,0.442l0.294,0.295l1.03-0.295l0.736,1.179l2.21,0.59h1.326l0.294,0.44l-0.148,1.622
		l-0.882,0.146l1.03,2.652l-0.586,1.913l1.173,2.211h1.184l0.881-0.884l1.472,0.589l1.329,1.768l-0.591,1.03l0.885,1.18
		l-0.148,1.179l-1.62-0.148l-0.146,1.179l0.885,0.442l0.591-0.295l0.589,0.736l0.587-0.292l0.149,1.324l-1.034,0.295l-1.767,2.211
		l-1.325,0.293l-0.59-1.031h-1.329l-0.437,2.063L279,23.345l0.291-0.587h-0.737l-0.294,0.737l-0.736-0.59l-0.735,0.44l0.146,1.033
		l-0.59,0.738l-1.177-0.296l-0.739,0.735l-0.441-0.146l-0.29-1.178l-0.886,0.147l-0.884,0.738v1.179l-0.442,1.03l-0.738-0.59
		l-0.591-0.736l-0.439,0.59l0.298,1.178l-1.478,1.619v-1.472l-0.735-0.589l0.443-0.443l-0.443-0.587l-0.587,0.294l-0.74-1.18
		l-0.881,1.18l-0.888-0.885v0.885l-1.472,1.178l-0.735-0.442v-1.326l-1.326,1.768l-0.884,0.294v1.618l0.589,0.591v0.589l-1.62-0.441
		l-0.295,0.441l-0.589-1.03l-2.066-0.294l-0.142-0.591l0.736-0.146v-0.884l1.472,0.147l-0.587-0.884h-0.59l-0.889,0.59l0.74-1.621
		v-0.884l-0.442-0.737l-0.734,2.064l-0.296,0.293l-1.769,0.295l-0.296,0.884l0.446,0.59l-0.446,1.326l-0.586,0.588l-0.299,1.03
		l-1.175,1.915l0.443,0.739v0.734l-1.03,0.443v0.589l-0.738,0.444l-0.885,1.178l-0.441-0.738l0.589-0.737h-1.18l-0.585,0.59
		l-0.595-0.293l0.299-0.738l-0.735-0.295L246,36.459l-0.29,1.618l-0.595,1.18h-0.44l-0.147-1.032l-1.03-0.441v1.178l-0.738,0.443
		l-1.618-0.886l-1.326,1.621l0.292,1.326l-0.292,0.738l-0.298,0.145l-0.736-1.326V39.11l-1.324,0.735l-0.295-0.588l-2.211,0.883
		l-1.176,0.883l-1.475,2.211l1.18,1.327l-0.146,0.585l-2.214,0.444l-0.441,1.473l0.295,0.738l-1.326,1.619l-1.325,0.441l-1.18,2.358
		l-0.294,1.18l-0.736,1.766l-1.03-0.147l-1.326-0.883l-0.146-2.652l-1.919-1.767l-0.587-1.769l0.148-1.768l-0.296-5.596
		c0,0-0.021-0.379-0.056-0.994c-0.147-2.611-0.534-9.467-0.534-9.467l-1.177-20.915c0,0-0.029-0.519-0.059-1.034
		c0.275-0.232,0.565-0.534,0.872-0.922c1.943-2.451,1.368-4.785,2.523-4.826c1.154-0.046,1.927-1.026,1.94-2.452
		c0.011-1.426,1.404-3.989,0.437-6.191"/>
</g>
<path id="Maryland" class="st5" d="M128.985,135.024c0.229,0.037,0.795,0.129,0.795,0.129l0.146,1.032l0.735,0.147l0.145,0.588
	h0.591l0.294,0.442l-0.294,0.591l-1.032-0.443l0.591,1.179l0.735,0.294l0.146,0.59l-0.44,0.295l-1.176-0.15l0.735,1.328
	l-0.295,0.443l-0.59-0.739l-0.291,0.296v0.737l-0.445,0.588l0.886,0.591l-0.15,0.442l-0.886,0.882l0.442,0.884l0.299,2.358
	l-0.146,1.177l2.501,3.978l-0.295,0.591l-1.03-0.297l-0.295-0.59l-1.476-1.324l-1.32-1.178l-0.445,0.146v0.444l2.651,2.502
	l0.294,0.737l1.768,0.296l0.148,0.294l-0.295,0.442l0.147,1.18l1.033,1.03l-0.299,0.735l0.153,1.325l-0.447-0.293l-0.44-0.885
	h-0.442l-0.144-1.766l-0.591-0.146l-0.15,1.03l-0.585-0.295l-0.886,0.146v-0.589l-0.444-0.441l-1.325-0.442v-0.295l-0.883-0.441
	l-0.735,0.884l-1.478-2.654l-0.288,0.591l0.437,1.03l-1.03-0.294l-0.294-0.589l-0.737-0.442l-0.59-2.209l-0.589-0.294l-0.292,1.472
	l-2.95,1.326l-0.584-0.591l-0.741-1.177l0.295-2.063l0.736-1.619l0.59-0.59l1.329-0.59l0.291-0.735l0.74-0.442l0.586-0.739
	l-0.292-0.882l0.292-0.588c-0.16-0.568-0.319-1.137-0.479-1.705c-0.157-0.144-0.314-0.288-0.471-0.432
	c-0.079-0.079-0.157-0.157-0.236-0.236c-0.095-0.094-0.191-0.188-0.286-0.281l-0.589-0.735h-0.739l-0.736-0.589l-0.29-0.737
	l-1.036-0.442l-1.326-0.147l-1.915-1.474v-0.882l0.591-0.295l0.589-0.885l-2.36-1.619l-1.322-0.149l-0.299-0.146l-0.731-0.591
	l0.145-0.882l-0.883-0.884l0.443-1.179h-0.735l-0.444-0.146l-0.296-0.739l0.59-0.883l-0.441-0.59h-0.589l-0.441,0.443l-1.474-0.147
	l-0.441-0.443l-1.771-1.178l-0.884-0.148l-1.177,1.179l-1.473-0.146l-0.736,0.44c0,0-0.33,0.198-0.804,0.481
	c0.188-0.844,0.336-1.74,0.448-2.689l43.078-0.296l0.437,7.513l0.149,1.62v1.179l0.149,1.915l0.441,6.334l0.294,3.831l0.146,1.769
	l0.15,2.062h5.746l4.857,0.147l-0.587,1.324v1.179l-0.297,1.031l-0.735,1.621l-1.032,3.387h-0.884l1.325-3.534l-0.441-0.59
	l-1.918,2.946l-0.438,1.324l-4.271,0.74l-0.444,0.588l-2.647,0.296l-0.595,0.881l-0.586-2.061l1.767-1.031v-0.295l-1.62,0.148
	l0.294-0.885l1.177-0.441l-0.292-0.443l-2.357,0.443l0.438-1.62h0.888v-0.738l-0.739,0.148l0.296-1.62l-0.146-0.295l-0.737,0.885
	l-0.149,1.03l-0.885-0.884l0.299-0.882l-0.884,0.146l-0.296,1.767l-1.619-1.325l-0.591-1.179l-1.176-0.296l-0.743-1.619l0.889-1.621
	l1.176-0.146l-0.441-0.736l-0.881,0.44l-0.295-0.44l0.295-1.033h1.471l1.03,0.885h0.885l-1.474-1.621l0.145-1.622l-1.324,1.033
	l-0.297-0.737l-1.616-0.296l-0.146-0.293l0.442-0.589l0.29-0.884l0.441-0.295l1.475,1.031l-0.291-1.768l-0.298-1.766l1.034-0.884
	c0,0-0.007-0.021-0.019-0.056c-0.065-0.194-0.277-0.828-0.277-0.828l0.885-1.473l-0.589-0.149l-0.736,0.297l-0.15,0.59l-0.296,0.146
	l-0.149-0.884l-0.589-0.59l0.444-1.47l1.18-1.624v-0.589h0.586l0.444-0.883l2.065,0.146l0.437-0.44l-0.883-0.296l0.147-0.736
	l0.591-0.147l0.145-0.591h1.181v-1.177l-1.917,0.883l0.591-2.209l-1.026,0.589l-0.446-0.294l-0.589,0.294l-0.885,1.326l0.589,0.588
	l-0.589,1.328l-1.031-0.149l-0.148,0.885l-0.733-0.294l-0.295,1.031h-0.448l-0.291-0.885l-0.591,0.148v1.179l-0.735-0.296
	l-0.149,1.18l-0.736,0.146l0.446,0.737l-0.15,0.15l-1.326-0.298l-0.444-0.44l-0.292-0.295h-0.885l0.441,0.588v0.445
	C128.891,135.009,128.927,135.015,128.985,135.024z"/>
<polygon id="Connecticut" class="st3" points="207.699,84.774 207.849,83.153 207.699,77.261 207.699,76.671 202.691,76.82
	202.103,76.671 195.919,76.671 192.089,76.671 191.939,77.41 190.904,77.41 190.76,76.671 187.667,76.671 187.078,76.524
	179.565,76.524 179.126,84.038 178.975,87.132 178.68,90.518 178.68,91.846 179.712,93.614 178.975,94.054 176.029,95.822
	176.766,97.59 177.505,97.885 180.007,97.147 181.481,95.528 183.542,95.675 184.572,94.644 186.048,94.938 186.342,94.349
	188.108,93.316 188.697,91.991 189.434,91.991 189.583,92.877 191.352,92.728 192.824,92.877 193.56,92.434 195.625,92.728
	197.979,92.582 198.422,91.404 199.01,92.139 199.746,92.289 200.926,91.991 200.926,91.404 202.253,91.846 203.577,91.698
	206.965,90.963 206.965,89.49 207.699,89.192 207.699,85.659 "/>
<polygon id="Delaware" class="st6" points="146.421,131.765 145.391,129.849 145.684,128.229 145.244,127.495 145.244,126.169
	145.977,125.579 146.57,125.431 147.745,123.222 148.042,122.78 148.186,122.78 147.16,122.043 144.949,122.043 143.919,122.633
	143.035,123.222 142.593,124.401 141.858,124.252 142.296,131.765 142.445,133.385 142.445,134.564 142.593,136.479
	143.035,142.813 143.328,146.644 143.475,148.413 143.624,150.475 149.37,150.475 154.227,150.622 153.932,148.413 152.46,148.117
	151.576,148.265 151.576,147.528 152.608,147.823 153.052,147.086 152.46,146.348 153.343,145.76 153.787,146.055 153.641,146.644
	154.378,146.644 153.787,144.139 152.018,143.55 150.251,141.635 149.958,140.456 149.658,139.426 148.486,137.217 148.632,136.185
	148.632,134.564 148.042,133.238 "/>
<path id="Georgia" class="st5" d="M49.467,304.088c-0.274,0.156-0.565,0.322-0.565,0.322l-0.294-0.15l-0.142,0.296l0.142,0.445
	l0.589-0.15l0.295,0.591l-0.734,0.589l-0.292,0.735l0.142,0.442l-0.437,0.589l0.587,1.179l-0.292,1.033h-0.741l-0.734,0.144
	l-0.735-0.294l-0.15-0.292H45.81l-0.44,0.292l-0.59-0.591l-0.291-0.436l-0.296,0.291l-0.593-0.59l-0.588,0.149l-0.587-0.444
	l-0.296-0.441l-0.736,0.146h-0.149l-0.295,0.295l-0.145,0.295h-0.149l-0.587-0.146l-0.149,0.736l-0.442,0.594v0.731l0.067,0.803
	c0,0,0.011,0.128,0.021,0.256c-0.297,0.015-0.594,0.03-0.891,0.045c-6.484-4.844-11.634-15.442-12.124-20.255
	c-0.494-4.815-6.65-11.245-10.928-15.359c-4.286-4.106-4.454-8.423-2.602-13.181c1.855-4.751,0.537-18.952,0.156-22.25
	c-0.363-3.117,5.282-1.903,6.633-11.419c0.479,0.613,0.958,1.226,0.958,1.226l1.036,1.325l1.027,0.59l0.885,0.295l1.619,0.295
	l0.886,0.735l0.149,1.327l1.03,1.47l0.292,0.885l0.294,0.889l2.502,3.827l0.444,1.326l1.476,1.915l0.881,0.146l2.509,2.06
	l0.882,1.621l0.149,0.74l0.585,0.589l0.296,0.441l0.589,0.145l0.441,0.15l0.885,0.736l0.59,0.589l0.296,0.441l0.883,0.74
	l0.147,0.291l-0.296,0.295l-0.146,0.589l0.146,0.444l-0.146,0.441l0.295,0.589l1.032,0.441l0.291,0.881v0.448l0.148,0.292
	l0.441,0.444l0.59-0.149l0.149,0.444v0.441l0.149,0.295l0.442,0.586l0.88,0.593l0.741,0.437l1.32,0.737l0.74,0.592l0.292,0.442
	l-0.142,1.326l0.436,0.439l0.295,0.591l0.149,0.589l0.444,0.15l0.147,1.471v0.739l-0.147,0.441v0.294l0.296,0.591l-0.149,0.587
	v0.294l0.29,0.59l0.446,0.589h0.439l0.74,0.442l1.621,1.474l0.145,0.445l0.149,0.877l0.295,0.885l0.442,0.59l0.144,0.441
	l-0.144,0.443l-0.147,1.621l-0.295,0.881l0.146,0.591l0.296,0.443l0.144,0.292l0.591,0.444l0.589,0.146l2.651,0.885l0.885,0.589
	l-0.735,1.032l-1.18,0.294l0.146,1.03l-0.589,0.595l-1.767-0.449l-0.296,0.74l1.177,0.735l-0.147,0.295l-1.325,1.62l-0.739-0.439
	l-0.585,0.295l0.443,0.439v0.739l0.737-0.153v1.329l-0.296,1.182l-0.59-0.15l-1.326,0.294l-0.145,0.737l1.326-0.146l0.145,0.439
	l-0.59,0.886l-0.44,1.474l-0.586-0.44l-0.446,0.29l-0.148,1.327l-1.322-0.145l-0.445,0.294l-0.149,0.146l0.594,1.03l0.141,0.445
	l-0.586,0.44l-0.149,2.062h-0.59l-0.731-1.032h-0.296l0.296,0.591l-0.296,0.441l0.591,0.443l0.142,1.031l0.447,0.591l0.586-0.442
	l0.149-1.18l0.437,0.291v0.591l-0.29,0.885C49.937,303.821,49.709,303.951,49.467,304.088z"/>
<polygon id="RhodeIsland" class="st3" points="207.849,83.153 207.699,84.774 207.699,85.659 207.699,89.192 206.965,89.49
	206.965,90.963 206.669,91.698 207.699,91.404 211.68,90.077 211.829,89.635 212.56,89.341 212.415,90.077 212.857,90.225
	213.154,88.899 213.741,88.31 213.301,86.25 214.331,84.479 214.922,84.479 215.655,85.952 215.066,88.458 215.361,89.047
	216.54,89.192 216.982,88.31 216.836,87.574 217.422,87.574 217.57,88.458 218.892,87.719 218.892,86.837 218.158,83.301
	218.012,82.713 215.361,81.976 214.475,77.704 214.181,76.82 212.56,76.967 207.699,77.261 "/>
<path id="NewHampshire_1_" class="st3" d="M195.18,59.585l1.916-5.45l-0.295-1.916l1.179-6.775l0.591-0.883l2.061-3.685l2.651-6.039
	l0.146-2.062l0.297-1.916l1.178-1.473l1.915-0.146l1.472-1.179l2.504-2.062l0.736-2.209l-1.176-2.947l1.619-2.946l-0.294-2.212
	l0.586-0.439l1.774-3.685l-0.363-0.98l0.949-0.492l1.249-0.558l1.548,0.558l1.769-0.882l1.177,20.915l0.59,10.461l0.296,5.596
	l-0.148,1.768l0.587,1.769l1.919,1.767l0.146,2.652l1.326,0.883l-0.296,1.032l0.296,0.587l-1.915,3.094l-1.032-0.439l-2.209,0.439
	l-0.737,1.033l-0.881-0.148l-0.74,0.588v1.179h-0.734c0,0-0.184,0.082-0.341,0.152l-20.034-0.101L195.18,59.585"/>
<polygon id="NewJersey" class="st6" points="155.258,96.117 153.052,98.18 152.902,99.062 153.932,100.241 153.197,102.304
	152.312,102.894 151.723,106.134 151.872,106.429 153.787,107.018 153.932,109.521 155.553,110.258 156.438,111.731 158.648,113.94
	159.385,115.413 155.553,117.623 154.227,118.802 153.197,119.686 152.608,121.012 151.136,121.75 149.516,122.043 148.186,122.78
	148.042,122.78 147.745,123.222 146.57,125.431 145.977,126.904 146.861,127.641 146.57,129.407 148.186,131.028 148.632,131.913
	149.658,132.355 150.251,133.385 151.136,133.534 152.312,134.564 153.052,135.594 154.083,135.009 155.408,135.744
	156.438,135.891 157.025,136.479 155.703,140.456 156.289,140.898 157.764,140.31 158.648,138.983 159.824,136.185 162.038,133.68
	163.951,131.471 164.689,131.177 165.425,129.849 165.132,128.229 166.311,128.377 166.311,127.789 167.781,126.169
	168.663,124.844 168.663,123.075 169.402,121.75 169.402,119.391 170.283,118.361 170.283,120.717 169.846,122.339 169.992,122.926
	170.432,123.075 171.318,116.446 171.464,115.413 172.201,113.205 172.053,109.816 171.318,109.228 171.318,110.407
	169.846,109.816 168.221,109.816 167.93,109.375 167.191,109.081 166.9,108.785 166.751,108.049 167.191,107.901 167.781,106.134
	168.663,105.25 169.106,105.25 169.846,104.957 171.464,101.861 172.348,100.388 172.938,99.946 173.085,98.18 168.221,95.381
	167.635,95.087 165.275,93.907 159.535,90.665 158.059,91.698 156.289,95.231 "/>
<g id="NorthCarolina">
	<polygon class="st5" points="146.421,204.98 145.391,202.179 143.328,197.909 142.445,195.108 140.973,189.806 140.529,189.806
		141.264,193.488 142.593,197.613 142.889,200.115 143.919,200.708 144.361,201.885 145.977,205.272 	"/>
	<polygon class="st5" points="138.761,189.806 139.203,190.837 140.233,190.982 139.794,189.806 	"/>
	<path class="st5" d="M120.337,227.624c0.006,0.025,0.01,0.039,0.01,0.039l-0.295,1.621l-2.5,1.619l-1.182-1.03l0.591-0.736
		l-0.299-0.887l-0.586-0.438l-0.441-1.034l-0.445,0.149l0.296,1.176l0.739,1.034l-0.739,0.591l-0.146,0.732l1.03,0.443l0.292,0.441
		l-0.885,0.737l-1.911,1.034l-3.682,3.091l-1.77,3.39l-0.292,1.912l-0.444,1.77l-0.44-0.445l-0.296-2.206l-0.294,2.206l-1.471,1.77
		l-2.655-0.587l-1.762,0.438l-0.594-0.587l-1.915,1.18h-1.472l-1.18-1.474l-7.07-7.367l-6.333-6.333v-0.145l-3.683-3.835
		l-18.264-0.292v-2.21l-1.329-1.916l-0.883-1.178l-0.443-0.737l-1.622,1.031l-0.29-0.444l0.437-1.617l-4.858-0.149h-0.736
		l-6.631-0.294l-1.62-0.15l-1.912-0.142c0,0-1.113,0-1.137,0c0.19-0.244,0.381-0.489,0.381-0.489
		c1.571-2.018,1.49-4.912,3.908-8.157c3.874-5.188,12.388-10.049,21.081-11.659c4.212-0.778,6.658-3.938,8.245-7.538
		c0.56,0,65.187,0,65.187,0l-0.591,0.735l0.886,0.444l0.143,0.736l0.883,1.326l0.885-0.587l0.444,2.943l0.736,1.329l0.445,2.501
		l-0.445-0.294l-1.03-2.506l-0.589-0.438l-0.148-0.883l-0.589-0.15l0.146,1.033l-0.146,0.737l0.737,0.882l-0.737-0.147l-2.505-2.505
		h-0.44l-0.296,0.587l0.885,0.446v0.737l1.03,0.735v0.591l-1.619,0.29l-1.767-1.325l0.733,1.621l-0.148,0.295l-2.21-1.325
		l-0.44,0.149l-0.148,0.439l1.033,0.591l-0.146,0.44h-1.623v1.035l-1.032,0.44l-1.769-0.593h-0.731l-0.595-2.057v-1.476l0.736-1.033
		l-0.44-0.736l-0.591-0.736l-0.586,0.15l0.736,1.176l-0.15,0.735l-0.44,0.594l-0.146,0.882l0.294,1.619l0.883,1.916l-0.591,0.445
		l-0.144,1.03l4.42-0.591l1.03-0.439l0.292,1.03l1.328-0.299l0.15-0.437l2.352-0.593l1.775,0.299l-0.299,0.586l0.587,0.295
		l-0.143,0.885l-0.74,0.295l0.296,0.44l0.149,1.18l-0.591,0.145l-0.148,0.444l0.739,0.441v1.031l-1.625-0.145l1.034,0.881h1.029
		v-0.146l0.592-1.621l0.146-1.471l-0.146-1.035l0.737-0.885l0.883,0.15l0.147-0.884l0.589-0.441l1.18,0.885l0.146,0.736l0.439,0.884
		l0.446,0.59l-0.296,1.62l0.146,0.882l-0.44-0.145l-0.295,0.294l0.439,0.881l-0.144,0.885l-0.886,0.591l-0.439,0.148l-0.296-0.444
		l-0.589-0.444l-0.441,1.474h-0.737l-0.298,1.181l-0.587,1.176l-0.734-0.733l-0.445,1.91l-1.18,0.592l-1.766-0.592l-0.145,0.298
		l-1.18-1.035c0,0-0.009,0.052-0.021,0.13c-0.041,0.246-0.125,0.756-0.125,0.756l-0.885-0.441l0.292-1.031l-2.208,0.885
		l-0.439-2.064l1.325-0.442l0.146-0.887l-0.736-0.437v0.586l-0.881,0.148l-0.595,0.296l-0.884-0.593l-0.585,0.297l1.175,1.032
		l-0.142,0.444l0.287,1.03l-0.735,0.441l-0.881-0.736l-1.619-0.295l-0.296-0.884l-0.737,0.592l-2.359-1.034l-0.441,0.591
		l0.885,0.881l3.682,1.18v0.884h1.33l0.731,0.881l0.295-0.735l1.915,0.441v1.329h-1.026l0.441,1.031l-0.886-0.445l-1.18,0.737
		l0.881,0.738l0.744-0.444l0.441,0.444l-1.472,1.177l-0.299,0.884h-0.884l-2.061,1.326l-0.886-0.881l-0.734-0.15l-0.442-0.884
		l-0.739-0.15l-1.176-1.617l-0.441,0.295l-0.15,1.034l0.886,0.438l1.472,1.915l1.473,0.884l1.767,0.445l0.59-0.739l0.74-0.149v0.888
		h0.585l-0.295-1.18l0.736-0.149l0.59,1.03h0.445l-0.299-1.621h1.179l0.295-1.03h0.736l-0.146,0.884l0.442,0.442l-0.736,1.03h1.324
		l0.882-1.616l0.59,1.471l-0.731,0.294l0.29,0.587l-0.732,0.589h-0.739l-0.295,0.885l-0.439,0.591l-0.741,0.589l-0.145,0.736
		l-0.735,0.44l-0.591-0.291l0.146-1.031l-0.59-0.148l-0.142,1.03l-0.448,0.149l-0.436-0.295v-0.884h-0.89l-0.292,0.735l0.883,0.295
		l-0.441,0.44l-2.943-0.146l-2.949,1.032l-0.59-1.766l-0.59-0.125C120.052,226.508,120.286,227.422,120.337,227.624z"/>
</g>
<path id="South_Carolina" class="st7" d="M83.169,261.692c0.179,0,0.353,0,0.353,0l0.15-0.731h0.735l0.735-0.449l0.295-0.88
	l0.591,0.145l0.29-0.44l0.15-0.736l-0.44-0.74l-0.886-0.586l-0.296-0.738l0.147-1.178l0.59,0.147l-0.146,1.031l1.18-0.297
	l0.586-1.03l0.444-1.328l1.913-2.648l2.504-2.95l3.392-2.357l1.324-0.88l-1.18-1.474l-7.07-7.363l-6.333-6.333v-0.149l-3.683-3.835
	l-18.264-0.292v-2.21l-1.329-1.911l-0.883-1.183l-0.443-0.737l-1.622,1.031l-0.29-0.44l0.437-1.621l-4.858-0.145h-0.736
	l-6.631-0.296l-1.62-0.152l-1.912-0.142c0,0-0.479-0.036-1.113-0.081c-0.966,1.002-2.477,1.748-5.151,2.161
	c-8.084,1.248-13.635,1.504-14.104,7.488c-0.047,0.611-0.11,1.186-0.186,1.725c0.549,0.705,0.958,1.229,0.958,1.229l1.036,1.326
	l1.027,0.586l0.885,0.295l1.619,0.295l0.886,0.735l0.149,1.327l1.03,1.47l0.292,0.889l0.294,0.885l2.502,3.827l0.444,1.326
	l1.476,1.915l0.881,0.15l2.509,2.06l0.882,1.617l0.149,0.742l0.585,0.587l0.296,0.441l0.589,0.149l0.441,0.146l0.885,0.736
	l0.59,0.589l0.296,0.441l0.883,0.743l0.147,0.288l-0.296,0.295l-0.146,0.593l0.146,0.44l-0.146,0.441l0.295,0.589l1.032,0.441
	l0.291,0.886v0.443l0.148,0.295l0.441,0.441l0.59-0.145l0.149,0.44v0.441l0.149,0.295l0.442,0.59l0.88,0.594l0.741,0.436l1.32,0.737
	l0.74,0.588l0.292,0.446l-0.142,1.325l0.436,0.44l0.295,0.59l0.149,0.586l0.444,0.153l0.147,1.472v0.735l-0.147,0.441v0.294
	l0.296,0.591l-0.149,0.59v0.291l0.29,0.59l0.446,0.593h0.439l0.74,0.438l1.621,1.474l0.145,0.445l0.149,0.881l0.295,0.885
	l0.442,0.586l0.144,0.441l-0.144,0.447l-0.147,1.617l-0.295,0.885l0.146,0.591l0.296,0.439l0.144,0.295l0.591,0.445l0.589,0.142
	l2.651,0.889l0.15-0.741l0.587-0.436l0.148-0.888l0.59,0.441l1.618-1.322l0.589-0.74l-0.735-0.885l-1.176,0.885l-0.15-0.29
	l0.44-0.886l-0.15-0.441l-0.877-1.77l0.146-0.884l0.295-0.295l0.735,1.03l1.177,1.77l0.886,0.149l0.589-0.447l1.326-1.618
	l0.589-0.294l0.146-0.736l-1.326-0.443l0.149-0.587l0.442-0.147l1.179,0.147l0.881-0.446l0.442,0.15l0.299,0.591l2.06-1.472
	l-0.145-0.888l0.88,0.146l1.622-0.587l0.883-0.44h0.885l0.442-1.181l0.738-0.593l-0.738-0.587l0.439-0.735V266.7l0.445-0.147
	l0.295,1.181h0.736l1.916-1.77l1.178-0.885l-0.148-1.03l0.885-0.587l1.03-0.885h1.326l0.589-0.885
	C82.785,261.692,82.98,261.692,83.169,261.692z"/>
<path id="UpstateNewYork_2_" class="st8" d="M196.349,62.432l0.525,0.008"/>
<path class="st9" d="M181.38,42.088c-2.63-6.548-4.426-14.353-8.754-8.686c-4.327,5.667-10.774,9.174-15.923,14.664
	c-2.213,2.362-3.559,6.381-4.941,10.305c-1.834,5.208-3.733,10.248-7.806,11.026c-7.143,1.363-15.312-4.631-19.041-4.556
	c-3.734,0.074-8.709,4.75-6.344,9.815c0.495,1.06,0.957,2.022,1.328,2.904c1.33-0.002,27.112-0.002,27.112-0.002l1.326-0.147
	l0.884,0.147l1.031,1.178l0.295,1.178l1.766,0.881l1.77,2.213v2.798l0.885,2.063l2.355,1.323h1.621l0.591,1.476l5.741,3.239
	l2.36,1.18l0.586,0.297l4.863,2.796l-0.147,1.767l0.147,2.212h0.443v-0.738l0.882,0.589l0.149-1.618l2.061-1.771l0.146-1.031
	l-0.736-1.766l2.946-1.77l0.736-0.44l-1.031-1.767V90.52l0.295-3.387l0.15-3.095l0.44-7.512l2.505-9.576l1.326-3.976l0.186-0.73
	l0.116,0.002l0.401-16.247C183.055,45.173,182.1,43.884,181.38,42.088z"/>
<path class="st10" d="M208.518,16.682c-0.403,0.865-2.149,3.638-3.458,5.003c-1.308,1.364-2.945,2.352-4.835,2.622
	c-3.245,0.464-6.249,12.119-8.386,18.241c-1.553,4.445-4.982,5.618-7.751,3.432l-0.402,16.247l12.651,0.186
	c0,0,0.056,0.001,0.113,0.002c-0.031-0.069-0.062-0.137-0.062-0.137l-1.221-2.71l1.916-5.451l-0.295-1.915l1.179-6.776l0.591-0.883
	l2.061-3.683l2.651-6.04l0.146-2.061l0.297-1.915l1.178-1.476l1.915-0.146l1.472-1.179l2.504-2.06l0.736-2.211l-1.176-2.946
	l1.619-2.947l-0.177-1.333l-2.802-0.61C208.944,16.018,208.532,16.653,208.518,16.682z"/>
<path class="st10" d="M211.797,16.564l-0.117-0.876c0,0,0.371-0.28,0.522-0.395c0,0,0.033-0.025,0.066-0.051
	c0.027-0.054,0.053-0.108,0.053-0.108l1.702-3.449l-0.347-1.104l1.04-0.591l1.158-0.459l1.553,0.48
	c0.095-0.033,0.239-0.085,0.414-0.151c0.367-0.139,0.576-0.218,0.826-0.343c0.123-0.062,0.301-0.157,0.509-0.291
	c-0.079-0.309-0.158-0.618-0.236-0.927c-0.363,0.221-0.97,0.527-1.777,0.651c-1.154,0.177-2.077-0.117-2.508-0.286
	c-1.287,0.788-2.04,1.633-2.485,2.243c-0.963,1.321-1.724,3.248-2.552,4.16c-0.067,0.073-0.31,0.334-0.579,0.731
	c-0.203,0.3-0.34,0.557-0.424,0.725"/>
<polygon id="Manhattan" class="st11" points="172.493,102.452 172.643,101.421 171.318,102.894 171.021,104.074 171.908,103.925 "/>
<polygon id="StatenIsland" class="st11" points="166.9,108.785 169.402,107.313 170.583,106.135 169.846,104.959 169.106,105.25
	168.663,105.25 167.781,106.135 167.191,107.901 166.751,108.049 "/>
<polygon id="LongIsland" class="st6" points="172.348,103.925 171.169,104.959 171.464,106.725 172.348,106.725 173.527,105.694
	174.703,105.547 174.999,106.429 172.938,107.313 173.818,107.46 176.175,106.725 179.126,105.694 181.186,105.398 183.841,104.074
	184.867,104.367 185.163,103.777 187.667,103.484 193.413,101.863 193.413,102.304 185.753,105.25 184.277,105.398 184.277,105.842
	185.163,105.99 198.57,100.833 205.934,97.444 206.375,97.002 206.228,96.707 204.608,96.854 202.691,98.032 201.366,97.15
	200.78,97.738 200.336,97.297 199.6,98.032 198.716,97.444 198.57,98.032 197.095,99.212 196.801,99.947 196.215,100.244
	196.65,100.833 196.064,101.127 195.329,100.98 195.034,99.947 194.004,99.505 195.18,99.212 195.625,98.473 196.65,98.18
	197.536,97.444 197.391,96.562 200.046,94.938 199.306,94.646 198.861,94.938 194.888,97.738 192.675,98.473 188.552,99.062
	185.602,98.768 183.986,100.095 181.775,99.36 181.481,99.947 179.861,99.36 180.007,100.244 179.565,100.686 179.126,100.095
	178.68,100.095 177.505,100.538 176.915,101.127 176.915,101.863 176.324,101.275 175.439,102.747 174.559,102.304 173.965,103.041
	172.938,102.747 "/>
<g id="Virginia_1_">
	<polygon class="st5" points="151.576,159.164 150.693,159.164 149.37,161.08 148.925,161.965 149.37,162.995 150.251,161.08 	"/>
	<polygon class="st5" points="142.296,170.95 141.858,171.392 142.003,172.865 141.118,173.6 140.677,175.075 139.794,176.99
		139.794,178.02 139.203,177.724 138.613,176.105 138.465,175.22 138.761,173.453 139.497,172.57 139.057,171.539 139.646,170.95
		139.943,169.182 140.085,168.298 140.973,168.004 140.677,167.268 141.413,166.531 141.858,164.616 143.475,164.616
		143.766,162.258 143.178,161.669 144.654,161.226 144.505,160.638 144.949,160.05 149.221,159.31 148.186,160.638 147.895,162.552
		145.977,165.498 145.244,167.268 145.244,168.298 144.064,169.182 143.328,170.655 	"/>
	<path class="st5" d="M138.027,189.952c0,0-64.372,0-65.183,0c1.691-3.828,2.413-8.15,3.261-10.623
		c1.926-5.61,6.534-7.252,6.616-13.185c0.117-8.76,5.09-7.937,5.729-11.685c1.606-9.421-0.657-12.964,4.484-17.67
		c3.007-2.756,4.676-5.843,5.502-10.032c0.135-0.001,0.7-0.001,0.7-0.001l0.736-0.44l1.473,0.146l1.177-1.179l0.884,0.148
		l1.771,1.178l0.441,0.443l1.474,0.147l0.441-0.443h0.589l0.441,0.59l-0.59,0.883l0.296,0.739l0.444,0.146h0.735l-0.443,1.179
		l0.883,0.884l-0.145,0.882l0.731,0.591c0,0,0.081,0.065,0.161,0.13c0.069,0.008,0.138,0.016,0.138,0.016l1.322,0.149l2.36,1.619
		l-0.589,0.885l-0.591,0.295v0.882l1.915,1.474l1.326,0.147l1.036,0.442l0.29,0.737l0.736,0.589h0.739l0.589,0.735l1.03,0.885
		l0.442,1.769l-0.292,0.588l0.292,0.882l-0.586,0.739l-0.74,0.442l-0.291,0.735l-1.329,0.59l-0.59,0.59l-0.736,1.619l-0.295,2.063
		l0.741,1.177l0.584,0.591l2.95-1.326l0.292-0.148l0.295,0.883l-0.295,0.445l0.589,1.176l0.885,0.737l-0.149,0.443l1.915,1.031
		l1.182,0.146l0.734,0.737l0.44-0.442h0.445l0.586,0.736v-0.44h0.444l1.177,1.618v0.443l0.738,0.442l0.296,0.737l0.736-0.442
		l1.47,1.03l1.915,0.885l0.149,0.884l-0.439,0.737l-1.18-0.591v0.591l-0.146,0.588l0.437,0.738l-0.291,0.884l-0.445,0.293
		l0.299,1.326l-1.619-0.147l-0.446-0.737l-0.88,0.293l-0.441-1.324l-1.625-1.326l-1.03-0.737l-0.59-1.176l-1.325-0.738l-1.325-2.21
		h-0.59h-0.146l0.294,0.737l1.176,1.619l0.736,0.443l0.74,1.474l1.175,1.178c0,0,0.571,0.415,1.035,0.753
		c0.318,0.231,0.586,0.426,0.586,0.426l0.145,1.179l0.89,1.03l1.325-0.148l1.179,0.736h0.736l0.437,0.148l-0.141,0.737l-2.065-0.295
		l-0.441,0.295l0.441,0.442l1.623,0.146l0.583,1.033l0.889,0.293l-0.299,2.359H133.9l-0.589-1.474l-0.591,0.295l-0.588-0.885
		l-0.586,0.148l0.144,0.442l-0.59,0.44l0.446,0.296v0.442l-0.591,0.442l0.295,0.44l0.735-0.29l0.587,0.144l0.148,0.442l-1.03,0.444
		h-0.885l-2.8-2.652l-0.881-1.179l-1.324-1.768l-0.446,0.146v0.591l0.593,0.442l0.292,0.882l0.591,0.442l0.439,0.884l3.391,3.093
		l1.03,0.149l0.442,1.03h1.033l0.296,0.294l-0.442,0.741l0.292,0.292h0.589l0.591,0.735l-0.591,0.738l-1.768,0.591l-0.442,0.291
		l-0.885-1.325l-1.621-1.03l-0.589-0.591l0.153-1.176l-0.448-0.59l-1.031-0.295l-0.587,0.146l-1.765-0.442l-0.448-0.439l0.149-1.03
		l-0.437-0.15l-0.297,1.18l-1.327,0.144v0.295l1.624,0.883l1.471-0.147l0.295,0.74l0.587,0.295l0.885-0.295l0.296,0.881l0.149,0.299
		l-0.299,0.88l0.884,0.737l0.586,0.148l-0.145,0.591l1.77,0.735l0.145,0.291l0.15,1.33l1.03-0.441h1.476l0.29-1.326l1.179,0.292
		l0.886,0.444l0.736,0.146l0.736,0.59l0.889-0.736l0.734,0.292l0.437,1.619l1.624,4.864v0.885h-0.443l-0.146-1.179l-0.441-0.737
		h-0.594l-0.291,0.295l0.737,1.621h-1.033l-0.883-0.74L138.027,189.952"/>
</g>
<path id="Pennsylvania" class="st6" d="M121.135,77.556c5.435,0,25.876,0,25.876,0l1.326-0.146l0.884,0.146l1.031,1.178l0.295,1.18
	l1.766,0.881l1.77,2.212v2.799l0.885,2.062l2.355,1.324h1.621l0.591,1.473l-1.476,1.033l-1.769,3.533l-1.031,0.886l-2.206,2.063
	l-0.15,0.882l1.03,1.179l-0.735,2.063l-0.885,0.59l-0.59,3.24l0.15,0.295l1.915,0.589l0.145,2.503l1.621,0.737l0.885,1.473
	l2.21,2.209l0.737,1.473l-3.832,2.21l-1.326,1.179l-1.03,0.884l-0.589,1.326l-1.472,0.738l-1.621,0.293l-1.329,0.737l-1.027-0.737
	h-2.21l-1.03,0.59l-0.885,0.589l-0.441,1.179c0,0-0.655-0.133-0.728-0.148c-3.147,0.022-42.88,0.295-42.88,0.295
	s-0.101,0.001-0.201,0.001c0.478-3.935,0.396-8.779,0.068-15.021c-0.322-6.1,7.794-13.368,10.021-17.187
	c2.229-3.816,3.003-4.797,8.327-7.292c4.215-1.969,4.1-4.154,2.693-7.493C120.055,77.556,120.489,77.556,121.135,77.556z"/>
<g>
	<path class="st13" d="M229.461,175.476h-1.176l-0.297-2.449h-3.757l-1.43,2.449h-1.228l5.191-8.725h1.535L229.461,175.476z
		 M227.868,172.072l-0.553-4.294l-2.528,4.294H227.868z"/>
	<path class="st13" d="M237.903,168.931l-0.199,0.891h-2.274l-0.7,3.021c-0.039,0.152-0.074,0.328-0.105,0.525
		s-0.047,0.355-0.047,0.472c0,0.286,0.072,0.498,0.217,0.637c0.145,0.139,0.411,0.208,0.802,0.208c0.16,0,0.351-0.027,0.57-0.082
		c0.221-0.055,0.37-0.098,0.448-0.129h0.059l-0.205,0.944c-0.219,0.054-0.452,0.099-0.7,0.134c-0.248,0.035-0.468,0.052-0.659,0.052
		c-0.539,0-0.956-0.118-1.251-0.354s-0.442-0.61-0.442-1.122c0-0.125,0.009-0.249,0.026-0.372s0.042-0.263,0.073-0.419l0.813-3.516
		h-0.743l0.2-0.891h0.749l0.436-1.881h1.107l-0.439,1.881H237.903z"/>
	<path class="st13" d="M243.34,166.359l-2.107,9.117h-1.101l2.107-9.117H243.34z"/>
	<path class="st13" d="M249.968,174.779c-0.105,0.062-0.249,0.151-0.431,0.267s-0.366,0.214-0.554,0.296
		c-0.199,0.09-0.422,0.165-0.668,0.226s-0.529,0.091-0.85,0.091c-0.52,0-0.941-0.151-1.266-0.454s-0.486-0.698-0.486-1.187
		c0-0.52,0.114-0.958,0.343-1.315s0.567-0.649,1.017-0.876c0.441-0.223,0.974-0.384,1.597-0.483c0.622-0.1,1.332-0.161,2.129-0.185
		c0.025-0.109,0.045-0.204,0.062-0.284s0.024-0.163,0.024-0.249c0-0.188-0.037-0.34-0.111-0.457s-0.18-0.211-0.316-0.282
		s-0.296-0.118-0.478-0.144c-0.183-0.025-0.383-0.038-0.602-0.038c-0.332,0-0.712,0.054-1.138,0.161s-0.772,0.214-1.038,0.319
		h-0.059l0.217-1.102c0.223-0.059,0.549-0.125,0.979-0.199s0.842-0.111,1.236-0.111c0.812,0,1.422,0.127,1.828,0.381
		s0.609,0.656,0.609,1.207c0,0.105-0.009,0.218-0.026,0.337s-0.038,0.231-0.062,0.337l-1.022,4.441h-1.093L249.968,174.779z
		 M250.608,172.025c-0.602,0.023-1.136,0.069-1.603,0.138s-0.854,0.167-1.158,0.296c-0.316,0.129-0.557,0.304-0.721,0.524
		s-0.246,0.495-0.246,0.823c0,0.281,0.096,0.496,0.287,0.645s0.487,0.223,0.89,0.223c0.355,0,0.718-0.079,1.086-0.237
		c0.369-0.159,0.714-0.349,1.034-0.572L250.608,172.025z"/>
	<path class="st13" d="M261.977,170.425c0,0.094-0.009,0.221-0.026,0.381s-0.042,0.301-0.073,0.422l-0.98,4.248h-1.098l0.856-3.727
		c0.046-0.207,0.082-0.388,0.107-0.542c0.025-0.154,0.038-0.307,0.038-0.46c0-0.328-0.081-0.575-0.244-0.741
		c-0.162-0.166-0.455-0.249-0.877-0.249c-0.298,0-0.625,0.082-0.983,0.246s-0.707,0.36-1.048,0.588l-1.128,4.885h-1.101l1.512-6.545
		h1.101l-0.168,0.726c0.418-0.292,0.81-0.517,1.175-0.673s0.741-0.234,1.127-0.234c0.57,0,1.015,0.144,1.333,0.431
		S261.977,169.882,261.977,170.425z"/>
	<path class="st13" d="M270.325,168.931l-0.199,0.891h-2.274l-0.7,3.021c-0.039,0.152-0.074,0.328-0.105,0.525
		s-0.047,0.355-0.047,0.472c0,0.286,0.072,0.498,0.217,0.637c0.145,0.139,0.411,0.208,0.802,0.208c0.16,0,0.351-0.027,0.57-0.082
		c0.221-0.055,0.37-0.098,0.448-0.129h0.059l-0.205,0.944c-0.219,0.054-0.452,0.099-0.7,0.134c-0.248,0.035-0.468,0.052-0.659,0.052
		c-0.539,0-0.956-0.118-1.251-0.354s-0.442-0.61-0.442-1.122c0-0.125,0.009-0.249,0.026-0.372s0.042-0.263,0.073-0.419l0.813-3.516
		h-0.743l0.2-0.891h0.749l0.436-1.881h1.107l-0.439,1.881H270.325z"/>
	<path class="st13" d="M275.167,168.931l-1.512,6.545h-1.101l1.512-6.545H275.167z M275.766,166.693l-0.265,1.143h-1.247
		l0.265-1.143H275.766z"/>
	<path class="st13" d="M281.072,175.623c-0.414,0-0.78-0.049-1.099-0.146s-0.597-0.252-0.835-0.463
		c-0.23-0.203-0.408-0.459-0.533-0.768s-0.188-0.668-0.188-1.078c0-0.613,0.096-1.186,0.287-1.717s0.463-0.998,0.814-1.4
		c0.34-0.391,0.76-0.7,1.26-0.929s1.039-0.343,1.617-0.343c0.383,0,0.743,0.053,1.081,0.158s0.636,0.23,0.894,0.375l-0.24,1.189
		h-0.064c-0.078-0.07-0.176-0.151-0.293-0.244c-0.117-0.093-0.256-0.181-0.416-0.262c-0.16-0.085-0.338-0.156-0.533-0.212
		s-0.418-0.084-0.668-0.084c-0.758,0-1.376,0.32-1.854,0.959c-0.479,0.639-0.718,1.417-0.718,2.332c0,0.55,0.142,0.973,0.425,1.269
		c0.283,0.296,0.687,0.444,1.21,0.444c0.246,0,0.492-0.035,0.738-0.104s0.455-0.146,0.627-0.227
		c0.191-0.089,0.369-0.185,0.533-0.285c0.164-0.101,0.283-0.177,0.357-0.227h0.064l-0.234,1.201
		c-0.34,0.152-0.699,0.284-1.078,0.396S281.462,175.623,281.072,175.623z"/>
	<path class="st13" d="M238.652,184.24c0,0.758-0.114,1.488-0.343,2.191s-0.56,1.322-0.993,1.857
		c-0.445,0.551-0.98,0.983-1.605,1.298s-1.33,0.472-2.115,0.472c-1.039,0-1.852-0.284-2.438-0.853s-0.879-1.376-0.879-2.423
		c0-0.797,0.117-1.541,0.352-2.232s0.572-1.309,1.014-1.852c0.43-0.523,0.962-0.942,1.597-1.257s1.331-0.472,2.089-0.472
		c1.035,0,1.848,0.282,2.438,0.847S238.652,183.189,238.652,184.24z M236.431,187.708c0.328-0.445,0.576-0.942,0.744-1.491
		s0.252-1.153,0.252-1.813c0-0.797-0.2-1.409-0.601-1.837s-0.96-0.642-1.679-0.642c-0.559,0-1.062,0.128-1.512,0.384
		s-0.836,0.603-1.16,1.04c-0.312,0.43-0.553,0.929-0.721,1.497s-0.252,1.153-0.252,1.755c0,0.805,0.2,1.423,0.601,1.854
		s0.962,0.647,1.685,0.647c0.551,0,1.052-0.127,1.503-0.381S236.123,188.13,236.431,187.708z"/>
	<path class="st13" d="M244.503,190.023c-0.414,0-0.78-0.049-1.099-0.146s-0.597-0.252-0.835-0.463
		c-0.23-0.203-0.408-0.459-0.533-0.768s-0.188-0.668-0.188-1.078c0-0.613,0.096-1.186,0.287-1.717s0.463-0.998,0.814-1.4
		c0.34-0.391,0.76-0.7,1.26-0.929s1.039-0.343,1.617-0.343c0.383,0,0.743,0.053,1.081,0.158s0.636,0.23,0.894,0.375l-0.24,1.189
		h-0.064c-0.078-0.07-0.176-0.151-0.293-0.244c-0.117-0.093-0.256-0.181-0.416-0.262c-0.16-0.085-0.338-0.156-0.533-0.212
		s-0.418-0.084-0.668-0.084c-0.758,0-1.376,0.32-1.854,0.959c-0.479,0.639-0.718,1.417-0.718,2.332c0,0.55,0.142,0.973,0.425,1.269
		s0.687,0.444,1.21,0.444c0.246,0,0.492-0.035,0.738-0.104c0.246-0.07,0.455-0.146,0.627-0.227c0.191-0.09,0.369-0.186,0.533-0.285
		c0.164-0.102,0.283-0.178,0.357-0.228h0.064l-0.234,1.201c-0.34,0.152-0.699,0.284-1.078,0.396S244.894,190.023,244.503,190.023z"
		/>
	<path class="st13" d="M253.416,190.029c-0.905,0-1.615-0.213-2.131-0.639c-0.515-0.426-0.772-1.049-0.772-1.869
		c0-1.199,0.379-2.228,1.136-3.085s1.693-1.286,2.81-1.286c0.741,0,1.31,0.185,1.704,0.554c0.394,0.369,0.591,0.888,0.591,1.556
		c0,0.117-0.017,0.303-0.05,0.557s-0.087,0.549-0.161,0.885h-4.822c-0.023,0.113-0.04,0.225-0.05,0.334s-0.015,0.211-0.015,0.305
		c0,0.551,0.168,0.983,0.504,1.298s0.812,0.472,1.43,0.472c0.43,0,0.872-0.084,1.327-0.252s0.837-0.357,1.146-0.568h0.064
		l-0.24,1.189c-0.195,0.07-0.37,0.135-0.526,0.193s-0.355,0.117-0.597,0.176c-0.242,0.059-0.457,0.104-0.645,0.135
		S253.697,190.029,253.416,190.029z M255.616,185.892c0.02-0.113,0.033-0.209,0.041-0.287s0.012-0.164,0.012-0.258
		c0-0.418-0.114-0.744-0.343-0.979s-0.595-0.352-1.099-0.352c-0.555,0-1.047,0.172-1.477,0.516s-0.721,0.797-0.873,1.359H255.616z"
		/>
	<path class="st13" d="M264.022,189.179c-0.105,0.062-0.249,0.151-0.431,0.267s-0.366,0.214-0.554,0.296
		c-0.199,0.09-0.422,0.165-0.668,0.226s-0.529,0.091-0.85,0.091c-0.52,0-0.941-0.151-1.266-0.454s-0.486-0.698-0.486-1.187
		c0-0.52,0.114-0.958,0.343-1.315s0.567-0.649,1.017-0.876c0.441-0.223,0.974-0.384,1.597-0.483c0.622-0.1,1.332-0.161,2.129-0.185
		c0.025-0.109,0.045-0.204,0.062-0.284s0.024-0.163,0.024-0.249c0-0.188-0.037-0.34-0.111-0.457s-0.18-0.211-0.316-0.282
		s-0.296-0.118-0.478-0.144c-0.183-0.025-0.383-0.038-0.602-0.038c-0.332,0-0.712,0.054-1.138,0.161s-0.772,0.214-1.038,0.319
		h-0.059l0.217-1.102c0.223-0.059,0.549-0.125,0.979-0.199s0.842-0.111,1.236-0.111c0.812,0,1.422,0.127,1.828,0.381
		s0.609,0.656,0.609,1.207c0,0.105-0.009,0.218-0.026,0.337s-0.038,0.231-0.062,0.337l-1.022,4.441h-1.093L264.022,189.179z
		 M264.662,186.425c-0.602,0.023-1.136,0.069-1.603,0.138s-0.854,0.167-1.158,0.296c-0.316,0.129-0.557,0.304-0.721,0.524
		s-0.246,0.495-0.246,0.823c0,0.281,0.096,0.496,0.287,0.645s0.487,0.223,0.89,0.223c0.355,0,0.718-0.079,1.086-0.237
		c0.369-0.158,0.714-0.35,1.034-0.572L264.662,186.425z"/>
	<path class="st13" d="M276.031,184.826c0,0.094-0.009,0.221-0.026,0.381s-0.042,0.301-0.073,0.422l-0.98,4.248h-1.098l0.856-3.727
		c0.046-0.207,0.082-0.388,0.107-0.542c0.025-0.154,0.038-0.307,0.038-0.46c0-0.328-0.081-0.575-0.244-0.741
		c-0.162-0.166-0.455-0.249-0.877-0.249c-0.298,0-0.625,0.082-0.983,0.246s-0.707,0.36-1.048,0.588l-1.128,4.885h-1.101l1.512-6.545
		h1.101l-0.168,0.726c0.418-0.292,0.81-0.517,1.175-0.673s0.741-0.234,1.127-0.234c0.57,0,1.015,0.144,1.333,0.431
		S276.031,184.283,276.031,184.826z"/>
</g>
<text transform="matrix(1 0 0 1 84.9539 170.1436)" class="st14 st15">Virginia</text>
<text transform="matrix(1 0 0 1 48.2394 239.6855)" class="st16"><tspan x="0" y="0" class="st14 st15">South</tspan><tspan x="-6.405" y="13.2" class="st14 st15">Carolina</tspan></text>
<text transform="matrix(1 0 0 1 81.3325 205.2719)" class="st16"><tspan x="0" y="0" class="st14 st15">North</tspan><tspan x="-7.184" y="13.2" class="st14 st15">Carolina</tspan></text>
<text transform="matrix(1 0 0 1 159.896 153.6495)" class="st14 st15">Delaware</text>
<text transform="matrix(1 0 0 1 151.8488 170.8646)" class="st14 st15">Maryland</text>
<text transform="matrix(1 0 0 1 74.5228 105.5965)" class="st14 st15">Pennsylvania</text>
<text transform="matrix(1 0 0 1 153.2257 65.9388)" class="st14 st15">New</text>
<text transform="matrix(1 0 0 1 152.8257 79.1388)" class="st14 st15">York</text>
<text transform="matrix(1 0 0 1 168.0175 1.1709)" class="st14 st15">New</text>
<text transform="matrix(1 0 0 1 150.2174 14.371)" class="st14 st15">Hampshire</text>
<text transform="matrix(1 0 0 1 229.7142 62.1943)" class="st14 st15">Massachusetts</text>
<text transform="matrix(1 0 0 1 240.3363 95.8577)" class="st14 st15">Rhode</text>
<text transform="matrix(1 0 0 1 241.3363 109.1577)" class="st14 st15">Island</text>
<text transform="matrix(1 0 0 1 176.0859 119.6425)" class="st14 st15">Connecticut</text>
<text transform="matrix(1 0 0 1 176.2728 138.3039)" class="st14 st15">New Jersey</text>
<text transform="matrix(1 0 0 1 4.5189 283.4286)" class="st14 st15">Georgia</text>
<line class="st17" x1="238.542" y1="97.659" x2="210.942" y2="84.359"/>
<line class="st17" x1="204.642" y1="111.059" x2="197.942" y2="87.759"/>
<line class="st17" x1="188.142" y1="15.759" x2="209.742" y2="49.459"/>
<line class="st17" x1="158.842" y1="146.359" x2="147.242" y2="143.059"/>
<line class="st17" x1="174.042" y1="134.459" x2="159.042" y2="123.159"/>
<line class="st17" x1="151.942" y1="165.459" x2="138.742" y2="151.859"/>
<line class="st17" x1="237.142" y1="51.259" x2="248.042" y2="21.359"/>
<line class="st17" x1="227.542" y1="62.159" x2="204.242" y2="70.459"/>
<path class="st18" d="M296.455,304.276H177.83c-3.262,0-5.906-2.644-5.906-5.906v-56.1c0-3.262,2.644-5.906,5.906-5.906h118.625
	c3.262,0,5.906,2.644,5.906,5.906v56.1C302.361,301.632,299.717,304.276,296.455,304.276z"/>
<rect x="178.676" y="242.454" class="st19" width="13.774" height="13.774"/>
<rect x="178.676" y="263.985" class="st20" width="13.774" height="13.774"/>
<rect x="178.676" y="285.258" class="st21" width="13.774" height="13.774"/>
<text transform="matrix(1 0 0 1 197.2764 252.735)" class="st14 st15">New England</text>
<text transform="matrix(1 0 0 1 197.7477 274.4917)" class="st14 st15">Middle Colonies</text>
<text transform="matrix(1 0 0 1 197.7477 296.073)" class="st14 st15">Southern Colonies</text>
</svg>
