<svg xmlns="http://www.w3.org/2000/svg" xmlns:xlink="http://www.w3.org/1999/xlink" viewBox="0 0 286.98 177.51"><defs><style>.cls-1,.cls-14,.cls-2,.cls-6{fill:none;}.cls-14,.cls-2{stroke:#231815;}.cls-14,.cls-2,.cls-6{stroke-miterlimit:10;}.cls-2{stroke-width:0.75px;}.cls-3,.cls-4,.cls-5{fill:#231815;}.cls-4{font-size:8px;}.cls-4,.cls-5{font-family:AdobeSongStd-Light-GBpc-EUC-H, Adobe Song Std;}.cls-5{font-size:16.78px;}.cls-6{stroke:#000;}.cls-14,.cls-6{stroke-width:0.25px;}.cls-7{isolation:isolate;}.cls-8{clip-path:url(#clip-path);}.cls-9{clip-path:url(#clip-path-2);}.cls-10{clip-path:url(#clip-path-3);}.cls-11{clip-path:url(#clip-path-4);}.cls-12{clip-path:url(#clip-path-5);}.cls-13{clip-path:url(#clip-path-6);}</style><clipPath id="clip-path"><polygon class="cls-1" points="198.52 70.12 198.44 113.55 180.2 105.11 180.28 61.69 198.52 70.12"/></clipPath><clipPath id="clip-path-2"><polygon class="cls-1" points="159.73 119.96 141.49 111.53 141.57 68.11 159.81 76.54 159.73 119.96"/></clipPath><clipPath id="clip-path-3"><polygon class="cls-1" points="268.51 66.66 268.46 92.27 257.71 87.3 257.75 61.69 268.51 66.66"/></clipPath><clipPath id="clip-path-4"><polygon class="cls-1" points="245.64 96.05 234.88 91.08 234.93 65.47 245.68 70.45 245.64 96.05"/></clipPath><clipPath id="clip-path-5"><polygon class="cls-1" points="57.15 70.12 57.07 113.55 38.84 105.11 38.91 61.69 57.15 70.12"/></clipPath><clipPath id="clip-path-6"><polygon class="cls-1" points="18.36 119.96 0.13 111.53 0.21 68.11 18.44 76.54 18.36 119.96"/></clipPath></defs><title>资源 18</title><g id="图层_2" data-name="图层 2"><g id="图层_1-2" data-name="图层 1"><line class="cls-2" x1="46" y1="91.18" x2="151.42" y2="91.18"/><polygon class="cls-3" points="156.72 91.19 149.25 94.23 151.02 91.19 149.25 88.14 156.72 91.19"/><text class="cls-4" transform="translate(68.25 76.8)">矩阵A<tspan x="0" y="9.6">变换规则</tspan></text><text class="cls-5" transform="translate(59 41.3)">Ax = b</text><text class="cls-4" transform="translate(68.25 103.3)">将3维物体<tspan x="0" y="9.6">投射到4维空间中</tspan></text><text class="cls-4" transform="translate(200.54 41.3)">4维空间</text><text class="cls-4" transform="translate(162.89 88.76)">Ax子空间内的<tspan x="0" y="9.6">4维的</tspan><tspan x="0" y="19.2">b向量</tspan></text><text class="cls-4" transform="translate(236.76 78.55)">真正自由的<tspan x="0" y="9.6">4维向量</tspan></text><text class="cls-4" transform="translate(21.52 91.18)">三维的<tspan x="0" y="9.6">a向量</tspan></text><polygon class="cls-6" points="141.57 68.11 180.28 61.69 180.2 105.11 141.49 111.53 141.57 68.11"/><polygon class="cls-6" points="159.81 76.54 198.52 70.12 198.44 113.55 159.73 119.96 159.81 76.54"/><g class="cls-7"><g class="cls-8"><polygon class="cls-6" points="198.52 70.12 198.44 113.55 180.2 105.11 180.28 61.69 198.52 70.12"/></g></g><g class="cls-7"><g class="cls-9"><polygon class="cls-6" points="159.73 119.96 141.49 111.53 141.57 68.11 159.81 76.54 159.73 119.96"/></g></g><polygon class="cls-6" points="234.93 65.47 257.75 61.69 257.71 87.3 234.88 91.08 234.93 65.47"/><polygon class="cls-6" points="245.68 70.45 268.51 66.66 268.46 92.27 245.64 96.05 245.68 70.45"/><g class="cls-7"><g class="cls-10"><polygon class="cls-6" points="268.51 66.66 268.46 92.27 257.71 87.3 257.75 61.69 268.51 66.66"/></g></g><g class="cls-7"><g class="cls-11"><polygon class="cls-6" points="245.64 96.05 234.88 91.08 234.93 65.47 245.68 70.45 245.64 96.05"/></g></g><polygon class="cls-6" points="0.21 68.11 38.91 61.69 38.84 105.11 0.13 111.53 0.21 68.11"/><polygon class="cls-6" points="18.44 76.54 57.15 70.12 57.07 113.55 18.36 119.96 18.44 76.54"/><g class="cls-7"><g class="cls-12"><polygon class="cls-6" points="57.15 70.12 57.07 113.55 38.84 105.11 38.91 61.69 57.15 70.12"/></g></g><g class="cls-7"><g class="cls-13"><polygon class="cls-6" points="18.36 119.96 0.13 111.53 0.21 68.11 18.44 76.54 18.36 119.96"/></g></g><circle class="cls-14" cx="198.22" cy="88.76" r="88.63"/></g></g></svg>