<svg xmlns="http://www.w3.org/2000/svg" viewBox="0 0 215.15 149.74"><defs><style>.cls-1,.cls-2,.cls-4{font-size:8px;font-family:AdobeSongStd-Light-GBpc-EUC-H, Adobe Song Std;}.cls-1,.cls-6{fill:#c30d23;}.cls-2,.cls-7{fill:#1d2088;}.cls-3{fill:none;stroke:#231815;stroke-miterlimit:10;stroke-width:0.25px;}.cls-4,.cls-5{fill:#231815;}</style></defs><title>资源 24</title><g id="图层_2" data-name="图层 2"><g id="图层_1-2" data-name="图层 1"><text class="cls-1" transform="translate(34.51 60.22)">轴x</text><text class="cls-1" transform="translate(46.24 62.88) scale(0.58)">1</text><text class="cls-2" transform="translate(0 79.91)">系数k倍</text><rect class="cls-3" x="32.49" y="48.37" width="18.77" height="57.67"/><text class="cls-1" transform="translate(99.63 60.22)">轴x</text><text class="cls-1" transform="translate(111.36 62.88) scale(0.58)">2</text><text class="cls-2" transform="translate(65.12 79.91)">系数k倍</text><text class="cls-4" transform="translate(57.47 79.91)">+</text><rect class="cls-3" x="97.61" y="48.37" width="18.77" height="57.67"/><text class="cls-1" transform="translate(163.96 60.22)">轴x</text><text class="cls-1" transform="translate(175.69 62.88) scale(0.58)">3</text><text class="cls-2" transform="translate(129.45 79.91)">系数k倍</text><text class="cls-4" transform="translate(195.45 80.25)">0向量</text><text class="cls-4" transform="translate(121.8 79.91)">+</text><text class="cls-4" transform="translate(186.47 79.91)">=</text><rect class="cls-3" x="161.94" y="48.37" width="18.77" height="57.67"/><polyline class="cls-3" points="41.88 108.81 41.88 128.04 171.33 128.04 171.33 107.81"/><polygon class="cls-5" points="41.88 107.04 40.86 109.53 41.88 108.94 42.89 109.53 41.88 107.04"/><polygon class="cls-5" points="171.33 106.04 172.34 108.53 171.33 107.94 170.31 108.53 171.33 106.04"/><line class="cls-3" x1="106.99" y1="137.37" x2="106.99" y2="107.81"/><polygon class="cls-5" points="107 106.04 108.01 108.53 107 107.94 105.98 108.53 107 106.04"/><polyline class="cls-3" points="9.88 64.52 9.88 30.58 139.33 30.58 139.33 66.22"/><polygon class="cls-5" points="9.88 66.29 10.89 63.8 9.88 64.39 8.86 63.8 9.88 66.29"/><polygon class="cls-5" points="139.33 67.99 138.31 65.5 139.33 66.09 140.34 65.5 139.33 67.99"/><line class="cls-3" x1="74.99" y1="14.71" x2="74.99" y2="66.22"/><polygon class="cls-5" points="75 67.99 73.98 65.5 75 66.09 76.01 65.5 75 67.99"/><text class="cls-4" transform="translate(65.12 147.71)">原像x轴的解集, 即<tspan class="cls-6" x="63.29" y="0">零空间</tspan></text><text class="cls-4" transform="translate(13.12 7.04)">矩阵的列向量, 进行线性组合, 即构成<tspan class="cls-7" x="127.12" y="0">列空间.</tspan></text></g></g></svg>