<svg xmlns="http://www.w3.org/2000/svg" viewBox="0 0 1289.5 1014.2"><defs><style>.cls-1,.cls-15,.cls-9{fill:#009a3e;}.cls-1,.cls-2,.cls-3,.cls-4,.cls-5{stroke:#231815;}.cls-1,.cls-13,.cls-2,.cls-3,.cls-4,.cls-5{stroke-miterlimit:10;}.cls-1{opacity:0.2;}.cls-13,.cls-2,.cls-3,.cls-4,.cls-5{fill:none;}.cls-3{stroke-dasharray:1.99 1.99;}.cls-4{stroke-dasharray:2 2;}.cls-5{stroke-dasharray:2 2;}.cls-12,.cls-6,.cls-7{fill:#231815;}.cls-7,.cls-8{font-size:36px;}.cls-12,.cls-14,.cls-15,.cls-7,.cls-8{font-family:AdobeSongStd-Light-GBpc-EUC-H, Adobe Song Std;}.cls-8{fill:#22ac38;}.cls-10{letter-spacing:0em;}.cls-11,.cls-14{fill:#2ea7e0;}.cls-12{font-size:26.58px;}.cls-13{stroke:#009a3e;}.cls-14,.cls-15{font-size:14.68px;}</style></defs><title>资源 1</title><g id="图层_2" data-name="图层 2"><g id="图层_1-2" data-name="图层 1"><path class="cls-1" d="M555.7,549.68V335.27c-43.18,30.35-101.52,59.73-159,45-92.64-23.74-115.18-144.62-189-147-25.93-.83-62.49,12.8-108,78V549.68h456"/><path class="cls-2" d="M555.7,549.68V335.27c-43.18,30.35-101.52,59.73-159,45-92.64-23.74-115.18-144.62-189-147-25.93-.83-62.49,12.8-108,78V549.68h456"/><path class="cls-2" d="M688.41,439V224.59c-43.19,30.36-101.52,59.74-159,45-92.64-23.74-115.18-144.63-189-147-25.93-.84-62.49,12.79-108,78V439h456"/><line class="cls-2" x1="670.11" y1="453.68" x2="670.11" y2="452.68"/><line class="cls-3" x1="670.11" y1="450.69" x2="670.11" y2="241.26"/><path class="cls-2" d="M670.11,240.26v-1l-.81.58"/><path class="cls-4" d="M667.65,241c-42.93,29.73-100.15,57.74-156.55,43.29-92.65-23.74-115.18-144.62-189-147-25.94-.84-62.5,12.8-108,78V451.67"/><polyline class="cls-2" points="214.06 452.68 214.06 453.68 215.06 453.68"/><line class="cls-5" x1="217.07" y1="453.68" x2="668.11" y2="453.68"/><line class="cls-2" x1="669.11" y1="453.68" x2="670.11" y2="453.68"/><polyline class="cls-2" points="4.07 68.74 4.07 549.68 633 549.68"/><polygon class="cls-6" points="4.07 61.68 0 71.63 4.07 69.27 8.13 71.63 4.07 61.68"/><polygon class="cls-6" points="640.07 549.68 630.12 553.75 632.48 549.68 630.12 545.62 640.07 549.68"/><line class="cls-2" x1="4.07" y1="549.68" x2="152.6" y2="428.15"/><polygon class="cls-6" points="158.06 423.68 152.94 433.13 152.19 428.49 147.79 426.83 158.06 423.68"/><line class="cls-2" x1="555.7" y1="549.68" x2="688.41" y2="439.01"/><line class="cls-2" x1="99.66" y1="549.68" x2="232.37" y2="439.01"/><line class="cls-2" x1="166.01" y1="243.05" x2="298.72" y2="132.38"/><line class="cls-2" x1="555.7" y1="336.11" x2="688.41" y2="225.44"/><text class="cls-7" transform="translate(336.07 331.68)">z= f(x,y)</text><text class="cls-7" transform="translate(296.07 494.34)">∫z dx</text><text class="cls-8" transform="translate(143.66 704.34)">∫f(x,y) dx<tspan class="cls-6" x="157.32" y="0" xml:space="preserve">  : 就是曲线z下方的阴影面积, 即正面部分的面积(图中绿色部分)</tspan></text><text class="cls-7" transform="translate(143.66 838.72)">∫[<tspan class="cls-9" x="49.46" y="0">∫f(x,y) dx</tspan><tspan class="cls-10" x="206.78" y="0">] </tspan><tspan class="cls-11" x="227.7" y="0">dy</tspan><tspan x="263.01" y="0" xml:space="preserve">  : 就是曲线z下体积的面积</tspan></text><text class="cls-7" transform="translate(204.65 912.22)">单个切片体积</text><text class="cls-7" transform="translate(159.66 1005.06)">把所有“单个切片体积”, 都加起来, 就是整个“曲顶柱体”的体积</text><text class="cls-7" transform="translate(749.13 325.37)">单个切片体积</text><text class="cls-7" transform="translate(658.07 562.68)">x</text><text class="cls-7" transform="translate(166.01 416.68)">y</text><text class="cls-7" transform="translate(4.07 31.68)">z</text><text class="cls-7" transform="translate(539.67 577.68) rotate(-90)">{</text><text class="cls-12" transform="translate(692 449.02) rotate(-134.36)">{</text><text class="cls-7" transform="translate(503.67 577.68) rotate(-90)">{</text><text class="cls-7" transform="translate(460.39 577.68) rotate(-90)">{</text><text class="cls-7" transform="translate(514.07 606.68)">dx</text><text class="cls-12" transform="translate(682.62 470.26)">dy</text><text class="cls-7" transform="translate(670.11 471.29) rotate(-134.36)">{</text><text class="cls-7" transform="translate(657.41 500.07)">dy</text><text class="cls-7" transform="translate(472.07 606.68)">dx</text><text class="cls-7" transform="translate(428.07 606.68)">dx</text><polyline class="cls-2" points="208.06 854.06 218.3 863.56 295.32 863.56 302.86 874.06"/><polyline class="cls-2" points="397.65 854.06 387.42 863.56 310.4 863.56 302.86 874.06"/><polyline class="cls-13" points="336.06 805.72 329.89 801.21 283.38 801.21 278.82 796.22"/><polyline class="cls-13" points="221.58 805.72 227.76 801.21 274.27 801.21 278.82 796.22"/><polyline class="cls-2" points="143.66 933.06 157.37 942.56 260.55 942.56 270.66 953.06"/><polyline class="cls-2" points="397.65 933.06 383.94 942.56 280.76 942.56 270.66 953.06"/><line class="cls-2" x1="683.17" y1="312.27" x2="742.64" y2="312.27"/><polygon class="cls-6" points="676.11 312.27 686.06 316.34 683.7 312.27 686.06 308.21 676.11 312.27"/><text class="cls-14" transform="translate(372.57 800.97)">dy是单个切片的厚度</text><text class="cls-15" transform="translate(214.23 792.31)">单个切片的正面面积</text></g></g></svg>