<svg xmlns:xlink="http://www.w3.org/1999/xlink" viewBox="0 0 375 263" xmlns="http://www.w3.org/2000/svg" height="263" width="375">
    <defs/>
    <g transform="translate(-278.00,-235.00)">
        <g id="shape1" transform="translate(340.41,236.00)">
            <path fill="#ffffff" stroke="#323232" fill-rule="nonzero" d="M.0,.0L146.2,.0L146.2,47.0L.0,47.0L.0,.0z"/>
            <text style="fill:#191919;font-family:Microsoft YaHei;font-size:10.00pt" xml:space="preserve">
                <tspan x="47.1" y="29.0">当前现状</tspan>
            </text>
        </g>
        <g id="shape2" transform="translate(340.41,331.00)">
            <path fill="#ffffff" stroke="#323232" fill-rule="nonzero" d="M.0,.0L146.2,.0L146.2,47.0L.0,47.0L.0,.0z"/>
            <text style="fill:#191919;font-family:Microsoft YaHei;font-size:10.00pt" xml:space="preserve">
                <tspan x="53.6" y="19.5">造成的</tspan>
                <tspan x="40.6" y="38.5">后果和问题</tspan>
            </text>
        </g>
        <g id="shape3" transform="translate(414.15,283.00)">
            <path fill="none" stroke="#191919" d="M.0,.0L.0,42.0"/>
            <path stroke-linecap="round" fill="#191919" stroke="#191919" stroke-width="1" d="M3.0,42.0L.0,48.0L-3.0,42.0L3.0,42.0"/>
        </g>
        <g id="shape4" transform="translate(538.50,331.00)">
            <path fill="#ffffff" stroke="#323232" fill-rule="nonzero" d="M.0,.0L113.0,.0L113.0,47.0L.0,47.0L.0,.0z"/>
            <text style="fill:#191919;font-family:Microsoft YaHei;font-size:10.00pt" xml:space="preserve">
                <tspan x="24.0" y="29.0">采取的措施</tspan>
            </text>
        </g>
        <g id="shape5" transform="translate(486.59,260.00)">
            <path fill="none" stroke="#191919" d="M.0,.0L108.9,.0L108.9,65.0"/>
            <path stroke-linecap="round" fill="#191919" stroke="#191919" stroke-width="1" d="M111.9,65.0L108.9,71.0L105.9,65.0L111.9,65.0"/>
        </g>
        <g id="shape6" transform="translate(538.50,355.00)">
            <path stroke-dasharray="6,4" fill="none" stroke="#191919" d="M.0,.0L-45.9,-0.0"/>
            <path stroke-linecap="round" fill="#191919" stroke="#191919" stroke-width="1" d="M-45.9,3.0L-51.9,-0.0L-45.9,-3.0L-45.9,3.0"/>
        </g>
        <g id="shape7" transform="translate(340.41,435.00)">
            <path fill="#ffffff" stroke="#323232" fill-rule="nonzero" d="M.0,.0L146.2,.0L146.2,62.0L.0,62.0L.0,.0z"/>
            <text style="fill:#191919;font-family:Microsoft YaHei;font-size:10.00pt" xml:space="preserve">
                <tspan x="21.1" y="27.0">造成的后果和问题</tspan>
                <tspan x="17.6" y="46.0">(即未来的"新现状")</tspan>
            </text>
        </g>
        <g id="shape8" transform="translate(595.50,378.00)">
            <path fill="none" stroke="#191919" d="M.0,.0L.0,88.7L-102.9,88.7"/>
            <path stroke-linecap="round" fill="#191919" stroke="#191919" stroke-width="1" d="M-102.9,91.7L-108.9,88.7L-102.9,85.7L-102.9,91.7"/>
            <rect x="-25.0" fill="#ffffff" y="51.9" height="19.0" width="52.0"/>
            <rect x="-31.5" fill="#ffffff" y="70.9" height="19.0" width="65.0"/>
            <text style="fill:#191919;font-family:Microsoft YaHei;font-size:10.00pt" xml:space="preserve">
                <tspan x="-25.0" y="66.9">又带来的</tspan>
                <tspan x="-31.5" y="85.9">新发现问题</tspan>
            </text>
        </g>
        <g id="shape9" transform="translate(340.41,466.66)">
            <path stroke-dasharray="6,4" fill="none" stroke="#191919" d="M.0,.0L-57.4,.0L-57.4,-206.7L-6.0,-206.7"/>
            <path stroke-linecap="round" fill="#191919" stroke="#191919" stroke-width="1" d="M-6.0,-209.7L.0,-206.7L-6.0,-203.7L-6.0,-209.7"/>
        </g>
    </g>
</svg>
