<svg id="图层_1" data-name="图层 1" xmlns="http://www.w3.org/2000/svg" viewBox="0 0 451.93 465.48"><defs><style>.cls-1{fill:#dcdddd;}.cls-2{fill:#fff;}.cls-2,.cls-3,.cls-5{stroke:#231815;}.cls-2,.cls-3,.cls-5,.cls-6,.cls-7{stroke-miterlimit:10;}.cls-3,.cls-5,.cls-6,.cls-7{fill:none;}.cls-4,.cls-8{font-size:14px;font-family:MicrosoftYaHei, Microsoft YaHei;}.cls-5,.cls-7{stroke-dasharray:2 2;}.cls-6,.cls-7{stroke:#c30d23;}.cls-8{fill:#c30d23;}</style></defs><title>0011</title><rect class="cls-1" x="171.99" width="79.5" height="388.48"/><polygon class="cls-2" points="211.24 49 201.14 66.5 221.35 66.5 211.24 49"/><line class="cls-3" x1="69.5" y1="49" x2="352.99" y2="49"/><text class="cls-4" transform="translate(183.24 37.91)">息票利率</text><text class="cls-4" transform="translate(0 44.33)">债券价格<tspan x="14" y="16.8">现值</tspan></text><text class="cls-4" transform="translate(361.07 54.33)">到期收益率 i</text><polygon class="cls-2" points="211.24 177.49 201.14 194.99 221.35 194.99 211.24 177.49"/><line class="cls-3" x1="74.84" y1="216.01" x2="347.65" y2="138.97"/><text class="cls-4" transform="translate(183.24 166.4)">息票利率</text><text class="cls-4" transform="translate(6 208.99)">债券价格<tspan x="14" y="16.8">现值</tspan></text><text class="cls-4" transform="translate(374.07 140.82)">到期收益率 i</text><line class="cls-3" x1="186.4" y1="177.49" x2="187.4" y2="177.49"/><line class="cls-5" x1="189.4" y1="177.49" x2="232.4" y2="177.49"/><line class="cls-3" x1="233.4" y1="177.49" x2="234.4" y2="177.49"/><line class="cls-6" x1="319.07" y1="137.57" x2="320.07" y2="137.57"/><line class="cls-7" x1="322.07" y1="137.57" x2="365.07" y2="137.57"/><line class="cls-6" x1="366.07" y1="137.57" x2="367.07" y2="137.57"/><polygon class="cls-2" points="211.24 325.65 201.14 343.15 221.35 343.15 211.24 325.65"/><line class="cls-3" x1="74.16" y1="289.62" x2="348.33" y2="361.68"/><text class="cls-4" transform="translate(183.24 314.56)">息票利率</text><text class="cls-4" transform="translate(6 286.15)">债券价格<tspan x="14" y="16.8">现值</tspan></text><text class="cls-4" transform="translate(374.07 365.91)">到期收益率 i</text><text class="cls-8" transform="translate(84.31 421.91)">对方(向你借入钱的人)实际还款给你的钱, <tspan x="41.75" y="20">永远要保持在一个固定数额,</tspan><tspan x="17.24" y="40">由“债券最初价格×息票利率”决定</tspan></text><line class="cls-3" x1="186.4" y1="325.65" x2="187.4" y2="325.65"/><line class="cls-5" x1="189.4" y1="325.65" x2="232.4" y2="325.65"/><line class="cls-3" x1="233.4" y1="325.65" x2="234.4" y2="325.65"/><line class="cls-6" x1="319.07" y1="362.66" x2="320.07" y2="362.66"/><line class="cls-7" x1="322.07" y1="362.66" x2="365.07" y2="362.66"/><line class="cls-6" x1="366.07" y1="362.66" x2="367.07" y2="362.66"/></svg>