<svg xmlns="http://www.w3.org/2000/svg" width="538" viewBox="0 0 538 257" xmlns:xlink="http://www.w3.org/1999/xlink" height="257">
    <defs/>
    <g transform="translate(-1961.00,-21.00)">
        <g transform="translate(1962.00,204.00)" id="shape1">
            <path fill="#ffffff" stroke="#323232" d="M158.0,54.0L158.0,.0L.0,.0L.0,54.0L158.0,54.0z" fill-rule="nonzero"/>
            <text xml:space="preserve" style="fill:#191919;font-family:Microsoft YaHei;font-size:10.00pt">
                <tspan x="44.5" y="32.5">Juana Arias</tspan>
            </text>
        </g>
        <g transform="translate(1962.00,22.00)" id="shape2">
            <path fill="#ffffff" stroke="#323232" d="M158.0,54.0L158.0,.0L.0,.0L.0,54.0L158.0,54.0z" fill-rule="nonzero"/>
            <text xml:space="preserve" style="fill:#191919;font-family:Microsoft YaHei;font-size:10.00pt">
                <tspan x="30.5" y="23.0">Catholic church </tspan>
                <tspan x="45.0" y="42.0">foundation</tspan>
            </text>
        </g>
        <g transform="translate(2041.00,76.00)" id="shape3">
            <path fill="none" stroke="#191919" d="M.0,.0L-0.0,122.0"/>
            <path fill="#191919" stroke="#191919" stroke-linecap="round" d="M3.0,122.0L-0.0,128.0L-3.0,122.0L3.0,122.0" stroke-width="1"/>
            <rect fill="#ffffff" width="39.0" x="-18.5" y="57.6" height="19.0"/>
            <text xml:space="preserve" style="fill:#191919;font-family:Microsoft YaHei;font-size:10.00pt">
                <tspan x="-18.5" y="72.6">贷款给</tspan>
            </text>
        </g>
        <g transform="translate(2151.00,204.00)" id="shape4">
            <path fill="#ffffff" stroke="#323232" d="M158.0,73.0L158.0,.0L.0,.0L.0,73.0L158.0,73.0z" fill-rule="nonzero"/>
            <text xml:space="preserve" style="fill:#191919;font-family:Microsoft YaHei;font-size:10.00pt">
                <tspan x="26.5" y="23.0">Maria Hernandez</tspan>
                <tspan x="42.0" y="42.0">( press chief</tspan>
                <tspan x="34.5" y="61.0"> for the union)</tspan>
            </text>
        </g>
        <g transform="translate(2173.00,122.00)" id="shape5">
            <text xml:space="preserve" style="fill:#191919;font-family:Microsoft YaHei;font-size:10.00pt">
                <tspan x="14.5" y="20.0">女工自己创业者</tspan>
            </text>
        </g>
        <g transform="translate(2340.00,204.00)" id="shape6">
            <path fill="#ffffff" stroke="#323232" d="M158.0,54.0L158.0,.0L.0,.0L.0,54.0L158.0,54.0z" fill-rule="nonzero"/>
            <text xml:space="preserve" style="fill:#191919;font-family:Microsoft YaHei;font-size:10.00pt">
                <tspan x="52.5" y="23.0">Manuela</tspan>
                <tspan x="28.0" y="42.0">( cooking tacos )</tspan>
            </text>
        </g>
        <g transform="translate(2230.00,151.00)" id="shape7">
            <path fill="none" stroke="#191919" d="M.0,.0L-153.3,.0L-153.3,47.0"/>
            <path fill="#191919" stroke="#191919" stroke-linecap="round" d="M-150.3,47.0L-153.3,53.0L-156.3,47.0L-150.3,47.0" stroke-width="1"/>
        </g>
        <g transform="translate(2230.00,151.00)" id="shape8">
            <path fill="none" stroke="#191919" d="M.0,.0L.0,47.0"/>
            <path fill="#191919" stroke="#191919" stroke-linecap="round" d="M3.0,47.0L.0,53.0L-3.0,47.0L3.0,47.0" stroke-width="1"/>
        </g>
        <g transform="translate(2230.00,151.00)" id="shape9">
            <path fill="none" stroke="#191919" d="M.0,.0L189.0,.0L189.0,47.0"/>
            <path fill="#191919" stroke="#191919" stroke-linecap="round" d="M192.0,47.0L189.0,53.0L186.0,47.0L192.0,47.0" stroke-width="1"/>
        </g>
    </g>
</svg>
