<svg xmlns="http://www.w3.org/2000/svg" viewBox="0 0 208.18 160.8"><defs><style>.cls-1,.cls-14,.cls-2,.cls-3,.cls-4,.cls-5{fill:none;stroke-miterlimit:10;}.cls-1,.cls-14,.cls-4,.cls-5{stroke:#231815;}.cls-1,.cls-3,.cls-4,.cls-5{stroke-width:0.5px;}.cls-2{stroke:#009a3e;stroke-width:0.75px;}.cls-3{stroke:#dcdddd;stroke-dasharray:2 2;}.cls-4{stroke-dasharray:1.86 1.86;}.cls-5{stroke-dasharray:1.98 1.98;}.cls-13,.cls-6,.cls-7{font-size:7px;}.cls-10,.cls-11,.cls-12,.cls-13,.cls-6,.cls-8,.cls-9{fill:#231815;}.cls-6,.cls-7{font-family:MicrosoftYaHei, Microsoft YaHei;}.cls-7{fill:#009a3e;}.cls-9{font-size:33.37px;}.cls-10,.cls-11,.cls-12,.cls-13,.cls-9{font-family:MicrosoftYaHeiLight, Microsoft YaHei;}.cls-10{font-size:63.34px;}.cls-11{font-size:31.87px;}.cls-12{font-size:18.75px;}.cls-15{fill:#c30d23;}</style></defs><title>资源 13</title><g id="图层_2" data-name="图层 2"><g id="图层_1-2" data-name="图层 1"><line class="cls-1" x1="2.81" y1="0.25" x2="208.18" y2="0.25"/><line class="cls-1" x1="2.81" y1="71.25" x2="208.18" y2="71.25"/><line class="cls-2" x1="61.34" y1="31.59" x2="8.06" y2="77.59"/><line class="cls-2" x1="155.28" y1="8.59" x2="102" y2="54.59"/><line class="cls-3" x1="100.03" y1="56.3" x2="82.71" y2="71.25"/><line class="cls-1" x1="37.07" y1="52.55" x2="37.07" y2="53.55"/><line class="cls-4" x1="37.07" y1="55.4" x2="37.07" y2="69.32"/><line class="cls-1" x1="37.07" y1="70.25" x2="37.07" y2="71.25"/><line class="cls-1" x1="128.64" y1="31.59" x2="128.64" y2="32.59"/><line class="cls-5" x1="128.64" y1="34.57" x2="128.64" y2="69.26"/><line class="cls-1" x1="128.64" y1="70.25" x2="128.64" y2="71.25"/><path class="cls-1" d="M19.38,67.89S22,69,21,71.09"/><path class="cls-1" d="M87.14,67.89s2.58,1.08,1.59,3.2"/><text class="cls-6" transform="translate(91.37 70.49)">θ</text><text class="cls-6" transform="translate(141.87 53.59)">dis</text><text class="cls-7" transform="translate(47.19 28.25)">针长 L</text><text class="cls-7" transform="translate(128.64 11.25)">针长 L</text><text class="cls-6" transform="translate(45.75 63.77)">dis</text><text class="cls-6" transform="translate(23.37 70.49)">θ</text><text class="cls-6" transform="translate(197.07 37.75)">D</text><line class="cls-1" x1="199.07" y1="0.25" x2="199.07" y2="24.72"/><polygon class="cls-8" points="199.07 28.25 197.03 23.27 199.07 24.46 201.1 23.27 199.07 28.25"/><line class="cls-1" x1="199.07" y1="70.59" x2="199.07" y2="46.12"/><polygon class="cls-8" points="199.07 42.59 201.1 47.57 199.07 46.39 197.03 47.57 199.07 42.59"/><text class="cls-9" transform="translate(130.03 61.86)">}</text><text class="cls-10" transform="matrix(-0.35, -0.39, 0.75, -0.66, 117.07, 38.45)">}</text><text class="cls-11" transform="matrix(-0.69, -0.78, 0.75, -0.66, 30.59, 55.18)">}</text><text class="cls-12" transform="translate(38.07 68.34)">}</text><text class="cls-13" transform="translate(0 53.59)">斜边</text><text class="cls-13" transform="translate(81 45.09)">斜边</text><text class="cls-6" transform="translate(71.69 113.49)">dis</text><text class="cls-13" transform="translate(48.81 118.96)">sinθ=</text><line class="cls-14" x1="68" y1="116.96" x2="84.19" y2="116.96"/><text class="cls-13" transform="translate(70 125.46)">斜边</text><text class="cls-6" transform="translate(71.69 146.99)">dis</text><text class="cls-13" transform="translate(48.81 152.46)">斜边=</text><line class="cls-14" x1="68" y1="150.46" x2="84.19" y2="150.46"/><text class="cls-13" transform="translate(70 158.96)">sinθ</text><text class="cls-13" transform="translate(0 88.75)">当 <tspan class="cls-15" x="9.07" y="0">斜边&lt;= L/2 </tspan><tspan x="47.16" y="0">时</tspan><tspan x="0" y="8.4">就是</tspan><tspan class="cls-15" x="14" y="8.4">相交</tspan></text><text class="cls-13" transform="translate(84.19 88.75)">当 <tspan class="cls-15" x="9.07" y="0">斜边&gt; L/2 </tspan><tspan x="42.25" y="0">时</tspan><tspan x="0" y="8.4">就是</tspan><tspan class="cls-15" x="14" y="8.4">没相交</tspan></text></g></g></svg>