<svg xmlns="http://www.w3.org/2000/svg" viewBox="0 0 153.51 107.61"><defs><style>.cls-1{isolation:isolate;}.cls-2{fill:#efefef;}.cls-3{fill:none;}.cls-3,.cls-4{stroke:#231815;stroke-width:0.5px;}.cls-3,.cls-4,.cls-5{stroke-miterlimit:10;}.cls-4{fill:#dcdddd;mix-blend-mode:multiply;}.cls-5{fill:#ccc;stroke:#e60012;stroke-width:2px;}.cls-6{font-size:9px;fill:#231815;font-family:MicrosoftYaHeiLight, Microsoft YaHei;}</style></defs><title>资源 20</title><g class="cls-1"><g id="图层_2" data-name="图层 2"><g id="图层_1-2" data-name="图层 1"><path class="cls-2" d="M153.26.25v90.5H.25V.25ZM112.5,45.5A27.12,27.12,0,1,0,85.38,72.62,27.12,27.12,0,0,0,112.5,45.5Z"/><circle class="cls-3" cx="85.38" cy="45.5" r="27.12"/><rect class="cls-3" x="0.25" y="0.25" width="153.01" height="90.5"/><circle class="cls-4" cx="53.88" cy="45.5" r="27.12"/><path class="cls-5" d="M58.26,45.5A27,27,0,0,1,69.64,23.43a27.12,27.12,0,1,0,0,44.14A27,27,0,0,1,58.26,45.5Z"/><text class="cls-6" transform="translate(43.35 51.26)">A</text><text class="cls-6" transform="translate(89.76 51.26)">B</text><text class="cls-6" transform="translate(126.01 51.26)">B逆</text><text class="cls-6" transform="translate(61.35 49.26)">A∩B</text><text class="cls-6" transform="translate(18.01 105.26)"><tspan xml:space="preserve">A∩B逆 :  就是红色面积的那块</tspan></text></g></g></g></svg>