<svg xmlns="http://www.w3.org/2000/svg" viewBox="0 0 227 174"><defs><style>.cls-1{isolation:isolate;}.cls-2{fill:#dcdddd;}.cls-2,.cls-3,.cls-6,.cls-7{stroke:#231815;stroke-miterlimit:10;}.cls-2,.cls-3,.cls-7{stroke-width:0.5px;}.cls-2,.cls-3,.cls-4{mix-blend-mode:multiply;}.cls-3,.cls-6,.cls-7,.cls-9{fill:none;}.cls-4{fill:#c9caca;}.cls-5{font-size:9px;font-family:MicrosoftYaHeiLight, Microsoft YaHei;}.cls-5,.cls-8{fill:#231815;}</style></defs><title>资源 21</title><g class="cls-1"><g id="图层_2" data-name="图层 2"><g id="图层_1-2" data-name="图层 1"><circle class="cls-2" cx="115.76" cy="113.97" r="31.5"/><circle class="cls-3" cx="79.5" cy="102.06" r="25.6"/><path class="cls-4" d="M105.1,102A25.48,25.48,0,0,0,100,86.62a31.5,31.5,0,0,0-13.1,39.87A25.62,25.62,0,0,0,105.1,102Z"/><text class="cls-5" transform="translate(89.07 111.5)">AB</text><text class="cls-5" transform="translate(119.5 123.56)">B</text><text class="cls-5" transform="translate(67.12 107.56)">A</text><text class="cls-5" transform="translate(28.67 12.92)">这块交集, 就是在B发生的前提下, A发生的概率<tspan x="0" y="22">即: P(A | 条件B)=</tspan></text><rect class="cls-6" x="18.47" y="64" width="163" height="95"/><line class="cls-7" x1="116.76" y1="44.69" x2="96.95" y2="96.02"/><polygon class="cls-8" points="95.68 99.32 95.58 93.94 97.05 95.78 99.37 95.41 95.68 99.32"/><line class="cls-6" x1="99.84" y1="31.72" x2="130.34" y2="31.72"/><text class="cls-5" transform="translate(104.25 28.72)">P(AB)<tspan x="3.06" y="13">P(B)</tspan></text><rect class="cls-9" width="227" height="174"/></g></g></g></svg>