<svg xmlns="http://www.w3.org/2000/svg" viewBox="0 0 239.33 112.63"><defs><style>.cls-1{isolation:isolate;}.cls-2{font-size:4px;font-family:MicrosoftYaHeiLight, Microsoft YaHei;}.cls-11,.cls-14,.cls-15,.cls-2,.cls-8,.cls-9{fill:#231815;}.cls-3{letter-spacing:-0.17em;}.cls-4{letter-spacing:-0.02em;}.cls-5{fill:#fff;}.cls-5,.cls-6,.cls-7{stroke:#231815;stroke-miterlimit:10;stroke-width:0.5px;}.cls-16,.cls-6{fill:none;}.cls-7{fill:#efefef;mix-blend-mode:multiply;}.cls-10,.cls-8{font-size:9px;}.cls-10,.cls-11,.cls-14,.cls-15,.cls-8{font-family:MicrosoftYaHei, Microsoft YaHei;}.cls-10{fill:#e60012;}.cls-11,.cls-14,.cls-15{font-size:2.68px;}.cls-12{fill:#c30d23;}.cls-13{letter-spacing:0em;}.cls-14{letter-spacing:0em;}.cls-15{letter-spacing:0em;}</style></defs><title>资源 24</title><g class="cls-1"><g id="图层_2" data-name="图层 2"><g id="图层_1-2" data-name="图层 1"><text class="cls-2" transform="translate(84.94 102.8)"><tspan class="cls-3">T</tspan><tspan x="1.53" y="0">otal P</tspan><tspan class="cls-4" x="11.79" y="0">r</tspan><tspan x="13.13" y="0">obability Theo</tspan><tspan class="cls-4" x="38.74" y="0">r</tspan><tspan x="40.08" y="0">em</tspan><tspan x="12.91" y="5">全概率公式</tspan></text><rect class="cls-5" x="13.33" y="12.63" width="181" height="80"/><line class="cls-6" x1="46.41" y1="12.63" x2="46.41" y2="92.63"/><line class="cls-6" x1="75.97" y1="12.63" x2="75.97" y2="92.63"/><line class="cls-6" x1="162.33" y1="12.63" x2="162.33" y2="92.63"/><ellipse class="cls-7" cx="104.33" cy="60.88" rx="78" ry="14.25"/><text class="cls-8" transform="translate(24.2 30.5)">A</text><text class="cls-8" transform="translate(30.53 33.5) scale(0.58)">1</text><text class="cls-8" transform="translate(56.83 30.5)">A</text><text class="cls-8" transform="translate(63.17 33.5) scale(0.58)">2</text><text class="cls-8" transform="translate(176.33 30.5)">A</text><text class="cls-8" transform="translate(182.67 33.5) scale(0.58)">n</text><text class="cls-8" transform="translate(114.83 30.5)">...</text><line class="cls-6" x1="188.86" y1="60.88" x2="225.33" y2="60.88"/><polygon class="cls-9" points="185.33 60.88 190.31 62.91 189.13 60.88 190.31 58.84 185.33 60.88"/><text class="cls-10" transform="translate(227.33 63.63)">B</text><text class="cls-11" transform="translate(28.1 61.66)">P(A</text><text class="cls-11" transform="translate(32.51 62.55) scale(0.58)">1</text><text class="cls-11" transform="translate(33.43 61.66)">) · P(<tspan class="cls-12" x="5.66" y="0">B</tspan><tspan class="cls-13" x="7.34" y="0">|A</tspan></text><text class="cls-11" transform="translate(43.37 62.55) scale(0.58)">1</text><text class="cls-11" transform="translate(44.29 61.66)">)</text><text class="cls-11" transform="translate(52.94 61.66)">P(A</text><text class="cls-11" transform="translate(57.35 62.55) scale(0.58)">2</text><text class="cls-11" transform="translate(58.27 61.66)">) · P(<tspan class="cls-12" x="5.66" y="0">B</tspan><tspan class="cls-13" x="7.34" y="0">|A</tspan></text><text class="cls-11" transform="translate(68.21 62.55) scale(0.58)">2</text><text class="cls-11" transform="translate(69.12 61.66)">)</text><text class="cls-11" transform="translate(107.85 61.66)">P(A</text><text class="cls-11" transform="translate(112.26 62.55) scale(0.58)">...</text><text class="cls-11" transform="translate(113.39 61.66)">) · P(<tspan class="cls-12" x="5.66" y="0">B</tspan><tspan class="cls-13" x="7.34" y="0">|A</tspan></text><text class="cls-11" transform="translate(123.33 62.55) scale(0.58)">...</text><text class="cls-11" transform="translate(124.46 61.66)">)</text><text class="cls-11" transform="translate(163.85 61.66)">P(A</text><text class="cls-14" transform="translate(168.26 62.55) scale(0.58)">n</text><text class="cls-15" transform="translate(169.23 61.66)">) · P(<tspan class="cls-12" x="5.66" y="0">B</tspan><tspan class="cls-13" x="7.34" y="0">|A</tspan></text><text class="cls-14" transform="translate(179.17 62.55) scale(0.58)">n</text><text class="cls-15" transform="translate(180.13 61.66)">)</text><rect class="cls-16" width="239.33" height="112.63"/></g></g></g></svg>