<svg xmlns="http://www.w3.org/2000/svg" viewBox="0 0 194.63 107.06"><defs><style>.cls-1,.cls-12,.cls-2,.cls-8,.cls-9{fill:none;stroke-miterlimit:10;}.cls-1{stroke:#ea5514;}.cls-1,.cls-12,.cls-9{stroke-width:5px;}.cls-2,.cls-8{stroke:#231815;}.cls-2{stroke-width:0.5px;}.cls-3,.cls-4{fill:#231815;}.cls-4,.cls-5,.cls-6,.cls-7{font-size:11.49px;font-family:MicrosoftYaHei, Microsoft YaHei;}.cls-5{fill:#0b318f;}.cls-6{fill:#ea5514;}.cls-11,.cls-7{fill:#094;}.cls-9{stroke:#094;}.cls-10{fill:#fff;}.cls-12{stroke:#172a88;}</style></defs><g id="图层_2" data-name="图层 2"><g id="图层_1-2" data-name="图层 1"><line class="cls-1" x1="75.12" y1="64.25" x2="135.86" y2="64.25"/><line class="cls-2" x1="20.05" y1="64.34" x2="191.1" y2="64.34"/><polygon class="cls-3" points="194.63 64.34 189.65 66.37 190.83 64.34 189.65 62.31 194.63 64.34"/><text class="cls-4" transform="translate(72.7 82.95)">a</text><text class="cls-4" transform="translate(0 67.89)">-∞</text><text class="cls-4" transform="translate(132.53 82.95)">b</text><text class="cls-5" transform="translate(73.22 9.85)">F(b)</text><text class="cls-6" transform="translate(62.45 104.13)">P{a &lt;= X &lt;= b}</text><text class="cls-7" transform="translate(22.11 40.78)">F(a-0)</text><line class="cls-8" x1="75.12" y1="60.04" x2="75.12" y2="66.89"/><line class="cls-8" x1="135.86" y1="60.04" x2="135.86" y2="66.89"/><line class="cls-9" x1="20.05" y1="48.43" x2="69.05" y2="48.43"/><path class="cls-10" d="M68.73,54.07a5.64,5.64,0,1,0-5.64-5.64A5.64,5.64,0,0,0,68.73,54.07Z"/><path class="cls-11" d="M68.73,54.82a6.39,6.39,0,1,1,6.39-6.39,6.39,6.39,0,0,1-6.39,6.39Zm0-11.28a4.89,4.89,0,1,0,4.89,4.89,4.9,4.9,0,0,0-4.89-4.89Z"/><line class="cls-12" x1="20.05" y1="16.59" x2="135.86" y2="16.59"/></g></g></svg>