<svg xmlns="http://www.w3.org/2000/svg" viewBox="0 0 380.83 158.34"><defs><style>.cls-1{font-size:12px;font-family:AdobeSongStd-Light-GBpc-EUC-H, Adobe Song Std;}.cls-1,.cls-3{fill:#231815;}.cls-2,.cls-8{fill:none;}.cls-2,.cls-4,.cls-5,.cls-6,.cls-7,.cls-8{stroke:#231815;stroke-miterlimit:10;}.cls-2,.cls-4,.cls-5,.cls-6,.cls-7{stroke-width:0.5px;}.cls-4{fill:#094;}.cls-5{fill:#1d2088;}.cls-6{fill:#c30d23;}.cls-7{fill:#f39800;}</style></defs><g id="图层_2" data-name="图层 2"><g id="图层_1-2" data-name="图层 1"><text class="cls-1" transform="translate(49.03 105.15)">P{X&gt;10}</text><text class="cls-1" transform="translate(284.3 105.15)"><tspan xml:space="preserve">P{X&gt;50+10  | X&gt;50}</tspan></text><line class="cls-2" x1="174.58" y1="62.68" x2="173.68" y2="62.68"/><polygon class="cls-3" points="170.15 62.68 175.13 60.65 173.94 62.68 175.13 64.72 170.15 62.68"/><line class="cls-2" x1="29.06" y1="62.68" x2="3.53" y2="62.68"/><polygon class="cls-3" points="0 62.68 4.97 60.65 3.79 62.68 4.97 64.72 0 62.68"/><path class="cls-4" d="M53.57,24.17V62.68H29.06V.7A142.43,142.43,0,0,0,53.57,24.17Z"/><path class="cls-5" d="M170.15,59.51v3.17H53.57V24.17A165.57,165.57,0,0,0,88.82,44.48C123.47,59.23,155.55,59.92,170.15,59.51Z"/><line class="cls-2" x1="170.15" y1="66.42" x2="170.15" y2="62.68"/><line class="cls-2" x1="29.06" y1="100.53" x2="29.06" y2="62.68"/><text class="cls-1" transform="translate(47.65 76.34)">10</text><text class="cls-1" transform="translate(19.67 76.34)">0</text><polyline class="cls-2" points="294.19 62.68 238.46 62.68 212.93 62.68"/><polygon class="cls-3" points="209.4 62.68 214.38 60.65 213.19 62.68 214.38 64.72 209.4 62.68"/><path class="cls-6" d="M309,48.66v14H294.19v-20c1.32.6,2.67,1.2,4,1.78Q303.68,46.79,309,48.66Z"/><path class="cls-7" d="M379.55,59.51v3.17H309v-14A198.07,198.07,0,0,0,379.55,59.51Z"/><path class="cls-2" d="M294.19,42.7c-30.68-14-48-32.58-55.73-42v99.83"/><line class="cls-2" x1="294.19" y1="42.7" x2="294.19" y2="42.69"/><line class="cls-2" x1="309.01" y1="48.66" x2="309.01" y2="48.65"/><text class="cls-1" transform="translate(283.68 76.34)">50</text><text class="cls-1" transform="translate(306.24 76.34)">60</text><text class="cls-1" transform="translate(82.17 139.35)">即面积关系是: </text><text class="cls-1" transform="translate(179 126.49)">蓝<tspan x="-16.03" y="28.8">蓝+绿=1</tspan></text><line class="cls-8" x1="166.41" y1="135.79" x2="203.59" y2="135.79"/><text class="cls-1" transform="translate(233.57 126.49)">黄<tspan x="-9.63" y="28.8">黄+红</tspan></text><line class="cls-8" x1="220.98" y1="135.79" x2="258.17" y2="135.79"/><text class="cls-1" transform="translate(208.29 139.18)">=</text></g></g></svg>