<svg xmlns="http://www.w3.org/2000/svg" viewBox="0 0 200.9 149.93"><defs><style>.cls-1,.cls-10{fill:none;}.cls-1{stroke:#231815;stroke-miterlimit:10;stroke-width:0.5px;}.cls-2,.cls-3,.cls-4,.cls-7,.cls-8,.cls-9{fill:#231815;}.cls-3,.cls-5,.cls-6{font-size:12px;}.cls-3,.cls-5,.cls-6,.cls-8,.cls-9{font-family:AdobeSongStd-Light-GBpc-EUC-H, Adobe Song Std;}.cls-4,.cls-7{font-size:8px;font-family:MicrosoftYaHei, Microsoft YaHei;}.cls-6{letter-spacing:0em;}.cls-7{letter-spacing:0em;}.cls-8{font-size:115.85px;}.cls-9{font-size:223.74px;}</style></defs><g id="图层_2" data-name="图层 2"><g id="图层_1-2" data-name="图层 1"><line class="cls-1" x1="14.89" y1="93.25" x2="185.94" y2="93.25"/><polygon class="cls-2" points="189.47 93.25 184.5 95.28 185.68 93.25 184.5 91.21 189.47 93.25"/><text class="cls-3" transform="translate(81.42 105.12)">x</text><text class="cls-3" transform="translate(87.02 109.12) scale(0.58)">1</text><text class="cls-4" transform="translate(13.69 51.79)">这段面积是F(<tspan class="cls-5" x="46.92" y="0">x</tspan></text><text class="cls-3" transform="translate(66.21 55.78) scale(0.58)">1</text><text class="cls-4" transform="translate(69.44 51.79)">)</text><text class="cls-4" transform="translate(70.56 138.58)">F(<tspan class="cls-5" x="6.92" y="0">x</tspan></text><text class="cls-3" transform="translate(83.07 142.58) scale(0.58)">2</text><text class="cls-4" transform="translate(86.31 138.58)">) - F(<tspan class="cls-6" x="17.79" y="0">x</tspan></text><text class="cls-3" transform="translate(109.69 142.58) scale(0.58)">1</text><text class="cls-4" transform="translate(112.92 138.58)">) = 这段面积</text><text class="cls-4" transform="translate(18.67 18.02)">这段面积是F(<tspan class="cls-5" x="46.92" y="0">x</tspan></text><text class="cls-3" transform="translate(71.19 22.01) scale(0.58)">2</text><text class="cls-4" transform="translate(74.42 18.02)">) , 它的值= P{X≤x</text><text class="cls-7" transform="translate(138.77 20.68) scale(0.58)">2</text><text class="cls-4" transform="translate(141.5 18.02)">}</text><text class="cls-3" transform="translate(134.54 105.12)">x</text><text class="cls-3" transform="translate(140.13 109.12) scale(0.58)">2</text><polyline class="cls-1" points="14.89 68.58 85.05 68.58 85.05 93.25"/><polyline class="cls-1" points="138.34 93.25 138.34 66.86 14.89 66.86"/><text class="cls-8" transform="matrix(0, 0.39, -0.58, 0, 29.85, 51.97)">{</text><text class="cls-8" transform="matrix(0, -0.39, 0.58, 0, 130.78, 126.21)">{</text><text class="cls-9" transform="matrix(0, 0.2, -0.58, 0, 45.83, 19.92)">{</text><rect class="cls-10" width="200.9" height="149.93"/></g></g></svg>