<svg xmlns="http://www.w3.org/2000/svg" xmlns:xlink="http://www.w3.org/1999/xlink" viewBox="0 0 330.36 149.86"><defs><style>.cls-1{opacity:0.5;fill:url(#白色_黑色);}.cls-2,.cls-3,.cls-4{fill:none;stroke:#231815;stroke-miterlimit:10;}.cls-2,.cls-3{stroke-width:0.25px;}.cls-3{stroke-dasharray:1.98 1.98;}.cls-4{stroke-width:0.5px;}.cls-5,.cls-6,.cls-7,.cls-8{fill:#231815;}.cls-6{font-size:9px;}.cls-6,.cls-7,.cls-8{font-family:AdobeSongStd-Light-GBpc-EUC-H, Adobe Song Std;}.cls-7{font-size:6px;}.cls-8{font-size:7px;}</style><linearGradient id="白色_黑色" x1="154.17" y1="47.24" x2="306.12" y2="47.24" gradientUnits="userSpaceOnUse"><stop offset="0" stop-color="#fff"/><stop offset="1" stop-color="#231815"/></linearGradient></defs><g id="图层_2" data-name="图层 2"><g id="图层_1-2" data-name="图层 1"><polygon class="cls-1" points="245.92 69.3 154.17 69.3 214.37 25.18 306.12 25.18 245.92 69.3"/><polyline class="cls-2" points="1.38 114.42 0.38 114.42 1.19 113.83"/><polyline class="cls-3" points="2.79 112.66 60.58 70.3 150.35 70.3"/><polyline class="cls-2" points="151.34 70.3 152.34 70.3 151.53 70.89"/><polyline class="cls-3" points="149.93 72.06 92.14 114.42 2.37 114.42"/><line class="cls-4" x1="303.1" y1="8.28" x2="228.62" y2="67.79"/><polygon class="cls-5" points="305.86 6.07 300.7 7.59 302.89 8.44 303.24 10.77 305.86 6.07"/><line class="cls-4" x1="318.56" y1="36.93" x2="212.38" y2="36.93"/><polygon class="cls-5" points="322.09 36.93 317.12 34.9 318.3 36.93 317.12 38.96 322.09 36.93"/><text class="cls-6" transform="translate(324.51 40.03)">X</text><text class="cls-7" transform="translate(290.81 42.92)">x</text><text class="cls-7" transform="translate(280.97 20.7)">y</text><text class="cls-6" transform="translate(307.8 7.92)">Y</text><text class="cls-8" transform="translate(172.85 78.57)">y= -∞处</text><text class="cls-8" transform="translate(162.73 42.92)">x= -∞处</text><text class="cls-6" transform="translate(89.48 98.58)">x≤-∞</text><text class="cls-6" transform="translate(76.36 78.57)">y≤-∞</text><line class="cls-4" x1="290.19" y1="36" x2="290.19" y2="37.64"/><line class="cls-4" x1="280.95" y1="25.18" x2="282.94" y2="25.18"/><text class="cls-8" transform="translate(192.01 101.53)">二维随机变量<tspan x="0" y="8.4">的累加函数F(x,y), 只在这一块面积上存在</tspan></text><text class="cls-8" transform="translate(32.19 131.28)">显然, F(x,y)在这里, <tspan x="0" y="8.4">概率值就是0了</tspan></text><line class="cls-4" x1="209.82" y1="88.08" x2="209.82" y2="63.53"/><polygon class="cls-5" points="209.81 59.99 211.85 64.97 209.81 63.79 207.78 64.97 209.81 59.99"/></g></g></svg>