<svg xmlns="http://www.w3.org/2000/svg" viewBox="0 0 138.35 177.09"><defs><style>.cls-1,.cls-10,.cls-11,.cls-2,.cls-3,.cls-4,.cls-5,.cls-9{fill:none;stroke-miterlimit:10;}.cls-1{stroke:#e60012;}.cls-2{stroke:#094;}.cls-3{stroke:#1d2088;}.cls-4{stroke:#e61673;}.cls-10,.cls-11,.cls-5,.cls-9{stroke:#231815;}.cls-5{stroke-width:0.5px;}.cls-6,.cls-7,.cls-8{fill:#231815;}.cls-7{font-size:5px;font-family:MicrosoftYaHei, Microsoft YaHei;}.cls-8{font-size:7px;font-family:AdobeSongStd-Light-GBpc-EUC-H, Adobe Song Std;}.cls-10,.cls-11,.cls-9{stroke-width:0.75px;}.cls-10{stroke-dasharray:1.85 1.85;}.cls-11{stroke-dasharray:2.15 2.15;}</style></defs><g id="图层_2" data-name="图层 2"><g id="图层_1-2" data-name="图层 1"><rect class="cls-1" x="0.5" y="31.47" width="101.01" height="93.48"/><rect class="cls-2" x="1.49" y="32.81" width="72.6" height="91.04"/><rect class="cls-3" x="2.58" y="59.47" width="96.03" height="63.1"/><rect class="cls-4" x="4.43" y="61.2" width="68.47" height="59.99"/><line class="cls-5" x1="42.69" y1="86.96" x2="42.69" y2="13.48"/><polygon class="cls-6" points="42.69 9.95 44.72 14.93 42.69 13.75 40.66 14.93 42.69 9.95"/><line class="cls-5" x1="34.78" y1="77.47" x2="127.7" y2="77.47"/><polygon class="cls-6" points="131.23 77.47 126.26 79.5 127.44 77.47 126.26 75.44 131.23 77.47"/><text class="cls-7" transform="translate(67.61 5.46)">这块黑色面积, 就是<tspan x="0" y="7" xml:space="preserve"> P{x1&lt;X≤x2,  y1&lt;Y≤y2}</tspan></text><text class="cls-8" transform="translate(133.8 79.47)">X</text><text class="cls-8" transform="translate(40.96 6.16)">Y</text><text class="cls-7" transform="translate(6.15 140.82)">红色面积 = F(x2, y2)<tspan x="0" y="7">蓝色面积 = F(x2, y1)</tspan><tspan x="0" y="14">绿色面积 = F(x1, y2)</tspan><tspan x="0" y="21">粉色面积 = F(x1, y1)</tspan><tspan x="0" y="35">黑色面积 = 红 - 蓝(含粉色) - 绿(含粉色) + 粉</tspan></text><text class="cls-8" transform="translate(28.37 35.72)">y2</text><text class="cls-8" transform="translate(28.37 61.2)">y1</text><text class="cls-8" transform="translate(71.09 90.92)">x1</text><text class="cls-8" transform="translate(96.69 90.92)">x2</text><line class="cls-5" x1="74.09" y1="75.51" x2="74.09" y2="79.47"/><line class="cls-5" x1="100.2" y1="75.51" x2="100.2" y2="79.47"/><line class="cls-5" x1="44.67" y1="32.4" x2="40.71" y2="32.4"/><line class="cls-5" x1="44.67" y1="58.52" x2="40.71" y2="58.52"/><polyline class="cls-9" points="74.09 32.81 100.2 32.81 100.2 58.52"/><line class="cls-9" x1="100.2" y1="58.52" x2="99.2" y2="58.52"/><line class="cls-10" x1="97.35" y1="58.52" x2="76.02" y2="58.52"/><polyline class="cls-9" points="75.09 58.52 74.09 58.52 74.09 57.52"/><line class="cls-11" x1="74.09" y1="55.36" x2="74.09" y2="34.89"/><line class="cls-9" x1="74.09" y1="33.81" x2="74.09" y2="32.81"/><line class="cls-5" x1="88.32" y1="15.1" x2="88.32" y2="42.13"/><polygon class="cls-6" points="88.32 45.66 86.29 40.69 88.32 41.87 90.36 40.69 88.32 45.66"/></g></g></svg>