<svg xmlns="http://www.w3.org/2000/svg" viewBox="0 0 197.97 292.13"><defs><style>.cls-1{isolation:isolate;}.cls-11,.cls-2,.cls-7{fill:none;stroke-miterlimit:10;}.cls-11,.cls-2{stroke:#231815;}.cls-2{stroke-width:0.5px;}.cls-10,.cls-3,.cls-4,.cls-8,.cls-9{fill:#231815;}.cls-4{font-size:8px;}.cls-10,.cls-4,.cls-8,.cls-9{font-family:MicrosoftYaHei, Microsoft YaHei;}.cls-5{fill:#f5e328;}.cls-6{fill:#4ea7de;mix-blend-mode:multiply;}.cls-7{stroke:#fff;}.cls-8,.cls-9{font-size:11.86px;}.cls-9{letter-spacing:0em;}.cls-10{font-size:4.62px;}</style></defs><title>资源 46</title><g class="cls-1"><g id="图层_2" data-name="图层 2"><g id="图层_1-2" data-name="图层 1"><line class="cls-2" x1="9.22" y1="17.17" x2="9.22" y2="142.53"/><polygon class="cls-3" points="9.22 13.64 7.19 18.61 9.22 17.43 11.25 18.61 9.22 13.64"/><text class="cls-4" transform="translate(50.16 139.53)">y</text><text class="cls-4" transform="translate(103.97 139.53)">y+ε</text><text class="cls-4" transform="translate(124.97 44.08)">f(u,v)<tspan x="0" y="9.6">或直接就是f</tspan></text><text class="cls-4" transform="translate(167.75 56.35) scale(0.58)">Y</text><text class="cls-4" transform="translate(170.56 53.68)">(v)</text><text class="cls-4" transform="translate(54.86 226.58)">黄色面积</text><text class="cls-4" transform="translate(122.05 226.58)">蓝色矩形面积</text><text class="cls-4" transform="translate(80.22 290.08)">这两个面积相等</text><path class="cls-5" d="M109.92,65.35v64H55.11V106.73h0A92.81,92.81,0,0,0,90.8,87.84,93.19,93.19,0,0,0,109.92,65.35Z" transform="translate(-0.25)"/><polyline class="cls-2" points="140.72 129.36 109.67 129.36 54.86 129.36 0 129.36"/><path class="cls-2" d="M15.8,109.84a103.38,103.38,0,0,0,39.31-3.12A92.81,92.81,0,0,0,90.8,87.84a93.19,93.19,0,0,0,19.12-22.49A99.16,99.16,0,0,0,122.3,33.84" transform="translate(-0.25)"/><line class="cls-2" x1="54.86" y1="106.73" x2="54.86" y2="129.36"/><polyline class="cls-2" points="109.67 65.33 109.67 65.35 109.67 129.36"/><rect class="cls-6" x="54.86" y="93.67" width="54.82" height="35.67"/><line class="cls-7" x1="82.94" y1="94.35" x2="82.94" y2="130.02"/><text class="cls-4" transform="translate(78.89 141.03)">ξ</text><text class="cls-4" transform="translate(7.22 6.86)">X或u</text><text class="cls-4" transform="translate(146.22 130.02)">Y或v</text><text class="cls-4" transform="translate(22.42 167.86)">中值定理:<tspan x="0" y="9.6">能在横坐标上的两个端点中间, 找到一点ξ,</tspan><tspan x="0" y="19.2">使得曲线下黄色的面积 = 蓝色的矩形面积</tspan></text><line class="cls-2" x1="88.22" y1="192.36" x2="88.22" y2="207.33"/><polygon class="cls-3" points="88.22 210.86 86.19 205.88 88.22 207.06 90.25 205.88 88.22 210.86"/><line class="cls-2" x1="136.22" y1="192.36" x2="136.22" y2="207.33"/><polygon class="cls-3" points="136.22 210.86 134.19 205.88 136.22 207.06 138.25 205.88 136.22 210.86"/><text class="cls-8" transform="translate(37.26 242.44)"><tspan xml:space="preserve">=∫   f</tspan></text><text class="cls-9" transform="translate(67.65 246.39) scale(0.58)">Y</text><text class="cls-8" transform="translate(71.83 242.44)">(v) dv</text><text class="cls-8" transform="translate(122.05 242.44)">=高f</text><text class="cls-8" transform="translate(146.82 246.39) scale(0.58)">Y</text><text class="cls-8" transform="translate(150.99 242.44)">(ξ) × 宽ε</text><text class="cls-10" transform="translate(53.86 237.54)">y+ε<tspan x="0" y="5.54">y</tspan></text><polyline class="cls-11" points="71.72 256.36 71.72 274.86 146.22 274.86 146.22 256.36"/></g></g></g></svg>