<svg xmlns="http://www.w3.org/2000/svg" xmlns:xlink="http://www.w3.org/1999/xlink" style="vertical-align:-2.13ex" width="35.369ex" height="5.259ex" viewBox="0 -1347.5 15228.4 2264.4"><defs><path id="a" stroke-width="1" d="M52 289q7 42 54 97t116 56q35 0 64-18t43-45q42 63 101 63 37 0 64-22t28-59q0-29-14-47t-27-22-23-4q-19 0-31 11t-12 29q0 46 50 63-11 13-40 13-13 0-19-2-38-16-56-66-60-221-60-258 0-28 16-40t35-12q37 0 73 33t49 81q3 10 6 11t16 2h4q15 0 15-8 0-1-2-11-16-57-62-101T333-11q-70 0-106 63-41-62-94-62h-6q-49 0-70 26T35 71q0 32 19 52t45 20q43 0 43-42 0-20-12-35t-23-20-13-5l-3-1q0-1 6-4t16-7 19-3q36 0 62 45 9 16 23 68t28 108 16 66q5 27 5 39 0 28-15 40t-34 12q-40 0-75-32t-49-82q-2-9-5-10t-16-2H58q-6 6-6 11z"/><path id="b" stroke-width="1" d="M69 544v46h361v-46H69z"/><path id="c" stroke-width="1" d="M56 347q0 13 14 20h637q15-8 15-20 0-11-14-19l-318-1H72q-16 5-16 20zm0-194q0 15 16 20h636q14-10 14-20 0-13-15-20H70q-14 7-14 20z"/><path id="d" stroke-width="1" d="M213 578l-13-5q-14-5-40-10t-58-7H83v46h19q47 2 87 15t56 24 28 22q2 3 12 3 9 0 17-6V361l1-300q7-7 12-9t24-4 62-2h26V0h-11q-21 3-159 3-136 0-157-3H88v46h64q16 0 25 1t16 3 8 2 6 5 6 4v517z"/><path id="e" stroke-width="1" d="M580 385q0 21 19 39t42 19q18 0 33-18t16-57q0-29-19-115-15-56-27-92t-35-81-55-68-72-23q-44 0-78 16t-49 43q-1-1-3-4-41-55-100-55-26 0-50 6t-47 19-37 39-14 63q0 54 34 146t35 117v14q0 3-4 7t-11 4h-4q-23 0-42-19t-30-41-17-42-8-22q-2-2-16-2H27q-6 6-6 9 0 6 8 28t23 51 44 52 65 23q43 0 66-25t23-58q0-18-33-108t-33-139q0-46 21-65t53-20q43 0 76 61l5 9v32q0 6 1 8t1 7 1 9 3 13 3 17 6 24 8 32 11 43q29 114 33 123 13 27 43 27 19 0 26-10t8-19q0-13-29-128t-32-132q-2-11-2-35v-7q0-15 3-29t19-29 45-16q71 0 113 122 9 23 20 65t12 60q0 33-13 52t-26 32-13 28z"/><path id="f" stroke-width="1" d="M56 237v13l14 20h299v150l1 150q10 13 19 13 13 0 20-15V270h298q15-8 15-20t-15-20H409V-68q-8-14-18-14h-4q-12 0-18 14v298H70q-14 7-14 20z"/><path id="g" stroke-width="1" d="M109 429q-27 0-43 18t-16 44q0 71 53 123t132 52q91 0 152-56t62-145q0-43-20-82t-48-68-80-74q-36-31-100-92l-59-56 76-1q157 0 167 5 7 2 24 89v3h40v-3q-1-3-13-91T421 3V0H50v31q0 7 6 15t30 35q29 32 50 56 9 10 34 37t34 37 29 33 28 34 23 30 21 32 15 29 13 32 7 30 3 33q0 63-34 109t-97 46q-33 0-58-17t-35-33-10-19q0-1 5-1 18 0 37-14t19-46q0-25-16-42t-45-18z"/><path id="h" stroke-width="1" d="M78 250q0 24 17 42t43 18q24 0 42-16t19-43q0-25-17-43t-43-18-43 17-18 43zm447 0q0 24 17 42t43 18q24 0 42-16t19-43q0-25-17-43t-43-18-43 17-18 43zm447 0q0 24 17 42t43 18q24 0 42-16t19-43q0-25-17-43t-43-18-43 17-18 43z"/><path id="i" stroke-width="1" d="M21 287q1 6 3 16t12 38 20 47 33 37 46 17q36 0 60-18t30-34 6-21q0-2 1-2l11 11q61 64 139 64 54 0 87-27t34-79-38-157-38-127q0-26 17-26 6 0 9 1 29 5 52 38t35 80q2 8 20 8 20 0 20-8 0-1-4-15-8-29-22-57t-46-56-69-27q-47 0-68 27t-21 56q0 19 36 120t37 152q0 59-44 59h-5q-86 0-145-101l-7-12-33-134Q156 26 151 16q-13-27-43-27-13 0-21 6T76 7t-2 10q0 13 38 163t40 163q1 5 1 23 0 39-24 39-38 0-63-100-6-20-6-21-2-6-19-6H27q-6 6-6 9z"/></defs><g fill="currentColor" stroke="currentColor" stroke-width="0" transform="scale(1 -1)"><use x="24" xlink:href="#a"/><g transform="translate(0 259)"><use x="-70" transform="scale(.707)" xlink:href="#b"/><use transform="matrix(.17163 0 0 .707 243.335 0)" xlink:href="#b"/><use x="379" transform="scale(.707)" xlink:href="#b"/></g><use x="899" xlink:href="#c"/><path stroke="none" d="M2075 220h13032v60H2075z"/><g transform="translate(2135 676)"><use xlink:href="#a"/><use x="809" y="-213" transform="scale(.707)" xlink:href="#d"/><g transform="translate(1026)"><use xlink:href="#e"/><use x="1013" y="-213" transform="scale(.707)" xlink:href="#d"/></g><use x="2419" xlink:href="#f"/><g transform="translate(3419)"><use xlink:href="#a"/><use x="809" y="-213" transform="scale(.707)" xlink:href="#g"/></g><g transform="translate(4446)"><use xlink:href="#e"/><use x="1013" y="-213" transform="scale(.707)" xlink:href="#g"/></g><use x="5838" xlink:href="#f"/><use x="6839" xlink:href="#h"/><use x="8178" xlink:href="#h"/><use x="9573" xlink:href="#f"/><g transform="translate(10574)"><use xlink:href="#a"/><use x="809" y="-213" transform="scale(.707)" xlink:href="#i"/></g><g transform="translate(11671)"><use xlink:href="#e"/><use x="1013" y="-213" transform="scale(.707)" xlink:href="#i"/></g></g><g transform="translate(3709 -686)"><use xlink:href="#e"/><use x="1013" y="-213" transform="scale(.707)" xlink:href="#d"/><use x="1392" xlink:href="#f"/><g transform="translate(2393)"><use xlink:href="#e"/><use x="1013" y="-213" transform="scale(.707)" xlink:href="#g"/></g><use x="3785" xlink:href="#f"/><use x="4786" xlink:href="#h"/><use x="6125" xlink:href="#h"/><use x="7520" xlink:href="#f"/><g transform="translate(8521)"><use xlink:href="#e"/><use x="1013" y="-213" transform="scale(.707)" xlink:href="#i"/></g></g></g></svg>