<svg xmlns="http://www.w3.org/2000/svg" viewBox="0 0 218.07 187"><defs><style>.cls-1,.cls-11,.cls-13,.cls-2,.cls-3,.cls-9{fill:none;stroke-miterlimit:10;}.cls-1,.cls-2,.cls-3,.cls-9{stroke:#231815;}.cls-2{stroke-dasharray:1.95 1.95;}.cls-3{stroke-dasharray:1.97 1.97;}.cls-4,.cls-6{font-size:6px;}.cls-14,.cls-4,.cls-7{fill:#094;}.cls-4,.cls-5,.cls-6,.cls-7,.cls-8{font-family:MicrosoftYaHei, Microsoft YaHei;}.cls-5,.cls-7,.cls-8{font-size:8px;}.cls-10,.cls-5,.cls-6{fill:#231815;}.cls-12,.cls-8{fill:#c30d23;}.cls-11,.cls-13,.cls-9{stroke-width:0.75px;}.cls-11{stroke:#c30d23;}.cls-13{stroke:#094;}</style></defs><title>资源 49</title><g id="图层_2" data-name="图层 2"><g id="图层_1-2" data-name="图层 1"><line class="cls-1" x1="11.11" y1="102.86" x2="218.07" y2="102.86"/><path class="cls-1" d="M.07,82.5c27.94,3.67,44.17-2.83,54-10,21.37-15.61,20.45-40.29,45.5-51,5-2.12,16.66-7.12,28.5-3,21.74,7.57,19,37.26,43,55,12.74,9.43,27.53,11.41,38.5,11.5"/><line class="cls-1" x1="66.07" y1="24.86" x2="66.07" y2="25.86"/><line class="cls-2" x1="66.07" y1="27.81" x2="66.07" y2="100.89"/><line class="cls-1" x1="66.07" y1="101.86" x2="66.07" y2="102.86"/><line class="cls-1" x1="157.57" y1="31.78" x2="157.57" y2="32.78"/><line class="cls-3" x1="157.57" y1="34.75" x2="157.57" y2="100.87"/><line class="cls-1" x1="157.57" y1="101.86" x2="157.57" y2="102.86"/><text class="cls-4" transform="translate(106.4 63.86)">接受域<tspan x="-10.97" y="7.2">H0 模型的世界</tspan></text><text class="cls-5" transform="translate(95.21 175.36)">H0 的拒绝域<tspan x="-29.18" y="9.6">就是处在 H1 模型的世界中了</tspan></text><text class="cls-6" transform="translate(23.57 88.36)">H0的拒绝域<tspan x="0" y="7.2">即 H1模型的世界</tspan></text><text class="cls-6" transform="translate(163.34 88.36)">H0的拒绝域<tspan x="0" y="7.2">即 H1模型的世界</tspan></text><text class="cls-7" transform="translate(79.84 6.86)">原假设 H0 模型 曲线</text><text class="cls-8" transform="translate(11.11 61.36)">H1</text><text class="cls-8" transform="translate(171.61 61.36)">H1</text><line class="cls-9" x1="115.4" y1="162.36" x2="52.93" y2="117.45"/><polygon class="cls-10" points="48.63 114.36 56.47 116.24 53.25 117.68 52.91 121.19 48.63 114.36"/><line class="cls-9" x1="115.4" y1="163.45" x2="176.35" y2="116.5"/><polygon class="cls-10" points="180.54 113.26 176.49 120.23 176.03 116.74 172.77 115.4 180.54 113.26"/><text class="cls-8" transform="translate(4.94 126.36)">由 H1控制</text><line class="cls-11" x1="23.57" y1="116.86" x2="23.57" y2="99.65"/><polygon class="cls-12" points="23.57 94.36 26.61 101.82 23.57 100.05 20.52 101.82 23.57 94.36"/><text class="cls-8" transform="translate(177.19 126.36)">由 H1控制</text><line class="cls-11" x1="195.82" y1="116.86" x2="195.82" y2="99.65"/><polygon class="cls-12" points="195.81 94.36 198.86 101.82 195.81 100.05 192.77 101.82 195.81 94.36"/><text class="cls-7" transform="translate(96.78 126.36)">由 H0控制</text><line class="cls-13" x1="115.4" y1="116.86" x2="115.4" y2="99.65"/><polygon class="cls-14" points="115.4 94.36 118.45 101.82 115.4 100.05 112.36 101.82 115.4 94.36"/></g></g></svg>