<svg xmlns="http://www.w3.org/2000/svg" viewBox="0 0 283.71 175.5"><defs><style>.cls-1,.cls-2,.cls-3,.cls-9{fill:none;stroke:#231815;stroke-miterlimit:10;}.cls-2{stroke-dasharray:1.95 1.95;}.cls-3{stroke-dasharray:1.97 1.97;}.cls-4,.cls-5{font-size:6px;}.cls-4,.cls-7{fill:#094;}.cls-4,.cls-5,.cls-6,.cls-7,.cls-8{font-family:MicrosoftYaHei, Microsoft YaHei;}.cls-10,.cls-5,.cls-6{fill:#231815;}.cls-6,.cls-7,.cls-8{font-size:8px;}.cls-8{fill:#c30d23;}.cls-9{stroke-width:0.75px;}</style></defs><title>资源 51</title><g id="图层_2" data-name="图层 2"><g id="图层_1-2" data-name="图层 1"><line class="cls-1" x1="11.11" y1="105.86" x2="218.07" y2="105.86"/><path class="cls-1" d="M.07,82.5c27.94,3.67,44.17-2.83,54-10,21.37-15.61,20.45-40.29,45.5-51,5-2.12,16.66-7.12,28.5-3,21.74,7.57,19,37.26,43,55,12.74,9.43,27.53,11.41,38.5,11.5"/><line class="cls-1" x1="66.07" y1="24.86" x2="66.07" y2="25.86"/><line class="cls-2" x1="66.07" y1="27.81" x2="66.07" y2="100.89"/><line class="cls-1" x1="66.07" y1="101.86" x2="66.07" y2="102.86"/><line class="cls-1" x1="157.57" y1="31.78" x2="157.57" y2="32.78"/><line class="cls-3" x1="157.57" y1="34.75" x2="157.57" y2="100.87"/><line class="cls-1" x1="157.57" y1="101.86" x2="157.57" y2="102.86"/><text class="cls-4" transform="translate(98.44 63.86)">H0 的接受域<tspan x="-1.03" y="14.4">无物理新发现</tspan></text><text class="cls-5" transform="translate(17.57 88.36)">H0的拒绝域<tspan x="0" y="7.2">“有物理发现”</tspan><tspan x="0" y="14.4">即 H1模型的世界</tspan></text><text class="cls-5" transform="translate(163.34 88.36)">H0的拒绝域<tspan x="0" y="7.2">“有物理发现”</tspan><tspan x="0" y="14.4">即 H1模型的世界</tspan></text><text class="cls-6" transform="translate(73.34 150.36)">让样本多落入这里</text><text class="cls-6" transform="translate(188.6 163.86)">少落入这里.<tspan x="-53.18" y="9.6">要落入这里, 必须经过严格的”同行审评”</tspan></text><text class="cls-7" transform="translate(79.84 6.86)">原假设 H0 模型 曲线</text><text class="cls-8" transform="translate(11.11 61.36)">H1</text><text class="cls-8" transform="translate(171.61 61.36)">H1</text><line class="cls-9" x1="120.42" y1="138.65" x2="109.93" y2="92.31"/><polygon class="cls-10" points="108.76 87.15 113.38 93.75 110.01 92.7 107.43 95.1 108.76 87.15"/><line class="cls-9" x1="204.38" y1="154.36" x2="193.89" y2="108.02"/><polygon class="cls-10" points="192.72 102.86 197.34 109.46 193.98 108.41 191.39 110.81 192.72 102.86"/></g></g></svg>