<svg xmlns="http://www.w3.org/2000/svg" viewBox="0 0 253 190"><defs><style>.cls-1{font-size:8px;}.cls-1,.cls-2,.cls-7{fill:#231815;}.cls-1,.cls-2{font-family:MicrosoftYaHei, Microsoft YaHei;}.cls-2{font-size:6px;}.cls-3{fill:#e83828;}.cls-4{fill:#fff100;}.cls-5{fill:none;stroke:#231815;stroke-miterlimit:10;}.cls-6{letter-spacing:-0.01em;}</style></defs><title>资源 52</title><g id="图层_2" data-name="图层 2"><g id="图层_1-2" data-name="图层 1"><text class="cls-1" transform="translate(53.06 108.5)">被家暴<tspan x="0" y="9.6">Violence</tspan></text><text class="cls-1" transform="translate(15.22 20.1)">全国总的妻子人数 Ω</text><text class="cls-1" transform="translate(156.41 108.5)">死亡<tspan x="0" y="9.6">Die</tspan></text><text class="cls-2" transform="translate(90.77 166.04)">被他人杀害<tspan x="6.74" y="7.2">Other</tspan></text><path class="cls-3" d="M103.46,108.5a93.58,93.58,0,0,1-.74,11.75h-7.9A52.44,52.44,0,0,1,93.5,108.5a53.37,53.37,0,0,1,6.36-25.24A87.78,87.78,0,0,1,103.46,108.5Z"/><path class="cls-4" d="M94.82,120.25h7.9a83.61,83.61,0,0,1-2.86,13.49A53.84,53.84,0,0,1,94.82,120.25Z"/><path class="cls-5" d="M99.86,83.26a87.78,87.78,0,0,1,3.6,25.24,93.58,93.58,0,0,1-.74,11.75,83.61,83.61,0,0,1-2.86,13.49c-5.79,19.13-18,32.3-32,32.3-19.67,0-35.62-25.76-35.62-57.54S48.17,51,67.84,51C81.91,51,94.07,64.13,99.86,83.26Z"/><path class="cls-5" d="M99.86,83.26C110.08,64.13,131.56,51,156.41,51c34.74,0,62.9,25.76,62.9,57.54S191.15,166,156.41,166c-24.85,0-46.33-13.17-56.55-32.3a53.84,53.84,0,0,1-5-13.49A52.44,52.44,0,0,1,93.5,108.5,53.37,53.37,0,0,1,99.86,83.26Z"/><polyline class="cls-5" points="94.53 120.25 94.82 120.25 102.72 120.25 102.88 120.25"/><rect class="cls-5" x="0.5" y="0.5" width="252" height="189"/><text class="cls-1" transform="translate(85.77 45.5)">被丈夫杀害<tspan x="5.8" y="9.6">Mu</tspan><tspan class="cls-6" x="18.55" y="9.6">r</tspan><tspan x="21.49" y="9.6">der</tspan></text><line class="cls-5" x1="102.88" y1="62.67" x2="99.13" y2="98.28"/><path class="cls-7" d="M99.22,97.39l1.91-.9,0,.06-1.46,2.8-1,3c-.11-1-.23-2.08-.35-3.12l-.85-3,0-.06Z"/><line class="cls-5" x1="102.88" y1="158" x2="99.19" y2="127.38"/><path class="cls-7" d="M99.3,128.27l-1.66,1.3,0,0,.81-3.06.3-3.13c.35,1,.7,2,1,3l1.51,2.78,0,.06Z"/></g></g></svg>