<svg version="1.1" xmlns="http://www.w3.org/2000/svg" xmlns:xlink="http://www.w3.org/1999/xlink" width="800" height="600" viewBox="0 0 800 600" >
<title>Three Field System</title>
<desc>Medieval Change of Crops; CC-BY-SA 3.0 von Matthias Scharwies</desc>
<defs>
  <style>
#field2 use {
  fill: #c3956f;
  stroke: brown;
  stroke-width:1px;
}  
#field2 use:nth-child(5n) {
 fill: #b47a4b;
}

#field1 use {
 fill: 	#faf1a3;
  stroke: brown;
  stroke-width:1px;
}  

#field1 use:nth-child(5n) {
 fill: 	#f8ea72;
}
 
#field3 use {
  fill: 	gold;
  stroke: brown;
  stroke-width:1px;
}  
#field3 use:nth-child(5n) {
  fill: 	#ccad00;
}
  </style>
  <symbol id="strip1">
    <path d="M343,130 v-12 l150,-100 v12z"/>
  </symbol>
  <symbol id="strip2">	
    <rect x="1" y="1" width="10" height="175" />
  </symbol>
  <symbol id="strip3">
    <path d="M8,130 l-4.5,-12 l150,-100 l4.5,12z"/>
  </symbol>  
</defs>  	

<g id="forest">
  <rect width="800" height="300" fill="green" />
  <path d="M50,100 h4 a6,6 0 1,1 4,0m10,10 h4 l3,-12 l3,12" fill="none" stroke="black" stroke-width="1" />
  <path d="M100,70 h4 a6,6 0 1,1 4,0m10,10 h4 l3,-12 l3,12" fill="none" stroke="black" stroke-width="1" />
  <path d="M150,100 h4 a6,6 0 1,1 4,0m10,10 h4 l3,-12 l3,12" fill="none" stroke="black" stroke-width="1" />
  <path d="M200,130 h4 a6,6 0 1,1 4,0m10,10 h4 l3,-12 l3,12" fill="none" stroke="black" stroke-width="1" />
  <path d="M100,100 h4 a6,6 0 1,1 4,0m10,10 h4 l3,-12 l3,12" fill="none" stroke="black" stroke-width="1" />
  <path d="M750,100 h4 a6,6 0 1,1 4,0m10,10 h4 l3,-12 l3,12" fill="none" stroke="black" stroke-width="1" />  
  <path d="M10,100 h4 a6,6 0 1,1 4,0m10,10 h4 l3,-12 l3,12" fill="none" stroke="black" stroke-width="1" />
  <path d="M20,70 h4 a6,6 0 1,1 4,0m10,10 h4 l3,-12 l3,12" fill="none" stroke="black" stroke-width="1" />
  <path d="M30,30 h4 a6,6 0 1,1 4,0m10,10 h4 l3,-12 l3,12" fill="none" stroke="black" stroke-width="1" />
  <path d="M40,130 h4 a6,6 0 1,1 4,0m10,10 h4 l3,-12 l3,12" fill="none" stroke="black" stroke-width="1" />
  <path d="M50,500 h4 a6,6 0 1,1 4,0m10,10 h4 l3,-12 l3,12" fill="none" stroke="black" stroke-width="1" />
  <path d="M60,80 h4 a6,6 0 1,1 4,0m10,10 h4 l3,-12 l3,12" fill="none" stroke="black" stroke-width="1" />    
  <text x="150" y="80" font-size="32">forest</text>               
</g>

<g id="meadow">
  <rect width="800" height="300" y="300" fill="lightgreen" />
  <text x="250" y="580" font-size="32">meadow</text>
  <text x="100" y="380" font-size="32">commons</text>    
</g>	
<path id="river" fill="none" stroke="blue" stroke-width="4" d="M0,500 c100,-140 200,140 420,0 c170,-140 200,140 400,0" />

<path id="road" fill="beige" stroke="maroon" stroke-width="1" d="M0,300 h340 l120,360 h8 l-120,-360 l150,-100 h390 v-8 h-394 l-150,100 v-290 h-10 v290 h-335" />

<g id="field2">
  <path d="M343,112 v-12 l150,-100 v12z" style="fill: #c3956f;stroke: brown; stroke-width:1px;"/>
  <path d="M343,124 v-12 l150,-100 v12z" style="fill: #c3956f;stroke: brown; stroke-width:1px;"/>
  <path d="M343,136 v-12 l150,-100 v12z" style="fill: #c3956f;stroke: brown; stroke-width:1px;"/>  
  <path d="M343,148 v-12 l150,-100 v12z" style="fill: #c3956f;stroke: brown; stroke-width:1px;"/>
  <path d="M343,160 v-12 l150,-100 v12z" style="fill: #b47a4b;stroke: brown; stroke-width:1px;"/>  
  <path d="M343,172 v-12 l150,-100 v12z" style="fill: #c3956f;stroke: brown; stroke-width:1px;"/>
  <path d="M343,184 v-12 l150,-100 v12z" style="fill: #c3956f;stroke: brown; stroke-width:1px;"/>
  <path d="M343,196 v-12 l150,-100 v12z" style="fill: #c3956f;stroke: brown; stroke-width:1px;"/>
  <path d="M343,208 v-12 l150,-100 v12z" style="fill: #c3956f;stroke: brown; stroke-width:1px;"/>  
  <path d="M343,220 v-12 l150,-100 v12z" style="fill: #b47a4b;stroke: brown; stroke-width:1px;"/>
  <path d="M343,232 v-12 l150,-100 v12z" style="fill: #c3956f;stroke: brown; stroke-width:1px;"/>
  <path d="M343,244 v-12 l150,-100 v12z" style="fill: #c3956f;stroke: brown; stroke-width:1px;"/>  
  <path d="M343,256 v-12 l150,-100 v12z" style="fill: #c3956f;stroke: brown; stroke-width:1px;"/>
  <path d="M343,268 v-12 l150,-100 v12z" style="fill: #c3956f;stroke: brown; stroke-width:1px;"/>  
  <path d="M343,280 v-12 l150,-100 v12z" style="fill: #b47a4b;stroke: brown; stroke-width:1px;"/>
  <path d="M343,292 v-12 l150,-100 v12z" style="fill: #c3956f;stroke: brown; stroke-width:1px;"/>   
  <text x="350" y="170" font-size="32">fallows</text>           
</g>  

<g id="field3">
  <rect x="323" y="114" width="10" height="175" style="fill: gold;stroke: brown; stroke-width:1px;"/>
  <rect x="313" y="114" width="10" height="175" style="fill: gold;stroke: brown; stroke-width:1px;"/>
  <rect x="303" y="114" width="10" height="175" style="fill: gold;stroke: brown; stroke-width:1px;"/>
  <rect x="293" y="114" width="10" height="175" style="fill: gold;stroke: brown; stroke-width:1px;"/>
  <rect x="283" y="114" width="10" height="175" style="fill: #ccad00;stroke: brown; stroke-width:1px;"/>
  <rect x="273" y="114" width="10" height="175" style="fill: gold;stroke: brown; stroke-width:1px;"/>
  <rect x="263" y="114" width="10" height="175" style="fill: gold;stroke: brown; stroke-width:1px;"/>
  <rect x="253" y="114" width="10" height="175" style="fill: gold;stroke: brown; stroke-width:1px;"/>
  <rect x="243" y="114" width="10" height="175" style="fill: gold;stroke: brown; stroke-width:1px;"/>
  <rect x="233" y="114" width="10" height="175" style="fill: #ccad00;stroke: brown; stroke-width:1px;"/>
  <rect x="223" y="114" width="10" height="175" style="fill: gold;stroke: brown; stroke-width:1px;"/>
  <rect x="213" y="114" width="10" height="175" style="fill: gold;stroke: brown; stroke-width:1px;"/>
  <rect x="203" y="114" width="10" height="175" style="fill: gold;stroke: brown; stroke-width:1px;"/>
  <rect x="193" y="114" width="10" height="175" style="fill: gold;stroke: brown; stroke-width:1px;"/>
  <rect x="183" y="114" width="10" height="175" style="fill: #ccad00;stroke: brown; stroke-width:1px;"/>
  <rect x="173" y="114" width="10" height="175"  style="fill: gold;stroke: brown; stroke-width:1px;"/>  
  <text x="180" y="220" font-size="32">wheat, rye</text>  
  </g>  

<g id="field1">
  <use xlink:href="#strip3" x="344" y="181" style="fill: #faf1a3;stroke: brown; stroke-width:1px;"/>
  <use xlink:href="#strip3" x="348" y="193" style="fill: #faf1a3;stroke: brown; stroke-width:1px;"/>
  <use xlink:href="#strip3" x="352" y="205" style="fill: #faf1a3;stroke: brown; stroke-width:1px;"/>
  <use xlink:href="#strip3" x="356" y="217" style="fill: #faf1a3;stroke: brown; stroke-width:1px;"/>
  <use xlink:href="#strip3" x="360" y="229" style="fill: #f8ea72;stroke: brown; stroke-width:1px;"/>
  <use xlink:href="#strip3" x="364" y="241" style="fill: #faf1a3;stroke: brown; stroke-width:1px;"/>
  <use xlink:href="#strip3" x="368" y="253" style="fill: #faf1a3;stroke: brown; stroke-width:1px;"/>
  <use xlink:href="#strip3" x="372" y="265" style="fill: #faf1a3;stroke: brown; stroke-width:1px;"/>
  <use xlink:href="#strip3" x="376" y="277" style="fill: #faf1a3;stroke: brown; stroke-width:1px;"/>
  <use xlink:href="#strip3" x="380" y="289" style="fill: #f8ea72;stroke: brown; stroke-width:1px;"/>
  <use xlink:href="#strip3" x="384" y="301" style="fill: #faf1a3;stroke: brown; stroke-width:1px;"/>
  <use xlink:href="#strip3" x="388" y="313" style="fill: #faf1a3;stroke: brown; stroke-width:1px;"/>
  <use xlink:href="#strip3" x="392" y="325" style="fill: #faf1a3;stroke: brown; stroke-width:1px;"/>
  <use xlink:href="#strip3" x="396" y="337" style="fill: #faf1a3;stroke: brown; stroke-width:1px;"/>
  <use xlink:href="#strip3" x="400" y="349" style="fill: #f8ea72;stroke: brown; stroke-width:1px;"/>
  <use xlink:href="#strip3" x="404" y="361" style="fill: #faf1a3;stroke: brown; stroke-width:1px;"/>
  <text x="400" y="380" font-size="32">oats, beans</text>  
  </g>  
  
<g id="village" transform="translate(300,300)">
  <rect x="1" y="5" width="9" height="9" />
  <rect x="17" y="5" width="9" height="9" />
  <rect x="31" y="5" width="9" height="9" />
  <rect x="39" y="28" width="9" height="9" />
  <rect x="24" y="39" width="6" height="9" />   
  <rect x="14" y="25" width="16" height="9" />      
  <rect x="35" y="42" width="9" height="9" />
  <rect x="41" y="55" width="9" height="9" />   
  <text x="-40" y="30">village</text>   
</g>  
  
<g id="waterwheel" transform="translate(380,500)">
  <polyline points="0,-18 0,18"  stroke="brown" stroke-width="2"/>
  <polyline points="0,-18 0,18"  stroke="brown" stroke-width="2" transform="rotate(45)"/>  
  <polyline points="0,-18 0,18"  stroke="brown" stroke-width="2" transform="rotate(90)"/>  
  <polyline points="0,-18 0,18"  stroke="brown" stroke-width="2" transform="rotate(135)"/>   
  <circle cx="0" cy="0" r="12" fill="none" stroke="brown" stroke-width="2" />
  <text x="-90" y="0">water mill</text>     
</g>
  
<rect id="border" width="798" height="598" x="1" y="1" fill="none" stroke="black" stroke-width="1" />  
</svg>
