<?xml version="1.0" encoding="UTF-8" standalone="no"?>
<svg xmlns:rdf="http://www.w3.org/1999/02/22-rdf-syntax-ns#" xmlns="http://www.w3.org/2000/svg" height="311" width="520.99" version="1.0" xmlns:cc="http://creativecommons.org/ns#" xmlns:dc="http://purl.org/dc/elements/1.1/">
<g transform="translate(5 5.0017)">
<g>
<rect height="44.137" width="128.9" y="41.193" x="309.46" fill="#e5e5e5"/>
<path d="m411.57 26.565s68.792-9.7365 69.412-7.9678c30.211 86.109-7.1534 148.8-6.8056 147.84 0.34786-0.95811-47.916 1.1961-47.753-0.54325 0.15269-1.6332 11.117-81.836-14.854-139.33z" fill="#ccc"/>
<path d="m364.94 141.81c-2.5664-0.495 9.8796-53.836 6.0655-53.488-8.1765 0.74667 56.974-3.0335 58.562 0.15968 2.662 5.3549 4.5112 46.364-2.9794 76.558-0.39483 1.5916-35.765-18.238-61.648-23.231z" fill="#808080"/>
<path d="m202.91 135.37c0.19437-27.211-7.1582-100.42-6.2802-99.38 0.73355 0.87242 100.51-1.0757 101.25 0.05849 20.192 31.056 3.8565 99.513 3.8936 99.848 1.2792 11.541-98.874 0.88664-98.863-0.52639z" fill="#fc0"/>
<path d="m203.16 135.48c19.271 0.0419 99.718 0.86476 99.394 1.856-5.406 16.564-1.1363 40.77-1.3945 40.783-12.54 0.60647-98.869 9.0902-99.984 9.4396-1.4821 0.46431 1.1134-33.076 1.9844-52.078z" fill="#808080"/>
<path d="m104.2 9.2031c5.9329 1.338 90.085 23.691 92.741 24.551 2.6564 0.86064 6.908 101.08 7.019 101.71 0.26836 1.5418-87.244 4.138-86.07 4.8559 0 0-19.623-132.46-13.69-131.12z" fill="#808080"/>
<path d="m301.25 136c-0.96914 3.8751 49.465 3.1926 63.164 5.8782 2.4144 0.47333 14.142-40.515 5.5181-67.456-0.98809-3.0869-42.15 1.8352-54.865-0.89198-3.5095-0.75278 51.52-13.077 51.563-13.478 1.3267-12.577-6.7561-21.267-7.2267-26.394-0.34051-3.7093-63.008 6.2832-63.981 2.8303-1.0337-3.6674 24.158 26.216 5.8277 99.511z" fill="#666"/>
<path d="m204.12 136.02s-1.4041 51.287-3.2967 51.403c-54.861 3.369-53.655-3.1739-52.744-2.6971 0.91099 0.47686-36.32-44.13-34.552-44.212 30.258-1.4096 37.891-4.2456 90.593-4.4944z" fill="#ccc"/>
<g fill-rule="evenodd">
<path d="m301.44 136.13s-6.5306 34.677 2.2905 42.359c8.8211 7.6824 113.64-17.925 113.64-17.925s-26.159-22.623-115.93-24.434z" fill="#808080"/>
<path d="m359.25 32.521 52.298-6.6438 7.8934 20.984s-8.2652 6.5464-52.483 12.692c-1.0276 0.14284-0.44392-12.692-7.7083-27.033z" fill="#808080"/>
<path d="m424.11 67.348 5.7707 25.458c-5.5492-5.7316-30.368-3.5839-57.355-3.223-1.1602 0.01574-2.3795-16.601-2.3795-16.601 26.806-1.3667 37.531-7.561 53.964-5.6337z" fill="#e6e6e6"/>
</g>
</g>
<g stroke-linejoin="round" stroke="#000" stroke-linecap="round" stroke-width="1.531" fill="none">
<path d="m359.82 34.577s3.7902 9.9052 7.2857 25.157"/>
<path d="m369.87 73.55c3.7192 21.854 4.9442 48.765-4.9152 69.31"/>
<path d="m412.49 26.655s32.09 79.628 14.478 136.85"/>
<path d="m418.86 47.173c-23.53 10.944-67.67 12.476-104.23 26.385 75.04 2.223 59.85-3.166 109.46-6.75"/>
<path d="m297.81 37.474c25.981 62.268-5.4768 82.721 4.036 140.88"/>
<path d="m126.47 139.6s249.5-19.194 292.06 22.815"/>
<path d="m197.65 37.112s9.9065 114.44 3.6691 148.48"/>
<path d="m429.68 92.404s-4.1313-7.2982-57.363-2.488"/>
</g>
<g font-family="Bitstream Vera Sans" fill="#000000">
<text xml:space="preserve" transform="scale(1.0065 .99349)" line-height="125%" font-size="14px" y="89.633507" x="137.61536"><tspan x="137.61536" y="89.633507">Chuck</tspan></text>
<text xml:space="preserve" transform="scale(1.0065 .99349)" line-height="125%" font-size="14px" y="160.19897" x="139.82283"><tspan x="139.82283" y="160.19897">Brisket</tspan></text>
<g font-size="14px">
<text xml:space="preserve" transform="scale(1.0065 .99349)" line-height="125%" y="160.55365" x="232.79323"><tspan x="232.79323" y="160.55365">Plate</tspan></text>
<text xml:space="preserve" transform="scale(1.0065 .99349)" line-height="125%" y="89.633507" x="241.24277"><tspan x="241.24277" y="89.633507">Rib</tspan></text>
<text xml:space="preserve" transform="scale(1.0065 .99349)" line-height="125%" y="104.32562" x="316.7413"><tspan x="316.7413" y="104.32562">Short</tspan><tspan x="316.7413" y="121.82562"> Loin</tspan></text>
<text xml:space="preserve" transform="scale(1.0065 .99349)" line-height="125%" y="160.41859" x="312.61951"><tspan x="312.61951" y="160.41859">Flank</tspan></text>
</g>
<text style="text-anchor:middle;text-align:center" xml:space="preserve" transform="scale(1.0065 .99349)" line-height="125%" font-size="12px" y="125.67484" x="400.89758"><tspan x="400.89758" y="125.67484">Bottom</tspan><tspan x="400.89758" y="140.67484">Sirloin</tspan></text>
<text xml:space="preserve" transform="scale(1.0065 .99349)" line-height="125%" font-size="14px" y="96.896645" x="431.83798"><tspan x="431.83798" y="96.896645">Round</tspan></text>
<text xml:space="preserve" transform="matrix(.98040 -.22796 0.225 .96768 0 0)" line-height="125%" font-size="14px" y="135.93712" x="346.50256"><tspan x="346.50256" y="135.93712">Sirloin</tspan></text>
</g>
<g>
<path d="m60.406 0.0042047c-1.6836 0.09256-3.2946 0.36523-4.8125 0.78119-4.118 1.1283-6.979 5.4966-10.813 10.375-5.9528 7.574-21.073 2.5215-22.75 9.2492-2.2826 9.1554 6.0001 10.804 7.2187 11.249 0.03584 0.01569 0.1014 0.04904 0.125 0.0625 0.00004 0.0029 0.00012 0.02765 0 0.03124-6.162 17.524-9.6552 13.665-25.687 28.31-3.133 2.862-3.688 16.124-3.688 16.124 5.9206 4.5872 4.9075 3.2086 13.531 4.3121 4.8704 0.62326 4.9 2.5286 12.062 3.9059 3.075 0.59134 8.2749-0.722 11.031-0.24998 8.2098 1.4059 10.696 4.6493 23.906 6.4057 5.38 0.71538 7.1388-2.1801 18.062-2.2186 6.4468-0.02273 7.5071 4.1253 10.969 7.8118 2.4953 2.6575 19.613 42.015 21.562 45.84 2.5364 4.9784 3.3744 7.7234 2.9375 9.6867-0.49713 2.2339 0.19291 3.6755 3.7812 7.7181 2.4234 2.7302 21.514 24.4 26.25 28.185 1.8791 1.5019 6.8423 3.6452 7.4687 3.9997 0.007-0.00006 0.0298 0.00001 0.0312 0 0.0001 0.003 0.00021 0.0276 0 0.0312 0.0287 0.11776 3.958 26.558 12.812 37.028-0.00038 0.004 0.00006 0.0284 0 0.0312 0.003 0 0.0276 0.00027 0.0312 0-0.00058 0.003 0.00015 0.0285 0 0.0312 0.012 0.0194 0.0466 0.0677 0.0625 0.0937 1.1062 2.182 1.0745 14.875 0.9375 26.217-0.0739 5.891-11.147 26.81-12.406 29.498-3.335 7.1204-2.3092 10.05 3.9687 11.187 3.6906 0.66805 4.448 0.67883 4.7187 0.78118 0.001 0 0.024 0.00008 0.0312 0-0.00037 0.004 0.00007 0.0284 0 0.0312 0.003 0.00008 0.0276 0.00022 0.0312 0 0.001 0.00001 0.0239 0.00009 0.0312 0 0.00007 0.007 0.00029 0.0296 0 0.0312v4.3746c19.196 0.46756 28.893-0.77748 31.375-10.53 0.64141-2.521 3.562-2.5079 4.0937-2.6248 0.001-0.00005 0.0239-0.0001 0.0312 0 0.00005-0.007 0.00018-0.0295 0-0.0312 0.33651-9.4381-4.3784-16.91-3.75-48.808 0.10422-5.2904 12.043-48.839 17.344-49.652 1.5163-0.23257 49.928-5.859 61.344-2.0936 3.9089 1.2895 35.219 12.155 37.719 14.28 0.0179 0.0163 0.0482 0.0473 0.0625 0.0625 2.4624 2.6086 5.4632 2.4467 11.25-0.5937 2.6226-1.3778 81.088-31.724 83.125-31.747 0.007-0.00004 0.0297 0.00005 0.0312 0 7.8255 26.36 5.3296 16.873 20.687 36.091-0.00017 0.002-0.00004 0.0242 0 0.0312 0.004 0.009 0.023 0.0453 0.0312 0.0625 0.61584 2.4598-0.38212 44.667-6.6875 56.089-1.3247 2.3996-11.848 17.121-7.125 17.186 18.329 0.25147 23.16-0.52204 27.687-6.3745l5.3125-7.2494c0.46257-17.958-2.9964-34.653 1.375-50.402 1.4928-5.378 2.091-7.672 2.6875-8.4056 0.0353-0.0417 0.0843-0.0885 0.125-0.12499 0.007-0.006 0.0244-0.0263 0.0312-0.0312 0.0102-0.006 0.0513-0.0257 0.0625-0.0312 0.0226-0.0105 0.0462-0.0232 0.0625-0.0312 0.003-0.004 0.0285-0.0284 0.0312-0.0312 0.003 0.00001 0.0276-0.00011 0.0312 0 0.005 0.00002 0.025-0.00032 0.0312 0 0.002-0.00007 0.0297 0.00024 0.0312 0 0.006 0.00017 0.0281 0.00028 0.0312 0 0.0128-0.00071 0.0495-0.0001 0.0625 0 0.007 0.00026 0.0189 0.00022 0.0312 0 0.005 0.00002 0.0279-0.00033 0.0312 0 0.005-0.00011 0.0251 0.00025 0.0312 0 0.002 0.00012 0.0295-0.00032 0.0312 0 0.3459 0.0705 0.76571 0.37441 1.375 0.74994 3.4883 2.1501 4.6458 23.949 6.7812 38.841 0.74243 5.1773-1.4013 15.304-1.875 16.749-4.1812 12.754-10.009 15.876-11.219 25.06l7.125 0.68744c8.398 0.81685 14.729-0.20363 19.937-2.531 6.5592-2.9311 6.5441-6.423 13.25-23.529-0.00024-0.003 0.00008-0.0284 0-0.0312 0.004-0.003 0.0245-0.0247 0.0312-0.0312 0.32804-2.1249-4.4721-31.387-4.8125-38.341-0.59485-12.154-0.52035-13.035 1.6875-16.561 2.0304-3.2424 3.1249-4.7335 1.7187-10.468-6.5652-26.773 5.3723-56 6.7812-58.183 0.003-0.003 0.028-0.0283 0.0312-0.0312 0.001 0 0.0238-0.00007 0.0312 0-0.00029-0.0111 0.00039-0.0516 0-0.0625 0.007 0.0001 0.0298-0.00003 0.0312 0 0.00045 0.00024 0.0237 0.00012 0.0312 0-0.00006 0.007 0.00001 0.0286 0 0.0312-0.00001 0.9048-5.5312 26.922-5.5312 31.497-0.00001 2.1289 0.48681 4.3381 1.0938 4.9371l0.0312 0.0312c0.0159 0.0214 0.0469 0.0679 0.0625 0.0937 0.006 0.0121 0.0233 0.0469 0.0312 0.0625 0.0141 0.0217 0.0479 0.0686 0.0625 0.0937 0.54263 1.1826 0.77808 4.9416 0.59374 10.062-0.18383 5.1081-0.10122 7.9386 0.34375 8.8118 0.005 0.0105 0.0258 0.0517 0.0312 0.0625 0.0161 0.0259 0.0462 0.072 0.0625 0.0937 0.003 0.003 0.028 0.0281 0.0312 0.0312 0.002 0.002 0.0244 0.0243 0.0312 0.0312 0.002 0.001 0.0244 0.0241 0.0312 0.0312 0.007-0.00007 0.0299 0.00002 0.0313 0 0.007 0.007 0.0279 0.0276 0.0312 0.0312 0.007-0.00004 0.0299 0 0.0312 0 0.001 0.00027 0.0285 0 0.0312 0 0.002 0.00022 0.0245 0.00006 0.0312 0 0.004 0.00003 0.0268 0.0002 0.0312 0 0.002-0.00015 0.0246-0.00013 0.0312 0 0.001-0.0002 0.0285-0.00006 0.0312 0 0.0241-0.007 0.0764-0.0235 0.0937-0.0312 0.0132-0.006 0.0465-0.0229 0.0625-0.0312 0.33505-0.21189 0.76-0.81978 1.2812-1.7811 0.40632-0.74933 0.93302-1.4324 1.3437-1.7811 0.0578-0.0476 0.15993-0.11833 0.21875-0.15624 0.0315-0.0159 0.10016-0.0495 0.125-0.0625 0.003-0.003 0.0284-0.0283 0.0312-0.0312 0.003-0.00002 0.0279-0.00024 0.0312 0 0.007 0.00007 0.0301 0.00008 0.0312 0 0.006-0.00006 0.0286-0.0001 0.0312 0 0.003-0.00016 0.025-0.00005 0.0312 0 0.002 0.00029 0.0247 0.00017 0.0312 0 0.0158 0.004 0.069 0.022 0.0937 0.0312 0.001 0.00003 0.0239 0.00009 0.0312 0 0.00006 0.007 0.00019 0.0295 0 0.0312 0.003 0.003 0.0286 0.0285 0.0312 0.0312 0.003-0.00004 0.0276 0.00017 0.0312 0 0.0162 0.0162 0.0521 0.0529 0.0625 0.0625 1.775 1.6973 8.0509 15.523 8.6562 19.311 0.22514 1.4087 0.48134 2.3202 0.8125 2.8123 0.0173 0.0247 0.0447 0.0711 0.0625 0.0937 0.006 0.007 0.0252 0.0242 0.0312 0.0312 0.0226 0.0254 0.0703 0.0715 0.0937 0.0937 0.003 0.003 0.0249 0.0247 0.0312 0.0312 0.007 0.007 0.0281 0.0279 0.0312 0.0312 0.003-0.00003 0.0307-0.00033 0.0312 0-0.00032 0.004 0.00008 0.0284 0 0.0312 0.004-0.00011 0.0284 0.00005 0.0312 0 0.007 0.007 0.0281 0.0278 0.0312 0.0312 0.0163 0.008 0.0527 0.0264 0.0625 0.0312 0.01 0.005 0.0461 0.0231 0.0625 0.0312 0.001-0.00003 0.0239 0.00004 0.0312 0 0.0109 0.006 0.0519 0.0258 0.0625 0.0312 0.003-0.00001 0.0278 0.00012 0.0312 0 0.007-0.00007 0.0301-0.00008 0.0312 0 0.006-0.00029 0.0258 0.00012 0.0312 0 0.003 0.00002 0.0304-0.00026 0.0312 0 0.003 0.003 0.0247 0.0245 0.0313 0.0312 0.001-0.00004 0.0239 0.00004 0.0312 0 0.19256 0.007 0.41312-0.0641 0.65625-0.15623 0.24049-0.0911 0.45769-0.19851 0.625-0.34373 0.036-0.0323 0.0864-0.0842 0.125-0.12499 0.006-0.007 0.026-0.0251 0.0312-0.0312 0.003-0.003 0.0246-0.0247 0.0312-0.0312-0.00023-0.0113 0.00043-0.0517 0-0.0625 0.003 0.00001 0.0275-0.00022 0.0312 0 0.0162-0.0231 0.0474-0.0693 0.0625-0.0937 0.42941-0.72076 0.43216-2.001 0.0937-4.4371-0.26126-1.8813-0.38299-3.0007-0.28125-3.4997 0.006-0.005 0.0255-0.0259 0.0312-0.0312-0.00026-0.003 0.00007-0.0286 0-0.0312 0.007-0.0152 0.0249-0.0504 0.0312-0.0625-0.00017-0.002-0.00004-0.0242 0-0.0312 0.002-0.00001 0.0239-0.00009 0.0312 0 0.00006-0.007 0.0002-0.0295 0-0.0312 0.007-0.007 0.0281-0.0284 0.0312-0.0312 0.003-0.004 0.0252-0.0251 0.0312-0.0312 0.007-0.007 0.0283-0.028 0.0312-0.0312 0.007 0.00005 0.0299-0.00003 0.0312 0 0.001-0.00006 0.0239-0.0001 0.0312 0 0.00006-0.007 0.00019-0.0295 0-0.0312 0.002-0.00029 0.0247-0.00014 0.0312 0 0.005-0.00008 0.0261-0.00013 0.0312 0 0.003 0.00023 0.0248 0.00012 0.0312 0 0.003 0.003 0.0247 0.0248 0.0312 0.0312 0.007-0.00004 0.0299 0.00002 0.0312 0 0.18901 0.0592 0.45671 0.23413 0.78124 0.49996 0.37161 0.30442 0.7034 0.57566 0.9375 0.68744 0.001-0.00003 0.024 0.00005 0.0312 0 0.011 0.006 0.0521 0.0258 0.0625 0.0312 0.003-0.00001 0.0277 0.0001 0.0312 0 0.007-0.00007 0.0301-0.00009 0.0312 0 0.006-0.00019 0.0259 0.00016 0.0312 0 0.0108-0.00004 0.0464 0.00026 0.0625 0 0.0119-0.004 0.0442-0.0252 0.0625-0.0312 0.008-0.003 0.0269 0.002 0.0312 0 0.003-0.003 0.0285-0.0284 0.0312-0.0312 0.0117-0.005 0.0521-0.026 0.0625-0.0312 0.006-0.006 0.0287-0.0283 0.0312-0.0312-0.00026-0.002-0.00009-0.0242 0-0.0312 0.37978-0.62658 0.35587-3.0591 0.28125-9.1867-0.0412-3.3805-0.0446-5.134 0.125-5.687-0.00037-0.003 0.00006-0.0284 0-0.0312 0.003-0.003 0.0276-0.028 0.0312-0.0312-0.00004-0.003 0.00017-0.0278 0-0.0312 0.007-0.013 0.0232-0.0473 0.0312-0.0625 0.007 0.0001 0.0299-0.00005 0.0312 0 0.003-0.003 0.0246-0.0247 0.0312-0.0312 0.002-0.00004 0.0245 0.00002 0.0312 0 0.001 0.00027 0.0285 0.00006 0.0312 0 0.001 0.00005 0.0239 0.0001 0.0312 0 0.00006 0.007 0.00019 0.0295 0 0.0312 0.003-0.00004 0.0307-0.00029 0.0312 0-0.0004 0.003 0.00006 0.0284 0 0.0312 0.003 0.00011 0.0276 0.0002 0.0312 0 0.0255 0.032 0.071 0.0954 0.0937 0.12499 0.20643 0.27942 0.49788 0.843 0.87499 1.6249 0.80687 1.673 1.4878 3.7256 1.5312 4.5621 0.0109 0.21052 0.0572 0.3992 0.0937 0.53121 0.008 0.0277 0.0204 0.0665 0.0312 0.0937 0.008 0.0195 0.0232 0.0479 0.0312 0.0625-0.00035 0.0111 0.0003 0.0516 0 0.0625 0.003-0.00002 0.0275 0.00023 0.0312 0-0.0006 0.003 0 0.0283 0 0.0312 0.003 0 0.0276 0.00025 0.0312 0 0.007-0.00005 0.0298 0.00001 0.0312 0l0.0312 0.0312c0.002 0.00031 0.0242 0.00011 0.0312 0 0.003 0.00026 0.0251 0.00002 0.0312 0 0.007 0.00013 0.0293 0.00031 0.0312 0 0.0235-0.007 0.0741-0.0224 0.0937-0.0312 0.0328-0.0218 0.0942-0.0702 0.12501-0.0937 0.23513-0.18932 0.57688-0.57278 0.99999-1.1249 1.9976-2.6066 1.9128-4.5735-0.53125-11.437-1.1117-3.1217-1.5146-4.9642-1.2812-5.8745 0.0226-0.0818 0.0603-0.18327 0.0937-0.24998 0.006-0.0108 0.0231-0.0464 0.0312-0.0625 0.001 0 0.0239-0.00008 0.0312 0-0.0002-0.002-0.00007-0.0242 0-0.0312 0.001 0 0.0238-0.00007 0.0312 0-0.00035-0.011 0.00032-0.0515 0-0.0625 0.007-0.006 0.0287-0.0284 0.0312-0.0312l0.0312-0.0312c0.006-0.007 0.0285-0.0288 0.0312-0.0312 0.001-0.00002 0.0239-0.00009 0.0312 0 0.00006-0.007 0.00019-0.0295 0-0.0312 0.003 0.00003 0.0307 0.0003 0.0312 0-0.00008-0.003 0.00032-0.0277 0-0.0312 0.007 0.00022 0.0306 0.00032 0.0312 0 0.0236-0.0154 0.076-0.0502 0.0937-0.0625 0.001-0.00002 0.0239-0.00009 0.0312 0 0.00006-0.007 0.00019-0.0295 0-0.0312 0.006-0.005 0.0248-0.0255 0.0312-0.0312 0.0275-0.0254 0.068-0.066 0.0937-0.0937 0.006-0.007 0.0263-0.0251 0.0312-0.0312 0.001 0 0.0239-0.00009 0.0312 0-0.00018-0.002-0.00005-0.0242 0-0.0312 0.001 0.00001 0.0239-0.00007 0.0313 0-0.00032-0.011 0.00035-0.0514 0-0.0625 0.46336-0.75321 0.3169-2.4236-0.46875-5.6558-1.0354-4.2596-1.0364-5.7179 0.0312-7.6869 1.1025-2.0332 1.0521-3.4644-0.375-8.5306-1.3408-4.7594-1.7979-6.7706-1.4688-7.5931-0.00018-0.0108 0.00028-0.0514 0-0.0625 0.006-0.006 0.0255-0.026 0.0312-0.0312 0.003-0.003 0.0245-0.0246 0.0312-0.0312-0.00023-0.002-0.00007-0.0242 0-0.0312 0.0227-0.0259 0.0697-0.0698 0.0937-0.0937 0.002-0.005 0.0293-0.0253 0.0312-0.0312 0.001-0.003-0.001-0.0285 0-0.0312 0.003 0.00004 0.0276-0.00025 0.0312 0 0.0173-0.0121 0.0693-0.0468 0.0937-0.0625 0.0107-0.006 0.0517-0.0258 0.0625-0.0312 0.003 0.00004 0.0277-0.00015 0.0312 0 0.22475-0.0864 0.5166-0.12498 0.875-0.12499 0.38167 0.00001 0.70425-0.11406 0.9375-0.31247 0.97451-0.8858 0.59651-3.5471-1.1562-7.4369-1.5348-3.4061-1.7864-7.9514-1.9062-34.341-0.14846-32.689-5.5656-60.753-6.1875-62.339-8.3713-21.351-6.9272-17.908-18.469-28.216-74.329 5.0732-117.71 13.092-158.12 15.53-146.74 8.839-105.93 2.41-242.3-28.325-5.972-1.3458-12.795-2.3743-18.78-2.2808-0.1949 0.00304-0.36931-0.0068-0.56249 0-0.11671 0.0041-0.25878-0.00562-0.375 0-0.05447 0.00263-0.10194-0.00299-0.15625 0zm58.094 16.811c0.0262-0.0048 0.0622 0.0024 0.0937 0 0.0841-0.0064 0.20006-0.02077 0.28125 0 68.389 17.493 59.497 41.21 278.53 13.374 68.162-12.475 86.476-9.9604 79.062 4.5309 0.001 0 0.0238 0.00006 0.0312 0-0.00047 0.01086 0.00024 0.05128 0 0.0625 0.96488 2.1626 30.385 48.456-2.8125 128.02l-46.187 0.84368c-8.464 0.47984-8.7072-3.4036-10.469-2.8748-51.931 13.147-147.5 15.71-208.19 22.936-20.19-1.0627-46.554-0.88363-55-3.9684-30.27-11.05-57.424-140.23-42.11-158.79 1.8998-2.3026 3.3783-3.9126 6.6562-4.0934 0.03-0.0016 0.068 0.0046 0.0937 0 0.009-0.0016 0.0225-0.02965 0.0312-0.03124z"/>
<path d="m422.52 165.77 50.702-1.2213c2.7096 25.508 2.2476 36.643-8.2109 36.164-20.816 0.15664-28.755-15.951-42.491-34.943z" fill-rule="evenodd" fill="#4d4d4d"/>
<path d="m164.43 186.71 35.515-0.0683c-1.9632 23.202-7.6822 33.76-14.636 32.705-8.5496 0.73316-15.904-14.798-20.879-32.637z" fill-rule="evenodd" fill="#4d4d4d"/>
<g font-family="Bitstream Vera Sans">
<text xml:space="preserve" transform="scale(.99952 1.0005)" line-height="125%" font-size="14px" y="178.37146" x="430.59473" fill="#ffffff"><tspan x="430.59473" y="178.37146">Shank</tspan></text>
<text xml:space="preserve" transform="scale(.99952 1.0005)" line-height="125%" font-size="14px" y="198.22925" x="159.80315" fill="#ffffff"><tspan x="159.80315" y="198.22925">Shank</tspan></text>
<text xml:space="preserve" transform="rotate(-8.4352)" font-size="12px" y="124.31587" x="345.3403" line-height="125%" fill="#000000"><tspan x="345.3403" y="124.31587">Tenderloin</tspan></text>
<text xml:space="preserve" font-size="10px" y="83.106041" x="373.74106" line-height="125%" fill="#000000"><tspan x="373.74106" y="83.106041">Top Sirloin</tspan></text>
</g>
</g>
</g>
</svg>
