<svg xmlns:xlink="http://www.w3.org/1999/xlink" width="815" xmlns="http://www.w3.org/2000/svg" height="239" viewBox="0 0 815 239">
    <defs/>
    <g transform="translate(-345.00,-173.00)">
        <g transform="translate(346.00,183.64)" id="shape1">
            <path fill="#ffffff" fill-rule="nonzero" stroke="#323232" d="M120.0,89.7L120.0,.0L.0,.0L.0,89.7L120.0,89.7z"/>
            <text style="fill:#191919;font-family:Microsoft YaHei;font-size:10.00pt" xml:space="preserve">
                <tspan y="50.4" x="55.5">A</tspan>
            </text>
        </g>
        <g transform="translate(693.00,183.64)" id="shape2">
            <path fill="#cfe9d8" fill-rule="nonzero" stroke="#323232" d="M120.0,89.7L120.0,.0L.0,.0L.0,89.7L120.0,89.7z"/>
            <text style="fill:#191919;font-family:Microsoft YaHei;font-size:10.00pt" xml:space="preserve">
                <tspan y="40.9" x="56.0">B</tspan>
                <tspan y="59.9" x="44.0">(Carl)</tspan>
            </text>
        </g>
        <g transform="translate(466.00,228.50)" id="shape3">
            <path fill="none" stroke="#191919" d="M.0,.0L221.0,.0"/>
            <path fill="#191919" stroke="#191919" stroke-width="1" stroke-linecap="round" d="M221.0,-3.0L227.0,.0L221.0,3.0L221.0,-3.0"/>
            <rect y="-19.0" width="174.0" fill="#ffffff" x="28.3" height="19.0"/>
            <rect y="0.0" width="145.0" fill="#ffffff" x="42.8" height="19.0"/>
            <text style="fill:#191919;font-family:Microsoft YaHei;font-size:10.00pt" xml:space="preserve">
                <tspan y="-4.0" x="28.3">can you make a copy of this</tspan>
                <tspan y="15.0" x="42.8">contract for me please?</tspan>
            </text>
        </g>
        <g transform="translate(1039.00,183.64)" id="shape4">
            <path fill="#ffffff" fill-rule="nonzero" stroke="#323232" d="M120.0,89.7L120.0,.0L.0,.0L.0,89.7L120.0,89.7z"/>
            <text style="fill:#191919;font-family:Microsoft YaHei;font-size:10.00pt" xml:space="preserve">
                <tspan y="40.9" x="55.5">C</tspan>
                <tspan y="59.9" x="33.5">(Maxine)</tspan>
            </text>
        </g>
        <g transform="translate(813.00,196.47)" id="shape5">
            <path fill="none" stroke="#191919" d="M.0,.0L220.0,.0"/>
            <path fill="#191919" stroke="#191919" stroke-width="1" stroke-linecap="round" d="M220.0,-3.0L226.0,.0L220.0,3.0L220.0,-3.0"/>
            <rect y="-19.0" width="151.0" fill="#ffffff" x="35.0" height="19.0"/>
            <text style="fill:#191919;font-family:Microsoft YaHei;font-size:10.00pt" xml:space="preserve">
                <tspan y="-4.0" x="35.0">I think I broke this thing.</tspan>
                <tspan y="15.0" x="28.5">can you help me out here?</tspan>
            </text>
        </g>
        <g transform="translate(1039.00,253.89)" id="shape6">
            <path fill="none" stroke="#191919" d="M.0,.0L-220.0,.0"/>
            <path fill="#191919" stroke="#191919" stroke-width="1" stroke-linecap="round" d="M-220.0,3.0L-226.0,.0L-220.0,-3.0L-220.0,3.0"/>
            <rect y="-28.5" width="74.0" fill="#ffffff" x="-142.5" height="19.0"/>
            <rect y="-9.5" width="164.0" fill="#ffffff" x="-187.5" height="19.0"/>
            <rect y="9.5" width="108.0" fill="#ffffff" x="-159.5" height="19.0"/>
            <text style="fill:#191919;font-family:Microsoft YaHei;font-size:10.00pt" xml:space="preserve">
                <tspan y="-13.5" x="-142.5">You can go </tspan>
                <tspan y="5.5" x="-187.5">use the other one upstairs.</tspan>
                <tspan y="24.5" x="-159.5">can you fax this ?</tspan>
            </text>
        </g>
        <g transform="translate(693.00,321.00)" id="shape7">
            <path fill="#fedad0" fill-rule="nonzero" stroke="#323232" d="M120.0,89.7L120.0,.0L.0,.0L.0,89.7L120.0,89.7z"/>
            <text style="fill:#191919;font-family:Microsoft YaHei;font-size:10.00pt" xml:space="preserve">
                <tspan y="50.4" x="35.5">elevator</tspan>
            </text>
        </g>
        <g transform="translate(753.00,273.36)" id="shape8">
            <path fill="none" stroke="#191919" d="M.0,.0L.0,41.6"/>
            <path fill="#191919" stroke="#191919" stroke-width="1" stroke-linecap="round" d="M3.0,41.6L.0,47.6L-3.0,41.6L3.0,41.6"/>
        </g>
        <g transform="translate(346.00,321.00)" id="shape9">
            <path fill="#ffffff" fill-rule="nonzero" stroke="#323232" d="M120.0,89.7L120.0,.0L.0,.0L.0,89.7L120.0,89.7z"/>
            <text style="fill:#191919;font-family:Microsoft YaHei;font-size:10.00pt" xml:space="preserve">
                <tspan y="50.5" x="55.0">D</tspan>
            </text>
        </g>
        <g transform="translate(466.00,365.86)" id="shape10">
            <path fill="none" stroke="#191919" d="M.0,.0L195.0,.0L195.0,-105.0L221.0,-105.0"/>
            <path fill="#191919" stroke="#191919" stroke-width="1" stroke-linecap="round" d="M221.0,-108.0L227.0,-105.0L221.0,-102.0L221.0,-108.0"/>
            <rect y="-28.5" width="182.0" fill="#ffffff" x="24.5" height="19.0"/>
            <rect y="-9.5" width="81.0" fill="#ffffff" x="75.0" height="19.0"/>
            <rect y="9.5" width="152.0" fill="#ffffff" x="39.5" height="19.0"/>
            <text style="fill:#191919;font-family:Microsoft YaHei;font-size:10.00pt" xml:space="preserve">
                <tspan y="-13.5" x="24.5">The elevator has some sort of</tspan>
                <tspan y="5.5" x="75.0">malfunction. </tspan>
                <tspan y="24.5" x="39.5">Just take the stairs dude.</tspan>
            </text>
        </g>
    </g>
</svg>
