<svg viewBox="0 0 497 236" width="497" xmlns="http://www.w3.org/2000/svg" xmlns:xlink="http://www.w3.org/1999/xlink" height="236">
    <defs/>
    <g transform="translate(-1239.50,-1201.50)">
        <g id="shape1" transform="translate(1240.50,1304.00)">
            <path stroke="#323232" d="M.0,.0L60.0,.0L60.0,35.0L.0,35.0L.0,.0z" fill="none"/>
            <text xml:space="preserve" style="fill:#191919;font-family:Microsoft YaHei;font-size:10.00pt">
                <tspan y="23.0" x="4.0">初始假设</tspan>
            </text>
        </g>
        <g id="shape2" transform="translate(1341.00,1253.25)">
            <path stroke="#323232" d="M.0,.0L76.0,.0L76.0,25.5L.0,25.5L.0,.0z" fill="none"/>
            <text xml:space="preserve" style="fill:#191919;font-family:Microsoft YaHei;font-size:10.00pt">
                <tspan y="18.3" x="5.5">获得新假设</tspan>
            </text>
        </g>
        <g id="shape3" transform="translate(1341.00,1361.00)">
            <path stroke="#323232" d="M.0,.0L76.0,.0L76.0,25.5L.0,25.5L.0,.0z" fill="none"/>
            <text xml:space="preserve" style="fill:#191919;font-family:Microsoft YaHei;font-size:10.00pt">
                <tspan y="18.3" x="5.5">获得新假设</tspan>
            </text>
        </g>
        <g id="shape4" transform="translate(1451.96,1202.50)">
            <path stroke="#323232" d="M.0,.0L76.0,.0L76.0,25.5L.0,25.5L.0,.0z" fill="none"/>
            <text xml:space="preserve" style="fill:#191919;font-family:Microsoft YaHei;font-size:10.00pt">
                <tspan y="18.3" x="5.5">获得新假设</tspan>
            </text>
        </g>
        <g id="shape5" transform="translate(1451.96,1291.25)">
            <path stroke="#323232" d="M.0,.0L76.0,.0L76.0,25.5L.0,25.5L.0,.0z" fill="none"/>
            <text xml:space="preserve" style="fill:#191919;font-family:Microsoft YaHei;font-size:10.00pt">
                <tspan y="18.3" x="5.5">获得新假设</tspan>
            </text>
        </g>
        <g id="shape6" transform="matrix(0.71,-0.71,0.71,0.71,1300.5,1317.7)">
            <path stroke="#191919" d="M.0,.0L52.7,.0" fill="none"/>
            <path stroke="#191919" stroke-linecap="round" d="M52.7,-3.0L58.7,.0L52.7,3.0L52.7,-3.0" fill="#191919" stroke-width="1"/>
        </g>
        <g id="shape7" transform="translate(1417.00,1262.70)">
            <path stroke="#191919" d="M.0,.0L30.7,-30.7" fill="none"/>
            <path stroke="#191919" stroke-linecap="round" d="M28.6,-32.8L35.0,-35.0L32.8,-28.6L28.6,-32.8" fill="#191919" stroke-width="1"/>
        </g>
        <g id="shape8" transform="translate(1417.00,1267.70)">
            <path stroke="#191919" d="M.0,.0L30.7,30.7" fill="none"/>
            <path stroke="#191919" stroke-linecap="round" d="M32.8,28.6L35.0,35.0L28.6,32.8L32.8,28.6" fill="#191919" stroke-width="1"/>
        </g>
        <g id="shape9" transform="translate(1300.50,1333.70)">
            <path stroke="#191919" d="M.0,.0L36.3,36.3" fill="none"/>
            <path stroke="#191919" stroke-linecap="round" d="M38.4,34.1L40.5,40.5L34.1,38.4L38.4,34.1" fill="#191919" stroke-width="1"/>
        </g>
        <g id="shape10" transform="translate(1578.00,1291.25)">
            <path stroke="#323232" d="M.0,.0L76.0,.0L76.0,25.5L.0,25.5L.0,.0z" fill="none"/>
            <text xml:space="preserve" style="fill:#191919;font-family:Microsoft YaHei;font-size:10.00pt">
                <tspan y="18.3" x="5.5">获得新假设</tspan>
            </text>
        </g>
        <g id="shape11" transform="translate(1527.96,1307.70)">
            <path stroke="#191919" d="M.0,.0L44.0,.0" fill="none"/>
            <path stroke="#191919" stroke-linecap="round" d="M44.0,-3.0L50.0,.0L44.0,3.0L44.0,-3.0" fill="#191919" stroke-width="1"/>
        </g>
        <g id="shape12" transform="translate(1451.96,1410.50)">
            <path stroke="#323232" d="M.0,.0L76.0,.0L76.0,25.5L.0,25.5L.0,.0z" fill="none"/>
            <text xml:space="preserve" style="fill:#191919;font-family:Microsoft YaHei;font-size:10.00pt">
                <tspan y="18.3" x="5.5">获得新假设</tspan>
            </text>
        </g>
        <g id="shape13" transform="translate(1417.00,1380.70)">
            <path stroke="#191919" d="M.0,.0L30.7,30.7" fill="none"/>
            <path stroke="#191919" stroke-linecap="round" d="M32.8,28.6L35.0,35.0L28.6,32.8L32.8,28.6" fill="#191919" stroke-width="1"/>
        </g>
        <g id="shape14" transform="translate(1496.48,1318.25)">
            <text xml:space="preserve" style="fill:#c00000;font-family:Microsoft YaHei;font-size:10.00pt">
                <tspan y="42.0" x="5.5">就像学习的过程一样, 犹如蛛网不断了解</tspan>
                <tspan y="61.0" x="6.0">到新的知识节点 (新的专业名词), 并弄清</tspan>
                <tspan y="80.0" x="38.0">楚每一个它们. 一口口消化掉</tspan>
            </text>
        </g>
    </g>
</svg>
