<svg id="图层_1" data-name="图层 1" xmlns="http://www.w3.org/2000/svg" viewBox="0 0 155.41 32.13"><defs><style>.cls-1{fill-rule:evenodd;}.cls-2,.cls-3,.cls-4{fill:none;stroke:#000;stroke-linecap:round;stroke-miterlimit:10;}.cls-2{stroke-width:0.38px;}.cls-3{stroke-width:0.22px;}.cls-4{stroke-width:0.13px;}</style></defs><path class="cls-1" d="M226.1,410.55a1.22,1.22,0,0,1-.09.46,1.36,1.36,0,0,1-.24.38,1.25,1.25,0,0,1-.37.28,1.3,1.3,0,0,1-.49.1,1.4,1.4,0,0,1-.41-.06,1.26,1.26,0,0,1-.38-.15,1.9,1.9,0,0,1-.33-.22,2.5,2.5,0,0,1-.29-.27l-.2-.22a2.34,2.34,0,0,1-.29.35,2,2,0,0,1-.36.29,1.74,1.74,0,0,1-.41.2,1.51,1.51,0,0,1-.48.08,1.2,1.2,0,0,1-.47-.1,1.21,1.21,0,0,1-.6-.66,1.22,1.22,0,0,1-.09-.46,1.13,1.13,0,0,1,.09-.45,1.28,1.28,0,0,1,.24-.39,1.13,1.13,0,0,1,.37-.28,1.3,1.3,0,0,1,.49-.1,1.63,1.63,0,0,1,.79.2,2.35,2.35,0,0,1,.62.5l.2.23a2.54,2.54,0,0,1,.29-.36,2,2,0,0,1,.36-.29,1.42,1.42,0,0,1,.41-.2,1.51,1.51,0,0,1,.48-.08,1.2,1.2,0,0,1,.47.1,1,1,0,0,1,.37.28,1.09,1.09,0,0,1,.23.39,1.13,1.13,0,0,1,.09.45Zm-.14,0a1.07,1.07,0,0,0-.27-.73,1,1,0,0,0-.31-.23.87.87,0,0,0-.4-.09,1.27,1.27,0,0,0-.44.08,1.65,1.65,0,0,0-.37.2,1.55,1.55,0,0,0-.33.3c-.1.11-.19.23-.28.35l.33.37.24.26a1.86,1.86,0,0,0,.26.23,1.12,1.12,0,0,0,.28.16.88.88,0,0,0,.33.06,1,1,0,0,0,.38-.08,1,1,0,0,0,.31-.21,1.21,1.21,0,0,0,.2-.3.94.94,0,0,0,.07-.37Zm-3.15-.25-.24-.26a1.38,1.38,0,0,0-.26-.23,1.18,1.18,0,0,0-.29-.16.79.79,0,0,0-.32-.06.81.81,0,0,0-.38.08,1,1,0,0,0-.31.21,1,1,0,0,0-.2.3.94.94,0,0,0-.07.37,1.09,1.09,0,0,0,.07.4,1.38,1.38,0,0,0,.2.33,1.19,1.19,0,0,0,.31.23.9.9,0,0,0,.4.08,1.21,1.21,0,0,0,.43-.07,1.52,1.52,0,0,0,.38-.2,2.35,2.35,0,0,0,.33-.3,2.48,2.48,0,0,0,.28-.36" transform="translate(-219 -404.46)"/><line class="cls-2" x1="27.56" y1="2.2" x2="22.27" y2="2.2"/><line class="cls-2" x1="22.27" y1="2.2" x2="17.17" y2="12.9"/><line class="cls-2" x1="17.17" y1="12.9" x2="15.31" y2="7.7"/><line class="cls-2" x1="15.31" y1="7.7" x2="14.35" y2="8.46"/><line class="cls-2" x1="14.35" y1="8.46" x2="14.35" y2="8.46"/><line class="cls-2" x1="14.35" y1="8.46" x2="15.7" y2="7.4"/><line class="cls-2" x1="15.7" y1="7.4" x2="17.46" y2="12.31"/><path class="cls-1" d="M241.08,406.66a.19.19,0,0,1,.19-.19.19.19,0,1,1,0,.38.19.19,0,0,1-.19-.19Z" transform="translate(-219 -404.46)"/><path class="cls-1" d="M236,417.37a.2.2,0,1,1,.19.19.2.2,0,0,1-.19-.19Z" transform="translate(-219 -404.46)"/><path class="cls-1" d="M234.51,411.86a.19.19,0,0,1,.19-.19.2.2,0,0,1,.19.19.19.19,0,0,1-.19.19.18.18,0,0,1-.19-.19Z" transform="translate(-219 -404.46)"/><polyline class="cls-1" points="15.7 7.4 17.45 12.31 17.17 12.9 15.31 7.7 15.7 7.4"/><path class="cls-1" d="M246.46,411.19a1.64,1.64,0,0,1-.36.69,4,4,0,0,1-.63.6,6.92,6.92,0,0,1-.77.52l-.79.44a4.12,4.12,0,0,0-.82.6,4.22,4.22,0,0,0-.63.78.61.61,0,0,1,.24,0,2.76,2.76,0,0,1,.51.05l.49.1.49.09a2,2,0,0,0,.5.05.85.85,0,0,0,.38-.09,1.23,1.23,0,0,0,.35-.26,1.5,1.5,0,0,0,.28-.37,2.26,2.26,0,0,0,.17-.43c0-.06,0-.09.13-.09h.1s.06,0,.08,0,0,0,0,0v0a4.21,4.21,0,0,1-.23.65,2.91,2.91,0,0,1-.36.59,1.67,1.67,0,0,1-.49.43,1.18,1.18,0,0,1-.58.16,1.12,1.12,0,0,1-.53-.12,4.41,4.41,0,0,1-.43-.25l-.42-.26a1,1,0,0,0-.5-.13.43.43,0,0,0-.31.19,1.48,1.48,0,0,0-.22.49c0,.05-.05.08-.13.08h-.1a.09.09,0,0,1-.07,0s0,0,0,0v0a3.79,3.79,0,0,1,.71-1.4,4,4,0,0,1,1.28-1.07,5.44,5.44,0,0,0,1.19-.87,2.44,2.44,0,0,0,.69-1.14,3.49,3.49,0,0,0,.15-.77v-.15a1.89,1.89,0,0,0-.08-.53,1.17,1.17,0,0,0-.32-.41.85.85,0,0,0-.5-.16,1.25,1.25,0,0,0-.65.18,2.26,2.26,0,0,0-.56.47,3.24,3.24,0,0,0-.44.67,5.77,5.77,0,0,0-.29.79,1.35,1.35,0,0,0,0,.37.61.61,0,0,0,0,.14c0,.14.09.21.22.2a.54.54,0,0,0,.32-.09,1.22,1.22,0,0,0,.26-.25,1.57,1.57,0,0,0,.22-.36c.06-.14.12-.29.17-.44a1,1,0,0,0,0-.16c0-.05,0-.09,0-.12a.81.81,0,0,0-.11-.27.07.07,0,0,1,0-.05s0-.05,0-.08l0,0,.08,0a.07.07,0,0,1,.06,0,.64.64,0,0,1,.16.43.84.84,0,0,1,0,.27,2.34,2.34,0,0,1-.18.48,2.69,2.69,0,0,1-.26.44,1.32,1.32,0,0,1-.35.32.89.89,0,0,1-.45.12.5.5,0,0,1-.29-.08.44.44,0,0,1-.15-.22.88.88,0,0,1-.06-.27s0,0,0,0a1.19,1.19,0,0,1,0-.32,4,4,0,0,1,.32-.85,3.34,3.34,0,0,1,.52-.75,2.41,2.41,0,0,1,.67-.53,1.62,1.62,0,0,1,.8-.21,1.54,1.54,0,0,1,.75.18,1.49,1.49,0,0,1,.54.49,1.68,1.68,0,0,1,.26.73,2.32,2.32,0,0,1,0,.24,2.1,2.1,0,0,1-.09.61" transform="translate(-219 -404.46)"/><path class="cls-1" d="M231.73,419.1c-4.32-2.86-4.32-9.87,0-12.74h.49c-4,2.87-4,9.88,0,12.74" transform="translate(-219 -404.46)"/><path class="cls-1" d="M248.09,406.36c4.31,2.87,4.31,9.88,0,12.74h-.49c4-2.86,4-9.87,0-12.74" transform="translate(-219 -404.46)"/><path class="cls-1" d="M220.05,420.85a2.5,2.5,0,0,0,2.36,1.66h10.84a2.25,2.25,0,0,1,2.1,1.47h.26a2.25,2.25,0,0,1,2.1-1.47h10.84a2.52,2.52,0,0,0,2.37-1.66l-.06-.2a2.25,2.25,0,0,1-2,1.29H237.71a2.24,2.24,0,0,0-2.1,1.46h-.26a2.24,2.24,0,0,0-2.1-1.46H222.13a2.26,2.26,0,0,1-2-1.29" transform="translate(-219 -404.46)"/><path class="cls-1" d="M223.36,424.63l.06,0a1.3,1.3,0,0,1,.48.34.19.19,0,0,1,0,.24.68.68,0,0,1-.19.19l-.13.06s-.06-.06,0-.18a1.38,1.38,0,0,0-.15-.61Zm-1.47,1h2.75l.46-.31.24.43h-1a8,8,0,0,1-1.09,1.3,4.62,4.62,0,0,1,.6.61.32.32,0,0,1,0,.42.59.59,0,0,1-.21.23c-.05,0-.09,0-.11-.18a3.46,3.46,0,0,0-.24-.45,4.28,4.28,0,0,0-.32-.44,7,7,0,0,1-2.11,1l0-.05a9,9,0,0,0,2-1.16,6.06,6.06,0,0,0-.79-.81l.07-.06a8.27,8.27,0,0,1,1,.69,5.61,5.61,0,0,0,.92-1.14h-1.52a2.15,2.15,0,0,0-.45.06Zm-.82-1,.06,0a2,2,0,0,1,.45.34.23.23,0,0,1,0,.29.51.51,0,0,1-.2.23c-.08,0-.13.07-.16.06s-.08-.06-.06-.19a1.35,1.35,0,0,0-.12-.69Zm-.54,3.36a1.11,1.11,0,0,0,.42.37,2.13,2.13,0,0,0,1,.21c.46,0,.9,0,1.31,0s.79,0,1.13-.06l0,.08c-.34.06-.54.17-.61.33-.66,0-1.2,0-1.62,0a3.38,3.38,0,0,1-1-.18,1.07,1.07,0,0,1-.52-.37.65.65,0,0,0-.27-.22c-.07,0-.22,0-.47.19a3.42,3.42,0,0,0-.51.39l-.22-.3a7.87,7.87,0,0,1,1.12-.43l.64-1.63h-.21a2.6,2.6,0,0,0-.56.06l-.14-.18h.91l.24-.21.29.25" transform="translate(-219 -404.46)"/><path class="cls-1" d="M226.51,429.15c.22-.53.37-.89.45-1.1l.51-1.3c.09-.23.19-.51.31-.84l.44.25-.23.12-.77,2c-.08.23-.17.46-.25.71Zm2.23-4.42-.25.12a2.73,2.73,0,0,0,.8,1.21,2.41,2.41,0,0,0,1.09.48l0,.07a1,1,0,0,0-.62.26,2.65,2.65,0,0,1-.86-.75,3.64,3.64,0,0,1-.5-1.15,9.34,9.34,0,0,1-1.6,1.25,8.36,8.36,0,0,1-1.89.83V427a8.17,8.17,0,0,0,3.46-2.48" transform="translate(-219 -404.46)"/><path class="cls-1" d="M232.7,426.36c.23-.48.44-.92.61-1.32h-1.23a2.76,2.76,0,0,0-.57.06l-.13-.17H235l.45-.3.32.41h-2.16c-.12.29-.33.73-.6,1.32h1.63l.52-.33.34.45h-2l-.77,2c-.05.17.05.25.29.24h.93a.51.51,0,0,0,.41-.23c.08-.14.2-.39.36-.76h.12c-.25.59-.25.89,0,.89a1.06,1.06,0,0,1-.93.33h-1.2c-.31,0-.43-.11-.34-.33l.82-2.1H233a5.27,5.27,0,0,1-1.33,1.6,6.81,6.81,0,0,1-2.29,1.05v-.08a6.76,6.76,0,0,0,2-1.07,5.38,5.38,0,0,0,1.23-1.5h-1.49a2.62,2.62,0,0,0-.57.06" transform="translate(-219 -404.46)"/><path class="cls-1" d="M238.44,425.89l-.3.74h1.59l.29-.74Zm-1.51,2.85a.61.61,0,0,0,.2-.28c.91-2.3,1.39-3.55,1.44-3.73l.25.18h1.56l.27-.22.25.28-.25.11c-.32.82-.53,1.38-.64,1.71l-.4.14.07-.18h-1a2.16,2.16,0,0,0,.06.94,7.27,7.27,0,0,0,1.29-.8l.22.35a5.44,5.44,0,0,0-1.49.55,1.31,1.31,0,0,0,.61.62,2,2,0,0,0,.6.19l0,.08a.89.89,0,0,0-.59.27,1.79,1.79,0,0,1-.73-.76,2.18,2.18,0,0,1-.08-1.44h-.45l-.7,1.79,1-.35,0,.05a4.79,4.79,0,0,0-1.32.81Zm-.12-2.52.84-1.22h-.79l-1.21,3.07c-.13.35-.25.67-.34.94l-.39.12c.15-.33.45-1.08.91-2.27s.74-1.89.82-2.13l.27.16h.77l.28-.18.19.26-.22.09-1,1.16a2,2,0,0,1,.28.54.91.91,0,0,1,0,.54,1,1,0,0,1-.3.5,1.39,1.39,0,0,1-.68.31c.07-.16,0-.3-.32-.42l0-.07a1.83,1.83,0,0,0,.46.05.45.45,0,0,0,.33-.08.67.67,0,0,0,.16-.25,2.64,2.64,0,0,0,.1-.37,1.48,1.48,0,0,0-.16-.75Zm2-1.2-.29.75h1.59" transform="translate(-219 -404.46)"/><path class="cls-1" d="M241.9,425.67l-.5,1.26h1.18l.49-1.26Zm-.54,1.38-.54,1.37H242l.54-1.37Zm2-1.26c-.6,1.53-1,2.53-1.15,3l-.38.16.16-.41h-1.18l-.13.33-.38.16c.26-.61.51-1.23.75-1.84s.47-1.21.68-1.81l.28.17h.22a6.07,6.07,0,0,0,.65-1l.41.24a3.71,3.71,0,0,0-.92.78h.74l.31-.19.22.29-.28.14Zm1.6-1.24.4.26a4.15,4.15,0,0,0-.89.8h1.23l.33-.21.23.29-.26.14a25.83,25.83,0,0,1-1.15,2.6,1.24,1.24,0,0,1-.39.42,2.31,2.31,0,0,1-.55.22c0-.21-.18-.37-.56-.47l0-.1a4.32,4.32,0,0,0,.77.1.52.52,0,0,0,.44-.33c.13-.23.49-1.07,1.1-2.54h-1.32a9.86,9.86,0,0,1-1.23,1l-.06,0a11.15,11.15,0,0,0,1.14-1.11,9,9,0,0,0,.73-1Zm-1.16,1.93a1.23,1.23,0,0,1,.43.52.58.58,0,0,1,0,.24.61.61,0,0,1-.18.24.4.4,0,0,1-.18.1c-.06,0-.07-.09,0-.28a1.34,1.34,0,0,0-.11-.76" transform="translate(-219 -404.46)"/><path class="cls-1" d="M248.18,427.73l-.32.83h1.49l.33-.83Zm-.12-2.45H249c.11-.3.2-.54.26-.73l.38.2-.19.12-.16.41h1.09c.1-.26.19-.5.25-.71l.42.2-.22.12-.16.39h.46l.36-.24.27.36h-1.13c0,.12-.1.27-.16.45l-.35.1.21-.55h-1.08l-.2.49-.36.12c.11-.24.2-.44.26-.61h-.2a2.62,2.62,0,0,0-.57.06Zm1.56.29.31.24-.25.12a2.14,2.14,0,0,0,1.51.94l0,.06a.84.84,0,0,0-.52.23,2.58,2.58,0,0,1-1.07-1.15,8.28,8.28,0,0,1-2.4,1.33l0-.06a8.91,8.91,0,0,0,1.35-.75,7,7,0,0,0,1.11-1ZM248.1,427h1.57l.33-.22.25.34h-1.49a2.62,2.62,0,0,0-.52.05Zm1.63,1.39c0,.12-.11.3-.19.55l-.38.1.15-.37h-1.5l-.11.29-.39.12c.12-.26.23-.52.33-.79s.21-.54.31-.84l.28.16h1.45l.22-.18.3.23-.23.12-.24.61Zm-2.33-3.24c0-.12.12-.32.22-.63l.42.2-.21.14-.41,1h.3l.3-.2.24.32h-.88l-.7,1.76.91-.23,0,.08a9.26,9.26,0,0,0-2.09.8l-.13-.35,1-.22.72-1.84H247a3.66,3.66,0,0,0-.57.05l-.13-.17" transform="translate(-219 -404.46)"/><path class="cls-1" d="M251.46,428.67a1.7,1.7,0,0,1-.3.56,2.29,2.29,0,0,1-.5.48h-.09l0,0a.09.09,0,0,1,0-.05,1.94,1.94,0,0,0,.47-.43,1.53,1.53,0,0,0,.27-.52l0-.08a.34.34,0,0,1-.12.06.41.41,0,0,1-.16,0,.24.24,0,0,1-.22-.09.27.27,0,0,1,0-.12.22.22,0,0,1,0-.08.41.41,0,0,1,.14-.19.4.4,0,0,1,.27-.09.29.29,0,0,1,.17.05.25.25,0,0,1,.08.14.41.41,0,0,1,0,.12v.05a1.2,1.2,0,0,1,0,.2" transform="translate(-219 -404.46)"/><path class="cls-1" d="M223.74,432.73c.1-.26.2-.52.28-.77l.43.22-.24.15-.15.4h.54l.43-.28.29.39H224l-.87,2.22h.68l.52-.33.34.45h-4.55a2.62,2.62,0,0,0-.57.06l-.13-.18H221l.87-2.22h-.5a2.62,2.62,0,0,0-.57.06l-.13-.17h1.24c.08-.21.18-.46.27-.75l.45.2-.23.11-.17.44Zm-1.59.11-.24.63h1.54l.24-.63Zm-.29.75-.25.65h1.54l.25-.65Zm-.3.77-.28.7h1.54l.28-.7Zm-.35.88.33.33a4.48,4.48,0,0,0-.93.4,8.36,8.36,0,0,1-1.59.58l0-.05a13.16,13.16,0,0,0,1.23-.59,4.14,4.14,0,0,0,1-.67Zm1.24.14.09-.06a4.1,4.1,0,0,1,1.18.68.39.39,0,0,1,0,.28.69.69,0,0,1-.12.18c-.05.06-.09.09-.13.09s-.11-.05-.18-.17a4.14,4.14,0,0,0-.85-1" transform="translate(-219 -404.46)"/><path class="cls-1" d="M225.59,435.57c-.18.46-.29.77-.34.93l-.37.09c.2-.47.33-.78.39-.94l.76-1.94a10.71,10.71,0,0,1-1.15.92l-.06,0a12.68,12.68,0,0,0,1.27-1.27,14.08,14.08,0,0,0,1-1.32l.38.25-.28.12c-.43.49-.72.81-.86,1l.22.14-.23.12-.77,2Zm2-2-.23.59h1.74l.23-.59Zm-.28.71-.23.59h1.75l.23-.59Zm-.28.7-.23.59h1.75l.23-.59Zm-.27.71-.23.59h1.74l.23-.59Zm1.76-2.92c.13-.3.23-.56.3-.77l.43.22-.22.11-.2.44h1l.4-.26.28.37h-1.74l-.25.57h.79l.28-.19.25.25-.25.12-1,2.65h.2l.39-.26.29.38h-3.35a2.62,2.62,0,0,0-.57.06l-.14-.18h.84l.86-2.18c.06-.16.16-.42.29-.8l.26.15h.58l.25-.57h-.68a2.76,2.76,0,0,0-.57.06" transform="translate(-219 -404.46)"/><path class="cls-1" d="M233.37,433.26a3.31,3.31,0,0,0,0,1.88,8.79,8.79,0,0,0,1.33-1.88Zm.58-1.32.47.24-.26.09-.75.87h1.75l.39-.26.29.38h-.75a10.88,10.88,0,0,1-1.56,2.12,1.6,1.6,0,0,0,1.27.76l0,.08a.92.92,0,0,0-.62.28,2.39,2.39,0,0,1-.89-.93,8.22,8.22,0,0,1-2.11,1l0-.05a8.85,8.85,0,0,0,2-1.12,3.79,3.79,0,0,1,.11-2.09,8.91,8.91,0,0,1-1.17,1.14l-.05,0a13.23,13.23,0,0,0,1.91-2.45Zm-3.7,2.91.47-1.2c.1-.26.2-.53.29-.81l.44.22-.26.14L230.5,435l.86-.23c.54-1.38.9-2.3,1.07-2.77l.43.22-.26.15L231,436.44l-.38.15c.22-.53.46-1.12.71-1.76a4,4,0,0,0-1.14.61l-.13-.3a.44.44,0,0,0,.2-.29" transform="translate(-219 -404.46)"/><path class="cls-1" d="M238.25,432.23a1.36,1.36,0,0,0-.38.24,3.47,3.47,0,0,1,.71.43.24.24,0,0,1,0,.28,1,1,0,0,1-.11.18c-.06.08-.11.11-.14.11s-.08-.08-.11-.23a1.55,1.55,0,0,0-.48-.69,9.92,9.92,0,0,1-2.25,1.59l0-.06a9.09,9.09,0,0,0,2.37-2.1Zm-1.87,1.5h1.31l.34-.22.25.33H237a3.73,3.73,0,0,0-.52.06Zm-.49.66a1.59,1.59,0,0,1,.31.55.51.51,0,0,1,0,.28.56.56,0,0,1-.2.24.54.54,0,0,1-.16.09c-.06,0-.06-.09,0-.29a1.94,1.94,0,0,0,0-.83Zm.78-.19.08,0a1.6,1.6,0,0,1,.25.67,1.18,1.18,0,0,1,0,.19.47.47,0,0,1-.21.25l-.17.09q-.09,0,0-.24a2.82,2.82,0,0,0,.09-.92Zm1.3.31a11.49,11.49,0,0,1-1.12,1.18l.89-.12v.08c-1.28.25-2.14.43-2.59.55l-.23.12-.07-.39,1.87-.22a9.44,9.44,0,0,0,1.11-1.55l.4.25-.25.1Zm2-2.22-.72.85h1.25l.36-.24.27.36h-.61a8.63,8.63,0,0,1-1.45,2.08,1.22,1.22,0,0,0,.88.88l0,.08a.84.84,0,0,0-.58.2,2.39,2.39,0,0,1-.54-1,6.89,6.89,0,0,1-2.68,1.06l0-.06a7,7,0,0,0,2.63-1.21,5.43,5.43,0,0,1,.36-1.95,6.48,6.48,0,0,1-.91.87l0,0a12.29,12.29,0,0,0,1.64-2.22l.42.25-.21.08Zm-.76,1a4.94,4.94,0,0,0-.22,1.82,9.44,9.44,0,0,0,1.21-1.82" transform="translate(-219 -404.46)"/><path class="cls-1" d="M241.52,435.93a5.66,5.66,0,0,0,.72.08.33.33,0,0,0,.32-.26l.68-1.73h-1.65a2.62,2.62,0,0,0-.57.06l-.13-.18h2.4l.54-1.37h-1a2.62,2.62,0,0,0-.57.06l-.14-.18h3l.42-.27.3.39h-1.76l-.54,1.37h1.54l.48-.31.33.43h-2.4l-.74,1.89a1,1,0,0,1-.77.59c.07-.2-.12-.36-.59-.48" transform="translate(-219 -404.46)"/><path class="cls-1" d="M248.35,433.64a.88.88,0,0,1-.23.39,2,2,0,0,1-.41.34,4,4,0,0,1-.49.3l-.5.25a2.56,2.56,0,0,0-.53.35,2.07,2.07,0,0,0-.4.44l.15,0a1.84,1.84,0,0,1,.33,0l.31,0,.31.06a1.76,1.76,0,0,0,.33,0,.53.53,0,0,0,.24-.06.74.74,0,0,0,.22-.14,1,1,0,0,0,.18-.22,1.12,1.12,0,0,0,.11-.25s0,0,.08-.05h.07l0,0v0h0a2.5,2.5,0,0,1-.15.38,1.85,1.85,0,0,1-.23.34,1,1,0,0,1-.31.24.82.82,0,0,1-.38.09.84.84,0,0,1-.33-.06l-.28-.15-.27-.15a.76.76,0,0,0-.32-.07.26.26,0,0,0-.19.11.58.58,0,0,0-.14.27s0,.05-.09.05h-.11s0,0,0,0v0a2,2,0,0,1,.45-.79,2.41,2.41,0,0,1,.82-.61,3.7,3.7,0,0,0,.76-.5,1.42,1.42,0,0,0,.44-.65,2.51,2.51,0,0,0,.1-.44v-.09a.8.8,0,0,0-.06-.3.56.56,0,0,0-.52-.32.87.87,0,0,0-.42.1,1.23,1.23,0,0,0-.35.26,1.84,1.84,0,0,0-.28.39,2.25,2.25,0,0,0-.19.45.88.88,0,0,0,0,.21.19.19,0,0,0,0,.08.12.12,0,0,0,.13.12.37.37,0,0,0,.21-.06.55.55,0,0,0,.17-.14,1.1,1.1,0,0,0,.14-.21,1.86,1.86,0,0,0,.1-.25.29.29,0,0,0,0-.09s0-.05,0-.07a.34.34,0,0,0-.07-.15v0a.05.05,0,0,1,0,0v0l.06,0,0,0a.36.36,0,0,1,.1.25.77.77,0,0,1,0,.15,1.69,1.69,0,0,1-.12.28,1.38,1.38,0,0,1-.17.25.65.65,0,0,1-.22.18.57.57,0,0,1-.29.07.32.32,0,0,1-.18,0,.31.31,0,0,1-.1-.13.41.41,0,0,1,0-.16v0a.57.57,0,0,1,0-.18,2.33,2.33,0,0,1,.21-.49,2,2,0,0,1,.33-.43,1.84,1.84,0,0,1,.43-.3,1.13,1.13,0,0,1,.51-.12,1.06,1.06,0,0,1,.48.11.93.93,0,0,1,.34.27,1,1,0,0,1,.17.42.71.71,0,0,1,0,.14,1.06,1.06,0,0,1-.05.35" transform="translate(-219 -404.46)"/><line class="cls-2" x1="36.99" y1="7.26" x2="43.71" y2="7.26"/><line class="cls-2" x1="36.99" y1="9.28" x2="43.71" y2="9.28"/><path class="cls-1" d="M270.26,415.56l-1.11,0-1.1,0v-.29h.36a.74.74,0,0,0,.29-.06.18.18,0,0,0,.1-.12.88.88,0,0,0,0-.16v-5.09a2,2,0,0,0,0-.25.29.29,0,0,0-.11-.2.56.56,0,0,0-.29-.08h-.36V409l1.43-.1v6a.45.45,0,0,0,0,.16.18.18,0,0,0,.1.12.7.7,0,0,0,.29.06h.36" transform="translate(-219 -404.46)"/><path class="cls-1" d="M272.19,409.64a.49.49,0,0,1-.15.36.51.51,0,0,1-.37.15.5.5,0,0,1-.37-.15.51.51,0,0,1,0-.72.5.5,0,0,1,.37-.15.51.51,0,0,1,.37.15.49.49,0,0,1,.15.36Zm.66,5.92c-.36,0-.71,0-1.07,0l-1.06,0v-.29h.36a.65.65,0,0,0,.28-.06.17.17,0,0,0,.11-.12.88.88,0,0,0,0-.16v-2.66a2.17,2.17,0,0,0,0-.26.31.31,0,0,0-.11-.19.48.48,0,0,0-.27-.08h-.34v-.3l1.39-.1v3.6a.88.88,0,0,0,0,.16.14.14,0,0,0,.09.12.59.59,0,0,0,.26.06h.33" transform="translate(-219 -404.46)"/><path class="cls-1" d="M281.08,415.56c-.36,0-.73,0-1.1,0l-1.12,0v-.29h.36a.65.65,0,0,0,.28-.06.19.19,0,0,0,.11-.12.88.88,0,0,0,0-.16v-2.29a3.19,3.19,0,0,0,0-.45.92.92,0,0,0-.15-.4.37.37,0,0,0-.21-.18.81.81,0,0,0-.31-.06,1.18,1.18,0,0,0-.53.12,1.38,1.38,0,0,0-.43.32,1.47,1.47,0,0,0-.28.47,1.56,1.56,0,0,0-.1.57v1.9a.44.44,0,0,0,0,.16.17.17,0,0,0,.11.12.61.61,0,0,0,.28.06h.36v.29l-1.12,0q-.57,0-1.11,0v-.29h.36a.65.65,0,0,0,.28-.06.14.14,0,0,0,.1-.12.44.44,0,0,0,0-.16v-2.29a3.24,3.24,0,0,0,0-.45.92.92,0,0,0-.15-.4.42.42,0,0,0-.22-.18.78.78,0,0,0-.31-.06,1.18,1.18,0,0,0-.53.12,1.38,1.38,0,0,0-.43.32,1.47,1.47,0,0,0-.28.47,1.56,1.56,0,0,0-.1.57v1.9a.88.88,0,0,0,0,.16.18.18,0,0,0,.1.12.7.7,0,0,0,.29.06h.36v.29h-.41l-.41,0h-.3c-.38,0-.74,0-1.1,0v-.29h.35a.74.74,0,0,0,.29-.06.18.18,0,0,0,.1-.12.88.88,0,0,0,0-.16v-2.66a2.17,2.17,0,0,0,0-.26.31.31,0,0,0-.11-.19.56.56,0,0,0-.29-.08h-.35v-.3l.78-.05.61-.05v1a1.72,1.72,0,0,1,.56-.72,1.35,1.35,0,0,1,.87-.28,2.48,2.48,0,0,1,.54.06,1,1,0,0,1,.7.56,1.7,1.7,0,0,1,.1.32,1.66,1.66,0,0,1,.55-.68,1.42,1.42,0,0,1,.84-.26,2.64,2.64,0,0,1,.55.06,1,1,0,0,1,.49.26.94.94,0,0,1,.27.47,2.37,2.37,0,0,1,.06.52v2.29a.45.45,0,0,0,0,.16.15.15,0,0,0,.1.12.7.7,0,0,0,.29.06h.34" transform="translate(-219 -404.46)"/><path class="cls-1" d="M269.6,419.31a.28.28,0,0,1-.12.16.49.49,0,0,1-.19,0,.3.3,0,0,1-.16,0,.15.15,0,0,1,0-.1.13.13,0,0,1,0-.06.24.24,0,0,1,.1-.14.33.33,0,0,1,.13-.07A.5.5,0,0,0,269,419a.38.38,0,0,0-.31.16,1,1,0,0,0-.19.36l-.28,1a1.57,1.57,0,0,0-.06.28.31.31,0,0,0,0,.08.42.42,0,0,0,0,.16.24.24,0,0,0,.1.14.2.2,0,0,0,.17,0,.43.43,0,0,0,.25,0A.83.83,0,0,0,269,421a1,1,0,0,0,.17-.23,1.59,1.59,0,0,0,.12-.27.07.07,0,0,1,.07-.05h.07s.05,0,.05,0v0a1.41,1.41,0,0,1-.14.31,1.12,1.12,0,0,1-.22.26,1.07,1.07,0,0,1-.28.19.8.8,0,0,1-.33.08.71.71,0,0,1-.31-.07.63.63,0,0,1-.21-.18l0-.06,0-.06a1.07,1.07,0,0,1-.26.26.58.58,0,0,1-.34.11.78.78,0,0,1-.22,0,.54.54,0,0,1-.19-.08.25.25,0,0,1-.11-.12.15.15,0,0,1,0-.09.28.28,0,0,1,.13-.25.36.36,0,0,1,.19,0,.22.22,0,0,1,.16,0,.12.12,0,0,1,0,.1.13.13,0,0,1,0,.06.19.19,0,0,1-.09.14.37.37,0,0,1-.14.07.45.45,0,0,0,.3.07.37.37,0,0,0,.3-.15.91.91,0,0,0,.2-.36l.28-1a1.31,1.31,0,0,0,.06-.27.25.25,0,0,0,0-.08.41.41,0,0,0,0-.16.24.24,0,0,0-.1-.14.28.28,0,0,0-.18-.06.54.54,0,0,0-.25.06.65.65,0,0,0-.21.16.92.92,0,0,0-.17.22,1,1,0,0,0-.11.27.1.1,0,0,1-.09.06H267a0,0,0,0,1,0,0v0a1,1,0,0,1,.13-.3,1.44,1.44,0,0,1,.22-.27,1.07,1.07,0,0,1,.28-.19.8.8,0,0,1,.34-.07.6.6,0,0,1,.3.07.55.55,0,0,1,.22.18l0,.06,0,.06a1.07,1.07,0,0,1,.26-.26.58.58,0,0,1,.34-.11l.22,0a.47.47,0,0,1,.19.08.27.27,0,0,1,.13.22.28.28,0,0,1,0,.09" transform="translate(-219 -404.46)"/><path class="cls-1" d="M270.76,419.67a.12.12,0,0,1,.07-.11h4.24a2.11,2.11,0,0,1-.61-.69,1.73,1.73,0,0,1-.18-.51v0s0-.06.11-.06.11,0,.12.08a.9.9,0,0,0,.06.22,1.59,1.59,0,0,0,1.06,1.05s.05,0,.05.06,0,.05-.05.06a1.6,1.6,0,0,0-1.06,1l-.06.22c0,.05-.05.08-.12.08s-.11,0-.11-.06l0-.13a2,2,0,0,1,.77-1.11h-4.24a.1.1,0,0,1-.07-.1" transform="translate(-219 -404.46)"/><path class="cls-1" d="M282.61,420.12a1.42,1.42,0,0,1-.08.45,1.58,1.58,0,0,1-.24.39,1.31,1.31,0,0,1-.38.27,1.06,1.06,0,0,1-.48.1,1.93,1.93,0,0,1-.42-.05,2.39,2.39,0,0,1-.37-.15,2.54,2.54,0,0,1-.34-.23,1.79,1.79,0,0,1-.28-.27l-.2-.22a2.52,2.52,0,0,1-.3.35,2,2,0,0,1-.35.3,1.92,1.92,0,0,1-.41.19,1.27,1.27,0,0,1-.48.08,1,1,0,0,1-.47-.1,1.14,1.14,0,0,1-.37-.27,1.58,1.58,0,0,1-.24-.39,1.42,1.42,0,0,1-.08-.45,1.22,1.22,0,0,1,.09-.46,1.28,1.28,0,0,1,.24-.39,1.26,1.26,0,0,1,.37-.27,1.14,1.14,0,0,1,.49-.11,1.56,1.56,0,0,1,.79.21,2.32,2.32,0,0,1,.62.49l.2.23a2.16,2.16,0,0,1,.65-.65,1.74,1.74,0,0,1,.41-.2,1.45,1.45,0,0,1,.47-.08,1.06,1.06,0,0,1,.48.11,1.41,1.41,0,0,1,.37.27,1.26,1.26,0,0,1,.23.39,1.21,1.21,0,0,1,.08.46Zm-.13,0a1.41,1.41,0,0,0-.07-.41,1,1,0,0,0-.21-.33,1,1,0,0,0-.31-.23.85.85,0,0,0-.39-.08,1.27,1.27,0,0,0-.44.07,2,2,0,0,0-.38.2q-.17.14-.33.3a2.42,2.42,0,0,0-.27.36l.33.37.24.26a1.78,1.78,0,0,0,.26.22,1,1,0,0,0,.28.16.88.88,0,0,0,.33.06.84.84,0,0,0,.38-.08.81.81,0,0,0,.3-.21.9.9,0,0,0,.21-.3,1.15,1.15,0,0,0,.07-.36Zm-3.15-.26-.25-.26a1.79,1.79,0,0,0-.25-.23,1.18,1.18,0,0,0-.29-.16.87.87,0,0,0-.32-.06.92.92,0,0,0-.38.08,1,1,0,0,0-.31.21.92.92,0,0,0-.2.31.9.9,0,0,0-.07.37,1,1,0,0,0,.07.39.91.91,0,0,0,.2.33,1,1,0,0,0,.31.23.87.87,0,0,0,.4.09,1.26,1.26,0,0,0,.43-.08,1.38,1.38,0,0,0,.38-.2,1.55,1.55,0,0,0,.33-.3c.1-.11.19-.23.28-.35" transform="translate(-219 -404.46)"/><path class="cls-1" d="M287.46,409.74a.25.25,0,0,1-.13.17.41.41,0,0,1-.18,0,.25.25,0,0,1-.16,0,.13.13,0,0,1,0-.1.2.2,0,0,1,0-.07.34.34,0,0,1,.09-.14.42.42,0,0,1,.14-.06.51.51,0,0,0-.3-.08.4.4,0,0,0-.3.15,1,1,0,0,0-.19.36l-.28,1c0,.09-.05.19-.07.27s0,.06,0,.09a.29.29,0,0,0,0,.16.34.34,0,0,0,.09.14.35.35,0,0,0,.18,0,.57.57,0,0,0,.25-.06.8.8,0,0,0,.21-.15,2,2,0,0,0,.17-.23,1.59,1.59,0,0,0,.12-.27.07.07,0,0,1,.07-.05h.07s.05,0,.05,0v0a1,1,0,0,1-.13.3,2,2,0,0,1-.22.27,1.07,1.07,0,0,1-.28.19.8.8,0,0,1-.34.07.58.58,0,0,1-.3-.07.55.55,0,0,1-.22-.18l0,0s0,0,0-.06a1.07,1.07,0,0,1-.26.26.6.6,0,0,1-.35.1l-.21,0a.47.47,0,0,1-.19-.08.34.34,0,0,1-.12-.12.31.31,0,0,1,0-.1.28.28,0,0,1,.13-.24.35.35,0,0,1,.19-.06.23.23,0,0,1,.16.06.1.1,0,0,1,0,.09.17.17,0,0,1,0,.07.27.27,0,0,1-.24.2.48.48,0,0,0,.3.08.4.4,0,0,0,.31-.15,1,1,0,0,0,.19-.37l.29-1a2.61,2.61,0,0,0,.06-.27.28.28,0,0,0,0-.09.39.39,0,0,0-.13-.3.35.35,0,0,0-.18-.05.54.54,0,0,0-.25.06.65.65,0,0,0-.21.16,1,1,0,0,0-.18.22c0,.09-.08.18-.11.27a.08.08,0,0,1-.08.05h-.06s-.05,0-.05,0h0a1.41,1.41,0,0,1,.14-.31.92.92,0,0,1,.22-.26,1.07,1.07,0,0,1,.28-.19.8.8,0,0,1,.34-.07.73.73,0,0,1,.3.06.79.79,0,0,1,.22.18l0,.06,0,.07a1.11,1.11,0,0,1,.26-.27.57.57,0,0,1,.34-.1.82.82,0,0,1,.22,0,.54.54,0,0,1,.19.08.25.25,0,0,1,.11.12.3.3,0,0,1,0,.1s0,0,0,.08" transform="translate(-219 -404.46)"/><line class="cls-2" x1="88.78" y1="2.2" x2="83.5" y2="2.2"/><line class="cls-2" x1="83.5" y1="2.2" x2="78.4" y2="12.9"/><line class="cls-2" x1="78.4" y1="12.9" x2="76.54" y2="7.7"/><line class="cls-2" x1="76.54" y1="7.7" x2="75.58" y2="8.46"/><line class="cls-2" x1="75.58" y1="8.46" x2="75.58" y2="8.46"/><line class="cls-2" x1="75.58" y1="8.46" x2="76.93" y2="7.4"/><line class="cls-2" x1="76.93" y1="7.4" x2="78.68" y2="12.31"/><path class="cls-1" d="M302.31,406.66a.19.19,0,0,1,.19-.19.19.19,0,1,1,0,.38.19.19,0,0,1-.19-.19Z" transform="translate(-219 -404.46)"/><path class="cls-1" d="M297.21,417.37a.2.2,0,1,1,.19.19.2.2,0,0,1-.19-.19Z" transform="translate(-219 -404.46)"/><path class="cls-1" d="M295.74,411.86a.19.19,0,0,1,.19-.19.2.2,0,0,1,.19.19.19.19,0,0,1-.19.19.18.18,0,0,1-.19-.19Z" transform="translate(-219 -404.46)"/><polyline class="cls-1" points="76.93 7.4 78.69 12.31 78.4 12.9 76.54 7.7 76.93 7.4"/><path class="cls-1" d="M307.69,411.19a1.64,1.64,0,0,1-.36.69,4,4,0,0,1-.63.6,6.22,6.22,0,0,1-.78.52l-.78.44a3.85,3.85,0,0,0-.82.6,4.22,4.22,0,0,0-.63.78.57.57,0,0,1,.24,0,2.76,2.76,0,0,1,.51.05l.49.1.49.09a2,2,0,0,0,.5.05.85.85,0,0,0,.38-.09,1.23,1.23,0,0,0,.35-.26,1.5,1.5,0,0,0,.28-.37,2.26,2.26,0,0,0,.17-.43c0-.06,0-.09.13-.09h.1s.06,0,.08,0,0,0,0,0v0a4.21,4.21,0,0,1-.23.65,2.91,2.91,0,0,1-.36.59,1.67,1.67,0,0,1-.49.43,1.18,1.18,0,0,1-.59.16,1.11,1.11,0,0,1-.52-.12,4.6,4.6,0,0,1-.44-.25l-.41-.26a1,1,0,0,0-.5-.13.43.43,0,0,0-.31.19,1.48,1.48,0,0,0-.22.49c0,.05,0,.08-.13.08h-.1a.08.08,0,0,1-.07,0s0,0,0,0v0a3.79,3.79,0,0,1,.71-1.4A4,4,0,0,1,305,413.2a5.44,5.44,0,0,0,1.19-.87,2.44,2.44,0,0,0,.69-1.14,3.49,3.49,0,0,0,.15-.77v-.15a1.89,1.89,0,0,0-.08-.53,1.17,1.17,0,0,0-.32-.41.85.85,0,0,0-.5-.16,1.25,1.25,0,0,0-.65.18,2.26,2.26,0,0,0-.56.47,2.88,2.88,0,0,0-.44.67,4.69,4.69,0,0,0-.29.79,1.35,1.35,0,0,0,0,.37.61.61,0,0,0,0,.14c0,.14.09.21.22.2a.54.54,0,0,0,.32-.09,1.22,1.22,0,0,0,.26-.25,2,2,0,0,0,.22-.36c.06-.14.12-.29.17-.44a1,1,0,0,0,0-.16c0-.05,0-.09,0-.12a.81.81,0,0,0-.11-.27.07.07,0,0,1,0-.05s0-.05.05-.08l0,0,.08,0a.07.07,0,0,1,.06,0,.64.64,0,0,1,.16.43,1.26,1.26,0,0,1,0,.27,3.12,3.12,0,0,1-.18.48,2.69,2.69,0,0,1-.26.44,1.22,1.22,0,0,1-.36.32.83.83,0,0,1-.44.12.5.5,0,0,1-.29-.08.52.52,0,0,1-.16-.22,1.28,1.28,0,0,1-.05-.27s0,0,0,0a1.75,1.75,0,0,1,0-.32,4.66,4.66,0,0,1,.33-.85,3.3,3.3,0,0,1,.51-.75,2.61,2.61,0,0,1,.68-.53,1.59,1.59,0,0,1,.8-.21,1.54,1.54,0,0,1,.75.18,1.49,1.49,0,0,1,.54.49,1.68,1.68,0,0,1,.26.73,2.32,2.32,0,0,1,0,.24,2.1,2.1,0,0,1-.09.61" transform="translate(-219 -404.46)"/><path class="cls-1" d="M293,419.1c-4.32-2.86-4.32-9.87,0-12.74h.49c-4,2.87-4,9.88,0,12.74" transform="translate(-219 -404.46)"/><path class="cls-1" d="M309.32,406.36c4.31,2.87,4.31,9.88,0,12.74h-.5c4-2.86,4-9.87,0-12.74" transform="translate(-219 -404.46)"/><line class="cls-2" x1="98" y1="7.26" x2="104.72" y2="7.26"/><line class="cls-2" x1="98" y1="9.28" x2="104.72" y2="9.28"/><line class="cls-2" x1="121.28" y1="2.2" x2="116" y2="2.2"/><line class="cls-2" x1="116" y1="2.2" x2="110.9" y2="12.9"/><line class="cls-2" x1="110.9" y1="12.9" x2="109.04" y2="7.7"/><line class="cls-2" x1="109.04" y1="7.7" x2="108.08" y2="8.46"/><line class="cls-2" x1="108.08" y1="8.46" x2="108.08" y2="8.46"/><line class="cls-2" x1="108.08" y1="8.46" x2="109.42" y2="7.4"/><line class="cls-2" x1="109.42" y1="7.4" x2="111.18" y2="12.31"/><path class="cls-1" d="M334.81,406.66a.19.19,0,1,1,.19.19.18.18,0,0,1-.19-.19Z" transform="translate(-219 -404.46)"/><path class="cls-1" d="M329.71,417.37a.19.19,0,1,1,.38,0,.19.19,0,0,1-.38,0Z" transform="translate(-219 -404.46)"/><path class="cls-1" d="M328.23,411.86a.2.2,0,0,1,.19-.19.2.2,0,0,1,.2.19.19.19,0,0,1-.2.19.19.19,0,0,1-.19-.19Z" transform="translate(-219 -404.46)"/><polyline class="cls-1" points="109.42 7.4 111.18 12.31 110.9 12.9 109.04 7.7 109.42 7.4"/><path class="cls-1" d="M340.19,411.19a1.64,1.64,0,0,1-.36.69,4,4,0,0,1-.63.6,7,7,0,0,1-.78.52l-.78.44a3.71,3.71,0,0,0-1.45,1.38.55.55,0,0,1,.24,0,2.94,2.94,0,0,1,.51.05l.49.1.49.09a2,2,0,0,0,.5.05.88.88,0,0,0,.38-.09,1.38,1.38,0,0,0,.35-.26,1.47,1.47,0,0,0,.27-.37,1.78,1.78,0,0,0,.18-.43.1.1,0,0,1,.12-.09h.11a.11.11,0,0,1,.08,0s0,0,0,0a0,0,0,0,0,0,0,5.61,5.61,0,0,1-.23.65,2.91,2.91,0,0,1-.36.59,2,2,0,0,1-.49.43,1.21,1.21,0,0,1-.59.16,1.15,1.15,0,0,1-.53-.12l-.43-.25-.41-.26a1,1,0,0,0-.5-.13.43.43,0,0,0-.31.19,1.3,1.3,0,0,0-.22.49c0,.05-.06.08-.13.08h-.1a.08.08,0,0,1-.07,0s0,0,0,0v0a3.65,3.65,0,0,1,.71-1.4,4,4,0,0,1,1.27-1.07,5.27,5.27,0,0,0,1.2-.87,2.44,2.44,0,0,0,.69-1.14,5.23,5.23,0,0,0,.15-.77v-.15a1.6,1.6,0,0,0-.09-.53,1.14,1.14,0,0,0-.31-.41.85.85,0,0,0-.5-.16,1.31,1.31,0,0,0-.66.18,2.22,2.22,0,0,0-.55.47,2.88,2.88,0,0,0-.44.67,4.69,4.69,0,0,0-.29.79,1.41,1.41,0,0,0-.06.37.59.59,0,0,0,0,.14c0,.14.09.21.21.2a.5.5,0,0,0,.32-.09,1.06,1.06,0,0,0,.27-.25,2,2,0,0,0,.22-.36,3.29,3.29,0,0,0,.16-.44.47.47,0,0,0,0-.16.41.41,0,0,0,0-.12.64.64,0,0,0-.11-.27v-.05a.1.1,0,0,1,0-.08l0,0,.08,0a.07.07,0,0,1,.06,0,.68.68,0,0,1,.15.43,1.24,1.24,0,0,1,0,.27,4.68,4.68,0,0,1-.18.48,2.72,2.72,0,0,1-.27.44,1.19,1.19,0,0,1-.35.32.83.83,0,0,1-.44.12.48.48,0,0,1-.29-.08.45.45,0,0,1-.16-.22.86.86,0,0,1-.05-.27s0,0,0,0a1.17,1.17,0,0,1,0-.32,4.66,4.66,0,0,1,.33-.85,3.3,3.3,0,0,1,.51-.75,2.45,2.45,0,0,1,.68-.53,1.59,1.59,0,0,1,.8-.21,1.54,1.54,0,0,1,.75.18,1.39,1.39,0,0,1,.53.49,1.84,1.84,0,0,1,.27.73,2.32,2.32,0,0,1,0,.24,2.1,2.1,0,0,1-.09.61" transform="translate(-219 -404.46)"/><line class="cls-3" x1="130.37" y1="2.04" x2="127.14" y2="2.04"/><line class="cls-3" x1="127.14" y1="2.04" x2="124.28" y2="8.04"/><line class="cls-3" x1="124.28" y1="8.04" x2="123.24" y2="5.13"/><line class="cls-3" x1="123.24" y1="5.13" x2="122.7" y2="5.55"/><line class="cls-3" x1="122.7" y1="5.55" x2="122.7" y2="5.55"/><line class="cls-3" x1="122.7" y1="5.55" x2="123.46" y2="4.96"/><line class="cls-3" x1="123.46" y1="4.96" x2="124.44" y2="7.71"/><path class="cls-1" d="M346,406.51a.11.11,0,1,1,.11.11.11.11,0,0,1-.11-.11Z" transform="translate(-219 -404.46)"/><path class="cls-1" d="M343.17,412.5a.11.11,0,0,1,.22,0,.11.11,0,1,1-.22,0Z" transform="translate(-219 -404.46)"/><path class="cls-1" d="M342.35,409.42a.11.11,0,0,1,.11-.11.11.11,0,0,1,0,.22.11.11,0,0,1-.11-.11Z" transform="translate(-219 -404.46)"/><polyline class="cls-1" points="123.45 4.96 124.44 7.71 124.28 8.04 123.24 5.13 123.45 4.96"/><path class="cls-1" d="M349.46,409a1,1,0,0,1-.23.4,2.85,2.85,0,0,1-.41.34c-.15.1-.32.2-.49.29l-.5.26a2.4,2.4,0,0,0-.53.34,1.9,1.9,0,0,0-.4.45.33.33,0,0,1,.15,0,1.76,1.76,0,0,1,.33,0l.31.06.32.05a1.58,1.58,0,0,0,.32,0,.69.69,0,0,0,.24-.05,1.07,1.07,0,0,0,.22-.15.94.94,0,0,0,.29-.46.08.08,0,0,1,.08-.05h.12s0,0,0,0v0a2.87,2.87,0,0,1-.15.37,1.36,1.36,0,0,1-.23.34,1,1,0,0,1-.31.24.83.83,0,0,1-.38.1.84.84,0,0,1-.33-.07,2.49,2.49,0,0,1-.28-.15l-.27-.14a.62.62,0,0,0-.31-.08.26.26,0,0,0-.2.11.74.74,0,0,0-.14.28s0,.05-.09.05h-.06l0,0s0,0,0,0h0a2,2,0,0,1,.45-.8,2.66,2.66,0,0,1,.82-.61,3.33,3.33,0,0,0,.76-.5A1.48,1.48,0,0,0,349,409a3.43,3.43,0,0,0,.09-.44v-.08a1.06,1.06,0,0,0-.05-.31.66.66,0,0,0-.21-.23.55.55,0,0,0-.32-.09.86.86,0,0,0-.41.1,1.54,1.54,0,0,0-.36.27,1.78,1.78,0,0,0-.28.38,2.88,2.88,0,0,0-.19.45,1,1,0,0,0,0,.22.17.17,0,0,0,0,.07.13.13,0,0,0,.14.12.46.46,0,0,0,.2-.05.8.8,0,0,0,.17-.15,1,1,0,0,0,.14-.2,2,2,0,0,0,.11-.26s0-.06,0-.09a.2.2,0,0,0,0-.07.34.34,0,0,0-.07-.15v0a.05.05,0,0,1,0-.05h0l.06,0s0,0,0,0a.33.33,0,0,1,.1.24.61.61,0,0,1,0,.15,1.39,1.39,0,0,1-.12.28,1.53,1.53,0,0,1-.16.25.66.66,0,0,1-.23.18.57.57,0,0,1-.29.07.32.32,0,0,1-.18,0,.22.22,0,0,1-.1-.13.4.4,0,0,1,0-.15v0a.57.57,0,0,1,0-.18,2.5,2.5,0,0,1,.21-.48,1.76,1.76,0,0,1,.33-.43,1.62,1.62,0,0,1,.43-.31,1.26,1.26,0,0,1,.51-.11,1.06,1.06,0,0,1,.48.1.86.86,0,0,1,.34.28.78.78,0,0,1,.17.42.69.69,0,0,1,0,.13,1,1,0,0,1-.06.35" transform="translate(-219 -404.46)"/><line class="cls-4" x1="135.7" y1="1.72" x2="133.81" y2="1.72"/><line class="cls-4" x1="133.81" y1="1.72" x2="132.11" y2="5.29"/><line class="cls-4" x1="132.11" y1="5.29" x2="131.49" y2="3.55"/><line class="cls-4" x1="131.49" y1="3.55" x2="131.17" y2="3.81"/><line class="cls-4" x1="131.17" y1="3.81" x2="131.17" y2="3.81"/><line class="cls-4" x1="131.17" y1="3.81" x2="131.62" y2="3.45"/><line class="cls-4" x1="131.62" y1="3.45" x2="132.21" y2="5.09"/><path class="cls-1" d="M352.75,406.18a.06.06,0,0,1,.06-.06.07.07,0,0,1,.07.06.07.07,0,0,1-.07.07.07.07,0,0,1-.06-.07Z" transform="translate(-219 -404.46)"/><path class="cls-1" d="M351.05,409.75a.06.06,0,0,1,.06-.06.07.07,0,0,1,.07.06.07.07,0,0,1-.07.07.07.07,0,0,1-.06-.07Z" transform="translate(-219 -404.46)"/><path class="cls-1" d="M350.56,407.92s0-.07.06-.07a.07.07,0,0,1,.06.07.06.06,0,0,1-.06.06.06.06,0,0,1-.06-.06Z" transform="translate(-219 -404.46)"/><polyline class="cls-1" points="131.62 3.45 132.21 5.09 132.11 5.29 131.49 3.55 131.62 3.45"/><path class="cls-1" d="M354.75,407.67a.47.47,0,0,1-.13.24,1.59,1.59,0,0,1-.24.2l-.3.18-.3.15a1.65,1.65,0,0,0-.31.2,1.55,1.55,0,0,0-.24.27l.09,0,.2,0,.18,0,.19,0h.19a.32.32,0,0,0,.14,0,.42.42,0,0,0,.14-.09.4.4,0,0,0,.1-.12,1,1,0,0,0,.07-.15s0,0,.05,0h.07a1,1,0,0,1-.09.22.72.72,0,0,1-.14.2.65.65,0,0,1-.18.15.59.59,0,0,1-.23.05.45.45,0,0,1-.2,0l-.16-.08-.16-.09a.41.41,0,0,0-.19,0,.17.17,0,0,0-.12.06.4.4,0,0,0-.08.16,0,0,0,0,1-.05,0H353a1.33,1.33,0,0,1,.27-.47,1.39,1.39,0,0,1,.49-.36,2.35,2.35,0,0,0,.45-.3.87.87,0,0,0,.26-.39,1.22,1.22,0,0,0,.06-.26v-.05a.57.57,0,0,0,0-.18.41.41,0,0,0-.12-.14.41.41,0,0,0-.19-.05.54.54,0,0,0-.25.06.65.65,0,0,0-.21.16.81.81,0,0,0-.17.23,1.19,1.19,0,0,0-.11.26.32.32,0,0,0,0,.13v.05a.09.09,0,0,0,.09.07.19.19,0,0,0,.12,0l.1-.08.08-.12a1,1,0,0,0,.07-.15v-.1a.36.36,0,0,0,0-.09s0,0,0,0a0,0,0,0,1,0,0h.06a.2.2,0,0,1,.06.15.28.28,0,0,1,0,.09,1.11,1.11,0,0,1-.07.16.56.56,0,0,1-.1.15.69.69,0,0,1-.13.11.33.33,0,0,1-.17,0,.16.16,0,0,1-.11,0,.13.13,0,0,1-.06-.07.3.3,0,0,1,0-.1h0a.52.52,0,0,1,0-.11,1.78,1.78,0,0,1,.12-.29,1.22,1.22,0,0,1,.2-.25.72.72,0,0,1,.25-.18.67.67,0,0,1,.31-.07.68.68,0,0,1,.29.06.64.64,0,0,1,.2.16.6.6,0,0,1,.1.25.28.28,0,0,1,0,.09.48.48,0,0,1,0,.2" transform="translate(-219 -404.46)"/><path class="cls-1" d="M356.46,405.51a.19.19,0,0,1,0-.28.2.2,0,1,1,.28.28.19.19,0,0,1-.28,0Z" transform="translate(-219 -404.46)"/><path class="cls-1" d="M355.75,406.23a.19.19,0,0,1,0-.28.18.18,0,0,1,.27,0,.19.19,0,0,1,0,.28.2.2,0,0,1-.27,0Z" transform="translate(-219 -404.46)"/><path class="cls-1" d="M357.17,404.8a.2.2,0,1,1,.28,0,.19.19,0,0,1-.28,0Z" transform="translate(-219 -404.46)"/><line class="cls-2" x1="141.39" y1="7.26" x2="148.11" y2="7.26"/><line class="cls-2" x1="141.39" y1="9.28" x2="148.11" y2="9.28"/><path class="cls-1" d="M374.32,411.19a1.64,1.64,0,0,1-.36.69,4,4,0,0,1-.63.6,6.92,6.92,0,0,1-.77.52l-.79.44a4.12,4.12,0,0,0-.82.6,4.22,4.22,0,0,0-.63.78.61.61,0,0,1,.24,0,2.76,2.76,0,0,1,.51.05l.49.1.49.09a2,2,0,0,0,.5.05.85.85,0,0,0,.38-.09,1.23,1.23,0,0,0,.35-.26,1.5,1.5,0,0,0,.28-.37,2.26,2.26,0,0,0,.17-.43c0-.06,0-.09.13-.09H374a.08.08,0,0,1,.07,0s0,0,0,0v0a4.21,4.21,0,0,1-.23.65,2.91,2.91,0,0,1-.36.59,1.67,1.67,0,0,1-.49.43,1.18,1.18,0,0,1-.58.16,1.12,1.12,0,0,1-.53-.12,4.41,4.41,0,0,1-.43-.25l-.42-.26a1,1,0,0,0-.5-.13.43.43,0,0,0-.31.19,1.48,1.48,0,0,0-.22.49c0,.05-.05.08-.13.08h-.1a.09.09,0,0,1-.07,0s0,0,0,0v0a3.79,3.79,0,0,1,.71-1.4,4,4,0,0,1,1.28-1.07,5.44,5.44,0,0,0,1.19-.87,2.44,2.44,0,0,0,.69-1.14,3.49,3.49,0,0,0,.15-.77v-.15a1.89,1.89,0,0,0-.08-.53,1.17,1.17,0,0,0-.32-.41.85.85,0,0,0-.5-.16,1.25,1.25,0,0,0-.65.18,2.26,2.26,0,0,0-.56.47,3.24,3.24,0,0,0-.44.67,5.77,5.77,0,0,0-.29.79,1.35,1.35,0,0,0,0,.37.61.61,0,0,0,0,.14c0,.14.1.21.22.2a.54.54,0,0,0,.32-.09,1.22,1.22,0,0,0,.26-.25,1.57,1.57,0,0,0,.22-.36c.06-.14.12-.29.17-.44a1,1,0,0,0,0-.16c0-.05,0-.09,0-.12a.81.81,0,0,0-.11-.27.07.07,0,0,1,0-.05s0-.05.05-.08l0,0,.08,0a.07.07,0,0,1,.06,0,.64.64,0,0,1,.16.43.84.84,0,0,1,0,.27,2.34,2.34,0,0,1-.18.48,2.69,2.69,0,0,1-.26.44,1.32,1.32,0,0,1-.35.32.89.89,0,0,1-.45.12.5.5,0,0,1-.29-.08.44.44,0,0,1-.15-.22.88.88,0,0,1-.06-.27s0,0,0,0a1.19,1.19,0,0,1,0-.32,4,4,0,0,1,.32-.85,3.34,3.34,0,0,1,.52-.75,2.41,2.41,0,0,1,.67-.53,1.62,1.62,0,0,1,.8-.21,1.54,1.54,0,0,1,.75.18,1.49,1.49,0,0,1,.54.49,1.68,1.68,0,0,1,.26.73,2.32,2.32,0,0,1,0,.24,2.1,2.1,0,0,1-.09.61" transform="translate(-219 -404.46)"/></svg>