<svg xmlns="http://www.w3.org/2000/svg" viewBox="0 0 258 222"><defs><style>.cls-1,.cls-8,.cls-9{fill:none;}.cls-1{stroke:#231815;}.cls-1,.cls-8{stroke-miterlimit:10;stroke-width:0.5px;}.cls-2{font-size:12px;font-family:MicrosoftYaHeiLight, Microsoft YaHei;letter-spacing:0.1em;}.cls-3{fill:#e60012;}.cls-4,.cls-5,.cls-7{letter-spacing:0.1em;}.cls-5,.cls-6{fill:#094;}.cls-7{fill:#e83828;}.cls-8{stroke:#000;}</style></defs><title>资源 3</title><g id="图层_2" data-name="图层 2"><g id="图层_1-2" data-name="图层 1"><line class="cls-1" x1="19.58" y1="111.89" x2="223.67" y2="111.89"/><text class="cls-2" transform="translate(79.67 128.83)"><tspan class="cls-3">2</tspan><tspan class="cls-4" x="7.87" y="0" xml:space="preserve">  4  </tspan><tspan class="cls-5" x="34.96" y="0">6</tspan><tspan x="42.83" y="0" xml:space="preserve">  8  </tspan><tspan class="cls-6" x="69.71" y="0">10</tspan><tspan x="83.4" y="0" xml:space="preserve">  12  </tspan><tspan class="cls-3" x="116.09" y="0">14</tspan><tspan x="129.99" y="0" xml:space="preserve">  16</tspan></text><text class="cls-2" transform="translate(79.67 102.83)"><tspan class="cls-3">1</tspan><tspan class="cls-4" x="5.82" y="0" xml:space="preserve">  2  </tspan><tspan class="cls-5" x="32.69" y="0">3</tspan><tspan x="40.57" y="0" xml:space="preserve">  4  </tspan><tspan class="cls-6" x="67.65" y="0">5</tspan><tspan class="cls-4" x="75.52" y="0" xml:space="preserve">     6    </tspan><tspan class="cls-7" x="126.15" y="0">7</tspan><tspan x="133.82" y="0" xml:space="preserve">    8</tspan></text><polyline class="cls-8" points="82.42 84.8 82.42 67.33 205.56 67.33 205.56 84.8"/><polygon points="82.42 88.33 84.46 83.36 82.42 84.54 80.39 83.36 82.42 88.33"/><polygon points="205.56 88.33 203.53 83.36 205.56 84.54 207.59 83.36 205.56 88.33"/><polyline class="cls-8" points="115.17 84.8 115.17 42.38 153.48 42.38 153.48 84.8"/><polygon points="115.17 88.33 117.2 83.36 115.17 84.54 113.14 83.36 115.17 88.33"/><polygon points="153.48 88.33 151.45 83.36 153.48 84.54 155.51 83.36 153.48 88.33"/><polyline class="cls-8" points="82.42 141.54 82.42 159.01 205.56 159.01 205.56 141.54"/><polygon points="82.42 138.01 80.39 142.99 82.42 141.8 84.46 142.99 82.42 138.01"/><polygon points="205.56 138.01 207.59 142.99 205.56 141.8 203.53 142.99 205.56 138.01"/><polyline class="cls-8" points="115.17 141.54 115.17 183.96 153.48 183.96 153.48 141.54"/><polygon points="115.17 138.01 113.14 142.99 115.17 141.8 117.2 142.99 115.17 138.01"/><polygon points="153.48 138.01 155.51 142.99 153.48 141.8 151.45 142.99 153.48 138.01"/><text class="cls-2" transform="translate(26.67 87.83)">序号</text><text class="cls-2" transform="translate(16.17 127.33)">项的值</text><text class="cls-2" transform="translate(86.17 25.83)"><tspan xml:space="preserve">序号  </tspan><tspan class="cls-3" x="35.9" y="0">1+7</tspan><tspan x="59.01" y="0" xml:space="preserve"> = </tspan><tspan class="cls-6" x="78.13" y="0">3 +5</tspan></text><text class="cls-2" transform="translate(86.17 208.83)">值 <tspan class="cls-3" x="17.95" y="0">2+14</tspan><tspan class="cls-4" x="49.34" y="0" xml:space="preserve"> = </tspan><tspan class="cls-6" x="68.46" y="0">6+10</tspan></text><rect class="cls-9" width="258" height="222"/></g></g></svg>