<svg xmlns="http://www.w3.org/2000/svg" viewBox="0 0 489 469.76"><defs><style>.cls-1,.cls-10,.cls-11,.cls-2,.cls-6,.cls-7{fill:none;stroke-miterlimit:10;}.cls-1,.cls-2{stroke:#b5b5b6;}.cls-2{stroke-dasharray:2 2;}.cls-3{fill:#231815;}.cls-4{font-size:21px;}.cls-12,.cls-4,.cls-8{font-family:MicrosoftYaHeiLight, Microsoft YaHei;}.cls-5{fill:#3e3a39;}.cls-6,.cls-7{stroke:#3e3a39;}.cls-6{stroke-width:2px;}.cls-8{font-size:15px;}.cls-9{font-size:22px;font-family:MicrosoftYaHei-Bold, Microsoft YaHei;font-weight:700;}.cls-10,.cls-11{stroke:#231815;}.cls-11{stroke-dasharray:1.98 1.98;}.cls-12{font-size:12px;fill:#fff;}</style></defs><title>资源 12</title><g id="图层_2" data-name="图层 2"><g id="图层_1-2" data-name="图层 1"><line class="cls-1" x1="188.97" y1="45.12" x2="188.97" y2="46.12"/><line class="cls-2" x1="188.97" y1="48.12" x2="188.97" y2="439.15"/><line class="cls-1" x1="188.97" y1="440.15" x2="188.97" y2="441.15"/><circle class="cls-3" cx="188.31" cy="152.3" r="8.82"/><text class="cls-4" transform="translate(370.88 464.26)">now</text><text class="cls-4" transform="translate(196.66 464.26)">past</text><line class="cls-5" x1="131.62" y1="401.44" x2="489" y2="401.44"/><line class="cls-6" x1="131.62" y1="401.44" x2="474.88" y2="401.44"/><polygon class="cls-5" points="489 401.44 469.1 409.57 473.82 401.44 469.1 393.31 489 401.44"/><line class="cls-7" x1="388.97" y1="45.12" x2="388.97" y2="441.15"/><text class="cls-8" transform="translate(15.8 132.84)">短暂动词 + 一般过去时<tspan x="-0.25" y="24.57" xml:space="preserve">                  现在完成时</tspan></text><text class="cls-8" transform="translate(241 12.84)">距今的时间段</text><text class="cls-8" transform="translate(14.8 217.58)">延续动词 + 一般过去时</text><text class="cls-8" transform="translate(215.8 290.84)">延续动词 + 现在完成时</text><text class="cls-9" transform="translate(153.83 87.12)"><tspan xml:space="preserve"> since</tspan></text><line class="cls-10" x1="189.82" y1="152.3" x2="190.82" y2="152.3"/><line class="cls-11" x1="192.81" y1="152.3" x2="386.01" y2="152.3"/><line class="cls-10" x1="387" y1="152.3" x2="388" y2="152.3"/><line class="cls-10" x1="189.82" y1="241.04" x2="190.82" y2="241.04"/><line class="cls-11" x1="192.81" y1="241.04" x2="386.01" y2="241.04"/><line class="cls-10" x1="387" y1="241.04" x2="388" y2="241.04"/><rect class="cls-3" y="231.54" width="190" height="21" rx="10.5" ry="10.5"/><rect class="cls-3" x="187" y="308.12" width="201" height="21" rx="10.5" ry="10.5"/><text class="cls-12" transform="translate(91.33 247.12)"><tspan xml:space="preserve"> --&gt; 动作结束点</tspan></text><text class="cls-12" transform="translate(204.5 323.12)">动作开始点 --&gt;</text><path d="M290.32,24h3.33a31.66,31.66,0,0,0,3.47,4.92,13.93,13.93,0,0,0,4.94,2.86A30.86,30.86,0,0,0,314,34.2q4.81,0,11.28-.6,13.41-1.26,17.29-1.26a73.31,73.31,0,0,1,11.56.91A55.41,55.41,0,0,1,364.75,36a30.13,30.13,0,0,1,8.6,4.84,14.5,14.5,0,0,1,4.81,6.59h-3.79A10.42,10.42,0,0,0,370,42.05a23.37,23.37,0,0,0-7.72-3.18,39.55,39.55,0,0,0-8.92-1c-2,0-5.52.22-10.63.65q-8.7.74-12.21,1c-2.34.16-4.78.24-7.3.24a64.83,64.83,0,0,1-15.44-2.25,29.9,29.9,0,0,1-15.63-10,29.9,29.9,0,0,1-6.7,5.7,39.46,39.46,0,0,1-10.82,4.65A54.21,54.21,0,0,1,260,39.61q-4.44,0-16.65-1.13c-5.48-.55-9.68-.82-12.57-.82a41.41,41.41,0,0,0-12.11,1.92,15.45,15.45,0,0,0-9.43,7.89H206q2.77-7,12.71-11.09a59.35,59.35,0,0,1,22.89-4.12q5.27,0,11.74.64c3.94.49,7.06.81,9.34,1a43,43,0,0,0,5.82.34,34.81,34.81,0,0,0,11.33-1.62A20.07,20.07,0,0,0,287,28.63,12.18,12.18,0,0,0,290.32,24Z"/></g></g></svg>