<svg xmlns="http://www.w3.org/2000/svg" viewBox="0 0 620.93 321.64"><defs><style>.cls-1{fill:#dcdddd;}.cls-2,.cls-6,.cls-7,.cls-8{fill:none;stroke-miterlimit:10;}.cls-2,.cls-6{stroke:#3e3a39;}.cls-3{font-size:21px;}.cls-10,.cls-3{font-family:MicrosoftYaHeiLight, Microsoft YaHei;}.cls-4{letter-spacing:-0.02em;}.cls-5{fill:#3e3a39;}.cls-6{stroke-width:2px;}.cls-7,.cls-8{stroke:#231815;}.cls-8{stroke-dasharray:3.81 3.81;}.cls-10,.cls-9{fill:#231815;}.cls-10{font-size:14px;}</style></defs><title>资源 19</title><g id="图层_2" data-name="图层 2"><g id="图层_1-2" data-name="图层 1"><rect class="cls-1" x="118.82" y="94" width="410" height="62"/><line class="cls-2" x1="341.41" x2="341.41" y2="293.03"/><text class="cls-3" transform="translate(322.81 316.14)">now</text><text class="cls-3" transform="translate(451.04 316.14)">futu<tspan class="cls-4" x="37.27" y="0">r</tspan><tspan x="44.31" y="0">e</tspan></text><text class="cls-3" transform="translate(181.59 316.14)">past</text><line class="cls-5" x1="120.93" y1="253.32" x2="620.93" y2="253.32"/><line class="cls-6" x1="120.93" y1="253.32" x2="606.81" y2="253.32"/><polygon class="cls-5" points="620.93 253.32 601.03 261.45 605.75 253.32 601.03 245.19 620.93 253.32"/><line class="cls-7" x1="340.43" y1="137.02" x2="342.43" y2="137.02"/><line class="cls-8" x1="346.24" y1="137.02" x2="382.46" y2="137.02"/><line class="cls-7" x1="384.37" y1="137.02" x2="386.37" y2="137.02"/><polygon class="cls-9" points="393.43 137.02 383.48 141.08 385.84 137.02 383.48 132.95 393.43 137.02"/><rect class="cls-9" x="131.82" y="125.48" width="23.06" height="23.06" rx="11.53" ry="11.53"/><rect class="cls-9" x="181.33" y="125.48" width="23.06" height="23.06" rx="11.53" ry="11.53"/><rect class="cls-9" x="230.85" y="125.48" width="23.06" height="23.06" rx="11.53" ry="11.53"/><rect class="cls-9" x="280.36" y="125.48" width="23.06" height="23.06" rx="11.53" ry="11.53"/><rect class="cls-9" x="329.88" y="125.48" width="23.06" height="23.06" rx="11.53" ry="11.53"/><text class="cls-10" transform="translate(16.33 132.97)">有限延续动词<tspan x="-16.33" y="16.8">(有&quot;具体动作&quot;意味)</tspan></text><text class="cls-10" transform="translate(129.87 108.67)">长期时间段</text><text class="cls-10" transform="translate(182.8 216.04)">表示事件在&quot;重复&quot;</text><path d="M255.8,177.84h39.68q10.53,0,16.6-3.36t6.07-11.27h5.67q0,10.36-6.88,15.23t-24.7,4.88H257.42q-9.72,0-15.79,2.44t-6.88,11h-4.86q-1.62-7.92-6.48-10.67t-16.19-2.74H172.4q-17.81,0-24.7-4.88t-6.88-15.23h5.66c0,5.28,1.9,9,5.67,11.27s9.46,3.36,17,3.36h39.68q13,0,17.81,4.26t4.86,9.15h1.62c0-3.66,1.9-6.8,5.67-9.45S248.25,177.84,255.8,177.84Z"/></g></g></svg>