<svg xmlns="http://www.w3.org/2000/svg" viewBox="0 0 688.32 426.64"><defs><style>.cls-1{fill:#dcdddd;}.cls-2,.cls-4{font-size:24px;}.cls-2,.cls-3,.cls-7{font-family:MicrosoftYaHeiLight, Microsoft YaHei;}.cls-3{font-size:16px;}.cls-10,.cls-11,.cls-5{fill:none;stroke-miterlimit:10;}.cls-5{stroke:#231815;}.cls-6{fill:#231815;}.cls-7{font-size:21px;}.cls-8{letter-spacing:-0.02em;}.cls-9{fill:#3e3a39;}.cls-10,.cls-11{stroke:#3e3a39;}.cls-10{stroke-width:2px;}</style></defs><title>资源 10</title><g id="图层_2" data-name="图层 2"><g id="图层_1-2" data-name="图层 1"><rect class="cls-1" y="53" width="431" height="48"/><rect class="cls-1" x="375" y="278" width="56" height="48"/><rect class="cls-1" y="134" width="637" height="48"/><text class="cls-2" transform="translate(97.04 28.82)">远的过去</text><text class="cls-2" transform="translate(8.04 85.82)">单一事件</text><text class="cls-3" transform="translate(269.67 292.4)">近的过去<tspan class="cls-4"><tspan x="0" y="28.8">单一事件</tspan></tspan></text><text class="cls-2" transform="translate(8.04 165.82)">重复事件</text><text class="cls-2" transform="translate(323.04 28.82)">近的过去</text><circle class="cls-5" cx="483" cy="156" r="8.82"/><circle class="cls-5" cx="508" cy="156" r="8.82"/><circle class="cls-5" cx="533" cy="156" r="8.82"/><circle class="cls-5" cx="558" cy="156" r="8.82"/><circle class="cls-6" cx="131.28" cy="156" r="8.82"/><circle class="cls-6" cx="156.28" cy="156" r="8.82"/><circle class="cls-6" cx="181.28" cy="156" r="8.82"/><circle class="cls-6" cx="206.28" cy="156" r="8.82"/><circle class="cls-6" cx="131.28" cy="77" r="8.82"/><circle class="cls-6" cx="395.18" cy="302" r="8.82"/><text class="cls-7" transform="translate(413.88 421.14)">now</text><text class="cls-7" transform="translate(566.8 421.14)">futu<tspan class="cls-8" x="37.27" y="0">r</tspan><tspan x="44.31" y="0">e</tspan></text><text class="cls-7" transform="translate(239.66 421.14)">past</text><line class="cls-9" x1="173.62" y1="356.32" x2="688.32" y2="356.32"/><line class="cls-10" x1="173.62" y1="356.32" x2="674.2" y2="356.32"/><polygon class="cls-9" points="688.32 356.32 668.42 364.45 673.14 356.32 668.42 348.19 688.32 356.32"/><line class="cls-11" x1="430.97" x2="430.97" y2="396.03"/></g></g></svg>