<svg xmlns="http://www.w3.org/2000/svg" viewBox="0 0 589.3 321.64"><defs><style>.cls-1{fill:#231815;}.cls-2,.cls-6{fill:none;stroke:#3e3a39;stroke-miterlimit:10;}.cls-3{font-size:21px;}.cls-3,.cls-4{font-family:MicrosoftYaHeiLight, Microsoft YaHei;}.cls-4{font-size:11px;}.cls-5{fill:#3e3a39;}.cls-6{stroke-width:2px;}</style></defs><title>资源 23</title><g id="图层_2" data-name="图层 2"><g id="图层_1-2" data-name="图层 1"><rect class="cls-1" x="378.66" y="175" width="23.06" height="23.06" rx="11.53" ry="11.53"/><rect class="cls-1" x="328.66" y="175" width="23.06" height="23.06" rx="11.53" ry="11.53"/><rect class="cls-1" x="278.66" y="175" width="23.06" height="23.06" rx="11.53" ry="11.53"/><rect class="cls-1" x="228.66" y="175" width="23.06" height="23.06" rx="11.53" ry="11.53"/><rect class="cls-1" x="178.66" y="175" width="23.06" height="23.06" rx="11.53" ry="11.53"/><rect class="cls-1" x="178.66" y="89.23" width="23.06" height="23.06" rx="11.53" ry="11.53"/><rect class="cls-1" x="338.66" y="89.23" width="23.06" height="23.06" rx="11.53" ry="11.53"/><rect class="cls-1" x="280.66" y="89.23" width="23.06" height="23.06" rx="11.53" ry="11.53"/><rect class="cls-1" x="236.66" y="89.23" width="23.06" height="23.06" rx="11.53" ry="11.53"/><line class="cls-2" x1="431.79" x2="431.79" y2="293.03"/><text class="cls-3" transform="translate(413.18 316.14)">now</text><text class="cls-3" transform="translate(271.96 316.14)">past</text><text class="cls-3" transform="translate(0 103.64)">have been doing</text><text class="cls-3" transform="translate(215.99 26.64)">表事件在”重复”</text><text class="cls-4" transform="translate(206.54 137.09)">不能被细分, 不能说清具体的次数</text><text class="cls-4" transform="translate(236.99 217.09)">可以说清具体的次数</text><text class="cls-3" transform="translate(59.87 190.64)">have done</text><line class="cls-5" x1="89.3" y1="253.32" x2="589.3" y2="253.32"/><line class="cls-6" x1="89.3" y1="253.32" x2="575.18" y2="253.32"/><polygon class="cls-5" points="589.3 253.32 569.4 261.45 574.13 253.32 569.4 245.19 589.3 253.32"/><circle class="cls-1" cx="212.69" cy="100.76" r="17.5"/><circle class="cls-1" cx="227.69" cy="100.76" r="17.5"/><circle class="cls-1" cx="329.19" cy="100.76" r="17.5"/><circle class="cls-1" cx="308.69" cy="100.76" r="17.5"/><circle class="cls-1" cx="267.19" cy="100.76" r="17.5"/><circle class="cls-1" cx="365.69" cy="100.76" r="17.5"/><circle class="cls-1" cx="380.69" cy="100.76" r="17.5"/></g></g></svg>