<svg xmlns="http://www.w3.org/2000/svg" viewBox="0 0 520.11 253.64"><defs><style>.cls-1,.cls-2,.cls-4,.cls-6{fill:none;stroke:#3e3a39;stroke-miterlimit:10;}.cls-2{stroke-dasharray:4.37 4.37;}.cls-3{fill:#3e3a39;}.cls-4{stroke-dasharray:4.02 4.02;}.cls-5,.cls-8{font-size:21px;font-family:MicrosoftYaHeiLight, Microsoft YaHei;}.cls-6{stroke-width:2px;}.cls-7{fill:#231815;}.cls-8{fill:#fff;}</style></defs><title>资源 25</title><g id="图层_2" data-name="图层 2"><g id="图层_1-2" data-name="图层 1"><line class="cls-1" x1="186.8" y1="110.32" x2="188.8" y2="110.32"/><line class="cls-2" x1="193.16" y1="110.32" x2="208.44" y2="110.32"/><line class="cls-1" x1="210.62" y1="110.32" x2="212.62" y2="110.32"/><polygon class="cls-3" points="219.69 110.32 209.74 114.39 212.1 110.32 209.74 106.26 219.69 110.32"/><line class="cls-1" x1="362.59" x2="362.59" y2="225.03"/><line class="cls-1" x1="221.28" x2="221.28" y2="225.03"/><line class="cls-1" x1="182.59" x2="182.59" y2="2"/><line class="cls-4" x1="182.59" y1="6.02" x2="182.59" y2="221.02"/><line class="cls-1" x1="182.59" y1="223.03" x2="182.59" y2="225.03"/><text class="cls-5" transform="translate(343.99 248.14)">now</text><text class="cls-5" transform="translate(202.77 248.14)">past</text><line class="cls-3" x1="20.11" y1="185.32" x2="520.11" y2="185.32"/><line class="cls-6" x1="20.11" y1="185.32" x2="505.99" y2="185.32"/><polygon class="cls-3" points="520.11 185.32 500.21 193.45 504.93 185.32 500.21 177.19 520.11 185.32"/><rect class="cls-7" y="85.69" width="182" height="45.48" rx="11.53" ry="11.53"/><text class="cls-8" transform="translate(17.83 113.64)">had been doing</text></g></g></svg>