<svg xmlns="http://www.w3.org/2000/svg" viewBox="0 0 682 405.58"><defs><style>.cls-1,.cls-10,.cls-11,.cls-2,.cls-6,.cls-9{fill:none;stroke-miterlimit:10;}.cls-1,.cls-2,.cls-6{stroke:#3e3a39;}.cls-1{stroke-dasharray:4 4;}.cls-3{fill:#231815;}.cls-4{font-size:21px;}.cls-13,.cls-4,.cls-7{font-family:MicrosoftYaHeiLight, Microsoft YaHei;}.cls-5{fill:#3e3a39;}.cls-6{stroke-width:2px;}.cls-7{font-size:15px;}.cls-8{font-size:22px;font-family:MicrosoftYaHei, Microsoft YaHei;}.cls-10,.cls-9{stroke:#231815;}.cls-10{stroke-dasharray:3.81 3.81;}.cls-11{stroke:#b5b5b6;}.cls-12{fill:#b5b5b6;}.cls-13{font-size:30px;}</style></defs><title>资源 26</title><g id="图层_2" data-name="图层 2"><g id="图层_1-2" data-name="图层 1"><line class="cls-1" x1="270.48" y1="54.94" x2="270.48" y2="347.96"/><line class="cls-2" x1="527.48" y1="54.94" x2="527.48" y2="347.96"/><circle class="cls-3" cx="271" cy="196.35" r="8.82"/><circle class="cls-3" cx="107" cy="231.94" r="8.82"/><circle class="cls-3" cx="213" cy="231.94" r="8.82"/><text class="cls-4" transform="translate(509.88 371.08)">now</text><text class="cls-4" transform="translate(255.66 371.08)">past</text><line class="cls-5" x1="50" y1="308.26" x2="682" y2="308.26"/><line class="cls-6" x1="50" y1="308.26" x2="667.88" y2="308.26"/><polygon class="cls-5" points="682 308.26 662.1 316.39 666.82 308.26 662.1 300.13 682 308.26"/><text class="cls-7" transform="translate(98.9 96.66)">至 ”x时” 还未完成</text><text class="cls-7" transform="translate(176.46 259.97)">已完成, <tspan x="-93.52" y="17">但对 ”x时” 有后果影响</tspan></text><text class="cls-7" transform="translate(296.18 96.66)">之后还将继续延续下去</text><text class="cls-7" transform="translate(219.07 401.66)">时间参照点 (x 时)</text><text class="cls-8" transform="translate(186.72 18.86)">had been doing</text><line class="cls-9" x1="111" y1="231.94" x2="194.94" y2="231.94"/><polygon class="cls-3" points="202 231.94 192.05 236 194.41 231.94 192.05 227.87 202 231.94"/><line class="cls-9" x1="213" y1="231.94" x2="215" y2="231.94"/><line class="cls-10" x1="218.81" y1="231.94" x2="255.03" y2="231.94"/><line class="cls-9" x1="256.94" y1="231.94" x2="258.94" y2="231.94"/><polygon class="cls-3" points="266 231.94 256.05 236 258.41 231.94 256.05 227.87 266 231.94"/><line class="cls-11" x1="280" y1="196.35" x2="364.94" y2="196.35"/><polygon class="cls-12" points="372 196.35 362.05 200.42 364.41 196.35 362.05 192.29 372 196.35"/><line class="cls-11" x1="280" y1="152.94" x2="364.94" y2="152.94"/><polygon class="cls-12" points="372 152.94 362.05 157 364.41 152.94 362.05 148.87 372 152.94"/><line class="cls-11" x1="280" y1="106.94" x2="364.94" y2="106.94"/><polygon class="cls-12" points="372 106.94 362.05 111 364.41 106.94 362.05 102.87 372 106.94"/><circle class="cls-3" cx="271" cy="152.94" r="8.82"/><circle class="cls-3" cx="270.48" cy="152.94" r="8.82"/><circle class="cls-3" cx="107" cy="152.94" r="8.82"/><line class="cls-9" x1="107" y1="152.94" x2="253.12" y2="152.94"/><polygon class="cls-3" points="260.18 152.94 250.23 157 252.59 152.94 250.23 148.87 260.18 152.94"/><circle class="cls-3" cx="271" cy="108.94" r="8.82"/><line class="cls-9" y1="108.94" x2="253.12" y2="108.94"/><polygon class="cls-3" points="260.18 108.94 250.23 113 252.59 108.94 250.23 104.87 260.18 108.94"/><text class="cls-13" transform="translate(60.63 158.91)">2.</text><text class="cls-13" transform="translate(226.01 205.91)">3.</text><text class="cls-13" transform="translate(60.76 239.91)">4.</text></g></g></svg>