<svg xmlns="http://www.w3.org/2000/svg" viewBox="0 0 500 307.76"><defs><style>.cls-1{fill:#231815;}.cls-2{font-size:21px;}.cls-2,.cls-7{font-family:MicrosoftYaHeiLight, Microsoft YaHei;}.cls-3{letter-spacing:-0.02em;}.cls-4{fill:#3e3a39;}.cls-5,.cls-6,.cls-8,.cls-9{fill:none;stroke-miterlimit:10;}.cls-5,.cls-6{stroke:#3e3a39;}.cls-5{stroke-width:2px;}.cls-7{font-size:15px;}.cls-8,.cls-9{stroke:#231815;}.cls-9{stroke-dasharray:4.16 4.16;}</style></defs><title>资源 16</title><g id="图层_2" data-name="图层 2"><g id="图层_1-2" data-name="图层 1"><circle class="cls-1" cx="362.82" cy="127.53" r="8.82"/><circle class="cls-1" cx="286.82" cy="127.53" r="8.82"/><text class="cls-2" transform="translate(201.88 302.26)">now</text><text class="cls-2" transform="translate(330.11 302.26)">futu<tspan class="cls-3" x="37.27" y="0">r</tspan><tspan x="44.31" y="0">e</tspan></text><text class="cls-2" transform="translate(60.66 302.26)">past</text><line class="cls-4" y1="239.44" x2="500" y2="239.44"/><line class="cls-5" y1="239.44" x2="485.88" y2="239.44"/><polygon class="cls-4" points="500 239.44 480.1 247.57 484.82 239.44 480.1 231.31 500 239.44"/><line class="cls-6" x1="220.48" y1="16.12" x2="220.48" y2="279.15"/><text class="cls-7" transform="translate(339.5 161.84)">参照点</text><text class="cls-7" transform="translate(324.5 12.84)">将来完成时</text><line class="cls-8" x1="286.82" y1="127.53" x2="344.94" y2="127.53"/><polygon class="cls-1" points="352 127.53 342.05 131.6 344.41 127.53 342.05 123.47 352 127.53"/><line class="cls-8" x1="371.82" y1="127.53" x2="373.82" y2="127.53"/><line class="cls-9" x1="377.99" y1="127.53" x2="425.86" y2="127.53"/><line class="cls-8" x1="427.94" y1="127.53" x2="429.94" y2="127.53"/><polygon class="cls-1" points="437 127.53 427.05 131.6 429.41 127.53 427.05 123.47 437 127.53"/><line class="cls-8" x1="371.82" y1="84.12" x2="373.82" y2="84.12"/><line class="cls-9" x1="377.99" y1="84.12" x2="425.86" y2="84.12"/><line class="cls-8" x1="427.94" y1="84.12" x2="429.94" y2="84.12"/><polygon class="cls-1" points="437 84.12 427.05 88.19 429.41 84.12 427.05 80.06 437 84.12"/><line class="cls-8" x1="371.82" y1="38.12" x2="373.82" y2="38.12"/><line class="cls-9" x1="377.99" y1="38.12" x2="425.86" y2="38.12"/><line class="cls-8" x1="427.94" y1="38.12" x2="429.94" y2="38.12"/><polygon class="cls-1" points="437 38.12 427.05 42.19 429.41 38.12 427.05 34.05 437 38.12"/><circle class="cls-1" cx="362.82" cy="84.12" r="8.82"/><circle class="cls-1" cx="220.48" cy="84.12" r="8.82"/><line class="cls-8" x1="221" y1="84.12" x2="344.94" y2="84.12"/><polygon class="cls-1" points="352 84.12 342.05 88.18 344.41 84.12 342.05 80.05 352 84.12"/><circle class="cls-1" cx="362.82" cy="40.12" r="8.82"/><circle class="cls-1" cx="91.82" cy="40.12" r="8.82"/><line class="cls-8" x1="91.82" y1="40.12" x2="344.94" y2="40.12"/><polygon class="cls-1" points="352 40.12 342.05 44.18 344.41 40.12 342.05 36.05 352 40.12"/></g></g></svg>