<svg xmlns="http://www.w3.org/2000/svg" viewBox="0 0 371.9 161.22"><defs><style>.cls-1,.cls-5{font-size:16px;}.cls-1{font-family:MicrosoftYaHeiLight, Microsoft YaHei;}.cls-2{text-decoration:underline;}.cls-3{letter-spacing:-0.02em;}.cls-4{letter-spacing:0em;}.cls-5{font-family:MicrosoftYaHei-Bold, Microsoft YaHei;font-weight:700;}.cls-6{letter-spacing:0em;}.cls-10,.cls-7,.cls-9{fill:none;stroke:#231815;stroke-miterlimit:10;}.cls-8{fill:#231815;}.cls-9{stroke-dasharray:1.78 1.78;}.cls-10{stroke-dasharray:2 2;}</style></defs><title>资源 11</title><g id="图层_2" data-name="图层 2"><g id="图层_1-2" data-name="图层 1"><text class="cls-1" transform="translate(4.4 157.03)"><tspan class="cls-2">I have called him</tspan><tspan x="121.2" y="0" xml:space="preserve">  th</tspan><tspan class="cls-3" x="145.05" y="0">r</tspan><tspan x="150.41" y="0">ee times this mo</tspan><tspan class="cls-4" x="268.92" y="0">r</tspan><tspan x="274.58" y="0">ning.</tspan></text><text class="cls-1" transform="translate(13.82 23.66)">I <tspan class="cls-2" x="8.67" y="0">have called</tspan><tspan x="89.46" y="0" xml:space="preserve">  him </tspan><tspan x="22.84" y="24">th</tspan><tspan class="cls-3" x="37.22" y="24">r</tspan><tspan x="42.58" y="24">ee times </tspan></text><text class="cls-5" transform="translate(206.96 42.09)">this mo<tspan class="cls-6" x="60.58" y="0">r</tspan><tspan x="67.4" y="0">ning.</tspan></text><text class="cls-1" transform="translate(245.68 108.72)">now</text><line class="cls-7" y1="73.17" x2="365.93" y2="73.17"/><polygon class="cls-8" points="363.13 76.88 364.7 73.17 363.13 69.47 371.9 73.17 363.13 76.88"/><line class="cls-7" x1="261" y1="90.42" x2="261" y2="55.92"/><circle class="cls-8" cx="31.5" cy="73.17" r="6.5"/><circle class="cls-8" cx="73.5" cy="73.17" r="6.5"/><circle class="cls-8" cx="123" cy="73.17" r="6.5"/><circle class="cls-7" cx="291.99" cy="73.17" r="6.5"/><circle class="cls-7" cx="322.1" cy="73.17" r="6.5"/><line class="cls-7" x1="257" y1="22.07" x2="257" y2="21.07"/><line class="cls-9" x1="257" y1="19.29" x2="257" y2="5.95"/><polyline class="cls-7" points="257 5.07 257 4.07 256 4.07"/><line class="cls-10" x1="254" y1="4.07" x2="155.06" y2="4.07"/><line class="cls-7" x1="154.06" y1="4.07" x2="153.06" y2="4.07"/><polygon class="cls-8" points="146 4.07 155.95 0 153.59 4.07 155.95 8.13 146 4.07"/></g></g></svg>