<svg xmlns="http://www.w3.org/2000/svg" viewBox="0 0 325 151.25"><defs><style>.cls-1,.cls-5{font-size:16px;}.cls-1{font-family:MicrosoftYaHeiLight, Microsoft YaHei;}.cls-2{text-decoration:underline;}.cls-3{letter-spacing:-0.02em;}.cls-4{letter-spacing:0em;}.cls-5{font-family:MicrosoftYaHei-Bold, Microsoft YaHei;font-weight:700;}.cls-6{letter-spacing:0em;}.cls-10,.cls-7,.cls-9{fill:none;stroke:#231815;stroke-miterlimit:10;}.cls-8{fill:#231815;}.cls-9{stroke-dasharray:1.78 1.78;}.cls-10{stroke-dasharray:2 2;}</style></defs><title>资源 10</title><g id="图层_2" data-name="图层 2"><g id="图层_1-2" data-name="图层 1"><text class="cls-1" transform="translate(29.34 147.07)"><tspan class="cls-2">I called him</tspan><tspan x="82.12" y="0" xml:space="preserve"> th</tspan><tspan class="cls-3" x="101.23" y="0">r</tspan><tspan x="106.59" y="0">ee times this mo</tspan><tspan class="cls-4" x="225.11" y="0">r</tspan><tspan x="230.77" y="0">ning.</tspan></text><text class="cls-1" transform="translate(16.19 13.7)">I <tspan class="cls-2" x="8.67" y="0">have called</tspan><tspan x="89.46" y="0" xml:space="preserve"> him </tspan><tspan x="20.47" y="24">th</tspan><tspan class="cls-3" x="34.86" y="24">r</tspan><tspan x="40.21" y="24">ee times </tspan></text><text class="cls-5" transform="translate(19.47 98.75)">this mo<tspan class="cls-6" x="60.58" y="0">r</tspan><tspan x="67.4" y="0">ning.</tspan></text><text class="cls-1" transform="translate(245.68 98.75)">now</text><line class="cls-7" y1="63.21" x2="319.03" y2="63.21"/><polygon class="cls-8" points="316.22 66.91 317.8 63.21 316.22 59.5 325 63.21 316.22 66.91"/><line class="cls-7" x1="261" y1="80.45" x2="261" y2="45.96"/><circle class="cls-8" cx="31.5" cy="63.21" r="6.5"/><circle class="cls-8" cx="73.5" cy="63.21" r="6.5"/><circle class="cls-8" cx="123" cy="63.21" r="6.5"/><line class="cls-7" x1="260.69" y1="30.07" x2="260.69" y2="29.07"/><line class="cls-9" x1="260.69" y1="27.29" x2="260.69" y2="13.96"/><polyline class="cls-7" points="260.69 13.07 260.69 12.07 259.69 12.07"/><line class="cls-10" x1="257.69" y1="12.07" x2="158.74" y2="12.07"/><line class="cls-7" x1="157.75" y1="12.07" x2="156.75" y2="12.07"/><polygon class="cls-8" points="149.69 12.07 159.63 8 157.27 12.07 159.63 16.13 149.69 12.07"/></g></g></svg>