<svg xmlns="http://www.w3.org/2000/svg" viewBox="0 0 514.71 423.4"><defs><style>.cls-1{fill:#c9caca;}.cls-2,.cls-3{font-size:18px;}.cls-10,.cls-12,.cls-2,.cls-3{font-family:MicrosoftYaHeiLight, Microsoft YaHei;}.cls-3{letter-spacing:1em;}.cls-13,.cls-4,.cls-5,.cls-7,.cls-8,.cls-9{fill:none;stroke-miterlimit:10;}.cls-13,.cls-4{stroke:#898989;}.cls-5,.cls-7,.cls-8,.cls-9{stroke:#231815;}.cls-5{stroke-width:4px;}.cls-6{fill:#231815;}.cls-13,.cls-7,.cls-8{stroke-width:2px;}.cls-8{stroke-dasharray:3.97 3.97;}.cls-10{font-size:21px;}.cls-11{letter-spacing:-0.02em;}.cls-12{font-size:23px;}.cls-12,.cls-15{fill:#fff;}.cls-14{fill:#898989;}</style></defs><title>资源 10</title><g id="图层_2" data-name="图层 2"><g id="图层_1-2" data-name="图层 1"><rect class="cls-1" x="59.95" width="188.99" height="52.5"/><rect class="cls-1" x="30.96" y="370.91" width="246.96" height="52.5"/><text class="cls-2" transform="translate(82.45 20.31)">谓语是延续性动作<tspan x="12.52" y="24">(而非短暂动作)</tspan></text><text class="cls-3" transform="translate(127.95 173.18)">延续</text><text class="cls-2" transform="translate(39.93 392.72)">句子要带上“延续性时间状语”<tspan x="27.71" y="24" xml:space="preserve">since... ;  for + 时间段</tspan></text><line class="cls-4" y1="254.73" x2="514.71" y2="254.73"/><line class="cls-5" x1="76.5" y1="149.73" x2="206.19" y2="149.73"/><polygon class="cls-6" points="234.43 149.73 194.63 166 204.08 149.73 194.63 133.48 234.43 149.73"/><line class="cls-7" x1="272.99" y1="149.73" x2="274.99" y2="149.73"/><line class="cls-8" x1="278.96" y1="149.73" x2="372.31" y2="149.73"/><line class="cls-7" x1="374.3" y1="149.73" x2="376.3" y2="149.73"/><polygon class="cls-6" points="390.42 149.73 370.52 157.87 375.25 149.73 370.52 141.6 390.42 149.73"/><line class="cls-9" x1="257.35" y1="70.92" x2="257.35" y2="294.43"/><text class="cls-10" transform="translate(234.27 320.55)">now</text><text class="cls-10" transform="translate(387.18 320.55)">futu<tspan class="cls-11" x="37.27" y="0">r</tspan><tspan x="44.31" y="0">e</tspan></text><text class="cls-10" transform="translate(60.04 320.55)">past</text><circle class="cls-6" cx="82.85" cy="151.07" r="18"/><text class="cls-12" transform="translate(75.04 157.9)">A</text><circle class="cls-6" cx="256.85" cy="151.07" r="18"/><text class="cls-12" transform="translate(250.09 157.9)">B</text><line class="cls-13" x1="154.12" y1="58.63" x2="154.12" y2="104.35"/><path class="cls-14" d="M146,103.59c0,1,.06,2.51,0,4.72,0,1,.39,1.26,2.18,1.61.78.14.36.74.6,1.58s2.13.91,2.13.91c.41,0,.42.23.36.36-1.26,3,.65,6.15.32,6.22-1.51.55-1.39,2.06-1,2.25-.68,0-1.25,1-1.09,1.33.62,1.15,1.06,1.17,1.34,2,.63,1.46,1.32,1.15,1.4,2.56.05,1,.22,1.36.44,1.6,1,1.07,2.43.15,2.89-.5,1.09.24,2.41-1.32,3.31-1.68a7.85,7.85,0,0,0,.51,2.34c.2.6-.1.46,0,1.49a6.79,6.79,0,0,0,.47,2.37c.12.26.09,1.61.33,2.31a2,2,0,0,0,2.52,1.83c.08,0,.08,0,.08-.46a18.45,18.45,0,0,0,.12-2.39,13.75,13.75,0,0,0,0-1.61,12.19,12.19,0,0,1,.32-2.82c.05-.17-.11-.14-.08-.51,0-.21.18-.18.11-.77a23.18,23.18,0,0,1,0-2.37c0-.82.17-1.46.34-3.47.07-.82.45-1.47.15-2.07-.46-.92-1.85-4.1-3.54-7.51,0-.07-.21-.37.24-.56.71-.39.5-.61.46-2,0-1,.78-.25.76-1.31,0-1.62-.17-2.26-.12-4.64,0-1,.05-1.22-.63-1.24H146.49A.4.4,0,0,0,146,103.59Z"/><path class="cls-15" d="M162.34,136.39c-.64.06-.49-1.13-.39-1.6.05-.28.5-.49.6-.21l-.16,1.75A.1.1,0,0,1,162.34,136.39Z"/><path class="cls-15" d="M154.88,127c-.1-.68-.38-.62-.34-1s.26,0,.22-1.7a1.77,1.77,0,0,0-.17-1.07c.13-.16.31-.54.08-.8.12-.6.19-.39,0-1.41-.32-1.37.24-1.64.56-2.28a.82.82,0,0,0,.08-.62c-.3-2.53-.29-1.43-.08-4.94.23-1.22.88-1.69,2.53-1.64,1.87.1,1.61.5,2.05,1.53,1.85,4.16,3.43,7,3.35,8,0,3.08-.6,2.51-.48,6.57.16,1.29-.5,1.25-.42,1.73s.39.06.28,1.3c-.23,2.53.2,3-.2,3.26s-.87.3-.73,1.93a1.32,1.32,0,0,0,0,.26c0,.2-.08.21-.23,0a5,5,0,0,1-.52-3.06c.14-.88-.2-.42-.2-1.88,0-.65,0-1.05.08-1.25a5.47,5.47,0,0,1-.16-2.29c.12-.49.28-.72,0-1.17a4.86,4.86,0,0,1-.4-2.85c.2-1.68.53-1.59.4-1.76-.3-.4-.85.41-1.48-.43-.33-.42,1-.88,1-1.3,0-.25-.27-.3-.54-.18s-.88.56-1.19.14c-.5-.68,1-1.91.38-2.85-.17-.23-.41,0-.38.28a2.64,2.64,0,0,1-.66,1.54,11,11,0,0,0-1.15,2.07c-.64,1.57-.16,2.09-.56,2.37s.15.73.24,1.29c.18,1.05-.69,3.46-1.22,3.23-.18-.09-.16-.25-.12-.47A1.58,1.58,0,0,0,154.88,127Z"/><path class="cls-15" d="M153.58,126.38c.52.25.6.27.7.78s-.28,1.73-.82,1.55c-.17-.13-.18-.67-.26-1S153,126.21,153.58,126.38Z"/><path class="cls-15" d="M149.33,110.58c0,.52.34.58.68.66s2.49-.24,5-.28a34.4,34.4,0,0,1,4.62.16c.33,0,.76.3.78-.16.08-1.5.2-2-1-2.21a48,48,0,0,0-9.6,0C149.62,108.92,149.18,108.61,149.33,110.58Z"/><line class="cls-13" x1="154.12" y1="213.12" x2="154.12" y2="352.91"/><path class="cls-14" d="M146,213.88c0-1,.06-2.51,0-4.72,0-1,.39-1.27,2.18-1.61.78-.15.36-.74.6-1.58s2.13-.91,2.13-.91c.41,0,.42-.23.36-.36-1.26-3,.65-6.16.32-6.23-1.51-.55-1.39-2.06-1-2.25-.68,0-1.25-1-1.09-1.32.62-1.16,1.06-1.18,1.34-2,.63-1.47,1.32-1.16,1.4-2.56.05-1,.22-1.37.44-1.61,1-1.06,2.43-.14,2.89.5,1.09-.24,2.41,1.33,3.31,1.69a7.89,7.89,0,0,1,.51-2.35c.2-.59-.1-.45,0-1.49a6.91,6.91,0,0,1,.47-2.37c.12-.25.09-1.6.33-2.3a2,2,0,0,1,2.52-1.83c.08,0,.08,0,.08.45a18.61,18.61,0,0,1,.12,2.4,13.57,13.57,0,0,1,0,1.6,12.27,12.27,0,0,0,.32,2.83c.05.17-.11.13-.08.51,0,.2.18.18.11.77a23,23,0,0,0,0,2.36c0,.83.17,1.47.34,3.48.07.82.45,1.47.15,2.07-.46.91-1.85,4.09-3.54,7.51,0,.07-.21.37.24.56.71.38.5.6.46,2,0,1,.78.25.76,1.3,0,1.63-.17,2.27-.12,4.64,0,1,.05,1.23-.63,1.25H146.49A.4.4,0,0,1,146,213.88Z"/><path class="cls-15" d="M162.34,181.08c-.64-.06-.49,1.12-.39,1.6.05.28.5.49.6.21l-.16-1.75A.08.08,0,0,0,162.34,181.08Z"/><path class="cls-15" d="M154.88,190.49c-.1.69-.38.62-.34,1s.26.05.22,1.71a1.8,1.8,0,0,1-.17,1.07c.13.16.31.54.08.8.12.6.19.39,0,1.41-.32,1.37.24,1.64.56,2.28a.8.8,0,0,1,.08.61c-.3,2.53-.29,1.44-.08,4.95.23,1.21.88,1.68,2.53,1.63,1.87-.1,1.61-.5,2.05-1.52,1.85-4.16,3.43-6.95,3.35-8,0-3.07-.6-2.51-.48-6.56.16-1.29-.5-1.25-.42-1.73s.39-.07.28-1.31c-.23-2.52.2-3-.2-3.25s-.87-.3-.73-1.94a1.56,1.56,0,0,1,0-.26c0-.2-.08-.21-.23,0a4.91,4.91,0,0,0-.52,3.05c.14.89-.2.43-.2,1.89,0,.64,0,1,.08,1.25a5.46,5.46,0,0,0-.16,2.29c.12.49.28.72,0,1.16a4.88,4.88,0,0,0-.4,2.85c.2,1.69.53,1.6.4,1.77-.3.39-.85-.41-1.48.42-.33.43,1,.89,1,1.31,0,.25-.27.3-.54.18s-.88-.56-1.19-.14c-.5.68,1,1.91.38,2.85-.17.22-.41,0-.38-.28a2.64,2.64,0,0,0-.66-1.55,10.38,10.38,0,0,1-1.15-2.07c-.64-1.56-.16-2.08-.56-2.37s.15-.73.24-1.28c.18-1.05-.69-3.47-1.22-3.24-.18.09-.16.26-.12.47A1.58,1.58,0,0,1,154.88,190.49Z"/><path class="cls-15" d="M153.58,191.08c.52-.24.6-.27.7-.77s-.28-1.73-.82-1.56c-.17.13-.18.67-.26,1S153,191.25,153.58,191.08Z"/><path class="cls-15" d="M149.33,206.88c0-.51.34-.57.68-.66s2.49.25,5,.29a32.39,32.39,0,0,0,4.62-.17c.33,0,.76-.29.78.17.08,1.5.2,2-1,2.21a48,48,0,0,1-9.6,0C149.62,208.55,149.18,208.86,149.33,206.88Z"/></g></g></svg>