<svg xmlns="http://www.w3.org/2000/svg" viewBox="0 0 652.18 405.58"><defs><style>.cls-1,.cls-11,.cls-12,.cls-13,.cls-2,.cls-7{fill:none;stroke-miterlimit:10;}.cls-1,.cls-2,.cls-7{stroke:#3e3a39;}.cls-2{stroke-dasharray:4 4;}.cls-3{fill:#231815;}.cls-4{font-size:21px;}.cls-15,.cls-4,.cls-8{font-family:MicrosoftYaHeiLight, Microsoft YaHei;}.cls-5{letter-spacing:-0.02em;}.cls-6{fill:#3e3a39;}.cls-7{stroke-width:2px;}.cls-8{font-size:15px;}.cls-9{font-size:22px;font-family:MicrosoftYaHei, Microsoft YaHei;}.cls-10{letter-spacing:-0.01em;}.cls-11,.cls-12{stroke:#231815;}.cls-12{stroke-dasharray:3.81 3.81;}.cls-13{stroke:#b5b5b6;}.cls-14{fill:#b5b5b6;}.cls-15{font-size:30px;}</style></defs><title>资源 29</title><g id="图层_2" data-name="图层 2"><g id="图层_1-2" data-name="图层 1"><line class="cls-1" x1="168.48" y1="54.94" x2="168.48" y2="347.96"/><line class="cls-2" x1="477.48" y1="54.94" x2="477.48" y2="347.96"/><circle class="cls-3" cx="477" cy="196.35" r="8.82"/><circle class="cls-3" cx="313" cy="231.94" r="8.82"/><circle class="cls-3" cx="419" cy="231.94" r="8.82"/><text class="cls-4" transform="translate(452.11 371.08)">futu<tspan class="cls-5" x="37.27" y="0">r</tspan><tspan x="44.31" y="0">e</tspan></text><text class="cls-4" transform="translate(153.28 371.08)">now</text><line class="cls-6" y1="308.26" x2="632" y2="308.26"/><line class="cls-7" y1="308.26" x2="617.88" y2="308.26"/><polygon class="cls-6" points="632 308.26 612.1 316.39 616.82 308.26 612.1 300.13 632 308.26"/><text class="cls-8" transform="translate(304.9 96.66)">至 ”x时” 还未完成</text><text class="cls-8" transform="translate(382.46 259.97)">已完成, <tspan x="-93.52" y="17">但对 ”x时” 有后果影响</tspan></text><text class="cls-8" transform="translate(502.18 96.66)">之后还将继续延续下去</text><text class="cls-8" transform="translate(422.07 401.66)">时间参照点 (x 时)</text><text class="cls-9" transform="translate(367.09 18.86)">will ha<tspan class="cls-10" x="67.15" y="0">v</tspan><tspan x="78.56" y="0">e been doing</tspan></text><line class="cls-11" x1="317" y1="231.94" x2="400.94" y2="231.94"/><polygon class="cls-3" points="408 231.94 398.05 236 400.41 231.94 398.05 227.87 408 231.94"/><line class="cls-11" x1="419" y1="231.94" x2="421" y2="231.94"/><line class="cls-12" x1="424.81" y1="231.94" x2="461.03" y2="231.94"/><line class="cls-11" x1="462.94" y1="231.94" x2="464.94" y2="231.94"/><polygon class="cls-3" points="472 231.94 462.05 236 464.41 231.94 462.05 227.87 472 231.94"/><line class="cls-13" x1="486" y1="196.35" x2="570.94" y2="196.35"/><polygon class="cls-14" points="578 196.35 568.05 200.42 570.41 196.35 568.05 192.29 578 196.35"/><line class="cls-13" x1="486" y1="152.94" x2="570.94" y2="152.94"/><polygon class="cls-14" points="578 152.94 568.05 157 570.41 152.94 568.05 148.87 578 152.94"/><line class="cls-13" x1="486" y1="106.94" x2="570.94" y2="106.94"/><polygon class="cls-14" points="578 106.94 568.05 111 570.41 106.94 568.05 102.87 578 106.94"/><circle class="cls-3" cx="477" cy="152.94" r="8.82"/><circle class="cls-3" cx="476.48" cy="152.94" r="8.82"/><circle class="cls-3" cx="313" cy="152.94" r="8.82"/><line class="cls-11" x1="313" y1="152.94" x2="459.12" y2="152.94"/><polygon class="cls-3" points="466.18 152.94 456.23 157 458.59 152.94 456.23 148.87 466.18 152.94"/><circle class="cls-3" cx="477" cy="108.94" r="8.82"/><line class="cls-11" x1="239" y1="108.94" x2="459.12" y2="108.94"/><polygon class="cls-3" points="466.18 108.94 456.23 113 458.59 108.94 456.23 104.87 466.18 108.94"/><text class="cls-15" transform="translate(266.63 158.91)">2.</text><text class="cls-15" transform="translate(432.01 205.91)">3.</text><text class="cls-15" transform="translate(266.76 239.91)">4.</text></g></g></svg>