<svg xmlns="http://www.w3.org/2000/svg" viewBox="0 0 345.16 165.88"><defs><style>.cls-1{font-size:16px;font-family:MicrosoftYaHeiLight, Microsoft YaHei;}.cls-2,.cls-4{fill:none;stroke-miterlimit:10;}.cls-2{stroke:#c30d23;}.cls-3{fill:#c30d23;}.cls-4{stroke:#3e3a39;}.cls-5{fill:#3e3a39;}</style></defs><title>资源 49</title><g id="图层_2" data-name="图层 2"><g id="图层_1-2" data-name="图层 1"><text class="cls-1" transform="translate(0 13.7)">名词从句<tspan x="0" y="74">定语从句</tspan><tspan x="0" y="148">状语从句</tspan></text><text class="cls-1" transform="translate(238 13.7)">-ing 动名词<tspan x="0" y="74">to do 不定式</tspan><tspan x="0" y="148">-ing / -ed 分词</tspan></text><line class="cls-2" x1="82.28" y1="6.34" x2="222.16" y2="6.34"/><polygon class="cls-3" points="75.22 6.34 85.17 10.41 82.81 6.34 85.17 2.28 75.22 6.34"/><polygon class="cls-3" points="229.22 6.34 219.27 10.41 221.63 6.34 219.27 2.28 229.22 6.34"/><line class="cls-4" x1="82.28" y1="82.34" x2="222.16" y2="82.34"/><polygon class="cls-5" points="75.22 82.34 85.17 86.41 82.81 82.34 85.17 78.28 75.22 82.34"/><polygon class="cls-5" points="229.22 82.34 219.27 86.41 221.63 82.34 219.27 78.28 229.22 82.34"/><line class="cls-2" x1="82.28" y1="158.03" x2="222.16" y2="158.03"/><polygon class="cls-3" points="75.22 158.03 85.17 162.09 82.81 158.03 85.17 153.96 75.22 158.03"/><polygon class="cls-3" points="229.22 158.03 219.27 162.09 221.63 158.03 219.27 153.96 229.22 158.03"/><line class="cls-4" x1="82.11" y1="18.42" x2="222.96" y2="73.76"/><polygon class="cls-5" points="75.53 15.84 83.31 23.26 82.6 18.62 86.28 15.7 75.53 15.84"/><polygon class="cls-5" points="229.53 76.34 218.79 76.49 222.47 73.57 221.76 68.92 229.53 76.34"/><line class="cls-2" x1="82.11" y1="90.74" x2="222.96" y2="146.08"/><polygon class="cls-3" points="75.53 88.16 83.31 95.58 82.6 90.93 86.28 88.01 75.53 88.16"/><polygon class="cls-3" points="229.53 148.66 218.79 148.8 222.47 145.88 221.76 141.24 229.53 148.66"/><line class="cls-4" x1="221.9" y1="91.86" x2="83.17" y2="152.33"/><polygon class="cls-5" points="228.37 89.04 217.63 89.28 221.41 92.07 220.87 96.74 228.37 89.04"/><polygon class="cls-5" points="76.7 155.15 84.19 147.45 83.65 152.12 87.44 154.9 76.7 155.15"/></g></g></svg>