<svg xmlns="http://www.w3.org/2000/svg" viewBox="0 0 500 321.64"><defs><style>.cls-1{fill:#dcdddd;}.cls-2,.cls-6,.cls-7,.cls-8{fill:none;stroke-miterlimit:10;}.cls-2,.cls-6{stroke:#3e3a39;}.cls-3{font-size:21px;}.cls-10,.cls-3{font-family:MicrosoftYaHeiLight, Microsoft YaHei;}.cls-4{letter-spacing:-0.02em;}.cls-5{fill:#3e3a39;}.cls-6{stroke-width:2px;}.cls-7,.cls-8{stroke:#231815;}.cls-8{stroke-dasharray:3.81 3.81;}.cls-10,.cls-9{fill:#231815;}.cls-10{font-size:14px;}</style></defs><title>资源 20</title><g id="图层_2" data-name="图层 2"><g id="图层_1-2" data-name="图层 1"><rect class="cls-1" x="207.89" y="94" width="25" height="62"/><line class="cls-2" x1="220.48" x2="220.48" y2="293.03"/><text class="cls-3" transform="translate(201.88 316.14)">now</text><text class="cls-3" transform="translate(330.11 316.14)">futu<tspan class="cls-4" x="37.27" y="0">r</tspan><tspan x="44.31" y="0">e</tspan></text><text class="cls-3" transform="translate(60.66 316.14)">past</text><line class="cls-5" y1="253.32" x2="500" y2="253.32"/><line class="cls-6" y1="253.32" x2="485.88" y2="253.32"/><polygon class="cls-5" points="500 253.32 480.1 261.45 484.82 253.32 480.1 245.19 500 253.32"/><line class="cls-7" x1="219.5" y1="137.02" x2="221.5" y2="137.02"/><line class="cls-8" x1="225.31" y1="137.02" x2="261.53" y2="137.02"/><line class="cls-7" x1="263.44" y1="137.02" x2="265.44" y2="137.02"/><polygon class="cls-9" points="272.5 137.02 262.55 141.08 264.91 137.02 262.55 132.95 272.5 137.02"/><rect class="cls-9" x="208.95" y="125.48" width="23.06" height="23.06" rx="11.53" ry="11.53"/><text class="cls-10" transform="translate(88.4 132.97)">有限延续动词<tspan x="-16.33" y="16.8">(有&quot;具体动作&quot;意味)</tspan></text><text class="cls-10" transform="translate(143.94 82.67)">段期时间段</text><text class="cls-10" transform="translate(104.56 185.04)">表示事件在&quot;延续&quot;</text></g></g></svg>