<svg xmlns="http://www.w3.org/2000/svg" viewBox="0 0 98.8 81.34"><defs><style>.cls-1,.cls-4{fill:none;stroke:#231815;stroke-miterlimit:10;}.cls-1{stroke-width:0.32px;}.cls-2,.cls-3{fill:#231815;}.cls-3{font-size:5px;font-family:MicrosoftYaHeiLight, Microsoft YaHei;}.cls-4{stroke-width:0.25px;}</style></defs><title>资源 1</title><g id="图层_2" data-name="图层 2"><g id="图层_1-2" data-name="图层 1"><polyline class="cls-1" points="1.31 79.06 1.31 11.45 96.53 11.45"/><polygon class="cls-2" points="1.31 81.34 2.62 78.13 1.31 78.89 0 78.13 1.31 81.34"/><polygon class="cls-2" points="98.8 11.45 95.59 12.76 96.36 11.45 95.59 10.14 98.8 11.45"/><text class="cls-3" transform="translate(10.27 42.68)">obj 1<tspan x="0" y="14">obj 2</tspan><tspan x="0" y="28">obj 3</tspan></text><text class="cls-3" transform="translate(29.27 26.19)">var1</text><text class="cls-3" transform="translate(52.21 26.19)">var2</text><text class="cls-3" transform="translate(76.94 26.19)">var3</text><line class="cls-4" x1="10.27" y1="31.88" x2="98.8" y2="31.88"/><line class="cls-4" x1="10.27" y1="46.39" x2="98.8" y2="46.39"/><line class="cls-4" x1="10.27" y1="60.91" x2="98.8" y2="60.91"/><line class="cls-4" x1="10.27" y1="75.43" x2="98.8" y2="75.43"/><line class="cls-4" x1="91.27" y1="21.75" x2="91.27" y2="75.43"/><line class="cls-4" x1="69.35" y1="21.75" x2="69.35" y2="75.43"/><line class="cls-4" x1="47.43" y1="21.75" x2="47.43" y2="75.43"/><line class="cls-4" x1="25.5" y1="21.75" x2="25.5" y2="75.43"/><text class="cls-3" transform="translate(33.45 4.28)">二轴模型 : 表格式</text></g></g></svg>