<svg xmlns="http://www.w3.org/2000/svg" viewBox="0 0 1121.4 494.07"><defs><style>.cls-1{fill:#dcdddd;}.cls-2{fill:none;stroke:#231815;stroke-miterlimit:10;}.cls-3{fill:#231815;}.cls-4{font-size:18px;}.cls-4,.cls-5{font-family:MicrosoftYaHeiLight, Microsoft YaHei;}.cls-5{font-size:57.81px;}</style></defs><title>资源 1</title><g id="图层_2" data-name="图层 2"><g id="图层_1-2" data-name="图层 1"><circle class="cls-1" cx="1067.2" cy="234.89" r="41.25"/><circle class="cls-1" cx="750.71" cy="234.89" r="41.25"/><circle class="cls-1" cx="750.71" cy="393.89" r="41.25"/><line class="cls-2" x1="244.14" y1="345.26" x2="487.08" y2="345.26"/><polygon class="cls-3" points="494.14 345.26 484.19 349.32 486.55 345.26 484.19 341.19 494.14 345.26"/><line class="cls-2" x1="369.14" y1="203.51" x2="369.14" y2="494.07"/><polygon class="cls-3" points="369.14 196.45 365.07 206.4 369.14 204.04 373.2 206.4 369.14 196.45"/><path class="cls-2" d="M270,401.12c0-23.17,45.66-41.94,102-41.94S474,378,474,401.12"/><path class="cls-2" d="M270,260.57c0-23.16,45.66-41.94,102-41.94s102,18.78,102,41.94"/><path class="cls-2" d="M474,291.13c0,23.16-45.67,41.94-102,41.94s-102-18.78-102-41.94"/><path class="cls-2" d="M474,429.2c0,23.17-45.67,41.94-102,41.94S270,452.37,270,429.2"/><line class="cls-2" x1="561.44" y1="345.26" x2="804.38" y2="345.26"/><polygon class="cls-3" points="811.44 345.26 801.49 349.32 803.85 345.26 801.49 341.19 811.44 345.26"/><line class="cls-2" x1="686.44" y1="203.51" x2="686.44" y2="494.07"/><polygon class="cls-3" points="686.44 196.45 682.37 206.4 686.44 204.04 690.5 206.4 686.44 196.45"/><path class="cls-2" d="M587.29,401.12c0-23.17,45.66-41.94,102-41.94s102,18.77,102,41.94"/><path class="cls-2" d="M587.29,260.57c0-23.16,45.66-41.94,102-41.94s102,18.78,102,41.94"/><line class="cls-2" x1="871.4" y1="345.26" x2="1114.34" y2="345.26"/><polygon class="cls-3" points="1121.4 345.26 1111.45 349.32 1113.82 345.26 1111.45 341.19 1121.4 345.26"/><line class="cls-2" x1="996.4" y1="203.51" x2="996.4" y2="494.07"/><polygon class="cls-3" points="996.4 196.45 992.34 206.4 996.4 204.04 1000.47 206.4 996.4 196.45"/><path class="cls-2" d="M897.25,260.57c0-23.16,45.67-41.94,102-41.94s102,18.78,102,41.94"/><text class="cls-4" transform="translate(0 133.65)">判断<tspan x="0" y="21.6">奇函数, 还是偶函数 ? </tspan></text><text class="cls-4" transform="translate(277.49 133.65)">判断<tspan x="0" y="21.6">该偶函数开口向上, 还是开口向下?</tspan><tspan x="0" y="43.2">即是增函数, 还是减函数?</tspan></text><text class="cls-4" transform="translate(595.47 133.65)">判断该减函数, <tspan x="0" y="21.6">是在第1象限, 还是第3象限? </tspan></text><text class="cls-5" transform="translate(47.84 49.48)">1</text><text class="cls-5" transform="translate(339.32 49.48)">2</text><text class="cls-5" transform="translate(666.81 49.48)">3</text><text class="cls-5" transform="translate(994.29 49.48)">4</text></g></g></svg>