<svg xmlns="http://www.w3.org/2000/svg" viewBox="0 0 509.33 403.11"><defs><style>.cls-1,.cls-10,.cls-5,.cls-7,.cls-9{fill:none;stroke-miterlimit:10;}.cls-1,.cls-10{stroke:#231815;}.cls-2,.cls-3,.cls-4{font-size:24px;font-family:MicrosoftYaHeiLight, Microsoft YaHei;}.cls-3,.cls-6{fill:#00a29a;}.cls-4,.cls-8{fill:#c30d23;}.cls-5{stroke:#00a29a;}.cls-7{stroke:#c30d23;}.cls-9{stroke:#000;}.cls-10{stroke-dasharray:4 4;}</style></defs><title>资源 2</title><g id="图层_2" data-name="图层 2"><g id="图层_1-2" data-name="图层 1"><circle class="cls-1" cx="231.47" cy="201.56" r="135.9"/><line class="cls-1" x1="29.91" y1="201.56" x2="433.03" y2="201.56"/><line class="cls-1" x1="231.47" x2="231.47" y2="403.11"/><line class="cls-1" x1="231.47" y1="201.56" x2="336.56" y2="116.15"/><line class="cls-1" x1="230.83" y1="201.56" x2="122.39" y2="116.15"/><text class="cls-2" transform="translate(0 211.37)">π</text><text class="cls-2" transform="translate(446.42 211.37)">0 , 2π</text><text class="cls-3" transform="translate(305.43 186.81)">α</text><text class="cls-4" transform="translate(209.73 120.81)">π-α</text><text class="cls-2" transform="translate(144.94 189.81)">α</text><path class="cls-5" d="M282.56,201.85c1.37-9.49-1.66-18.38-8.18-22.81a15.35,15.35,0,0,0-1.67-1"/><polygon class="cls-6" points="265.92 176.08 276.63 175.25 273.14 178.4 274.14 182.99 265.92 176.08"/><path class="cls-7" d="M296.9,202.72c-.59-4.1-6.82-42.5-42.49-61.44-25-13.3-55.58-12.22-80.53,2.33"/><polygon class="cls-8" points="167.93 147.42 174.21 138.7 174.36 143.4 178.52 145.59 167.93 147.42"/><path class="cls-9" d="M188.85,177.92c-6,2.89-10.43,7.65-11.83,13.37a18,18,0,0,0,.19,9"/><polygon points="195.53 175.65 184.79 175.21 188.4 178.23 187.56 182.85 195.53 175.65"/><circle cx="338.5" cy="117.96" r="5.62"/><circle cx="122.39" cy="117.96" r="5.62"/><line class="cls-10" x1="336.56" y1="116.15" x2="336.56" y2="200.15"/><line class="cls-10" x1="122.07" y1="116.15" x2="122.07" y2="200.15"/><text class="cls-2" transform="translate(329.06 227.83)">D</text><text class="cls-2" transform="translate(241.38 232.33)">O</text><text class="cls-2" transform="translate(329.06 92.84)">C</text><text class="cls-2" transform="translate(120.57 227.83)">B</text><text class="cls-2" transform="translate(120.57 95.84)">A</text></g></g></svg>