<svg xmlns="http://www.w3.org/2000/svg" xmlns:xlink="http://www.w3.org/1999/xlink" viewBox="0 0 494.72 325.57"><defs><style>.cls-1,.cls-10,.cls-12,.cls-2,.cls-32,.cls-34,.cls-4,.cls-7,.cls-9{fill:none;}.cls-1{clip-rule:evenodd;}.cls-2{fill-rule:evenodd;}.cls-3{fill:#fff100;}.cls-32,.cls-4{stroke:#d9d9d9;}.cls-10,.cls-12,.cls-32,.cls-4,.cls-7,.cls-9{stroke-linejoin:round;}.cls-4{stroke-width:0.72px;}.cls-5{clip-path:url(#clip-path);}.cls-6{clip-path:url(#clip-path-2);}.cls-7,.cls-9{stroke:#4f81bd;}.cls-10,.cls-7{stroke-linecap:round;stroke-width:2.16px;}.cls-8{fill:#4f81bd;}.cls-12,.cls-32,.cls-9{stroke-width:0.72px;}.cls-10,.cls-12{stroke:#c0504d;}.cls-11{fill:#c0504d;}.cls-13{font-size:9px;fill:#595959;}.cls-13,.cls-17,.cls-20,.cls-33{font-family:MicrosoftYaHei, Microsoft YaHei;}.cls-14{letter-spacing:0em;}.cls-15{letter-spacing:-0.01em;}.cls-16{letter-spacing:0.01em;}.cls-17,.cls-19,.cls-33{font-size:13px;}.cls-17{fill:#036eb8;}.cls-18,.cls-19{fill:#231815;}.cls-19{font-family:MicrosoftYaHei-Bold, Microsoft YaHei;font-weight:700;}.cls-20{font-weight:400;}.cls-21{letter-spacing:0em;}.cls-22{letter-spacing:0em;}.cls-23{letter-spacing:0em;}.cls-24{letter-spacing:0em;}.cls-25{letter-spacing:0em;}.cls-26{letter-spacing:0.01em;}.cls-27{letter-spacing:0em;}.cls-28{letter-spacing:0em;}.cls-29{letter-spacing:0em;}.cls-30{letter-spacing:-0.01em;}.cls-31{letter-spacing:0.01em;}.cls-33{fill:#c30d23;}.cls-34{stroke:#231815;stroke-miterlimit:10;}</style><clipPath id="clip-path" transform="translate(-386.31 -285.24)"><polygon class="cls-1" points="386.55 518.67 746.55 518.67 746.55 302.67 386.55 302.67 386.55 518.67 386.55 518.67"/></clipPath><clipPath id="clip-path-2" transform="translate(-386.31 -285.24)"><polygon class="cls-1" points="436.23 473.67 736.35 473.67 736.35 340.83 436.23 340.83 436.23 473.67 436.23 473.67"/></clipPath></defs><g id="图层_2" data-name="图层 2"><polyline class="cls-3" points="217.06 145.92 246.91 158.42 334.32 172.35 334.32 188.43 244.56 184.47 216.13 144.62"/></g><g id="图层_1" data-name="图层 1"><path class="cls-4" d="M436.35,451H735.63M436.35,429H735.63M436.35,407H735.63M436.35,385H735.63M436.35,362.91H735.63M436.35,340.83H735.63" transform="translate(-386.31 -285.24)"/><g class="cls-5"><line class="cls-4" x1="50.04" y1="187.83" x2="349.32" y2="187.83"/></g><g class="cls-6"><polyline class="cls-7" points="65.04 79.83 94.92 90.87 124.8 106.35 154.8 133.83 184.68 139.35 214.68 144.87 244.56 158.07 274.44 162.51 304.44 166.83 334.32 172.35"/></g><g class="cls-5"><path class="cls-8" d="M453.82,365.08a2.52,2.52,0,1,1-2.52-2.52,2.52,2.52,0,0,1,2.52,2.52Z" transform="translate(-386.31 -285.24)"/><path class="cls-9" d="M453.82,365.08a2.52,2.52,0,1,1-2.52-2.52,2.52,2.52,0,0,1,2.52,2.52Z" transform="translate(-386.31 -285.24)"/><path class="cls-8" d="M483.7,376.12a2.52,2.52,0,1,1-2.52-2.52,2.52,2.52,0,0,1,2.52,2.52Z" transform="translate(-386.31 -285.24)"/><path class="cls-9" d="M483.7,376.12a2.52,2.52,0,1,1-2.52-2.52,2.52,2.52,0,0,1,2.52,2.52Z" transform="translate(-386.31 -285.24)"/><path class="cls-8" d="M513.58,391.6a2.52,2.52,0,1,1-2.52-2.52,2.52,2.52,0,0,1,2.52,2.52Z" transform="translate(-386.31 -285.24)"/><path class="cls-9" d="M513.58,391.6a2.52,2.52,0,1,1-2.52-2.52,2.52,2.52,0,0,1,2.52,2.52Z" transform="translate(-386.31 -285.24)"/><path class="cls-8" d="M543.58,419.08a2.52,2.52,0,1,1-2.52-2.52,2.52,2.52,0,0,1,2.52,2.52Z" transform="translate(-386.31 -285.24)"/><path class="cls-9" d="M543.58,419.08a2.52,2.52,0,1,1-2.52-2.52,2.52,2.52,0,0,1,2.52,2.52Z" transform="translate(-386.31 -285.24)"/><path class="cls-8" d="M573.46,424.6a2.52,2.52,0,1,1-2.52-2.52,2.52,2.52,0,0,1,2.52,2.52Z" transform="translate(-386.31 -285.24)"/><path class="cls-9" d="M573.46,424.6a2.52,2.52,0,1,1-2.52-2.52,2.52,2.52,0,0,1,2.52,2.52Z" transform="translate(-386.31 -285.24)"/><path class="cls-8" d="M603.46,430.12a2.52,2.52,0,1,1-2.52-2.52,2.52,2.52,0,0,1,2.52,2.52Z" transform="translate(-386.31 -285.24)"/><path class="cls-9" d="M603.46,430.12a2.52,2.52,0,1,1-2.52-2.52,2.52,2.52,0,0,1,2.52,2.52Z" transform="translate(-386.31 -285.24)"/><path class="cls-8" d="M633.34,443.32a2.52,2.52,0,1,1-2.52-2.52,2.52,2.52,0,0,1,2.52,2.52Z" transform="translate(-386.31 -285.24)"/><path class="cls-9" d="M633.34,443.32a2.52,2.52,0,1,1-2.52-2.52,2.52,2.52,0,0,1,2.52,2.52Z" transform="translate(-386.31 -285.24)"/><path class="cls-8" d="M663.22,447.76a2.52,2.52,0,1,1-2.52-2.52,2.52,2.52,0,0,1,2.52,2.52Z" transform="translate(-386.31 -285.24)"/><path class="cls-9" d="M663.22,447.76a2.52,2.52,0,1,1-2.52-2.52,2.52,2.52,0,0,1,2.52,2.52Z" transform="translate(-386.31 -285.24)"/><path class="cls-8" d="M693.22,452.08a2.52,2.52,0,1,1-2.52-2.52,2.52,2.52,0,0,1,2.52,2.52Z" transform="translate(-386.31 -285.24)"/><path class="cls-9" d="M693.22,452.08a2.52,2.52,0,1,1-2.52-2.52,2.52,2.52,0,0,1,2.52,2.52Z" transform="translate(-386.31 -285.24)"/><path class="cls-8" d="M723.1,457.6a2.52,2.52,0,1,1-2.52-2.52,2.52,2.52,0,0,1,2.52,2.52Z" transform="translate(-386.31 -285.24)"/><path class="cls-9" d="M723.1,457.6a2.52,2.52,0,1,1-2.52-2.52,2.52,2.52,0,0,1,2.52,2.52Z" transform="translate(-386.31 -285.24)"/></g><g class="cls-6"><polyline class="cls-10" points="65.04 75.51 94.92 86.43 124.8 104.07 154.8 131.67 184.68 137.19 214.68 142.59 244.56 184.47 274.44 185.55 304.44 186.63 334.32 186.63"/></g><g class="cls-5"><path class="cls-11" d="M453.82,360.76a2.52,2.52,0,1,1-2.52-2.52,2.52,2.52,0,0,1,2.52,2.52Z" transform="translate(-386.31 -285.24)"/><path class="cls-12" d="M453.82,360.76a2.52,2.52,0,1,1-2.52-2.52,2.52,2.52,0,0,1,2.52,2.52Z" transform="translate(-386.31 -285.24)"/><path class="cls-11" d="M483.7,371.68a2.52,2.52,0,1,1-2.52-2.52,2.52,2.52,0,0,1,2.52,2.52Z" transform="translate(-386.31 -285.24)"/><path class="cls-12" d="M483.7,371.68a2.52,2.52,0,1,1-2.52-2.52,2.52,2.52,0,0,1,2.52,2.52Z" transform="translate(-386.31 -285.24)"/><path class="cls-11" d="M513.58,389.32a2.52,2.52,0,1,1-2.52-2.52,2.52,2.52,0,0,1,2.52,2.52Z" transform="translate(-386.31 -285.24)"/><path class="cls-12" d="M513.58,389.32a2.52,2.52,0,1,1-2.52-2.52,2.52,2.52,0,0,1,2.52,2.52Z" transform="translate(-386.31 -285.24)"/><path class="cls-11" d="M543.58,416.92a2.52,2.52,0,1,1-2.52-2.52,2.52,2.52,0,0,1,2.52,2.52Z" transform="translate(-386.31 -285.24)"/><path class="cls-12" d="M543.58,416.92a2.52,2.52,0,1,1-2.52-2.52,2.52,2.52,0,0,1,2.52,2.52Z" transform="translate(-386.31 -285.24)"/><path class="cls-11" d="M573.46,422.44a2.52,2.52,0,1,1-2.52-2.52,2.52,2.52,0,0,1,2.52,2.52Z" transform="translate(-386.31 -285.24)"/><path class="cls-12" d="M573.46,422.44a2.52,2.52,0,1,1-2.52-2.52,2.52,2.52,0,0,1,2.52,2.52Z" transform="translate(-386.31 -285.24)"/><path class="cls-11" d="M603.46,427.84a2.52,2.52,0,1,1-2.52-2.52,2.52,2.52,0,0,1,2.52,2.52Z" transform="translate(-386.31 -285.24)"/><path class="cls-12" d="M603.46,427.84a2.52,2.52,0,1,1-2.52-2.52,2.52,2.52,0,0,1,2.52,2.52Z" transform="translate(-386.31 -285.24)"/><path class="cls-11" d="M633.34,469.72a2.52,2.52,0,1,1-2.52-2.52,2.52,2.52,0,0,1,2.52,2.52Z" transform="translate(-386.31 -285.24)"/><path class="cls-12" d="M633.34,469.72a2.52,2.52,0,1,1-2.52-2.52,2.52,2.52,0,0,1,2.52,2.52Z" transform="translate(-386.31 -285.24)"/><path class="cls-11" d="M663.22,470.8a2.52,2.52,0,1,1-2.52-2.52,2.52,2.52,0,0,1,2.52,2.52Z" transform="translate(-386.31 -285.24)"/><path class="cls-12" d="M663.22,470.8a2.52,2.52,0,1,1-2.52-2.52,2.52,2.52,0,0,1,2.52,2.52Z" transform="translate(-386.31 -285.24)"/><path class="cls-11" d="M693.22,471.88a2.52,2.52,0,1,1-2.52-2.52,2.52,2.52,0,0,1,2.52,2.52Z" transform="translate(-386.31 -285.24)"/><path class="cls-12" d="M693.22,471.88a2.52,2.52,0,1,1-2.52-2.52,2.52,2.52,0,0,1,2.52,2.52Z" transform="translate(-386.31 -285.24)"/><path class="cls-11" d="M723.1,471.88a2.52,2.52,0,1,1-2.52-2.52,2.52,2.52,0,0,1,2.52,2.52Z" transform="translate(-386.31 -285.24)"/><path class="cls-12" d="M723.1,471.88a2.52,2.52,0,1,1-2.52-2.52,2.52,2.52,0,0,1,2.52,2.52Z" transform="translate(-386.31 -285.24)"/></g><text class="cls-13" transform="translate(36.76 190.75)">0</text><text class="cls-13" transform="translate(11.81 168.73)"><tspan class="cls-14">2</tspan><tspan class="cls-15" x="5.32" y="0">0</tspan><tspan class="cls-14" x="10.54" y="0">0</tspan><tspan class="cls-15" x="15.86" y="0">0</tspan><tspan class="cls-14" x="21.08" y="0">0</tspan><tspan x="26.4" y="0">0</tspan></text><text class="cls-13" transform="translate(11.81 146.7)"><tspan class="cls-14">4</tspan><tspan class="cls-15" x="5.32" y="0">0</tspan><tspan class="cls-14" x="10.54" y="0">0</tspan><tspan class="cls-15" x="15.86" y="0">0</tspan><tspan class="cls-14" x="21.08" y="0">0</tspan><tspan x="26.4" y="0">0</tspan></text><text class="cls-13" transform="translate(11.81 124.67)"><tspan class="cls-14">6</tspan><tspan class="cls-15" x="5.32" y="0">0</tspan><tspan class="cls-14" x="10.54" y="0">0</tspan><tspan class="cls-15" x="15.86" y="0">0</tspan><tspan class="cls-14" x="21.08" y="0">0</tspan><tspan x="26.4" y="0">0</tspan></text><text class="cls-13" transform="translate(11.81 102.65)"><tspan class="cls-14">8</tspan><tspan class="cls-15" x="5.32" y="0">0</tspan><tspan class="cls-14" x="10.54" y="0">0</tspan><tspan class="cls-15" x="15.86" y="0">0</tspan><tspan class="cls-14" x="21.08" y="0">0</tspan><tspan x="26.4" y="0">0</tspan></text><text class="cls-13" transform="translate(6.81 80.63)"><tspan class="cls-14">1</tspan><tspan class="cls-15" x="5.32" y="0">0</tspan><tspan class="cls-14" x="10.54" y="0">0</tspan><tspan class="cls-15" x="15.86" y="0">0</tspan><tspan class="cls-14" x="21.08" y="0">00</tspan><tspan x="31.72" y="0">0</tspan></text><text class="cls-13" transform="translate(6.81 58.61)"><tspan class="cls-14">1</tspan><tspan class="cls-15" x="5.32" y="0">2</tspan><tspan class="cls-14" x="10.54" y="0">0</tspan><tspan class="cls-15" x="15.86" y="0">0</tspan><tspan class="cls-14" x="21.08" y="0">00</tspan><tspan x="31.72" y="0">0</tspan></text><text class="cls-13" transform="translate(62.49 202.37)">1</text><text class="cls-13" transform="translate(92.42 202.37)">2</text><text class="cls-13" transform="translate(122.34 202.37)">3</text><text class="cls-13" transform="translate(152.28 202.37)">4</text><text class="cls-13" transform="translate(182.2 202.37)">5</text><text class="cls-13" transform="translate(212.13 202.37)">6</text><text class="cls-13" transform="translate(242.07 202.37)">7</text><text class="cls-13" transform="translate(271.99 202.37)">8</text><text class="cls-13" transform="translate(301.93 202.37)">9</text><text class="cls-13" transform="translate(329.36 202.37)"><tspan class="cls-16">1</tspan><tspan x="5.32" y="0">0</tspan></text><text class="cls-17" transform="translate(49.94 24.64)"><tspan xml:space="preserve"> A </tspan><tspan class="cls-18" x="16.84" y="0">赢得普选票（多60万票），但输了总统选举</tspan></text><text class="cls-19" transform="translate(184.06 265.26)">这块黄色空间, 就是A比B 赢得大量普选人心,<tspan x="48.25" y="19">却被 选举人票 忽视的地方. </tspan><tspan class="cls-20"><tspan x="7.52" y="38">它只看微赢(相对值), 不看你绝对值高多少.</tspan></tspan></text><g class="cls-5"><line class="cls-7" x1="107.76" y1="219.15" x2="126.96" y2="219.15"/></g><g class="cls-5"><path class="cls-8" d="M506.19,504.27a2.52,2.52,0,1,1-2.52-2.52,2.52,2.52,0,0,1,2.52,2.52Z" transform="translate(-386.31 -285.24)"/><path class="cls-9" d="M506.19,504.27a2.52,2.52,0,1,1-2.52-2.52,2.52,2.52,0,0,1,2.52,2.52Z" transform="translate(-386.31 -285.24)"/></g><text class="cls-13" transform="translate(129.03 222.1)"><tspan class="cls-21">V</tspan><tspan class="cls-22" x="6.12" y="0">o</tspan><tspan class="cls-23" x="11.83" y="0">t</tspan><tspan class="cls-24" x="15.14" y="0">e</tspan><tspan class="cls-25" x="20.28" y="0">s</tspan><tspan class="cls-24" x="24.43" y="0"> </tspan><tspan class="cls-15" x="27.12" y="0">f</tspan><tspan class="cls-26" x="30.18" y="0">o</tspan><tspan class="cls-15" x="36" y="0">r</tspan><tspan class="cls-24" x="39.38" y="0"> </tspan><tspan x="42.06" y="0">A</tspan></text><g class="cls-5"><line class="cls-10" x1="188.88" y1="219.15" x2="208.08" y2="219.15"/></g><g class="cls-5"><path class="cls-11" d="M587.31,504.27a2.52,2.52,0,1,1-2.52-2.52,2.52,2.52,0,0,1,2.52,2.52Z" transform="translate(-386.31 -285.24)"/><path class="cls-12" d="M587.31,504.27a2.52,2.52,0,1,1-2.52-2.52,2.52,2.52,0,0,1,2.52,2.52Z" transform="translate(-386.31 -285.24)"/></g><text class="cls-13" transform="translate(210.16 222.1)"><tspan class="cls-21">V</tspan><tspan class="cls-25" x="6.12" y="0">o</tspan><tspan class="cls-27" x="11.83" y="0">t</tspan><tspan class="cls-28" x="15.14" y="0">e</tspan><tspan class="cls-25" x="20.28" y="0">s</tspan><tspan class="cls-29" x="24.43" y="0"> </tspan><tspan class="cls-30" x="27.12" y="0">f</tspan><tspan class="cls-31" x="30.18" y="0">o</tspan><tspan class="cls-30" x="36" y="0">r</tspan><tspan class="cls-29" x="39.38" y="0"> </tspan><tspan x="42.07" y="0">B</tspan></text><polygon class="cls-32" points="0.36 0.36 360.36 0.36 360.36 233.43 0.36 233.43 0.36 0.36 0.36 0.36"/><text class="cls-17" transform="translate(292.49 156.59)">A (普选赢)</text><text class="cls-33" transform="translate(346.21 190.87)">B (选举人团 票赢, 成总统)</text><text class="cls-33" transform="translate(75.81 72.07)">B 赢者通吃</text></g><g id="图层_3" data-name="图层 3"><line class="cls-34" x1="292.64" y1="181.39" x2="292.64" y2="245.96"/><polygon class="cls-18" points="292.64 174.33 288.57 184.28 292.64 181.92 296.7 184.28 292.64 174.33"/></g></svg>