<svg width="1083" xmlns="http://www.w3.org/2000/svg" xmlns:xlink="http://www.w3.org/1999/xlink" height="671" viewBox="0 0 1083 671">
    <defs/>
    <g transform="translate(-236.00,-226.00)">
        <g transform="translate(237.00,265.00)" id="shape1">
            <path d="M.0,.0L160.0,.0L160.0,207.0L.0,207.0L.0,.0z" fill="#ffffff" fill-rule="nonzero" stroke="#323232"/>
            <text style="fill:#191919;font-family:Microsoft YaHei;font-size:10.00pt" xml:space="preserve">
                <tspan y="90.0" x="22.0">官员有"免税免役权"</tspan>
                <tspan y="109.0" x="13.0">(官员的家庭不用交税，</tspan>
                <tspan y="128.0" x="39.0">也不必服劳役)</tspan>
            </text>
        </g>
        <g transform="translate(549.00,265.00)" id="shape2">
            <path d="M.0,.0L160.0,.0L160.0,37.0L.0,37.0L.0,.0z" fill="#ffffff" fill-rule="nonzero" stroke="#323232"/>
            <text style="fill:#191919;font-family:Microsoft YaHei;font-size:10.00pt" xml:space="preserve">
                <tspan y="24.0" x="54.0">大量百姓</tspan>
            </text>
        </g>
        <g transform="translate(629.00,302.00)" id="shape3">
            <path d="M.0,.0L.0,66.5L-226.0,66.5" fill="none" stroke="#191919"/>
            <path d="M-226.0,69.5L-232.0,66.5L-226.0,63.5L-226.0,69.5" fill="#191919" stroke="#191919" stroke-linecap="round" stroke-width="1"/>
            <rect y="38.0" width="117.0" fill="#ffffff" height="19.0" x="-164.0"/>
            <rect y="57.0" width="91.0" fill="#ffffff" height="19.0" x="-151.0"/>
            <rect y="76.0" width="81.0" fill="#ffffff" height="19.0" x="-146.0"/>
            <text style="fill:#191919;font-family:Microsoft YaHei;font-size:10.00pt" xml:space="preserve">
                <tspan y="53.0" x="-164.0">就投靠到官员之家，</tspan>
                <tspan y="72.0" x="-151.0">把土地投献上，</tspan>
                <tspan y="91.0" x="-146.0">以求少交赋税.</tspan>
            </text>
        </g>
        <g transform="translate(257.00,227.00)" id="shape4">
            <text style="fill:#191919;font-family:Microsoft YaHei;font-size:10.00pt" xml:space="preserve">
                <tspan y="26.5" x="47.0">明代</tspan>
            </text>
        </g>
        <g transform="translate(786.00,349.50)" id="shape5">
            <path d="M.0,.0L112.0,.0L112.0,38.0L.0,38.0L.0,.0z" fill="#ffffff" fill-rule="nonzero" stroke="#323232"/>
            <text style="fill:#191919;font-family:Microsoft YaHei;font-size:10.00pt" xml:space="preserve">
                <tspan y="24.5" x="23.5">剩下的百姓</tspan>
            </text>
        </g>
        <g transform="translate(652.52,302.00)" id="shape6">
            <path d="M.0,.0L.0,66.5L127.5,66.5" fill="none" stroke="#c00000"/>
            <path d="M127.5,63.5L133.5,66.5L127.5,69.5L127.5,63.5" fill="#c00000" stroke="#c00000" stroke-linecap="round" stroke-width="1"/>
            <rect y="47.5" width="78.0" fill="#ffffff" height="19.0" x="30.2"/>
            <rect y="66.5" width="91.0" fill="#ffffff" height="19.0" x="23.7"/>
            <text style="fill:#191919;font-family:Microsoft YaHei;font-size:10.00pt" xml:space="preserve">
                <tspan y="62.5" x="30.2">税负就转移到</tspan>
                <tspan y="81.5" x="23.7">剩下的百姓身上</tspan>
            </text>
        </g>
        <g transform="translate(719.50,540.00)" id="shape7">
            <path d="M.0,.0L75.0,.0L75.0,38.0L.0,38.0L.0,.0z" fill="#ffffff" fill-rule="nonzero" stroke="#323232"/>
            <text style="fill:#191919;font-family:Microsoft YaHei;font-size:10.00pt" xml:space="preserve">
                <tspan y="24.5" x="24.5">土地</tspan>
            </text>
        </g>
        <g transform="translate(888.00,540.00)" id="shape8">
            <path d="M.0,.0L75.0,.0L75.0,38.0L.0,38.0L.0,.0z" fill="#ffffff" fill-rule="nonzero" stroke="#323232"/>
            <text style="fill:#191919;font-family:Microsoft YaHei;font-size:10.00pt" xml:space="preserve">
                <tspan y="24.5" x="24.5">税负</tspan>
            </text>
        </g>
        <g transform="translate(842.00,492.00)" id="shape9">
            <path d="M.0,.0L.0,16.0L-85.0,16.0L-85.0,42.0" fill="none" stroke="#191919"/>
            <path d="M-82.0,42.0L-85.0,48.0L-88.0,42.0L-82.0,42.0" fill="#191919" stroke="#191919" stroke-linecap="round" stroke-width="1"/>
        </g>
        <g transform="translate(842.00,492.00)" id="shape10">
            <path d="M.0,.0L.0,16.0L83.5,16.0L83.5,42.0" fill="none" stroke="#c00000"/>
            <path d="M86.5,42.0L83.5,48.0L80.5,42.0L86.5,42.0" fill="#c00000" stroke="#c00000" stroke-linecap="round" stroke-width="1"/>
        </g>
        <g transform="translate(317.00,472.00)" id="shape11">
            <path d="M.0,.0L.0,138.0L440.0,138.0L440.0,112.0" fill="none" stroke="#191919"/>
            <path d="M437.0,112.0L440.0,106.0L443.0,112.0L437.0,112.0" fill="#191919" stroke="#191919" stroke-linecap="round" stroke-width="1"/>
            <rect y="109.5" width="76.0" fill="#ffffff" height="19.0" x="180.1"/>
            <rect y="128.5" width="156.0" fill="#ffffff" height="19.0" x="140.1"/>
            <rect y="147.5" width="102.0" fill="#ffffff" height="19.0" x="167.1"/>
            <text style="fill:#191919;font-family:Microsoft YaHei;font-size:10.00pt" xml:space="preserve">
                <tspan y="124.5" x="180.1">土地被侵占 : </tspan>
                <tspan y="143.5" x="140.1">农民先逃，而后无主的土地</tspan>
                <tspan y="162.5" x="167.1">被他人(官豪)侵占.</tspan>
            </text>
        </g>
        <g transform="translate(1005.00,616.00)" id="shape12">
            <path d="M.0,.0L112.0,.0L112.0,38.0L.0,38.0L.0,.0z" fill="#ffffff" fill-rule="nonzero" stroke="#323232"/>
            <text style="fill:#191919;font-family:Microsoft YaHei;font-size:10.00pt" xml:space="preserve">
                <tspan y="24.5" x="23.5">剩下的百姓</tspan>
            </text>
        </g>
        <g transform="translate(925.50,578.00)" id="shape13">
            <path d="M.0,.0L.0,57.0L73.5,57.0" fill="none" stroke="#c00000"/>
            <path d="M73.5,54.0L79.5,57.0L73.5,60.0L73.5,54.0" fill="#c00000" stroke="#c00000" stroke-linecap="round" stroke-width="1"/>
            <rect y="28.6" width="117.0" fill="#ffffff" height="19.0" x="-57.5"/>
            <rect y="47.6" width="91.0" fill="#ffffff" height="19.0" x="-44.5"/>
            <text style="fill:#191919;font-family:Microsoft YaHei;font-size:10.00pt" xml:space="preserve">
                <tspan y="43.6" x="-57.5">税收负担继续转移到</tspan>
                <tspan y="62.6" x="-44.5">剩下的百姓身上</tspan>
            </text>
        </g>
        <g transform="translate(786.00,718.00)" id="shape14">
            <path d="M.0,.0L112.0,.0L112.0,38.0L.0,38.0L.0,.0z" fill="#ffffff" fill-rule="nonzero" stroke="#323232"/>
            <text style="fill:#191919;font-family:Microsoft YaHei;font-size:10.00pt" xml:space="preserve">
                <tspan y="24.5" x="36.5">流民潮</tspan>
            </text>
        </g>
        <g transform="translate(842.00,492.00)" id="shape15">
            <path d="M.0,.0L.0,220.0" fill="none" stroke="#c00000"/>
            <path d="M3.0,220.0L.0,226.0L-3.0,220.0L3.0,220.0" fill="#c00000" stroke="#c00000" stroke-linecap="round" stroke-width="1"/>
            <rect y="165.1" width="65.0" fill="#ffffff" height="19.0" x="-31.5"/>
            <rect y="184.1" width="78.0" fill="#ffffff" height="19.0" x="-38.0"/>
            <text style="fill:#191919;font-family:Microsoft YaHei;font-size:10.00pt" xml:space="preserve">
                <tspan y="180.1" x="-31.5">这就形成了</tspan>
                <tspan y="199.1" x="-38.0">巨大的流民潮</tspan>
            </text>
        </g>
        <g transform="translate(786.00,842.00)" id="shape16">
            <path d="M.0,.0L112.0,.0L112.0,54.0L.0,54.0L.0,.0z" fill="#ffffff" fill-rule="nonzero" stroke="#323232"/>
            <text style="fill:#191919;font-family:Microsoft YaHei;font-size:10.00pt" xml:space="preserve">
                <tspan y="32.5" x="30.0">农民起义</tspan>
            </text>
        </g>
        <g transform="translate(842.00,756.00)" id="shape17">
            <path d="M.0,.0L.0,80.0" fill="none" stroke="#191919"/>
            <path d="M3.0,80.0L.0,86.0L-3.0,80.0L3.0,80.0" fill="#191919" stroke="#191919" stroke-linecap="round" stroke-width="1"/>
            <rect y="29.3" width="65.0" fill="#ffffff" height="19.0" x="-31.5"/>
            <rect y="48.3" width="130.0" fill="#ffffff" height="19.0" x="-64.0"/>
            <text style="fill:#191919;font-family:Microsoft YaHei;font-size:10.00pt" xml:space="preserve">
                <tspan y="44.3" x="-31.5">并最终导致</tspan>
                <tspan y="63.3" x="-64.0">大规模农民起义的发生</tspan>
            </text>
        </g>
        <g transform="translate(786.00,454.00)" id="shape18">
            <path d="M.0,.0L112.0,.0L112.0,38.0L.0,38.0L.0,.0z" fill="#ebebeb" fill-rule="nonzero" stroke="#323232"/>
            <text style="fill:#191919;font-family:Microsoft YaHei;font-size:10.00pt" xml:space="preserve">
                <tspan y="24.5" x="43.0">逃亡</tspan>
            </text>
        </g>
        <g transform="translate(842.00,387.50)" id="shape19">
            <path d="M.0,.0L-0.0,60.5" fill="none" stroke="#c00000"/>
            <path d="M3.0,60.5L-0.0,66.5L-3.0,60.5L3.0,60.5" fill="#c00000" stroke="#c00000" stroke-linecap="round" stroke-width="1"/>
            <rect y="10.7" width="78.0" fill="#ffffff" height="19.0" x="-38.0"/>
            <rect y="29.7" width="143.0" fill="#ffffff" height="19.0" x="-70.5"/>
            <text style="fill:#191919;font-family:Microsoft YaHei;font-size:10.00pt" xml:space="preserve">
                <tspan y="25.7" x="-38.0">无法承担税负</tspan>
                <tspan y="44.7" x="-70.5">只好有地不种、弃地而逃</tspan>
            </text>
        </g>
        <g transform="translate(1117.00,635.00)" id="shape20">
            <path d="M.0,.0L32.0,.0L32.0,-162.0L-213.0,-162.0" fill="none" stroke="#c00000"/>
            <path d="M-213.0,-159.0L-219.0,-162.0L-213.0,-165.0L-213.0,-159.0" fill="#c00000" stroke="#c00000" stroke-linecap="round" stroke-width="1"/>
            <rect y="-146.2" width="221.0" fill="#ffffff" height="19.0" x="-77.5"/>
            <rect y="-127.2" width="247.0" fill="#ffffff" height="19.0" x="-90.5"/>
            <rect y="-108.2" width="329.0" fill="#ffffff" height="19.0" x="-131.5"/>
            <rect y="-89.2" width="143.0" fill="#ffffff" height="19.0" x="-38.5"/>
            <text style="fill:#191919;font-family:Microsoft YaHei;font-size:10.00pt" xml:space="preserve">
                <tspan y="-131.2" x="-77.5">农民不断逃亡，就造成一个恶性循环：</tspan>
                <tspan y="-112.2" x="-90.5">逃亡农民的负担会加到没逃亡的农民身上，</tspan>
                <tspan y="-93.2" x="-131.5">→ 则剩下的农民负担越来越重，最后不得已，全都逃亡。</tspan>
                <tspan y="-74.2" x="-38.5">这就形成了巨大的流民潮</tspan>
            </text>
        </g>
        <g transform="translate(629.00,302.00)" id="shape21">
            <path d="M.0,.0L.0,154.1L-226.0,154.1" fill="none" stroke="#191919"/>
            <path d="M-226.0,157.1L-232.0,154.1L-226.0,151.1L-226.0,157.1" fill="#191919" stroke="#191919" stroke-linecap="round" stroke-width="1"/>
            <rect y="106.6" width="169.0" fill="#ffffff" height="19.0" x="-197.5"/>
            <rect y="125.6" width="117.0" fill="#ffffff" height="19.0" x="-171.5"/>
            <rect y="144.6" width="117.0" fill="#ffffff" height="19.0" x="-171.5"/>
            <rect y="163.6" width="124.0" fill="#ffffff" height="19.0" x="-175.0"/>
            <rect y="182.6" width="208.0" fill="#ffffff" height="19.0" x="-217.0"/>
            <text style="fill:#191919;font-family:Microsoft YaHei;font-size:10.00pt" xml:space="preserve">
                <tspan y="121.6" x="-197.5">很多百姓会主动把自己的土地</tspan>
                <tspan y="140.6" x="-171.5">“投献”给官员们，</tspan>
                <tspan y="159.6" x="-171.5">主动成为“徒附”，</tspan>
                <tspan y="178.6" x="-175.0">因为交给官员的租子, </tspan>
                <tspan y="197.6" x="-217.0">要少于交给官府的赋税劳役的负担。</tspan>
            </text>
        </g>
    </g>
</svg>
