<svg width="494" xmlns="http://www.w3.org/2000/svg" xmlns:xlink="http://www.w3.org/1999/xlink" height="303" viewBox="0 0 494 303">
    <defs/>
    <g transform="translate(-1038.00,-1586.00)">
        <g transform="translate(1234.50,1587.00)" id="shape1">
            <path d="M.0,.0L112.0,.0L112.0,27.0L.0,27.0L.0,.0z" fill="#ebebeb" fill-rule="nonzero" stroke="#323232"/>
            <text style="fill:#191919;font-family:Microsoft YaHei;font-size:10.00pt" xml:space="preserve">
                <tspan y="19.0" x="36.5">汉武帝</tspan>
            </text>
        </g>
        <g transform="translate(1039.00,1663.00)" id="shape2">
            <path d="M.0,.0L112.0,.0L112.0,27.0L.0,27.0L.0,.0z" fill="#f5cfcf" fill-rule="nonzero" stroke="#323232"/>
            <text style="fill:#191919;font-family:Microsoft YaHei;font-size:10.00pt" xml:space="preserve">
                <tspan y="19.0" x="43.0">卖爵</tspan>
            </text>
        </g>
        <g transform="translate(1419.00,1663.00)" id="shape3">
            <path d="M.0,.0L112.0,.0L112.0,27.0L.0,27.0L.0,.0z" fill="#f5cfcf" fill-rule="nonzero" stroke="#323232"/>
            <text style="fill:#191919;font-family:Microsoft YaHei;font-size:10.00pt" xml:space="preserve">
                <tspan y="19.0" x="43.0">加税</tspan>
            </text>
        </g>
        <g transform="translate(1290.50,1614.00)" id="shape4">
            <path d="M.0,.0L.0,17.0L-195.5,17.0L-195.5,43.0" fill="none" stroke="#191919"/>
            <path d="M-192.5,43.0L-195.5,49.0L-198.5,43.0L-192.5,43.0" fill="#191919" stroke="#191919" stroke-linecap="round" stroke-width="1"/>
            <rect y="7.5" width="89.0" fill="#ffffff" height="19.0" x="-163.1"/>
            <text style="fill:#191919;font-family:Microsoft YaHei;font-size:10.00pt" xml:space="preserve">
                <tspan y="22.5" x="-163.1">1.买爵者可免罪</tspan>
            </text>
        </g>
        <g transform="translate(1290.50,1614.00)" id="shape5">
            <path d="M.0,.0L.0,17.0L184.5,17.0L184.5,43.0" fill="none" stroke="#191919"/>
            <path d="M187.5,43.0L184.5,49.0L181.5,43.0L187.5,43.0" fill="#191919" stroke="#191919" stroke-linecap="round" stroke-width="1"/>
        </g>
        <g transform="translate(1211.00,1663.00)" id="shape6">
            <path d="M.0,.0L159.0,.0L159.0,47.0L.0,47.0L.0,.0z" fill="#ffffff" fill-rule="nonzero" stroke="#323232"/>
            <text style="fill:#191919;font-family:Microsoft YaHei;font-size:10.00pt" xml:space="preserve">
                <tspan y="19.5" x="53.5">要求商人</tspan>
                <tspan y="38.5" x="21.0">主动向政府呈报财产</tspan>
            </text>
        </g>
        <g transform="translate(1290.50,1614.00)" id="shape7">
            <path d="M.0,.0L.0,43.0" fill="none" stroke="#191919"/>
            <path d="M3.0,43.0L.0,49.0L-3.0,43.0L3.0,43.0" fill="#191919" stroke="#191919" stroke-linecap="round" stroke-width="1"/>
        </g>
        <g transform="translate(1154.50,1776.00)" id="shape8">
            <path d="M.0,.0L112.0,.0L112.0,27.0L.0,27.0L.0,.0z" fill="#ebebeb" fill-rule="nonzero" stroke="#323232"/>
            <text style="fill:#191919;font-family:Microsoft YaHei;font-size:10.00pt" xml:space="preserve">
                <tspan y="19.0" x="43.0">商人</tspan>
            </text>
        </g>
        <g transform="translate(1314.50,1776.00)" id="shape9">
            <path d="M.0,.0L112.0,.0L112.0,54.0L.0,54.0L.0,.0z" fill="#ebebeb" fill-rule="nonzero" stroke="#323232"/>
            <text style="fill:#191919;font-family:Microsoft YaHei;font-size:10.00pt" xml:space="preserve">
                <tspan y="23.0" x="36.5">其他人</tspan>
                <tspan y="42.0" x="26.0">(普通百姓)</tspan>
            </text>
        </g>
        <g transform="translate(1290.50,1710.00)" id="shape10">
            <path d="M.0,.0L.0,34.0L-80.0,34.0L-80.0,60.0" fill="none" stroke="#191919"/>
            <path d="M-77.0,60.0L-80.0,66.0L-83.0,60.0L-77.0,60.0" fill="#191919" stroke="#191919" stroke-linecap="round" stroke-width="1"/>
        </g>
        <g transform="translate(1154.50,1852.00)" id="shape11">
            <path d="M.0,.0L112.0,.0L112.0,27.0L.0,27.0L.0,.0z" fill="#ffffff" fill-rule="nonzero" stroke="#323232"/>
            <text style="fill:#191919;font-family:Microsoft YaHei;font-size:10.00pt" xml:space="preserve">
                <tspan y="19.0" x="30.0">隐瞒财产</tspan>
            </text>
        </g>
        <g transform="translate(1210.50,1803.00)" id="shape12">
            <path d="M.0,.0L.0,43.0" fill="none" stroke="#191919"/>
            <path d="M3.0,43.0L.0,49.0L-3.0,43.0L3.0,43.0" fill="#191919" stroke="#191919" stroke-linecap="round" stroke-width="1"/>
        </g>
        <g transform="translate(1370.50,1830.00)" id="shape13">
            <path d="M.0,.0L.0,35.5L-98.0,35.5" fill="none" stroke="#191919"/>
            <path d="M-98.0,38.5L-104.0,35.5L-98.0,32.5L-98.0,38.5" fill="#191919" stroke="#191919" stroke-linecap="round" stroke-width="1"/>
            <rect y="16.5" width="105.0" fill="#ffffff" height="19.0" x="-51.7"/>
            <rect y="35.5" width="104.0" fill="#ffffff" height="19.0" x="-51.2"/>
            <text style="fill:#191919;font-family:Microsoft YaHei;font-size:10.00pt" xml:space="preserve">
                <tspan y="31.5" x="-51.7">2.向政府告发商人,</tspan>
                <tspan y="50.5" x="-51.2">可获商人一半财产</tspan>
            </text>
        </g>
        <g transform="translate(1475.00,1690.00)" id="shape14">
            <path d="M.0,.0L.0,113.0L-42.5,113.0" fill="none" stroke="#191919"/>
            <path d="M-42.5,116.0L-48.5,113.0L-42.5,110.0L-42.5,116.0" fill="#191919" stroke="#191919" stroke-linecap="round" stroke-width="1"/>
            <rect y="22.6" width="102.0" fill="#ffffff" height="19.0" x="-50.0"/>
            <rect y="41.6" width="65.0" fill="#ffffff" height="19.0" x="-31.5"/>
            <text style="fill:#191919;font-family:Microsoft YaHei;font-size:10.00pt" xml:space="preserve">
                <tspan y="37.6" x="-50.0">3.把你吃进去的钱</tspan>
                <tspan y="56.6" x="-31.5">给我吐出来</tspan>
            </text>
        </g>
        <g transform="translate(1039.00,1712.00)" id="shape15">
            <path d="M.0,.0L112.0,.0L112.0,54.0L.0,54.0L.0,.0z" fill="#f5cfcf" fill-rule="nonzero" stroke="#323232"/>
            <text style="fill:#191919;font-family:Microsoft YaHei;font-size:10.00pt" xml:space="preserve">
                <tspan y="23.0" x="24.5">4.废除爵位</tspan>
                <tspan y="42.0" x="17.0">能带来的权利</tspan>
            </text>
        </g>
        <g transform="translate(1095.00,1690.00)" id="shape16">
            <path d="M.0,.0L.0,16.0" fill="none" stroke="#191919"/>
            <path d="M3.0,16.0L.0,22.0L-3.0,16.0L3.0,16.0" fill="#191919" stroke="#191919" stroke-linecap="round" stroke-width="1"/>
        </g>
    </g>
</svg>
