<svg width="414" xmlns="http://www.w3.org/2000/svg" xmlns:xlink="http://www.w3.org/1999/xlink" height="222" viewBox="0 0 414 222">
    <defs/>
    <g transform="translate(-1133.00,-1994.00)">
        <g transform="translate(1134.00,1995.00)" id="shape1">
            <path d="M.0,.0L112.0,.0L112.0,27.0L.0,27.0L.0,.0z" fill="#ffffff" fill-rule="nonzero" stroke="#323232"/>
            <text style="fill:#191919;font-family:Microsoft YaHei;font-size:10.00pt" xml:space="preserve">
                <tspan y="19.0" x="30.0">西班牙人</tspan>
            </text>
        </g>
        <g transform="translate(1282.25,1995.00)" id="shape2">
            <path d="M.0,.0L91.5,.0L91.5,27.0L.0,27.0L.0,.0z" fill="#ffffff" fill-rule="nonzero" stroke="#323232"/>
            <text style="fill:#191919;font-family:Microsoft YaHei;font-size:10.00pt" xml:space="preserve">
                <tspan y="19.0" x="13.2">在美洲出身</tspan>
            </text>
        </g>
        <g transform="translate(1455.00,1995.00)" id="shape3">
            <path d="M.0,.0L91.5,.0L91.5,27.0L.0,27.0L.0,.0z" fill="#ffffff" fill-rule="nonzero" stroke="#323232"/>
            <text style="fill:#191919;font-family:Microsoft YaHei;font-size:10.00pt" xml:space="preserve">
                <tspan y="19.0" x="13.2">克里奥尔人</tspan>
            </text>
        </g>
        <g transform="translate(1246.00,2008.50)" id="shape4">
            <path d="M.0,.0L30.3,.0" fill="none" stroke="#191919"/>
            <path d="M30.3,-3.0L36.3,.0L30.3,3.0L30.3,-3.0" fill="#191919" stroke="#191919" stroke-linecap="round" stroke-width="1"/>
        </g>
        <g transform="translate(1373.75,2008.50)" id="shape5">
            <path d="M.0,.0L75.3,.0" fill="none" stroke="#191919"/>
            <path d="M75.3,-3.0L81.3,.0L75.3,3.0L75.3,-3.0" fill="#191919" stroke="#191919" stroke-linecap="round" stroke-width="1"/>
        </g>
        <g transform="translate(1282.25,2046.50)" id="shape6">
            <path d="M.0,.0L91.5,.0L91.5,27.0L.0,27.0L.0,.0z" fill="#ffffff" fill-rule="nonzero" stroke="#323232"/>
            <text style="fill:#191919;font-family:Microsoft YaHei;font-size:10.00pt" xml:space="preserve">
                <tspan y="19.0" x="19.7">印第安人</tspan>
            </text>
        </g>
        <g transform="translate(1190.00,2022.00)" id="shape7">
            <path d="M.0,.0L.0,38.0L86.3,38.0" fill="none" stroke="#191919"/>
            <path d="M86.3,35.0L92.3,38.0L86.3,41.0L86.3,35.0" fill="#191919" stroke="#191919" stroke-linecap="round" stroke-width="1"/>
        </g>
        <g transform="translate(1455.00,2046.50)" id="shape8">
            <path d="M.0,.0L91.5,.0L91.5,27.0L.0,27.0L.0,.0z" fill="#ffffff" fill-rule="nonzero" stroke="#323232"/>
            <text style="fill:#191919;font-family:Microsoft YaHei;font-size:10.00pt" xml:space="preserve">
                <tspan y="19.0" x="13.2">梅斯提索人</tspan>
            </text>
        </g>
        <g transform="translate(1373.75,2060.00)" id="shape9">
            <path d="M.0,.0L75.3,.0" fill="none" stroke="#191919"/>
            <path d="M75.3,-3.0L81.3,.0L75.3,3.0L75.3,-3.0" fill="#191919" stroke="#191919" stroke-linecap="round" stroke-width="1"/>
            <rect y="-9.5" width="39.0" fill="#ffffff" height="19.0" x="16.3"/>
            <text style="fill:#191919;font-family:Microsoft YaHei;font-size:10.00pt" xml:space="preserve">
                <tspan y="5.5" x="16.3">混血后</tspan>
            </text>
        </g>
        <g transform="translate(1455.00,2094.00)" id="shape10">
            <path d="M.0,.0L91.5,.0L91.5,27.0L.0,27.0L.0,.0z" fill="#ffffff" fill-rule="nonzero" stroke="#323232"/>
            <text style="fill:#191919;font-family:Microsoft YaHei;font-size:10.00pt" xml:space="preserve">
                <tspan y="19.0" x="19.7">印第安人</tspan>
            </text>
        </g>
        <g transform="translate(1455.00,2142.00)" id="shape11">
            <path d="M.0,.0L91.5,.0L91.5,27.0L.0,27.0L.0,.0z" fill="#ffffff" fill-rule="nonzero" stroke="#323232"/>
            <text style="fill:#191919;font-family:Microsoft YaHei;font-size:10.00pt" xml:space="preserve">
                <tspan y="19.0" x="32.7">黑人</tspan>
            </text>
        </g>
        <g transform="translate(1455.00,2188.00)" id="shape12">
            <path d="M.0,.0L91.5,.0L91.5,27.0L.0,27.0L.0,.0z" fill="#ffffff" fill-rule="nonzero" stroke="#323232"/>
            <text style="fill:#191919;font-family:Microsoft YaHei;font-size:10.00pt" xml:space="preserve">
                <tspan y="19.0" x="32.7">黑奴</tspan>
            </text>
        </g>
    </g>
</svg>
