<?xml version="1.0" encoding="UTF-8"?>
<!-- Do not edit this file with editors other than diagrams.net -->
<!DOCTYPE svg PUBLIC "-//W3C//DTD SVG 1.1//EN" "http://www.w3.org/Graphics/SVG/1.1/DTD/svg11.dtd">
<svg xmlns="http://www.w3.org/2000/svg" xmlns:xlink="http://www.w3.org/1999/xlink" version="1.1" width="281px" height="191px" viewBox="-0.5 -0.5 281 191" content="&lt;mxfile host=&quot;Electron&quot; modified=&quot;2022-05-27T04:22:25.531Z&quot; agent=&quot;5.0 (Windows NT 10.0; Win64; x64) AppleWebKit/537.36 (KHTML, like Gecko) draw.io/18.0.6 Chrome/100.0.4896.143 Electron/18.2.3 Safari/537.36&quot; version=&quot;18.0.6&quot; etag=&quot;Nq-Cn_fXNB62w6PIO5MU&quot; type=&quot;device&quot;&gt;&lt;diagram id=&quot;e7qSPpdrQg74Tkjma8mn&quot;&gt;7Vjfb9owEP5r/EiVxOTXIyR0e5lUqZO2PU2GmODNxMwxBfbX7xw7BCe0oxurKq1R1NifL5/ju++uJxDO1vt3kmxWH0RBOQq8Yo9wjgK4Uh8eGjkYJEoCA5SSFQbyO+Ce/aQW9Cy6ZQWtHUMlBFds44ILUVV0oRyMSCl2rtlScHfXDSnpALhfED5EP7FCrQyaBHGHv6esXLU7+1FqVtakNbYU9YoUYmeg5nB4hnAmhVBmtN5nlGvntX4xHrh9ZPX4YZJW6pIXrN8fCN/as6Eg4vDqdOXrz1MHe+box1Z/01TRvRoRzsoK4Yl2MWxEZbcOo9I+G5p6Q6qzREtRqVHdhFbz+NFm37zmNQs76z69NPY8QzjYYqzvMON0qVA4hdGclqxC8RT8LNkexTn7isGcrDdgb/5+AyTMzE2r4tQYENlsG+a/Yw0GrMEVWP0Bq/8M1jg7YQWZk4O2i6ccHsSQzHt0R6uWDTiMV234QDkmgm5U57KPgKFWTAsGTswDrRqtKbXmAPhaF0qK7zQTXEhAKlFRrQnGeQ+C3ResKgEIu9lHAd7JR4HWxW7FFL0HXG+1g3oDmHigcsmbvFqxoqCg1akU26qgWvaeVZ+tK35k5+3OKMBecx1PAnRwgkdTzD8mLlQ8KtZUyQOY2BdGUWzLVlvtbE56u652BInFVid1I7IYseWqPHJ3GQ0Dm9TnExyfSfBecGgBxc1OKZ+L3awDpg0AC9oFDCqghqpioosooAtO6pot3NC6nqZ7pj7r8U0UpHb+RVve+HaW709M88PJ5I5KBiem0mLm0/X3ukVUbOWCOgXtgvCceD884/wWk5QTxR7cHc9FxO5wJxhs3EV/nOKbJE67y9VCErmM5iyW5LRwD3hD72kmRWRJ1YBp0qR8Z7bRBvVTB+jJN3b/pcDAUHZyPDr5IoWOX49C/TF2FOr56f+h0eRJjaZ/rFHc02jaq2jX0mjY2yhOrqvR8PVoFEduFfW86E2jf6PR8QtpdBz1NDq+rkajoUZnIUp8lE7QLEaTDG4fzSI0ydEkbNZuUZpoJAFkqOhh02b7/tw2/Xja6nliF9bQbTWClxRaezJvqLTirHeAV/e+uebaKlHbDuwZ/SC6QkMWYuxGwhs2ZOf6seAK/Vh8QZSCtyjpKIX9fAlfLErJBVHCb1HSUYp7uZT8s1yCaffDiCmQ3c9LePYL&lt;/diagram&gt;&lt;/mxfile&gt;" style="background-color: rgb(255, 255, 255);"><defs><style xmlns="http://www.w3.org/1999/xhtml" type="text/css">div.MathJax_SVG_Display { position: static; }&#xa;span.MathJax_SVG { position: static !important; }</style><style xmlns="http://www.w3.org/1999/xhtml" type="text/css">.MathJax_Hover_Frame {border-radius: .25em; -webkit-border-radius: .25em; -moz-border-radius: .25em; -khtml-border-radius: .25em; box-shadow: 0px 0px 15px #83A; -webkit-box-shadow: 0px 0px 15px #83A; -moz-box-shadow: 0px 0px 15px #83A; -khtml-box-shadow: 0px 0px 15px #83A; border: 1px solid #A6D ! important; display: inline-block; position: absolute}&#xa;.MathJax_Menu_Button .MathJax_Hover_Arrow {position: absolute; cursor: pointer; display: inline-block; border: 2px solid #AAA; border-radius: 4px; -webkit-border-radius: 4px; -moz-border-radius: 4px; -khtml-border-radius: 4px; font-family: 'Courier New',Courier; font-size: 9px; color: #F0F0F0}&#xa;.MathJax_Menu_Button .MathJax_Hover_Arrow span {display: block; background-color: #AAA; border: 1px solid; border-radius: 3px; line-height: 0; padding: 4px}&#xa;.MathJax_Hover_Arrow:hover {color: white!important; border: 2px solid #CCC!important}&#xa;.MathJax_Hover_Arrow:hover span {background-color: #CCC!important}&#xa;</style><style xmlns="http://www.w3.org/1999/xhtml" type="text/css">#MathJax_About {position: fixed; left: 50%; width: auto; text-align: center; border: 3px outset; padding: 1em 2em; background-color: #DDDDDD; color: black; cursor: default; font-family: message-box; font-size: 120%; font-style: normal; text-indent: 0; text-transform: none; line-height: normal; letter-spacing: normal; word-spacing: normal; word-wrap: normal; white-space: nowrap; float: none; z-index: 201; border-radius: 15px; -webkit-border-radius: 15px; -moz-border-radius: 15px; -khtml-border-radius: 15px; box-shadow: 0px 10px 20px #808080; -webkit-box-shadow: 0px 10px 20px #808080; -moz-box-shadow: 0px 10px 20px #808080; -khtml-box-shadow: 0px 10px 20px #808080; filter: progid:DXImageTransform.Microsoft.dropshadow(OffX=2, OffY=2, Color='gray', Positive='true')}&#xa;#MathJax_About.MathJax_MousePost {outline: none}&#xa;.MathJax_Menu {position: absolute; background-color: white; color: black; width: auto; padding: 2px; border: 1px solid #CCCCCC; margin: 0; cursor: default; font: menu; text-align: left; text-indent: 0; text-transform: none; line-height: normal; letter-spacing: normal; word-spacing: normal; word-wrap: normal; white-space: nowrap; float: none; z-index: 201; box-shadow: 0px 10px 20px #808080; -webkit-box-shadow: 0px 10px 20px #808080; -moz-box-shadow: 0px 10px 20px #808080; -khtml-box-shadow: 0px 10px 20px #808080; filter: progid:DXImageTransform.Microsoft.dropshadow(OffX=2, OffY=2, Color='gray', Positive='true')}&#xa;.MathJax_MenuItem {padding: 2px 2em; background: transparent}&#xa;.MathJax_MenuArrow {position: absolute; right: .5em; padding-top: .25em; color: #666666; font-size: .75em}&#xa;.MathJax_MenuActive .MathJax_MenuArrow {color: white}&#xa;.MathJax_MenuArrow.RTL {left: .5em; right: auto}&#xa;.MathJax_MenuCheck {position: absolute; left: .7em}&#xa;.MathJax_MenuCheck.RTL {right: .7em; left: auto}&#xa;.MathJax_MenuRadioCheck {position: absolute; left: 1em}&#xa;.MathJax_MenuRadioCheck.RTL {right: 1em; left: auto}&#xa;.MathJax_MenuLabel {padding: 2px 2em 4px 1.33em; font-style: italic}&#xa;.MathJax_MenuRule {border-top: 1px solid #CCCCCC; margin: 4px 1px 0px}&#xa;.MathJax_MenuDisabled {color: GrayText}&#xa;.MathJax_MenuActive {background-color: Highlight; color: HighlightText}&#xa;.MathJax_MenuDisabled:focus, .MathJax_MenuLabel:focus {background-color: #E8E8E8}&#xa;.MathJax_ContextMenu:focus {outline: none}&#xa;.MathJax_ContextMenu .MathJax_MenuItem:focus {outline: none}&#xa;#MathJax_AboutClose {top: .2em; right: .2em}&#xa;.MathJax_Menu .MathJax_MenuClose {top: -10px; left: -10px}&#xa;.MathJax_MenuClose {position: absolute; cursor: pointer; display: inline-block; border: 2px solid #AAA; border-radius: 18px; -webkit-border-radius: 18px; -moz-border-radius: 18px; -khtml-border-radius: 18px; font-family: 'Courier New',Courier; font-size: 24px; color: #F0F0F0}&#xa;.MathJax_MenuClose span {display: block; background-color: #AAA; border: 1.5px solid; border-radius: 18px; -webkit-border-radius: 18px; -moz-border-radius: 18px; -khtml-border-radius: 18px; line-height: 0; padding: 8px 0 6px}&#xa;.MathJax_MenuClose:hover {color: white!important; border: 2px solid #CCC!important}&#xa;.MathJax_MenuClose:hover span {background-color: #CCC!important}&#xa;.MathJax_MenuClose:hover:focus {outline: none}&#xa;</style><style xmlns="http://www.w3.org/1999/xhtml" type="text/css">.MathJax_Preview .MJXf-math {color: inherit!important}&#xa;</style><style xmlns="http://www.w3.org/1999/xhtml" type="text/css">#MathJax_Zoom {position: absolute; background-color: #F0F0F0; overflow: auto; display: block; z-index: 301; padding: .5em; border: 1px solid black; margin: 0; font-weight: normal; font-style: normal; text-align: left; text-indent: 0; text-transform: none; line-height: normal; letter-spacing: normal; word-spacing: normal; word-wrap: normal; white-space: nowrap; float: none; -webkit-box-sizing: content-box; -moz-box-sizing: content-box; box-sizing: content-box; box-shadow: 5px 5px 15px #AAAAAA; -webkit-box-shadow: 5px 5px 15px #AAAAAA; -moz-box-shadow: 5px 5px 15px #AAAAAA; -khtml-box-shadow: 5px 5px 15px #AAAAAA; filter: progid:DXImageTransform.Microsoft.dropshadow(OffX=2, OffY=2, Color='gray', Positive='true')}&#xa;#MathJax_ZoomOverlay {position: absolute; left: 0; top: 0; z-index: 300; display: inline-block; width: 100%; height: 100%; border: 0; padding: 0; margin: 0; background-color: white; opacity: 0; filter: alpha(opacity=0)}&#xa;#MathJax_ZoomFrame {position: relative; display: inline-block; height: 0; width: 0}&#xa;#MathJax_ZoomEventTrap {position: absolute; left: 0; top: 0; z-index: 302; display: inline-block; border: 0; padding: 0; margin: 0; background-color: white; opacity: 0; filter: alpha(opacity=0)}&#xa;</style><style xmlns="http://www.w3.org/1999/xhtml" type="text/css">.MathJax_Preview {color: #888; display: contents}&#xa;#MathJax_Message {position: fixed; left: 1px; bottom: 2px; background-color: #E6E6E6; border: 1px solid #959595; margin: 0px; padding: 2px 8px; z-index: 102; color: black; font-size: 80%; width: auto; white-space: nowrap}&#xa;#MathJax_MSIE_Frame {position: absolute; top: 0; left: 0; width: 0px; z-index: 101; border: 0px; margin: 0px; padding: 0px}&#xa;.MathJax_Error {color: #CC0000; font-style: italic}&#xa;</style><style xmlns="http://www.w3.org/1999/xhtml" type="text/css">.MJXp-script {font-size: .8em}&#xa;.MJXp-right {-webkit-transform-origin: right; -moz-transform-origin: right; -ms-transform-origin: right; -o-transform-origin: right; transform-origin: right}&#xa;.MJXp-bold {font-weight: bold}&#xa;.MJXp-italic {font-style: italic}&#xa;.MJXp-scr {font-family: MathJax_Script,'Times New Roman',Times,STIXGeneral,serif}&#xa;.MJXp-frak {font-family: MathJax_Fraktur,'Times New Roman',Times,STIXGeneral,serif}&#xa;.MJXp-sf {font-family: MathJax_SansSerif,'Times New Roman',Times,STIXGeneral,serif}&#xa;.MJXp-cal {font-family: MathJax_Caligraphic,'Times New Roman',Times,STIXGeneral,serif}&#xa;.MJXp-mono {font-family: MathJax_Typewriter,'Times New Roman',Times,STIXGeneral,serif}&#xa;.MJXp-largeop {font-size: 150%}&#xa;.MJXp-largeop.MJXp-int {vertical-align: -.2em}&#xa;.MJXp-math {display: inline-block; line-height: 1.2; text-indent: 0; font-family: 'Times New Roman',Times,STIXGeneral,serif; white-space: nowrap; border-collapse: collapse}&#xa;.MJXp-display {display: block; text-align: center; margin: 1em 0}&#xa;.MJXp-math span {display: inline-block}&#xa;.MJXp-box {display: block!important; text-align: center}&#xa;.MJXp-box:after {content: " "}&#xa;.MJXp-rule {display: block!important; margin-top: .1em}&#xa;.MJXp-char {display: block!important}&#xa;.MJXp-mo {margin: 0 .15em}&#xa;.MJXp-mfrac {margin: 0 .125em; vertical-align: .25em}&#xa;.MJXp-denom {display: inline-table!important; width: 100%}&#xa;.MJXp-denom &gt; * {display: table-row!important}&#xa;.MJXp-surd {vertical-align: top}&#xa;.MJXp-surd &gt; * {display: block!important}&#xa;.MJXp-script-box &gt; *  {display: table!important; height: 50%}&#xa;.MJXp-script-box &gt; * &gt; * {display: table-cell!important; vertical-align: top}&#xa;.MJXp-script-box &gt; *:last-child &gt; * {vertical-align: bottom}&#xa;.MJXp-script-box &gt; * &gt; * &gt; * {display: block!important}&#xa;.MJXp-mphantom {visibility: hidden}&#xa;.MJXp-munderover, .MJXp-munder {display: inline-table!important}&#xa;.MJXp-over {display: inline-block!important; text-align: center}&#xa;.MJXp-over &gt; * {display: block!important}&#xa;.MJXp-munderover &gt; *, .MJXp-munder &gt; * {display: table-row!important}&#xa;.MJXp-mtable {vertical-align: .25em; margin: 0 .125em}&#xa;.MJXp-mtable &gt; * {display: inline-table!important; vertical-align: middle}&#xa;.MJXp-mtr {display: table-row!important}&#xa;.MJXp-mtd {display: table-cell!important; text-align: center; padding: .5em 0 0 .5em}&#xa;.MJXp-mtr &gt; .MJXp-mtd:first-child {padding-left: 0}&#xa;.MJXp-mtr:first-child &gt; .MJXp-mtd {padding-top: 0}&#xa;.MJXp-mlabeledtr {display: table-row!important}&#xa;.MJXp-mlabeledtr &gt; .MJXp-mtd:first-child {padding-left: 0}&#xa;.MJXp-mlabeledtr:first-child &gt; .MJXp-mtd {padding-top: 0}&#xa;.MJXp-merror {background-color: #FFFF88; color: #CC0000; border: 1px solid #CC0000; padding: 1px 3px; font-style: normal; font-size: 90%}&#xa;.MJXp-scale0 {-webkit-transform: scaleX(.0); -moz-transform: scaleX(.0); -ms-transform: scaleX(.0); -o-transform: scaleX(.0); transform: scaleX(.0)}&#xa;.MJXp-scale1 {-webkit-transform: scaleX(.1); -moz-transform: scaleX(.1); -ms-transform: scaleX(.1); -o-transform: scaleX(.1); transform: scaleX(.1)}&#xa;.MJXp-scale2 {-webkit-transform: scaleX(.2); -moz-transform: scaleX(.2); -ms-transform: scaleX(.2); -o-transform: scaleX(.2); transform: scaleX(.2)}&#xa;.MJXp-scale3 {-webkit-transform: scaleX(.3); -moz-transform: scaleX(.3); -ms-transform: scaleX(.3); -o-transform: scaleX(.3); transform: scaleX(.3)}&#xa;.MJXp-scale4 {-webkit-transform: scaleX(.4); -moz-transform: scaleX(.4); -ms-transform: scaleX(.4); -o-transform: scaleX(.4); transform: scaleX(.4)}&#xa;.MJXp-scale5 {-webkit-transform: scaleX(.5); -moz-transform: scaleX(.5); -ms-transform: scaleX(.5); -o-transform: scaleX(.5); transform: scaleX(.5)}&#xa;.MJXp-scale6 {-webkit-transform: scaleX(.6); -moz-transform: scaleX(.6); -ms-transform: scaleX(.6); -o-transform: scaleX(.6); transform: scaleX(.6)}&#xa;.MJXp-scale7 {-webkit-transform: scaleX(.7); -moz-transform: scaleX(.7); -ms-transform: scaleX(.7); -o-transform: scaleX(.7); transform: scaleX(.7)}&#xa;.MJXp-scale8 {-webkit-transform: scaleX(.8); -moz-transform: scaleX(.8); -ms-transform: scaleX(.8); -o-transform: scaleX(.8); transform: scaleX(.8)}&#xa;.MJXp-scale9 {-webkit-transform: scaleX(.9); -moz-transform: scaleX(.9); -ms-transform: scaleX(.9); -o-transform: scaleX(.9); transform: scaleX(.9)}&#xa;.MathJax_PHTML .noError {vertical-align: ; font-size: 90%; text-align: left; color: black; padding: 1px 3px; border: 1px solid}&#xa;</style><style xmlns="http://www.w3.org/1999/xhtml" type="text/css">.MathJax_SVG_Display {text-align: center; margin: 1em 0em; position: relative; display: block!important; text-indent: 0; max-width: none; max-height: none; min-width: 0; min-height: 0; width: 100%}&#xa;.MathJax_SVG .MJX-monospace {font-family: monospace}&#xa;.MathJax_SVG .MJX-sans-serif {font-family: sans-serif}&#xa;#MathJax_SVG_Tooltip {background-color: InfoBackground; color: InfoText; border: 1px solid black; box-shadow: 2px 2px 5px #AAAAAA; -webkit-box-shadow: 2px 2px 5px #AAAAAA; -moz-box-shadow: 2px 2px 5px #AAAAAA; -khtml-box-shadow: 2px 2px 5px #AAAAAA; padding: 3px 4px; z-index: 401; position: absolute; left: 0; top: 0; width: auto; height: auto; display: none}&#xa;.MathJax_SVG {display: inline; font-style: normal; font-weight: normal; line-height: normal; font-size: 100%; font-size-adjust: none; text-indent: 0; text-align: left; text-transform: none; letter-spacing: normal; word-spacing: normal; word-wrap: normal; white-space: nowrap; float: none; direction: ltr; max-width: none; max-height: none; min-width: 0; min-height: 0; border: 0; padding: 0; margin: 0}&#xa;.MathJax_SVG * {transition: none; -webkit-transition: none; -moz-transition: none; -ms-transition: none; -o-transition: none}&#xa;.MathJax_SVG &gt; div {display: inline-block}&#xa;.mjx-svg-href {fill: blue; stroke: blue}&#xa;.MathJax_SVG_Processing {visibility: hidden; position: absolute; top: 0; left: 0; width: 0; height: 0; overflow: hidden; display: block!important}&#xa;.MathJax_SVG_Processed {display: none!important}&#xa;.MathJax_SVG_test {font-style: normal; font-weight: normal; font-size: 100%; font-size-adjust: none; text-indent: 0; text-transform: none; letter-spacing: normal; word-spacing: normal; overflow: hidden; height: 1px}&#xa;.MathJax_SVG_test.mjx-test-display {display: table!important}&#xa;.MathJax_SVG_test.mjx-test-inline {display: inline!important; margin-right: -1px}&#xa;.MathJax_SVG_test.mjx-test-default {display: block!important; clear: both}&#xa;.MathJax_SVG_ex_box {display: inline-block!important; position: absolute; overflow: hidden; min-height: 0; max-height: none; padding: 0; border: 0; margin: 0; width: 1px; height: 60ex}&#xa;.mjx-test-inline .MathJax_SVG_left_box {display: inline-block; width: 0; float: left}&#xa;.mjx-test-inline .MathJax_SVG_right_box {display: inline-block; width: 0; float: right}&#xa;.mjx-test-display .MathJax_SVG_right_box {display: table-cell!important; width: 10000em!important; min-width: 0; max-width: none; padding: 0; border: 0; margin: 0}&#xa;.MathJax_SVG .noError {vertical-align: ; font-size: 90%; text-align: left; color: black; padding: 1px 3px; border: 1px solid}&#xa;</style></defs><g><rect x="0" y="10" width="280" height="60" fill="none" stroke="none" pointer-events="all"/><g transform="translate(-0.5 -0.5)"><switch><foreignObject pointer-events="none" width="100%" height="100%" requiredFeatures="http://www.w3.org/TR/SVG11/feature#Extensibility" style="overflow: visible; text-align: left;"><div xmlns="http://www.w3.org/1999/xhtml" style="display: flex; align-items: unsafe flex-start; justify-content: unsafe flex-start; width: 272px; height: 1px; padding-top: 0px; margin-left: 5px;"><div data-drawio-colors="color: #000000; " style="box-sizing: border-box; font-size: 0px; text-align: left; max-height: 70px; overflow: hidden;"><div style="display: inline-block; font-size: 16px; font-family: Helvetica; color: rgb(0, 0, 0); line-height: 1.2; pointer-events: all; white-space: normal; overflow-wrap: normal;"><h1 style="text-align: center"><span style="font-size: 16px; font-weight: 400;"><span class="MathJax_Preview" style="color: inherit;"></span><div class="MathJax_SVG_Display" style="text-align: center;"><span class="MathJax_SVG" id="MathJax-Element-14-Frame" tabindex="0" data-mathml="&lt;math xmlns=&quot;http://www.w3.org/1998/Math/MathML&quot; display=&quot;block&quot;&gt;&lt;mrow&gt;&lt;mo&gt;[&lt;/mo&gt;&lt;mtable rowspacing=&quot;4pt&quot; columnspacing=&quot;1em&quot;&gt;&lt;mtr&gt;&lt;mtd&gt;&lt;msub&gt;&lt;mi&gt;i&lt;/mi&gt;&lt;mn&gt;3&lt;/mn&gt;&lt;/msub&gt;&lt;/mtd&gt;&lt;mtd&gt;&lt;msub&gt;&lt;mi&gt;j&lt;/mi&gt;&lt;mn&gt;3&lt;/mn&gt;&lt;/msub&gt;&lt;/mtd&gt;&lt;/mtr&gt;&lt;/mtable&gt;&lt;mo&gt;]&lt;/mo&gt;&lt;/mrow&gt;&lt;mrow&gt;&lt;mo&gt;[&lt;/mo&gt;&lt;mtable rowspacing=&quot;4pt&quot; columnspacing=&quot;1em&quot;&gt;&lt;mtr&gt;&lt;mtd&gt;&lt;msub&gt;&lt;mi&gt;i&lt;/mi&gt;&lt;mn&gt;2&lt;/mn&gt;&lt;/msub&gt;&lt;/mtd&gt;&lt;mtd&gt;&lt;msub&gt;&lt;mi&gt;j&lt;/mi&gt;&lt;mn&gt;2&lt;/mn&gt;&lt;/msub&gt;&lt;/mtd&gt;&lt;/mtr&gt;&lt;/mtable&gt;&lt;mo&gt;]&lt;/mo&gt;&lt;/mrow&gt;&lt;mrow&gt;&lt;mo&gt;[&lt;/mo&gt;&lt;mtable rowspacing=&quot;4pt&quot; columnspacing=&quot;1em&quot;&gt;&lt;mtr&gt;&lt;mtd&gt;&lt;msub&gt;&lt;mi&gt;i&lt;/mi&gt;&lt;mn&gt;1&lt;/mn&gt;&lt;/msub&gt;&lt;/mtd&gt;&lt;mtd&gt;&lt;msub&gt;&lt;mi&gt;j&lt;/mi&gt;&lt;mn&gt;1&lt;/mn&gt;&lt;/msub&gt;&lt;/mtd&gt;&lt;/mtr&gt;&lt;/mtable&gt;&lt;mo&gt;]&lt;/mo&gt;&lt;/mrow&gt;&lt;mrow&gt;&lt;mo&gt;|&lt;/mo&gt;&lt;mtable columnalign=&quot;left&quot; rowspacing=&quot;4pt&quot; columnspacing=&quot;1em&quot;&gt;&lt;mtr&gt;&lt;mtd&gt;&lt;mi&gt;a&lt;/mi&gt;&lt;/mtd&gt;&lt;/mtr&gt;&lt;mtr&gt;&lt;mtd&gt;&lt;mi&gt;b&lt;/mi&gt;&lt;/mtd&gt;&lt;/mtr&gt;&lt;/mtable&gt;&lt;mo&gt;|&lt;/mo&gt;&lt;/mrow&gt;&lt;/math&gt;" role="presentation" style="font-size: 100%; display: inline-block; position: relative;"><svg xmlns="http://www.w3.org/2000/svg" xmlns:xlink="http://www.w3.org/1999/xlink" width="29.114ex" height="5.884ex" viewBox="0 -1508.9 12535.2 2533.5" role="img" focusable="false" style="vertical-align: -2.38ex;" aria-hidden="true"><g stroke="currentColor" fill="currentColor" stroke-width="0" transform="matrix(1 0 0 -1 0 0)"><path stroke-width="1" d="M118 -250V750H255V710H158V-210H255V-250H118Z"/><g transform="translate(445,0)"><g transform="translate(-14,0)"><g transform="translate(0,-48)"><path stroke-width="1" d="M184 600Q184 624 203 642T247 661Q265 661 277 649T290 619Q290 596 270 577T226 557Q211 557 198 567T184 600ZM21 287Q21 295 30 318T54 369T98 420T158 442Q197 442 223 419T250 357Q250 340 236 301T196 196T154 83Q149 61 149 51Q149 26 166 26Q175 26 185 29T208 43T235 78T260 137Q263 149 265 151T282 153Q302 153 302 143Q302 135 293 112T268 61T223 11T161 -11Q129 -11 102 10T74 74Q74 91 79 106T122 220Q160 321 166 341T173 380Q173 404 156 404H154Q124 404 99 371T61 287Q60 286 59 284T58 281T56 279T53 278T49 278T41 278H27Q21 284 21 287Z"/><g transform="translate(345,-150)"><path stroke-width="1" transform="scale(0.707)" d="M127 463Q100 463 85 480T69 524Q69 579 117 622T233 665Q268 665 277 664Q351 652 390 611T430 522Q430 470 396 421T302 350L299 348Q299 347 308 345T337 336T375 315Q457 262 457 175Q457 96 395 37T238 -22Q158 -22 100 21T42 130Q42 158 60 175T105 193Q133 193 151 175T169 130Q169 119 166 110T159 94T148 82T136 74T126 70T118 67L114 66Q165 21 238 21Q293 21 321 74Q338 107 338 175V195Q338 290 274 322Q259 328 213 329L171 330L168 332Q166 335 166 348Q166 366 174 366Q202 366 232 371Q266 376 294 413T322 525V533Q322 590 287 612Q265 626 240 626Q208 626 181 615T143 592T132 580H135Q138 579 143 578T153 573T165 566T175 555T183 540T186 520Q186 498 172 481T127 463Z"/></g></g></g><g transform="translate(1785,0)"><g transform="translate(0,-48)"><path stroke-width="1" d="M297 596Q297 627 318 644T361 661Q378 661 389 651T403 623Q403 595 384 576T340 557Q322 557 310 567T297 596ZM288 376Q288 405 262 405Q240 405 220 393T185 362T161 325T144 293L137 279Q135 278 121 278H107Q101 284 101 286T105 299Q126 348 164 391T252 441Q253 441 260 441T272 442Q296 441 316 432Q341 418 354 401T367 348V332L318 133Q267 -67 264 -75Q246 -125 194 -164T75 -204Q25 -204 7 -183T-12 -137Q-12 -110 7 -91T53 -71Q70 -71 82 -81T95 -112Q95 -148 63 -167Q69 -168 77 -168Q111 -168 139 -140T182 -74L193 -32Q204 11 219 72T251 197T278 308T289 365Q289 372 288 376Z"/><g transform="translate(412,-150)"><path stroke-width="1" transform="scale(0.707)" d="M127 463Q100 463 85 480T69 524Q69 579 117 622T233 665Q268 665 277 664Q351 652 390 611T430 522Q430 470 396 421T302 350L299 348Q299 347 308 345T337 336T375 315Q457 262 457 175Q457 96 395 37T238 -22Q158 -22 100 21T42 130Q42 158 60 175T105 193Q133 193 151 175T169 130Q169 119 166 110T159 94T148 82T136 74T126 70T118 67L114 66Q165 21 238 21Q293 21 321 74Q338 107 338 175V195Q338 290 274 322Q259 328 213 329L171 330L168 332Q166 335 166 348Q166 366 174 366Q202 366 232 371Q266 376 294 413T322 525V533Q322 590 287 612Q265 626 240 626Q208 626 181 615T143 592T132 580H135Q138 579 143 578T153 573T165 566T175 555T183 540T186 520Q186 498 172 481T127 463Z"/></g></g></g></g><path stroke-width="1" d="M22 710V750H159V-250H22V-210H119V710H22Z" transform="translate(3264,0)"/><g transform="translate(3709,0)"><path stroke-width="1" d="M118 -250V750H255V710H158V-210H255V-250H118Z"/><g transform="translate(445,0)"><g transform="translate(-14,0)"><g transform="translate(0,-48)"><path stroke-width="1" d="M184 600Q184 624 203 642T247 661Q265 661 277 649T290 619Q290 596 270 577T226 557Q211 557 198 567T184 600ZM21 287Q21 295 30 318T54 369T98 420T158 442Q197 442 223 419T250 357Q250 340 236 301T196 196T154 83Q149 61 149 51Q149 26 166 26Q175 26 185 29T208 43T235 78T260 137Q263 149 265 151T282 153Q302 153 302 143Q302 135 293 112T268 61T223 11T161 -11Q129 -11 102 10T74 74Q74 91 79 106T122 220Q160 321 166 341T173 380Q173 404 156 404H154Q124 404 99 371T61 287Q60 286 59 284T58 281T56 279T53 278T49 278T41 278H27Q21 284 21 287Z"/><g transform="translate(345,-150)"><path stroke-width="1" transform="scale(0.707)" d="M109 429Q82 429 66 447T50 491Q50 562 103 614T235 666Q326 666 387 610T449 465Q449 422 429 383T381 315T301 241Q265 210 201 149L142 93L218 92Q375 92 385 97Q392 99 409 186V189H449V186Q448 183 436 95T421 3V0H50V19V31Q50 38 56 46T86 81Q115 113 136 137Q145 147 170 174T204 211T233 244T261 278T284 308T305 340T320 369T333 401T340 431T343 464Q343 527 309 573T212 619Q179 619 154 602T119 569T109 550Q109 549 114 549Q132 549 151 535T170 489Q170 464 154 447T109 429Z"/></g></g></g><g transform="translate(1785,0)"><g transform="translate(0,-48)"><path stroke-width="1" d="M297 596Q297 627 318 644T361 661Q378 661 389 651T403 623Q403 595 384 576T340 557Q322 557 310 567T297 596ZM288 376Q288 405 262 405Q240 405 220 393T185 362T161 325T144 293L137 279Q135 278 121 278H107Q101 284 101 286T105 299Q126 348 164 391T252 441Q253 441 260 441T272 442Q296 441 316 432Q341 418 354 401T367 348V332L318 133Q267 -67 264 -75Q246 -125 194 -164T75 -204Q25 -204 7 -183T-12 -137Q-12 -110 7 -91T53 -71Q70 -71 82 -81T95 -112Q95 -148 63 -167Q69 -168 77 -168Q111 -168 139 -140T182 -74L193 -32Q204 11 219 72T251 197T278 308T289 365Q289 372 288 376Z"/><g transform="translate(412,-150)"><path stroke-width="1" transform="scale(0.707)" d="M109 429Q82 429 66 447T50 491Q50 562 103 614T235 666Q326 666 387 610T449 465Q449 422 429 383T381 315T301 241Q265 210 201 149L142 93L218 92Q375 92 385 97Q392 99 409 186V189H449V186Q448 183 436 95T421 3V0H50V19V31Q50 38 56 46T86 81Q115 113 136 137Q145 147 170 174T204 211T233 244T261 278T284 308T305 340T320 369T333 401T340 431T343 464Q343 527 309 573T212 619Q179 619 154 602T119 569T109 550Q109 549 114 549Q132 549 151 535T170 489Q170 464 154 447T109 429Z"/></g></g></g></g><path stroke-width="1" d="M22 710V750H159V-250H22V-210H119V710H22Z" transform="translate(3264,0)"/></g><g transform="translate(7419,0)"><path stroke-width="1" d="M118 -250V750H255V710H158V-210H255V-250H118Z"/><g transform="translate(445,0)"><g transform="translate(-14,0)"><g transform="translate(0,-48)"><path stroke-width="1" d="M184 600Q184 624 203 642T247 661Q265 661 277 649T290 619Q290 596 270 577T226 557Q211 557 198 567T184 600ZM21 287Q21 295 30 318T54 369T98 420T158 442Q197 442 223 419T250 357Q250 340 236 301T196 196T154 83Q149 61 149 51Q149 26 166 26Q175 26 185 29T208 43T235 78T260 137Q263 149 265 151T282 153Q302 153 302 143Q302 135 293 112T268 61T223 11T161 -11Q129 -11 102 10T74 74Q74 91 79 106T122 220Q160 321 166 341T173 380Q173 404 156 404H154Q124 404 99 371T61 287Q60 286 59 284T58 281T56 279T53 278T49 278T41 278H27Q21 284 21 287Z"/><g transform="translate(345,-150)"><path stroke-width="1" transform="scale(0.707)" d="M213 578L200 573Q186 568 160 563T102 556H83V602H102Q149 604 189 617T245 641T273 663Q275 666 285 666Q294 666 302 660V361L303 61Q310 54 315 52T339 48T401 46H427V0H416Q395 3 257 3Q121 3 100 0H88V46H114Q136 46 152 46T177 47T193 50T201 52T207 57T213 61V578Z"/></g></g></g><g transform="translate(1785,0)"><g transform="translate(0,-48)"><path stroke-width="1" d="M297 596Q297 627 318 644T361 661Q378 661 389 651T403 623Q403 595 384 576T340 557Q322 557 310 567T297 596ZM288 376Q288 405 262 405Q240 405 220 393T185 362T161 325T144 293L137 279Q135 278 121 278H107Q101 284 101 286T105 299Q126 348 164 391T252 441Q253 441 260 441T272 442Q296 441 316 432Q341 418 354 401T367 348V332L318 133Q267 -67 264 -75Q246 -125 194 -164T75 -204Q25 -204 7 -183T-12 -137Q-12 -110 7 -91T53 -71Q70 -71 82 -81T95 -112Q95 -148 63 -167Q69 -168 77 -168Q111 -168 139 -140T182 -74L193 -32Q204 11 219 72T251 197T278 308T289 365Q289 372 288 376Z"/><g transform="translate(412,-150)"><path stroke-width="1" transform="scale(0.707)" d="M213 578L200 573Q186 568 160 563T102 556H83V602H102Q149 604 189 617T245 641T273 663Q275 666 285 666Q294 666 302 660V361L303 61Q310 54 315 52T339 48T401 46H427V0H416Q395 3 257 3Q121 3 100 0H88V46H114Q136 46 152 46T177 47T193 50T201 52T207 57T213 61V578Z"/></g></g></g></g><path stroke-width="1" d="M22 710V750H159V-250H22V-210H119V710H22Z" transform="translate(3264,0)"/></g><g transform="translate(11128,0)"><g transform="translate(0,1450)"><path stroke-width="1" d="M139 -249H137Q125 -249 119 -235V251L120 737Q130 750 139 750Q152 750 159 735V-235Q151 -249 141 -249H139Z" transform="translate(0,-751)"/><g transform="translate(0,-1324.6243756243757) scale(1,0.4975024975024975)"><path stroke-width="1" d="M139 -249H137Q125 -249 119 -235V251L120 737Q130 750 139 750Q152 750 159 735V-235Q151 -249 141 -249H139Z"/></g><path stroke-width="1" d="M139 -249H137Q125 -249 119 -235V251L120 737Q130 750 139 750Q152 750 159 735V-235Q151 -249 141 -249H139Z" transform="translate(0,-2150)"/></g><g transform="translate(445,0)"><g transform="translate(-14,0)"><g transform="translate(0,650)"><path stroke-width="1" d="M33 157Q33 258 109 349T280 441Q331 441 370 392Q386 422 416 422Q429 422 439 414T449 394Q449 381 412 234T374 68Q374 43 381 35T402 26Q411 27 422 35Q443 55 463 131Q469 151 473 152Q475 153 483 153H487Q506 153 506 144Q506 138 501 117T481 63T449 13Q436 0 417 -8Q409 -10 393 -10Q359 -10 336 5T306 36L300 51Q299 52 296 50Q294 48 292 46Q233 -10 172 -10Q117 -10 75 30T33 157ZM351 328Q351 334 346 350T323 385T277 405Q242 405 210 374T160 293Q131 214 119 129Q119 126 119 118T118 106Q118 61 136 44T179 26Q217 26 254 59T298 110Q300 114 325 217T351 328Z"/></g><g transform="translate(0,-750)"><path stroke-width="1" d="M73 647Q73 657 77 670T89 683Q90 683 161 688T234 694Q246 694 246 685T212 542Q204 508 195 472T180 418L176 399Q176 396 182 402Q231 442 283 442Q345 442 383 396T422 280Q422 169 343 79T173 -11Q123 -11 82 27T40 150V159Q40 180 48 217T97 414Q147 611 147 623T109 637Q104 637 101 637H96Q86 637 83 637T76 640T73 647ZM336 325V331Q336 405 275 405Q258 405 240 397T207 376T181 352T163 330L157 322L136 236Q114 150 114 114Q114 66 138 42Q154 26 178 26Q211 26 245 58Q270 81 285 114T318 219Q336 291 336 325Z"/></g></g></g><g transform="translate(1128,1450)"><path stroke-width="1" d="M139 -249H137Q125 -249 119 -235V251L120 737Q130 750 139 750Q152 750 159 735V-235Q151 -249 141 -249H139Z" transform="translate(0,-751)"/><g transform="translate(0,-1324.6243756243757) scale(1,0.4975024975024975)"><path stroke-width="1" d="M139 -249H137Q125 -249 119 -235V251L120 737Q130 750 139 750Q152 750 159 735V-235Q151 -249 141 -249H139Z"/></g><path stroke-width="1" d="M139 -249H137Q125 -249 119 -235V251L120 737Q130 750 139 750Q152 750 159 735V-235Q151 -249 141 -249H139Z" transform="translate(0,-2150)"/></g></g></g></svg><span class="MJX_Assistive_MathML MJX_Assistive_MathML_Block" role="presentation"></span></span></div><script type="math/tex; mode=display" id="MathJax-Element-14">\left[\begin{matrix}i_3&amp;amp;j_3\\\end{matrix}\right]\left[\begin{matrix}i_2&amp;amp;j_2\\\end{matrix}\right]\left[\begin{matrix}i_1&amp;amp;j_1\\\end{matrix}\right]\left|\begin{array}{l}a\\b\\\end{array}\right|</script></span><br /></h1></div></div></div></foreignObject><text x="5" y="16" fill="#000000" font-family="Helvetica" font-size="16px">\left[\begin{matrix}i_3&amp;j_3\\\end{...</text></switch></g><path d="M 176.12 76 L 176.12 110 L 220 110 L 220 82.37" fill="none" stroke="rgb(0, 0, 0)" stroke-miterlimit="10" pointer-events="stroke"/><path d="M 220 77.12 L 223.5 84.12 L 220 82.37 L 216.5 84.12 Z" fill="rgb(0, 0, 0)" stroke="rgb(0, 0, 0)" stroke-miterlimit="10" pointer-events="all"/><path d="M 40.04 71.14 L 40.04 170 L 240 170 L 240 86.37" fill="none" stroke="rgb(0, 0, 0)" stroke-miterlimit="10" pointer-events="stroke"/><path d="M 240 81.12 L 243.5 88.12 L 240 86.37 L 236.5 88.12 Z" fill="rgb(0, 0, 0)" stroke="rgb(0, 0, 0)" stroke-miterlimit="10" pointer-events="all"/><path d="M 103.32 70.36 L 103.32 130 L 230 130 L 230 86.37" fill="none" stroke="rgb(0, 0, 0)" stroke-miterlimit="10" pointer-events="stroke"/><path d="M 230 81.12 L 233.5 88.12 L 230 86.37 L 226.5 88.12 Z" fill="rgb(0, 0, 0)" stroke="rgb(0, 0, 0)" stroke-miterlimit="10" pointer-events="all"/><rect x="137" y="90" width="80" height="20" fill="none" stroke="none" pointer-events="all"/><g transform="translate(-0.5 -0.5)"><switch><foreignObject pointer-events="none" width="100%" height="100%" requiredFeatures="http://www.w3.org/TR/SVG11/feature#Extensibility" style="overflow: visible; text-align: left;"><div xmlns="http://www.w3.org/1999/xhtml" style="display: flex; align-items: unsafe center; justify-content: unsafe center; width: 1px; height: 1px; padding-top: 100px; margin-left: 177px;"><div data-drawio-colors="color: rgb(0, 0, 0); " style="box-sizing: border-box; font-size: 0px; text-align: center;"><div style="display: inline-block; font-size: 12px; font-family: Helvetica; color: rgb(0, 0, 0); line-height: 1.2; pointer-events: all; white-space: nowrap;">做第1步变换</div></div></div></foreignObject><text x="177" y="104" fill="rgb(0, 0, 0)" font-family="Helvetica" font-size="12px" text-anchor="middle">做第1步变换</text></switch></g><rect x="120" y="135" width="80" height="20" fill="none" stroke="none" pointer-events="all"/><g transform="translate(-0.5 -0.5)"><switch><foreignObject pointer-events="none" width="100%" height="100%" requiredFeatures="http://www.w3.org/TR/SVG11/feature#Extensibility" style="overflow: visible; text-align: left;"><div xmlns="http://www.w3.org/1999/xhtml" style="display: flex; align-items: unsafe center; justify-content: unsafe center; width: 1px; height: 1px; padding-top: 145px; margin-left: 160px;"><div data-drawio-colors="color: rgb(0, 0, 0); " style="box-sizing: border-box; font-size: 0px; text-align: center;"><div style="display: inline-block; font-size: 12px; font-family: Helvetica; color: rgb(0, 0, 0); line-height: 1.2; pointer-events: all; white-space: nowrap;">做第2步变换</div></div></div></foreignObject><text x="160" y="149" fill="rgb(0, 0, 0)" font-family="Helvetica" font-size="12px" text-anchor="middle">做第2步变换</text></switch></g><rect x="97" y="170" width="80" height="20" fill="none" stroke="none" pointer-events="all"/><g transform="translate(-0.5 -0.5)"><switch><foreignObject pointer-events="none" width="100%" height="100%" requiredFeatures="http://www.w3.org/TR/SVG11/feature#Extensibility" style="overflow: visible; text-align: left;"><div xmlns="http://www.w3.org/1999/xhtml" style="display: flex; align-items: unsafe center; justify-content: unsafe center; width: 1px; height: 1px; padding-top: 180px; margin-left: 137px;"><div data-drawio-colors="color: rgb(0, 0, 0); " style="box-sizing: border-box; font-size: 0px; text-align: center;"><div style="display: inline-block; font-size: 12px; font-family: Helvetica; color: rgb(0, 0, 0); line-height: 1.2; pointer-events: all; white-space: nowrap;">做第3步变换</div></div></div></foreignObject><text x="137" y="184" fill="rgb(0, 0, 0)" font-family="Helvetica" font-size="12px" text-anchor="middle">做第3步变换</text></switch></g></g><switch><g requiredFeatures="http://www.w3.org/TR/SVG11/feature#Extensibility"/><a transform="translate(0,-5)" xlink:href="https://www.diagrams.net/doc/faq/svg-export-text-problems" target="_blank"><text text-anchor="middle" font-size="10px" x="50%" y="100%">Text is not SVG - cannot display</text></a></switch></svg>