<svg xmlns="http://www.w3.org/2000/svg" viewBox="0 0 125.75 125.75"><defs><style>.cls-1,.cls-5,.cls-6{fill:none;stroke:#231815;stroke-miterlimit:10;}.cls-1{stroke-width:0.5px;}.cls-2,.cls-3,.cls-4{fill:#231815;}.cls-3,.cls-4{font-size:8px;font-family:AdobeSongStd-Light-GBpc-EUC-H, Adobe Song Std;}.cls-4{letter-spacing:0em;}.cls-5,.cls-6{stroke-width:0.25px;}.cls-5{stroke-dasharray:2 2;}</style></defs><title>资源 15</title><g id="图层_2" data-name="图层 2"><g id="图层_1-2" data-name="图层 1"><line class="cls-1" x1="67.5" y1="70.5" x2="67.5" y2="26.38"/><polygon class="cls-2" points="67.5 22.85 69.54 27.83 67.5 26.65 65.47 27.83 67.5 22.85"/><line class="cls-1" x1="67.5" y1="70.5" x2="93.67" y2="57.95"/><polygon class="cls-2" points="96.86 56.42 93.25 60.4 93.43 58.06 91.49 56.74 96.86 56.42"/><line class="cls-1" x1="67.5" y1="70.5" x2="97.49" y2="81.22"/><polygon class="cls-2" points="100.81 82.4 95.44 82.64 97.24 81.13 96.81 78.82 100.81 82.4"/><line class="cls-1" x1="67.5" y1="70.5" x2="18.99" y2="73.22"/><polygon class="cls-2" points="15.47 73.41 20.32 71.11 19.25 73.2 20.55 75.17 15.47 73.41"/><text class="cls-3" transform="translate(73.15 30.88)">x</text><text class="cls-3" transform="translate(5.75 76.4)">y</text><text class="cls-4" transform="translate(9.36 79.06) scale(0.58)">1</text><text class="cls-3" transform="translate(77.16 14.18)">R</text><text class="cls-3" transform="translate(82.18 11.52) scale(0.58)">n</text><text class="cls-3" transform="translate(102.36 90.82)">y</text><text class="cls-4" transform="translate(105.98 93.48) scale(0.58)">2</text><text class="cls-3" transform="translate(97.03 51.94)">y</text><text class="cls-3" transform="translate(100.65 54.61) scale(0.58)">r</text><text class="cls-3" transform="translate(60.61 80.39)">W</text><ellipse class="cls-5" cx="67.03" cy="69.87" rx="52.82" ry="16.3"/><polyline class="cls-1" points="67.88 64.88 61.61 64.88 61.61 70.96"/><polyline class="cls-1" points="67.5 64.88 70.86 62.88 70.86 68.96"/><circle class="cls-6" cx="62.88" cy="62.88" r="62.75"/></g></g></svg>