<svg xmlns="http://www.w3.org/2000/svg" viewBox="0 0 332.12 165.6"><defs><style>.cls-1,.cls-2,.cls-3{fill:none;stroke-miterlimit:10;}.cls-1{stroke:#c30d23;}.cls-1,.cls-2{stroke-width:3px;}.cls-2{stroke:#094;}.cls-3{stroke:#231815;stroke-width:0.5px;}.cls-4,.cls-5,.cls-8{fill:#231815;}.cls-5{font-size:8px;font-family:MicrosoftYaHei, Microsoft YaHei;}.cls-6{fill:#c30d23;}.cls-7{fill:#094;}.cls-8{font-size:158.65px;font-family:zktqkt;}</style></defs><g id="图层_2" data-name="图层 2"><g id="图层_1-2" data-name="图层 1"><line class="cls-1" x1="48.32" y1="54.39" x2="48.32" y2="101.39"/><line class="cls-2" x1="55.82" y1="54.39" x2="55.82" y2="101.39"/><line class="cls-1" x1="63.32" y1="54.39" x2="63.32" y2="101.39"/><line class="cls-2" x1="70.82" y1="54.39" x2="70.82" y2="101.39"/><line class="cls-2" x1="78.32" y1="54.39" x2="78.32" y2="101.39"/><line class="cls-1" x1="85.82" y1="54.39" x2="85.82" y2="101.39"/><polyline class="cls-3" points="48.66 109.69 48.66 122.35 85.82 122.35 85.82 108.92"/><polygon class="cls-4" points="48.66 106.16 46.63 111.13 48.66 109.95 50.69 111.13 48.66 106.16"/><polygon class="cls-4" points="85.82 105.39 87.85 110.36 85.82 109.18 83.78 110.36 85.82 105.39"/><line class="cls-3" x1="63.32" y1="135.89" x2="63.32" y2="108.92"/><polygon class="cls-4" points="63.32 105.39 65.35 110.36 63.32 109.18 61.28 110.36 63.32 105.39"/><polyline class="cls-3" points="78.32 41.87 78.32 29.2 55.82 29.2 55.82 42.64"/><polygon class="cls-4" points="78.32 45.4 80.35 40.42 78.32 41.6 76.28 40.42 78.32 45.4"/><polygon class="cls-4" points="55.82 46.17 53.78 41.19 55.82 42.37 57.85 41.19 55.82 46.17"/><line class="cls-3" x1="70.28" y1="15.67" x2="70.28" y2="42.64"/><polygon class="cls-4" points="70.28 46.17 68.25 41.19 70.28 42.37 72.31 41.19 70.28 46.17"/><text class="cls-5" transform="translate(0 151.56)">主元列数 = 矩阵的 rank = <tspan class="cls-6" x="96.46" y="0">列空间的 dimension</tspan><tspan class="cls-6"><tspan x="0" y="12" xml:space="preserve">                                        = rank</tspan></tspan></text><text class="cls-5" transform="translate(42.48 7.75)">自由变量数 = <tspan class="cls-7" x="50.67" y="0">零空间的 dimension</tspan><tspan class="cls-7"><tspan x="0" y="12" xml:space="preserve">                  = n - rank</tspan></tspan></text><text class="cls-8" transform="translate(163.68 136.34)">}</text><text class="cls-5" transform="translate(215.67 70.42)"><tspan xml:space="preserve">   零空间 dimension  = n - rank</tspan><tspan x="0" y="12">+列空间 dimension = rank</tspan><tspan x="0" y="24">= 矩阵A接收的物体的维度数n</tspan></text></g></g></svg>