<svg xmlns="http://www.w3.org/2000/svg" viewBox="0 0 270.54 212.16"><defs><style>.cls-1{font-size:9px;}.cls-1,.cls-4,.cls-8{fill:#231815;}.cls-1,.cls-4,.cls-5{font-family:MicrosoftYaHei, Microsoft YaHei;}.cls-10,.cls-2,.cls-5{fill:#c30d23;}.cls-2,.cls-3,.cls-5{text-decoration:underline;}.cls-4,.cls-5{font-size:11.49px;}.cls-11,.cls-12,.cls-13,.cls-14,.cls-6,.cls-7,.cls-9{fill:none;stroke-miterlimit:10;}.cls-11,.cls-12,.cls-13,.cls-14,.cls-6,.cls-7{stroke:#231815;}.cls-11,.cls-12,.cls-13,.cls-6{stroke-width:0.25px;}.cls-14,.cls-7,.cls-9{stroke-width:0.5px;}.cls-9{stroke:#c30d23;}.cls-11{stroke-dasharray:2.01 2.01;}.cls-12{stroke-dasharray:2.07 2.07;}.cls-13,.cls-14{stroke-dasharray:2 2;}</style></defs><title>资源 29</title><g id="图层_2" data-name="图层 2"><g id="图层_1-2" data-name="图层 1"><text class="cls-1" transform="translate(0 167.86)">精确的原像x很难找到, 那我们的策略就是:<tspan x="0" y="14">找一个和 x 最最接近的 </tspan><tspan class="cls-2" x="93.55" y="14">x</tspan><tspan x="98.11" y="14">, </tspan><tspan x="0" y="28">怎么找呢? 就是从b身上下手,在Col(A) 中找到一个</tspan><tspan x="0" y="42">与 b 最接近的 </tspan><tspan class="cls-2" x="58.74" y="42">b</tspan><tspan x="64.49" y="42">, 倒推出 </tspan><tspan class="cls-3" x="98.98" y="42">x</tspan></text><text class="cls-4" transform="translate(1.27 70.47)">Ax=b</text><text class="cls-1" transform="translate(171.66 14.45)">Ax, 即A的列的线性组合, <tspan x="0" y="14">构成了A的列空间</tspan></text><text class="cls-4" transform="translate(173.65 56.58)">Col(A)</text><text class="cls-4" transform="translate(118.77 27.22)">b</text><text class="cls-5" transform="translate(115.79 99.75)">b</text><text class="cls-4" transform="translate(1.27 137.03)">A<tspan class="cls-2" x="8.09" y="0">x</tspan><tspan x="13.91" y="0">=</tspan><tspan class="cls-2" x="22.43" y="0">b</tspan></text><polygon class="cls-6" points="171.47 112.44 33.57 112.44 85.07 43.01 222.98 43.01 171.47 112.44"/><line class="cls-7" x1="74.33" y1="104.08" x2="146.5" y2="2.87"/><polygon class="cls-8" points="148.55 0 147.32 5.23 146.35 3.09 144.01 2.87 148.55 0"/><line class="cls-9" x1="74.33" y1="104.08" x2="145.29" y2="74.78"/><polygon class="cls-10" points="148.55 73.44 144.73 77.21 145.05 74.88 143.18 73.45 148.55 73.44"/><line class="cls-6" x1="38.42" y1="134.46" x2="39.42" y2="134.46"/><line class="cls-11" x1="41.43" y1="134.46" x2="116.76" y2="134.46"/><polyline class="cls-6" points="117.77 134.46 118.77 134.46 118.77 133.46"/><line class="cls-12" x1="118.77" y1="131.39" x2="118.77" y2="107.62"/><line class="cls-6" x1="118.77" y1="106.58" x2="118.77" y2="105.58"/><polygon class="cls-8" points="118.77 103.82 119.78 106.3 118.77 105.71 117.75 106.3 118.77 103.82"/><polyline class="cls-13" points="33.57 65.99 78.34 65.99 90.26 69.01"/><polygon class="cls-8" points="91.97 69.45 89.31 69.82 90.13 68.98 89.81 67.85 91.97 69.45"/><line class="cls-13" x1="11.72" y1="126.32" x2="11.72" y2="75.41"/><polygon class="cls-8" points="11.72 73.65 12.74 76.14 11.72 75.55 10.7 76.14 11.72 73.65"/><line class="cls-14" x1="148.55" y1="73.44" x2="148.55"/></g></g></svg>