<svg xmlns="http://www.w3.org/2000/svg" viewBox="0 0 135.67 81.8"><defs><style>.cls-1,.cls-3,.cls-6,.cls-7{fill:none;stroke-miterlimit:10;}.cls-1,.cls-3{stroke:#231815;}.cls-1,.cls-6,.cls-7{stroke-width:0.25px;}.cls-2,.cls-4{fill:#231815;}.cls-3{stroke-width:0.24px;}.cls-4,.cls-5{font-size:4px;font-family:MicrosoftYaHeiLight, Microsoft YaHei;}.cls-5,.cls-8{fill:#c9caca;}.cls-6,.cls-7{stroke:#c9caca;}.cls-7{stroke-dasharray:2.04 2.04;}</style></defs><title>资源 2</title><g id="图层_2" data-name="图层 2"><g id="图层_1-2" data-name="图层 1"><polyline class="cls-1" points="23.33 10.9 23.33 72.63 88.57 72.63"/><polygon class="cls-2" points="23.33 9.13 22.32 11.62 23.33 11.03 24.35 11.62 23.33 9.13"/><polygon class="cls-2" points="90.33 72.63 87.85 73.65 88.44 72.63 87.85 71.62 90.33 72.63"/><line class="cls-3" x1="27.42" y1="40.42" x2="84.75" y2="40.42"/><line class="cls-3" x1="56.08" y1="10.8" x2="56.08" y2="70.05"/><text class="cls-4" transform="translate(0 40.42)">执行难度</text><text class="cls-4" transform="translate(19.33 3.42)">high</text><text class="cls-4" transform="translate(94 74.09)">high</text><text class="cls-4" transform="translate(18 79.42)">low</text><text class="cls-4" transform="translate(48.33 80.76)">战略重要性</text><text class="cls-5" transform="translate(35 59.13)">鸡肋</text><text class="cls-5" transform="translate(70.33 59.13)">主战场</text><text class="cls-5" transform="translate(70.33 24.47)">战略拓展</text><text class="cls-5" transform="translate(36.33 24.47)">放弃</text><path class="cls-6" d="M92.88,25.55l.75.66"/><path class="cls-7" d="M95.09,27.64c5.27,5.65,7,13,4.39,19.3-2.33,5.61-7.42,8.66-10.32,10"/><path class="cls-6" d="M88.24,57.37c-.4.17-.71.29-.92.36"/><polygon class="cls-8" points="91.48 24.46 92.81 26.8 92.97 25.64 94.06 25.21 91.48 24.46"/><text class="cls-5" transform="translate(103.67 42.47)">立足短期获利, <tspan x="0" y="4.8">进入长期战略领域</tspan></text><circle class="cls-1" cx="37.5" cy="30.97" r="3.65"/><circle class="cls-1" cx="44.55" cy="49.58" r="1.88"/><circle class="cls-1" cx="62.83" cy="55.58" r="7.88"/><circle class="cls-1" cx="80.53" cy="13.35" r="4.22"/></g></g></svg>