<svg xmlns="http://www.w3.org/2000/svg" viewBox="0 0 81.65 73.1"><defs><style>.cls-1,.cls-3{fill:none;stroke:#231815;stroke-miterlimit:10;}.cls-1{stroke-width:0.25px;}.cls-2,.cls-4{fill:#231815;}.cls-3{stroke-width:0.24px;}.cls-4{font-size:4px;font-family:MicrosoftYaHeiLight, Microsoft YaHei;}.cls-5{letter-spacing:-0.02em;}.cls-6{letter-spacing:-0.04em;}.cls-7{letter-spacing:0.05em;}</style></defs><title>资源 3</title><g id="图层_2" data-name="图层 2"><g id="图层_1-2" data-name="图层 1"><polyline class="cls-1" points="12.23 2.19 12.23 63.92 77.47 63.92"/><polygon class="cls-2" points="12.23 0.42 11.21 2.91 12.23 2.32 13.25 2.91 12.23 0.42"/><polygon class="cls-2" points="79.23 63.92 76.74 64.94 77.33 63.92 76.74 62.91 79.23 63.92"/><line class="cls-3" x1="16.31" y1="31.72" x2="73.65" y2="31.72"/><line class="cls-3" x1="44.98" y1="2.09" x2="44.98" y2="61.34"/><text class="cls-4" transform="translate(19.52 15.76)">St<tspan class="cls-5" x="3.43" y="0">r</tspan><tspan x="4.77" y="0">engths</tspan><tspan x="4.48" y="4.8">优势</tspan></text><text class="cls-4" transform="translate(0 63.92)">不利</text><text class="cls-4" transform="translate(13.75 72.05)">内部</text><text class="cls-4" transform="translate(73.65 72.05)">外部</text><text class="cls-4" transform="translate(0 3.42)">有利</text><text class="cls-4" transform="translate(17.17 49.72)"><tspan class="cls-6">W</tspan><tspan x="3.71" y="0">eaknesses</tspan><tspan x="6.83" y="4.8">劣势</tspan></text><text class="cls-4" transform="translate(55.66 49.73)">Th<tspan class="cls-5" x="4.52" y="0">r</tspan><tspan x="5.86" y="0">eats</tspan><tspan x="2.57" y="4.8">威胁</tspan></text><text class="cls-4" transform="translate(49.73 15.76)">Oppo<tspan class="cls-7" x="10.55" y="0">r</tspan><tspan x="12.17" y="0">tunities</tspan><tspan x="8.5" y="4.8">机会</tspan></text></g></g></svg>