<svg xmlns="http://www.w3.org/2000/svg" viewBox="0 0 106.28 72.67"><defs><style>.cls-1,.cls-3{fill:none;stroke:#231815;stroke-miterlimit:10;}.cls-1{stroke-width:0.25px;}.cls-2,.cls-4{fill:#231815;}.cls-3{stroke-width:0.24px;}.cls-4{font-size:4px;font-family:MicrosoftYaHeiLight, Microsoft YaHei;}</style></defs><title>资源 4</title><g id="图层_2" data-name="图层 2"><g id="图层_1-2" data-name="图层 1"><polyline class="cls-1" points="27 1.76 27 63.5 92.23 63.5"/><polygon class="cls-2" points="27 0 25.98 2.49 27 1.9 28.02 2.49 27 0"/><polygon class="cls-2" points="94 63.5 91.51 64.52 92.1 63.5 91.51 62.48 94 63.5"/><line class="cls-3" x1="31.08" y1="31.29" x2="88.42" y2="31.29"/><line class="cls-3" x1="59.75" y1="1.67" x2="59.75" y2="60.92"/><text class="cls-4" transform="translate(3.67 31.29)">青春饭</text><text class="cls-4" transform="translate(97.67 64.96)">high</text><text class="cls-4" transform="translate(27 70.29)">low</text><text class="cls-4" transform="translate(0 63.5)">有年龄要求</text><text class="cls-4" transform="translate(0 4.17)">可做到老</text><text class="cls-4" transform="translate(55 71.63)">前途</text><text class="cls-4" transform="translate(74 50)">编程</text><text class="cls-4" transform="translate(74 15.33)">老师, 律师, 谋事者<tspan x="0" y="7">数学, 英语, 金融</tspan></text><text class="cls-4" transform="translate(31.67 44)">设计师<tspan x="0" y="4.8">厂工, 快递外卖</tspan><tspan x="0" y="9.6">运动员, </tspan><tspan x="0" y="14.4">舞蹈, 戏曲武生</tspan></text><text class="cls-4" transform="translate(31.67 15.33)">相声, 评书<tspan x="0" y="4.8">唱歌</tspan></text></g></g></svg>