<svg xmlns="http://www.w3.org/2000/svg" viewBox="0 0 536 325.96"><defs><style>.cls-1,.cls-11,.cls-6{fill:none;stroke-miterlimit:10;}.cls-1,.cls-6{stroke:#3e3a39;}.cls-2{font-size:21px;}.cls-2,.cls-3,.cls-8{font-family:MicrosoftYaHeiLight, Microsoft YaHei;}.cls-3{font-size:16px;}.cls-4{letter-spacing:-0.02em;}.cls-5{fill:#3e3a39;}.cls-11,.cls-6{stroke-width:2px;}.cls-7{fill:#172a88;}.cls-8{font-size:17px;fill:#fff;}.cls-9{letter-spacing:-0.1em;}.cls-10{letter-spacing:-0.3em;}.cls-11{stroke:#231815;}.cls-12{fill:#231815;}</style></defs><title>资源 47</title><g id="图层_2" data-name="图层 2"><g id="图层_1-2" data-name="图层 1"><line class="cls-1" x1="289.48" y1="4.33" x2="289.48" y2="297.36"/><text class="cls-2" transform="translate(274.27 320.47)">now</text><text class="cls-2" transform="translate(55.66 320.47)">past</text><text class="cls-3" transform="translate(252.52 203.34)">(条件)从现</text><text class="cls-3" transform="translate(237.39 42.34)">因</text><text class="cls-3" transform="translate(103.39 68.34)">果</text><text class="cls-3" transform="translate(79.39 203.34)">主过</text><text class="cls-2" transform="translate(476.49 320.47)">futu<tspan class="cls-4" x="37.27" y="0">r</tspan><tspan x="44.31" y="0">e</tspan></text><line class="cls-5" x1="7" y1="257.65" x2="536" y2="257.65"/><line class="cls-6" x1="7" y1="257.65" x2="521.88" y2="257.65"/><polygon class="cls-5" points="536 257.65 516.1 265.78 520.82 257.65 516.1 249.52 536 257.65"/><circle cx="290.5" cy="114.32" r="60.5"/><rect class="cls-7" y="97.32" width="185" height="34"/><text class="cls-8" transform="translate(278.22 109.17)"><tspan xml:space="preserve"> i</tspan><tspan class="cls-9" x="8.8" y="0">f</tspan><tspan x="12.09" y="0">…</tspan><tspan class="cls-10" x="24.32" y="0">​</tspan><tspan x="-0.01" y="20.4">did</tspan></text><text class="cls-8" transform="translate(30.87 119.37)"><tspan xml:space="preserve"> would have done</tspan></text><path class="cls-11" d="M282,50.36c-42-49.75-107-62.17-150-36C102.73,32.18,91.47,63.19,87.25,80.63"/><polygon class="cls-12" points="81.23 73.68 87.87 78.23 95.75 76.62 85 92.36 81.23 73.68"/></g></g></svg>