<svg xmlns:xlink="http://www.w3.org/1999/xlink" height="274" width="313" xmlns="http://www.w3.org/2000/svg" viewBox="0 0 313 274">
    <defs/>
    <g transform="translate(-901.50,-226.00)">
        <g id="shape1" transform="translate(981.50,454.00)">
            <path fill="none" d="M.0,.0L183.0,.0" stroke="#191919"/>
            <path fill="#191919" d="M183.0,-3.0L189.0,.0L183.0,3.0L183.0,-3.0" stroke="#191919" stroke-width="1" stroke-linecap="round"/>
        </g>
        <g id="shape2" transform="matrix(0.00,-1.00,1.00,0.00,981.5,454.0)">
            <path fill="none" d="M.0,.0L183.0,.0" stroke="#191919"/>
            <path fill="#191919" d="M183.0,-3.0L189.0,.0L183.0,3.0L183.0,-3.0" stroke="#191919" stroke-width="1" stroke-linecap="round"/>
        </g>
        <path fill="none" id="shape3" d="M.0,.0L180.0,.0" stroke="#191919" transform="translate(985.50,359.00)"/>
        <path fill="none" id="shape4" d="M.0,.0L189.0,.0" stroke="#191919" transform="matrix(-0.00,1.00,-1.00,-0.00,1075.5,265.0)"/>
        <g id="shape5" transform="translate(1020.00,445.00)">
            <text xml:space="preserve" style="fill:#191919;font-family:Microsoft YaHei;font-size:10.00pt">
                <tspan x="8.0" y="32.5">财务影响(2年内)</tspan>
            </text>
        </g>
        <g id="shape6" transform="translate(902.50,341.50)">
            <text xml:space="preserve" style="fill:#191919;font-family:Microsoft YaHei;font-size:10.00pt">
                <tspan x="13.5" y="23.0">可执行性</tspan>
            </text>
        </g>
        <g id="shape7" transform="translate(940.50,454.50)">
            <text xml:space="preserve" style="fill:#191919;font-family:Microsoft YaHei;font-size:10.00pt">
                <tspan x="29.0" y="23.0">low</tspan>
            </text>
        </g>
        <g id="shape8" transform="translate(940.50,227.00)">
            <text xml:space="preserve" style="fill:#191919;font-family:Microsoft YaHei;font-size:10.00pt">
                <tspan x="26.0" y="23.0">high</tspan>
            </text>
        </g>
        <g id="shape9" transform="translate(1134.50,454.50)">
            <text xml:space="preserve" style="fill:#191919;font-family:Microsoft YaHei;font-size:10.00pt">
                <tspan x="26.0" y="23.0">high</tspan>
            </text>
        </g>
        <g id="shape10" transform="translate(1010.00,286.00)">
            <path fill="#ffffff" d="M.0,14.5C.0,6.5,6.5,.0,14.5,.0C22.5,.0,29.0,6.5,29.0,14.5C29.0,22.5,22.5,29.0,14.5,29.0C6.5,29.0,.0,22.5,.0,14.5z" stroke="#323232" fill-rule="nonzero"/>
            <text xml:space="preserve" style="fill:#191919;font-family:Microsoft YaHei;font-size:10.00pt">
                <tspan x="10.5" y="20.0">1</tspan>
            </text>
        </g>
        <g id="shape11" transform="translate(1020.00,390.00)">
            <path fill="#ffffff" d="M.0,14.5C.0,6.5,6.5,.0,14.5,.0C22.5,.0,29.0,6.5,29.0,14.5C29.0,22.5,22.5,29.0,14.5,29.0C6.5,29.0,.0,22.5,.0,14.5z" stroke="#323232" fill-rule="nonzero"/>
            <text xml:space="preserve" style="fill:#191919;font-family:Microsoft YaHei;font-size:10.00pt">
                <tspan x="10.5" y="20.0">2</tspan>
            </text>
        </g>
        <g id="shape12" transform="translate(1124.00,321.00)">
            <path fill="#ffffff" d="M.0,14.5C.0,6.5,6.5,.0,14.5,.0C22.5,.0,29.0,6.5,29.0,14.5C29.0,22.5,22.5,29.0,14.5,29.0C6.5,29.0,.0,22.5,.0,14.5z" stroke="#323232" fill-rule="nonzero"/>
            <text xml:space="preserve" style="fill:#191919;font-family:Microsoft YaHei;font-size:10.00pt">
                <tspan x="10.5" y="20.0">3</tspan>
            </text>
        </g>
        <g id="shape13" transform="translate(1048.00,368.00)">
            <path fill="#ffffff" d="M.0,14.5C.0,6.5,6.5,.0,14.5,.0C22.5,.0,29.0,6.5,29.0,14.5C29.0,22.5,22.5,29.0,14.5,29.0C6.5,29.0,.0,22.5,.0,14.5z" stroke="#323232" fill-rule="nonzero"/>
            <text xml:space="preserve" style="fill:#191919;font-family:Microsoft YaHei;font-size:10.00pt">
                <tspan x="10.5" y="20.0">4</tspan>
            </text>
        </g>
        <g id="shape14" transform="translate(1124.00,420.50)">
            <path fill="#ffffff" d="M.0,14.5C.0,6.5,6.5,.0,14.5,.0C22.5,.0,29.0,6.5,29.0,14.5C29.0,22.5,22.5,29.0,14.5,29.0C6.5,29.0,.0,22.5,.0,14.5z" stroke="#323232" fill-rule="nonzero"/>
            <text xml:space="preserve" style="fill:#191919;font-family:Microsoft YaHei;font-size:10.00pt">
                <tspan x="10.5" y="20.0">5</tspan>
            </text>
        </g>
    </g>
</svg>
