<svg xmlns="http://www.w3.org/2000/svg" viewBox="0 0 350.54 260.21"><defs><style>.cls-1,.cls-10,.cls-11,.cls-3,.cls-4,.cls-5,.cls-6,.cls-7,.cls-8,.cls-9{fill:none;stroke-miterlimit:10;}.cls-1{stroke:#231815;}.cls-12,.cls-15,.cls-2{fill:#231815;}.cls-3{stroke:#22ac38;}.cls-4{stroke:#c30d23;}.cls-10,.cls-11,.cls-5,.cls-6,.cls-7,.cls-8,.cls-9{stroke:#727171;stroke-width:0.75px;}.cls-6{stroke-dasharray:2.01 2.01;}.cls-7{stroke-dasharray:1.95 1.95;}.cls-8{stroke-dasharray:1.93 1.93;}.cls-9{stroke-dasharray:2.02 2.02;}.cls-10{stroke-dasharray:1.96 1.96;}.cls-11{stroke-dasharray:2.01 2.01;}.cls-12,.cls-13{font-size:11px;}.cls-12,.cls-13,.cls-15,.cls-16,.cls-17{font-family:MicrosoftYaHei, Microsoft YaHei;}.cls-13,.cls-16{fill:#c30d23;}.cls-14{letter-spacing:-0.5em;}.cls-15,.cls-16{font-size:10px;}.cls-17{font-size:9px;fill:#727171;}</style></defs><title>资源 30</title><g id="图层_2" data-name="图层 2"><g id="图层_1-2" data-name="图层 1"><line class="cls-1" x1="106.91" y1="210.43" x2="106.91" y2="24.99"/><polygon class="cls-2" points="106.91 17.93 110.97 27.88 106.91 25.52 102.84 27.88 106.91 17.93"/><line class="cls-1" x1="106.91" y1="210.43" x2="318.8" y2="210.43"/><polygon class="cls-2" points="325.86 210.43 315.91 214.5 318.27 210.43 315.91 206.37 325.86 210.43"/><path class="cls-1" d="M134.86,171.46c5.44-48.36,16.53-60.41,25.55-62.6,19.64-4.75,36.55,35.53,63.88,34.07,21.49-1.14,37.6-27.48,47.69-49"/><line class="cls-3" x1="134.86" y1="171.46" x2="271.98" y2="93.96"/><line class="cls-4" x1="122.48" y1="129" x2="192.31" y2="89.53"/><line class="cls-5" x1="271.98" y1="93.96" x2="271.98" y2="94.96"/><line class="cls-6" x1="271.98" y1="96.97" x2="271.98" y2="208.43"/><line class="cls-5" x1="271.98" y1="209.43" x2="271.98" y2="210.43"/><line class="cls-5" x1="134.86" y1="171.46" x2="134.86" y2="172.46"/><line class="cls-7" x1="134.86" y1="174.41" x2="134.86" y2="208.46"/><line class="cls-5" x1="134.86" y1="209.43" x2="134.86" y2="210.43"/><line class="cls-5" x1="134.04" y1="171.46" x2="133.04" y2="171.46"/><line class="cls-8" x1="131.11" y1="171.46" x2="108.87" y2="171.46"/><line class="cls-5" x1="107.91" y1="171.46" x2="106.91" y2="171.46"/><line class="cls-5" x1="159.36" y1="109.26" x2="159.36" y2="110.26"/><line class="cls-9" x1="159.36" y1="112.29" x2="159.36" y2="208.42"/><line class="cls-5" x1="159.36" y1="209.43" x2="159.36" y2="210.43"/><line class="cls-5" x1="157.82" y1="109.26" x2="156.82" y2="109.26"/><line class="cls-10" x1="154.86" y1="109.26" x2="108.88" y2="109.26"/><line class="cls-5" x1="107.91" y1="109.26" x2="106.91" y2="109.26"/><line class="cls-5" x1="272.02" y1="93.96" x2="271.02" y2="93.96"/><line class="cls-11" x1="269.01" y1="93.96" x2="108.91" y2="93.96"/><line class="cls-5" x1="107.91" y1="93.96" x2="106.91" y2="93.96"/><text class="cls-12" transform="translate(332 212.93)">X(t)</text><text class="cls-13" transform="translate(151.5 257.4)">X<tspan class="cls-14" x="7.1" y="0">’</tspan><tspan x="12.6" y="0">(t)=dx/dt</tspan></text><text class="cls-13" transform="translate(0 114.29)">Y<tspan class="cls-14" x="6.64" y="0">’</tspan><tspan x="12.14" y="0">(t)=dy/dt</tspan></text><text class="cls-12" transform="translate(101.5 9.43)">Y(t)</text><text class="cls-15" transform="translate(123.03 224.43)">X(a)</text><text class="cls-15" transform="translate(81.76 95.93)">Y(b)</text><text class="cls-16" transform="translate(82.44 114.18)">Y(c)</text><text class="cls-15" transform="translate(82.19 175.68)">Y(a)</text><text class="cls-16" transform="translate(150.29 224.43)">X(c)</text><text class="cls-15" transform="translate(262.22 224.43)">X(b)</text><text class="cls-17" transform="translate(182.4 191.14)">=X(b)-X(a)</text><text class="cls-17" transform="translate(289.27 137.43)">=Y(b)-Y(a)</text><polyline class="cls-5" points="135.93 171.51 143.93 175.66 195.55 175.66 203.62 179.85"/><polyline class="cls-5" points="271.98 171.51 263.97 175.66 212.36 175.66 204.28 179.85"/><polyline class="cls-5" points="274.71 175.68 278.86 170.87 278.86 139.87 283.05 135.02"/><polyline class="cls-5" points="274.71 93.96 278.86 98.77 278.86 129.77 283.05 134.62"/></g></g></svg>