<svg xmlns="http://www.w3.org/2000/svg" viewBox="0 0 249.83 123.19"><defs><style>.cls-1,.cls-15,.cls-16,.cls-17,.cls-19,.cls-3,.cls-5,.cls-7{fill:none;stroke-miterlimit:10;}.cls-1,.cls-15,.cls-16,.cls-17{stroke:#231815;}.cls-1,.cls-19,.cls-3,.cls-5,.cls-7{stroke-width:0.65px;}.cls-11,.cls-13,.cls-18,.cls-2{fill:#231815;}.cls-3{stroke:#e60012;}.cls-4{fill:#e60012;}.cls-5{stroke:#094;}.cls-12,.cls-6{fill:#094;}.cls-7{stroke:#00a0e9;}.cls-8{fill:#00a0e9;}.cls-11,.cls-12,.cls-9{font-size:8px;}.cls-9{fill:#c30d23;}.cls-11,.cls-12,.cls-13,.cls-18,.cls-21,.cls-9{font-family:AdobeSongStd-Light-GBpc-EUC-H, Adobe Song Std;}.cls-10,.cls-13{font-size:12px;}.cls-14,.cls-18,.cls-21{font-size:9px;}.cls-15,.cls-16,.cls-17{stroke-width:0.25px;}.cls-16{stroke-dasharray:1.99 1.99;}.cls-17{stroke-dasharray:2 2;}.cls-19{stroke:#7e318e;}.cls-20{fill:#7e318e;}.cls-21{fill:#601986;}</style></defs><g id="图层_2" data-name="图层 2"><g id="图层_1-2" data-name="图层 1"><line class="cls-1" x1="8.99" y1="108.9" x2="222.67" y2="108.9"/><polygon class="cls-2" points="227.25 108.9 220.79 111.54 222.33 108.9 220.79 106.26 227.25 108.9"/><line class="cls-3" x1="8.99" y1="108.9" x2="47.26" y2="29.7"/><polygon class="cls-4" points="49.25 25.57 48.82 32.53 47.11 30 44.06 30.24 49.25 25.57"/><line class="cls-5" x1="9.18" y1="109.12" x2="118.68" y2="85.85"/><polygon class="cls-6" points="123.16 84.9 117.39 88.83 118.34 85.92 116.3 83.66 123.16 84.9"/><line class="cls-7" x1="49.25" y1="25.49" x2="158.75" y2="2.22"/><polygon class="cls-8" points="163.24 1.27 157.47 5.19 158.42 2.29 156.37 0.03 163.24 1.27"/><text class="cls-9" transform="translate(3.36 67.78)">向量<tspan class="cls-10" x="16" y="0">b</tspan></text><text class="cls-11" transform="translate(0 115.78)">O</text><text class="cls-12" transform="translate(68.82 88.19)">向量<tspan class="cls-10" x="16" y="0">a</tspan></text><text class="cls-11" transform="translate(88.82 10.56)">向量<tspan class="cls-10" x="16" y="0">a</tspan></text><text class="cls-13" transform="translate(235.04 109.99)">x<tspan class="cls-14" x="5.59" y="0">轴</tspan></text><line class="cls-15" x1="47.14" y1="26.57" x2="48.14" y2="26.57"/><line class="cls-16" x1="50.13" y1="26.57" x2="247.83" y2="26.57"/><line class="cls-15" x1="248.83" y1="26.57" x2="249.83" y2="26.57"/><line class="cls-17" x1="163.24" y1="1.27" x2="163.24" y2="108.9"/><line class="cls-17" x1="49.25" y1="25.57" x2="49.25" y2="109.99"/><text class="cls-18" transform="translate(45.48 118.9)">M</text><text class="cls-18" transform="translate(160.15 120.9)">N</text><text class="cls-18" transform="translate(53.28 34.9)">J</text><text class="cls-18" transform="translate(167.82 36.23)">K</text><line class="cls-19" x1="8.99" y1="108.9" x2="159.48" y2="3.89"/><polygon class="cls-20" points="163.24 1.27 159.45 7.13 159.2 4.09 156.43 2.8 163.24 1.27"/><text class="cls-21" transform="translate(61.15 66.29) rotate(-32.08)">向量a + 向量b</text></g></g></svg>