<svg xmlns="http://www.w3.org/2000/svg" viewBox="0 0 234.45 55.01"><defs><style>.cls-1{font-size:12px;fill:#231815;font-family:AdobeSongStd-Light-GBpc-EUC-H, Adobe Song Std;}.cls-2,.cls-4{fill:none;stroke-miterlimit:10;stroke-width:0.5px;}.cls-2{stroke:#172a88;}.cls-3{fill:#172a88;}.cls-4{stroke:#094;}.cls-5{fill:#094;}</style></defs><title>资源 10</title><g id="图层_2" data-name="图层 2"><g id="图层_1-2" data-name="图层 1"><text class="cls-1" transform="translate(0 32.97)">z</text><text class="cls-1" transform="translate(41.67 11.34)">u</text><text class="cls-1" transform="translate(41.67 51.96)">v</text><text class="cls-1" transform="translate(85.45 11.34)">x</text><text class="cls-1" transform="translate(85.45 51.96)">y</text><line class="cls-2" x1="11.15" y1="26.6" x2="34.99" y2="13.04"/><polygon class="cls-3" points="38.05 11.3 34.73 15.53 34.76 13.17 32.73 11.99 38.05 11.3"/><line class="cls-4" x1="49.62" y1="43.15" x2="82.52" y2="20.92"/><polygon class="cls-5" points="85.45 18.95 82.47 23.42 82.31 21.07 80.19 20.05 85.45 18.95"/><line class="cls-4" x1="11.2" y1="31.34" x2="34.95" y2="45.04"/><polygon class="cls-5" points="38 46.81 32.68 46.08 34.72 44.91 34.71 42.56 38 46.81"/><line class="cls-2" x1="53.16" y1="8.7" x2="77.59" y2="8.7"/><polygon class="cls-3" points="81.12 8.71 76.15 10.74 77.33 8.71 76.15 6.67 81.12 8.71"/><line class="cls-4" x1="196.35" y1="48.18" x2="220.77" y2="48.18"/><polygon class="cls-5" points="224.3 48.17 219.33 50.21 220.51 48.17 219.33 46.14 224.3 48.17"/><text class="cls-1" transform="translate(143.18 32.19)">z</text><text class="cls-1" transform="translate(184.85 10.56)">u</text><text class="cls-1" transform="translate(184.85 51.18)">v</text><text class="cls-1" transform="translate(228.63 10.56)">x</text><text class="cls-1" transform="translate(228.63 51.18)">y</text><line class="cls-2" x1="154.33" y1="25.81" x2="178.17" y2="12.26"/><polygon class="cls-3" points="181.24 10.52 177.91 14.74 177.94 12.39 175.91 11.21 181.24 10.52"/><line class="cls-4" x1="154.38" y1="30.55" x2="178.13" y2="44.26"/><polygon class="cls-5" points="181.18 46.03 175.86 45.3 177.9 44.13 177.89 41.78 181.18 46.03"/><line class="cls-2" x1="196.35" y1="11.92" x2="221.73" y2="35.87"/><polygon class="cls-3" points="224.3 38.29 219.29 36.35 221.54 35.69 222.08 33.4 224.3 38.29"/></g></g></svg>