<svg xmlns="http://www.w3.org/2000/svg" viewBox="0 0 239.88 164.17"><defs><style>.cls-1{opacity:0.3;}.cls-2{fill:#13ae67;}.cls-14,.cls-3,.cls-5,.cls-6{fill:none;stroke-miterlimit:10;}.cls-14,.cls-3{stroke:#231815;}.cls-4,.cls-7{fill:#231815;}.cls-5{stroke:#e60012;}.cls-5,.cls-6{stroke-width:2px;}.cls-6{stroke:#601986;}.cls-7{font-size:12px;}.cls-10,.cls-11,.cls-12,.cls-13,.cls-7,.cls-8,.cls-9{font-family:AdobeSongStd-Light-GBpc-EUC-H, Adobe Song Std;}.cls-10,.cls-11,.cls-12,.cls-13,.cls-8,.cls-9{font-size:17px;}.cls-10,.cls-8,.cls-9{fill:#601986;}.cls-12,.cls-9{letter-spacing:0em;}.cls-10,.cls-13{letter-spacing:0em;}.cls-11,.cls-12,.cls-13{fill:#e60012;}.cls-14{stroke-dasharray:1.98 1.98;}</style></defs><g id="图层_2" data-name="图层 2"><g id="图层_1-2" data-name="图层 1"><g class="cls-1"><path class="cls-2" d="M168.26,78.69l-34,16.51s-39.94-4.73-44.1-23.5S69.75,56.24,69.75,56.24l-.11-.07L104.19,4.23a37.41,37.41,0,0,1,41.92,7.91c7.64,7.92.74,20.08,7.91,38.77C157.56,60.16,164.93,74.79,168.26,78.69Z"/></g><line class="cls-3" x1="0.42" y1="160.1" x2="151.6" y2="160.1"/><polygon class="cls-4" points="158.66 160.1 148.71 164.17 151.07 160.1 148.71 156.04 158.66 160.1"/><path class="cls-5" d="M104.08,4.23A37.42,37.42,0,0,1,146,12.15c7.64,7.91.75,20.07,7.91,38.77,3.54,9.24,10.91,23.87,14.24,27.77"/><path class="cls-3" d="M.42,160.1,104.08,4.23"/><line class="cls-3" x1="0.42" y1="160.1" x2="168.15" y2="78.69"/><path class="cls-6" d="M69.64,56.24S85.87,52.93,90,71.7s44.09,23.51,44.09,23.51"/><path class="cls-3" d="M21.19,150.71s4,1.78,4,9.39"/><path class="cls-3" d="M21.19,131s15.36,2.9,21.7,29.5"/><text class="cls-7" transform="translate(23.18 155.41)">α</text><text class="cls-7" transform="translate(39.81 143.82)">β</text><text class="cls-8" transform="translate(129.52 107.34)">ρ=φ</text><text class="cls-9" transform="translate(173.8 113.01) scale(0.58)">1</text><text class="cls-10" transform="translate(178.38 107.34)">(θ)</text><text class="cls-11" transform="translate(161.3 42.6)">ρ=φ</text><text class="cls-12" transform="translate(205.58 48.26) scale(0.58)">2</text><text class="cls-13" transform="translate(210.16 42.6)">(θ)</text><line class="cls-3" x1="0.42" y1="160.1" x2="1.16" y2="159.44"/><line class="cls-14" x1="2.64" y1="158.12" x2="173.79" y2="5.56"/><line class="cls-3" x1="174.53" y1="4.9" x2="175.27" y2="4.23"/></g></g></svg>