<svg xmlns="http://www.w3.org/2000/svg" viewBox="0 0 146.91 125.33"><defs><style>.cls-1,.cls-2,.cls-4,.cls-5,.cls-6,.cls-9{fill:none;}.cls-2,.cls-9{stroke:#231815;}.cls-2,.cls-4,.cls-5,.cls-6,.cls-9{stroke-miterlimit:10;}.cls-2{stroke-width:0.5px;}.cls-3,.cls-7,.cls-8{fill:#231815;}.cls-4,.cls-5{stroke:#c30d23;}.cls-4,.cls-5,.cls-6,.cls-9{stroke-width:0.25px;}.cls-5{stroke-dasharray:1.86 1.86;}.cls-6{stroke:#9fa0a0;stroke-dasharray:2 2;}.cls-7{font-size:6px;}.cls-11,.cls-7,.cls-8{font-family:MicrosoftYaHei, Microsoft YaHei;}.cls-11,.cls-8{font-size:5px;}.cls-10,.cls-11{fill:#c30d23;}</style></defs><g id="图层_2" data-name="图层 2"><g id="图层_1-2" data-name="图层 1"><rect class="cls-1" width="146.91" height="125.33"/><line class="cls-2" x1="6.24" y1="66" x2="114.71" y2="66"/><polygon class="cls-3" points="118.24 66 113.26 68.03 114.44 66 113.26 63.97 118.24 66"/><line class="cls-2" x1="25.24" y1="120" x2="25.24" y2="11.53"/><polygon class="cls-3" points="25.24 8 27.27 12.97 25.24 11.79 23.21 12.97 25.24 8"/><path class="cls-2" d="M34.24,52.63A94.87,94.87,0,0,0,75.68,44a94.67,94.67,0,0,0,28.5-20.32"/><line class="cls-4" x1="83.57" y1="39.88" x2="83.57" y2="40.88"/><line class="cls-5" x1="83.57" y1="42.73" x2="83.57" y2="64.07"/><line class="cls-4" x1="83.57" y1="65" x2="83.57" y2="66"/><line class="cls-6" x1="42.57" y1="53.33" x2="42.57" y2="66"/><text class="cls-7" transform="translate(40.91 74.67)">a</text><text class="cls-7" transform="translate(130.57 45.29)">+∞</text><text class="cls-7" transform="translate(81.22 74.67)">N</text><text class="cls-8" transform="translate(35.25 94.19)">此x点处,<tspan x="0" y="7">y有确定值,</tspan><tspan x="0" y="14">即y有界</tspan></text><line class="cls-9" x1="42.57" y1="80.43" x2="42.57" y2="87.11"/><polygon class="cls-3" points="42.57 78.67 41.55 81.15 42.57 80.56 43.59 81.15 42.57 78.67"/><text class="cls-8" transform="translate(76.25 94.19)">一个很大的数</text><line class="cls-9" x1="83.57" y1="80.43" x2="83.57" y2="87.11"/><polygon class="cls-3" points="83.57 78.67 82.56 81.15 83.57 80.56 84.59 81.15 83.57 78.67"/><line class="cls-4" x1="95.98" y1="46.45" x2="89.3" y2="46.45"/><polygon class="cls-10" points="97.74 46.45 95.25 45.44 95.84 46.45 95.25 47.47 97.74 46.45"/><text class="cls-11" transform="translate(99.21 48.26)">向右推进, <tspan x="0" y="7">趋近于+∞</tspan></text></g></g></svg>