<svg xmlns="http://www.w3.org/2000/svg" viewBox="0 0 159 98.13"><defs><style>.cls-1,.cls-2,.cls-4,.cls-5{fill:none;}.cls-2{stroke:#231815;stroke-width:0.5px;}.cls-2,.cls-4,.cls-5{stroke-miterlimit:10;}.cls-3,.cls-6{fill:#231815;}.cls-4,.cls-5{stroke:#c30d23;stroke-width:0.25px;}.cls-5{stroke-dasharray:2.01 2.01;}.cls-6{font-size:6px;font-family:MicrosoftYaHei, Microsoft YaHei;}.cls-7{fill:#c30d23;}</style></defs><g id="图层_2" data-name="图层 2"><g id="图层_1-2" data-name="图层 1"><rect class="cls-1" width="159" height="98.13"/><line class="cls-2" x1="10.35" y1="65.28" x2="137.2" y2="65.28"/><polygon class="cls-3" points="140.73 65.28 135.75 67.31 136.93 65.28 135.75 63.25 140.73 65.28"/><line class="cls-2" x1="81.25" y1="91.73" x2="81.25" y2="10.81"/><polygon class="cls-3" points="81.25 7.28 83.28 12.25 81.25 11.07 79.22 12.25 81.25 7.28"/><line class="cls-4" x1="34.2" y1="21" x2="34.2" y2="22"/><line class="cls-5" x1="34.2" y1="24.01" x2="34.2" y2="63.27"/><line class="cls-4" x1="34.2" y1="64.28" x2="34.2" y2="65.28"/><line class="cls-4" x1="129.13" y1="21" x2="129.13" y2="22"/><line class="cls-5" x1="129.13" y1="24.01" x2="129.13" y2="63.27"/><line class="cls-4" x1="129.13" y1="64.28" x2="129.13" y2="65.28"/><text class="cls-6" transform="translate(84.65 73.32)">0</text><text class="cls-6" transform="translate(9.89 13.87)">-∞</text><text class="cls-6" transform="translate(145.37 13.87)">+∞</text><text class="cls-6" transform="translate(31.12 73.32)">N</text><text class="cls-6" transform="translate(126.67 73.32)">N</text><line class="cls-4" x1="23.05" y1="43.14" x2="29.73" y2="43.14"/><polygon class="cls-7" points="21.29 43.14 23.78 44.16 23.19 43.14 23.78 42.12 21.29 43.14"/><line class="cls-4" x1="132.28" y1="43.14" x2="138.96" y2="43.14"/><polygon class="cls-7" points="140.73 43.14 138.24 44.16 138.83 43.14 138.24 42.12 140.73 43.14"/><path class="cls-2" d="M31.12,13.87c7.82,19,25.08,32.18,44.8,34.13C99,50.29,121.63,36.76,131.39,14.4"/></g></g></svg>