<?xml version="1.0" encoding="UTF-8"?>
<svg id="_图层_2" data-name="图层 2" xmlns="http://www.w3.org/2000/svg" viewBox="0 0 127.67 125.33">
  <defs>
    <style>
      .cls-1 {
        stroke-dasharray: 0 0 2.04 2.04;
      }

      .cls-1, .cls-2, .cls-3, .cls-4, .cls-5, .cls-6, .cls-7, .cls-8 {
        fill: none;
      }

      .cls-1, .cls-2, .cls-3, .cls-4, .cls-5, .cls-7, .cls-8 {
        stroke-miterlimit: 10;
      }

      .cls-1, .cls-2, .cls-3, .cls-4, .cls-5, .cls-8 {
        stroke-width: .25px;
      }

      .cls-1, .cls-3, .cls-4 {
        stroke: #9fa0a0;
      }

      .cls-2, .cls-8 {
        stroke: #c30d23;
      }

      .cls-9, .cls-10, .cls-11 {
        font-family: MicrosoftYaHei, 'Microsoft YaHei';
      }

      .cls-9, .cls-10, .cls-12 {
        fill: #231815;
      }

      .cls-9, .cls-11 {
        font-size: 5px;
      }

      .cls-4 {
        stroke-dasharray: 0 0 2 2;
      }

      .cls-5, .cls-7 {
        stroke: #231815;
      }

      .cls-10 {
        font-size: 6px;
      }

      .cls-11, .cls-13 {
        fill: #c30d23;
      }

      .cls-7 {
        stroke-width: .5px;
      }

      .cls-8 {
        stroke-dasharray: 0 0 2.02 2.02;
      }
    </style>
  </defs>
  <g id="_图层_1-2" data-name="图层 1">
    <g>
      <line class="cls-7" x1="3.33" y1="66" x2="111.8" y2="66"/>
      <polygon class="cls-12" points="115.33 66 110.36 68.03 111.54 66 110.36 63.97 115.33 66"/>
    </g>
    <g>
      <line class="cls-7" x1="22.33" y1="120" x2="22.33" y2="11.53"/>
      <polygon class="cls-12" points="22.33 8 24.37 12.97 22.33 11.79 20.3 12.97 22.33 8"/>
    </g>
    <path class="cls-7" d="M31.33,52.63c3.01,.49,20.72,3.15,36.6-6.57,20.28-12.42,18.79-33.55,18.67-34.89"/>
    <g>
      <line class="cls-3" x1="88.67" y1="9" x2="88.67" y2="10"/>
      <line class="cls-1" x1="88.67" y1="12.04" x2="88.67" y2="63.98"/>
      <line class="cls-3" x1="88.67" y1="65" x2="88.67" y2="66"/>
    </g>
    <g>
      <line class="cls-2" x1="80.67" y1="33.7" x2="80.67" y2="34.7"/>
      <line class="cls-8" x1="80.67" y1="36.72" x2="80.67" y2="63.99"/>
      <line class="cls-2" x1="80.67" y1="65" x2="80.67" y2="66"/>
    </g>
    <line class="cls-4" x1="39.67" y1="53.33" x2="39.67" y2="66"/>
    <text class="cls-10" transform="translate(38 74.67)"><tspan x="0" y="0">a</tspan></text>
    <text class="cls-10" transform="translate(87.81 74.67)"><tspan x="0" y="0">b</tspan></text>
    <text class="cls-10" transform="translate(74.03 74.67)"><tspan x="0" y="0">b-ε</tspan></text>
    <text class="cls-10" transform="translate(83.35 62.38)"><tspan x="0" y="0">ε</tspan></text>
    <g>
      <path class="cls-5" d="M80.97,65.03h0c0-.4,.33-.73,.73-.73h2.16c.19,0,.37-.07,.5-.21l.29-.29"/>
      <path class="cls-5" d="M88.32,65.03h0c0-.4-.33-.73-.73-.73h-2.16c-.19,0-.37-.07-.5-.21l-.29-.29"/>
    </g>
    <text class="cls-9" transform="translate(32.35 94.19)"><tspan x="0" y="0">此x点处,</tspan><tspan x="0" y="7">y有确定值,</tspan><tspan x="0" y="14">即y有界</tspan></text>
    <text class="cls-9" transform="translate(88.32 94.19)"><tspan x="0" y="0">此x点处,</tspan><tspan x="0" y="7">y=∞,</tspan><tspan x="0" y="14">即y无界,</tspan><tspan x="0" y="21">此x点是破裂点</tspan></text>
    <g>
      <line class="cls-5" x1="39.67" y1="80.43" x2="39.67" y2="87.11"/>
      <polygon class="cls-12" points="39.67 78.67 38.65 81.15 39.67 80.56 40.68 81.15 39.67 78.67"/>
    </g>
    <g>
      <line class="cls-2" x1="87.1" y1="40.67" x2="80.42" y2="40.67"/>
      <polygon class="cls-13" points="88.87 40.67 86.38 39.65 86.97 40.67 86.38 41.68 88.87 40.67"/>
    </g>
    <g>
      <line class="cls-5" x1="90.33" y1="80.43" x2="90.33" y2="87.11"/>
      <polygon class="cls-12" points="90.33 78.67 89.32 81.15 90.33 80.56 91.35 81.15 90.33 78.67"/>
    </g>
    <rect class="cls-6" width="127.67" height="125.33"/>
    <text class="cls-11" transform="translate(90.33 42.48)"><tspan x="0" y="0">向右推进, </tspan><tspan x="0" y="7">趋近于b</tspan></text>
  </g>
</svg>