<svg xmlns="http://www.w3.org/2000/svg" viewBox="0 0 103.34 88.2"><defs><style>.cls-1,.cls-3,.cls-4,.cls-5{fill:none;stroke-miterlimit:10;}.cls-1,.cls-3{stroke:#231815;}.cls-1{stroke-width:0.25px;}.cls-2,.cls-7{fill:#231815;}.cls-4{stroke:#22ac38;}.cls-5{stroke:#c30d23;}.cls-6,.cls-7{font-size:5px;font-family:MicrosoftYaHei, Microsoft YaHei;}.cls-6{fill:#094;}</style></defs><g id="图层_2" data-name="图层 2"><g id="图层_1-2" data-name="图层 1"><line class="cls-1" x1="5.53" y1="47.41" x2="5.53" y2="40.73"/><polygon class="cls-2" points="5.54 49.18 6.55 46.69 5.54 47.28 4.52 46.69 5.54 49.18"/><path class="cls-3" d="M17.42,65.39C28,66.84,36.72,56.07,39.57,52.56c6.31-7.76,4.54-11.12,9.14-14.82C58,30.26,78.65,33.32,84,43.18,90.7,55.46,75.65,82,54.14,86.87,35.93,91,14.63,79.35,5.26,57.49,10.38,64.1,15.67,65.15,17.42,65.39Z"/><path class="cls-4" d="M21.68,67.25a23.21,23.21,0,0,0,14.81-3.89C43.86,58.22,42.65,52,48.15,49.84c6.06-2.37,15.68,1.95,17.41,7.78C68,65.86,55.24,79,42.23,81.13,28.74,83.35,13.71,74,5.26,57.49,6.29,58.9,12,66.3,21.68,67.25Z"/><circle class="cls-5" cx="5.53" cy="57.55" r="3.09"/><text class="cls-6" transform="translate(30.24 72.24)">简单的积分</text><text class="cls-7" transform="translate(55.2 46.18)">难的积分</text><text class="cls-7" transform="translate(1.94 38.1)">瑕点</text><text class="cls-7" transform="translate(0 4.29)">这两个气球, 只要它们在同一处(瑕点处)破裂,<tspan x="0" y="7">两个气球就都会漏气 (收敛或发散),</tspan><tspan x="0" y="14">而不管这两个气球各自体积(另一端点)是有多大</tspan></text></g></g></svg>