<svg xmlns="http://www.w3.org/2000/svg" viewBox="0 0 502.11 321.64"><defs><style>.cls-1{fill:#dcdddd;}.cls-2,.cls-6,.cls-7,.cls-8{fill:none;stroke-miterlimit:10;}.cls-2,.cls-6{stroke:#3e3a39;}.cls-3{font-size:21px;}.cls-10,.cls-11,.cls-3{font-family:MicrosoftYaHeiLight, Microsoft YaHei;}.cls-4{letter-spacing:-0.02em;}.cls-5{fill:#3e3a39;}.cls-6{stroke-width:2px;}.cls-7,.cls-8{stroke:#231815;}.cls-8{stroke-dasharray:3.81 3.81;}.cls-11,.cls-9{fill:#231815;}.cls-10{font-size:11.19px;fill:#fff;}.cls-11{font-size:14px;}</style></defs><title>资源 18</title><g id="图层_2" data-name="图层 2"><g id="图层_1-2" data-name="图层 1"><rect class="cls-1" y="94" width="410" height="62"/><line class="cls-2" x1="222.59" x2="222.59" y2="293.03"/><text class="cls-3" transform="translate(203.99 316.14)">now</text><text class="cls-3" transform="translate(332.22 316.14)">futu<tspan class="cls-4" x="37.27" y="0">r</tspan><tspan x="44.31" y="0">e</tspan></text><text class="cls-3" transform="translate(62.77 316.14)">past</text><line class="cls-5" x1="2.11" y1="253.32" x2="502.11" y2="253.32"/><line class="cls-6" x1="2.11" y1="253.32" x2="487.99" y2="253.32"/><polygon class="cls-5" points="502.11 253.32 482.21 261.45 486.93 253.32 482.21 245.19 502.11 253.32"/><line class="cls-7" x1="221.61" y1="137.02" x2="223.61" y2="137.02"/><line class="cls-8" x1="227.42" y1="137.02" x2="263.64" y2="137.02"/><line class="cls-7" x1="265.55" y1="137.02" x2="267.55" y2="137.02"/><polygon class="cls-9" points="274.61 137.02 264.66 141.08 267.02 137.02 264.66 132.95 274.61 137.02"/><rect class="cls-9" x="13" y="125.48" width="209.75" height="23.06" rx="11.53" ry="11.53"/><text class="cls-10" transform="translate(48.48 140.34)">无限延续动词(有&quot;状态&quot;意味)</text><text class="cls-11" transform="translate(11.05 108.67)">长期时间段</text><text class="cls-11" transform="translate(63.98 216.04)">表示事件在&quot;延续&quot;</text><path d="M137,177.84h39.68q10.53,0,16.6-3.36t6.07-11.27H205q0,10.36-6.88,15.23t-24.7,4.88H138.6q-9.72,0-15.79,2.44t-6.88,11h-4.86q-1.62-7.92-6.48-10.67T88.4,183.32H53.58q-17.8,0-24.7-4.88T22,163.21h5.67q0,7.92,5.66,11.27t17,3.36H90q13,0,17.81,4.26t4.86,9.15h1.62c0-3.66,1.9-6.8,5.67-9.45S129.43,177.84,137,177.84Z"/></g></g></svg>