<svg xmlns="http://www.w3.org/2000/svg" viewBox="0 0 553.11 321.64"><defs><style>.cls-1{fill:#dcdddd;}.cls-2,.cls-5{fill:none;stroke:#3e3a39;stroke-miterlimit:10;}.cls-3{font-size:21px;}.cls-3,.cls-6,.cls-8{font-family:MicrosoftYaHeiLight, Microsoft YaHei;}.cls-4{fill:#3e3a39;}.cls-5{stroke-width:2px;}.cls-6{font-size:14px;}.cls-6,.cls-7{fill:#231815;}.cls-8{font-size:11px;fill:#fff;}</style></defs><title>资源 21</title><g id="图层_2" data-name="图层 2"><g id="图层_1-2" data-name="图层 1"><rect class="cls-1" y="23.63" width="396" height="62"/><rect class="cls-1" x="314" y="138.63" width="82" height="62"/><line class="cls-2" x1="395.59" x2="395.59" y2="293.03"/><text class="cls-3" transform="translate(376.99 316.14)">now</text><text class="cls-3" transform="translate(235.77 316.14)">past</text><line class="cls-4" x1="53.11" y1="253.32" x2="553.11" y2="253.32"/><line class="cls-5" x1="53.11" y1="253.32" x2="538.99" y2="253.32"/><polygon class="cls-4" points="553.11 253.32 533.21 261.45 537.93 253.32 533.21 245.19 553.11 253.32"/><text class="cls-6" transform="translate(13.62 37.67)">较长时间段</text><text class="cls-6" transform="translate(320.62 154.99)">较短时间段</text><text class="cls-6" transform="translate(156.67 14.04)">表示动作在&quot;重复&quot;</text><text class="cls-6" transform="translate(195.67 184.04)">表示动作在&quot;延续&quot;</text><rect class="cls-7" x="314" y="168.48" width="80.75" height="23.06" rx="11.53" ry="11.53"/><rect class="cls-7" x="314" y="52.48" width="80.75" height="23.06" rx="11.53" ry="11.53"/><rect class="cls-7" x="212" y="52.48" width="80.75" height="23.06" rx="11.53" ry="11.53"/><rect class="cls-7" x="110" y="52.48" width="80.75" height="23.06" rx="11.53" ry="11.53"/><rect class="cls-7" x="8" y="52.48" width="80.75" height="23.06" rx="11.53" ry="11.53"/><text class="cls-8" transform="translate(321.1 184.67)">有限延续动词</text><text class="cls-8" transform="translate(321.1 68.67)">有限延续动词</text></g></g></svg>