<svg xmlns="http://www.w3.org/2000/svg" viewBox="0 0 1450.87 863.76"><defs><style>.cls-1{font-size:25px;}.cls-1,.cls-2,.cls-3{font-family:MicrosoftYaHeiLight, Microsoft YaHei;}.cls-2{font-size:18.5px;}.cls-3{font-size:20px;}.cls-4,.cls-6,.cls-7,.cls-8,.cls-9{fill:none;stroke:#231815;stroke-miterlimit:10;}.cls-5{fill:#231815;}.cls-6{stroke-width:2px;}.cls-7{stroke-width:0.97px;}.cls-8{stroke-width:1.01px;}.cls-9{stroke-width:0.78px;}</style></defs><title>资源 7</title><g id="图层_2" data-name="图层 2"><g id="图层_1-2" data-name="图层 1"><text class="cls-1" transform="translate(72 523.87)">时:<tspan x="-72" y="30">动作发生的时间</tspan></text><text class="cls-1" transform="translate(856.47 21.4)">态:<tspan x="-109.5" y="30">动作此刻处于何种状态</tspan></text><text class="cls-2" transform="translate(410.33 155.39)">一般</text><text class="cls-2" transform="translate(239.49 600.79)">现在</text><text class="cls-2" transform="translate(239.49 761.47)">将来</text><text class="cls-2" transform="translate(239.49 240.85)">过去</text><text class="cls-2" transform="translate(239.49 417.18)">过去将来</text><text class="cls-2" transform="translate(710.84 155.39)">进行中</text><text class="cls-2" transform="translate(1034.87 155.39)">已完成</text><text class="cls-2" transform="translate(1273.03 155.39)">完成进行</text><text class="cls-3" transform="translate(698.6 240.85)">was doing</text><text class="cls-2" transform="translate(550.2 295.54)">be/have动词负责表示<tspan x="36.43" y="22.21">动作发生的”时间”</tspan><tspan x="115.94" y="44.41">-&gt; 过去</tspan></text><line class="cls-4" x1="721.95" y1="257.44" x2="721.95" y2="270.9"/><path class="cls-5" d="M722,251.41A30.12,30.12,0,0,1,717.2,260l4.75-1.72,4.76,1.72A29.91,29.91,0,0,1,722,251.41Z"/><text class="cls-2" transform="translate(756.56 295.54)">do动词负责表示动作<tspan x="0" y="22.21">所处于的”状态”</tspan><tspan x="0" y="44.41">-&gt; 进行中</tspan></text><line class="cls-4" x1="768.45" y1="257.44" x2="768.45" y2="270.9"/><path class="cls-5" d="M768.45,251.41a29.91,29.91,0,0,1-4.76,8.54l4.76-1.72L773.2,260A30.12,30.12,0,0,1,768.45,251.41Z"/><text class="cls-3" transform="translate(1239.44 240.85)">had been doing</text><text class="cls-2" transform="translate(1221.39 295.54)">(时间)<tspan x="5.64" y="22.21">过去</tspan></text><line class="cls-4" x1="1245.53" y1="257.44" x2="1245.53" y2="270.9"/><path class="cls-5" d="M1245.53,251.41a30.12,30.12,0,0,1-4.75,8.54l4.75-1.72,4.76,1.72A30.15,30.15,0,0,1,1245.53,251.41Z"/><text class="cls-2" transform="translate(1346.8 295.54)">(状态)<tspan x="-3.61" y="22.21">进行中</tspan></text><line class="cls-4" x1="1370.94" y1="257.44" x2="1370.94" y2="270.9"/><path class="cls-5" d="M1370.94,251.41a30.12,30.12,0,0,1-4.75,8.54l4.75-1.72,4.76,1.72A30.15,30.15,0,0,1,1370.94,251.41Z"/><text class="cls-2" transform="translate(1280.12 295.54)">(状态)<tspan x="-3.61" y="22.21">已完成</tspan></text><line class="cls-4" x1="1304.26" y1="257.44" x2="1304.26" y2="270.9"/><path class="cls-5" d="M1304.26,251.41a30.12,30.12,0,0,1-4.75,8.54l4.75-1.72L1309,260A29.91,29.91,0,0,1,1304.26,251.41Z"/><text class="cls-3" transform="translate(414.19 240.85)">did</text><text class="cls-2" transform="translate(410.33 295.54)">过去</text><line class="cls-4" x1="428.84" y1="257.44" x2="428.84" y2="270.9"/><path class="cls-5" d="M428.84,251.41a29.91,29.91,0,0,1-4.76,8.54l4.76-1.72,4.75,1.72A30.12,30.12,0,0,1,428.84,251.41Z"/><text class="cls-3" transform="translate(1018.69 240.85)">had done</text><text class="cls-2" transform="translate(1011 295.54)">(时间)<tspan x="5.64" y="22.21">过去</tspan></text><line class="cls-4" x1="1035.14" y1="257.44" x2="1035.14" y2="270.9"/><path class="cls-5" d="M1035.14,251.41a30.12,30.12,0,0,1-4.75,8.54l4.75-1.72,4.76,1.72A29.91,29.91,0,0,1,1035.14,251.41Z"/><text class="cls-2" transform="translate(1062.36 295.54)">(状态)<tspan x="-3.61" y="22.21">已完成</tspan></text><line class="cls-4" x1="1086.5" y1="257.44" x2="1086.5" y2="270.9"/><path class="cls-5" d="M1086.5,251.41a29.91,29.91,0,0,1-4.76,8.54l4.76-1.72,4.76,1.72A29.91,29.91,0,0,1,1086.5,251.41Z"/><text class="cls-2" transform="translate(419.93 587.29)">do</text><text class="cls-2" transform="translate(404.7 641.98)">(时间)<tspan x="5.64" y="22.21">现在</tspan></text><line class="cls-4" x1="428.84" y1="603.88" x2="428.84" y2="617.34"/><path class="cls-5" d="M428.84,597.85a30.28,30.28,0,0,1-4.76,8.54l4.76-1.72,4.75,1.72A30.26,30.26,0,0,1,428.84,597.85Z"/><text class="cls-3" transform="translate(405.18 750.97)">will do</text><text class="cls-2" transform="translate(394.44 810.84)">(时间)<tspan x="5.64" y="22.21">将来</tspan></text><line class="cls-4" x1="418.58" y1="772.74" x2="418.58" y2="786.21"/><path class="cls-5" d="M418.58,766.71a30.12,30.12,0,0,1-4.75,8.54l4.75-1.72,4.76,1.72A30.15,30.15,0,0,1,418.58,766.71Z"/><text class="cls-3" transform="translate(393.32 415.68)">would do</text><text class="cls-2" transform="translate(378.08 476.36)">(时间)<tspan x="-12.87" y="22.21">过去将来</tspan></text><line class="cls-4" x1="402.22" y1="438.27" x2="402.22" y2="451.73"/><path class="cls-5" d="M402.22,432.23a30.18,30.18,0,0,1-4.75,8.55l4.75-1.72,4.76,1.72A30,30,0,0,1,402.22,432.23Z"/><text class="cls-2" transform="translate(444.18 476.36)">(状态)<tspan x="5.64" y="22.21">一般</tspan></text><line class="cls-4" x1="468.32" y1="438.27" x2="468.32" y2="451.73"/><path class="cls-5" d="M468.32,432.23a30.18,30.18,0,0,1-4.75,8.55l4.75-1.72,4.76,1.72A30,30,0,0,1,468.32,432.23Z"/><text class="cls-3" transform="translate(705.1 587.29)">is doing</text><text class="cls-2" transform="translate(685.91 641.98)">(时间)<tspan x="5.64" y="22.21">现在</tspan></text><line class="cls-4" x1="710.05" y1="603.88" x2="710.05" y2="617.34"/><path class="cls-5" d="M710.05,597.85a30.26,30.26,0,0,1-4.75,8.54l4.75-1.72,4.76,1.72A30,30,0,0,1,710.05,597.85Z"/><text class="cls-2" transform="translate(743.01 641.98)">(状态)<tspan x="5.64" y="22.21">进行</tspan></text><line class="cls-4" x1="767.15" y1="603.88" x2="767.15" y2="617.34"/><path class="cls-5" d="M767.15,597.85a30.26,30.26,0,0,1-4.75,8.54l4.75-1.72,4.76,1.72A30,30,0,0,1,767.15,597.85Z"/><text class="cls-3" transform="translate(674.11 415.68)">would be doing</text><text class="cls-2" transform="translate(673.89 476.36)">(时间)<tspan x="-12.87" y="22.21">过去将来</tspan></text><line class="cls-4" x1="698.03" y1="438.27" x2="698.03" y2="451.73"/><path class="cls-5" d="M698,432.23a30,30,0,0,1-4.76,8.55l4.76-1.72,4.75,1.72A30.18,30.18,0,0,1,698,432.23Z"/><text class="cls-2" transform="translate(758.41 476.36)">(状态)<tspan x="5.64" y="22.21">进行</tspan></text><line class="cls-4" x1="782.55" y1="438.27" x2="782.55" y2="451.73"/><path class="cls-5" d="M782.55,432.23a30.18,30.18,0,0,1-4.75,8.55l4.75-1.72,4.76,1.72A30.2,30.2,0,0,1,782.55,432.23Z"/><line class="cls-6" x1="736.69" y1="423.23" x2="816.18" y2="423.23"/><text class="cls-3" transform="translate(685.65 750.97)">will be doing</text><text class="cls-2" transform="translate(676.47 810.84)">(时间)<tspan x="5.64" y="22.21">将来</tspan></text><line class="cls-4" x1="700.61" y1="772.74" x2="700.61" y2="786.21"/><path class="cls-5" d="M700.61,766.71a30.12,30.12,0,0,1-4.75,8.54l4.75-1.72,4.76,1.72A30.15,30.15,0,0,1,700.61,766.71Z"/><text class="cls-2" transform="translate(748.57 810.84)">(状态)<tspan x="5.64" y="22.21">进行</tspan></text><line class="cls-4" x1="772.71" y1="772.74" x2="772.71" y2="786.21"/><path class="cls-5" d="M772.71,766.71a30.12,30.12,0,0,1-4.75,8.54l4.75-1.72,4.76,1.72A30.15,30.15,0,0,1,772.71,766.71Z"/><line class="cls-6" x1="718.27" y1="757.84" x2="797.77" y2="757.84"/><text class="cls-3" transform="translate(1013.78 587.29)">have done</text><text class="cls-2" transform="translate(1006.82 641.98)">(时间)<tspan x="5.64" y="22.21">现在</tspan></text><line class="cls-4" x1="1030.97" y1="603.88" x2="1030.97" y2="617.34"/><path class="cls-5" d="M1031,597.85a30.53,30.53,0,0,1-4.76,8.54l4.76-1.72,4.75,1.72A30.26,30.26,0,0,1,1031,597.85Z"/><text class="cls-2" transform="translate(1066.53 641.98)">(状态)<tspan x="-3.61" y="22.21">已完成</tspan></text><line class="cls-4" x1="1090.68" y1="603.88" x2="1090.68" y2="617.34"/><path class="cls-5" d="M1090.68,597.85a30.53,30.53,0,0,1-4.76,8.54l4.76-1.72,4.75,1.72A30.26,30.26,0,0,1,1090.68,597.85Z"/><text class="cls-3" transform="translate(1235.49 587.29)">have been doing</text><text class="cls-2" transform="translate(1348.64 641.98)">(状态)<tspan x="-3.61" y="22.21">进行中</tspan></text><line class="cls-4" x1="1372.79" y1="603.88" x2="1372.79" y2="617.34"/><path class="cls-5" d="M1372.79,597.85a30.53,30.53,0,0,1-4.76,8.54l4.76-1.72,4.75,1.72A30.26,30.26,0,0,1,1372.79,597.85Z"/><text class="cls-2" transform="translate(1219.55 641.98)">(时间)<tspan x="5.64" y="22.21">现在</tspan></text><line class="cls-4" x1="1243.69" y1="603.88" x2="1243.69" y2="617.34"/><path class="cls-5" d="M1243.69,597.85a30,30,0,0,1-4.76,8.54l4.76-1.72,4.76,1.72A30,30,0,0,1,1243.69,597.85Z"/><text class="cls-2" transform="translate(1279.26 641.98)">(状态)<tspan x="-3.61" y="22.21">已完成</tspan></text><line class="cls-4" x1="1303.4" y1="603.88" x2="1303.4" y2="617.34"/><path class="cls-5" d="M1303.4,597.85a30.26,30.26,0,0,1-4.75,8.54l4.75-1.72,4.76,1.72A30,30,0,0,1,1303.4,597.85Z"/><text class="cls-3" transform="translate(987.11 415.68)">would have done</text><text class="cls-2" transform="translate(994.72 476.36)">(时间)<tspan x="-12.87" y="22.21">过去将来</tspan></text><line class="cls-4" x1="1018.86" y1="438.27" x2="1018.86" y2="451.73"/><path class="cls-5" d="M1018.86,432.23a30.18,30.18,0,0,1-4.75,8.55l4.75-1.72,4.76,1.72A30.2,30.2,0,0,1,1018.86,432.23Z"/><text class="cls-2" transform="translate(1079.24 476.36)">(状态)<tspan x="-3.61" y="22.21">已完成</tspan></text><line class="cls-4" x1="1103.39" y1="438.27" x2="1103.39" y2="451.73"/><path class="cls-5" d="M1103.39,432.23a30.2,30.2,0,0,1-4.76,8.55l4.76-1.72,4.75,1.72A30.18,30.18,0,0,1,1103.39,432.23Z"/><line class="cls-6" x1="1057.52" y1="423.23" x2="1137.02" y2="423.23"/><text class="cls-3" transform="translate(1002.71 750.97)">will have done</text><text class="cls-2" transform="translate(993.17 810.84)">(时间)<tspan x="5.64" y="22.21">将来</tspan></text><line class="cls-4" x1="1017.32" y1="772.74" x2="1017.32" y2="786.21"/><path class="cls-5" d="M1017.32,766.71a30.39,30.39,0,0,1-4.76,8.54l4.76-1.72,4.75,1.72A30.12,30.12,0,0,1,1017.32,766.71Z"/><text class="cls-2" transform="translate(1072.38 810.84)">(状态)<tspan x="-3.61" y="22.21">已完成</tspan></text><line class="cls-4" x1="1096.53" y1="772.74" x2="1096.53" y2="786.21"/><path class="cls-5" d="M1096.53,766.71a30.39,30.39,0,0,1-4.76,8.54l4.76-1.72,4.75,1.72A30.12,30.12,0,0,1,1096.53,766.71Z"/><line class="cls-6" x1="1044.92" y1="757.02" x2="1124.42" y2="757.02"/><text class="cls-3" transform="translate(1208.26 415.68)">would have been doing</text><text class="cls-2" transform="translate(1368.29 476.36)">(状态)<tspan x="-3.61" y="22.21">进行中</tspan></text><line class="cls-4" x1="1392.44" y1="438.27" x2="1392.44" y2="451.73"/><path class="cls-5" d="M1392.44,432.23a30.45,30.45,0,0,1-4.76,8.55l4.76-1.72,4.75,1.72A30.18,30.18,0,0,1,1392.44,432.23Z"/><text class="cls-2" transform="translate(1211.38 476.36)">(时间)<tspan x="-12.87" y="22.21">过去将来</tspan></text><line class="cls-4" x1="1235.53" y1="438.27" x2="1235.53" y2="451.73"/><path class="cls-5" d="M1235.53,432.23a30.45,30.45,0,0,1-4.76,8.55l4.76-1.72,4.75,1.72A30.18,30.18,0,0,1,1235.53,432.23Z"/><text class="cls-2" transform="translate(1295.91 476.36)">(状态)<tspan x="-3.61" y="22.21">已完成</tspan></text><line class="cls-4" x1="1320.05" y1="438.27" x2="1320.05" y2="451.73"/><path class="cls-5" d="M1320.05,432.23a30,30,0,0,1-4.76,8.55l4.76-1.72,4.75,1.72A30.18,30.18,0,0,1,1320.05,432.23Z"/><line class="cls-6" x1="1273.37" y1="423.23" x2="1352.87" y2="423.23"/><text class="cls-3" transform="translate(1214.82 750.97)">will have been doing</text><text class="cls-2" transform="translate(1206.8 810.84)">(时间)<tspan x="5.64" y="22.21">将来</tspan></text><line class="cls-4" x1="1230.94" y1="772.74" x2="1230.94" y2="786.21"/><path class="cls-5" d="M1230.94,766.71a29.91,29.91,0,0,1-4.76,8.54l4.76-1.72,4.76,1.72A29.91,29.91,0,0,1,1230.94,766.71Z"/><text class="cls-2" transform="translate(1361.39 810.84)">(状态)<tspan x="-3.61" y="22.21">进行中</tspan></text><line class="cls-4" x1="1385.53" y1="772.74" x2="1385.53" y2="786.21"/><path class="cls-5" d="M1385.53,766.71a30.12,30.12,0,0,1-4.75,8.54l4.75-1.72,4.76,1.72A30.39,30.39,0,0,1,1385.53,766.71Z"/><text class="cls-2" transform="translate(1289.01 810.84)">(状态)<tspan x="-3.61" y="22.21">已完成</tspan></text><line class="cls-4" x1="1313.15" y1="772.74" x2="1313.15" y2="786.21"/><path class="cls-5" d="M1313.15,766.71a29.91,29.91,0,0,1-4.76,8.54l4.76-1.72,4.75,1.72A30.12,30.12,0,0,1,1313.15,766.71Z"/><line class="cls-6" x1="1255.41" y1="758.52" x2="1334.91" y2="758.52"/></g><g id="图层_2-2" data-name="图层 2"><line class="cls-7" x1="196.89" y1="114.86" x2="1450.87" y2="114.86"/><line class="cls-8" x1="196.89" y1="183.26" x2="1450.87" y2="183.26"/><line class="cls-8" x1="196.89" y1="361.26" x2="1450.87" y2="361.26"/><line class="cls-8" x1="196.89" y1="541.26" x2="1450.87" y2="541.26"/><line class="cls-8" x1="196.89" y1="701.26" x2="1450.87" y2="701.26"/><line class="cls-8" x1="196.89" y1="863.26" x2="1450.87" y2="863.26"/><line class="cls-9" x1="338.82" y1="118.47" x2="338.82" y2="859.97"/><line class="cls-9" x1="516.82" y1="118.47" x2="516.82" y2="859.97"/><line class="cls-9" x1="948.82" y1="118.47" x2="948.82" y2="859.97"/><line class="cls-9" x1="1166.82" y1="118.47" x2="1166.82" y2="859.97"/></g></g></svg>