<svg width="434" height="274" xmlns:xlink="http://www.w3.org/1999/xlink" viewBox="0 0 434 274" xmlns="http://www.w3.org/2000/svg">
    <defs/>
    <g transform="translate(-1104.02,-407.00)">
        <g id="shape1" transform="translate(1197.00,530.50)">
            <path fill="#ffffff" fill-rule="nonzero" stroke="#323232" d="M158.0,54.0L158.0,.0L.0,.0L.0,54.0L158.0,54.0z"/>
            <text style="fill:#191919;font-family:Microsoft YaHei;font-size:10.00pt" xml:space="preserve">
                <tspan y="23.0" x="41.0">Lefty Dresell</tspan>
                <tspan y="42.0" x="20.0">( basketball coach )</tspan>
            </text>
        </g>
        <g id="shape2" transform="translate(1285.00,607.00)">
            <path fill="#ffffff" fill-rule="nonzero" stroke="#323232" d="M252.0,73.0L252.0,.0L.0,.0L.0,73.0L252.0,73.0z"/>
            <text style="fill:#191919;font-family:Microsoft YaHei;font-size:10.00pt" xml:space="preserve">
                <tspan y="23.0" x="101.0">Len Bias</tspan>
                <tspan y="42.0" x="74.0">( basketball star )</tspan>
                <tspan y="61.0" x="10.5">(victim of the cocaine-induced death)</tspan>
            </text>
        </g>
        <g id="shape3" transform="translate(1105.02,408.00)">
            <path fill="#ffffff" fill-rule="nonzero" stroke="#323232" d="M158.0,54.0L158.0,.0L.0,.0L.0,54.0L158.0,54.0z"/>
            <text style="fill:#191919;font-family:Microsoft YaHei;font-size:10.00pt" xml:space="preserve">
                <tspan y="23.0" x="33.0">John Slaughter</tspan>
                <tspan y="42.0" x="7.5">( Maryland Chancellor )</tspan>
            </text>
        </g>
        <g id="shape4" transform="translate(1278.02,408.00)">
            <path fill="#ffffff" fill-rule="nonzero" stroke="#323232" d="M158.0,54.0L158.0,.0L.0,.0L.0,54.0L158.0,54.0z"/>
            <text style="fill:#191919;font-family:Microsoft YaHei;font-size:10.00pt" xml:space="preserve">
                <tspan y="23.0" x="14.0">the Board of Regents</tspan>
                <tspan y="42.0" x="20.5">州立大学董事会董事</tspan>
            </text>
        </g>
        <g id="shape5" transform="translate(1212.46,462.00)">
            <path fill="none" stroke="#191919" d="M.0,.0L.0,20.0L63.5,20.0L63.5,62.5"/>
            <path stroke-width="1" fill="#191919" stroke="#191919" stroke-linecap="round" d="M66.5,62.5L63.5,68.5L60.5,62.5L66.5,62.5"/>
        </g>
        <g id="shape6" transform="translate(1357.02,462.00)">
            <path fill="none" stroke="#191919" d="M.0,.0L.0,20.0L-81.0,20.0L-81.0,62.5"/>
            <path stroke-width="1" fill="#191919" stroke="#191919" stroke-linecap="round" d="M-78.0,62.5L-81.0,68.5L-84.0,62.5L-78.0,62.5"/>
            <rect width="97.0" height="19.0" fill="#ffffff" y="39.3" x="-128.5"/>
            <text style="fill:#191919;font-family:Microsoft YaHei;font-size:10.00pt" xml:space="preserve">
                <tspan y="54.3" x="-128.5">要求 Dresell辞职</tspan>
            </text>
        </g>
        <g id="shape7" transform="translate(1355.00,557.50)">
            <path fill="none" stroke="#191919" d="M.0,.0L56.0,.0L56.0,43.5"/>
            <path stroke-width="1" fill="#191919" stroke="#191919" stroke-linecap="round" d="M59.0,43.5L56.0,49.5L53.0,43.5L59.0,43.5"/>
            <rect width="93.0" height="19.0" fill="#ffffff" y="8.9" x="10.5"/>
            <text style="fill:#191919;font-family:Microsoft YaHei;font-size:10.00pt" xml:space="preserve">
                <tspan y="23.9" x="10.5">对 Bias管教不严</tspan>
            </text>
        </g>
    </g>
</svg>
