<svg width="654" height="302" xmlns:xlink="http://www.w3.org/1999/xlink" viewBox="0 0 654 302" xmlns="http://www.w3.org/2000/svg">
    <defs/>
    <g transform="translate(-1586.00,-490.00)">
        <g id="shape1" transform="translate(1767.50,655.00)">
            <path stroke-width="2" fill="#d7d7d7" fill-rule="nonzero" stroke="#323232" d="M207.0,73.0L207.0,.0L.0,.0L.0,73.0L207.0,73.0z"/>
            <text style="fill:#191919;font-family:Microsoft YaHei;font-size:10.00pt" xml:space="preserve">
                <tspan y="23.0" x="64.5">Bernard Kalb</tspan>
                <tspan y="42.0" x="4.0">( State Department spokesman )</tspan>
                <tspan y="61.0" x="77.5">自己辞职</tspan>
            </text>
        </g>
        <g id="shape2" transform="translate(1792.00,491.00)">
            <path fill="#ffffff" fill-rule="nonzero" stroke="#323232" d="M158.0,54.0L158.0,.0L.0,.0L.0,54.0L158.0,54.0z"/>
            <text style="fill:#191919;font-family:Microsoft YaHei;font-size:10.00pt" xml:space="preserve">
                <tspan y="23.0" x="56.5">Reagan</tspan>
                <tspan y="42.0" x="42.5">( President )</tspan>
            </text>
        </g>
        <g id="shape3" transform="translate(2050.00,559.00)">
            <path fill="#ffffff" fill-rule="nonzero" stroke="#323232" d="M189.0,54.0L189.0,.0L.0,.0L.0,54.0L189.0,54.0z"/>
            <text style="fill:#191919;font-family:Microsoft YaHei;font-size:10.00pt" xml:space="preserve">
                <tspan y="23.0" x="14.0">Muammar Quddafi 卡扎菲</tspan>
                <tspan y="42.0" x="70.5">( Libya )</tspan>
            </text>
        </g>
        <g id="shape4" transform="translate(1792.00,573.00)">
            <path fill="#ffffff" fill-rule="nonzero" stroke="#323232" d="M158.0,54.0L158.0,.0L.0,.0L.0,54.0L158.0,54.0z"/>
            <text style="fill:#191919;font-family:Microsoft YaHei;font-size:10.00pt" xml:space="preserve">
                <tspan y="23.0" x="35.5">George Shultz</tspan>
                <tspan y="42.0" x="15.5">( Secretary of State )</tspan>
            </text>
        </g>
        <g id="shape5" transform="translate(1587.00,718.00)">
            <path fill="#ffffff" fill-rule="nonzero" stroke="#323232" d="M158.0,73.0L158.0,.0L.0,.0L.0,73.0L158.0,73.0z"/>
            <text style="fill:#191919;font-family:Microsoft YaHei;font-size:10.00pt" xml:space="preserve">
                <tspan y="23.0" x="42.5">Marvin Kalb</tspan>
                <tspan y="42.0" x="49.5">( in NBC )</tspan>
                <tspan y="61.0" x="21.0">(Bernard Kalb 之兄)</tspan>
            </text>
        </g>
        <g id="shape6" transform="translate(1767.50,691.50)">
            <path fill="none" stroke="#191919" d="M.0,.0L-101.5,.0L-101.5,20.5"/>
            <path stroke-width="1" fill="#191919" stroke="#191919" stroke-linecap="round" d="M-98.5,20.5L-101.5,26.5L-104.5,20.5L-98.5,20.5"/>
        </g>
        <g id="shape7" transform="translate(1871.00,627.00)">
            <path fill="none" stroke="#191919" d="M.0,.0L.0,22.0"/>
            <path stroke-width="1" fill="#191919" stroke="#191919" stroke-linecap="round" d="M3.0,22.0L.0,28.0L-3.0,22.0L3.0,22.0"/>
        </g>
        <g id="shape8" transform="translate(1871.00,545.00)">
            <path fill="none" stroke="#191919" d="M.0,.0L.0,22.0"/>
            <path stroke-width="1" fill="#191919" stroke="#191919" stroke-linecap="round" d="M3.0,22.0L.0,28.0L-3.0,22.0L3.0,22.0"/>
        </g>
        <g id="shape9" transform="translate(1950.00,518.00)">
            <path fill="none" stroke="#191919" d="M.0,.0L194.5,.0L194.5,35.0"/>
            <path stroke-width="1" fill="#191919" stroke="#191919" stroke-linecap="round" d="M197.5,35.0L194.5,41.0L191.5,35.0L197.5,35.0"/>
            <rect width="78.0" height="19.0" fill="#ffffff" y="-9.5" x="31.8"/>
            <text style="fill:#191919;font-family:Microsoft YaHei;font-size:10.00pt" xml:space="preserve">
                <tspan y="5.5" x="31.8">进行误导战略</tspan>
            </text>
        </g>
        <g id="shape10" transform="translate(1974.50,691.50)">
            <path stroke-dasharray="2.5,2.5" fill="none" stroke="#191919" d="M.0,.0L47.5,.0L47.5,-156.5"/>
            <path stroke-width="1" fill="#191919" stroke="#191919" stroke-linecap="round" d="M44.5,-156.5L47.5,-162.5L50.5,-156.5L44.5,-156.5"/>
            <rect width="65.0" height="19.0" fill="#ffffff" y="-58.1" x="16.0"/>
            <text style="fill:#191919;font-family:Microsoft YaHei;font-size:10.00pt" xml:space="preserve">
                <tspan y="-43.1" x="16.0">反对此战略</tspan>
            </text>
        </g>
    </g>
</svg>
