<svg xmlns="http://www.w3.org/2000/svg" width="564" viewBox="0 0 564 308" xmlns:xlink="http://www.w3.org/1999/xlink" height="308">
    <defs/>
    <g transform="translate(-2021.00,-558.00)">
        <g transform="translate(2123.00,559.00)" id="shape1">
            <path fill="#ebebeb" stroke="#323232" d="M158.0,54.0L158.0,.0L.0,.0L.0,54.0L158.0,54.0z" fill-rule="nonzero"/>
            <text xml:space="preserve" style="fill:#191919;font-family:Microsoft YaHei;font-size:10.00pt">
                <tspan x="38.0" y="23.0">The House of </tspan>
                <tspan x="31.0" y="42.0">Representatives</tspan>
            </text>
        </g>
        <g transform="translate(2340.00,559.00)" id="shape2">
            <path fill="#ebebeb" stroke="#323232" d="M158.0,54.0L158.0,.0L.0,.0L.0,54.0L158.0,54.0z" fill-rule="nonzero"/>
            <text xml:space="preserve" style="fill:#191919;font-family:Microsoft YaHei;font-size:10.00pt">
                <tspan x="56.5" y="23.0">Reagan</tspan>
                <tspan x="42.5" y="42.0">( President )</tspan>
            </text>
        </g>
        <g transform="translate(2281.00,586.00)" id="shape3">
            <path fill="none" stroke="#191919" d="M.0,.0L27.0,.0L27.0,47.0L104.0,47.0"/>
            <path fill="#191919" stroke="#191919" stroke-linecap="round" d="M104.0,44.0L110.0,47.0L104.0,50.0L104.0,44.0" stroke-width="1"/>
            <rect fill="#ffffff" width="27.0" x="14.5" y="34.8" height="19.0"/>
            <text xml:space="preserve" style="fill:#191919;font-family:Microsoft YaHei;font-size:10.00pt">
                <tspan x="14.5" y="49.8">vote</tspan>
            </text>
        </g>
        <g transform="translate(2494.00,634.00)" id="shape4">
            <path fill="#ffffff" stroke="#323232" d="M90.0,54.0L90.0,.0L.0,.0L.0,54.0L90.0,54.0z" fill-rule="nonzero"/>
            <text xml:space="preserve" style="fill:#191919;font-family:Microsoft YaHei;font-size:10.00pt">
                <tspan x="6.5" y="32.5">South Africa</tspan>
            </text>
        </g>
        <g transform="translate(2202.00,613.00)" id="shape5">
            <path fill="none" stroke="#191919" d="M.0,.0L.0,48.0L286.0,48.0"/>
            <path fill="#191919" stroke="#191919" stroke-linecap="round" d="M286.0,45.0L292.0,48.0L286.0,51.0L286.0,45.0" stroke-width="1"/>
            <rect fill="#ffffff" width="182.0" x="85.8" y="38.5" height="19.0"/>
            <text xml:space="preserve" style="fill:#191919;font-family:Microsoft YaHei;font-size:10.00pt">
                <tspan x="85.8" y="53.5">imposing economic sanctions</tspan>
            </text>
        </g>
        <g transform="translate(2419.00,613.00)" id="shape6">
            <path fill="none" stroke="#191919" d="M.0,.0L.0,33.0"/>
            <path fill="#191919" stroke="#191919" stroke-linecap="round" d="M3.0,33.0L.0,39.0L-3.0,33.0L3.0,33.0" stroke-width="1"/>
            <rect fill="#ffffff" width="27.0" x="-12.5" y="9.2" height="19.0"/>
            <text xml:space="preserve" style="fill:#191919;font-family:Microsoft YaHei;font-size:10.00pt">
                <tspan x="-12.5" y="24.2">vote</tspan>
            </text>
        </g>
        <g transform="translate(2208.00,737.00)" id="shape7">
            <path fill="#ffffff" stroke="#323232" d="M158.0,54.0L158.0,.0L.0,.0L.0,54.0L158.0,54.0z" fill-rule="nonzero"/>
            <text xml:space="preserve" style="fill:#191919;font-family:Microsoft YaHei;font-size:10.00pt">
                <tspan x="42.5" y="23.0">Robert Dole</tspan>
                <tspan x="25.5" y="42.0">( majority leader )</tspan>
            </text>
        </g>
        <g transform="translate(2163.76,613.00)" id="shape8">
            <path fill="none" stroke="#191919" d="M.0,.0L.0,92.0L85.0,92.0L85.0,118.0"/>
            <path fill="#191919" stroke="#191919" stroke-linecap="round" d="M88.0,118.0L85.0,124.0L82.0,118.0L88.0,118.0" stroke-width="1"/>
        </g>
        <g transform="translate(2022.00,791.70)" id="shape9">
            <path fill="#ffffff" stroke="#323232" d="M158.0,73.0L158.0,.0L.0,.0L.0,73.0L158.0,73.0z" fill-rule="nonzero"/>
            <text xml:space="preserve" style="fill:#191919;font-family:Microsoft YaHei;font-size:10.00pt">
                <tspan x="47.5" y="23.0">the House </tspan>
                <tspan x="34.0" y="42.0">Foreign Affairs </tspan>
                <tspan x="45.0" y="61.0">Committee</tspan>
            </text>
        </g>
        <g transform="translate(2101.00,791.70)" id="shape10">
            <path fill="none" stroke="#191919" d="M.0,-8.0L.0,-86.7L62.8,-86.7"/>
            <path fill="#191919" stroke="#191919" stroke-linecap="round" d="M4.0,-8.0L.0,.0L-4.0,-8.0L4.0,-8.0" stroke-width="1"/>
        </g>
    </g>
</svg>
