<svg xmlns="http://www.w3.org/2000/svg" width="403" viewBox="0 0 403 250" xmlns:xlink="http://www.w3.org/1999/xlink" height="250">
    <defs/>
    <g transform="translate(-1391.00,-150.00)">
        <g transform="translate(1392.00,335.25)" id="shape1">
            <path fill="#ebebeb" stroke="#323232" d="M158.0,54.0L158.0,.0L.0,.0L.0,54.0L158.0,54.0z" fill-rule="nonzero"/>
            <text xml:space="preserve" style="fill:#191919;font-family:Microsoft YaHei;font-size:10.00pt">
                <tspan x="26.0" y="23.0">Nicholas Daniloff</tspan>
                <tspan x="12.0" y="42.0">( American journalist )</tspan>
            </text>
        </g>
        <g transform="translate(1628.00,325.75)" id="shape2">
            <path fill="#ebebeb" stroke="#323232" d="M158.0,73.0L158.0,.0L.0,.0L.0,73.0L158.0,73.0z" fill-rule="nonzero"/>
            <text xml:space="preserve" style="fill:#191919;font-family:Microsoft YaHei;font-size:10.00pt">
                <tspan x="23.0" y="23.0">Gennadi Zakharov</tspan>
                <tspan x="39.5" y="42.0">( Soviet spy )</tspan>
                <tspan x="25.0" y="61.0">(Russian scientist)</tspan>
            </text>
        </g>
        <g transform="translate(1392.00,151.00)" id="shape3">
            <path fill="#ffffff" stroke="#323232" d="M158.0,54.0L158.0,.0L.0,.0L.0,54.0L158.0,54.0z" fill-rule="nonzero"/>
            <text xml:space="preserve" style="fill:#191919;font-family:Microsoft YaHei;font-size:10.00pt">
                <tspan x="56.5" y="23.0">Reagan</tspan>
                <tspan x="42.5" y="42.0">( President )</tspan>
            </text>
        </g>
        <g transform="translate(1471.00,205.00)" id="shape4">
            <path fill="none" stroke="#191919" d="M.0,.0L.0,16.8"/>
            <path fill="#191919" stroke="#191919" stroke-linecap="round" d="M3.0,16.8L.0,22.8L-3.0,16.8L3.0,16.8" stroke-width="1"/>
        </g>
        <g transform="translate(1628.00,151.00)" id="shape5">
            <path fill="#ffffff" stroke="#323232" d="M158.0,54.0L158.0,.0L.0,.0L.0,54.0L158.0,54.0z" fill-rule="nonzero"/>
            <text xml:space="preserve" style="fill:#191919;font-family:Microsoft YaHei;font-size:10.00pt">
                <tspan x="11.0" y="23.0">Gorbachev 戈尔巴乔夫</tspan>
                <tspan x="31.5" y="42.0">( Soviet leader )</tspan>
            </text>
        </g>
        <g transform="translate(1707.00,205.00)" id="shape6">
            <path fill="none" stroke="#191919" d="M.0,.0L.0,16.8"/>
            <path fill="#191919" stroke="#191919" stroke-linecap="round" d="M3.0,16.8L.0,22.8L-3.0,16.8L3.0,16.8" stroke-width="1"/>
        </g>
        <g transform="translate(1550.00,178.00)" id="shape7">
            <path fill="none" stroke="#191919" d="M8.0,.0L72.0,.0" stroke-dasharray="2.5,2.5"/>
            <path fill="#191919" stroke="#191919" stroke-linecap="round" d="M8.0,4.0L.0,.0L8.0,-4.0L8.0,4.0" stroke-width="1"/>
            <path fill="#191919" stroke="#191919" stroke-linecap="round" d="M72.0,-3.0L78.0,.0L72.0,3.0L72.0,-3.0" stroke-width="1"/>
        </g>
        <g transform="translate(1392.00,227.75)" id="shape8">
            <path fill="#ffffff" stroke="#323232" d="M158.0,54.0L158.0,.0L.0,.0L.0,54.0L158.0,54.0z" fill-rule="nonzero"/>
            <text xml:space="preserve" style="fill:#191919;font-family:Microsoft YaHei;font-size:10.00pt">
                <tspan x="60.0" y="23.0">Shultz</tspan>
                <tspan x="15.5" y="42.0">( Secretary of State )</tspan>
            </text>
        </g>
        <g transform="translate(1621.13,227.75)" id="shape9">
            <path fill="#ffffff" stroke="#323232" d="M171.7,54.0L171.7,.0L.0,.0L.0,54.0L171.7,54.0z" fill-rule="nonzero"/>
            <text xml:space="preserve" style="fill:#191919;font-family:Microsoft YaHei;font-size:10.00pt">
                <tspan x="42.9" y="23.0">Shevardnadze</tspan>
                <tspan x="6.9" y="42.0">( Soviet Foreign Minister )</tspan>
            </text>
        </g>
        <g transform="translate(1471.00,281.75)" id="shape10">
            <path fill="none" stroke="#191919" d="M.0,.0L.0,47.5"/>
            <path fill="#191919" stroke="#191919" stroke-linecap="round" d="M3.0,47.5L.0,53.5L-3.0,47.5L3.0,47.5" stroke-width="1"/>
        </g>
        <g transform="translate(1707.00,281.75)" id="shape11">
            <path fill="none" stroke="#191919" d="M.0,.0L.0,38.0"/>
            <path fill="#191919" stroke="#191919" stroke-linecap="round" d="M3.0,38.0L.0,44.0L-3.0,38.0L3.0,38.0" stroke-width="1"/>
        </g>
    </g>
</svg>
