<svg xmlns="http://www.w3.org/2000/svg" width="701" viewBox="0 0 701 442" xmlns:xlink="http://www.w3.org/1999/xlink" height="442">
    <defs/>
    <g transform="translate(-1976.00,-784.77)">
        <g transform="translate(2151.00,883.84)" id="shape1">
            <path fill="#ebebeb" stroke="#323232" d="M158.0,30.9L158.0,.0L.0,.0L.0,30.9L158.0,30.9z" fill-rule="nonzero"/>
            <text xml:space="preserve" style="fill:#191919;font-family:Microsoft YaHei;font-size:10.00pt">
                <tspan x="12.5" y="20.9">Texas Air Corporation</tspan>
            </text>
        </g>
        <g transform="translate(2340.00,971.27)" id="shape2">
            <path fill="#ebebeb" stroke="#323232" d="M158.0,73.4L158.0,.0L.0,.0L.0,73.4L158.0,73.4z" fill-rule="nonzero"/>
            <text xml:space="preserve" style="fill:#191919;font-family:Microsoft YaHei;font-size:10.00pt">
                <tspan x="9.5" y="23.5">People Express Airlines</tspan>
                <tspan x="22.5" y="42.5">( no-frills, low-fare </tspan>
                <tspan x="43.0" y="61.5">air carriers )</tspan>
            </text>
        </g>
        <g transform="translate(2243.43,914.70)" id="shape3">
            <path fill="none" stroke="#191919" d="M.0,.0L.0,24.6L175.6,24.6L175.6,48.1" stroke-width="2"/>
            <path fill="#191919" stroke="#191919" stroke-linecap="round" d="M179.8,48.1L175.6,56.6L171.3,48.1L179.8,48.1" stroke-width="1"/>
            <rect fill="#ffffff" width="23.0" x="74.9" y="15.1" height="19.0"/>
            <text xml:space="preserve" style="fill:#191919;font-family:Microsoft YaHei;font-size:10.00pt">
                <tspan x="74.9" y="30.1">buy</tspan>
            </text>
        </g>
        <g transform="translate(1977.00,976.27)" id="shape4">
            <path fill="#ffffff" stroke="#323232" d="M158.0,30.9L158.0,.0L.0,.0L.0,30.9L158.0,30.9z" fill-rule="nonzero"/>
            <text xml:space="preserve" style="fill:#191919;font-family:Microsoft YaHei;font-size:10.00pt">
                <tspan x="17.5" y="20.9">Continental  Airlines</tspan>
            </text>
        </g>
        <g transform="translate(2151.00,976.27)" id="shape5">
            <path fill="#ffffff" stroke="#323232" d="M158.0,30.9L158.0,.0L.0,.0L.0,30.9L158.0,30.9z" fill-rule="nonzero"/>
            <text xml:space="preserve" style="fill:#191919;font-family:Microsoft YaHei;font-size:10.00pt">
                <tspan x="38.5" y="20.9">New York Air</tspan>
            </text>
        </g>
        <g transform="translate(2230.00,914.70)" id="shape6">
            <path fill="none" stroke="#191919" d="M.0,.0L.0,29.6L-174.0,29.6L-174.0,55.6"/>
            <path fill="#191919" stroke="#191919" stroke-linecap="round" d="M-171.0,55.6L-174.0,61.6L-177.0,55.6L-171.0,55.6" stroke-width="1"/>
        </g>
        <g transform="translate(2230.00,914.70)" id="shape7">
            <path fill="none" stroke="#191919" d="M.0,.0L.0,55.6"/>
            <path fill="#191919" stroke="#191919" stroke-linecap="round" d="M3.0,55.6L.0,61.6L-3.0,55.6L3.0,55.6" stroke-width="1"/>
        </g>
        <g transform="translate(2513.00,976.27)" id="shape8">
            <path fill="#ffffff" stroke="#323232" d="M114.0,30.9L114.0,.0L.0,.0L.0,30.9L114.0,30.9z" fill-rule="nonzero"/>
            <text xml:space="preserve" style="fill:#191919;font-family:Microsoft YaHei;font-size:10.00pt">
                <tspan x="10.5" y="20.9">Eastern Airlines</tspan>
            </text>
        </g>
        <g transform="translate(2252.44,914.70)" id="shape9">
            <path fill="none" stroke="#191919" d="M.0,.0L.0,16.0L317.6,16.0L317.6,55.6"/>
            <path fill="#191919" stroke="#191919" stroke-linecap="round" d="M320.6,55.6L317.6,61.6L314.6,55.6L320.6,55.6" stroke-width="1"/>
            <rect fill="#ffffff" width="57.0" x="167.9" y="6.5" height="19.0"/>
            <text xml:space="preserve" style="fill:#191919;font-family:Microsoft YaHei;font-size:10.00pt">
                <tspan x="167.9" y="21.5">acquiring</tspan>
            </text>
        </g>
        <g transform="translate(2340.00,1095.70)" id="shape10">
            <path fill="#ebebeb" stroke="#323232" d="M158.0,35.4L158.0,.0L.0,.0L.0,35.4L158.0,35.4z" fill-rule="nonzero"/>
            <text xml:space="preserve" style="fill:#191919;font-family:Microsoft YaHei;font-size:10.00pt">
                <tspan x="31.0" y="23.2">Frontier Airlines</tspan>
            </text>
        </g>
        <g transform="translate(2419.00,1044.70)" id="shape11">
            <path fill="none" stroke="#191919" d="M.0,.0L.0,42.5" stroke-width="2"/>
            <path fill="#191919" stroke="#191919" stroke-linecap="round" d="M4.2,42.5L.0,51.0L-4.2,42.5L4.2,42.5" stroke-width="1"/>
            <rect fill="#ffffff" width="104.0" x="-51.0" y="10.3" height="19.0"/>
            <text xml:space="preserve" style="fill:#191919;font-family:Microsoft YaHei;font-size:10.00pt">
                <tspan x="-51.0" y="25.3">subsidiary 子公司</tspan>
            </text>
        </g>
        <g transform="translate(2245.00,1190.70)" id="shape12">
            <path fill="#ffffff" stroke="#323232" d="M158.0,35.4L158.0,.0L.0,.0L.0,35.4L158.0,35.4z" fill-rule="nonzero"/>
            <text xml:space="preserve" style="fill:#191919;font-family:Microsoft YaHei;font-size:10.00pt">
                <tspan x="17.5" y="23.5">Newark, New Jersey</tspan>
            </text>
        </g>
        <g transform="translate(2419.00,1190.70)" id="shape13">
            <path fill="#ffffff" stroke="#323232" d="M79.0,35.4L79.0,.0L.0,.0L.0,35.4L79.0,35.4z" fill-rule="nonzero"/>
            <text xml:space="preserve" style="fill:#191919;font-family:Microsoft YaHei;font-size:10.00pt">
                <tspan x="16.0" y="23.2">London</tspan>
            </text>
        </g>
        <g transform="translate(2419.00,1131.13)" id="shape14">
            <path fill="none" stroke="#191919" d="M.0,.0L.0,40.6L39.5,40.6L39.5,53.6"/>
            <path fill="#191919" stroke="#191919" stroke-linecap="round" d="M42.5,53.6L39.5,59.6L36.5,53.6L42.5,53.6" stroke-width="1"/>
        </g>
        <g transform="translate(2513.00,1192.99)" id="shape15">
            <path fill="#ffffff" stroke="#323232" d="M162.5,30.9L162.5,.0L.0,.0L.0,30.9L162.5,30.9z" fill-rule="nonzero"/>
            <text xml:space="preserve" style="fill:#191919;font-family:Microsoft YaHei;font-size:10.00pt">
                <tspan x="13.3" y="20.9">the northeast corridor</tspan>
            </text>
        </g>
        <g transform="translate(2594.25,1192.99)" id="shape16">
            <path fill="none" stroke="#191919" d="M.0,-8.0L.0,-21.3L-129.8,-21.3C-129.8,-24.6,-132.4,-27.3,-135.8,-27.3C-139.1,-27.3,-141.8,-24.6,-141.8,-21.3L-175.3,-21.3L-175.3,-61.9"/>
            <path fill="#191919" stroke="#191919" stroke-linecap="round" d="M4.0,-8.0L.0,.0L-4.0,-8.0L4.0,-8.0" stroke-width="1"/>
        </g>
        <g transform="translate(2151.00,785.77)" id="shape17">
            <path fill="#ffffff" stroke="#323232" d="M158.0,53.9L158.0,.0L.0,.0L.0,53.9L158.0,53.9z" fill-rule="nonzero"/>
            <text xml:space="preserve" style="fill:#191919;font-family:Microsoft YaHei;font-size:10.00pt">
                <tspan x="21.5" y="22.9">the Department of </tspan>
                <tspan x="34.0" y="41.9">Transportation</tspan>
            </text>
        </g>
        <g transform="translate(2230.00,839.63)" id="shape18">
            <path fill="none" stroke="#191919" d="M.0,.0L.0,38.2"/>
            <path fill="#191919" stroke="#191919" stroke-linecap="round" d="M3.0,38.2L.0,44.2L-3.0,38.2L3.0,38.2" stroke-width="1"/>
        </g>
        <g transform="translate(2419.00,1131.13)" id="shape19">
            <path fill="none" stroke="#191919" d="M.0,.0L.0,40.6L-95.0,40.6L-95.0,53.6"/>
            <path fill="#191919" stroke="#191919" stroke-linecap="round" d="M-92.0,53.6L-95.0,59.6L-98.0,53.6L-92.0,53.6" stroke-width="1"/>
            <rect fill="#ffffff" width="50.0" x="-24.0" y="7.5" height="19.0"/>
            <text xml:space="preserve" style="fill:#191919;font-family:Microsoft YaHei;font-size:10.00pt">
                <tspan x="-24.0" y="22.5">terminal</tspan>
            </text>
        </g>
    </g>
</svg>
