<svg xmlns="http://www.w3.org/2000/svg" width="549" viewBox="0 0 549 394" xmlns:xlink="http://www.w3.org/1999/xlink" height="394">
    <defs/>
    <g transform="translate(-2811.00,-604.00)">
        <path fill="none" stroke="#323232" d="M547.0,330.0L547.0,.0L.0,.0L.0,330.0L547.0,330.0z" transform="translate(2812.00,605.00)" id="shape1"/>
        <path fill="#f5cfcf" d="M226.0,120.2L226.0,.0L.0,.0L.0,120.2L226.0,120.2z" fill-rule="nonzero" transform="translate(3121.00,748.84)" id="shape2"/>
        <path fill="#cfe9d8" d="M216.0,176.2L216.0,.0L.0,.0L.0,176.2L216.0,176.2z" fill-rule="nonzero" transform="translate(2817.00,748.84)" id="shape3"/>
        <g transform="translate(2983.00,661.00)" id="shape4">
            <path fill="#ffffff" stroke="#323232" d="M194.0,72.4L194.0,.0L.0,.0L.0,72.4L194.0,72.4z" fill-rule="nonzero"/>
            <text xml:space="preserve" style="fill:#191919;font-family:Microsoft YaHei;font-size:10.00pt">
                <tspan x="37.5" y="23.0">Van Gordon Sauter</tspan>
                <tspan x="6.5" y="42.0">( the President of CBS News )</tspan>
                <tspan x="39.0" y="61.0">(resigned 自己辞职)</tspan>
            </text>
        </g>
        <g transform="translate(3137.00,768.18)" id="shape5">
            <path fill="#ffffff" stroke="#323232" d="M194.0,72.4L194.0,.0L.0,.0L.0,72.4L194.0,72.4z" fill-rule="nonzero"/>
            <text xml:space="preserve" style="fill:#191919;font-family:Microsoft YaHei;font-size:10.00pt">
                <tspan x="47.5" y="23.0">Thomas Wyman</tspan>
                <tspan x="4.0" y="42.0">( CBS Chief Executive Officer )</tspan>
                <tspan x="42.5" y="61.0">(ouster (n.)被罢免)</tspan>
            </text>
        </g>
        <g transform="translate(2829.00,768.18)" id="shape6">
            <path fill="#ffffff" stroke="#323232" d="M194.0,52.0L194.0,.0L.0,.0L.0,52.0L194.0,52.0z" fill-rule="nonzero"/>
            <text xml:space="preserve" style="fill:#191919;font-family:Microsoft YaHei;font-size:10.00pt">
                <tspan x="51.5" y="22.0">Laurence Tisch</tspan>
                <tspan x="29.0" y="41.0">( leading stockholder )</tspan>
            </text>
        </g>
        <g transform="translate(2876.00,843.00)" id="shape7">
            <path fill="#ffffff" stroke="#323232" d="M100.0,52.0L100.0,.0L.0,.0L.0,52.0L100.0,52.0z" fill-rule="nonzero"/>
            <text xml:space="preserve" style="fill:#191919;font-family:Microsoft YaHei;font-size:10.00pt">
                <tspan x="10.0" y="22.0">William Paley</tspan>
                <tspan x="17.5" y="41.0">( founder )</tspan>
            </text>
        </g>
        <g transform="translate(3016.13,611.02)" id="shape8">
            <text xml:space="preserve" style="fill:#191919;font-family:Microsoft YaHei;font-size:10.00pt">
                <tspan x="17.4" y="22.7">the CBS Board </tspan>
            </text>
        </g>
        <g transform="translate(3137.00,969.41)" id="shape9">
            <path fill="#ffffff" stroke="#323232" d="M194.0,27.2L194.0,.0L.0,.0L.0,27.2L194.0,27.2z" fill-rule="nonzero"/>
            <text xml:space="preserve" style="fill:#191919;font-family:Microsoft YaHei;font-size:10.00pt">
                <tspan x="53.5" y="19.1">a white knight</tspan>
            </text>
        </g>
        <g transform="translate(3234.00,840.54)" id="shape10">
            <path fill="none" stroke="#191919" d="M.0,.0L.0,122.9"/>
            <path fill="#191919" stroke="#191919" stroke-linecap="round" d="M3.0,122.9L.0,128.9L-3.0,122.9L3.0,122.9" stroke-width="1"/>
            <rect fill="#ffffff" width="169.0" x="-83.5" y="36.3" height="19.0"/>
            <text xml:space="preserve" style="fill:#191919;font-family:Microsoft YaHei;font-size:10.00pt">
                <tspan x="-83.5" y="51.3">to try and sell the company</tspan>
            </text>
        </g>
        <g transform="translate(3121.00,808.92)" id="shape11">
            <path fill="none" stroke="#191919" d="M-8.0,.0L-82.0,-0.0"/>
            <path fill="#191919" stroke="#191919" stroke-linecap="round" d="M-8.0,-4.0L.0,.0L-8.0,4.0L-8.0,-4.0" stroke-width="1"/>
            <path fill="#191919" stroke="#191919" stroke-linecap="round" d="M-82.0,3.0L-88.0,-0.0L-82.0,-3.0L-82.0,3.0" stroke-width="1"/>
            <rect fill="#ffffff" width="52.0" x="-66.3" y="-9.5" height="19.0"/>
            <text xml:space="preserve" style="fill:#191919;font-family:Microsoft YaHei;font-size:10.00pt">
                <tspan x="-66.3" y="5.5">意见相异</tspan>
            </text>
        </g>
    </g>
</svg>
