<svg xmlns="http://www.w3.org/2000/svg" xmlns:xlink="http://www.w3.org/1999/xlink" width="958" height="703" viewBox="0 0 958 703">
    <defs/>
    <g transform="translate(-2841.00,-971.25)">
        <g transform="translate(3190.88,972.25)" id="shape1">
            <path d="M162.5,30.9L162.5,.0L.0,.0L.0,30.9L162.5,30.9z" fill-rule="nonzero" stroke="#323232" fill="#ffffff"/>
            <text style="fill:#191919;font-family:Microsoft YaHei;font-size:10.00pt" xml:space="preserve">
                <tspan x="22.3" y="21.0">the Supreme Court</tspan>
            </text>
        </g>
        <g transform="translate(3065.25,1442.17)" id="shape2">
            <path d="M162.5,53.9L162.5,.0L.0,.0L.0,53.9L162.5,53.9z" fill-rule="nonzero" stroke="#323232" fill="#f5cfcf"/>
            <text style="fill:#191919;font-family:Microsoft YaHei;font-size:10.00pt" xml:space="preserve">
                <tspan x="28.3" y="23.0">California Federal  </tspan>
                <tspan x="27.3" y="42.0">Savings and Loan</tspan>
            </text>
        </g>
        <g transform="translate(3065.25,1619.89)" id="shape3">
            <path d="M162.5,53.9L162.5,.0L.0,.0L.0,53.9L162.5,53.9z" fill-rule="nonzero" stroke="#323232" fill="#ffffff"/>
            <text style="fill:#191919;font-family:Microsoft YaHei;font-size:10.00pt" xml:space="preserve">
                <tspan x="36.3" y="22.9"> Lillian Garland</tspan>
                <tspan x="29.8" y="41.9">( 怀孕后失去工作)</tspan>
            </text>
        </g>
        <g transform="translate(3146.50,1496.03)" id="shape4">
            <path d="M.0,.0L.0,117.9" stroke="#191919" fill="none"/>
            <path d="M3.0,117.9L.0,123.9L-3.0,117.9L3.0,117.9" stroke-linecap="round" stroke-width="1" stroke="#191919" fill="#191919"/>
        </g>
        <g transform="translate(3065.25,1350.31)" id="shape5">
            <path d="M162.5,53.9L162.5,.0L.0,.0L.0,53.9L162.5,53.9z" fill-rule="nonzero" stroke="#323232" fill="#cfe9d8"/>
            <text style="fill:#191919;font-family:Microsoft YaHei;font-size:10.00pt" xml:space="preserve">
                <tspan x="40.3" y="32.5">California law</tspan>
            </text>
        </g>
        <g transform="translate(2845.75,1297.45)" id="shape6">
            <text style="fill:#2e8d5d;font-family:Microsoft YaHei;font-size:10.00pt" xml:space="preserve">
                <tspan x="56.8" y="32.5">requires</tspan>
                <tspan x="4.8" y="51.5">all employers in the state </tspan>
                <tspan x="16.3" y="70.5">to provide up to four </tspan>
                <tspan x="10.3" y="89.5">months' disability leave </tspan>
                <tspan x="16.3" y="108.5">for pregnant workers</tspan>
            </text>
        </g>
        <g transform="translate(3065.25,1377.24)" id="shape7">
            <path d="M.0,.0L-51.0,.0" stroke="#191919" fill="none"/>
            <path d="M-51.0,3.0L-57.0,.0L-51.0,-3.0L-51.0,3.0" stroke-linecap="round" stroke-width="1" stroke="#191919" fill="#191919"/>
        </g>
        <g transform="translate(3115.46,1404.17)" id="shape8">
            <path d="M.0,.0L.0,32.0" stroke="#191919" fill="none"/>
            <path d="M3.0,32.0L.0,38.0L-3.0,32.0L3.0,32.0" stroke-linecap="round" stroke-width="1" stroke="#191919" fill="#191919"/>
        </g>
        <g transform="translate(3183.06,1442.17)" id="shape9">
            <path d="M.0,.0L.0,-28.2" stroke-width="3" stroke="#191919" fill="none"/>
            <path d="M-4.9,-28.2L.0,-38.0L4.9,-28.2L-4.9,-28.2" stroke-linecap="round" stroke-width="1" stroke="#191919" fill="#191919"/>
            <rect x="-32.0" width="66.0" height="19.0" fill="#ffffff" y="-26.1"/>
            <text style="fill:#191919;font-family:Microsoft YaHei;font-size:10.00pt" xml:space="preserve">
                <tspan x="-32.0" y="-11.1">challenged</tspan>
            </text>
        </g>
        <g transform="translate(3065.25,1150.38)" id="shape10">
            <path d="M162.5,53.9L162.5,.0L.0,.0L.0,53.9L162.5,53.9z" fill-rule="nonzero" stroke="#323232" fill="#f5cfcf"/>
            <text style="fill:#191919;font-family:Microsoft YaHei;font-size:10.00pt" xml:space="preserve">
                <tspan x="45.8" y="23.0">The Reagan </tspan>
                <tspan x="36.3" y="42.0">Administration</tspan>
            </text>
        </g>
        <g transform="translate(2891.00,1143.31)" id="shape11">
            <text style="fill:#c00000;font-family:Microsoft YaHei;font-size:10.00pt" xml:space="preserve">
                <tspan x="6.8" y="20.5">支持 federal law requires </tspan>
                <tspan x="7.3" y="39.5">no special treatment for </tspan>
                <tspan x="48.8" y="58.5">pregnancy</tspan>
            </text>
        </g>
        <g transform="translate(3466.25,1352.81)" id="shape12">
            <path d="M162.5,72.9L162.5,.0L.0,.0L.0,72.9L162.5,72.9z" fill-rule="nonzero" stroke="#323232" fill="#cfe9d8"/>
            <text style="fill:#191919;font-family:Microsoft YaHei;font-size:10.00pt" xml:space="preserve">
                <tspan x="34.3" y="22.9">Other women's </tspan>
                <tspan x="38.8" y="41.9">organizations, </tspan>
                <tspan x="8.8" y="60.9">particularly in California</tspan>
            </text>
        </g>
        <g transform="translate(3635.50,1350.31)" id="shape13">
            <text style="fill:#2e8d5d;font-family:Microsoft YaHei;font-size:10.00pt" xml:space="preserve">
                <tspan x="28.3" y="23.0"> 支持 singling out </tspan>
                <tspan x="15.3" y="42.0">pregnancy for special </tspan>
                <tspan x="19.8" y="61.0">treatment is not sex </tspan>
                <tspan x="36.8" y="80.0">discrimination.</tspan>
            </text>
        </g>
        <g transform="translate(3466.25,1450.60)" id="shape14">
            <path d="M162.5,53.9L162.5,.0L.0,.0L.0,53.9L162.5,53.9z" fill-rule="nonzero" stroke="#323232" fill="#cfe9d8"/>
            <text style="fill:#191919;font-family:Microsoft YaHei;font-size:10.00pt" xml:space="preserve">
                <tspan x="40.8" y="23.0">Betty Friedan</tspan>
                <tspan x="47.8" y="42.0">( Feminist )</tspan>
            </text>
        </g>
        <g transform="translate(2901.13,1507.46)" id="shape15">
            <path d="M191.5,53.9L191.5,.0L.0,.0L.0,53.9L191.5,53.9z" fill-rule="nonzero" stroke="#323232" fill="#f5cfcf"/>
            <text style="fill:#191919;font-family:Microsoft YaHei;font-size:10.00pt" xml:space="preserve">
                <tspan x="64.8" y="22.9">Ted Olson</tspan>
                <tspan x="16.3" y="41.9">( the lawyer for the bank )</tspan>
            </text>
        </g>
        <g transform="translate(3065.25,1469.10)" id="shape16">
            <path d="M.0,.0L-68.4,.0L-68.4,32.4" stroke="#191919" fill="none"/>
            <path d="M-65.4,32.4L-68.4,38.4L-71.4,32.4L-65.4,32.4" stroke-linecap="round" stroke-width="1" stroke="#191919" fill="#191919"/>
        </g>
        <g transform="translate(3190.88,1020.32)" id="shape17">
            <path d="M162.5,53.9L162.5,.0L.0,.0L.0,53.9L162.5,53.9z" fill-rule="nonzero" stroke="#323232" fill="#ffffff"/>
            <text style="fill:#191919;font-family:Microsoft YaHei;font-size:10.00pt" xml:space="preserve">
                <tspan x="43.8" y="22.9">Louis Powell</tspan>
                <tspan x="52.8" y="41.9">( Justice )</tspan>
            </text>
        </g>
        <g transform="translate(3272.13,1003.11)" id="shape18">
            <path d="M.0,.0L.0,11.2" stroke="#191919" fill="none"/>
            <path d="M3.0,11.2L.0,17.2L-3.0,11.2L3.0,11.2" stroke-linecap="round" stroke-width="1" stroke="#191919" fill="#191919"/>
        </g>
        <g transform="translate(3065.25,1250.67)" id="shape19">
            <path d="M162.5,53.9L162.5,.0L.0,.0L.0,53.9L162.5,53.9z" fill-rule="nonzero" stroke="#323232" fill="#ffffff"/>
            <text style="fill:#191919;font-family:Microsoft YaHei;font-size:10.00pt" xml:space="preserve">
                <tspan x="52.3" y="32.5">California</tspan>
            </text>
        </g>
        <g transform="translate(3265.75,1442.17)" id="shape20">
            <path d="M162.5,72.9L162.5,.0L.0,.0L.0,72.9L162.5,72.9z" fill-rule="nonzero" stroke="#323232" fill="#ffffff"/>
            <text style="fill:#191919;font-family:Microsoft YaHei;font-size:10.00pt" xml:space="preserve">
                <tspan x="29.3" y="22.9">Marion Johnston</tspan>
                <tspan x="23.8" y="41.9">( California Deputy </tspan>
                <tspan x="24.8" y="60.9">Attorney General )</tspan>
            </text>
        </g>
        <g transform="translate(3227.75,1377.24)" id="shape21">
            <path d="M.0,.0L119.3,.0L119.3,58.9" stroke="#191919" fill="none"/>
            <path d="M122.3,58.9L119.3,64.9L116.3,58.9L122.3,58.9" stroke-linecap="round" stroke-width="1" stroke="#191919" fill="#191919"/>
        </g>
        <g transform="translate(3146.50,1304.53)" id="shape22">
            <path d="M.0,.0L.0,39.8" stroke="#191919" fill="none"/>
            <path d="M3.0,39.8L.0,45.8L-3.0,39.8L3.0,39.8" stroke-linecap="round" stroke-width="1" stroke="#191919" fill="#191919"/>
        </g>
        <g transform="translate(3146.50,1204.24)" id="shape23">
            <path d="M.0,.0L.0,40.4" stroke="#191919" fill="none"/>
            <path d="M3.0,40.4L.0,46.4L-3.0,40.4L3.0,40.4" stroke-linecap="round" stroke-width="1" stroke="#191919" fill="#191919"/>
        </g>
        <g transform="translate(3183.06,1619.89)" id="shape24">
            <path d="M.0,.0L.0,-114.1" stroke-width="3" stroke="#191919" fill="none"/>
            <path d="M-4.9,-114.1L.0,-123.9L4.9,-114.1L-4.9,-114.1" stroke-linecap="round" stroke-width="1" stroke="#191919" fill="#191919"/>
            <rect x="8.5" width="82.0" height="19.0" fill="#ffffff" y="-60.6"/>
            <text style="fill:#191919;font-family:Microsoft YaHei;font-size:10.00pt" xml:space="preserve">
                <tspan x="8.5" y="-45.6">filed  charges</tspan>
            </text>
        </g>
        <g transform="translate(3065.25,1646.82)" id="shape25">
            <path d="M-8.0,.0L-193.3,.0L-193.3,-221.6" stroke="#2e8d5d" fill="none"/>
            <path d="M-8.0,-4.0L.0,.0L-8.0,4.0L-8.0,-4.0" stroke-linecap="round" stroke-width="1" stroke="#2e8d5d" fill="#2e8d5d"/>
            <rect x="-218.3" width="52.0" height="19.0" fill="#ffffff" y="-77.5"/>
            <text style="fill:#191919;font-family:Microsoft YaHei;font-size:10.00pt" xml:space="preserve">
                <tspan x="-218.3" y="-62.5">法律保障</tspan>
            </text>
        </g>
    </g>
</svg>
