<svg height="177" xmlns:xlink="http://www.w3.org/1999/xlink" xmlns="http://www.w3.org/2000/svg" viewBox="0 0 708 177" width="708">
    <defs/>
    <g transform="translate(-2475.00,-1827.00)">
        <g id="shape1" transform="translate(2476.00,1828.00)">
            <path fill="#ffffff" fill-rule="nonzero" d="M177.0,73.0L177.0,.0L.0,.0L.0,73.0L177.0,73.0z" stroke="#323232"/>
            <text xml:space="preserve" style="fill:#191919;font-family:Microsoft YaHei;font-size:10.00pt">
                <tspan x="71.0" y="23.0">Embo</tspan>
                <tspan x="35.0" y="42.0">( be charged with </tspan>
                <tspan x="13.5" y="61.0">mismanaging UNESCO )</tspan>
            </text>
        </g>
        <g id="shape2" transform="translate(2797.00,1828.00)">
            <path fill="#ffffff" fill-rule="nonzero" d="M177.0,73.0L177.0,.0L.0,.0L.0,73.0L177.0,73.0z" stroke="#323232"/>
            <text xml:space="preserve" style="fill:#191919;font-family:Microsoft YaHei;font-size:10.00pt">
                <tspan x="6.0" y="32.5">The Reagan Administration</tspan>
                <tspan x="22.5" y="51.5">( 退出 UNESCO 组织 )</tspan>
            </text>
        </g>
        <g id="shape3" transform="translate(3005.00,1828.00)">
            <path fill="#ffffff" fill-rule="nonzero" d="M177.0,73.0L177.0,.0L.0,.0L.0,73.0L177.0,73.0z" stroke="#323232"/>
            <text xml:space="preserve" style="fill:#191919;font-family:Microsoft YaHei;font-size:10.00pt">
                <tspan x="22.5" y="32.5">Britain and Singapore</tspan>
                <tspan x="22.5" y="51.5">( 退出 UNESCO 组织 )</tspan>
            </text>
        </g>
        <g id="shape4" transform="translate(2653.00,1864.50)">
            <path fill="none" d="M.0,.0L100.0,.0" stroke="#191919"/>
            <path fill="#191919" stroke-linecap="round" d="M100.0,-3.0L106.0,.0L100.0,3.0L100.0,-3.0" stroke-width="1" stroke="#191919"/>
            <rect height="19.0" fill="#ffffff" x="24.3" width="37.0" y="-9.5"/>
            <text xml:space="preserve" style="fill:#191919;font-family:Microsoft YaHei;font-size:10.00pt">
                <tspan x="24.3" y="5.5">1.导致</tspan>
            </text>
        </g>
        <g id="shape5" transform="translate(2744.00,1930.00)">
            <path fill="#ffffff" fill-rule="nonzero" d="M283.0,73.0L283.0,.0L.0,.0L.0,73.0L283.0,73.0z" stroke="#323232"/>
            <text xml:space="preserve" style="fill:#191919;font-family:Microsoft YaHei;font-size:10.00pt">
                <tspan x="105.0" y="23.0">Jean Gerard</tspan>
                <tspan x="20.0" y="42.0">( now US Ambassador to Luxembourg )</tspan>
                <tspan x="23.0" y="61.0">( the former US delegate to UNESCO )</tspan>
            </text>
        </g>
        <g id="shape6" transform="translate(2885.50,1901.00)">
            <path fill="none" d="M.0,.0L.0,23.0" stroke="#191919"/>
            <path fill="#191919" stroke-linecap="round" d="M3.0,23.0L.0,29.0L-3.0,23.0L3.0,23.0" stroke-width="1" stroke="#191919"/>
        </g>
        <g id="shape7" transform="translate(2518.41,1909.00)">
            <text xml:space="preserve" style="fill:#191919;font-family:Microsoft YaHei;font-size:10.00pt">
                <tspan x="21.1" y="17.7">2.后辞职</tspan>
            </text>
        </g>
    </g>
</svg>
