<svg width="596" viewBox="0 0 596 299" xmlns="http://www.w3.org/2000/svg" height="299" xmlns:xlink="http://www.w3.org/1999/xlink">
    <defs/>
    <g transform="translate(-2428.67,-1794.00)">
        <g id="shape1" transform="translate(2429.67,2040.00)">
            <path fill-rule="nonzero" d="M185.1,52.0L185.1,.0L.0,.0L.0,52.0L185.1,52.0z" fill="#ebebeb" stroke="#323232"/>
            <text style="fill:#191919;font-family:Microsoft YaHei;font-size:10.00pt" xml:space="preserve">
                <tspan y="22.0" x="13.1">Sheik Ahmed Zaki Yamani</tspan>
                <tspan y="41.0" x="49.1">( Oil Minister )</tspan>
            </text>
        </g>
        <g id="shape2" transform="translate(2570.00,1795.00)">
            <text style="fill:#191919;font-family:Microsoft YaHei;font-size:10.00pt" xml:space="preserve">
                <tspan y="21.0" x="21.5">Saudi Arabia</tspan>
            </text>
        </g>
        <g id="shape3" transform="translate(2645.22,2040.00)">
            <path fill-rule="nonzero" d="M185.1,52.0L185.1,.0L.0,.0L.0,52.0L185.1,52.0z" fill="#ffffff" stroke="#323232"/>
            <text style="fill:#191919;font-family:Microsoft YaHei;font-size:10.00pt" xml:space="preserve">
                <tspan y="22.0" x="53.6">Hicham Niza</tspan>
                <tspan y="41.0" x="31.1">( Planning Minister )</tspan>
            </text>
        </g>
        <g id="shape4" transform="translate(2537.45,1946.00)">
            <path fill-rule="nonzero" d="M185.1,52.0L185.1,.0L.0,.0L.0,52.0L185.1,52.0z" fill="#ffffff" stroke="#323232"/>
            <text style="fill:#191919;font-family:Microsoft YaHei;font-size:10.00pt" xml:space="preserve">
                <tspan y="22.0" x="77.6">Fahd</tspan>
                <tspan y="41.0" x="71.1">( King )</tspan>
            </text>
        </g>
        <g id="shape5" transform="translate(2537.45,1841.50)">
            <path fill-rule="nonzero" d="M185.1,73.0L185.1,.0L.0,.0L.0,73.0L185.1,73.0z" fill="#ffffff" stroke="#323232"/>
            <text style="fill:#191919;font-family:Microsoft YaHei;font-size:10.00pt" xml:space="preserve">
                <tspan y="23.0" x="76.1">Faisal</tspan>
                <tspan y="42.0" x="48.6">( crown prince </tspan>
                <tspan y="61.0" x="42.6">/ later the King )</tspan>
            </text>
        </g>
        <g id="shape6" transform="translate(2838.90,1833.50)">
            <path fill-rule="nonzero" d="M185.1,73.5L185.1,.0L.0,.0L.0,73.5L185.1,73.5z" fill="#ffffff" stroke="#323232"/>
            <text style="fill:#191919;font-family:Microsoft YaHei;font-size:10.00pt" xml:space="preserve">
                <tspan y="23.3" x="46.1">Yousef Ibrahim</tspan>
                <tspan y="42.3" x="19.1">( the Wall Street Journal</tspan>
                <tspan y="61.3" x="34.6">/ OPEC specialist  )</tspan>
            </text>
        </g>
        <g id="shape7" transform="translate(2871.45,1795.00)">
            <text style="fill:#191919;font-family:Microsoft YaHei;font-size:10.00pt" xml:space="preserve">
                <tspan y="21.0" x="42.5">OPEC</tspan>
            </text>
        </g>
        <g id="shape8" transform="translate(2630.00,1914.50)">
            <path d="M.0,.0L.0,25.5" fill="none" stroke="#191919"/>
            <path d="M3.0,25.5L.0,31.5L-3.0,25.5L3.0,25.5" fill="#191919" stroke-width="1" stroke="#191919" stroke-linecap="round"/>
        </g>
        <g id="shape9" transform="translate(2630.00,1998.00)">
            <path d="M.0,.0L.0,26.0L-107.8,26.0L-107.8,36.0" fill="none" stroke="#191919"/>
            <path d="M-104.8,36.0L-107.8,42.0L-110.8,36.0L-104.8,36.0" fill="#191919" stroke-width="1" stroke="#191919" stroke-linecap="round"/>
        </g>
        <g id="shape10" transform="translate(2630.00,1998.00)">
            <path d="M.0,.0L.0,26.0L107.8,26.0L107.8,36.0" fill="none" stroke="#191919"/>
            <path d="M110.8,36.0L107.8,42.0L104.8,36.0L110.8,36.0" fill="#191919" stroke-width="1" stroke="#191919" stroke-linecap="round"/>
        </g>
        <g id="shape11" transform="translate(2537.45,1878.00)">
            <path d="M.0,.0L-45.7,.0L-45.7,156.0" fill="none" stroke="#191919"/>
            <path d="M-42.7,156.0L-45.7,162.0L-48.7,156.0L-42.7,156.0" fill="#191919" stroke-width="1" stroke="#191919" stroke-linecap="round"/>
        </g>
    </g>
</svg>
