<svg id="图层_1" data-name="图层 1" xmlns="http://www.w3.org/2000/svg" viewBox="0 0 263.68 134.19"><defs><style>.cls-1{fill:none;stroke:#231815;stroke-miterlimit:10;}.cls-2,.cls-3{fill:#231815;}.cls-3{font-size:12px;font-family:AdobeSongStd-Light-GBpc-EUC-H, Adobe Song Std;}</style></defs><line class="cls-1" x1="12.34" y1="37.88" x2="241.09" y2="37.88"/><path class="cls-2" d="M314.65,392.22A30.31,30.31,0,0,0,306.1,397l1.73-4.75-1.73-4.76A30.34,30.34,0,0,0,314.65,392.22Z" transform="translate(-67.53 -354.34)"/><circle class="cls-1" cx="46.85" cy="38.7" r="5.16"/><circle class="cls-1" cx="98.48" cy="38.7" r="5.16"/><circle class="cls-1" cx="188.43" cy="38.7" r="5.16"/><text class="cls-3" transform="translate(27.13 10.56)">说一句话的过程中, 里面有几个事物</text><line class="cls-1" x1="54.61" y1="60.72" x2="63.43" y2="79.19"/><path class="cls-2" d="M119.54,409.61a29.92,29.92,0,0,1-.61,9.76l3.55-3.6,5-.5A30.27,30.27,0,0,1,119.54,409.61Z" transform="translate(-67.53 -354.34)"/><text class="cls-3" transform="translate(0 102.34)">想对它进行扩展说明?<tspan x="0" y="14.4">就用后置定语</tspan><tspan x="0" y="28.8">来即插即拔</tspan></text><line class="cls-1" x1="206.16" y1="60.72" x2="214.98" y2="79.19"/><path class="cls-2" d="M271.09,409.61a29.92,29.92,0,0,1-.61,9.76l3.55-3.6,5-.5A30.27,30.27,0,0,1,271.09,409.61Z" transform="translate(-67.53 -354.34)"/><text class="cls-3" transform="translate(151.55 102.34)">想对它进行扩展说明?<tspan x="0" y="14.4">就用后置定语</tspan><tspan x="0" y="28.8">来即插即拔</tspan></text></svg>