<?xml version="1.0" encoding="UTF-8"?>
<!DOCTYPE svg PUBLIC "-//W3C//DTD SVG 1.1//EN" "http://www.w3.org/Graphics/SVG/1.1/DTD/svg11.dtd">
<svg version="1.2" xmlns="http://www.w3.org/2000/svg" xmlns:xlink="http://www.w3.org/1999/xlink" x="0" y="0" width="737" height="156" viewBox="0 0 737 156">
<style type="text/css"><![CDATA[
text { font:12px Dialog; }
]]></style>
<rect x="-1049" y="-1052" width="3442" height="2252" style="fill:rgb(255,255,255);stroke:none" />
<clipPath id="clip1"><path d="M15,15 L736,15 L736,141 L15,141 Z M26,54 C21.5817184,54 18,57.5817184 18,62 L18,102 C18,106.4182816 21.5817184,110 26,110 L132,110 C136.4182739,110 140,106.4182816 140,102 L140,62 C140,57.5817184 136.4182739,54 132,54 Z" /></clipPath>
<path d="M150,82 L150,52 C150,47.5839996 153.5839996,44 158,44 L176,44" style="fill:none;stroke:rgb(85,142,213)" clip-path="url(#clip1)" />
<clipPath id="clip2"><path d="M15,15 L736,15 L736,141 L15,141 Z M26,54 C21.5817184,54 18,57.5817184 18,62 L18,102 C18,106.4182816 21.5817184,110 26,110 L132,110 C136.4182739,110 140,106.4182816 140,102 L140,62 C140,57.5817184 136.4182739,54 132,54 Z" /></clipPath>
<path d="M150,82 L150,112 C150,116.4160004 153.5839996,120 158,120 L176,120" style="fill:none;stroke:rgb(85,142,213)" clip-path="url(#clip2)" />
<clipPath id="clip3"><path d="M14,14 L737,14 L737,142 L14,142 L14,14 Z" /></clipPath>
<path d="M140,82 L150,82" style="fill:none;stroke:rgb(85,142,213)" clip-path="url(#clip3)" />
<clipPath id="clip4"><path d="M14,50 L145,50 L145,115 L14,115 L14,50 Z" /></clipPath>
<path d="M26,54 C21.5817184,54 18,57.5817184 18,62 L18,102 C18,106.4182816 21.5817184,110 26,110 L132,110 C136.4182739,110 140,106.4182816 140,102 L140,62 C140,57.5817184 136.4182739,54 132,54 Z" style="fill:rgb(220,230,242);stroke:none" clip-path="url(#clip4)" />
<clipPath id="clip5"><path d="M14,50 L145,50 L145,115 L14,115 L14,50 Z" /></clipPath>
<path d="M26,54 C21.5817184,54 18,57.5817184 18,62 L18,102 C18,106.4182816 21.5817184,110 26,110 L132,110 C136.4182739,110 140,106.4182816 140,102 L140,62 C140,57.5817184 136.4182739,54 132,54 Z" style="fill:none;stroke:rgb(85,142,213);stroke-width:5" clip-path="url(#clip5)" />
<clipPath id="clip6"><path d="M46,70 L113,70 L113,95 L46,95 L46,70 Z" /></clipPath>
<path d="M54.8430214,75.2197266 L57.0695839,75.2197266 L57.0695839,77.8125 L62.5334511,77.8125 L62.5334511,86.0302734 L60.3654823,86.0302734 L60.3654823,85.0195313 L57.0695839,85.0195313 L57.0695839,89.7363281 L54.8430214,89.7363281 L54.8430214,85.0195313 L51.547123,85.0195313 L51.547123,86.0742188 L49.3791542,86.0742188 L49.3791542,77.8125 L54.8430214,77.8125 Z M60.3654823,79.8339844 L57.0695839,79.8339844 L57.0695839,82.9980469 L60.3654823,82.9980469 Z M51.547123,82.9980469 L54.8430214,82.9980469 L54.8430214,79.8339844 L51.547123,79.8339844 Z M71.2712402,75.1757813 C72.1208496,76.25 73.0339355,77.5195313 74.010498,78.984375 L72.0622559,80.1855469 C71.2321777,78.6914063 70.4069824,77.3681641 69.5866699,76.2158203 Z M73.9958496,84.4482422 C74.8747559,84.8095703 75.6120605,85.0878906 76.2077637,85.2832031 C76.1394043,85.7470703 76.0136719,86.3684082 75.8305664,87.1472168 C75.6474609,87.9260254 75.4313965,88.4301758 75.182373,88.659668 C74.9333496,88.8891602 74.6220703,89.0600586 74.2485352,89.1723633 C73.875,89.284668 73.4245605,89.3408203 72.8972168,89.3408203 L70.494873,89.3408203 C68.854248,89.3408203 68.0339355,88.5107422 68.0339355,86.8505859 L68.0339355,78.4130859 L70.2019043,78.4130859 L70.2019043,86.1767578 C70.2019043,87.0166016 70.6364746,87.4365234 71.5056152,87.4365234 L72.2526855,87.4365234 C72.6921387,87.4365234 73.0339355,87.3620605 73.2780762,87.2131348 C73.5222168,87.064209 73.673584,86.8469238 73.7321777,86.5612793 C73.7907715,86.2756348 73.8786621,85.5712891 73.9958496,84.4482422 Z M65.7194824,79.4238281 L67.7263184,79.8779297 C67.3063965,82.2021484 66.7595215,84.3554688 66.0856934,86.3378906 L64.1374512,85.6201172 C64.6940918,83.8427734 65.2214355,81.7773438 65.7194824,79.4238281 Z M76.6911621,79.6582031 C77.4724121,81.2597656 78.1560059,82.8662109 78.7419434,84.4775391 L76.720459,85.3125 C76.173584,83.7207031 75.5144043,82.0996094 74.7429199,80.4492188 Z M79.6867752,87.1728516 L85.7512283,87.1728516 L85.7512283,84.4335938 L81.2395096,84.4335938 L81.2395096,82.5292969 L85.7512283,82.5292969 L85.7512283,79.8779297 L80.5363846,79.8779297 L80.5363846,77.9443359 L86.2126541,77.9443359 C85.885498,77.2998047 85.5168533,76.6650391 85.1066971,76.0400391 L87.1135254,75.1318359 C87.5529785,75.7763672 87.9924316,76.4941406 88.4318848,77.2851563 L87.0183105,77.9443359 L93.2512207,77.9443359 L93.2512207,79.8779297 L87.9631348,79.8779297 L87.9631348,82.5292969 L92.5773926,82.5292969 L92.5773926,84.4335938 L87.9631348,84.4335938 L87.9631348,87.1728516 L94.0422363,87.1728516 L94.0422363,89.1357422 L79.6867752,89.1357422 Z M95.7634277,75.8056641 L101.5056152,75.8056641 L101.5056152,81.4892578 L95.7634277,81.4892578 Z M99.8063965,77.1826172 L97.4626465,77.1826172 L97.4626465,78.0322266 L99.8063965,78.0322266 Z M99.8063965,80.1123047 L99.8063965,79.2626953 L97.4626465,79.2626953 L97.4626465,80.1123047 Z M102.3405762,78.4423828 L104.2814941,78.4423828 C104.3498535,78.046875 104.4084473,77.6660156 104.4572754,77.2998047 L102.0769043,77.2998047 L102.0769043,75.8349609 L109.2692871,75.8349609 L109.2692871,77.2998047 L106.3103027,77.2998047 C106.2468262,77.6855469 106.1784668,78.0664063 106.1052246,78.4423828 L108.829834,78.4423828 L108.829834,84.5947266 L107.1599121,84.5947266 L107.1599121,79.9072266 L104.010498,79.9072266 L104.010498,84.5800781 L102.3405762,84.5800781 Z M95.807373,84.2431641 L97.4040527,84.2431641 C97.4089355,84.7998047 97.3991699,85.3222656 97.3747559,85.8105469 C97.5993652,86.0205078 97.8337402,86.2133789 98.0778809,86.3891602 L98.0778809,83.6279297 L95.1335449,83.6279297 L95.1335449,82.1630859 L101.8425293,82.1630859 L101.8425293,83.6279297 L99.8796387,83.6279297 L99.8796387,84.5654297 L101.6228027,84.5654297 L101.6228027,86.0009766 L99.8796387,86.0009766 L99.8796387,87.3193359 C100.5534668,87.5537109 101.342041,87.6782227 102.2453613,87.6928711 C101.9035645,87.1801758 101.5446777,86.71875 101.1687012,86.3085938 C102.2429199,86.015625 103.1169434,85.5456543 103.7907715,84.8986816 C104.4645996,84.251709 104.8015137,83.2373047 104.8015137,81.8554688 L104.8015137,80.5371094 L106.3835449,80.5371094 L106.3835449,81.9433594 C106.3835449,82.7490234 106.2956543,83.4765625 106.119873,84.1259766 C107.423584,84.8925781 108.5808105,85.6347656 109.5915527,86.3525391 L108.4709473,87.6782227 L109.6208496,87.65625 C109.3962402,88.1835938 109.220459,88.75 109.0935059,89.3554688 C106.9255371,89.3554688 105.046875,89.3469238 103.4575195,89.329834 C101.8681641,89.3127441 100.807373,89.2480469 100.2751465,89.1357422 C99.7429199,89.0234375 99.2131348,88.8366699 98.685791,88.5754395 C98.1584473,88.314209 97.657959,87.9833984 97.1843262,87.5830078 C97.0231934,88.5351563 96.7692871,89.296875 96.4226074,89.8681641 C96.0710449,89.4287109 95.5925293,88.9257813 94.9870682,88.359375 C95.5437012,87.5097656 95.8171387,86.1376953 95.807373,84.2431641 Z M102.8459473,87.7001953 L108.2731934,87.6782227 C107.3649902,86.9262695 106.4274902,86.2353516 105.4606934,85.6054688 C104.869873,86.4501953 103.998291,87.1484375 102.8459473,87.7001953 Z" style="fill:rgb(55,96,146);stroke:none" clip-path="url(#clip6)" />
<clipPath id="clip7"><path d="M175,15 L363,15 L363,65 L175,65 Z M181,25 C178.2385712,25 176,27.238575 176,30 L176,58 C176,60.761425 178.2385712,63 181,63 L237,63 C239.7614288,63 242,60.761425 242,58 L242,30 C242,27.238575 239.7614288,25 237,25 Z" /></clipPath>
<path d="M255,44 L255,44 L265,44" style="fill:none;stroke:rgb(85,142,213)" clip-path="url(#clip7)" />
<clipPath id="clip8"><path d="M174,14 L364,14 L364,66 L174,66 L174,14 Z" /></clipPath>
<path d="M242,44 L255,44" style="fill:none;stroke:rgb(85,142,213)" clip-path="url(#clip8)" />
<clipPath id="clip9"><path d="M174,23 L245,23 L245,66 L174,66 L174,23 Z" /></clipPath>
<path d="M181,25 C178.2385712,25 176,27.238575 176,30 L176,58 C176,60.761425 178.2385712,63 181,63 L237,63 C239.7614288,63 242,60.761425 242,58 L242,30 C242,27.238575 239.7614288,25 237,25 Z" style="fill:rgb(220,230,242);stroke:none" clip-path="url(#clip9)" />
<clipPath id="clip10"><path d="M174,23 L245,23 L245,66 L174,66 L174,23 Z" /></clipPath>
<path d="M181,25 C178.2385712,25 176,27.238575 176,30 L176,58 C176,60.761425 178.2385712,63 181,63 L237,63 C239.7614288,63 242,60.761425 242,58 L242,30 C242,27.238575 239.7614288,25 237,25 Z" style="fill:none;stroke:rgb(85,142,213);stroke-width:2" clip-path="url(#clip10)" />
<clipPath id="clip11"><path d="M187,32 L232,32 L232,57 L187,57 L187,32 Z" /></clipPath>
<path d="M190.9018555,44.6538086 L194.7763672,44.6538086 C194.78125,44.4975586 194.7836914,43.315918 194.7836914,41.1088867 L191.5317383,41.1088867 L191.5317383,39.9663086 L195.6918945,39.9663086 C195.0717773,39.1459961 194.5004883,38.4526367 193.9780273,37.8862305 L194.8569336,37.2270508 C195.6577148,38.027832 196.2875977,38.7260742 196.746582,39.3217773 L195.8164063,39.9663086 L199.4785156,39.9663086 C200.09375,39.1508789 200.7163086,38.2329102 201.3461914,37.2124023 L202.503418,37.9301758 C201.8930664,38.7163086 201.3388672,39.3950195 200.8408203,39.9663086 L204.6860352,39.9663086 L204.6860352,41.1088867 L201.5805664,41.1088867 L201.5805664,44.6538086 L205.315918,44.6538086 L205.315918,45.7963867 L201.5805664,45.7963867 L201.5805664,51.6557617 L200.3793945,51.6557617 L200.3793945,45.7963867 L195.9189453,45.7963867 C195.796875,48.3842735 194.6079102,50.3813477 192.3520508,51.7875977 C191.9907227,51.309082 191.7172852,50.9672852 191.5317383,50.762207 C193.5922852,49.4536133 194.6494141,47.7983398 194.703125,45.7963867 L190.9018555,45.7963867 Z M195.9775391,44.6538086 L200.3793945,44.6538086 L200.3793945,41.1088867 L195.9848633,41.1088867 C195.9848633,43.1401367 195.9824219,44.3217773 195.9775391,44.6538086 Z M208.7802734,45.1665039 L209.4980469,44.3461914 C210.2402191,44.956543 210.9164886,45.5546875 211.5268555,46.140625 C212.1811371,45.0078125 212.6425629,43.7797852 212.9111328,42.456543 L209.6152344,42.456543 C208.8486176,44.2143555 207.9062347,45.7963867 206.7880859,47.2026367 C206.5732422,46.7045898 206.3779297,46.3139648 206.2021484,46.0307617 C207.6767426,44.0483398 208.8119965,41.7290039 209.6079102,39.0727539 L206.6855469,39.0727539 L206.6855469,38.0180664 L214.9033203,38.0180664 L214.9033203,39.0727539 L210.8164063,39.0727539 C210.5868988,39.878418 210.3305511,40.6547852 210.0473633,41.4018555 L214.1123047,41.4018555 L214.1123047,42.4711914 C213.3115082,46.4750977 211.207016,49.565918 207.7988281,51.7436523 C207.5449066,51.4506836 207.2421875,51.152832 206.890625,50.8500977 C208.5605316,49.7709961 209.8984222,48.5234375 210.9042969,47.1074219 C210.3476563,46.5605469 209.6396332,45.9135742 208.7802734,45.1665039 Z M218.7558594,37.4907227 L219.9277344,37.4907227 L219.9277344,49.590332 C219.9277344,50.8305664 219.3661957,51.4555664 218.2431641,51.465332 C217.7060394,51.4750977 216.910141,51.4702148 215.8554688,51.4506836 C215.8066254,51.0014648 215.7285004,50.5620117 215.6210938,50.1323242 C216.6269379,50.2202148 217.3691254,50.2641602 217.8476563,50.2641602 C218.4531097,50.2641602 218.7558441,49.9370079 218.7558594,49.2827148 Z M216.6464844,48.081543 L215.5185547,48.081543 L215.5185547,39.1166992 L216.6464844,39.1166992 Z M225.6772461,49.7441406 L225.6772461,40.0395508 C225.4526215,40.2641602 225.072998,40.515625 224.5383301,40.7939453 C224.0036621,41.0722656 223.5092773,41.2675781 223.0551758,41.3798828 L223.0551758,39.9736328 C223.6557617,39.8076172 224.2978363,39.5427246 224.9814453,39.1789551 C225.6650238,38.8151855 226.1899414,38.472168 226.5561523,38.1499023 L227.0981445,38.1499023 L227.0981445,49.7441406 Z" style="fill:rgb(23,55,94);stroke:none" clip-path="url(#clip11)" />
<clipPath id="clip12"><path d="M243,38 L256,38 L256,51 L243,51 L243,38 Z" /></clipPath>
<path d="M253.4999847,43.9999962 C253.4999847,41.5147171 251.4852753,39.4999962 248.9999847,39.4999962 C246.5147095,39.5 244.4999847,41.5147171 244.5,44 C244.5,46.4852829 246.5147095,48.5 249,48.4999962 C251.4852753,48.4999924 253.5,46.4852715 253.4999847,43.9999924 Z" style="fill:rgb(250,250,250);stroke:none" clip-path="url(#clip12)" />
<clipPath id="clip13"><path d="M243,38 L256,38 L256,51 L243,51 L243,38 Z" /></clipPath>
<path d="M253.4999847,43.9999962 C253.4999847,41.5147171 251.4852753,39.4999962 248.9999847,39.4999962 C246.5147095,39.5 244.4999847,41.5147171 244.5,44 C244.5,46.4852829 246.5147095,48.5 249,48.4999962 C251.4852753,48.4999924 253.5,46.4852715 253.4999847,43.9999924 Z" style="fill:none;stroke:rgb(85,142,213)" clip-path="url(#clip13)" />
<clipPath id="clip14"><path d="M243,38 L256,38 L256,51 L243,51 L243,38 Z" /></clipPath>
<path d="M247,44 L251,44" style="fill:none;stroke:rgb(150,160,200)" clip-path="url(#clip14)" />
<clipPath id="clip15"><path d="M262,14 L364,14 L364,47 L262,47 L262,14 Z" /></clipPath>
<path d="M265,44 L360,44 Z" style="fill:none;stroke:rgb(85,142,213);stroke-width:3" clip-path="url(#clip15)" />
<clipPath id="clip16"><path d="M274,19 L352,19 L352,42 L274,42 L274,19 Z" /></clipPath>
<path d="M277.895752,25.7805176 L277.895752,35.6130371 L276.6262207,35.6130371 L276.6262207,25.7805176 Z M293.3586426,28.5925293 L291.263916,35.6130371 L289.9689941,35.6130371 L288.5725098,30.6872559 C288.5132446,30.475666 288.4751587,30.2513809 288.458252,30.0144043 L288.4328613,30.0144043 C288.420166,30.1921387 288.3714905,30.4121895 288.2868652,30.6745605 L286.776123,35.6130371 L285.5192871,35.6130371 L283.4118652,28.5925293 L284.7067871,28.5925293 L286.1096191,33.7976074 C286.1519165,33.9541817 286.1836548,34.1678848 286.204834,34.4387207 L286.2556152,34.4387207 C286.272522,34.2059708 286.3127441,33.98592 286.3762207,33.7785645 L287.8869629,28.5925293 L289.0358887,28.5925293 L290.5085449,33.8039551 C290.5508423,33.9562988 290.5847168,34.1721191 290.6101074,34.451416 L290.6672363,34.451416 C290.6756897,34.2652168 290.7137756,34.0493965 290.7814941,33.8039551 L292.1525879,28.5925293 Z M300.6584473,32.420166 L295.7453613,32.420166 C295.76651,33.1691895 295.9717407,33.7478828 296.361084,34.15625 C296.7503967,34.5646133 297.2941895,34.7687988 297.9924316,34.7687988 C298.779541,34.7687988 299.5010376,34.5170059 300.1569824,34.0134277 L300.1569824,35.1242676 C299.5391235,35.5601387 298.7202759,35.7780762 297.7004395,35.7780762 C296.6848145,35.7780762 295.892395,35.456459 295.3232422,34.8132324 C294.7540588,34.170002 294.4694824,33.2770996 294.4694824,32.1345215 C294.4694824,31.0596504 294.7815552,30.1730957 295.4057617,29.4748535 C296.0299377,28.7766113 296.8054199,28.4274902 297.7321777,28.4274902 C298.6504517,28.4274902 299.3677368,28.7226563 299.8840332,29.3129883 C300.4002991,29.9033203 300.6584473,30.7295723 300.6584473,31.791748 Z M299.4143066,31.423584 C299.4100647,30.7888184 299.2598267,30.2979317 298.963623,29.9509277 C298.6673889,29.60392 298.2505493,29.4304199 297.7131348,29.4304199 C297.2180176,29.4304199 296.7895508,29.614502 296.4277344,29.982666 C296.065918,30.3508301 295.8384399,30.8311348 295.7453613,31.423584 Z M308.4724121,35.6130371 L307.2346191,35.6130371 L307.2346191,31.6203613 C307.2346191,30.1773262 306.7077637,29.4558105 305.6540527,29.4558105 C305.1081543,29.4558105 304.6595764,29.6589355 304.3083496,30.0651855 C303.9570923,30.4714355 303.7814941,30.9855957 303.7814941,31.607666 L303.7814941,35.6130371 L302.5373535,35.6130371 L302.5373535,28.5925293 L303.7814941,28.5925293 L303.7814941,29.7541504 L303.8068848,29.7541504 C304.3358459,28.869709 305.1039124,28.4274902 306.111084,28.4274902 C306.8812561,28.4274902 307.4673462,28.6739883 307.8693848,29.1669922 C308.2713928,29.6599922 308.4724121,30.378334 308.4724121,31.3220215 Z M314.1599121,35.5432129 C313.8890686,35.6913223 313.5230103,35.7653809 313.0617676,35.7653809 C311.8049316,35.7653809 311.1765137,35.069252 311.1765137,33.677002 L311.1765137,29.6208496 L309.970459,29.6208496 L309.970459,28.5925293 L311.1765137,28.5925293 L311.1765137,26.9040527 L312.4143066,26.510498 L312.4143066,28.5925293 L314.1599121,28.5925293 L314.1599121,29.6208496 L312.4143066,29.6208496 L312.4143066,33.454834 C312.4143066,33.9160957 312.4925842,34.2461739 312.6491699,34.4450684 C312.8057251,34.643959 313.065979,34.7434082 313.4299316,34.7434082 C313.7092285,34.7434082 313.9525452,34.6651192 314.1599121,34.5085449 Z M320.9836426,34.6228027 L320.9836426,35.6130371 L319.739502,35.6130371 L319.739502,25.2219238 L320.9836426,25.2219238 L320.9836426,29.8049316 L321.0090332,29.8049316 C321.5591431,28.8866348 322.3631897,28.4274902 323.4211426,28.4274902 C324.3013306,28.4274902 325.0006409,28.7374649 325.519043,29.3574219 C326.0374146,29.977375 326.2966309,30.8247871 326.2966309,31.8996582 C326.2966309,33.0845528 326.0056763,34.0271797 325.4238281,34.7275391 C324.8419495,35.4278946 324.0664673,35.7780762 323.0974121,35.7780762 C322.1833496,35.7780762 321.4872131,35.3929825 321.0090332,34.6228027 Z M320.9772949,32.7248535 C320.9772949,33.2919083 321.161377,33.7711563 321.529541,34.1625977 C321.8977051,34.5540352 322.3589478,34.7497559 322.9133301,34.7497559 C323.5734863,34.7497559 324.0897522,34.4958496 324.4621582,33.9880371 C324.8345337,33.4802246 325.020752,32.7777481 325.020752,31.8806152 C325.020752,31.1400528 324.847229,30.5507813 324.5002441,30.112793 C324.1532288,29.6748047 323.6792603,29.4558105 323.0783691,29.4558105 C322.4689941,29.4558105 321.9664612,29.6737442 321.5708008,30.1096191 C321.1751099,30.5454903 320.9772949,31.0998535 320.9772949,31.7727051 Z M328.454834,29.0812988 C329.1530762,28.6454239 329.9592285,28.4274902 330.873291,28.4274902 C332.565979,28.4274902 333.4123535,29.3161621 333.4123535,31.0935059 L333.4123535,35.6130371 L332.1809082,35.6130371 L332.1809082,34.5275879 L332.1491699,34.5275879 C331.6625061,35.3612442 330.9452209,35.7780762 329.9973145,35.7780762 C329.315979,35.7780762 328.7743225,35.5939903 328.3723145,35.2258301 C327.9702759,34.857666 327.7692871,34.3604317 327.7692871,33.7341309 C327.7692871,32.4222794 328.5458069,31.6584473 330.098877,31.442627 L332.1809082,31.1506348 C332.1809082,30.0038223 331.7069397,29.4304199 330.7590332,29.4304199 C329.9169006,29.4304199 329.1488342,29.7139473 328.454834,30.2810059 Z M330.5368652,32.3122559 C329.9613342,32.3884277 329.5646057,32.5323067 329.3466797,32.7438965 C329.1287231,32.9554825 329.0197754,33.251709 329.0197754,33.6325684 C329.0197754,33.966877 329.1382446,34.2398262 329.3752441,34.451416 C329.6122131,34.663002 329.925354,34.7687988 330.3146973,34.7687988 C330.8563538,34.7687988 331.3027954,34.5783691 331.6540527,34.1975098 C332.0052795,33.8166504 332.1809082,33.338459 332.1809082,32.7629395 L332.1809082,32.0900879 Z M340.5407715,35.2956543 C340.0033264,35.6172676 339.3558655,35.7780762 338.5983887,35.7780762 C337.5827332,35.7780762 336.7660217,35.4522285 336.1481934,34.8005371 C335.5303345,34.1488419 335.2214355,33.3046036 335.2214355,32.2678223 C335.2214355,31.1167793 335.5546875,30.1889648 336.2211914,29.484375 C336.8876953,28.7797852 337.779541,28.4274902 338.8967285,28.4274902 C339.5399475,28.4274902 340.0900879,28.541748 340.5471191,28.7702637 L340.5471191,30.001709 C340.052002,29.6377754 339.5018616,29.4558105 338.8967285,29.4558105 C338.185791,29.4558105 337.6070862,29.7023087 337.1606445,30.1953125 C336.7141724,30.6883125 336.4909668,31.345295 336.4909668,32.1662598 C336.4909668,32.9745255 336.7014771,33.6071777 337.1225586,34.064209 C337.5436096,34.5212402 338.1117249,34.7497559 338.8269043,34.7497559 C339.4320374,34.7497559 340.0033264,34.5508614 340.5407715,34.1530762 Z M348.3737793,35.6130371 L346.6789551,35.6130371 L343.6765137,32.2297363 L343.651123,32.2297363 L343.651123,35.6130371 L342.4069824,35.6130371 L342.4069824,25.2219238 L343.651123,25.2219238 L343.651123,31.810791 L343.6765137,31.810791 L346.5266113,28.5925293 L348.1262207,28.5925293 L344.9523926,31.9694824 Z" style="fill:rgb(0,0,0);stroke:none" clip-path="url(#clip16)" />
<clipPath id="clip17"><path d="M175,75 L736,75 L736,141 L175,141 Z M181,101 C178.2385712,101 176,103.2385712 176,106 L176,134 C176,136.7614288 178.2385712,139 181,139 L237,139 C239.7614288,139 242,136.7614288 242,134 L242,106 C242,103.2385712 239.7614288,101 237,101 Z" /></clipPath>
<path d="M255,120 L255,104 L265,104" style="fill:none;stroke:rgb(85,142,213)" clip-path="url(#clip17)" />
<clipPath id="clip18"><path d="M175,75 L736,75 L736,141 L175,141 Z M181,101 C178.2385712,101 176,103.2385712 176,106 L176,134 C176,136.7614288 178.2385712,139 181,139 L237,139 C239.7614288,139 242,136.7614288 242,134 L242,106 C242,103.2385712 239.7614288,101 237,101 Z" /></clipPath>
<path d="M255,120 L255,136 L265,136" style="fill:none;stroke:rgb(85,142,213)" clip-path="url(#clip18)" />
<clipPath id="clip19"><path d="M174,74 L737,74 L737,142 L174,142 L174,74 Z" /></clipPath>
<path d="M242,120 L255,120" style="fill:none;stroke:rgb(85,142,213)" clip-path="url(#clip19)" />
<clipPath id="clip20"><path d="M174,99 L245,99 L245,142 L174,142 L174,99 Z" /></clipPath>
<path d="M181,101 C178.2385712,101 176,103.2385712 176,106 L176,134 C176,136.7614288 178.2385712,139 181,139 L237,139 C239.7614288,139 242,136.7614288 242,134 L242,106 C242,103.2385712 239.7614288,101 237,101 Z" style="fill:rgb(220,230,242);stroke:none" clip-path="url(#clip20)" />
<clipPath id="clip21"><path d="M174,99 L245,99 L245,142 L174,142 L174,99 Z" /></clipPath>
<path d="M181,101 C178.2385712,101 176,103.2385712 176,106 L176,134 C176,136.7614288 178.2385712,139 181,139 L237,139 C239.7614288,139 242,136.7614288 242,134 L242,106 C242,103.2385712 239.7614288,101 237,101 Z" style="fill:none;stroke:rgb(85,142,213);stroke-width:2" clip-path="url(#clip21)" />
<clipPath id="clip22"><path d="M187,108 L232,108 L232,133 L187,133 L187,108 Z" /></clipPath>
<path d="M189.6970215,120.6538086 L193.5715332,120.6538086 C193.576416,120.4975586 193.5788574,119.315918 193.5788574,117.1088867 L190.3269043,117.1088867 L190.3269043,115.9663086 L194.4870605,115.9663086 C193.8669434,115.1459961 193.2956543,114.4526367 192.7731934,113.8862305 L193.6520996,113.2270508 C194.4528809,114.027832 195.0827637,114.7260742 195.541748,115.3217773 L194.6115723,115.9663086 L198.2736816,115.9663086 C198.888916,115.1508789 199.5114746,114.2329102 200.1413574,113.2124023 L201.298584,113.9301758 C200.6882324,114.7163086 200.1340332,115.3950195 199.6359863,115.9663086 L203.4812012,115.9663086 L203.4812012,117.1088867 L200.3757324,117.1088867 L200.3757324,120.6538086 L204.111084,120.6538086 L204.111084,121.7963867 L200.3757324,121.7963867 L200.3757324,127.6557617 L199.1745605,127.6557617 L199.1745605,121.7963867 L194.7141113,121.7963867 C194.592041,124.3842773 193.4030762,126.3813477 191.1472168,127.7875977 C190.7858887,127.309082 190.5124512,126.9672852 190.3269043,126.762207 C192.3874512,125.4536133 193.4445801,123.7983398 193.498291,121.7963867 L189.6970215,121.7963867 Z M194.7727051,120.6538086 L199.1745605,120.6538086 L199.1745605,117.1088867 L194.7800293,117.1088867 C194.7800293,119.1401367 194.7775879,120.3217773 194.7727051,120.6538086 Z M207.5754395,121.1665039 L208.2932129,120.3461914 C209.0353851,120.956543 209.7116547,121.5546875 210.3220215,122.140625 C210.9763031,121.0078125 211.4377289,119.7797852 211.7062988,118.456543 L208.4104004,118.456543 C207.6437836,120.2143555 206.701416,121.7963867 205.583252,123.2026367 C205.3684082,122.7045898 205.1730957,122.3139648 204.9973145,122.0307617 C206.4719238,120.0483398 207.6071625,117.7290039 208.4030762,115.0727539 L205.4807129,115.0727539 L205.4807129,114.0180664 L213.6984863,114.0180664 L213.6984863,115.0727539 L209.6115723,115.0727539 C209.3820648,115.878418 209.1257172,116.6547852 208.8425293,117.4018555 L212.9074707,117.4018555 L212.9074707,118.4711914 C212.1066742,122.4750977 210.002182,125.565918 206.5939941,127.7436523 C206.3400879,127.4506836 206.0373535,127.152832 205.685791,126.8500977 C207.3556976,125.7709961 208.6935883,124.5234375 209.6994629,123.1074219 C209.1428223,122.5605469 208.4347992,121.9135742 207.5754395,121.1665039 Z M217.5510254,113.4907227 L218.7229004,113.4907227 L218.7229004,125.590332 C218.7229004,126.8305664 218.1613617,127.4555664 217.0383301,127.465332 C216.5012054,127.4750977 215.705307,127.4702148 214.6506348,127.4506836 C214.6017914,127.0014648 214.5236664,126.5620117 214.4162598,126.1323242 C215.4221039,126.2202148 216.1642914,126.2641602 216.6428223,126.2641602 C217.2482758,126.2641602 217.5510101,125.9370117 217.5510254,125.2827148 Z M215.4416504,124.081543 L214.3137207,124.081543 L214.3137207,115.1166992 L215.4416504,115.1166992 Z M226.545166,117.3725586 C226.545166,116.762207 226.3522797,116.2824707 225.9665527,115.9333496 C225.5807953,115.5842285 225.0558929,115.409668 224.3918457,115.409668 C223.9230957,115.409668 223.4494476,115.5292969 222.9709473,115.7685547 C222.4924164,116.0078125 222.045639,116.3496094 221.6306152,116.7939453 L221.6306152,115.4023438 C222.0016937,115.0166016 222.4228363,114.7211914 222.894043,114.5161133 C223.3652191,114.3110352 223.9181976,114.2084961 224.5529785,114.2084961 C225.5783691,114.2084961 226.4035492,114.4831543 227.0285645,115.0324707 C227.6535492,115.5817871 227.9660645,116.3251953 227.9660645,117.2626953 C227.9660645,118.0976563 227.7743988,118.8203125 227.3911133,119.4306641 C227.0077972,120.0410156 226.3522797,120.6660156 225.4245605,121.3056641 C224.4772797,121.9599609 223.8437347,122.4287109 223.5239258,122.7119141 C223.2040863,122.9951172 222.9806976,123.2661133 222.8537598,123.5249023 C222.7267914,123.7836914 222.6633301,124.0986328 222.6633301,124.4697266 L228.3029785,124.4697266 L228.3029785,125.7441406 L221.1691895,125.7441406 L221.1691895,125.1801758 C221.1691895,124.5258789 221.2582855,123.970459 221.4365234,123.513916 C221.6147308,123.057373 221.9089355,122.6130371 222.3190918,122.1809082 C222.729248,121.7487793 223.3688812,121.2299805 224.2380371,120.6245117 C225.1266937,119.9995117 225.7333832,119.451416 226.0581055,118.9802246 C226.3827972,118.5090332 226.545166,117.9731445 226.545166,117.3725586 Z" style="fill:rgb(23,55,94);stroke:none" clip-path="url(#clip22)" />
<clipPath id="clip23"><path d="M243,114 L256,114 L256,127 L243,127 L243,114 Z" /></clipPath>
<path d="M253.4999847,120 C253.4999847,117.5147171 251.4852753,115.5 248.9999847,115.5 C246.5147095,115.5 244.4999847,117.5147171 244.5,120 C244.5,122.4852829 246.5147095,124.5 249,124.5 C251.4852753,124.4999924 253.5,122.4852753 253.4999847,119.9999924 Z" style="fill:rgb(250,250,250);stroke:none" clip-path="url(#clip23)" />
<clipPath id="clip24"><path d="M243,114 L256,114 L256,127 L243,127 L243,114 Z" /></clipPath>
<path d="M253.4999847,120 C253.4999847,117.5147171 251.4852753,115.5 248.9999847,115.5 C246.5147095,115.5 244.4999847,117.5147171 244.5,120 C244.5,122.4852829 246.5147095,124.5 249,124.5 C251.4852753,124.4999924 253.5,122.4852753 253.4999847,119.9999924 Z" style="fill:none;stroke:rgb(85,142,213)" clip-path="url(#clip24)" />
<clipPath id="clip25"><path d="M243,114 L256,114 L256,127 L243,127 L243,114 Z" /></clipPath>
<path d="M247,120 L251,120" style="fill:none;stroke:rgb(150,160,200)" clip-path="url(#clip25)" />
<clipPath id="clip26"><path d="M262,74 L547,74 L547,107 L262,107 L262,74 Z" /></clipPath>
<path d="M265,104 L543,104 Z" style="fill:none;stroke:rgb(85,142,213);stroke-width:3" clip-path="url(#clip26)" />
<clipPath id="clip27"><path d="M274,79 L535,79 L535,102 L274,102 L274,79 Z" /></clipPath>
<path d="M279.3669434,85.8217773 L278.4211426,85.8217773 L276.5866699,83.574707 L277.8244629,83.574707 Z M284.1530762,88.8305664 L284.1530762,83.8286133 L292.1638184,83.8286133 L292.1638184,88.8305664 L291.2370605,88.8305664 L291.2370605,88.4243164 L285.079834,88.4243164 L285.079834,88.8305664 Z M285.5876465,95.7495117 L284.635498,95.7495117 L284.635498,89.3129883 L291.744873,89.3129883 L291.744873,94.2641602 C291.744873,95.1782227 291.3005371,95.6394882 290.4118652,95.6479492 C289.92099,95.6564102 289.2565918,95.6564102 288.4187012,95.6479492 C288.3764038,95.3771133 288.3171387,95.0512695 288.2409668,94.6704102 C288.9942322,94.7211914 289.6289978,94.746582 290.1452637,94.746582 C290.5769043,94.746582 290.7927246,94.5392227 290.7927246,94.1245117 L290.7927246,93.5151367 L285.5876465,93.5151367 Z M284.064209,92.8295898 C284.0895996,93.2696915 284.1192322,93.6336288 284.1530762,93.9213867 C283.0866699,94.6238632 282.2995605,95.1866837 281.791748,95.6098633 L281.1950684,94.7592773 C281.4828491,94.5561523 281.626709,94.175293 281.626709,93.6166992 L281.626709,88.6274414 L280.1921387,88.6274414 L280.1921387,87.7133789 L282.5915527,87.7133789 L282.5915527,93.8452148 C282.9893494,93.5913086 283.4802246,93.2527695 284.064209,92.8295898 Z M285.5876465,92.7280273 L290.7927246,92.7280273 L290.7927246,91.8139648 L285.5876465,91.8139648 Z M290.7927246,90.1254883 L285.5876465,90.1254883 L285.5876465,91.0268555 L290.7927246,91.0268555 Z M281.4489746,83.5493164 C282.371521,84.4972305 283.0401306,85.199707 283.454834,85.6567383 L282.604248,86.3930664 C282.0710449,85.6905899 281.4405212,84.9627304 280.7126465,84.2094727 Z M285.079834,87.6118164 L287.6950684,87.6118164 L287.6950684,86.5200195 L285.079834,86.5200195 Z M285.079834,84.6411133 L285.079834,85.7329102 L287.6950684,85.7329102 L287.6950684,84.6411133 Z M288.6218262,87.6118164 L291.2370605,87.6118164 L291.2370605,86.5200195 L288.6218262,86.5200195 Z M291.2370605,84.6411133 L288.6218262,84.6411133 L288.6218262,85.7329102 L291.2370605,85.7329102 Z M296.7023926,85.8217773 L295.7565918,85.8217773 L293.9221191,83.574707 L295.1599121,83.574707 Z M302.5612793,87.6118164 C303.2595215,87.1759415 304.0656738,86.9580078 304.9797363,86.9580078 C306.6724548,86.9580078 307.5187988,87.8466797 307.5187988,89.6240234 L307.5187988,94.1435547 L306.2873535,94.1435547 L306.2873535,93.0581055 L306.2556152,93.0581055 C305.7689819,93.8917618 305.0516968,94.3085938 304.1037598,94.3085938 C303.4224548,94.3085938 302.8807983,94.1245117 302.4787598,93.7563477 C302.0767517,93.3881836 301.8757324,92.8909531 301.8757324,92.2646484 C301.8757324,90.9527969 302.6522827,90.1889648 304.2053223,89.9731445 L306.2873535,89.6811523 C306.2873535,88.5343399 305.8134155,87.9609375 304.8654785,87.9609375 C304.0233765,87.9609375 303.2553101,88.2444687 302.5612793,88.8115234 Z M304.6433105,90.8427734 C304.0678101,90.9189453 303.6710815,91.0628281 303.453125,91.2744141 C303.235199,91.4860001 303.1262207,91.7822266 303.1262207,92.1630859 C303.1262207,92.4973984 303.2447205,92.7703476 303.4816895,92.9819336 C303.718689,93.1935196 304.0318298,93.2993164 304.4211426,93.2993164 C304.9628296,93.2993164 305.4092712,93.1088867 305.760498,92.7280273 C306.1117554,92.347168 306.2873535,91.8689804 306.2873535,91.293457 L306.2873535,90.6206055 Z M315.732666,94.1435547 L314.494873,94.1435547 L314.494873,90.1508789 C314.494873,88.7078476 313.9680176,87.9863281 312.9143066,87.9863281 C312.3684082,87.9863281 311.9198608,88.1894531 311.5686035,88.5957031 C311.2173767,89.0019531 311.041748,89.5161133 311.041748,90.1381836 L311.041748,94.1435547 L309.7976074,94.1435547 L309.7976074,87.1230469 L311.041748,87.1230469 L311.041748,88.284668 L311.0671387,88.284668 C311.5961304,87.4002304 312.3641968,86.9580078 313.3713379,86.9580078 C314.1415405,86.9580078 314.7276306,87.2045059 315.1296387,87.6975098 C315.5316772,88.1905136 315.732666,88.9088516 315.732666,89.8525391 Z M324.1433105,94.1435547 L322.8991699,94.1435547 L322.8991699,92.9755859 L322.8737793,92.9755859 C322.3617554,93.8642578 321.5661621,94.3085938 320.4870605,94.3085938 C319.5983887,94.3085938 318.8916931,93.9922714 318.3669434,93.3596191 C317.8422241,92.7269669 317.579834,91.8732071 317.579834,90.7983398 C317.579834,89.6388321 317.8760681,88.7089005 318.4685059,88.0085449 C319.0609741,87.3081894 319.8353882,86.9580078 320.791748,86.9580078 C321.7481384,86.9580078 322.4421387,87.3304062 322.8737793,88.0751953 L322.8991699,88.0751953 L322.8991699,83.7524414 L324.1433105,83.7524414 Z M322.9055176,89.9667969 C322.9055176,89.4039688 322.7203979,88.9331894 322.3500977,88.5544434 C321.9798279,88.1756973 321.5238647,87.9863281 320.9821777,87.9863281 C320.3220215,87.9863281 319.8015137,88.2328262 319.4206543,88.7258301 C319.0397949,89.2188339 318.8493652,89.890625 318.8493652,90.7412109 C318.8493652,91.524086 319.0324097,92.1429825 319.3984375,92.5979004 C319.7644958,93.0528183 320.2521973,93.2802734 320.8615723,93.2802734 C321.4624939,93.2802734 321.9533691,93.057045 322.3342285,92.6105957 C322.7150879,92.1641464 322.9055176,91.6087265 322.9055176,90.9443359 Z M336.6672363,97.3745117 L335.4230957,97.3745117 L335.4230957,92.9628906 L335.3977051,92.9628906 C334.9068298,93.8600235 334.1154785,94.3085938 333.0236816,94.3085938 C332.1392517,94.3085938 331.431488,93.9964981 330.9003906,93.3723145 C330.3693237,92.7481308 330.1037598,91.8901367 330.1037598,90.7983398 C330.1037598,89.6346054 330.395752,88.7036133 330.9797363,88.0053711 C331.5637207,87.3071289 332.3466187,86.9580078 333.3283691,86.9580078 C334.2763062,86.9580078 334.9660645,87.3304062 335.3977051,88.0751953 L335.4230957,88.0751953 L335.4230957,87.1230469 L336.6672363,87.1230469 Z M335.4230957,89.9921875 C335.4273376,89.4378281 335.2506409,88.9649277 334.8930664,88.5734863 C334.5354919,88.182045 334.0689392,87.9863281 333.4934082,87.9863281 C332.833252,87.9863281 332.3148804,88.2317734 331.9382324,88.7226563 C331.561615,89.2135391 331.373291,89.8948593 331.373291,90.7666016 C331.373291,91.5537109 331.5541992,92.1694336 331.9160156,92.6137695 C332.277832,93.0581055 332.7528687,93.2802734 333.3410645,93.2802734 C333.984314,93.2802734 334.4931641,93.059166 334.8676758,92.6169434 C335.2421875,92.1747208 335.4273376,91.6235352 335.4230957,90.9633789 Z M344.9318848,94.1435547 L343.6813965,94.1435547 L343.6813965,93.0390625 L343.6560059,93.0390625 C343.1862793,93.8854141 342.4647522,94.3085938 341.4914551,94.3085938 C339.8283691,94.3085938 338.9968262,93.3141251 338.9968262,91.3251953 L338.9968262,87.1230469 L340.2282715,87.1230469 L340.2282715,91.1411133 C340.2282715,92.5672226 340.7741699,93.2802734 341.8659668,93.2802734 C342.4076233,93.2802734 342.8456116,93.0803223 343.1799316,92.6804199 C343.5142212,92.2805176 343.681366,91.7758789 343.6813965,91.1665039 L343.6813965,87.1230469 L344.9318848,87.1230469 Z M353.107666,90.9506836 L348.1945801,90.9506836 C348.2157288,91.699707 348.4209595,92.2784042 348.8103027,92.6867676 C349.1996155,93.0951309 349.7434082,93.2993164 350.4416504,93.2993164 C351.2287598,93.2993164 351.9502563,93.0475235 352.6062012,92.5439453 L352.6062012,93.6547852 C351.9883423,94.0906601 351.1694946,94.3085938 350.1496582,94.3085938 C349.1340332,94.3085938 348.3416138,93.9869766 347.7724609,93.34375 C347.2032776,92.7005234 346.9187012,91.8076172 346.9187012,90.6650391 C346.9187012,89.5901718 347.2307739,88.7036133 347.8549805,88.0053711 C348.4791565,87.3071289 349.2546082,86.9580078 350.1813965,86.9580078 C351.0996704,86.9580078 351.8169556,87.2531738 352.333252,87.8435059 C352.8495178,88.4338379 353.107666,89.2600937 353.107666,90.3222656 Z M351.8635254,89.9541016 C351.8592834,89.3193359 351.7090454,88.8284531 351.4128418,88.4814453 C351.1166077,88.1344376 350.6997681,87.9609375 350.1623535,87.9609375 C349.6672363,87.9609375 349.238739,88.1450195 348.8769531,88.5131836 C348.5151367,88.8813477 348.2876587,89.3616562 348.1945801,89.9541016 Z M354.5930176,92.6264648 C355.2192993,93.0792618 355.8942871,93.3056641 356.6179199,93.3056641 C357.5869751,93.3056641 358.0715332,92.9882813 358.0715332,92.3535156 C358.0715332,92.0826797 357.9657288,91.8594589 357.7541504,91.6838379 C357.5425415,91.5082169 357.1130066,91.2998047 356.4655762,91.0585938 C355.6869202,90.7454453 355.1812134,90.435463 354.9484863,90.1286621 C354.7157288,89.8218613 354.5993347,89.4505234 354.5993652,89.0146484 C354.5993347,88.3925781 354.862793,87.8942871 355.3896484,87.5197754 C355.9165039,87.1452637 356.5650024,86.9580078 357.3352051,86.9580078 C357.9318848,86.9580078 358.4862366,87.0616837 358.998291,87.269043 L358.998291,88.46875 C358.4735413,88.1302109 357.8789673,87.9609375 357.2145996,87.9609375 C356.816803,87.9609375 356.4930725,88.0476913 356.2434082,88.2211914 C355.9937134,88.3946915 355.8688965,88.6232071 355.8688965,88.9067383 C355.8688965,89.1860352 355.9588013,89.4039688 356.1386719,89.5605469 C356.318512,89.7171249 356.7173462,89.918129 357.3352051,90.1635742 C358.1180725,90.4555664 358.6470337,90.7581406 358.9221191,91.0712891 C359.1971741,91.3844376 359.3347168,91.7716446 359.3347168,92.2329102 C359.3347168,92.8761368 359.0712891,93.3828964 358.5444336,93.7531738 C358.0175781,94.1234512 357.3352051,94.3085938 356.4973145,94.3085938 C355.7694397,94.3085938 355.1346741,94.1710587 354.5930176,93.8959961 Z M364.5524902,94.0737305 C364.2816467,94.2218399 363.9155884,94.2958984 363.4543457,94.2958984 C362.1975098,94.2958984 361.5690918,93.5997696 361.5690918,92.2075195 L361.5690918,88.1513672 L360.3630371,88.1513672 L360.3630371,87.1230469 L361.5690918,87.1230469 L361.5690918,85.4345703 L362.8068848,85.0410156 L362.8068848,87.1230469 L364.5524902,87.1230469 L364.5524902,88.1513672 L362.8068848,88.1513672 L362.8068848,91.9853516 C362.8068848,92.4466171 362.8851624,92.7766953 363.041748,92.9755859 C363.1983032,93.1744766 363.4585571,93.2739258 363.8225098,93.2739258 C364.1018066,93.2739258 364.3451233,93.1956406 364.5524902,93.0390625 Z M366.0187988,84.6474609 C366.0187988,84.4274063 366.0939026,84.2422714 366.2441406,84.092041 C366.3943481,83.9418106 366.5794983,83.8666992 366.7995605,83.8666992 C367.0238342,83.8666992 367.2131958,83.9407578 367.3676758,84.0888672 C367.5221252,84.2369766 367.5993652,84.4231796 367.5993652,84.6474609 C367.5993652,84.8675156 367.5221252,85.0505371 367.3676758,85.1965332 C367.2131958,85.3425293 367.0238342,85.4155273 366.7995605,85.4155273 C366.5752563,85.4155273 366.3890686,85.3425293 366.2409668,85.1965332 C366.0928345,85.0505371 366.0187988,84.8675156 366.0187988,84.6474609 Z M366.1647949,94.1435547 L366.1647949,87.1230469 L367.4089355,87.1230469 L367.4089355,94.1435547 Z M369.2624512,90.7094727 C369.2624512,89.5499649 369.5861816,88.6348495 370.2336426,87.9641113 C370.8811035,87.2933731 371.7591858,86.9580078 372.8679199,86.9580078 C373.9216003,86.9580078 374.7478638,87.2806778 375.3466797,87.9260254 C375.9454651,88.571373 376.244873,89.4632187 376.244873,90.6015625 C376.244873,91.710289 375.925354,92.6053085 375.286377,93.2866211 C374.6473694,93.9679337 373.7904358,94.3085938 372.7155762,94.3085938 C371.6660767,94.3085938 370.828186,93.9785156 370.2019043,93.3183594 C369.575592,92.6582031 369.2624512,91.7885742 369.2624512,90.7094727 Z M370.5319824,90.6713867 C370.5319824,91.4796524 370.736145,92.116539 371.1445313,92.5820313 C371.552887,93.0475235 372.1019592,93.2802734 372.791748,93.2802734 C373.502655,93.2802734 374.044342,93.0528183 374.416748,92.5979004 C374.7891235,92.1429825 374.9753418,91.4902344 374.9753418,90.6396484 C374.9753418,89.7848282 374.7891235,89.1289063 374.416748,88.671875 C374.044342,88.2148438 373.502655,87.9863281 372.791748,87.9863281 C372.0935059,87.9863281 371.5422974,88.2254257 371.1381836,88.7036133 C370.7340393,89.1818008 370.5319824,89.8377304 370.5319824,90.6713867 Z M384.1794434,94.1435547 L382.9416504,94.1435547 L382.9416504,90.1508789 C382.9416199,88.7078476 382.4147644,87.9863281 381.361084,87.9863281 C380.8151855,87.9863281 380.3666077,88.1894531 380.0153809,88.5957031 C379.6641235,89.0019531 379.4885254,89.5161133 379.4885254,90.1381836 L379.4885254,94.1435547 L378.2443848,94.1435547 L378.2443848,87.1230469 L379.4885254,87.1230469 L379.4885254,88.284668 L379.513916,88.284668 C380.0428772,87.4002304 380.8109436,86.9580078 381.8181152,86.9580078 C382.5882874,86.9580078 383.1743774,87.2045059 383.576416,87.6975098 C383.9784241,88.1905136 384.1794434,88.9088516 384.1794434,89.8525391 Z M392.2155762,90.9506836 L387.3024902,90.9506836 C387.3236389,91.699707 387.5288696,92.2784042 387.9182129,92.6867676 C388.3075256,93.0951309 388.8513184,93.2993164 389.5495605,93.2993164 C390.3366699,93.2993164 391.0581665,93.0475235 391.7141113,92.5439453 L391.7141113,93.6547852 C391.0962524,94.0906601 390.2774048,94.3085938 389.2575684,94.3085938 C388.2419434,94.3085938 387.4495239,93.9869766 386.8803711,93.34375 C386.3111877,92.7005234 386.0266113,91.8076172 386.0266113,90.6650391 C386.0266113,89.5901718 386.3386841,88.7036133 386.9628906,88.0053711 C387.5870667,87.3071289 388.3625183,86.9580078 389.2893066,86.9580078 C390.2075806,86.9580078 390.9248657,87.2531738 391.4411621,87.8435059 C391.957428,88.4338379 392.2155762,89.2600937 392.2155762,90.3222656 Z M390.9714355,89.9541016 C390.9671936,89.3193359 390.8169556,88.8284531 390.520752,88.4814453 C390.2245178,88.1344376 389.8076782,87.9609375 389.2702637,87.9609375 C388.7751465,87.9609375 388.3466492,88.1450195 387.9848633,88.5131836 C387.6230469,88.8813477 387.3955688,89.3616562 387.3024902,89.9541016 Z M400.1882324,94.1435547 L398.9440918,94.1435547 L398.9440918,92.9755859 L398.9187012,92.9755859 C398.4066467,93.8642578 397.611084,94.3085938 396.5319824,94.3085938 C395.6433105,94.3085938 394.9365845,93.9922714 394.4118652,93.3596191 C393.8871155,92.7269669 393.6247559,91.8732071 393.6247559,90.7983398 C393.6247559,89.6388321 393.9209595,88.7089005 394.5134277,88.0085449 C395.1058655,87.3081894 395.8802795,86.9580078 396.8366699,86.9580078 C397.7930298,86.9580078 398.4870605,87.3304062 398.9187012,88.0751953 L398.9440918,88.0751953 L398.9440918,83.7524414 L400.1882324,83.7524414 Z M398.9504395,89.9667969 C398.9504395,89.4039688 398.7652893,88.9331894 398.3950195,88.5544434 C398.0247192,88.1756973 397.5687561,87.9863281 397.0270996,87.9863281 C396.3669434,87.9863281 395.8464355,88.2328262 395.4655762,88.7258301 C395.0847168,89.2188339 394.8942871,89.890625 394.8942871,90.7412109 C394.8942871,91.524086 395.077301,92.1429825 395.4433594,92.5979004 C395.8093872,93.0528183 396.2971191,93.2802734 396.9064941,93.2802734 C397.5073853,93.2802734 397.998291,93.057045 398.3791504,92.6105957 C398.7600098,92.1641464 398.9504395,91.6087265 398.9504395,90.9443359 Z M408.6179199,96.3779297 C407.191803,94.7529297 406.4787598,92.7576523 406.4787598,90.3920898 C406.4787598,88.0265274 407.191803,85.9995117 408.6179199,84.3110352 L409.7160645,84.3110352 C408.2857056,86.0672226 407.5705566,88.090004 407.5705566,90.3793945 C407.5705566,92.6645508 408.2814941,94.6640625 409.7033691,96.3779297 Z M416.7492676,87.1230469 L413.9689941,94.1435547 L412.7121582,94.1435547 L410.0715332,87.1230469 L411.4299316,87.1230469 L413.1437988,92.1376953 C413.2834473,92.539711 413.3659668,92.8761368 413.3913574,93.1469727 L413.4230957,93.1469727 C413.4653931,92.7915039 413.5394592,92.4635391 413.6452637,92.1630859 L415.4416504,87.1230469 Z M417.7648926,93.4897461 C417.7648926,93.2612305 417.8431702,93.0686874 417.9997559,92.9121094 C418.156311,92.7555313 418.3509827,92.6772461 418.5837402,92.6772461 C418.8207092,92.6772461 419.0174866,92.7565918 419.1740723,92.9152832 C419.3306274,93.0739746 419.4089355,93.2654648 419.4089355,93.4897461 C419.4089355,93.7098007 419.3306274,93.8991699 419.1740723,94.0578613 C419.0174866,94.2165527 418.8186035,94.2958984 418.5773926,94.2958984 C418.344635,94.2958984 418.1510315,94.2165527 417.996582,94.0578613 C417.8421021,93.8991699 417.7648926,93.7098007 417.7648926,93.4897461 Z M420.3928223,96.3779297 C421.8189087,94.6682968 422.5319824,92.6687851 422.5319824,90.3793945 C422.5319824,88.0857773 421.8146667,86.0629883 420.380127,84.3110352 L421.4846191,84.3110352 C422.9149475,85.9868164 423.630127,88.0138321 423.630127,90.3920898 C423.630127,92.7703476 422.9149475,94.765625 421.4846191,96.3779297 Z M439.8864746,94.1435547 L438.642334,94.1435547 L438.642334,90.112793 C438.642334,89.3510742 438.5238342,88.8062363 438.2868652,88.4782715 C438.0498657,88.1503067 437.660553,87.9863281 437.1188965,87.9863281 C436.6618652,87.9863281 436.2704163,88.2000351 435.9445801,88.6274414 C435.6187134,89.0548477 435.4558105,89.5605469 435.4558105,90.1445313 L435.4558105,94.1435547 L434.2116699,94.1435547 L434.2116699,89.9858398 C434.2116394,88.652832 433.6974792,87.9863281 432.6691895,87.9863281 C432.1952209,87.9863281 431.8027344,88.1894531 431.4916992,88.5957031 C431.1806641,89.0019531 431.0251465,89.5203476 431.0251465,90.1508789 L431.0251465,94.1435547 L429.7810059,94.1435547 L429.7810059,87.1230469 L431.0251465,87.1230469 L431.0251465,88.2338867 L431.0505371,88.2338867 C431.5498657,87.3833008 432.2798462,86.9580078 433.2404785,86.9580078 C433.7101746,86.9580078 434.1249084,87.0870743 434.4846191,87.3452148 C434.8442993,87.6033554 435.0939941,87.9524765 435.2336426,88.3925781 C435.7541504,87.4361954 436.5327759,86.9580078 437.5695801,86.9580078 C439.1141663,86.9580078 439.8864441,87.9101563 439.8864746,89.8144531 Z M441.8605957,90.7094727 C441.8605957,89.5499649 442.1843262,88.6348495 442.8317871,87.9641113 C443.479248,87.2933731 444.3573303,86.9580078 445.4660645,86.9580078 C446.5197449,86.9580078 447.3460083,87.2806778 447.9448242,87.9260254 C448.5436096,88.571373 448.8430176,89.4632187 448.8430176,90.6015625 C448.8430176,91.710289 448.5234985,92.6053085 447.8845215,93.2866211 C447.2455139,93.9679337 446.3885803,94.3085938 445.3137207,94.3085938 C444.2642212,94.3085938 443.4263306,93.9785156 442.8000488,93.3183594 C442.1737366,92.6582031 441.8605957,91.7885742 441.8605957,90.7094727 Z M443.130127,90.6713867 C443.130127,91.4796524 443.3342896,92.116539 443.7426758,92.5820313 C444.1510315,93.0475235 444.7001038,93.2802734 445.3898926,93.2802734 C446.1007996,93.2802734 446.6424866,93.0528183 447.0148926,92.5979004 C447.3872681,92.1429825 447.5734863,91.4902344 447.5734863,90.6396484 C447.5734863,89.7848282 447.3872681,89.1289063 447.0148926,88.671875 C446.6424866,88.2148438 446.1007996,87.9863281 445.3898926,87.9863281 C444.6916504,87.9863281 444.1404419,88.2254257 443.7363281,88.7036133 C443.3321838,89.1818008 443.130127,89.8377304 443.130127,90.6713867 Z M454.6066895,88.3544922 C454.3993225,88.2063828 454.113678,88.1323242 453.7497559,88.1323242 C453.267334,88.1323242 452.8695374,88.357666 452.5563965,88.8083496 C452.2432251,89.2590332 452.0866699,89.8525391 452.0866699,90.5888672 L452.0866699,94.1435547 L450.8425293,94.1435547 L450.8425293,87.1230469 L452.0866699,87.1230469 L452.0866699,88.5512695 L452.1120605,88.5512695 C452.4674988,87.5187149 453.0811157,87.0024414 453.9528809,87.0024414 C454.2363892,87.0024414 454.4543457,87.0341797 454.6066895,87.0976563 Z M461.6716309,90.9506836 L456.7585449,90.9506836 C456.7796936,91.699707 456.9849243,92.2784042 457.3742676,92.6867676 C457.7635803,93.0951309 458.307373,93.2993164 459.0056152,93.2993164 C459.7927246,93.2993164 460.5142212,93.0475235 461.170166,92.5439453 L461.170166,93.6547852 C460.5523071,94.0906601 459.7334595,94.3085938 458.713623,94.3085938 C457.697998,94.3085938 456.9055786,93.9869766 456.3364258,93.34375 C455.7672424,92.7005234 455.482666,91.8076172 455.482666,90.6650391 C455.482666,89.5901718 455.7947388,88.7036133 456.4189453,88.0053711 C457.0431213,87.3071289 457.818573,86.9580078 458.7453613,86.9580078 C459.6636353,86.9580078 460.3809204,87.2531738 460.8972168,87.8435059 C461.4134827,88.4338379 461.6716309,89.2600937 461.6716309,90.3222656 Z M460.4274902,89.9541016 C460.4232483,89.3193359 460.2730103,88.8284531 459.9768066,88.4814453 C459.6805725,88.1344376 459.2637329,87.9609375 458.7263184,87.9609375 C458.2312012,87.9609375 457.8027039,88.1450195 457.440918,88.5131836 C457.0791016,88.8813477 456.8516235,89.3616562 456.7585449,89.9541016 Z M470.3806152,96.3779297 L467.7844238,96.3779297 L467.7844238,84.3110352 L470.3806152,84.3110352 L470.3806152,85.1933594 L468.8762207,85.1933594 L468.8762207,95.5019531 L470.3806152,95.5019531 Z M472.1516113,87.6118164 C472.8498535,87.1759415 473.6560059,86.9580078 474.5700684,86.9580078 C476.2627563,86.9580078 477.1091309,87.8466797 477.1091309,89.6240234 L477.1091309,94.1435547 L475.8776855,94.1435547 L475.8776855,93.0581055 L475.8459473,93.0581055 C475.3592834,93.8917618 474.6419983,94.3085938 473.6940918,94.3085938 C473.0127563,94.3085938 472.4710999,94.1245117 472.0690918,93.7563477 C471.6670532,93.3881836 471.4660645,92.8909531 471.4660645,92.2646484 C471.4660645,90.9527969 472.2425842,90.1889648 473.7956543,89.9731445 L475.8776855,89.6811523 C475.8776855,88.5343399 475.403717,87.9609375 474.4558105,87.9609375 C473.613678,87.9609375 472.8456116,88.2444687 472.1516113,88.8115234 Z M474.2336426,90.8427734 C473.6581116,90.9189453 473.2613831,91.0628281 473.043457,91.2744141 C472.8255005,91.4860001 472.7165527,91.7822266 472.7165527,92.1630859 C472.7165527,92.4973984 472.835022,92.7703476 473.0720215,92.9819336 C473.3089905,93.1935196 473.6221313,93.2993164 474.0114746,93.2993164 C474.5531311,93.2993164 474.9995728,93.1088867 475.3508301,92.7280273 C475.7020569,92.347168 475.8776855,91.8689804 475.8776855,91.293457 L475.8776855,90.6206055 Z M482.7585449,94.0737305 C482.4877014,94.2218399 482.1216431,94.2958984 481.6604004,94.2958984 C480.4035645,94.2958984 479.7751465,93.5997696 479.7751465,92.2075195 L479.7751465,88.1513672 L478.5690918,88.1513672 L478.5690918,87.1230469 L479.7751465,87.1230469 L479.7751465,85.4345703 L481.0129395,85.0410156 L481.0129395,87.1230469 L482.7585449,87.1230469 L482.7585449,88.1513672 L481.0129395,88.1513672 L481.0129395,91.9853516 C481.0129395,92.4466171 481.091217,92.7766953 481.2478027,92.9755859 C481.4043579,93.1744766 481.6646118,93.2739258 482.0285645,93.2739258 C482.3078613,93.2739258 482.551178,93.1956406 482.7585449,93.0390625 Z M488.3317871,94.1435547 L488.3317871,83.7524414 L489.5759277,83.7524414 L489.5759277,94.1435547 Z M497.6184082,90.9506836 L492.7053223,90.9506836 C492.7264709,91.699707 492.9317017,92.2784042 493.3210449,92.6867676 C493.7103577,93.0951309 494.2541504,93.2993164 494.9523926,93.2993164 C495.739502,93.2993164 496.4609985,93.0475235 497.1169434,92.5439453 L497.1169434,93.6547852 C496.4990845,94.0906601 495.6802368,94.3085938 494.6604004,94.3085938 C493.6447754,94.3085938 492.852356,93.9869766 492.2832031,93.34375 C491.7140198,92.7005234 491.4294434,91.8076172 491.4294434,90.6650391 C491.4294434,89.5901718 491.7415161,88.7036133 492.3657227,88.0053711 C492.9898987,87.3071289 493.7653503,86.9580078 494.6921387,86.9580078 C495.6104126,86.9580078 496.3276978,87.2531738 496.8439941,87.8435059 C497.36026,88.4338379 497.6184082,89.2600937 497.6184082,90.3222656 Z M496.3742676,89.9541016 C496.3700256,89.3193359 496.2197876,88.8284531 495.923584,88.4814453 C495.6273499,88.1344376 495.2105103,87.9609375 494.6730957,87.9609375 C494.1779785,87.9609375 493.7494812,88.1450195 493.3876953,88.5131836 C493.0258789,88.8813477 492.7984009,89.3616562 492.7053223,89.9541016 Z M505.432373,94.1435547 L504.1945801,94.1435547 L504.1945801,90.1508789 C504.1945496,88.7078476 503.6676941,87.9863281 502.6140137,87.9863281 C502.0681152,87.9863281 501.6195374,88.1894531 501.2683105,88.5957031 C500.9170532,89.0019531 500.7414551,89.5161133 500.7414551,90.1381836 L500.7414551,94.1435547 L499.4973145,94.1435547 L499.4973145,87.1230469 L500.7414551,87.1230469 L500.7414551,88.284668 L500.7668457,88.284668 C501.2958069,87.4002304 502.0638733,86.9580078 503.0710449,86.9580078 C503.841217,86.9580078 504.4273071,87.2045059 504.8293457,87.6975098 C505.2313538,88.1905136 505.432373,88.9088516 505.432373,89.8525391 Z M513.8430176,93.5532227 C513.8430176,96.1515274 512.5819092,97.4506836 510.0598145,97.4506836 C509.1880493,97.4506836 508.4305725,97.2877579 507.7873535,96.9619141 L507.7873535,95.762207 C508.5702209,96.198082 509.3213501,96.4160156 510.0407715,96.4160156 C511.7461548,96.4160156 512.598877,95.5188828 512.598877,93.7246094 L512.598877,92.9819336 L512.5734863,92.9819336 C512.0402832,93.8663712 511.2446899,94.3085938 510.1867676,94.3085938 C509.3065491,94.3085938 508.6019592,93.9933243 508.072998,93.362793 C507.5440063,92.7322617 507.279541,91.8964844 507.279541,90.8554688 C507.279541,89.6578751 507.5715332,88.7089005 508.1555176,88.0085449 C508.739502,87.3081894 509.5181274,86.9580078 510.4914551,86.9580078 C511.4266663,86.9580078 512.1206665,87.3304062 512.5734863,88.0751953 L512.598877,88.0751953 L512.598877,87.1230469 L513.8430176,87.1230469 Z M512.598877,89.9667969 C512.6030884,89.4251328 512.4211426,88.9596329 512.0529785,88.5703125 C511.6848145,88.1809921 511.2319946,87.9863281 510.6945801,87.9863281 C510.0174866,87.9863281 509.4906311,88.2349472 509.1140137,88.7321777 C508.7373657,89.2294083 508.5490723,89.9117813 508.5490723,90.7792969 C508.5490723,91.524086 508.7310181,92.1271133 509.0949707,92.5883789 C509.4588928,93.0496445 509.9413147,93.2802734 510.5422363,93.2802734 C511.1473694,93.2802734 511.6424866,93.0602188 512.0275879,92.6201172 C512.4126587,92.1800156 512.6030884,91.6214218 512.598877,90.9443359 Z M519.6828613,94.0737305 C519.4119873,94.2218399 519.0459595,94.2958984 518.5847168,94.2958984 C517.3278809,94.2958984 516.6994629,93.5997696 516.6994629,92.2075195 L516.6994629,88.1513672 L515.4934082,88.1513672 L515.4934082,87.1230469 L516.6994629,87.1230469 L516.6994629,85.4345703 L517.9372559,85.0410156 L517.9372559,87.1230469 L519.6828613,87.1230469 L519.6828613,88.1513672 L517.9372559,88.1513672 L517.9372559,91.9853516 C517.9372559,92.4466171 518.0155029,92.7766953 518.1721191,92.9755859 C518.3286743,93.1744766 518.5889282,93.2739258 518.9528809,93.2739258 C519.2321777,93.2739258 519.4754639,93.1956406 519.6828613,93.0390625 Z M527.2302246,94.1435547 L525.9924316,94.1435547 L525.9924316,90.1064453 C525.9924316,88.6930313 525.4676514,87.9863281 524.4182129,87.9863281 C523.8807373,87.9863281 523.4343262,88.192627 523.0788574,88.6052246 C522.7233887,89.0178223 522.5456543,89.5372696 522.5456543,90.1635742 L522.5456543,94.1435547 L521.3015137,94.1435547 L521.3015137,83.7524414 L522.5456543,83.7524414 L522.5456543,88.2783203 L522.5710449,88.2783203 C523.1084595,87.3981094 523.8723145,86.9580078 524.8625488,86.9580078 C526.440979,86.9580078 527.2302246,87.9122696 527.2302246,89.8208008 Z M531.4133301,96.3779297 L528.810791,96.3779297 L528.810791,95.5019531 L530.3215332,95.5019531 L530.3215332,85.1933594 L528.810791,85.1933594 L528.810791,84.3110352 L531.4133301,84.3110352 Z" style="fill:rgb(0,0,0);stroke:none" clip-path="url(#clip27)" />
<clipPath id="clip28"><path d="M263,107 L736,107 L736,138 L263,138 Z M265,109 L265,135 L473,135 L473,109 Z" /></clipPath>
<path d="M486,136 C488.4444275,136 492.111084,136 497,136" style="fill:none;stroke:rgb(85,142,213)" clip-path="url(#clip28)" />
<clipPath id="clip29"><path d="M262,106 L737,106 L737,139 L262,139 L262,106 Z" /></clipPath>
<path d="M473,136 L486,136" style="fill:none;stroke:rgb(85,142,213)" clip-path="url(#clip29)" />
<clipPath id="clip30"><path d="M262,106 L477,106 L477,139 L262,139 L262,106 Z" /></clipPath>
<path d="M265,136 L473,136 Z" style="fill:none;stroke:rgb(85,142,213);stroke-width:3" clip-path="url(#clip30)" />
<clipPath id="clip31"><path d="M274,111 L465,111 L465,134 L274,134 L274,111 Z" /></clipPath>
<path d="M279.3710938,117.9931641 L278.425293,117.9931641 L276.5908203,115.7460938 L277.8286133,115.7460938 Z M280.2089844,124.1757813 L282.5957031,124.1757813 L282.5957031,119.046875 C285.481781,119.0045547 288.0589294,118.8225861 290.3271484,118.5009766 L290.6699219,119.4785156 C288.765625,119.673172 286.4042969,119.8255157 283.5859375,119.9355469 L283.5859375,121.2431641 L291.9521484,121.2431641 L291.9521484,122.1318359 L288.9560547,122.1318359 L288.9560547,124.1757813 L292.8154297,124.1757813 L292.8154297,125.0898438 L280.2089844,125.0898438 Z M280.7548828,116.9140625 L286.2773438,116.9140625 C286.0827026,116.5205078 285.8753357,116.1396484 285.6552734,115.7714844 L286.5439453,115.3779297 C286.8317261,115.8603516 287.1194763,116.3723907 287.4072266,116.9140625 L292.3076172,116.9140625 L292.3076172,119.3007813 L291.3427734,119.3007813 L291.3427734,117.8027344 L281.7197266,117.8027344 L281.7197266,119.3007813 L280.7548828,119.3007813 Z M283.5859375,124.1757813 L287.9912109,124.1757813 L287.9912109,122.1318359 L283.5859375,122.1318359 Z M287.6230469,126.1689453 L288.0927734,125.34375 C289.8024292,125.961586 291.2835388,126.5371094 292.5361328,127.0703125 L291.9775391,128.0605469 C290.4964294,127.3496094 289.0449219,126.7190704 287.6230469,126.1689453 Z M284.6015625,125.3056641 L285.1982422,126.1435547 C283.9033203,126.8121719 282.4814453,127.4596329 280.9326172,128.0859375 C280.7887573,127.8151016 280.6194763,127.5146484 280.4248047,127.1845703 C281.8128357,126.6598282 283.2050781,126.0335236 284.6015625,125.3056641 Z M296.706543,117.9931641 L295.7607422,117.9931641 L293.9262695,115.7460938 L295.1640625,115.7460938 Z M302.5654297,119.7832031 C303.2636719,119.3473282 304.0698242,119.1293945 304.9838867,119.1293945 C306.6766052,119.1293945 307.5229492,120.0180664 307.5229492,121.7954102 L307.5229492,126.3149414 L306.2915039,126.3149414 L306.2915039,125.2294922 L306.2597656,125.2294922 C305.7731323,126.0631485 305.0558472,126.4799805 304.1079102,126.4799805 C303.4266052,126.4799805 302.8849487,126.2958984 302.4829102,125.9277344 C302.0809021,125.5595703 301.8798828,125.0623322 301.8798828,124.4360352 C301.8798828,123.1241837 302.6564331,122.3603516 304.2094727,122.1445313 L306.2915039,121.8525391 C306.2915039,120.7057266 305.8175659,120.1323242 304.8696289,120.1323242 C304.0275269,120.1323242 303.2594604,120.4158478 302.5654297,120.9829102 Z M304.6474609,123.0141602 C304.0719604,123.090332 303.6752319,123.2342072 303.4572754,123.4458008 C303.2393494,123.6573868 303.1303711,123.9536133 303.1303711,124.3344727 C303.1303711,124.6687775 303.2488708,124.9417267 303.4858398,125.1533203 C303.7228394,125.3649063 304.0359802,125.4707031 304.425293,125.4707031 C304.96698,125.4707031 305.4134216,125.2802734 305.7646484,124.8994141 C306.1159058,124.5185547 306.2915039,124.0403595 306.2915039,123.4648438 L306.2915039,122.7919922 Z M315.7368164,126.3149414 L314.4990234,126.3149414 L314.4990234,122.3222656 C314.4990234,120.8792267 313.972168,120.1577148 312.918457,120.1577148 C312.3725586,120.1577148 311.9240112,120.3608398 311.5727539,120.7670898 C311.2215271,121.1733398 311.0458984,121.6875 311.0458984,122.3095703 L311.0458984,126.3149414 L309.8017578,126.3149414 L309.8017578,119.2944336 L311.0458984,119.2944336 L311.0458984,120.4560547 L311.0712891,120.4560547 C311.6002808,119.5716095 312.3683472,119.1293945 313.3754883,119.1293945 C314.1456909,119.1293945 314.731781,119.3758926 315.1337891,119.8688965 C315.5358276,120.3618927 315.7368164,121.0802383 315.7368164,122.0239258 Z M317.5839844,122.8808594 C317.5839844,121.7213516 317.9077148,120.8062286 318.5551758,120.135498 C319.2026367,119.4647598 320.0807495,119.1293945 321.1894531,119.1293945 C322.2431641,119.1293945 323.0694275,119.4520645 323.6682129,120.0974121 C324.2670288,120.7427521 324.5664063,121.6345978 324.5664063,122.7729492 C324.5664063,123.8816681 324.2469177,124.7766876 323.6079102,125.4580078 C322.9689331,126.1393204 322.1119995,126.4799805 321.0371094,126.4799805 C319.9876404,126.4799805 319.1497498,126.1499023 318.5234375,125.4897461 C317.8971558,124.8295898 317.5839844,123.9599609 317.5839844,122.8808594 Z M318.8535156,122.8427734 C318.8535156,123.6510391 319.0577087,124.2879181 319.4660645,124.753418 C319.8744507,125.2189102 320.4235229,125.4516602 321.1132813,125.4516602 C321.8242188,125.4516602 322.3659058,125.2241974 322.7382813,124.7692871 C323.1106873,124.3143692 323.296875,123.6616211 323.296875,122.8110352 C323.296875,121.9562149 323.1106873,121.300293 322.7382813,120.8432617 C322.3659058,120.3862305 321.8242188,120.1577148 321.1132813,120.1577148 C320.4150391,120.1577148 319.8638611,120.3968048 319.4597168,120.875 C319.055603,121.3531876 318.8535156,122.0091095 318.8535156,122.8427734 Z M329.9365234,126.2451172 C329.6657104,126.3932266 329.2996521,126.4672852 328.8383789,126.4672852 C327.581543,126.4672852 326.953125,125.7711563 326.953125,124.3789063 L326.953125,120.3227539 L325.7470703,120.3227539 L325.7470703,119.2944336 L326.953125,119.2944336 L326.953125,117.605957 L328.190918,117.2124023 L328.190918,119.2944336 L329.9365234,119.2944336 L329.9365234,120.3227539 L328.190918,120.3227539 L328.190918,124.1567383 C328.190918,124.6179962 328.2692261,124.9480743 328.4257813,125.1469727 C328.5823669,125.3458633 328.8426208,125.4453125 329.206543,125.4453125 C329.4858398,125.4453125 329.729187,125.3670197 329.9365234,125.2104492 Z M337.4838867,126.3149414 L336.2460938,126.3149414 L336.2460938,122.277832 C336.2460938,120.864418 335.721344,120.1577148 334.671875,120.1577148 C334.1344604,120.1577148 333.6879883,120.3640137 333.3325195,120.7766113 C332.9770508,121.189209 332.7993164,121.7086563 332.7993164,122.3349609 L332.7993164,126.3149414 L331.5551758,126.3149414 L331.5551758,115.9238281 L332.7993164,115.9238281 L332.7993164,120.449707 L332.824707,120.449707 C333.3621521,119.5694962 334.1259766,119.1293945 335.1162109,119.1293945 C336.6946716,119.1293945 337.4838867,120.0836563 337.4838867,121.9921875 Z M345.5200195,123.1220703 L340.6069336,123.1220703 C340.6280823,123.8710938 340.833313,124.4497833 341.2226563,124.8581543 C341.611969,125.2665176 342.1557617,125.4707031 342.8540039,125.4707031 C343.6411133,125.4707031 344.3626099,125.2189102 345.0185547,124.715332 L345.0185547,125.8261719 C344.4006958,126.2620392 343.5818481,126.4799805 342.5620117,126.4799805 C341.5463867,126.4799805 340.7539673,126.1583633 340.1848145,125.5151367 C339.6156311,124.8719025 339.3310547,123.9790039 339.3310547,122.8364258 C339.3310547,121.7615509 339.6431274,120.875 340.267334,120.1767578 C340.89151,119.4785156 341.6669617,119.1293945 342.59375,119.1293945 C343.5120239,119.1293945 344.2293091,119.4245605 344.7456055,120.0148926 C345.2618713,120.6052246 345.5200195,121.4314728 345.5200195,122.4936523 Z M344.2758789,122.1254883 C344.271637,121.4907227 344.1213989,120.9998322 343.8251953,120.652832 C343.5289612,120.3058243 343.1121216,120.1323242 342.574707,120.1323242 C342.0795898,120.1323242 341.6510925,120.3164063 341.2893066,120.6845703 C340.9274902,121.0527344 340.7000122,121.5330353 340.6069336,122.1254883 Z M351.1630859,120.5258789 C350.955719,120.3777618 350.6700745,120.3037109 350.3061523,120.3037109 C349.8237305,120.3037109 349.4259338,120.5290527 349.112793,120.9797363 C348.7996216,121.4304199 348.6430664,122.0239258 348.6430664,122.7602539 L348.6430664,126.3149414 L347.3989258,126.3149414 L347.3989258,119.2944336 L348.6430664,119.2944336 L348.6430664,120.7226563 L348.668457,120.7226563 C349.0238953,119.6901016 349.6375122,119.1738281 350.5092773,119.1738281 C350.7927856,119.1738281 351.0107422,119.2055664 351.1630859,119.269043 Z M360.0688477,116.9838867 C359.8360901,116.8611603 359.5842896,116.7998047 359.3134766,116.7998047 C358.5348206,116.7998047 358.1455078,117.2822266 358.1455078,118.2470703 L358.1455078,119.2944336 L359.7895508,119.2944336 L359.7895508,120.3227539 L358.1455078,120.3227539 L358.1455078,126.3149414 L356.9140625,126.3149414 L356.9140625,120.3227539 L355.7143555,120.3227539 L355.7143555,119.2944336 L356.9140625,119.2944336 L356.9140625,118.1899414 C356.9140625,117.4366837 357.1309204,116.8452911 357.5646973,116.4157715 C357.9984436,115.9862442 358.5496216,115.7714844 359.2182617,115.7714844 C359.5737305,115.7714844 359.8572388,115.8116837 360.0688477,115.8920898 Z M360.9575195,116.8188477 C360.9575195,116.598793 361.0326233,116.4136505 361.1828613,116.2634277 C361.3330688,116.1131973 361.518219,116.0380859 361.7382813,116.0380859 C361.9625549,116.0380859 362.1519165,116.1121368 362.3063965,116.2602539 C362.4608459,116.4083633 362.5380859,116.5945587 362.5380859,116.8188477 C362.5380859,117.0388947 362.4608459,117.2219238 362.3063965,117.3679199 C362.1519165,117.513916 361.9625549,117.5869141 361.7382813,117.5869141 C361.5139771,117.5869141 361.3277893,117.513916 361.1796875,117.3679199 C361.0315552,117.2219238 360.9575195,117.0388947 360.9575195,116.8188477 Z M361.1035156,126.3149414 L361.1035156,119.2944336 L362.3476563,119.2944336 L362.3476563,126.3149414 Z M368.2700195,116.9838867 C368.037262,116.8611603 367.7854614,116.7998047 367.5146484,116.7998047 C366.7359924,116.7998047 366.3466797,117.2822266 366.3466797,118.2470703 L366.3466797,119.2944336 L367.9907227,119.2944336 L367.9907227,120.3227539 L366.3466797,120.3227539 L366.3466797,126.3149414 L365.1152344,126.3149414 L365.1152344,120.3227539 L363.9155273,120.3227539 L363.9155273,119.2944336 L365.1152344,119.2944336 L365.1152344,118.1899414 C365.1152344,117.4366837 365.3320923,116.8452911 365.7658691,116.4157715 C366.1996155,115.9862442 366.7507935,115.7714844 367.4194336,115.7714844 C367.7749023,115.7714844 368.0584106,115.8116837 368.2700195,115.8920898 Z M372.6816406,126.2451172 C372.4107971,126.3932266 372.0447388,126.4672852 371.5834961,126.4672852 C370.3266602,126.4672852 369.6982422,125.7711563 369.6982422,124.3789063 L369.6982422,120.3227539 L368.4921875,120.3227539 L368.4921875,119.2944336 L369.6982422,119.2944336 L369.6982422,117.605957 L370.9360352,117.2124023 L370.9360352,119.2944336 L372.6816406,119.2944336 L372.6816406,120.3227539 L370.9360352,120.3227539 L370.9360352,124.1567383 C370.9360352,124.6179962 371.0143127,124.9480743 371.1708984,125.1469727 C371.3274536,125.3458633 371.5877075,125.4453125 371.9516602,125.4453125 C372.230957,125.4453125 372.4742737,125.3670197 372.6816406,125.2104492 Z M380.0195313,123.1220703 L375.1064453,123.1220703 C375.127594,123.8710938 375.3328247,124.4497833 375.722168,124.8581543 C376.1114807,125.2665176 376.6552734,125.4707031 377.3535156,125.4707031 C378.140625,125.4707031 378.8621216,125.2189102 379.5180664,124.715332 L379.5180664,125.8261719 C378.9002075,126.2620392 378.0813599,126.4799805 377.0615234,126.4799805 C376.0458984,126.4799805 375.253479,126.1583633 374.6843262,125.5151367 C374.1151428,124.8719025 373.8305664,123.9790039 373.8305664,122.8364258 C373.8305664,121.7615509 374.1426392,120.875 374.7668457,120.1767578 C375.3910217,119.4785156 376.1664734,119.1293945 377.0932617,119.1293945 C378.0115356,119.1293945 378.7288208,119.4245605 379.2451172,120.0148926 C379.7613831,120.6052246 380.0195313,121.4314728 380.0195313,122.4936523 Z M378.7753906,122.1254883 C378.7711487,121.4907227 378.6209106,120.9998322 378.324707,120.652832 C378.0284729,120.3058243 377.6116333,120.1323242 377.0742188,120.1323242 C376.5791016,120.1323242 376.1506042,120.3164063 375.7888184,120.6845703 C375.427002,121.0527344 375.1995239,121.5330353 375.1064453,122.1254883 Z M387.6176758,123.1220703 L382.7045898,123.1220703 C382.7257385,123.8710938 382.9309692,124.4497833 383.3203125,124.8581543 C383.7096252,125.2665176 384.253418,125.4707031 384.9516602,125.4707031 C385.7387695,125.4707031 386.4602661,125.2189102 387.1162109,124.715332 L387.1162109,125.8261719 C386.4983521,126.2620392 385.6795044,126.4799805 384.659668,126.4799805 C383.644043,126.4799805 382.8516235,126.1583633 382.2824707,125.5151367 C381.7132874,124.8719025 381.4287109,123.9790039 381.4287109,122.8364258 C381.4287109,121.7615509 381.7407837,120.875 382.3649902,120.1767578 C382.9891663,119.4785156 383.7646179,119.1293945 384.6914063,119.1293945 C385.6096802,119.1293945 386.3269653,119.4245605 386.8432617,120.0148926 C387.3595276,120.6052246 387.6176758,121.4314728 387.6176758,122.4936523 Z M386.3735352,122.1254883 C386.3692932,121.4907227 386.2190552,120.9998322 385.9228516,120.652832 C385.6266174,120.3058243 385.2097778,120.1323242 384.6723633,120.1323242 C384.1772461,120.1323242 383.7487488,120.3164063 383.3869629,120.6845703 C383.0251465,121.0527344 382.7976685,121.5330353 382.7045898,122.1254883 Z M395.4316406,126.3149414 L394.1938477,126.3149414 L394.1938477,122.3222656 C394.1938171,120.8792267 393.6669617,120.1577148 392.6132813,120.1577148 C392.0673828,120.1577148 391.6188049,120.3608398 391.2675781,120.7670898 C390.9163208,121.1733398 390.7407227,121.6875 390.7407227,122.3095703 L390.7407227,126.3149414 L389.496582,126.3149414 L389.496582,119.2944336 L390.7407227,119.2944336 L390.7407227,120.4560547 L390.7661133,120.4560547 C391.2950745,119.5716095 392.0631409,119.1293945 393.0703125,119.1293945 C393.8404846,119.1293945 394.4265747,119.3758926 394.8286133,119.8688965 C395.2306213,120.3618927 395.4316406,121.0802383 395.4316406,122.0239258 Z M401.2397461,122.8808594 C401.2397461,121.7213516 401.5634766,120.8062286 402.2109375,120.135498 C402.8583984,119.4647598 403.7364807,119.1293945 404.8452148,119.1293945 C405.8988953,119.1293945 406.7251587,119.4520645 407.3239746,120.0974121 C407.92276,120.7427521 408.222168,121.6345978 408.222168,122.7729492 C408.222168,123.8816681 407.9026489,124.7766876 407.2636719,125.4580078 C406.6246643,126.1393204 405.7677307,126.4799805 404.6928711,126.4799805 C403.6433716,126.4799805 402.805481,126.1499023 402.1791992,125.4897461 C401.552887,124.8295898 401.2397461,123.9599609 401.2397461,122.8808594 Z M402.5092773,122.8427734 C402.5092773,123.6510391 402.7134399,124.2879181 403.1218262,124.753418 C403.5301819,125.2189102 404.0792542,125.4516602 404.769043,125.4516602 C405.47995,125.4516602 406.021637,125.2241974 406.394043,124.7692871 C406.7664185,124.3143692 406.9526367,123.6616211 406.9526367,122.8110352 C406.9526367,121.9562149 406.7664185,121.300293 406.394043,120.8432617 C406.021637,120.3862305 405.47995,120.1577148 404.769043,120.1577148 C404.0708008,120.1577148 403.5195923,120.3968048 403.1154785,120.875 C402.7113342,121.3531876 402.5092773,122.0091095 402.5092773,122.8427734 Z M413.9858398,120.5258789 C413.7784729,120.3777618 413.4928284,120.3037109 413.1289063,120.3037109 C412.6464844,120.3037109 412.2486877,120.5290527 411.9355469,120.9797363 C411.6223755,121.4304199 411.4658203,122.0239258 411.4658203,122.7602539 L411.4658203,126.3149414 L410.2216797,126.3149414 L410.2216797,119.2944336 L411.4658203,119.2944336 L411.4658203,120.7226563 L411.4912109,120.7226563 C411.8466492,119.6901016 412.4602661,119.1738281 413.3320313,119.1738281 C413.6155396,119.1738281 413.8334961,119.2055664 413.9858398,119.269043 Z M422.6630859,126.2451172 C422.3922424,126.3932266 422.0261841,126.4672852 421.5649414,126.4672852 C420.3081055,126.4672852 419.6796875,125.7711563 419.6796875,124.3789063 L419.6796875,120.3227539 L418.4736328,120.3227539 L418.4736328,119.2944336 L419.6796875,119.2944336 L419.6796875,117.605957 L420.9174805,117.2124023 L420.9174805,119.2944336 L422.6630859,119.2944336 L422.6630859,120.3227539 L420.9174805,120.3227539 L420.9174805,124.1567383 C420.9174805,124.6179962 420.9957581,124.9480743 421.1523438,125.1469727 C421.3088989,125.3458633 421.5691528,125.4453125 421.9331055,125.4453125 C422.2124023,125.4453125 422.455719,125.3670197 422.6630859,125.2104492 Z M433.2763672,119.2944336 L431.1816406,126.3149414 L429.8867188,126.3149414 L428.4902344,121.3891602 C428.4309692,121.1775665 428.3928833,120.9532852 428.3759766,120.7163086 L428.3505859,120.7163086 C428.3378601,120.894043 428.2892151,121.11409 428.2045898,121.3764648 L426.6938477,126.3149414 L425.4370117,126.3149414 L423.3295898,119.2944336 L424.6245117,119.2944336 L426.0273438,124.4995117 C426.0696411,124.6560822 426.1013794,124.8697891 426.1225586,125.140625 L426.1733398,125.140625 C426.1902466,124.9078751 426.2304382,124.6878204 426.2939453,124.4804688 L427.8046875,119.2944336 L428.9536133,119.2944336 L430.4262695,124.5058594 C430.4685669,124.6582031 430.5024414,124.8740234 430.527832,125.1533203 L430.5849609,125.1533203 C430.5934143,124.9671173 430.6315002,124.751297 430.6992188,124.5058594 L432.0703125,119.2944336 Z M440.5761719,123.1220703 L435.6630859,123.1220703 C435.6842346,123.8710938 435.8894653,124.4497833 436.2788086,124.8581543 C436.6681213,125.2665176 437.2119141,125.4707031 437.9101563,125.4707031 C438.6972656,125.4707031 439.4187622,125.2189102 440.074707,124.715332 L440.074707,125.8261719 C439.4568481,126.2620392 438.6380005,126.4799805 437.6181641,126.4799805 C436.6025391,126.4799805 435.8101196,126.1583633 435.2409668,125.5151367 C434.6717834,124.8719025 434.387207,123.9790039 434.387207,122.8364258 C434.387207,121.7615509 434.6992798,120.875 435.3234863,120.1767578 C435.9476624,119.4785156 436.723114,119.1293945 437.6499023,119.1293945 C438.5681763,119.1293945 439.2854614,119.4245605 439.8017578,120.0148926 C440.3180237,120.6052246 440.5761719,121.4314728 440.5761719,122.4936523 Z M439.3320313,122.1254883 C439.3277893,121.4907227 439.1775513,120.9998322 438.8813477,120.652832 C438.5851135,120.3058243 438.1682739,120.1323242 437.6308594,120.1323242 C437.1357422,120.1323242 436.7072449,120.3164063 436.345459,120.6845703 C435.9836426,121.0527344 435.7561646,121.5330353 435.6630859,122.1254883 Z M448.3901367,126.3149414 L447.1523438,126.3149414 L447.1523438,122.3222656 C447.1523132,120.8792267 446.6254578,120.1577148 445.5717773,120.1577148 C445.0258789,120.1577148 444.577301,120.3608398 444.2260742,120.7670898 C443.8748169,121.1733398 443.6992188,121.6875 443.6992188,122.3095703 L443.6992188,126.3149414 L442.4550781,126.3149414 L442.4550781,119.2944336 L443.6992188,119.2944336 L443.6992188,120.4560547 L443.7246094,120.4560547 C444.2535706,119.5716095 445.021637,119.1293945 446.0288086,119.1293945 C446.7989807,119.1293945 447.3850708,119.3758926 447.7871094,119.8688965 C448.1891174,120.3618927 448.3901367,121.0802383 448.3901367,122.0239258 Z M454.0776367,126.2451172 C453.8067932,126.3932266 453.4407349,126.4672852 452.9794922,126.4672852 C451.7226563,126.4672852 451.0942383,125.7711563 451.0942383,124.3789063 L451.0942383,120.3227539 L449.8881836,120.3227539 L449.8881836,119.2944336 L451.0942383,119.2944336 L451.0942383,117.605957 L452.3320313,117.2124023 L452.3320313,119.2944336 L454.0776367,119.2944336 L454.0776367,120.3227539 L452.3320313,120.3227539 L452.3320313,124.1567383 C452.3320313,124.6179962 452.4103088,124.9480743 452.5668945,125.1469727 C452.7234497,125.3458633 452.9837036,125.4453125 453.3476563,125.4453125 C453.6269531,125.4453125 453.8702698,125.3670197 454.0776367,125.2104492 Z M461.4091797,119.2944336 L458.2226563,127.375 C457.630188,128.8730469 456.7944336,129.6220703 455.715332,129.6220703 C455.4064026,129.6220703 455.1419067,129.5882111 454.921875,129.5205078 L454.921875,128.4287109 C455.1630859,128.5218048 455.395813,128.5683594 455.6201172,128.5683594 C456.1829224,128.5683594 456.6040039,128.2382813 456.8833008,127.578125 L457.4228516,126.3022461 L454.6679688,119.2944336 L456.0454102,119.2944336 L457.8798828,124.5693359 L458.0322266,125.1469727 L458.0639648,125.1469727 C458.0893555,125.0157852 458.1401367,124.8274689 458.2163086,124.5820313 L460.1333008,119.2944336 Z" style="fill:rgb(0,0,0);stroke:none" clip-path="url(#clip31)" />
<clipPath id="clip32"><path d="M475,116 L488,116 L488,129 L475,129 L475,116 Z" /></clipPath>
<path d="M485.4999695,122 C485.4999695,119.5147171 483.48526,117.5 480.9999695,117.5 C478.5147095,117.5 476.4999695,119.5147171 476.5,122 C476.5,124.4852829 478.5147095,126.5 481,126.5 C483.48526,126.4999924 485.5,124.4852753 485.4999695,121.9999924 Z" style="fill:rgb(250,250,250);stroke:none" clip-path="url(#clip32)" />
<clipPath id="clip33"><path d="M475,116 L488,116 L488,129 L475,129 L475,116 Z" /></clipPath>
<path d="M485.4999695,122 C485.4999695,119.5147171 483.48526,117.5 480.9999695,117.5 C478.5147095,117.5 476.4999695,119.5147171 476.5,122 C476.5,124.4852829 478.5147095,126.5 481,126.5 C483.48526,126.4999924 485.5,124.4852753 485.4999695,121.9999924 Z" style="fill:none;stroke:rgb(85,142,213)" clip-path="url(#clip33)" />
<clipPath id="clip34"><path d="M475,116 L488,116 L488,129 L475,129 L475,116 Z" /></clipPath>
<path d="M479,122 L483,122" style="fill:none;stroke:rgb(150,160,200)" clip-path="url(#clip34)" />
<clipPath id="clip35"><path d="M494,106 L737,106 L737,139 L494,139 L494,106 Z" /></clipPath>
<path d="M497,136 L733,136 Z" style="fill:none;stroke:rgb(85,142,213);stroke-width:3" clip-path="url(#clip35)" />
<clipPath id="clip36"><path d="M506,111 L725,111 L725,134 L506,134 L506,111 Z" /></clipPath>
<path d="M512.3076172,122.2841797 L520.0263672,122.2841797 L520.0263672,127.9970703 L519.0107422,127.9970703 L519.0107422,127.1337891 L513.3232422,127.1337891 L513.3232422,127.9970703 L512.3076172,127.9970703 Z M511.139679,120.2402344 C511.1396484,122.5677032 511.0211792,124.1376953 510.7842102,124.9501953 C510.5472107,125.8811798 510.0436401,126.9095001 509.273468,128.0351563 C509.0787964,127.7473907 508.8460388,127.4511719 508.5752258,127.1464844 C509.1761169,126.2916641 509.5823669,125.4326172 509.7939758,124.5693359 C510.0055542,123.7399063 510.1113586,122.5211563 510.1113586,120.9130859 L510.1113586,116.6347656 C513.8183594,116.5162735 517.0853271,116.2623672 519.9121094,115.8730469 L520.5214844,116.9267578 C517.0175781,117.2822266 513.8903198,117.5107422 511.139679,117.6123047 L511.139679,119.2880859 L521.1943359,119.2880859 L521.1943359,120.2402344 Z M519.0107422,123.2109375 L513.3232422,123.2109375 L513.3232422,126.2324219 L519.0107422,126.2324219 Z M522.0258789,127.0957031 C523.4308472,125.8854141 524.2433472,124.1080704 524.4633789,121.7636719 L525.5297852,121.9287109 C525.4282227,122.711586 525.2738037,123.4415665 525.0664063,124.1186523 C525.7223511,125.5151367 526.7401123,126.3170547 528.1196289,126.5244141 L528.1196289,120.9384766 L522.3178711,120.9384766 L522.3178711,119.9863281 L534.378418,119.9863281 L534.378418,120.9384766 L529.1733398,120.9384766 L529.1733398,122.9951172 L533.5913086,122.9951172 L533.5913086,123.9345703 L529.1733398,123.9345703 L529.1733398,126.5942383 C530.857605,126.6365509 532.6899414,126.6217422 534.6704102,126.5498047 C534.5265503,126.8798828 534.4038086,127.2311172 534.3022461,127.6035156 C532.2286987,127.6289063 530.4174805,127.6162109 528.8686523,127.5654297 C526.960144,127.5654297 525.557312,126.7910156 524.6601563,125.2421875 C524.1777344,126.3636017 523.5239258,127.3115234 522.6987305,128.0859375 C522.5040894,127.7558594 522.2797852,127.4257813 522.0258789,127.0957031 Z M522.7749023,117.0410156 L528.1894531,117.0410156 C527.9398193,116.6770782 527.675293,116.3216095 527.3959961,115.9746094 L528.3608398,115.4541016 C528.690918,115.8349609 529.0506592,116.2623672 529.4399414,116.7363281 L528.8686523,117.0410156 L534.0102539,117.0410156 L534.0102539,119.453125 L533.0073242,119.453125 L533.0073242,117.9931641 L523.777832,117.9931641 L523.777832,119.4404297 L522.7749023,119.4404297 Z M544.0839844,120.5258789 C543.8766479,120.3777618 543.5910034,120.3037109 543.2270508,120.3037109 C542.7446289,120.3037109 542.3468628,120.5290527 542.0336914,120.9797363 C541.7205811,121.4304199 541.5639648,122.0239258 541.5639648,122.7602539 L541.5639648,126.3149414 L540.3198242,126.3149414 L540.3198242,119.2944336 L541.5639648,119.2944336 L541.5639648,120.7226563 L541.5893555,120.7226563 C541.9448242,119.6901016 542.5584717,119.1738281 543.4301758,119.1738281 C543.7137451,119.1738281 543.9316406,119.2055664 544.0839844,119.269043 Z M551.1489258,123.1220703 L546.2358398,123.1220703 C546.257019,123.8710938 546.4622803,124.4497833 546.8515625,124.8581543 C547.2409058,125.2665176 547.784668,125.4707031 548.4829102,125.4707031 C549.2700195,125.4707031 549.9915771,125.2189102 550.6474609,124.715332 L550.6474609,125.8261719 C550.0296631,126.2620392 549.2108154,126.4799805 548.190918,126.4799805 C547.175293,126.4799805 546.3829346,126.1583633 545.8137207,125.5151367 C545.2445679,124.8719025 544.9599609,123.9790039 544.9599609,122.8364258 C544.9599609,121.7615509 545.2720947,120.875 545.8962402,120.1767578 C546.5204468,119.4785156 547.2958984,119.1293945 548.2226563,119.1293945 C549.1409912,119.1293945 549.8582764,119.4245605 550.3745117,120.0148926 C550.8908081,120.6052246 551.1489258,121.4314728 551.1489258,122.4936523 Z M549.9047852,122.1254883 C549.9005737,121.4907227 549.7503662,120.9998322 549.4541016,120.652832 C549.1578979,120.3058243 548.7410889,120.1323242 548.2036133,120.1323242 C547.7084961,120.1323242 547.2800293,120.3164063 546.9182129,120.6845703 C546.5563965,121.0527344 546.3289795,121.5330353 546.2358398,122.1254883 Z M552.6342773,124.7978516 C553.2606201,125.2506485 553.9355469,125.4770508 554.6591797,125.4770508 C555.6282959,125.4770508 556.112793,125.159668 556.112793,124.5249023 C556.112793,124.2540665 556.007019,124.030838 555.7954102,123.8552246 C555.5838623,123.6796036 555.1542969,123.4711914 554.5068359,123.2299805 C553.7282104,122.9168243 553.2225342,122.6068497 552.9897461,122.3000488 C552.757019,121.9932404 552.640625,121.6219025 552.640625,121.1860352 C552.640625,120.5639648 552.9040527,120.0656738 553.4309082,119.6911621 C553.9577637,119.3166504 554.6063232,119.1293945 555.3764648,119.1293945 C555.9731445,119.1293945 556.5275269,119.2330704 557.0395508,119.4404297 L557.0395508,120.6401367 C556.5148315,120.30159 555.9202881,120.1323242 555.2558594,120.1323242 C554.8580933,120.1323242 554.5343628,120.2190704 554.284668,120.3925781 C554.0350342,120.5660782 553.9101563,120.7945938 553.9101563,121.078125 C553.9101563,121.3574219 554.0001221,121.5753555 554.1799316,121.7319336 C554.3598022,121.888504 554.758667,122.0895157 555.3764648,122.3349609 C556.1593628,122.6269531 556.6883545,122.9295197 556.9633789,123.2426758 C557.2384644,123.5558243 557.3759766,123.9430313 557.3759766,124.4042969 C557.3759766,125.0475235 557.1125488,125.5542755 556.5856934,125.9245605 C556.0588379,126.294838 555.3764648,126.4799805 554.5385742,126.4799805 C553.81073,126.4799805 553.1759644,126.3424454 552.6342773,126.0673828 Z M560.4672852,125.324707 L560.4672852,129.5458984 L559.2231445,129.5458984 L559.2231445,119.2944336 L560.4672852,119.2944336 L560.4672852,120.5068359 L560.4926758,120.5068359 C561.0428467,119.5885391 561.8468628,119.1293945 562.9047852,119.1293945 C563.8019409,119.1293945 564.5054932,119.4436035 565.0153809,120.0720215 C565.5253296,120.7004395 565.7802734,121.5436172 565.7802734,122.6015625 C565.7802734,123.7695313 565.4914551,124.7079239 564.9138184,125.416748 C564.3361816,126.1255646 563.5585938,126.4799805 562.5810547,126.4799805 C561.6796875,126.4799805 560.9835815,126.0948868 560.4926758,125.324707 Z M560.4609375,123.4204102 C560.4609375,123.9916992 560.6450195,124.4730606 561.0131836,124.864502 C561.3813477,125.2559357 561.8426514,125.4516602 562.3969727,125.4516602 C563.0571289,125.4516602 563.5734253,125.1977539 563.9458008,124.6899414 C564.3182373,124.1821289 564.5043945,123.4796524 564.5043945,122.5825195 C564.5043945,121.8250275 564.3309326,121.2315216 563.9838867,120.802002 C563.6369019,120.3724747 563.1629639,120.1577148 562.5620117,120.1577148 C561.9484253,120.1577148 561.4448242,120.3756485 561.0512695,120.8115234 C560.6577148,121.2473907 560.4609375,121.8059845 560.4609375,122.4873047 Z M567.3037109,122.8808594 C567.3037109,121.7213516 567.6274414,120.8062286 568.2749023,120.135498 C568.9223633,119.4647598 569.8004761,119.1293945 570.9091797,119.1293945 C571.9628906,119.1293945 572.7891846,119.4520645 573.3879395,120.0974121 C573.9867554,120.7427521 574.2861328,121.6345978 574.2861328,122.7729492 C574.2861328,123.8816681 573.9666748,124.7766876 573.3276367,125.4580078 C572.6886597,126.1393204 571.8317261,126.4799805 570.7568359,126.4799805 C569.7073975,126.4799805 568.8695068,126.1499023 568.2431641,125.4897461 C567.6168823,124.8295898 567.3037109,123.9599609 567.3037109,122.8808594 Z M568.5732422,122.8427734 C568.5732422,123.6510391 568.7774658,124.2879181 569.185791,124.753418 C569.5941772,125.2189102 570.1432495,125.4516602 570.8330078,125.4516602 C571.5439453,125.4516602 572.0856323,125.2241974 572.4580078,124.7692871 C572.8304443,124.3143692 573.0166016,123.6616211 573.0166016,122.8110352 C573.0166016,121.9562149 572.8304443,121.300293 572.4580078,120.8432617 C572.0856323,120.3862305 571.5439453,120.1577148 570.8330078,120.1577148 C570.1347656,120.1577148 569.5836182,120.3968048 569.1794434,120.875 C568.7753296,121.3531876 568.5732422,122.0091095 568.5732422,122.8427734 Z M582.2207031,126.3149414 L580.9829102,126.3149414 L580.9829102,122.3222656 C580.9829102,120.8792267 580.4560547,120.1577148 579.4023438,120.1577148 C578.8564453,120.1577148 578.4078979,120.3608398 578.0566406,120.7670898 C577.7054443,121.1733398 577.5297852,121.6875 577.5297852,122.3095703 L577.5297852,126.3149414 L576.2856445,126.3149414 L576.2856445,119.2944336 L577.5297852,119.2944336 L577.5297852,120.4560547 L577.5551758,120.4560547 C578.0841675,119.5716095 578.8522339,119.1293945 579.859375,119.1293945 C580.6295776,119.1293945 581.2156982,119.3758926 581.6176758,119.8688965 C582.0197144,120.3618927 582.2207031,121.0802383 582.2207031,122.0239258 Z M590.6313477,126.3149414 L589.387207,126.3149414 L589.387207,125.1469727 L589.3618164,125.1469727 C588.8497925,126.0356445 588.0541992,126.4799805 586.9750977,126.4799805 C586.0864258,126.4799805 585.3797607,126.1636505 584.8549805,125.5310059 C584.3302612,124.8983536 584.0678711,124.0445938 584.0678711,122.9697266 C584.0678711,121.8102188 584.3641357,120.8802872 584.956543,120.1799316 C585.5490112,119.4795685 586.3234253,119.1293945 587.2797852,119.1293945 C588.2362061,119.1293945 588.9301758,119.5017853 589.3618164,120.246582 L589.387207,120.246582 L589.387207,115.9238281 L590.6313477,115.9238281 Z M589.3935547,122.1381836 C589.3935547,121.5753555 589.2084351,121.1045685 588.8381348,120.7258301 C588.4678955,120.347084 588.0119019,120.1577148 587.4702148,120.1577148 C586.8100586,120.1577148 586.2895508,120.404213 585.9086914,120.8972168 C585.527832,121.390213 585.3374023,122.0620117 585.3374023,122.9125977 C585.3374023,123.6954727 585.5204468,124.3143692 585.8864746,124.7692871 C586.2525635,125.2241974 586.7402344,125.4516602 587.3496094,125.4516602 C587.9505615,125.4516602 588.4414063,125.2284317 588.8222656,124.7819824 C589.203125,124.3355255 589.3935547,123.7801056 589.3935547,123.1157227 Z M598.8198242,123.1220703 L593.9067383,123.1220703 C593.9278564,123.8710938 594.1331177,124.4497833 594.5224609,124.8581543 C594.9117432,125.2665176 595.4555664,125.4707031 596.1538086,125.4707031 C596.940918,125.4707031 597.6624146,125.2189102 598.3183594,124.715332 L598.3183594,125.8261719 C597.7005005,126.2620392 596.8816528,126.4799805 595.8618164,126.4799805 C594.8461914,126.4799805 594.053772,126.1583633 593.4846191,125.5151367 C592.9154053,124.8719025 592.6308594,123.9790039 592.6308594,122.8364258 C592.6308594,121.7615509 592.9429321,120.875 593.5671387,120.1767578 C594.1912842,119.4785156 594.9667358,119.1293945 595.8935547,119.1293945 C596.8118286,119.1293945 597.5291138,119.4245605 598.0454102,120.0148926 C598.5616455,120.6052246 598.8198242,121.4314728 598.8198242,122.4936523 Z M597.5756836,122.1254883 C597.5714111,121.4907227 597.4212036,120.9998322 597.125,120.652832 C596.8287354,120.3058243 596.4119263,120.1323242 595.8745117,120.1323242 C595.3793945,120.1323242 594.9508667,120.3164063 594.5891113,120.6845703 C594.2272949,121.0527344 593.9998169,121.5330353 593.9067383,122.1254883 Z M606.7924805,126.3149414 L605.5483398,126.3149414 L605.5483398,125.1469727 L605.5229492,125.1469727 C605.0108643,126.0356445 604.215332,126.4799805 603.1362305,126.4799805 C602.2475586,126.4799805 601.5408325,126.1636505 601.0161133,125.5310059 C600.491333,124.8983536 600.2290039,124.0445938 600.2290039,122.9697266 C600.2290039,121.8102188 600.5252075,120.8802872 601.1176758,120.1799316 C601.710083,119.4795685 602.4844971,119.1293945 603.440918,119.1293945 C604.3972778,119.1293945 605.0913086,119.5017853 605.5229492,120.246582 L605.5483398,120.246582 L605.5483398,115.9238281 L606.7924805,115.9238281 Z M605.5546875,122.1381836 C605.5546875,121.5753555 605.3695068,121.1045685 604.9992676,120.7258301 C604.6289673,120.347084 604.1729736,120.1577148 603.6313477,120.1577148 C602.9711914,120.1577148 602.4506836,120.404213 602.0698242,120.8972168 C601.6889648,121.390213 601.4985352,122.0620117 601.4985352,122.9125977 C601.4985352,123.6954727 601.6815186,124.3143692 602.0476074,124.7692871 C602.4136353,125.2241974 602.9013672,125.4516602 603.5107422,125.4516602 C604.1116333,125.4516602 604.6025391,125.2284317 604.9833984,124.7819824 C605.3642578,124.3355255 605.5546875,123.7801056 605.5546875,123.1157227 Z M615.222168,128.5493164 C613.7960205,126.9243164 613.0830078,124.9290314 613.0830078,122.5634766 C613.0830078,120.1979141 613.7960205,118.1708984 615.222168,116.4824219 L616.3203125,116.4824219 C614.8899536,118.2386017 614.1748047,120.2613907 614.1748047,122.5507813 C614.1748047,124.8359375 614.8857422,126.8354492 616.3076172,128.5493164 Z M623.3535156,119.2944336 L620.5732422,126.3149414 L619.3164063,126.3149414 L616.6757813,119.2944336 L618.0341797,119.2944336 L619.7480469,124.309082 C619.8876953,124.7110977 619.9702148,125.0475235 619.9956055,125.3183594 L620.0273438,125.3183594 C620.0696411,124.9628906 620.1436768,124.6349258 620.2495117,124.3344727 L622.0458984,119.2944336 Z M624.3691406,125.6611328 C624.3691406,125.4326172 624.4473877,125.2400665 624.6040039,125.0834961 C624.7605591,124.926918 624.9552002,124.8486328 625.1879883,124.8486328 C625.4249268,124.8486328 625.6217041,124.9279785 625.7783203,125.0866699 C625.9348755,125.2453613 626.0131836,125.4368439 626.0131836,125.6611328 C626.0131836,125.8811798 625.9348755,126.0705566 625.7783203,126.229248 C625.6217041,126.3879395 625.4228516,126.4672852 625.1816406,126.4672852 C624.9488525,126.4672852 624.755249,126.3879395 624.6008301,126.229248 C624.4463501,126.0705566 624.3691406,125.8811798 624.3691406,125.6611328 Z M626.9970703,128.5493164 C628.4231567,126.8396759 629.1362305,124.8401642 629.1362305,122.5507813 C629.1362305,120.2571564 628.4188843,118.234375 626.984375,116.4824219 L628.0888672,116.4824219 C629.519165,118.1582031 630.234375,120.1852188 630.234375,122.5634766 C630.234375,124.9417267 629.519165,126.9370117 628.0888672,128.5493164 Z M639.984375,116.9838867 C639.7515869,116.8611603 639.4998169,116.7998047 639.2290039,116.7998047 C638.4503174,116.7998047 638.0610352,117.2822266 638.0610352,118.2470703 L638.0610352,119.2944336 L639.7050781,119.2944336 L639.7050781,120.3227539 L638.0610352,120.3227539 L638.0610352,126.3149414 L636.8295898,126.3149414 L636.8295898,120.3227539 L635.6298828,120.3227539 L635.6298828,119.2944336 L636.8295898,119.2944336 L636.8295898,118.1899414 C636.8295898,117.4366837 637.0464478,116.8452911 637.4802246,116.4157715 C637.9139404,115.9862442 638.4651489,115.7714844 639.1337891,115.7714844 C639.4892578,115.7714844 639.7727661,115.8116837 639.984375,115.8920898 Z M644.7895508,120.5258789 C644.5821533,120.3777618 644.2965088,120.3037109 643.9326172,120.3037109 C643.4501953,120.3037109 643.0523682,120.5290527 642.7392578,120.9797363 C642.4260864,121.4304199 642.2695313,122.0239258 642.2695313,122.7602539 L642.2695313,126.3149414 L641.0253906,126.3149414 L641.0253906,119.2944336 L642.2695313,119.2944336 L642.2695313,120.7226563 L642.2949219,120.7226563 C642.6503296,119.6901016 643.2639771,119.1738281 644.1357422,119.1738281 C644.4192505,119.1738281 644.637207,119.2055664 644.7895508,119.269043 Z M645.6655273,122.8808594 C645.6655273,121.7213516 645.9892578,120.8062286 646.6367188,120.135498 C647.2841797,119.4647598 648.1622314,119.1293945 649.2709961,119.1293945 C650.324646,119.1293945 651.1509399,119.4520645 651.7497559,120.0974121 C652.3485107,120.7427521 652.6479492,121.6345978 652.6479492,122.7729492 C652.6479492,123.8816681 652.3284302,124.7766876 651.6894531,125.4580078 C651.050415,126.1393204 650.1934814,126.4799805 649.1186523,126.4799805 C648.0691528,126.4799805 647.2312622,126.1499023 646.6049805,125.4897461 C645.9786377,124.8295898 645.6655273,123.9599609 645.6655273,122.8808594 Z M646.9350586,122.8427734 C646.9350586,123.6510391 647.1392212,124.2879181 647.5476074,124.753418 C647.9559326,125.2189102 648.5050049,125.4516602 649.1948242,125.4516602 C649.9057007,125.4516602 650.4473877,125.2241974 650.8198242,124.7692871 C651.1921997,124.3143692 651.378418,123.6616211 651.378418,122.8110352 C651.378418,121.9562149 651.1921997,121.300293 650.8198242,120.8432617 C650.4473877,120.3862305 649.9057007,120.1577148 649.1948242,120.1577148 C648.496582,120.1577148 647.9453735,120.3968048 647.5412598,120.875 C647.137085,121.3531876 646.9350586,122.0091095 646.9350586,122.8427734 Z M664.7529297,126.3149414 L663.5087891,126.3149414 L663.5087891,122.2841797 C663.5087891,121.5224609 663.3902588,120.9776154 663.1533203,120.6496582 C662.9163208,120.3216934 662.5269775,120.1577148 661.9853516,120.1577148 C661.5283203,120.1577148 661.1368408,120.3714142 660.8110352,120.7988281 C660.4851685,121.2262344 660.3222656,121.7319336 660.3222656,122.315918 L660.3222656,126.3149414 L659.078125,126.3149414 L659.078125,122.1572266 C659.078064,120.8242188 658.5639038,120.1577148 657.5356445,120.1577148 C657.0616455,120.1577148 656.6691895,120.3608398 656.3581543,120.7670898 C656.0471191,121.1733398 655.8916016,121.6917267 655.8916016,122.3222656 L655.8916016,126.3149414 L654.6474609,126.3149414 L654.6474609,119.2944336 L655.8916016,119.2944336 L655.8916016,120.4052734 L655.9169922,120.4052734 C656.4163208,119.5546875 657.1463013,119.1293945 658.1069336,119.1293945 C658.5765991,119.1293945 658.991333,119.258461 659.3510742,119.5166016 C659.7107544,119.7747345 659.9604492,120.1238556 660.1000977,120.5639648 C660.6206055,119.6075821 661.399231,119.1293945 662.4360352,119.1293945 C663.9805908,119.1293945 664.7528687,120.081543 664.7529297,121.9858398 Z M674.5283203,126.2451172 C674.2574463,126.3932266 673.8914185,126.4672852 673.4301758,126.4672852 C672.1733398,126.4672852 671.5449219,125.7711563 671.5449219,124.3789063 L671.5449219,120.3227539 L670.3388672,120.3227539 L670.3388672,119.2944336 L671.5449219,119.2944336 L671.5449219,117.605957 L672.7827148,117.2124023 L672.7827148,119.2944336 L674.5283203,119.2944336 L674.5283203,120.3227539 L672.7827148,120.3227539 L672.7827148,124.1567383 C672.7827148,124.6179962 672.8609619,124.9480743 673.0175781,125.1469727 C673.1741333,125.3458633 673.4343872,125.4453125 673.7983398,125.4453125 C674.0776367,125.4453125 674.3209229,125.3670197 674.5283203,125.2104492 Z M682.0756836,126.3149414 L680.8378906,126.3149414 L680.8378906,122.277832 C680.8378906,120.864418 680.3131104,120.1577148 679.2636719,120.1577148 C678.7261963,120.1577148 678.2797852,120.3640137 677.9243164,120.7766113 C677.5688477,121.189209 677.3911133,121.7086563 677.3911133,122.3349609 L677.3911133,126.3149414 L676.1469727,126.3149414 L676.1469727,115.9238281 L677.3911133,115.9238281 L677.3911133,120.449707 L677.4165039,120.449707 C677.9539185,119.5694962 678.7177734,119.1293945 679.7080078,119.1293945 C681.286438,119.1293945 682.0756836,120.0836563 682.0756836,121.9921875 Z M690.1118164,123.1220703 L685.1987305,123.1220703 C685.2198486,123.8710938 685.4251099,124.4497833 685.8144531,124.8581543 C686.2037354,125.2665176 686.7475586,125.4707031 687.4458008,125.4707031 C688.2329102,125.4707031 688.9544067,125.2189102 689.6103516,124.715332 L689.6103516,125.8261719 C688.9924927,126.2620392 688.173645,126.4799805 687.1538086,126.4799805 C686.1381836,126.4799805 685.3457642,126.1583633 684.7766113,125.5151367 C684.2073975,124.8719025 683.9228516,123.9790039 683.9228516,122.8364258 C683.9228516,121.7615509 684.2349243,120.875 684.8591309,120.1767578 C685.4832764,119.4785156 686.258728,119.1293945 687.1855469,119.1293945 C688.1038208,119.1293945 688.821106,119.4245605 689.3374023,120.0148926 C689.8536377,120.6052246 690.1118164,121.4314728 690.1118164,122.4936523 Z M688.8676758,122.1254883 C688.8634033,121.4907227 688.7131958,120.9998322 688.4169922,120.652832 C688.1207275,120.3058243 687.7039185,120.1323242 687.1665039,120.1323242 C686.6713867,120.1323242 686.2428589,120.3164063 685.8811035,120.6845703 C685.5192871,121.0527344 685.2918091,121.5330353 685.1987305,122.1254883 Z M697.1958008,125.324707 L697.1958008,129.5458984 L695.9516602,129.5458984 L695.9516602,119.2944336 L697.1958008,119.2944336 L697.1958008,120.5068359 L697.2211914,120.5068359 C697.7713013,119.5885391 698.5753174,119.1293945 699.6333008,119.1293945 C700.5303955,119.1293945 701.2339478,119.4436035 701.7438965,120.0720215 C702.2537842,120.7004395 702.5087891,121.5436172 702.5087891,122.6015625 C702.5087891,123.7695313 702.2199707,124.7079239 701.642334,125.416748 C701.0646973,126.1255646 700.2871094,126.4799805 699.3095703,126.4799805 C698.4082031,126.4799805 697.7120361,126.0948868 697.2211914,125.324707 Z M697.1894531,123.4204102 C697.1894531,123.9916992 697.3735352,124.4730606 697.7416992,124.864502 C698.1098633,125.2559357 698.571106,125.4516602 699.1254883,125.4516602 C699.7855835,125.4516602 700.3018799,125.1977539 700.6743164,124.6899414 C701.0466919,124.1821289 701.2329102,123.4796524 701.2329102,122.5825195 C701.2329102,121.8250275 701.0593872,121.2315216 700.7124023,120.802002 C700.3653564,120.3724747 699.8914185,120.1577148 699.2905273,120.1577148 C698.6768799,120.1577148 698.1733398,120.3756485 697.7797852,120.8115234 C697.3862305,121.2473907 697.1894531,121.8059845 697.1894531,122.4873047 Z M704.0322266,122.8808594 C704.0322266,121.7213516 704.355957,120.8062286 705.003418,120.135498 C705.6508789,119.4647598 706.5289307,119.1293945 707.6376953,119.1293945 C708.6913452,119.1293945 709.5176392,119.4520645 710.1164551,120.0974121 C710.71521,120.7427521 711.0146484,121.6345978 711.0146484,122.7729492 C711.0146484,123.8816681 710.6951294,124.7766876 710.0561523,125.4580078 C709.4171143,126.1393204 708.5601807,126.4799805 707.4853516,126.4799805 C706.4358521,126.4799805 705.5979614,126.1499023 704.9716797,125.4897461 C704.3453369,124.8295898 704.0322266,123.9599609 704.0322266,122.8808594 Z M705.3017578,122.8427734 C705.3017578,123.6510391 705.5059204,124.2879181 705.9143066,124.753418 C706.3226318,125.2189102 706.8717041,125.4516602 707.5615234,125.4516602 C708.2723999,125.4516602 708.8140869,125.2241974 709.1865234,124.7692871 C709.5588989,124.3143692 709.7451172,123.6616211 709.7451172,122.8110352 C709.7451172,121.9562149 709.5588989,121.300293 709.1865234,120.8432617 C708.8140869,120.3862305 708.2723999,120.1577148 707.5615234,120.1577148 C706.8632813,120.1577148 706.3120728,120.3968048 705.907959,120.875 C705.5037842,121.3531876 705.3017578,122.0091095 705.3017578,122.8427734 Z M713.0078125,126.3149414 L713.0078125,115.9238281 L714.2519531,115.9238281 L714.2519531,126.3149414 Z M716.5688477,126.3149414 L716.5688477,115.9238281 L717.8129883,115.9238281 L717.8129883,126.3149414 Z M719.7807617,125.6611328 C719.7807617,125.4326172 719.8590088,125.2400665 720.015625,125.0834961 C720.1721802,124.926918 720.3668213,124.8486328 720.5996094,124.8486328 C720.8365479,124.8486328 721.0333252,124.9279785 721.1899414,125.0866699 C721.3464966,125.2453613 721.4248047,125.4368439 721.4248047,125.6611328 C721.4248047,125.8811798 721.3464966,126.0705566 721.1899414,126.229248 C721.0333252,126.3879395 720.8344727,126.4672852 720.5932617,126.4672852 C720.3604736,126.4672852 720.1668701,126.3879395 720.0124512,126.229248 C719.8579712,126.0705566 719.7807617,125.8811798 719.7807617,125.6611328 Z" style="fill:rgb(0,0,0);stroke:none" clip-path="url(#clip36)" />
</svg>
