<svg width="685" xmlns:xlink="http://www.w3.org/1999/xlink" viewBox="0 0 685 348" height="348" xmlns="http://www.w3.org/2000/svg">
    <defs/>
    <g transform="translate(-245.00,-176.00)">
        <g transform="translate(492.02,272.17)" id="shape1">
            <path d="M.0,.0L132.0,.0L132.0,53.8L.0,53.8L.0,.0z" fill="#d7d7d7" fill-rule="nonzero" stroke="#999999"/>
            <text style="fill:#191919;font-family:Microsoft YaHei;font-size:10.00pt" xml:space="preserve">
                <tspan x="46.5" y="22.9">黎巴嫩</tspan>
                <tspan x="12.0" y="41.9">(1943年11月独立)</tspan>
            </text>
        </g>
        <g transform="translate(809.18,390.41)" id="shape2">
            <path d="M.0,.0L119.6,.0L119.6,43.0L.0,43.0L.0,.0z" fill="#d7d7d7" fill-rule="nonzero" stroke="#999999"/>
            <text style="fill:#191919;font-family:Microsoft YaHei;font-size:10.00pt" xml:space="preserve">
                <tspan x="40.3" y="27.5">叙利亚</tspan>
            </text>
        </g>
        <g transform="translate(416.00,216.17)" id="shape3">
            <path d="M.0,.0L63.6,.0L63.6,29.8L.0,29.8L.0,.0z" fill="#ffffff" fill-rule="nonzero" stroke="#999999"/>
            <text style="fill:#191919;font-family:Microsoft YaHei;font-size:10.00pt" xml:space="preserve">
                <tspan x="18.8" y="20.5">法国</tspan>
            </text>
        </g>
        <g transform="translate(479.64,230.85)" id="shape4">
            <path d="M.0,.0L64.8,.0L64.8,35.3" fill="none" stroke="#191919"/>
            <path d="M67.8,35.3L64.8,41.3L61.8,35.3L67.8,35.3" fill="#191919" stroke-width="1" stroke-linecap="round" stroke="#191919"/>
        </g>
        <g transform="translate(481.09,177.00)" id="shape5">
            <text style="fill:#191919;font-family:Microsoft YaHei;font-size:10.00pt" xml:space="preserve">
                <tspan x="8.7" y="21.0">第一次世界大战后，成为</tspan>
                <tspan x="28.2" y="40.0">法属叙利亚托管地</tspan>
            </text>
        </g>
        <g transform="translate(556.30,326.00)" id="shape6">
            <path d="M.0,.0L.0,68.9" fill="none" stroke="#191919"/>
            <path d="M3.0,68.9L.0,74.9L-3.0,68.9L3.0,68.9" fill="#191919" stroke-width="1" stroke-linecap="round" stroke="#191919"/>
            <rect width="79.0" fill="#ffffff" x="-38.5" y="15.3" height="19.0"/>
            <rect width="115.0" fill="#ffffff" x="-56.5" y="34.3" height="19.0"/>
            <text style="fill:#191919;font-family:Microsoft YaHei;font-size:10.00pt" xml:space="preserve">
                <tspan x="-38.5" y="30.3">1975年4月，</tspan>
                <tspan x="-56.5" y="49.3">开始内战(持续15年)</tspan>
            </text>
        </g>
        <g transform="translate(435.00,397.00)" id="shape7">
            <path d="M.0,.0L63.6,.0L63.6,29.8L.0,29.8L.0,.0z" fill="#ffffff" fill-rule="nonzero" stroke="#999999"/>
            <text style="fill:#191919;font-family:Microsoft YaHei;font-size:10.00pt" xml:space="preserve">
                <tspan x="12.3" y="20.5">基督教</tspan>
            </text>
        </g>
        <g transform="translate(616.36,397.00)" id="shape8">
            <path d="M.0,.0L63.6,.0L63.6,29.8L.0,29.8L.0,.0z" fill="#ffffff" fill-rule="nonzero" stroke="#999999"/>
            <text style="fill:#191919;font-family:Microsoft YaHei;font-size:10.00pt" xml:space="preserve">
                <tspan x="5.8" y="20.5">伊斯兰教</tspan>
            </text>
        </g>
        <g transform="translate(498.64,412.93)" id="shape9">
            <path d="M8.0,.0L111.7,.0" fill="none" stroke="#191919"/>
            <path d="M8.0,4.0L.0,.0L8.0,-4.0L8.0,4.0" fill="#191919" stroke-width="1" stroke-linecap="round" stroke="#191919"/>
            <path d="M111.7,-3.0L117.7,.0L111.7,3.0L111.7,-3.0" fill="#191919" stroke-width="1" stroke-linecap="round" stroke="#191919"/>
        </g>
        <g transform="translate(809.18,410.84)" id="shape10">
            <path d="M.0,.0L-123.2,.0" fill="none" stroke="#191919"/>
            <path d="M-123.2,3.0L-129.2,.0L-123.2,-3.0L-123.2,3.0" fill="#191919" stroke-width="1" stroke-linecap="round" stroke="#191919"/>
            <rect width="26.0" fill="#ffffff" x="-73.9" y="-19.0" height="19.0"/>
            <rect width="90.0" fill="#ffffff" x="-105.9" y="0.0" height="19.0"/>
            <text style="fill:#191919;font-family:Microsoft YaHei;font-size:10.00pt" xml:space="preserve">
                <tspan x="-73.9" y="-4.0">扶植</tspan>
                <tspan x="-105.9" y="15.0">"真主党游击队"</tspan>
            </text>
        </g>
        <g transform="translate(246.00,390.41)" id="shape11">
            <path d="M.0,.0L87.8,.0L87.8,43.0L.0,43.0L.0,.0z" fill="#d7d7d7" fill-rule="nonzero" stroke="#999999"/>
            <text style="fill:#191919;font-family:Microsoft YaHei;font-size:10.00pt" xml:space="preserve">
                <tspan x="24.4" y="27.0">以色列</tspan>
            </text>
        </g>
        <g transform="translate(333.82,411.87)" id="shape12">
            <path d="M.0,.0L69.2,.0L69.2,-0.0L95.2,-0.0" fill="none" stroke="#191919"/>
            <path d="M95.2,-3.0L101.2,-0.0L95.2,3.0L95.2,-3.0" fill="#191919" stroke-width="1" stroke-linecap="round" stroke="#191919"/>
            <rect width="26.0" fill="#ffffff" x="33.8" y="-19.0" height="19.0"/>
            <rect width="52.0" fill="#ffffff" x="20.8" y="0.0" height="19.0"/>
            <text style="fill:#191919;font-family:Microsoft YaHei;font-size:10.00pt" xml:space="preserve">
                <tspan x="33.8" y="-4.0">控制</tspan>
                <tspan x="20.8" y="15.0">南黎巴嫩</tspan>
            </text>
        </g>
        <g transform="translate(289.30,433.41)" id="shape13">
            <path d="M.0,.0L.0,67.6L461.7,67.6L461.7,6.0" fill="none" stroke="#191919"/>
            <path d="M458.7,6.0L461.7,.0L464.7,6.0L458.7,6.0" fill="#191919" stroke-width="1" stroke-linecap="round" stroke="#191919"/>
            <rect width="66.0" fill="#ffffff" x="239.0" y="48.6" height="19.0"/>
            <rect width="52.0" fill="#ffffff" x="246.0" y="67.6" height="19.0"/>
            <text style="fill:#191919;font-family:Microsoft YaHei;font-size:10.00pt" xml:space="preserve">
                <tspan x="239.0" y="63.6">2006年7月</tspan>
                <tspan x="246.0" y="82.6">爆发冲突</tspan>
            </text>
        </g>
    </g>
</svg>
