<svg viewBox="0 0 535 373" height="373" xmlns:xlink="http://www.w3.org/1999/xlink" xmlns="http://www.w3.org/2000/svg" width="535">
    <defs/>
    <g transform="translate(-109.00,-104.15)">
        <g transform="translate(110.00,283.00)" id="shape1">
            <path d="M136.0,79.3L136.0,.0L.0,.0L.0,79.3L136.0,79.3z" stroke="#323232" fill-rule="nonzero" fill="#ebebeb"/>
            <text xml:space="preserve" style="fill:#191919;font-family:Microsoft YaHei;font-size:10.00pt;font-weight:bold">
                <tspan x="32.5" y="26.5">Nederland</tspan>
                <tspan style="font-weight:normal" x="11.0" y="45.5">正式国名: 低地国家, </tspan>
                <tspan style="font-weight:normal" x="25.0" y="64.5">荷兰(欧洲部分)</tspan>
            </text>
        </g>
        <g transform="translate(110.00,165.50)" id="shape2">
            <path d="M136.0,79.3L136.0,.0L.0,.0L.0,79.3L136.0,79.3z" stroke="#323232" fill-rule="nonzero" fill="#ffffff"/>
            <text xml:space="preserve" style="fill:#191919;font-family:Microsoft YaHei;font-size:10.00pt">
                <tspan x="18.5" y="36.0">the Netherlands</tspan>
                <tspan x="25.0" y="55.0">荷兰(完整部分)</tspan>
            </text>
        </g>
        <g transform="translate(318.00,255.00)" id="shape3">
            <path d="M136.0,88.3L136.0,.0L.0,.0L.0,88.3L136.0,88.3z" stroke="#323232" fill-rule="nonzero" fill="#ebebeb"/>
            <text xml:space="preserve" style="fill:#191919;font-family:Microsoft YaHei UI;font-size:9.00pt">
                <tspan x="22.0" y="20.5">(荷兰的族群名字)</tspan>
                <tspan style="font-family:Microsoft YaHei;font-size:10.00pt;font-weight:bold" x="49.0" y="38.5">Dutch</tspan>
                <tspan style="font-family:Microsoft YaHei;font-size:10.00pt" x="21.0" y="57.5">荷兰的主要族群,</tspan>
                <tspan style="font-family:Microsoft YaHei;font-size:10.00pt" x="29.0" y="76.5">属于日耳曼族</tspan>
            </text>
        </g>
        <g transform="translate(507.00,259.50)" id="shape4">
            <path d="M136.0,79.3L136.0,.0L.0,.0L.0,79.3L136.0,79.3z" stroke="#323232" fill-rule="nonzero" fill="#ffffff"/>
            <text xml:space="preserve" style="fill:#191919;font-family:Microsoft YaHei;font-size:10.00pt">
                <tspan x="18.5" y="26.5">(德国的族群名字)</tspan>
                <tspan x="11.0" y="45.5">Deutsch / German</tspan>
                <tspan x="11.0" y="64.5">德意志人 /日耳曼人</tspan>
            </text>
        </g>
        <g transform="translate(416.00,165.50)" id="shape5">
            <path stroke="#323232" d="M.0,.0L120.0,.0L120.0,42.1L.0,42.1L.0,.0z" fill="none"/>
            <text xml:space="preserve" style="fill:#191919;font-family:Microsoft YaHei;font-size:10.00pt">
                <tspan x="27.5" y="27.0">日耳曼民族</tspan>
            </text>
        </g>
        <g transform="translate(475.28,207.65)" id="shape6">
            <path stroke="#191919" d="M.0,.0L.0,15.4L-89.3,15.4L-89.3,41.4" fill="none"/>
            <path stroke-linecap="round" stroke="#191919" d="M-86.3,41.4L-89.3,47.4L-92.3,41.4L-86.3,41.4" stroke-width="1" fill="#191919"/>
        </g>
        <g transform="translate(483.20,207.65)" id="shape7">
            <path stroke="#191919" d="M.0,.0L.0,19.9L91.8,19.9L91.8,45.9" fill="none"/>
            <path stroke-linecap="round" stroke="#191919" d="M94.8,45.9L91.8,51.9L88.8,45.9L94.8,45.9" stroke-width="1" fill="#191919"/>
        </g>
        <g transform="translate(178.00,244.83)" id="shape8">
            <path stroke="#191919" d="M.0,.0L.0,32.2" fill="none"/>
            <path stroke-linecap="round" stroke="#191919" d="M3.0,32.2L.0,38.2L-3.0,32.2L3.0,32.2" stroke-width="1" fill="#191919"/>
        </g>
        <g transform="translate(110.00,397.00)" id="shape9">
            <path d="M136.0,79.3L136.0,.0L.0,.0L.0,79.3L136.0,79.3z" stroke="#323232" fill-rule="nonzero" fill="#ebebeb"/>
            <text xml:space="preserve" style="fill:#191919;font-family:Microsoft YaHei;font-size:10.00pt;font-weight:bold">
                <tspan x="41.5" y="26.5">Holland</tspan>
                <tspan style="font-weight:normal" x="6.0" y="45.5">只是 Nederland 国中</tspan>
                <tspan style="font-weight:normal" x="22.5" y="64.5">一个地区的名称</tspan>
            </text>
        </g>
        <g transform="translate(178.00,362.33)" id="shape10">
            <path stroke="#191919" d="M.0,.0L.0,28.7" fill="none"/>
            <path stroke-linecap="round" stroke="#191919" d="M3.0,28.7L.0,34.7L-3.0,28.7L3.0,28.7" stroke-width="1" fill="#191919"/>
        </g>
        <g transform="translate(143.61,105.15)" id="shape11">
            <text xml:space="preserve" style="fill:#191919;font-family:Microsoft YaHei;font-size:10.00pt">
                <tspan x="14.9" y="28.4">国家名</tspan>
            </text>
        </g>
        <g transform="translate(441.61,105.15)" id="shape12">
            <text xml:space="preserve" style="fill:#191919;font-family:Microsoft YaHei;font-size:10.00pt">
                <tspan x="14.9" y="28.5">民族名</tspan>
            </text>
        </g>
    </g>
</svg>
