<svg xmlns="http://www.w3.org/2000/svg" viewBox="0 0 197.07 87"><defs><style>.cls-1{fill:#c9caca;}.cls-2{fill:#9fa0a0;}.cls-3,.cls-5{fill:none;}.cls-3{stroke:#231815;stroke-miterlimit:10;stroke-width:0.5px;}.cls-4{font-size:9px;fill:#231815;font-family:MicrosoftYaHeiLight, Microsoft YaHei;}</style></defs><title>资源 17</title><g id="图层_2" data-name="图层 2"><g id="图层_1-2" data-name="图层 1"><path class="cls-1" d="M114.91,10.55a27,27,0,1,1-16,48.73,27,27,0,0,0,0-43.46A26.82,26.82,0,0,1,114.91,10.55Z"/><path class="cls-2" d="M98.89,15.82a27,27,0,0,1,0,43.46,27,27,0,0,1,0-43.46Z"/><path class="cls-1" d="M98.89,15.82a27,27,0,0,0,0,43.46,27,27,0,1,1,0-43.46Z"/><path class="cls-3" d="M98.89,15.82a27,27,0,1,1-16-5.27A27,27,0,0,1,98.89,15.82Z"/><path class="cls-3" d="M98.89,15.82a27,27,0,1,1-11,21.73A26.82,26.82,0,0,1,98.89,15.82Z"/><text class="cls-4" transform="translate(71.78 40.55)">A</text><text class="cls-4" transform="translate(122.78 40.55)">B</text><text class="cls-4" transform="translate(89.92 40.55)">A∩B</text><text class="cls-4" transform="translate(12.03 81.06)">P(A+B) = P(A) +P(B)- 它们的交集部分 P(AB)</text><rect class="cls-5" width="197.07" height="87"/></g></g></svg>