<svg xmlns="http://www.w3.org/2000/svg" viewBox="0 0 391.58 153.5"><defs><style>.cls-1{isolation:isolate;}.cls-2{fill:#dcdddd;}.cls-2,.cls-3,.cls-6,.cls-7{stroke:#231815;stroke-miterlimit:10;}.cls-2,.cls-3,.cls-7{stroke-width:0.5px;}.cls-2,.cls-3,.cls-4{mix-blend-mode:multiply;}.cls-3,.cls-6,.cls-7,.cls-9{fill:none;}.cls-4{fill:#c9caca;}.cls-5{font-size:9px;font-family:MicrosoftYaHeiLight, Microsoft YaHei;}.cls-5,.cls-8{fill:#231815;}</style></defs><title>资源 22</title><g class="cls-1"><g id="图层_2" data-name="图层 2"><g id="图层_1-2" data-name="图层 1"><circle class="cls-2" cx="115.76" cy="93.47" r="31.5"/><circle class="cls-3" cx="79.5" cy="81.56" r="25.6"/><path class="cls-4" d="M105.1,81.47A25.48,25.48,0,0,0,100,66.12,31.5,31.5,0,0,0,86.89,106,25.62,25.62,0,0,0,105.1,81.47Z"/><text class="cls-5" transform="translate(89.07 91)">AB</text><text class="cls-5" transform="translate(119.5 103.06)">B</text><text class="cls-5" transform="translate(67.12 87.06)">A</text><text class="cls-5" transform="translate(61.4 19.19)">P(AB) = P(B) * P(A | 条件B)</text><rect class="cls-6" x="18.47" y="43.5" width="163" height="95"/><line class="cls-7" x1="116.76" y1="24.19" x2="96.95" y2="75.52"/><polygon class="cls-8" points="95.68 78.82 95.58 73.44 97.05 75.28 99.37 74.91 95.68 78.82"/><rect class="cls-9" width="391.58" height="153.5"/><circle class="cls-3" cx="310.78" cy="93.47" r="31.5"/><circle class="cls-2" cx="274.52" cy="81.56" r="25.6"/><path class="cls-4" d="M300.12,81.47A25.48,25.48,0,0,0,295,66.12,31.5,31.5,0,0,0,281.91,106,25.63,25.63,0,0,0,300.12,81.47Z"/><text class="cls-5" transform="translate(284.09 91)">AB</text><text class="cls-5" transform="translate(314.51 103.06)">B</text><text class="cls-5" transform="translate(262.14 87.06)">A</text><text class="cls-5" transform="translate(256.42 19.19)">P(AB) = P(A) * P(B | 条件A)</text><rect class="cls-6" x="213.48" y="43.5" width="163" height="95"/><line class="cls-7" x1="311.78" y1="24.19" x2="291.97" y2="75.52"/><polygon class="cls-8" points="290.7 78.82 290.59 73.44 292.06 75.28 294.38 74.91 290.7 78.82"/></g></g></g></svg>