<svg xmlns="http://www.w3.org/2000/svg" viewBox="0 0 194.63 140.22"><defs><style>.cls-1,.cls-10,.cls-11,.cls-12,.cls-4{fill:none;stroke-miterlimit:10;}.cls-1{stroke:#ea5514;}.cls-1,.cls-11,.cls-12{stroke-width:5px;}.cls-2{fill:#fff;}.cls-3,.cls-8{fill:#ea5514;}.cls-10,.cls-4{stroke:#231815;}.cls-4{stroke-width:0.5px;}.cls-5,.cls-6{fill:#231815;}.cls-6,.cls-7,.cls-8,.cls-9{font-size:11.49px;font-family:MicrosoftYaHei, Microsoft YaHei;}.cls-7{fill:#0b318f;}.cls-9{fill:#094;}.cls-11{stroke:#094;}.cls-12{stroke:#172a88;}</style></defs><g id="图层_2" data-name="图层 2"><g id="图层_1-2" data-name="图层 1"><line class="cls-1" x1="75.48" y1="97.41" x2="135.86" y2="97.41"/><path class="cls-2" d="M75.8,103.05a5.64,5.64,0,1,1,5.64-5.64A5.63,5.63,0,0,1,75.8,103.05Z"/><path class="cls-3" d="M75.8,103.8a6.39,6.39,0,1,0-6.39-6.39,6.4,6.4,0,0,0,6.39,6.39Zm0-11.28a4.89,4.89,0,1,1-4.89,4.89,4.9,4.9,0,0,1,4.89-4.89Z"/><line class="cls-4" x1="20.05" y1="97.5" x2="191.1" y2="97.5"/><polygon class="cls-5" points="194.63 97.5 189.65 99.54 190.84 97.5 189.65 95.47 194.63 97.5"/><text class="cls-6" transform="translate(72.7 116.12)">a</text><text class="cls-6" transform="translate(0 101.06)">-∞</text><text class="cls-6" transform="translate(132.53 116.12)">b</text><text class="cls-7" transform="translate(49.71 43.02)">P{x &lt;= b}</text><text class="cls-8" transform="translate(72.29 137.29)">P{a &lt; X &lt;= b}</text><text class="cls-9" transform="translate(22.11 73.95)">P{x &lt;= a}</text><line class="cls-10" x1="75.12" y1="93.2" x2="75.12" y2="100.06"/><line class="cls-10" x1="135.86" y1="93.2" x2="135.86" y2="100.06"/><line class="cls-11" x1="20.05" y1="81.6" x2="75.12" y2="81.6"/><line class="cls-12" x1="20.05" y1="49.76" x2="135.86" y2="49.76"/><text class="cls-6" transform="translate(50.83 9.85)">蓝-绿=橙</text></g></g></svg>