<svg xmlns="http://www.w3.org/2000/svg" viewBox="0 0 194.63 118.7"><defs><style>.cls-1,.cls-6{fill:#ea5514;}.cls-12,.cls-2,.cls-8,.cls-9{fill:none;stroke-miterlimit:10;}.cls-2,.cls-8{stroke:#231815;}.cls-2{stroke-width:0.5px;}.cls-3,.cls-4{fill:#231815;}.cls-4,.cls-5,.cls-6,.cls-7{font-size:11.49px;font-family:MicrosoftYaHei, Microsoft YaHei;}.cls-5{fill:#0b318f;}.cls-7{fill:#094;}.cls-9{stroke:#172a88;}.cls-12,.cls-9{stroke-width:5px;}.cls-10{fill:#fff;}.cls-11{fill:#172a88;}.cls-12{stroke:#009a3e;}.cls-13{fill:#009a3e;}</style></defs><g id="图层_2" data-name="图层 2"><g id="图层_1-2" data-name="图层 1"><ellipse class="cls-1" cx="75.12" cy="74.98" rx="5.44" ry="5.06"/><line class="cls-2" x1="20.05" y1="75.98" x2="191.1" y2="75.98"/><polygon class="cls-3" points="194.63 75.98 189.65 78.02 190.84 75.98 189.65 73.95 194.63 75.98"/><text class="cls-4" transform="translate(72.7 94.6)">a</text><text class="cls-4" transform="translate(0 79.54)">-∞</text><text class="cls-4" transform="translate(132.53 94.6)">b</text><text class="cls-5" transform="translate(31.08 9.85)">P{X&lt;a}</text><text class="cls-6" transform="translate(58.75 115.77)">P{X=a}</text><text class="cls-7" transform="translate(56.39 37.5)">F(a-0)</text><line class="cls-8" x1="75.12" y1="71.68" x2="75.12" y2="78.54"/><line class="cls-8" x1="135.86" y1="71.68" x2="135.86" y2="78.54"/><line class="cls-9" x1="20.05" y1="16.59" x2="72.48" y2="16.59"/><path class="cls-10" d="M72.16,22.23a5.64,5.64,0,1,0-5.64-5.64A5.64,5.64,0,0,0,72.16,22.23Z"/><path class="cls-11" d="M72.16,23a6.39,6.39,0,1,1,6.39-6.39A6.39,6.39,0,0,1,72.16,23Zm0-11.28a4.89,4.89,0,1,0,4.89,4.89,4.9,4.9,0,0,0-4.89-4.89Z"/><line class="cls-12" x1="20.05" y1="46.62" x2="65.24" y2="46.62"/><path class="cls-10" d="M64.92,52.26a5.64,5.64,0,1,0-5.64-5.64A5.64,5.64,0,0,0,64.92,52.26Z"/><path class="cls-13" d="M64.92,53a6.39,6.39,0,1,1,6.39-6.39A6.4,6.4,0,0,1,64.92,53Zm0-11.28a4.89,4.89,0,1,0,4.89,4.89,4.9,4.9,0,0,0-4.89-4.89Z"/></g></g></svg>