<svg xmlns="http://www.w3.org/2000/svg" xmlns:xlink="http://www.w3.org/1999/xlink" viewBox="0 0 279.5 309"><defs><style>.cls-1,.cls-18,.cls-19,.cls-20,.cls-24,.cls-25,.cls-26,.cls-27,.cls-28{fill:none;}.cls-1,.cls-18,.cls-19,.cls-20{stroke:#231815;}.cls-1,.cls-18,.cls-19,.cls-20,.cls-24,.cls-27{stroke-miterlimit:10;}.cls-1{stroke-width:0.5px;}.cls-2,.cls-21,.cls-22,.cls-3,.cls-4{fill:#231815;}.cls-3{font-size:12px;font-family:AdobeSongStd-Light-GBpc-EUC-H, Adobe Song Std;}.cls-4,.cls-5{font-size:8px;}.cls-22,.cls-4,.cls-5{font-family:MicrosoftYaHei, Microsoft YaHei;}.cls-5{fill:#c30d23;}.cls-6{fill:url(#橙色_黄色);}.cls-7{fill:url(#橙色_黄色-2);}.cls-8{fill:url(#橙色_黄色-3);}.cls-9{fill:url(#橙色_黄色-4);}.cls-10{fill:url(#橙色_黄色-5);}.cls-11{fill:url(#橙色_黄色-6);}.cls-12{fill:url(#橙色_黄色_2);}.cls-13{fill:url(#橙色_黄色-7);}.cls-14{fill:url(#橙色_黄色-8);}.cls-15{fill:url(#橙色_黄色-9);}.cls-16{fill:url(#橙色_黄色-10);}.cls-17{fill:url(#橙色_黄色-11);}.cls-19{stroke-dasharray:2.01 2.01;}.cls-20{stroke-dasharray:2 2;}.cls-21{font-size:71.11px;font-family:MicrosoftYaHeiLight, Microsoft YaHei;}.cls-22{font-size:35.78px;}.cls-23{fill:#040000;fill-rule:evenodd;}.cls-24,.cls-25,.cls-26,.cls-27{stroke:#040000;stroke-linecap:round;}.cls-24,.cls-25{stroke-width:0.38px;}.cls-25,.cls-26{stroke-linejoin:round;}.cls-26,.cls-27{stroke-width:0.22px;}</style><linearGradient id="橙色_黄色" x1="118.46" y1="134.46" x2="118.46" y2="78.02" gradientUnits="userSpaceOnUse"><stop offset="0" stop-color="#fff21f"/><stop offset="0.01" stop-color="#ffef1c"/><stop offset="0.1" stop-color="#fddc0d"/><stop offset="0.19" stop-color="#fcd103"/><stop offset="0.28" stop-color="#fccd00"/><stop offset="0.67" stop-color="#f1942e"/><stop offset="0.89" stop-color="#ea652d"/><stop offset="1" stop-color="#e5352b"/></linearGradient><linearGradient id="橙色_黄色-2" x1="147.07" y1="134.46" x2="147.07" y2="78.02" xlink:href="#橙色_黄色"/><linearGradient id="橙色_黄色-3" x1="128" y1="134.46" x2="128" y2="59.03" xlink:href="#橙色_黄色"/><linearGradient id="橙色_黄色-4" x1="137.53" y1="134.46" x2="137.53" y2="45.84" xlink:href="#橙色_黄色"/><linearGradient id="橙色_黄色-5" x1="156.6" y1="134.46" x2="156.6" y2="64.83" xlink:href="#橙色_黄色"/><linearGradient id="橙色_黄色-6" x1="166.14" y1="134.46" x2="166.14" y2="78.02" xlink:href="#橙色_黄色"/><linearGradient id="橙色_黄色_2" x1="174.05" y1="134.46" x2="174.05" y2="70.63" gradientUnits="userSpaceOnUse"><stop offset="0" stop-color="#ea4f33"/><stop offset="0.04" stop-color="#e94330"/><stop offset="0.12" stop-color="#e8302a"/><stop offset="0.2" stop-color="#e72527"/><stop offset="0.28" stop-color="#e72126"/><stop offset="0.67" stop-color="#ac599f"/><stop offset="0.89" stop-color="#6b499a"/><stop offset="1" stop-color="#45499c"/></linearGradient><linearGradient id="橙色_黄色-7" x1="202.65" y1="134.46" x2="202.65" y2="78.02" xlink:href="#橙色_黄色"/><linearGradient id="橙色_黄色-8" x1="183.58" y1="134.46" x2="183.58" y2="59.03" xlink:href="#橙色_黄色"/><linearGradient id="橙色_黄色-9" x1="193.12" y1="134.46" x2="193.12" y2="93.84" xlink:href="#橙色_黄色"/><linearGradient id="橙色_黄色-10" x1="212.19" y1="134.46" x2="212.19" y2="64.83" xlink:href="#橙色_黄色"/><linearGradient id="橙色_黄色-11" x1="221.73" y1="134.46" x2="221.73" y2="78.02" xlink:href="#橙色_黄色"/></defs><title>资源 39</title><g id="图层_2" data-name="图层 2"><g id="图层_1-2" data-name="图层 1"><polyline class="cls-1" points="253.7 134.46 82.65 134.46 82.65 25.11"/><polygon class="cls-2" points="257.23 134.46 252.25 132.42 253.44 134.46 252.25 136.49 257.23 134.46"/><polygon class="cls-2" points="82.65 21.58 84.68 26.55 82.65 25.37 80.61 26.55 82.65 21.58"/><text class="cls-3" transform="translate(264.88 137.82)">X</text><text class="cls-4" transform="translate(113.54 199.34)">这一块就是 X≤x</text><text class="cls-5" transform="translate(61.89 216.74)">这一块的”每个x的y值”的总和, 即y值的累加<tspan x="9.74" y="12">就是”累积概率函数”(即”分布函数”)</tspan></text><text class="cls-3" transform="translate(170.91 145.96)">x</text><text class="cls-4" transform="translate(9.06 31.27)">每个结果的概率值</text><rect class="cls-6" x="113.69" y="78.02" width="9.54" height="56.44"/><rect class="cls-7" x="142.3" y="78.02" width="9.54" height="56.44"/><rect class="cls-8" x="123.23" y="59.03" width="9.54" height="75.43"/><rect class="cls-9" x="132.76" y="45.84" width="9.54" height="88.62"/><rect class="cls-10" x="151.84" y="64.83" width="9.54" height="69.63"/><rect class="cls-11" x="161.37" y="78.02" width="9.54" height="56.44"/><rect class="cls-12" x="169.28" y="70.63" width="9.54" height="63.82"/><rect class="cls-13" x="197.89" y="78.02" width="9.54" height="56.44"/><rect class="cls-14" x="178.82" y="59.03" width="9.54" height="75.43"/><rect class="cls-15" x="188.35" y="93.84" width="9.54" height="40.62"/><rect class="cls-16" x="207.42" y="64.83" width="9.54" height="69.63"/><rect class="cls-17" x="216.96" y="78.02" width="9.54" height="56.44"/><polyline class="cls-18" points="178.81 162.47 178.81 163.47 177.81 163.47"/><line class="cls-19" x1="175.81" y1="163.47" x2="104.62" y2="163.47"/><polyline class="cls-18" points="103.61 163.47 102.61 163.47 102.61 162.47"/><line class="cls-20" x1="102.62" y1="160.47" x2="102.62" y2="17.77"/><polyline class="cls-18" points="102.61 16.77 102.61 15.78 103.61 15.78"/><line class="cls-19" x1="105.62" y1="15.77" x2="176.81" y2="15.77"/><polyline class="cls-18" points="177.81 15.78 178.81 15.78 178.81 16.77"/><line class="cls-20" x1="178.82" y1="18.77" x2="178.82" y2="161.47"/><text class="cls-21" transform="translate(160.49 189.29) rotate(-90)">{</text><text class="cls-22" transform="translate(130.63 270.47)">Σ</text><path class="cls-23" d="M67.82,289.08q1.16.92,1.83,1.56l-.45.44c-.21-.21-.43-.43-.66-.64l-2,.09v1.06c0,.66-.34,1-1,1H64.32c0-.21-.08-.43-.12-.66.42,0,.79.06,1.13.06s.55-.2.55-.59v-.82l-2.23.1q-.36,0-.69.06l-.23-.6a4.7,4.7,0,0,0,1.13-.29c.56-.21,1.17-.46,1.82-.74l-1.82.08-.59.05-.22-.53a3.79,3.79,0,0,0,.83-.26c.37-.16.73-.33,1.09-.52H63.43v.23h-.62v-3H69.3v3h-.62v-.23H66c-.6.3-1.2.57-1.79.81l2.51-.08,1.17-.55.43.43c-1.31.6-2.65,1.14-4,1.64,1.39-.06,2.64-.12,3.76-.19-.2-.18-.4-.35-.61-.51Zm-1.47-1.63h2.33v-.73H66.35v.73Zm-2.92,0h2.32v-.73H63.43v.73Zm5.25-1.87H66.35v.71h2.33v-.71Zm-5.25.71h2.32v-.71H63.43v.71Zm.91,4.6.36.49c-.79.39-1.58.73-2.35,1-.08-.16-.18-.34-.29-.53.82-.31,1.57-.63,2.28-1Zm3.33,0c.81.27,1.6.56,2.34.89l-.25.54q-1.1-.48-2.37-.9"/><path class="cls-23" d="M73.89,285.52H78v4.15h-.62v-.38H74.51v.38h-.62v-4.15Zm-3.58,5a10.35,10.35,0,0,0,1.27-2.67H70.35v-.56h1.31V286l-1.15.08a3,3,0,0,0-.12-.58c1.12-.06,2.09-.15,2.92-.27l.15.61-1.19.11v1.31h1.22v.56H72.27V289l.33-.3c.33.32.69.68,1.07,1.09l-.47.4c-.3-.35-.61-.69-.93-1v3.56h-.61v-3.55a8.84,8.84,0,0,1-1.06,2.06c-.09-.24-.19-.46-.29-.69Zm7.11-4.47H74.51v2.69h2.91v-2.69Zm-2.66,4.12.54.38c-.62.76-1.22,1.44-1.8,2a5.13,5.13,0,0,0-.47-.44,15.35,15.35,0,0,0,1.73-2Zm1.7.38.51-.34c.51.56,1,1.18,1.57,1.87l-.57.43c-.48-.69-1-1.34-1.51-2"/><path class="cls-23" d="M82.35,289.89l.47-.26c.23.36.49.82.8,1.4l-.49.31-.2-.39-1.05.7a2.45,2.45,0,0,0-.43.38L81,291.5a1,1,0,0,0,.26-.72v-5.49h2v4h-.53v-.26h-1V291c.28-.15.57-.34.89-.55l-.32-.56Zm1.85-1.57h.71A18.27,18.27,0,0,0,85,285.8H83.66v-.51h2.89v.51h-1a17.62,17.62,0,0,1-.12,2.52H86.6v.51H85.38a3.88,3.88,0,0,1-.18.71h.28v2c0,.25.09.37.28.37h.16c.14,0,.24-.11.29-.32a4.05,4.05,0,0,0,.08-1.06,4.32,4.32,0,0,0,.55.21,4.93,4.93,0,0,1-.14,1.15c-.12.38-.32.56-.62.56h-.49c-.44,0-.66-.27-.66-.83v-1.37a6.18,6.18,0,0,1-2.08,2.44,3,3,0,0,0-.42-.45,5.44,5.44,0,0,0,2.39-3.41H83.65l.23-2.63h.5l-.18,2.12Zm-5.56,1.53a12.31,12.31,0,0,0,1-2.84h-.9v-.49h1v-1.69h.54v1.69h.77V287h-.77v1.07l.22-.19a8.21,8.21,0,0,1,.69.79l-.38.31c-.17-.23-.35-.46-.53-.67v4.35h-.54v-4.48a10.79,10.79,0,0,1-.86,2.36c-.07-.22-.15-.46-.24-.7Zm3.14-1.29h1v-1.14h-1v1.14Zm1-2.78h-1v1.14"/><path class="cls-23" d="M90.2,289.06,92,289c-.13-.19-.26-.36-.39-.53l.44-.27a15.2,15.2,0,0,1,1.09,1.34l-.52.32c-.1-.14-.19-.28-.29-.41l-2.58.16a3.11,3.11,0,0,0-.43.08l-.21-.55a1.54,1.54,0,0,0,.37-.15,11.63,11.63,0,0,0,1.37-1c-.4,0-.73,0-1,.06a3,3,0,0,0-.37.07l-.25-.49a1.22,1.22,0,0,0,.38-.22,6.06,6.06,0,0,0,1-1.1H87.19v-.56h3.68c-.14-.23-.26-.44-.38-.62l.59-.28c.21.32.4.62.55.9H95v.56H90.9l.39.2c-.45.44-.82.79-1.13,1.05l1.22,0c.22-.21.44-.43.66-.67l.57.32a22.42,22.42,0,0,1-2.41,2Zm-3.13,1.3h3.75v-.7h.65v.7h3.66v.55H91.47v1.8h-.65v-1.8H87.07v-.55Zm2.07-2.15.3.47-2,1.14-.34-.53q.86-.39,2-1.08Zm4.12,0a18.1,18.1,0,0,1,1.83,1.1l-.36.51a16.44,16.44,0,0,0-1.8-1.18Zm1.5-1.17a14.48,14.48,0,0,1-1.36,1l-.42-.42a7.85,7.85,0,0,0,1.31-1Zm-7.4-.05.42-.39c.45.35.85.68,1.19,1l-.46.44c-.32-.32-.7-.67-1.15-1"/><path class="cls-23" d="M102.36,292.66v-.38H95.85v-5.41h.65v4.82h5.86v-4.82H103v5.79Zm-3.1-5.83,1.95-1H96.56v-.58h5.62v.66l-2.29,1.24v3.14a.89.89,0,0,1-1,1h-1c0-.18,0-.4-.1-.65a8.74,8.74,0,0,0,1,.06c.35,0,.52-.16.52-.47Zm-.51,1.77.34.5c-.67.37-1.39.78-2.15,1.23l-.37-.55c.68-.32,1.41-.72,2.18-1.18Zm1.26.47.39-.46c.61.37,1.24.77,1.89,1.21l-.44.54c-.6-.46-1.22-.89-1.84-1.29Zm-3.18-1.89.4-.43c.55.36,1.08.74,1.59,1.13l-.44.49c-.54-.44-1-.84-1.55-1.19Zm4.83-.35.47.44c-.43.35-.91.73-1.45,1.13l-.42-.45c.48-.34.94-.72,1.4-1.12"/><path class="cls-23" d="M109.06,284.86l.66.09a13.15,13.15,0,0,1-.41,1.45h2.52v.54h-.52a8.64,8.64,0,0,1-1,3.72,5.24,5.24,0,0,0,1.69,1.43c-.18.24-.32.45-.44.63a6.35,6.35,0,0,1-1.67-1.49,7.59,7.59,0,0,1-1.8,1.57,4.14,4.14,0,0,0-.47-.5,7.24,7.24,0,0,0,1.87-1.66,6.86,6.86,0,0,1-.88-2.58c-.12.2-.24.38-.36.55-.11-.15-.25-.32-.41-.51a7.71,7.71,0,0,0,1.27-3.24Zm-5.29,4.6H105c.12-.21.24-.41.35-.63l.6.19-.27.44h2V290a3.69,3.69,0,0,1-.94,1.38l.92.41-.36.55c-.34-.19-.69-.37-1.06-.56a7.44,7.44,0,0,1-2.34,1c-.09-.17-.18-.35-.28-.56a6.61,6.61,0,0,0,2-.75c-.47-.24-1-.48-1.48-.72.18-.24.35-.5.51-.76h-.94v-.52Zm.09-2.74h1.89v-1.79h.61v1.79h1.58v.52h-1.58v.49l.25-.27c.51.36.93.68,1.28,1l-.4.45a14.49,14.49,0,0,0-1.13-.93v.9h-.61v-1.11a8.34,8.34,0,0,1-1.74,1.33c-.1-.15-.22-.32-.35-.49a9.23,9.23,0,0,0,1.9-1.32h-1.7v-.52Zm6.79.22h-1.53l-.09.2a7.15,7.15,0,0,0,.82,2.89,7.49,7.49,0,0,0,.8-3.09ZM105,290.56l1.19.53a3.29,3.29,0,0,0,.89-1.11h-1.71c-.12.2-.25.39-.37.58Zm2.56-5.43.51.33c-.31.38-.61.73-.91,1.06a4.54,4.54,0,0,0-.44-.34q.42-.48.84-1.05Zm-3.49.35.47-.31.76.94-.51.35c-.24-.34-.48-.67-.72-1"/><path class="cls-23" d="M122.88,286.53a.2.2,0,0,1,0,.08.12.12,0,0,1-.09,0h0a0,0,0,0,1,0,0h-.06c-.05,0-.07,0-.07-.06v0c0-.15,0-.29,0-.44a1.94,1.94,0,0,0,0-.33v-.08a2,2,0,0,0,0-.35.71.71,0,0,0-.13-.26.83.83,0,0,0-.54-.27c-.24,0-.49,0-.76-.05h-1a.84.84,0,0,0-.33.05,1.09,1.09,0,0,0-.11.3l-.65,2.48h.71l.48,0a.68.68,0,0,0,.39-.16.66.66,0,0,0,.23-.34,4.7,4.7,0,0,0,.16-.49.14.14,0,0,1,.05-.08l.09,0h.08a.11.11,0,0,1,.08,0,.09.09,0,0,1,0,.08l-.6,2.32a.14.14,0,0,1-.13.11h-.08c-.06,0-.09,0-.09-.08v0c0-.18.08-.35.11-.5s0-.07,0-.11a.42.42,0,0,0-.07-.23.4.4,0,0,0-.31-.15,3.48,3.48,0,0,0-.47,0H119l-.63,2.48a.77.77,0,0,0,0,.15c0,.07,0,.11.07.13a1.29,1.29,0,0,0,.38.06h.54q.09,0,.09.06s0,0,0,0l0,.08a.14.14,0,0,1-.14.1L118,291h-.2l-1.16,0-.07,0s0,0,0,0v0l0-.08a.14.14,0,0,1,0-.08l.09,0h.43a.89.89,0,0,0,.32-.05.43.43,0,0,0,.16-.29l1.36-5.25a1.49,1.49,0,0,0,0-.17c0-.06,0-.09,0-.11a.8.8,0,0,0-.29-.06h-.43c-.06,0-.09,0-.09-.07v0l0-.08a.15.15,0,0,1,.14-.12h4.77a.09.09,0,0,1,.09.1"/><path class="cls-23" d="M127.58,293.32a.11.11,0,0,1,0,.07.08.08,0,0,1-.07,0h-.09a5.18,5.18,0,0,1-1-1,5.34,5.34,0,0,1-.66-1.16,7,7,0,0,1-.38-1.3,7.71,7.71,0,0,1,0-2.71,7,7,0,0,1,.38-1.3,5.34,5.34,0,0,1,.66-1.16,4.9,4.9,0,0,1,1-1l.09,0a.09.09,0,0,1,.07,0,.11.11,0,0,1,0,.14,4.65,4.65,0,0,0-.8,1,5.56,5.56,0,0,0-.53,1.13,7.33,7.33,0,0,0-.29,1.25,10.44,10.44,0,0,0,0,2.58,7.45,7.45,0,0,0,.29,1.24,5.82,5.82,0,0,0,.53,1.13,4.65,4.65,0,0,0,.8,1,.09.09,0,0,1,0,.07"/><path class="cls-23" d="M133.63,287.51a.46.46,0,0,1-.19.29.58.58,0,0,1-.3.09.32.32,0,0,1-.24-.09.25.25,0,0,1-.08-.17.6.6,0,0,1,0-.12.48.48,0,0,1,.15-.25.53.53,0,0,1,.22-.12.73.73,0,0,0-.47-.14.59.59,0,0,0-.49.28,2,2,0,0,0-.31.64l-.44,1.72c0,.17-.08.34-.1.49a1,1,0,0,0,0,.15.88.88,0,0,0,.05.29.57.57,0,0,0,.16.25.39.39,0,0,0,.28.1.77.77,0,0,0,.39-.11,1.13,1.13,0,0,0,.34-.28,1.46,1.46,0,0,0,.27-.41,2,2,0,0,0,.19-.48.12.12,0,0,1,.12-.08h.11c.05,0,.08,0,.08,0s0,0,0,0a2.34,2.34,0,0,1-.22.55,1.86,1.86,0,0,1-.35.47,1.79,1.79,0,0,1-.44.34,1.13,1.13,0,0,1-.54.13,1,1,0,0,1-.49-.12,1,1,0,0,1-.34-.32l-.06-.1s0-.07,0-.11a1.65,1.65,0,0,1-.41.46.86.86,0,0,1-.55.19,1.34,1.34,0,0,1-.35,0,.92.92,0,0,1-.3-.14.55.55,0,0,1-.18-.22.47.47,0,0,1,0-.17.44.44,0,0,1,0-.15.47.47,0,0,1,.2-.29.57.57,0,0,1,.29-.09.39.39,0,0,1,.26.09.21.21,0,0,1,.07.17.5.5,0,0,1,0,.12.51.51,0,0,1-.14.25.55.55,0,0,1-.24.12.78.78,0,0,0,.48.14.63.63,0,0,0,.49-.28,1.87,1.87,0,0,0,.31-.65l.45-1.72a4.74,4.74,0,0,0,.1-.49.76.76,0,0,0,0-.15.66.66,0,0,0-.05-.28.47.47,0,0,0-.16-.25.39.39,0,0,0-.28-.1.83.83,0,0,0-.4.11,1.27,1.27,0,0,0-.34.28,2,2,0,0,0-.27.4,2,2,0,0,0-.18.48.15.15,0,0,1-.13.1h-.1a.06.06,0,0,1-.07-.07v0a2,2,0,0,1,.21-.55,2.13,2.13,0,0,1,.35-.47,2.05,2.05,0,0,1,.45-.34,1.26,1.26,0,0,1,.54-.13,1,1,0,0,1,.48.12,1,1,0,0,1,.35.32,1.17,1.17,0,0,1,0,.11,1.17,1.17,0,0,0,.05.11,1.85,1.85,0,0,1,.41-.47.89.89,0,0,1,.54-.19,2.2,2.2,0,0,1,.36,0,.87.87,0,0,1,.29.14.42.42,0,0,1,.18.22.52.52,0,0,1,0,.18.44.44,0,0,1,0,.15"/><path class="cls-23" d="M137.84,288.61a7.73,7.73,0,0,1-.12,1.36,6.28,6.28,0,0,1-.38,1.3,5.34,5.34,0,0,1-.66,1.16,5.18,5.18,0,0,1-1,1h-.09a.08.08,0,0,1-.07,0,.25.25,0,0,1,0-.07.11.11,0,0,1,0-.07,4.35,4.35,0,0,0,.8-1,5.82,5.82,0,0,0,.53-1.13,6.55,6.55,0,0,0,.28-1.24,9.29,9.29,0,0,0,0-2.58,6.48,6.48,0,0,0-.28-1.25,5.56,5.56,0,0,0-.53-1.13,4.35,4.35,0,0,0-.8-1,.09.09,0,0,1,0-.07.14.14,0,0,1,0-.07.09.09,0,0,1,.07,0h0l.06,0a4.41,4.41,0,0,1,1,1,5.34,5.34,0,0,1,.66,1.16,6.28,6.28,0,0,1,.38,1.3,7.7,7.7,0,0,1,.12,1.35"/><line class="cls-24" x1="141.67" y1="287.18" x2="148.39" y2="287.18"/><line class="cls-24" x1="141.67" y1="289.2" x2="148.39" y2="289.2"/><path class="cls-23" d="M157.72,286.25a1.86,1.86,0,0,1-.36.68,2.21,2.21,0,0,1-.59.55,3.18,3.18,0,0,1-.81.39,2.72,2.72,0,0,1-.84.13h-1.47l-.61,2.38a.67.67,0,0,0,0,.18.13.13,0,0,0,.05.11.58.58,0,0,0,.28.05h.43c.06,0,.09,0,.09.08v0l0,.08a.14.14,0,0,1-.14.1l-1.21,0-1.23,0c-.06,0-.09,0-.09-.07v0l0-.08a.13.13,0,0,1,.14-.11h.43a.85.85,0,0,0,.32-.05.45.45,0,0,0,.17-.29l1.35-5.28a.67.67,0,0,0,0-.17c0-.06,0-.09,0-.11a.58.58,0,0,0-.28-.05h-.43c-.06,0-.09,0-.09-.08v0l0-.08a.11.11,0,0,1,.13-.1H156a2.19,2.19,0,0,1,.77.13,1.64,1.64,0,0,1,.61.39,1.49,1.49,0,0,1,.32.56c0,.11,0,.21,0,.32a1.69,1.69,0,0,1,0,.38Zm-.94,0a3.15,3.15,0,0,0,.12-.58v-.09a.8.8,0,0,0-.13-.42.94.94,0,0,0-.45-.31,1.87,1.87,0,0,0-.59-.09h-.91a.73.73,0,0,0-.33,0,.59.59,0,0,0-.11.3l-.69,2.64H155a2.35,2.35,0,0,0,.64-.09,1.68,1.68,0,0,0,.61-.31,1.39,1.39,0,0,0,.37-.51,3.06,3.06,0,0,0,.2-.58"/><path class="cls-23" d="M162.48,293.32a.25.25,0,0,1,0,.07.08.08,0,0,1-.07,0h-.09a4.89,4.89,0,0,1-1-1,5.34,5.34,0,0,1-.66-1.16,6.28,6.28,0,0,1-.38-1.3,7.71,7.71,0,0,1,0-2.71,6.28,6.28,0,0,1,.38-1.3,5.34,5.34,0,0,1,.66-1.16,4.64,4.64,0,0,1,1-1,.14.14,0,0,1,.09,0,.11.11,0,0,1,.07,0,.25.25,0,0,1,0,.07.11.11,0,0,1,0,.07,4.65,4.65,0,0,0-.8,1,5.07,5.07,0,0,0-.53,1.13,6.49,6.49,0,0,0-.29,1.25,10.44,10.44,0,0,0,0,2.58,6.57,6.57,0,0,0,.29,1.24,5.29,5.29,0,0,0,.53,1.13,4.35,4.35,0,0,0,.8,1,.09.09,0,0,1,0,.07"/><path class="cls-23" d="M171.49,284.65c0,.07-.07.11-.14.11a1.65,1.65,0,0,0-.75.17,1.93,1.93,0,0,0-.65.5l-1.73,1.92,1.12,3a1,1,0,0,0,.1.21.32.32,0,0,0,.14.14.6.6,0,0,0,.26.05h.35q.09,0,.09.06a.09.09,0,0,1,0,0l0,.08a.13.13,0,0,1-.14.1l-1,0H169l-1.13,0c-.06,0-.09,0-.09-.07v0l0-.08a.12.12,0,0,1,.13-.11,1,1,0,0,0,.24,0,.77.77,0,0,0,.23-.1c.08-.05.11-.1.11-.14v0L167.6,288l-1.93,2.14a.35.35,0,0,0-.1.25.27.27,0,0,0,0,.12.36.36,0,0,0,.36.19c.06,0,.09,0,.09.08v0l0,.08a.13.13,0,0,1-.13.1l-1,0h-.14l-.85,0a.1.1,0,0,1-.07,0s0,0,0,0a.06.06,0,0,1,0,0l0-.08c0-.08.06-.11.13-.11a1.64,1.64,0,0,0,.38,0,1.9,1.9,0,0,0,.38-.13,2.5,2.5,0,0,0,.35-.21,2.06,2.06,0,0,0,.3-.29l2.08-2.31-1-2.59a1.23,1.23,0,0,0-.1-.2.29.29,0,0,0-.13-.14.63.63,0,0,0-.26-.05h-.36a.06.06,0,0,1-.06,0,0,0,0,0,1,0,0s0,0,0,0l0-.08a.13.13,0,0,1,.14-.1c.32,0,.64,0,1,0h.17c.37,0,.74,0,1.12,0,.06,0,.09,0,.09.08v0l0,.08a.12.12,0,0,1-.13.11.83.83,0,0,0-.47.13c-.08.05-.11.09-.11.13v0l.77,2,1.57-1.76a.4.4,0,0,0,.1-.18s0,0,0-.06a.2.2,0,0,0,0-.11.37.37,0,0,0-.38-.2.07.07,0,0,1-.08-.08v0l0-.08a.14.14,0,0,1,.14-.1c.32,0,.65,0,1,0h.14c.27,0,.55,0,.84,0,.06,0,.09,0,.09.08"/><line class="cls-25" x1="180.57" y1="288.97" x2="174.39" y2="286.79"/><line class="cls-25" x1="174.39" y1="286.79" x2="180.57" y2="284.61"/><path class="cls-23" d="M180.57,289.17a.2.2,0,0,1-.19-.2.2.2,0,0,1,.19-.19.19.19,0,0,1,.19.19.19.19,0,0,1-.19.2Z"/><path class="cls-23" d="M174.39,287a.19.19,0,1,1,.19-.19.18.18,0,0,1-.19.19Z"/><path class="cls-23" d="M180.57,284.8a.2.2,0,0,1-.19-.19.2.2,0,0,1,.19-.2.19.19,0,0,1,.19.2.19.19,0,0,1-.19.19Z"/><line class="cls-24" x1="174.39" y1="290.82" x2="180.57" y2="290.82"/><path class="cls-23" d="M188.2,287.51a.47.47,0,0,1-.2.29.55.55,0,0,1-.29.09.35.35,0,0,1-.25-.09.21.21,0,0,1-.07-.17.27.27,0,0,1,0-.12.48.48,0,0,1,.15-.25.5.5,0,0,1,.21-.12.73.73,0,0,0-.47-.14.59.59,0,0,0-.48.28,1.82,1.82,0,0,0-.31.64l-.45,1.72c0,.17-.07.34-.1.49a1,1,0,0,0,0,.15.68.68,0,0,0,.06.29.48.48,0,0,0,.15.25.4.4,0,0,0,.28.1.83.83,0,0,0,.4-.11,1.27,1.27,0,0,0,.34-.28,2.08,2.08,0,0,0,.27-.41,2.53,2.53,0,0,0,.19-.48.1.1,0,0,1,.11-.08h.11c.06,0,.08,0,.08,0s0,0,0,0a2,2,0,0,1-.21.55,2.13,2.13,0,0,1-.35.47,1.67,1.67,0,0,1-.45.34,1.12,1.12,0,0,1-.53.13.94.94,0,0,1-.49-.12,1,1,0,0,1-.34-.32.27.27,0,0,1-.06-.1.54.54,0,0,1-.05-.11,1.65,1.65,0,0,1-.41.46.84.84,0,0,1-.55.19,1.39,1.39,0,0,1-.35,0,.87.87,0,0,1-.29-.14.5.5,0,0,1-.19-.22.47.47,0,0,1,0-.17,1,1,0,0,1,0-.15.47.47,0,0,1,.2-.29.58.58,0,0,1,.3-.09.37.37,0,0,1,.25.09.21.21,0,0,1,.07.17.25.25,0,0,1,0,.12.44.44,0,0,1-.14.25.57.57,0,0,1-.23.12.73.73,0,0,0,.47.14.62.62,0,0,0,.49-.28,1.71,1.71,0,0,0,.31-.65l.45-1.72c0-.17.08-.33.11-.49v-.15a.86.86,0,0,0,0-.28.56.56,0,0,0-.17-.25.37.37,0,0,0-.28-.1.77.77,0,0,0-.39.11,1.31,1.31,0,0,0-.35.28,2,2,0,0,0-.27.4,1.62,1.62,0,0,0-.17.48.17.17,0,0,1-.14.1H184a.06.06,0,0,1-.07-.07v0a2.34,2.34,0,0,1,.22-.55,1.65,1.65,0,0,1,.35-.47,1.67,1.67,0,0,1,.45-.34,1.19,1.19,0,0,1,.53-.13,1,1,0,0,1,.49.12,1,1,0,0,1,.34.32.37.37,0,0,1,0,.11l.05.11a1.85,1.85,0,0,1,.41-.47.92.92,0,0,1,.55-.19,2.09,2.09,0,0,1,.35,0,.83.83,0,0,1,.3.14.55.55,0,0,1,.18.22.52.52,0,0,1,0,.18,1,1,0,0,1,0,.15"/><path class="cls-23" d="M192.41,288.61a7.73,7.73,0,0,1-.12,1.36,6.3,6.3,0,0,1-.39,1.3,5.34,5.34,0,0,1-.66,1.16,4.64,4.64,0,0,1-1,1h-.09a.1.1,0,0,1-.07,0,.2.2,0,0,1,0-.07.19.19,0,0,1,0-.07,4.1,4.1,0,0,0,.8-1,5.29,5.29,0,0,0,.53-1.13,6.57,6.57,0,0,0,.29-1.24,9.36,9.36,0,0,0,.08-1.3,9.26,9.26,0,0,0-.08-1.28,6.49,6.49,0,0,0-.29-1.25,5.07,5.07,0,0,0-.53-1.13,4.1,4.1,0,0,0-.8-1,.14.14,0,0,1,0-.07.15.15,0,0,1,0-.07.11.11,0,0,1,.07,0h0l.06,0a4.69,4.69,0,0,1,1,1,5.74,5.74,0,0,1,.65,1.16,6.3,6.3,0,0,1,.39,1.3,7.7,7.7,0,0,1,.12,1.35"/><line class="cls-24" x1="196.23" y1="287.18" x2="202.95" y2="287.18"/><line class="cls-24" x1="196.23" y1="289.2" x2="202.95" y2="289.2"/><path class="cls-23" d="M210.13,298.42a.28.28,0,0,1-.12.16.41.41,0,0,1-.19.05.2.2,0,0,1-.15-.05.16.16,0,0,1,0-.1.21.21,0,0,1,0-.06.28.28,0,0,1,.09-.14.37.37,0,0,1,.14-.07.51.51,0,0,0-.3-.08.39.39,0,0,0-.3.16,1,1,0,0,0-.2.36l-.27,1c0,.1-.05.19-.07.28a.25.25,0,0,0,0,.08.41.41,0,0,0,0,.16.3.3,0,0,0,.1.14.26.26,0,0,0,.18.06.53.53,0,0,0,.24-.06,1.12,1.12,0,0,0,.22-.16,1.37,1.37,0,0,0,.17-.23,1.59,1.59,0,0,0,.12-.27s0-.05.07-.05h.07s.05,0,.05,0,0,0,0,0a1.06,1.06,0,0,1-.14.31,1.09,1.09,0,0,1-.21.26,1.12,1.12,0,0,1-.29.19.73.73,0,0,1-.33.08.74.74,0,0,1-.31-.07.91.91,0,0,1-.21-.18.21.21,0,0,1,0-.06l0-.06a1,1,0,0,1-.25.26.61.61,0,0,1-.35.11.83.83,0,0,1-.22,0,.75.75,0,0,1-.18-.07.49.49,0,0,1-.12-.13.29.29,0,0,1,0-.09.37.37,0,0,1,0-.09.28.28,0,0,1,.12-.16.41.41,0,0,1,.19-.05.24.24,0,0,1,.16.05.12.12,0,0,1,0,.1.13.13,0,0,1,0,.06.28.28,0,0,1-.09.14.35.35,0,0,1-.15.07.56.56,0,0,0,.3.08.41.41,0,0,0,.31-.16.89.89,0,0,0,.19-.36l.28-1a2.68,2.68,0,0,0,.07-.27s0-.06,0-.08a.42.42,0,0,0,0-.16.24.24,0,0,0-.1-.14.24.24,0,0,0-.17-.06.54.54,0,0,0-.25.06.82.82,0,0,0-.22.16,1.28,1.28,0,0,0-.17.22,1.53,1.53,0,0,0-.11.27.08.08,0,0,1-.08.06h-.07a0,0,0,0,1,0,0v0a1,1,0,0,1,.14-.3,1.39,1.39,0,0,1,.21-.27,1.12,1.12,0,0,1,.29-.19.72.72,0,0,1,.33-.07.62.62,0,0,1,.31.07.46.46,0,0,1,.21.18.09.09,0,0,1,0,.06l0,.06a1,1,0,0,1,.25-.26.63.63,0,0,1,.35-.11l.22,0a.49.49,0,0,1,.18.08.3.3,0,0,1,.12.13.24.24,0,0,1,0,.09.29.29,0,0,1,0,.09"/><path class="cls-23" d="M211.84,300.14a.13.13,0,0,1-.07.1.2.2,0,0,1-.11,0,.12.12,0,0,1-.09,0,.06.06,0,0,1,0-.06s0,0,0,0a.13.13,0,0,1,.07-.08.12.12,0,0,1,.09,0,.11.11,0,0,0-.1,0,.37.37,0,0,0-.21.06.9.9,0,0,0-.19.15l-.18.18a1,1,0,0,1-.2.15l.21,0a.54.54,0,0,1,.17.08.23.23,0,0,1,.1.12s0,.06,0,.09,0,0,0,.08a.74.74,0,0,0,0,.14v.11a.08.08,0,0,0,0,.07.1.1,0,0,0,.08,0,.17.17,0,0,0,.1,0l.08-.09.06-.14s0-.1.05-.16,0,0,0,0h0s0,0,0,0h0a1.42,1.42,0,0,1,0,.16.8.8,0,0,1-.08.16l-.12.12a.26.26,0,0,1-.17.05.35.35,0,0,1-.16,0,.24.24,0,0,1-.1-.1.29.29,0,0,1-.05-.13v0a.5.5,0,0,1,0-.12s0-.05,0-.07a.19.19,0,0,0-.08-.16.51.51,0,0,0-.3-.11l-.19.66a.16.16,0,0,1-.06.08l-.09,0-.07,0a.08.08,0,0,1,0-.05v0l.55-1.88a.25.25,0,0,0,0-.08h0s0,0,0,0l-.09,0h-.16v0h0v0a.07.07,0,0,1,0,0l.47,0h0v0h0l-.39,1.36.15-.08.13-.12.14-.14.14-.12.15-.09a.41.41,0,0,1,.19,0,.19.19,0,0,1,.22.18.14.14,0,0,1,0,.06"/><line class="cls-26" x1="217.13" y1="299.24" x2="213.67" y2="298.02"/><line class="cls-26" x1="213.67" y1="298.02" x2="217.13" y2="296.79"/><path class="cls-23" d="M217.13,299.35a.11.11,0,1,1,.11-.11.11.11,0,0,1-.11.11Z"/><path class="cls-23" d="M213.67,298.12a.1.1,0,0,1-.11-.1.11.11,0,0,1,.22,0,.1.1,0,0,1-.11.1Z"/><path class="cls-23" d="M217.13,296.9a.11.11,0,1,1,.11-.11.11.11,0,0,1-.11.11Z"/><line class="cls-27" x1="213.67" y1="300.27" x2="217.13" y2="300.27"/><path class="cls-23" d="M221.8,298.42a.26.26,0,0,1-.13.16.41.41,0,0,1-.18.05.21.21,0,0,1-.16-.05.12.12,0,0,1,0-.1.15.15,0,0,1,0-.06.28.28,0,0,1,.09-.14.46.46,0,0,1,.14-.07.51.51,0,0,0-.3-.08.41.41,0,0,0-.3.16.89.89,0,0,0-.19.36l-.28,1c0,.1-.05.19-.07.28s0,.06,0,.08a.29.29,0,0,0,0,.16.28.28,0,0,0,.09.14.28.28,0,0,0,.18.06.57.57,0,0,0,.25-.06,1.06,1.06,0,0,0,.21-.16,1.37,1.37,0,0,0,.17-.23,1.59,1.59,0,0,0,.12-.27.07.07,0,0,1,.07-.05h.07s0,0,0,0,0,0,0,0a1,1,0,0,1-.13.31,1.43,1.43,0,0,1-.22.26,1.07,1.07,0,0,1-.28.19.81.81,0,0,1-.34.08.7.7,0,0,1-.3-.07.79.79,0,0,1-.22-.18l0-.06,0-.06a1.07,1.07,0,0,1-.26.26.61.61,0,0,1-.35.11l-.21,0a.69.69,0,0,1-.19-.07.49.49,0,0,1-.12-.13.28.28,0,0,1,0-.09.31.31,0,0,1,0-.09.28.28,0,0,1,.12-.16.45.45,0,0,1,.19-.05.22.22,0,0,1,.16.05.12.12,0,0,1,0,.1.13.13,0,0,1,0,.06.28.28,0,0,1-.09.14.35.35,0,0,1-.15.07.56.56,0,0,0,.3.08.41.41,0,0,0,.31-.16.89.89,0,0,0,.19-.36l.29-1a2.61,2.61,0,0,0,.06-.27.25.25,0,0,0,0-.08.41.41,0,0,0,0-.16.3.3,0,0,0-.1-.14.28.28,0,0,0-.18-.06.54.54,0,0,0-.25.06.65.65,0,0,0-.21.16,1,1,0,0,0-.18.22c0,.09-.08.18-.11.27a.08.08,0,0,1-.08.06h-.06a0,0,0,0,1,0,0v0a1.35,1.35,0,0,1,.14-.3,1.13,1.13,0,0,1,.22-.27,1.07,1.07,0,0,1,.28-.19.77.77,0,0,1,.34-.07.6.6,0,0,1,.3.07.55.55,0,0,1,.22.18l0,.06,0,.06a1.07,1.07,0,0,1,.26-.26.58.58,0,0,1,.34-.11l.22,0a.64.64,0,0,1,.19.08.28.28,0,0,1,.11.13.24.24,0,0,1,0,.09s0,.06,0,.09"/><path class="cls-23" d="M228.94,289a4.18,4.18,0,0,1-.32.8,3.13,3.13,0,0,1-.55.72,2.66,2.66,0,0,1-.63.47,1.53,1.53,0,0,1-.71.18.72.72,0,0,1-.49-.16,1.14,1.14,0,0,1-.3-.39l-.43,1.67,0,.18a.1.1,0,0,0,.05.1.51.51,0,0,0,.24.06h.38c.05,0,.08,0,.08.07v0l0,.08c0,.07-.07.11-.14.1l-.92,0H225l-.8,0s-.08,0-.08-.07v0l0-.08a.15.15,0,0,1,.14-.1h.29a.39.39,0,0,0,.18,0s.08-.12.12-.29l1.12-4.33a2.35,2.35,0,0,0,.08-.53v-.12c0-.18-.11-.27-.28-.27s-.29.12-.39.36a6.16,6.16,0,0,0-.29.91.15.15,0,0,1-.13.1h-.11a.07.07,0,0,1-.07-.07v0c0-.14.09-.3.13-.47a2.92,2.92,0,0,1,.19-.49,1.59,1.59,0,0,1,.29-.38.64.64,0,0,1,.43-.15.78.78,0,0,1,.81.69,3.23,3.23,0,0,1,.56-.49,1.21,1.21,0,0,1,.65-.2,1,1,0,0,1,.61.19,1.23,1.23,0,0,1,.39.46,1.83,1.83,0,0,1,.18.73v.07a3.13,3.13,0,0,1-.1.73Zm-.62-1.42a1,1,0,0,0-.17-.39.44.44,0,0,0-.35-.15.81.81,0,0,0-.47.16,1.79,1.79,0,0,0-.44.39c-.1.13-.19.25-.27.37l-.53,2.07,0,.2c0,.05,0,.11,0,.17a1.05,1.05,0,0,0,.23.4.53.53,0,0,0,.39.16.74.74,0,0,0,.43-.16,1.72,1.72,0,0,0,.37-.39,2.43,2.43,0,0,0,.36-.67c.08-.24.15-.49.21-.74s.12-.5.17-.74a2,2,0,0,0,0-.34,1.32,1.32,0,0,0,0-.34"/><path class="cls-23" d="M232.05,290.42a.28.28,0,0,1-.12.16.41.41,0,0,1-.19.05.25.25,0,0,1-.15-.05.13.13,0,0,1,0-.1.13.13,0,0,1,0-.06.22.22,0,0,1,.11-.15.33.33,0,0,1,.16-.07.24.24,0,0,0-.17-.07.66.66,0,0,0-.36.11,2.42,2.42,0,0,0-.31.25l-.31.3a1.35,1.35,0,0,1-.33.26,1.53,1.53,0,0,1,.36.07.8.8,0,0,1,.28.13.39.39,0,0,1,.16.2.33.33,0,0,1,0,.15.59.59,0,0,1,0,.13c0,.09,0,.16,0,.24a.49.49,0,0,0,0,.12v.06a.32.32,0,0,0,.05.13.2.2,0,0,0,.14,0,.26.26,0,0,0,.17-.05.64.64,0,0,0,.13-.15c0-.07.07-.14.1-.23a2.29,2.29,0,0,0,.08-.28.08.08,0,0,1,.08-.05h.07s.05,0,.05,0h0l-.09.28a1.17,1.17,0,0,1-.15.27.64.64,0,0,1-.2.2.43.43,0,0,1-.28.09.57.57,0,0,1-.27-.06.52.52,0,0,1-.17-.16.56.56,0,0,1-.07-.23v-.06a1.49,1.49,0,0,1,0-.21.5.5,0,0,0,0-.12.35.35,0,0,0-.13-.27,1.09,1.09,0,0,0-.5-.18l-.32,1.11a.22.22,0,0,1-.1.13.3.3,0,0,1-.15.05.21.21,0,0,1-.13-.05.1.1,0,0,1,0-.08.43.43,0,0,0,0-.05l.91-3.15a.5.5,0,0,0,0-.14h0a.08.08,0,0,0,0-.05.39.39,0,0,0-.15,0H230l0,0s0,0,0,0v0l0-.05a.1.1,0,0,1,.08-.06l.79,0h0v0L230.2,291a.58.58,0,0,0,.24-.14,2.11,2.11,0,0,0,.23-.19l.23-.23.24-.21a1.1,1.1,0,0,1,.26-.15.73.73,0,0,1,.3-.06.36.36,0,0,1,.3.12.24.24,0,0,1,.07.18.23.23,0,0,1,0,.11"/><path class="cls-23" d="M220,295.13H207.88l-.1,0a.14.14,0,0,1-.05-.13.22.22,0,0,1,0-.1l5.17-6.22-5.17-6.9a.22.22,0,0,1,0-.1v-.24c0-.11.05-.17.15-.17H220l1.22,3.27h-.35a3.34,3.34,0,0,0-.81-1.24,4.44,4.44,0,0,0-1.26-.85,4.8,4.8,0,0,0-1.05-.35,10.4,10.4,0,0,0-1.16-.19c-.41,0-.82-.07-1.22-.07h-6.06l4.72,6.3q.08.12,0,.18l-5.06,6.07h6.48a11.76,11.76,0,0,0,1.2-.06,10.23,10.23,0,0,0,1.15-.18,5.07,5.07,0,0,0,1.06-.35,4.48,4.48,0,0,0,1.24-.85,2.92,2.92,0,0,0,.77-1.24"/><rect class="cls-28" width="279.5" height="309"/></g></g></svg>