<svg xmlns="http://www.w3.org/2000/svg" viewBox="0 0 656.24 679.99"><defs><style>.cls-1,.cls-13,.cls-16,.cls-17,.cls-18,.cls-20,.cls-22,.cls-23,.cls-8,.cls-9{fill:none;}.cls-1,.cls-12,.cls-16,.cls-17,.cls-20,.cls-7,.cls-8{stroke:#231815;}.cls-1,.cls-12,.cls-13,.cls-16,.cls-17,.cls-18,.cls-20,.cls-22,.cls-7,.cls-8,.cls-9{stroke-miterlimit:10;}.cls-1,.cls-13,.cls-16,.cls-17{stroke-width:0.5px;}.cls-10,.cls-11,.cls-19,.cls-2,.cls-3,.cls-4,.cls-6{fill:#231815;}.cls-3{font-size:12px;font-family:AdobeSongStd-Light-GBpc-EUC-H, Adobe Song Std;}.cls-4,.cls-5{font-size:8px;}.cls-10,.cls-11,.cls-15,.cls-4,.cls-5,.cls-6{font-family:MicrosoftYaHei, Microsoft YaHei;}.cls-14,.cls-15,.cls-5{fill:#c30d23;}.cls-6{font-size:6px;}.cls-7{fill:#094;}.cls-9{stroke:#094;stroke-width:2px;}.cls-10{font-size:10.05px;}.cls-11{font-size:5.03px;}.cls-12{fill:#00a0e9;}.cls-13{stroke:#c30d23;}.cls-15{font-size:10.81px;}.cls-16{stroke-dasharray:1.92 1.92;}.cls-17{stroke-dasharray:1.99 1.99;}.cls-18{stroke:#00a0e9;stroke-width:3px;stroke-dasharray:12 2;}.cls-19{font-size:12.76px;font-family:MicrosoftYaHeiLight, Microsoft YaHei;}.cls-20{stroke-width:0.75px;}.cls-21{fill:#040000;fill-rule:evenodd;}.cls-22{stroke:#040000;stroke-linecap:round;stroke-width:0.38px;}</style></defs><title>资源 40</title><g id="图层_2" data-name="图层 2"><g id="图层_1-2" data-name="图层 1"><line class="cls-1" x1="203.84" y1="160.03" x2="100.2" y2="160.03"/><polygon class="cls-2" points="96.67 160.03 101.65 158 100.47 160.03 101.65 162.06 96.67 160.03"/><line class="cls-1" x1="58.97" y1="160.03" x2="32.79" y2="160.03"/><polygon class="cls-2" points="29.26 160.03 34.24 158 33.06 160.03 34.24 162.06 29.26 160.03"/><line class="cls-1" x1="58.97" y1="145.73" x2="58.97" y2="101.74"/><polygon class="cls-2" points="58.97 98.21 61 103.19 58.97 102.01 56.94 103.19 58.97 98.21"/><polygon class="cls-2" points="58.97 160.03 61 165.01 58.97 163.83 56.94 165.01 58.97 160.03"/><line class="cls-1" x1="251.86" y1="160.03" x2="422.91" y2="160.03"/><polygon class="cls-2" points="426.44 160.03 421.46 162.07 422.64 160.03 421.46 158 426.44 160.03"/><line class="cls-1" x1="281.56" y1="160.5" x2="281.56" y2="101.74"/><polygon class="cls-2" points="281.56 98.21 283.6 103.18 281.56 102 279.53 103.18 281.56 98.21"/><text class="cls-3" transform="translate(93.76 173.35)">a</text><path class="cls-1" d="M96.67,120.91c6.26-4.21,12.22-6.83,19.88-6.38,16.92,1,36.42,25,49.92,31.5S211,157,211,157"/><path class="cls-1" d="M27,153.53s14.42-.06,32-7.8"/><path class="cls-1" d="M251.86,157s30.31-1,40.81-6.5,48-41.86,99.5-41.18"/><text class="cls-4" transform="translate(88.4 185.53)">概率函数 f(x)</text><text class="cls-5" transform="translate(113.62 39.03)">左边这块”绿色面积”的值 = 右边这条”绿线”的长度</text><text class="cls-6" transform="translate(29.46 104.53)">每个结果<tspan x="0" y="7.2">的概率值</tspan></text><text class="cls-4" transform="translate(311.59 185.53)">累加函数 / 即分布函数 F(x)</text><text class="cls-4" transform="translate(241.84 104.53)">Σ(P(X≤i))</text><path class="cls-7" d="M96.67,120.91V160H59v-14.3a96.83,96.83,0,0,0,10.18-5.24C81.1,133.39,89.1,126,96.67,120.91Z"/><line class="cls-8" x1="96.67" y1="160.5" x2="96.67" y2="160.03"/><text class="cls-3" transform="translate(326.26 173.35)">a</text><line class="cls-9" x1="329.17" y1="126.44" x2="329.17" y2="160.5"/><line class="cls-1" x1="203.84" y1="391.76" x2="126.87" y2="391.76"/><polygon class="cls-2" points="123.34 391.76 128.32 389.73 127.14 391.76 128.32 393.8 123.34 391.76"/><polyline class="cls-1" points="96.67 391.76 58.97 391.76 32.79 391.76"/><polygon class="cls-2" points="29.26 391.76 34.24 389.73 33.06 391.76 34.24 393.8 29.26 391.76"/><line class="cls-1" x1="58.97" y1="392.23" x2="58.97" y2="333.47"/><polygon class="cls-2" points="58.97 329.94 61 334.92 58.97 333.74 56.94 334.92 58.97 329.94"/><line class="cls-1" x1="251.86" y1="391.77" x2="422.91" y2="391.77"/><polygon class="cls-2" points="426.44 391.77 421.46 393.8 422.64 391.77 421.46 389.74 426.44 391.77"/><line class="cls-1" x1="281.56" y1="392.23" x2="281.56" y2="333.47"/><polygon class="cls-2" points="281.56 329.94 283.6 334.92 281.56 333.74 279.53 334.92 281.56 329.94"/><text class="cls-3" transform="translate(93.76 405.09)">a</text><text class="cls-3" transform="translate(123.34 405.09)">b</text><path class="cls-1" d="M123.34,347.76c15.15,5.51,31.4,24.35,43.13,30,13.5,6.5,44.48,11,44.48,11"/><path class="cls-1" d="M96.67,352.64c-7.57,5.08-15.57,12.48-27.52,19.58A94.81,94.81,0,0,1,59,377.45c-17.58,7.75-32,7.81-32,7.81"/><path class="cls-1" d="M251.86,388.77s30.31-1,40.81-6.5,48-41.87,99.5-41.19"/><text class="cls-4" transform="translate(88.4 417.27)">概率函数 f(x)</text><text class="cls-10" transform="translate(131.8 342.02)"><tspan xml:space="preserve">=∫  f(x) - ∫  f(x)</tspan></text><text class="cls-11" transform="translate(145.11 337.17)">b<tspan x="0.13" y="7.54">0</tspan></text><text class="cls-11" transform="translate(183.02 337.17)">a<tspan x="-0.08" y="7.54">0</tspan></text><text class="cls-6" transform="translate(29.46 336.27)">每个结果<tspan x="0" y="7.2">的概率值</tspan></text><text class="cls-4" transform="translate(311.59 417.27)">累加函数 / 即分布函数 F(x)</text><text class="cls-4" transform="translate(241.84 336.27)">Σ(P(X≤i))</text><line class="cls-8" x1="96.67" y1="392.23" x2="96.67" y2="391.76"/><path class="cls-12" d="M123.34,347.76v44H96.67V352.64c6.26-4.21,12.22-6.83,19.88-6.38A24,24,0,0,1,123.34,347.76Z"/><line class="cls-8" x1="123.34" y1="392.23" x2="123.34" y2="391.76"/><text class="cls-3" transform="translate(356.17 405.09)">b</text><text class="cls-3" transform="translate(371.51 356.19)">=F(b)-F(a)</text><line class="cls-8" x1="356.17" y1="347.77" x2="356.17" y2="392.23"/><text class="cls-3" transform="translate(326.26 405.09)">a</text><line class="cls-8" x1="329.17" y1="358.17" x2="329.17" y2="392.23"/><line class="cls-1" x1="29.26" y1="631.47" x2="200.31" y2="631.47"/><polygon class="cls-2" points="203.84 631.47 198.87 633.5 200.05 631.47 198.87 629.44 203.84 631.47"/><line class="cls-1" x1="58.97" y1="631.94" x2="58.97" y2="573.18"/><polygon class="cls-2" points="58.97 569.65 61 574.62 58.97 573.44 56.94 574.62 58.97 569.65"/><line class="cls-1" x1="251.86" y1="631.47" x2="422.91" y2="631.47"/><polygon class="cls-2" points="426.44 631.47 421.46 633.5 422.64 631.47 421.46 629.44 426.44 631.47"/><line class="cls-1" x1="281.56" y1="631.94" x2="281.56" y2="573.18"/><polygon class="cls-2" points="281.56 569.65 283.6 574.62 281.56 573.44 279.53 574.62 281.56 569.65"/><text class="cls-3" transform="translate(93.76 644.79)">x</text><path class="cls-1" d="M27,625s20.37-.09,42.18-13,30.49-27,47.4-26,36.42,25,49.92,31.5,44.48,11,44.48,11"/><path class="cls-1" d="M251.86,628.47s30.31-1,40.81-6.5,48-41.86,99.5-41.18"/><text class="cls-4" transform="translate(88.4 656.97)">概率函数 f(x)</text><text class="cls-6" transform="translate(29.46 575.97)">每个结果<tspan x="0" y="7.2">的概率值</tspan></text><text class="cls-4" transform="translate(311.59 656.97)">累加函数 / 即分布函数 F(x)</text><text class="cls-4" transform="translate(489.5 585.44)">或者说，它反映了概率在 x 点处&quot;密集程度&quot;.</text><text class="cls-4" transform="translate(241.84 575.97)">Σ(P(X≤i))</text><line class="cls-8" x1="96.67" y1="592.35" x2="96.67" y2="631.94"/><text class="cls-3" transform="translate(326.26 644.79)">x</text><line class="cls-8" x1="329.17" y1="598.59" x2="329.17" y2="631.94"/><circle class="cls-2" cx="329.17" cy="598.78" r="3.76"/><path class="cls-13" d="M76.67,147C96.4,85.94,152,45.49,211.17,47c65.71,1.72,103.91,54.43,112.65,68"/><polygon class="cls-14" points="325.67 118.03 321.31 114.89 323.66 114.82 324.76 112.74 325.67 118.03"/><text class="cls-5" transform="translate(142.95 253.09)">左边这块”蓝色面积”的值 = 右边这条”蓝线段”的长度</text><text class="cls-15" transform="translate(150.04 522.49)">∫ 概率 f(x) = 累加 F(x)<tspan x="11.65" y="16.21">(累加 F)’=概率 f</tspan></text><path class="cls-13" d="M110,361.09c17.61-63.48,75.53-104.7,134.5-100,45.37,3.61,86,34,105.75,78"/><polygon class="cls-14" points="351.67 342.37 347.75 338.69 350.09 338.92 351.44 337 351.67 342.37"/><path class="cls-13" d="M81.09,595c17.61-63.48,75.54-104.7,134.5-100,45.37,3.62,86,34,105.76,78"/><polygon class="cls-14" points="322.75 576.3 318.83 572.63 321.17 572.85 322.53 570.93 322.75 576.3"/><line class="cls-1" x1="329.17" y1="358.17" x2="330.17" y2="358.17"/><line class="cls-16" x1="332.09" y1="358.17" x2="354.21" y2="358.17"/><line class="cls-1" x1="355.17" y1="358.17" x2="356.17" y2="358.17"/><line class="cls-1" x1="314.43" y1="604.48" x2="315.32" y2="604.02"/><line class="cls-17" x1="317.1" y1="603.12" x2="387.13" y2="567.32"/><line class="cls-1" x1="388.02" y1="566.86" x2="388.91" y2="566.41"/><line class="cls-18" x1="356.17" y1="346.52" x2="356.17" y2="358.17"/><text class="cls-19" transform="translate(359.48 356.19)">}</text><line class="cls-20" x1="128.34" y1="340.12" x2="116.62" y2="357.3"/><polygon class="cls-2" points="113.63 361.68 115.32 353.79 116.84 356.98 120.35 357.23 113.63 361.68"/><path class="cls-21" d="M400.05,566.86l-1.11,0-1.1,0v-.29h.36a.76.76,0,0,0,.29,0,.23.23,0,0,0,.1-.12,1,1,0,0,0,0-.17v-5.09a2.09,2.09,0,0,0,0-.25.31.31,0,0,0-.11-.2.56.56,0,0,0-.29-.07h-.36v-.29l1.43-.11v6a.51.51,0,0,0,0,.17.23.23,0,0,0,.1.12.72.72,0,0,0,.29,0h.36"/><path class="cls-21" d="M402,560.94a.49.49,0,0,1-.15.36.51.51,0,0,1-.37.15.5.5,0,0,1-.37-.15.51.51,0,0,1,0-.72.5.5,0,0,1,.37-.15.51.51,0,0,1,.37.15.49.49,0,0,1,.15.36Zm.66,5.92-1.07,0-1.06,0v-.29h.36a.67.67,0,0,0,.28,0,.21.21,0,0,0,.11-.12,1,1,0,0,0,0-.17v-2.66a1.93,1.93,0,0,0,0-.25.31.31,0,0,0-.11-.2.58.58,0,0,0-.27-.08h-.34v-.3l1.39-.1v3.6a1,1,0,0,0,0,.17.18.18,0,0,0,.09.12.6.6,0,0,0,.26,0h.33"/><path class="cls-21" d="M410.87,566.86c-.36,0-.73,0-1.1,0l-1.12,0v-.29H409a.67.67,0,0,0,.28,0,.25.25,0,0,0,.11-.12,1,1,0,0,0,0-.17v-2.29a3.19,3.19,0,0,0,0-.45,1,1,0,0,0-.15-.4.46.46,0,0,0-.21-.18.81.81,0,0,0-.31-.06,1.18,1.18,0,0,0-.53.12,1.38,1.38,0,0,0-.43.32,1.58,1.58,0,0,0-.28.47,1.56,1.56,0,0,0-.11.57v1.9a.51.51,0,0,0,0,.17.21.21,0,0,0,.11.12.63.63,0,0,0,.28,0h.36v.29l-1.12,0c-.38,0-.75,0-1.11,0v-.29h.36a.67.67,0,0,0,.28,0,.17.17,0,0,0,.1-.12.5.5,0,0,0,0-.17v-2.29a3.24,3.24,0,0,0,0-.45,1,1,0,0,0-.15-.4.55.55,0,0,0-.22-.18.78.78,0,0,0-.31-.06,1.18,1.18,0,0,0-.53.12,1.38,1.38,0,0,0-.43.32,1.58,1.58,0,0,0-.28.47,1.56,1.56,0,0,0-.1.57v1.9a1,1,0,0,0,0,.17.23.23,0,0,0,.1.12.72.72,0,0,0,.29,0h.36v.29H405l-.41,0h-.3l-1.11,0v-.29h.36a.76.76,0,0,0,.29,0,.23.23,0,0,0,.1-.12,1,1,0,0,0,0-.17v-2.66a1.93,1.93,0,0,0,0-.25.31.31,0,0,0-.11-.2.67.67,0,0,0-.29-.08h-.36v-.3l.79-.05.61,0v1a1.72,1.72,0,0,1,.56-.72,1.41,1.41,0,0,1,.87-.28,2.48,2.48,0,0,1,.54.06,1,1,0,0,1,.49.26,1.17,1.17,0,0,1,.21.3,2,2,0,0,1,.1.32,1.66,1.66,0,0,1,.55-.68,1.42,1.42,0,0,1,.84-.26,2.64,2.64,0,0,1,.55.06,1,1,0,0,1,.49.26.94.94,0,0,1,.27.47,2.37,2.37,0,0,1,.06.52v2.29a.51.51,0,0,0,0,.17.19.19,0,0,0,.1.12.72.72,0,0,0,.29,0h.34"/><path class="cls-21" d="M400.76,571.8a1.72,1.72,0,0,1-.11.29,1,1,0,0,1-.17.27.87.87,0,0,1-.23.2.61.61,0,0,1-.3.08.48.48,0,0,1-.24-.06.36.36,0,0,1-.16-.14.46.46,0,0,1-.05-.21h0a.68.68,0,0,1,.05-.23c.07-.15.13-.3.19-.46s.11-.3.16-.46a1.59,1.59,0,0,0,.06-.3.28.28,0,0,0,0-.09.47.47,0,0,0,0-.17.24.24,0,0,0-.26-.18.79.79,0,0,0-.54.19,1.77,1.77,0,0,0-.41.51l-.41,1.44a.26.26,0,0,1-.1.13.42.42,0,0,1-.15,0,.17.17,0,0,1-.12,0,.08.08,0,0,1,0-.07v0l.91-3.16a.45.45,0,0,0,0-.13h0a.08.08,0,0,0,0-.06.28.28,0,0,0-.15,0h-.24l0,0s0,0,0,0V569a.08.08,0,0,1,.09-.06l.78-.06h.05v0l-.49,1.67a1.46,1.46,0,0,1,.38-.27,1.06,1.06,0,0,1,.48-.11.87.87,0,0,1,.32.06.44.44,0,0,1,.22.18.48.48,0,0,1,.09.29h0a1.26,1.26,0,0,1,0,.33c-.05.16-.1.32-.16.47l-.2.47a1,1,0,0,0-.09.35h0c0,.1,0,.15.14.15a.36.36,0,0,0,.2-.06.8.8,0,0,0,.16-.16,1.14,1.14,0,0,0,.12-.22,2.31,2.31,0,0,0,.1-.28s0,0,.08,0h.06s.05,0,.05,0"/><path class="cls-21" d="M401.91,571c0-.05,0-.08.08-.11h4.24a2,2,0,0,1-.61-.69,1.73,1.73,0,0,1-.18-.51v0s0-.06.11-.06.11,0,.12.07a.9.9,0,0,0,.06.22,1.57,1.57,0,0,0,1.06,1,.06.06,0,0,1,0,.12,1.57,1.57,0,0,0-1.06,1.05.83.83,0,0,0-.06.21c0,.06-.05.08-.12.08s-.12,0-.12-.06,0,0,0-.13a1.86,1.86,0,0,1,.77-1.1H402c-.05,0-.08-.06-.08-.11"/><path class="cls-21" d="M411.16,570.77a4.74,4.74,0,0,1-.06.75,1.5,1.5,0,0,1-.29.69,1,1,0,0,1-.43.36,1.45,1.45,0,0,1-.59.13,1.41,1.41,0,0,1-.58-.13,1,1,0,0,1-.44-.36,1.62,1.62,0,0,1-.29-.69,6.3,6.3,0,0,1-.05-.75,6.61,6.61,0,0,1,.05-.76,1.75,1.75,0,0,1,.29-.71,1.2,1.2,0,0,1,.44-.36,1.27,1.27,0,0,1,.58-.13,1.34,1.34,0,0,1,.59.13,1.17,1.17,0,0,1,.43.36,1.62,1.62,0,0,1,.29.71,5,5,0,0,1,.06.76Zm-.54-.09v-.35c0-.12,0-.24,0-.36s0-.23,0-.34a1.73,1.73,0,0,0-.08-.27.8.8,0,0,0-.28-.3.76.76,0,0,0-.82,0,.77.77,0,0,0-.27.3,1.07,1.07,0,0,0-.08.27c0,.11,0,.22,0,.34s0,.24,0,.36,0,.24,0,.35,0,.25,0,.39,0,.26,0,.39,0,.25,0,.37a1.11,1.11,0,0,0,.08.29.76.76,0,0,0,.27.32.67.67,0,0,0,.41.13.68.68,0,0,0,.42-.13.76.76,0,0,0,.27-.32,1.71,1.71,0,0,0,.08-.29c0-.12,0-.24,0-.37s0-.26,0-.39v-.39"/><line class="cls-22" x1="413.24" y1="564.04" x2="486.21" y2="564.04"/><path class="cls-21" d="M420.61,556.17a.18.18,0,0,1-.05.08.11.11,0,0,1-.08,0h-.1c-.05,0-.08,0-.08-.06v0c0-.14,0-.29.05-.44s0-.22,0-.33v-.07a1.73,1.73,0,0,0-.05-.35.56.56,0,0,0-.12-.27.83.83,0,0,0-.55-.27,5.86,5.86,0,0,0-.75,0h-1a.73.73,0,0,0-.33,0,1,1,0,0,0-.12.3l-.64,2.48h.71l.48,0a.67.67,0,0,0,.39-.15.74.74,0,0,0,.23-.35c.05-.15.11-.31.16-.49a.1.1,0,0,1,.05-.08.12.12,0,0,1,.09,0H419a.14.14,0,0,1,.09,0s0,0,0,0,0,0,0,0l-.6,2.32a.14.14,0,0,1-.14.11h-.07a.09.09,0,0,1-.1-.08v0a2.68,2.68,0,0,0,.11-.5.34.34,0,0,0,0-.1.43.43,0,0,0-.06-.24.4.4,0,0,0-.31-.15,3.53,3.53,0,0,0-.48,0h-.71l-.63,2.48a.39.39,0,0,0,0,.15c0,.07,0,.12.07.13a1.29,1.29,0,0,0,.38.06h.54c.06,0,.08,0,.08.07v0l0,.08c0,.07-.07.11-.14.11-.44,0-.88,0-1.33,0h-.19c-.39,0-.77,0-1.16,0a.09.09,0,0,1-.07,0l0,0a.06.06,0,0,1,0,0l0-.08a.18.18,0,0,1,.05-.08l.09,0h.43a.83.83,0,0,0,.31-.05c.08,0,.13-.13.17-.29l1.35-5.25a.67.67,0,0,0,0-.17c0-.06,0-.09-.05-.11a.58.58,0,0,0-.28-.05h-.43c-.06,0-.09,0-.09-.08v0l0-.08a.14.14,0,0,1,.14-.11h4.77c.05,0,.08,0,.08.1"/><path class="cls-21" d="M430.77,557.14a.44.44,0,0,1-.2.29.47.47,0,0,1-.29.09.31.31,0,0,1-.25-.09.21.21,0,0,1-.07-.17.3.3,0,0,1,0-.12.48.48,0,0,1,.15-.25.88.88,0,0,1,.21-.12.73.73,0,0,0-.47-.14.62.62,0,0,0-.48.28,1.91,1.91,0,0,0-.31.64l-.45,1.72c0,.18-.07.34-.1.5a.77.77,0,0,0,0,.15.72.72,0,0,0,.06.29.49.49,0,0,0,.15.24.4.4,0,0,0,.28.1.83.83,0,0,0,.4-.11,1.27,1.27,0,0,0,.34-.28,2.08,2.08,0,0,0,.27-.41,2.53,2.53,0,0,0,.19-.48.1.1,0,0,1,.11-.08h.12c.05,0,.07,0,.07,0a0,0,0,0,1,0,0,2,2,0,0,1-.21.55,2.47,2.47,0,0,1-.35.48,1.63,1.63,0,0,1-.45.33,1.12,1.12,0,0,1-.53.13.94.94,0,0,1-.49-.12,1,1,0,0,1-.34-.32.21.21,0,0,1-.06-.1.37.37,0,0,1-.05-.11,1.65,1.65,0,0,1-.41.46.84.84,0,0,1-.55.19,1.39,1.39,0,0,1-.35,0,.87.87,0,0,1-.29-.14.5.5,0,0,1-.19-.22.41.41,0,0,1,0-.16,1,1,0,0,1,0-.16.47.47,0,0,1,.2-.29.58.58,0,0,1,.3-.09.37.37,0,0,1,.25.09.22.22,0,0,1,.07.17.25.25,0,0,1,0,.12.41.41,0,0,1-.14.25.57.57,0,0,1-.23.12.75.75,0,0,0,.47.14.59.59,0,0,0,.49-.28,1.71,1.71,0,0,0,.31-.65l.45-1.72c0-.17.08-.33.11-.49s0-.1,0-.14a.88.88,0,0,0-.05-.29.56.56,0,0,0-.17-.25.41.41,0,0,0-.28-.1.77.77,0,0,0-.39.11,1.31,1.31,0,0,0-.35.28,2,2,0,0,0-.27.4,1.72,1.72,0,0,0-.17.48.15.15,0,0,1-.14.1h-.1c-.05,0-.07,0-.07-.07v0a2.53,2.53,0,0,1,.22-.55,1.8,1.8,0,0,1,.35-.47,1.67,1.67,0,0,1,.45-.34,1.19,1.19,0,0,1,.53-.13,1,1,0,0,1,.49.12,1,1,0,0,1,.34.32.54.54,0,0,1,.05.11l.05.11a1.83,1.83,0,0,1,.41-.46.87.87,0,0,1,.55-.2,1.41,1.41,0,0,1,.35.05.69.69,0,0,1,.3.13.58.58,0,0,1,.18.23.47.47,0,0,1,0,.17,1,1,0,0,1,0,.15"/><line class="cls-22" x1="433.57" y1="557.82" x2="440.29" y2="557.82"/><line class="cls-22" x1="436.93" y1="554.46" x2="436.93" y2="561.18"/><path class="cls-21" d="M447.63,559.27a2.93,2.93,0,0,1-.18.52,2.27,2.27,0,0,1-.27.48,1.53,1.53,0,0,1-.37.35.79.79,0,0,1-.47.14.8.8,0,0,1-.39-.09.78.78,0,0,1-.25-.26.72.72,0,0,1-.09-.37,0,0,0,0,1,0,0,1,1,0,0,1,.09-.4l.3-.82c.09-.27.18-.54.25-.82s.07-.36.1-.54,0-.1,0-.16a1.55,1.55,0,0,0,0-.31.41.41,0,0,0-.42-.33,1.22,1.22,0,0,0-.87.35,3.12,3.12,0,0,0-.64.92l-.66,2.55a.38.38,0,0,1-.16.24.44.44,0,0,1-.24.07.24.24,0,0,1-.2-.08.17.17,0,0,1-.05-.13s0-.06,0-.1l1.46-5.63a1.48,1.48,0,0,0,0-.24v0a.17.17,0,0,0,0-.1.59.59,0,0,0-.24-.06h-.38a.06.06,0,0,1-.06,0,0,0,0,0,1,0,0,.06.06,0,0,1,0,0l0-.07a.14.14,0,0,1,.14-.11l1.25-.1h.08l0,0s0,0,0,0l-.78,3a2.31,2.31,0,0,1,.6-.49,1.63,1.63,0,0,1,.77-.19,1.26,1.26,0,0,1,.51.11.66.66,0,0,1,.36.32,1,1,0,0,1,.14.51v0a3.11,3.11,0,0,1-.09.6,8,8,0,0,1-.26.83c-.09.28-.2.56-.3.84a1.77,1.77,0,0,0-.15.63h0c0,.18.07.27.23.27a.51.51,0,0,0,.31-.11,1.34,1.34,0,0,0,.26-.27,2.61,2.61,0,0,0,.2-.41,4.7,4.7,0,0,0,.16-.49.1.1,0,0,1,.11-.08h.11c.06,0,.08,0,.08.06"/><path class="cls-21" d="M425.15,562.36a5.33,5.33,0,0,1,0-9.08h.49a5.63,5.63,0,0,0,0,9.08"/><path class="cls-21" d="M448.68,553.28a5.33,5.33,0,0,1,0,9.08h-.49a5.63,5.63,0,0,0,0-9.08"/><line class="cls-22" x1="455.75" y1="557.82" x2="462.47" y2="557.82"/><path class="cls-21" d="M471.61,556.17s0,.05,0,.08a.12.12,0,0,1-.09,0h-.09c-.05,0-.08,0-.08-.06v0c0-.14,0-.29.05-.44s0-.22,0-.33v-.07a1.73,1.73,0,0,0-.05-.35.56.56,0,0,0-.12-.27.85.85,0,0,0-.55-.27,5.92,5.92,0,0,0-.76,0h-1c-.19,0-.3,0-.33,0a.75.75,0,0,0-.12.3l-.64,2.48h.71l.48,0a.67.67,0,0,0,.39-.15.82.82,0,0,0,.23-.35c.05-.15.1-.31.15-.49a.22.22,0,0,1,.05-.08l.09,0H470a.11.11,0,0,1,.08,0,.06.06,0,0,1,0,0s0,0,0,0l-.59,2.32c0,.07-.07.11-.14.11h-.08c-.06,0-.09,0-.09-.08v0a3.82,3.82,0,0,0,.11-.5.34.34,0,0,0,0-.1.36.36,0,0,0-.07-.24.37.37,0,0,0-.31-.15,3.38,3.38,0,0,0-.47,0h-.71l-.64,2.48a.76.76,0,0,0,0,.15c0,.07,0,.12.06.13a1.35,1.35,0,0,0,.38.06h.54c.06,0,.09,0,.09.07a.08.08,0,0,1,0,0l0,.08a.14.14,0,0,1-.13.11c-.44,0-.89,0-1.33,0h-.2c-.38,0-.77,0-1.15,0a.08.08,0,0,1-.07,0,0,0,0,0,1,0,0,.06.06,0,0,1,0,0l0-.08s0-.05.05-.08a.12.12,0,0,1,.09,0h.43a.83.83,0,0,0,.31-.05.4.4,0,0,0,.16-.29l1.36-5.25a.67.67,0,0,0,0-.17.12.12,0,0,0,0-.11.6.6,0,0,0-.28-.05H467c-.06,0-.09,0-.09-.08v0l0-.08a.13.13,0,0,1,.14-.11h4.76c.06,0,.09,0,.09.1"/><path class="cls-21" d="M481.77,557.14a.43.43,0,0,1-.19.29.5.5,0,0,1-.3.09.29.29,0,0,1-.24-.09.25.25,0,0,1-.08-.17.74.74,0,0,1,0-.12.66.66,0,0,1,.15-.25.94.94,0,0,1,.22-.12.73.73,0,0,0-.47-.14.62.62,0,0,0-.49.28,1.89,1.89,0,0,0-.3.64l-.45,1.72c0,.18-.08.34-.1.5a.77.77,0,0,0,0,.15.93.93,0,0,0,.05.29.6.6,0,0,0,.16.24.39.39,0,0,0,.28.1.77.77,0,0,0,.39-.11,1.13,1.13,0,0,0,.34-.28,1.46,1.46,0,0,0,.27-.41,2,2,0,0,0,.19-.48.12.12,0,0,1,.12-.08h.11c.05,0,.08,0,.08,0a0,0,0,0,1,0,0,2.34,2.34,0,0,1-.22.55,2.12,2.12,0,0,1-.35.48,1.75,1.75,0,0,1-.44.33,1.13,1.13,0,0,1-.54.13,1,1,0,0,1-.49-.12,1,1,0,0,1-.34-.32l-.06-.1s0-.07,0-.11a1.65,1.65,0,0,1-.41.46.86.86,0,0,1-.55.19,1.34,1.34,0,0,1-.35,0,.92.92,0,0,1-.3-.14.55.55,0,0,1-.18-.22.41.41,0,0,1,0-.16,1,1,0,0,1,0-.16.47.47,0,0,1,.2-.29.58.58,0,0,1,.3-.09.38.38,0,0,1,.25.09.22.22,0,0,1,.07.17.5.5,0,0,1,0,.12.47.47,0,0,1-.14.25.55.55,0,0,1-.24.12.78.78,0,0,0,.48.14.61.61,0,0,0,.49-.28,1.87,1.87,0,0,0,.31-.65l.45-1.72a4.74,4.74,0,0,0,.1-.49.71.71,0,0,0,0-.14.68.68,0,0,0-.05-.29.47.47,0,0,0-.16-.25.43.43,0,0,0-.28-.1.83.83,0,0,0-.4.11,1.27,1.27,0,0,0-.34.28,2,2,0,0,0-.27.4,2.15,2.15,0,0,0-.18.48.14.14,0,0,1-.13.1h-.1c-.05,0-.07,0-.07-.07v0a2.07,2.07,0,0,1,.21-.55,2.4,2.4,0,0,1,.35-.47,2.05,2.05,0,0,1,.45-.34,1.26,1.26,0,0,1,.54-.13,1,1,0,0,1,.48.12,1,1,0,0,1,.35.32l.05.11a1.17,1.17,0,0,0,.05.11,1.65,1.65,0,0,1,.41-.46.84.84,0,0,1,.54-.2,1.49,1.49,0,0,1,.36.05.7.7,0,0,1,.29.13.44.44,0,0,1,.18.23.47.47,0,0,1,0,.17.44.44,0,0,1,0,.15"/><path class="cls-21" d="M476.15,562.36a5.33,5.33,0,0,1,0-9.08h.49a5.63,5.63,0,0,0,0,9.08"/><path class="cls-21" d="M482.84,553.28a5.33,5.33,0,0,1,0,9.08h-.49a5.63,5.63,0,0,0,0-9.08"/><path class="cls-21" d="M452,571.42a3.91,3.91,0,0,1-.18.51,1.87,1.87,0,0,1-.27.48,1.58,1.58,0,0,1-.37.36.86.86,0,0,1-.47.14.69.69,0,0,1-.39-.1.67.67,0,0,1-.25-.25.75.75,0,0,1-.09-.37,0,0,0,0,1,0,0,1.19,1.19,0,0,1,.08-.4c.11-.28.21-.55.31-.82s.17-.55.24-.83.08-.36.11-.53v-.17a1.39,1.39,0,0,0,0-.3.41.41,0,0,0-.42-.33,1.21,1.21,0,0,0-.87.34,3.12,3.12,0,0,0-.64.92l-.67,2.56a.34.34,0,0,1-.15.23.46.46,0,0,1-.24.08.28.28,0,0,1-.2-.08.2.2,0,0,1-.05-.14s0-.06,0-.09L448.9,567a1,1,0,0,0,.05-.23v0a.11.11,0,0,0,0-.1.5.5,0,0,0-.23-.06l-.38,0-.07,0s0,0,0,0,0,0,0,0l0-.08a.18.18,0,0,1,.14-.11l1.26-.1h0l.06,0a.09.09,0,0,1,0,.05v0l-.78,3a2.35,2.35,0,0,1,.6-.5,1.59,1.59,0,0,1,.77-.18,1.25,1.25,0,0,1,.51.1.79.79,0,0,1,.36.32,1,1,0,0,1,.14.52v0a3,3,0,0,1-.09.59,8.16,8.16,0,0,1-.26.84l-.3.83a1.77,1.77,0,0,0-.15.64h0c0,.17.07.26.22.26a.51.51,0,0,0,.32-.1,1,1,0,0,0,.25-.28,1.88,1.88,0,0,0,.21-.4c0-.16.11-.32.15-.49a.12.12,0,0,1,.12-.09h.11c.05,0,.08,0,.08.06"/><line class="cls-22" x1="494.86" y1="563.03" x2="501.58" y2="563.03"/><line class="cls-22" x1="494.86" y1="565.04" x2="501.58" y2="565.04"/><path class="cls-21" d="M510.23,564.93c.77.61,1.38,1.12,1.83,1.55l-.45.45c-.21-.21-.43-.43-.66-.64l-2,.09v1.06c0,.66-.34,1-1,1h-1.17c0-.21-.08-.43-.13-.66.43,0,.8.06,1.14.06s.55-.2.55-.59v-.83l-2.23.11c-.24,0-.47,0-.7.06l-.22-.6a5.23,5.23,0,0,0,1.13-.29c.56-.21,1.16-.46,1.82-.74-.69,0-1.29,0-1.82.08a5.44,5.44,0,0,0-.59.05l-.22-.53a3.79,3.79,0,0,0,.83-.26c.37-.16.73-.33,1.09-.52h-1.54V564h-.62v-3h6.49v3h-.62v-.23h-2.73c-.6.3-1.2.57-1.79.81l2.5-.08c.38-.17.77-.36,1.18-.56l.43.43c-1.31.61-2.65,1.15-4,1.65l3.76-.19c-.2-.18-.41-.35-.61-.51Zm-1.47-1.63h2.33v-.73h-2.33v.73Zm-2.92,0h2.32v-.73h-2.32v.73Zm5.25-1.88h-2.33v.72h2.33v-.72Zm-5.25.72h2.32v-.72h-2.32v.72Zm.9,4.6.37.49c-.8.39-1.58.73-2.35,1-.08-.16-.18-.34-.29-.53a24.17,24.17,0,0,0,2.27-1Zm3.34,0c.81.27,1.59.56,2.34.89l-.25.54a21.71,21.71,0,0,0-2.37-.9"/><path class="cls-21" d="M516.3,561.37h4.15v4.15h-.62v-.38h-2.91v.38h-.62v-4.15Zm-3.58,5a10.35,10.35,0,0,0,1.27-2.67h-1.23v-.56h1.31v-1.26l-1.15.08a4.41,4.41,0,0,0-.12-.59c1.12,0,2.09-.14,2.92-.26l.15.61-1.19.11v1.31h1.22v.56h-1.22v1.12l.33-.29c.33.32.69.68,1.06,1.09l-.46.4c-.3-.35-.61-.69-.93-1v3.56h-.61V565a8.49,8.49,0,0,1-1.07,2.06,7.1,7.1,0,0,0-.28-.69Zm7.11-4.47h-2.91v2.69h2.91v-2.69ZM517.17,566l.54.37q-.94,1.15-1.8,2a5.13,5.13,0,0,0-.47-.44,16.16,16.16,0,0,0,1.73-2Zm1.7.38.51-.34c.51.56,1,1.18,1.57,1.87l-.57.43c-.49-.7-1-1.35-1.51-2"/><path class="cls-21" d="M528.08,568.51v-.38h-6.52v-5.41h.66v4.82h5.86v-4.82h.66v5.79Zm-3.1-5.83,1.94-1h-4.64v-.58h5.62v.66L525.6,563v3.14a.88.88,0,0,1-1,1l-1,0c0-.18-.05-.39-.1-.64a8.74,8.74,0,0,0,1,.06c.35,0,.52-.16.52-.48Zm-.51,1.76.34.51c-.68.37-1.39.78-2.15,1.22l-.37-.55a22,22,0,0,0,2.18-1.18Zm1.26.48.39-.46c.61.37,1.24.77,1.89,1.21l-.45.54q-.9-.69-1.83-1.29ZM522.55,563l.4-.43c.55.36,1.08.74,1.59,1.13l-.45.49c-.53-.44-1-.84-1.54-1.19Zm4.83-.35.47.43c-.43.36-.92.74-1.45,1.14l-.43-.45c.48-.35.95-.72,1.41-1.12"/><path class="cls-21" d="M534.78,560.71l.65.09a13.19,13.19,0,0,1-.4,1.45h2.51v.54H537a8.5,8.5,0,0,1-1.06,3.72,5.28,5.28,0,0,0,1.7,1.43q-.27.36-.45.63a6.32,6.32,0,0,1-1.66-1.5,7.8,7.8,0,0,1-1.8,1.58,5.13,5.13,0,0,0-.47-.5,6.88,6.88,0,0,0,1.86-1.67,6.92,6.92,0,0,1-.87-2.57,5.85,5.85,0,0,1-.37.55,4.81,4.81,0,0,0-.41-.51,7.71,7.71,0,0,0,1.28-3.24Zm-5.29,4.6h1.25c.12-.21.24-.41.35-.63l.59.19-.26.44h2v.51a3.78,3.78,0,0,1-.94,1.37l.92.42-.37.55c-.33-.19-.69-.37-1-.56a7.44,7.44,0,0,1-2.34,1c-.09-.17-.18-.36-.28-.56a6.81,6.81,0,0,0,2-.75l-1.47-.72.51-.76h-.94v-.52Zm.09-2.75h1.89v-1.78h.61v1.78h1.57v.53h-1.57v.49l.24-.28c.51.37.94.69,1.28,1l-.39.45a14.49,14.49,0,0,0-1.13-.93v.9h-.61v-1.11a8.34,8.34,0,0,1-1.74,1.33c-.11-.16-.22-.32-.35-.49a8.9,8.9,0,0,0,1.89-1.32h-1.69v-.53Zm6.79.23h-1.54a.88.88,0,0,1-.09.2,7.32,7.32,0,0,0,.82,2.89,7.49,7.49,0,0,0,.81-3.09Zm-5.65,3.61,1.2.54a3.41,3.41,0,0,0,.89-1.11H531.1c-.13.2-.25.39-.38.57Zm2.56-5.42.51.32c-.3.39-.6.74-.9,1.06l-.44-.33a13.26,13.26,0,0,0,.83-1Zm-3.49.35.47-.31c.25.29.5.6.77.94l-.51.35c-.24-.35-.48-.67-.73-1"/><path class="cls-21" d="M544.82,562.38a.12.12,0,0,1-.13.11h-.09c-.06,0-.08,0-.08,0v0c0-.15,0-.3.05-.45s0-.22,0-.32v-.08a3.27,3.27,0,0,0-.05-.35.57.57,0,0,0-.12-.26.77.77,0,0,0-.55-.27,5.94,5.94,0,0,0-.76,0h-1a.6.6,0,0,0-.32,0,.75.75,0,0,0-.12.3l-.64,2.48h.71l.48,0a.76.76,0,0,0,.39-.16.79.79,0,0,0,.23-.34c0-.15.1-.31.15-.49a.22.22,0,0,1,0-.08l.09,0h.08a.11.11,0,0,1,.08,0s0,0,0,0a.06.06,0,0,1,0,0l-.59,2.32c0,.07-.07.11-.14.11h-.08c-.06,0-.09,0-.09-.08v0a4.2,4.2,0,0,0,.11-.5.41.41,0,0,0,0-.11.4.4,0,0,0-.07-.24.46.46,0,0,0-.31-.15l-.47,0H541l-.64,2.48a.77.77,0,0,0,0,.15.13.13,0,0,0,.07.13,1.35,1.35,0,0,0,.38.06h.54q.09,0,.09.06a.09.09,0,0,1,0,.05l0,.07a.13.13,0,0,1-.13.11l-1.33,0h-.2c-.38,0-.77,0-1.15,0a.08.08,0,0,1-.07,0s0,0,0,0a.09.09,0,0,1,0,0v-.07a.16.16,0,0,1,.06-.08.12.12,0,0,1,.09,0h.42a.89.89,0,0,0,.32-.05.42.42,0,0,0,.16-.29l1.36-5.25a.67.67,0,0,0,0-.17c0-.06,0-.1,0-.11a.73.73,0,0,0-.28-.06h-.43c-.06,0-.09,0-.09-.08v0l0-.08a.13.13,0,0,1,.14-.12H545c.06,0,.09,0,.09.1"/><path class="cls-21" d="M547,566.84a2.37,2.37,0,0,1-.22,1,2.66,2.66,0,0,1-.61.85H546l0,0a.14.14,0,0,1,0-.06.25.25,0,0,1,0-.07,2.19,2.19,0,0,0,.57-.78,2.1,2.1,0,0,0,.2-.93v-.07a.25.25,0,0,1,0-.08.48.48,0,0,1-.4.17.47.47,0,0,1-.39-.16.51.51,0,0,1-.13-.35A.53.53,0,0,1,546,566a.5.5,0,0,1,.39-.15.52.52,0,0,1,.31.09.88.88,0,0,1,.19.24,1.09,1.09,0,0,1,.1.32,2.14,2.14,0,0,1,0,.34"/><path class="cls-21" d="M549,561.66h2.42c.13-.32.25-.65.36-1l.68.16c-.1.28-.2.56-.31.82h4.77v.59h-5a12.4,12.4,0,0,1-1.14,2v4.22h-.64v-3.37a12.9,12.9,0,0,1-.94,1c-.12-.18-.25-.37-.4-.57a12.28,12.28,0,0,0,2.38-3.31H549v-.59Zm2,5.67h2.57V565h-2.13v-.58h2.13v-1.6h.67v1.6h2.17V565h-2.17v2.38h2.64v.56"/><path class="cls-21" d="M562.4,563.36a.51.51,0,0,1-.2.29.58.58,0,0,1-.3.09.32.32,0,0,1-.24-.09.27.27,0,0,1-.08-.18.52.52,0,0,1,0-.11.59.59,0,0,1,.15-.25A.53.53,0,0,1,562,563a.73.73,0,0,0-.47-.14.56.56,0,0,0-.48.28,1.66,1.66,0,0,0-.31.64l-.45,1.72c0,.17-.08.34-.1.49a1,1,0,0,0,0,.15.88.88,0,0,0,.05.29.57.57,0,0,0,.16.25.43.43,0,0,0,.28.09.76.76,0,0,0,.39-.1,1.31,1.31,0,0,0,.35-.28,2.08,2.08,0,0,0,.27-.41,3.43,3.43,0,0,0,.19-.48c0-.06,0-.08.11-.08h.11c.05,0,.08,0,.08,0s0,0,0,0a2.11,2.11,0,0,1-.22.55,2.36,2.36,0,0,1-.34.47,2.05,2.05,0,0,1-.45.34,1.12,1.12,0,0,1-.53.13,1,1,0,0,1-.5-.12,1,1,0,0,1-.33-.33l-.07-.09s0-.07,0-.12a1.7,1.7,0,0,1-.41.47.86.86,0,0,1-.55.19,1.34,1.34,0,0,1-.35,0,.92.92,0,0,1-.3-.14.55.55,0,0,1-.18-.22.47.47,0,0,1,0-.17,1,1,0,0,1,0-.15.44.44,0,0,1,.2-.29.6.6,0,0,1,.3-.1.37.37,0,0,1,.25.1.21.21,0,0,1,.07.17.5.5,0,0,1,0,.12.48.48,0,0,1-.14.24.39.39,0,0,1-.24.12.67.67,0,0,0,.48.14.61.61,0,0,0,.49-.27,2,2,0,0,0,.31-.65l.45-1.72a4.74,4.74,0,0,0,.1-.49.76.76,0,0,0,0-.15.66.66,0,0,0-.05-.28.44.44,0,0,0-.16-.25.39.39,0,0,0-.28-.1.83.83,0,0,0-.4.11,1.44,1.44,0,0,0-.34.28,2,2,0,0,0-.27.4,2,2,0,0,0-.18.48.13.13,0,0,1-.13.09h-.1c-.05,0-.07,0-.07-.07v0a2.31,2.31,0,0,1,.21-.55,2.47,2.47,0,0,1,.35-.48,2.15,2.15,0,0,1,.46-.33,1.07,1.07,0,0,1,.53-.13,1,1,0,0,1,.49.12,1,1,0,0,1,.34.32.37.37,0,0,1,0,.11l.05.11a1.85,1.85,0,0,1,.41-.47.84.84,0,0,1,.55-.19,1.45,1.45,0,0,1,.35,0,1,1,0,0,1,.3.14.55.55,0,0,1,.18.22.5.5,0,0,1,0,.18.86.86,0,0,1,0,.15"/><path class="cls-21" d="M565,563.16h2.58v-2.5h.69v1h3.66v.57h-3.66v1h2.9v3.05h-.67v-.34h-4.83v.34H565v-3.05Zm5.5.58h-4.83v1.56h4.83v-1.56Zm.44,2.65a14.89,14.89,0,0,1,1.05,1.74l-.62.32q-.42-.81-1-1.77Zm-5.33.37a15.06,15.06,0,0,1-1.1,1.72l-.56-.39a15.75,15.75,0,0,0,1.09-1.65Zm1.38-.35a13.28,13.28,0,0,1,.65,1.7l-.66.22c-.17-.58-.37-1.15-.59-1.71Zm2,0a15.45,15.45,0,0,1,.71,1.65l-.65.24a15.76,15.76,0,0,0-.66-1.67"/><path class="cls-21" d="M574.35,560.84c-.11.52-.24,1-.38,1.48h2.19v.59a8,8,0,0,1-1.22,3.57,3.06,3.06,0,0,0,1.81,1,18.79,18.79,0,0,0,3.66.11,6.42,6.42,0,0,0-.24.66,16.63,16.63,0,0,1-3.49-.16,3.69,3.69,0,0,1-2.11-1.09,8.07,8.07,0,0,1-1.73,1.61l-.55-.47a7.41,7.41,0,0,0,1.84-1.66,7,7,0,0,1-.93-2.13,11.76,11.76,0,0,1-.55,1.06,5.86,5.86,0,0,0-.47-.55,13.68,13.68,0,0,0,1.49-4.13Zm2.82-.07h.68v2.67l.36-.41c.78.51,1.48,1,2.1,1.51l-.44.55c-.58-.49-1.25-1-2-1.55v3.74h-.68v-6.51Zm-1.68,2.16h-1.72c-.06.19-.13.38-.2.56a7.64,7.64,0,0,0,.95,2.45,6.57,6.57,0,0,0,1-3"/><path class="cls-21" d="M580.93,562h.83c.2-.49.37-.93.5-1.33l.69.19c-.18.41-.34.79-.5,1.14h1.64v6.34h-.66v-.62h-1.85v.67h-.65V562Zm3.28,1.63a11.84,11.84,0,0,0,1.31-3l.68.17c-.13.4-.28.78-.42,1.13h2.64c-.07,2.73-.12,4.45-.16,5.16a1.19,1.19,0,0,1-1.36,1.25c-.5,0-1,0-1.52,0a4.51,4.51,0,0,0-.13-.71h0a10.19,10.19,0,0,0,1.5.11.72.72,0,0,0,.8-.76c.06-.79.11-2.26.13-4.4h-2.19a11.87,11.87,0,0,1-.74,1.35,3.74,3.74,0,0,0-.57-.29Zm-2.63,3.49h1.85v-2h-1.85v2Zm1.85-4.53h-1.85v1.94h1.85V562.6Zm1.5,1.58.5-.36c.61.7,1.09,1.3,1.46,1.81l-.61.42a19.4,19.4,0,0,0-1.35-1.87"/><path class="cls-21" d="M589.05,564.67h1.79v-1h-1.08v-.39c-.17.17-.34.32-.51.47a4.65,4.65,0,0,0-.36-.61,7.26,7.26,0,0,0,2-2.36h.71l-.07.13q.83.81,1.62,1.62l-.4.5c-.49-.55-1-1.09-1.55-1.61a10.13,10.13,0,0,1-1.3,1.7h2.62v.55h-1.09v1h1.44v.55h-1.44v2.36c0,.57-.27.86-.8.86l-.87,0c0-.25-.07-.47-.11-.66a4.42,4.42,0,0,0,.78.07.35.35,0,0,0,.4-.39v-2.21h-1.79v-.55Zm3.69,1.06,2.67-.32v-4.68H596v4.61l1-.13.05.57-1.06.14v2.6h-.63V566l-2.56.31-.11-.57Zm-3.85,1.73a6.59,6.59,0,0,0,.94-1.83l.59.19a7.68,7.68,0,0,1-1,1.95,2.84,2.84,0,0,0-.51-.31Zm4.35-5.65.4-.37q.68.59,1.32,1.23l-.45.44c-.41-.45-.83-.88-1.27-1.3Zm-1.47,4.13.49-.28c.33.49.65,1,.94,1.47l-.55.34c-.24-.46-.54-1-.88-1.53Zm1.25-2.23.39-.37a17.29,17.29,0,0,1,1.33,1.23l-.44.42c-.41-.44-.84-.86-1.28-1.28"/><path class="cls-21" d="M600.47,564.91l1.84-.1-.4-.52.44-.27a14,14,0,0,1,1.1,1.34l-.53.32-.28-.41-2.58.16-.44.07-.2-.54a2,2,0,0,0,.37-.15,11.63,11.63,0,0,0,1.37-1l-1,0a3.25,3.25,0,0,0-.38.08l-.25-.49a1.11,1.11,0,0,0,.38-.22,6.45,6.45,0,0,0,1-1.1h-3.48v-.56h3.68c-.13-.24-.26-.44-.38-.62l.6-.28c.21.32.39.62.55.9h3.36v.56h-4.1l.39.2c-.44.44-.82.79-1.12,1.05l1.22,0c.22-.21.44-.44.66-.67l.56.32a23.43,23.43,0,0,1-2.4,2Zm-3.13,1.3h3.74v-.71h.65v.71h3.66v.55h-3.66v1.8h-.65v-1.8h-3.74v-.55Zm2.07-2.15.29.47-2,1.14-.35-.53c.57-.26,1.25-.62,2-1.08Zm4.12,0c.78.43,1.39.8,1.83,1.1l-.36.52a19.51,19.51,0,0,0-1.81-1.19Zm1.49-1.16a13.13,13.13,0,0,1-1.35,1l-.42-.43a7.61,7.61,0,0,0,1.3-1Zm-7.39-.06.42-.39c.45.36.85.69,1.19,1l-.46.44c-.32-.33-.7-.67-1.15-1"/><path class="cls-21" d="M612.52,569.17a.07.07,0,0,1,0,.06.09.09,0,0,1-.07,0s-.07,0-.09,0a4.85,4.85,0,0,1-1-1,5.34,5.34,0,0,1-.66-1.16,6.47,6.47,0,0,1-.38-1.3,7.71,7.71,0,0,1,0-2.71,6.11,6.11,0,0,1,.38-1.3,5.34,5.34,0,0,1,.66-1.16,4.9,4.9,0,0,1,1-1l.09,0a.09.09,0,0,1,.07,0,.11.11,0,0,1,0,.14,4.4,4.4,0,0,0-.8,1,5.56,5.56,0,0,0-.53,1.13,7.33,7.33,0,0,0-.29,1.25,11.13,11.13,0,0,0-.08,1.28,10.9,10.9,0,0,0,.08,1.29,7.22,7.22,0,0,0,.29,1.24,5.91,5.91,0,0,0,.53,1.14,4.35,4.35,0,0,0,.8,1,.09.09,0,0,1,0,.07"/><path class="cls-21" d="M615.93,565.35c.67.77,1.23,1.46,1.68,2l-.53.38-.63-.84c-.81.37-1.5.68-2,.95a2.93,2.93,0,0,0-.5.34l-.45-.53a.82.82,0,0,0,.25-.59v-5.89H617v4.11h-.63v-.2h-2.06v2.1c.54-.21,1.13-.46,1.76-.75l-.64-.8Zm2-4.05h2.89v4.83a.9.9,0,0,1-1,1h-1c0-.23-.07-.46-.12-.7a8.12,8.12,0,0,0,.92.07.49.49,0,0,0,.54-.56V561.9h-1.64v6.66h-.62V561.3Zm-1.54,3.27v-1.12h-2.06v1.12Zm0-2.8h-2.06v1.12"/><path class="cls-21" d="M623.68,564.22H628c.44,0,.7-.13.76-.41a6.43,6.43,0,0,0,.19-.88l.64.25a8.3,8.3,0,0,1-.23.88q-.21.72-1.2.72h-4.59c-.73,0-1.09-.34-1.09-1v-2.68h5.89v2.43h-.63v-.27h-4.63v.46c0,.35.2.53.59.53Zm-2.17,1.37h5.72V565h.67v.58h1.77v.57H627.9v1.3c0,.63-.36.94-1.07.94h-1.31q0-.3-.12-.69c.5,0,.92.06,1.24.06s.59-.17.59-.5v-1.11h-5.72v-.57Zm1.58-4v1.06h4.63v-1.06Zm0,5,.4-.42c.61.46,1.06.83,1.36,1.09l-.47.47c-.51-.46-.94-.85-1.29-1.14"/><path class="cls-21" d="M635.21,560.71l.66.09c-.12.52-.25,1-.4,1.45H638v.54h-.52a8.64,8.64,0,0,1-1.05,3.72,5.24,5.24,0,0,0,1.69,1.43l-.44.63a6.21,6.21,0,0,1-1.67-1.5,7.41,7.41,0,0,1-1.8,1.58,4.91,4.91,0,0,0-.46-.5,7.2,7.2,0,0,0,1.86-1.67,6.92,6.92,0,0,1-.88-2.57,4.35,4.35,0,0,1-.36.55c-.11-.15-.25-.32-.41-.51a7.71,7.71,0,0,0,1.27-3.24Zm-5.28,4.6h1.24l.36-.63.59.19-.27.44h2v.51a3.8,3.8,0,0,1-1,1.37l.92.42-.36.55c-.34-.19-.69-.37-1.06-.56a7.44,7.44,0,0,1-2.34,1c-.09-.17-.18-.36-.28-.56a6.88,6.88,0,0,0,2-.75c-.47-.24-1-.48-1.48-.72.18-.25.35-.5.51-.76h-.93v-.52Zm.09-2.75h1.88v-1.78h.61v1.78h1.58v.53h-1.58v.49l.25-.28c.51.37.93.69,1.28,1l-.4.45a12.82,12.82,0,0,0-1.13-.93v.9h-.61v-1.11a7.85,7.85,0,0,1-1.74,1.33c-.1-.16-.22-.32-.35-.49a9.23,9.23,0,0,0,1.9-1.32H630v-.53Zm6.78.23h-1.53l-.09.2a7.15,7.15,0,0,0,.82,2.89,7.34,7.34,0,0,0,.8-3.09Zm-5.64,3.61,1.19.54a3.29,3.29,0,0,0,.89-1.11h-1.71c-.12.2-.25.39-.37.57Zm2.56-5.42.51.32c-.3.39-.61.74-.91,1.06l-.44-.33q.42-.48.84-1Zm-3.49.35.47-.31c.24.29.5.6.76.94l-.51.35c-.24-.35-.48-.67-.72-1"/><path class="cls-21" d="M640.91,564.46a7.73,7.73,0,0,1-.12,1.36,6.47,6.47,0,0,1-.38,1.3,5.34,5.34,0,0,1-.66,1.16,4.85,4.85,0,0,1-1,1l-.06,0h0a.09.09,0,0,1-.07,0,.14.14,0,0,1,0-.06.09.09,0,0,1,0-.07,4.35,4.35,0,0,0,.8-1A5.91,5.91,0,0,0,640,567a7.22,7.22,0,0,0,.29-1.24,10.9,10.9,0,0,0,.08-1.29,11.13,11.13,0,0,0-.08-1.28,7.33,7.33,0,0,0-.29-1.25,5.56,5.56,0,0,0-.53-1.13,4.14,4.14,0,0,0-.8-1,.09.09,0,0,1,0-.07.12.12,0,0,1,0-.07.09.09,0,0,1,.07,0h0l.06,0a4.41,4.41,0,0,1,1,1,5.34,5.34,0,0,1,.66,1.16,6.11,6.11,0,0,1,.38,1.3,7.7,7.7,0,0,1,.12,1.35"/><rect class="cls-23" width="656.24" height="679.99"/></g></g></svg>