<svg xmlns="http://www.w3.org/2000/svg" xmlns:xlink="http://www.w3.org/1999/xlink" viewBox="0 0 288.49 120.11"><defs><style>.cls-1{opacity:0.5;fill:url(#白色_黑色);}.cls-2,.cls-3,.cls-4{fill:none;stroke:#231815;stroke-miterlimit:10;}.cls-2,.cls-3{stroke-width:0.25px;}.cls-3{stroke-dasharray:1.98 1.98;}.cls-4{stroke-width:0.5px;}.cls-5,.cls-6,.cls-7,.cls-8{fill:#231815;}.cls-6{font-size:9px;}.cls-6,.cls-7,.cls-8{font-family:AdobeSongStd-Light-GBpc-EUC-H, Adobe Song Std;}.cls-7{font-size:6px;}.cls-8{font-size:7px;}</style><linearGradient id="白色_黑色" x1="112.29" y1="47.24" x2="264.25" y2="47.24" gradientUnits="userSpaceOnUse"><stop offset="0" stop-color="#fff"/><stop offset="1" stop-color="#231815"/></linearGradient></defs><g id="图层_2" data-name="图层 2"><g id="图层_1-2" data-name="图层 1"><polygon class="cls-1" points="204.05 69.3 112.29 69.3 172.49 25.18 264.25 25.18 204.05 69.3"/><polyline class="cls-2" points="1.38 69.3 0.38 69.3 1.19 68.71"/><polyline class="cls-3" points="2.79 67.54 60.58 25.18 150.35 25.18"/><polyline class="cls-2" points="151.34 25.18 152.34 25.18 151.53 25.77"/><polyline class="cls-3" points="149.93 26.94 92.14 69.3 2.37 69.3"/><line class="cls-4" x1="261.23" y1="8.28" x2="186.74" y2="67.79"/><polygon class="cls-5" points="263.98 6.07 258.83 7.59 261.02 8.44 261.37 10.77 263.98 6.07"/><line class="cls-4" x1="276.69" y1="36.93" x2="170.5" y2="36.93"/><polygon class="cls-5" points="280.22 36.93 275.25 34.9 276.43 36.93 275.25 38.96 280.22 36.93"/><text class="cls-6" transform="translate(282.64 40.03)">X</text><text class="cls-7" transform="translate(248.93 42.92)">x</text><text class="cls-7" transform="translate(239.1 20.7)">y</text><text class="cls-6" transform="translate(265.92 7.92)">Y</text><text class="cls-6" transform="translate(144.41 40.03)">-∞</text><text class="cls-6" transform="translate(93.56 40.03)">x≤-∞</text><line class="cls-4" x1="248.31" y1="36" x2="248.31" y2="37.64"/><line class="cls-4" x1="239.08" y1="25.18" x2="241.06" y2="25.18"/><text class="cls-8" transform="translate(150.14 101.53)">二维随机变量<tspan x="0" y="8.4">的累加函数F(x,y), 只在这一块面积上存在</tspan></text><text class="cls-8" transform="translate(16.04 101.53)">显然, F(x,y)在这里, <tspan x="0" y="8.4">概率值就是0了</tspan></text><line class="cls-4" x1="167.94" y1="88.08" x2="167.94" y2="63.53"/><polygon class="cls-5" points="167.94 59.99 169.97 64.97 167.94 63.79 165.91 64.97 167.94 59.99"/></g></g></svg>