<svg xmlns="http://www.w3.org/2000/svg" xmlns:xlink="http://www.w3.org/1999/xlink" viewBox="0 0 247.82 132.39"><defs><style>.cls-1,.cls-2,.cls-4{fill:none;stroke:#231815;stroke-miterlimit:10;}.cls-1,.cls-2{stroke-width:0.25px;}.cls-2{stroke-dasharray:1.98 1.98;}.cls-3{opacity:0.5;fill:url(#白色_黑色);}.cls-4{stroke-width:0.5px;}.cls-5,.cls-6,.cls-7,.cls-8{fill:#231815;}.cls-6{font-size:9px;}.cls-6,.cls-7,.cls-8{font-family:AdobeSongStd-Light-GBpc-EUC-H, Adobe Song Std;}.cls-7{font-size:6px;}.cls-8{font-size:7px;}</style><linearGradient id="白色_黑色" x1="0.38" y1="51.11" x2="152.33" y2="51.11" gradientUnits="userSpaceOnUse"><stop offset="0" stop-color="#fff"/><stop offset="1" stop-color="#231815"/></linearGradient></defs><g id="图层_2" data-name="图层 2"><g id="图层_1-2" data-name="图层 1"><polyline class="cls-1" points="1.38 73.36 0.38 73.36 1.18 72.77"/><polyline class="cls-2" points="2.77 71.59 86.37 9.59 215.44 9.59"/><polyline class="cls-1" points="216.43 9.59 217.43 9.59 216.63 10.18"/><polyline class="cls-2" points="215.04 11.36 131.44 73.36 2.37 73.36"/><polygon class="cls-3" points="92.13 73.18 0.38 73.18 60.58 29.05 152.33 29.05 92.13 73.18"/><line class="cls-4" x1="149.31" y1="12.15" x2="74.83" y2="71.66"/><polygon class="cls-5" points="152.07 9.95 146.91 11.46 149.11 12.31 149.45 14.64 152.07 9.95"/><line class="cls-4" x1="164.78" y1="40.8" x2="58.59" y2="40.8"/><polygon class="cls-5" points="168.31 40.8 163.33 38.77 164.51 40.8 163.33 42.84 168.31 40.8"/><text class="cls-6" transform="translate(170.72 43.9)">X</text><text class="cls-7" transform="translate(137.02 46.79)">x</text><text class="cls-7" transform="translate(127.18 24.57)">y</text><text class="cls-6" transform="translate(154.01 11.79)">Y</text><text class="cls-8" transform="translate(19.06 82.45)">y= -∞处</text><text class="cls-8" transform="translate(8.94 46.79)">x= -∞处</text><text class="cls-8" transform="translate(196.49 33.42)">x= +∞处</text><text class="cls-8" transform="translate(179.19 6.16)">x= +∞处</text><line class="cls-4" x1="136.4" y1="39.87" x2="136.4" y2="41.52"/><line class="cls-4" x1="127.16" y1="29.05" x2="129.15" y2="29.05"/><text class="cls-8" transform="translate(22.2 105.41)">二维随机变量<tspan x="0" y="8.4">的累加函数F(x,y), 只在这一块面积上存在</tspan><tspan x="0" y="25.2" xml:space="preserve">所以在整个虚线的面积中, F(x,y)的值, 肯定是全包括了阴影面积,  就是 =1了</tspan></text><line class="cls-4" x1="56.03" y1="91.96" x2="56.03" y2="67.4"/><polygon class="cls-5" points="56.03 63.87 58.06 68.84 56.03 67.66 53.99 68.84 56.03 63.87"/></g></g></svg>