<svg xmlns="http://www.w3.org/2000/svg" xmlns:xlink="http://www.w3.org/1999/xlink" style="vertical-align:-2.13ex" width="44.481ex" height="5.634ex" viewBox="0 -1508.9 19151.6 2425.9"><defs><path id="f" stroke-width="1" d="M465 605q-37 0-71 9t-54 18-21 9q13-33 13-93 0-90-39-145t-91-56q-57 0-101 55T56 548q0 89 45 145t101 57q39 0 70-31 87-77 192-77 116 0 186 90 12 16 18 17 2 1 5 1 9 0 15-7t5-17Q178-47 170-52q-4-4-10-4-13 0-18 11-5 9 0 18 1 3 221 331 106 158 162 242t56 84q-53-25-116-25zM207 385q28 0 56 42t29 121q0 69-25 116t-67 48q-7 0-14-3t-19-11-20-30-13-53q-2-20-2-67v-21q0-91 33-124 18-18 38-18h4zm293-239q0 88 44 144t103 57q52 0 90-55t39-146T737 0t-91-56q-56 0-101 56t-45 146zM651-18q28 0 56 42t29 122q0 69-25 116t-67 47q-7 0-14-3t-19-11-20-30-13-53q-1-12-1-66v-22q0-142 70-142h4z"/><path id="a" stroke-width="1" d="M56 347q0 13 14 20h637q15-8 15-20 0-11-14-19l-318-1H72q-16 5-16 20zm0-194q0 15 16 20h636q14-10 14-20 0-13-15-20H70q-14 7-14 20z"/><path id="c" stroke-width="1" d="M96 585q56 81 153 81 48 0 96-26t78-92q37-83 37-228 0-155-43-237-20-42-55-67t-61-31-51-7q-26 0-52 6t-61 32-55 67q-43 82-43 237 0 174 57 265zm225 12q-30 32-71 32-42 0-72-32-25-26-33-72t-8-192q0-158 8-208t36-79q28-30 69-30 40 0 68 30 29 30 36 84t8 203q0 145-8 191t-33 73z"/><path id="d" stroke-width="1" d="M630 29q0-20-21-20-5 0-22 16t-94 93L389 222 284 117Q178 13 175 11q-4-2-7-2-8 0-14 6t-7 14q0 7 14 22t94 95l104 104-104 104q-81 81-94 95t-14 22q0 9 6 14t15 5q5 0 7-1 3-2 109-106l105-105 104 104q77 77 94 93t22 16q21 0 21-20 0-7-10-18t-98-98L418 250l104-105q84-84 96-97t12-19z"/><path id="e" stroke-width="1" d="M109 429q-27 0-43 18t-16 44q0 71 53 123t132 52q91 0 152-56t62-145q0-43-20-82t-48-68-80-74q-36-31-100-92l-59-56 76-1q157 0 167 5 7 2 24 89v3h40v-3q-1-3-13-91T421 3V0H50v31q0 7 6 15t30 35q29 32 50 56 9 10 34 37t34 37 29 33 28 34 23 30 21 32 15 29 13 32 7 30 3 33q0 63-34 109t-97 46q-33 0-58-17t-35-33-10-19q0-1 5-1 18 0 37-14t19-46q0-25-16-42t-45-18z"/><path id="b" stroke-width="1" d="M70 417v77l54 124 124 48q71 0 126-42t55-109q0-30-11-56t-26-42-31-28-26-18-11-8l14-9 28-20q14-10 16-11 75-59 75-149 0-79-58-137T249-22q-90 0-148 51T43 155q0 108 129 180l-18 13q-21 13-27 20-57 49-57 126zm216-31l6 4 9 6q3 2 10 7t12 10 11 12 11 13 10 16 9 17 5 20 2 22q0 43-29 73t-67 38q-7 1-33 1-41 0-77-26t-37-65q0-23 13-42t26-29 50-32q7-5 11-7l58-38zM250 21q58 0 100 34t42 82q0 17-5 32t-12 25-22 22-23 18-29 19-27 17q-14 9-30 19t-26 17l-8 5q-6 0-29-17t-48-55-26-82q0-59 43-97t100-39z"/><path id="g" stroke-width="1" d="M56 237v13l14 20h299v150l1 150q10 13 19 13 13 0 20-15V270h298q15-8 15-20t-15-20H409V-68q-8-14-18-14h-4q-12 0-18 14v298H70q-14 7-14 20z"/><path id="h" stroke-width="1" d="M352 287q-48-76-120-76-78 0-128 59T44 396q-2 16-2 40v8q0 93 69 162 60 60 132 60h6q4 0 8-1h4q12 0 25-2t37-12 47-32 43-59q43-88 43-226 0-140-60-237-35-56-84-87T208-22q-61 0-100 29T68 93t53 56q22 0 37-14t15-39q0-18-9-31t-16-16-13-5l-4-1q0-2 7-6t26-10 42-5h6q60 0 101 64 39 56 39 194v7zm-108-39q48 0 77 49t30 133q0 78-8 112-2 10-6 20t-14 26-30 27-47 10q-38 0-65-27-21-22-27-52t-7-105q0-83 5-112t20-47q25-34 72-34z"/><path id="i" stroke-width="1" d="M127 463q-27 0-42 17t-16 44q0 55 48 98t116 43q35 0 44-1 74-12 113-53t40-89q0-52-34-101t-94-71l-3-2q0-1 9-3t29-9 38-21q82-53 82-140 0-79-62-138T238-22q-80 0-138 43T42 130q0 28 18 45t45 18q28 0 46-18t18-45q0-11-3-20t-7-16-11-12-12-8-10-4-8-3l-4-1q51-45 124-45 55 0 83 53 17 33 17 101v20q0 95-64 127-15 6-61 7l-42 1-3 2q-2 3-2 16 0 18 8 18 28 0 58 5 34 5 62 42t28 112v8q0 57-35 79-22 14-47 14-32 0-59-11t-38-23-11-12h3q3-1 8-2t10-5 12-7 10-11 8-15 3-20q0-22-14-39t-45-18z"/><path id="j" stroke-width="1" d="M164 157q0-24-16-40t-39-16h-7q46-79 122-79 70 0 102 60 19 33 19 128 0 103-27 139-26 33-58 33h-6q-78 0-118-68-4-7-7-8t-15-2q-17 0-19 6-2 4-2 175v129q0 50 5 50 2 2 4 2 1 0 21-8t55-16 75-8q71 0 136 28 8 4 13 4 8 0 8-18v-13q-82-97-205-97-31 0-56 6l-10 2V374q19 14 30 22t36 16 51 8q81 0 137-65t56-154q0-92-64-157T229-22q-81 0-130 54T50 154q0 24 11 38t23 18 23 4q25 0 41-17t16-40z"/><path id="k" stroke-width="1" d="M78 60q0 24 17 42t43 18q24 0 42-16t19-43q0-25-17-43T139 0 96 17 78 60z"/></defs><g fill="currentColor" stroke="currentColor" stroke-width="0" transform="scale(1 -1)"><use xlink:href="#a"/><path stroke="none" d="M1175 220h14741v60H1175z"/><g transform="translate(1235 676)"><use xlink:href="#b"/><use x="500" xlink:href="#c"/><use x="1223" xlink:href="#d"/><g transform="translate(2223)"><use xlink:href="#e"/><use x="500" xlink:href="#c"/></g><use x="3224" xlink:href="#f"/><use x="4280" xlink:href="#g"/><g transform="translate(5281)"><use xlink:href="#h"/><use x="500" xlink:href="#c"/></g><use x="6504" xlink:href="#d"/><g transform="translate(7505)"><use xlink:href="#i"/><use x="500" xlink:href="#c"/></g><use x="8506" xlink:href="#f"/><use x="9562" xlink:href="#g"/><g transform="translate(10562)"><use xlink:href="#h"/><use x="500" xlink:href="#j"/></g><use x="11786" xlink:href="#d"/><g transform="translate(12786)"><use xlink:href="#j"/><use x="500" xlink:href="#c"/></g><use x="13787" xlink:href="#f"/></g><g transform="translate(4570 -726)"><use xlink:href="#e"/><use x="500" xlink:href="#c"/><use x="1001" xlink:href="#f"/><use x="2056" xlink:href="#g"/><g transform="translate(3057)"><use xlink:href="#i"/><use x="500" xlink:href="#c"/></g><use x="4058" xlink:href="#f"/><use x="5114" xlink:href="#g"/><g transform="translate(6114)"><use xlink:href="#j"/><use x="500" xlink:href="#c"/></g><use x="7115" xlink:href="#f"/></g><use x="16315" xlink:href="#a"/><g transform="translate(17371)"><use xlink:href="#h"/><use x="500" xlink:href="#c"/><use x="1001" xlink:href="#k"/><use x="1279" xlink:href="#j"/></g></g></svg>