<svg xmlns="http://www.w3.org/2000/svg" viewBox="0 0 201.28 169.01"><defs><style>.cls-1{font-size:56.67px;fill:#898989;font-family:MicrosoftYaHeiLight, Microsoft YaHei;}.cls-2,.cls-6{fill:none;}.cls-2,.cls-5,.cls-6{stroke:#231815;}.cls-2,.cls-5,.cls-6,.cls-7{stroke-miterlimit:10;}.cls-3{font-size:8px;fill:#231815;font-family:MicrosoftYaHei, Microsoft YaHei;}.cls-4{letter-spacing:0.04em;}.cls-5,.cls-7{fill:#fff;}.cls-5,.cls-6{stroke-width:0.5px;}.cls-7{stroke:#9fa0a0;}</style></defs><title>资源 47</title><g id="图层_2" data-name="图层 2"><g id="图层_1-2" data-name="图层 1"><text class="cls-1" transform="translate(153.13 49.89)">?</text><circle class="cls-2" cx="91.03" cy="29.76" r="29.26"/><text class="cls-3" transform="translate(79.75 27.36)"><tspan class="cls-4">X</tspan><tspan x="5.45" y="0">,Y 有</tspan><tspan x="-4.72" y="9.6">线性相关</tspan></text><text class="cls-3" transform="translate(0 27.36)"><tspan class="cls-4">X</tspan><tspan x="5.45" y="0">,Y 不相关</tspan></text><text class="cls-3" transform="translate(4 142.36)"><tspan class="cls-4">X</tspan><tspan x="5.45" y="0">,Y 独立</tspan></text><circle class="cls-2" cx="166.29" cy="29.76" r="29.26"/><text class="cls-3" transform="translate(155.01 27.36)"><tspan class="cls-4">X</tspan><tspan x="5.45" y="0">,Y 有</tspan><tspan x="-8.72" y="9.6">非线性相关</tspan></text><circle class="cls-2" cx="91.03" cy="139.26" r="29.26"/><text class="cls-3" transform="translate(79.75 136.86)"><tspan class="cls-4">X</tspan><tspan x="5.45" y="0">,Y 有</tspan><tspan x="-4.72" y="9.6">线性相关</tspan></text><circle class="cls-2" cx="166.29" cy="139.26" r="29.26"/><text class="cls-3" transform="translate(155.01 136.86)"><tspan class="cls-4">X</tspan><tspan x="5.45" y="0">,Y 有</tspan><tspan x="-8.72" y="9.6">非线性相关</tspan></text><line class="cls-5" x1="71.37" y1="120.79" x2="110.06" y2="159.47"/><line class="cls-6" x1="110.78" y1="120.06" x2="70.65" y2="160.2"/><line class="cls-5" x1="71.37" y1="10.41" x2="110.06" y2="49.1"/><line class="cls-6" x1="110.78" y1="9.69" x2="70.65" y2="49.82"/><line class="cls-5" x1="146.95" y1="120.79" x2="185.63" y2="159.47"/><line class="cls-6" x1="186.36" y1="120.06" x2="146.22" y2="160.2"/><line class="cls-7" x1="4.47" y1="86.72" x2="201.28" y2="86.72"/></g></g></svg>