<svg xmlns="http://www.w3.org/2000/svg" viewBox="0 0 232.89 167.46"><defs><style>.cls-1,.cls-3,.cls-6,.cls-7,.cls-8{fill:none;}.cls-1,.cls-3,.cls-8{stroke:#231815;stroke-miterlimit:10;}.cls-1{stroke-width:0.5px;}.cls-2,.cls-4,.cls-5{fill:#231815;}.cls-4{font-size:8px;}.cls-4,.cls-5{font-family:MicrosoftYaHeiLight, Microsoft YaHei;}.cls-5{font-size:52.11px;}.cls-6,.cls-7{stroke:#000;stroke-width:0;}.cls-6{opacity:0.03;}.cls-7{opacity:0.02;}.cls-8{stroke-width:0.75px;}</style></defs><title>资源 49</title><g id="图层_2" data-name="图层 2"><g id="图层_1-2" data-name="图层 1"><line class="cls-1" x1="17.89" y1="91.79" x2="221.86" y2="91.79"/><polygon class="cls-2" points="225.39 91.79 220.41 93.82 221.59 91.79 220.41 89.76 225.39 91.79"/><line class="cls-3" x1="114.41" y1="85.79" x2="114.41" y2="95.29"/><line class="cls-3" x1="170.07" y1="85.79" x2="170.07" y2="95.29"/><text class="cls-4" transform="translate(107.38 106.29)">E(X)</text><text class="cls-4" transform="translate(140.58 125.29)">ε</text><line class="cls-3" x1="62.85" y1="85.79" x2="62.85" y2="95.29"/><text class="cls-4" transform="translate(84.74 125.29)">-ε</text><path class="cls-3" d="M232.89,67.29H194.57a24.5,24.5,0,0,0-24.5,24.5h0"/><path class="cls-3" d="M0,67.29H38.31a24.49,24.49,0,0,1,24.5,24.5h0"/><text class="cls-5" transform="translate(73.28 127.85) rotate(90)">}</text><text class="cls-5" transform="translate(128.28 127.85) rotate(90)">}</text><text class="cls-4" transform="translate(60.89 153.36)">这段距离就是<tspan x="10.87" y="12">|X-E(X)|</tspan></text><text class="cls-4" transform="translate(122.06 153.36)">这段距离就是<tspan x="10.87" y="12">|X-E(X)|</tspan></text><text class="cls-4" transform="translate(79.47 6.85)">随机变量X落在<tspan x="4.29" y="12">这里的区域, </tspan><tspan x="7.63" y="24">其概率是≤</tspan></text><text class="cls-4" transform="translate(152.23 31.63)">的</text><path d="M136.92,20.26a2,2,0,0,0-.11-.68,1.48,1.48,0,0,0-.25-.47,1.17,1.17,0,0,0-.37-.28,1.3,1.3,0,0,0-.38-.16l-.35-.07h-1.17c-.29,0-.45,0-.49.1s-.25,1-.72,2.86-.7,2.83-.7,2.85,0,0,.11,0h1.18a2.74,2.74,0,0,0,2.05-.82,2.88,2.88,0,0,0,.58-.83,7.09,7.09,0,0,0,.42-1.26A5.21,5.21,0,0,0,136.92,20.26Zm-4.1-1.58c0-.05-.18-.08-.56-.09H132a.08.08,0,0,1-.07-.09.54.54,0,0,1,0-.2.34.34,0,0,1,.07-.15h3.8a1.32,1.32,0,0,1,.39.06,2.11,2.11,0,0,1,1.2.78,2.62,2.62,0,0,1,.51,1.65,4.17,4.17,0,0,1-1.06,2.78,4,4,0,0,1-2.48,1.47l-.14,0h-3.52a1.11,1.11,0,0,1-.31,0,.11.11,0,0,1-.08-.09,1.32,1.32,0,0,1,0-.13c0-.11.06-.17.08-.18a.5.5,0,0,1,.23,0l.59,0a.29.29,0,0,0,.19-.12s.25-.95.71-2.76S132.82,18.78,132.82,18.68Z"/><path class="cls-6" d="M136.92,20.26a2,2,0,0,0-.11-.68,1.48,1.48,0,0,0-.25-.47,1.17,1.17,0,0,0-.37-.28,1.3,1.3,0,0,0-.38-.16l-.35-.07h-1.17c-.29,0-.45,0-.49.1s-.25,1-.72,2.86-.7,2.83-.7,2.85,0,0,.11,0h1.18a2.74,2.74,0,0,0,2.05-.82,2.88,2.88,0,0,0,.58-.83,7.09,7.09,0,0,0,.42-1.26A5.21,5.21,0,0,0,136.92,20.26Zm-4.1-1.58c0-.05-.18-.08-.56-.09H132a.08.08,0,0,1-.07-.09.54.54,0,0,1,0-.2.34.34,0,0,1,.07-.15h3.8a1.32,1.32,0,0,1,.39.06,2.11,2.11,0,0,1,1.2.78,2.62,2.62,0,0,1,.51,1.65,4.17,4.17,0,0,1-1.06,2.78,4,4,0,0,1-2.48,1.47l-.14,0h-3.52a1.11,1.11,0,0,1-.31,0,.11.11,0,0,1-.08-.09,1.32,1.32,0,0,1,0-.13c0-.11.06-.17.08-.18a.5.5,0,0,1,.23,0l.59,0a.29.29,0,0,0,.19-.12s.25-.95.71-2.76S132.82,18.78,132.82,18.68Z"/><path d="M138.57,24.91h0c-.1,0-.14,0-.14-.11a.9.9,0,0,1,0-.15c0-.1.05-.15.07-.16a.31.31,0,0,1,.18,0,1.85,1.85,0,0,0,1.33-.52c.07-.07.45-.48,1.14-1.25s1.05-1.16,1-1.17c-.72-1.84-1.09-2.78-1.12-2.81s-.27-.12-.62-.12h-.28a.21.21,0,0,1-.06-.08s0-.08,0-.19a.48.48,0,0,1,.1-.19h.14l1.19,0h1a.6.6,0,0,1,.2,0c.11,0,.17,0,.17.11s0,.05,0,.13a.58.58,0,0,1-.07.18s-.07,0-.16,0a1.15,1.15,0,0,0-.53.17l.76,1.92.52-.58a7.21,7.21,0,0,0,1-1.24c0-.12-.08-.21-.23-.25l-.13,0c-.1,0-.15,0-.15-.11s0-.07,0-.16a.48.48,0,0,1,.1-.19h.36l.53,0a3.15,3.15,0,0,0,.41,0,7.2,7.2,0,0,0,1,0h.08c.05.05.07.08.07.11a.54.54,0,0,1-.12.35h-.15a1.91,1.91,0,0,0-.61.09,1.54,1.54,0,0,0-.4.17A1.46,1.46,0,0,0,145,19l-.1.09s-.32.34-.94,1l-.86,1s.11.27.31.79.42,1.06.64,1.61.34.84.36.86a1.23,1.23,0,0,0,.6.1c.23,0,.35,0,.35.09s0,.06,0,.14a.58.58,0,0,1-.07.18.22.22,0,0,1-.14,0h-2.46c-.11,0-.17,0-.17-.09s0,0,0-.14,0-.12,0-.14,0-.05,0-.05l.09,0h.16a.8.8,0,0,0,.25-.07c.12-.06.17-.09.17-.1s-.16-.39-.46-1.16l-.46-1.18c-1.24,1.36-1.87,2.07-1.9,2.14a.24.24,0,0,0,0,.12c0,.12.09.21.28.25h.19s0,0,0,0a.35.35,0,0,1,0,.07.78.78,0,0,1,0,.16c0,.08,0,.13-.06.14a.24.24,0,0,1-.15,0h-1.17C139,24.89,138.71,24.9,138.57,24.91Z"/><path class="cls-6" d="M138.57,24.91h0c-.1,0-.14,0-.14-.11a.9.9,0,0,1,0-.15c0-.1.05-.15.07-.16a.31.31,0,0,1,.18,0,1.85,1.85,0,0,0,1.33-.52c.07-.07.45-.48,1.14-1.25s1.05-1.16,1-1.17c-.72-1.84-1.09-2.78-1.12-2.81s-.27-.12-.62-.12h-.28a.21.21,0,0,1-.06-.08s0-.08,0-.19a.48.48,0,0,1,.1-.19h.14l1.19,0h1a.6.6,0,0,1,.2,0c.11,0,.17,0,.17.11s0,.05,0,.13a.58.58,0,0,1-.07.18s-.07,0-.16,0a1.15,1.15,0,0,0-.53.17l.76,1.92.52-.58a7.21,7.21,0,0,0,1-1.24c0-.12-.08-.21-.23-.25l-.13,0c-.1,0-.15,0-.15-.11s0-.07,0-.16a.48.48,0,0,1,.1-.19h.36l.53,0a3.15,3.15,0,0,0,.41,0,7.2,7.2,0,0,0,1,0h.08c.05.05.07.08.07.11a.54.54,0,0,1-.12.35h-.15a1.91,1.91,0,0,0-.61.09,1.54,1.54,0,0,0-.4.17A1.46,1.46,0,0,0,145,19l-.1.09s-.32.34-.94,1l-.86,1s.11.27.31.79.42,1.06.64,1.61.34.84.36.86a1.23,1.23,0,0,0,.6.1c.23,0,.35,0,.35.09s0,.06,0,.14a.58.58,0,0,1-.07.18.22.22,0,0,1-.14,0h-2.46c-.11,0-.17,0-.17-.09s0,0,0-.14,0-.12,0-.14,0-.05,0-.05l.09,0h.16a.8.8,0,0,0,.25-.07c.12-.06.17-.09.17-.1s-.16-.39-.46-1.16l-.46-1.18c-1.24,1.36-1.87,2.07-1.9,2.14a.24.24,0,0,0,0,.12c0,.12.09.21.28.25h.19s0,0,0,0a.35.35,0,0,1,0,.07.78.78,0,0,1,0,.16c0,.08,0,.13-.06.14a.24.24,0,0,1-.15,0h-1.17C139,24.89,138.71,24.9,138.57,24.91Z"/><path d="M135.7,39a1.93,1.93,0,0,1-1.13-.33,1.13,1.13,0,0,1-.48-1,1.64,1.64,0,0,1,.69-1.25l.1-.06-.08-.09a.84.84,0,0,1-.23-.56,1.25,1.25,0,0,1,.67-1,2.62,2.62,0,0,1,1.44-.44h.12a1.68,1.68,0,0,1,1,.31c.15.1.23.2.23.29a.35.35,0,0,1-.11.22.34.34,0,0,1-.25.13.32.32,0,0,1-.2-.09,1.21,1.21,0,0,0-.33-.18,1.62,1.62,0,0,0-.54-.08,2.73,2.73,0,0,0-1.14.23c-.33.16-.5.36-.5.6a.49.49,0,0,0,.17.36.41.41,0,0,0,.11.1l.12,0a1.85,1.85,0,0,1,.8-.14h.05c.43,0,.64.1.64.31s-.28.4-.84.4a2.2,2.2,0,0,1-.8-.13l-.09.07a1.22,1.22,0,0,0-.63,1c0,.48.43.72,1.31.72a2.72,2.72,0,0,0,.83-.1.73.73,0,0,0,.42-.23,1.92,1.92,0,0,1,.16-.21.33.33,0,0,1,.17-.11.15.15,0,0,1,.14.17.6.6,0,0,1-.11.25,1.42,1.42,0,0,1-.31.36,1.64,1.64,0,0,1-.58.34A2.23,2.23,0,0,1,135.7,39Z"/><path class="cls-6" d="M135.7,39a1.93,1.93,0,0,1-1.13-.33,1.13,1.13,0,0,1-.48-1,1.64,1.64,0,0,1,.69-1.25l.1-.06-.08-.09a.84.84,0,0,1-.23-.56,1.25,1.25,0,0,1,.67-1,2.62,2.62,0,0,1,1.44-.44h.12a1.68,1.68,0,0,1,1,.31c.15.1.23.2.23.29a.35.35,0,0,1-.11.22.34.34,0,0,1-.25.13.32.32,0,0,1-.2-.09,1.21,1.21,0,0,0-.33-.18,1.62,1.62,0,0,0-.54-.08,2.73,2.73,0,0,0-1.14.23c-.33.16-.5.36-.5.6a.49.49,0,0,0,.17.36.41.41,0,0,0,.11.1l.12,0a1.85,1.85,0,0,1,.8-.14h.05c.43,0,.64.1.64.31s-.28.4-.84.4a2.2,2.2,0,0,1-.8-.13l-.09.07a1.22,1.22,0,0,0-.63,1c0,.48.43.72,1.31.72a2.72,2.72,0,0,0,.83-.1.73.73,0,0,0,.42-.23,1.92,1.92,0,0,1,.16-.21.33.33,0,0,1,.17-.11.15.15,0,0,1,.14.17.6.6,0,0,1-.11.25,1.42,1.42,0,0,1-.31.36,1.64,1.64,0,0,1-.58.34A2.23,2.23,0,0,1,135.7,39Z"/><path d="M139.5,32.9a.38.38,0,0,1-.3-.13.42.42,0,0,1-.11-.31,1.15,1.15,0,0,1,.37-.86,1.22,1.22,0,0,1,.92-.37,1.45,1.45,0,0,1,1.05.4,1.34,1.34,0,0,1,.44,1,1.3,1.3,0,0,1-.14.58,2.43,2.43,0,0,1-.34.48c-.13.13-.31.31-.56.52l-.69.64-.41.4h.53a9.65,9.65,0,0,0,1.16,0,2,2,0,0,0,.17-.63v0h.28v0s0,.23-.1.64a5.84,5.84,0,0,1-.1.65v0h-2.58v-.22a.14.14,0,0,1,0-.1l.21-.25.35-.39.23-.26.24-.26.2-.23.2-.24a1.17,1.17,0,0,1,.16-.21,1.28,1.28,0,0,0,.14-.23l.11-.2a1.09,1.09,0,0,0,.09-.23c0-.07,0-.14.05-.21a1.4,1.4,0,0,0,0-.23,1.28,1.28,0,0,0-.24-.77.79.79,0,0,0-.67-.32.71.71,0,0,0-.41.12.89.89,0,0,0-.24.23.4.4,0,0,0-.07.14h0a.47.47,0,0,1,.26.1.37.37,0,0,1,.13.32.4.4,0,0,1-.11.3A.44.44,0,0,1,139.5,32.9Z"/><path class="cls-7" d="M139.5,32.9a.38.38,0,0,1-.3-.13.42.42,0,0,1-.11-.31,1.15,1.15,0,0,1,.37-.86,1.22,1.22,0,0,1,.92-.37,1.45,1.45,0,0,1,1.05.4,1.34,1.34,0,0,1,.44,1,1.3,1.3,0,0,1-.14.58,2.43,2.43,0,0,1-.34.48c-.13.13-.31.31-.56.52l-.69.64-.41.4h.53a9.65,9.65,0,0,0,1.16,0,2,2,0,0,0,.17-.63v0h.28v0s0,.23-.1.64a5.84,5.84,0,0,1-.1.65v0h-2.58v-.22a.14.14,0,0,1,0-.1l.21-.25.35-.39.23-.26.24-.26.2-.23.2-.24a1.17,1.17,0,0,1,.16-.21,1.28,1.28,0,0,0,.14-.23l.11-.2a1.09,1.09,0,0,0,.09-.23c0-.07,0-.14.05-.21a1.4,1.4,0,0,0,0-.23,1.28,1.28,0,0,0-.24-.77.79.79,0,0,0-.67-.32.71.71,0,0,0-.41.12.89.89,0,0,0-.24.23.4.4,0,0,0-.07.14h0a.47.47,0,0,1,.26.1.37.37,0,0,1,.13.32.4.4,0,0,1-.11.3A.44.44,0,0,1,139.5,32.9Z"/><rect x="129.01" y="28.85" width="18.51" height="0.6"/><path class="cls-8" d="M99.43,43.79c-9.26,0-43,1-59.5,24.5-.72,1-1.42,2.12-2.1,3.28"/><polygon class="cls-2" points="35.43 76.29 36.2 68.27 38.08 71.25 41.6 71.11 35.43 76.29"/><path class="cls-8" d="M131.06,43.79c9.26,0,43,1,59.5,24.5.72,1,1.43,2.12,2.1,3.28"/><polygon class="cls-2" points="195.06 76.29 188.89 71.11 192.41 71.25 194.29 68.27 195.06 76.29"/><text class="cls-4" transform="translate(105.58 118.22)">7300</text><text class="cls-4" transform="translate(53.92 106.29)">5200</text><text class="cls-4" transform="translate(161.11 106.29)">9400</text></g></g></svg>