<svg xmlns="http://www.w3.org/2000/svg" viewBox="0 0 323 217.94"><defs><style>.cls-1{fill:#601986;}.cls-2{fill:#2ea7e0;}.cls-3{fill:#8fc31f;}.cls-4{fill:#f8b62d;}.cls-5{fill:#ea5514;}.cls-6,.cls-7{fill:none;stroke:#231815;stroke-miterlimit:10;}.cls-6{stroke-width:3px;}.cls-8{font-size:11px;}.cls-8,.cls-9{fill:#231815;}.cls-10,.cls-8,.cls-9{font-family:MicrosoftYaHei, Microsoft YaHei;}.cls-10,.cls-9{font-size:9px;}.cls-10{fill:#fff;}</style></defs><title>资源 53</title><g id="图层_2" data-name="图层 2"><g id="图层_1-2" data-name="图层 1"><path class="cls-1" d="M116.76,136c5.12,9.72,9.17,21.14,9.85,33.57-25.59-9.41-48.58-23.39-63-40.21-.6-.7-1.38-1.61-2.29-2.71A142.44,142.44,0,0,0,84.5,110.1c2.48-2.17,4.82-4.37,7-6.61A123.18,123.18,0,0,1,116.76,136Z"/><path class="cls-2" d="M261.94,159.48a60.63,60.63,0,0,1-10.37,9c-29,19.89-80.87,17.27-125,1.06-.68-12.43-4.73-23.85-9.85-33.57a298.39,298.39,0,0,1,26.81-23.1h0C196.84,115.7,240.27,133.57,261.94,159.48Z"/><path class="cls-3" d="M269.31,100c14.33,13.68,9.72,41-7.37,59.51-21.67-25.91-65.1-43.78-118.36-46.61a295.65,295.65,0,0,1,40.81-26.16C228.52,98.19,253.79,85.18,269.31,100Z"/><path class="cls-4" d="M175.68,84.2c3,1,5.88,1.78,8.71,2.51a295.65,295.65,0,0,0-40.81,26.16h0A298.39,298.39,0,0,0,116.76,136a123.18,123.18,0,0,0-25.21-32.48,144.45,144.45,0,0,0,30.62-45.61C136.21,64.16,148.3,75.49,175.68,84.2Z"/><path class="cls-5" d="M122.17,57.88a144.45,144.45,0,0,1-30.62,45.61c-2.23,2.24-4.57,4.44-7,6.61a142.44,142.44,0,0,1-23.18,16.52C53.55,117.2,36.78,94.11,49.42,75c8.92-13.5,29.9-21.17,48.23-21.75A53.09,53.09,0,0,1,122.17,57.88Z"/><path class="cls-6" d="M61.32,126.62C53.55,117.2,36.78,94.11,49.42,75c8.92-13.5,29.9-21.17,48.23-21.75a53.09,53.09,0,0,1,24.52,4.67c14,6.28,26.13,17.61,53.51,26.32,3,1,5.88,1.78,8.71,2.51,44.13,11.48,69.4-1.53,84.92,13.26,14.33,13.68,9.72,41-7.37,59.51a60.63,60.63,0,0,1-10.37,9c-29,19.89-80.87,17.27-125,1.06-25.59-9.41-48.58-23.39-63-40.21C63,128.63,62.23,127.72,61.32,126.62Z"/><path class="cls-7" d="M322.5,52.1V217.44H.5v-194h322Z"/><path class="cls-7" d="M132.16,23.44a147.15,147.15,0,0,1-10,34.44,144.45,144.45,0,0,1-30.62,45.61c-2.23,2.24-4.57,4.44-7,6.61a142.44,142.44,0,0,1-23.18,16.52A147.7,147.7,0,0,1,.5,145.44"/><path class="cls-7" d="M91.55,103.49A123.18,123.18,0,0,1,116.76,136c5.12,9.72,9.17,21.14,9.85,33.57a65.65,65.65,0,0,1-1.45,17.9,71.36,71.36,0,0,1-15,30"/><path class="cls-7" d="M143.58,112.87a295.65,295.65,0,0,1,40.81-26.16q7.71-4.09,16.11-7.94a298.62,298.62,0,0,1,122-26.67"/><path class="cls-7" d="M116.76,136a298.39,298.39,0,0,1,26.81-23.1"/><path class="cls-7" d="M143.57,112.87h0c53.26,2.83,96.69,20.7,118.36,46.61a63,63,0,0,1,13.56,26.29c1.79,7.74,2.46,18.28-1.34,31.67"/><text class="cls-8" transform="translate(171.56 9.43)">Ω</text><text class="cls-9" transform="translate(16.48 52.1)">P(A1)</text><text class="cls-9" transform="translate(65.88 84.43)">P(A</text><text class="cls-9" transform="translate(80.72 87.43) scale(0.58)">1</text><text class="cls-9" transform="translate(83.8 84.43)">B)</text><text class="cls-9" transform="translate(113.43 98.43)">P(A</text><text class="cls-9" transform="translate(128.27 101.43) scale(0.58)">2</text><text class="cls-9" transform="translate(131.35 98.43)">B)</text><text class="cls-9" transform="translate(203.43 112.87)">P(A</text><text class="cls-9" transform="translate(218.27 115.86) scale(0.58)">3</text><text class="cls-9" transform="translate(221.35 112.87)">B)</text><text class="cls-9" transform="translate(162.76 149.1)">P(A</text><text class="cls-9" transform="translate(177.61 152.1) scale(0.58)">5</text><text class="cls-9" transform="translate(180.68 149.1)">B)</text><text class="cls-10" transform="translate(78.26 135.96)">P(A</text><text class="cls-10" transform="translate(93.11 138.96) scale(0.58)">4</text><text class="cls-10" transform="translate(96.19 135.96)">B)</text><text class="cls-9" transform="translate(47.82 182.55)">P(A4)</text><text class="cls-9" transform="translate(168.48 52.1)">P(A2)</text><text class="cls-9" transform="translate(179.6 203.43)">P(A5)</text><text class="cls-9" transform="translate(288.93 117.86)">P(A3)</text></g></g></svg>