<svg xmlns="http://www.w3.org/2000/svg" viewBox="0 0 318.41 164.33"><defs><style>.cls-1,.cls-4,.cls-9{fill:none;stroke:#231815;stroke-miterlimit:10;}.cls-2{fill:#2ea7e0;}.cls-3{fill:#8fc31f;}.cls-4{stroke-width:3px;}.cls-5{font-size:18px;}.cls-5,.cls-6,.cls-8{fill:#231815;font-family:MicrosoftYaHei, Microsoft YaHei;}.cls-6{font-size:14px;}.cls-7{font-size:8px;}.cls-8{font-size:24.88px;}.cls-9{stroke-width:0.5px;}</style></defs><title>资源 54</title><g id="图层_2" data-name="图层 2"><g id="图层_1-2" data-name="图层 1"><rect class="cls-1" x="0.5" y="0.5" width="271.33" height="163.33"/><path class="cls-2" d="M156.5,113.84c.55,8.43-2.69,16.47-8,23.88q-3.51.19-7.11.2c-45.17,0-81.78-23.73-81.78-53s36.61-53,81.78-53c.79,0,1.58,0,2.36,0-13.16,14-16.14,25.11-15.08,33.72C131.11,85.56,155.13,92.78,156.5,113.84Z"/><path class="cls-3" d="M143.75,32c44.08.8,79.42,24.21,79.42,53,0,27.72-32.83,50.47-74.67,52.8,5.31-7.41,8.55-15.45,8-23.88-1.37-21.06-25.39-28.28-27.83-48.17C127.61,57.06,130.59,46,143.75,32Z"/><path class="cls-4" d="M143.75,32c44.08.8,79.42,24.21,79.42,53,0,27.72-32.83,50.47-74.67,52.8q-3.51.19-7.11.2c-45.17,0-81.78-23.73-81.78-53s36.61-53,81.78-53C142.18,31.92,143,31.93,143.75,32Z"/><path class="cls-1" d="M184.5.5C165.38,12.32,152.37,22.77,143.75,32c-13.16,14-16.14,25.11-15.08,33.72,2.44,19.89,26.46,27.11,27.83,48.17.55,8.43-2.69,16.47-8,23.88-7.21,10.09-18.24,19-28.66,26.12"/><text class="cls-5" transform="translate(23.26 90.91) scale(0.58)">P(A)</text><text class="cls-6" transform="translate(99.4 92.5) scale(0.58)">P(AB)<tspan x="-28.22" y="18.87">=P(A)×P(B |A)</tspan><tspan class="cls-7"><tspan x="-37.94" y="34.31">=A的总面积 × A中,B占A的比例</tspan></tspan></text><text class="cls-6" transform="translate(170.4 68.49) scale(0.58)">P(AB)<tspan x="-28.22" y="18.87">=P(A)×P(B |A)</tspan><tspan class="cls-7"><tspan x="-37.94" y="34.31">=A的总面积 × A中,B占A的比例</tspan></tspan></text><text class="cls-5" transform="translate(237.93 93.83) scale(0.58)">P(A)</text><text class="cls-8" transform="translate(170.67 35.12) scale(0.58)">P(B)</text><text class="cls-5" transform="translate(248.92 91.83) scale(0.32 0.58)">￣</text><text class="cls-5" transform="translate(285.09 55.16) scale(0.58)">P(B |A)</text><text class="cls-5" transform="translate(308.34 53.16) scale(0.32 0.58)">￣</text><line class="cls-9" x1="178.67" y1="60.29" x2="183.17" y2="60.29"/><line class="cls-9" x1="168.29" y1="71.92" x2="172.79" y2="71.92"/><line class="cls-9" x1="200.17" y1="71.92" x2="204.67" y2="71.92"/><line class="cls-9" x1="152.17" y1="84.08" x2="154.42" y2="84.08"/><line class="cls-9" x1="180.05" y1="84.08" x2="182.3" y2="84.08"/><line class="cls-9" x1="197.3" y1="84.08" x2="199.55" y2="84.08"/></g></g></svg>