<svg xmlns="http://www.w3.org/2000/svg" xmlns:xlink="http://www.w3.org/1999/xlink" style="vertical-align:-3.005ex" width="24.665ex" height="6.634ex" viewBox="0 -1562.8 10619.6 2856.4"><defs><path id="g" stroke-width="1" d="M173 380q0 25-19 25-24 0-50-29t-43-89q-1-1-2-3t-1-3-2-2-3-1-4 0-8 0H27q-6 6-6 9 0 7 8 29t24 52 44 51 63 22q42 0 65-24t24-56q0-17-3-26 0-6-15-44t-31-89-18-89q0-27 5-44 13-43 63-43 37 0 69 34t50 79 29 83 11 55q0 23-8 40t-18 26-18 18-8 22q0 22 19 41t41 19q19 0 34-18t16-58q0-27-12-83t-37-125-71-119-106-51q-64 0-102 33-37 32-37 95 0 31 8 64t41 117q22 64 22 82z"/><path id="a" stroke-width="1" d="M58-216q-33 0-35 30 0 10 50 212t54 208q16 55 55 107 70 86 159 100h8q6 0 10 1 73 0 112-48t39-118q0-57-24-111t-61-91-80-61-79-23h-18q-51 0-83 45l-5 6-27-112q-25-97-29-110t-12-21q-16-14-34-14zm366 538q0 37-17 60t-50 23q-35 0-70-29t-56-76q-14-31-38-130l-17-68q17-76 84-76 38 0 74 36 33 30 55 96t29 108 6 56z"/><path id="c" stroke-width="1" d="M66 637H49q-5 0-10 1t-7 3-2 6 3 17 9 18q2 1 14 1 48-3 109-3 123 0 141 3h10q6-6 6-9t-2-18q-4-13-10-19h-12q-56 0-56-13 0-5 50-147t51-144l3 3q4 4 12 13t21 24 32 37 43 51q92 107 107 126t16 31q0 16-32 19-17 0-17 10 0 2 2 14 3 15 5 18t14 4q2 0 29-1t79-2q27 0 56 1t33 1q17 0 17-9 0-4-3-16t-5-14q-2-6-21-6-72-5-117-50-9-9-140-163L348 273l-26-104Q295 62 295 57q0-11 68-11 16 0 21-1t6-10q0-2-2-12-4-17-6-19t-16-3h-42q-37 0-92 1h-94q-32 0-36-1-18 0-18 8 0 5 3 15l2 6q1 3 1 5t1 4 2 3 3 2 5 1 6 0 9 1 13 0q39 1 51 4t18 13q3 5 29 108l25 103-123 349-2 2-2 2q-1 1-3 2t-4 2-5 2-8 1-9 1-13 1-17 1z"/><path id="d" stroke-width="1" d="M56 347q0 13 14 20h637q15-8 15-20 0-11-14-19l-318-1H72q-16 5-16 20zm0-194q0 15 16 20h636q14-10 14-20 0-13-15-20H70q-14 7-14 20z"/><path id="e" stroke-width="1" d="M50 252q0 115 67 221t169 168 204 63q90 0 143-51 9-10 15-17t8-10l1-3q3 0 27 26 7 6 15 14t16 16 10 11l15 15h6q14 0 14-7 0-4-32-137-36-139-36-140-2-5-5-6t-18-2h-16q-6 6-6 9 0 1 1 7t2 20 1 32q0 71-32 124t-109 54q-26 0-56-7t-72-24-83-56-73-93q-32-57-51-133t-19-124q0-114 76-164 48-34 118-34 91 0 162 68t94 148q4 13 6 15t16 2q20 0 20-9 0-5-1-9-29-107-124-184T319-22q-113 0-191 75T50 252z"/><path id="f" stroke-width="1" d="M201-11q-75 0-121 49T34 156q0 65 30 123t82 101q76 61 155 61 32 0 40-1 13-3 26-7t35-16 36-30 26-49 12-70q0-107-86-193T201-11zm-80 131q0-50 26-72t59-22q44 0 83 32t62 84q9 21 23 74t14 92q0 44-18 67-24 30-64 30-63 0-111-58-37-44-55-117t-19-110z"/><path id="b" stroke-width="1" d="M42 0h-2Q26 0 26 11q0 4 3 16 4 14 7 16t19 3q86 3 135 52 10 10 116 126t105 118Q302 620 297 625q-9 11-63 12h-28q-6 6-6 8t2 19q4 13 10 19h14q34-2 121-2h61q28 0 45 1t20 0q17 0 17-11 0-1-2-13-4-15-7-18t-16-3q-31-3-54-17l77-194 53 59q105 113 105 125 0 18-24 25-5 0-13 2-15 0-15 11 0 2 2 16 4 13 10 19h37q24 0 54-2t41-1q90 0 99 3h8q7-7 7-11-2-25-12-35h-16q-34-1-61-9t-41-17-24-18l-11-9q0 1-95-104l-87-96q0-1 31-80t65-162 37-86q10-9 61-10 35 0 35-9 0-2-2-14-4-16-7-19t-14-3h-33q-30 0-89 1h-93q-32 0-35-1-17 0-17 9 0 1 2 15 2 10 4 14t5 5 9 2 16 1 26 7q17 8 17 10-1 0-47 117l-47 118Q241 95 236 84q-4-8-4-12 0-19 29-25h6q5 0 6-1h4q1 0 3-1t3-3 1-7q0-9-2-16-3-13-6-15t-15-3h-18q-15 0-42 1t-59 0Q64 2 42 0z"/><path id="h" stroke-width="1" d="M94 250q0 69 10 131t23 107 37 88 38 67 42 52 33 34 25 21h17q14 0 14-9 0-3-17-21t-41-53-49-86-42-138-17-193 17-192 41-139 49-86 42-53 17-21q0-9-15-9h-16l-28 24q-94 85-137 212T94 250z"/><path id="i" stroke-width="1" d="M78 35v25l16 43 43 18q28 0 50-25t23-88q0-35-9-68t-21-57-26-41-24-27-13-9q-4 0-13 9t-9 13q0 4 11 16t25 30 26 50 16 73V9l-1-1q-2-1-5-2t-6-3-9-2-12-1q-27 0-44 17z"/><path id="j" stroke-width="1" d="M60 749l4 1h22l28-24q94-85 137-212t43-264q0-68-10-131T261 12t-37-88-38-67-41-51-32-33-23-19l-4-4H63q-3 0-5 3t-3 9q1 1 11 13Q221-64 221 250T66 725q-10 12-11 13 0 8 5 11z"/><path id="l" stroke-width="1" d="M287 628q0 7-57 9-23 0-30 1t-7 9q0 8 4 20t7 15q2 1 199 1 167-1 187-1t40-6q72-17 122-79t51-166q0-156-107-280T444 3l-14-2-194-1H72Q48 0 41 2t-8 9q0 2 3 14 4 16 8 18t23 3q27 0 60 3 14 3 19 12 3 4 72 278t69 289zm416-159q0 38-11 68t-26 47-37 29-39 16-35 7h-43q-17 0-33 1h-43q-44 0-50-10-2-4-73-288T242 52q0-4 11-4t77-1h19q14 0 24-1 126 0 208 82 36 36 59 84t43 127 20 130z"/><path id="k" stroke-width="1" d="M263 249q1 0 52-119t102-238 53-120l255 530q256 535 257 537 7 11 19 11 7 0 12-6t7-12v-6L741 243Q645 43 540-176q-61-127-71-148t-16-24q-4-2-17-2l-12 1L315-96Q206 156 205 156l-34-26q-33-26-34-26l-26 26 152 119z"/></defs><g fill="currentColor" stroke="currentColor" stroke-width="0" transform="scale(1 -1)"><use xlink:href="#a"/><g transform="matrix(.707 0 0 .707 517 -150)"><use xlink:href="#b"/><use x="852" xlink:href="#c"/></g><use x="2037" xlink:href="#d"/><path stroke="none" d="M3213 220h7285v60H3213z"/><g transform="translate(4486 725)"><use xlink:href="#e"/><use x="760" xlink:href="#f"/><use x="1246" xlink:href="#g"/><g transform="translate(1898)"><use xlink:href="#h"/><use x="389" xlink:href="#b"/><use x="1242" xlink:href="#i"/><use x="1687" xlink:href="#c"/><use x="2450" xlink:href="#j"/></g></g><g transform="translate(3273 -906)"><use y="19" xlink:href="#k"/><path stroke="none" d="M1000 810h2626v60H1000z"/><g transform="translate(1000)"><use xlink:href="#l"/><g transform="translate(995)"><use xlink:href="#h"/><use x="389" xlink:href="#b"/><use x="1242" xlink:href="#j"/></g></g><g transform="translate(3627)"><use y="19" xlink:href="#k"/><path stroke="none" d="M1000 810h2537v60H1000z"/><g transform="translate(1000)"><use xlink:href="#l"/><g transform="translate(995)"><use xlink:href="#h"/><use x="389" xlink:href="#c"/><use x="1153" xlink:href="#j"/></g></g></g></g></g></svg>