<svg xmlns="http://www.w3.org/2000/svg" viewBox="0 0 54.56 76.58"><defs><style>.cls-1{fill:#dae000;}.cls-2{fill:#ba98a9;}.cls-3{fill:none;stroke:#231815;stroke-miterlimit:10;stroke-width:0.25px;}.cls-4,.cls-5,.cls-6,.cls-7{fill:#231815;}.cls-5{font-size:12px;}.cls-5,.cls-6{font-family:MicrosoftYaHeiLight, Microsoft YaHei;}.cls-6{font-size:6px;}.cls-7{font-size:4px;font-family:MicrosoftYaHei, Microsoft YaHei;}</style></defs><g id="图层_2" data-name="图层 2"><g id="图层_2-2" data-name="图层 2"><rect class="cls-1" x="0.23" y="12.65" width="5.8" height="10.55"/><rect class="cls-2" x="10.78" y="12.65" width="5.8" height="10.55"/><rect class="cls-2" x="37.15" y="12.65" width="5.8" height="10.55"/><rect class="cls-1" x="47.85" y="12.65" width="5.8" height="10.55"/><polyline class="cls-3" points="13.68 27.6 13.68 35.06 40.05 35.06 40.05 27.6"/><polygon class="cls-4" points="13.68 25.83 12.66 28.32 13.68 27.73 14.7 28.32 13.68 25.83"/><polygon class="cls-4" points="40.05 25.83 41.07 28.32 40.05 27.73 39.04 28.32 40.05 25.83"/><polyline class="cls-3" points="3.39 28.92 3.39 64.07 50.75 64.07 50.75 28.92"/><polygon class="cls-4" points="3.39 27.15 2.38 29.64 3.39 29.05 4.41 29.64 3.39 27.15"/><polygon class="cls-4" points="50.75 27.15 51.77 29.64 50.75 29.05 49.74 29.64 50.75 27.15"/></g><g id="图层_1-2" data-name="图层 1"><text class="cls-5" transform="translate(1.28 10.27)">m1</text><text class="cls-6" transform="translate(2.32 21.14)">2 * 4</text><text class="cls-5" transform="translate(37.24 10.27)">m2</text><text class="cls-6" transform="translate(38.27 21.14)">4 * 2</text><text class="cls-7" transform="translate(15.07 42.01)">内侧数字相等<tspan x="-6" y="5">这两个矩阵即可相乘</tspan></text><text class="cls-7" transform="translate(7.52 70.56)">相乘后, 得到的新矩阵,<tspan x="-7.52" y="5">行列数, 分别是外面的两个数字</tspan></text><text class="cls-5" transform="translate(22.81 10.27)">×</text></g></g></svg>