<svg xmlns="http://www.w3.org/2000/svg" height="128" viewBox="0 0 739 128" xmlns:xlink="http://www.w3.org/1999/xlink" width="739">
    <defs/>
    <g transform="translate(-368.00,-237.00)">
        <g id="shape1" transform="translate(369.00,279.54)">
            <path d="M.0,.0L66.0,.0L66.0,35.0L.0,35.0L.0,.0z" fill-rule="nonzero" fill="#ffffff" stroke="#323232"/>
            <text xml:space="preserve" style="fill:#191919;font-family:Microsoft YaHei;font-size:10.00pt">
                <tspan y="23.0" x="4.0">Lane</tspan>
            </text>
        </g>
        <g id="shape2" transform="translate(472.00,238.00)">
            <path d="M.0,.0L240.0,.0L240.0,35.0L.0,35.0L.0,.0z" fill-rule="nonzero" fill="#ffffff" stroke="#323232"/>
            <text xml:space="preserve" style="fill:#191919;font-family:Microsoft YaHei;font-size:10.00pt">
                <tspan y="23.0" x="4.0">treats (v.) nose and sinus problems</tspan>
            </text>
        </g>
        <g id="shape3" transform="translate(472.00,319.00)">
            <path d="M.0,.0L76.0,.0L76.0,35.0L.0,35.0L.0,.0z" fill-rule="nonzero" fill="#ffffff" stroke="#323232"/>
            <text xml:space="preserve" style="fill:#191919;font-family:Microsoft YaHei;font-size:10.00pt">
                <tspan y="23.0" x="4.0">studies (v.)</tspan>
            </text>
        </g>
        <g id="shape4" transform="translate(472.00,279.46)">
            <text xml:space="preserve" style="fill:#191919;font-family:Microsoft YaHei;font-size:10.00pt">
                <tspan y="23.0" x="4.4">and</tspan>
            </text>
        </g>
        <g id="shape5" transform="translate(595.00,309.50)">
            <path d="M.0,.0L163.5,.0L163.5,54.0L.0,54.0L.0,.0z" fill-rule="nonzero" fill="#ffffff" stroke="#323232"/>
            <text xml:space="preserve" style="fill:#191919;font-family:Microsoft YaHei;font-size:10.00pt">
                <tspan y="23.0" x="4.3">how the specialized cells</tspan>
                <tspan y="42.0" x="4.3">(主)</tspan>
            </text>
        </g>
        <g id="shape6" transform="translate(775.00,265.00)">
            <path d="M.0,.0L293.0,.0L293.0,35.0L.0,35.0L.0,.0z" fill-rule="nonzero" fill="#ffffff" stroke="#323232"/>
            <text xml:space="preserve" style="fill:#191919;font-family:Microsoft YaHei;font-size:10.00pt">
                <tspan y="23.0" x="4.0">lining the nasal cavity and sinuses</tspan>
            </text>
        </g>
        <path d="M.0,.0L38.0,.0L38.0,52.0L.0,52.0L.0,.0z" fill="none" id="shape7" stroke="#323232" transform="translate(720.50,310.50)"/>
        <g id="shape8" transform="translate(813.00,309.50)">
            <path d="M.0,.0L293.0,.0L293.0,54.0L.0,54.0L.0,.0z" fill-rule="nonzero" fill="#ffffff" stroke="#323232"/>
            <text xml:space="preserve" style="fill:#191919;font-family:Microsoft YaHei;font-size:10.00pt">
                <tspan y="23.0" x="4.0">participate in the body’s immune response</tspan>
                <tspan y="42.0" x="4.0">(谓宾)</tspan>
            </text>
        </g>
        <g id="shape9" transform="translate(435.00,297.96)">
            <path d="M.0,.0L19.0,.0L19.0,-41.5L31.0,-41.5" fill="none" stroke="#191919"/>
            <path stroke-width="1" stroke-linecap="round" d="M31.0,-44.5L37.0,-41.5L31.0,-38.5L31.0,-44.5" fill="#191919" stroke="#191919"/>
        </g>
        <g id="shape10" transform="translate(435.00,297.96)">
            <path d="M.0,.0L19.0,.0L19.0,39.5L31.0,39.5" fill="none" stroke="#191919"/>
            <path stroke-width="1" stroke-linecap="round" d="M31.0,36.5L37.0,39.5L31.0,42.5L31.0,36.5" fill="#191919" stroke="#191919"/>
        </g>
        <g id="shape11" transform="translate(548.00,337.42)">
            <path d="M.0,.0L15.0,.0L15.0,.5L41.0,.5" fill="none" stroke="#191919"/>
            <path stroke-width="1" stroke-linecap="round" d="M41.0,-2.5L47.0,.5L41.0,3.5L41.0,-2.5" fill="#191919" stroke="#191919"/>
        </g>
        <g id="shape12" transform="translate(739.50,310.50)">
            <path d="M.0,.0L.0,-27.1L29.5,-27.1" fill="none" stroke="#191919"/>
            <path stroke-width="1" stroke-linecap="round" d="M29.5,-30.1L35.5,-27.1L29.5,-24.1L29.5,-30.1" fill="#191919" stroke="#191919"/>
            <rect y="-36.6" height="19.0" fill="#ffffff" x="8.3" width="13.0"/>
            <text xml:space="preserve" style="fill:#191919;font-family:Microsoft YaHei;font-size:10.00pt">
                <tspan y="-21.6" x="8.3">定</tspan>
            </text>
        </g>
        <g id="shape13" transform="translate(758.50,337.92)">
            <path d="M.0,.0L48.5,.0" fill="none" stroke="#191919"/>
            <path stroke-width="1" stroke-linecap="round" d="M48.5,-3.0L54.5,.0L48.5,3.0L48.5,-3.0" fill="#191919" stroke="#191919"/>
            <rect y="-9.5" height="19.0" fill="#ffffff" x="15.3" width="13.0"/>
            <text xml:space="preserve" style="fill:#191919;font-family:Microsoft YaHei;font-size:10.00pt">
                <tspan y="5.5" x="15.3">宾</tspan>
            </text>
        </g>
    </g>
</svg>
