<svg id="图层_1" data-name="图层 1" xmlns="http://www.w3.org/2000/svg" viewBox="0 0 221.85 126.94"><defs><style>.cls-1{fill:none;stroke:#000;stroke-miterlimit:10;}</style></defs><title>0125</title><path d="M664.55,498.75V494.4h-5.19v4.35h-.63v-9.07h.63v4.15h5.19v-4.15h.62v9.07Z" transform="translate(-658.73 -453.52)"/><path d="M667.51,495.54a3.23,3.23,0,0,0,.62,2.09,2.06,2.06,0,0,0,1.69.75,3.47,3.47,0,0,0,2.13-.8v.62a3.82,3.82,0,0,1-2.24.71,2.54,2.54,0,0,1-2-.9,3.73,3.73,0,0,1-.77-2.53,3.6,3.6,0,0,1,.8-2.39,2.61,2.61,0,0,1,2.1-1,2.22,2.22,0,0,1,1.86.85,3.76,3.76,0,0,1,.64,2.32v.26Zm4.19-.53a2.84,2.84,0,0,0-.53-1.74,1.67,1.67,0,0,0-1.38-.62,2,2,0,0,0-1.51.61,2.89,2.89,0,0,0-.74,1.75Z" transform="translate(-658.73 -453.52)"/><path d="M675.75,500.82a9,9,0,0,1,0-11.14h.61a8.25,8.25,0,0,0-2,5.61,8.43,8.43,0,0,0,2,5.53Z" transform="translate(-658.73 -453.52)"/><path d="M676.86,496.93h2.21v-4.75a66.61,66.61,0,0,0,6.93-.43l.22.6c-2.06.2-4.23.34-6.51.4v1.46h7.74v.57h-2.77v2.15h3.55v.59H676.86Zm3.93,1.09.41.54q-1.83.92-3.72,1.71a3.59,3.59,0,0,0-.36-.58A35.59,35.59,0,0,0,680.79,498Zm1.3-9,.62-.1a.45.45,0,0,0,0,.08c.15.58.25,1,.29,1.23h4.74v2h-.63v-1.38H678v1.38h-.63v-2h5s0-.07,0-.14C682.23,489.64,682.16,489.28,682.09,489Zm-2.38,5.76v2.15H684v-2.15Zm4,3.78.38-.54c1.35.54,2.61,1.07,3.78,1.57l-.37.57C686.4,499.63,685.14,499.1,683.76,498.56Z" transform="translate(-658.73 -453.52)"/><path d="M689.33,500.82h-.62a8.48,8.48,0,0,0,2-5.53,8.26,8.26,0,0,0-2-5.61h.63a9,9,0,0,1,0,11.14Z" transform="translate(-658.73 -453.52)"/><path d="M697.07,490.64a.49.49,0,0,1-.34-.14.48.48,0,0,1-.14-.35.43.43,0,0,1,.15-.34.44.44,0,0,1,.33-.13.52.52,0,0,1,.34.12.44.44,0,0,1,.15.35.48.48,0,0,1-.14.34A.49.49,0,0,1,697.07,490.64Zm-.29,8.11v-6.48h.58v6.48Z" transform="translate(-658.73 -453.52)"/><path d="M699.11,498.47v-.7a2.37,2.37,0,0,0,.8.44,2.5,2.5,0,0,0,.8.17c1,0,1.53-.42,1.53-1.24a.94.94,0,0,0-.34-.74,3.81,3.81,0,0,0-1.09-.63,3.73,3.73,0,0,1-1.3-.84,1.64,1.64,0,0,1,.23-2.33,2.32,2.32,0,0,1,1.49-.49,2.94,2.94,0,0,1,1.43.34v.67a2.65,2.65,0,0,0-1.49-.47,1.58,1.58,0,0,0-1,.33,1.19,1.19,0,0,0-.14,1.61,3.2,3.2,0,0,0,1.09.67,4.69,4.69,0,0,1,1.39.84,1.43,1.43,0,0,1,.38,1,1.64,1.64,0,0,1-.58,1.27,2.39,2.39,0,0,1-1.6.5A2.68,2.68,0,0,1,699.11,498.47Z" transform="translate(-658.73 -453.52)"/><path d="M708.17,495.54a3.23,3.23,0,0,0,.61,2.09,2.08,2.08,0,0,0,1.7.75,3.47,3.47,0,0,0,2.12-.8v.62a3.82,3.82,0,0,1-2.24.71,2.55,2.55,0,0,1-2-.9,3.79,3.79,0,0,1-.77-2.53,3.6,3.6,0,0,1,.81-2.39,2.59,2.59,0,0,1,2.09-1,2.21,2.21,0,0,1,1.86.85,3.76,3.76,0,0,1,.65,2.32v.26Zm4.19-.53a2.9,2.9,0,0,0-.54-1.74,1.65,1.65,0,0,0-1.38-.62,2,2,0,0,0-1.51.61,2.89,2.89,0,0,0-.74,1.75Z" transform="translate(-658.73 -453.52)"/><path d="M718.44,498.75v-1.29h0a2.65,2.65,0,0,1-.9,1.06,2.34,2.34,0,0,1-1.31.39,2,2,0,0,1-1.47-.52,1.73,1.73,0,0,1-.54-1.31c0-1.13.75-1.81,2.25-2.05l2-.3c0-1.39-.52-2.08-1.57-2.08a3.23,3.23,0,0,0-2.08.86v-.7a2.89,2.89,0,0,1,1-.49,3.61,3.61,0,0,1,1.16-.21,1.93,1.93,0,0,1,1.55.63,2.65,2.65,0,0,1,.54,1.8v4.21Zm-1.78-3.23a3.1,3.1,0,0,0-1.43.48,1.27,1.27,0,0,0-.41,1.06,1.3,1.3,0,0,0,.38.95,1.51,1.51,0,0,0,1.07.37,2,2,0,0,0,1.55-.69,2.55,2.55,0,0,0,.62-1.79v-.63Z" transform="translate(-658.73 -453.52)"/><path d="M720.64,498.47v-.7a2.47,2.47,0,0,0,.8.44,2.5,2.5,0,0,0,.81.17c1,0,1.52-.42,1.52-1.24a1,1,0,0,0-.33-.74,4.12,4.12,0,0,0-1.09-.63,3.69,3.69,0,0,1-1.31-.84,1.55,1.55,0,0,1-.37-1.05,1.57,1.57,0,0,1,.6-1.28,2.32,2.32,0,0,1,1.49-.49,2.91,2.91,0,0,1,1.43.34v.67a2.65,2.65,0,0,0-1.49-.47,1.53,1.53,0,0,0-1,.33,1.09,1.09,0,0,0-.4.86,1.13,1.13,0,0,0,.25.75,3.31,3.31,0,0,0,1.09.67,4.56,4.56,0,0,1,1.39.84,1.43,1.43,0,0,1,.38,1,1.61,1.61,0,0,1-.58,1.27,2.35,2.35,0,0,1-1.59.5A2.69,2.69,0,0,1,720.64,498.47Z" transform="translate(-658.73 -453.52)"/><path d="M727.59,500.08a3.66,3.66,0,0,1-.78,1.29,1.53,1.53,0,0,1-1.11.42,1.37,1.37,0,0,1-.51-.08v-.58a1.5,1.5,0,0,0,.54.08c.51,0,.92-.35,1.22-1.07l.61-1.44-2.46-6.43h.65l2,5.28.09.26a1.42,1.42,0,0,0,.05.22h0l.15-.44,2.09-5.32h.63Z" transform="translate(-658.73 -453.52)"/><path d="M738,498.67a2.08,2.08,0,0,1-.86.21c-1,0-1.43-.57-1.43-1.72v-4.35h-1.17v-.54h1.17v-1.68l.28-.1.3-.1v1.88H738v.54h-1.71v4.27a1.72,1.72,0,0,0,.21,1,.82.82,0,0,0,.72.3,1.57,1.57,0,0,0,.78-.23Z" transform="translate(-658.73 -453.52)"/><path d="M741.88,498.91a2.85,2.85,0,0,1-2.24-.93,3.55,3.55,0,0,1-.83-2.43,3.49,3.49,0,0,1,.87-2.52,3,3,0,0,1,2.27-.92,2.81,2.81,0,0,1,2.19.91,4.17,4.17,0,0,1,0,5A2.83,2.83,0,0,1,741.88,498.91Zm0-6.26a2.29,2.29,0,0,0-1.83.77,3.15,3.15,0,0,0-.68,2.15,3,3,0,0,0,.67,2,2.26,2.26,0,0,0,1.81.77,2.2,2.2,0,0,0,1.8-.76,3.84,3.84,0,0,0,0-4.23A2.23,2.23,0,0,0,741.93,492.65Z" transform="translate(-658.73 -453.52)"/><path d="M750.71,497.6h0v4.14h-.58v-9.47h.58v1.34h0a2.51,2.51,0,0,1,1-1.11,2.71,2.71,0,0,1,1.42-.39,2.34,2.34,0,0,1,1.93.86,3.52,3.52,0,0,1,.7,2.31,4.12,4.12,0,0,1-.8,2.63,2.54,2.54,0,0,1-2.1,1A2.29,2.29,0,0,1,750.71,497.6Zm0-2.41V496a2.43,2.43,0,0,0,.62,1.67,2,2,0,0,0,1.62.7,1.91,1.91,0,0,0,1.61-.85,3.74,3.74,0,0,0,.62-2.24,3,3,0,0,0-.57-1.93,1.86,1.86,0,0,0-1.52-.71,2.14,2.14,0,0,0-1.76.76A2.74,2.74,0,0,0,750.68,495.19Z" transform="translate(-658.73 -453.52)"/><path d="M757.36,498.75v-9.59h.58v9.59Z" transform="translate(-658.73 -453.52)"/><path d="M760.16,495.54a3.23,3.23,0,0,0,.62,2.09,2.06,2.06,0,0,0,1.69.75,3.47,3.47,0,0,0,2.13-.8v.62a3.83,3.83,0,0,1-2.25.71,2.53,2.53,0,0,1-2-.9,3.74,3.74,0,0,1-.78-2.53,3.6,3.6,0,0,1,.81-2.39,2.61,2.61,0,0,1,2.1-1,2.2,2.2,0,0,1,1.85.85,3.7,3.7,0,0,1,.65,2.32v.26Zm4.19-.53a2.78,2.78,0,0,0-.54-1.74,1.64,1.64,0,0,0-1.37-.62,2,2,0,0,0-1.52.61,2.94,2.94,0,0,0-.73,1.75Z" transform="translate(-658.73 -453.52)"/><path d="M770.44,498.75v-1.29h0a2.6,2.6,0,0,1-.91,1.06,2.32,2.32,0,0,1-1.31.39,2,2,0,0,1-1.46-.52,1.73,1.73,0,0,1-.54-1.31c0-1.13.75-1.81,2.25-2.05l2-.3c0-1.39-.52-2.08-1.57-2.08a3.23,3.23,0,0,0-2.08.86v-.7a2.8,2.8,0,0,1,1-.49,3.61,3.61,0,0,1,1.16-.21,2,2,0,0,1,1.55.63,2.65,2.65,0,0,1,.54,1.8v4.21Zm-1.78-3.23a3.06,3.06,0,0,0-1.43.48,1.25,1.25,0,0,0-.42,1.06,1.27,1.27,0,0,0,.39.95,1.49,1.49,0,0,0,1.07.37,2,2,0,0,0,1.55-.69,2.6,2.6,0,0,0,.62-1.79v-.63Z" transform="translate(-658.73 -453.52)"/><path d="M772.64,498.47v-.7a2.42,2.42,0,0,0,.79.44,2.61,2.61,0,0,0,.81.17c1,0,1.53-.42,1.53-1.24a.94.94,0,0,0-.34-.74,3.81,3.81,0,0,0-1.09-.63,3.73,3.73,0,0,1-1.3-.84,1.56,1.56,0,0,1-.38-1.05,1.57,1.57,0,0,1,.6-1.28,2.37,2.37,0,0,1,1.5-.49,2.94,2.94,0,0,1,1.43.34v.67a2.65,2.65,0,0,0-1.5-.47,1.55,1.55,0,0,0-1,.33,1.19,1.19,0,0,0-.14,1.61,3.2,3.2,0,0,0,1.09.67,4.69,4.69,0,0,1,1.39.84,1.43,1.43,0,0,1,.38,1,1.64,1.64,0,0,1-.58,1.27,2.39,2.39,0,0,1-1.6.5A2.68,2.68,0,0,1,772.64,498.47Z" transform="translate(-658.73 -453.52)"/><path d="M778.15,495.54a3.23,3.23,0,0,0,.61,2.09,2.08,2.08,0,0,0,1.69.75,3.47,3.47,0,0,0,2.13-.8v.62a3.82,3.82,0,0,1-2.24.71,2.55,2.55,0,0,1-2-.9,3.73,3.73,0,0,1-.77-2.53,3.65,3.65,0,0,1,.8-2.39,2.61,2.61,0,0,1,2.1-1,2.21,2.21,0,0,1,1.86.85,3.76,3.76,0,0,1,.64,2.32v.26Zm4.18-.53a2.84,2.84,0,0,0-.53-1.74,1.67,1.67,0,0,0-1.38-.62,2,2,0,0,0-1.51.61,2.89,2.89,0,0,0-.74,1.75Z" transform="translate(-658.73 -453.52)"/><path d="M786.38,500.82a9,9,0,0,1,0-11.14H787a8.25,8.25,0,0,0-2,5.61,8.43,8.43,0,0,0,2,5.53Z" transform="translate(-658.73 -453.52)"/><path d="M790.33,498.75h-.53l-2.5-6.48H788l1.93,5.16a4.93,4.93,0,0,1,.2.68h0a3.27,3.27,0,0,1,.18-.65l2-5.19h.63Z" transform="translate(-658.73 -453.52)"/><path d="M796.64,498.67a2,2,0,0,1-.85.21c-1,0-1.44-.57-1.44-1.72v-4.35h-1.16v-.54h1.16v-1.68l.29-.1.29-.1v1.88h1.71v.54h-1.71v4.27a1.72,1.72,0,0,0,.21,1,.82.82,0,0,0,.72.3,1.57,1.57,0,0,0,.78-.23Z" transform="translate(-658.73 -453.52)"/><path d="M798.33,498.86a.45.45,0,0,1-.36-.14.5.5,0,0,1-.15-.37.5.5,0,0,1,.51-.5.52.52,0,0,1,.36.14.46.46,0,0,1,.16.36.47.47,0,0,1-.16.37A.48.48,0,0,1,798.33,498.86Z" transform="translate(-658.73 -453.52)"/><path d="M800.56,500.82h-.62a8.47,8.47,0,0,0,1.95-5.53,8.25,8.25,0,0,0-2-5.61h.62a9,9,0,0,1,0,11.14Z" transform="translate(-658.73 -453.52)"/><path d="M806.29,500.82a9,9,0,0,1,0-11.14h.61a8.25,8.25,0,0,0-2,5.61,8.43,8.43,0,0,0,2,5.53Z" transform="translate(-658.73 -453.52)"/><path d="M809.31,498.51c.57-.49,1-.92,1.41-1.28a5,5,0,0,0,.14.71c-.53.44-1,.88-1.51,1.33a3.17,3.17,0,0,0-.46.5l-.49-.52a1.13,1.13,0,0,0,.3-.8v-4.92h-1.3V493h1.91Zm.28-7c-.59-.73-1.12-1.37-1.61-1.91l.48-.35c.49.55,1,1.17,1.63,1.87Zm1.35-2h7.24v3.86h-7.24Zm.45,4.8h6.39v4.23c.06,1-.42,1.49-1.44,1.48-.42,0-.85,0-1.27,0,0-.23-.09-.43-.14-.62l.58,0h.76a.9.9,0,0,0,.69-.21,1.05,1.05,0,0,0,.2-.75v-.41H812v2.12h-.62Zm.17-4.3v1.17h2.7V490Zm0,1.67v1.19h2.7v-1.19Zm.45,3.14v1.11h5.15V494.8Zm0,1.62v1.13h5.15v-1.13Zm5.56-6.43h-2.7v1.17h2.7Zm-2.7,1.67v1.19h2.7v-1.19Z" transform="translate(-658.73 -453.52)"/><path d="M819.87,500.82h-.62a8.48,8.48,0,0,0,2-5.53,8.25,8.25,0,0,0-2-5.61h.62a9,9,0,0,1,0,11.14Z" transform="translate(-658.73 -453.52)"/><path d="M824.17,498.86a.48.48,0,0,1-.36-.14.53.53,0,0,1-.14-.37.48.48,0,0,1,.5-.5.53.53,0,0,1,.37.14.49.49,0,0,1,.15.36.5.5,0,0,1-.15.37A.49.49,0,0,1,824.17,498.86Z" transform="translate(-658.73 -453.52)"/><path d="M664.55,577.42v-4.35h-5.19v4.35h-.63v-9.08h.63v4.16h5.19v-4.16h.62v9.08Z" transform="translate(-658.73 -453.52)"/><path d="M667.51,574.2a3.21,3.21,0,0,0,.62,2.09,2.07,2.07,0,0,0,1.69.76,3.42,3.42,0,0,0,2.13-.81v.62a3.76,3.76,0,0,1-2.24.72,2.54,2.54,0,0,1-2-.9,3.75,3.75,0,0,1-.77-2.53,3.62,3.62,0,0,1,.8-2.4,2.63,2.63,0,0,1,2.1-1,2.2,2.2,0,0,1,1.86.85,3.76,3.76,0,0,1,.64,2.32v.25Zm4.19-.52a2.89,2.89,0,0,0-.53-1.75,1.7,1.7,0,0,0-1.38-.62,2,2,0,0,0-1.51.61,2.92,2.92,0,0,0-.74,1.76Z" transform="translate(-658.73 -453.52)"/><path d="M675.75,579.48a9,9,0,0,1,0-11.14h.61a8.26,8.26,0,0,0-2,5.62,8.38,8.38,0,0,0,2,5.52Z" transform="translate(-658.73 -453.52)"/><path d="M677.42,569.72h10.19v.61h-4.75v3.11h4.34v.61h-4.34v3.52h5.27v.61H676.94v-.61h5.26v-3.52h-4.32v-.61h4.32v-3.11h-4.78Zm4.41-1.91.6-.23c.37.71.65,1.29.85,1.72l-.65.23A15.74,15.74,0,0,0,681.83,567.81Z" transform="translate(-658.73 -453.52)"/><path d="M689.33,579.48h-.62a8.44,8.44,0,0,0,2-5.52,8.27,8.27,0,0,0-2-5.62h.63a8.27,8.27,0,0,1,1.94,5.63A8.13,8.13,0,0,1,689.33,579.48Z" transform="translate(-658.73 -453.52)"/><path d="M697.07,569.31a.48.48,0,0,1-.48-.5.41.41,0,0,1,.15-.33.45.45,0,0,1,.33-.14.53.53,0,0,1,.34.13.42.42,0,0,1,.15.34.5.5,0,0,1-.49.5Zm-.29,8.11v-6.48h.58v6.48Z" transform="translate(-658.73 -453.52)"/><path d="M699.11,577.13v-.69a2.55,2.55,0,0,0,.8.44,2.5,2.5,0,0,0,.8.17c1,0,1.53-.42,1.53-1.25a1,1,0,0,0-.34-.74,3.83,3.83,0,0,0-1.09-.62,3.73,3.73,0,0,1-1.3-.84,1.56,1.56,0,0,1-.38-1.05,1.54,1.54,0,0,1,.61-1.28,2.27,2.27,0,0,1,1.49-.49,2.94,2.94,0,0,1,1.43.34v.66a2.73,2.73,0,0,0-1.49-.47,1.59,1.59,0,0,0-1,.34,1.06,1.06,0,0,0-.39.86,1.08,1.08,0,0,0,.25.75,3.22,3.22,0,0,0,1.09.66,4.89,4.89,0,0,1,1.39.85,1.41,1.41,0,0,1,.38,1,1.62,1.62,0,0,1-.58,1.27,2.35,2.35,0,0,1-1.6.51A2.62,2.62,0,0,1,699.11,577.13Z" transform="translate(-658.73 -453.52)"/><path d="M708.17,574.2a3.21,3.21,0,0,0,.61,2.09,2.09,2.09,0,0,0,1.7.76,3.42,3.42,0,0,0,2.12-.81v.62a3.76,3.76,0,0,1-2.24.72,2.55,2.55,0,0,1-2-.9,3.8,3.8,0,0,1-.77-2.53,3.63,3.63,0,0,1,.81-2.4,2.61,2.61,0,0,1,2.09-1,2.18,2.18,0,0,1,1.86.85A3.76,3.76,0,0,1,713,574v.25Zm4.19-.52a3,3,0,0,0-.54-1.75,1.68,1.68,0,0,0-1.38-.62,2.05,2.05,0,0,0-1.51.61,2.92,2.92,0,0,0-.74,1.76Z" transform="translate(-658.73 -453.52)"/><path d="M718.44,577.42v-1.29h0a2.56,2.56,0,0,1-.9,1,2.27,2.27,0,0,1-1.31.4,2,2,0,0,1-1.47-.52,1.74,1.74,0,0,1-.54-1.31c0-1.13.75-1.82,2.25-2l2-.3c0-1.39-.52-2.09-1.57-2.09a3.19,3.19,0,0,0-2.08.87v-.71a3.31,3.31,0,0,1,1-.49,3.88,3.88,0,0,1,1.16-.2,2,2,0,0,1,1.55.62,2.7,2.7,0,0,1,.54,1.81v4.21Zm-1.78-3.23a3.24,3.24,0,0,0-1.43.47,1.3,1.3,0,0,0-.41,1.07,1.26,1.26,0,0,0,.38.94,1.47,1.47,0,0,0,1.07.38,2,2,0,0,0,1.55-.7,2.53,2.53,0,0,0,.62-1.78v-.64Z" transform="translate(-658.73 -453.52)"/><path d="M726.16,576.94a3.79,3.79,0,0,1-.8,2.67,3.24,3.24,0,0,1-2.48.85A4.28,4.28,0,0,1,721,580v-.6a4.12,4.12,0,0,0,1.94.56c1.79,0,2.69-.94,2.69-2.83v-.85h0a2.52,2.52,0,0,1-2.34,1.33,2.48,2.48,0,0,1-2-.87,3.58,3.58,0,0,1-.75-2.42,3.86,3.86,0,0,1,.81-2.53,2.7,2.7,0,0,1,2.16-1,2.19,2.19,0,0,1,2.07,1.19h0v-1h.58Zm-.58-3.51a2.16,2.16,0,0,0-.58-1.49,2,2,0,0,0-1.51-.63,2.08,2.08,0,0,0-1.72.81,3.22,3.22,0,0,0-.65,2.12,3.25,3.25,0,0,0,.59,2.07,2,2,0,0,0,1.58.74,2.17,2.17,0,0,0,1.67-.68,2.37,2.37,0,0,0,.62-1.66Z" transform="translate(-658.73 -453.52)"/><path d="M728.38,574.2a3.21,3.21,0,0,0,.61,2.09,2.08,2.08,0,0,0,1.69.76,3.42,3.42,0,0,0,2.13-.81v.62a3.76,3.76,0,0,1-2.24.72,2.55,2.55,0,0,1-2-.9,3.75,3.75,0,0,1-.77-2.53,3.63,3.63,0,0,1,.81-2.4,2.59,2.59,0,0,1,2.09-1,2.18,2.18,0,0,1,1.86.85,3.76,3.76,0,0,1,.64,2.32v.25Zm4.19-.52a3,3,0,0,0-.54-1.75,1.69,1.69,0,0,0-1.38-.62,2.05,2.05,0,0,0-1.51.61,2.92,2.92,0,0,0-.74,1.76Z" transform="translate(-658.73 -453.52)"/><path d="M737.84,571.55a1.15,1.15,0,0,0-.69-.21,1.49,1.49,0,0,0-1.28.79,4.07,4.07,0,0,0-.52,2.25v3h-.57v-6.48h.57v1.44h0a2.33,2.33,0,0,1,.7-1.16,1.75,1.75,0,0,1,1.76-.29Z" transform="translate(-658.73 -453.52)"/><path d="M745.17,577.33a1.92,1.92,0,0,1-.85.22c-1,0-1.44-.57-1.44-1.72v-4.36h-1.16v-.53h1.16v-1.68l.29-.1.29-.1v1.88h1.71v.53h-1.71v4.28a1.72,1.72,0,0,0,.21,1,.85.85,0,0,0,.73.3,1.68,1.68,0,0,0,.77-.23Z" transform="translate(-658.73 -453.52)"/><path d="M749.06,577.58a2.81,2.81,0,0,1-2.24-.94,3.47,3.47,0,0,1-.83-2.42,3.56,3.56,0,0,1,.86-2.53,3,3,0,0,1,2.28-.91,2.77,2.77,0,0,1,2.19.91,3.61,3.61,0,0,1,.8,2.5,3.56,3.56,0,0,1-.82,2.45A2.79,2.79,0,0,1,749.06,577.58Zm.05-6.27a2.3,2.3,0,0,0-1.83.78,3.12,3.12,0,0,0-.68,2.14,3,3,0,0,0,.66,2,2.27,2.27,0,0,0,1.82.78,2.23,2.23,0,0,0,1.8-.76,3.22,3.22,0,0,0,.63-2.11,3.17,3.17,0,0,0-.63-2.12A2.18,2.18,0,0,0,749.11,571.31Z" transform="translate(-658.73 -453.52)"/><path d="M757.89,576.27h0v4.13h-.58v-9.46h.58v1.34h0a2.51,2.51,0,0,1,1-1.11,2.68,2.68,0,0,1,1.42-.39,2.37,2.37,0,0,1,1.93.85,3.58,3.58,0,0,1,.69,2.32,4.12,4.12,0,0,1-.79,2.63,2.57,2.57,0,0,1-2.1,1A2.28,2.28,0,0,1,757.89,576.27Zm0-2.41v.81a2.48,2.48,0,0,0,.62,1.68,2.05,2.05,0,0,0,1.61.7,1.92,1.92,0,0,0,1.61-.85,3.69,3.69,0,0,0,.63-2.24,3,3,0,0,0-.58-1.93,1.83,1.83,0,0,0-1.52-.72,2.16,2.16,0,0,0-1.75.76A2.76,2.76,0,0,0,757.86,573.86Z" transform="translate(-658.73 -453.52)"/><path d="M764.54,577.42v-9.59h.58v9.59Z" transform="translate(-658.73 -453.52)"/><path d="M767.34,574.2a3.21,3.21,0,0,0,.62,2.09,2.07,2.07,0,0,0,1.69.76,3.45,3.45,0,0,0,2.13-.81v.62a3.79,3.79,0,0,1-2.25.72,2.56,2.56,0,0,1-2-.9,3.8,3.8,0,0,1-.77-2.53,3.63,3.63,0,0,1,.81-2.4,2.63,2.63,0,0,1,2.1-1,2.18,2.18,0,0,1,1.85.85,3.76,3.76,0,0,1,.65,2.32v.25Zm4.19-.52a3,3,0,0,0-.54-1.75,1.68,1.68,0,0,0-1.38-.62,2.05,2.05,0,0,0-1.51.61,3,3,0,0,0-.74,1.76Z" transform="translate(-658.73 -453.52)"/><path d="M777.62,577.42v-1.29h0a2.42,2.42,0,0,1-.9,1,2.25,2.25,0,0,1-1.31.4,2,2,0,0,1-1.46-.52,1.74,1.74,0,0,1-.54-1.31c0-1.13.75-1.82,2.25-2l2-.3c0-1.39-.53-2.09-1.57-2.09a3.17,3.17,0,0,0-2.08.87v-.71a3.24,3.24,0,0,1,1-.49,3.94,3.94,0,0,1,1.17-.2,2,2,0,0,1,1.54.62,2.65,2.65,0,0,1,.55,1.81v4.21Zm-1.78-3.23a3.29,3.29,0,0,0-1.44.47,1.3,1.3,0,0,0-.41,1.07,1.23,1.23,0,0,0,.39.94,1.45,1.45,0,0,0,1.06.38,2,2,0,0,0,1.56-.7,2.57,2.57,0,0,0,.62-1.78v-.64Z" transform="translate(-658.73 -453.52)"/><path d="M779.82,577.13v-.69a2.89,2.89,0,0,0,1.6.61c1,0,1.52-.42,1.52-1.25a1,1,0,0,0-.33-.74,4,4,0,0,0-1.09-.62,3.63,3.63,0,0,1-1.3-.84,1.51,1.51,0,0,1-.38-1.05,1.56,1.56,0,0,1,.6-1.28,2.28,2.28,0,0,1,1.5-.49,2.94,2.94,0,0,1,1.43.34v.66a2.73,2.73,0,0,0-1.5-.47,1.56,1.56,0,0,0-1,.34,1.06,1.06,0,0,0-.39.86,1.13,1.13,0,0,0,.24.75,3.46,3.46,0,0,0,1.09.66,5,5,0,0,1,1.4.85,1.4,1.4,0,0,1,.37,1,1.62,1.62,0,0,1-.57,1.27,2.35,2.35,0,0,1-1.6.51A2.57,2.57,0,0,1,779.82,577.13Z" transform="translate(-658.73 -453.52)"/><path d="M785.32,574.2a3.21,3.21,0,0,0,.62,2.09,2.07,2.07,0,0,0,1.69.76,3.42,3.42,0,0,0,2.13-.81v.62a3.76,3.76,0,0,1-2.24.72,2.54,2.54,0,0,1-2-.9,3.75,3.75,0,0,1-.78-2.53,3.63,3.63,0,0,1,.81-2.4,2.63,2.63,0,0,1,2.1-1,2.17,2.17,0,0,1,1.85.85,3.7,3.7,0,0,1,.65,2.32v.25Zm4.19-.52a2.83,2.83,0,0,0-.54-1.75,1.67,1.67,0,0,0-1.37-.62,2.07,2.07,0,0,0-1.52.61,3,3,0,0,0-.73,1.76Z" transform="translate(-658.73 -453.52)"/><path d="M793.56,579.48a9,9,0,0,1,0-11.14h.61a8.26,8.26,0,0,0-2,5.62,8.38,8.38,0,0,0,2,5.52Z" transform="translate(-658.73 -453.52)"/><path d="M797.51,577.42H797l-2.5-6.48h.65l1.92,5.16a3.62,3.62,0,0,1,.2.68h0a3.09,3.09,0,0,1,.18-.65l2-5.19h.63Z" transform="translate(-658.73 -453.52)"/><path d="M801.54,569.31a.45.45,0,0,1-.33-.14.46.46,0,0,1-.15-.36.41.41,0,0,1,.15-.33.49.49,0,0,1,.33-.14.56.56,0,0,1,.35.13.5.5,0,0,1,0,.69A.47.47,0,0,1,801.54,569.31Zm-.28,8.11v-6.48h.58v6.48Z" transform="translate(-658.73 -453.52)"/><path d="M804.31,577.53a.52.52,0,0,1-.36-.14.53.53,0,0,1-.14-.37.49.49,0,0,1,.14-.36.48.48,0,0,1,.36-.14.49.49,0,0,1,.37.14.47.47,0,0,1,.16.36.51.51,0,0,1-.16.37A.53.53,0,0,1,804.31,577.53Z" transform="translate(-658.73 -453.52)"/><path d="M806.55,579.48h-.62a8.43,8.43,0,0,0,2-5.52,8.26,8.26,0,0,0-2-5.62h.62a9,9,0,0,1,0,11.14Z" transform="translate(-658.73 -453.52)"/><path d="M812.28,579.48a9,9,0,0,1,0-11.14h.61a8.26,8.26,0,0,0-2,5.62,8.38,8.38,0,0,0,2,5.52Z" transform="translate(-658.73 -453.52)"/><path d="M815.3,577.18c.57-.49,1-.92,1.41-1.28a3.88,3.88,0,0,0,.14.71c-.53.44-1,.88-1.51,1.33a3.17,3.17,0,0,0-.46.5l-.49-.53a1.11,1.11,0,0,0,.3-.79V572.2h-1.3v-.57h1.91Zm.28-7c-.59-.74-1.13-1.37-1.61-1.91l.48-.35c.49.55,1,1.17,1.63,1.87Zm1.35-2h7.24V572h-7.24Zm.44,4.8h6.4v4.23c.06,1-.42,1.49-1.44,1.48l-1.27,0a4.34,4.34,0,0,0-.15-.62l.58,0h.77a.84.84,0,0,0,.69-.21,1.05,1.05,0,0,0,.2-.75v-.41H818v2.13h-.63Zm.17-4.3v1.17h2.71v-1.17Zm0,1.67v1.18h2.71v-1.18Zm.46,3.14v1.11h5.15v-1.11Zm0,1.61v1.14h5.15v-1.14Zm5.56-6.42h-2.71v1.17h2.71Zm-2.71,1.67v1.18h2.71v-1.18Z" transform="translate(-658.73 -453.52)"/><path d="M825.86,579.48h-.62a8.43,8.43,0,0,0,2-5.52,8.26,8.26,0,0,0-2-5.62h.63a8.26,8.26,0,0,1,1.93,5.63A8.12,8.12,0,0,1,825.86,579.48Z" transform="translate(-658.73 -453.52)"/><path d="M830.16,577.53a.52.52,0,0,1-.36-.14.49.49,0,0,1-.14-.37.45.45,0,0,1,.14-.36.48.48,0,0,1,.36-.14.5.5,0,0,1,.37.14.46.46,0,0,1,.15.36.5.5,0,0,1-.15.37A.55.55,0,0,1,830.16,577.53Z" transform="translate(-658.73 -453.52)"/><path d="M857.56,461.57c-.07-.18-.16-.4-.27-.64l0-.07a20.13,20.13,0,0,0,2.81-5.62l.64.19c-.35.94-.74,1.88-1.19,2.83v8.18h-.64v-6.95A16.4,16.4,0,0,1,857.56,461.57Zm2.73-1.71,1.16-.34v-2.88h.64v2.68l2.28-.69v-3.36H865v3.17l3-.93c0,1.57-.08,2.72-.13,3.45a2.36,2.36,0,0,1-.36,1.29,1.18,1.18,0,0,1-1,.36h-.81a3,3,0,0,0-.13-.62l.36,0h.48c.52.05.79-.29.8-1,.07-1.14.1-2,.12-2.69l-2.41.75v5h-.63v-4.77l-2.28.7v4.36a1.22,1.22,0,0,0,.25.94,1.46,1.46,0,0,0,1,.23h3c.94,0,1.45-.28,1.54-1,.11-.52.19-1.06.25-1.59a3.33,3.33,0,0,0,.61.2,16,16,0,0,1-.26,1.63,1.56,1.56,0,0,1-.59,1,2.54,2.54,0,0,1-1.37.29h-3.34c-1.2.06-1.77-.47-1.71-1.57v-4.37l-1.06.32Z" transform="translate(-658.73 -453.52)"/><path d="M880.11,466.18A9.09,9.09,0,0,1,875,458.7a9.86,9.86,0,0,1-5.13,7.62c-.21-.24-.37-.42-.49-.54a9.65,9.65,0,0,0,5.09-7.54,12.38,12.38,0,0,0,.13-1.24c0-.39,0-.95,0-1.66h.69c0,.12,0,.3,0,.54,0,.56,0,1-.05,1.25.48,4.33,2.24,7.14,5.28,8.46A4.87,4.87,0,0,0,880.11,466.18Z" transform="translate(-658.73 -453.52)"/><path d="M857.56,549.57c-.07-.18-.16-.4-.27-.64l0-.07a20.13,20.13,0,0,0,2.81-5.62l.64.19c-.35.94-.74,1.88-1.19,2.83v8.18h-.64v-7A16.4,16.4,0,0,1,857.56,549.57Zm2.73-1.71,1.16-.34v-2.88h.64v2.68l2.28-.69v-3.36H865v3.17l3-.93c0,1.57-.08,2.72-.13,3.45a2.36,2.36,0,0,1-.36,1.29,1.18,1.18,0,0,1-1,.36h-.81a3,3,0,0,0-.13-.62l.36,0h.48c.52.05.79-.29.8-1,.07-1.14.1-2,.12-2.69l-2.41.75v5h-.63v-4.77l-2.28.7v4.36a1.22,1.22,0,0,0,.25.94,1.46,1.46,0,0,0,1,.23h3c.94,0,1.45-.28,1.54-1,.11-.52.19-1.06.25-1.59a3.33,3.33,0,0,0,.61.2,16,16,0,0,1-.26,1.63,1.56,1.56,0,0,1-.59,1,2.54,2.54,0,0,1-1.37.29h-3.34c-1.2.06-1.77-.47-1.71-1.57v-4.37l-1.06.32Z" transform="translate(-658.73 -453.52)"/><path d="M880.11,554.18A9.09,9.09,0,0,1,875,546.7a9.86,9.86,0,0,1-5.13,7.62c-.21-.24-.37-.42-.49-.54a9.65,9.65,0,0,0,5.09-7.54,12.38,12.38,0,0,0,.13-1.24c0-.39,0-1,0-1.66h.69c0,.12,0,.3,0,.54,0,.56,0,1-.05,1.25.48,4.33,2.24,7.14,5.28,8.46A4.87,4.87,0,0,0,880.11,554.18Z" transform="translate(-658.73 -453.52)"/><path class="cls-1" d="M845,459c-2.18-1.11-20.86-10.21-40.67-.67C787.59,466.4,782,482,781,485a91,91,0,0,0-103.83-.83" transform="translate(-658.73 -453.52)"/><polygon points="18.64 26.06 19.49 29.99 22.91 32.11 13.6 34.15 18.64 26.06"/><path class="cls-1" d="M670.33,561a85.27,85.27,0,0,1,48-17.33c35.09-1.26,58.33,20.45,62.67,24.66a59.93,59.93,0,0,1,61.86-24.52" transform="translate(-658.73 -453.52)"/><polygon points="190.94 92.15 180.28 93.57 183.59 90.23 182.33 85.71 190.94 92.15"/></svg>