<svg id="图层_1" data-name="图层 1" xmlns="http://www.w3.org/2000/svg" viewBox="0 0 817.56 52.92"><defs><style>.cls-1{fill:#231815;}.cls-2{fill:#036eb8;}.cls-3{fill:#094;}.cls-4{fill:none;stroke:#231815;}.cls-4,.cls-5{stroke-miterlimit:10;}.cls-5{fill:#fff;stroke:#036eb8;}</style></defs><path class="cls-1" d="M-86.22,354.51l-1-2.82h-3.94l-1,2.82h-.69l3.43-9.08h.59l3.39,9.08ZM-89,346.92a2.72,2.72,0,0,1-.11-.38l-.1-.31h0a5.88,5.88,0,0,1-.2.68l-1.53,4.2h3.5Z" transform="translate(92.92 -326.04)"/><path class="cls-1" d="M-79.7,354.51v-3.77c0-1.56-.56-2.33-1.68-2.33a2,2,0,0,0-1.54.68,2.49,2.49,0,0,0-.6,1.7v3.72h-.58V348h.58v1.18h0a2.34,2.34,0,0,1,2.21-1.34,2,2,0,0,1,1.61.7,3.15,3.15,0,0,1,.55,2v3.94Z" transform="translate(92.92 -326.04)"/><path class="cls-1" d="M-72.57,354.51v-1.18h0a2.33,2.33,0,0,1-.94,1,2.73,2.73,0,0,1-1.4.36,2.48,2.48,0,0,1-1.95-.87,3.61,3.61,0,0,1-.75-2.42,3.8,3.8,0,0,1,.82-2.54,2.71,2.71,0,0,1,2.15-1,2.14,2.14,0,0,1,2.07,1.2h0v-4.15H-72v9.59Zm0-3.94a2.2,2.2,0,0,0-.57-1.53,2,2,0,0,0-1.53-.63,2.12,2.12,0,0,0-1.69.78,3.2,3.2,0,0,0-.66,2.14,3.2,3.2,0,0,0,.59,2.08,1.93,1.93,0,0,0,1.54.73,2.18,2.18,0,0,0,1.72-.69,2.47,2.47,0,0,0,.6-1.68Z" transform="translate(92.92 -326.04)"/><path class="cls-2" d="M-66.07,346.4a.45.45,0,0,1-.33-.14.46.46,0,0,1-.15-.36.41.41,0,0,1,.15-.33.49.49,0,0,1,.33-.14.56.56,0,0,1,.35.13.41.41,0,0,1,.14.34.45.45,0,0,1-.14.35A.47.47,0,0,1-66.07,346.4Zm-.28,8.11V348h.58v6.48Z" transform="translate(92.92 -326.04)"/><path class="cls-2" d="M-61.13,354.42a1.92,1.92,0,0,1-.85.22c-1,0-1.44-.57-1.44-1.72v-4.36h-1.16V348h1.16v-1.68l.29-.1.29-.1V348h1.71v.53h-1.71v4.28a1.72,1.72,0,0,0,.21,1,.82.82,0,0,0,.72.3,1.68,1.68,0,0,0,.78-.23Z" transform="translate(92.92 -326.04)"/><path class="cls-1" d="M-59.7,348.28h-.47l.79-2.85h.66Z" transform="translate(92.92 -326.04)"/><path class="cls-1" d="M-58.53,354.22v-.69a2.61,2.61,0,0,0,.79.44,2.61,2.61,0,0,0,.81.17c1,0,1.53-.42,1.53-1.25a.92.92,0,0,0-.34-.73,3.59,3.59,0,0,0-1.09-.63,3.73,3.73,0,0,1-1.3-.84,1.56,1.56,0,0,1-.38-1.05,1.56,1.56,0,0,1,.6-1.28,2.31,2.31,0,0,1,1.5-.49,2.94,2.94,0,0,1,1.43.34v.66a2.72,2.72,0,0,0-1.5-.46,1.55,1.55,0,0,0-1,.33,1.08,1.08,0,0,0-.39.86,1.08,1.08,0,0,0,.25.75,3.22,3.22,0,0,0,1.09.66,4.89,4.89,0,0,1,1.39.85,1.41,1.41,0,0,1,.38,1,1.64,1.64,0,0,1-.58,1.28,2.39,2.39,0,0,1-1.6.5A2.62,2.62,0,0,1-58.53,354.22Z" transform="translate(92.92 -326.04)"/><path class="cls-1" d="M-49,353.36h0v4.13h-.58V348H-49v1.34h0a2.55,2.55,0,0,1,1-1.11,2.72,2.72,0,0,1,1.43-.39,2.39,2.39,0,0,1,1.93.85A3.58,3.58,0,0,1-44,351a4.12,4.12,0,0,1-.8,2.63,2.56,2.56,0,0,1-2.09,1A2.28,2.28,0,0,1-49,353.36Zm0-2.41v.81a2.45,2.45,0,0,0,.61,1.68,2.07,2.07,0,0,0,1.62.7,1.92,1.92,0,0,0,1.61-.85,3.76,3.76,0,0,0,.62-2.24,3,3,0,0,0-.57-1.93,1.84,1.84,0,0,0-1.52-.71,2.13,2.13,0,0,0-1.75.75A2.71,2.71,0,0,0-49,351Z" transform="translate(92.92 -326.04)"/><path class="cls-1" d="M-38.48,354.51v-1.29h0a2.51,2.51,0,0,1-.91,1,2.25,2.25,0,0,1-1.31.4,2,2,0,0,1-1.46-.52,1.74,1.74,0,0,1-.54-1.31c0-1.13.75-1.82,2.25-2l2-.3c0-1.39-.52-2.08-1.57-2.08a3.16,3.16,0,0,0-2.08.86v-.71a3.24,3.24,0,0,1,1-.49,3.94,3.94,0,0,1,1.17-.2,2,2,0,0,1,1.54.62,2.65,2.65,0,0,1,.55,1.81v4.21Zm-1.78-3.23a3.29,3.29,0,0,0-1.44.47,1.31,1.31,0,0,0-.41,1.07,1.23,1.23,0,0,0,.39.94,1.45,1.45,0,0,0,1.06.38,2,2,0,0,0,1.56-.7,2.57,2.57,0,0,0,.62-1.78V351Z" transform="translate(92.92 -326.04)"/><path class="cls-1" d="M-32.89,348.64a1.17,1.17,0,0,0-.69-.21,1.49,1.49,0,0,0-1.28.79,4.07,4.07,0,0,0-.52,2.25v3h-.57V348h.57v1.44h0a2.33,2.33,0,0,1,.7-1.16,1.68,1.68,0,0,1,1.11-.41,1.67,1.67,0,0,1,.65.12Z" transform="translate(92.92 -326.04)"/><path class="cls-1" d="M-28.54,354.42a1.92,1.92,0,0,1-.85.22c-1,0-1.44-.57-1.44-1.72v-4.36H-32V348h1.17v-1.68l.29-.1.29-.1V348h1.71v.53h-1.71v4.28a1.72,1.72,0,0,0,.21,1,.82.82,0,0,0,.72.3,1.68,1.68,0,0,0,.78-.23Z" transform="translate(92.92 -326.04)"/><path class="cls-1" d="M-27,346.4a.45.45,0,0,1-.33-.14.46.46,0,0,1-.15-.36.41.41,0,0,1,.15-.33.49.49,0,0,1,.33-.14.56.56,0,0,1,.35.13.44.44,0,0,1,.14.34.45.45,0,0,1-.14.35A.47.47,0,0,1-27,346.4Zm-.28,8.11V348h.58v6.48Z" transform="translate(92.92 -326.04)"/><path class="cls-1" d="M-20.4,354.22a3.17,3.17,0,0,1-1.72.45,2.7,2.7,0,0,1-2.13-.91,3.43,3.43,0,0,1-.81-2.38,3.53,3.53,0,0,1,.91-2.52,3,3,0,0,1,2.34-1,3.41,3.41,0,0,1,1.43.31v.65a2.85,2.85,0,0,0-1.52-.42,2.33,2.33,0,0,0-1.85.82,3.12,3.12,0,0,0-.7,2.12,3,3,0,0,0,.64,2,2.15,2.15,0,0,0,1.72.77,2.85,2.85,0,0,0,1.69-.52Z" transform="translate(92.92 -326.04)"/><path class="cls-1" d="M-14.56,354.51v-1.18h0a2.22,2.22,0,0,1-2.09,1.34c-1.53,0-2.3-1-2.3-2.9V348h.6v3.6a3.29,3.29,0,0,0,.43,1.91,1.57,1.57,0,0,0,1.37.6,1.84,1.84,0,0,0,1.46-.67,2.66,2.66,0,0,0,.56-1.77V348H-14v6.48Z" transform="translate(92.92 -326.04)"/><path class="cls-1" d="M-11.9,354.51v-9.59h.58v9.59Z" transform="translate(92.92 -326.04)"/><path class="cls-1" d="M-5.37,354.51v-1.29h0a2.51,2.51,0,0,1-.91,1,2.25,2.25,0,0,1-1.31.4,2,2,0,0,1-1.46-.52,1.74,1.74,0,0,1-.54-1.31c0-1.13.75-1.82,2.25-2l2-.3c0-1.39-.52-2.08-1.57-2.08a3.18,3.18,0,0,0-2.08.86v-.71a3.19,3.19,0,0,1,1-.49,3.82,3.82,0,0,1,1.16-.2,2,2,0,0,1,1.55.62,2.7,2.7,0,0,1,.54,1.81v4.21Zm-1.78-3.23a3.19,3.19,0,0,0-1.43.47A1.28,1.28,0,0,0-9,352.82a1.23,1.23,0,0,0,.39.94,1.46,1.46,0,0,0,1.07.38,2,2,0,0,0,1.55-.7,2.57,2.57,0,0,0,.62-1.78V351Z" transform="translate(92.92 -326.04)"/><path class="cls-1" d="M.22,348.64a1.15,1.15,0,0,0-.69-.21,1.49,1.49,0,0,0-1.28.79,4.07,4.07,0,0,0-.52,2.25v3h-.57V348h.57v1.44h0a2.33,2.33,0,0,1,.7-1.16,1.68,1.68,0,0,1,1.12-.41,1.66,1.66,0,0,1,.64.12Z" transform="translate(92.92 -326.04)"/><path class="cls-1" d="M1.44,354.51v-9.59H2v9.59Z" transform="translate(92.92 -326.04)"/><path class="cls-1" d="M5.68,355.83a3.62,3.62,0,0,1-.78,1.3,1.53,1.53,0,0,1-1.11.42,1.36,1.36,0,0,1-.51-.09v-.58a1.49,1.49,0,0,0,.54.09c.51,0,.92-.36,1.22-1.07l.61-1.44L3.19,348h.65l2,5.28.09.26a1.08,1.08,0,0,0,.05.21H6l.15-.44L8.21,348h.63Z" transform="translate(92.92 -326.04)"/><path class="cls-1" d="M8.74,356.08H8.25l.95-3h.64Z" transform="translate(92.92 -326.04)"/><path class="cls-1" d="M15.7,346.4a.48.48,0,0,1-.48-.5.41.41,0,0,1,.15-.33.47.47,0,0,1,.33-.14.53.53,0,0,1,.34.13.42.42,0,0,1,.15.34.5.5,0,0,1-.49.5Zm-.29,8.11V348H16v6.48Z" transform="translate(92.92 -326.04)"/><path class="cls-1" d="M22.48,354.51v-3.77c0-1.56-.56-2.33-1.68-2.33a1.94,1.94,0,0,0-1.54.68,2.45,2.45,0,0,0-.61,1.7v3.72h-.58V348h.58v1.18h0a2.36,2.36,0,0,1,2.22-1.34,1.94,1.94,0,0,1,1.6.7,3.15,3.15,0,0,1,.56,2v3.94Z" transform="translate(92.92 -326.04)"/><path class="cls-1" d="M36.69,354.51v-3.9a2.83,2.83,0,0,0-.39-1.71,1.41,1.41,0,0,0-1.21-.49,1.66,1.66,0,0,0-1.32.65,2.48,2.48,0,0,0-.56,1.65v3.8h-.58v-3.94c0-1.44-.55-2.16-1.64-2.16a1.62,1.62,0,0,0-1.32.66,2.67,2.67,0,0,0-.53,1.71v3.73h-.58V348h.58v1.08h0a2.14,2.14,0,0,1,2-1.24,1.86,1.86,0,0,1,1.21.41,1.93,1.93,0,0,1,.68,1.07,2.64,2.64,0,0,1,.87-1.09,2.14,2.14,0,0,1,1.23-.39c1.42,0,2.13.88,2.13,2.63v4Z" transform="translate(92.92 -326.04)"/><path class="cls-1" d="M40.8,355.83a3.77,3.77,0,0,1-.79,1.3,1.5,1.5,0,0,1-1.11.42,1.35,1.35,0,0,1-.5-.09v-.58a1.44,1.44,0,0,0,.53.09c.52,0,.93-.36,1.23-1.07l.6-1.44L38.31,348H39l1.95,5.28.09.26c0,.08,0,.15,0,.21h0l.16-.44L43.32,348H44Z" transform="translate(92.92 -326.04)"/><path class="cls-1" d="M50.76,354.51h-.53L47.73,348h.65l1.93,5.16a3.53,3.53,0,0,1,.19.68h0a3.09,3.09,0,0,1,.18-.65l2-5.19h.63Z" transform="translate(92.92 -326.04)"/><path class="cls-1" d="M54.79,346.4a.47.47,0,0,1-.33-.14.46.46,0,0,1-.15-.36.41.41,0,0,1,.15-.33.49.49,0,0,1,.33-.14.56.56,0,0,1,.35.13.42.42,0,0,1,.15.34.45.45,0,0,1-.15.35A.47.47,0,0,1,54.79,346.4Zm-.28,8.11V348h.58v6.48Z" transform="translate(92.92 -326.04)"/><path class="cls-1" d="M57.31,351.29a3.21,3.21,0,0,0,.61,2.09,2.09,2.09,0,0,0,1.7.76,3.42,3.42,0,0,0,2.12-.81V354a3.76,3.76,0,0,1-2.24.72,2.55,2.55,0,0,1-2-.9,3.79,3.79,0,0,1-.77-2.53,3.63,3.63,0,0,1,.81-2.4,2.62,2.62,0,0,1,2.09-1,2.21,2.21,0,0,1,1.86.85,3.76,3.76,0,0,1,.65,2.32v.25Zm4.19-.52A3,3,0,0,0,61,349a1.67,1.67,0,0,0-1.38-.61,2,2,0,0,0-1.51.6,2.92,2.92,0,0,0-.74,1.76Z" transform="translate(92.92 -326.04)"/><path class="cls-1" d="M69.21,354.51h-.55l-1.41-4.89a3.53,3.53,0,0,1-.1-.54h0a3.14,3.14,0,0,1-.13.53l-1.58,4.9h-.54l-2-6.48h.64l1.51,5.17a2.86,2.86,0,0,1,.09.54h0a3,3,0,0,1,.12-.54L67,348h.4l1.47,5.17a4.93,4.93,0,0,1,.09.54h0a2.2,2.2,0,0,1,.11-.54L70.61,348h.61Z" transform="translate(92.92 -326.04)"/><path class="cls-1" d="M71.37,356.08h-.49l1-3h.64Z" transform="translate(92.92 -326.04)"/><path class="cls-1" d="M82.32,354.51v-1.18h0a2.23,2.23,0,0,1-2.09,1.34c-1.54,0-2.3-1-2.3-2.9V348h.59v3.6a3.37,3.37,0,0,0,.43,1.91,1.58,1.58,0,0,0,1.37.6,1.83,1.83,0,0,0,1.46-.67,2.66,2.66,0,0,0,.56-1.77V348h.59v6.48Z" transform="translate(92.92 -326.04)"/><path class="cls-1" d="M89.39,354.51v-3.77c0-1.56-.56-2.33-1.68-2.33a1.94,1.94,0,0,0-1.54.68,2.45,2.45,0,0,0-.61,1.7v3.72H85V348h.58v1.18h0a2.35,2.35,0,0,1,2.22-1.34,2,2,0,0,1,1.6.7,3.15,3.15,0,0,1,.56,2v3.94Z" transform="translate(92.92 -326.04)"/><path class="cls-1" d="M96.11,354.22a3.17,3.17,0,0,1-1.72.45,2.7,2.7,0,0,1-2.13-.91,3.43,3.43,0,0,1-.81-2.38,3.53,3.53,0,0,1,.91-2.52,3,3,0,0,1,2.34-1,3.42,3.42,0,0,1,1.44.31v.65a2.89,2.89,0,0,0-1.53-.42,2.31,2.31,0,0,0-1.84.82,3.12,3.12,0,0,0-.71,2.12,3,3,0,0,0,.65,2,2.13,2.13,0,0,0,1.71.77,2.85,2.85,0,0,0,1.69-.52Z" transform="translate(92.92 -326.04)"/><path class="cls-1" d="M97.67,354.51v-9.59h.58v9.59Z" transform="translate(92.92 -326.04)"/><path class="cls-1" d="M100.47,351.29a3.21,3.21,0,0,0,.62,2.09,2.07,2.07,0,0,0,1.69.76,3.42,3.42,0,0,0,2.13-.81V354a3.76,3.76,0,0,1-2.24.72,2.54,2.54,0,0,1-2-.9,3.74,3.74,0,0,1-.78-2.53,3.63,3.63,0,0,1,.81-2.4,2.63,2.63,0,0,1,2.1-1,2.19,2.19,0,0,1,1.85.85,3.7,3.7,0,0,1,.65,2.32v.25Zm4.19-.52a2.83,2.83,0,0,0-.54-1.75,1.66,1.66,0,0,0-1.37-.61,2,2,0,0,0-1.51.6,2.92,2.92,0,0,0-.74,1.76Z" transform="translate(92.92 -326.04)"/><path class="cls-1" d="M110.75,354.51v-1.29h0a2.56,2.56,0,0,1-.9,1,2.3,2.3,0,0,1-1.32.4,2,2,0,0,1-1.46-.52,1.74,1.74,0,0,1-.54-1.31c0-1.13.75-1.82,2.25-2l2-.3c0-1.39-.52-2.08-1.57-2.08a3.18,3.18,0,0,0-2.08.86v-.71a3.19,3.19,0,0,1,1-.49,3.88,3.88,0,0,1,1.16-.2,2,2,0,0,1,1.55.62,2.7,2.7,0,0,1,.54,1.81v4.21ZM109,351.28a3.19,3.19,0,0,0-1.43.47,1.28,1.28,0,0,0-.42,1.07,1.23,1.23,0,0,0,.39.94,1.46,1.46,0,0,0,1.07.38,2,2,0,0,0,1.55-.7,2.57,2.57,0,0,0,.62-1.78V351Z" transform="translate(92.92 -326.04)"/><path class="cls-1" d="M116.34,348.64a1.12,1.12,0,0,0-.68-.21,1.49,1.49,0,0,0-1.29.79,4.07,4.07,0,0,0-.52,2.25v3h-.57V348h.57v1.44h0a2.33,2.33,0,0,1,.7-1.16,1.68,1.68,0,0,1,1.12-.41,1.66,1.66,0,0,1,.64.12Z" transform="translate(92.92 -326.04)"/><path class="cls-2" d="M125.52,354.51v-3.88a2.72,2.72,0,0,0-.42-1.69,1.56,1.56,0,0,0-1.31-.53,2,2,0,0,0-1.47.65,2.55,2.55,0,0,0-.63,1.86v3.59h-.58v-9.59h.58v4.28h0a2.42,2.42,0,0,1,2.23-1.33,2,2,0,0,1,1.6.68,3,3,0,0,1,.55,1.94v4Z" transform="translate(92.92 -326.04)"/><path class="cls-2" d="M130.65,354.67a2.84,2.84,0,0,1-2.25-.94,3.51,3.51,0,0,1-.82-2.42,3.56,3.56,0,0,1,.86-2.53,3,3,0,0,1,2.28-.91,2.77,2.77,0,0,1,2.19.91,3.66,3.66,0,0,1,.8,2.5,3.56,3.56,0,0,1-.82,2.45A2.79,2.79,0,0,1,130.65,354.67Zm0-6.26a2.29,2.29,0,0,0-1.83.77,3.61,3.61,0,0,0,0,4.19,2.3,2.3,0,0,0,1.82.77,2.23,2.23,0,0,0,1.8-.76,3.22,3.22,0,0,0,.63-2.11,3.17,3.17,0,0,0-.63-2.12A2.18,2.18,0,0,0,130.7,348.41Z" transform="translate(92.92 -326.04)"/><path class="cls-2" d="M140.81,354.51h-.54l-1.41-4.89a3.53,3.53,0,0,1-.1-.54h0a2.83,2.83,0,0,1-.12.53l-1.58,4.9h-.55L134.52,348h.64l1.51,5.17a3,3,0,0,1,.08.54h.06a2.2,2.2,0,0,1,.11-.54l1.65-5.17h.4l1.47,5.17a4.93,4.93,0,0,1,.09.54h.05a2.2,2.2,0,0,1,.11-.54l1.53-5.17h.6Z" transform="translate(92.92 -326.04)"/><path class="cls-2" d="M150.48,345.53a1.18,1.18,0,0,0-.71-.18c-.8,0-1.2.53-1.2,1.6V348h1.72v.53h-1.72v5.95H148v-5.95h-1.16V348H148v-1.12a2.12,2.12,0,0,1,.52-1.56,1.69,1.69,0,0,1,1.28-.54,1.55,1.55,0,0,1,.69.13Z" transform="translate(92.92 -326.04)"/><path class="cls-2" d="M155.09,354.51v-1.29h0a2.42,2.42,0,0,1-.9,1,2.25,2.25,0,0,1-1.31.4,2,2,0,0,1-1.46-.52,1.74,1.74,0,0,1-.54-1.31c0-1.13.75-1.82,2.25-2l2-.3c0-1.39-.53-2.08-1.57-2.08a3.16,3.16,0,0,0-2.08.86v-.71a3.24,3.24,0,0,1,1-.49,3.94,3.94,0,0,1,1.17-.2,2,2,0,0,1,1.54.62,2.65,2.65,0,0,1,.55,1.81v4.21Zm-1.78-3.23a3.29,3.29,0,0,0-1.44.47,1.31,1.31,0,0,0-.41,1.07,1.23,1.23,0,0,0,.39.94,1.45,1.45,0,0,0,1.06.38,2,2,0,0,0,1.56-.7,2.57,2.57,0,0,0,.62-1.78V351Z" transform="translate(92.92 -326.04)"/><path class="cls-2" d="M160.68,348.64a1.17,1.17,0,0,0-.69-.21,1.49,1.49,0,0,0-1.28.79,4.07,4.07,0,0,0-.52,2.25v3h-.57V348h.57v1.44h0a2.33,2.33,0,0,1,.7-1.16,1.75,1.75,0,0,1,1.76-.29Z" transform="translate(92.92 -326.04)"/><path class="cls-2" d="M170.94,354.51h-.54L169,349.62a2.62,2.62,0,0,1-.1-.54h0a4,4,0,0,1-.12.53l-1.58,4.9h-.55L164.65,348h.64l1.51,5.17a4.25,4.25,0,0,1,.08.54h.06a2.2,2.2,0,0,1,.11-.54L168.7,348h.4l1.47,5.17a4.93,4.93,0,0,1,.09.54h.05a2.08,2.08,0,0,1,.1-.54l1.54-5.17h.6Z" transform="translate(92.92 -326.04)"/><path class="cls-2" d="M174.36,351.29a3.16,3.16,0,0,0,.62,2.09,2.07,2.07,0,0,0,1.69.76,3.45,3.45,0,0,0,2.13-.81V354a3.79,3.79,0,0,1-2.25.72,2.56,2.56,0,0,1-2-.9,3.79,3.79,0,0,1-.77-2.53,3.63,3.63,0,0,1,.81-2.4,2.63,2.63,0,0,1,2.1-1,2.2,2.2,0,0,1,1.85.85,3.76,3.76,0,0,1,.65,2.32v.25Zm4.19-.52A3,3,0,0,0,178,349a1.67,1.67,0,0,0-1.38-.61,2,2,0,0,0-1.51.6,3,3,0,0,0-.74,1.76Z" transform="translate(92.92 -326.04)"/><path class="cls-2" d="M188.51,354.22a3.17,3.17,0,0,1-1.72.45,2.7,2.7,0,0,1-2.13-.91,3.43,3.43,0,0,1-.81-2.38,3.53,3.53,0,0,1,.91-2.52,3,3,0,0,1,2.34-1,3.41,3.41,0,0,1,1.43.31v.65a2.88,2.88,0,0,0-1.52-.42,2.33,2.33,0,0,0-1.85.82,3.12,3.12,0,0,0-.7,2.12,3,3,0,0,0,.64,2,2.15,2.15,0,0,0,1.72.77,2.85,2.85,0,0,0,1.69-.52Z" transform="translate(92.92 -326.04)"/><path class="cls-2" d="M193.94,354.51v-1.29h0a2.56,2.56,0,0,1-.9,1,2.3,2.3,0,0,1-1.32.4,2,2,0,0,1-1.46-.52,1.74,1.74,0,0,1-.54-1.31c0-1.13.75-1.82,2.25-2l2-.3c0-1.39-.52-2.08-1.57-2.08a3.18,3.18,0,0,0-2.08.86v-.71a3.19,3.19,0,0,1,1-.49,3.88,3.88,0,0,1,1.16-.2,2,2,0,0,1,1.55.62,2.7,2.7,0,0,1,.54,1.81v4.21Zm-1.78-3.23a3.19,3.19,0,0,0-1.43.47,1.28,1.28,0,0,0-.42,1.07,1.23,1.23,0,0,0,.39.94,1.46,1.46,0,0,0,1.07.38,2,2,0,0,0,1.55-.7,2.57,2.57,0,0,0,.62-1.78V351Z" transform="translate(92.92 -326.04)"/><path class="cls-2" d="M200.88,354.51v-3.77c0-1.56-.56-2.33-1.68-2.33a1.94,1.94,0,0,0-1.54.68,2.45,2.45,0,0,0-.61,1.7v3.72h-.58V348h.58v1.18h0a2.36,2.36,0,0,1,2.22-1.34,1.94,1.94,0,0,1,1.6.7,3.15,3.15,0,0,1,.56,2v3.94Z" transform="translate(92.92 -326.04)"/><path class="cls-2" d="M207.25,356.57V345.43h2V346h-1.42V356h1.42v.53Z" transform="translate(92.92 -326.04)"/><path class="cls-2" d="M214.33,354.51l-3.1-3.2h0v3.2h-.58v-9.59h.58v6.18h0l2.94-3.07h.75l-3.07,3.14,3.32,3.34Z" transform="translate(92.92 -326.04)"/><path class="cls-2" d="M216.66,346.4a.48.48,0,0,1-.48-.5.44.44,0,0,1,.14-.33.49.49,0,0,1,.34-.14.53.53,0,0,1,.34.13.42.42,0,0,1,.15.34.45.45,0,0,1-.15.35A.45.45,0,0,1,216.66,346.4Zm-.29,8.11V348H217v6.48Z" transform="translate(92.92 -326.04)"/><path class="cls-2" d="M223.44,354.51v-3.77c0-1.56-.56-2.33-1.68-2.33a1.94,1.94,0,0,0-1.54.68,2.45,2.45,0,0,0-.61,1.7v3.72H219V348h.58v1.18h0a2.35,2.35,0,0,1,2.22-1.34,1.94,1.94,0,0,1,1.6.7,3.15,3.15,0,0,1,.56,2v3.94Z" transform="translate(92.92 -326.04)"/><path class="cls-2" d="M230.57,354.51v-1.18h0a2.46,2.46,0,0,1-.94,1,2.75,2.75,0,0,1-1.4.36,2.45,2.45,0,0,1-2-.87,3.56,3.56,0,0,1-.76-2.42,3.81,3.81,0,0,1,.83-2.54,2.69,2.69,0,0,1,2.14-1,2.17,2.17,0,0,1,2.08,1.2h0v-4.15h.58v9.59Zm0-3.94A2.2,2.2,0,0,0,230,349a2,2,0,0,0-1.54-.63,2.14,2.14,0,0,0-1.69.78,3.85,3.85,0,0,0-.06,4.22,1.92,1.92,0,0,0,1.54.73,2.14,2.14,0,0,0,1.71-.69,2.43,2.43,0,0,0,.61-1.68Z" transform="translate(92.92 -326.04)"/><path class="cls-2" d="M239.38,354.67a2.82,2.82,0,0,1-2.24-.94,4,4,0,0,1,0-5,3,3,0,0,1,2.27-.91,2.77,2.77,0,0,1,2.19.91,4.17,4.17,0,0,1,0,5A2.83,2.83,0,0,1,239.38,354.67Zm.05-6.26a2.29,2.29,0,0,0-1.83.77,3.14,3.14,0,0,0-.68,2.14,3,3,0,0,0,.67,2.05,2.26,2.26,0,0,0,1.81.77,2.23,2.23,0,0,0,1.8-.76,3.84,3.84,0,0,0,0-4.23A2.2,2.2,0,0,0,239.43,348.41Z" transform="translate(92.92 -326.04)"/><path class="cls-2" d="M246.54,345.53a1.14,1.14,0,0,0-.71-.18c-.79,0-1.19.53-1.19,1.6V348h1.71v.53h-1.71v5.95h-.58v-5.95h-1.17V348h1.17v-1.12a2.16,2.16,0,0,1,.51-1.56,1.71,1.71,0,0,1,1.29-.54,1.53,1.53,0,0,1,.68.13Z" transform="translate(92.92 -326.04)"/><path class="cls-2" d="M247.92,356.57V356h1.43V346h-1.43v-.54h2v11.14Z" transform="translate(92.92 -326.04)"/><path class="cls-2" d="M260,354.22a3.17,3.17,0,0,1-1.72.45,2.7,2.7,0,0,1-2.13-.91,3.43,3.43,0,0,1-.81-2.38,3.53,3.53,0,0,1,.91-2.52,3,3,0,0,1,2.34-1,3.38,3.38,0,0,1,1.43.31v.65a2.85,2.85,0,0,0-1.52-.42,2.3,2.3,0,0,0-1.84.82,3.07,3.07,0,0,0-.71,2.12,3,3,0,0,0,.64,2,2.16,2.16,0,0,0,1.72.77,2.85,2.85,0,0,0,1.69-.52Z" transform="translate(92.92 -326.04)"/><path class="cls-2" d="M264.2,354.67a2.82,2.82,0,0,1-2.24-.94,4,4,0,0,1,0-5,3,3,0,0,1,2.27-.91,2.77,2.77,0,0,1,2.19.91,4.17,4.17,0,0,1,0,5A2.83,2.83,0,0,1,264.2,354.67Zm.05-6.26a2.29,2.29,0,0,0-1.83.77,3.14,3.14,0,0,0-.68,2.14,3,3,0,0,0,.67,2.05,2.26,2.26,0,0,0,1.81.77,2.23,2.23,0,0,0,1.8-.76,3.84,3.84,0,0,0,0-4.23A2.2,2.2,0,0,0,264.25,348.41Z" transform="translate(92.92 -326.04)"/><path class="cls-2" d="M271.93,348.64a1.15,1.15,0,0,0-.69-.21,1.49,1.49,0,0,0-1.28.79,4.07,4.07,0,0,0-.52,2.25v3h-.57V348h.57v1.44h0a2.33,2.33,0,0,1,.7-1.16,1.68,1.68,0,0,1,1.12-.41,1.66,1.66,0,0,1,.64.12Z" transform="translate(92.92 -326.04)"/><path class="cls-2" d="M276.21,348.64a1.17,1.17,0,0,0-.69-.21,1.49,1.49,0,0,0-1.28.79,4.07,4.07,0,0,0-.52,2.25v3h-.57V348h.57v1.44h0a2.26,2.26,0,0,1,.7-1.16,1.75,1.75,0,0,1,1.76-.29Z" transform="translate(92.92 -326.04)"/><path class="cls-2" d="M277.31,351.29a3.21,3.21,0,0,0,.61,2.09,2.09,2.09,0,0,0,1.7.76,3.42,3.42,0,0,0,2.12-.81V354a3.76,3.76,0,0,1-2.24.72,2.55,2.55,0,0,1-2-.9,3.79,3.79,0,0,1-.77-2.53,3.63,3.63,0,0,1,.81-2.4,2.63,2.63,0,0,1,2.1-1,2.2,2.2,0,0,1,1.85.85,3.76,3.76,0,0,1,.65,2.32v.25Zm4.19-.52A3,3,0,0,0,281,349a1.67,1.67,0,0,0-1.38-.61,2,2,0,0,0-1.51.6,3,3,0,0,0-.74,1.76Z" transform="translate(92.92 -326.04)"/><path class="cls-2" d="M283.71,354.51v-9.59h.58v9.59Z" transform="translate(92.92 -326.04)"/><path class="cls-2" d="M290.25,354.51v-1.29h0a2.42,2.42,0,0,1-.9,1,2.25,2.25,0,0,1-1.31.4,2,2,0,0,1-1.47-.52,1.74,1.74,0,0,1-.54-1.31c0-1.13.75-1.82,2.25-2l2-.3c0-1.39-.53-2.08-1.57-2.08a3.16,3.16,0,0,0-2.08.86v-.71a3.13,3.13,0,0,1,1-.49,3.88,3.88,0,0,1,1.16-.2,2,2,0,0,1,1.55.62,2.65,2.65,0,0,1,.55,1.81v4.21Zm-1.78-3.23a3.29,3.29,0,0,0-1.44.47,1.31,1.31,0,0,0-.41,1.07,1.26,1.26,0,0,0,.38.94,1.49,1.49,0,0,0,1.07.38,2,2,0,0,0,1.56-.7,2.57,2.57,0,0,0,.62-1.78V351Z" transform="translate(92.92 -326.04)"/><path class="cls-2" d="M295.34,354.42a1.92,1.92,0,0,1-.85.22c-1,0-1.44-.57-1.44-1.72v-4.36h-1.16V348h1.16v-1.68l.29-.1.29-.1V348h1.71v.53h-1.71v4.28a1.72,1.72,0,0,0,.21,1,.83.83,0,0,0,.72.3,1.68,1.68,0,0,0,.78-.23Z" transform="translate(92.92 -326.04)"/><path class="cls-2" d="M296.77,351.29a3.21,3.21,0,0,0,.61,2.09,2.09,2.09,0,0,0,1.7.76,3.42,3.42,0,0,0,2.12-.81V354a3.76,3.76,0,0,1-2.24.72,2.55,2.55,0,0,1-2-.9,3.79,3.79,0,0,1-.77-2.53,3.63,3.63,0,0,1,.81-2.4,2.62,2.62,0,0,1,2.09-1,2.21,2.21,0,0,1,1.86.85,3.76,3.76,0,0,1,.65,2.32v.25Zm4.19-.52a3,3,0,0,0-.54-1.75,1.67,1.67,0,0,0-1.38-.61,2,2,0,0,0-1.51.6,3,3,0,0,0-.74,1.76Z" transform="translate(92.92 -326.04)"/><path class="cls-2" d="M305,356.57a9,9,0,0,1,0-11.14h.61a8.28,8.28,0,0,0-2,5.62,8.44,8.44,0,0,0,2,5.52Z" transform="translate(92.92 -326.04)"/><path class="cls-2" d="M309,354.51h-.54l-2.5-6.48h.65l1.93,5.16a4.56,4.56,0,0,1,.2.68h0a5.1,5.1,0,0,1,.18-.65l2-5.19h.63Z" transform="translate(92.92 -326.04)"/><path class="cls-2" d="M311.85,354.62a.51.51,0,0,1-.36-.14.49.49,0,0,1-.14-.37.45.45,0,0,1,.14-.36.51.51,0,0,1,.36-.14.55.55,0,0,1,.37.14.46.46,0,0,1,.15.36.5.5,0,0,1-.15.37A.55.55,0,0,1,311.85,354.62Z" transform="translate(92.92 -326.04)"/><path class="cls-2" d="M314.08,356.57h-.62a8.38,8.38,0,0,0,2-5.52,8.28,8.28,0,0,0-2-5.62h.62a8.28,8.28,0,0,1,1.94,5.63A8.13,8.13,0,0,1,314.08,356.57Z" transform="translate(92.92 -326.04)"/><path class="cls-2" d="M322.14,353.36h0v1.15h-.58v-9.59h.58v4.45h0a2.63,2.63,0,0,1,1-1.11,2.71,2.71,0,0,1,1.42-.39,2.4,2.4,0,0,1,1.94.85,3.58,3.58,0,0,1,.69,2.32,4.07,4.07,0,0,1-.81,2.63,2.56,2.56,0,0,1-2.09,1A2.3,2.3,0,0,1,322.14,353.36Zm0-2.41v.81a2.45,2.45,0,0,0,.61,1.68,2.07,2.07,0,0,0,1.62.7,1.93,1.93,0,0,0,1.61-.85,3.76,3.76,0,0,0,.62-2.24,3,3,0,0,0-.57-1.93,1.84,1.84,0,0,0-1.52-.71,2.13,2.13,0,0,0-1.75.75A2.71,2.71,0,0,0,322.12,351Z" transform="translate(92.92 -326.04)"/><path class="cls-2" d="M331.85,348.64a1.12,1.12,0,0,0-.68-.21,1.52,1.52,0,0,0-1.29.79,4.16,4.16,0,0,0-.52,2.25v3h-.57V348h.57v1.44h0a2.4,2.4,0,0,1,.7-1.16,1.72,1.72,0,0,1,1.12-.41,1.62,1.62,0,0,1,.64.12Z" transform="translate(92.92 -326.04)"/><path class="cls-2" d="M335.42,354.67a2.83,2.83,0,0,1-2.25-.94,4.07,4.07,0,0,1,0-5,3,3,0,0,1,2.28-.91,2.74,2.74,0,0,1,2.18.91,3.62,3.62,0,0,1,.81,2.5,3.56,3.56,0,0,1-.82,2.45A2.81,2.81,0,0,1,335.42,354.67Zm0-6.26a2.32,2.32,0,0,0-1.83.77,3.14,3.14,0,0,0-.67,2.14,3.06,3.06,0,0,0,.66,2.05,2.28,2.28,0,0,0,1.81.77,2.25,2.25,0,0,0,1.81-.76,3.22,3.22,0,0,0,.63-2.11,3.17,3.17,0,0,0-.63-2.12A2.19,2.19,0,0,0,335.46,348.41Z" transform="translate(92.92 -326.04)"/><path class="cls-2" d="M344,354.51v-1.29h0a2.51,2.51,0,0,1-.91,1,2.25,2.25,0,0,1-1.31.4,2,2,0,0,1-1.46-.52,1.74,1.74,0,0,1-.54-1.31c0-1.13.75-1.82,2.25-2l2-.3c0-1.39-.52-2.08-1.57-2.08a3.16,3.16,0,0,0-2.08.86v-.71a3.24,3.24,0,0,1,1-.49,3.94,3.94,0,0,1,1.17-.2,1.94,1.94,0,0,1,1.54.62,2.65,2.65,0,0,1,.55,1.81v4.21Zm-1.78-3.23a3.19,3.19,0,0,0-1.43.47,1.28,1.28,0,0,0-.42,1.07,1.23,1.23,0,0,0,.39.94,1.46,1.46,0,0,0,1.07.38,2,2,0,0,0,1.55-.7,2.57,2.57,0,0,0,.62-1.78V351Z" transform="translate(92.92 -326.04)"/><path class="cls-2" d="M351.09,354.51v-1.18h0a2.39,2.39,0,0,1-.94,1,2.75,2.75,0,0,1-1.4.36,2.45,2.45,0,0,1-2-.87,3.56,3.56,0,0,1-.76-2.42,3.81,3.81,0,0,1,.83-2.54,2.69,2.69,0,0,1,2.14-1,2.17,2.17,0,0,1,2.08,1.2h0v-4.15h.59v9.59Zm0-3.94a2.2,2.2,0,0,0-.57-1.53,2,2,0,0,0-1.54-.63,2.1,2.1,0,0,0-1.68.78,3.15,3.15,0,0,0-.67,2.14,3.2,3.2,0,0,0,.6,2.08,1.92,1.92,0,0,0,1.54.73,2.14,2.14,0,0,0,1.71-.69,2.43,2.43,0,0,0,.61-1.68Z" transform="translate(92.92 -326.04)"/><path class="cls-2" d="M357,354.22v-.69a2.89,2.89,0,0,0,1.6.61c1,0,1.53-.42,1.53-1.25a1,1,0,0,0-.34-.73,3.59,3.59,0,0,0-1.09-.63,3.63,3.63,0,0,1-1.3-.84,1.65,1.65,0,0,1,.22-2.33,2.29,2.29,0,0,1,1.5-.49,2.94,2.94,0,0,1,1.43.34v.66a2.72,2.72,0,0,0-1.5-.46,1.55,1.55,0,0,0-1,.33,1.19,1.19,0,0,0-.14,1.61,3.22,3.22,0,0,0,1.09.66,4.89,4.89,0,0,1,1.39.85,1.41,1.41,0,0,1,.38,1,1.64,1.64,0,0,1-.58,1.28,2.39,2.39,0,0,1-1.6.5A2.59,2.59,0,0,1,357,354.22Z" transform="translate(92.92 -326.04)"/><path class="cls-2" d="M364.94,354.67a2.83,2.83,0,0,1-2.25-.94,4.07,4.07,0,0,1,0-5,3,3,0,0,1,2.28-.91,2.74,2.74,0,0,1,2.18.91,3.62,3.62,0,0,1,.81,2.5,3.56,3.56,0,0,1-.82,2.45A2.82,2.82,0,0,1,364.94,354.67Zm0-6.26a2.32,2.32,0,0,0-1.83.77,3.14,3.14,0,0,0-.68,2.14,3.06,3.06,0,0,0,.67,2.05,2.28,2.28,0,0,0,1.81.77,2.25,2.25,0,0,0,1.81-.76,3.22,3.22,0,0,0,.63-2.11,3.17,3.17,0,0,0-.63-2.12A2.19,2.19,0,0,0,365,348.41Z" transform="translate(92.92 -326.04)"/><path class="cls-2" d="M373.8,354.22a3.17,3.17,0,0,1-1.72.45,2.7,2.7,0,0,1-2.13-.91,3.43,3.43,0,0,1-.81-2.38,3.53,3.53,0,0,1,.91-2.52,3,3,0,0,1,2.34-1,3.41,3.41,0,0,1,1.43.31v.65a2.85,2.85,0,0,0-1.52-.42,2.3,2.3,0,0,0-1.84.82,3.07,3.07,0,0,0-.71,2.12,3,3,0,0,0,.64,2,2.16,2.16,0,0,0,1.72.77,2.85,2.85,0,0,0,1.69-.52Z" transform="translate(92.92 -326.04)"/><path class="cls-2" d="M375.65,346.4a.49.49,0,0,1-.34-.14.45.45,0,0,1-.14-.36.4.4,0,0,1,.14-.33.49.49,0,0,1,.34-.14.53.53,0,0,1,.34.13.42.42,0,0,1,.15.34.45.45,0,0,1-.15.35A.46.46,0,0,1,375.65,346.4Zm-.29,8.11V348h.58v6.48Z" transform="translate(92.92 -326.04)"/><path class="cls-2" d="M381.89,354.51v-1.29h0a2.56,2.56,0,0,1-.9,1,2.3,2.3,0,0,1-1.32.4,2,2,0,0,1-1.46-.52,1.74,1.74,0,0,1-.54-1.31c0-1.13.75-1.82,2.25-2l2-.3c0-1.39-.52-2.08-1.57-2.08a3.18,3.18,0,0,0-2.08.86v-.71a3.31,3.31,0,0,1,1-.49,3.88,3.88,0,0,1,1.16-.2,2,2,0,0,1,1.55.62,2.7,2.7,0,0,1,.54,1.81v4.21Zm-1.78-3.23a3.19,3.19,0,0,0-1.43.47,1.28,1.28,0,0,0-.41,1.07,1.22,1.22,0,0,0,.38.94,1.47,1.47,0,0,0,1.07.38,2,2,0,0,0,1.55-.7,2.53,2.53,0,0,0,.62-1.78V351Z" transform="translate(92.92 -326.04)"/><path class="cls-2" d="M384.42,354.51v-9.59H385v9.59Z" transform="translate(92.92 -326.04)"/><path class="cls-2" d="M393.2,354.42a1.92,1.92,0,0,1-.85.22c-1,0-1.44-.57-1.44-1.72v-4.36h-1.17V348h1.17v-1.68l.29-.1.29-.1V348h1.71v.53h-1.71v4.28a1.72,1.72,0,0,0,.21,1,.82.82,0,0,0,.72.3,1.68,1.68,0,0,0,.78-.23Z" transform="translate(92.92 -326.04)"/><path class="cls-2" d="M397.54,348.64a1.12,1.12,0,0,0-.68-.21,1.52,1.52,0,0,0-1.29.79,4.16,4.16,0,0,0-.52,2.25v3h-.57V348h.57v1.44h0a2.4,2.4,0,0,1,.7-1.16,1.7,1.7,0,0,1,1.12-.41,1.62,1.62,0,0,1,.64.12Z" transform="translate(92.92 -326.04)"/><path class="cls-2" d="M398.64,351.29a3.21,3.21,0,0,0,.62,2.09,2.07,2.07,0,0,0,1.69.76,3.42,3.42,0,0,0,2.13-.81V354a3.76,3.76,0,0,1-2.24.72,2.54,2.54,0,0,1-2-.9,3.73,3.73,0,0,1-.77-2.53,3.62,3.62,0,0,1,.8-2.4,2.63,2.63,0,0,1,2.1-1,2.22,2.22,0,0,1,1.86.85,3.76,3.76,0,0,1,.64,2.32v.25Zm4.19-.52a2.83,2.83,0,0,0-.54-1.75,1.66,1.66,0,0,0-1.37-.61,2,2,0,0,0-1.51.6,2.92,2.92,0,0,0-.74,1.76Z" transform="translate(92.92 -326.04)"/><path class="cls-2" d="M409.46,354.51v-3.77c0-1.56-.57-2.33-1.69-2.33a2,2,0,0,0-1.54.68,2.49,2.49,0,0,0-.6,1.7v3.72h-.58V348h.58v1.18h0a2.34,2.34,0,0,1,2.21-1.34,2,2,0,0,1,1.61.7,3.15,3.15,0,0,1,.56,2v3.94Z" transform="translate(92.92 -326.04)"/><path class="cls-2" d="M416.59,354.51v-1.18h0a2.33,2.33,0,0,1-.94,1,2.73,2.73,0,0,1-1.4.36,2.48,2.48,0,0,1-2-.87,3.61,3.61,0,0,1-.75-2.42,3.8,3.8,0,0,1,.82-2.54,2.71,2.71,0,0,1,2.15-1,2.14,2.14,0,0,1,2.07,1.2h0v-4.15h.58v9.59Zm0-3.94A2.16,2.16,0,0,0,416,349a2,2,0,0,0-1.53-.63,2.14,2.14,0,0,0-1.69.78,3.2,3.2,0,0,0-.66,2.14,3.26,3.26,0,0,0,.59,2.08,1.94,1.94,0,0,0,1.55.73,2.16,2.16,0,0,0,1.71-.69,2.48,2.48,0,0,0,.61-1.68Z" transform="translate(92.92 -326.04)"/><path class="cls-2" d="M418.91,354.22v-.69a2.67,2.67,0,0,0,.8.44,2.5,2.5,0,0,0,.81.17c1,0,1.52-.42,1.52-1.25a1,1,0,0,0-.33-.73,3.86,3.86,0,0,0-1.09-.63,3.79,3.79,0,0,1-1.31-.84,1.67,1.67,0,0,1,.23-2.33,2.27,2.27,0,0,1,1.49-.49,2.91,2.91,0,0,1,1.43.34v.66a2.71,2.71,0,0,0-1.49-.46,1.53,1.53,0,0,0-1,.33,1.09,1.09,0,0,0-.4.86,1.13,1.13,0,0,0,.25.75,3.46,3.46,0,0,0,1.09.66,4.75,4.75,0,0,1,1.39.85,1.41,1.41,0,0,1,.38,1,1.61,1.61,0,0,1-.58,1.28,2.35,2.35,0,0,1-1.59.5A2.63,2.63,0,0,1,418.91,354.22Z" transform="translate(92.92 -326.04)"/><path class="cls-2" d="M428.12,346.4a.49.49,0,0,1-.34-.14.45.45,0,0,1-.14-.36.44.44,0,0,1,.14-.33.49.49,0,0,1,.34-.14.53.53,0,0,1,.34.13.42.42,0,0,1,.15.34.45.45,0,0,1-.15.35A.45.45,0,0,1,428.12,346.4Zm-.29,8.11V348h.58v6.48Z" transform="translate(92.92 -326.04)"/><path class="cls-2" d="M434.9,354.51v-3.77c0-1.56-.56-2.33-1.69-2.33a2,2,0,0,0-1.54.68,2.49,2.49,0,0,0-.6,1.7v3.72h-.58V348h.58v1.18h0a2.34,2.34,0,0,1,2.21-1.34,2,2,0,0,1,1.61.7,3.15,3.15,0,0,1,.56,2v3.94Z" transform="translate(92.92 -326.04)"/><path class="cls-2" d="M444.85,354.51v-1.29h0a2.56,2.56,0,0,1-.9,1,2.3,2.3,0,0,1-1.32.4,2,2,0,0,1-1.46-.52,1.74,1.74,0,0,1-.54-1.31c0-1.13.75-1.82,2.25-2l2-.3c0-1.39-.52-2.08-1.57-2.08a3.18,3.18,0,0,0-2.08.86v-.71a3.19,3.19,0,0,1,1-.49,3.88,3.88,0,0,1,1.16-.2,2,2,0,0,1,1.55.62,2.7,2.7,0,0,1,.54,1.81v4.21Zm-1.78-3.23a3.19,3.19,0,0,0-1.43.47,1.28,1.28,0,0,0-.42,1.07,1.23,1.23,0,0,0,.39.94,1.46,1.46,0,0,0,1.07.38,2,2,0,0,0,1.55-.7,2.57,2.57,0,0,0,.62-1.78V351Z" transform="translate(92.92 -326.04)"/><path class="cls-2" d="M447.05,354.22v-.69a2.55,2.55,0,0,0,.8.44,2.5,2.5,0,0,0,.8.17c1,0,1.53-.42,1.53-1.25a.92.92,0,0,0-.34-.73,3.59,3.59,0,0,0-1.09-.63,3.73,3.73,0,0,1-1.3-.84,1.56,1.56,0,0,1-.38-1.05,1.54,1.54,0,0,1,.61-1.28,2.27,2.27,0,0,1,1.49-.49,2.94,2.94,0,0,1,1.43.34v.66a2.71,2.71,0,0,0-1.49-.46,1.58,1.58,0,0,0-1,.33,1.19,1.19,0,0,0-.14,1.61A3.34,3.34,0,0,0,449,351a4.89,4.89,0,0,1,1.39.85,1.41,1.41,0,0,1,.38,1,1.64,1.64,0,0,1-.58,1.28,2.38,2.38,0,0,1-1.6.5A2.62,2.62,0,0,1,447.05,354.22Z" transform="translate(92.92 -326.04)"/><path class="cls-2" d="M453,353.36h0v4.13h-.58V348H453v1.34h0a2.55,2.55,0,0,1,1-1.11,2.74,2.74,0,0,1,1.43-.39,2.39,2.39,0,0,1,1.93.85,3.58,3.58,0,0,1,.69,2.32,4.12,4.12,0,0,1-.8,2.63,2.56,2.56,0,0,1-2.09,1A2.28,2.28,0,0,1,453,353.36Zm0-2.41v.81a2.45,2.45,0,0,0,.61,1.68,2.07,2.07,0,0,0,1.62.7,1.92,1.92,0,0,0,1.61-.85,3.76,3.76,0,0,0,.62-2.24,3,3,0,0,0-.57-1.93,1.84,1.84,0,0,0-1.52-.71,2.14,2.14,0,0,0-1.75.75A2.71,2.71,0,0,0,453,351Z" transform="translate(92.92 -326.04)"/><path class="cls-2" d="M459.82,351.29a3.21,3.21,0,0,0,.61,2.09,2.08,2.08,0,0,0,1.69.76,3.42,3.42,0,0,0,2.13-.81V354a3.76,3.76,0,0,1-2.24.72,2.55,2.55,0,0,1-2-.9,3.73,3.73,0,0,1-.77-2.53,3.63,3.63,0,0,1,.81-2.4,2.59,2.59,0,0,1,2.09-1,2.21,2.21,0,0,1,1.86.85,3.76,3.76,0,0,1,.65,2.32v.25Zm4.19-.52a3,3,0,0,0-.54-1.75,1.68,1.68,0,0,0-1.38-.61,2,2,0,0,0-1.51.6,2.92,2.92,0,0,0-.74,1.76Z" transform="translate(92.92 -326.04)"/><path class="cls-2" d="M470.42,354.22a3.21,3.21,0,0,1-1.73.45,2.7,2.7,0,0,1-2.13-.91,3.43,3.43,0,0,1-.81-2.38,3.57,3.57,0,0,1,.91-2.52,3,3,0,0,1,2.34-1,3.42,3.42,0,0,1,1.44.31v.65a2.88,2.88,0,0,0-1.52-.42,2.32,2.32,0,0,0-1.85.82,3.12,3.12,0,0,0-.71,2.12,3,3,0,0,0,.65,2,2.13,2.13,0,0,0,1.71.77,2.88,2.88,0,0,0,1.7-.52Z" transform="translate(92.92 -326.04)"/><path class="cls-2" d="M474.54,354.42a1.92,1.92,0,0,1-.85.22c-1,0-1.44-.57-1.44-1.72v-4.36h-1.17V348h1.17v-1.68l.29-.1.29-.1V348h1.71v.53h-1.71v4.28a1.72,1.72,0,0,0,.21,1,.82.82,0,0,0,.72.3,1.68,1.68,0,0,0,.78-.23Z" transform="translate(92.92 -326.04)"/><path class="cls-2" d="M475.49,354.22v-.69a2.55,2.55,0,0,0,.8.44,2.5,2.5,0,0,0,.81.17c1,0,1.52-.42,1.52-1.25a1,1,0,0,0-.33-.73,3.86,3.86,0,0,0-1.09-.63,3.69,3.69,0,0,1-1.31-.84,1.56,1.56,0,0,1-.38-1.05,1.54,1.54,0,0,1,.61-1.28,2.27,2.27,0,0,1,1.49-.49,2.91,2.91,0,0,1,1.43.34v.66a2.71,2.71,0,0,0-1.49-.46,1.53,1.53,0,0,0-1,.33,1.06,1.06,0,0,0-.4.86,1.13,1.13,0,0,0,.25.75,3.34,3.34,0,0,0,1.09.66,4.89,4.89,0,0,1,1.39.85,1.41,1.41,0,0,1,.38,1,1.61,1.61,0,0,1-.58,1.28,2.38,2.38,0,0,1-1.6.5A2.62,2.62,0,0,1,475.49,354.22Z" transform="translate(92.92 -326.04)"/><path class="cls-2" d="M484.07,354.22v-.69a2.67,2.67,0,0,0,.8.44,2.5,2.5,0,0,0,.81.17c1,0,1.52-.42,1.52-1.25a1,1,0,0,0-.33-.73,3.72,3.72,0,0,0-1.09-.63,3.63,3.63,0,0,1-1.3-.84,1.51,1.51,0,0,1-.38-1.05,1.56,1.56,0,0,1,.6-1.28,2.28,2.28,0,0,1,1.5-.49,2.87,2.87,0,0,1,1.42.34v.66a2.69,2.69,0,0,0-1.49-.46,1.55,1.55,0,0,0-1,.33,1.08,1.08,0,0,0-.39.86,1.13,1.13,0,0,0,.24.75A3.46,3.46,0,0,0,486,351a4.75,4.75,0,0,1,1.39.85,1.37,1.37,0,0,1,.38,1,1.64,1.64,0,0,1-.57,1.28,2.39,2.39,0,0,1-1.6.5A2.63,2.63,0,0,1,484.07,354.22Z" transform="translate(92.92 -326.04)"/><path class="cls-2" d="M493.72,354.51v-1.18h0a2.24,2.24,0,0,1-2.1,1.34c-1.53,0-2.29-1-2.29-2.9V348h.59v3.6a3.29,3.29,0,0,0,.43,1.91,1.58,1.58,0,0,0,1.37.6,1.83,1.83,0,0,0,1.46-.67,2.66,2.66,0,0,0,.56-1.77V348h.58v6.48Z" transform="translate(92.92 -326.04)"/><path class="cls-2" d="M500.57,354.22a3.17,3.17,0,0,1-1.72.45,2.7,2.7,0,0,1-2.13-.91,3.43,3.43,0,0,1-.81-2.38,3.53,3.53,0,0,1,.91-2.52,3,3,0,0,1,2.34-1,3.42,3.42,0,0,1,1.44.31v.65a2.89,2.89,0,0,0-1.53-.42,2.31,2.31,0,0,0-1.84.82,3.12,3.12,0,0,0-.71,2.12,3,3,0,0,0,.65,2,2.13,2.13,0,0,0,1.71.77,2.85,2.85,0,0,0,1.69-.52Z" transform="translate(92.92 -326.04)"/><path class="cls-2" d="M506.54,354.51v-3.88a2.72,2.72,0,0,0-.42-1.69,1.53,1.53,0,0,0-1.3-.53,2,2,0,0,0-1.47.65,2.52,2.52,0,0,0-.64,1.86v3.59h-.58v-9.59h.58v4.28h0a2.42,2.42,0,0,1,2.23-1.33,2,2,0,0,1,1.6.68,3,3,0,0,1,.55,1.94v4Z" transform="translate(92.92 -326.04)"/><path class="cls-2" d="M516.49,354.51v-1.29h0a2.56,2.56,0,0,1-.9,1,2.27,2.27,0,0,1-1.31.4,2,2,0,0,1-1.47-.52,1.74,1.74,0,0,1-.54-1.31c0-1.13.75-1.82,2.25-2l2-.3c0-1.39-.52-2.08-1.57-2.08a3.18,3.18,0,0,0-2.08.86v-.71a3.31,3.31,0,0,1,1-.49,3.88,3.88,0,0,1,1.16-.2,2,2,0,0,1,1.55.62,2.7,2.7,0,0,1,.54,1.81v4.21Zm-1.78-3.23a3.24,3.24,0,0,0-1.43.47,1.28,1.28,0,0,0-.41,1.07,1.26,1.26,0,0,0,.38.94,1.47,1.47,0,0,0,1.07.38,2,2,0,0,0,1.55-.7,2.53,2.53,0,0,0,.62-1.78V351Z" transform="translate(92.92 -326.04)"/><path class="cls-2" d="M518.69,354.22v-.69a2.67,2.67,0,0,0,.8.44,2.5,2.5,0,0,0,.81.17c1,0,1.52-.42,1.52-1.25a1,1,0,0,0-.33-.73,3.86,3.86,0,0,0-1.09-.63,3.69,3.69,0,0,1-1.31-.84,1.64,1.64,0,0,1,.23-2.33,2.27,2.27,0,0,1,1.49-.49,2.91,2.91,0,0,1,1.43.34v.66a2.71,2.71,0,0,0-1.49-.46,1.53,1.53,0,0,0-1,.33,1.09,1.09,0,0,0-.4.86,1.13,1.13,0,0,0,.25.75,3.34,3.34,0,0,0,1.09.66,4.75,4.75,0,0,1,1.39.85,1.41,1.41,0,0,1,.38,1,1.61,1.61,0,0,1-.58,1.28,2.35,2.35,0,0,1-1.59.5A2.63,2.63,0,0,1,518.69,354.22Z" transform="translate(92.92 -326.04)"/><path class="cls-3" d="M527.9,346.4a.49.49,0,0,1-.34-.14.45.45,0,0,1-.14-.36.4.4,0,0,1,.14-.33.49.49,0,0,1,.34-.14.53.53,0,0,1,.34.13.42.42,0,0,1,.15.34.45.45,0,0,1-.15.35A.46.46,0,0,1,527.9,346.4Zm-.29,8.11V348h.58v6.48Z" transform="translate(92.92 -326.04)"/><path class="cls-3" d="M534.68,354.51v-3.77c0-1.56-.56-2.33-1.69-2.33a2,2,0,0,0-1.54.68,2.49,2.49,0,0,0-.6,1.7v3.72h-.58V348h.58v1.18h0a2.34,2.34,0,0,1,2.21-1.34,2,2,0,0,1,1.61.7,3.15,3.15,0,0,1,.56,2v3.94Z" transform="translate(92.92 -326.04)"/><path class="cls-3" d="M541.81,354.51v-1.18h0a2.37,2.37,0,0,1-.93,1,2.78,2.78,0,0,1-1.4.36,2.49,2.49,0,0,1-2-.87,3.61,3.61,0,0,1-.75-2.42,3.8,3.8,0,0,1,.82-2.54,2.73,2.73,0,0,1,2.15-1,2.14,2.14,0,0,1,2.07,1.2h0v-4.15h.58v9.59Zm0-3.94a2.2,2.2,0,0,0-.57-1.53,2,2,0,0,0-1.54-.63,2.14,2.14,0,0,0-1.69.78,3.85,3.85,0,0,0-.06,4.22,1.91,1.91,0,0,0,1.54.73,2.16,2.16,0,0,0,1.71-.69,2.48,2.48,0,0,0,.61-1.68Z" transform="translate(92.92 -326.04)"/><path class="cls-3" d="M544.61,351.29a3.21,3.21,0,0,0,.61,2.09,2.09,2.09,0,0,0,1.7.76,3.42,3.42,0,0,0,2.12-.81V354a3.76,3.76,0,0,1-2.24.72,2.55,2.55,0,0,1-2-.9,3.79,3.79,0,0,1-.77-2.53,3.63,3.63,0,0,1,.81-2.4,2.61,2.61,0,0,1,2.09-1,2.21,2.21,0,0,1,1.86.85,3.76,3.76,0,0,1,.65,2.32v.25Zm4.19-.52a3,3,0,0,0-.54-1.75,1.67,1.67,0,0,0-1.38-.61,2,2,0,0,0-1.51.6,2.92,2.92,0,0,0-.74,1.76Z" transform="translate(92.92 -326.04)"/><path class="cls-3" d="M551.62,353.36h0v4.13H551V348h.58v1.34h0a2.51,2.51,0,0,1,1-1.11,2.71,2.71,0,0,1,1.42-.39,2.36,2.36,0,0,1,1.93.85,3.59,3.59,0,0,1,.7,2.32,4.12,4.12,0,0,1-.8,2.63,2.57,2.57,0,0,1-2.1,1A2.29,2.29,0,0,1,551.62,353.36Zm0-2.41v.81a2.46,2.46,0,0,0,.62,1.68,2.07,2.07,0,0,0,1.61.7,2,2,0,0,0,1.62-.85,3.76,3.76,0,0,0,.62-2.24,3,3,0,0,0-.57-1.93,1.86,1.86,0,0,0-1.53-.71,2.16,2.16,0,0,0-1.75.75A2.76,2.76,0,0,0,551.59,351Z" transform="translate(92.92 -326.04)"/><path class="cls-3" d="M558.41,351.29a3.21,3.21,0,0,0,.62,2.09,2.07,2.07,0,0,0,1.69.76,3.42,3.42,0,0,0,2.13-.81V354a3.77,3.77,0,0,1-2.25.72,2.53,2.53,0,0,1-2-.9,3.74,3.74,0,0,1-.78-2.53,3.63,3.63,0,0,1,.81-2.4,2.63,2.63,0,0,1,2.1-1,2.2,2.2,0,0,1,1.85.85,3.7,3.7,0,0,1,.65,2.32v.25Zm4.19-.52a3,3,0,0,0-.54-1.75,1.66,1.66,0,0,0-1.37-.61,2.07,2.07,0,0,0-1.52.6,3,3,0,0,0-.73,1.76Z" transform="translate(92.92 -326.04)"/><path class="cls-3" d="M569.22,354.51v-3.77c0-1.56-.56-2.33-1.68-2.33a2,2,0,0,0-1.54.68,2.49,2.49,0,0,0-.6,1.7v3.72h-.58V348h.58v1.18h0a2.34,2.34,0,0,1,2.21-1.34,2,2,0,0,1,1.61.7,3.15,3.15,0,0,1,.55,2v3.94Z" transform="translate(92.92 -326.04)"/><path class="cls-3" d="M576.35,354.51v-1.18h0a2.33,2.33,0,0,1-.94,1,2.73,2.73,0,0,1-1.4.36,2.47,2.47,0,0,1-2-.87,3.61,3.61,0,0,1-.75-2.42,3.8,3.8,0,0,1,.82-2.54,2.71,2.71,0,0,1,2.15-1,2.15,2.15,0,0,1,2.07,1.2h0v-4.15h.59v9.59Zm0-3.94a2.2,2.2,0,0,0-.57-1.53,2,2,0,0,0-1.54-.63,2.1,2.1,0,0,0-1.68.78,3.83,3.83,0,0,0-.07,4.22,1.92,1.92,0,0,0,1.54.73,2.18,2.18,0,0,0,1.72-.69,2.47,2.47,0,0,0,.6-1.68Z" transform="translate(92.92 -326.04)"/><path class="cls-3" d="M579.15,351.29a3.21,3.21,0,0,0,.62,2.09,2.07,2.07,0,0,0,1.69.76,3.42,3.42,0,0,0,2.13-.81V354a3.76,3.76,0,0,1-2.24.72,2.54,2.54,0,0,1-2-.9,3.74,3.74,0,0,1-.78-2.53,3.63,3.63,0,0,1,.81-2.4,2.63,2.63,0,0,1,2.1-1,2.22,2.22,0,0,1,1.86.85A3.76,3.76,0,0,1,584,351v.25Zm4.19-.52a2.83,2.83,0,0,0-.54-1.75,1.66,1.66,0,0,0-1.37-.61,2,2,0,0,0-1.51.6,2.92,2.92,0,0,0-.74,1.76Z" transform="translate(92.92 -326.04)"/><path class="cls-3" d="M590,354.51v-3.77c0-1.56-.56-2.33-1.68-2.33a2,2,0,0,0-1.54.68,2.49,2.49,0,0,0-.6,1.7v3.72h-.58V348h.58v1.18h0a2.34,2.34,0,0,1,2.21-1.34,2,2,0,0,1,1.61.7,3.15,3.15,0,0,1,.55,2v3.94Z" transform="translate(92.92 -326.04)"/><path class="cls-3" d="M595.06,354.42a1.92,1.92,0,0,1-.85.22c-1,0-1.44-.57-1.44-1.72v-4.36h-1.16V348h1.16v-1.68l.29-.1.29-.1V348h1.71v.53h-1.71v4.28a1.72,1.72,0,0,0,.21,1,.82.82,0,0,0,.72.3,1.68,1.68,0,0,0,.78-.23Z" transform="translate(92.92 -326.04)"/><path class="cls-3" d="M600.51,353.36h0v4.13h-.58V348h.58v1.34h0a2.55,2.55,0,0,1,1-1.11,2.74,2.74,0,0,1,1.43-.39,2.39,2.39,0,0,1,1.93.85,3.58,3.58,0,0,1,.69,2.32,4.06,4.06,0,0,1-.8,2.63,2.56,2.56,0,0,1-2.09,1A2.28,2.28,0,0,1,600.51,353.36Zm0-2.41v.81a2.45,2.45,0,0,0,.61,1.68,2.07,2.07,0,0,0,1.62.7,1.92,1.92,0,0,0,1.61-.85,3.76,3.76,0,0,0,.62-2.24,3,3,0,0,0-.57-1.93,1.84,1.84,0,0,0-1.52-.71,2.14,2.14,0,0,0-1.75.75A2.71,2.71,0,0,0,600.48,351Z" transform="translate(92.92 -326.04)"/><path class="cls-3" d="M607.16,354.51v-9.59h.58v9.59Z" transform="translate(92.92 -326.04)"/><path class="cls-3" d="M613.69,354.51v-1.29h0a2.51,2.51,0,0,1-.91,1,2.25,2.25,0,0,1-1.31.4,2,2,0,0,1-1.46-.52,1.74,1.74,0,0,1-.54-1.31c0-1.13.75-1.82,2.25-2l2-.3c0-1.39-.52-2.08-1.57-2.08a3.16,3.16,0,0,0-2.08.86v-.71a3.24,3.24,0,0,1,1-.49,3.94,3.94,0,0,1,1.17-.2,1.94,1.94,0,0,1,1.54.62,2.65,2.65,0,0,1,.55,1.81v4.21Zm-1.78-3.23a3.19,3.19,0,0,0-1.43.47,1.28,1.28,0,0,0-.42,1.07,1.23,1.23,0,0,0,.39.94,1.46,1.46,0,0,0,1.07.38,2,2,0,0,0,1.55-.7,2.57,2.57,0,0,0,.62-1.78V351Z" transform="translate(92.92 -326.04)"/><path class="cls-3" d="M617.8,355.83a3.62,3.62,0,0,1-.78,1.3,1.53,1.53,0,0,1-1.11.42,1.28,1.28,0,0,1-.5-.09v-.58a1.44,1.44,0,0,0,.53.09c.52,0,.92-.36,1.22-1.07l.61-1.44L615.31,348H616l2,5.28.09.26a1.08,1.08,0,0,0,0,.21h0l.15-.44,2.09-5.31H621Z" transform="translate(92.92 -326.04)"/><path class="cls-2" d="M629.52,354.51v-1.29h0a2.49,2.49,0,0,1-.9,1,2.25,2.25,0,0,1-1.31.4,2,2,0,0,1-1.47-.52,1.74,1.74,0,0,1-.54-1.31c0-1.13.75-1.82,2.25-2l2-.3c0-1.39-.53-2.08-1.57-2.08a3.14,3.14,0,0,0-2.08.86v-.71a3.13,3.13,0,0,1,1-.49,3.88,3.88,0,0,1,1.16-.2,2,2,0,0,1,1.55.62,2.7,2.7,0,0,1,.55,1.81v4.21Zm-1.79-3.23a3.24,3.24,0,0,0-1.43.47,1.31,1.31,0,0,0-.41,1.07,1.26,1.26,0,0,0,.38.94,1.47,1.47,0,0,0,1.07.38,2,2,0,0,0,1.55-.7,2.53,2.53,0,0,0,.63-1.78V351Z" transform="translate(92.92 -326.04)"/><path class="cls-2" d="M636.45,354.51v-3.77c0-1.56-.56-2.33-1.68-2.33a2,2,0,0,0-1.54.68,2.49,2.49,0,0,0-.6,1.7v3.72h-.58V348h.58v1.18h0a2.34,2.34,0,0,1,2.21-1.34,2,2,0,0,1,1.61.7,3.15,3.15,0,0,1,.55,2v3.94Z" transform="translate(92.92 -326.04)"/><path class="cls-2" d="M643.58,354.51v-1.18h0a2.33,2.33,0,0,1-.94,1,2.73,2.73,0,0,1-1.4.36,2.48,2.48,0,0,1-2-.87,3.61,3.61,0,0,1-.75-2.42,3.8,3.8,0,0,1,.82-2.54,2.71,2.71,0,0,1,2.15-1,2.14,2.14,0,0,1,2.07,1.2h0v-4.15h.59v9.59Zm0-3.94A2.2,2.2,0,0,0,643,349a2,2,0,0,0-1.54-.63,2.1,2.1,0,0,0-1.68.78,3.83,3.83,0,0,0-.07,4.22,1.92,1.92,0,0,0,1.54.73,2.18,2.18,0,0,0,1.72-.69,2.47,2.47,0,0,0,.6-1.68Z" transform="translate(92.92 -326.04)"/><path class="cls-3" d="M657.92,354.51v-3.9a2.91,2.91,0,0,0-.38-1.71,1.44,1.44,0,0,0-1.21-.49,1.7,1.7,0,0,0-1.33.65,2.47,2.47,0,0,0-.55,1.65v3.8h-.58v-3.94q0-2.16-1.65-2.16a1.62,1.62,0,0,0-1.32.66,2.66,2.66,0,0,0-.52,1.71v3.73h-.59V348h.59v1.08h0a2.14,2.14,0,0,1,2-1.24,1.89,1.89,0,0,1,1.22.41,2,2,0,0,1,.68,1.07,2.49,2.49,0,0,1,.87-1.09,2.09,2.09,0,0,1,1.23-.39c1.41,0,2.12.88,2.12,2.63v4Z" transform="translate(92.92 -326.04)"/><path class="cls-3" d="M660.59,351.29a3.21,3.21,0,0,0,.61,2.09,2.09,2.09,0,0,0,1.7.76,3.42,3.42,0,0,0,2.12-.81V354a3.76,3.76,0,0,1-2.24.72,2.55,2.55,0,0,1-2-.9,3.79,3.79,0,0,1-.77-2.53,3.63,3.63,0,0,1,.81-2.4,2.62,2.62,0,0,1,2.09-1,2.21,2.21,0,0,1,1.86.85,3.76,3.76,0,0,1,.65,2.32v.25Zm4.19-.52a3,3,0,0,0-.54-1.75,1.67,1.67,0,0,0-1.38-.61,2,2,0,0,0-1.51.6,3,3,0,0,0-.74,1.76Z" transform="translate(92.92 -326.04)"/><path class="cls-3" d="M671.4,354.51v-3.77c0-1.56-.56-2.33-1.68-2.33a1.94,1.94,0,0,0-1.54.68,2.45,2.45,0,0,0-.61,1.7v3.72H667V348h.58v1.18h0a2.35,2.35,0,0,1,2.22-1.34,1.94,1.94,0,0,1,1.6.7,3.15,3.15,0,0,1,.56,2v3.94Z" transform="translate(92.92 -326.04)"/><path class="cls-3" d="M676.5,354.42a2,2,0,0,1-.86.22c-1,0-1.43-.57-1.43-1.72v-4.36H673V348h1.17v-1.68a1.83,1.83,0,0,1,.28-.1l.3-.1V348h1.71v.53h-1.71v4.28a1.72,1.72,0,0,0,.21,1,.82.82,0,0,0,.72.3,1.71,1.71,0,0,0,.78-.23Z" transform="translate(92.92 -326.04)"/><path class="cls-3" d="M681.65,354.51v-1.29h0a2.56,2.56,0,0,1-.9,1,2.3,2.3,0,0,1-1.32.4,2,2,0,0,1-1.46-.52,1.74,1.74,0,0,1-.54-1.31c0-1.13.75-1.82,2.25-2l2-.3c0-1.39-.52-2.08-1.57-2.08a3.18,3.18,0,0,0-2.08.86v-.71a3.31,3.31,0,0,1,1-.49,3.88,3.88,0,0,1,1.16-.2,2,2,0,0,1,1.55.62,2.7,2.7,0,0,1,.54,1.81v4.21Zm-1.78-3.23a3.19,3.19,0,0,0-1.43.47,1.28,1.28,0,0,0-.41,1.07,1.22,1.22,0,0,0,.38.94,1.47,1.47,0,0,0,1.07.38,2,2,0,0,0,1.55-.7,2.53,2.53,0,0,0,.62-1.78V351Z" transform="translate(92.92 -326.04)"/><path class="cls-3" d="M684.18,354.51v-9.59h.58v9.59Z" transform="translate(92.92 -326.04)"/><path class="cls-3" d="M694.8,354.51v-3.88a2.72,2.72,0,0,0-.42-1.69,1.53,1.53,0,0,0-1.3-.53,2,2,0,0,0-1.47.65,2.56,2.56,0,0,0-.64,1.86v3.59h-.58v-9.59H691v4.28h0a2.42,2.42,0,0,1,2.23-1.33,2,2,0,0,1,1.6.68,3,3,0,0,1,.55,1.94v4Z" transform="translate(92.92 -326.04)"/><path class="cls-3" d="M697.47,351.29a3.21,3.21,0,0,0,.62,2.09,2.07,2.07,0,0,0,1.69.76,3.42,3.42,0,0,0,2.13-.81V354a3.77,3.77,0,0,1-2.25.72,2.53,2.53,0,0,1-2-.9,3.74,3.74,0,0,1-.78-2.53,3.63,3.63,0,0,1,.81-2.4,2.63,2.63,0,0,1,2.1-1,2.2,2.2,0,0,1,1.85.85,3.7,3.7,0,0,1,.65,2.32v.25Zm4.19-.52a2.89,2.89,0,0,0-.54-1.75,1.66,1.66,0,0,0-1.37-.61,2.07,2.07,0,0,0-1.52.6,3,3,0,0,0-.73,1.76Z" transform="translate(92.92 -326.04)"/><path class="cls-3" d="M707.75,354.51v-1.29h0a2.51,2.51,0,0,1-.91,1,2.25,2.25,0,0,1-1.31.4,2,2,0,0,1-1.46-.52,1.74,1.74,0,0,1-.54-1.31c0-1.13.75-1.82,2.25-2l2-.3c0-1.39-.52-2.08-1.57-2.08a3.18,3.18,0,0,0-2.08.86v-.71a3.19,3.19,0,0,1,1-.49,3.88,3.88,0,0,1,1.16-.2,2,2,0,0,1,1.55.62,2.7,2.7,0,0,1,.54,1.81v4.21ZM706,351.28a3.19,3.19,0,0,0-1.43.47,1.28,1.28,0,0,0-.42,1.07,1.23,1.23,0,0,0,.39.94,1.46,1.46,0,0,0,1.07.38,2,2,0,0,0,1.55-.7,2.57,2.57,0,0,0,.62-1.78V351Z" transform="translate(92.92 -326.04)"/><path class="cls-3" d="M710.28,354.51v-9.59h.58v9.59Z" transform="translate(92.92 -326.04)"/><path class="cls-3" d="M715.51,354.42a2,2,0,0,1-.86.22c-.95,0-1.43-.57-1.43-1.72v-4.36h-1.17V348h1.17v-1.68l.28-.1.3-.1V348h1.71v.53H713.8v4.28a1.72,1.72,0,0,0,.21,1,.82.82,0,0,0,.72.3,1.68,1.68,0,0,0,.78-.23Z" transform="translate(92.92 -326.04)"/><path class="cls-3" d="M721.2,354.51v-3.88a2.72,2.72,0,0,0-.42-1.69,1.56,1.56,0,0,0-1.31-.53,2,2,0,0,0-1.47.65,2.55,2.55,0,0,0-.63,1.86v3.59h-.58v-9.59h.58v4.28h0a2.42,2.42,0,0,1,2.23-1.33,2,2,0,0,1,1.6.68,3,3,0,0,1,.55,1.94v4Z" transform="translate(92.92 -326.04)"/><path class="cls-2" d="M724.13,354.62a.49.49,0,0,1-.36-.14.5.5,0,0,1-.15-.37.46.46,0,0,1,.15-.36.49.49,0,0,1,.36-.14.57.57,0,0,1,.37.14.46.46,0,0,1,.15.36.5.5,0,0,1-.15.37A.57.57,0,0,1,724.13,354.62Z" transform="translate(92.92 -326.04)"/><line class="cls-4" x1="22.85" y1="34.09" x2="101.65" y2="34.09"/><line class="cls-4" x1="169.52" y1="34.09" x2="208.92" y2="34.09"/><path class="cls-1" d="M-72.7,329v2.84a11.85,11.85,0,0,1-.28,3.05,8.28,8.28,0,0,1-1.08,2.4c-.17-.15-.34-.3-.53-.44a6.58,6.58,0,0,0,1-2.13,11.94,11.94,0,0,0,.26-2.88v-3.4h4V326h.62V327H-64v.55h-4.78v1h5.44l-.16,1.66a4,4,0,0,0-.62,0L-64,329Zm5.49,3.93h.64v3.46h3.3V337h-9.35v-.56h3V333h.64v3.43h1.74Zm-4.89-2.43,2.61-.19v-.93h.63v.89l3.45-.25,0,.52-3.5.27v.26a.69.69,0,0,0,.19.59,1.22,1.22,0,0,0,.74.17h2.24c.55,0,.87-.16,1-.54a6.08,6.08,0,0,0,.17-.81,6.13,6.13,0,0,0,.6.22,6.83,6.83,0,0,1-.21.8q-.21.9-1.5.87h-2.39c-1,0-1.45-.39-1.42-1.22v-.3l-2.57.19Zm0,2.93.54-.3c.31.43.71,1.05,1.23,1.86l-.57.34C-71.24,334.73-71.64,334.1-72.06,333.47Zm6.69,1.94-.51-.38a19.07,19.07,0,0,0,1.39-1.83l.53.33C-64.41,334.19-64.88,334.81-65.37,335.41Z" transform="translate(92.92 -326.04)"/><path class="cls-1" d="M-61.89,328.22H-51.7v.61h-4.75v3.11h4.34v.61h-4.34v3.52h5.27v.61H-62.37v-.61h5.27v-3.52h-4.33v-.61h4.33v-3.11h-4.79Zm4.41-1.91.6-.23c.37.71.65,1.29.85,1.72l-.65.23A15.74,15.74,0,0,0-57.48,326.31Z" transform="translate(92.92 -326.04)"/><path class="cls-1" d="M121.74,337.4a6.66,6.66,0,0,0-.38-.64q4.64-1,5.58-2.82h-5.47v-.61h5.74a12.3,12.3,0,0,0,.49-4.26h.67a15.58,15.58,0,0,1-.45,4.26h4.56v.61H127.7a3.33,3.33,0,0,1-.28.48q2.88,1.26,4.87,2.2l-.38.6c-1.63-.82-3.26-1.59-4.87-2.31C126.13,336,124.37,336.78,121.74,337.4Zm4.55-11.06.58-.27q.34.58.78,1.41l-.52.24h5v2h-.65v-1.35h-9.19v1.35h-.65v-2H127A15.19,15.19,0,0,0,126.29,326.34ZM125,332.67a23.44,23.44,0,0,0-2.26-1.21l.34-.52q1.23.58,2.31,1.17Zm1.08-1.71c-.75-.46-1.49-.88-2.22-1.27l.35-.49c.86.45,1.61.85,2.24,1.21Z" transform="translate(92.92 -326.04)"/><path class="cls-1" d="M133.82,328.22H144v.61h-4.75v3.11h4.34v.61h-4.34v3.52h5.27v.61H133.34v-.61h5.27v-3.52h-4.33v-.61h4.33v-3.11h-4.79Zm4.41-1.91.6-.23c.37.71.65,1.29.85,1.72L139,328A15.74,15.74,0,0,0,138.23,326.31Z" transform="translate(92.92 -326.04)"/><path class="cls-2" d="M163.35,369.75h10.19v.61h-4.75v3.11h4.33v.61h-4.33v3.52h5.27v.61H162.87v-.61h5.26v-3.52h-4.32v-.61h4.32v-3.11h-4.78Zm4.41-1.91.6-.23c.37.71.65,1.29.85,1.72l-.65.23A15.74,15.74,0,0,0,167.76,367.84Z" transform="translate(92.92 -326.04)"/><path class="cls-2" d="M242.64,377.21c.57-.49,1-.92,1.41-1.28a5,5,0,0,0,.14.71c-.53.44-1,.88-1.51,1.33a3.74,3.74,0,0,0-.46.5l-.49-.53a1.09,1.09,0,0,0,.3-.79v-4.92h-1.3v-.57h1.91Zm.28-7c-.59-.74-1.12-1.37-1.61-1.91l.48-.35c.5.55,1,1.17,1.63,1.87Zm1.35-2h7.24v3.86h-7.24Zm.45,4.8h6.4v4.23c0,1-.43,1.49-1.45,1.48l-1.27,0c0-.23-.09-.43-.14-.62l.58,0h.76a.85.85,0,0,0,.7-.21,1.11,1.11,0,0,0,.19-.75v-.41h-5.15v2.13h-.62Zm.17-4.3v1.17h2.7v-1.17Zm0,1.67v1.18h2.7v-1.18Zm.45,3.14v1.11h5.15V373.5Zm0,1.61v1.14h5.15v-1.14Zm5.56-6.42h-2.7v1.17h2.7Zm-2.7,1.67v1.18h2.7v-1.18Z" transform="translate(92.92 -326.04)"/><path class="cls-2" d="M362.46,375.63h2.21v-4.75a63.73,63.73,0,0,0,6.92-.44l.23.61c-2.06.2-4.24.33-6.52.4v1.45H373v.58h-2.77v2.15h3.55v.58H362.46Zm3.92,1.09.41.54c-1.21.61-2.45,1.18-3.72,1.7a3,3,0,0,0-.35-.57A34.46,34.46,0,0,0,366.38,376.72Zm1.31-9,.61-.11,0,.09c.15.58.24,1,.28,1.23h4.74v2h-.62v-1.38h-9.15v1.38H363v-2h5a.5.5,0,0,0,0-.14C367.83,368.33,367.75,368,367.69,367.72Zm-2.39,5.76v2.15h4.33v-2.15Zm4.06,3.78.38-.54c1.35.54,2.6,1.07,3.77,1.57l-.36.57C372,378.33,370.73,377.79,369.36,377.26Z" transform="translate(92.92 -326.04)"/><path class="cls-2" d="M507.43,375.63h2.2v-4.75a63.75,63.75,0,0,0,6.93-.44l.23.61c-2.06.2-4.24.33-6.52.4v1.45H518v.58h-2.77v2.15h3.55v.58H507.43Zm3.92,1.09.41.54c-1.21.61-2.45,1.18-3.72,1.7a3,3,0,0,0-.35-.57A34.46,34.46,0,0,0,511.35,376.72Zm1.31-9,.61-.11,0,.09c.15.58.24,1,.28,1.23h4.74v2h-.62v-1.38h-9.16v1.38h-.62v-2h5a.5.5,0,0,0,0-.14C512.8,368.33,512.72,368,512.66,367.72Zm-2.39,5.76v2.15h4.33v-2.15Zm4.06,3.78.38-.54c1.35.54,2.6,1.07,3.77,1.57l-.36.57C517,378.33,515.7,377.79,514.33,377.26Z" transform="translate(92.92 -326.04)"/><path class="cls-2" d="M521.38,377.42c.41-.27.91-.61,1.49-1,0,.28,0,.52.08.73a20.89,20.89,0,0,0-2.12,1.52l-.43-.57a1.27,1.27,0,0,0,.27-.44,1.56,1.56,0,0,0,.08-.53v-4.84h-1.34v-.58h2Zm.28-7.4c-.33-.36-.9-.94-1.71-1.73l.47-.4c.53.49,1.12,1.06,1.75,1.69Zm1.12-1.27v-.56h7.49v.56h-4.46l-.26,1.61h3.85v2.51h1.38v.56h-8.34v-.56h2l.34-2H523v-.55h1.88l.26-1.61Zm.75,6.1h6.18v4.07h-.63v-.76h-4.91v.76h-.64Zm.64.56v2.19h4.91v-2.19Zm4.6-4.5h-3.32l-.33,2h3.65Z" transform="translate(92.92 -326.04)"/><path class="cls-2" d="M531.91,369.56h1.22c.23-.72.41-1.36.55-1.91l.65.14c0,.14-.12.39-.24.74s-.26.82-.33,1h2.38v9.1h-.62v-1h-3v1.05h-.62Zm.62.58v3.18h3v-3.18Zm0,3.75v3.25h3v-3.25Zm4.66-1.77a5.21,5.21,0,0,0-.56-.35,16.87,16.87,0,0,0,1.8-4.12l.64.16c-.21.62-.43,1.2-.65,1.73h3.88q-.07,4.11-.22,7.14a1.74,1.74,0,0,1-2,2l-.8,0h-1.07a5.28,5.28,0,0,0-.16-.66c.62,0,1.25,0,1.92,0,1,0,1.48-.43,1.49-1.43.07-1.26.13-3.41.19-6.47h-3.48A15.22,15.22,0,0,1,537.19,372.12Zm.5.53.48-.34c.54.67,1.18,1.49,1.9,2.46l-.53.4C538.9,374.25,538.28,373.41,537.69,372.65Z" transform="translate(92.92 -326.04)"/><path class="cls-2" d="M543.88,378.9a3.33,3.33,0,0,0-.44-.53,7.29,7.29,0,0,0,2.25-4.93l.68.06a12.44,12.44,0,0,1-.44,2,4.32,4.32,0,0,0,3.11,2.31v-5.46h-5.39v-.61h10.88v.61h-4.84v2.17h4.11v.6h-4.11v2.72c.75,0,1.6,0,2.57,0s1.76,0,2.45,0a3.86,3.86,0,0,0-.19.72c-1.95,0-3.64,0-5.08-.08a4.4,4.4,0,0,1-3.76-2.26A7.69,7.69,0,0,1,543.88,378.9Zm4.77-11.16.67-.14c.15.55.27,1,.36,1.43h4.5v2h-.64v-1.39h-8.83V371h-.63v-2H549C548.86,368.48,548.74,368.05,548.65,367.74Z" transform="translate(92.92 -326.04)"/><path class="cls-2" d="M557.38,377.42c.41-.27.91-.61,1.49-1,0,.28,0,.52.08.73a20.89,20.89,0,0,0-2.12,1.52l-.43-.57a1.27,1.27,0,0,0,.27-.44,1.56,1.56,0,0,0,.08-.53v-4.84h-1.34v-.58h2Zm.28-7.4c-.33-.36-.9-.94-1.71-1.73l.47-.4c.53.49,1.12,1.06,1.75,1.69Zm1.12-1.27v-.56h7.49v.56h-4.46l-.26,1.61h3.85v2.51h1.38v.56h-8.34v-.56h2l.34-2H559v-.55h1.88l.26-1.61Zm.75,6.1h6.18v4.07h-.63v-.76h-4.91v.76h-.64Zm.64.56v2.19h4.91v-2.19Zm4.6-4.5h-3.32l-.33,2h3.65Z" transform="translate(92.92 -326.04)"/><line class="cls-5" x1="255.38" y1="34.09" x2="273.52" y2="34.09"/><line class="cls-5" x1="278.32" y1="34.09" x2="408.98" y2="34.09"/><line class="cls-5" x1="414.85" y1="34.09" x2="516.72" y2="34.09"/></svg>