<svg id="图层_1" data-name="图层 1" xmlns="http://www.w3.org/2000/svg" viewBox="0 0 744.86 60.98"><defs><style>.cls-1{fill:#00a0e9;}.cls-2{fill:#094;}.cls-3{fill:none;stroke:#231815;stroke-miterlimit:10;}.cls-4{fill:#231815;}</style></defs><title>0003</title><path d="M238.86,467.33a2.21,2.21,0,0,1-1,.2c-1.16,0-1.74-.64-1.74-1.93v-3.74H235v-.95h1.12v-1.56l1.14-.36v1.92h1.61v.95h-1.61v3.54a1.43,1.43,0,0,0,.22.91.83.83,0,0,0,.72.28,1,1,0,0,0,.67-.22Z" transform="translate(-234.99 -457.66)"/><path d="M245.69,467.39h-1.14v-3.72c0-1.31-.48-2-1.45-2a1.57,1.57,0,0,0-1.24.57,2.11,2.11,0,0,0-.49,1.44v3.67h-1.15V457.8h1.15V462h0a2.36,2.36,0,0,1,2.12-1.22c1.45,0,2.18.88,2.18,2.64Z" transform="translate(-234.99 -457.66)"/><path d="M252.89,464.44h-4.54a2.34,2.34,0,0,0,.57,1.61,2,2,0,0,0,1.51.56,3.26,3.26,0,0,0,2-.69v1a3.88,3.88,0,0,1-2.27.6,2.77,2.77,0,0,1-2.2-.89,3.6,3.6,0,0,1-.78-2.47,3.51,3.51,0,0,1,.86-2.45,2.75,2.75,0,0,1,2.15-1,2.46,2.46,0,0,1,2,.82,3.32,3.32,0,0,1,.72,2.28Zm-1.15-.92a2,2,0,0,0-.42-1.35,1.39,1.39,0,0,0-1.15-.49,1.62,1.62,0,0,0-1.19.51,2.44,2.44,0,0,0-.63,1.33Z" transform="translate(-234.99 -457.66)"/><path d="M259.69,460.91l-2.94,7.46q-.83,2.07-2.31,2.07a2.68,2.68,0,0,1-.74-.09v-1a1.75,1.75,0,0,0,.65.13,1.24,1.24,0,0,0,1.16-.91l.5-1.18-2.54-6.47h1.27l1.69,4.87.14.53h0c0-.12.07-.29.14-.52l1.77-4.88Z" transform="translate(-234.99 -457.66)"/><path d="M268.8,467.1a3.43,3.43,0,0,1-1.8.44,3,3,0,0,1-2.26-.9,3.25,3.25,0,0,1-.85-2.34,3.57,3.57,0,0,1,.92-2.57,3.68,3.68,0,0,1,4-.65v1.13a2.52,2.52,0,0,0-1.52-.5,2.06,2.06,0,0,0-1.6.68,2.58,2.58,0,0,0-.62,1.82,2.47,2.47,0,0,0,.58,1.75,2,2,0,0,0,1.57.63,2.62,2.62,0,0,0,1.59-.55Z" transform="translate(-234.99 -457.66)"/><path d="M269.9,464.22a3.48,3.48,0,0,1,.9-2.53,3.22,3.22,0,0,1,2.43-.93,3,3,0,0,1,2.29.89,3.51,3.51,0,0,1,.83,2.47,3.47,3.47,0,0,1-.89,2.48,3.07,3.07,0,0,1-2.37.94,3,3,0,0,1-2.32-.91A3.35,3.35,0,0,1,269.9,464.22Zm1.18,0a2.57,2.57,0,0,0,.56,1.76,1.93,1.93,0,0,0,1.52.64,1.82,1.82,0,0,0,1.5-.63,2.74,2.74,0,0,0,.52-1.8,2.78,2.78,0,0,0-.52-1.82,1.82,1.82,0,0,0-1.5-.63,1.88,1.88,0,0,0-1.52.66A2.7,2.7,0,0,0,271.08,464.19Z" transform="translate(-234.99 -457.66)"/><path d="M283.45,467.39H282.3v-3.68c0-1.34-.48-2-1.46-2a1.59,1.59,0,0,0-1.24.56,2.12,2.12,0,0,0-.48,1.42v3.7H278v-6.48h1.15V462h0a2.35,2.35,0,0,1,2.13-1.22,2,2,0,0,1,1.62.68,3.1,3.1,0,0,1,.56,2Z" transform="translate(-234.99 -457.66)"/><path d="M288.47,467.33a2.21,2.21,0,0,1-1,.2c-1.16,0-1.74-.64-1.74-1.93v-3.74h-1.11v-.95h1.11v-1.56l1.14-.36v1.92h1.61v.95h-1.61v3.54a1.43,1.43,0,0,0,.22.91.83.83,0,0,0,.72.28,1,1,0,0,0,.67-.22Z" transform="translate(-234.99 -457.66)"/><path d="M290,461.36a4.17,4.17,0,0,1,2.24-.6q2.34,0,2.34,2.46v4.17h-1.14v-1h0a2.35,2.35,0,0,1-3.48.64,1.76,1.76,0,0,1-.56-1.37c0-1.21.72-1.92,2.15-2.12l1.92-.27c0-1.06-.43-1.59-1.31-1.59a3.33,3.33,0,0,0-2.13.79Zm1.93,3a2.09,2.09,0,0,0-1.1.4,1.1,1.1,0,0,0-.3.82,1,1,0,0,0,.32.76,1.29,1.29,0,0,0,.87.29,1.6,1.6,0,0,0,1.24-.53,1.88,1.88,0,0,0,.48-1.32v-.62Z" transform="translate(-234.99 -457.66)"/><path d="M296.32,458.63a.7.7,0,0,1,.21-.52.69.69,0,0,1,.51-.2.72.72,0,0,1,.53.2.7.7,0,0,1,.21.52.66.66,0,0,1-.21.5.72.72,0,0,1-.53.2.69.69,0,0,1-.51-.2A.66.66,0,0,1,296.32,458.63Zm.14,8.76v-6.48h1.15v6.48Z" transform="translate(-234.99 -457.66)"/><path d="M305.14,467.39H304v-3.68c0-1.34-.48-2-1.45-2a1.6,1.6,0,0,0-1.25.56,2.12,2.12,0,0,0-.48,1.42v3.7h-1.15v-6.48h1.15V462h0a2.35,2.35,0,0,1,2.13-1.22,2,2,0,0,1,1.62.68,3.1,3.1,0,0,1,.56,2Z" transform="translate(-234.99 -457.66)"/><path d="M315.08,467.1a3.4,3.4,0,0,1-1.79.44,3,3,0,0,1-2.26-.9,3.26,3.26,0,0,1-.86-2.34,3.61,3.61,0,0,1,.92-2.57,3.25,3.25,0,0,1,2.47-1,3.29,3.29,0,0,1,1.53.32v1.13a2.57,2.57,0,0,0-1.53-.5,2.08,2.08,0,0,0-1.6.68,2.62,2.62,0,0,0-.62,1.82,2.51,2.51,0,0,0,.58,1.75,2.06,2.06,0,0,0,1.58.63,2.59,2.59,0,0,0,1.58-.55Z" transform="translate(-234.99 -457.66)"/><path d="M316.77,461.36a4.17,4.17,0,0,1,2.24-.6q2.34,0,2.34,2.46v4.17h-1.14v-1h0a2.16,2.16,0,0,1-2,1.15,2.13,2.13,0,0,1-1.5-.51,1.76,1.76,0,0,1-.56-1.37c0-1.21.72-1.92,2.15-2.12l1.92-.27c0-1.06-.43-1.59-1.31-1.59a3.31,3.31,0,0,0-2.13.79Zm1.93,3a2.06,2.06,0,0,0-1.1.4,1.11,1.11,0,0,0-.31.82,1,1,0,0,0,.33.76,1.29,1.29,0,0,0,.87.29,1.6,1.6,0,0,0,1.24-.53,1.88,1.88,0,0,0,.48-1.32v-.62Z" transform="translate(-234.99 -457.66)"/><path d="M324.4,466.48v.91h-1.15V457.8h1.15V462h0a2.43,2.43,0,0,1,2.22-1.27,2.38,2.38,0,0,1,1.94.86,3.52,3.52,0,0,1,.72,2.34,3.92,3.92,0,0,1-.81,2.61,2.64,2.64,0,0,1-2.15,1,2.12,2.12,0,0,1-1.92-1.06Zm0-1.75a1.85,1.85,0,0,0,.51,1.32,1.79,1.79,0,0,0,2.7-.16,3.19,3.19,0,0,0,.52-1.94,2.58,2.58,0,0,0-.48-1.64,1.59,1.59,0,0,0-1.31-.6,1.82,1.82,0,0,0-1.4.6,2.23,2.23,0,0,0-.54,1.54Z" transform="translate(-234.99 -457.66)"/><path d="M330.78,458.63a.7.7,0,0,1,.21-.52.66.66,0,0,1,.51-.2.69.69,0,0,1,.52.2.67.67,0,0,1,.22.52.63.63,0,0,1-.22.5.78.78,0,0,1-1,0A.69.69,0,0,1,330.78,458.63Zm.13,8.76v-6.48h1.15v6.48Z" transform="translate(-234.99 -457.66)"/><path d="M339.59,467.39h-1.14v-3.68c0-1.34-.49-2-1.46-2a1.56,1.56,0,0,0-1.24.56,2.08,2.08,0,0,0-.49,1.42v3.7h-1.15v-6.48h1.15V462h0a2.35,2.35,0,0,1,2.13-1.22,2,2,0,0,1,1.62.68,3.1,3.1,0,0,1,.56,2Z" transform="translate(-234.99 -457.66)"/><path d="M344.85,464.24h-3.46v-.89h3.46Z" transform="translate(-234.99 -457.66)"/><path d="M347.85,466.48v3.89H346.7v-9.46h1.15V462h0a2.44,2.44,0,0,1,2.23-1.27,2.37,2.37,0,0,1,1.94.87,3.6,3.6,0,0,1,.71,2.33,4,4,0,0,1-.8,2.6,2.61,2.61,0,0,1-2.15,1,2.15,2.15,0,0,1-1.93-1.06Zm0-1.76a1.86,1.86,0,0,0,.51,1.33,1.8,1.8,0,0,0,2.71-.16,3.26,3.26,0,0,0,.51-1.94,2.57,2.57,0,0,0-.48-1.65,1.61,1.61,0,0,0-1.31-.59,1.82,1.82,0,0,0-1.4.6,2.23,2.23,0,0,0-.54,1.55Z" transform="translate(-234.99 -457.66)"/><path d="M357.84,462.05a1.36,1.36,0,0,0-.8-.21,1.3,1.3,0,0,0-1.1.63,2.79,2.79,0,0,0-.43,1.64v3.28h-1.15v-6.48h1.15v1.32h0a1.78,1.78,0,0,1,1.7-1.43,1.63,1.63,0,0,1,.61.09Z" transform="translate(-234.99 -457.66)"/><path d="M364.05,464.44h-4.53a2.34,2.34,0,0,0,.57,1.61,2,2,0,0,0,1.5.56,3.24,3.24,0,0,0,2-.69v1a3.88,3.88,0,0,1-2.27.6,2.74,2.74,0,0,1-2.19-.89,4.08,4.08,0,0,1,.07-4.92,2.77,2.77,0,0,1,2.15-1,2.49,2.49,0,0,1,2,.82,3.36,3.36,0,0,1,.71,2.28Zm-1.15-.92a2,2,0,0,0-.41-1.35,1.43,1.43,0,0,0-1.16-.49,1.6,1.6,0,0,0-1.18.51,2.31,2.31,0,0,0-.63,1.33Z" transform="translate(-234.99 -457.66)"/><path d="M365.22,466a3.12,3.12,0,0,0,1.87.63c.89,0,1.34-.29,1.34-.88a.78.78,0,0,0-.29-.62,5.18,5.18,0,0,0-1.19-.58,3.4,3.4,0,0,1-1.4-.85,1.65,1.65,0,0,1-.33-1,1.61,1.61,0,0,1,.73-1.38,3,3,0,0,1,1.8-.52,4,4,0,0,1,1.54.29v1.1a3,3,0,0,0-1.65-.47,1.54,1.54,0,0,0-.9.24.75.75,0,0,0-.34.64.73.73,0,0,0,.25.6,4.19,4.19,0,0,0,1.1.56,3.69,3.69,0,0,1,1.46.84,1.52,1.52,0,0,1,.39,1.07,1.64,1.64,0,0,1-.73,1.4,3.24,3.24,0,0,1-1.89.51,3.74,3.74,0,0,1-1.76-.38Z" transform="translate(-234.99 -457.66)"/><path d="M370.77,466a3.12,3.12,0,0,0,1.87.63c.9,0,1.34-.29,1.34-.88a.75.75,0,0,0-.29-.62,4.77,4.77,0,0,0-1.19-.58,3.47,3.47,0,0,1-1.4-.85,1.71,1.71,0,0,1-.32-1,1.59,1.59,0,0,1,.73-1.38,3,3,0,0,1,1.79-.52,3.88,3.88,0,0,1,1.54.29v1.1a3,3,0,0,0-1.65-.47,1.53,1.53,0,0,0-.89.24.76.76,0,0,0-.35.64.73.73,0,0,0,.25.6,4.37,4.37,0,0,0,1.1.56,3.67,3.67,0,0,1,1.47.84,1.56,1.56,0,0,1,.38,1.07,1.61,1.61,0,0,1-.73,1.4,3.24,3.24,0,0,1-1.89.51,3.77,3.77,0,0,1-1.76-.38Z" transform="translate(-234.99 -457.66)"/><path d="M382,467.39h-1.15v-1h0a2.13,2.13,0,0,1-2,1.17c-1.54,0-2.31-.91-2.31-2.75v-3.88h1.14v3.71c0,1.32.5,2,1.51,2a1.48,1.48,0,0,0,1.21-.55,2.1,2.1,0,0,0,.47-1.4v-3.73H382Z" transform="translate(-234.99 -457.66)"/><path d="M387.56,462.05a1.3,1.3,0,0,0-.79-.21,1.29,1.29,0,0,0-1.1.63,2.79,2.79,0,0,0-.44,1.64v3.28h-1.14v-6.48h1.14v1.32h0a1.77,1.77,0,0,1,1.7-1.43,1.58,1.58,0,0,1,.6.09Z" transform="translate(-234.99 -457.66)"/><path d="M393.78,464.44h-4.54a2.34,2.34,0,0,0,.57,1.61,2,2,0,0,0,1.51.56,3.21,3.21,0,0,0,2-.69v1a3.85,3.85,0,0,1-2.26.6,2.77,2.77,0,0,1-2.2-.89,3.61,3.61,0,0,1-.79-2.47,3.51,3.51,0,0,1,.87-2.45,2.74,2.74,0,0,1,2.15-1,2.47,2.47,0,0,1,2,.82,3.32,3.32,0,0,1,.72,2.28Zm-1.15-.92a2,2,0,0,0-.42-1.35,1.41,1.41,0,0,0-1.15-.49,1.62,1.62,0,0,0-1.19.51,2.44,2.44,0,0,0-.63,1.33Z" transform="translate(-234.99 -457.66)"/><path d="M398.65,464.24H395.2v-.89h3.45Z" transform="translate(-234.99 -457.66)"/><path d="M405,467.1a3.37,3.37,0,0,1-1.79.44,3,3,0,0,1-2.26-.9,3.26,3.26,0,0,1-.86-2.34,3.57,3.57,0,0,1,.93-2.57,3.68,3.68,0,0,1,4-.65v1.13a2.54,2.54,0,0,0-1.52-.5,2.1,2.1,0,0,0-1.61.68,2.62,2.62,0,0,0-.61,1.82,2.47,2.47,0,0,0,.58,1.75,2,2,0,0,0,1.57.63A2.57,2.57,0,0,0,405,466Z" transform="translate(-234.99 -457.66)"/><path d="M406.08,464.22a3.48,3.48,0,0,1,.9-2.53,3.22,3.22,0,0,1,2.43-.93,3,3,0,0,1,2.29.89,3.51,3.51,0,0,1,.83,2.47,3.47,3.47,0,0,1-.89,2.48,3.09,3.09,0,0,1-2.37.94,3,3,0,0,1-2.32-.91A3.35,3.35,0,0,1,406.08,464.22Zm1.17,0a2.57,2.57,0,0,0,.57,1.76,1.91,1.91,0,0,0,1.52.64,1.82,1.82,0,0,0,1.5-.63,2.8,2.8,0,0,0,.52-1.8,2.84,2.84,0,0,0-.52-1.82,1.82,1.82,0,0,0-1.5-.63,1.92,1.92,0,0,0-1.53.66A2.75,2.75,0,0,0,407.25,464.19Z" transform="translate(-234.99 -457.66)"/><path d="M419.62,467.39h-1.14v-3.68c0-1.34-.49-2-1.46-2a1.58,1.58,0,0,0-1.24.56,2.13,2.13,0,0,0-.49,1.42v3.7h-1.15v-6.48h1.15V462h0a2.33,2.33,0,0,1,2.12-1.22,2,2,0,0,1,1.63.68,3.1,3.1,0,0,1,.55,2Z" transform="translate(-234.99 -457.66)"/><path d="M424.65,467.33a2.21,2.21,0,0,1-1,.2c-1.16,0-1.74-.64-1.74-1.93v-3.74h-1.12v-.95h1.12v-1.56L423,459v1.92h1.61v.95H423v3.54a1.43,1.43,0,0,0,.22.91.83.83,0,0,0,.72.28,1.06,1.06,0,0,0,.67-.22Z" transform="translate(-234.99 -457.66)"/><path d="M429.48,462.05a1.38,1.38,0,0,0-1.89.42,2.79,2.79,0,0,0-.43,1.64v3.28H426v-6.48h1.15v1.32h0a1.78,1.78,0,0,1,1.7-1.43,1.58,1.58,0,0,1,.6.09Z" transform="translate(-234.99 -457.66)"/><path d="M430,464.22a3.52,3.52,0,0,1,.89-2.53,3.23,3.23,0,0,1,2.44-.93,3,3,0,0,1,2.28.89,4,4,0,0,1-.05,5,3.09,3.09,0,0,1-2.37.94,3,3,0,0,1-2.32-.91A3.35,3.35,0,0,1,430,464.22Zm1.17,0a2.57,2.57,0,0,0,.57,1.76,1.9,1.9,0,0,0,1.52.64,1.84,1.84,0,0,0,1.5-.63,2.8,2.8,0,0,0,.51-1.8,2.84,2.84,0,0,0-.51-1.82,1.84,1.84,0,0,0-1.5-.63,1.89,1.89,0,0,0-1.53.66A2.75,2.75,0,0,0,431.16,464.19Z" transform="translate(-234.99 -457.66)"/><path d="M438,467.39V457.8h1.15v9.59Z" transform="translate(-234.99 -457.66)"/><path d="M444.43,466a3.12,3.12,0,0,0,1.87.63c.9,0,1.34-.29,1.34-.88a.78.78,0,0,0-.29-.62,5,5,0,0,0-1.19-.58,3.4,3.4,0,0,1-1.4-.85,1.64,1.64,0,0,1-.32-1,1.59,1.59,0,0,1,.73-1.38,3,3,0,0,1,1.79-.52,3.91,3.91,0,0,1,1.54.29v1.1a3,3,0,0,0-1.65-.47,1.51,1.51,0,0,0-.89.24.8.8,0,0,0-.1,1.24,4.19,4.19,0,0,0,1.1.56,3.74,3.74,0,0,1,1.47.84,1.56,1.56,0,0,1,.38,1.07,1.61,1.61,0,0,1-.73,1.4,3.24,3.24,0,0,1-1.89.51,3.77,3.77,0,0,1-1.76-.38Z" transform="translate(-234.99 -457.66)"/><path d="M455.62,460.91l-2.94,7.46q-.82,2.07-2.31,2.07a2.68,2.68,0,0,1-.74-.09v-1a1.75,1.75,0,0,0,.65.13,1.26,1.26,0,0,0,1.17-.91l.49-1.18-2.54-6.47h1.27l1.7,4.87.14.53h0a4.78,4.78,0,0,1,.14-.52l1.77-4.88Z" transform="translate(-234.99 -457.66)"/><path d="M456.34,466a3.12,3.12,0,0,0,1.87.63c.89,0,1.34-.29,1.34-.88a.78.78,0,0,0-.29-.62,5.18,5.18,0,0,0-1.19-.58,3.4,3.4,0,0,1-1.4-.85,1.65,1.65,0,0,1-.33-1,1.61,1.61,0,0,1,.73-1.38,3,3,0,0,1,1.8-.52,3.86,3.86,0,0,1,1.53.29v1.1a3,3,0,0,0-1.64-.47,1.54,1.54,0,0,0-.9.24.75.75,0,0,0-.34.64.75.75,0,0,0,.24.6,4.49,4.49,0,0,0,1.11.56,3.69,3.69,0,0,1,1.46.84,1.51,1.51,0,0,1,.38,1.07A1.63,1.63,0,0,1,460,467a3.24,3.24,0,0,1-1.89.51,3.74,3.74,0,0,1-1.76-.38Z" transform="translate(-234.99 -457.66)"/><path d="M465.37,467.33a2.22,2.22,0,0,1-1,.2c-1.16,0-1.74-.64-1.74-1.93v-3.74H461.5v-.95h1.11v-1.56l1.15-.36v1.92h1.61v.95h-1.61v3.54a1.5,1.5,0,0,0,.21.91.86.86,0,0,0,.72.28,1.07,1.07,0,0,0,.68-.22Z" transform="translate(-234.99 -457.66)"/><path d="M471.91,464.44h-4.54a2.34,2.34,0,0,0,.57,1.61,2,2,0,0,0,1.51.56,3.21,3.21,0,0,0,2-.69v1a3.85,3.85,0,0,1-2.26.6,2.77,2.77,0,0,1-2.2-.89,3.61,3.61,0,0,1-.79-2.47,3.51,3.51,0,0,1,.87-2.45,2.74,2.74,0,0,1,2.15-1,2.49,2.49,0,0,1,2,.82,3.32,3.32,0,0,1,.72,2.28Zm-1.15-.92a2,2,0,0,0-.42-1.35,1.41,1.41,0,0,0-1.15-.49,1.6,1.6,0,0,0-1.19.51,2.44,2.44,0,0,0-.63,1.33Z" transform="translate(-234.99 -457.66)"/><path d="M482.76,467.39h-1.14v-3.72a2.64,2.64,0,0,0-.33-1.51,1.25,1.25,0,0,0-1.08-.45,1.33,1.33,0,0,0-1.08.59,2.18,2.18,0,0,0-.46,1.4v3.69h-1.14v-3.84c0-1.23-.48-1.84-1.43-1.84a1.33,1.33,0,0,0-1.09.56,2.35,2.35,0,0,0-.43,1.44v3.68h-1.14v-6.48h1.14v1h0a2.2,2.2,0,0,1,2-1.18,1.92,1.92,0,0,1,1.15.36,1.83,1.83,0,0,1,.69,1,2.32,2.32,0,0,1,2.16-1.32q2.13,0,2.13,2.64Z" transform="translate(-234.99 -457.66)"/><path d="M484.32,466a3.1,3.1,0,0,0,1.87.63c.89,0,1.34-.29,1.34-.88a.76.76,0,0,0-.3-.62,4.77,4.77,0,0,0-1.19-.58,3.55,3.55,0,0,1-1.4-.85,1.71,1.71,0,0,1-.32-1,1.61,1.61,0,0,1,.73-1.38,3,3,0,0,1,1.8-.52,3.86,3.86,0,0,1,1.53.29v1.1a3,3,0,0,0-1.64-.47,1.54,1.54,0,0,0-.9.24.8.8,0,0,0-.1,1.24,4.49,4.49,0,0,0,1.11.56,3.69,3.69,0,0,1,1.46.84,1.51,1.51,0,0,1,.38,1.07A1.61,1.61,0,0,1,488,467a3.2,3.2,0,0,1-1.89.51,3.73,3.73,0,0,1-1.75-.38Z" transform="translate(-234.99 -457.66)"/><path d="M493.64,458.63a.7.7,0,0,1,.21-.52.69.69,0,0,1,.52-.2.71.71,0,0,1,.52.2.7.7,0,0,1,.21.52.66.66,0,0,1-.21.5.71.71,0,0,1-.52.2.69.69,0,0,1-.52-.2A.66.66,0,0,1,493.64,458.63Zm.14,8.76v-6.48h1.15v6.48Z" transform="translate(-234.99 -457.66)"/><path d="M502.46,467.39h-1.15v-3.68c0-1.34-.48-2-1.45-2a1.6,1.6,0,0,0-1.25.56,2.12,2.12,0,0,0-.48,1.42v3.7H497v-6.48h1.15V462h0a2.35,2.35,0,0,1,2.13-1.22,2,2,0,0,1,1.62.68,3.1,3.1,0,0,1,.56,2Z" transform="translate(-234.99 -457.66)"/><path d="M516.23,460.91l-1.94,6.48H513.1l-1.29-4.55a3,3,0,0,1-.11-.62h0a2.47,2.47,0,0,1-.14.61l-1.39,4.56H509L507,460.91h1.2l1.3,4.81a4.7,4.7,0,0,1,.08.59h.05a2.87,2.87,0,0,1,.11-.61l1.4-4.79h1.06l1.36,4.81a4.34,4.34,0,0,1,.09.6h0a3.22,3.22,0,0,1,.11-.6l1.26-4.81Z" transform="translate(-234.99 -457.66)"/><path d="M522.87,467.39h-1.14v-3.72c0-1.31-.49-2-1.45-2a1.57,1.57,0,0,0-1.24.57,2.11,2.11,0,0,0-.49,1.44v3.67H517.4V457.8h1.15V462h0a2.36,2.36,0,0,1,2.12-1.22c1.45,0,2.18.88,2.18,2.64Z" transform="translate(-234.99 -457.66)"/><path d="M524.65,458.63a.73.73,0,0,1,.2-.52.69.69,0,0,1,.52-.2.72.72,0,0,1,.74.72.67.67,0,0,1-.22.5.71.71,0,0,1-.52.2.69.69,0,0,1-.52-.2A.65.65,0,0,1,524.65,458.63Zm.13,8.76v-6.48h1.15v6.48Z" transform="translate(-234.99 -457.66)"/><path d="M532.46,467.1a3.43,3.43,0,0,1-1.8.44,3,3,0,0,1-2.26-.9,3.25,3.25,0,0,1-.85-2.34,3.57,3.57,0,0,1,.92-2.57,3.68,3.68,0,0,1,4-.65v1.13a2.52,2.52,0,0,0-1.52-.5,2.06,2.06,0,0,0-1.6.68,2.58,2.58,0,0,0-.62,1.82,2.47,2.47,0,0,0,.58,1.75,2,2,0,0,0,1.58.63,2.62,2.62,0,0,0,1.58-.55Z" transform="translate(-234.99 -457.66)"/><path d="M539.47,467.39h-1.14v-3.72c0-1.31-.49-2-1.45-2a1.57,1.57,0,0,0-1.24.57,2.11,2.11,0,0,0-.49,1.44v3.67H534V457.8h1.15V462h0a2.36,2.36,0,0,1,2.12-1.22c1.45,0,2.18.88,2.18,2.64Z" transform="translate(-234.99 -457.66)"/><path class="cls-1" d="M549.41,467.1a3.37,3.37,0,0,1-1.79.44,3,3,0,0,1-2.26-.9,3.26,3.26,0,0,1-.86-2.34,3.57,3.57,0,0,1,.93-2.57,3.68,3.68,0,0,1,4-.65v1.13a2.54,2.54,0,0,0-1.52-.5,2.1,2.1,0,0,0-1.61.68,2.62,2.62,0,0,0-.61,1.82,2.47,2.47,0,0,0,.58,1.75,2,2,0,0,0,1.57.63,2.57,2.57,0,0,0,1.58-.55Z" transform="translate(-234.99 -457.66)"/><path class="cls-1" d="M550.52,464.22a3.48,3.48,0,0,1,.9-2.53,3.22,3.22,0,0,1,2.43-.93,3,3,0,0,1,2.29.89,3.51,3.51,0,0,1,.83,2.47,3.47,3.47,0,0,1-.89,2.48,3.09,3.09,0,0,1-2.37.94,3,3,0,0,1-2.32-.91A3.35,3.35,0,0,1,550.52,464.22Zm1.17,0a2.57,2.57,0,0,0,.57,1.76,1.91,1.91,0,0,0,1.52.64,1.82,1.82,0,0,0,1.5-.63,2.8,2.8,0,0,0,.51-1.8,2.84,2.84,0,0,0-.51-1.82,1.82,1.82,0,0,0-1.5-.63,1.91,1.91,0,0,0-1.53.66A2.75,2.75,0,0,0,551.69,464.19Z" transform="translate(-234.99 -457.66)"/><path class="cls-1" d="M564.06,467.39h-1.14v-3.68c0-1.34-.49-2-1.46-2a1.58,1.58,0,0,0-1.24.56,2.08,2.08,0,0,0-.49,1.42v3.7h-1.15v-6.48h1.15V462h0a2.33,2.33,0,0,1,2.12-1.22,2,2,0,0,1,1.63.68,3.1,3.1,0,0,1,.55,2Z" transform="translate(-234.99 -457.66)"/><path class="cls-1" d="M571.6,467.39h-1.14v-1.08h0a2.37,2.37,0,0,1-2.2,1.23,2.43,2.43,0,0,1-2-.87,3.63,3.63,0,0,1-.73-2.37,3.83,3.83,0,0,1,.83-2.57,2.65,2.65,0,0,1,2.14-1,2.05,2.05,0,0,1,1.92,1h0v-4h1.14Zm-1.14-3.85a1.81,1.81,0,0,0-.51-1.31,1.68,1.68,0,0,0-1.26-.52,1.76,1.76,0,0,0-1.45.68,3,3,0,0,0-.52,1.86,2.7,2.7,0,0,0,.5,1.71,1.65,1.65,0,0,0,1.35.63,1.7,1.7,0,0,0,1.36-.61,2.27,2.27,0,0,0,.53-1.54Z" transform="translate(-234.99 -457.66)"/><path class="cls-1" d="M573.51,458.63a.7.7,0,0,1,.21-.52.69.69,0,0,1,.51-.2.72.72,0,0,1,.53.2.7.7,0,0,1,.21.52.66.66,0,0,1-.21.5.72.72,0,0,1-.53.2.69.69,0,0,1-.51-.2A.66.66,0,0,1,573.51,458.63Zm.14,8.76v-6.48h1.15v6.48Z" transform="translate(-234.99 -457.66)"/><path class="cls-1" d="M580,467.33a2.21,2.21,0,0,1-1,.2c-1.16,0-1.74-.64-1.74-1.93v-3.74h-1.12v-.95h1.12v-1.56l1.14-.36v1.92H580v.95h-1.61v3.54a1.5,1.5,0,0,0,.21.91.87.87,0,0,0,.73.28,1.06,1.06,0,0,0,.67-.22Z" transform="translate(-234.99 -457.66)"/><path class="cls-1" d="M581.18,458.63a.7.7,0,0,1,.21-.52.67.67,0,0,1,.51-.2.69.69,0,0,1,.52.2.67.67,0,0,1,.22.52.63.63,0,0,1-.22.5.78.78,0,0,1-1,0A.69.69,0,0,1,581.18,458.63Zm.13,8.76v-6.48h1.15v6.48Z" transform="translate(-234.99 -457.66)"/><path class="cls-1" d="M584.08,464.22a3.52,3.52,0,0,1,.89-2.53,3.23,3.23,0,0,1,2.44-.93,3,3,0,0,1,2.28.89,4,4,0,0,1-.05,5,3.09,3.09,0,0,1-2.37.94,3,3,0,0,1-2.32-.91A3.35,3.35,0,0,1,584.08,464.22Zm1.17,0a2.57,2.57,0,0,0,.57,1.76,1.9,1.9,0,0,0,1.52.64,1.84,1.84,0,0,0,1.5-.63,2.8,2.8,0,0,0,.51-1.8,2.84,2.84,0,0,0-.51-1.82,1.84,1.84,0,0,0-1.5-.63,1.89,1.89,0,0,0-1.53.66A2.75,2.75,0,0,0,585.25,464.19Z" transform="translate(-234.99 -457.66)"/><path class="cls-1" d="M597.62,467.39h-1.14v-3.68c0-1.34-.49-2-1.46-2a1.56,1.56,0,0,0-1.24.56,2.08,2.08,0,0,0-.49,1.42v3.7h-1.15v-6.48h1.15V462h0a2.35,2.35,0,0,1,2.13-1.22,2,2,0,0,1,1.62.68,3.1,3.1,0,0,1,.56,2Z" transform="translate(-234.99 -457.66)"/><path class="cls-1" d="M604.81,464.44h-4.53a2.34,2.34,0,0,0,.57,1.61,2,2,0,0,0,1.5.56,3.22,3.22,0,0,0,2-.69v1a3.86,3.86,0,0,1-2.27.6,2.76,2.76,0,0,1-2.19-.89,3.56,3.56,0,0,1-.79-2.47,3.51,3.51,0,0,1,.87-2.45,2.73,2.73,0,0,1,2.14-1,2.49,2.49,0,0,1,2,.82,3.31,3.31,0,0,1,.71,2.28Zm-1.14-.92a2.09,2.09,0,0,0-.42-1.35,1.41,1.41,0,0,0-1.15-.49,1.6,1.6,0,0,0-1.19.51,2.44,2.44,0,0,0-.63,1.33Z" transform="translate(-234.99 -457.66)"/><path class="cls-1" d="M612,467.39h-1.15v-1.08h0a2.61,2.61,0,0,1-4.16.36,3.57,3.57,0,0,1-.73-2.37,3.83,3.83,0,0,1,.82-2.57,2.67,2.67,0,0,1,2.15-1,2.05,2.05,0,0,1,1.92,1h0v-4H612Zm-1.14-3.85a1.78,1.78,0,0,0-.52-1.31,1.68,1.68,0,0,0-1.26-.52,1.73,1.73,0,0,0-1.44.68,3,3,0,0,0-.53,1.86,2.64,2.64,0,0,0,.51,1.71,1.65,1.65,0,0,0,1.35.63,1.71,1.71,0,0,0,1.36-.61,2.32,2.32,0,0,0,.53-1.54Z" transform="translate(-234.99 -457.66)"/><path class="cls-1" d="M617.72,461.36a4.17,4.17,0,0,1,2.24-.6q2.34,0,2.34,2.46v4.17h-1.14v-1h0a2.16,2.16,0,0,1-2,1.15,2.13,2.13,0,0,1-1.5-.51,1.76,1.76,0,0,1-.56-1.37c0-1.21.72-1.92,2.15-2.12l1.92-.27c0-1.06-.44-1.59-1.31-1.59a3.31,3.31,0,0,0-2.13.79Zm1.92,3a2.05,2.05,0,0,0-1.09.4,1.07,1.07,0,0,0-.31.82,1,1,0,0,0,.33.76,1.29,1.29,0,0,0,.87.29,1.6,1.6,0,0,0,1.24-.53,1.88,1.88,0,0,0,.48-1.32v-.62Z" transform="translate(-234.99 -457.66)"/><path class="cls-1" d="M624.06,458.63a.7.7,0,0,1,.21-.52.69.69,0,0,1,.51-.2.72.72,0,0,1,.53.2.7.7,0,0,1,.21.52.66.66,0,0,1-.21.5.72.72,0,0,1-.53.2.67.67,0,0,1-.51-.2A.66.66,0,0,1,624.06,458.63Zm.14,8.76v-6.48h1.15v6.48Z" transform="translate(-234.99 -457.66)"/><path class="cls-1" d="M630.87,462.05a1.3,1.3,0,0,0-.79-.21,1.29,1.29,0,0,0-1.1.63,2.79,2.79,0,0,0-.44,1.64v3.28H627.4v-6.48h1.14v1.32h0a1.77,1.77,0,0,1,1.7-1.43,1.58,1.58,0,0,1,.6.09Z" transform="translate(-234.99 -457.66)"/><path d="M635.17,466a3.1,3.1,0,0,0,1.87.63c.89,0,1.34-.29,1.34-.88a.76.76,0,0,0-.3-.62,4.77,4.77,0,0,0-1.19-.58,3.55,3.55,0,0,1-1.4-.85,1.71,1.71,0,0,1-.32-1,1.61,1.61,0,0,1,.73-1.38,3,3,0,0,1,1.8-.52,3.86,3.86,0,0,1,1.53.29v1.1a3,3,0,0,0-1.64-.47,1.54,1.54,0,0,0-.9.24.8.8,0,0,0-.1,1.24,4.49,4.49,0,0,0,1.11.56,3.69,3.69,0,0,1,1.46.84,1.51,1.51,0,0,1,.38,1.07,1.61,1.61,0,0,1-.73,1.4,3.2,3.2,0,0,1-1.89.51,3.73,3.73,0,0,1-1.75-.38Z" transform="translate(-234.99 -457.66)"/><path d="M640.94,458.63a.7.7,0,0,1,.21-.52.69.69,0,0,1,.51-.2.72.72,0,0,1,.53.2.7.7,0,0,1,.21.52.66.66,0,0,1-.21.5.72.72,0,0,1-.53.2.69.69,0,0,1-.51-.2A.66.66,0,0,1,640.94,458.63Zm.14,8.76v-6.48h1.15v6.48Z" transform="translate(-234.99 -457.66)"/><path d="M653.61,467.39h-1.15v-3.72a2.64,2.64,0,0,0-.33-1.51,1.25,1.25,0,0,0-1.08-.45,1.33,1.33,0,0,0-1.08.59,2.24,2.24,0,0,0-.45,1.4v3.69h-1.15v-3.84c0-1.23-.48-1.84-1.43-1.84a1.31,1.31,0,0,0-1.08.56,2.28,2.28,0,0,0-.43,1.44v3.68h-1.15v-6.48h1.15v1h0a2.2,2.2,0,0,1,2-1.18,1.92,1.92,0,0,1,1.15.36,1.83,1.83,0,0,1,.69,1,2.32,2.32,0,0,1,2.16-1.32c1.42,0,2.14.88,2.14,2.64Z" transform="translate(-234.99 -457.66)"/><path d="M660.87,467.39h-1.15v-1h0a2.13,2.13,0,0,1-2,1.17c-1.54,0-2.31-.91-2.31-2.75v-3.88h1.14v3.71c0,1.32.5,2,1.51,2a1.48,1.48,0,0,0,1.21-.55,2.1,2.1,0,0,0,.47-1.4v-3.73h1.15Z" transform="translate(-234.99 -457.66)"/><path d="M662.91,467.39V457.8h1.15v9.59Z" transform="translate(-234.99 -457.66)"/><path d="M666.26,461.36a4.16,4.16,0,0,1,2.23-.6c1.57,0,2.35.82,2.35,2.46v4.17H669.7v-1h0a2.16,2.16,0,0,1-2,1.15,2.13,2.13,0,0,1-1.5-.51,1.73,1.73,0,0,1-.56-1.37c0-1.21.72-1.92,2.15-2.12l1.92-.27c0-1.06-.44-1.59-1.31-1.59a3.31,3.31,0,0,0-2.13.79Zm1.92,3a2.13,2.13,0,0,0-1.1.4,1.1,1.1,0,0,0-.3.82,1,1,0,0,0,.33.76,1.29,1.29,0,0,0,.87.29,1.56,1.56,0,0,0,1.23-.53,1.84,1.84,0,0,0,.49-1.32v-.62Z" transform="translate(-234.99 -457.66)"/><path d="M675.85,467.33a2.18,2.18,0,0,1-1,.2c-1.16,0-1.74-.64-1.74-1.93v-3.74H672v-.95h1.11v-1.56l1.14-.36v1.92h1.61v.95h-1.61v3.54a1.43,1.43,0,0,0,.22.91.83.83,0,0,0,.72.28,1,1,0,0,0,.67-.22Z" transform="translate(-234.99 -457.66)"/><path d="M682.39,464.44h-4.53a2.34,2.34,0,0,0,.57,1.61,2,2,0,0,0,1.5.56,3.24,3.24,0,0,0,2-.69v1a3.88,3.88,0,0,1-2.27.6,2.74,2.74,0,0,1-2.19-.89,4.08,4.08,0,0,1,.07-4.92,2.77,2.77,0,0,1,2.15-1,2.49,2.49,0,0,1,2,.82,3.36,3.36,0,0,1,.71,2.28Zm-1.15-.92a2,2,0,0,0-.41-1.35,1.43,1.43,0,0,0-1.16-.49,1.6,1.6,0,0,0-1.18.51,2.31,2.31,0,0,0-.63,1.33Z" transform="translate(-234.99 -457.66)"/><path d="M683.56,466a3.12,3.12,0,0,0,1.87.63c.89,0,1.34-.29,1.34-.88a.78.78,0,0,0-.29-.62,5.18,5.18,0,0,0-1.19-.58,3.4,3.4,0,0,1-1.4-.85,1.65,1.65,0,0,1-.33-1,1.61,1.61,0,0,1,.73-1.38,3,3,0,0,1,1.8-.52,4,4,0,0,1,1.54.29v1.1a3,3,0,0,0-1.65-.47,1.54,1.54,0,0,0-.9.24.75.75,0,0,0-.34.64.73.73,0,0,0,.25.6,4.19,4.19,0,0,0,1.1.56,3.69,3.69,0,0,1,1.46.84,1.52,1.52,0,0,1,.39,1.07,1.64,1.64,0,0,1-.73,1.4,3.24,3.24,0,0,1-1.89.51,3.74,3.74,0,0,1-1.76-.38Z" transform="translate(-234.99 -457.66)"/><path d="M694.87,469.45a8.1,8.1,0,0,1-2-5.52,8.42,8.42,0,0,1,2-5.61h1a8.6,8.6,0,0,0-2,5.6,8.35,8.35,0,0,0,2,5.53Z" transform="translate(-234.99 -457.66)"/><path d="M702.26,460.91l-2.57,6.48h-1.16l-2.44-6.48h1.26l1.58,4.63a4.44,4.44,0,0,1,.23.93h0a3.67,3.67,0,0,1,.2-.91l1.66-4.65Z" transform="translate(-234.99 -457.66)"/><path d="M702.19,466.79A.73.73,0,0,1,703,466a.75.75,0,0,1,.76.75.69.69,0,0,1-.22.52.72.72,0,0,1-.55.22.75.75,0,0,1-.75-.74Z" transform="translate(-234.99 -457.66)"/><path d="M704.53,469.45a8.33,8.33,0,0,0,2-5.53,8.58,8.58,0,0,0-2-5.6h1a8.33,8.33,0,0,1,2,5.61,8,8,0,0,1-2,5.52Z" transform="translate(-234.99 -457.66)"/><path d="M713.12,461.36a4.14,4.14,0,0,1,2.23-.6c1.56,0,2.35.82,2.35,2.46v4.17h-1.14v-1h0a2.16,2.16,0,0,1-2,1.15A2.13,2.13,0,0,1,713,467a1.76,1.76,0,0,1-.55-1.37c0-1.21.71-1.92,2.15-2.12l1.92-.27c0-1.06-.44-1.59-1.31-1.59a3.31,3.31,0,0,0-2.13.79Zm1.92,3a2.09,2.09,0,0,0-1.1.4,1.1,1.1,0,0,0-.3.82,1,1,0,0,0,.33.76,1.29,1.29,0,0,0,.87.29,1.56,1.56,0,0,0,1.23-.53,1.84,1.84,0,0,0,.49-1.32v-.62Z" transform="translate(-234.99 -457.66)"/><path d="M724.3,466.48v3.89h-1.15v-9.46h1.15V462h0a2.44,2.44,0,0,1,2.23-1.27,2.37,2.37,0,0,1,2,.87,3.6,3.6,0,0,1,.7,2.33,3.94,3.94,0,0,1-.8,2.6,2.61,2.61,0,0,1-2.15,1,2.17,2.17,0,0,1-1.93-1.06Zm0-1.76a1.86,1.86,0,0,0,.51,1.33,1.69,1.69,0,0,0,1.28.54,1.66,1.66,0,0,0,1.43-.7A3.26,3.26,0,0,0,728,464a2.52,2.52,0,0,0-.49-1.65,1.6,1.6,0,0,0-1.31-.59,1.79,1.79,0,0,0-1.39.6,2.19,2.19,0,0,0-.55,1.55Z" transform="translate(-234.99 -457.66)"/><path d="M734.29,462.05a1.32,1.32,0,0,0-.79-.21,1.29,1.29,0,0,0-1.1.63,2.79,2.79,0,0,0-.44,1.64v3.28h-1.15v-6.48H732v1.32h0a1.77,1.77,0,0,1,1.7-1.43,1.58,1.58,0,0,1,.6.09Z" transform="translate(-234.99 -457.66)"/><path d="M740.51,464.44H736a2.34,2.34,0,0,0,.57,1.61,2,2,0,0,0,1.5.56,3.22,3.22,0,0,0,2-.69v1a3.85,3.85,0,0,1-2.26.6,2.77,2.77,0,0,1-2.2-.89,3.61,3.61,0,0,1-.79-2.47,3.51,3.51,0,0,1,.87-2.45,2.73,2.73,0,0,1,2.14-1,2.49,2.49,0,0,1,2,.82,3.32,3.32,0,0,1,.72,2.28Zm-1.15-.92a2.09,2.09,0,0,0-.42-1.35,1.41,1.41,0,0,0-1.15-.49,1.6,1.6,0,0,0-1.19.51,2.44,2.44,0,0,0-.63,1.33Z" transform="translate(-234.99 -457.66)"/><path d="M741.67,466a3.12,3.12,0,0,0,1.87.63c.9,0,1.34-.29,1.34-.88a.75.75,0,0,0-.29-.62,5,5,0,0,0-1.19-.58,3.4,3.4,0,0,1-1.4-.85,1.71,1.71,0,0,1-.32-1,1.59,1.59,0,0,1,.73-1.38,3,3,0,0,1,1.79-.52,3.91,3.91,0,0,1,1.54.29v1.1a3,3,0,0,0-1.65-.47,1.51,1.51,0,0,0-.89.24.8.8,0,0,0-.1,1.24,4.19,4.19,0,0,0,1.1.56,3.74,3.74,0,0,1,1.47.84,1.56,1.56,0,0,1,.38,1.07,1.61,1.61,0,0,1-.73,1.4,3.24,3.24,0,0,1-1.89.51,3.77,3.77,0,0,1-1.76-.38Z" transform="translate(-234.99 -457.66)"/><path d="M747.23,466a3.1,3.1,0,0,0,1.87.63c.89,0,1.34-.29,1.34-.88a.76.76,0,0,0-.3-.62,4.84,4.84,0,0,0-1.18-.58,3.53,3.53,0,0,1-1.41-.85,1.71,1.71,0,0,1-.32-1,1.61,1.61,0,0,1,.73-1.38,3,3,0,0,1,1.8-.52,3.86,3.86,0,0,1,1.53.29v1.1a3,3,0,0,0-1.64-.47,1.54,1.54,0,0,0-.9.24.8.8,0,0,0-.1,1.24,4.49,4.49,0,0,0,1.11.56,3.69,3.69,0,0,1,1.46.84,1.51,1.51,0,0,1,.38,1.07,1.61,1.61,0,0,1-.73,1.4,3.2,3.2,0,0,1-1.89.51,3.73,3.73,0,0,1-1.75-.38Z" transform="translate(-234.99 -457.66)"/><path d="M758.49,467.39h-1.15v-1h0a2.15,2.15,0,0,1-2,1.17c-1.54,0-2.3-.91-2.3-2.75v-3.88h1.13v3.71c0,1.32.51,2,1.51,2a1.51,1.51,0,0,0,1.22-.55,2.09,2.09,0,0,0,.46-1.4v-3.73h1.15Z" transform="translate(-234.99 -457.66)"/><path d="M764,462.05a1.38,1.38,0,0,0-1.89.42,2.79,2.79,0,0,0-.43,1.64v3.28h-1.15v-6.48h1.15v1.32h0a1.78,1.78,0,0,1,1.7-1.43,1.58,1.58,0,0,1,.6.09Z" transform="translate(-234.99 -457.66)"/><path d="M770.23,464.44H765.7a2.29,2.29,0,0,0,.56,1.61,2,2,0,0,0,1.51.56,3.24,3.24,0,0,0,2-.69v1a3.88,3.88,0,0,1-2.27.6,2.74,2.74,0,0,1-2.19-.89,4.08,4.08,0,0,1,.07-4.92,2.75,2.75,0,0,1,2.15-1,2.49,2.49,0,0,1,2,.82,3.36,3.36,0,0,1,.71,2.28Zm-1.15-.92a2,2,0,0,0-.41-1.35,1.43,1.43,0,0,0-1.16-.49,1.58,1.58,0,0,0-1.18.51,2.31,2.31,0,0,0-.63,1.33Z" transform="translate(-234.99 -457.66)"/><path class="cls-2" d="M775.46,461.36a4.17,4.17,0,0,1,2.24-.6q2.34,0,2.34,2.46v4.17H778.9v-1h0a2.16,2.16,0,0,1-2,1.15,2.13,2.13,0,0,1-1.5-.51,1.76,1.76,0,0,1-.56-1.37c0-1.21.72-1.92,2.15-2.12l1.92-.27c0-1.06-.44-1.59-1.31-1.59a3.31,3.31,0,0,0-2.13.79Zm1.92,3a2.05,2.05,0,0,0-1.09.4,1.07,1.07,0,0,0-.31.82,1,1,0,0,0,.33.76,1.29,1.29,0,0,0,.87.29,1.6,1.6,0,0,0,1.24-.53,1.88,1.88,0,0,0,.48-1.32v-.62Z" transform="translate(-234.99 -457.66)"/><path class="cls-2" d="M787.45,467.39h-1.56l-2.77-3.12h0v3.12h-1.15V457.8h1.15v6.08h0l2.63-3h1.47L784.29,464Z" transform="translate(-234.99 -457.66)"/><path class="cls-2" d="M788.34,458.63a.73.73,0,0,1,.2-.52.69.69,0,0,1,.52-.2.71.71,0,0,1,.52.2.7.7,0,0,1,.21.52.66.66,0,0,1-.21.5.71.71,0,0,1-.52.2.69.69,0,0,1-.52-.2A.65.65,0,0,1,788.34,458.63Zm.13,8.76v-6.48h1.15v6.48Z" transform="translate(-234.99 -457.66)"/><path class="cls-2" d="M797.15,467.39H796v-3.68c0-1.34-.49-2-1.46-2a1.6,1.6,0,0,0-1.25.56,2.12,2.12,0,0,0-.48,1.42v3.7h-1.15v-6.48h1.15V462h0a2.35,2.35,0,0,1,2.13-1.22,2,2,0,0,1,1.62.68,3.1,3.1,0,0,1,.56,2Z" transform="translate(-234.99 -457.66)"/><path class="cls-2" d="M805.73,467.33a2.22,2.22,0,0,1-1,.2c-1.16,0-1.74-.64-1.74-1.93v-3.74h-1.11v-.95H803v-1.56l1.15-.36v1.92h1.61v.95h-1.61v3.54a1.5,1.5,0,0,0,.21.91.86.86,0,0,0,.72.28,1.07,1.07,0,0,0,.68-.22Z" transform="translate(-234.99 -457.66)"/><path class="cls-2" d="M806.55,464.22a3.48,3.48,0,0,1,.9-2.53,3.22,3.22,0,0,1,2.43-.93,3,3,0,0,1,2.29.89,3.51,3.51,0,0,1,.83,2.47,3.47,3.47,0,0,1-.89,2.48,3.09,3.09,0,0,1-2.37.94,3,3,0,0,1-2.32-.91A3.35,3.35,0,0,1,806.55,464.22Zm1.17,0a2.57,2.57,0,0,0,.57,1.76,1.91,1.91,0,0,0,1.52.64,1.82,1.82,0,0,0,1.5-.63,2.8,2.8,0,0,0,.52-1.8,2.84,2.84,0,0,0-.52-1.82,1.82,1.82,0,0,0-1.5-.63,1.92,1.92,0,0,0-1.53.66A2.75,2.75,0,0,0,807.72,464.19Z" transform="translate(-234.99 -457.66)"/><path d="M821.28,467.33a2.22,2.22,0,0,1-1,.2c-1.16,0-1.74-.64-1.74-1.93v-3.74h-1.11v-.95h1.11v-1.56l1.15-.36v1.92h1.61v.95h-1.61v3.54a1.5,1.5,0,0,0,.21.91.86.86,0,0,0,.72.28,1.07,1.07,0,0,0,.68-.22Z" transform="translate(-234.99 -457.66)"/><path d="M828.11,467.39H827v-3.72c0-1.31-.49-2-1.46-2a1.56,1.56,0,0,0-1.23.57,2.11,2.11,0,0,0-.49,1.44v3.67h-1.15V457.8h1.15V462h0a2.34,2.34,0,0,1,2.11-1.22q2.19,0,2.19,2.64Z" transform="translate(-234.99 -457.66)"/><path d="M830.18,461.36a4.14,4.14,0,0,1,2.23-.6q2.34,0,2.34,2.46v4.17h-1.13v-1h0a2.16,2.16,0,0,1-2,1.15,2.13,2.13,0,0,1-1.5-.51,1.76,1.76,0,0,1-.56-1.37c0-1.21.72-1.92,2.16-2.12l1.92-.27q0-1.59-1.32-1.59a3.3,3.3,0,0,0-2.12.79Zm1.92,3a2.09,2.09,0,0,0-1.1.4,1.1,1.1,0,0,0-.3.82,1,1,0,0,0,.33.76,1.28,1.28,0,0,0,.86.29,1.58,1.58,0,0,0,1.24-.53,1.84,1.84,0,0,0,.49-1.32v-.62Z" transform="translate(-234.99 -457.66)"/><path d="M839.77,467.33a2.21,2.21,0,0,1-1,.2c-1.16,0-1.74-.64-1.74-1.93v-3.74H835.9v-.95H837v-1.56l1.14-.36v1.92h1.61v.95h-1.61v3.54a1.43,1.43,0,0,0,.22.91.83.83,0,0,0,.72.28,1.06,1.06,0,0,0,.67-.22Z" transform="translate(-234.99 -457.66)"/><path d="M844.83,461.36a4.16,4.16,0,0,1,2.23-.6c1.57,0,2.35.82,2.35,2.46v4.17h-1.14v-1h0a2.16,2.16,0,0,1-2,1.15,2.13,2.13,0,0,1-1.5-.51,1.73,1.73,0,0,1-.56-1.37c0-1.21.72-1.92,2.15-2.12l1.92-.27c0-1.06-.44-1.59-1.31-1.59a3.31,3.31,0,0,0-2.13.79Zm1.92,3a2.05,2.05,0,0,0-1.09.4,1.07,1.07,0,0,0-.31.82,1,1,0,0,0,.33.76,1.29,1.29,0,0,0,.87.29,1.6,1.6,0,0,0,1.24-.53,1.88,1.88,0,0,0,.48-1.32v-.62Z" transform="translate(-234.99 -457.66)"/><path d="M854.42,467.33a2.18,2.18,0,0,1-1,.2c-1.16,0-1.74-.64-1.74-1.93v-3.74h-1.11v-.95h1.11v-1.56l1.14-.36v1.92h1.61v.95h-1.61v3.54a1.43,1.43,0,0,0,.22.91.83.83,0,0,0,.72.28,1,1,0,0,0,.67-.22Z" transform="translate(-234.99 -457.66)"/><path d="M858.88,464.86a2.48,2.48,0,0,1,.47-1.45,2.6,2.6,0,0,1,1.21-.94,2.61,2.61,0,0,1-.94-.86,2,2,0,0,1-.34-1.13,2.15,2.15,0,0,1,.33-1.17,2.2,2.2,0,0,1,.92-.84,2.67,2.67,0,0,1,1.29-.31,2.84,2.84,0,0,1,1.31.3,2.27,2.27,0,0,1,.92.84,2.21,2.21,0,0,1,.33,1.18,2,2,0,0,1-.34,1.13,2.58,2.58,0,0,1-.93.86,2.59,2.59,0,0,1,1.2.95,2.44,2.44,0,0,1,.46,1.44,2.6,2.6,0,0,1-.37,1.39,2.49,2.49,0,0,1-1,.95,3.44,3.44,0,0,1-1.53.34,3.39,3.39,0,0,1-1.51-.34,2.57,2.57,0,0,1-1-1A2.6,2.6,0,0,1,858.88,464.86Zm1.13-.05a1.68,1.68,0,0,0,.5,1.29,1.78,1.78,0,0,0,1.32.49,1.82,1.82,0,0,0,1.32-.5,1.71,1.71,0,0,0,.51-1.28,1.75,1.75,0,0,0-.51-1.27,2,2,0,0,0-2.63,0A1.73,1.73,0,0,0,860,464.81Zm.33-4.23a1.42,1.42,0,0,0,.43,1,1.44,1.44,0,0,0,1.06.44,1.47,1.47,0,0,0,1.06-.44,1.4,1.4,0,0,0,.45-1,1.43,1.43,0,0,0-.43-1.05,1.49,1.49,0,0,0-1.08-.42,1.45,1.45,0,0,0-1.07.42A1.41,1.41,0,0,0,860.34,460.58Z" transform="translate(-234.99 -457.66)"/><path d="M867.43,465.93l-1,3.13h-.83l.73-3.13Z" transform="translate(-234.99 -457.66)"/><path d="M868.77,463a6.75,6.75,0,0,1,.79-3.63,2.59,2.59,0,0,1,2.31-1.24c1.92,0,2.89,1.55,2.89,4.66a6.24,6.24,0,0,1-.82,3.51,2.58,2.58,0,0,1-2.27,1.21,2.41,2.41,0,0,1-2.14-1.15A6.1,6.1,0,0,1,868.77,463Zm1.17,0c0,2.41.61,3.61,1.83,3.61s1.81-1.22,1.81-3.67-.59-3.8-1.77-3.8S869.94,460.41,869.94,463Z" transform="translate(-234.99 -457.66)"/><path d="M875.8,463a6.74,6.74,0,0,1,.8-3.63,2.57,2.57,0,0,1,2.31-1.24q2.88,0,2.88,4.66a6.33,6.33,0,0,1-.81,3.51,2.58,2.58,0,0,1-2.27,1.21,2.42,2.42,0,0,1-2.15-1.15A6.19,6.19,0,0,1,875.8,463Zm1.18,0c0,2.41.61,3.61,1.83,3.61s1.81-1.22,1.81-3.67-.59-3.8-1.77-3.8S877,460.41,877,463Z" transform="translate(-234.99 -457.66)"/><path d="M882.84,463a6.74,6.74,0,0,1,.8-3.63,2.57,2.57,0,0,1,2.31-1.24q2.88,0,2.88,4.66a6.33,6.33,0,0,1-.81,3.51,2.58,2.58,0,0,1-2.28,1.21,2.42,2.42,0,0,1-2.14-1.15A6.1,6.1,0,0,1,882.84,463Zm1.17,0c0,2.41.62,3.61,1.84,3.61s1.8-1.22,1.8-3.67-.59-3.8-1.77-3.8S884,460.41,884,463Z" transform="translate(-234.99 -457.66)"/><path d="M897.24,458.78a1.47,1.47,0,0,0-.69-.17c-.72,0-1.08.44-1.08,1.33v1H897v.95h-1.52v5.53h-1.14v-5.53h-1.11v-.95h1.11v-1a2.22,2.22,0,0,1,.6-1.64,2.1,2.1,0,0,1,1.53-.59,2.31,2.31,0,0,1,.78.11Z" transform="translate(-234.99 -457.66)"/><path d="M903.36,464.44h-4.53a2.39,2.39,0,0,0,.56,1.61,2,2,0,0,0,1.51.56,3.24,3.24,0,0,0,2-.69v1a3.88,3.88,0,0,1-2.27.6,2.74,2.74,0,0,1-2.19-.89,4.08,4.08,0,0,1,.07-4.92,2.75,2.75,0,0,1,2.15-1,2.49,2.49,0,0,1,2,.82,3.36,3.36,0,0,1,.71,2.28Zm-1.15-.92a2,2,0,0,0-.41-1.35,1.43,1.43,0,0,0-1.16-.49,1.6,1.6,0,0,0-1.18.51,2.31,2.31,0,0,0-.63,1.33Z" transform="translate(-234.99 -457.66)"/><path d="M910.17,464.44h-4.54a2.34,2.34,0,0,0,.57,1.61,2,2,0,0,0,1.51.56,3.24,3.24,0,0,0,2-.69v1a3.88,3.88,0,0,1-2.27.6,2.74,2.74,0,0,1-2.19-.89,4.08,4.08,0,0,1,.07-4.92,2.75,2.75,0,0,1,2.15-1,2.49,2.49,0,0,1,2,.82,3.36,3.36,0,0,1,.71,2.28Zm-1.15-.92a2,2,0,0,0-.41-1.35,1.43,1.43,0,0,0-1.16-.49,1.62,1.62,0,0,0-1.19.51,2.44,2.44,0,0,0-.63,1.33Z" transform="translate(-234.99 -457.66)"/><path d="M914.81,467.33a2.21,2.21,0,0,1-1,.2c-1.16,0-1.74-.64-1.74-1.93v-3.74h-1.12v-.95h1.12v-1.56l1.14-.36v1.92h1.61v.95H913.2v3.54a1.43,1.43,0,0,0,.22.91.83.83,0,0,0,.72.28,1.06,1.06,0,0,0,.67-.22Z" transform="translate(-234.99 -457.66)"/><path d="M919.29,464.22a3.52,3.52,0,0,1,.89-2.53,3.23,3.23,0,0,1,2.44-.93,3,3,0,0,1,2.28.89,4,4,0,0,1,0,5,3.1,3.1,0,0,1-2.38.94,3.06,3.06,0,0,1-2.32-.91A3.38,3.38,0,0,1,919.29,464.22Zm1.17,0A2.62,2.62,0,0,0,921,466a1.93,1.93,0,0,0,1.52.64A1.82,1.82,0,0,0,924,466a2.74,2.74,0,0,0,.52-1.8,2.78,2.78,0,0,0-.52-1.82,1.82,1.82,0,0,0-1.5-.63,1.88,1.88,0,0,0-1.52.66A2.75,2.75,0,0,0,920.46,464.19Z" transform="translate(-234.99 -457.66)"/><path d="M930.44,458.78a1.54,1.54,0,0,0-.7-.17c-.72,0-1.08.44-1.08,1.33v1h1.52v.95h-1.52v5.53h-1.13v-5.53h-1.11v-.95h1.11v-1a2.22,2.22,0,0,1,.6-1.64,2.1,2.1,0,0,1,1.52-.59,2.42,2.42,0,0,1,.79.11Z" transform="translate(-234.99 -457.66)"/><path d="M935,461.36a4.14,4.14,0,0,1,2.23-.6q2.34,0,2.34,2.46v4.17h-1.13v-1h0a2.16,2.16,0,0,1-2,1.15,2.13,2.13,0,0,1-1.5-.51,1.76,1.76,0,0,1-.55-1.37c0-1.21.71-1.92,2.15-2.12l1.92-.27c0-1.06-.44-1.59-1.31-1.59a3.31,3.31,0,0,0-2.13.79Zm1.92,3a2.09,2.09,0,0,0-1.1.4,1.1,1.1,0,0,0-.3.82,1,1,0,0,0,.33.76,1.29,1.29,0,0,0,.87.29,1.56,1.56,0,0,0,1.23-.53,1.84,1.84,0,0,0,.49-1.32v-.62Z" transform="translate(-234.99 -457.66)"/><path d="M941.45,467.39V457.8h1.15v9.59Z" transform="translate(-234.99 -457.66)"/><path d="M947.76,467.33a2.18,2.18,0,0,1-1,.2c-1.16,0-1.74-.64-1.74-1.93v-3.74H943.9v-.95H945v-1.56l1.14-.36v1.92h1.61v.95h-1.61v3.54a1.43,1.43,0,0,0,.22.91.83.83,0,0,0,.72.28,1,1,0,0,0,.67-.22Z" transform="translate(-234.99 -457.66)"/><path d="M949,458.63a.7.7,0,0,1,.21-.52.69.69,0,0,1,.51-.2.73.73,0,0,1,.53.2.7.7,0,0,1,.21.52.66.66,0,0,1-.21.5.73.73,0,0,1-.53.2.67.67,0,0,1-.51-.2A.66.66,0,0,1,949,458.63Zm.14,8.76v-6.48h1.15v6.48Z" transform="translate(-234.99 -457.66)"/><path d="M955.43,467.33a2.22,2.22,0,0,1-1,.2c-1.16,0-1.74-.64-1.74-1.93v-3.74h-1.11v-.95h1.11v-1.56l1.15-.36v1.92h1.61v.95h-1.61v3.54a1.5,1.5,0,0,0,.21.91.86.86,0,0,0,.72.28,1.07,1.07,0,0,0,.68-.22Z" transform="translate(-234.99 -457.66)"/><path d="M962.14,467.39H961v-1h0a2.14,2.14,0,0,1-2,1.17c-1.53,0-2.3-.91-2.3-2.75v-3.88h1.13v3.71c0,1.32.51,2,1.52,2a1.5,1.5,0,0,0,1.21-.55,2.09,2.09,0,0,0,.46-1.4v-3.73h1.16Z" transform="translate(-234.99 -457.66)"/><path d="M969.81,467.39h-1.15v-1.08h0a2.36,2.36,0,0,1-2.2,1.23,2.43,2.43,0,0,1-2-.87,3.62,3.62,0,0,1-.72-2.37,3.83,3.83,0,0,1,.82-2.57,2.66,2.66,0,0,1,2.14-1,2,2,0,0,1,1.92,1h0v-4h1.15Zm-1.15-3.85a1.81,1.81,0,0,0-.51-1.31,1.68,1.68,0,0,0-1.26-.52,1.73,1.73,0,0,0-1.44.68,3,3,0,0,0-.53,1.86,2.64,2.64,0,0,0,.51,1.71,1.62,1.62,0,0,0,1.35.63,1.71,1.71,0,0,0,1.36-.61,2.32,2.32,0,0,0,.52-1.54Z" transform="translate(-234.99 -457.66)"/><path d="M977.14,464.44H972.6a2.34,2.34,0,0,0,.57,1.61,2,2,0,0,0,1.51.56,3.21,3.21,0,0,0,2-.69v1a3.85,3.85,0,0,1-2.26.6,2.77,2.77,0,0,1-2.2-.89,3.61,3.61,0,0,1-.79-2.47,3.51,3.51,0,0,1,.87-2.45,2.74,2.74,0,0,1,2.15-1,2.47,2.47,0,0,1,2,.82,3.32,3.32,0,0,1,.72,2.28Zm-1.15-.92a2,2,0,0,0-.42-1.35,1.41,1.41,0,0,0-1.15-.49,1.62,1.62,0,0,0-1.19.51,2.44,2.44,0,0,0-.63,1.33Z" transform="translate(-234.99 -457.66)"/><path d="M978.34,466.79a.72.72,0,0,1,.75-.75.75.75,0,0,1,.77.75.73.73,0,0,1-.22.52.74.74,0,0,1-.55.22.7.7,0,0,1-.54-.22A.72.72,0,0,1,978.34,466.79Z" transform="translate(-234.99 -457.66)"/><line class="cls-3" x1="75.34" y1="14.67" x2="253.34" y2="14.67"/><line class="cls-3" x1="539.67" y1="14.67" x2="739.01" y2="14.67"/><path class="cls-3" d="M808,480.33c-6.25,13.93-21,21.84-35.33,19.34A32.56,32.56,0,0,1,748.48,480" transform="translate(-234.99 -457.66)"/><polygon class="cls-4" points="517.98 23.81 513.97 23.5 510.96 26.18 511.67 16.67 517.98 23.81"/><path d="M768.46,511.39a18.47,18.47,0,0,1-.33,4.35,9.27,9.27,0,0,1-1.39,2.85,7.5,7.5,0,0,0-.65-.82,7.07,7.07,0,0,0,1.13-2.38,15,15,0,0,0,.29-3.38v-3.95a85.07,85.07,0,0,0,9-.7l.56,1q-4.85.5-8.66.64v1.54h9.28v.88Zm1.08,1.89h7.12v5.27h-.93v-.79h-5.25v.79h-.94Zm6.19.85h-5.25v2.79h5.25Z" transform="translate(-234.99 -457.66)"/><path d="M778.15,517.72a7,7,0,0,0,2.25-4.92l1,.15a13.07,13.07,0,0,1-.43,2,3.58,3.58,0,0,0,2.82,2.22V512h-5.36v-.88h11.14V512h-4.81v1.9h4.08v.86h-4.08v2.46c1.56,0,3.25,0,5.07,0a8.48,8.48,0,0,0-.34,1c-1.91,0-3.58,0-5,0a4.18,4.18,0,0,1-3.89-2.14,7.54,7.54,0,0,1-1.81,2.62A9.2,9.2,0,0,0,778.15,517.72Zm.69-9.28h5c-.23-.34-.47-.66-.73-1L784,507c.31.36.64.75,1,1.19l-.53.28h4.75v2.23h-.93v-1.35h-8.52v1.33h-.93Z" transform="translate(-234.99 -457.66)"/><path d="M271.1,487.79c0,.4,0,.74.08,1a25.61,25.61,0,0,0-2.18,1.56l-.55-.78a1.23,1.23,0,0,0,.4-1.06v-4.6h-1.33v-.85h2.22v5.66C270.1,488.49,270.56,488.18,271.1,487.79Zm-2.42-8.57c.85.88,1.47,1.52,1.85,1.95l-.78.68a23,23,0,0,0-1.75-2Zm2.5,4.88v-4.62h7.39v4.62h-.85v-.38H272v.38Zm1.32,6.38h-.88v-5.94h6.57v4.57a1.12,1.12,0,0,1-1.24,1.28h-1.84c0-.25-.09-.55-.16-.9.7,0,1.28.07,1.76.07s.6-.19.6-.58v-.56H272.5ZM272,480.23v1h2.42v-1Zm0,2.74h2.42v-1H272Zm5.28,2.32H272.5v.83h4.81Zm-4.81,2.4h4.81v-.84H272.5Zm5.22-7.46H275.3v1h2.42ZM275.3,483h2.42v-1H275.3Z" transform="translate(-234.99 -457.66)"/><path d="M667.1,487.79c0,.4,0,.74.08,1a25.61,25.61,0,0,0-2.18,1.56l-.55-.78a1.23,1.23,0,0,0,.4-1.06v-4.6h-1.33v-.85h2.22v5.66C666.1,488.49,666.56,488.18,667.1,487.79Zm-2.42-8.57c.85.88,1.47,1.52,1.85,1.95l-.78.68a23,23,0,0,0-1.75-2Zm2.5,4.88v-4.62h7.39v4.62h-.85v-.38H668v.38Zm1.32,6.38h-.88v-5.94h6.57v4.57a1.12,1.12,0,0,1-1.24,1.28h-1.84c0-.25-.09-.55-.16-.9.7,0,1.28.07,1.76.07s.6-.19.6-.58v-.56H668.5ZM668,480.23v1h2.42v-1Zm0,2.74h2.42v-1H668Zm5.28,2.32H668.5v.83h4.81Zm-4.81,2.4h4.81v-.84H668.5Zm5.22-7.46H671.3v1h2.42ZM671.3,483h2.42v-1H671.3Z" transform="translate(-234.99 -457.66)"/><path d="M387.53,487h2.21v-4.74a58.73,58.73,0,0,0,7.13-.5l.32.9q-2.64.27-6.54.42v1.21h7.72v.82h-2.76V487h3.56v.84H387.53Zm4.06,1,.55.77c-1.2.62-2.51,1.22-3.94,1.79-.13-.25-.29-.52-.47-.83A35.25,35.25,0,0,0,391.59,488.07ZM388,480.32h5.09q-.27-.54-.57-1.05l.82-.37c.27.45.53.92.8,1.42h4.52v2.21h-.89v-1.39h-8.88v1.39H388Zm2.61,6.71h4.07v-1.89h-4.07Zm3.73,1.84.43-.77c1.58.57,2.95,1.11,4.1,1.6l-.51.91C397,490,395.69,489.37,394.38,488.87Z" transform="translate(-234.99 -457.66)"/><path d="M583,489h5.21v-3.37h-4.29v-.89h4.29V482h-4.74v-.89h10.45V482h-4.7v2.68h4.29v.89h-4.29V489h5.22v.87H583Zm4.77-9.56.86-.45c.48.72.83,1.27,1,1.66l-.93.49C588.27,480.34,587.94,479.77,587.72,479.42Z" transform="translate(-234.99 -457.66)"/></svg>