<svg id="SvgjsSvg1001" xmlns="http://www.w3.org/2000/svg" viewBox="0 0 1356 272"><defs><style>.cls-1,.cls-2,.cls-3,.cls-5{fill:none;}.cls-2,.cls-3,.cls-5{stroke:#333;}.cls-2,.cls-3{stroke-linecap:round;}.cls-2,.cls-5{stroke-width:3px;}.cls-4{fill:#f6212d;}.cls-4,.cls-8{fill-opacity:0;}.cls-10,.cls-6,.cls-7,.cls-9{isolation:isolate;}.cls-7{font-size:28px;}.cls-10,.cls-7,.cls-9{fill:#333;font-family:AdobeSongStd-Light-GBpc-EUC-H, Adobe Song Std;}.cls-9{font-size:18px;}.cls-10{font-size:14px;}.cls-11{opacity:0.5;}</style></defs><title>0120</title><path class="cls-1" transform="translate(-50 -50)"/><g id="SvgjsG1007"><g id="SvgjsG1009"><g id="SvgjsG1011"><path id="SvgjsPath5836" class="cls-2" d="M347,164.5h13V95q0-8,8-8h30" transform="translate(-50 -50)"/><path id="SvgjsPath5859" class="cls-2" d="M347,164.5h13V234q0,8,8,8h30" transform="translate(-50 -50)"/><path id="SvgjsPath6029" class="cls-3" d="M475,242h53" transform="translate(-50 -50)"/><path id="SvgjsPath6040" class="cls-3" d="M832,242h13q8-56,40-56" transform="translate(-50 -50)"/><path id="SvgjsPath6051" class="cls-3" d="M994,186h53" transform="translate(-50 -50)"/><path id="SvgjsPath6082" class="cls-3" d="M832,242h53" transform="translate(-50 -50)"/><path id="SvgjsPath6093" class="cls-3" d="M1066,242h53" transform="translate(-50 -50)"/><path id="SvgjsPath6124" class="cls-3" d="M832,242h13q8,56,40,56" transform="translate(-50 -50)"/><path id="SvgjsPath6135" class="cls-3" d="M1022,298h53" transform="translate(-50 -50)"/></g><g id="SvgjsG1013"><g id="SvgjsG1029"><g id="SvgjsG1019"><g id="SvgjsG1020"><path id="SvgjsPath1021" class="cls-4" d="M59.5,111H339q8,0,8,8v92.5q0,8-8,8H59.5q-8,0-8-8V119q0-8,8-8" transform="translate(-50 -50)"/><path id="SvgjsPath1022" class="cls-5" d="M59.5,111H339q8,0,8,8v92.5q0,8-8,8H59.5q-8,0-8-8V119q0-8,8-8" transform="translate(-50 -50)"/><g id="SvgjsG1023"><g id="SvgjsG1024"><g id="SvgjsG1094"><g id="SvgjsText1093" class="cls-6"><text class="cls-7" transform="translate(23.62 105.5)">transplant of an </text><text class="cls-7" transform="translate(69.75 142.5)">entire eye</text></g></g></g></g></g></g></g><g id="SvgjsG5838"><g id="SvgjsG5828"><g id="SvgjsG5829"><path id="SvgjsPath5830" class="cls-8" d="M406.5,51.5H649q8,0,8,8V116q0,8-8,8H406.5q-8,0-8-8V59.5q0-8,8-8" transform="translate(-50 -50)"/><path id="SvgjsPath5831" class="cls-5" d="M406.5,51.5H649q8,0,8,8V116q0,8-8,8H406.5q-8,0-8-8V59.5q0-8,8-8" transform="translate(-50 -50)"/><g id="SvgjsG5832"><g id="SvgjsG5833"><g id="SvgjsG5840"><g id="SvgjsText5839" class="cls-6"><text class="cls-9" transform="translate(368 31)">the corneal 角膜的 nerve </text><text class="cls-9" transform="translate(368 55)">must be reconnected.</text></g></g></g></g></g></g></g><g id="SvgjsG5861"><rect id="SvgjsRect5975" class="cls-8" x="425" y="167" width="52" height="50"/><g id="SvgjsG5851"><g id="SvgjsG5852"><path id="SvgjsPath5853" class="cls-8" d="M406.5,218.5H467q8,0,8,8V259q0,8-8,8H406.5q-8,0-8-8V226.5q0-8,8-8" transform="translate(-50 -50)"/><path id="SvgjsPath5854" class="cls-5" d="M406.5,218.5H467q8,0,8,8V259q0,8-8,8H406.5q-8,0-8-8V226.5q0-8,8-8" transform="translate(-50 -50)"/><g id="SvgjsG5855"><g id="SvgjsG5856"><g id="SvgjsG5863"><g id="SvgjsText5862" class="cls-6"><text class="cls-9" transform="translate(368 198)">难点</text></g></g></g></g></g></g></g><g id="SvgjsG6031"><rect id="SvgjsRect6219" class="cls-8" x="782" y="168" width="52" height="48"/><g id="SvgjsG6021"><g id="SvgjsG6022"><path id="SvgjsPath6023" class="cls-8" d="M535,218H824q8,0,8,8v32q0,8-8,8H535q-8,0-8-8V226q0-8,8-8" transform="translate(-50 -50)"/><path id="SvgjsPath6024" class="cls-1" d="M535,218H824q8,0,8,8v32q0,8-8,8H535q-8,0-8-8V226q0-8,8-8" transform="translate(-50 -50)"/><g id="SvgjsG6025"><g id="SvgjsG6026"><g id="SvgjsG6159"><g id="SvgjsText6158" class="cls-6"><text class="cls-10" transform="translate(483 188)">regeneration 再生，重生；重建 of the optic </text><text class="cls-10" transform="translate(483 206)">眼的；视觉的 nerve</text></g></g></g></g></g></g></g><g id="SvgjsG6042"><rect id="SvgjsRect6180" class="cls-8" x="944" y="121" width="52" height="30"/><g id="SvgjsG6032"><g id="SvgjsG6033"><path id="SvgjsPath6034" class="cls-8" d="M892,171h94q8,0,8,8v14q0,8-8,8H892q-8,0-8-8V179q0-8,8-8" transform="translate(-50 -50)"/><path id="SvgjsPath6035" class="cls-1" d="M892,171h94q8,0,8,8v14q0,8-8,8H892q-8,0-8-8V179q0-8,8-8" transform="translate(-50 -50)"/><g id="SvgjsG6036"><g id="SvgjsG6037"><g id="SvgjsG6065"><g id="SvgjsText6064" class="cls-6"><text class="cls-10" transform="translate(840 141)">视觉神经的作用</text></g></g></g></g></g></g></g><g id="SvgjsG6053"><g id="SvgjsG6043"><g id="SvgjsG6044"><path id="SvgjsPath6045" class="cls-8" d="M1054,162h291q8,0,8,8v32q0,8-8,8H1054q-8,0-8-8V170q0-8,8-8" transform="translate(-50 -50)"/><path id="SvgjsPath6046" class="cls-1" d="M1054,162h291q8,0,8,8v32q0,8-8,8H1054q-8,0-8-8V170q0-8,8-8" transform="translate(-50 -50)"/><g id="SvgjsG6047"><g id="SvgjsG6048"><g id="SvgjsG6055"><g id="SvgjsText6054" class="cls-6"><text class="cls-10" transform="translate(1002 132)">which carries visual signals from the retina </text><text class="cls-10" transform="translate(1002 150)">视网膜 to the brain</text></g></g></g></g></g></g></g><g id="SvgjsG6084"><rect id="SvgjsRect6193" class="cls-8" x="1016" y="177" width="52" height="30"/><g id="SvgjsG6074"><g id="SvgjsG6075"><path id="SvgjsPath6076" class="cls-8" d="M892,227h166q8,0,8,8v14q0,8-8,8H892q-8,0-8-8V235q0-8,8-8" transform="translate(-50 -50)"/><path id="SvgjsPath6077" class="cls-1" d="M892,227h166q8,0,8,8v14q0,8-8,8H892q-8,0-8-8V235q0-8,8-8" transform="translate(-50 -50)"/><g id="SvgjsG6078"><g id="SvgjsG6079"><g id="SvgjsG6107"><g id="SvgjsText6106" class="cls-6"><text class="cls-10" transform="translate(840 197)">如何实现&quot;视觉神经&quot;的再生?</text></g></g></g></g></g></g></g><g id="SvgjsG6095"><g id="SvgjsG6085"><g id="SvgjsG6086"><path id="SvgjsPath6087" class="cls-8" d="M1126,218h272q8,0,8,8v32q0,8-8,8H1126q-8,0-8-8V226q0-8,8-8" transform="translate(-50 -50)"/><path id="SvgjsPath6088" class="cls-1" d="M1126,218h272q8,0,8,8v32q0,8-8,8H1126q-8,0-8-8V226q0-8,8-8" transform="translate(-50 -50)"/><g id="SvgjsG6089"><g id="SvgjsG6090"><g id="SvgjsG6097"><g id="SvgjsText6096" class="cls-6"><text class="cls-10" transform="translate(1074 188)">to coax (v.)哄劝；劝诱 the nerve fibers to </text><text class="cls-10" transform="translate(1074 206)">grow to the right place</text></g></g></g></g></g></g></g><g id="SvgjsG6126"><rect id="SvgjsRect6206" class="cls-8" x="972" y="233" width="52" height="30"/><g id="SvgjsG6116"><g id="SvgjsG6117"><path id="SvgjsPath6118" class="cls-8" d="M892,283h122q8,0,8,8v14q0,8-8,8H892q-8,0-8-8V291q0-8,8-8" transform="translate(-50 -50)"/><path id="SvgjsPath6119" class="cls-1" d="M892,283h122q8,0,8,8v14q0,8-8,8H892q-8,0-8-8V291q0-8,8-8" transform="translate(-50 -50)"/><g id="SvgjsG6120"><g id="SvgjsG6121"><g id="SvgjsG6149"><g id="SvgjsText6148" class="cls-6"><text class="cls-10" transform="translate(840 253)">后续的要解决的问题</text></g></g></g></g></g></g></g><g id="SvgjsG6137"><g id="SvgjsG6127"><g id="SvgjsG6128"><path id="SvgjsPath6129" class="cls-8" d="M1082,274h292q8,0,8,8v32q0,8-8,8H1082q-8,0-8-8V282q0-8,8-8" transform="translate(-50 -50)"/><path id="SvgjsPath6130" class="cls-1" d="M1082,274h292q8,0,8,8v32q0,8-8,8H1082q-8,0-8-8V282q0-8,8-8" transform="translate(-50 -50)"/><g id="SvgjsG6131"><g id="SvgjsG6132"><g id="SvgjsG6139"><g id="SvgjsText6138" class="cls-6"><text class="cls-10" transform="translate(1030 244)">whether the brain will be able to interpret (</text><text class="cls-10" transform="translate(1030 262)">v.) the signals from the transplanted eye.</text></g></g></g></g></g></g></g></g></g></g><path class="cls-1" transform="translate(-50 -50)"/></svg>