<svg id="SvgjsSvg1001" xmlns="http://www.w3.org/2000/svg" xmlns:xlink="http://www.w3.org/1999/xlink" viewBox="0 0 1688 451"><defs><style>.cls-1,.cls-2,.cls-4,.cls-5,.cls-7{fill:none;}.cls-11,.cls-13,.cls-15,.cls-2,.cls-8{isolation:isolate;}.cls-3{clip-path:url(#clip-path);}.cls-4,.cls-5,.cls-7{stroke:#333;}.cls-4,.cls-5{stroke-linecap:round;}.cls-4,.cls-7{stroke-width:3px;}.cls-6{fill:#f6212d;}.cls-10,.cls-12,.cls-6,.cls-9{fill-opacity:0;}.cls-8{font-size:28px;}.cls-11,.cls-13,.cls-15,.cls-8{fill:#333;}.cls-11,.cls-13,.cls-8{font-family:AdobeSongStd-Light-GBpc-EUC-H, Adobe Song Std;}.cls-10{fill:#e8e8e8;}.cls-11{font-size:18px;}.cls-12{fill:#f8f7f7;}.cls-13{font-size:14px;}.cls-14{opacity:0.5;}</style><clipPath id="clip-path" transform="translate(-50 -50)"><path class="cls-1" d="M59.5,230.25H189c5.3,0,8,2.7,8,8v55.5c0,5.3-2.7,8-8,8H59.5c-5.3,0-8-2.7-8-8v-55.5c0-5.3,2.7-8,8-8m-9936-9965h20000v20000h-20000"/></clipPath></defs><title>0123</title><path class="cls-2" d="M0,0" transform="translate(-50 -50)"/><g id="SvgjsG1007"><g id="SvgjsG1009"><g id="SvgjsG1011"><g class="cls-3"><path id="SvgjsPath1038" class="cls-4" d="M197,265.25h13v-129c0-5.3,2.7-8,8-8h30" transform="translate(-50 -50)"/></g><g class="cls-3"><path id="SvgjsPath1059" class="cls-4" d="M197,265.25h13v129c0,5.3,2.7,8,8,8h30" transform="translate(-50 -50)"/></g><path id="SvgjsPath1167" class="cls-5" d="M410,128.25h53" transform="translate(-50 -50)"/><path id="SvgjsPath1439" class="cls-5" d="M614,128.25h13c5.3-26.5,18.7-39.8,40-39.8" transform="translate(-50 -50)"/><path id="SvgjsPath1611" class="cls-5" d="M815,88.55h13c5.3,15.7,18.7,23.5,40,23.5" transform="translate(-50 -50)"/><path id="SvgjsPath1632" class="cls-5" d="M815,88.55h13c5.3-15.7,18.7-23.5,40-23.5" transform="translate(-50 -50)"/><path id="SvgjsPath1643" class="cls-5" d="M907,65.05h53" transform="translate(-50 -50)"/><path id="SvgjsPath1886" class="cls-5" d="M907,112.05h53" transform="translate(-50 -50)"/><path id="SvgjsPath1910" class="cls-5" d="M1239,112.05h53" transform="translate(-50 -50)"/><path id="SvgjsPath2018" class="cls-5" d="M614,128.25h13c5.3,26.5,18.7,39.8,40,39.8" transform="translate(-50 -50)"/><path id="SvgjsPath2166" class="cls-5" d="M803,168.05h53" transform="translate(-50 -50)"/><path id="SvgjsPath2271" class="cls-5" d="M895,168.05h53" transform="translate(-50 -50)"/><path id="SvgjsPath2294" class="cls-5" d="M1166,168.05h53" transform="translate(-50 -50)"/><path id="SvgjsPath2409" class="cls-5" d="M330,402.25h13q8-83.7,40-83.8" transform="translate(-50 -50)"/><path id="SvgjsPath2499" class="cls-5" d="M330,402.25h13q8,83.7,40,83.8" transform="translate(-50 -50)"/><path id="SvgjsPath3151" class="cls-5" d="M637,318.55h13c5.3-43,18.7-64.5,40-64.5" transform="translate(-50 -50)"/><path id="SvgjsPath3162" class="cls-5" d="M729,254.05h53" transform="translate(-50 -50)"/><path id="SvgjsPath3209" class="cls-5" d="M637,318.55h13c5.3,43,18.7,64.5,40,64.5" transform="translate(-50 -50)"/><path id="SvgjsPath3255" class="cls-5" d="M729,383.05h13c5.3-30.7,18.7-46,40-46" transform="translate(-50 -50)"/><path id="SvgjsPath3338" class="cls-5" d="M729,383.05h13c5.3,30.7,18.7,46,40,46" transform="translate(-50 -50)"/><path id="SvgjsPath3390" class="cls-5" d="M1083,337.05h53" transform="translate(-50 -50)"/><path id="SvgjsPath3832" class="cls-5" d="M1441,337.05h53" transform="translate(-50 -50)"/></g><g id="SvgjsG1013"><g id="SvgjsG1029"><g id="SvgjsG1019"><g id="SvgjsG1020"><path id="SvgjsPath1021" class="cls-6" d="M59.5,230.25H189c5.3,0,8,2.7,8,8v55.5c0,5.3-2.7,8-8,8H59.5c-5.3,0-8-2.7-8-8v-55.5c0-5.3,2.7-8,8-8" transform="translate(-50 -50)"/><path id="SvgjsPath1022" class="cls-7" d="M59.5,230.25H189c5.3,0,8,2.7,8,8v55.5c0,5.3-2.7,8-8,8H59.5c-5.3,0-8-2.7-8-8v-55.5c0-5.3,2.7-8,8-8" transform="translate(-50 -50)"/><g id="SvgjsG1023"><g id="SvgjsG1024"><g id="SvgjsG1094"><text class="cls-8" transform="translate(26.78 224.75)">heart</text></g></g></g></g></g></g><g id="SvgjsG1040"><rect id="SvgjsRect1192" class="cls-9" x="360" y="53.25" width="52" height="50"/><g id="SvgjsG1030"><g id="SvgjsG1031"><path id="SvgjsPath1032" class="cls-10" d="M256.5,104.75H402c5.3,0,8,2.7,8,8v32.5c0,5.3-2.7,8-8,8H256.5c-5.3,0-8-2.7-8-8v-32.5c0-5.3,2.7-8,8-8" transform="translate(-50 -50)"/><path id="SvgjsPath1033" class="cls-7" d="M256.5,104.75H402c5.3,0,8,2.7,8,8v32.5c0,5.3-2.7,8-8,8H256.5c-5.3,0-8-2.7-8-8v-32.5c0-5.3,2.7-8,8-8" transform="translate(-50 -50)"/><g id="SvgjsG1034"><g id="SvgjsG1035"><g id="SvgjsG1042"><text class="cls-11" transform="translate(218 84.25)"><tspan xml:space="preserve"> cold weather</tspan></text></g></g></g></g></g></g><g id="SvgjsG1061"><rect id="SvgjsRect2434" class="cls-9" x="280" y="327.25" width="52" height="50"/><g id="SvgjsG1051"><g id="SvgjsG1052"><path id="SvgjsPath1053" class="cls-10" d="M256.5,378.75H322c5.3,0,8,2.7,8,8v32.5c0,5.3-2.7,8-8,8H256.5c-5.3,0-8-2.7-8-8v-32.5c0-5.3,2.7-8,8-8" transform="translate(-50 -50)"/><path id="SvgjsPath1054" class="cls-7" d="M256.5,378.75H322c5.3,0,8,2.7,8,8v32.5c0,5.3-2.7,8-8,8H256.5c-5.3,0-8-2.7-8-8v-32.5c0-5.3,2.7-8,8-8" transform="translate(-50 -50)"/><g id="SvgjsG1055"><g id="SvgjsG1056"><g id="SvgjsG1063"><text class="cls-11" transform="translate(218 358.25)">heat</text></g></g></g></g></g></g><g id="SvgjsG1169"><rect id="SvgjsRect1300" class="cls-9" x="564" y="54.25" width="52" height="48"/><g id="SvgjsG1159"><g id="SvgjsG1160"><path id="SvgjsPath1161" class="cls-12" d="M470,104.25H606c5.3,0,8,2.7,8,8v32c0,5.3-2.7,8-8,8H470c-5.3,0-8-2.7-8-8v-32c0-5.3,2.7-8,8-8" transform="translate(-50 -50)"/><path id="SvgjsPath1162" class="cls-1" d="M470,104.25H606c5.3,0,8,2.7,8,8v32c0,5.3-2.7,8-8,8H470c-5.3,0-8-2.7-8-8v-32c0-5.3,2.7-8,8-8" transform="translate(-50 -50)"/><g id="SvgjsG1163"><g id="SvgjsG1164"><g id="SvgjsG1171"><text class="cls-13" transform="translate(418 74.25)">vasoconstriction</text><text class="cls-13" transform="translate(418 92.25)">血管收缩（血压增高）</text></g></g></g></g></g></g><g id="SvgjsG1441"><rect id="SvgjsRect1601" class="cls-9" x="765" y="23.5" width="52" height="30"/><g id="SvgjsG1431"><g id="SvgjsG1432"><path id="SvgjsPath1433" class="cls-12" d="M674,73.5H807c5.3,0,8,2.7,8,8v14c0,5.3-2.7,8-8,8H674c-5.3,0-8-2.7-8-8v-14c0-5.3,2.7-8,8-8" transform="translate(-50 -50)"/><path id="SvgjsPath1434" class="cls-1" d="M674,73.5H807c5.3,0,8,2.7,8,8v14c0,5.3-2.7,8-8,8H674c-5.3,0-8-2.7-8-8v-14c0-5.3,2.7-8,8-8" transform="translate(-50 -50)"/><g id="SvgjsG1435"><g id="SvgjsG1436"><g id="SvgjsG1443"><text class="cls-13" transform="translate(622 43.5)">reduced blood flow</text></g></g></g></g></g></g><g id="SvgjsG1613"><rect id="SvgjsRect1876" class="cls-9" x="857" y="47" width="52" height="30"/><g id="SvgjsG1603"><g id="SvgjsG1604"><path id="SvgjsPath1605" class="cls-12" d="M875,97h24c5.3,0,8,2.7,8,8v14c0,5.3-2.7,8-8,8H875c-5.3,0-8-2.7-8-8V105c0-5.3,2.7-8,8-8" transform="translate(-50 -50)"/><path id="SvgjsPath1606" class="cls-1" d="M875,97h24c5.3,0,8,2.7,8,8v14c0,5.3-2.7,8-8,8H875c-5.3,0-8-2.7-8-8V105c0-5.3,2.7-8,8-8" transform="translate(-50 -50)"/><g id="SvgjsG1607"><g id="SvgjsG1608"><g id="SvgjsG1615"><text class="cls-13" transform="translate(823 67)">坏处</text></g></g></g></g></g></g><g id="SvgjsG1634"><rect id="SvgjsRect1678" class="cls-9" x="857" width="52" height="30"/><g id="SvgjsG1624"><g id="SvgjsG1625"><path id="SvgjsPath1626" class="cls-12" d="M875,50h24c5.3,0,8,2.7,8,8V72c0,5.3-2.7,8-8,8H875c-5.3,0-8-2.7-8-8V58c0-5.3,2.7-8,8-8" transform="translate(-50 -50)"/><path id="SvgjsPath1627" class="cls-1" d="M875,50h24c5.3,0,8,2.7,8,8V72c0,5.3-2.7,8-8,8H875c-5.3,0-8-2.7-8-8V58c0-5.3,2.7-8,8-8" transform="translate(-50 -50)"/><g id="SvgjsG1628"><g id="SvgjsG1629"><g id="SvgjsG1657"><text class="cls-13" transform="translate(823 20)">好处</text></g></g></g></g></g></g><g id="SvgjsG1645"><g id="SvgjsG1635"><g id="SvgjsG1636"><path id="SvgjsPath1637" class="cls-12" d="M967,50h155c5.3,0,8,2.7,8,8V72c0,5.3-2.7,8-8,8H967c-5.3,0-8-2.7-8-8V58c0-5.3,2.7-8,8-8" transform="translate(-50 -50)"/><path id="SvgjsPath1638" class="cls-1" d="M967,50h155c5.3,0,8,2.7,8,8V72c0,5.3-2.7,8-8,8H967c-5.3,0-8-2.7-8-8V58c0-5.3,2.7-8,8-8" transform="translate(-50 -50)"/><g id="SvgjsG1639"><g id="SvgjsG1640"><g id="SvgjsG1647"><text class="cls-13" transform="translate(915 20)">to prevent heat loss (n.)</text></g></g></g></g></g></g><g id="SvgjsG1888"><rect id="SvgjsRect1935" class="cls-9" x="1189" y="38" width="52" height="48"/><g id="SvgjsG1878"><g id="SvgjsG1879"><path id="SvgjsPath1880" class="cls-12" d="M967,88h264c5.3,0,8,2.7,8,8v32c0,5.3-2.7,8-8,8H967c-5.3,0-8-2.7-8-8V96c0-5.3,2.7-8,8-8" transform="translate(-50 -50)"/><path id="SvgjsPath1881" class="cls-1" d="M967,88h264c5.3,0,8,2.7,8,8v32c0,5.3-2.7,8-8,8H967c-5.3,0-8-2.7-8-8V96c0-5.3,2.7-8,8-8" transform="translate(-50 -50)"/><g id="SvgjsG1882"><g id="SvgjsG1883"><g id="SvgjsG1890"><text class="cls-13" transform="translate(915 58)">increase (v.) one’s heart rate and blood </text><text class="cls-13" transform="translate(915 76)">pressure</text></g></g></g></g></g></g><g id="SvgjsG1912"><g id="SvgjsG1902"><g id="SvgjsG1903"><path id="SvgjsPath1904" class="cls-12" d="M1299,97h145c5.3,0,8,2.7,8,8v14c0,5.3-2.7,8-8,8H1299c-5.3,0-8-2.7-8-8V105c0-5.3,2.7-8,8-8" transform="translate(-50 -50)"/><path id="SvgjsPath1905" class="cls-1" d="M1299,97h145c5.3,0,8,2.7,8,8v14c0,5.3-2.7,8-8,8H1299c-5.3,0-8-2.7-8-8V105c0-5.3,2.7-8,8-8" transform="translate(-50 -50)"/><g id="SvgjsG1906"><g id="SvgjsG1907"><g id="SvgjsG1914"><text class="cls-13" transform="translate(1247 67)">result in heart attacks</text></g></g></g></g></g></g><g id="SvgjsG2020"><rect id="SvgjsRect2134" class="cls-9" x="753" y="103" width="52" height="30"/><g id="SvgjsG2010"><g id="SvgjsG2011"><path id="SvgjsPath2012" class="cls-12" d="M674,153H795c5.3,0,8,2.7,8,8v14c0,5.3-2.7,8-8,8H674c-5.3,0-8-2.7-8-8V161c0-5.3,2.7-8,8-8" transform="translate(-50 -50)"/><path id="SvgjsPath2013" class="cls-1" d="M674,153H795c5.3,0,8,2.7,8,8v14c0,5.3-2.7,8-8,8H674c-5.3,0-8-2.7-8-8V161c0-5.3,2.7-8,8-8" transform="translate(-50 -50)"/><g id="SvgjsG2014"><g id="SvgjsG2015"><g id="SvgjsG2022"><text class="cls-13" transform="translate(622 123)">blood thickens (v.)</text></g></g></g></g></g></g><g id="SvgjsG2168"><rect id="SvgjsRect2261" class="cls-9" x="845" y="103" width="52" height="30"/><g id="SvgjsG2158"><g id="SvgjsG2159"><path id="SvgjsPath2160" class="cls-12" d="M863,153h24c5.3,0,8,2.7,8,8v14c0,5.3-2.7,8-8,8H863c-5.3,0-8-2.7-8-8V161c0-5.3,2.7-8,8-8" transform="translate(-50 -50)"/><path id="SvgjsPath2161" class="cls-1" d="M863,153h24c5.3,0,8,2.7,8,8v14c0,5.3-2.7,8-8,8H863c-5.3,0-8-2.7-8-8V161c0-5.3,2.7-8,8-8" transform="translate(-50 -50)"/><g id="SvgjsG2162"><g id="SvgjsG2163"><g id="SvgjsG2170"><text class="cls-13" transform="translate(811 123)">坏处</text></g></g></g></g></g></g><g id="SvgjsG2273"><rect id="SvgjsRect2319" class="cls-9" x="1116" y="103" width="52" height="30"/><g id="SvgjsG2263"><g id="SvgjsG2264"><path id="SvgjsPath2265" class="cls-12" d="M955,153h203c5.3,0,8,2.7,8,8v14c0,5.3-2.7,8-8,8H955c-5.3,0-8-2.7-8-8V161c0-5.3,2.7-8,8-8" transform="translate(-50 -50)"/><path id="SvgjsPath2266" class="cls-1" d="M955,153h203c5.3,0,8,2.7,8,8v14c0,5.3-2.7,8-8,8H955c-5.3,0-8-2.7-8-8V161c0-5.3,2.7-8,8-8" transform="translate(-50 -50)"/><g id="SvgjsG2267"><g id="SvgjsG2268"><g id="SvgjsG2275"><text class="cls-13" transform="translate(903 123)">raise (v.) the risk of blood clots</text></g></g></g></g></g></g><g id="SvgjsG2296"><g id="SvgjsG2286"><g id="SvgjsG2287"><path id="SvgjsPath2288" class="cls-12" d="M1226,144h266c5.3,0,8,2.7,8,8v32c0,5.3-2.7,8-8,8H1226c-5.3,0-8-2.7-8-8V152c0-5.3,2.7-8,8-8" transform="translate(-50 -50)"/><path id="SvgjsPath2289" class="cls-1" d="M1226,144h266c5.3,0,8,2.7,8,8v32c0,5.3-2.7,8-8,8H1226c-5.3,0-8-2.7-8-8V152c0-5.3,2.7-8,8-8" transform="translate(-50 -50)"/><g id="SvgjsG2290"><g id="SvgjsG2291"><g id="SvgjsG2298"><text class="cls-13" transform="translate(1174 114)"><tspan xml:space="preserve"> increases (v.) the risk of heart attack or </tspan></text><text class="cls-13" transform="translate(1174 132)">stroke.</text></g></g></g></g></g></g><g id="SvgjsG2411"><rect id="SvgjsRect2773" class="cls-9" x="587" y="244.5" width="52" height="48"/><rect id="SvgjsRect2571" class="cls-9" x="587" y="244.5" width="52" height="48"/><g id="SvgjsG2401"><g id="SvgjsG2402"><path id="SvgjsPath2403" class="cls-12" d="M390,294.5H629c5.3,0,8,2.7,8,8v32c0,5.3-2.7,8-8,8H390c-5.3,0-8-2.7-8-8v-32c0-5.3,2.7-8,8-8" transform="translate(-50 -50)"/><path id="SvgjsPath2404" class="cls-1" d="M390,294.5H629c5.3,0,8,2.7,8,8v32c0,5.3-2.7,8-8,8H390c-5.3,0-8-2.7-8-8v-32c0-5.3,2.7-8,8-8" transform="translate(-50 -50)"/><g id="SvgjsG2405"><g id="SvgjsG2406"><g id="SvgjsG2413"><text class="cls-13" transform="translate(338 264.5)">the sympathetic nervous system </text><text class="cls-13" transform="translate(338 282.5)">increases (v.) blood flow to the skin.</text></g></g></g></g></g></g><g id="SvgjsG2501"><rect id="SvgjsRect2808" class="cls-9" x="572" y="421" width="52" height="30"/><g id="SvgjsG2491"><g id="SvgjsG2492"><path id="SvgjsPath2493" class="cls-12" d="M390,471H614c5.3,0,8,2.7,8,8v14c0,5.3-2.7,8-8,8H390c-5.3,0-8-2.7-8-8V479c0-5.3,2.7-8,8-8" transform="translate(-50 -50)"/><path id="SvgjsPath2494" class="cls-1" d="M390,471H614c5.3,0,8,2.7,8,8v14c0,5.3-2.7,8-8,8H390c-5.3,0-8-2.7-8-8V479c0-5.3,2.7-8,8-8" transform="translate(-50 -50)"/><g id="SvgjsG2495"><g id="SvgjsG2496"><g id="SvgjsG2503"><text class="cls-13" transform="translate(338 441)">vasodilation 血管舒张（血压降低）</text></g></g></g></g></g></g><g id="SvgjsG3153"><rect id="SvgjsRect3197" class="cls-9" x="679" y="189" width="52" height="30"/><g id="SvgjsG3143"><g id="SvgjsG3144"><path id="SvgjsPath3145" class="cls-12" d="M697,239h24c5.3,0,8,2.7,8,8v14c0,5.3-2.7,8-8,8H697c-5.3,0-8-2.7-8-8V247c0-5.3,2.7-8,8-8" transform="translate(-50 -50)"/><path id="SvgjsPath3146" class="cls-1" d="M697,239h24c5.3,0,8,2.7,8,8v14c0,5.3-2.7,8-8,8H697c-5.3,0-8-2.7-8-8V247c0-5.3,2.7-8,8-8" transform="translate(-50 -50)"/><g id="SvgjsG3147"><g id="SvgjsG3148"><g id="SvgjsG3176"><text class="cls-13" transform="translate(645 209)">好处</text></g></g></g></g></g></g><g id="SvgjsG3164"><g id="SvgjsG3154"><g id="SvgjsG3155"><path id="SvgjsPath3156" class="cls-12" d="M789,230h294c5.3,0,8,2.7,8,8v32c0,5.3-2.7,8-8,8H789c-5.3,0-8-2.7-8-8V238c0-5.3,2.7-8,8-8" transform="translate(-50 -50)"/><path id="SvgjsPath3157" class="cls-1" d="M789,230h294c5.3,0,8,2.7,8,8v32c0,5.3-2.7,8-8,8H789c-5.3,0-8-2.7-8-8V238c0-5.3,2.7-8,8-8" transform="translate(-50 -50)"/><g id="SvgjsG3158"><g id="SvgjsG3159"><g id="SvgjsG3166"><text class="cls-13" transform="translate(737 200)"><tspan xml:space="preserve"> helps excess 额外的；过度的 heat dissipate (</tspan></text><text class="cls-13" transform="translate(737 218)">v.)（使）消散，驱散</text></g></g></g></g></g></g><g id="SvgjsG3211"><rect id="SvgjsRect3280" class="cls-9" x="679" y="318" width="52" height="30"/><g id="SvgjsG3201"><g id="SvgjsG3202"><path id="SvgjsPath3203" class="cls-12" d="M697,368h24c5.3,0,8,2.7,8,8v14c0,5.3-2.7,8-8,8H697c-5.3,0-8-2.7-8-8V376c0-5.3,2.7-8,8-8" transform="translate(-50 -50)"/><path id="SvgjsPath3204" class="cls-1" d="M697,368h24c5.3,0,8,2.7,8,8v14c0,5.3-2.7,8-8,8H697c-5.3,0-8-2.7-8-8V376c0-5.3,2.7-8,8-8" transform="translate(-50 -50)"/><g id="SvgjsG3205"><g id="SvgjsG3206"><g id="SvgjsG3213"><text class="cls-13" transform="translate(645 338)">坏处</text></g></g></g></g></g></g><g id="SvgjsG3257"><rect id="SvgjsRect3415" class="cls-9" x="1033" y="272" width="52" height="30"/><g id="SvgjsG3247"><g id="SvgjsG3248"><path id="SvgjsPath3249" class="cls-12" d="M789,322h286c5.3,0,8,2.7,8,8v14c0,5.3-2.7,8-8,8H789c-5.3,0-8-2.7-8-8V330c0-5.3,2.7-8,8-8" transform="translate(-50 -50)"/><path id="SvgjsPath3250" class="cls-1" d="M789,322h286c5.3,0,8,2.7,8,8v14c0,5.3-2.7,8-8,8H789c-5.3,0-8-2.7-8-8V330c0-5.3,2.7-8,8-8" transform="translate(-50 -50)"/><g id="SvgjsG3251"><g id="SvgjsG3252"><g id="SvgjsG3259"><text class="cls-13" transform="translate(737 292)">makes the heart work (v.) overtime (n.)加班</text></g></g></g></g></g></g><g id="SvgjsG3340"><rect id="SvgjsRect3626" class="cls-9" x="1033" y="346" width="52" height="66"/><g id="SvgjsG3330"><g id="SvgjsG3331"><path id="SvgjsPath3332" class="cls-12" d="M789,396h286c5.3,0,8,2.7,8,8v50c0,5.3-2.7,8-8,8H789c-5.3,0-8-2.7-8-8V404c0-5.3,2.7-8,8-8" transform="translate(-50 -50)"/><path id="SvgjsPath3333" class="cls-1" d="M789,396h286c5.3,0,8,2.7,8,8v50c0,5.3-2.7,8-8,8H789c-5.3,0-8-2.7-8-8V404c0-5.3,2.7-8,8-8" transform="translate(-50 -50)"/><g id="SvgjsG3334"><g id="SvgjsG3335"><g id="SvgjsG3342"><text class="cls-13" transform="translate(737 366)">Your heart has to work (v.) harder because </text><text class="cls-13" transform="translate(737 384)">it still needs to put blood into the rest of </text><text class="cls-13" transform="translate(737 402)">the body.</text></g></g></g></g></g></g><g id="SvgjsG3392"><rect id="SvgjsRect3569" class="cls-9" x="1390.5" y="263" width="52" height="48"/><rect id="SvgjsRect3476" class="cls-9" x="1390.5" y="263" width="52" height="48"/><g id="SvgjsG3382"><g id="SvgjsG3383"><path id="SvgjsPath3384" class="cls-12" d="M1143,286h290c5.3,0,8,2.7,8,8v86c0,5.3-2.7,8-8,8H1143c-5.3,0-8-2.7-8-8V294c0-5.3,2.7-8,8-8" transform="translate(-50 -50)"/><path id="SvgjsPath3385" class="cls-1" d="M1143,286h290c5.3,0,8,2.7,8,8v86c0,5.3-2.7,8-8,8H1143c-5.3,0-8-2.7-8-8V294c0-5.3,2.7-8,8-8" transform="translate(-50 -50)"/><g id="SvgjsG3386"><g id="SvgjsG3387"><g id="SvgjsG3394"><text class="cls-13" transform="translate(1091 256)">a greater demand for blood flow means a </text><text class="cls-13" transform="translate(1091 274)">greater need for oxygen.</text><text class="cls-13" transform="translate(1091 292)">/ heat stress can overwork (v.) the heart </text><text class="cls-13" transform="translate(1091 310)">muscle into an oxygen-starved (饥饿的)缺氧</text><text class="cls-13" transform="translate(1091 328)">的 state.</text></g></g></g></g></g></g><g id="SvgjsG3834"><g id="SvgjsG3824"><g id="SvgjsG3825"><path id="SvgjsPath3826" class="cls-12" d="M1501,313h229c5.3,0,8,2.7,8,8v32c0,5.3-2.7,8-8,8H1501c-5.3,0-8-2.7-8-8V321c0-5.3,2.7-8,8-8" transform="translate(-50 -50)"/><path id="SvgjsPath3827" class="cls-1" d="M1501,313h229c5.3,0,8,2.7,8,8v32c0,5.3-2.7,8-8,8H1501c-5.3,0-8-2.7-8-8V321c0-5.3,2.7-8,8-8" transform="translate(-50 -50)"/><g id="SvgjsG3828"><g id="SvgjsG3829"><g id="SvgjsG3836"><text class="cls-13" transform="translate(1449 283)"><tspan xml:space="preserve"> put people with clogged arteries </tspan></text><text class="cls-13" transform="translate(1449 301)">at risk of a heart attack.</text></g></g></g></g></g></g></g></g></g><path class="cls-15" d="M0,0" transform="translate(-50 -50)"/></svg>