<svg id="图层_1" data-name="图层 1" xmlns="http://www.w3.org/2000/svg" viewBox="0 0 659.84 104.34"><defs><style>.cls-1,.cls-3{font-size:12px;font-family:MicrosoftYaHei, Microsoft YaHei;}.cls-1{fill:#1d2088;}.cls-2{letter-spacing:-0.02em;}.cls-14,.cls-3{fill:#231815;}.cls-4{letter-spacing:0.04em;}.cls-5{letter-spacing:-0.06em;}.cls-6{letter-spacing:-0.01em;}.cls-7{letter-spacing:0.01em;}.cls-8{letter-spacing:0em;}.cls-9{letter-spacing:-0.01em;}.cls-10{letter-spacing:-0.01em;}.cls-11{letter-spacing:-0.01em;}.cls-12{letter-spacing:0.03em;}.cls-13,.cls-15{fill:none;stroke:#231815;stroke-miterlimit:10;}.cls-15{stroke-width:0.25px;}</style></defs><text class="cls-1" transform="translate(7.37 41.97)">the <tspan class="cls-2" x="22.22" y="0">v</tspan><tspan x="28.28" y="0">alue </tspan><tspan class="cls-2" x="55.86" y="0">o</tspan><tspan x="63.26" y="0">f Chinese trade</tspan></text><text class="cls-3" transform="translate(7.37 66.45)">后定<tspan x="0" y="14.4">in a count</tspan><tspan class="cls-4" x="57.23" y="14.4">r</tspan><tspan x="62.33" y="14.4">y</tspan><tspan class="cls-5" x="68.68" y="14.4">’</tspan><tspan x="79.95" y="14.4">s wa</tspan><tspan class="cls-6" x="105.16" y="14.4">t</tspan><tspan x="109.53" y="14.4">e</tspan><tspan class="cls-7" x="116.34" y="14.4">r</tspan><tspan x="121.01" y="14.4">s</tspan></text><text class="cls-3" transform="translate(202.12 41.97)">multiplied by<tspan x="33.35" y="14.4">×</tspan></text><text class="cls-1" transform="translate(312.47 13.97)">the extra distance</text><text class="cls-3" transform="translate(448.93 13.97)">后定 <tspan x="0" y="14.4">goods </tspan><tspan class="cls-8" x="39.71" y="14.4">w</tspan><tspan x="49.15" y="14.4">ould ha</tspan><tspan class="cls-9" x="92.62" y="14.4">v</tspan><tspan x="98.84" y="14.4">e </tspan><tspan class="cls-6" x="109.2" y="14.4">t</tspan><tspan x="113.57" y="14.4">o go </tspan><tspan x="0" y="28.8">if those </tspan><tspan class="cls-10" x="46.31" y="28.8">r</tspan><tspan x="50.72" y="28.8">ou</tspan><tspan class="cls-6" x="65.74" y="28.8">t</tspan><tspan x="70.11" y="28.8">es </tspan><tspan class="cls-11" x="86.03" y="28.8">w</tspan><tspan x="95.44" y="28.8">e</tspan><tspan class="cls-10" x="102.25" y="28.8">r</tspan><tspan x="106.66" y="28.8">e shut</tspan></text><text class="cls-3" transform="translate(448.93 72.47)">后定 <tspan x="0" y="14.4">that </tspan><tspan class="cls-8" x="26.51" y="14.4">w</tspan><tspan x="35.95" y="14.4">ould be di</tspan><tspan class="cls-9" x="94.29" y="14.4">v</tspan><tspan x="100.51" y="14.4">e</tspan><tspan class="cls-12" x="107.32" y="14.4">r</tspan><tspan class="cls-6" x="112.28" y="14.4">t</tspan><tspan x="116.65" y="14.4">ed </tspan><tspan class="cls-6" x="134.68" y="14.4">t</tspan><tspan x="139.05" y="14.4">o a count</tspan><tspan class="cls-4" x="193.32" y="14.4">r</tspan><tspan x="198.43" y="14.4">y </tspan><tspan x="0" y="28.8">if shipping </tspan><tspan class="cls-11" x="64.18" y="28.8">w</tspan><tspan x="73.59" y="28.8">e</tspan><tspan class="cls-10" x="80.4" y="28.8">r</tspan><tspan x="84.81" y="28.8">e disrup</tspan><tspan class="cls-6" x="131.24" y="28.8">t</tspan><tspan x="135.61" y="28.8">ed elsewhe</tspan><tspan class="cls-10" x="199.68" y="28.8">r</tspan><tspan x="204.09" y="28.8">e</tspan></text><text class="cls-1" transform="translate(312.47 72.47)">the amount <tspan class="cls-2" x="70.54" y="0">o</tspan><tspan x="77.93" y="0">f trade</tspan></text><line class="cls-13" x1="165.61" y1="38.77" x2="183.57" y2="38.77"/><polygon class="cls-14" points="190.63 38.77 180.69 42.84 183.05 38.77 180.69 34.71 190.63 38.77"/><line class="cls-13" x1="283.85" y1="38.22" x2="296.56" y2="25.52"/><polygon class="cls-14" points="301.55 20.53 297.39 30.43 296.19 25.89 291.64 24.69 301.55 20.53"/><line class="cls-13" x1="283.85" y1="41.18" x2="296.56" y2="53.88"/><polygon class="cls-14" points="301.55 58.88 291.64 54.72 296.19 53.51 297.39 48.97 301.55 58.88"/><rect class="cls-15" x="0.13" y="24.89" width="161.6" height="24.53"/><rect class="cls-15" x="306.16" y="0.13" width="129.17" height="21.77"/><rect class="cls-15" x="306.16" y="56.48" width="129.17" height="21.77"/></svg>