<svg id="图层_1" data-name="图层 1" xmlns="http://www.w3.org/2000/svg" viewBox="0 0 959.76 174.99"><defs><style>.cls-1{font-size:12px;font-family:MicrosoftYaHei, Microsoft YaHei;}.cls-1,.cls-5{fill:#231815;}.cls-12,.cls-2,.cls-7{letter-spacing:-0.01em;}.cls-3{letter-spacing:-0.01em;}.cls-4{fill:none;stroke:#231815;stroke-miterlimit:10;}.cls-6,.cls-7,.cls-8,.cls-9{fill:#1d2088;}.cls-8{letter-spacing:-0.01em;}.cls-9{letter-spacing:-0.01em;}.cls-10{letter-spacing:-0.07em;}.cls-11,.cls-12{fill:#172a88;}.cls-13{letter-spacing:-0.03em;}.cls-14{letter-spacing:0.01em;}</style></defs><text class="cls-1" transform="translate(493.38 10.29)">后定 <tspan x="0" y="14.4">the </tspan><tspan class="cls-2" x="22.22" y="14.4">r</tspan><tspan x="26.63" y="14.4">esults will ha</tspan><tspan class="cls-3" x="99.79" y="14.4">v</tspan><tspan x="106.01" y="14.4">e</tspan></text><line class="cls-4" x1="484.16" y1="8.29" x2="466.19" y2="8.29"/><polygon class="cls-5" points="459.13 8.29 469.08 4.22 466.72 8.29 469.08 12.35 459.13 8.29"/><line class="cls-4" x1="484.16" y1="65.8" x2="327.81" y2="65.8"/><polygon class="cls-5" points="320.75 65.8 330.7 61.73 328.34 65.8 330.7 69.86 320.75 65.8"/><line class="cls-4" x1="160.19" y1="37.37" x2="182.13" y2="15.43"/><polygon class="cls-5" points="187.13 10.43 182.97 20.34 181.76 15.8 177.22 14.59 187.13 10.43"/><line class="cls-4" x1="160.19" y1="41.86" x2="182.13" y2="63.81"/><polygon class="cls-5" points="187.13 68.8 177.22 64.64 181.76 63.43 182.97 58.89 187.13 68.8"/><text class="cls-1" transform="translate(0 44.58)">The mo<tspan class="cls-2" x="43.5" y="0">r</tspan><tspan x="47.91" y="0">e </tspan><tspan class="cls-6" x="58.27" y="0">Higgses c</tspan><tspan class="cls-7" x="113.58" y="0">r</tspan><tspan class="cls-6" x="118" y="0">ea</tspan><tspan class="cls-8" x="131.44" y="0">t</tspan><tspan class="cls-6" x="135.81" y="0">ed</tspan></text><text class="cls-1" transform="translate(201.12 10.43)">the mo<tspan class="cls-2" x="41.09" y="0">r</tspan><tspan x="45.5" y="0">e </tspan><tspan class="cls-6" x="55.86" y="0">statistical 统计的；统计学的 po</tspan><tspan class="cls-9" x="227.64" y="0">w</tspan><tspan class="cls-6" x="237.05" y="0">er</tspan></text><text class="cls-1" transform="translate(493.48 70.43)">后定 <tspan x="0" y="14.4">that 主 any </tspan><tspan class="cls-6" x="65.99" y="14.4">deviations </tspan><tspan x="128.4" y="14.4" xml:space="preserve">背离；偏离；违背  /谓 actually </tspan><tspan class="cls-2" x="299.61" y="14.4">r</tspan><tspan x="304.03" y="14.4">ep</tspan><tspan class="cls-2" x="318.5" y="14.4">r</tspan><tspan x="322.91" y="14.4">esent (</tspan><tspan class="cls-10" x="361.51" y="14.4">v</tspan><tspan x="366.99" y="14.4">.) something </tspan><tspan class="cls-2" x="442.35" y="14.4">r</tspan><tspan x="446.76" y="14.4">eal.</tspan></text><text class="cls-1" transform="translate(622.72 107.24)">后定 <tspan x="0" y="14.4">背离；偏离；违背 </tspan><tspan class="cls-11" x="99.55" y="14.4">f</tspan><tspan class="cls-12" x="103.71" y="14.4">r</tspan><tspan class="cls-11" x="108.12" y="14.4">om </tspan><tspan class="cls-13" x="130.55" y="14.4">S</tspan><tspan x="137.06" y="14.4">tanda</tspan><tspan class="cls-2" x="169.86" y="14.4">r</tspan><tspan x="174.28" y="14.4">d Model p</tspan><tspan class="cls-2" x="233.75" y="14.4">r</tspan><tspan x="238.16" y="14.4">edictions</tspan></text><text class="cls-1" transform="translate(493.75 157.53)">后定 <tspan class="cls-2" x="0" y="14.4">r</tspan><tspan x="4.41" y="14.4">esea</tspan><tspan class="cls-2" x="30.22" y="14.4">r</tspan><tspan x="34.63" y="14.4">che</tspan><tspan class="cls-14" x="54.84" y="14.4">r</tspan><tspan x="59.51" y="14.4">s will be</tspan></text><text class="cls-1" transform="translate(201.12 68.8)">the mo<tspan class="cls-2" x="41.09" y="0">r</tspan><tspan x="45.5" y="0">e </tspan><tspan class="cls-6" x="55.86" y="0">confident</tspan></text><polyline class="cls-4" points="585.83 92.3 585.83 116.73 604.99 116.73"/><polygon class="cls-5" points="612.05 116.73 602.1 120.79 604.46 116.73 602.1 112.66 612.05 116.73"/><polyline class="cls-4" points="484.16 157.53 303.28 157.53 303.28 85.41"/><polygon class="cls-5" points="303.28 78.35 307.35 88.3 303.28 85.94 299.22 88.3 303.28 78.35"/></svg>