<svg xmlns="http://www.w3.org/2000/svg" viewBox="0 0 422 152" height="152" xmlns:xlink="http://www.w3.org/1999/xlink" width="422">
    <defs/>
    <g transform="translate(-188.00,-93.00)">
        <g id="shape1" transform="translate(189.00,180.00)">
            <path stroke="#323232" fill-rule="nonzero" fill="#ffffff" d="M.0,.0L54.2,.0L54.2,37.0L.0,37.0L.0,.0z"/>
            <text style="fill:#191919;font-family:Microsoft YaHei;font-size:10.00pt" xml:space="preserve">
                <tspan x="14.1" y="24.0">中央</tspan>
            </text>
        </g>
        <g id="shape2" transform="translate(324.37,152.93)">
            <path stroke="#323232" fill-rule="nonzero" fill="#ffffff" d="M.0,.0L134.4,.0L134.4,91.1L.0,91.1L.0,.0z"/>
            <text style="fill:#191919;font-family:Microsoft YaHei;font-size:10.00pt" xml:space="preserve">
                <tspan x="54.2" y="42.0">地方</tspan>
                <tspan x="24.2" y="61.0">(二级地方政府)</tspan>
            </text>
        </g>
        <g id="shape3" transform="translate(324.37,198.94)">
            <path stroke="#191919" fill="none" d="M.0,.0L-75.1,-0.2"/>
            <path stroke-width="1" stroke="#191919" stroke-linecap="round" fill="#191919" d="M-75.1,2.8L-81.1,-0.3L-75.1,-3.2L-75.1,2.8"/>
            <rect x="-58.6" y="-9.6" fill="#ffffff" height="19.0" width="39.0"/>
            <text style="fill:#191919;font-family:Microsoft YaHei;font-size:10.00pt" xml:space="preserve">
                <tspan x="-58.6" y="5.4">可对抗</tspan>
            </text>
        </g>
        <g id="shape4" transform="translate(458.75,198.94)">
            <path stroke="#191919" fill="none" d="M.0,.0L75.1,-0.2"/>
            <path stroke-width="1" stroke="#191919" stroke-linecap="round" fill="#191919" d="M75.1,-3.2L81.1,-0.3L75.1,2.8L75.1,-3.2"/>
            <rect x="13.0" y="-9.6" fill="#ffffff" height="19.0" width="39.0"/>
            <text style="fill:#191919;font-family:Microsoft YaHei;font-size:10.00pt" xml:space="preserve">
                <tspan x="13.0" y="5.4">可镇压</tspan>
            </text>
        </g>
        <g id="shape5" transform="translate(539.88,178.85)">
            <path stroke="#323232" fill-rule="nonzero" fill="#ffffff" d="M.0,.0L69.1,.0L69.1,39.3L.0,39.3L.0,.0z"/>
            <text style="fill:#191919;font-family:Microsoft YaHei;font-size:10.00pt" xml:space="preserve">
                <tspan x="8.6" y="25.1">农民起义</tspan>
            </text>
        </g>
        <g id="shape6" transform="translate(321.19,94.00)">
            <text style="fill:#191919;font-family:Microsoft YaHei;font-size:10.00pt" xml:space="preserve">
                <tspan x="40.9" y="19.5">外重内轻 :</tspan>
                <tspan x="8.4" y="38.5">地方势力强大, 中央弱</tspan>
            </text>
        </g>
    </g>
</svg>
