<svg xmlns="http://www.w3.org/2000/svg" viewBox="0 0 1129 2601" height="2601" xmlns:xlink="http://www.w3.org/1999/xlink" width="1129">
    <defs/>
    <g transform="translate(-119.00,-339.00)">
        <g id="shape1" transform="translate(236.05,598.65)">
            <path fill-rule="nonzero" d="M.0,.0L157.6,.0L157.6,70.3L.0,70.3L.0,.0z" stroke="#323232" fill="#ffffff"/>
            <text style="fill:#191919;font-family:Microsoft YaHei;font-size:10.00pt" xml:space="preserve">
                <tspan y="31.5" x="45.3">荐举制(汉) :</tspan>
                <tspan y="50.5" x="18.3"> 由地方官推荐人才。</tspan>
            </text>
        </g>
        <g id="shape2" transform="translate(658.22,567.00)">
            <path fill-rule="nonzero" d="M.0,.0L276.8,.0L276.8,133.0L.0,133.0L.0,.0z" stroke="#323232" fill="#efefef"/>
            <text style="fill:#191919;font-family:Microsoft YaHei;font-size:10.00pt" xml:space="preserve">
                <tspan y="19.0" x="92.9">官员的世家大族</tspan>
            </text>
        </g>
        <g id="shape3" transform="translate(393.61,634.15)">
            <path d="M.0,.0L258.6,-0.0" stroke="#191919" fill="none"/>
            <path stroke-width="1" d="M258.6,-3.0L264.6,-0.0L258.6,3.0L258.6,-3.0" stroke="#191919" stroke-linecap="round" fill="#191919"/>
            <rect height="19.0" y="-57.0" fill="#ffffff" width="85.0" x="75.3"/>
            <rect height="19.0" y="-38.0" fill="#ffffff" width="109.5" x="62.3"/>
            <rect height="19.0" y="-19.0" fill="#ffffff" width="94.0" x="68.8"/>
            <rect height="19.0" y="-0.0" fill="#ffffff" width="0.0" x="115.8"/>
            <rect height="19.0" y="19.0" fill="#ffffff" width="107.0" x="62.3"/>
            <rect height="19.0" y="38.0" fill="#ffffff" width="108.0" x="61.8"/>
            <text style="fill:#191919;font-family:Microsoft YaHei;font-size:10.00pt" xml:space="preserve">
                <tspan y="-42.0" x="75.3">荐举制的缺陷: </tspan>
                <tspan y="-23.0" x="62.3">没有可量化的标准. </tspan>
                <tspan y="-4.0" x="68.8">可被人扭曲自利,</tspan>
                <tspan y="15.0" x="115.8"></tspan>
                <tspan y="34.0" x="62.3">官员只举荐自己人,</tspan>
                <tspan y="53.0" x="61.8">变相造成官位世袭 </tspan>
            </text>
        </g>
        <g id="shape4" transform="translate(687.12,623.36)">
            <path fill-rule="nonzero" d="M.0,.0L115.0,.0L115.0,51.3L.0,51.3L.0,.0z" stroke="#323232" fill="#ffffff"/>
            <text style="fill:#191919;font-family:Microsoft YaHei;font-size:10.00pt" xml:space="preserve">
                <tspan y="22.0" x="8.5">官员, 及家族成员</tspan>
                <tspan y="41.0" x="5.5">有免税免役的特权</tspan>
            </text>
        </g>
        <g id="shape5" transform="translate(442.29,768.65)">
            <path fill-rule="nonzero" d="M.0,.0L74.6,.0L74.6,33.3L.0,33.3L.0,.0z" stroke="#323232" fill="#ffffff"/>
            <text style="fill:#191919;font-family:Microsoft YaHei;font-size:10.00pt" xml:space="preserve">
                <tspan y="22.1" x="11.3">百姓依附</tspan>
            </text>
        </g>
        <g id="shape6" transform="translate(516.93,785.47)">
            <path d="M.0,.0L228.1,.0L228.1,-104.8" stroke="#191919" fill="none"/>
            <path stroke-width="1" d="M225.1,-104.8L228.1,-110.8L231.1,-104.8L225.1,-104.8" stroke="#191919" stroke-linecap="round" fill="#191919"/>
            <rect height="19.0" y="-47.5" fill="#ffffff" width="169.0" x="32.1"/>
            <rect height="19.0" y="-28.5" fill="#ffffff" width="117.0" x="58.1"/>
            <rect height="19.0" y="-9.5" fill="#ffffff" width="117.0" x="58.1"/>
            <rect height="19.0" y="9.5" fill="#ffffff" width="124.0" x="56.6"/>
            <rect height="19.0" y="28.5" fill="#ffffff" width="208.0" x="12.6"/>
            <text style="fill:#191919;font-family:Microsoft YaHei;font-size:10.00pt" xml:space="preserve">
                <tspan y="-32.5" x="32.1">很多百姓会主动把自己的土地</tspan>
                <tspan y="-13.5" x="58.1">“投献”给官员们，</tspan>
                <tspan y="5.5" x="58.1">主动成为“徒附”，</tspan>
                <tspan y="24.5" x="56.6">因为交给官员的租子, </tspan>
                <tspan y="43.5" x="12.6">要少于交给官府的赋税劳役的负担。</tspan>
            </text>
        </g>
        <g id="shape7" transform="translate(850.00,623.36)">
            <path fill-rule="nonzero" d="M.0,.0L67.0,.0L67.0,51.3L.0,51.3L.0,.0z" stroke="#323232" fill="#ffffff"/>
            <text style="fill:#191919;font-family:Microsoft YaHei;font-size:10.00pt" xml:space="preserve">
                <tspan y="21.6" x="7.5">拥有自己</tspan>
                <tspan y="40.6" x="14.0">的武装</tspan>
            </text>
        </g>
        <g id="shape8" transform="translate(802.10,649.25)">
            <path d="M.0,.0L41.9,.0" stroke="#191919" fill="none"/>
            <path stroke-width="1" d="M41.9,-3.0L47.9,.0L41.9,3.0L41.9,-3.0" stroke="#191919" stroke-linecap="round" fill="#191919"/>
        </g>
        <g id="shape9" transform="translate(236.05,449.70)">
            <path fill-rule="nonzero" d="M.0,.0L157.6,.0L157.6,40.9L.0,40.9L.0,.0z" stroke="#323232" fill="#ffffff"/>
            <text style="fill:#191919;font-family:Microsoft YaHei;font-size:10.00pt" xml:space="preserve">
                <tspan y="25.9" x="52.8">中央政府</tspan>
            </text>
        </g>
        <g id="shape10" transform="translate(883.72,623.36)">
            <path d="M.0,.0L.0,-153.0L-484.1,-153.0" stroke="#191919" fill="none"/>
            <path stroke-width="1" d="M-484.1,-150.0L-490.1,-153.0L-484.1,-156.0L-484.1,-150.0" stroke="#191919" stroke-linecap="round" fill="#191919"/>
            <rect height="19.0" y="-162.5" fill="#ffffff" width="130.0" x="-298.7"/>
            <text style="fill:#191919;font-family:Microsoft YaHei;font-size:10.00pt" xml:space="preserve">
                <tspan y="-147.5" x="-298.7">中央政府就收不上税了</tspan>
            </text>
        </g>
        <g id="shape11" transform="translate(315.35,490.60)">
            <path d="M.0,.0L-0.0,102.1" stroke="#191919" fill="none"/>
            <path stroke-width="1" d="M3.0,102.1L-0.0,108.1L-3.0,102.1L3.0,102.1" stroke="#191919" stroke-linecap="round" fill="#191919"/>
        </g>
        <g id="shape12" transform="translate(230.35,893.70)">
            <path fill-rule="nonzero" d="M.0,.0L169.0,.0L169.0,70.3L.0,70.3L.0,.0z" stroke="#323232" fill="#ffffff"/>
            <text style="fill:#191919;font-family:Microsoft YaHei;font-size:10.00pt" xml:space="preserve">
                <tspan y="31.5" x="42.5">荐举制 (魏晋) :</tspan>
                <tspan y="50.5" x="7.0"> (上品无寒门，下品无世族)</tspan>
            </text>
        </g>
        <g id="shape13" transform="translate(658.22,893.70)">
            <path fill-rule="nonzero" d="M.0,.0L276.8,.0L276.8,70.3L.0,70.3L.0,.0z" stroke="#323232" fill="#efefef"/>
            <text style="fill:#191919;font-family:Microsoft YaHei;font-size:10.00pt" xml:space="preserve">
                <tspan y="41.0" x="92.9">官员的世家大族</tspan>
            </text>
        </g>
        <g id="shape14" transform="translate(399.30,929.19)">
            <path d="M8.0,.0L252.9,.0" stroke="#191919" fill="none"/>
            <path stroke-width="1" d="M8.0,4.0L.0,.0L8.0,-4.0L8.0,4.0" stroke="#191919" stroke-linecap="round" fill="#191919"/>
            <path stroke-width="1" d="M252.9,-3.0L258.9,.0L252.9,3.0L252.9,-3.0" stroke="#191919" stroke-linecap="round" fill="#191919"/>
            <rect height="19.0" y="-28.5" fill="#ffffff" width="91.0" x="96.9"/>
            <rect height="19.0" y="-9.5" fill="#ffffff" width="52.0" x="116.4"/>
            <rect height="19.0" y="9.5" fill="#ffffff" width="89.0" x="97.9"/>
            <text style="fill:#191919;font-family:Microsoft YaHei;font-size:10.00pt" xml:space="preserve">
                <tspan y="-13.5" x="96.9">天子只能和士族</tspan>
                <tspan y="5.5" x="116.4">分享权力</tspan>
                <tspan y="24.5" x="97.9">(王与马,共天下)</tspan>
            </text>
        </g>
        <g id="shape15" transform="translate(797.53,700.00)">
            <path d="M.0,.0L.0,187.7" stroke="#191919" stroke-dasharray="6,4" fill="none"/>
            <path stroke-width="1" d="M3.0,187.7L.0,193.7L-3.0,187.7L3.0,187.7" stroke="#191919" stroke-linecap="round" fill="#191919"/>
        </g>
        <g id="shape16" transform="translate(315.35,668.95)">
            <path d="M.0,.0L.0,192.7L.0,192.7L.0,218.7" stroke="#191919" stroke-dasharray="6,4" fill="none"/>
            <path stroke-width="1" d="M3.0,218.7L.0,224.7L-3.0,218.7L3.0,218.7" stroke="#191919" stroke-linecap="round" fill="#191919"/>
        </g>
        <g id="shape17" transform="translate(230.35,1176.70)">
            <path fill-rule="nonzero" d="M.0,.0L169.0,.0L169.0,70.3L.0,70.3L.0,.0z" stroke="#323232" fill="#ffffff"/>
            <text style="fill:#191919;font-family:Microsoft YaHei;font-size:10.00pt" xml:space="preserve">
                <tspan y="31.5" x="49.0">科举制 (隋) :</tspan>
                <tspan y="50.5" x="59.0"> (可量化)</tspan>
            </text>
        </g>
        <g id="shape18" transform="translate(315.39,964.00)">
            <path d="M.0,.0L.0,206.7" stroke="#191919" stroke-dasharray="6,4" fill="none"/>
            <path stroke-width="1" d="M3.0,206.7L.0,212.7L-3.0,206.7L3.0,206.7" stroke="#191919" stroke-linecap="round" fill="#191919"/>
            <rect height="19.0" y="37.2" fill="#ffffff" width="156.0" x="-77.0"/>
            <rect height="19.0" y="56.2" fill="#ffffff" width="332.0" x="-165.0"/>
            <rect height="19.0" y="75.2" fill="#ffffff" width="169.0" x="-83.5"/>
            <rect height="19.0" y="94.2" fill="#ffffff" width="156.0" x="-77.0"/>
            <rect height="19.0" y="113.2" fill="#ffffff" width="143.0" x="-70.5"/>
            <rect height="19.0" y="132.2" fill="#ffffff" width="182.0" x="-90.0"/>
            <rect height="19.0" y="151.2" fill="#ffffff" width="156.0" x="-77.0"/>
            <text style="fill:#191919;font-family:Microsoft YaHei;font-size:10.00pt" xml:space="preserve">
                <tspan y="52.2" x="-77.0">从王莽开始一直到隋文帝，</tspan>
                <tspan y="71.2" x="-165.0">历代皇帝都致力于把人口和资源, 从世家大族手中抢回来，</tspan>
                <tspan y="90.2" x="-83.5">采取了从王莽的“限田令”，</tspan>
                <tspan y="109.2" x="-77.0">到光武帝的“检核垦田”，</tspan>
                <tspan y="128.2" x="-70.5">再到北魏的“均田制”，</tspan>
                <tspan y="147.2" x="-90.0">最后到隋文帝的“大索貌阅”，</tspan>
                <tspan y="166.2" x="-77.0">都无法从根本上解决问题。</tspan>
            </text>
        </g>
        <g id="shape19" transform="translate(658.22,1176.70)">
            <path fill-rule="nonzero" d="M.0,.0L276.8,.0L276.8,70.3L.0,70.3L.0,.0z" stroke="#323232" fill="#ffffff"/>
            <text style="fill:#191919;font-family:Microsoft YaHei;font-size:10.00pt" xml:space="preserve">
                <tspan y="41.0" x="86.4">士族阶层开始瓦解</tspan>
            </text>
        </g>
        <g id="shape20" transform="translate(399.30,1212.19)">
            <path d="M.0,.0L252.9,.0" stroke="#191919" fill="none"/>
            <path stroke-width="1" d="M252.9,-3.0L258.9,.0L252.9,3.0L252.9,-3.0" stroke="#191919" stroke-linecap="round" fill="#191919"/>
            <rect height="19.0" y="-19.0" fill="#ffffff" width="146.0" x="73.8"/>
            <rect height="19.0" y="0.0" fill="#ffffff" width="78.0" x="107.8"/>
            <text style="fill:#191919;font-family:Microsoft YaHei;font-size:10.00pt" xml:space="preserve">
                <tspan y="-4.0" x="73.8">打破了士族对官位的垄断,</tspan>
                <tspan y="15.0" x="107.8">再无世袭官位</tspan>
            </text>
        </g>
        <g id="shape21" transform="translate(797.53,964.00)">
            <path d="M.0,.0L.0,206.7" stroke="#191919" stroke-dasharray="6,4" fill="none"/>
            <path stroke-width="1" d="M3.0,206.7L.0,212.7L-3.0,206.7L3.0,206.7" stroke="#191919" stroke-linecap="round" fill="#191919"/>
        </g>
        <g id="shape22" transform="translate(230.35,1381.85)">
            <path fill-rule="nonzero" d="M.0,.0L169.0,.0L169.0,70.3L.0,70.3L.0,.0z" stroke="#323232" fill="#efefef"/>
            <text style="fill:#191919;font-family:Microsoft YaHei;font-size:10.00pt" xml:space="preserve">
                <tspan y="41.0" x="78.0">唐</tspan>
            </text>
        </g>
        <g id="shape23" transform="translate(315.39,1247.00)">
            <path d="M.0,.0L.0,128.9" stroke="#191919" stroke-dasharray="6,4" fill="none"/>
            <path stroke-width="1" d="M3.0,128.9L.0,134.9L-3.0,128.9L3.0,128.9" stroke="#191919" stroke-linecap="round" fill="#191919"/>
        </g>
        <g id="shape24" transform="translate(658.22,1381.85)">
            <path fill-rule="nonzero" d="M.0,.0L276.8,.0L276.8,70.3L.0,70.3L.0,.0z" stroke="#323232" fill="#efefef"/>
            <text style="fill:#191919;font-family:Microsoft YaHei;font-size:10.00pt" xml:space="preserve">
                <tspan y="41.0" x="79.9">中唐之后，门阀复盛</tspan>
            </text>
        </g>
        <g id="shape25" transform="translate(399.30,1417.34)">
            <path d="M.0,.0L252.9,.0" stroke="#191919" fill="none"/>
            <path stroke-width="1" d="M252.9,-3.0L258.9,.0L252.9,3.0L252.9,-3.0" stroke="#191919" stroke-linecap="round" fill="#191919"/>
            <rect height="19.0" y="-57.0" fill="#ffffff" width="39.0" x="116.2"/>
            <rect height="19.0" y="-38.0" fill="#ffffff" width="156.0" x="57.7"/>
            <rect height="19.0" y="-19.0" fill="#ffffff" width="156.0" x="57.7"/>
            <rect height="19.0" y="0.0" fill="#ffffff" width="0.0" x="135.7"/>
            <rect height="19.0" y="19.0" fill="#ffffff" width="146.0" x="62.7"/>
            <rect height="19.0" y="38.0" fill="#ffffff" width="104.0" x="83.7"/>
            <text style="fill:#191919;font-family:Microsoft YaHei;font-size:10.00pt" xml:space="preserve">
                <tspan y="-42.0" x="116.2">唐代，</tspan>
                <tspan y="-23.0" x="57.7">科举在选拔官员的过程中，</tspan>
                <tspan y="-4.0" x="57.7">仍然只起了辅助性的作用。</tspan>
                <tspan y="15.0" x="135.7"></tspan>
                <tspan y="34.0" x="62.7">唐代最有名的23位宰相，</tspan>
                <tspan y="53.0" x="83.7">基本都出身士族。</tspan>
            </text>
        </g>
        <g id="shape26" transform="translate(797.53,1247.00)">
            <path d="M.0,.0L.0,128.9" stroke="#191919" stroke-dasharray="6,4" fill="none"/>
            <path stroke-width="1" d="M3.0,128.9L.0,134.9L-3.0,128.9L3.0,128.9" stroke="#191919" stroke-linecap="round" fill="#191919"/>
        </g>
        <g id="shape27" transform="translate(354.48,340.00)">
            <text style="fill:#191919;font-family:Microsoft YaHei;font-size:13.00pt" xml:space="preserve">
                <tspan y="35.0" x="121.5">人才选拔机制, </tspan>
                <tspan y="58.0" x="48.5">与"世袭世家阶层"的形成直接相关</tspan>
            </text>
        </g>
        <g id="shape28" transform="translate(230.35,1581.85)">
            <path fill-rule="nonzero" d="M.0,.0L169.0,.0L169.0,70.3L.0,70.3L.0,.0z" stroke="#323232" fill="#efefef"/>
            <text style="fill:#191919;font-family:Microsoft YaHei;font-size:10.00pt" xml:space="preserve">
                <tspan y="31.5" x="78.0">宋</tspan>
                <tspan y="50.5" x="20.0"> (真正大规模推行科举)</tspan>
            </text>
        </g>
        <g id="shape29" transform="translate(315.39,1452.15)">
            <path d="M.0,.0L.0,123.7" stroke="#191919" stroke-dasharray="6,4" fill="none"/>
            <path stroke-width="1" d="M3.0,123.7L.0,129.7L-3.0,123.7L3.0,123.7" stroke="#191919" stroke-linecap="round" fill="#191919"/>
        </g>
        <g id="shape30" transform="translate(658.22,1581.85)">
            <path fill-rule="nonzero" d="M.0,.0L276.8,.0L276.8,70.3L.0,70.3L.0,.0z" stroke="#323232" fill="#ffffff"/>
            <text style="fill:#191919;font-family:Microsoft YaHei;font-size:10.00pt" xml:space="preserve">
                <tspan y="31.5" x="97.9">士族阶层不存.</tspan>
                <tspan y="50.5" x="56.9">上可使之为官, 下可削之为民</tspan>
            </text>
        </g>
        <g id="shape31" transform="translate(399.30,1617.34)">
            <path d="M.0,.0L252.9,.0" stroke="#191919" fill="none"/>
            <path stroke-width="1" d="M252.9,-3.0L258.9,.0L252.9,3.0L252.9,-3.0" stroke="#191919" stroke-linecap="round" fill="#191919"/>
            <rect height="19.0" y="-38.0" fill="#ffffff" width="120.0" x="78.2"/>
            <rect height="19.0" y="-19.0" fill="#ffffff" width="210.0" x="33.2"/>
            <rect height="19.0" y="0.0" fill="#ffffff" width="171.0" x="52.7"/>
            <rect height="19.0" y="19.0" fill="#ffffff" width="192.0" x="42.2"/>
            <text style="fill:#191919;font-family:Microsoft YaHei;font-size:10.00pt" xml:space="preserve">
                <tspan y="-23.0" x="78.2">北宋的71名宰相中，</tspan>
                <tspan y="-4.0" x="33.2">除赵普等4人, 为开国功臣任宰相外，</tspan>
                <tspan y="15.0" x="52.7">只有3人, 不由科举而任宰相，</tspan>
                <tspan y="34.0" x="42.2">其他64名, 均为进士或制科出身。</tspan>
            </text>
        </g>
        <g id="shape32" transform="translate(797.53,1452.15)">
            <path d="M.0,.0L.0,123.7" stroke="#191919" stroke-dasharray="6,4" fill="none"/>
            <path stroke-width="1" d="M3.0,123.7L.0,129.7L-3.0,123.7L3.0,123.7" stroke="#191919" stroke-linecap="round" fill="#191919"/>
            <rect height="19.0" y="28.8" fill="#ffffff" width="248.0" x="-123.0"/>
            <rect height="19.0" y="47.8" fill="#ffffff" width="202.0" x="-100.0"/>
            <rect height="19.0" y="66.8" fill="#ffffff" width="260.0" x="-129.0"/>
            <rect height="19.0" y="85.8" fill="#ffffff" width="104.0" x="-51.0"/>
            <text style="fill:#191919;font-family:Microsoft YaHei;font-size:10.00pt" xml:space="preserve">
                <tspan y="43.8" x="-123.0">宋以前的中国，是“贵族—半贵族”社会，</tspan>
                <tspan y="62.8" x="-100.0">宋以后的中国, 就变成了平民社会。</tspan>
                <tspan y="81.8" x="-129.0">令皇权终于摆脱了地方世家大族势力的威胁，</tspan>
                <tspan y="100.8" x="-51.0">真正做到了独尊。</tspan>
            </text>
        </g>
        <g id="shape33" transform="translate(685.62,1381.85)">
            <path d="M.0,.0L.0,-68.9L-320.1,-68.9L-320.1,-6.0" stroke="#4c85d9" fill="none"/>
            <path stroke-width="1" d="M-317.1,-6.0L-320.1,.0L-323.1,-6.0L-317.1,-6.0" stroke="#4c85d9" stroke-linecap="round" fill="#4c85d9"/>
            <rect height="19.0" y="-87.9" fill="#ffffff" width="140.0" x="-221.5"/>
            <rect height="19.0" y="-68.9" fill="#ffffff" width="198.0" x="-250.5"/>
            <text style="fill:#191919;font-family:Microsoft YaHei;font-size:10.00pt" xml:space="preserve">
                <tspan y="-72.9" x="-221.5">封驳制度, “君臣共治”.</tspan>
                <tspan y="-53.9" x="-250.5">唐代谏官权力极大，而且言无禁忌.</tspan>
            </text>
        </g>
        <g id="shape34" transform="translate(967.00,1361.50)">
            <text style="fill:#191919;font-family:Microsoft YaHei;font-size:10.00pt" xml:space="preserve">
                <tspan y="32.5" x="4.0">唐代宽松的政治环境，也是唐代文学</tspan>
                <tspan y="51.5" x="4.0">艺术繁荣的重要原因。白居易写了很</tspan>
                <tspan y="70.5" x="4.0">多讥讽皇帝的诗，如《长恨歌》. 这是</tspan>
                <tspan y="89.5" x="4.0">别的朝代所没有的自由气息.</tspan>
            </text>
        </g>
        <g id="shape35" transform="translate(967.00,1569.50)">
            <text style="fill:#191919;font-family:Microsoft YaHei;font-size:10.00pt" xml:space="preserve">
                <tspan y="23.0" x="4.0">“朝为田舍郎，暮登天子堂”。</tspan>
                <tspan y="42.0" x="4.0">由底层爬上去容易，而从顶层掉落到</tspan>
                <tspan y="61.0" x="4.0">底层则更容易，因为权力及身而止.</tspan>
                <tspan y="80.0" x="4.0"></tspan>
                <tspan y="99.0" x="4.0">“朝廷无世臣”“无百年之家”。</tspan>
                <tspan y="118.0" x="4.0">地方上不再有可与政府相抗衡的庞大</tspan>
                <tspan y="137.0" x="4.0">家族。</tspan>
            </text>
        </g>
        <g id="shape36" transform="translate(682.58,1652.15)">
            <path d="M.0,.0L.0,123.9L-313.6,123.9L-313.6,6.0" stroke="#4c85d9" fill="none"/>
            <path stroke-width="1" d="M-316.6,6.0L-313.6,.0L-310.6,6.0L-316.6,6.0" stroke="#4c85d9" stroke-linecap="round" fill="#4c85d9"/>
            <rect height="19.0" y="38.4" fill="#ffffff" width="130.0" x="-216.6"/>
            <rect height="19.0" y="57.4" fill="#ffffff" width="176.0" x="-237.6"/>
            <rect height="19.0" y="76.4" fill="#ffffff" width="290.0" x="-296.6"/>
            <rect height="19.0" y="95.4" fill="#ffffff" width="137.0" x="-218.1"/>
            <rect height="19.0" y="95.4" fill="#ffffff" width="0.0" x="-81.1"/>
            <rect height="19.0" y="114.4" fill="#ffffff" width="0.0" x="-151.6"/>
            <rect height="19.0" y="133.4" fill="#ffffff" width="169.0" x="-236.1"/>
            <rect height="19.0" y="152.4" fill="#ffffff" width="133.0" x="-218.1"/>
            <rect height="19.0" y="171.4" fill="#ffffff" width="137.0" x="-218.1"/>
            <rect height="19.0" y="190.4" fill="#ffffff" width="208.0" x="-255.6"/>
            <text style="fill:#191919;font-family:Microsoft YaHei;font-size:10.00pt" xml:space="preserve">
                <tspan style="fill:#c00000" y="53.4" x="-216.6">唐宋两朝皇帝制度中，</tspan>
                <tspan style="fill:#c00000" y="72.4" x="-237.6">存在着“专制君权持续强化”, </tspan>
                <tspan style="fill:#c00000" y="91.4" x="-296.6">和“限制君权的制衡程序同样在增强” 两种趋势，</tspan>
                <tspan style="fill:#c00000" y="110.4" x="-218.1">彼此构成一种“张力”. </tspan>
                <tspan x="-81.1"></tspan>
                <tspan y="129.4" x="-151.6"></tspan>
                <tspan y="148.4" x="-236.1">宋代继承了唐代“封驳制度”</tspan>
                <tspan y="167.4" x="-218.1">和“谏官制度”的成就.</tspan>
                <tspan y="186.4" x="-218.1">士大夫“从道不从君”, </tspan>
                <tspan y="205.4" x="-255.6">“以天下为己任”的意识非常强烈。</tspan>
            </text>
        </g>
        <g id="shape37" transform="translate(967.00,1731.50)">
            <text style="fill:#191919;font-family:Microsoft YaHei;font-size:10.00pt" xml:space="preserve">
                <tspan y="23.3" x="4.0">宋人还享有广泛的结社自由.</tspan>
                <tspan y="42.3" x="4.0">宋代演戏，经常讽刺朝政。</tspan>
            </text>
        </g>
        <g id="shape38" transform="translate(967.00,2333.25)">
            <text style="fill:#191919;font-family:Microsoft YaHei;font-size:10.00pt" xml:space="preserve">
                <tspan y="33.0" x="4.0">宋朝和明朝只相隔89年。但明和宋相比，在很</tspan>
                <tspan y="52.0" x="4.0">多方面都出现了剧烈的倒退。</tspan>
                <tspan y="90.0" x="4.0">- 中国历史上，农业税一直是国家收入的主体，</tspan>
                <tspan y="109.0" x="4.0">国家税收都是从农民手里收上来的。但是到了</tspan>
                <tspan style="fill:#c00000" y="128.0" x="4.0">宋朝，财政收入主要靠工商税收，占财政收入</tspan>
                <tspan style="fill:#c00000" y="147.0" x="4.0">的70%，农业税只占30%。</tspan>
                <tspan x="164.0">这说明工商业极度</tspan>
                <tspan y="166.0" x="4.0">繁荣。</tspan>
                <tspan y="185.0" x="4.0">到了明朝时，农业税又一次占了大头，占了总</tspan>
                <tspan y="204.0" x="4.0">收入的81%，工商杂税只占总收入的12%。</tspan>
                <tspan y="223.0" x="4.0">从这个数字我们能看出，和宋代相比，明朝商</tspan>
                <tspan y="242.0" x="4.0">品经济是何等落后。</tspan>
                <tspan y="280.0" x="4.0">- 宋朝第三个皇帝宋真宗的时代，国家财政收入</tspan>
                <tspan y="299.0" x="4.0">接近16000万贯，这个数字是唐代最高额的3</tspan>
                <tspan y="318.0" x="4.0">倍。明朝在财政收入最高的时候，也不过是宋</tspan>
                <tspan y="337.0" x="4.0">朝这个数字的19%。</tspan>
                <tspan y="375.0" x="4.0">- 宋代在中国古代史上第一次取消了奴隶制。</tspan>
                <tspan y="394.0" x="4.0">宋代之前，大户人家大量使唤奴婢，可以随便</tspan>
                <tspan y="413.0" x="4.0">买卖，和牲畜的地位差不多。</tspan>
                <tspan y="432.0" x="4.0">宋代，虽然也使用“奴婢”这个词，但这</tspan>
                <tspan y="451.0" x="4.0">个“奴婢”是平民，是被人雇佣的，而不是雇</tspan>
                <tspan y="470.0" x="4.0">主的私产.</tspan>
                <tspan y="508.0" x="4.0">而明代, 奴隶现象再度盛行，主人可以把奴婢随</tspan>
                <tspan y="527.0" x="4.0">意送人。</tspan>
                <tspan style="fill:#c00000" y="565.0" x="4.0">为什么由宋到明会出现如此剧烈的倒退呢？主</tspan>
                <tspan style="fill:#c00000" y="584.0" x="4.0">要是元代承上启下的结果。</tspan>
            </text>
        </g>
        <g id="shape39" transform="translate(230.35,1974.50)">
            <path fill-rule="nonzero" d="M.0,.0L169.0,.0L169.0,70.3L.0,70.3L.0,.0z" stroke="#323232" fill="#ffffff"/>
            <text style="fill:#191919;font-family:Microsoft YaHei;font-size:10.00pt" xml:space="preserve">
                <tspan y="41.0" x="78.0">元</tspan>
            </text>
        </g>
        <g id="shape40" transform="translate(658.22,1974.50)">
            <path fill-rule="nonzero" d="M.0,.0L276.8,.0L276.8,70.3L.0,70.3L.0,.0z" stroke="#323232" fill="#ffffff"/>
            <text style="fill:#191919;font-family:Microsoft YaHei;font-size:10.00pt" xml:space="preserve">
                <tspan y="41.0" x="125.4">奴才</tspan>
            </text>
        </g>
        <g id="shape41" transform="translate(315.39,1652.15)">
            <path d="M.0,.0L.0,316.4" stroke="#191919" stroke-dasharray="6,4" fill="none"/>
            <path stroke-width="1" d="M3.0,316.4L.0,322.4L-3.0,316.4L3.0,316.4" stroke="#191919" stroke-linecap="round" fill="#191919"/>
        </g>
        <g id="shape42" transform="translate(797.53,1652.15)">
            <path d="M.0,.0L.0,316.4" stroke="#191919" stroke-dasharray="6,4" fill="none"/>
            <path stroke-width="1" d="M3.0,316.4L.0,322.4L-3.0,316.4L3.0,316.4" stroke="#191919" stroke-linecap="round" fill="#191919"/>
        </g>
        <g id="shape43" transform="translate(399.30,2009.99)">
            <path d="M.0,.0L252.9,.0" stroke="#191919" fill="none"/>
            <path stroke-width="1" d="M252.9,-3.0L258.9,.0L252.9,3.0L252.9,-3.0" stroke="#191919" stroke-linecap="round" fill="#191919"/>
            <rect height="19.0" y="-76.0" fill="#ffffff" width="169.0" x="51.7"/>
            <rect height="19.0" y="-57.0" fill="#ffffff" width="228.0" x="24.2"/>
            <rect height="19.0" y="-57.0" fill="#ffffff" width="0.0" x="252.2"/>
            <rect height="19.0" y="-38.0" fill="#ffffff" width="208.0" x="32.2"/>
            <rect height="19.0" y="-19.0" fill="#ffffff" width="156.0" x="58.2"/>
            <rect height="19.0" y="19.0" fill="#ffffff" width="59.0" x="106.7"/>
            <rect height="19.0" y="38.0" fill="#ffffff" width="228.0" x="22.2"/>
            <rect height="19.0" y="57.0" fill="#ffffff" width="228.0" x="22.2"/>
            <text style="fill:#191919;font-family:Microsoft YaHei;font-size:10.00pt" xml:space="preserve">
                <tspan style="fill:#c00000" y="-61.0" x="51.7">君臣关系却出现了重大倒退。</tspan>
                <tspan style="fill:#c00000" y="-42.0" x="24.2">因为蒙古社会基本处于“奴隶制时代”. </tspan>
                <tspan x="252.2"></tspan>
                <tspan y="-23.0" x="32.2">成吉思汗把手下功绩最著的几名战将</tspan>
                <tspan y="-4.0" x="58.2">称为“四骏”和“四狗”。</tspan>
                <tspan y="34.0" x="106.7">清代亦然. </tspan>
                <tspan y="53.0" x="22.2">如清代满族大臣对皇帝, 自称奴才一样，</tspan>
                <tspan y="72.0" x="22.2">元代大臣们在皇帝面前, 公然自称奴婢。</tspan>
            </text>
        </g>
        <g id="shape44" transform="translate(699.46,2044.80)">
            <path d="M.0,.0L.0,90.2L-335.0,90.2L-335.0,6.0" stroke="#4c85d9" fill="none"/>
            <path stroke-width="1" d="M-338.0,6.0L-335.0,.0L-332.0,6.0L-338.0,6.0" stroke="#4c85d9" stroke-linecap="round" fill="#4c85d9"/>
            <rect height="19.0" y="71.2" fill="#ffffff" width="208.0" x="-257.5"/>
            <rect height="19.0" y="90.2" fill="#ffffff" width="52.0" x="-179.5"/>
            <text style="fill:#191919;font-family:Microsoft YaHei;font-size:10.00pt" xml:space="preserve">
                <tspan y="86.2" x="-257.5">元代没有恢复具有封驳权的门下省，</tspan>
                <tspan y="105.2" x="-179.5">不设谏官</tspan>
            </text>
        </g>
        <g id="shape45" transform="translate(230.35,2353.00)">
            <path fill-rule="nonzero" d="M.0,.0L169.0,.0L169.0,70.3L.0,70.3L.0,.0z" stroke="#323232" fill="#ffffff"/>
            <text style="fill:#191919;font-family:Microsoft YaHei;font-size:10.00pt" xml:space="preserve">
                <tspan y="41.0" x="78.0">明</tspan>
            </text>
        </g>
        <g id="shape46" transform="translate(658.22,2353.00)">
            <path fill-rule="nonzero" d="M.0,.0L276.8,.0L276.8,70.3L.0,70.3L.0,.0z" stroke="#323232" fill="#ffffff"/>
            <text style="fill:#191919;font-family:Microsoft YaHei;font-size:10.00pt" xml:space="preserve">
                <tspan y="41.0" x="125.4">仆人</tspan>
            </text>
        </g>
        <g id="shape47" transform="translate(797.53,2044.80)">
            <path d="M.0,.0L.0,302.2" stroke="#191919" stroke-dasharray="6,4" fill="none"/>
            <path stroke-width="1" d="M3.0,302.2L.0,308.2L-3.0,302.2L3.0,302.2" stroke="#191919" stroke-linecap="round" fill="#191919"/>
        </g>
        <g id="shape48" transform="translate(315.39,2044.80)">
            <path d="M.0,.0L.0,302.2" stroke="#191919" stroke-dasharray="6,4" fill="none"/>
            <path stroke-width="1" d="M3.0,302.2L.0,308.2L-3.0,302.2L3.0,302.2" stroke="#191919" stroke-linecap="round" fill="#191919"/>
        </g>
        <g id="shape49" transform="translate(399.30,2388.49)">
            <path d="M.0,.0L252.9,.0" stroke="#191919" fill="none"/>
            <path stroke-width="1" d="M252.9,-3.0L258.9,.0L252.9,3.0L252.9,-3.0" stroke="#191919" stroke-linecap="round" fill="#191919"/>
            <rect height="19.0" y="-9.5" fill="#ffffff" width="91.0" x="79.7"/>
            <text style="fill:#191919;font-family:Microsoft YaHei;font-size:10.00pt" xml:space="preserve">
                <tspan y="5.5" x="79.7">废掉宰相和相权</tspan>
            </text>
        </g>
        <g id="shape50" transform="translate(230.35,2650.70)">
            <path fill-rule="nonzero" d="M.0,.0L169.0,.0L169.0,70.3L.0,70.3L.0,.0z" stroke="#323232" fill="#ffffff"/>
            <text style="fill:#191919;font-family:Microsoft YaHei;font-size:10.00pt" xml:space="preserve">
                <tspan y="41.0" x="78.0">清</tspan>
            </text>
        </g>
        <g id="shape51" transform="translate(658.22,2650.70)">
            <path fill-rule="nonzero" d="M.0,.0L276.8,.0L276.8,70.3L.0,70.3L.0,.0z" stroke="#323232" fill="#ffffff"/>
            <text style="fill:#191919;font-family:Microsoft YaHei;font-size:10.00pt" xml:space="preserve">
                <tspan y="41.0" x="125.4">奴才</tspan>
            </text>
        </g>
        <g id="shape52" transform="translate(315.39,2423.30)">
            <path d="M.0,.0L.0,221.4" stroke="#191919" stroke-dasharray="6,4" fill="none"/>
            <path stroke-width="1" d="M3.0,221.4L.0,227.4L-3.0,221.4L3.0,221.4" stroke="#191919" stroke-linecap="round" fill="#191919"/>
        </g>
        <g id="shape53" transform="translate(797.53,2423.30)">
            <path d="M.0,.0L.0,221.4" stroke="#191919" stroke-dasharray="6,4" fill="none"/>
            <path stroke-width="1" d="M3.0,221.4L.0,227.4L-3.0,221.4L3.0,221.4" stroke="#191919" stroke-linecap="round" fill="#191919"/>
        </g>
        <g id="shape54" transform="translate(409.00,2415.00)">
            <text style="fill:#191919;font-family:Microsoft YaHei;font-size:10.00pt" xml:space="preserve">
                <tspan y="23.0" x="4.5">唐宋两朝对大臣, 基本不用污辱性刑罚，</tspan>
                <tspan y="42.0" x="4.5">宋代更是“待士大夫有礼莫如本朝”。</tspan>
                <tspan y="61.0" x="4.5">而元朝皇帝有一个习惯，用鞭子打大臣。</tspan>
                <tspan y="80.0" x="4.5"></tspan>
                <tspan y="99.0" x="4.5">这种制度到了明代，被发扬光大成了“廷杖”。</tspan>
                <tspan y="118.0" x="4.5">明代皇帝一不高兴，就把大臣按到地上，</tspan>
                <tspan y="137.0" x="4.5">脱下裤子，打一顿板子，</tspan>
                <tspan y="156.0" x="4.5">大臣们在皇帝面前毫无尊严。</tspan>
            </text>
        </g>
        <g id="shape55" transform="translate(967.00,1958.00)">
            <text style="fill:#191919;font-family:Microsoft YaHei;font-size:10.00pt" xml:space="preserve">
                <tspan style="fill:#c00000" y="23.0" x="4.0">正是大致在中国的元代，西方开始发力超越中</tspan>
                <tspan style="fill:#c00000" y="42.0" x="4.0">国。</tspan>
                <tspan y="61.0" x="4.0">西方从中世纪后期开始，经济曲线迅速升起，</tspan>
                <tspan y="97.0" x="4.0">- 到了1300年，也就是元朝建立之后不久，中</tspan>
                <tspan y="116.0" x="4.0">国人的生活水平就已经落后于意大利地区。</tspan>
                <tspan y="152.0" x="4.0">- </tspan>
                <tspan style="fill:#c00000" x="14.0">到1400年，也就是明代建立不久，又被英国</tspan>
                <tspan style="fill:#c00000" y="171.0" x="4.0">超越了。</tspan>
                <tspan y="190.0" x="4.0">- 16世纪时，英国一个农民家庭每年生产的粮</tspan>
                <tspan y="209.0" x="4.0">食是5007公斤，而中国明代农业最发达的地区</tspan>
                <tspan y="228.0" x="4.0">江南，一户农民也不过生产2173公斤。</tspan>
                <tspan y="247.0" x="4.0">也就是说，中国最富有地区户均粮食产量不到</tspan>
                <tspan y="266.0" x="4.0">英国的一半。</tspan>
                <tspan y="304.0" x="4.0">- </tspan>
                <tspan style="fill:#c00000" x="14.0">到了1750年，也就是中国“康乾盛世”的顶</tspan>
                <tspan style="fill:#c00000" y="323.0" x="4.0">峰，中国从整体上已经远远落后于西欧了。</tspan>
            </text>
        </g>
        <g id="shape56" transform="translate(399.30,2686.19)">
            <path d="M.0,.0L252.9,.0" stroke="#191919" fill="none"/>
            <path stroke-width="1" d="M252.9,-3.0L258.9,.0L252.9,3.0L252.9,-3.0" stroke="#191919" stroke-linecap="round" fill="#191919"/>
            <rect height="19.0" y="-38.0" fill="#ffffff" width="174.0" x="39.2"/>
            <rect height="19.0" y="-19.0" fill="#ffffff" width="120.0" x="65.2"/>
            <rect height="19.0" y="0.0" fill="#ffffff" width="156.0" x="47.2"/>
            <rect height="19.0" y="19.0" fill="#ffffff" width="130.0" x="60.2"/>
            <text style="fill:#191919;font-family:Microsoft YaHei;font-size:10.00pt" xml:space="preserve">
                <tspan y="-23.0" x="39.2">清朝基本上把明代的政治制度, </tspan>
                <tspan y="-4.0" x="65.2">原封不动地继承下来.</tspan>
                <tspan y="15.0" x="47.2">清代对朱元璋制度的发展，</tspan>
                <tspan y="34.0" x="60.2">主要体现在文字狱上。</tspan>
            </text>
        </g>
    </g>
</svg>
