<svg height="663" xmlns="http://www.w3.org/2000/svg" width="861" viewBox="0 0 861 663" xmlns:xlink="http://www.w3.org/1999/xlink">
    <defs/>
    <g transform="translate(-123.00,-221.50)">
        <g id="shape1" transform="translate(541.00,222.50)">
            <path fill-rule="nonzero" fill="#ffffff" stroke="#323232" d="M.0,.0L128.0,.0L128.0,47.0L.0,47.0L.0,.0z"/>
            <text xml:space="preserve" style="fill:#191919;font-family:Microsoft YaHei;font-size:10.00pt">
                <tspan y="29.0" x="18.5">官营企业的弊端</tspan>
            </text>
        </g>
        <g id="shape2" transform="translate(154.00,448.50)">
            <path fill-rule="nonzero" fill="#ffffff" stroke="#323232" d="M.0,.0L128.0,.0L128.0,47.0L.0,47.0L.0,.0z"/>
            <text xml:space="preserve" style="fill:#191919;font-family:Microsoft YaHei;font-size:10.00pt">
                <tspan y="29.0" x="31.5">产品开发上</tspan>
            </text>
        </g>
        <g id="shape3" transform="translate(496.00,335.50)">
            <path fill-rule="nonzero" fill="#efefef" stroke="#323232" d="M.0,.0L128.0,.0L128.0,47.0L.0,47.0L.0,.0z"/>
            <text xml:space="preserve" style="fill:#191919;font-family:Microsoft YaHei;font-size:10.00pt">
                <tspan y="29.0" x="31.5">销售服务上</tspan>
            </text>
        </g>
        <g id="shape4" transform="translate(154.00,609.50)">
            <path fill-rule="nonzero" fill="#ffffff" stroke="#323232" d="M.0,.0L128.0,.0L128.0,47.0L.0,47.0L.0,.0z"/>
            <text xml:space="preserve" style="fill:#191919;font-family:Microsoft YaHei;font-size:10.00pt">
                <tspan y="19.5" x="38.0">产品设计</tspan>
                <tspan y="38.5" x="44.5">不合理</tspan>
            </text>
        </g>
        <g id="shape5" transform="translate(218.00,495.50)">
            <path stroke="#191919" fill="none" d="M.0,.0L.0,108.0"/>
            <path fill="#191919" stroke="#191919" d="M3.0,108.0L.0,114.0L-3.0,108.0L3.0,108.0" stroke-linecap="round" stroke-width="1"/>
            <rect y="25.4" height="19.0" width="163.0" fill="#ffffff" x="-80.5"/>
            <rect y="44.4" height="19.0" width="104.0" fill="#ffffff" x="-51.0"/>
            <rect y="63.4" height="19.0" width="180.0" fill="#ffffff" x="-89.0"/>
            <text xml:space="preserve" style="fill:#191919;font-family:Microsoft YaHei;font-size:10.00pt">
                <tspan y="40.4" x="-80.5">官营生产，是为了自己方便, </tspan>
                <tspan y="59.4" x="-51.0">而不是百姓方便，</tspan>
                <tspan y="78.4" x="-89.0">不考虑百姓各地需要的多样化.  </tspan>
            </text>
        </g>
        <g id="shape6" transform="translate(486.50,450.25)">
            <path fill-rule="nonzero" fill="#ffffff" stroke="#323232" d="M.0,.0L147.0,.0L147.0,69.5L.0,69.5L.0,.0z"/>
            <text xml:space="preserve" style="fill:#191919;font-family:Microsoft YaHei;font-size:10.00pt">
                <tspan y="21.3" x="20.0">消费者无挑选余地,</tspan>
                <tspan y="40.3" x="39.5">好坏不能挑, </tspan>
                <tspan y="59.3" x="8.5">拿给你什么就是什么。</tspan>
            </text>
        </g>
        <g id="shape7" transform="translate(241.00,335.50)">
            <path fill-rule="nonzero" fill="#efefef" stroke="#323232" d="M.0,.0L128.0,.0L128.0,47.0L.0,47.0L.0,.0z"/>
            <text xml:space="preserve" style="fill:#191919;font-family:Microsoft YaHei;font-size:10.00pt">
                <tspan y="29.0" x="44.5">产品上</tspan>
            </text>
        </g>
        <g id="shape8" transform="translate(324.00,448.50)">
            <path fill-rule="nonzero" fill="#ffffff" stroke="#323232" d="M.0,.0L128.0,.0L128.0,47.0L.0,47.0L.0,.0z"/>
            <text xml:space="preserve" style="fill:#191919;font-family:Microsoft YaHei;font-size:10.00pt">
                <tspan y="29.0" x="25.0">产品竞争力上</tspan>
            </text>
        </g>
        <g id="shape9" transform="translate(324.00,609.50)">
            <path fill-rule="nonzero" fill="#ffffff" stroke="#323232" d="M.0,.0L128.0,.0L128.0,47.0L.0,47.0L.0,.0z"/>
            <text xml:space="preserve" style="fill:#191919;font-family:Microsoft YaHei;font-size:10.00pt">
                <tspan y="29.0" x="21.5">质量差, 价格高</tspan>
            </text>
        </g>
        <g id="shape10" transform="translate(388.00,495.50)">
            <path stroke="#191919" fill="none" d="M.0,.0L.0,108.0"/>
            <path fill="#191919" stroke="#191919" d="M3.0,108.0L.0,114.0L-3.0,108.0L3.0,108.0" stroke-linecap="round" stroke-width="1"/>
            <rect y="39.8" height="19.0" width="130.0" fill="#ffffff" x="-64.0"/>
            <rect y="58.8" height="19.0" width="133.0" fill="#ffffff" x="-65.5"/>
            <text xml:space="preserve" style="fill:#191919;font-family:Microsoft YaHei;font-size:10.00pt">
                <tspan y="54.8" x="-64.0">工人，就是“卒徒”，</tspan>
                <tspan y="73.8" x="-65.5">不存在商业上的责任心.</tspan>
            </text>
        </g>
        <g id="shape11" transform="translate(661.00,335.50)">
            <path fill-rule="nonzero" fill="#efefef" stroke="#323232" d="M.0,.0L128.0,.0L128.0,47.0L.0,47.0L.0,.0z"/>
            <text xml:space="preserve" style="fill:#191919;font-family:Microsoft YaHei;font-size:10.00pt">
                <tspan y="29.0" x="31.5">销售渠道上</tspan>
            </text>
        </g>
        <g id="shape12" transform="translate(661.00,448.50)">
            <path fill-rule="nonzero" fill="#ffffff" stroke="#323232" d="M.0,.0L128.0,.0L128.0,73.0L.0,73.0L.0,.0z"/>
            <text xml:space="preserve" style="fill:#191919;font-family:Microsoft YaHei;font-size:10.00pt">
                <tspan y="23.0" x="31.5">穷乡僻壤处</tspan>
                <tspan y="42.0" x="30.0">不开发渠道, </tspan>
                <tspan y="61.0" x="25.0">百姓买不到货</tspan>
            </text>
        </g>
        <g id="shape13" transform="translate(831.00,335.50)">
            <path fill-rule="nonzero" fill="#efefef" stroke="#323232" d="M.0,.0L128.0,.0L128.0,47.0L.0,47.0L.0,.0z"/>
            <text xml:space="preserve" style="fill:#191919;font-family:Microsoft YaHei;font-size:10.00pt">
                <tspan y="29.0" x="31.5">销售考核上</tspan>
            </text>
        </g>
        <g id="shape14" transform="translate(305.00,382.50)">
            <path stroke="#191919" fill="none" d="M.0,.0L.0,34.0L-87.0,34.0L-87.0,60.0"/>
            <path fill="#191919" stroke="#191919" d="M-84.0,60.0L-87.0,66.0L-90.0,60.0L-84.0,60.0" stroke-linecap="round" stroke-width="1"/>
        </g>
        <g id="shape15" transform="translate(305.00,382.50)">
            <path stroke="#191919" fill="none" d="M.0,.0L.0,34.0L83.0,34.0L83.0,60.0"/>
            <path fill="#191919" stroke="#191919" d="M86.0,60.0L83.0,66.0L80.0,60.0L86.0,60.0" stroke-linecap="round" stroke-width="1"/>
        </g>
        <g id="shape16" transform="translate(560.00,382.50)">
            <path stroke="#191919" fill="none" d="M.0,.0L.0,61.8"/>
            <path fill="#191919" stroke="#191919" d="M3.0,61.8L.0,67.8L-3.0,61.8L3.0,61.8" stroke-linecap="round" stroke-width="1"/>
        </g>
        <g id="shape17" transform="translate(725.00,382.50)">
            <path stroke="#191919" fill="none" d="M.0,.0L.0,60.0"/>
            <path fill="#191919" stroke="#191919" d="M3.0,60.0L.0,66.0L-3.0,60.0L3.0,60.0" stroke-linecap="round" stroke-width="1"/>
        </g>
        <g id="shape18" transform="translate(605.00,269.50)">
            <path stroke="#191919" fill="none" d="M.0,.0L.0,34.0L-300.0,34.0L-300.0,60.0"/>
            <path fill="#191919" stroke="#191919" d="M-297.0,60.0L-300.0,66.0L-303.0,60.0L-297.0,60.0" stroke-linecap="round" stroke-width="1"/>
        </g>
        <g id="shape19" transform="translate(605.00,269.50)">
            <path stroke="#191919" fill="none" d="M.0,.0L.0,34.0L120.0,34.0L120.0,60.0"/>
            <path fill="#191919" stroke="#191919" d="M123.0,60.0L120.0,66.0L117.0,60.0L123.0,60.0" stroke-linecap="round" stroke-width="1"/>
        </g>
        <g id="shape20" transform="translate(605.00,269.50)">
            <path stroke="#191919" fill="none" d="M.0,.0L.0,34.0L-45.0,34.0L-45.0,60.0"/>
            <path fill="#191919" stroke="#191919" d="M-42.0,60.0L-45.0,66.0L-48.0,60.0L-42.0,60.0" stroke-linecap="round" stroke-width="1"/>
        </g>
        <g id="shape21" transform="translate(605.00,269.50)">
            <path stroke="#191919" fill="none" d="M.0,.0L.0,34.0L290.0,34.0L290.0,60.0"/>
            <path fill="#191919" stroke="#191919" d="M293.0,60.0L290.0,66.0L287.0,60.0L293.0,60.0" stroke-linecap="round" stroke-width="1"/>
        </g>
        <g id="shape22" transform="translate(541.00,728.20)">
            <path fill-rule="nonzero" fill="#ffffff" stroke="#323232" d="M.0,.0L128.0,.0L128.0,47.0L.0,47.0L.0,.0z"/>
            <text xml:space="preserve" style="fill:#191919;font-family:Microsoft YaHei;font-size:10.00pt">
                <tspan y="29.0" x="15.0">竞争力差, 销量差</tspan>
            </text>
        </g>
        <g id="shape23" transform="translate(541.00,836.45)">
            <path fill-rule="nonzero" fill="#ffffff" stroke="#323232" d="M.0,.0L128.0,.0L128.0,47.0L.0,47.0L.0,.0z"/>
            <text xml:space="preserve" style="fill:#191919;font-family:Microsoft YaHei;font-size:10.00pt">
                <tspan y="29.0" x="25.0">加重百姓负担</tspan>
            </text>
        </g>
        <g id="shape24" transform="translate(218.00,656.50)">
            <path stroke="#191919" fill="none" d="M.0,.0L.0,39.7L387.0,39.7L387.0,65.7"/>
            <path fill="#191919" stroke="#191919" d="M390.0,65.7L387.0,71.7L384.0,65.7L390.0,65.7" stroke-linecap="round" stroke-width="1"/>
        </g>
        <g id="shape25" transform="translate(388.00,656.50)">
            <path stroke="#191919" fill="none" d="M.0,.0L.0,39.7L217.0,39.7L217.0,65.7"/>
            <path fill="#191919" stroke="#191919" d="M220.0,65.7L217.0,71.7L214.0,65.7L220.0,65.7" stroke-linecap="round" stroke-width="1"/>
        </g>
        <g id="shape26" transform="translate(895.00,382.50)">
            <path stroke="#191919" fill="none" d="M.0,.0L.0,313.7L-290.0,313.7L-290.0,339.7"/>
            <path fill="#191919" stroke="#191919" d="M-287.0,339.7L-290.0,345.7L-293.0,339.7L-287.0,339.7" stroke-linecap="round" stroke-width="1"/>
        </g>
        <g id="shape27" transform="translate(605.00,775.20)">
            <path stroke="#191919" fill="none" d="M.0,.0L.0,55.3"/>
            <path fill="#191919" stroke="#191919" d="M3.0,55.3L.0,61.3L-3.0,55.3L3.0,55.3" stroke-linecap="round" stroke-width="1"/>
            <rect y="22.0" height="19.0" width="52.0" fill="#ffffff" x="-25.0"/>
            <text xml:space="preserve" style="fill:#191919;font-family:Microsoft YaHei;font-size:10.00pt">
                <tspan y="37.0" x="-25.0">强制摊派</tspan>
            </text>
        </g>
        <g id="shape28" transform="translate(725.00,521.50)">
            <path stroke="#191919" fill="none" d="M.0,.0L.0,174.7L-120.0,174.7L-120.0,200.7"/>
            <path fill="#191919" stroke="#191919" d="M-117.0,200.7L-120.0,206.7L-123.0,200.7L-117.0,200.7" stroke-linecap="round" stroke-width="1"/>
            <rect y="66.2" height="19.0" width="133.0" fill="#ffffff" x="-65.5"/>
            <rect y="85.2" height="19.0" width="150.0" fill="#ffffff" x="-74.0"/>
            <text xml:space="preserve" style="fill:#191919;font-family:Microsoft YaHei;font-size:10.00pt">
                <tspan y="81.2" x="-65.5">即使他们“送盐下乡”,</tspan>
                <tspan y="100.2" x="-74.0"> 必索百姓供应，吃拿卡要.</tspan>
            </text>
        </g>
        <g id="shape29" transform="translate(690.00,836.45)">
            <text xml:space="preserve" style="fill:#191919;font-family:Microsoft YaHei;font-size:10.00pt">
                <tspan y="19.5" x="4.0">“官吏畏罪，必用威刑…… 百姓转致流散”。</tspan>
                <tspan y="38.5" x="4.0">百姓无钱还债，只有逃亡一条路。</tspan>
            </text>
        </g>
    </g>
</svg>
