<svg viewBox="0 0 478 316" width="478" height="316" xmlns:xlink="http://www.w3.org/1999/xlink" xmlns="http://www.w3.org/2000/svg">
    <defs/>
    <g transform="translate(-345.50,-169.00)">
        <g id="shape1" transform="translate(522.00,201.50)">
            <path d="M139.0,73.0L139.0,.0L.0,.0L.0,73.0L139.0,73.0z" fill-rule="nonzero" fill="#ffffff" stroke="#323232"/>
            <text xml:space="preserve" style="fill:#191919;font-family:Microsoft YaHei;font-size:10.00pt">
                <tspan y="23.0" x="17.5">半君主立宪制政体</tspan>
                <tspan y="42.0" x="13.5">(二元制君主立宪制)</tspan>
                <tspan y="61.0" x="56.5">德国</tspan>
            </text>
        </g>
        <g id="shape2" transform="translate(531.50,170.00)">
            <text xml:space="preserve" style="fill:#191919;font-family:Microsoft YaHei;font-size:10.00pt">
                <tspan y="18.3" x="14.5">半威权、半民主</tspan>
            </text>
        </g>
        <g id="shape3" transform="translate(617.00,369.00)">
            <path d="M139.0,35.0L139.0,.0L.0,.0L.0,35.0L139.0,35.0z" fill-rule="nonzero" fill="#ffffff" stroke="#323232"/>
            <text xml:space="preserve" style="fill:#191919;font-family:Microsoft YaHei;font-size:10.00pt">
                <tspan y="23.0" x="51.0">2.皇帝</tspan>
            </text>
        </g>
        <g id="shape4" transform="translate(652.25,444.00)">
            <path d="M69.5,35.0L69.5,.0L.0,.0L.0,35.0L69.5,35.0z" fill-rule="nonzero" fill="#d7d7d7" stroke="#323232"/>
            <text xml:space="preserve" style="fill:#191919;font-family:Microsoft YaHei;font-size:10.00pt">
                <tspan y="23.0" x="21.8">内阁</tspan>
            </text>
        </g>
        <g id="shape5" transform="translate(752.50,444.00)">
            <path d="M69.5,35.0L69.5,.0L.0,.0L.0,35.0L69.5,35.0z" fill-rule="nonzero" fill="#ffffff" stroke="#323232"/>
            <text xml:space="preserve" style="fill:#191919;font-family:Microsoft YaHei;font-size:10.00pt">
                <tspan y="23.0" x="21.8">军队</tspan>
            </text>
        </g>
        <g id="shape6" transform="translate(522.00,303.50)">
            <path d="M139.0,35.0L139.0,.0L.0,.0L.0,35.0L139.0,35.0z" fill-rule="nonzero" fill="#d7d7d7" stroke="#323232"/>
            <text xml:space="preserve" style="fill:#191919;font-family:Microsoft YaHei;font-size:10.00pt">
                <tspan y="23.0" x="56.5">宪法</tspan>
            </text>
        </g>
        <g id="shape7" transform="translate(346.50,360.50)">
            <path d="M139.0,35.0L139.0,.0L.0,.0L.0,35.0L139.0,35.0z" fill-rule="nonzero" fill="#d7d7d7" stroke="#323232"/>
            <text xml:space="preserve" style="fill:#191919;font-family:Microsoft YaHei;font-size:10.00pt">
                <tspan y="23.0" x="51.0">1.议会</tspan>
            </text>
        </g>
        <g id="shape8" transform="translate(346.50,303.50)">
            <path d="M139.0,35.0L139.0,.0L.0,.0L.0,35.0L139.0,35.0z" fill-rule="nonzero" fill="#ffffff" stroke="#323232"/>
            <text xml:space="preserve" style="fill:#191919;font-family:Microsoft YaHei;font-size:10.00pt">
                <tspan y="23.0" x="56.5">选民</tspan>
            </text>
        </g>
        <g id="shape9" transform="translate(591.50,274.50)">
            <path d="M.0,.0L.0,23.0" stroke="#191919" fill="none"/>
            <path d="M3.0,23.0L.0,29.0L-3.0,23.0L3.0,23.0" stroke-linecap="round" fill="#191919" stroke="#191919" stroke-width="1"/>
        </g>
        <g id="shape10" transform="translate(416.00,338.50)">
            <path d="M.0,.0L.0,16.0" stroke="#191919" fill="none"/>
            <path d="M3.0,16.0L.0,22.0L-3.0,16.0L3.0,16.0" stroke-linecap="round" fill="#191919" stroke="#191919" stroke-width="1"/>
        </g>
        <g id="shape11" transform="translate(591.50,338.50)">
            <path d="M.0,.0L.0,14.5L95.0,14.5L95.0,24.5" stroke="#191919" fill="none"/>
            <path d="M98.0,24.5L95.0,30.5L92.0,24.5L98.0,24.5" stroke-linecap="round" fill="#191919" stroke="#191919" stroke-width="1"/>
        </g>
        <g id="shape12" transform="translate(686.50,404.00)">
            <path d="M.0,.0L.0,24.0L.5,24.0L.5,34.0" stroke="#191919" fill="none"/>
            <path d="M3.5,34.0L.5,40.0L-2.5,34.0L3.5,34.0" stroke-linecap="round" fill="#191919" stroke="#191919" stroke-width="1"/>
        </g>
        <g id="shape13" transform="translate(707.26,404.00)">
            <path d="M.0,.0L.0,24.0L80.0,24.0L80.0,34.0" stroke="#191919" fill="none"/>
            <path d="M83.0,34.0L80.0,40.0L77.0,34.0L83.0,34.0" stroke-linecap="round" fill="#191919" stroke="#191919" stroke-width="1"/>
        </g>
        <g id="shape14" transform="translate(416.00,395.50)">
            <path d="M.0,.0L.0,66.0L230.3,66.0" stroke="#191919" fill="none"/>
            <path d="M230.3,63.0L236.3,66.0L230.3,69.0L230.3,63.0" stroke-linecap="round" fill="#191919" stroke="#191919" stroke-width="1"/>
            <rect y="47.0" width="104.0" height="19.0" x="42.3" fill="#ffffff"/>
            <rect y="66.0" width="52.0" height="19.0" x="68.3" fill="#ffffff"/>
            <text xml:space="preserve" style="fill:#191919;font-family:Microsoft YaHei;font-size:10.00pt">
                <tspan y="62.0" x="42.3">有对政府财政预算</tspan>
                <tspan y="81.0" x="68.3">的审批权</tspan>
            </text>
        </g>
        <g id="shape15" transform="translate(495.25,357.00)">
            <text xml:space="preserve" style="fill:#191919;font-family:Microsoft YaHei;font-size:10.00pt">
                <tspan y="23.3" x="32.0">← 相当于</tspan>
                <tspan y="42.3" x="25.5">二权分立 →</tspan>
            </text>
        </g>
    </g>
</svg>
