<svg id="图层_1" data-name="图层 1" xmlns="http://www.w3.org/2000/svg" viewBox="0 0 171.67 189.47"><defs><style>.cls-1{fill:#5893c9;}.cls-1,.cls-3,.cls-4,.cls-5{fill-rule:evenodd;}.cls-12,.cls-2{fill:none;stroke-linejoin:round;}.cls-2{stroke:#fff;stroke-width:1.44px;}.cls-3{fill:#e37933;}.cls-4{fill:#a5a5a5;}.cls-5{fill:#f5ba1a;}.cls-11,.cls-6{font-size:9px;}.cls-6{fill:#404040;}.cls-11,.cls-6,.cls-9{font-family:MicrosoftYaHei, Microsoft YaHei;}.cls-7{letter-spacing:0.01em;}.cls-8{letter-spacing:0em;}.cls-9{font-size:8.31px;}.cls-11,.cls-9{fill:#585959;}.cls-10{letter-spacing:0em;}.cls-12{stroke:#d9d9d9;stroke-width:0.67px;}</style></defs><path class="cls-1" d="M297.6,422.81l36.3,50A61.79,61.79,0,0,0,297.65,361.1l0,61.71Z" transform="translate(-211.79 -335.26)"/><path class="cls-2" d="M297.6,422.81l36.3,50A61.79,61.79,0,0,0,297.65,361.1l0,61.71Z" transform="translate(-211.79 -335.26)"/><path class="cls-3" d="M297.6,422.81,237,411.21a63.2,63.2,0,0,0-1.07,11.6,61.84,61.84,0,0,0,98,50l-36.3-50Z" transform="translate(-211.79 -335.26)"/><path class="cls-2" d="M297.6,422.81,237,411.21a63.2,63.2,0,0,0-1.07,11.6,61.84,61.84,0,0,0,98,50l-36.3-50Z" transform="translate(-211.79 -335.26)"/><path class="cls-4" d="M297.6,422.81l-36.3-50A61.35,61.35,0,0,0,237,411.21l60.64,11.6Z" transform="translate(-211.79 -335.26)"/><path class="cls-2" d="M297.6,422.81l-36.3-50A61.35,61.35,0,0,0,237,411.21l60.64,11.6Z" transform="translate(-211.79 -335.26)"/><path class="cls-5" d="M297.6,422.81l-.05-61.71a61.66,61.66,0,0,0-36.27,11.69l36.32,50Z" transform="translate(-211.79 -335.26)"/><path class="cls-2" d="M297.6,422.81l-.05-61.71a61.66,61.66,0,0,0-36.27,11.69l36.32,50Z" transform="translate(-211.79 -335.26)"/><text class="cls-6" transform="translate(127.21 63.49)">a</text><text class="cls-6" transform="translate(121.68 74.53)"><tspan class="cls-7">40</tspan><tspan x="10.65" y="0">%</tspan></text><text class="cls-6" transform="translate(61.21 124.99)">b</text><text class="cls-6" transform="translate(55.69 136.04)"><tspan class="cls-8">38</tspan><tspan x="10.65" y="0">%</tspan></text><text class="cls-6" transform="translate(42.58 58.24)">c</text><text class="cls-6" transform="translate(36.94 69.29)"><tspan class="cls-8">12</tspan><tspan x="10.65" y="0">%</tspan></text><text class="cls-6" transform="translate(70.21 40.99)">d</text><text class="cls-6" transform="translate(64.69 52.03)"><tspan class="cls-8">10</tspan><tspan x="10.65" y="0">%</tspan></text><text class="cls-9" transform="translate(53.89 16.42)">国会共</text><text class="cls-9" transform="translate(78.83 16.42)"><tspan class="cls-10">10</tspan><tspan x="9.76" y="0">0</tspan></text><text class="cls-9" transform="translate(92.67 16.42)">个议席</text><text class="cls-11" transform="translate(60.62 181.91)">a</text><text class="cls-11" transform="translate(78.93 181.91)">b</text><text class="cls-11" transform="translate(97.23 181.91)">c</text><text class="cls-11" transform="translate(115.22 181.91)">d</text><polygon class="cls-12" points="0.34 0.34 171.34 0.34 171.34 189.14 0.34 189.14 0.34 0.34 0.34 0.34"/></svg>