<svg id="图层_1" data-name="图层 1" xmlns="http://www.w3.org/2000/svg" viewBox="0 0 210.8 150.68"><defs><style>.cls-1{font-size:11.82px;}.cls-1,.cls-2,.cls-9{fill:#231815;font-family:MicrosoftYaHei, Microsoft YaHei;}.cls-2{font-size:8px;}.cls-3{fill:#22ac38;}.cls-4{fill:#e83828;}.cls-5{fill:#2ea7e0;}.cls-6{fill:#601986;}.cls-7{fill:#a48b78;}.cls-8{fill:#fff100;}.cls-9{font-size:16.25px;}.cls-10{fill:none;stroke:#231815;stroke-miterlimit:10;stroke-width:0.25px;}</style></defs><text class="cls-1" transform="translate(0.12 19.5)">一轮多数制</text><text class="cls-1" transform="translate(0 115.5)">两轮多数制</text><text class="cls-2" transform="translate(79.24 148.64)"><tspan xml:space="preserve"> 政党联盟</tspan></text><text class="cls-2" transform="translate(168.83 148.64)"><tspan xml:space="preserve"> 政党联盟</tspan></text><path class="cls-3" d="M280.08,286.29a5.13,5.13,0,1,0,5.13-5.13,5.13,5.13,0,0,0-5.13,5.13Zm0,0" transform="translate(-193.6 -281.16)"/><path class="cls-3" d="M285.21,292.55a10.55,10.55,0,0,0-10.82,10.26c0,.81,2.45.9,5.69.88v10a5.13,5.13,0,0,0,10.26,0v-10c3.24,0,5.69-.07,5.69-.88a10.55,10.55,0,0,0-10.82-10.26Zm0,0" transform="translate(-193.6 -281.16)"/><path class="cls-4" d="M316.35,290.43a4.47,4.47,0,1,0,4.47-4.47,4.47,4.47,0,0,0-4.47,4.47Zm0,0" transform="translate(-193.6 -281.16)"/><path class="cls-4" d="M320.82,295.9a9.2,9.2,0,0,0-9.44,8.94c0,.71,2.14.79,5,.77v8.71a4.47,4.47,0,0,0,8.94,0v-8.71c2.84,0,5-.06,5-.77a9.19,9.19,0,0,0-9.44-8.94Zm0,0" transform="translate(-193.6 -281.16)"/><path class="cls-5" d="M347.23,305.17a2.15,2.15,0,1,0,2.15-2.14,2.15,2.15,0,0,0-2.15,2.14Zm0,0" transform="translate(-193.6 -281.16)"/><path class="cls-5" d="M349.38,307.79a4.41,4.41,0,0,0-4.53,4.29c0,.34,1,.38,2.38.37v4.18a2.15,2.15,0,0,0,4.29,0v-4.18c1.36,0,2.38,0,2.38-.37a4.41,4.41,0,0,0-4.52-4.29Zm0,0" transform="translate(-193.6 -281.16)"/><path class="cls-6" d="M360.3,308.21a1.67,1.67,0,1,0,3.33,0,1.67,1.67,0,0,0-3.33,0Zm0,0" transform="translate(-193.6 -281.16)"/><path class="cls-6" d="M362,310.25a3.43,3.43,0,0,0-3.52,3.33c0,.26.8.29,1.85.28v3.24a1.67,1.67,0,0,0,3.33,0v-3.24c1.06,0,1.85,0,1.85-.28a3.42,3.42,0,0,0-3.51-3.33Zm0,0" transform="translate(-193.6 -281.16)"/><path class="cls-7" d="M379.33,310.69a1.28,1.28,0,1,0,1.27-1.28,1.27,1.27,0,0,0-1.27,1.28Zm0,0" transform="translate(-193.6 -281.16)"/><path class="cls-7" d="M380.6,312.25a2.62,2.62,0,0,0-2.69,2.54c0,.21.61.23,1.42.22v2.48a1.28,1.28,0,0,0,2.55,0V315c.8,0,1.41,0,1.41-.22a2.62,2.62,0,0,0-2.69-2.54Zm0,0" transform="translate(-193.6 -281.16)"/><path class="cls-8" d="M387.09,312.49a1,1,0,1,0,1-1,1,1,0,0,0-1,1Zm0,0" transform="translate(-193.6 -281.16)"/><path class="cls-8" d="M388.08,313.7a2,2,0,0,0-2.08,2c0,.16.47.18,1.09.17v1.93a1,1,0,0,0,2,0v-1.93c.63,0,1.1,0,1.1-.17a2,2,0,0,0-2.09-2Zm0,0" transform="translate(-193.6 -281.16)"/><path class="cls-3" d="M280.08,377.35a5.13,5.13,0,1,0,5.13-5.13,5.13,5.13,0,0,0-5.13,5.13Zm0,0" transform="translate(-193.6 -281.16)"/><path class="cls-3" d="M285.21,383.61a10.55,10.55,0,0,0-10.82,10.26c0,.81,2.45.91,5.69.88v10a5.13,5.13,0,0,0,10.26,0v-10c3.24,0,5.69-.07,5.69-.88a10.55,10.55,0,0,0-10.82-10.26Zm0,0" transform="translate(-193.6 -281.16)"/><path class="cls-4" d="M363.16,381.49a4.48,4.48,0,1,0,4.47-4.47,4.48,4.48,0,0,0-4.47,4.47Zm0,0" transform="translate(-193.6 -281.16)"/><path class="cls-4" d="M367.63,387a9.21,9.21,0,0,0-9.44,9c0,.7,2.14.79,5,.76v8.71a4.48,4.48,0,0,0,8.95,0v-8.71c2.83,0,5-.06,5-.76a9.21,9.21,0,0,0-9.45-9Zm0,0" transform="translate(-193.6 -281.16)"/><path class="cls-5" d="M385.1,396.23a2.15,2.15,0,1,0,2.14-2.14,2.14,2.14,0,0,0-2.14,2.14Zm0,0" transform="translate(-193.6 -281.16)"/><path class="cls-5" d="M387.24,398.86a4.42,4.42,0,0,0-4.53,4.29c0,.34,1,.38,2.39.37v4.17a2.15,2.15,0,0,0,4.29,0v-4.17c1.36,0,2.38,0,2.38-.37a4.42,4.42,0,0,0-4.53-4.29Zm0,0" transform="translate(-193.6 -281.16)"/><path class="cls-6" d="M299.21,399.28a1.67,1.67,0,1,0,1.67-1.67,1.67,1.67,0,0,0-1.67,1.67Zm0,0" transform="translate(-193.6 -281.16)"/><path class="cls-6" d="M300.88,401.31a3.42,3.42,0,0,0-3.52,3.33c0,.26.8.3,1.85.29v3.24a1.67,1.67,0,0,0,3.33,0v-3.24c1.06,0,1.85,0,1.85-.29a3.42,3.42,0,0,0-3.51-3.33Zm0,0" transform="translate(-193.6 -281.16)"/><path class="cls-7" d="M395.86,401.75a1.28,1.28,0,1,0,1.28-1.27,1.27,1.27,0,0,0-1.28,1.27Zm0,0" transform="translate(-193.6 -281.16)"/><path class="cls-7" d="M397.14,403.31a2.62,2.62,0,0,0-2.69,2.55c0,.2.6.22,1.41.22v2.48a1.28,1.28,0,0,0,2.55,0v-2.48c.81,0,1.42,0,1.42-.22a2.63,2.63,0,0,0-2.69-2.55Zm0,0" transform="translate(-193.6 -281.16)"/><path class="cls-8" d="M307.82,403.56a1,1,0,1,0,1-1,1,1,0,0,0-1,1Zm0,0" transform="translate(-193.6 -281.16)"/><path class="cls-8" d="M308.81,404.77a2,2,0,0,0-2.09,2c0,.16.47.18,1.1.17v1.93a1,1,0,0,0,2,0v-1.93c.63,0,1.1,0,1.1-.17a2,2,0,0,0-2.09-2Zm0,0" transform="translate(-193.6 -281.16)"/><text class="cls-9" transform="translate(131.16 117.2)">vs</text><rect class="cls-10" x="72.55" y="83.86" width="51.73" height="51.73"/><rect class="cls-10" x="158.95" y="83.86" width="51.73" height="51.73"/></svg>