<svg xmlns:xlink="http://www.w3.org/1999/xlink" xmlns="http://www.w3.org/2000/svg" height="294" width="588" viewBox="0 0 588 294">
    <defs/>
    <g transform="translate(-339.00,-169.00)">
        <g id="shape1" transform="translate(556.50,170.00)">
            <text xml:space="preserve" style="fill:#191919;font-family:Microsoft YaHei;font-size:10.00pt">
                <tspan x="8.0" y="18.6">奥斯曼土耳其帝国</tspan>
            </text>
        </g>
        <g id="shape2" transform="translate(567.00,230.00)">
            <path d="M.0,.0L99.0,.0L99.0,60.0L.0,60.0L.0,.0z" fill-rule="nonzero" fill="#ffffff" stroke="#323232"/>
            <text xml:space="preserve" style="fill:#191919;font-family:Microsoft YaHei;font-size:10.00pt">
                <tspan x="19.5" y="26.0">君主(苏丹)</tspan>
                <tspan x="13.0" y="45.0">(改革阻力大)</tspan>
            </text>
        </g>
        <g id="shape3" transform="translate(468.00,312.00)">
            <path d="M.0,.0L99.0,.0L99.0,45.5L.0,45.5L.0,.0z" fill-rule="nonzero" fill="#ffffff" stroke="#323232"/>
            <text xml:space="preserve" style="fill:#191919;font-family:Microsoft YaHei;font-size:10.00pt">
                <tspan x="23.5" y="18.8">政府宰相</tspan>
                <tspan x="13.0" y="37.8">(有很大实权)</tspan>
            </text>
        </g>
        <g id="shape4" transform="translate(774.50,230.00)">
            <path d="M.0,.0L151.0,.0L151.0,60.0L.0,60.0L.0,.0z" fill-rule="nonzero" fill="#ffffff" stroke="#323232"/>
            <text xml:space="preserve" style="fill:#191919;font-family:Microsoft YaHei;font-size:10.00pt">
                <tspan x="62.5" y="16.5">军方</tspan>
                <tspan x="52.0" y="35.5">(近卫军)</tspan>
                <tspan x="19.5" y="54.5">(常常不为君主控制)</tspan>
            </text>
        </g>
        <g id="shape5" transform="translate(484.50,408.00)">
            <path d="M.0,.0L264.0,.0L264.0,54.0L.0,54.0L.0,.0z" fill-rule="nonzero" fill="#ffffff" stroke="#323232"/>
            <text xml:space="preserve" style="fill:#191919;font-family:Microsoft YaHei;font-size:10.00pt">
                <tspan x="119.0" y="23.0">地方</tspan>
                <tspan x="72.5" y="42.0">(有自治权, 之后独立)</tspan>
            </text>
        </g>
        <g id="shape6" transform="translate(567.00,260.00)">
            <path d="M.0,.0L-49.5,.0L-49.5,46.0" fill="none" stroke="#191919"/>
            <path stroke-width="1" d="M-46.5,46.0L-49.5,52.0L-52.5,46.0L-46.5,46.0" fill="#191919" stroke-linecap="round" stroke="#191919"/>
        </g>
        <g id="shape7" transform="translate(774.50,260.00)">
            <path d="M.0,.0L-102.5,.0" fill="none" stroke="#191919"/>
            <path stroke-width="1" d="M-102.5,3.0L-108.5,.0L-102.5,-3.0L-102.5,3.0" fill="#191919" stroke-linecap="round" stroke="#191919"/>
            <rect x="-58.5" y="-19.0" fill="#ffffff" height="19.0" width="26.0"/>
            <rect x="-58.5" y="0.0" fill="#ffffff" height="19.0" width="26.0"/>
            <text xml:space="preserve" style="fill:#191919;font-family:Microsoft YaHei;font-size:10.00pt">
                <tspan x="-58.5" y="-4.0">反对</tspan>
                <tspan x="-58.5" y="15.0">改革</tspan>
            </text>
        </g>
        <g id="shape8" transform="translate(774.50,312.00)">
            <path d="M.0,.0L99.0,.0L99.0,60.0L.0,60.0L.0,.0z" fill-rule="nonzero" fill="#ffffff" stroke="#323232"/>
            <text xml:space="preserve" style="fill:#191919;font-family:Microsoft YaHei;font-size:10.00pt">
                <tspan x="23.5" y="35.5">新式军队</tspan>
            </text>
        </g>
        <g id="shape9" transform="translate(616.50,290.00)">
            <path d="M.0,.0L.0,52.0L152.0,52.0" fill="none" stroke-dasharray="6,4" stroke="#191919"/>
            <path stroke-width="1" d="M152.0,49.0L158.0,52.0L152.0,55.0L152.0,49.0" fill="#191919" stroke-linecap="round" stroke="#191919"/>
            <rect x="52.3" y="42.5" fill="#ffffff" height="19.0" width="65.0"/>
            <text xml:space="preserve" style="fill:#191919;font-family:Microsoft YaHei;font-size:10.00pt">
                <tspan x="52.3" y="57.5">想改革建立</tspan>
            </text>
        </g>
        <g id="shape10" transform="translate(340.00,230.00)">
            <path d="M.0,.0L99.0,.0L99.0,73.0L.0,73.0L.0,.0z" fill-rule="nonzero" fill="#ffffff" stroke="#323232"/>
            <text xml:space="preserve" style="fill:#191919;font-family:Microsoft YaHei;font-size:10.00pt">
                <tspan x="23.5" y="23.0">宗教势力</tspan>
                <tspan x="15.0" y="42.0">(伊斯兰学者</tspan>
                <tspan x="28.0" y="61.0">乌理玛)</tspan>
            </text>
        </g>
        <g id="shape11" transform="translate(439.00,246.85)">
            <path d="M.0,.0L122.0,.0" fill="none" stroke="#191919"/>
            <path stroke-width="1" d="M122.0,-3.0L128.0,.0L122.0,3.0L122.0,-3.0" fill="#191919" stroke-linecap="round" stroke="#191919"/>
            <rect x="32.3" y="-19.0" fill="#ffffff" height="19.0" width="26.0"/>
            <rect x="32.3" y="0.0" fill="#ffffff" height="19.0" width="26.0"/>
            <text xml:space="preserve" style="fill:#191919;font-family:Microsoft YaHei;font-size:10.00pt">
                <tspan x="32.3" y="-4.0">反对</tspan>
                <tspan x="32.3" y="15.0">改革</tspan>
            </text>
        </g>
    </g>
</svg>
