<svg width="911" xmlns="http://www.w3.org/2000/svg" viewBox="0 0 911 523" xmlns:xlink="http://www.w3.org/1999/xlink" height="523">
    <defs/>
    <g transform="translate(-150.00,-630.70)">
        <g id="shape1" transform="translate(542.00,888.00)">
            <path fill-rule="nonzero" stroke="#323232" d="M92.3,70.0L92.3,.0L.0,.0L.0,70.0L92.3,70.0z" fill="#ffffff"/>
            <text style="fill:#191919;font-family:Microsoft YaHei;font-size:10.00pt" xml:space="preserve">
                <tspan y="31.0" x="13.6">新总统上任</tspan>
                <tspan y="50.0" x="12.1">(第3任总统)</tspan>
            </text>
        </g>
        <g id="shape2" transform="translate(630.00,888.00)">
            <path fill-rule="nonzero" stroke="#323232" d="M94.0,70.0L94.0,.0L.0,.0L.0,70.0L94.0,70.0z" fill="#d7d7d7"/>
            <text style="fill:#191919;font-family:Microsoft YaHei;font-size:10.00pt" xml:space="preserve">
                <tspan y="31.0" x="20.5">Madison</tspan>
                <tspan y="50.0" x="17.0">(新国务卿)</tspan>
            </text>
        </g>
        <g id="shape3" transform="translate(151.00,736.70)">
            <path fill-rule="nonzero" stroke="#323232" d="M120.0,47.0L120.0,.0L.0,.0L.0,47.0L120.0,47.0z" fill="#ffffff"/>
            <text style="fill:#191919;font-family:Microsoft YaHei;font-size:10.00pt" xml:space="preserve">
                <tspan y="19.5" x="26.0">约翰.亚当斯</tspan>
                <tspan y="38.5" x="23.5">(第二任总统)</tspan>
            </text>
        </g>
        <g id="shape4" transform="translate(349.00,723.70)">
            <path fill-rule="nonzero" stroke="#323232" d="M76.0,73.0L76.0,.0L.0,.0L.0,73.0L76.0,73.0z" fill="#ffffff"/>
            <text style="fill:#191919;font-family:Microsoft YaHei;font-size:10.00pt" xml:space="preserve">
                <tspan y="23.0" x="5.5">发出委任书</tspan>
                <tspan y="42.0" x="12.0">任命一批</tspan>
                <tspan y="61.0" x="5.5">地方治安官</tspan>
            </text>
        </g>
        <g id="shape5" transform="translate(271.00,760.20)">
            <path stroke="#191919" d="M.0,.0L72.0,.0" fill="none"/>
            <path stroke-width="1" stroke="#191919" d="M72.0,-3.0L78.0,.0L72.0,3.0L72.0,-3.0" stroke-linecap="round" fill="#191919"/>
            <rect width="39.0" y="-9.5" x="16.8" height="19.0" fill="#ffffff"/>
            <text style="fill:#191919;font-family:Microsoft YaHei;font-size:10.00pt" xml:space="preserve">
                <tspan y="5.5" x="16.8">卸任前</tspan>
            </text>
        </g>
        <g id="shape6" transform="translate(425.00,760.20)">
            <path stroke="#191919" d="M.0,.0L22.0,.0L22.0,-50.2L32.0,-50.2" fill="none"/>
            <path stroke-width="1" stroke="#191919" d="M32.0,-53.2L38.0,-50.2L32.0,-47.2L32.0,-53.2" stroke-linecap="round" fill="#191919"/>
        </g>
        <g id="shape7" transform="translate(463.00,683.00)">
            <path fill-rule="nonzero" stroke="#323232" d="M76.0,54.0L76.0,.0L.0,.0L.0,54.0L76.0,54.0z" fill="#ffffff"/>
            <text style="fill:#191919;font-family:Microsoft YaHei;font-size:10.00pt" xml:space="preserve">
                <tspan y="23.0" x="12.0">已发出的</tspan>
                <tspan y="42.0" x="18.5">委任书</tspan>
            </text>
        </g>
        <g id="shape8" transform="translate(630.00,766.10)">
            <path fill-rule="nonzero" stroke="#323232" d="M94.0,55.2L94.0,.0L.0,.0L.0,55.2L94.0,55.2z" fill="#ffffff"/>
            <text style="fill:#191919;font-family:Microsoft YaHei;font-size:10.00pt" xml:space="preserve">
                <tspan y="23.6" x="8.0">尚未来得及发</tspan>
                <tspan y="42.6" x="14.5">出的委任书</tspan>
            </text>
        </g>
        <g id="shape9" transform="translate(425.00,760.20)">
            <path stroke="#191919" d="M.0,.0L.0,15.2L19.0,15.2L19.0,33.5L199.0,33.5" fill="none"/>
            <path stroke-width="1" stroke="#191919" d="M199.0,30.5L205.0,33.5L199.0,36.5L199.0,30.5" stroke-linecap="round" fill="#191919"/>
        </g>
        <g id="shape10" transform="translate(677.00,888.00)">
            <path stroke-dasharray="2.5,2.5" stroke="#191919" d="M.0,.0L.0,-60.7" fill="none"/>
            <path stroke-width="1" stroke="#191919" d="M-3.0,-60.7L.0,-66.7L3.0,-60.7L-3.0,-60.7" stroke-linecap="round" fill="#191919"/>
            <rect width="83.0" y="-42.8" x="-40.5" height="19.0" fill="#ffffff"/>
            <text style="fill:#191919;font-family:Microsoft YaHei;font-size:10.00pt" xml:space="preserve">
                <tspan y="-27.8" x="-40.5">1.拦截, 不认可</tspan>
            </text>
        </g>
        <g id="shape11" transform="translate(790.00,770.20)">
            <path fill-rule="nonzero" stroke="#323232" d="M268.0,47.0L268.0,.0L.0,.0L.0,47.0L268.0,47.0z" fill="#d7d7d7"/>
            <text style="fill:#191919;font-family:Microsoft YaHei;font-size:10.00pt" xml:space="preserve">
                <tspan y="29.0" x="105.5">Marbury </tspan>
            </text>
        </g>
        <g id="shape12" transform="translate(724.00,793.70)">
            <path stroke="#191919" d="M.0,.0L60.0,.0" fill="none"/>
            <path stroke-width="1" stroke="#191919" d="M60.0,-3.0L66.0,.0L60.0,3.0L60.0,-3.0" stroke-linecap="round" fill="#191919"/>
        </g>
        <g id="shape13" transform="translate(834.22,817.20)">
            <path stroke-dasharray="2.5,2.5" stroke="#191919" d="M.0,.0L.0,105.8L-104.2,105.8" fill="none"/>
            <path stroke-width="1" stroke="#191919" d="M-104.2,108.8L-110.2,105.8L-104.2,102.8L-104.2,108.8" stroke-linecap="round" fill="#191919"/>
            <rect width="102.0" y="40.1" x="-50.0" height="19.0" fill="#ffffff"/>
            <text style="fill:#191919;font-family:Microsoft YaHei;font-size:10.00pt" xml:space="preserve">
                <tspan y="55.1" x="-50.0">2.向最高法院起诉</tspan>
            </text>
        </g>
        <g id="shape14" transform="translate(790.00,1083.00)">
            <path fill-rule="nonzero" stroke="#323232" d="M268.0,70.0L268.0,.0L.0,.0L.0,70.0L268.0,70.0z" fill="#d7d7d7"/>
            <text style="fill:#191919;font-family:Microsoft YaHei;font-size:10.00pt" xml:space="preserve">
                <tspan y="31.0" x="91.5">John Marshall</tspan>
                <tspan y="50.0" x="71.5">(最高法院首席大法官)</tspan>
            </text>
        </g>
        <g id="shape15" transform="translate(790.00,1097.70)">
            <path stroke-dasharray="2.5,2.5" stroke="#191919" d="M.0,.0L-113.0,.0L-113.0,-133.7" fill="none"/>
            <path stroke-width="1" stroke="#191919" d="M-116.0,-133.7L-113.0,-139.7L-110.0,-133.7L-116.0,-133.7" stroke-linecap="round" fill="#191919"/>
            <rect width="92.0" y="-92.8" x="-158.0" height="19.0" fill="#ffffff"/>
            <rect width="169.0" y="-73.8" x="-196.5" height="19.0" fill="#ffffff"/>
            <rect width="65.0" y="-54.8" x="-144.5" height="19.0" fill="#ffffff"/>
            <text style="fill:#191919;font-family:Microsoft YaHei;font-size:10.00pt" xml:space="preserve">
                <tspan y="-77.8" x="-158.0">4.如果判决的话,</tspan>
                <tspan y="-58.8" x="-196.5">可能引发总统与最高法院之间</tspan>
                <tspan y="-39.8" x="-144.5">的正面冲突</tspan>
            </text>
        </g>
        <g id="shape16" transform="translate(1037.63,1083.00)">
            <path stroke="#191919" d="M.0,.0L.0,-259.8" fill="none"/>
            <path stroke-width="1" stroke="#191919" d="M-3.0,-259.8L.0,-265.8L3.0,-259.8L-3.0,-259.8" stroke-linecap="round" fill="#191919"/>
            <rect width="37.0" y="-94.9" x="-17.5" height="19.0" fill="#ffffff"/>
            <text style="fill:#191919;font-family:Microsoft YaHei;font-size:10.00pt" xml:space="preserve">
                <tspan y="-79.9" x="-17.5">5.驳回</tspan>
            </text>
        </g>
        <g id="shape17" transform="translate(851.97,904.10)">
            <path fill-rule="nonzero" stroke="#323232" d="M144.1,92.0L144.1,.0L.0,.0L.0,92.0L144.1,92.0z" fill="#fedad0"/>
            <text style="fill:#191919;font-family:Microsoft YaHei;font-size:8.00pt" xml:space="preserve">
                <tspan y="18.0" x="29.0">3.根据国会通过的</tspan>
                <tspan y="34.0" x="5.0">&lt;1789年司法条例>规定: 以</tspan>
                <tspan y="50.0" x="10.0">国务卿为一方的司法案件, </tspan>
                <tspan y="66.0" x="6.0">可以直接向联邦最高法院提</tspan>
                <tspan y="82.0" x="50.0">起诉讼。</tspan>
            </text>
        </g>
        <g id="shape18" transform="translate(900.26,817.20)">
            <path stroke="#191919" d="M.0,.0L.0,80.9" fill="none"/>
            <path stroke-width="1" stroke="#191919" d="M3.0,80.9L.0,86.9L-3.0,80.9L3.0,80.9" stroke-linecap="round" fill="#191919"/>
        </g>
        <g id="shape19" transform="translate(901.24,996.10)">
            <path stroke="#191919" d="M.0,.0L.0,54.9L-0.0,54.9L-0.0,80.9" fill="none"/>
            <path stroke-width="1" stroke="#191919" d="M3.0,80.9L-0.0,86.9L-3.0,80.9L3.0,80.9" stroke-linecap="round" fill="#191919"/>
        </g>
        <g id="shape20" transform="translate(971.17,1083.00)">
            <path stroke="#191919" d="M.0,.0L.0,-54.9L.1,-54.9L.1,-80.9" fill="none"/>
            <path stroke-width="1" stroke="#191919" d="M-2.9,-80.9L.1,-86.9L3.1,-80.9L-2.9,-80.9" stroke-linecap="round" fill="#191919"/>
            <rect width="70.0" y="-61.3" x="-34.0" height="19.0" fill="#ffffff"/>
            <rect width="117.0" y="-42.3" x="-57.5" height="19.0" fill="#ffffff"/>
            <text style="fill:#191919;font-family:Microsoft YaHei;font-size:10.00pt" xml:space="preserve">
                <tspan y="-46.3" x="-34.0">6. 认为违宪,</tspan>
                <tspan y="-27.3" x="-57.5">判定该条例应被取消</tspan>
            </text>
        </g>
        <g id="shape21" transform="translate(472.00,631.70)">
            <text style="fill:#191919;font-family:Microsoft YaHei;font-size:10.00pt" xml:space="preserve">
                <tspan y="20.5" x="54.0">Marbury v. Madison (1803)</tspan>
            </text>
        </g>
    </g>
</svg>
