<svg id="图层_1" data-name="图层 1" xmlns="http://www.w3.org/2000/svg" xmlns:xlink="http://www.w3.org/1999/xlink" viewBox="0 0 436.46 463.92"><defs><style>.cls-1,.cls-10,.cls-12,.cls-13,.cls-15,.cls-16,.cls-17,.cls-18,.cls-19,.cls-2,.cls-20,.cls-22,.cls-23,.cls-24,.cls-25,.cls-27,.cls-4,.cls-50,.cls-7,.cls-9{fill:none;}.cls-1{clip-rule:evenodd;}.cls-11,.cls-2,.cls-26,.cls-28,.cls-3,.cls-34{fill-rule:evenodd;}.cls-29,.cls-3,.cls-32{fill:#fff;}.cls-4,.cls-50{stroke:#d9d9d9;}.cls-10,.cls-12,.cls-13,.cls-15,.cls-16,.cls-17,.cls-18,.cls-19,.cls-20,.cls-22,.cls-23,.cls-24,.cls-25,.cls-27,.cls-4,.cls-50,.cls-7,.cls-9{stroke-linejoin:round;}.cls-4{stroke-width:0.72px;}.cls-5{clip-path:url(#clip-path);}.cls-6{clip-path:url(#clip-path-3);}.cls-7,.cls-9{stroke:#5893c9;}.cls-10,.cls-13,.cls-16,.cls-18,.cls-20,.cls-23,.cls-25,.cls-7{stroke-linecap:round;stroke-width:1.68px;}.cls-28,.cls-8{fill:#5893c9;}.cls-12,.cls-15,.cls-17,.cls-19,.cls-22,.cls-24,.cls-27,.cls-50,.cls-9{stroke-width:0.72px;}.cls-10,.cls-12{stroke:#e37933;}.cls-11{fill:#e37933;}.cls-13,.cls-15{stroke:#a5a5a5;}.cls-14{fill:#a5a5a5;}.cls-16,.cls-17{stroke:#f5ba1a;}.cls-18,.cls-19{stroke:#406cb4;}.cls-20,.cls-22{stroke:#6ea647;}.cls-21{fill:#6ea647;}.cls-23,.cls-24{stroke:#245a8a;}.cls-25,.cls-27{stroke:#984823;}.cls-26{fill:#984823;}.cls-29,.cls-32,.cls-35{font-size:9px;}.cls-29,.cls-32,.cls-35,.cls-37,.cls-40,.cls-51{font-family:MicrosoftYaHei, Microsoft YaHei;}.cls-30{letter-spacing:0em;}.cls-31,.cls-32{letter-spacing:0.01em;}.cls-33{letter-spacing:0em;}.cls-34{fill:#1a2a51;}.cls-35,.cls-37,.cls-40{fill:#585959;}.cls-36{letter-spacing:-0.01em;}.cls-37{font-size:8.04px;}.cls-38{letter-spacing:0.15em;}.cls-39{letter-spacing:0.15em;}.cls-40{font-size:11.04px;stroke:#585959;stroke-miterlimit:10;stroke-width:0.32px;}.cls-41{letter-spacing:0.12em;}.cls-42{letter-spacing:0.11em;}.cls-43{letter-spacing:0.11em;}.cls-44{letter-spacing:0.11em;}.cls-45{letter-spacing:0.1em;}.cls-46{letter-spacing:0.08em;}.cls-47{letter-spacing:0.12em;}.cls-48{letter-spacing:0.11em;}.cls-49{letter-spacing:0.11em;}.cls-51{font-size:16px;fill:#231815;}</style><clipPath id="clip-path" transform="translate(-109.56 -197.64)"><polygon class="cls-1" points="109.92 661.08 515.28 661.08 515.28 198 109.92 198 109.92 661.08 109.92 661.08"/></clipPath><clipPath id="clip-path-3" transform="translate(-109.56 -197.64)"><polygon class="cls-1" points="149.64 639.84 504.96 639.84 504.96 269.16 149.64 269.16 149.64 639.84 149.64 639.84"/></clipPath></defs><polygon class="cls-3" points="0.36 0.36 405.72 0.36 405.72 463.56 0.36 463.56 0.36 0.36 0.36 0.36"/><path class="cls-4" d="M208.8,269.28V639.12m59-369.84V639.12M327,269.28V639.12m59-369.84V639.12M445.2,269.28V639.12m59.16-369.84V639.12" transform="translate(-109.56 -197.64)"/><g class="cls-5"><line class="cls-4" x1="40.08" y1="441.48" x2="40.08" y2="71.64"/></g><g class="cls-5"><line class="cls-4" x1="40.08" y1="441.48" x2="394.8" y2="441.48"/></g><g class="cls-6"><polyline class="cls-7" points="69.6 426 128.76 411.36 187.92 376.08 246.96 323.64 306.12 235.68 365.16 104.52"/></g><g class="cls-5"><polygon class="cls-8" points="69.61 423.05 72.61 426.05 69.61 429.05 66.61 426.05 69.61 423.05 69.61 423.05"/><polygon class="cls-9" points="69.61 423.05 72.61 426.05 69.61 429.05 66.61 426.05 69.61 423.05 69.61 423.05"/><polygon class="cls-8" points="128.78 408.4 131.78 411.4 128.78 414.4 125.78 411.4 128.78 408.4 128.78 408.4"/><polygon class="cls-9" points="128.78 408.4 131.78 411.4 128.78 414.4 125.78 411.4 128.78 408.4 128.78 408.4"/><polygon class="cls-8" points="187.94 373.13 190.94 376.13 187.94 379.13 184.94 376.13 187.94 373.13 187.94 373.13"/><polygon class="cls-9" points="187.94 373.13 190.94 376.13 187.94 379.13 184.94 376.13 187.94 373.13 187.94 373.13"/><polygon class="cls-8" points="246.97 320.69 249.97 323.69 246.97 326.69 243.97 323.69 246.97 320.69 246.97 320.69"/><polygon class="cls-9" points="246.97 320.69 249.97 323.69 246.97 326.69 243.97 323.69 246.97 320.69 246.97 320.69"/><polygon class="cls-8" points="306.13 232.72 309.13 235.72 306.13 238.72 303.13 235.72 306.13 232.72 306.13 232.72"/><polygon class="cls-9" points="306.13 232.72 309.13 235.72 306.13 238.72 303.13 235.72 306.13 232.72 306.13 232.72"/><polygon class="cls-8" points="365.18 101.56 368.18 104.56 365.18 107.56 362.18 104.56 365.18 101.56 365.18 101.56"/><polygon class="cls-9" points="365.18 101.56 368.18 104.56 365.18 107.56 362.18 104.56 365.18 101.56 365.18 101.56"/></g><g class="cls-6"><polyline class="cls-10" points="69.6 433.2 128.76 432.36 187.92 424.32 246.96 417.72 306.12 300.48 365.16 189.84"/></g><g class="cls-5"><polygon class="cls-11" points="66.61 430.25 72.61 430.25 72.61 436.25 66.61 436.25 66.61 430.25 66.61 430.25"/><polygon class="cls-12" points="66.61 430.25 72.61 430.25 72.61 436.25 66.61 436.25 66.61 430.25 66.61 430.25"/><polygon class="cls-11" points="125.78 429.4 131.78 429.4 131.78 435.4 125.78 435.4 125.78 429.4 125.78 429.4"/><polygon class="cls-12" points="125.78 429.4 131.78 429.4 131.78 435.4 125.78 435.4 125.78 429.4 125.78 429.4"/><polygon class="cls-11" points="184.94 421.37 190.94 421.37 190.94 427.37 184.94 427.37 184.94 421.37 184.94 421.37"/><polygon class="cls-12" points="184.94 421.37 190.94 421.37 190.94 427.37 184.94 427.37 184.94 421.37 184.94 421.37"/><polygon class="cls-11" points="243.97 414.76 249.97 414.76 249.97 420.76 243.97 420.76 243.97 414.76 243.97 414.76"/><polygon class="cls-12" points="243.97 414.76 249.97 414.76 249.97 420.76 243.97 420.76 243.97 414.76 243.97 414.76"/><polygon class="cls-11" points="303.13 297.52 309.13 297.52 309.13 303.52 303.13 303.52 303.13 297.52 303.13 297.52"/><polygon class="cls-12" points="303.13 297.52 309.13 297.52 309.13 303.52 303.13 303.52 303.13 297.52 303.13 297.52"/><polygon class="cls-11" points="362.18 186.88 368.18 186.88 368.18 192.88 362.18 192.88 362.18 186.88 362.18 186.88"/><polygon class="cls-12" points="362.18 186.88 368.18 186.88 368.18 192.88 362.18 192.88 362.18 186.88 362.18 186.88"/></g><g class="cls-6"><polyline class="cls-13" points="69.6 426.24 128.76 418.32 187.92 398.52 246.96 376.44 306.12 279.72 365.16 200.4"/></g><g class="cls-5"><polygon class="cls-14" points="69.61 423.29 72.61 429.29 66.61 429.29 69.61 423.29 69.61 423.29"/><polygon class="cls-15" points="69.61 423.29 72.61 429.29 66.61 429.29 69.61 423.29 69.61 423.29"/><polygon class="cls-14" points="128.78 415.37 131.78 421.37 125.78 421.37 128.78 415.37 128.78 415.37"/><polygon class="cls-15" points="128.78 415.37 131.78 421.37 125.78 421.37 128.78 415.37 128.78 415.37"/><polygon class="cls-14" points="187.94 395.56 190.94 401.56 184.94 401.56 187.94 395.56 187.94 395.56"/><polygon class="cls-15" points="187.94 395.56 190.94 401.56 184.94 401.56 187.94 395.56 187.94 395.56"/><polygon class="cls-14" points="246.97 373.49 249.97 379.49 243.97 379.49 246.97 373.49 246.97 373.49"/><polygon class="cls-15" points="246.97 373.49 249.97 379.49 243.97 379.49 246.97 373.49 246.97 373.49"/><polygon class="cls-14" points="306.13 276.76 309.13 282.76 303.13 282.76 306.13 276.76 306.13 276.76"/><polygon class="cls-15" points="306.13 276.76 309.13 282.76 303.13 282.76 306.13 276.76 306.13 276.76"/><polygon class="cls-14" points="365.18 197.44 368.18 203.44 362.18 203.44 365.18 197.44 365.18 197.44"/><polygon class="cls-15" points="365.18 197.44 368.18 203.44 362.18 203.44 365.18 197.44 365.18 197.44"/></g><g class="cls-6"><polyline class="cls-16" points="69.6 420.36 128.76 402.12 187.92 380.76 246.96 356.28 306.12 293.28 365.16 210.72"/></g><g class="cls-5"><path class="cls-17" d="M182.17,621l-6-6m0,6,6-6" transform="translate(-109.56 -197.64)"/><path class="cls-17" d="M241.33,602.8l-6-6m0,6,6-6" transform="translate(-109.56 -197.64)"/><path class="cls-17" d="M300.49,581.44l-6-6m0,6,6-6" transform="translate(-109.56 -197.64)"/><path class="cls-17" d="M359.53,557l-6-6m0,6,6-6" transform="translate(-109.56 -197.64)"/><path class="cls-17" d="M418.69,494l-6-6m0,6,6-6" transform="translate(-109.56 -197.64)"/><path class="cls-17" d="M477.73,411.4l-6-6m0,6,6-6" transform="translate(-109.56 -197.64)"/></g><g class="cls-6"><polyline class="cls-18" points="69.6 428.4 128.76 419.04 187.92 396.48 246.96 393.6 306.12 293.88 365.16 222"/></g><g class="cls-5"><path class="cls-19" d="M182.17,629.08l-6-6m3,0v6m-3,0,6-6" transform="translate(-109.56 -197.64)"/><path class="cls-19" d="M241.33,619.72l-6-6m3,0v6m-3,0,6-6" transform="translate(-109.56 -197.64)"/><path class="cls-19" d="M300.49,597.16l-6-6m3,0v6m-3,0,6-6" transform="translate(-109.56 -197.64)"/><path class="cls-19" d="M359.53,594.28l-6-6m3,0v6m-3,0,6-6" transform="translate(-109.56 -197.64)"/><path class="cls-19" d="M418.69,494.56l-6-6m3,0v6m-3,0,6-6" transform="translate(-109.56 -197.64)"/><path class="cls-19" d="M477.73,422.68l-6-6m3,0v6m-3,0,6-6" transform="translate(-109.56 -197.64)"/></g><g class="cls-6"><polyline class="cls-20" points="69.6 432.96 128.76 429.84 187.92 423.12 246.96 406.56 306.12 366.72 365.16 393.48"/></g><g class="cls-5"><path class="cls-21" d="M182.17,630.64a3,3,0,1,1-3-3,3,3,0,0,1,3,3Z" transform="translate(-109.56 -197.64)"/><path class="cls-22" d="M182.17,630.64a3,3,0,1,1-3-3,3,3,0,0,1,3,3Z" transform="translate(-109.56 -197.64)"/><path class="cls-21" d="M241.33,627.52a3,3,0,1,1-3-3,3,3,0,0,1,3,3Z" transform="translate(-109.56 -197.64)"/><path class="cls-22" d="M241.33,627.52a3,3,0,1,1-3-3,3,3,0,0,1,3,3Z" transform="translate(-109.56 -197.64)"/><path class="cls-21" d="M300.49,620.8a3,3,0,1,1-3-3,3,3,0,0,1,3,3Z" transform="translate(-109.56 -197.64)"/><path class="cls-22" d="M300.49,620.8a3,3,0,1,1-3-3,3,3,0,0,1,3,3Z" transform="translate(-109.56 -197.64)"/><path class="cls-21" d="M359.53,604.24a3,3,0,1,1-3-3,3,3,0,0,1,3,3Z" transform="translate(-109.56 -197.64)"/><path class="cls-22" d="M359.53,604.24a3,3,0,1,1-3-3,3,3,0,0,1,3,3Z" transform="translate(-109.56 -197.64)"/><path class="cls-21" d="M418.69,564.4a3,3,0,1,1-3-3,3,3,0,0,1,3,3Z" transform="translate(-109.56 -197.64)"/><path class="cls-22" d="M418.69,564.4a3,3,0,1,1-3-3,3,3,0,0,1,3,3Z" transform="translate(-109.56 -197.64)"/><path class="cls-21" d="M477.73,591.16a3,3,0,1,1-3-3,3,3,0,0,1,3,3Z" transform="translate(-109.56 -197.64)"/><path class="cls-22" d="M477.73,591.16a3,3,0,1,1-3-3,3,3,0,0,1,3,3Z" transform="translate(-109.56 -197.64)"/></g><g class="cls-6"><polyline class="cls-23" points="69.6 434.04 128.76 434.88 187.92 434.64 246.96 436.08 306.12 431.16 365.16 403.08"/></g><g class="cls-5"><path class="cls-24" d="M179.17,628.72v6m-3-3h6" transform="translate(-109.56 -197.64)"/><path class="cls-24" d="M238.33,629.56v6m-3-3h6" transform="translate(-109.56 -197.64)"/><path class="cls-24" d="M297.49,629.32v6m-3-3h6" transform="translate(-109.56 -197.64)"/><path class="cls-24" d="M356.53,630.76v6m-3-3h6" transform="translate(-109.56 -197.64)"/><path class="cls-24" d="M415.69,625.84v6m-3-3h6" transform="translate(-109.56 -197.64)"/><path class="cls-24" d="M474.73,597.76v6m-3-3h6" transform="translate(-109.56 -197.64)"/></g><g class="cls-6"><polyline class="cls-25" points="69.6 434.88 128.76 434.88 187.92 433.2 246.96 433.8 306.12 430.92 365.16 419.88"/></g><g class="cls-5"><polygon class="cls-26" points="69.61 434.32 72.61 434.32 72.61 435.52 69.61 435.52 69.61 434.32 69.61 434.32"/><polygon class="cls-27" points="69.61 434.32 72.61 434.32 72.61 435.52 69.61 435.52 69.61 434.32 69.61 434.32"/><polygon class="cls-26" points="128.78 434.32 131.78 434.32 131.78 435.52 128.78 435.52 128.78 434.32 128.78 434.32"/><polygon class="cls-27" points="128.78 434.32 131.78 434.32 131.78 435.52 128.78 435.52 128.78 434.32 128.78 434.32"/><polygon class="cls-26" points="187.94 432.64 190.94 432.64 190.94 433.85 187.94 433.85 187.94 432.64 187.94 432.64"/><polygon class="cls-27" points="187.94 432.64 190.94 432.64 190.94 433.85 187.94 433.85 187.94 432.64 187.94 432.64"/><polygon class="cls-26" points="246.97 433.25 249.97 433.25 249.97 434.44 246.97 434.44 246.97 433.25 246.97 433.25"/><polygon class="cls-27" points="246.97 433.25 249.97 433.25 249.97 434.44 246.97 434.44 246.97 433.25 246.97 433.25"/><polygon class="cls-26" points="306.13 430.37 309.13 430.37 309.13 431.56 306.13 431.56 306.13 430.37 306.13 430.37"/><polygon class="cls-27" points="306.13 430.37 309.13 430.37 309.13 431.56 306.13 431.56 306.13 430.37 306.13 430.37"/><polygon class="cls-26" points="365.18 419.32 368.18 419.32 368.18 420.52 365.18 420.52 365.18 419.32 365.18 419.32"/><polygon class="cls-27" points="365.18 419.32 368.18 419.32 368.18 420.52 365.18 420.52 365.18 419.32 365.18 419.32"/></g><g class="cls-5"><polygon class="cls-28" points="56.64 405.96 82.68 405.96 82.68 420 56.64 420 56.64 405.96 56.64 405.96"/></g><text class="cls-29" transform="translate(59.6 416.43)"><tspan class="cls-30">125</tspan><tspan x="15.97" y="0">7</tspan></text><g class="cls-5"><polygon class="cls-28" points="115.8 391.32 141.72 391.32 141.72 405.36 115.8 405.36 115.8 391.32 115.8 391.32"/></g><text class="cls-29" transform="translate(118.7 401.78)"><tspan class="cls-30">244</tspan><tspan x="15.97" y="0">5</tspan></text><g class="cls-5"><polygon class="cls-28" points="174.84 356.04 200.88 356.04 200.88 370.08 174.84 370.08 174.84 356.04 174.84 356.04"/></g><text class="cls-29" transform="translate(177.81 366.58)"><tspan class="cls-30">530</tspan><tspan x="15.97" y="0">1</tspan></text><g class="cls-5"><polygon class="cls-28" points="234 303.6 259.92 303.6 259.92 317.64 234 317.64 234 303.6 234 303.6"/></g><text class="cls-29" transform="translate(236.92 314.05)"><tspan class="cls-31">956</tspan><tspan x="15.97" y="0">1</tspan></text><g class="cls-5"><polygon class="cls-28" points="290.64 215.64 321.6 215.64 321.6 229.68 290.64 229.68 290.64 215.64 290.64 215.64"/></g><text class="cls-32" transform="translate(293.51 226.19)">1668<tspan class="cls-33" x="21.29" y="0">9</tspan></text><g class="cls-5"><polygon class="cls-28" points="349.68 84.48 380.64 84.48 380.64 98.52 349.68 98.52 349.68 84.48 349.68 84.48"/></g><text class="cls-32" transform="translate(352.62 94.99)">2733<tspan class="cls-33" x="21.29" y="0">1</tspan></text><g class="cls-5"><polygon class="cls-34" points="75.6 427.08 96.6 427.08 96.6 441.12 75.6 441.12 75.6 427.08 75.6 427.08"/></g><text class="cls-29" transform="translate(78.6 437.54)"><tspan class="cls-30">60</tspan><tspan x="10.65" y="0">0</tspan></text><g class="cls-5"><polygon class="cls-34" points="134.76 427.92 155.76 427.92 155.76 441.96 134.76 441.96 134.76 427.92 134.76 427.92"/></g><text class="cls-29" transform="translate(137.7 438.4)"><tspan class="cls-30">53</tspan><tspan x="10.65" y="0">0</tspan></text><g class="cls-5"><polygon class="cls-34" points="193.92 427.68 214.8 427.68 214.8 441.72 193.92 441.72 193.92 427.68 193.92 427.68"/></g><text class="cls-29" transform="translate(196.81 438.12)"><tspan class="cls-30">55</tspan><tspan x="10.65" y="0">2</tspan></text><g class="cls-5"><polygon class="cls-34" points="252.96 429 273.96 429 273.96 443.04 252.96 443.04 252.96 429 252.96 429"/></g><text class="cls-32" transform="translate(255.92 439.52)">43<tspan class="cls-33" x="10.65" y="0">9</tspan></text><g class="cls-5"><polygon class="cls-34" points="312.12 424.08 333 424.08 333 438.12 312.12 438.12 312.12 424.08 312.12 424.08"/></g><text class="cls-32" transform="translate(315.03 434.59)">83<tspan class="cls-33" x="10.65" y="0">9</tspan></text><g class="cls-5"><polygon class="cls-34" points="371.16 396 397.2 396 397.2 410.04 371.16 410.04 371.16 396 371.16 396"/></g><text class="cls-29" transform="translate(374.12 406.51)"><tspan class="cls-31">311</tspan><tspan x="15.97" y="0">7</tspan></text><text class="cls-35" transform="translate(26.83 444.41)">0</text><text class="cls-35" transform="translate(11.86 382.78)"><tspan class="cls-30">5</tspan><tspan class="cls-36" x="5.32" y="0">0</tspan><tspan class="cls-30" x="10.54" y="0">0</tspan><tspan x="15.86" y="0">0</tspan></text><text class="cls-35" transform="translate(6.87 321.14)"><tspan class="cls-30">1</tspan><tspan class="cls-36" x="5.32" y="0">0</tspan><tspan class="cls-30" x="10.54" y="0">0</tspan><tspan class="cls-36" x="15.86" y="0">0</tspan><tspan x="21.08" y="0">0</tspan></text><text class="cls-35" transform="translate(6.87 259.5)"><tspan class="cls-30">1</tspan><tspan class="cls-36" x="5.32" y="0">5</tspan><tspan class="cls-30" x="10.54" y="0">0</tspan><tspan class="cls-36" x="15.86" y="0">0</tspan><tspan x="21.08" y="0">0</tspan></text><text class="cls-35" transform="translate(6.87 197.86)"><tspan class="cls-30">2</tspan><tspan class="cls-36" x="5.32" y="0">0</tspan><tspan class="cls-30" x="10.54" y="0">0</tspan><tspan class="cls-36" x="15.86" y="0">0</tspan><tspan x="21.08" y="0">0</tspan></text><text class="cls-35" transform="translate(6.87 136.22)"><tspan class="cls-30">2</tspan><tspan class="cls-36" x="5.32" y="0">5</tspan><tspan class="cls-30" x="10.54" y="0">0</tspan><tspan class="cls-36" x="15.86" y="0">0</tspan><tspan x="21.08" y="0">0</tspan></text><text class="cls-35" transform="translate(6.87 74.58)"><tspan class="cls-30">3</tspan><tspan class="cls-36" x="5.32" y="0">0</tspan><tspan class="cls-30" x="10.54" y="0">0</tspan><tspan class="cls-36" x="15.86" y="0">0</tspan><tspan x="21.08" y="0">0</tspan></text><text class="cls-37" transform="translate(53.78 454.68)"><tspan class="cls-38">182</tspan><tspan x="17.69" y="0">0</tspan></text><text class="cls-37" transform="translate(76.35 454.68)">年</text><text class="cls-37" transform="translate(112.89 454.68)"><tspan class="cls-38">187</tspan><tspan x="17.69" y="0">0</tspan></text><text class="cls-37" transform="translate(135.45 454.68)">年</text><text class="cls-37" transform="translate(171.99 454.68)"><tspan class="cls-38">191</tspan><tspan x="17.69" y="0">3</tspan></text><text class="cls-37" transform="translate(194.56 454.68)">年</text><text class="cls-37" transform="translate(231.11 454.68)"><tspan class="cls-39">195</tspan><tspan x="17.69" y="0">0</tspan></text><text class="cls-37" transform="translate(253.67 454.68)">年</text><text class="cls-37" transform="translate(290.21 454.68)"><tspan class="cls-39">197</tspan><tspan x="17.69" y="0">3</tspan></text><text class="cls-37" transform="translate(312.78 454.68)">年</text><text class="cls-37" transform="translate(349.32 454.68)"><tspan class="cls-39">199</tspan><tspan x="17.69" y="0">8</tspan></text><text class="cls-37" transform="translate(371.88 454.68)">年</text><text class="cls-40" transform="translate(78.23 19.06)"><tspan class="cls-41">美国与</tspan><tspan class="cls-42" x="37.06" y="0">主要国家的人</tspan><tspan x="110.46" y="0">均</tspan></text><text class="cls-40" transform="translate(200.99 19.06)"><tspan class="cls-43">G</tspan><tspan class="cls-44" x="9.38" y="0">D</tspan><tspan x="19.05" y="0">P</tspan></text><text class="cls-40" transform="translate(228.95 19.06)"><tspan class="cls-42">比</tspan><tspan x="12.23" y="0">较</tspan></text><text class="cls-40" transform="translate(253.43 19.06)"><tspan class="cls-45">:</tspan><tspan class="cls-46" x="3.79" y="0"> </tspan><tspan class="cls-47" x="7.96" y="0">1</tspan><tspan x="15.74" y="0">9</tspan></text><text class="cls-40" transform="translate(276.47 19.06)">—</text><text class="cls-40" transform="translate(288.7 19.06)"><tspan class="cls-48">2</tspan><tspan x="7.67" y="0">0</tspan></text><text class="cls-40" transform="translate(303.35 19.06)"><tspan class="cls-42">世</tspan><tspan x="12.23" y="0">纪</tspan></text><text class="cls-40" transform="translate(149.39 33.34)"><tspan class="cls-41">单</tspan><tspan x="12.35" y="0">位</tspan></text><text class="cls-40" transform="translate(174.1 33.34)"><tspan class="cls-49">:</tspan><tspan class="cls-42" x="3.92" y="0">199</tspan><tspan x="26.92" y="0">0</tspan></text><text class="cls-40" transform="translate(207.71 33.34)"><tspan class="cls-42">年国际</tspan><tspan x="36.7" y="0">元</tspan></text><g class="cls-5"><line class="cls-7" x1="26.04" y1="52.32" x2="45.24" y2="52.32"/></g><g class="cls-5"><polygon class="cls-8" points="35.52 49.68 38.04 52.2 35.52 54.72 33 52.2 35.52 49.68 35.52 49.68"/><polygon class="cls-9" points="35.52 49.68 38.04 52.2 35.52 54.72 33 52.2 35.52 49.68 35.52 49.68"/></g><text class="cls-35" transform="translate(47.22 55.15)">美国</text><g class="cls-5"><line class="cls-10" x1="70.2" y1="52.32" x2="89.4" y2="52.32"/></g><g class="cls-5"><polygon class="cls-11" points="77.28 49.68 82.32 49.68 82.32 54.72 77.28 54.72 77.28 49.68 77.28 49.68"/><polygon class="cls-12" points="77.28 49.68 82.32 49.68 82.32 54.72 77.28 54.72 77.28 49.68 77.28 49.68"/></g><text class="cls-35" transform="translate(91.42 55.15)">日本</text><g class="cls-5"><line class="cls-13" x1="114.36" y1="52.32" x2="133.56" y2="52.32"/></g><g class="cls-5"><polygon class="cls-14" points="123.96 49.68 126.48 54.72 121.44 54.72 123.96 49.68 123.96 49.68"/><polygon class="cls-15" points="123.96 49.68 126.48 54.72 121.44 54.72 123.96 49.68 123.96 49.68"/></g><text class="cls-35" transform="translate(135.63 55.15)">法国</text><g class="cls-5"><line class="cls-16" x1="158.64" y1="52.32" x2="177.84" y2="52.32"/></g><g class="cls-5"><path class="cls-17" d="M280.2,252.36l-5-5m0,5,5-5" transform="translate(-109.56 -197.64)"/></g><text class="cls-35" transform="translate(179.83 55.15)">英国</text><g class="cls-5"><line class="cls-18" x1="202.8" y1="52.32" x2="222" y2="52.32"/></g><g class="cls-5"><path class="cls-19" d="M324.48,252.36l-5-5m2.52,0v5m-2.52,0,5-5" transform="translate(-109.56 -197.64)"/></g><text class="cls-35" transform="translate(224.03 55.15)">德国</text><g class="cls-5"><line class="cls-20" x1="246.96" y1="52.32" x2="266.16" y2="52.32"/></g><g class="cls-5"><path class="cls-21" d="M368.64,249.84a2.52,2.52,0,1,1-2.52-2.52,2.52,2.52,0,0,1,2.52,2.52Z" transform="translate(-109.56 -197.64)"/><path class="cls-22" d="M368.64,249.84a2.52,2.52,0,1,1-2.52-2.52,2.52,2.52,0,0,1,2.52,2.52Z" transform="translate(-109.56 -197.64)"/></g><text class="cls-35" transform="translate(268.24 55.15)">前苏联</text><g class="cls-5"><line class="cls-23" x1="300.24" y1="52.32" x2="319.44" y2="52.32"/></g><g class="cls-5"><path class="cls-24" d="M419.28,247.32v5m-2.52-2.52h5" transform="translate(-109.56 -197.64)"/></g><text class="cls-35" transform="translate(321.44 55.15)">中国</text><g class="cls-5"><line class="cls-25" x1="344.4" y1="52.32" x2="363.6" y2="52.32"/></g><g class="cls-5"><polygon class="cls-26" points="354 51.72 356.52 51.72 356.52 52.68 354 52.68 354 51.72 354 51.72"/><polygon class="cls-27" points="354 51.72 356.52 51.72 356.52 52.68 354 52.68 354 51.72 354 51.72"/></g><text class="cls-35" transform="translate(365.64 55.15)">印度</text><polygon class="cls-50" points="0.36 0.36 405.72 0.36 405.72 463.56 0.36 463.56 0.36 0.36 0.36 0.36"/><text class="cls-51" transform="translate(390.83 96.48)">美国</text><text class="cls-51" transform="translate(404.46 408.98)">中国</text></svg>