<svg width="436" xmlns="http://www.w3.org/2000/svg" xmlns:xlink="http://www.w3.org/1999/xlink" height="448" viewBox="0 0 436 448">
    <defs/>
    <g transform="translate(-396.00,-692.50)">
        <g transform="translate(397.00,1090.50)" id="shape1">
            <path fill="#ffffff" stroke="#323232" d="M142.0,49.0L142.0,.0L.0,.0L.0,49.0L142.0,49.0z" fill-rule="nonzero"/>
            <text style="fill:#191919;font-family:Microsoft YaHei;font-size:10.00pt" xml:space="preserve">
                <tspan y="30.0" x="32.0">内阁（政府）</tspan>
            </text>
        </g>
        <g transform="translate(510.00,693.50)" id="shape2">
            <path fill="#ffffff" stroke="#323232" d="M142.0,49.0L142.0,.0L.0,.0L.0,49.0L142.0,49.0z" fill-rule="nonzero"/>
            <text style="fill:#191919;font-family:Microsoft YaHei;font-size:10.00pt" xml:space="preserve">
                <tspan y="20.5" x="58.0">德国</tspan>
                <tspan y="39.5" x="19.0">半君主立宪制政体</tspan>
            </text>
        </g>
        <g transform="translate(614.00,1090.50)" id="shape3">
            <path fill="#ffffff" stroke="#323232" d="M142.0,49.0L142.0,.0L.0,.0L.0,49.0L142.0,49.0z" fill-rule="nonzero"/>
            <text style="fill:#191919;font-family:Microsoft YaHei;font-size:10.00pt" xml:space="preserve">
                <tspan y="30.0" x="58.0">军队</tspan>
            </text>
        </g>
        <g transform="translate(510.00,990.20)" id="shape4">
            <path fill="#d7d7d7" stroke="#323232" d="M142.0,49.0L142.0,.0L.0,.0L.0,49.0L142.0,49.0z" fill-rule="nonzero"/>
            <text style="fill:#191919;font-family:Microsoft YaHei;font-size:10.00pt" xml:space="preserve">
                <tspan y="30.0" x="58.0">君主</tspan>
            </text>
        </g>
        <g transform="translate(496.74,877.70)" id="shape5">
            <path fill="#d7d7d7" stroke="#323232" d="M168.5,49.0L168.5,.0L.0,.0L.0,49.0L168.5,49.0z" fill-rule="nonzero"/>
            <text style="fill:#191919;font-family:Microsoft YaHei;font-size:10.00pt" xml:space="preserve">
                <tspan y="20.5" x="71.3">议会</tspan>
                <tspan y="39.5" x="11.8">(权力: 立法、预算和税收)</tspan>
            </text>
        </g>
        <g transform="translate(689.00,877.70)" id="shape6">
            <path fill="#ffffff" stroke="#323232" d="M142.0,49.0L142.0,.0L.0,.0L.0,49.0L142.0,49.0z" fill-rule="nonzero"/>
            <text style="fill:#191919;font-family:Microsoft YaHei;font-size:10.00pt" xml:space="preserve">
                <tspan y="30.0" x="38.5">宪法、法律</tspan>
            </text>
        </g>
        <g transform="translate(581.00,926.70)" id="shape7">
            <path fill="none" stroke="#191919" d="M.0,.0L.0,57.5"/>
            <path fill="#191919" stroke="#191919" stroke-linecap="round" d="M3.0,57.5L.0,63.5L-3.0,57.5L3.0,57.5" stroke-width="1"/>
            <rect y="16.5" fill="#ffffff" width="26.0" height="19.0" x="-12.0"/>
            <text style="fill:#191919;font-family:Microsoft YaHei;font-size:10.00pt" xml:space="preserve">
                <tspan y="31.5" x="-12.0">约束</tspan>
            </text>
        </g>
        <g transform="translate(760.00,926.70)" id="shape8">
            <path fill="none" stroke="#191919" d="M.0,.0L.0,31.5L-158.7,31.5L-158.7,57.5"/>
            <path fill="#191919" stroke="#191919" stroke-linecap="round" d="M-155.7,57.5L-158.7,63.5L-161.7,57.5L-155.7,57.5" stroke-width="1"/>
            <rect y="22.0" fill="#ffffff" width="26.0" height="19.0" x="-91.7"/>
            <text style="fill:#191919;font-family:Microsoft YaHei;font-size:10.00pt" xml:space="preserve">
                <tspan y="37.0" x="-91.7">约束</tspan>
            </text>
        </g>
        <g transform="translate(565.24,1039.20)" id="shape9">
            <path fill="none" stroke="#191919" d="M.0,.0L.0,19.3L-97.2,19.3L-97.2,45.3"/>
            <path fill="#191919" stroke="#191919" stroke-linecap="round" d="M-94.2,45.3L-97.2,51.3L-100.2,45.3L-94.2,45.3" stroke-width="1"/>
            <rect y="9.8" fill="#ffffff" width="52.0" height="19.0" x="-84.0"/>
            <text style="fill:#191919;font-family:Microsoft YaHei;font-size:10.00pt" xml:space="preserve">
                <tspan y="24.8" x="-84.0">对上负责</tspan>
            </text>
        </g>
        <g transform="translate(596.19,1039.20)" id="shape10">
            <path fill="none" stroke="#191919" d="M.0,.0L.0,19.3L88.8,19.3L88.8,45.3"/>
            <path fill="#191919" stroke="#191919" stroke-linecap="round" d="M91.8,45.3L88.8,51.3L85.8,45.3L91.8,45.3" stroke-width="1"/>
            <rect y="9.8" fill="#ffffff" width="52.0" height="19.0" x="17.1"/>
            <text style="fill:#191919;font-family:Microsoft YaHei;font-size:10.00pt" xml:space="preserve">
                <tspan y="24.8" x="17.1">对上负责</tspan>
            </text>
        </g>
        <g transform="translate(510.00,769.20)" id="shape11">
            <path fill="#ffffff" stroke="#323232" d="M142.0,49.0L142.0,.0L.0,.0L.0,49.0L142.0,49.0z" fill-rule="nonzero"/>
            <text style="fill:#191919;font-family:Microsoft YaHei;font-size:10.00pt" xml:space="preserve">
                <tspan y="30.0" x="58.0">选民</tspan>
            </text>
        </g>
        <g transform="translate(581.00,818.20)" id="shape12">
            <path fill="none" stroke="#191919" d="M.0,.0L.0,53.5"/>
            <path fill="#191919" stroke="#191919" stroke-linecap="round" d="M3.0,53.5L.0,59.5L-3.0,53.5L3.0,53.5" stroke-width="1"/>
            <rect y="15.7" fill="#ffffff" width="52.0" height="19.0" x="-25.0"/>
            <text style="fill:#191919;font-family:Microsoft YaHei;font-size:10.00pt" xml:space="preserve">
                <tspan y="30.7" x="-25.0">选举产生</tspan>
            </text>
        </g>
    </g>
</svg>
