<svg id="图层_1" data-name="图层 1" xmlns="http://www.w3.org/2000/svg" xmlns:xlink="http://www.w3.org/1999/xlink" viewBox="0 0 585.36 521.52"><defs><style>.cls-1,.cls-11,.cls-12,.cls-14,.cls-15,.cls-17,.cls-18,.cls-2,.cls-20,.cls-21,.cls-23,.cls-24,.cls-26,.cls-27,.cls-29,.cls-30,.cls-32,.cls-4,.cls-53,.cls-6,.cls-8{fill:none;}.cls-1{clip-rule:evenodd;}.cls-2,.cls-3,.cls-33,.cls-40{fill-rule:evenodd;}.cls-3,.cls-41{fill:#fff;}.cls-4,.cls-53{stroke:#d9d9d9;}.cls-11,.cls-12,.cls-14,.cls-15,.cls-17,.cls-18,.cls-20,.cls-21,.cls-23,.cls-24,.cls-26,.cls-27,.cls-29,.cls-30,.cls-32,.cls-4,.cls-53,.cls-6,.cls-8{stroke-linejoin:round;}.cls-4,.cls-6{stroke-width:0.72px;}.cls-5{clip-path:url(#clip-path);}.cls-6{stroke:#c0bfbf;}.cls-7{clip-path:url(#clip-path-4);}.cls-11,.cls-8{stroke:#5893c9;}.cls-12,.cls-15,.cls-18,.cls-21,.cls-24,.cls-27,.cls-30,.cls-8{stroke-linecap:round;stroke-width:1.44px;}.cls-9{clip-path:url(#clip-path-5);}.cls-10{fill:#5893c9;}.cls-11,.cls-14,.cls-17,.cls-20,.cls-23,.cls-26,.cls-29,.cls-32,.cls-53{stroke-width:0.72px;}.cls-12,.cls-14{stroke:#e37933;}.cls-13,.cls-33{fill:#e37933;}.cls-15,.cls-17{stroke:#a5a5a5;}.cls-16{fill:#a5a5a5;}.cls-18,.cls-20{stroke:#f5ba1a;}.cls-19{fill:#f5ba1a;}.cls-21,.cls-23{stroke:#406cb4;}.cls-22{fill:#406cb4;}.cls-24,.cls-26{stroke:#6ea647;}.cls-25{fill:#6ea647;}.cls-27,.cls-29{stroke:#245a8a;}.cls-28{fill:#245a8a;}.cls-30,.cls-32{stroke:#984823;}.cls-31{fill:#984823;}.cls-34,.cls-41,.cls-42{font-size:9px;}.cls-34{fill:#404040;}.cls-34,.cls-41,.cls-42,.cls-47,.cls-51,.cls-54{font-family:MicrosoftYaHei, Microsoft YaHei;}.cls-35{letter-spacing:0em;}.cls-36{letter-spacing:-0.01em;}.cls-37{letter-spacing:-0.01em;}.cls-38{letter-spacing:0.01em;}.cls-39{letter-spacing:-0.01em;}.cls-40{fill:#803c20;}.cls-42,.cls-47,.cls-51{fill:#585959;}.cls-43{letter-spacing:-0.01em;}.cls-44{letter-spacing:0em;}.cls-45{letter-spacing:0.01em;}.cls-46{letter-spacing:0em;}.cls-47,.cls-51{font-size:14.04px;}.cls-48{letter-spacing:-0.01em;}.cls-49{letter-spacing:-0.01em;}.cls-50{letter-spacing:0em;}.cls-51{letter-spacing:0em;}.cls-52{letter-spacing:0em;}.cls-54{font-size:16px;fill:#231815;}</style><clipPath id="clip-path" transform="translate(-3.14 -136.85)"><polygon class="cls-1" points="3.5 658.01 588.14 658.01 588.14 137.09 3.5 137.09 3.5 658.01 3.5 658.01"/></clipPath><clipPath id="clip-path-4" transform="translate(-3.14 -136.85)"><polygon class="cls-1" points="57.62 625.13 575.42 625.13 575.42 193.49 57.62 193.49 57.62 625.13 57.62 625.13"/></clipPath><clipPath id="clip-path-5" transform="translate(-3.14 -136.85)"><polygon class="cls-1" points="3.5 658.01 588.14 658.01 588.14 137.09 3.5 137.09 3.5 658.01 3.5 658.01"/></clipPath></defs><polygon class="cls-3" points="0.36 0.36 585 0.36 585 521.16 0.36 521.16 0.36 0.36 0.36 0.36"/><path class="cls-4" d="M57.74,624.41h517M57.74,250h517" transform="translate(-3.14 -136.85)"/><g class="cls-5"><path class="cls-4" d="M131.54,193.61v430.8m73.92-430.8v430.8m73.8-430.8v430.8m73.92-430.8v430.8M427,193.61v430.8m73.8-430.8v430.8m73.92-430.8v430.8" transform="translate(-3.14 -136.85)"/></g><g class="cls-5"><line class="cls-6" x1="54.6" y1="487.56" x2="54.6" y2="56.76"/></g><g class="cls-5"><line class="cls-6" x1="54.6" y1="300.36" x2="571.56" y2="300.36"/></g><g class="cls-7"><path class="cls-8" d="M131.57,437.21H500.82" transform="translate(-3.14 -136.85)"/></g><g class="cls-9"><path class="cls-10" d="M134.1,437.2a2.52,2.52,0,1,1-2.52-2.52,2.52,2.52,0,0,1,2.52,2.52Z" transform="translate(-3.14 -136.85)"/><path class="cls-11" d="M134.1,437.2a2.52,2.52,0,1,1-2.52-2.52,2.52,2.52,0,0,1,2.52,2.52Z" transform="translate(-3.14 -136.85)"/><path class="cls-10" d="M208,437.2a2.52,2.52,0,1,1-2.52-2.52A2.52,2.52,0,0,1,208,437.2Z" transform="translate(-3.14 -136.85)"/><path class="cls-11" d="M208,437.2a2.52,2.52,0,1,1-2.52-2.52A2.52,2.52,0,0,1,208,437.2Z" transform="translate(-3.14 -136.85)"/><path class="cls-10" d="M281.82,437.2a2.52,2.52,0,1,1-2.52-2.52,2.52,2.52,0,0,1,2.52,2.52Z" transform="translate(-3.14 -136.85)"/><path class="cls-11" d="M281.82,437.2a2.52,2.52,0,1,1-2.52-2.52,2.52,2.52,0,0,1,2.52,2.52Z" transform="translate(-3.14 -136.85)"/><path class="cls-10" d="M355.74,437.2a2.52,2.52,0,1,1-2.52-2.52,2.52,2.52,0,0,1,2.52,2.52Z" transform="translate(-3.14 -136.85)"/><path class="cls-11" d="M355.74,437.2a2.52,2.52,0,1,1-2.52-2.52,2.52,2.52,0,0,1,2.52,2.52Z" transform="translate(-3.14 -136.85)"/><path class="cls-10" d="M429.54,437.2a2.52,2.52,0,1,1-2.52-2.52,2.52,2.52,0,0,1,2.52,2.52Z" transform="translate(-3.14 -136.85)"/><path class="cls-11" d="M429.54,437.2a2.52,2.52,0,1,1-2.52-2.52,2.52,2.52,0,0,1,2.52,2.52Z" transform="translate(-3.14 -136.85)"/><path class="cls-10" d="M503.34,437.2a2.52,2.52,0,1,1-2.52-2.52,2.52,2.52,0,0,1,2.52,2.52Z" transform="translate(-3.14 -136.85)"/><path class="cls-11" d="M503.34,437.2a2.52,2.52,0,1,1-2.52-2.52,2.52,2.52,0,0,1,2.52,2.52Z" transform="translate(-3.14 -136.85)"/></g><g class="cls-7"><path class="cls-12" d="M131.57,201.18c24.62,60.87,49.24,132.94,73.85,182.61s49.24,82.09,73.85,115.43,49.24,73.76,73.85,84.62,49.24-3.75,73.85-19.43,49.24-49.74,73.85-74.62" transform="translate(-3.14 -136.85)"/></g><g class="cls-9"><path class="cls-13" d="M134.1,201.15a2.52,2.52,0,1,1-2.52-2.52,2.52,2.52,0,0,1,2.52,2.52Z" transform="translate(-3.14 -136.85)"/><path class="cls-14" d="M134.1,201.15a2.52,2.52,0,1,1-2.52-2.52,2.52,2.52,0,0,1,2.52,2.52Z" transform="translate(-3.14 -136.85)"/><path class="cls-13" d="M208,383.8a2.52,2.52,0,1,1-2.52-2.52A2.52,2.52,0,0,1,208,383.8Z" transform="translate(-3.14 -136.85)"/><path class="cls-14" d="M208,383.8a2.52,2.52,0,1,1-2.52-2.52A2.52,2.52,0,0,1,208,383.8Z" transform="translate(-3.14 -136.85)"/><path class="cls-13" d="M281.82,499.24a2.52,2.52,0,1,1-2.52-2.52,2.52,2.52,0,0,1,2.52,2.52Z" transform="translate(-3.14 -136.85)"/><path class="cls-14" d="M281.82,499.24a2.52,2.52,0,1,1-2.52-2.52,2.52,2.52,0,0,1,2.52,2.52Z" transform="translate(-3.14 -136.85)"/><path class="cls-13" d="M355.74,583.84a2.52,2.52,0,1,1-2.52-2.52,2.52,2.52,0,0,1,2.52,2.52Z" transform="translate(-3.14 -136.85)"/><path class="cls-14" d="M355.74,583.84a2.52,2.52,0,1,1-2.52-2.52,2.52,2.52,0,0,1,2.52,2.52Z" transform="translate(-3.14 -136.85)"/><path class="cls-13" d="M429.54,564.4a2.52,2.52,0,1,1-2.52-2.52,2.52,2.52,0,0,1,2.52,2.52Z" transform="translate(-3.14 -136.85)"/><path class="cls-14" d="M429.54,564.4a2.52,2.52,0,1,1-2.52-2.52,2.52,2.52,0,0,1,2.52,2.52Z" transform="translate(-3.14 -136.85)"/><path class="cls-13" d="M503.34,489.76a2.52,2.52,0,1,1-2.52-2.52,2.52,2.52,0,0,1,2.52,2.52Z" transform="translate(-3.14 -136.85)"/><path class="cls-14" d="M503.34,489.76a2.52,2.52,0,1,1-2.52-2.52,2.52,2.52,0,0,1,2.52,2.52Z" transform="translate(-3.14 -136.85)"/></g><g class="cls-7"><path class="cls-15" d="M131.57,396.35c24.62,50.33,49.24,117.39,73.85,151s49.24,39.14,73.85,50.64,49.24,30.94,73.85,18.31,49.24-78.46,73.85-94,49.24.36,73.85.54" transform="translate(-3.14 -136.85)"/></g><g class="cls-9"><path class="cls-16" d="M134.1,396.28a2.52,2.52,0,1,1-2.52-2.52,2.52,2.52,0,0,1,2.52,2.52Z" transform="translate(-3.14 -136.85)"/><path class="cls-17" d="M134.1,396.28a2.52,2.52,0,1,1-2.52-2.52,2.52,2.52,0,0,1,2.52,2.52Z" transform="translate(-3.14 -136.85)"/><path class="cls-16" d="M208,547.36a2.52,2.52,0,1,1-2.52-2.52,2.52,2.52,0,0,1,2.52,2.52Z" transform="translate(-3.14 -136.85)"/><path class="cls-17" d="M208,547.36a2.52,2.52,0,1,1-2.52-2.52,2.52,2.52,0,0,1,2.52,2.52Z" transform="translate(-3.14 -136.85)"/><path class="cls-16" d="M281.82,598a2.52,2.52,0,1,1-2.52-2.52,2.52,2.52,0,0,1,2.52,2.52Z" transform="translate(-3.14 -136.85)"/><path class="cls-17" d="M281.82,598a2.52,2.52,0,1,1-2.52-2.52,2.52,2.52,0,0,1,2.52,2.52Z" transform="translate(-3.14 -136.85)"/><path class="cls-16" d="M355.74,616.24a2.52,2.52,0,1,1-2.52-2.52,2.52,2.52,0,0,1,2.52,2.52Z" transform="translate(-3.14 -136.85)"/><path class="cls-17" d="M355.74,616.24a2.52,2.52,0,1,1-2.52-2.52,2.52,2.52,0,0,1,2.52,2.52Z" transform="translate(-3.14 -136.85)"/><path class="cls-16" d="M429.54,522.28a2.52,2.52,0,1,1-2.52-2.52,2.52,2.52,0,0,1,2.52,2.52Z" transform="translate(-3.14 -136.85)"/><path class="cls-17" d="M429.54,522.28a2.52,2.52,0,1,1-2.52-2.52,2.52,2.52,0,0,1,2.52,2.52Z" transform="translate(-3.14 -136.85)"/><path class="cls-16" d="M503.34,522.76a2.52,2.52,0,1,1-2.52-2.52,2.52,2.52,0,0,1,2.52,2.52Z" transform="translate(-3.14 -136.85)"/><path class="cls-17" d="M503.34,522.76a2.52,2.52,0,1,1-2.52-2.52,2.52,2.52,0,0,1,2.52,2.52Z" transform="translate(-3.14 -136.85)"/></g><g class="cls-7"><path class="cls-18" d="M131.57,259.63c24.62,50.64,49.24,109.72,73.85,151.91S254.66,483,279.27,512.8s49.24,63.21,73.85,77.27,49.24,12.65,73.85,7.07,49.24-27,73.85-40.51" transform="translate(-3.14 -136.85)"/></g><g class="cls-9"><path class="cls-19" d="M134.1,259.6a2.52,2.52,0,1,1-2.52-2.52,2.52,2.52,0,0,1,2.52,2.52Z" transform="translate(-3.14 -136.85)"/><path class="cls-20" d="M134.1,259.6a2.52,2.52,0,1,1-2.52-2.52,2.52,2.52,0,0,1,2.52,2.52Z" transform="translate(-3.14 -136.85)"/><path class="cls-19" d="M208,411.52A2.52,2.52,0,1,1,205.5,409a2.52,2.52,0,0,1,2.52,2.52Z" transform="translate(-3.14 -136.85)"/><path class="cls-20" d="M208,411.52A2.52,2.52,0,1,1,205.5,409a2.52,2.52,0,0,1,2.52,2.52Z" transform="translate(-3.14 -136.85)"/><path class="cls-19" d="M281.82,512.8a2.52,2.52,0,1,1-2.52-2.52,2.52,2.52,0,0,1,2.52,2.52Z" transform="translate(-3.14 -136.85)"/><path class="cls-20" d="M281.82,512.8a2.52,2.52,0,1,1-2.52-2.52,2.52,2.52,0,0,1,2.52,2.52Z" transform="translate(-3.14 -136.85)"/><path class="cls-19" d="M355.74,590.08a2.52,2.52,0,1,1-2.52-2.52,2.52,2.52,0,0,1,2.52,2.52Z" transform="translate(-3.14 -136.85)"/><path class="cls-20" d="M355.74,590.08a2.52,2.52,0,1,1-2.52-2.52,2.52,2.52,0,0,1,2.52,2.52Z" transform="translate(-3.14 -136.85)"/><path class="cls-19" d="M429.54,597.16a2.52,2.52,0,1,1-2.52-2.52,2.52,2.52,0,0,1,2.52,2.52Z" transform="translate(-3.14 -136.85)"/><path class="cls-20" d="M429.54,597.16a2.52,2.52,0,1,1-2.52-2.52,2.52,2.52,0,0,1,2.52,2.52Z" transform="translate(-3.14 -136.85)"/><path class="cls-19" d="M503.34,556.6a2.52,2.52,0,1,1-2.52-2.52,2.52,2.52,0,0,1,2.52,2.52Z" transform="translate(-3.14 -136.85)"/><path class="cls-20" d="M503.34,556.6a2.52,2.52,0,1,1-2.52-2.52,2.52,2.52,0,0,1,2.52,2.52Z" transform="translate(-3.14 -136.85)"/></g><g class="cls-7"><path class="cls-21" d="M131.57,376.88c24.62,28.79,49.24,65.74,73.85,86.36s49.24,18.61,73.85,37.34,49.24,67.74,73.85,75.06,49.24-30,73.85-31.09,49.24,16.39,73.85,24.58" transform="translate(-3.14 -136.85)"/></g><g class="cls-9"><path class="cls-22" d="M134.1,376.84a2.52,2.52,0,1,1-2.52-2.52,2.52,2.52,0,0,1,2.52,2.52Z" transform="translate(-3.14 -136.85)"/><path class="cls-23" d="M134.1,376.84a2.52,2.52,0,1,1-2.52-2.52,2.52,2.52,0,0,1,2.52,2.52Z" transform="translate(-3.14 -136.85)"/><path class="cls-22" d="M208,463.24a2.52,2.52,0,1,1-2.52-2.52,2.52,2.52,0,0,1,2.52,2.52Z" transform="translate(-3.14 -136.85)"/><path class="cls-23" d="M208,463.24a2.52,2.52,0,1,1-2.52-2.52,2.52,2.52,0,0,1,2.52,2.52Z" transform="translate(-3.14 -136.85)"/><path class="cls-22" d="M281.82,500.56A2.52,2.52,0,1,1,279.3,498a2.52,2.52,0,0,1,2.52,2.52Z" transform="translate(-3.14 -136.85)"/><path class="cls-23" d="M281.82,500.56A2.52,2.52,0,1,1,279.3,498a2.52,2.52,0,0,1,2.52,2.52Z" transform="translate(-3.14 -136.85)"/><path class="cls-22" d="M355.74,575.68a2.52,2.52,0,1,1-2.52-2.52,2.52,2.52,0,0,1,2.52,2.52Z" transform="translate(-3.14 -136.85)"/><path class="cls-23" d="M355.74,575.68a2.52,2.52,0,1,1-2.52-2.52,2.52,2.52,0,0,1,2.52,2.52Z" transform="translate(-3.14 -136.85)"/><path class="cls-22" d="M429.54,544.6a2.52,2.52,0,1,1-2.52-2.52,2.52,2.52,0,0,1,2.52,2.52Z" transform="translate(-3.14 -136.85)"/><path class="cls-23" d="M429.54,544.6a2.52,2.52,0,1,1-2.52-2.52,2.52,2.52,0,0,1,2.52,2.52Z" transform="translate(-3.14 -136.85)"/><path class="cls-22" d="M503.34,569.08a2.52,2.52,0,1,1-2.52-2.52,2.52,2.52,0,0,1,2.52,2.52Z" transform="translate(-3.14 -136.85)"/><path class="cls-23" d="M503.34,569.08a2.52,2.52,0,1,1-2.52-2.52,2.52,2.52,0,0,1,2.52,2.52Z" transform="translate(-3.14 -136.85)"/></g><g class="cls-7"><path class="cls-24" d="M131.57,346.18C156.19,385,180.81,430,205.42,462.48a509.44,509.44,0,0,0,73.85,78.46c24.62,21.37,49.24,44.78,73.85,49.77s49.24-19.53,73.85-19.89,49.24,11.81,73.85,17.72" transform="translate(-3.14 -136.85)"/></g><g class="cls-9"><path class="cls-25" d="M134.1,346.12a2.52,2.52,0,1,1-2.52-2.52,2.52,2.52,0,0,1,2.52,2.52Z" transform="translate(-3.14 -136.85)"/><path class="cls-26" d="M134.1,346.12a2.52,2.52,0,1,1-2.52-2.52,2.52,2.52,0,0,1,2.52,2.52Z" transform="translate(-3.14 -136.85)"/><path class="cls-25" d="M208,462.52A2.52,2.52,0,1,1,205.5,460a2.52,2.52,0,0,1,2.52,2.52Z" transform="translate(-3.14 -136.85)"/><path class="cls-26" d="M208,462.52A2.52,2.52,0,1,1,205.5,460a2.52,2.52,0,0,1,2.52,2.52Z" transform="translate(-3.14 -136.85)"/><path class="cls-25" d="M281.82,540.88a2.52,2.52,0,1,1-2.52-2.52,2.52,2.52,0,0,1,2.52,2.52Z" transform="translate(-3.14 -136.85)"/><path class="cls-26" d="M281.82,540.88a2.52,2.52,0,1,1-2.52-2.52,2.52,2.52,0,0,1,2.52,2.52Z" transform="translate(-3.14 -136.85)"/><path class="cls-25" d="M355.74,590.68a2.52,2.52,0,1,1-2.52-2.52,2.52,2.52,0,0,1,2.52,2.52Z" transform="translate(-3.14 -136.85)"/><path class="cls-26" d="M355.74,590.68a2.52,2.52,0,1,1-2.52-2.52,2.52,2.52,0,0,1,2.52,2.52Z" transform="translate(-3.14 -136.85)"/><path class="cls-25" d="M429.54,570.76a2.52,2.52,0,1,1-2.52-2.52,2.52,2.52,0,0,1,2.52,2.52Z" transform="translate(-3.14 -136.85)"/><path class="cls-26" d="M429.54,570.76a2.52,2.52,0,1,1-2.52-2.52,2.52,2.52,0,0,1,2.52,2.52Z" transform="translate(-3.14 -136.85)"/><path class="cls-25" d="M503.34,588.52a2.52,2.52,0,1,1-2.52-2.52,2.52,2.52,0,0,1,2.52,2.52Z" transform="translate(-3.14 -136.85)"/><path class="cls-26" d="M503.34,588.52a2.52,2.52,0,1,1-2.52-2.52,2.52,2.52,0,0,1,2.52,2.52Z" transform="translate(-3.14 -136.85)"/></g><g class="cls-7"><path class="cls-27" d="M131.57,347.73c24.62,34.22,49.24,76.9,73.85,102.67s49.24,39.9,73.85,51.91,49.24,19.51,73.85,20.17S402.36,495,427,506.25s49.24,55.7,73.85,83.55" transform="translate(-3.14 -136.85)"/></g><g class="cls-9"><path class="cls-28" d="M134.1,347.68a2.52,2.52,0,1,1-2.52-2.53,2.52,2.52,0,0,1,2.52,2.53Z" transform="translate(-3.14 -136.85)"/><path class="cls-29" d="M134.1,347.68a2.52,2.52,0,1,1-2.52-2.53,2.52,2.52,0,0,1,2.52,2.53Z" transform="translate(-3.14 -136.85)"/><path class="cls-28" d="M208,450.4a2.52,2.52,0,1,1-2.52-2.52A2.52,2.52,0,0,1,208,450.4Z" transform="translate(-3.14 -136.85)"/><path class="cls-29" d="M208,450.4a2.52,2.52,0,1,1-2.52-2.52A2.52,2.52,0,0,1,208,450.4Z" transform="translate(-3.14 -136.85)"/><path class="cls-28" d="M281.82,502.24a2.52,2.52,0,1,1-2.52-2.52,2.52,2.52,0,0,1,2.52,2.52Z" transform="translate(-3.14 -136.85)"/><path class="cls-29" d="M281.82,502.24a2.52,2.52,0,1,1-2.52-2.52,2.52,2.52,0,0,1,2.52,2.52Z" transform="translate(-3.14 -136.85)"/><path class="cls-28" d="M355.74,522.52a2.52,2.52,0,1,1-2.52-2.52,2.52,2.52,0,0,1,2.52,2.52Z" transform="translate(-3.14 -136.85)"/><path class="cls-29" d="M355.74,522.52a2.52,2.52,0,1,1-2.52-2.52,2.52,2.52,0,0,1,2.52,2.52Z" transform="translate(-3.14 -136.85)"/><path class="cls-28" d="M429.54,506.2a2.52,2.52,0,1,1-2.52-2.52,2.52,2.52,0,0,1,2.52,2.52Z" transform="translate(-3.14 -136.85)"/><path class="cls-29" d="M429.54,506.2a2.52,2.52,0,1,1-2.52-2.52,2.52,2.52,0,0,1,2.52,2.52Z" transform="translate(-3.14 -136.85)"/><path class="cls-28" d="M503.34,589.84a2.52,2.52,0,1,1-2.52-2.52,2.52,2.52,0,0,1,2.52,2.52Z" transform="translate(-3.14 -136.85)"/><path class="cls-29" d="M503.34,589.84a2.52,2.52,0,1,1-2.52-2.52,2.52,2.52,0,0,1,2.52,2.52Z" transform="translate(-3.14 -136.85)"/></g><g class="cls-7"><path class="cls-30" d="M131.57,351c24.62,28.25,49.24,59.07,73.85,84.75s49.24,49.68,73.85,69.33,49.24,37.45,73.85,48.57,49.24,11.83,73.85,18.15,49.24,13.17,73.85,19.75" transform="translate(-3.14 -136.85)"/></g><g class="cls-9"><path class="cls-31" d="M134.1,350.92a2.52,2.52,0,1,1-2.52-2.52,2.52,2.52,0,0,1,2.52,2.52Z" transform="translate(-3.14 -136.85)"/><path class="cls-32" d="M134.1,350.92a2.52,2.52,0,1,1-2.52-2.52,2.52,2.52,0,0,1,2.52,2.52Z" transform="translate(-3.14 -136.85)"/><path class="cls-31" d="M208,435.76a2.52,2.52,0,1,1-2.52-2.52,2.52,2.52,0,0,1,2.52,2.52Z" transform="translate(-3.14 -136.85)"/><path class="cls-32" d="M208,435.76a2.52,2.52,0,1,1-2.52-2.52,2.52,2.52,0,0,1,2.52,2.52Z" transform="translate(-3.14 -136.85)"/><path class="cls-31" d="M281.82,505a2.52,2.52,0,1,1-2.52-2.52,2.52,2.52,0,0,1,2.52,2.52Z" transform="translate(-3.14 -136.85)"/><path class="cls-32" d="M281.82,505a2.52,2.52,0,1,1-2.52-2.52,2.52,2.52,0,0,1,2.52,2.52Z" transform="translate(-3.14 -136.85)"/><path class="cls-31" d="M355.74,553.6a2.52,2.52,0,1,1-2.52-2.52,2.52,2.52,0,0,1,2.52,2.52Z" transform="translate(-3.14 -136.85)"/><path class="cls-32" d="M355.74,553.6a2.52,2.52,0,1,1-2.52-2.52,2.52,2.52,0,0,1,2.52,2.52Z" transform="translate(-3.14 -136.85)"/><path class="cls-31" d="M429.54,571.72A2.52,2.52,0,1,1,427,569.2a2.52,2.52,0,0,1,2.52,2.52Z" transform="translate(-3.14 -136.85)"/><path class="cls-32" d="M429.54,571.72A2.52,2.52,0,1,1,427,569.2a2.52,2.52,0,0,1,2.52,2.52Z" transform="translate(-3.14 -136.85)"/><path class="cls-31" d="M503.34,591.52a2.52,2.52,0,1,1-2.52-2.52,2.52,2.52,0,0,1,2.52,2.52Z" transform="translate(-3.14 -136.85)"/><path class="cls-32" d="M503.34,591.52a2.52,2.52,0,1,1-2.52-2.52,2.52,2.52,0,0,1,2.52,2.52Z" transform="translate(-3.14 -136.85)"/></g><g class="cls-9"><polygon class="cls-33" points="105.72 44.76 151.08 44.76 151.08 58.8 105.72 58.8 105.72 44.76 105.72 44.76"/></g><text class="cls-34" transform="translate(108.61 55.31)"><tspan class="cls-35">1821</tspan><tspan class="cls-36" x="21.29" y="0">.</tspan><tspan class="cls-35" x="23.37" y="0">80</tspan><tspan x="34.01" y="0">%</tspan></text><g class="cls-9"><polygon class="cls-33" points="182.04 227.4 222.48 227.4 222.48 241.44 182.04 241.44 182.04 227.4 182.04 227.4"/></g><text class="cls-34" transform="translate(184.98 237.91)"><tspan class="cls-35">192</tspan><tspan class="cls-37" x="15.97" y="0">.</tspan><tspan class="cls-35" x="18.04" y="0">88</tspan><tspan x="28.69" y="0">%</tspan></text><g class="cls-9"><polygon class="cls-33" points="258.48 342.84 293.88 342.84 293.88 356.88 258.48 356.88 258.48 342.84 258.48 342.84"/></g><text class="cls-34" transform="translate(261.35 353.35)"><tspan class="cls-35">46</tspan><tspan class="cls-37" x="10.65" y="0">.</tspan><tspan class="cls-35" x="12.72" y="0">65</tspan><tspan x="23.37" y="0">%</tspan></text><g class="cls-9"><polygon class="cls-33" points="332.28 427.44 367.68 427.44 367.68 441.48 332.28 441.48 332.28 427.44 332.28 427.44"/></g><text class="cls-34" transform="translate(335.2 437.96)"><tspan class="cls-38">16</tspan><tspan class="cls-39" x="10.65" y="0">.</tspan><tspan class="cls-35" x="12.72" y="0">48</tspan><tspan x="23.37" y="0">%</tspan></text><g class="cls-9"><polygon class="cls-33" points="406.08 408 441.6 408 441.6 422.04 406.08 422.04 406.08 408 406.08 408"/></g><text class="cls-34" transform="translate(409.05 418.53)"><tspan class="cls-38">20</tspan><tspan class="cls-39" x="10.65" y="0">.</tspan><tspan class="cls-35" x="12.72" y="0">93</tspan><tspan x="23.37" y="0">%</tspan></text><g class="cls-9"><polygon class="cls-33" points="480 333.36 515.4 333.36 515.4 347.4 480 347.4 480 333.36 480 333.36"/></g><text class="cls-34" transform="translate(482.9 343.91)"><tspan class="cls-38">52</tspan><tspan class="cls-39" x="10.65" y="0">.</tspan><tspan class="cls-35" x="12.72" y="0">38</tspan><tspan x="23.37" y="0">%</tspan></text><g class="cls-9"><polygon class="cls-40" points="108.24 219.6 148.68 219.6 148.68 233.64 108.24 233.64 108.24 219.6 108.24 219.6"/></g><text class="cls-41" transform="translate(111.13 230.13)"><tspan class="cls-35">288</tspan><tspan class="cls-37" x="15.97" y="0">.</tspan><tspan class="cls-35" x="18.04" y="0">75</tspan><tspan x="28.69" y="0">%</tspan></text><g class="cls-9"><polygon class="cls-40" points="182.04 304.44 222.48 304.44 222.48 318.36 182.04 318.36 182.04 304.44 182.04 304.44"/></g><text class="cls-41" transform="translate(184.98 314.88)"><tspan class="cls-35">101</tspan><tspan class="cls-37" x="15.97" y="0">.</tspan><tspan class="cls-35" x="18.04" y="0">83</tspan><tspan x="28.69" y="0">%</tspan></text><g class="cls-9"><polygon class="cls-40" points="258.48 373.68 293.88 373.68 293.88 387.72 258.48 387.72 258.48 373.68 258.48 373.68"/></g><text class="cls-41" transform="translate(261.35 384.21)"><tspan class="cls-35">43</tspan><tspan class="cls-37" x="10.65" y="0">.</tspan><tspan class="cls-35" x="12.72" y="0">41</tspan><tspan x="23.37" y="0">%</tspan></text><g class="cls-9"><polygon class="cls-40" points="332.28 422.28 367.68 422.28 367.68 436.32 332.28 436.32 332.28 422.28 332.28 422.28"/></g><text class="cls-41" transform="translate(335.2 432.78)"><tspan class="cls-38">23</tspan><tspan class="cls-39" x="10.65" y="0">.</tspan><tspan class="cls-35" x="12.72" y="0">89</tspan><tspan x="23.37" y="0">%</tspan></text><g class="cls-9"><polygon class="cls-40" points="406.08 440.4 441.6 440.4 441.6 454.44 406.08 454.44 406.08 440.4 406.08 440.4"/></g><text class="cls-41" transform="translate(409.05 450.93)"><tspan class="cls-38">19</tspan><tspan class="cls-39" x="10.65" y="0">.</tspan><tspan class="cls-35" x="12.72" y="0">11</tspan><tspan x="23.37" y="0">%</tspan></text><g class="cls-9"><polygon class="cls-40" points="480 460.2 515.4 460.2 515.4 474.24 480 474.24 480 460.2 480 460.2"/></g><text class="cls-41" transform="translate(482.9 470.67)"><tspan class="cls-38">14</tspan><tspan class="cls-39" x="10.65" y="0">.</tspan><tspan class="cls-35" x="12.72" y="0">99</tspan><tspan x="23.37" y="0">%</tspan></text><text class="cls-42" transform="translate(16.88 490.58)"><tspan class="cls-35">1</tspan><tspan class="cls-43" x="5.32" y="0">0</tspan><tspan class="cls-44" x="10.54" y="0">.</tspan><tspan class="cls-45" x="12.73" y="0">0</tspan><tspan class="cls-43" x="18.05" y="0">0</tspan><tspan x="23.27" y="0">%</tspan></text><text class="cls-42" transform="translate(11.89 303.32)"><tspan class="cls-35">1</tspan><tspan class="cls-43" x="5.32" y="0">0</tspan><tspan class="cls-35" x="10.54" y="0">0</tspan><tspan class="cls-46" x="15.86" y="0">.</tspan><tspan class="cls-43" x="18.05" y="0">0</tspan><tspan class="cls-35" x="23.27" y="0">0</tspan><tspan x="28.59" y="0">%</tspan></text><text class="cls-42" transform="translate(6.9 116.08)"><tspan class="cls-35">1</tspan><tspan class="cls-43" x="5.32" y="0">0</tspan><tspan class="cls-35" x="10.54" y="0">0</tspan><tspan class="cls-43" x="15.86" y="0">0</tspan><tspan class="cls-46" x="21.08" y="0">.</tspan><tspan class="cls-35" x="23.27" y="0">0</tspan><tspan class="cls-43" x="28.59" y="0">0</tspan><tspan x="33.81" y="0">%</tspan></text><text class="cls-42" transform="translate(52.09 314.94)">0</text><text class="cls-42" transform="translate(125.93 314.94)">1</text><text class="cls-42" transform="translate(199.79 314.94)">2</text><text class="cls-42" transform="translate(273.63 314.94)">3</text><text class="cls-42" transform="translate(347.48 314.94)">4</text><text class="cls-42" transform="translate(421.34 314.94)">5</text><text class="cls-42" transform="translate(495.19 314.94)">6</text><text class="cls-42" transform="translate(569.04 314.94)">7</text><text class="cls-47" transform="translate(154.63 22)">美国与主要国家的</text><text class="cls-47" transform="translate(266.96 22)">GDP</text><text class="cls-47" transform="translate(297.91 22)">总<tspan class="cls-48" x="14.04" y="0">量</tspan><tspan x="27.97" y="0">比较</tspan></text><text class="cls-47" transform="translate(353.95 22)"><tspan class="cls-49">:</tspan><tspan class="cls-50" x="3.23" y="0">1</tspan><tspan x="11.47" y="0">9</tspan></text><text class="cls-47" transform="translate(373.27 22)">—</text><text class="cls-47" transform="translate(387.31 22)"><tspan class="cls-50">2</tspan><tspan x="8.25" y="0">0</tspan></text><text class="cls-47" transform="translate(402.8 22)">世纪</text><text class="cls-47" transform="translate(226.52 40.13)">以美国为</text><text class="cls-51" transform="translate(282.68 40.13)">100<tspan class="cls-52" x="24.74" y="0">%</tspan></text><text class="cls-47" transform="translate(317 40.13)">的<tspan class="cls-48" x="14.04" y="0">基</tspan><tspan x="27.97" y="0">线</tspan></text><g class="cls-5"><line class="cls-8" x1="96.48" y1="506.88" x2="115.68" y2="506.88"/></g><g class="cls-9"><path class="cls-10" d="M111.74,643.73a2.52,2.52,0,1,1-2.52-2.52,2.52,2.52,0,0,1,2.52,2.52Z" transform="translate(-3.14 -136.85)"/><path class="cls-11" d="M111.74,643.73a2.52,2.52,0,1,1-2.52-2.52,2.52,2.52,0,0,1,2.52,2.52Z" transform="translate(-3.14 -136.85)"/></g><text class="cls-42" transform="translate(117.76 509.75)">美国</text><g class="cls-5"><line class="cls-12" x1="146.16" y1="506.88" x2="165.36" y2="506.88"/></g><g class="cls-9"><path class="cls-13" d="M161.42,643.73a2.52,2.52,0,1,1-2.52-2.52,2.52,2.52,0,0,1,2.52,2.52Z" transform="translate(-3.14 -136.85)"/><path class="cls-14" d="M161.42,643.73a2.52,2.52,0,1,1-2.52-2.52,2.52,2.52,0,0,1,2.52,2.52Z" transform="translate(-3.14 -136.85)"/></g><text class="cls-42" transform="translate(167.42 509.75)">中国</text><g class="cls-5"><line class="cls-15" x1="195.84" y1="506.88" x2="215.04" y2="506.88"/></g><g class="cls-9"><path class="cls-16" d="M211.1,643.73a2.52,2.52,0,1,1-2.52-2.52,2.52,2.52,0,0,1,2.52,2.52Z" transform="translate(-3.14 -136.85)"/><path class="cls-17" d="M211.1,643.73a2.52,2.52,0,1,1-2.52-2.52,2.52,2.52,0,0,1,2.52,2.52Z" transform="translate(-3.14 -136.85)"/></g><text class="cls-42" transform="translate(217.09 509.75)">日本</text><g class="cls-5"><line class="cls-18" x1="245.52" y1="506.88" x2="264.72" y2="506.88"/></g><g class="cls-9"><path class="cls-19" d="M260.78,643.73a2.52,2.52,0,1,1-2.52-2.52,2.52,2.52,0,0,1,2.52,2.52Z" transform="translate(-3.14 -136.85)"/><path class="cls-20" d="M260.78,643.73a2.52,2.52,0,1,1-2.52-2.52,2.52,2.52,0,0,1,2.52,2.52Z" transform="translate(-3.14 -136.85)"/></g><text class="cls-42" transform="translate(266.76 509.75)">印度</text><g class="cls-5"><line class="cls-21" x1="295.2" y1="506.88" x2="314.4" y2="506.88"/></g><g class="cls-9"><path class="cls-22" d="M310.46,643.73a2.52,2.52,0,1,1-2.52-2.52,2.52,2.52,0,0,1,2.52,2.52Z" transform="translate(-3.14 -136.85)"/><path class="cls-23" d="M310.46,643.73a2.52,2.52,0,1,1-2.52-2.52,2.52,2.52,0,0,1,2.52,2.52Z" transform="translate(-3.14 -136.85)"/></g><text class="cls-42" transform="translate(316.42 509.75)">德国</text><g class="cls-5"><line class="cls-24" x1="344.88" y1="506.88" x2="364.08" y2="506.88"/></g><g class="cls-9"><path class="cls-25" d="M360,643.73a2.52,2.52,0,1,1-2.52-2.52,2.52,2.52,0,0,1,2.52,2.52Z" transform="translate(-3.14 -136.85)"/><path class="cls-26" d="M360,643.73a2.52,2.52,0,1,1-2.52-2.52,2.52,2.52,0,0,1,2.52,2.52Z" transform="translate(-3.14 -136.85)"/></g><text class="cls-42" transform="translate(366.09 509.75)">法国</text><g class="cls-5"><line class="cls-27" x1="394.56" y1="506.88" x2="413.76" y2="506.88"/></g><g class="cls-9"><path class="cls-28" d="M409.7,643.73a2.52,2.52,0,1,1-2.52-2.52,2.52,2.52,0,0,1,2.52,2.52Z" transform="translate(-3.14 -136.85)"/><path class="cls-29" d="M409.7,643.73a2.52,2.52,0,1,1-2.52-2.52,2.52,2.52,0,0,1,2.52,2.52Z" transform="translate(-3.14 -136.85)"/></g><text class="cls-42" transform="translate(415.76 509.75)">前苏联</text><g class="cls-5"><line class="cls-30" x1="453.24" y1="506.88" x2="472.44" y2="506.88"/></g><g class="cls-9"><path class="cls-31" d="M468.38,643.73a2.52,2.52,0,1,1-2.52-2.52,2.52,2.52,0,0,1,2.52,2.52Z" transform="translate(-3.14 -136.85)"/><path class="cls-32" d="M468.38,643.73a2.52,2.52,0,1,1-2.52-2.52,2.52,2.52,0,0,1,2.52,2.52Z" transform="translate(-3.14 -136.85)"/></g><text class="cls-42" transform="translate(474.42 509.75)">英国</text><polygon class="cls-53" points="0.36 0.36 585 0.36 585 521.16 0.36 521.16 0.36 0.36 0.36 0.36"/><text class="cls-54" transform="translate(505.53 306.73)">美国</text><text class="cls-54" transform="translate(478.08 106.45)">1998</text><text class="cls-54" transform="translate(404.7 106.45)">1973</text><text class="cls-54" transform="translate(331.08 106.45)">1950</text><text class="cls-54" transform="translate(257.04 106.45)">1913</text><text class="cls-54" transform="translate(184.07 106.45)">1870</text><text class="cls-54" transform="translate(104.16 106.45)">1820</text><text class="cls-54" transform="translate(520.49 473.56)">英国</text><text class="cls-54" transform="translate(520.49 345.72)">中国</text></svg>