<svg id="图层_1" data-name="图层 1" xmlns="http://www.w3.org/2000/svg" viewBox="0 0 414.15 418.96"><defs><style>.cls-1,.cls-12{fill:none;stroke:#231815;stroke-miterlimit:10;}.cls-1{stroke-width:0.5px;}.cls-10,.cls-11,.cls-2,.cls-3,.cls-4,.cls-5,.cls-6,.cls-7,.cls-8,.cls-9{isolation:isolate;}.cls-3{font-size:14px;letter-spacing:1.3em;}.cls-10,.cls-11,.cls-13,.cls-3,.cls-4,.cls-5,.cls-6,.cls-7,.cls-8,.cls-9{fill:#231815;}.cls-10,.cls-11,.cls-3,.cls-4,.cls-5,.cls-6,.cls-7,.cls-8,.cls-9{font-family:MicrosoftYaHeiLight, Microsoft YaHei;}.cls-4{font-size:11px;}.cls-5{font-size:12px;}.cls-6{font-size:8px;}.cls-7{font-size:9px;}.cls-10,.cls-8,.cls-9{font-size:10px;}.cls-8{letter-spacing:1.78em;}.cls-9{letter-spacing:0.13em;}.cls-10{letter-spacing:1.81em;}.cls-11{font-size:6px;}.cls-14{fill:#b5b5b6;}</style></defs><rect class="cls-1" x="40.43" y="47.27" width="95.2" height="95.2"/><line class="cls-1" x1="40.43" y1="118.67" x2="135.63" y2="118.67"/><line class="cls-1" x1="40.43" y1="94.87" x2="135.63" y2="94.87"/><line class="cls-1" x1="40.43" y1="71.07" x2="135.63" y2="71.07"/><line class="cls-1" x1="111.83" y1="47.27" x2="111.83" y2="142.47"/><line class="cls-1" x1="88.03" y1="47.27" x2="88.03" y2="142.47"/><line class="cls-1" x1="64.23" y1="47.27" x2="64.23" y2="142.47"/><g class="cls-2"><text class="cls-3" transform="translate(72.69 64.87)">111</text><text class="cls-3" transform="translate(49.1 88.87)">1111</text><text class="cls-3" transform="translate(49.1 112.87)">1111</text><text class="cls-3" transform="translate(49.1 136.87)">1111</text></g><text class="cls-4" transform="translate(190.7 96.04)">5席</text><text class="cls-4" transform="translate(44.75 63.74)">1席</text><text class="cls-4" transform="translate(220.62 83.03)">3</text><text class="cls-4" transform="translate(220.62 129.87)">2</text><text class="cls-4" transform="translate(255.52 79.07)">6</text><text class="cls-4" transform="translate(255.52 129.46)">3</text><text class="cls-5" transform="translate(59.08 31.38)">多数决定制</text><text class="cls-6" transform="translate(77.31 6.85)">(英国)</text><text class="cls-6" transform="translate(186.61 6.85)">(比利时, 丹麦, 巴西, 阿根廷)</text><g class="cls-2"><text class="cls-7" transform="translate(0 177.32)">小选区,</text><text class="cls-7" transform="translate(0 191.32)">在每个选取内, 由于只有1个议席,</text><text class="cls-7" transform="translate(0 205.32)">就是赢家通吃这个选区,</text><text class="cls-7" transform="translate(0 219.32)">即这个选区的反对派选民, 由于只占少数百分比, </text><text class="cls-7" transform="translate(0 233.32)">他们的反对意见, 也不会反映在选区议席中,</text><text class="cls-7" transform="translate(0 247.32)">因为每个选区都只有1个议席(给了赢家),</text><text class="cls-7" transform="translate(0 261.32)">没有其他议席留给反对派</text></g><g class="cls-2"><text class="cls-7" transform="translate(211.33 177.32)">大选区,</text><text class="cls-7" transform="translate(211.33 191.32)">在每个选取内, 由于有多个议席,</text><text class="cls-7" transform="translate(211.33 205.32)">这个选区的反对派选民, 即使占少数百分比, </text><text class="cls-7" transform="translate(211.33 219.32)">他们的反对意见, 也会反映在选区议席中,</text><text class="cls-7" transform="translate(211.33 233.32)">因为各政党是根据所得选票比例, 来分配这些议席的</text></g><rect class="cls-1" x="187.04" y="47.27" width="95.2" height="95.2"/><line class="cls-1" x1="211.63" y1="111.47" x2="282.24" y2="111.47"/><line class="cls-1" x1="234.64" y1="47.27" x2="234.64" y2="142.47"/><line class="cls-1" x1="210.84" y1="47.27" x2="210.84" y2="142.47"/><rect class="cls-1" x="40.43" y="323.51" width="95.2" height="95.2"/><line class="cls-1" x1="40.43" y1="394.91" x2="135.63" y2="394.91"/><line class="cls-1" x1="40.43" y1="371.11" x2="135.63" y2="371.11"/><line class="cls-1" x1="40.43" y1="347.31" x2="135.63" y2="347.31"/><line class="cls-1" x1="111.83" y1="323.51" x2="111.83" y2="418.71"/><line class="cls-1" x1="88.03" y1="323.51" x2="88.03" y2="418.71"/><line class="cls-1" x1="64.23" y1="323.51" x2="64.23" y2="418.71"/><g class="cls-2"><text class="cls-8" transform="translate(49.1 339.11)">abb</text><text class="cls-9" transform="translate(119.98 339.11)">b</text><text class="cls-10" transform="translate(49.1 363.11)">bab</text><text class="cls-9" transform="translate(120.7 363.11)">a</text><text class="cls-10" transform="translate(49.1 387.11)">aab</text><text class="cls-9" transform="translate(119.98 387.11)">b</text><text class="cls-10" transform="translate(49.1 411.11)">baa</text><text class="cls-9" transform="translate(119.98 411.11)">b</text></g><g class="cls-2"><text class="cls-11" transform="translate(190.7 370.28)">a=3席</text><text class="cls-11" transform="translate(190.7 394.28)">b=2席</text></g><g class="cls-2"><text class="cls-11" transform="translate(214.82 353.31)">a=1席</text><text class="cls-11" transform="translate(214.82 360.51)">b=2席</text></g><text class="cls-11" transform="translate(214.82 399.94)">a=2席</text><g class="cls-2"><text class="cls-11" transform="translate(250.59 353.31)">a=3席</text><text class="cls-11" transform="translate(250.59 360.51)">b=2席</text><text class="cls-11" transform="translate(250.59 367.71)">c=1席</text></g><g class="cls-2"><text class="cls-11" transform="translate(249.27 399.94)">a=1席位</text><text class="cls-11" transform="translate(249.27 407.14)">b=2席</text></g><rect class="cls-1" x="187.04" y="323.51" width="95.2" height="95.2"/><line class="cls-1" x1="211.63" y1="387.71" x2="282.24" y2="387.71"/><line class="cls-1" x1="234.64" y1="323.51" x2="234.64" y2="418.71"/><line class="cls-1" x1="210.84" y1="323.51" x2="210.84" y2="418.71"/><text class="cls-5" transform="translate(205.69 31.38)">比例代表制</text><line class="cls-12" x1="26.83" y1="157.67" x2="41.53" y2="139.91"/><polygon class="cls-13" points="46.03 134.47 42.82 144.73 41.19 140.32 36.56 139.54 46.03 134.47"/><line class="cls-12" x1="230.03" y1="157.67" x2="244.73" y2="139.91"/><polygon class="cls-13" points="249.23 134.47 246.02 144.73 244.39 140.32 239.76 139.54 249.23 134.47"/><rect class="cls-14" x="82.62" y="282.47" width="4.32" height="14.57"/><polygon class="cls-14" points="84.78 305.67 92.33 292.59 77.23 292.59 84.78 305.67"/><rect class="cls-14" x="237.02" y="282.47" width="4.32" height="14.57"/><polygon class="cls-14" points="239.18 305.67 246.74 292.59 231.63 292.59 239.18 305.67"/></svg>