<svg width="554" xmlns="http://www.w3.org/2000/svg" viewBox="0 0 554 344" xmlns:xlink="http://www.w3.org/1999/xlink" height="344">
    <defs/>
    <g transform="translate(-411.00,-153.00)">
        <g id="shape1" transform="translate(412.00,198.00)">
            <path fill-rule="nonzero" stroke="#323232" d="M254.0,35.0L254.0,.0L.0,.0L.0,35.0L254.0,35.0z" fill="#ffffff"/>
            <text style="fill:#191919;font-family:Microsoft YaHei;font-size:10.00pt" xml:space="preserve">
                <tspan y="23.0" x="114.0">公民</tspan>
            </text>
        </g>
        <g id="shape2" transform="translate(479.00,154.00)">
            <text style="fill:#191919;font-family:Microsoft YaHei;font-size:10.00pt" xml:space="preserve">
                <tspan y="23.0" x="27.5">美国总统制</tspan>
            </text>
        </g>
        <g id="shape3" transform="translate(431.87,302.00)">
            <path fill-rule="nonzero" stroke="#323232" d="M54.7,35.0L54.7,.0L.0,.0L.0,35.0L54.7,35.0z" fill="#d7d7d7"/>
            <text style="fill:#191919;font-family:Microsoft YaHei;font-size:10.00pt" xml:space="preserve">
                <tspan y="23.0" x="14.4">总统</tspan>
            </text>
        </g>
        <g id="shape4" transform="translate(583.77,302.00)">
            <path fill-rule="nonzero" stroke="#323232" d="M54.7,35.0L54.7,.0L.0,.0L.0,35.0L54.7,35.0z" fill="#d7d7d7"/>
            <text style="fill:#191919;font-family:Microsoft YaHei;font-size:10.00pt" xml:space="preserve">
                <tspan y="23.0" x="14.4">国会</tspan>
            </text>
        </g>
        <g id="shape5" transform="translate(459.24,233.00)">
            <path stroke="#191919" d="M.0,.0L.0,63.0" fill="none"/>
            <path stroke-width="1" stroke="#191919" d="M3.0,63.0L.0,69.0L-3.0,63.0L3.0,63.0" stroke-linecap="round" fill="#191919"/>
            <rect width="26.0" y="19.3" x="-12.0" height="19.0" fill="#ffffff"/>
            <text style="fill:#191919;font-family:Microsoft YaHei;font-size:10.00pt" xml:space="preserve">
                <tspan y="34.3" x="-12.0">民选</tspan>
            </text>
        </g>
        <g id="shape6" transform="translate(611.14,233.00)">
            <path stroke="#191919" d="M.0,.0L.0,63.0" fill="none"/>
            <path stroke-width="1" stroke="#191919" d="M3.0,63.0L.0,69.0L-3.0,63.0L3.0,63.0" stroke-linecap="round" fill="#191919"/>
            <rect width="26.0" y="23.3" x="-12.0" height="19.0" fill="#ffffff"/>
            <text style="fill:#191919;font-family:Microsoft YaHei;font-size:10.00pt" xml:space="preserve">
                <tspan y="38.3" x="-12.0">民选</tspan>
            </text>
        </g>
        <g id="shape7" transform="translate(788.00,154.00)">
            <text style="fill:#191919;font-family:Microsoft YaHei;font-size:10.00pt" xml:space="preserve">
                <tspan y="23.0" x="27.5">英国议会制</tspan>
            </text>
        </g>
        <g id="shape8" transform="translate(710.00,198.00)">
            <path fill-rule="nonzero" stroke="#323232" d="M254.0,35.0L254.0,.0L.0,.0L.0,35.0L254.0,35.0z" fill="#ffffff"/>
            <text style="fill:#191919;font-family:Microsoft YaHei;font-size:10.00pt" xml:space="preserve">
                <tspan y="23.0" x="114.0">公民</tspan>
            </text>
        </g>
        <g id="shape9" transform="translate(786.13,286.00)">
            <path fill-rule="nonzero" stroke="#323232" d="M101.7,35.0L101.7,.0L.0,.0L.0,35.0L101.7,35.0z" fill="#d7d7d7"/>
            <text style="fill:#191919;font-family:Microsoft YaHei;font-size:10.00pt" xml:space="preserve">
                <tspan y="23.0" x="37.9">议会</tspan>
            </text>
        </g>
        <g id="shape10" transform="translate(837.00,233.00)">
            <path stroke="#191919" d="M.0,.0L.0,47.0" fill="none"/>
            <path stroke-width="1" stroke="#191919" d="M3.0,47.0L.0,53.0L-3.0,47.0L3.0,47.0" stroke-linecap="round" fill="#191919"/>
            <rect width="26.0" y="13.4" x="-12.0" height="19.0" fill="#ffffff"/>
            <text style="fill:#191919;font-family:Microsoft YaHei;font-size:10.00pt" xml:space="preserve">
                <tspan y="28.4" x="-12.0">民选</tspan>
            </text>
        </g>
        <g id="shape11" transform="translate(778.74,369.00)">
            <path fill-rule="nonzero" stroke="#323232" d="M116.5,69.4L116.5,.0L.0,.0L.0,69.4L116.5,69.4z" fill="#d7d7d7"/>
            <text style="fill:#191919;font-family:Microsoft YaHei;font-size:10.00pt" xml:space="preserve">
                <tspan y="24.2" x="45.3">首相</tspan>
                <tspan y="40.2" x="9.3" style="font-size:8.00pt">(往往是多数党领袖, </tspan>
                <tspan y="56.2" x="17.8" style="font-size:8.00pt">能获得议会支持)</tspan>
            </text>
        </g>
        <g id="shape12" transform="translate(837.00,321.00)">
            <path stroke="#191919" d="M.0,.0L-0.0,42.0" fill="none"/>
            <path stroke-width="1" stroke="#191919" d="M3.0,42.0L-0.0,48.0L-3.0,42.0L3.0,42.0" stroke-linecap="round" fill="#191919"/>
            <rect width="26.0" y="10.1" x="-12.0" height="19.0" fill="#ffffff"/>
            <text style="fill:#191919;font-family:Microsoft YaHei;font-size:10.00pt" xml:space="preserve">
                <tspan y="25.1" x="-12.0">决定</tspan>
            </text>
        </g>
        <g id="shape13" transform="translate(895.26,403.68)">
            <path stroke-dasharray="2.5,2.5" stroke="#191919" d="M.0,.0L32.0,.0L32.0,-100.2L-1.4,-100.2" fill="none"/>
            <path stroke-width="1" stroke="#191919" d="M-1.4,-97.2L-7.4,-100.2L-1.4,-103.2L-1.4,-97.2" stroke-linecap="round" fill="#191919"/>
            <rect width="65.0" y="-66.9" x="0.5" height="19.0" fill="#ffffff"/>
            <text style="fill:#191919;font-family:Microsoft YaHei;font-size:10.00pt" xml:space="preserve">
                <tspan y="-51.9" x="0.5">对议会负责</tspan>
            </text>
        </g>
        <g id="shape14" transform="translate(518.50,240.50)">
            <text style="fill:#191919;font-family:Microsoft YaHei;font-size:10.00pt" xml:space="preserve">
                <tspan y="23.0" x="7.5">互不</tspan>
                <tspan y="42.0" x="7.5">隶属</tspan>
            </text>
        </g>
        <g id="shape15" transform="translate(583.77,319.50)">
            <path stroke="#191919" d="M.0,.0L-91.2,.0" fill="none"/>
            <path stroke-width="1" stroke="#191919" d="M-91.2,3.0L-97.2,.0L-91.2,-3.0L-91.2,3.0" stroke-linecap="round" fill="#191919"/>
            <rect width="52.0" y="-9.5" x="-68.5" height="19.0" fill="#ffffff"/>
            <text style="fill:#191919;font-family:Microsoft YaHei;font-size:10.00pt" xml:space="preserve">
                <tspan y="5.5" x="-68.5">有预算权</tspan>
            </text>
        </g>
        <g id="shape16" transform="translate(459.24,337.00)">
            <path stroke-dasharray="2.5,2.5" stroke="#191919" d="M.0,.0L.0,41.0L151.9,41.0L151.9,6.0" fill="none"/>
            <path stroke-width="1" stroke="#191919" d="M148.9,6.0L151.9,.0L154.9,6.0L148.9,6.0" stroke-linecap="round" fill="#191919"/>
            <rect width="69.0" y="17.0" x="45.8" height="16.0" fill="#ffffff"/>
            <rect width="110.0" y="33.0" x="25.3" height="16.0" fill="#ffffff"/>
            <rect width="55.0" y="49.0" x="52.8" height="16.0" fill="#ffffff"/>
            <text style="fill:#191919;font-family:Microsoft YaHei;font-size:8.00pt" xml:space="preserve">
                <tspan y="29.0" x="45.8">总统所在政党,</tspan>
                <tspan y="45.0" x="25.3">可能无法控制参众两院</tspan>
                <tspan y="61.0" x="52.8">的多数席位</tspan>
            </text>
        </g>
        <g id="shape17" transform="translate(479.00,416.00)">
            <text style="fill:#191919;font-family:Microsoft YaHei;font-size:10.00pt" xml:space="preserve">
                <tspan y="26.5" x="8.0">行政权和立法权的</tspan>
                <tspan y="45.5" x="13.0">双重合法性冲突,</tspan>
                <tspan y="64.5" x="8.0">可能带来政治僵局</tspan>
            </text>
        </g>
    </g>
</svg>
