<svg id="图层_1" data-name="图层 1" xmlns="http://www.w3.org/2000/svg" xmlns:xlink="http://www.w3.org/1999/xlink" viewBox="0 0 402.2 472.44"><defs><style>.cls-1,.cls-10,.cls-12,.cls-13,.cls-15,.cls-16,.cls-18,.cls-19,.cls-2,.cls-21,.cls-4,.cls-41,.cls-42,.cls-43,.cls-7,.cls-9{fill:none;}.cls-1{clip-rule:evenodd;}.cls-2,.cls-22,.cls-3{fill-rule:evenodd;}.cls-23,.cls-27,.cls-3{fill:#fff;}.cls-4,.cls-43{stroke:#d9d9d9;}.cls-10,.cls-12,.cls-13,.cls-15,.cls-16,.cls-18,.cls-19,.cls-21,.cls-4,.cls-41,.cls-42,.cls-43,.cls-7,.cls-9{stroke-linejoin:round;}.cls-4{stroke-width:0.72px;}.cls-5{clip-path:url(#clip-path);}.cls-6{clip-path:url(#clip-path-2);}.cls-7,.cls-9{stroke:#5893c9;}.cls-10,.cls-13,.cls-16,.cls-19,.cls-41,.cls-7{stroke-linecap:round;}.cls-10,.cls-13,.cls-19,.cls-7{stroke-width:2.16px;}.cls-8{fill:#5893c9;}.cls-12,.cls-15,.cls-21,.cls-43,.cls-9{stroke-width:0.72px;}.cls-10,.cls-12{stroke:#e37933;}.cls-11{fill:#e37933;}.cls-13,.cls-15{stroke:#a5a5a5;}.cls-14{fill:#a5a5a5;}.cls-16,.cls-18,.cls-41,.cls-42{stroke:#171616;}.cls-16{stroke-width:4.44px;}.cls-17{fill:#f5ba1a;}.cls-18{stroke-width:4.56px;}.cls-19,.cls-21{stroke:#406cb4;}.cls-20{fill:#406cb4;}.cls-22{fill:#040000;}.cls-23,.cls-27,.cls-30,.cls-32{font-size:9px;}.cls-23,.cls-27,.cls-30,.cls-32,.cls-34,.cls-36,.cls-44{font-family:MicrosoftYaHei, Microsoft YaHei;}.cls-24{letter-spacing:0em;}.cls-25{letter-spacing:-0.01em;}.cls-26,.cls-27,.cls-32{letter-spacing:0.01em;}.cls-28{letter-spacing:-0.01em;}.cls-29{letter-spacing:0em;}.cls-30,.cls-32,.cls-34,.cls-36{fill:#585959;}.cls-31{letter-spacing:-0.01em;}.cls-33{letter-spacing:-0.01em;}.cls-34{font-size:9.96px;}.cls-35{letter-spacing:0em;}.cls-36{font-size:12px;}.cls-37{letter-spacing:0em;}.cls-38{letter-spacing:0em;}.cls-39{letter-spacing:0em;}.cls-40{letter-spacing:0em;}.cls-41,.cls-42{stroke-width:3.48px;}.cls-44{font-size:18px;fill:#231815;}</style><clipPath id="clip-path" transform="translate(-116.06 -184.29)"><polygon class="cls-1" points="116.42 656.37 476.42 656.37 476.42 184.65 116.42 184.65 116.42 656.37 116.42 656.37"/></clipPath><clipPath id="clip-path-2" transform="translate(-116.06 -184.29)"><polygon class="cls-1" points="188.78 610.53 466.1 610.53 466.1 251.49 188.78 251.49 188.78 610.53 188.78 610.53"/></clipPath></defs><polygon class="cls-3" points="0.36 0.36 360.36 0.36 360.36 472.08 0.36 472.08 0.36 0.36 0.36 0.36"/><path class="cls-4" d="M188.9,520.17H465.38M188.9,430.65H465.38M188.9,341H465.38M188.9,251.49H465.38" transform="translate(-116.06 -184.29)"/><g class="cls-5"><line class="cls-4" x1="72.84" y1="425.52" x2="349.32" y2="425.52"/></g><g class="cls-6"><polyline class="cls-7" points="95.88 344.64 141.96 355.8 188.04 360.84 234.12 237.48 280.2 157.44 326.28 92.88"/></g><g class="cls-5"><path class="cls-8" d="M214.46,529a2.52,2.52,0,1,1-2.52-2.52,2.52,2.52,0,0,1,2.52,2.52Z" transform="translate(-116.06 -184.29)"/><path class="cls-9" d="M214.46,529a2.52,2.52,0,1,1-2.52-2.52,2.52,2.52,0,0,1,2.52,2.52Z" transform="translate(-116.06 -184.29)"/><path class="cls-8" d="M260.54,540.12A2.52,2.52,0,1,1,258,537.6a2.52,2.52,0,0,1,2.52,2.52Z" transform="translate(-116.06 -184.29)"/><path class="cls-9" d="M260.54,540.12A2.52,2.52,0,1,1,258,537.6a2.52,2.52,0,0,1,2.52,2.52Z" transform="translate(-116.06 -184.29)"/><path class="cls-8" d="M306.62,545.16a2.52,2.52,0,1,1-2.52-2.52,2.52,2.52,0,0,1,2.52,2.52Z" transform="translate(-116.06 -184.29)"/><path class="cls-9" d="M306.62,545.16a2.52,2.52,0,1,1-2.52-2.52,2.52,2.52,0,0,1,2.52,2.52Z" transform="translate(-116.06 -184.29)"/><path class="cls-8" d="M352.7,421.8a2.52,2.52,0,1,1-2.52-2.52,2.52,2.52,0,0,1,2.52,2.52Z" transform="translate(-116.06 -184.29)"/><path class="cls-9" d="M352.7,421.8a2.52,2.52,0,1,1-2.52-2.52,2.52,2.52,0,0,1,2.52,2.52Z" transform="translate(-116.06 -184.29)"/><path class="cls-8" d="M398.78,341.76a2.52,2.52,0,1,1-2.52-2.52,2.52,2.52,0,0,1,2.52,2.52Z" transform="translate(-116.06 -184.29)"/><path class="cls-9" d="M398.78,341.76a2.52,2.52,0,1,1-2.52-2.52,2.52,2.52,0,0,1,2.52,2.52Z" transform="translate(-116.06 -184.29)"/><path class="cls-8" d="M444.86,277.2a2.52,2.52,0,1,1-2.52-2.52,2.52,2.52,0,0,1,2.52,2.52Z" transform="translate(-116.06 -184.29)"/><path class="cls-9" d="M444.86,277.2a2.52,2.52,0,1,1-2.52-2.52,2.52,2.52,0,0,1,2.52,2.52Z" transform="translate(-116.06 -184.29)"/></g><g class="cls-6"><polyline class="cls-10" points="95.88 254.52 141.96 237.84 188.04 234.96 234.12 208.68 280.2 169.92 326.28 123.12"/></g><g class="cls-5"><path class="cls-11" d="M214.46,438.84a2.52,2.52,0,1,1-2.52-2.52,2.52,2.52,0,0,1,2.52,2.52Z" transform="translate(-116.06 -184.29)"/><path class="cls-12" d="M214.46,438.84a2.52,2.52,0,1,1-2.52-2.52,2.52,2.52,0,0,1,2.52,2.52Z" transform="translate(-116.06 -184.29)"/><path class="cls-11" d="M260.54,422.16a2.52,2.52,0,1,1-2.52-2.52,2.52,2.52,0,0,1,2.52,2.52Z" transform="translate(-116.06 -184.29)"/><path class="cls-12" d="M260.54,422.16a2.52,2.52,0,1,1-2.52-2.52,2.52,2.52,0,0,1,2.52,2.52Z" transform="translate(-116.06 -184.29)"/><path class="cls-11" d="M306.62,419.28a2.52,2.52,0,1,1-2.52-2.52,2.52,2.52,0,0,1,2.52,2.52Z" transform="translate(-116.06 -184.29)"/><path class="cls-12" d="M306.62,419.28a2.52,2.52,0,1,1-2.52-2.52,2.52,2.52,0,0,1,2.52,2.52Z" transform="translate(-116.06 -184.29)"/><path class="cls-11" d="M352.7,393a2.52,2.52,0,1,1-2.52-2.52A2.52,2.52,0,0,1,352.7,393Z" transform="translate(-116.06 -184.29)"/><path class="cls-12" d="M352.7,393a2.52,2.52,0,1,1-2.52-2.52A2.52,2.52,0,0,1,352.7,393Z" transform="translate(-116.06 -184.29)"/><path class="cls-11" d="M398.78,354.24a2.52,2.52,0,1,1-2.52-2.52,2.52,2.52,0,0,1,2.52,2.52Z" transform="translate(-116.06 -184.29)"/><path class="cls-12" d="M398.78,354.24a2.52,2.52,0,1,1-2.52-2.52,2.52,2.52,0,0,1,2.52,2.52Z" transform="translate(-116.06 -184.29)"/><path class="cls-11" d="M444.86,307.44a2.52,2.52,0,1,1-2.52-2.52,2.52,2.52,0,0,1,2.52,2.52Z" transform="translate(-116.06 -184.29)"/><path class="cls-12" d="M444.86,307.44a2.52,2.52,0,1,1-2.52-2.52,2.52,2.52,0,0,1,2.52,2.52Z" transform="translate(-116.06 -184.29)"/></g><g class="cls-6"><polyline class="cls-13" points="95.88 252.84 141.96 241.08 188.04 227.52 234.12 194.76 280.2 163.68 326.28 123.96"/></g><g class="cls-5"><path class="cls-14" d="M214.46,437.16a2.52,2.52,0,1,1-2.52-2.52,2.52,2.52,0,0,1,2.52,2.52Z" transform="translate(-116.06 -184.29)"/><path class="cls-15" d="M214.46,437.16a2.52,2.52,0,1,1-2.52-2.52,2.52,2.52,0,0,1,2.52,2.52Z" transform="translate(-116.06 -184.29)"/><path class="cls-14" d="M260.54,425.4a2.52,2.52,0,1,1-2.52-2.52,2.52,2.52,0,0,1,2.52,2.52Z" transform="translate(-116.06 -184.29)"/><path class="cls-15" d="M260.54,425.4a2.52,2.52,0,1,1-2.52-2.52,2.52,2.52,0,0,1,2.52,2.52Z" transform="translate(-116.06 -184.29)"/><path class="cls-14" d="M306.62,411.84a2.52,2.52,0,1,1-2.52-2.52,2.52,2.52,0,0,1,2.52,2.52Z" transform="translate(-116.06 -184.29)"/><path class="cls-15" d="M306.62,411.84a2.52,2.52,0,1,1-2.52-2.52,2.52,2.52,0,0,1,2.52,2.52Z" transform="translate(-116.06 -184.29)"/><path class="cls-14" d="M352.7,379.08a2.52,2.52,0,1,1-2.52-2.52,2.52,2.52,0,0,1,2.52,2.52Z" transform="translate(-116.06 -184.29)"/><path class="cls-15" d="M352.7,379.08a2.52,2.52,0,1,1-2.52-2.52,2.52,2.52,0,0,1,2.52,2.52Z" transform="translate(-116.06 -184.29)"/><path class="cls-14" d="M398.78,348a2.52,2.52,0,1,1-2.52-2.52,2.52,2.52,0,0,1,2.52,2.52Z" transform="translate(-116.06 -184.29)"/><path class="cls-15" d="M398.78,348a2.52,2.52,0,1,1-2.52-2.52,2.52,2.52,0,0,1,2.52,2.52Z" transform="translate(-116.06 -184.29)"/><path class="cls-14" d="M444.86,308.28a2.52,2.52,0,1,1-2.52-2.52,2.52,2.52,0,0,1,2.52,2.52Z" transform="translate(-116.06 -184.29)"/><path class="cls-15" d="M444.86,308.28a2.52,2.52,0,1,1-2.52-2.52,2.52,2.52,0,0,1,2.52,2.52Z" transform="translate(-116.06 -184.29)"/></g><g class="cls-6"><polyline class="cls-16" points="95.82 295.62 142.02 266.22 188.1 243.66 234.18 196.26 280.26 156.54 326.34 125.34"/></g><g class="cls-5"><path class="cls-17" d="M214.46,480a2.52,2.52,0,1,1-2.52-2.52,2.52,2.52,0,0,1,2.52,2.52Z" transform="translate(-116.06 -184.29)"/><path class="cls-18" d="M214.46,480a2.52,2.52,0,1,1-2.52-2.52,2.52,2.52,0,0,1,2.52,2.52Z" transform="translate(-116.06 -184.29)"/><path class="cls-17" d="M260.54,450.48A2.52,2.52,0,1,1,258,448a2.52,2.52,0,0,1,2.52,2.52Z" transform="translate(-116.06 -184.29)"/><path class="cls-18" d="M260.54,450.48A2.52,2.52,0,1,1,258,448a2.52,2.52,0,0,1,2.52,2.52Z" transform="translate(-116.06 -184.29)"/><path class="cls-17" d="M306.62,428a2.52,2.52,0,1,1-2.52-2.52,2.52,2.52,0,0,1,2.52,2.52Z" transform="translate(-116.06 -184.29)"/><path class="cls-18" d="M306.62,428a2.52,2.52,0,1,1-2.52-2.52,2.52,2.52,0,0,1,2.52,2.52Z" transform="translate(-116.06 -184.29)"/><path class="cls-17" d="M352.7,380.64a2.52,2.52,0,1,1-2.52-2.52,2.52,2.52,0,0,1,2.52,2.52Z" transform="translate(-116.06 -184.29)"/><path class="cls-18" d="M352.7,380.64a2.52,2.52,0,1,1-2.52-2.52,2.52,2.52,0,0,1,2.52,2.52Z" transform="translate(-116.06 -184.29)"/><path class="cls-17" d="M398.78,340.8a2.52,2.52,0,1,1-2.52-2.52,2.52,2.52,0,0,1,2.52,2.52Z" transform="translate(-116.06 -184.29)"/><path class="cls-18" d="M398.78,340.8a2.52,2.52,0,1,1-2.52-2.52,2.52,2.52,0,0,1,2.52,2.52Z" transform="translate(-116.06 -184.29)"/><path class="cls-17" d="M444.86,309.6a2.52,2.52,0,1,1-2.52-2.52,2.52,2.52,0,0,1,2.52,2.52Z" transform="translate(-116.06 -184.29)"/><path class="cls-18" d="M444.86,309.6a2.52,2.52,0,1,1-2.52-2.52,2.52,2.52,0,0,1,2.52,2.52Z" transform="translate(-116.06 -184.29)"/></g><g class="cls-6"><polyline class="cls-19" points="95.88 243 141.96 229.2 188.04 217.2 234.12 193.92 280.2 169.56 326.28 142.44"/></g><g class="cls-5"><path class="cls-20" d="M214.46,427.32a2.52,2.52,0,1,1-2.52-2.52,2.52,2.52,0,0,1,2.52,2.52Z" transform="translate(-116.06 -184.29)"/><path class="cls-21" d="M214.46,427.32a2.52,2.52,0,1,1-2.52-2.52,2.52,2.52,0,0,1,2.52,2.52Z" transform="translate(-116.06 -184.29)"/><path class="cls-20" d="M260.54,413.52A2.52,2.52,0,1,1,258,411a2.52,2.52,0,0,1,2.52,2.52Z" transform="translate(-116.06 -184.29)"/><path class="cls-21" d="M260.54,413.52A2.52,2.52,0,1,1,258,411a2.52,2.52,0,0,1,2.52,2.52Z" transform="translate(-116.06 -184.29)"/><path class="cls-20" d="M306.62,401.52A2.52,2.52,0,1,1,304.1,399a2.52,2.52,0,0,1,2.52,2.52Z" transform="translate(-116.06 -184.29)"/><path class="cls-21" d="M306.62,401.52A2.52,2.52,0,1,1,304.1,399a2.52,2.52,0,0,1,2.52,2.52Z" transform="translate(-116.06 -184.29)"/><path class="cls-20" d="M352.7,378.24a2.52,2.52,0,1,1-2.52-2.52,2.52,2.52,0,0,1,2.52,2.52Z" transform="translate(-116.06 -184.29)"/><path class="cls-21" d="M352.7,378.24a2.52,2.52,0,1,1-2.52-2.52,2.52,2.52,0,0,1,2.52,2.52Z" transform="translate(-116.06 -184.29)"/><path class="cls-20" d="M398.78,353.88a2.52,2.52,0,1,1-2.52-2.52,2.52,2.52,0,0,1,2.52,2.52Z" transform="translate(-116.06 -184.29)"/><path class="cls-21" d="M398.78,353.88a2.52,2.52,0,1,1-2.52-2.52,2.52,2.52,0,0,1,2.52,2.52Z" transform="translate(-116.06 -184.29)"/><path class="cls-20" d="M444.86,326.76a2.52,2.52,0,1,1-2.52-2.52,2.52,2.52,0,0,1,2.52,2.52Z" transform="translate(-116.06 -184.29)"/><path class="cls-21" d="M444.86,326.76a2.52,2.52,0,1,1-2.52-2.52,2.52,2.52,0,0,1,2.52,2.52Z" transform="translate(-116.06 -184.29)"/></g><g class="cls-5"><polygon class="cls-22" points="101.4 288.6 134.76 288.6 134.76 302.64 101.4 302.64 101.4 288.6 101.4 288.6"/></g><text class="cls-23" transform="translate(104.29 299.15)"><tspan class="cls-24">0</tspan><tspan class="cls-25" x="5.32" y="0">.</tspan><tspan class="cls-24" x="7.4" y="0">281</tspan><tspan x="23.37" y="0">5</tspan></text><g class="cls-5"><polygon class="cls-22" points="147.48 259.2 180.96 259.2 180.96 273.24 147.48 273.24 147.48 259.2 147.48 259.2"/></g><text class="cls-23" transform="translate(150.38 269.67)"><tspan class="cls-24">0</tspan><tspan class="cls-25" x="5.32" y="0">.</tspan><tspan class="cls-24" x="7.4" y="0">600</tspan><tspan x="23.37" y="0">7</tspan></text><g class="cls-5"><polygon class="cls-22" points="193.56 236.64 227.04 236.64 227.04 250.68 193.56 250.68 193.56 236.64 193.56 236.64"/></g><text class="cls-23" transform="translate(196.47 247.17)"><tspan class="cls-26">1</tspan><tspan class="cls-25" x="5.32" y="0">.</tspan><tspan class="cls-26" x="7.4" y="0">070</tspan><tspan x="23.37" y="0">9</tspan></text><g class="cls-5"><polygon class="cls-22" points="239.64 189.24 273.12 189.24 273.12 203.28 239.64 203.28 239.64 189.24 239.64 189.24"/></g><text class="cls-23" transform="translate(242.56 199.76)"><tspan class="cls-26">3</tspan><tspan class="cls-25" x="5.32" y="0">.</tspan><tspan class="cls-26" x="7.4" y="0">623</tspan><tspan x="23.37" y="0">2</tspan></text><g class="cls-5"><polygon class="cls-22" points="285.72 149.52 324.12 149.52 324.12 163.56 285.72 163.56 285.72 149.52 285.72 149.52"/></g><text class="cls-27" transform="translate(288.61 159.98)">10<tspan class="cls-28" x="10.65" y="0">.</tspan><tspan class="cls-24" x="12.72" y="0">071</tspan><tspan class="cls-29" x="28.69" y="0">9</tspan></text><g class="cls-5"><polygon class="cls-22" points="321.96 118.32 360.36 118.32 360.36 132.36 321.96 132.36 321.96 118.32 321.96 118.32"/></g><text class="cls-27" transform="translate(324.82 128.78)">22<tspan class="cls-28" x="10.65" y="0">.</tspan><tspan class="cls-24" x="12.72" y="0">461</tspan><tspan class="cls-29" x="28.69" y="0">8</tspan></text><text class="cls-30" transform="translate(38 428.34)"><tspan class="cls-24">0</tspan><tspan class="cls-25" x="5.32" y="0">.</tspan><tspan class="cls-24" x="7.4" y="0">0</tspan><tspan x="12.72" y="0">1</tspan></text><text class="cls-30" transform="translate(55.52 428.34)">万</text><text class="cls-30" transform="translate(38 338.76)"><tspan class="cls-24">0</tspan><tspan class="cls-25" x="5.32" y="0">.</tspan><tspan class="cls-24" x="7.4" y="0">1</tspan><tspan x="12.72" y="0">0</tspan></text><text class="cls-30" transform="translate(55.52 338.76)">万</text><text class="cls-30" transform="translate(38 249.19)"><tspan class="cls-24">1</tspan><tspan class="cls-25" x="5.32" y="0">.</tspan><tspan class="cls-24" x="7.4" y="0">0</tspan><tspan x="12.72" y="0">0</tspan></text><text class="cls-30" transform="translate(55.52 249.19)">万</text><text class="cls-30" transform="translate(32.99 159.62)"><tspan class="cls-24">10</tspan><tspan class="cls-25" x="10.65" y="0">.</tspan><tspan class="cls-24" x="12.72" y="0">0</tspan><tspan x="18.04" y="0">0</tspan></text><text class="cls-30" transform="translate(55.54 159.62)">万</text><text class="cls-30" transform="translate(27.97 70.04)"><tspan class="cls-24">100</tspan><tspan class="cls-25" x="15.97" y="0">.</tspan><tspan class="cls-24" x="18.04" y="0">0</tspan><tspan x="23.37" y="0">0</tspan></text><text class="cls-30" transform="translate(55.57 70.04)">万</text><text class="cls-30" transform="translate(81.22 440.45)"><tspan class="cls-24">150</tspan><tspan x="15.97" y="0">0</tspan></text><text class="cls-30" transform="translate(101.39 440.45)">年</text><text class="cls-30" transform="translate(131.97 440.08)"><tspan class="cls-24">1</tspan><tspan class="cls-31" x="5.32" y="0">6</tspan><tspan class="cls-24" x="10.54" y="0">0</tspan><tspan x="15.86" y="0">0</tspan></text><text class="cls-32" transform="translate(178.07 440.08)">1<tspan class="cls-33" x="5.32" y="0">7</tspan><tspan class="cls-24" x="10.54" y="0">0</tspan><tspan class="cls-29" x="15.86" y="0">0</tspan></text><text class="cls-32" transform="translate(224.15 440.08)">1<tspan class="cls-33" x="5.32" y="0">8</tspan><tspan class="cls-24" x="10.54" y="0">2</tspan><tspan class="cls-29" x="15.86" y="0">0</tspan></text><text class="cls-32" transform="translate(270.24 440.08)">1<tspan class="cls-33" x="5.32" y="0">8</tspan><tspan class="cls-24" x="10.54" y="0">7</tspan><tspan class="cls-29" x="15.86" y="0">0</tspan></text><text class="cls-30" transform="translate(311.67 440.45)"><tspan class="cls-26">191</tspan><tspan x="15.97" y="0">3</tspan></text><text class="cls-30" transform="translate(331.83 440.45)">年</text><text class="cls-34" transform="translate(22.94 105.5) rotate(-90)"><tspan class="cls-35">x</tspan><tspan x="5.06" y="0" xml:space="preserve"> 10000</tspan></text><text class="cls-36" transform="translate(93.49 20.01)">英国与欧洲主要国家的</text><text class="cls-36" transform="translate(213.49 20.01)"><tspan class="cls-37">G</tspan><tspan class="cls-38" x="8.9" y="0">D</tspan><tspan x="17.99" y="0">P</tspan></text><text class="cls-36" transform="translate(239.89 20.01)">总量</text><text class="cls-36" transform="translate(263.89 20.01)">:</text><text class="cls-36" transform="translate(141.97 35.62)"><tspan class="cls-38">150</tspan><tspan x="20.97" y="0">0</tspan></text><text class="cls-36" transform="translate(168.37 35.62)">—</text><text class="cls-36" transform="translate(180.37 35.62)"><tspan class="cls-38">191</tspan><tspan x="20.97" y="0">3</tspan></text><text class="cls-36" transform="translate(206.77 35.62)">年</text><text class="cls-36" transform="translate(116.65 51.21)">(</text><text class="cls-36" transform="translate(120.85 51.21)">单位</text><text class="cls-36" transform="translate(144.85 51.21)">:</text><text class="cls-36" transform="translate(148.09 51.21)">百万</text><text class="cls-36" transform="translate(172.1 51.21)"><tspan class="cls-39">/</tspan><tspan class="cls-40" x="5.15" y="0">199</tspan><tspan x="26.12" y="0">0</tspan></text><text class="cls-36" transform="translate(203.77 51.21)">国际元</text><text class="cls-36" transform="translate(239.77 51.21)">)</text><g class="cls-5"><line class="cls-7" x1="49.2" y1="457.8" x2="68.4" y2="457.8"/></g><g class="cls-5"><path class="cls-8" d="M177.38,642.09a2.52,2.52,0,1,1-2.52-2.52,2.52,2.52,0,0,1,2.52,2.52Z" transform="translate(-116.06 -184.29)"/><path class="cls-9" d="M177.38,642.09a2.52,2.52,0,1,1-2.52-2.52,2.52,2.52,0,0,1,2.52,2.52Z" transform="translate(-116.06 -184.29)"/></g><text class="cls-30" transform="translate(70.43 460.67)">美国</text><g class="cls-5"><line class="cls-10" x1="99.12" y1="457.8" x2="118.32" y2="457.8"/></g><g class="cls-5"><path class="cls-11" d="M227.18,642.09a2.52,2.52,0,1,1-2.52-2.52,2.52,2.52,0,0,1,2.52,2.52Z" transform="translate(-116.06 -184.29)"/><path class="cls-12" d="M227.18,642.09a2.52,2.52,0,1,1-2.52-2.52,2.52,2.52,0,0,1,2.52,2.52Z" transform="translate(-116.06 -184.29)"/></g><text class="cls-30" transform="translate(120.33 460.67)">德国</text><g class="cls-5"><line class="cls-13" x1="149.04" y1="457.8" x2="168.24" y2="457.8"/></g><g class="cls-5"><path class="cls-14" d="M277.1,642.09a2.52,2.52,0,1,1-2.52-2.52,2.52,2.52,0,0,1,2.52,2.52Z" transform="translate(-116.06 -184.29)"/><path class="cls-15" d="M277.1,642.09a2.52,2.52,0,1,1-2.52-2.52,2.52,2.52,0,0,1,2.52,2.52Z" transform="translate(-116.06 -184.29)"/></g><text class="cls-30" transform="translate(170.23 460.67)">前苏联地区</text><g class="cls-5"><line class="cls-41" x1="225.9" y1="457.86" x2="245.1" y2="457.86"/></g><g class="cls-5"><path class="cls-17" d="M354,642.15a2.46,2.46,0,1,1-2.46-2.46,2.46,2.46,0,0,1,2.46,2.46Z" transform="translate(-116.06 -184.29)"/><path class="cls-42" d="M354,642.15a2.46,2.46,0,1,1-2.46-2.46,2.46,2.46,0,0,1,2.46,2.46Z" transform="translate(-116.06 -184.29)"/></g><text class="cls-30" transform="translate(247.13 460.67)">英国</text><g class="cls-5"><line class="cls-19" x1="275.76" y1="457.8" x2="294.96" y2="457.8"/></g><g class="cls-5"><path class="cls-20" d="M403.94,642.09a2.52,2.52,0,1,1-2.52-2.52,2.52,2.52,0,0,1,2.52,2.52Z" transform="translate(-116.06 -184.29)"/><path class="cls-21" d="M403.94,642.09a2.52,2.52,0,1,1-2.52-2.52,2.52,2.52,0,0,1,2.52,2.52Z" transform="translate(-116.06 -184.29)"/></g><text class="cls-30" transform="translate(297.03 460.67)">法国</text><polygon class="cls-43" points="0.36 0.36 360.36 0.36 360.36 472.08 0.36 472.08 0.36 0.36 0.36 0.36"/><text class="cls-44" transform="translate(366.2 132.53)">英国</text><text class="cls-44" transform="translate(332.9 95.98)">美国</text></svg>