<svg id="图层_1" data-name="图层 1" xmlns="http://www.w3.org/2000/svg" viewBox="0 0 873.42 369.23"><defs><style>.cls-1{fill:#22ac38;}.cls-2{fill:#2ea7e0;}.cls-3{fill:#601986;}.cls-4{fill:#a48b78;}.cls-5{fill:#fff100;}.cls-6{fill:#e83828;}.cls-7{font-size:8px;font-family:MicrosoftYaHeiLight, Microsoft YaHei;letter-spacing:0.13em;}.cls-11,.cls-7,.cls-8,.cls-9{fill:#231815;}.cls-8,.cls-9{font-size:11.82px;font-family:MicrosoftYaHei, Microsoft YaHei;}.cls-9{letter-spacing:0.13em;}.cls-10{fill:none;stroke:#231815;stroke-miterlimit:10;}</style></defs><rect class="cls-1" x="167.82" y="200.04" width="73.6" height="16"/><rect class="cls-2" x="347.02" y="200.04" width="32.06" height="16"/><rect class="cls-3" x="378.56" y="200.04" width="48.09" height="16"/><rect class="cls-4" x="426.13" y="200.04" width="32.06" height="16"/><rect class="cls-5" x="857.39" y="28.04" width="16.03" height="16"/><rect class="cls-6" x="239.82" y="200.04" width="107.2" height="16"/><rect class="cls-1" x="167.82" y="258.44" width="125.84" height="16"/><rect class="cls-6" x="290.92" y="258.44" width="183.29" height="16"/><text class="cls-7" transform="translate(283.82 229.45)">40%</text><text class="cls-7" transform="translate(191.72 229.45)">30%</text><rect class="cls-1" x="167.82" y="28.04" width="73.6" height="16"/><rect class="cls-2" x="347.02" y="28.04" width="32.06" height="16"/><rect class="cls-3" x="378.56" y="28.04" width="48.09" height="16"/><rect class="cls-4" x="426.13" y="28.04" width="32.06" height="16"/><rect class="cls-5" x="458.19" y="28.04" width="16.03" height="16"/><rect class="cls-6" x="239.82" y="28.04" width="107.2" height="16"/><text class="cls-7" transform="translate(283.82 57.45)">40%</text><text class="cls-8" transform="translate(166.69 10.14)">一轮多数制</text><text class="cls-9" transform="translate(276.61 131.82)">当选</text><text class="cls-8" transform="translate(0 211.88)">第1轮, 无人超过50%的支持度</text><text class="cls-8" transform="translate(0 270.51)">第2轮, 通常获胜者能超过50%</text><text class="cls-8" transform="translate(166.58 182.14)">两轮多数制</text><text class="cls-7" transform="translate(191.72 57.45)">30%</text><text class="cls-7" transform="translate(367.42 289.14)">60%</text><text class="cls-7" transform="translate(240.68 289.14)">40%</text><line class="cls-10" x1="291.02" y1="112.54" x2="291.02" y2="75.6"/><polygon class="cls-11" points="291.02 68.54 295.08 78.49 291.02 76.13 286.95 78.49 291.02 68.54"/><text class="cls-9" transform="translate(361.42 366.22)">当选</text><line class="cls-10" x1="375.82" y1="346.94" x2="375.82" y2="310"/><polygon class="cls-11" points="375.82 302.94 379.88 312.89 375.82 310.52 371.75 312.89 375.82 302.94"/><line class="cls-10" x1="168.62" y1="219.74" x2="168.62" y2="258.14"/><line class="cls-10" x1="347.02" y1="219.74" x2="471.82" y2="258.14"/></svg>