<svg width="689" viewBox="0 0 689 315" xmlns="http://www.w3.org/2000/svg" xmlns:xlink="http://www.w3.org/1999/xlink" height="315">
    <defs/>
    <g transform="translate(-414.50,-177.00)">
        <g id="shape1" transform="translate(415.50,272.00)">
            <path d="M120.0,32.0L120.0,.0L.0,.0L.0,32.0L120.0,32.0z" fill="#ffffff" stroke="#323232" fill-rule="nonzero"/>
            <text style="fill:#191919;font-family:Microsoft YaHei;font-size:10.00pt" xml:space="preserve">
                <tspan y="21.5" x="34.0">公职人员</tspan>
            </text>
        </g>
        <g id="shape2" transform="translate(415.50,178.00)">
            <path d="M120.0,32.0L120.0,.0L.0,.0L.0,32.0L120.0,32.0z" fill="#ffffff" stroke="#323232" fill-rule="nonzero"/>
            <text style="fill:#191919;font-family:Microsoft YaHei;font-size:10.00pt" xml:space="preserve">
                <tspan y="21.5" x="47.0">公民</tspan>
            </text>
        </g>
        <g id="shape3" transform="translate(448.74,210.00)">
            <path d="M.0,.0L.0,56.0" fill="none" stroke="#191919"/>
            <path stroke-linecap="round" d="M3.0,56.0L.0,62.0L-3.0,56.0L3.0,56.0" stroke-width="1" fill="#191919" stroke="#191919"/>
            <rect y="15.4" x="-12.0" width="26.0" fill="#ffffff" height="19.0"/>
            <text style="fill:#191919;font-family:Microsoft YaHei;font-size:10.00pt" xml:space="preserve">
                <tspan y="30.4" x="-12.0">选举</tspan>
            </text>
        </g>
        <g id="shape4" transform="translate(500.70,210.00)">
            <path d="M.0,.0L.0,56.0" fill="none" stroke="#191919"/>
            <path stroke-linecap="round" d="M3.0,56.0L.0,62.0L-3.0,56.0L3.0,56.0" stroke-width="1" fill="#191919" stroke="#191919"/>
            <rect y="6.9" x="-12.0" width="26.0" fill="#ffffff" height="19.0"/>
            <rect y="25.9" x="-16.0" width="34.0" fill="#ffffff" height="19.0"/>
            <text style="fill:#191919;font-family:Microsoft YaHei;font-size:10.00pt" xml:space="preserve">
                <tspan y="21.9" x="-12.0">抽签</tspan>
                <tspan y="40.9" x="-16.0">(为主)</tspan>
            </text>
        </g>
        <g id="shape5" transform="translate(554.50,197.00)">
            <text style="fill:#191919;font-family:Microsoft YaHei;font-size:10.00pt" xml:space="preserve">
                <tspan y="36.0" x="4.5">目的是, 让谁也无法</tspan>
                <tspan y="55.0" x="21.0">独断掌控权力</tspan>
            </text>
        </g>
        <g id="shape6" transform="translate(516.50,235.00)">
            <path d="M.0,.0L32.0,.0" fill="none" stroke="#191919"/>
            <path stroke-linecap="round" d="M32.0,-3.0L38.0,.0L32.0,3.0L32.0,-3.0" stroke-width="1" fill="#191919" stroke="#191919"/>
        </g>
        <g id="shape7" transform="translate(775.00,178.00)">
            <path d="M208.0,54.0L208.0,.0L.0,.0L.0,54.0L208.0,54.0z" fill="#ffffff" stroke="#323232" fill-rule="nonzero"/>
            <text style="fill:#191919;font-family:Microsoft YaHei;font-size:10.00pt" xml:space="preserve">
                <tspan y="23.0" x="78.0">公民大会</tspan>
                <tspan y="42.0" x="51.5">(至少6000人参加)</tspan>
            </text>
        </g>
        <g id="shape8" transform="translate(796.78,321.00)">
            <path d="M75.0,54.0L75.0,.0L.0,.0L.0,54.0L75.0,54.0z" fill="#ffffff" stroke="#323232" fill-rule="nonzero"/>
            <text style="fill:#191919;font-family:Microsoft YaHei;font-size:10.00pt" xml:space="preserve">
                <tspan y="32.5" x="11.5">公共政策</tspan>
            </text>
        </g>
        <g id="shape9" transform="translate(834.28,232.00)">
            <path d="M.0,.0L.0,83.0" fill="none" stroke="#191919"/>
            <path stroke-linecap="round" d="M3.0,83.0L.0,89.0L-3.0,83.0L3.0,83.0" stroke-width="1" fill="#191919" stroke="#191919"/>
            <rect y="32.1" x="-31.5" width="65.0" fill="#ffffff" height="19.0"/>
            <text style="fill:#191919;font-family:Microsoft YaHei;font-size:10.00pt" xml:space="preserve">
                <tspan y="47.1" x="-31.5">多数决定制</tspan>
            </text>
        </g>
        <g id="shape10" transform="translate(834.28,321.00)">
            <path d="" fill="none" stroke="#191919"/>
        </g>
        <g id="shape11" transform="translate(908.00,321.00)">
            <path d="M75.0,54.0L75.0,.0L.0,.0L.0,54.0L75.0,54.0z" fill="#ffffff" stroke="#323232" fill-rule="nonzero"/>
            <text style="fill:#191919;font-family:Microsoft YaHei;font-size:10.00pt" xml:space="preserve">
                <tspan y="32.5" x="5.0">陶片放逐法</tspan>
            </text>
        </g>
        <g id="shape12" transform="translate(946.26,232.00)">
            <path d="M.0,.0L.0,57.0L-0.8,57.0L-0.8,83.0" fill="none" stroke="#191919"/>
            <path stroke-linecap="round" d="M2.2,83.0L-0.8,89.0L-3.8,83.0L2.2,83.0" stroke-width="1" fill="#191919" stroke="#191919"/>
        </g>
        <g id="shape13" transform="translate(908.00,378.00)">
            <text style="fill:#191919;font-family:Microsoft YaHei;font-size:10.00pt" xml:space="preserve">
                <tspan y="19.0" x="4.4">雅典人相信， 一个人不管是谁，</tspan>
                <tspan y="38.0" x="4.4">不管对城邦的贡献有多大，只要</tspan>
                <tspan y="57.0" x="4.4">他的影响力过大，就有可能威胁</tspan>
                <tspan y="76.0" x="4.4">到民主制度。所以，应该将他放</tspan>
                <tspan y="95.0" x="4.4">逐，放逐期限是10 年。</tspan>
            </text>
        </g>
        <g id="shape14" transform="translate(700.00,321.00)">
            <path d="M75.0,54.0L75.0,.0L.0,.0L.0,54.0L75.0,54.0z" fill="#d7d7d7" stroke="#323232" fill-rule="nonzero"/>
            <text style="fill:#191919;font-family:Microsoft YaHei;font-size:10.00pt" xml:space="preserve">
                <tspan y="32.5" x="11.5">多数暴政</tspan>
            </text>
        </g>
        <g id="shape15" transform="translate(794.00,274.00)">
            <path d="M.0,.0L-56.5,.0L-56.5,41.0" fill="none" stroke="#191919"/>
            <path stroke-linecap="round" d="M-53.5,41.0L-56.5,47.0L-59.5,41.0L-53.5,41.0" stroke-width="1" fill="#191919" stroke="#191919"/>
            <rect y="8.9" x="-81.5" width="52.0" fill="#ffffff" height="19.0"/>
            <text style="fill:#191919;font-family:Microsoft YaHei;font-size:10.00pt" xml:space="preserve">
                <tspan y="23.9" x="-81.5">可能导致</tspan>
            </text>
        </g>
    </g>
</svg>
