<svg width="361" viewBox="0 0 361 256" xmlns="http://www.w3.org/2000/svg" xmlns:xlink="http://www.w3.org/1999/xlink" height="256">
    <defs/>
    <g transform="translate(-306.00,-293.00)">
        <path id="shape1" d="M.0,.0L359.0,.0L359.0,170.0L.0,170.0L.0,.0z" fill="#ffffff" stroke="#323232" stroke-dasharray="2.5,2.5" transform="translate(307.00,378.00)" fill-rule="nonzero"/>
        <g id="shape2" transform="translate(416.00,294.00)">
            <path d="M120.0,46.0L120.0,.0L.0,.0L.0,46.0L120.0,46.0z" fill="#ffffff" stroke="#323232" fill-rule="nonzero"/>
            <text style="fill:#191919;font-family:Microsoft YaHei;font-size:10.00pt" xml:space="preserve">
                <tspan y="28.5" x="30.5">为了: 打仗</tspan>
            </text>
        </g>
        <g id="shape3" transform="translate(416.00,389.00)">
            <path d="M120.0,46.0L120.0,.0L.0,.0L.0,46.0L120.0,46.0z" fill="#ffffff" stroke="#323232" fill-rule="nonzero"/>
            <text style="fill:#191919;font-family:Microsoft YaHei;font-size:10.00pt" xml:space="preserve">
                <tspan y="28.5" x="27.5">创造出征税</tspan>
            </text>
        </g>
        <g id="shape4" transform="translate(476.00,389.00)">
            <path d="M.0,.0L.0,-43.0" fill="none" stroke="#191919"/>
            <path stroke-linecap="round" d="M-3.0,-43.0L.0,-49.0L3.0,-43.0L-3.0,-43.0" stroke-width="1" fill="#191919" stroke="#191919"/>
            <rect y="-31.6" x="-25.0" width="52.0" fill="#ffffff" height="19.0"/>
            <text style="fill:#191919;font-family:Microsoft YaHei;font-size:10.00pt" xml:space="preserve">
                <tspan y="-16.6" x="-25.0">财力支持</tspan>
            </text>
        </g>
        <g id="shape5" transform="translate(416.00,484.00)">
            <path d="M120.0,46.0L120.0,.0L.0,.0L.0,46.0L120.0,46.0z" fill="#ffffff" stroke="#323232" fill-rule="nonzero"/>
            <text style="fill:#191919;font-family:Microsoft YaHei;font-size:10.00pt" xml:space="preserve">
                <tspan y="28.5" x="14.5">创造出官僚体制</tspan>
            </text>
        </g>
        <g id="shape6" transform="translate(476.00,484.00)">
            <path d="M.0,.0L.0,-43.0" fill="none" stroke="#191919"/>
            <path stroke-linecap="round" d="M-3.0,-43.0L.0,-49.0L3.0,-43.0L-3.0,-43.0" stroke-width="1" fill="#191919" stroke="#191919"/>
            <rect y="-28.2" x="-18.5" width="39.0" fill="#ffffff" height="19.0"/>
            <text style="fill:#191919;font-family:Microsoft YaHei;font-size:10.00pt" xml:space="preserve">
                <tspan y="-13.2" x="-18.5">来操作</tspan>
            </text>
        </g>
        <g id="shape7" transform="translate(327.26,438.00)">
            <text style="fill:#191919;font-family:Microsoft YaHei;font-size:10.00pt" xml:space="preserve">
                <tspan y="30.5" x="4.4">改革,变法</tspan>
            </text>
        </g>
        <g id="shape8" transform="translate(567.00,438.00)">
            <text style="fill:#191919;font-family:Microsoft YaHei;font-size:10.00pt" xml:space="preserve">
                <tspan y="21.0" x="4.4">即形成了</tspan>
                <tspan y="40.0" x="4.4">国家</tspan>
            </text>
        </g>
    </g>
</svg>
