<svg width="424" viewBox="0 0 424 281" xmlns="http://www.w3.org/2000/svg" xmlns:xlink="http://www.w3.org/1999/xlink" height="281">
    <defs/>
    <g transform="translate(-484.00,-197.00)">
        <g id="shape1" transform="translate(636.00,257.38)">
            <path d="M120.0,44.6L120.0,.0L.0,.0L.0,44.6L120.0,44.6z" fill="#ebebeb" stroke="#323232" fill-rule="nonzero"/>
            <text style="fill:#191919;font-family:Microsoft YaHei;font-size:10.00pt" xml:space="preserve">
                <tspan y="28.0" x="27.5">挑战当政者</tspan>
            </text>
        </g>
        <g id="shape2" transform="translate(491.00,427.38)">
            <path d="M265.0,44.6L265.0,.0L.0,.0L.0,44.6L265.0,44.6z" fill="#ebebeb" stroke="#323232" fill-rule="nonzero"/>
            <text style="fill:#191919;font-family:Microsoft YaHei;font-size:10.00pt" xml:space="preserve">
                <tspan y="27.8" x="113.0">挑战者</tspan>
            </text>
        </g>
        <g id="shape3" transform="translate(545.06,427.38)">
            <path d="M.0,.0L.0,-93.4L-0.1,-93.4L-0.1,-119.4" fill="none" stroke="#191919"/>
            <path stroke-linecap="round" d="M-3.1,-119.4L-0.1,-125.4L2.9,-119.4L-3.1,-119.4" stroke-width="1" fill="#191919" stroke="#191919"/>
            <rect y="-74.5" x="-30.5" width="63.0" fill="#ffffff" height="19.0"/>
            <rect y="-55.5" x="-18.5" width="39.0" fill="#ffffff" height="19.0"/>
            <text style="fill:#191919;font-family:Microsoft YaHei;font-size:10.00pt" xml:space="preserve">
                <tspan y="-59.5" x="-30.5">4.机会成本</tspan>
                <tspan y="-40.5" x="-18.5">的高低</tspan>
            </text>
        </g>
        <g id="shape4" transform="translate(787.00,422.88)">
            <path d="M120.0,53.6L120.0,.0L.0,.0L.0,53.6L120.0,53.6z" fill="#ffffff" stroke="#323232" fill-rule="nonzero"/>
            <text style="fill:#191919;font-family:Microsoft YaHei;font-size:10.00pt" xml:space="preserve">
                <tspan y="23.0" x="12.0">2.财务, 武器资源</tspan>
                <tspan y="42.0" x="27.5">的获取难度</tspan>
            </text>
        </g>
        <g id="shape5" transform="translate(756.00,449.69)">
            <path d="M.0,.0L25.0,.0" fill="none" stroke="#191919"/>
            <path stroke-linecap="round" d="M25.0,-3.0L31.0,.0L25.0,3.0L25.0,-3.0" stroke-width="1" fill="#191919" stroke="#191919"/>
        </g>
        <g id="shape6" transform="translate(485.00,257.38)">
            <path d="M120.0,44.6L120.0,.0L.0,.0L.0,44.6L120.0,44.6z" fill="#ffffff" stroke="#323232" fill-rule="nonzero"/>
            <text style="fill:#191919;font-family:Microsoft YaHei;font-size:10.00pt" xml:space="preserve">
                <tspan y="28.0" x="34.0">做其他事</tspan>
            </text>
        </g>
        <g id="shape7" transform="translate(654.24,427.38)">
            <path d="M.0,.0L.0,-119.4" fill="none" stroke="#191919"/>
            <path stroke-linecap="round" d="M-3.0,-119.4L.0,-125.4L3.0,-119.4L-3.0,-119.4" stroke-width="1" fill="#191919" stroke="#191919"/>
            <rect y="-74.5" x="-37.0" width="76.0" fill="#ffffff" height="19.0"/>
            <rect y="-55.5" x="-31.5" width="65.0" fill="#ffffff" height="19.0"/>
            <text style="fill:#191919;font-family:Microsoft YaHei;font-size:10.00pt" xml:space="preserve">
                <tspan y="-59.5" x="-37.0">3.自己能获得</tspan>
                <tspan y="-40.5" x="-31.5">的军事优势</tspan>
            </text>
        </g>
        <g id="shape8" transform="translate(560.00,198.00)">
            <text style="fill:#191919;font-family:Microsoft YaHei;font-size:10.00pt" xml:space="preserve">
                <tspan y="24.5" x="21.0">挑战者的选择</tspan>
            </text>
        </g>
        <g id="shape9" transform="translate(730.26,427.38)">
            <path d="M.0,.0L.0,-119.4" fill="none" stroke="#191919"/>
            <path stroke-linecap="round" d="M-3.0,-119.4L.0,-125.4L3.0,-119.4L-3.0,-119.4" stroke-width="1" fill="#191919" stroke="#191919"/>
            <rect y="-72.5" x="-17.5" width="37.0" fill="#ffffff" height="19.0"/>
            <rect y="-53.5" x="-18.5" width="39.0" fill="#ffffff" height="19.0"/>
            <text style="fill:#191919;font-family:Microsoft YaHei;font-size:10.00pt" xml:space="preserve">
                <tspan y="-57.5" x="-17.5">1.怨恨</tspan>
                <tspan y="-38.5" x="-18.5">的程度</tspan>
            </text>
        </g>
    </g>
</svg>
