<svg id="图层_1" data-name="图层 1" xmlns="http://www.w3.org/2000/svg" xmlns:xlink="http://www.w3.org/1999/xlink" viewBox="0 0 314.9 308.16"><defs><style>.cls-1,.cls-2,.cls-30,.cls-4{fill:none;}.cls-1{clip-rule:evenodd;}.cls-2,.cls-25,.cls-26,.cls-27,.cls-28,.cls-29,.cls-3{fill-rule:evenodd;}.cls-3{fill:#fff;}.cls-30,.cls-4{stroke:#d9d9d9;stroke-linejoin:round;}.cls-4{stroke-width:0.72px;}.cls-5{clip-path:url(#clip-path);}.cls-25,.cls-6{fill:#5893c9;}.cls-26,.cls-7{fill:#e37933;}.cls-27,.cls-8{fill:#a5a5a5;}.cls-28,.cls-9{fill:#f5ba1a;}.cls-10,.cls-29{fill:#406cb4;}.cls-11{clip-path:url(#clip-path-6);}.cls-12,.cls-17{font-size:9px;}.cls-12{fill:#404040;}.cls-12,.cls-17,.cls-22,.cls-31{font-family:MicrosoftYaHei, Microsoft YaHei;}.cls-13{letter-spacing:0em;}.cls-14{letter-spacing:-0.01em;}.cls-15{letter-spacing:0.01em;}.cls-16{letter-spacing:-0.01em;}.cls-17,.cls-22{fill:#585959;}.cls-18{letter-spacing:-0.01em;}.cls-19{letter-spacing:0em;}.cls-20{letter-spacing:0.01em;}.cls-21{letter-spacing:0em;}.cls-22{font-size:14.04px;}.cls-23{letter-spacing:0em;}.cls-24{letter-spacing:-0.01em;}.cls-30{stroke-width:0.72px;}.cls-31{font-size:16px;fill:#231815;}</style><clipPath id="clip-path" transform="translate(-151.93 -266.43)"><polygon class="cls-1" points="201.49 528.27 432.97 528.27 432.97 323.07 201.49 323.07 201.49 528.27 201.49 528.27"/></clipPath><clipPath id="clip-path-6" transform="translate(-151.93 -266.43)"><polygon class="cls-1" points="152.29 574.23 443.29 574.23 443.29 266.67 152.29 266.67 152.29 574.23 152.29 574.23"/></clipPath></defs><polygon class="cls-3" points="0.36 0.36 291.36 0.36 291.36 307.8 0.36 307.8 0.36 0.36 0.36 0.36"/><path class="cls-4" d="M201.49,493.47H432.37M201.49,459.39H432.37M201.49,425.31H432.37M201.49,391.23H432.37M201.49,357.15H432.37m-230.88-34H432.37" transform="translate(-151.93 -266.43)"/><g class="cls-5"><path class="cls-6" d="M217.33,513.27h14.52v14.28H217.33V513.27Zm46.2-111.6h14.4V527.55h-14.4V401.67Zm46.2,51.12h14.4v74.76h-14.4V452.79Zm46.08-5.4h14.52v80.16H355.81V447.39Zm46.2-6.48h14.52v86.64H402V440.91Z" transform="translate(-151.93 -266.43)"/></g><g class="cls-5"><path class="cls-7" d="M217.33,446.79h14.52v66.48H217.33V446.79Zm46.2-51h14.4v5.88h-14.4v-5.88Zm46.2,33.48h14.4v23.52h-14.4V429.27Zm46.08-5.16h14.52v23.28H355.81V424.11ZM402,403.47h14.52v37.44H402V403.47Z" transform="translate(-151.93 -266.43)"/></g><g class="cls-5"><path class="cls-8" d="M217.33,404h14.52v42.84H217.33V404Zm46.2-17.76h14.4v9.6h-14.4v-9.6Zm46.2,22.92h14.4v20.16h-14.4V409.11Zm46.08-38.4h14.52v53.4H355.81v-53.4ZM402,375h14.52v28.44H402V375Z" transform="translate(-151.93 -266.43)"/></g><g class="cls-5"><path class="cls-9" d="M217.33,366.15h14.52V404H217.33v-37.8Zm46.2,4.8h14.4v15.24h-14.4V371Zm46.2,19.8h14.4v18.36h-14.4V390.75Zm46.08-26.64h14.52v6.6H355.81v-6.6Zm46.2-6.48h14.52V375H402v-17.4Z" transform="translate(-151.93 -266.43)"/></g><g class="cls-5"><path class="cls-10" d="M217.33,357.15h14.52v9H217.33v-9Zm46.2.12h14.4V371h-14.4V357.27Zm46.2-.12h14.4v33.6h-14.4v-33.6Zm46.08,0h14.52v7H355.81v-7Zm46.2,0h14.52v.48H402v-.48Z" transform="translate(-151.93 -266.43)"/></g><g class="cls-11"><line class="cls-4" x1="49.56" y1="261.12" x2="280.44" y2="261.12"/></g><text class="cls-12" transform="translate(60.35 257.49)"><tspan class="cls-13">8</tspan><tspan class="cls-14" x="5.32" y="0">.</tspan><tspan class="cls-13" x="7.4" y="0">40</tspan><tspan x="18.04" y="0">%</tspan></text><text class="cls-12" transform="translate(104 201.71)"><tspan class="cls-13">73</tspan><tspan class="cls-14" x="10.65" y="0">.</tspan><tspan class="cls-13" x="12.72" y="0">87</tspan><tspan x="23.37" y="0">%</tspan></text><text class="cls-12" transform="translate(150.16 227.25)"><tspan class="cls-15">43</tspan><tspan class="cls-16" x="10.65" y="0">.</tspan><tspan class="cls-13" x="12.72" y="0">89</tspan><tspan x="23.37" y="0">%</tspan></text><text class="cls-12" transform="translate(196.32 224.52)"><tspan class="cls-15">47</tspan><tspan class="cls-16" x="10.65" y="0">.</tspan><tspan class="cls-13" x="12.72" y="0">10</tspan><tspan x="23.37" y="0">%</tspan></text><text class="cls-12" transform="translate(242.49 221.3)"><tspan class="cls-15">50</tspan><tspan class="cls-16" x="10.65" y="0">.</tspan><tspan class="cls-13" x="12.72" y="0">88</tspan><tspan x="23.37" y="0">%</tspan></text><text class="cls-12" transform="translate(60.35 98.75)"><tspan class="cls-13">5</tspan><tspan class="cls-14" x="5.32" y="0">.</tspan><tspan class="cls-13" x="7.4" y="0">27</tspan><tspan x="18.04" y="0">%</tspan></text><text class="cls-12" transform="translate(106.52 101.13)"><tspan class="cls-13">8</tspan><tspan class="cls-14" x="5.32" y="0">.</tspan><tspan class="cls-13" x="7.4" y="0">06</tspan><tspan x="18.04" y="0">%</tspan></text><text class="cls-12" transform="translate(150.16 111)"><tspan class="cls-15">19</tspan><tspan class="cls-16" x="10.65" y="0">.</tspan><tspan class="cls-13" x="12.72" y="0">65</tspan><tspan x="23.37" y="0">%</tspan></text><text class="cls-12" transform="translate(198.85 97.7)"><tspan class="cls-15">4</tspan><tspan class="cls-14" x="5.32" y="0">.</tspan><tspan class="cls-15" x="7.4" y="0">03</tspan><tspan x="18.04" y="0">%</tspan></text><text class="cls-12" transform="translate(245.01 94.5)"><tspan class="cls-15">0</tspan><tspan class="cls-14" x="5.32" y="0">.</tspan><tspan class="cls-15" x="7.4" y="0">28</tspan><tspan x="18.04" y="0">%</tspan></text><text class="cls-17" transform="translate(16.86 264.13)"><tspan class="cls-13">0</tspan><tspan class="cls-14" x="5.32" y="0">.</tspan><tspan class="cls-13" x="7.4" y="0">00</tspan><tspan x="18.04" y="0">%</tspan></text><text class="cls-17" transform="translate(11.88 230.05)"><tspan class="cls-13">2</tspan><tspan class="cls-18" x="5.32" y="0">0</tspan><tspan class="cls-19" x="10.54" y="0">.</tspan><tspan class="cls-20" x="12.73" y="0">0</tspan><tspan class="cls-18" x="18.05" y="0">0</tspan><tspan x="23.27" y="0">%</tspan></text><text class="cls-17" transform="translate(11.88 195.98)"><tspan class="cls-13">4</tspan><tspan class="cls-18" x="5.32" y="0">0</tspan><tspan class="cls-19" x="10.54" y="0">.</tspan><tspan class="cls-20" x="12.73" y="0">0</tspan><tspan class="cls-18" x="18.05" y="0">0</tspan><tspan x="23.27" y="0">%</tspan></text><text class="cls-17" transform="translate(11.88 161.89)"><tspan class="cls-13">6</tspan><tspan class="cls-18" x="5.32" y="0">0</tspan><tspan class="cls-19" x="10.54" y="0">.</tspan><tspan class="cls-20" x="12.73" y="0">0</tspan><tspan class="cls-18" x="18.05" y="0">0</tspan><tspan x="23.27" y="0">%</tspan></text><text class="cls-17" transform="translate(11.88 127.82)"><tspan class="cls-13">8</tspan><tspan class="cls-18" x="5.32" y="0">0</tspan><tspan class="cls-19" x="10.54" y="0">.</tspan><tspan class="cls-20" x="12.73" y="0">0</tspan><tspan class="cls-18" x="18.05" y="0">0</tspan><tspan x="23.27" y="0">%</tspan></text><text class="cls-17" transform="translate(6.89 93.74)"><tspan class="cls-13">1</tspan><tspan class="cls-18" x="5.32" y="0">0</tspan><tspan class="cls-13" x="10.54" y="0">0</tspan><tspan class="cls-21" x="15.86" y="0">.</tspan><tspan class="cls-18" x="18.05" y="0">0</tspan><tspan class="cls-13" x="23.27" y="0">0</tspan><tspan x="28.59" y="0">%</tspan></text><text class="cls-17" transform="translate(6.89 59.67)"><tspan class="cls-13">1</tspan><tspan class="cls-18" x="5.32" y="0">2</tspan><tspan class="cls-13" x="10.54" y="0">0</tspan><tspan class="cls-21" x="15.86" y="0">.</tspan><tspan class="cls-18" x="18.05" y="0">0</tspan><tspan class="cls-13" x="23.27" y="0">0</tspan><tspan x="28.59" y="0">%</tspan></text><text class="cls-17" transform="translate(63.62 276.1)">欧洲</text><text class="cls-17" transform="translate(96.34 276.1)">西海岸国家</text><text class="cls-17" transform="translate(146.94 276.1)">拉丁美洲</text><text class="cls-17" transform="translate(202.1 276.1)">亚洲</text><text class="cls-17" transform="translate(248.27 276.1)">非洲</text><text class="cls-22" transform="translate(60.22 21.96)"><tspan class="cls-23">191</tspan><tspan x="24.74" y="0">4</tspan></text><text class="cls-22" transform="translate(91.42 21.96)">年境外投资的<tspan class="cls-24" x="84.24" y="0">现</tspan><tspan x="98.17" y="0">价总值</tspan></text><text class="cls-22" transform="translate(68.74 40.08)">单位</text><text class="cls-22" transform="translate(96.82 40.08)">:</text><text class="cls-22" transform="translate(100.54 40.08)">百万美元</text><text class="cls-22" transform="translate(156.7 40.08)">(</text><text class="cls-22" transform="translate(161.74 40.08)">当期汇率</text><text class="cls-22" transform="translate(217.89 40.08)">)</text><g class="cls-11"><polygon class="cls-25" points="70.68 291.12 75.6 291.12 75.6 295.92 70.68 295.92 70.68 291.12 70.68 291.12"/></g><text class="cls-17" transform="translate(77.57 296.33)">英国</text><g class="cls-11"><polygon class="cls-26" points="102.96 291.12 107.76 291.12 107.76 295.92 102.96 295.92 102.96 291.12 102.96 291.12"/></g><text class="cls-17" transform="translate(109.83 296.33)">法国</text><g class="cls-11"><polygon class="cls-27" points="135.24 291.12 140.04 291.12 140.04 295.92 135.24 295.92 135.24 291.12 135.24 291.12"/></g><text class="cls-17" transform="translate(142.08 296.33)">其他</text><g class="cls-11"><polygon class="cls-28" points="167.52 291.12 172.32 291.12 172.32 295.92 167.52 295.92 167.52 291.12 167.52 291.12"/></g><text class="cls-17" transform="translate(174.34 296.33)">德国</text><g class="cls-11"><polygon class="cls-29" points="199.68 291.12 204.6 291.12 204.6 295.92 199.68 295.92 199.68 291.12 199.68 291.12"/></g><text class="cls-17" transform="translate(206.6 296.33)">美国</text><polygon class="cls-30" points="0.36 0.36 291.36 0.36 291.36 307.8 0.36 307.8 0.36 0.36 0.36 0.36"/><text class="cls-31" transform="translate(282.9 222.3)">英国</text><text class="cls-31" transform="translate(282.9 96.51)">美国</text></svg>