<svg width="497" viewBox="0 0 497 292" xmlns="http://www.w3.org/2000/svg" xmlns:xlink="http://www.w3.org/1999/xlink" height="292">
    <defs/>
    <g transform="translate(-339.00,-32.00)">
        <g id="shape1" transform="translate(608.13,33.00)">
            <text style="fill:#191919;font-family:Microsoft YaHei;font-size:10.00pt" xml:space="preserve">
                <tspan y="17.5" x="47.0">美国</tspan>
            </text>
        </g>
        <g id="shape2" transform="translate(715.00,268.50)">
            <path d="M120.0,54.0L120.0,.0L.0,.0L.0,54.0L120.0,54.0z" fill="#ffffff" stroke="#323232" fill-rule="nonzero"/>
            <text style="fill:#191919;font-family:Microsoft YaHei;font-size:10.00pt" xml:space="preserve">
                <tspan y="23.0" x="47.0">总统</tspan>
                <tspan y="42.0" x="10.5">(代表君主制因素)</tspan>
            </text>
        </g>
        <g id="shape3" transform="translate(501.26,268.50)">
            <path d="M120.0,54.0L120.0,.0L.0,.0L.0,54.0L120.0,54.0z" fill="#ffffff" stroke="#323232" fill-rule="nonzero"/>
            <text style="fill:#191919;font-family:Microsoft YaHei;font-size:10.00pt" xml:space="preserve">
                <tspan y="23.0" x="40.5">众议院</tspan>
                <tspan y="42.0" x="10.5">(代表民主制因素)</tspan>
            </text>
        </g>
        <g id="shape4" transform="translate(340.00,268.50)">
            <path d="M120.0,54.0L120.0,.0L.0,.0L.0,54.0L120.0,54.0z" fill="#ffffff" stroke="#323232" fill-rule="nonzero"/>
            <text style="fill:#191919;font-family:Microsoft YaHei;font-size:10.00pt" xml:space="preserve">
                <tspan y="23.0" x="40.5">参议院</tspan>
                <tspan y="42.0" x="4.0">(代表贵族精英因素)</tspan>
            </text>
        </g>
        <g id="shape5" transform="translate(501.26,67.00)">
            <path d="M333.7,54.0L333.7,.0L.0,.0L.0,54.0L333.7,54.0z" fill="#ffffff" stroke="#323232" fill-rule="nonzero"/>
            <text style="fill:#191919;font-family:Microsoft YaHei;font-size:10.00pt" xml:space="preserve">
                <tspan y="32.5" x="127.9">美国各州人民</tspan>
            </text>
        </g>
        <g id="shape6" transform="translate(561.33,121.00)">
            <path d="M.0,.0L.0,115.5L-0.1,115.5L-0.1,141.5" fill="none" stroke="#191919"/>
            <path stroke-linecap="round" d="M2.9,141.5L-0.1,147.5L-3.1,141.5L2.9,141.5" stroke-width="1" fill="#191919" stroke="#191919"/>
            <rect y="57.2" x="-76.0" width="154.0" fill="#ffffff" height="16.0"/>
            <text style="fill:#191919;font-family:Microsoft YaHei;font-size:8.00pt" xml:space="preserve">
                <tspan y="69.2" x="-76.0">众议员由各州人民直接选举产生</tspan>
            </text>
        </g>
        <g id="shape7" transform="translate(340.00,154.00)">
            <path d="M120.0,54.0L120.0,.0L.0,.0L.0,54.0L120.0,54.0z" fill="#ffffff" stroke="#323232" fill-rule="nonzero"/>
            <text style="fill:#191919;font-family:Microsoft YaHei;font-size:10.00pt" xml:space="preserve">
                <tspan y="32.5" x="34.0">各州议会</tspan>
            </text>
        </g>
        <g id="shape8" transform="translate(501.26,94.00)">
            <path d="M.0,.0L-101.3,.0L-101.3,54.0" fill="none" stroke="#191919"/>
            <path stroke-linecap="round" d="M-98.3,54.0L-101.3,60.0L-104.3,54.0L-98.3,54.0" stroke-width="1" fill="#191919" stroke="#191919"/>
        </g>
        <g id="shape9" transform="translate(400.00,208.00)">
            <path d="M.0,.0L.0,54.5" fill="none" stroke="#191919"/>
            <path stroke-linecap="round" d="M3.0,54.5L.0,60.5L-3.0,54.5L3.0,54.5" stroke-width="1" fill="#191919" stroke="#191919"/>
            <rect y="9.8" x="-32.0" width="66.0" fill="#ffffff" height="16.0"/>
            <rect y="25.8" x="-54.0" width="110.0" fill="#ffffff" height="16.0"/>
            <text style="fill:#191919;font-family:Microsoft YaHei;font-size:8.00pt" xml:space="preserve">
                <tspan y="21.8" x="-32.0">参议员最初由</tspan>
                <tspan y="37.8" x="-54.0">各州议会间接选举产生</tspan>
            </text>
        </g>
        <g id="shape10" transform="translate(754.26,121.00)">
            <path d="M.0,.0L.0,141.5" fill="none" stroke="#191919"/>
            <path stroke-linecap="round" d="M3.0,141.5L.0,147.5L-3.0,141.5L3.0,141.5" stroke-width="1" fill="#191919" stroke="#191919"/>
        </g>
    </g>
</svg>
