<svg id="图层_1" data-name="图层 1" xmlns="http://www.w3.org/2000/svg" viewBox="0 0 443.03 236.45"><defs><style>.cls-1,.cls-3,.cls-4{fill:none;stroke-miterlimit:10;}.cls-1{stroke:#898989;stroke-width:0.75px;}.cls-2,.cls-5{fill:#231815;}.cls-3,.cls-4{stroke:#231815;}.cls-4{stroke-dasharray:2.02 2.02;}.cls-5{font-size:16px;font-family:MicrosoftYaHei, Microsoft YaHei;}</style></defs><ellipse class="cls-1" cx="99.4" cy="200.51" rx="88.8" ry="34.8"/><polygon class="cls-1" points="99.4 165.71 22.5 217.91 176.3 217.91 99.4 165.71"/><polygon class="cls-1" points="99.4 235.31 176.3 183.11 22.5 183.11 99.4 235.31"/><circle class="cls-2" cx="101.92" cy="43.71" r="12"/><polygon class="cls-2" points="101.92 41.71 79.67 80.25 124.17 80.25 101.92 41.71"/><circle class="cls-2" cx="14.92" cy="159.77" r="6.07"/><polygon class="cls-2" points="14.92 158.76 3.67 178.25 26.17 178.25 14.92 158.76"/><circle class="cls-2" cx="187.72" cy="159.77" r="6.07"/><polygon class="cls-2" points="187.72 158.76 176.47 178.25 198.97 178.25 187.72 158.76"/><circle class="cls-2" cx="101.32" cy="217.98" r="6.07"/><polygon class="cls-2" points="101.32 216.96 90.07 236.45 112.57 236.45 101.32 216.96"/><circle class="cls-2" cx="11.25" cy="211.24" r="6.07"/><polygon class="cls-2" points="11.25 210.23 0 229.71 22.5 229.71 11.25 210.23"/><circle class="cls-2" cx="191.25" cy="211.24" r="6.07"/><polygon class="cls-2" points="191.25 210.23 180 229.71 202.5 229.71 191.25 210.23"/><line class="cls-3" x1="99.45" y1="92.31" x2="99.45" y2="93.31"/><line class="cls-4" x1="99.45" y1="95.33" x2="99.45" y2="179.3"/><line class="cls-3" x1="99.45" y1="180.31" x2="99.45" y2="181.31"/><text class="cls-5" transform="translate(39.22 200.9)">3.创立新的国际秩序</text><text class="cls-5" transform="translate(110.37 123.12)">2.提供可扩展的秩序 (即可被他国复制的方法论)</text><text class="cls-5" transform="translate(139.31 64.73)">1.领先的政治, 经济, 科技实力</text><text class="cls-5" transform="translate(60.3 13.72)">全球领导者</text></svg>