<?xml version="1.0" encoding="UTF-8"?>
<!DOCTYPE svg PUBLIC "-//W3C//DTD SVG 1.1//EN" "http://www.w3.org/Graphics/SVG/1.1/DTD/svg11.dtd">
<svg version="1.2" xmlns="http://www.w3.org/2000/svg" xmlns:xlink="http://www.w3.org/1999/xlink" x="0" y="0" width="631" height="162" viewBox="0 0 631 162">
<style type="text/css"><![CDATA[
text { font:12px Dialog; }
]]></style>
<rect x="-1042" y="-1047" width="3216" height="2264" style="fill:rgb(255,255,255);stroke:none" />
<clipPath id="clip1"><path d="M15,15 L623,15 L623,147 L15,147 Z M26,52 C21.5817184,52 18,55.5817184 18,60 L18,94 C18,98.4182816 21.5817184,102 26,102 L118,102 C122.4182816,102 126,98.4182816 126,94 L126,60 C126,55.5817184 122.4182816,52 118,52 Z" /></clipPath>
<path d="M136,77 L136,40 C136,35.5839996 139.5839996,32 144,32 L162,32" style="fill:none;stroke:rgb(85,142,213)" clip-path="url(#clip1)" />
<clipPath id="clip2"><path d="M15,15 L623,15 L623,147 L15,147 Z M26,52 C21.5817184,52 18,55.5817184 18,60 L18,94 C18,98.4182816 21.5817184,102 26,102 L118,102 C122.4182816,102 126,98.4182816 126,94 L126,60 C126,55.5817184 122.4182816,52 118,52 Z" /></clipPath>
<path d="M136,77 L136,115 C136,119.4160004 139.5839996,123 144,123 L162,123" style="fill:none;stroke:rgb(85,142,213)" clip-path="url(#clip2)" />
<clipPath id="clip3"><path d="M14,14 L624,14 L624,148 L14,148 L14,14 Z" /></clipPath>
<path d="M126,77 L136,77" style="fill:none;stroke:rgb(85,142,213)" clip-path="url(#clip3)" />
<clipPath id="clip4"><path d="M14,48 L131,48 L131,107 L14,107 L14,48 Z" /></clipPath>
<path d="M26,52 C21.5817184,52 18,55.5817184 18,60 L18,94 C18,98.4182816 21.5817184,102 26,102 L118,102 C122.4182816,102 126,98.4182816 126,94 L126,60 C126,55.5817184 122.4182816,52 118,52 Z" style="fill:rgb(220,230,242);stroke:none" clip-path="url(#clip4)" />
<clipPath id="clip5"><path d="M14,48 L131,48 L131,107 L14,107 L14,48 Z" /></clipPath>
<path d="M26,52 C21.5817184,52 18,55.5817184 18,60 L18,94 C18,98.4182816 21.5817184,102 26,102 L118,102 C122.4182816,102 126,98.4182816 126,94 L126,60 C126,55.5817184 122.4182816,52 118,52 Z" style="fill:none;stroke:rgb(85,142,213);stroke-width:5" clip-path="url(#clip5)" />
<clipPath id="clip6"><path d="M45,67 L100,67 L100,88 L45,88 L45,67 Z" /></clipPath>
<path d="M52.7744179,71.6757813 L54.5556679,71.6757813 L54.5556679,73.75 L58.9267616,73.75 L58.9267616,80.3242188 L57.1923866,80.3242188 L57.1923866,79.515625 L54.5556679,79.515625 L54.5556679,83.2890625 L52.7744179,83.2890625 L52.7744179,79.515625 L50.1376991,79.515625 L50.1376991,80.359375 L48.4033241,80.359375 L48.4033241,73.75 L52.7744179,73.75 Z M57.1923866,75.3671875 L54.5556679,75.3671875 L54.5556679,77.8984375 L57.1923866,77.8984375 Z M50.1376991,77.8984375 L52.7744179,77.8984375 L52.7744179,75.3671875 L50.1376991,75.3671875 Z M65.9169922,71.640625 C66.5966797,72.5 67.3271484,73.515625 68.1083984,74.6875 L66.5498047,75.6484375 C65.8857422,74.453125 65.2255859,73.3945313 64.5693359,72.4726563 Z M68.0966797,79.0585938 C68.7998047,79.3476563 69.3896484,79.5703125 69.8662109,79.7265625 C69.8115234,80.0976563 69.7109375,80.5947266 69.5644531,81.2177734 C69.4179688,81.8408203 69.2451172,82.2441406 69.0458984,82.4277344 C68.8466797,82.6113281 68.5976563,82.7480469 68.2988281,82.8378906 C68,82.9277344 67.6396484,82.9726563 67.2177734,82.9726563 L65.2958984,82.9726563 C63.9834023,82.9726563 63.3271523,82.3085938 63.3271523,80.9804688 L63.3271523,74.2304688 L65.0615234,74.2304688 L65.0615234,80.4414063 C65.0615234,81.1132813 65.4091797,81.4492188 66.1044922,81.4492188 L66.7021484,81.4492188 C67.0537109,81.4492188 67.3271484,81.3896484 67.5224609,81.2705078 C67.7177734,81.1513672 67.8388672,80.9775391 67.8857422,80.7490234 C67.9326172,80.5205078 68.0029297,79.9570313 68.0966797,79.0585938 Z M61.4755898,75.0390625 L63.0810585,75.4023438 C62.745121,77.2617188 62.307621,78.984375 61.7685585,80.5703125 L60.2099648,79.9960938 C60.6552773,78.5742188 61.0771523,76.921875 61.4755898,75.0390625 Z M70.2529297,75.2265625 C70.8779297,76.5078125 71.4248047,77.7929688 71.8935547,79.0820313 L70.2763672,79.75 C69.8388672,78.4765625 69.3115234,77.1796875 68.6943359,75.859375 Z M72.6494217,81.2382813 L77.5009842,81.2382813 L77.5009842,79.046875 L73.8916092,79.046875 L73.8916092,77.5234375 L77.5009842,77.5234375 L77.5009842,75.4023438 L73.3291092,75.4023438 L73.3291092,73.8554688 L77.8701248,73.8554688 C77.6083984,73.3398438 77.3134842,72.8320313 76.9853592,72.3320313 L78.5908279,71.6054688 C78.9423904,72.1210938 79.2939529,72.6953125 79.6455154,73.328125 L78.5146561,73.8554688 L83.5009766,73.8554688 L83.5009766,75.4023438 L79.2705154,75.4023438 L79.2705154,77.5234375 L82.9619141,77.5234375 L82.9619141,79.046875 L79.2705154,79.046875 L79.2705154,81.2382813 L84.1337891,81.2382813 L84.1337891,82.8085938 L72.6494217,82.8085938 Z M85.5107498,72.1445313 L90.1044922,72.1445313 L90.1044922,76.6914063 L85.5107498,76.6914063 Z M88.7451172,73.2460938 L86.8701248,73.2460938 L86.8701248,73.9257813 L88.7451172,73.9257813 Z M88.7451172,75.5898438 L88.7451172,74.9101563 L86.8701248,74.9101563 L86.8701248,75.5898438 Z M90.7724609,74.2539063 L92.3251953,74.2539063 C92.3798828,73.9375 92.4267578,73.6328125 92.4658203,73.3398438 L90.5615234,73.3398438 L90.5615234,72.1679688 L96.3154297,72.1679688 L96.3154297,73.3398438 L93.9482422,73.3398438 C93.8974609,73.6484375 93.8427734,73.953125 93.7841797,74.2539063 L95.9638672,74.2539063 L95.9638672,79.1757813 L94.6279297,79.1757813 L94.6279297,75.4257813 L92.1083984,75.4257813 L92.1083984,79.1640625 L90.7724609,79.1640625 Z M85.5459061,78.8945313 L86.8232498,78.8945313 C86.8271484,79.3398438 86.8193359,79.7578125 86.7998123,80.1484375 C86.9794922,80.3164063 87.1669922,80.4707031 87.3623123,80.6113281 L87.3623123,78.4023438 L85.0068436,78.4023438 L85.0068436,77.2304688 L90.3740234,77.2304688 L90.3740234,78.4023438 L88.8037109,78.4023438 L88.8037109,79.1523438 L90.1982422,79.1523438 L90.1982422,80.3007813 L88.8037109,80.3007813 L88.8037109,81.3554688 C89.3427734,81.5429688 89.9736328,81.6425781 90.6962891,81.6542969 C90.4228516,81.2441406 90.1357422,80.875 89.8349609,80.546875 C90.6943359,80.3125 91.3935547,79.9365234 91.9326172,79.4189453 C92.4716797,78.9013672 92.7412109,78.0898438 92.7412109,76.984375 L92.7412109,75.9296875 L94.0068359,75.9296875 L94.0068359,77.0546875 C94.0068359,77.6992188 93.9365234,78.28125 93.7958984,78.8007813 C94.8388672,79.4140625 95.7646484,80.0078125 96.5732422,80.5820313 L95.6767578,81.6425781 L96.5966797,81.625 C96.4169922,82.046875 96.2763672,82.5 96.1748047,82.984375 C94.4404297,82.984375 92.9375,82.9775391 91.6660156,82.9638672 C90.3945313,82.9501953 89.5458984,82.8984375 89.1201172,82.8085938 C88.6943359,82.71875 88.2705078,82.5693359 87.8486404,82.3603516 C87.4267654,82.1513672 87.0263672,81.8867188 86.6474686,81.5664063 C86.5185623,82.328125 86.3154297,82.9375 86.0380936,83.3945313 C85.7568436,83.0429688 85.3740234,82.640625 84.8896561,82.1875 C85.3349609,81.5078125 85.5537109,80.4101563 85.5459061,78.8945313 Z M91.1767578,81.6601563 L95.5185547,81.6425781 C94.7919922,81.0410156 94.0419922,80.4882813 93.2685547,79.984375 C92.7958984,80.6601563 92.0986328,81.21875 91.1767578,81.6601563 Z" style="fill:rgb(55,96,146);stroke:none" clip-path="url(#clip6)" />
<clipPath id="clip7"><path d="M160,14 L246,14 L246,51 L160,51 L160,14 Z" /></clipPath>
<path d="M167,16 C164.2385712,16 162,18.238575 162,21 L162,43 C162,45.761425 164.2385712,48 167,48 L238,48 C240.7614288,48 243,45.761425 243,43 L243,21 C243,18.238575 240.7614288,16 238,16 Z" style="fill:rgb(220,230,242);stroke:none" clip-path="url(#clip7)" />
<clipPath id="clip8"><path d="M160,14 L246,14 L246,51 L160,51 L160,14 Z" /></clipPath>
<path d="M167,16 C164.2385712,16 162,18.238575 162,21 L162,43 C162,45.761425 164.2385712,48 167,48 L238,48 C240.7614288,48 243,45.761425 243,43 L243,21 C243,18.238575 240.7614288,16 238,16 Z" style="fill:none;stroke:rgb(85,142,213);stroke-width:2" clip-path="url(#clip8)" />
<clipPath id="clip9"><path d="M172,22 L234,22 L234,43 L172,43 L172,22 Z" /></clipPath>
<path d="M177.5507813,29.1367188 L176.6777344,29.1367188 L174.984375,27.0625 L176.1269531,27.0625 Z M178.40625,36.8007813 L183.6210938,36.8007813 L183.6210938,33.4257813 L179.3320313,33.4257813 L179.3320313,32.5351563 L183.6210938,32.5351563 L183.6210938,29.8632813 L178.875,29.8632813 L178.875,28.9726563 L189.328125,28.9726563 L189.328125,29.8632813 L184.6289063,29.8632813 L184.6289063,32.5351563 L188.9179688,32.5351563 L188.9179688,33.4257813 L184.6289063,33.4257813 L184.6289063,36.8007813 L189.84375,36.8007813 L189.84375,37.6679688 L178.40625,37.6679688 Z M183.1757813,27.2382813 L184.0429688,26.7929688 C184.5195313,27.5039063 184.8632813,28.0546875 185.0742188,28.4453125 L184.1484375,28.9375 C183.7265625,28.15625 183.4023438,27.5898438 183.1757813,27.2382813 Z M198.9082031,31.6679688 C199.9082031,32.4726563 200.9316254,33.3554688 201.9785156,34.3164063 C201.7206879,34.5664063 201.4824066,34.8046875 201.2636719,35.03125 C200.9394379,34.7109375 200.6113129,34.3945313 200.2792969,34.0820313 C199.2363281,34.125 198.1699219,34.1757813 197.0800781,34.234375 L197.0800781,36.8710938 C197.0800781,37.7617149 196.6113281,38.2070274 195.6738281,38.2070313 C195.2910156,38.2070274 194.7871094,38.1992149 194.1621094,38.1835938 C194.1230469,37.8945274 194.0722656,37.5742188 194.0097656,37.2226563 C194.6660156,37.2929688 195.1699219,37.328125 195.5214844,37.328125 C195.9511719,37.328125 196.1660156,37.1171837 196.1660156,36.6953125 L196.1660156,34.28125 C195.2167969,34.3320313 194.2519531,34.3867188 193.2714844,34.4453125 C192.8261719,34.46875 192.3847656,34.5195313 191.9472656,34.5976563 L191.5605469,33.5898438 C192.0761719,33.4960938 192.5644531,33.34375 193.0253906,33.1328125 C194.2207031,32.546875 195.3300781,31.9570313 196.3535156,31.3632813 C194.9941406,31.46875 193.8535156,31.5625 192.9316406,31.6445313 C192.5253906,31.6835938 192.2167969,31.7265625 192.0058594,31.7734375 L191.6308594,30.7890625 C192.0058594,30.6953125 192.3574219,30.5585938 192.6855469,30.3789063 C193.6660156,29.8320313 194.6484375,29.1855469 195.6328125,28.4394531 C194.2929688,28.5214844 192.9355469,28.59375 191.5605469,28.65625 C191.5058594,28.3828125 191.4355469,28.109375 191.3496094,27.8359375 C195.0761719,27.6953125 198.3847656,27.4804688 201.2753906,27.1914063 L201.4511719,28.0234375 C199.7558594,28.1640625 198.0351563,28.2910156 196.2890625,28.4042969 L196.7636719,28.7382813 C195.5371094,29.5585938 194.4042969,30.25 193.3652344,30.8125 C195.1152344,30.7148438 196.5644531,30.6210938 197.7128906,30.53125 C198.4941406,30.03125 199.2167969,29.5273438 199.8808594,29.0195313 L200.6425781,29.640625 C198.6816406,31.0390625 196.4042969,32.3476563 193.8105469,33.5664063 C195.3652344,33.5117188 197.25,33.4296875 199.4648438,33.3203125 C199.0742188,32.9609375 198.6816406,32.609375 198.2871094,32.265625 Z M198.2167969,35.5117188 L198.8144531,34.8789063 C199.7988281,35.5351563 200.8808441,36.3203125 202.0605469,37.234375 L201.3691406,37.9960938 C200.2753754,37.0898438 199.2246094,36.2617188 198.2167969,35.5117188 Z M193.6347656,34.890625 L194.3964844,35.4882813 C193.3964844,36.3867149 192.3457031,37.2539063 191.2441406,38.0898438 C191.0566406,37.8632774 190.8417969,37.6249962 190.5996094,37.375 C191.6152344,36.6796875 192.6269531,35.8515625 193.6347656,34.890625 Z M205.9101563,29.1367188 L205.0371094,29.1367188 L203.34375,27.0625 L204.4863281,27.0625 Z M211.0253906,28.0527344 C211.0253906,27.8496094 211.0947113,27.6787109 211.2333984,27.5400391 C211.3720551,27.4013672 211.5429535,27.3320313 211.7460938,27.3320313 C211.9531097,27.3320313 212.1279144,27.4003906 212.2705078,27.5371094 C212.4130707,27.6738281 212.484375,27.8457031 212.484375,28.0527344 C212.484375,28.2558594 212.4130707,28.4248047 212.2705078,28.5595703 C212.1279144,28.6943359 211.9531097,28.7617188 211.7460938,28.7617188 C211.5390472,28.7617188 211.3671722,28.6943359 211.2304688,28.5595703 C211.0937347,28.4248047 211.0253906,28.2558594 211.0253906,28.0527344 Z M211.1601563,36.8183594 L211.1601563,30.3378906 L212.3085938,30.3378906 L212.3085938,36.8183594 Z M217.5644531,36.7539063 C217.3144379,36.8906212 216.9765472,36.9589844 216.5507813,36.9589844 C215.390625,36.9589844 214.8105469,36.3164024 214.8105469,35.03125 L214.8105469,31.2871094 L213.6972656,31.2871094 L213.6972656,30.3378906 L214.8105469,30.3378906 L214.8105469,28.7792969 L215.953125,28.4160156 L215.953125,30.3378906 L217.5644531,30.3378906 L217.5644531,31.2871094 L215.953125,31.2871094 L215.953125,34.8261719 C215.953125,35.2519531 216.0253754,35.5566406 216.1699219,35.7402344 C216.3144379,35.9238281 216.5546722,36.015625 216.890625,36.015625 C217.1484375,36.015625 217.3730316,35.9433594 217.5644531,35.7988281 Z M222.5742188,28.0527344 C222.5742188,27.8496094 222.6435394,27.6787109 222.7822266,27.5400391 C222.9208832,27.4013672 223.0917816,27.3320313 223.2949219,27.3320313 C223.5019379,27.3320313 223.6767426,27.4003906 223.8193359,27.5371094 C223.9618988,27.6738281 224.0332031,27.8457031 224.0332031,28.0527344 C224.0332031,28.2558594 223.9618988,28.4248047 223.8193359,28.5595703 C223.6767426,28.6943359 223.5019379,28.7617188 223.2949219,28.7617188 C223.0878754,28.7617188 222.9160004,28.6943359 222.7792969,28.5595703 C222.6425629,28.4248047 222.5742188,28.2558594 222.5742188,28.0527344 Z M222.7089844,36.8183594 L222.7089844,30.3378906 L223.8574219,30.3378906 L223.8574219,36.8183594 Z M225.6386719,35.4179688 C226.2167816,35.8359375 226.8398438,36.0449219 227.5078125,36.0449219 C228.4023285,36.0449219 228.8496094,35.7519531 228.8496094,35.1660156 C228.8496094,34.9160156 228.7519379,34.7099609 228.5566406,34.5478516 C228.3613129,34.3857422 227.9648285,34.1933594 227.3671875,33.9707031 C226.6484222,33.6816406 226.1816254,33.3955078 225.9667969,33.1123047 C225.7519379,32.8291016 225.644516,32.4863281 225.6445313,32.0839844 C225.644516,31.5097656 225.8876953,31.0498047 226.3740234,30.7041016 C226.8603516,30.3583984 227.4589691,30.1855469 228.1699219,30.1855469 C228.7207031,30.1855469 229.2324066,30.28125 229.7050781,30.4726563 L229.7050781,31.5800781 C229.2206879,31.2675781 228.6718597,31.1113281 228.0585938,31.1113281 C227.691391,31.1113281 227.3925629,31.1914063 227.1621094,31.3515625 C226.9316254,31.5117188 226.8164063,31.7226563 226.8164063,31.984375 C226.8164063,32.2421875 226.8993988,32.4433594 227.0654297,32.5878906 C227.2314301,32.7324219 227.5995941,32.9179688 228.1699219,33.1445313 C228.8925629,33.4140625 229.3808441,33.6933594 229.6347656,33.9824219 C229.8886566,34.2714844 230.015625,34.6289063 230.015625,35.0546875 C230.015625,35.6484375 229.7724609,36.1162109 229.2861328,36.4580078 C228.7998047,36.7998009 228.1699219,36.9707031 227.3964844,36.9707031 C226.7245941,36.9707031 226.1386566,36.8437462 225.6386719,36.5898438 Z" style="fill:rgb(23,55,94);stroke:none" clip-path="url(#clip9)" />
<clipPath id="clip10"><path d="M161,60 L623,60 L623,147 L161,147 Z M167,107 C164.2385712,107 162,109.2385712 162,112 L162,134 C162,136.7614288 164.2385712,139 167,139 L418,139 C420.7614136,139 423,136.7614288 423,134 L423,112 C423,109.2385712 420.7614136,107 418,107 Z" /></clipPath>
<path d="M436,123 L436,101 L446,101" style="fill:none;stroke:rgb(85,142,213)" clip-path="url(#clip10)" />
<clipPath id="clip11"><path d="M161,60 L623,60 L623,147 L161,147 Z M167,107 C164.2385712,107 162,109.2385712 162,112 L162,134 C162,136.7614288 164.2385712,139 167,139 L418,139 C420.7614136,139 423,136.7614288 423,134 L423,112 C423,109.2385712 420.7614136,107 418,107 Z" /></clipPath>
<path d="M436,123 L436,145 L446,145" style="fill:none;stroke:rgb(85,142,213)" clip-path="url(#clip11)" />
<clipPath id="clip12"><path d="M160,59 L624,59 L624,148 L160,148 L160,59 Z" /></clipPath>
<path d="M423,123 L436,123" style="fill:none;stroke:rgb(85,142,213)" clip-path="url(#clip12)" />
<clipPath id="clip13"><path d="M160,105 L426,105 L426,142 L160,142 L160,105 Z" /></clipPath>
<path d="M167,107 C164.2385712,107 162,109.2385712 162,112 L162,134 C162,136.7614288 164.2385712,139 167,139 L418,139 C420.7614136,139 423,136.7614288 423,134 L423,112 C423,109.2385712 420.7614136,107 418,107 Z" style="fill:rgb(220,230,242);stroke:none" clip-path="url(#clip13)" />
<clipPath id="clip14"><path d="M160,105 L426,105 L426,142 L160,142 L160,105 Z" /></clipPath>
<path d="M167,107 C164.2385712,107 162,109.2385712 162,112 L162,134 C162,136.7614288 164.2385712,139 167,139 L418,139 C420.7614136,139 423,136.7614288 423,134 L423,112 C423,109.2385712 420.7614136,107 418,107 Z" style="fill:none;stroke:rgb(85,142,213);stroke-width:2" clip-path="url(#clip14)" />
<clipPath id="clip15"><path d="M172,113 L414,113 L414,134 L172,134 L172,113 Z" /></clipPath>
<path d="M177.4980621,119.3222656 L176.6250153,119.3222656 L174.9316559,117.2480469 L176.074234,117.2480469 Z M188.4199371,123.4589844 L189.0644684,124.2675781 L186.4453278,125.5800781 C187.3632813,126.3300781 188.5136871,126.8261719 189.8964996,127.0683594 C189.6308594,127.4121094 189.4121094,127.7246094 189.2402496,128.0058594 C186.7207184,127.4042969 184.9140625,125.8554688 183.8203278,123.359375 C183.421875,123.8671875 182.9667969,124.3496094 182.4550934,124.8066406 L182.4550934,127.3144531 C183.4863434,126.9785156 184.4433594,126.6269531 185.3261871,126.2597656 C185.3183594,126.6035156 185.3222656,126.9433594 185.3379059,127.2792969 C184.4004059,127.5996094 183.4316406,127.9511719 182.4316559,128.3339844 C182.2207184,128.4199219 182.0136719,128.5214844 181.8105621,128.6386719 L181.2597809,127.7832031 C181.4785156,127.6269531 181.5879059,127.4082031 181.5879059,127.1269531 L181.5879059,125.515625 C180.7792969,126.1210938 179.8613281,126.6699219 178.8339996,127.1621094 C178.6621094,126.8886719 178.4628906,126.6191406 178.2363434,126.3535156 C180.2558594,125.5253906 181.8417969,124.4160156 182.9941559,123.0253906 L178.3652496,123.0253906 L178.3652496,122.2167969 L183.6152496,122.2167969 L183.6152496,121.0214844 L179.1972809,121.0214844 L179.1972809,120.2128906 L183.6152496,120.2128906 L183.6152496,119.0644531 L178.7285309,119.0644531 L178.7285309,118.2558594 L183.6152496,118.2558594 L183.6152496,116.9433594 L184.5410309,116.9433594 L184.5410309,118.2558594 L189.4511871,118.2558594 L189.4511871,119.0644531 L184.5410309,119.0644531 L184.5410309,120.2128906 L188.9472809,120.2128906 L188.9472809,121.0214844 L184.5410309,121.0214844 L184.5410309,122.2167969 L189.7793121,122.2167969 L189.7793121,123.0253906 L184.5703278,123.0253906 C184.8984528,123.7871094 185.3203278,124.4472656 185.8359528,125.0058594 C186.621109,124.6152344 187.4824371,124.0996094 188.4199371,123.4589844 Z M193.5000153,119.3222656 L192.6269684,119.3222656 L190.933609,117.2480469 L192.0761871,117.2480469 Z M207.6914215,124.0566406 L203.1562653,124.0566406 C203.1757813,124.7480469 203.3652344,125.2822266 203.7246246,125.6591797 C204.0839844,126.0361328 204.5859528,126.2246094 205.230484,126.2246094 C205.9570465,126.2246094 206.6230469,125.9921875 207.2285309,125.5273438 L207.2285309,126.5527344 C206.6582031,126.9550781 205.9023438,127.15625 204.9609528,127.15625 C204.0234528,127.15625 203.2919922,126.859375 202.7666168,126.265625 C202.2412109,125.671875 201.9785309,124.8476563 201.9785309,123.7929688 C201.9785309,122.8007813 202.2666016,121.9824219 202.8427887,121.3378906 C203.4189453,120.6933594 204.1347656,120.3710938 204.9902496,120.3710938 C205.8378906,120.3710938 206.5,120.6435547 206.9765778,121.1884766 C207.453125,121.7333984 207.6914215,122.4960938 207.6914215,123.4765625 Z M206.542984,123.1367188 C206.5390625,122.5507813 206.4003906,122.0976563 206.1269684,121.7773438 C205.8535156,121.4570313 205.46875,121.296875 204.9726715,121.296875 C204.5156403,121.296875 204.1201172,121.4667969 203.7861481,121.8066406 C203.4521637,122.1464844 203.2421875,122.5898438 203.1562653,123.1367188 Z M218.7539215,127.0039063 L217.605484,127.0039063 L217.605484,123.2832031 C217.605484,122.5800781 217.4960938,122.0771484 217.277359,121.7744141 C217.0585938,121.4716797 216.6992188,121.3203125 216.199234,121.3203125 C215.777359,121.3203125 215.4160156,121.5175781 215.1152496,121.9121094 C214.8144531,122.3066406 214.6640778,122.7734375 214.6640778,123.3125 L214.6640778,127.0039063 L213.5156403,127.0039063 L213.5156403,123.1660156 C213.515625,121.9355469 213.0410156,121.3203125 212.0918121,121.3203125 C211.6542969,121.3203125 211.2920074,121.5078125 211.0048981,121.8828125 C210.7177887,122.2578125 210.574234,122.7363281 210.574234,123.3183594 L210.574234,127.0039063 L209.4257965,127.0039063 L209.4257965,120.5234375 L210.574234,120.5234375 L210.574234,121.5488281 L210.5976715,121.5488281 C211.0585938,120.7636719 211.7324219,120.3710938 212.6191559,120.3710938 C213.0527344,120.3710938 213.4355469,120.4902344 213.7675934,120.7285156 C214.0996094,120.9667969 214.3300934,121.2890625 214.4589996,121.6953125 C214.9394684,120.8125 215.6582031,120.3710938 216.6152496,120.3710938 C218.0410156,120.3710938 218.7539063,121.25 218.7539215,123.0078125 Z M222.1582184,126.0898438 L222.1582184,129.9863281 L221.0097809,129.9863281 L221.0097809,120.5234375 L222.1582184,120.5234375 L222.1582184,121.6425781 L222.1816559,121.6425781 C222.6894531,120.7949219 223.4316406,120.3710938 224.4082184,120.3710938 C225.2363281,120.3710938 225.8857422,120.6611328 226.3564606,121.2412109 C226.8271484,121.8212891 227.0625153,122.5996094 227.0625153,123.5761719 C227.0625153,124.6542969 226.7959137,125.5205078 226.2627106,126.1748047 C225.7295074,126.8291016 225.011734,127.15625 224.1093903,127.15625 C223.277359,127.15625 222.6347656,126.8007813 222.1816559,126.0898438 Z M222.152359,124.3320313 C222.152359,124.859375 222.3222809,125.3037109 222.6621246,125.6650391 C223.0019684,126.0263672 223.4277344,126.2070313 223.9394684,126.2070313 C224.5488281,126.2070313 225.0253906,125.9726563 225.3691559,125.5039063 C225.7128906,125.0351563 225.8847809,124.3867188 225.8847809,123.5585938 C225.8847809,122.859375 225.7246094,122.3115234 225.4043121,121.9150391 C225.0839844,121.5185547 224.6464844,121.3203125 224.0918121,121.3203125 C223.5253906,121.3203125 223.0605621,121.5214844 222.6972809,121.9238281 C222.3339996,122.3261719 222.152359,122.8417969 222.152359,123.4707031 Z M234.3750153,127.0039063 L233.2324371,127.0039063 L233.2324371,123.2773438 C233.2324371,121.9726563 232.7480469,121.3203125 231.7793121,121.3203125 C231.2832031,121.3203125 230.871109,121.5107422 230.542984,121.8916016 C230.214859,122.2724609 230.0507965,122.7519531 230.0507965,123.3300781 L230.0507965,127.0039063 L228.902359,127.0039063 L228.902359,117.4121094 L230.0507965,117.4121094 L230.0507965,121.5898438 L230.074234,121.5898438 C230.5703125,120.7773438 231.2754059,120.3710938 232.1894684,120.3710938 C233.6464844,120.3710938 234.3750153,121.2519531 234.3750153,123.0136719 Z M236.6660309,120.9746094 C237.3105621,120.5722656 238.0547028,120.3710938 238.8984528,120.3710938 C240.4609375,120.3710938 241.2422028,121.1914063 241.2422028,122.8320313 L241.2422028,127.0039063 L240.105484,127.0039063 L240.105484,126.0019531 L240.0761871,126.0019531 C239.6269531,126.7714844 238.9648438,127.15625 238.089859,127.15625 C237.4609375,127.15625 236.9609375,126.9863281 236.589859,126.6464844 C236.21875,126.3066406 236.0332184,125.8476563 236.0332184,125.2695313 C236.0332184,124.0585938 236.7500153,123.3535156 238.183609,123.1542969 L240.105484,122.8847656 C240.105484,121.8261719 239.6679688,121.296875 238.792984,121.296875 C238.015625,121.296875 237.3066406,121.5585938 236.6660309,122.0820313 Z M238.5879059,123.9570313 C238.0566406,124.0273438 237.6904297,124.1601563 237.4892731,124.3554688 C237.2880859,124.5507813 237.1875153,124.8242188 237.1875153,125.1757813 C237.1875153,125.484375 237.296875,125.7363281 237.5156403,125.9316406 C237.734375,126.1269531 238.0234375,126.2246094 238.3828278,126.2246094 C238.8828125,126.2246094 239.2949219,126.0488281 239.6191559,125.6972656 C239.9433594,125.3457031 240.105484,124.9042969 240.105484,124.3730469 L240.105484,123.7519531 Z M246.4570465,126.9394531 C246.2070313,127.0761719 245.8691406,127.1445313 245.4433746,127.1445313 C244.2832184,127.1445313 243.7031403,126.5019531 243.7031403,125.2167969 L243.7031403,121.4726563 L242.589859,121.4726563 L242.589859,120.5234375 L243.7031403,120.5234375 L243.7031403,118.9648438 L244.8457184,118.6015625 L244.8457184,120.5234375 L246.4570465,120.5234375 L246.4570465,121.4726563 L244.8457184,121.4726563 L244.8457184,125.0117188 C244.8457184,125.4375 244.9179688,125.7421875 245.0625153,125.9257813 C245.2070313,126.109375 245.4472656,126.2011719 245.7832184,126.2011719 C246.0410309,126.2011719 246.265625,126.1289063 246.4570465,125.984375 Z M247.8105621,118.2382813 C247.8105621,118.0351563 247.8798828,117.8642578 248.0185699,117.7255859 C248.1572266,117.5869141 248.328125,117.5175781 248.5312653,117.5175781 C248.7382813,117.5175781 248.9130859,117.5859375 249.0556793,117.7226563 C249.1982422,117.859375 249.2695465,118.03125 249.2695465,118.2382813 C249.2695465,118.4414063 249.1982422,118.6103516 249.0556793,118.7451172 C248.9130859,118.8798828 248.7382813,118.9472656 248.5312653,118.9472656 C248.3242188,118.9472656 248.1523438,118.8798828 248.0156403,118.7451172 C247.8789063,118.6103516 247.8105621,118.4414063 247.8105621,118.2382813 Z M247.9453278,127.0039063 L247.9453278,120.5234375 L249.0937653,120.5234375 L249.0937653,127.0039063 Z M255.714859,126.7109375 C255.21875,127.0078125 254.6210938,127.15625 253.9218903,127.15625 C252.984375,127.15625 252.2304688,126.8554688 251.6601715,126.2539063 C251.0898438,125.6523438 250.8047028,124.8730469 250.8047028,123.9160156 C250.8047028,122.8535156 251.1123199,121.9970703 251.7275543,121.3466797 C252.3427887,120.6962891 253.1660309,120.3710938 254.1972809,120.3710938 C254.7910156,120.3710938 255.2988434,120.4765625 255.7207184,120.6875 L255.7207184,121.8242188 C255.2636871,121.4882813 254.7558594,121.3203125 254.1972809,121.3203125 C253.5410309,121.3203125 253.0068359,121.5478516 252.5947418,122.0029297 C252.1826172,122.4580078 251.9765778,123.0644531 251.9765778,123.8222656 C251.9765778,124.5683594 252.1708984,125.1523438 252.5595856,125.5742188 C252.9482422,125.9960938 253.4726563,126.2070313 254.1328278,126.2070313 C254.6914063,126.2070313 255.21875,126.0234375 255.714859,125.65625 Z M257.5898438,120.9746094 C258.234375,120.5722656 258.9785156,120.3710938 259.8222656,120.3710938 C261.3847656,120.3710938 262.1660156,121.1914063 262.1660156,122.8320313 L262.1660156,127.0039063 L261.0292969,127.0039063 L261.0292969,126.0019531 L261,126.0019531 C260.5507813,126.7714844 259.8886719,127.15625 259.0136719,127.15625 C258.3847656,127.15625 257.8847656,126.9863281 257.5136719,126.6464844 C257.1425781,126.3066406 256.9570313,125.8476563 256.9570313,125.2695313 C256.9570313,124.0585938 257.6738281,123.3535156 259.1074219,123.1542969 L261.0292969,122.8847656 C261.0292969,121.8261719 260.5917969,121.296875 259.7167969,121.296875 C258.9394531,121.296875 258.2304688,121.5585938 257.5898438,122.0820313 Z M259.5117188,123.9570313 C258.9804688,124.0273438 258.6142578,124.1601563 258.4130859,124.3554688 C258.2119141,124.5507813 258.1113281,124.8242188 258.1113281,125.1757813 C258.1113281,125.484375 258.2207031,125.7363281 258.4394531,125.9316406 C258.6582031,126.1269531 258.9472656,126.2246094 259.3066406,126.2246094 C259.8066406,126.2246094 260.21875,126.0488281 260.5429688,125.6972656 C260.8671875,125.3457031 261.0292969,124.9042969 261.0292969,124.3730469 L261.0292969,123.7519531 Z M264.2636719,127.0039063 L264.2636719,117.4121094 L265.4121094,117.4121094 L265.4121094,127.0039063 Z M267.5507813,127.0039063 L267.5507813,117.4121094 L268.6992188,117.4121094 L268.6992188,127.0039063 Z M276.1171875,120.5234375 L273.1757813,127.9824219 C272.6289063,129.3652344 271.8574219,130.0566406 270.8613281,130.0566406 C270.5761719,130.0566406 270.3320313,130.0253906 270.1289063,129.9628906 L270.1289063,128.9550781 C270.3515625,129.0410156 270.5664063,129.0839844 270.7734375,129.0839844 C271.2929688,129.0839844 271.6816406,128.7792969 271.9394531,128.1699219 L272.4375,126.9921875 L269.8945313,120.5234375 L271.1660156,120.5234375 L272.859375,125.3925781 L273,125.9257813 L273.0292969,125.9257813 C273.0527344,125.8046875 273.0996094,125.6308594 273.1699219,125.4042969 L274.9394531,120.5234375 Z M284.15625,126.9394531 C283.90625,127.0761719 283.5683594,127.1445313 283.1425781,127.1445313 C281.9824219,127.1445313 281.4023438,126.5019531 281.4023438,125.2167969 L281.4023438,121.4726563 L280.2890625,121.4726563 L280.2890625,120.5234375 L281.4023438,120.5234375 L281.4023438,118.9648438 L282.5449219,118.6015625 L282.5449219,120.5234375 L284.15625,120.5234375 L284.15625,121.4726563 L282.5449219,121.4726563 L282.5449219,125.0117188 C282.5449219,125.4375 282.6171875,125.7421875 282.7617188,125.9257813 C282.90625,126.109375 283.1464844,126.2011719 283.4824219,126.2011719 C283.7402344,126.2011719 283.9648438,126.1289063 284.15625,125.984375 Z M291.1230469,127.0039063 L289.9804688,127.0039063 L289.9804688,123.2773438 C289.9804688,121.9726563 289.4960938,121.3203125 288.5273438,121.3203125 C288.03125,121.3203125 287.6191406,121.5107422 287.2910156,121.8916016 C286.9628906,122.2724609 286.7988281,122.7519531 286.7988281,123.3300781 L286.7988281,127.0039063 L285.6503906,127.0039063 L285.6503906,117.4121094 L286.7988281,117.4121094 L286.7988281,121.5898438 L286.8222656,121.5898438 C287.3183594,120.7773438 288.0234375,120.3710938 288.9375,120.3710938 C290.3945313,120.3710938 291.1230469,121.2519531 291.1230469,123.0136719 Z M298.5410156,124.0566406 L294.0058594,124.0566406 C294.0253906,124.7480469 294.2148438,125.2822266 294.5742188,125.6591797 C294.9335938,126.0361328 295.4355469,126.2246094 296.0800781,126.2246094 C296.8066406,126.2246094 297.4726563,125.9921875 298.078125,125.5273438 L298.078125,126.5527344 C297.5078125,126.9550781 296.7519531,127.15625 295.8105469,127.15625 C294.8730469,127.15625 294.1416016,126.859375 293.6162109,126.265625 C293.0908203,125.671875 292.828125,124.8476563 292.828125,123.7929688 C292.828125,122.8007813 293.1162109,121.9824219 293.6923828,121.3378906 C294.2685547,120.6933594 294.984375,120.3710938 295.8398438,120.3710938 C296.6875,120.3710938 297.3496094,120.6435547 297.8261719,121.1884766 C298.3027344,121.7333984 298.5410156,122.4960938 298.5410156,123.4765625 Z M297.3925781,123.1367188 C297.3886719,122.5507813 297.25,122.0976563 296.9765625,121.7773438 C296.703125,121.4570313 296.3183594,121.296875 295.8222656,121.296875 C295.3652344,121.296875 294.9697266,121.4667969 294.6357422,121.8066406 C294.3017578,122.1464844 294.0917969,122.5898438 294.0058594,123.1367188 Z M305.0800781,126.0898438 L305.0800781,129.9863281 L303.9316406,129.9863281 L303.9316406,120.5234375 L305.0800781,120.5234375 L305.0800781,121.6425781 L305.1035156,121.6425781 C305.6113281,120.7949219 306.3535156,120.3710938 307.3300781,120.3710938 C308.1582031,120.3710938 308.8076172,120.6611328 309.2783203,121.2412109 C309.7490234,121.8212891 309.984375,122.5996094 309.984375,123.5761719 C309.984375,124.6542969 309.7177734,125.5205078 309.1845703,126.1748047 C308.6513672,126.8291016 307.9335938,127.15625 307.03125,127.15625 C306.1992188,127.15625 305.5566406,126.8007813 305.1035156,126.0898438 Z M305.0742188,124.3320313 C305.0742188,124.859375 305.2441406,125.3037109 305.5839844,125.6650391 C305.9238281,126.0263672 306.3496094,126.2070313 306.8613281,126.2070313 C307.4707031,126.2070313 307.9472656,125.9726563 308.2910156,125.5039063 C308.6347656,125.0351563 308.8066406,124.3867188 308.8066406,123.5585938 C308.8066406,122.859375 308.6464844,122.3115234 308.3261719,121.9150391 C308.0058594,121.5185547 307.5683594,121.3203125 307.0136719,121.3203125 C306.4472656,121.3203125 305.9824219,121.5214844 305.6191406,121.9238281 C305.2558594,122.3261719 305.0742188,122.8417969 305.0742188,123.4707031 Z M315.2988281,121.6601563 C315.1074219,121.5234375 314.84375,121.4550781 314.5078125,121.4550781 C314.0625,121.4550781 313.6953125,121.6630859 313.40625,122.0791016 C313.1171875,122.4951172 312.9726563,123.0429688 312.9726563,123.7226563 L312.9726563,127.0039063 L311.8242188,127.0039063 L311.8242188,120.5234375 L312.9726563,120.5234375 L312.9726563,121.8417969 L312.9960938,121.8417969 C313.3242188,120.8886719 313.890625,120.4121094 314.6953125,120.4121094 C314.9570313,120.4121094 315.1582031,120.4414063 315.2988281,120.5 Z M316.1074219,123.8339844 C316.1074219,122.7636719 316.40625,121.9189453 317.0039063,121.2998047 C317.6015625,120.6806641 318.4121094,120.3710938 319.4355469,120.3710938 C320.4082031,120.3710938 321.1708984,120.6689453 321.7236328,121.2646484 C322.2763672,121.8603516 322.5527344,122.6835938 322.5527344,123.734375 C322.5527344,124.7578125 322.2578125,125.5839844 321.6679688,126.2128906 C321.078125,126.8417969 320.2871094,127.15625 319.2949219,127.15625 C318.3261719,127.15625 317.5527344,126.8515625 316.9746094,126.2421875 C316.3964844,125.6328125 316.1074219,124.8300781 316.1074219,123.8339844 Z M317.2792969,123.7988281 C317.2792969,124.5449219 317.4677734,125.1328125 317.8447266,125.5625 C318.2216797,125.9921875 318.7285156,126.2070313 319.3652344,126.2070313 C320.0214844,126.2070313 320.5214844,125.9970703 320.8652344,125.5771484 C321.2089844,125.1572266 321.3808594,124.5546875 321.3808594,123.7695313 C321.3808594,122.9804688 321.2089844,122.375 320.8652344,121.953125 C320.5214844,121.53125 320.0214844,121.3203125 319.3652344,121.3203125 C318.7207031,121.3203125 318.2119141,121.5410156 317.8388672,121.9824219 C317.4658203,122.4238281 317.2792969,123.0292969 317.2792969,123.7988281 Z M329.6191406,120.5234375 L327.0527344,127.0039063 L325.8925781,127.0039063 L323.4550781,120.5234375 L324.7089844,120.5234375 L326.2910156,125.1523438 C326.4199219,125.5234375 326.4960938,125.8339844 326.5195313,126.0839844 L326.5488281,126.0839844 C326.5878906,125.7558594 326.65625,125.453125 326.7539063,125.1757813 L328.4121094,120.5234375 Z M330.7441406,118.2382813 C330.7441406,118.0351563 330.813446,117.8642578 330.9521484,117.7255859 C331.0907898,117.5869141 331.2616882,117.5175781 331.4648438,117.5175781 C331.6718445,117.5175781 331.8466492,117.5859375 331.9892578,117.7226563 C332.1318054,117.859375 332.203125,118.03125 332.203125,118.2382813 C332.203125,118.4414063 332.1318054,118.6103516 331.9892578,118.7451172 C331.8466492,118.8798828 331.6718445,118.9472656 331.4648438,118.9472656 C331.257782,118.9472656 331.085907,118.8798828 330.9492188,118.7451172 C330.8124695,118.6103516 330.7441406,118.4414063 330.7441406,118.2382813 Z M330.8789063,127.0039063 L330.8789063,120.5234375 L332.0273438,120.5234375 L332.0273438,127.0039063 Z M339.6503906,127.0039063 L338.5078125,127.0039063 L338.5078125,123.3183594 C338.507782,121.9863281 338.0214539,121.3203125 337.0488281,121.3203125 C336.5449219,121.3203125 336.1308289,121.5078125 335.8066406,121.8828125 C335.4823914,122.2578125 335.3203125,122.7324219 335.3203125,123.3066406 L335.3203125,127.0039063 L334.171875,127.0039063 L334.171875,120.5234375 L335.3203125,120.5234375 L335.3203125,121.5957031 L335.34375,121.5957031 C335.8320007,120.7792969 336.5409851,120.3710938 337.4707031,120.3710938 C338.1816101,120.3710938 338.7226257,120.5986328 339.09375,121.0537109 C339.4648132,121.5087891 339.6503906,122.171875 339.6503906,123.0429688 Z M346.265625,126.7109375 C345.7695007,127.0078125 345.1718445,127.15625 344.4726563,127.15625 C343.5351257,127.15625 342.7812195,126.8554688 342.2109375,126.2539063 C341.6405945,125.6523438 341.3554688,124.8730469 341.3554688,123.9160156 C341.3554688,122.8535156 341.6630859,121.9970703 342.2783203,121.3466797 C342.8935547,120.6962891 343.7167969,120.3710938 344.7480469,120.3710938 C345.3417664,120.3710938 345.8496094,120.4765625 346.2714844,120.6875 L346.2714844,121.8242188 C345.8144531,121.4882813 345.3066101,121.3203125 344.7480469,121.3203125 C344.0917969,121.3203125 343.5575867,121.5478516 343.1455078,122.0029297 C342.7333679,122.4580078 342.5273438,123.0644531 342.5273438,123.8222656 C342.5273438,124.5683594 342.7216492,125.1523438 343.1103516,125.5742188 C343.4989929,125.9960938 344.023407,126.2070313 344.6835938,126.2070313 C345.242157,126.2070313 345.7695007,126.0234375 346.265625,125.65625 Z M353.2675781,124.0566406 L348.7324219,124.0566406 C348.7519226,124.7480469 348.9413757,125.2822266 349.3007813,125.6591797 C349.6601257,126.0361328 350.1621094,126.2246094 350.8066406,126.2246094 C351.5332031,126.2246094 352.1991882,125.9921875 352.8046875,125.5273438 L352.8046875,126.5527344 C352.2343445,126.9550781 351.4784851,127.15625 350.5371094,127.15625 C349.5996094,127.15625 348.8681335,126.859375 348.3427734,126.265625 C347.8173523,125.671875 347.5546875,124.8476563 347.5546875,123.7929688 C347.5546875,122.8007813 347.8427429,121.9824219 348.4189453,121.3378906 C348.9950867,120.6933594 349.710907,120.3710938 350.5664063,120.3710938 C351.414032,120.3710938 352.0761414,120.6435547 352.5527344,121.1884766 C353.0292664,121.7333984 353.2675781,122.4960938 353.2675781,123.4765625 Z M352.1191406,123.1367188 C352.1152039,122.5507813 351.976532,122.0976563 351.703125,121.7773438 C351.429657,121.4570313 351.0448914,121.296875 350.5488281,121.296875 C350.0917969,121.296875 349.6962585,121.4667969 349.3623047,121.8066406 C349.0283203,122.1464844 348.8183289,122.5898438 348.7324219,123.1367188 Z M358.8105469,120.9746094 C359.4550781,120.5722656 360.1992188,120.3710938 361.0429688,120.3710938 C362.6054382,120.3710938 363.3867188,121.1914063 363.3867188,122.8320313 L363.3867188,127.0039063 L362.25,127.0039063 L362.25,126.0019531 L362.2207031,126.0019531 C361.7714539,126.7714844 361.1093445,127.15625 360.234375,127.15625 C359.6054382,127.15625 359.1054382,126.9863281 358.734375,126.6464844 C358.3632507,126.3066406 358.1777344,125.8476563 358.1777344,125.2695313 C358.1777344,124.0585938 358.8945313,123.3535156 360.328125,123.1542969 L362.25,122.8847656 C362.25,121.8261719 361.8124695,121.296875 360.9375,121.296875 C360.1601257,121.296875 359.4511414,121.5585938 358.8105469,122.0820313 Z M360.7324219,123.9570313 C360.2011414,124.0273438 359.8349304,124.1601563 359.6337891,124.3554688 C359.4325867,124.5507813 359.3320313,124.8242188 359.3320313,125.1757813 C359.3320313,125.484375 359.4413757,125.7363281 359.6601563,125.9316406 C359.8788757,126.1269531 360.1679382,126.2246094 360.5273438,126.2246094 C361.0273132,126.2246094 361.4394226,126.0488281 361.7636719,125.6972656 C362.0878601,125.3457031 362.25,124.9042969 362.25,124.3730469 L362.25,123.7519531 Z M370.96875,127.0039063 L369.8261719,127.0039063 L369.8261719,123.3183594 C369.8261414,121.9863281 369.3398132,121.3203125 368.3671875,121.3203125 C367.8632813,121.3203125 367.4491882,121.5078125 367.125,121.8828125 C366.8007507,122.2578125 366.6386719,122.7324219 366.6386719,123.3066406 L366.6386719,127.0039063 L365.4902344,127.0039063 L365.4902344,120.5234375 L366.6386719,120.5234375 L366.6386719,121.5957031 L366.6621094,121.5957031 C367.1503601,120.7792969 367.8593445,120.3710938 368.7890625,120.3710938 C369.4999695,120.3710938 370.0409851,120.5986328 370.4121094,121.0537109 C370.7831726,121.5087891 370.96875,122.171875 370.96875,123.0429688 Z M378.7324219,127.0039063 L377.5839844,127.0039063 L377.5839844,125.9257813 L377.5605469,125.9257813 C377.0878601,126.7460938 376.3535156,127.15625 375.3574219,127.15625 C374.5371094,127.15625 373.8847351,126.8642578 373.4003906,126.2802734 C372.9159851,125.6962891 372.6738281,124.9082031 372.6738281,123.9160156 C372.6738281,122.8457031 372.9472351,121.9873047 373.4941406,121.3408203 C374.0409851,120.6943359 374.7558289,120.3710938 375.6386719,120.3710938 C376.5214539,120.3710938 377.1621094,120.7148438 377.5605469,121.4023438 L377.5839844,121.4023438 L377.5839844,117.4121094 L378.7324219,117.4121094 Z M377.5898438,123.1484375 C377.5898438,122.6289063 377.4189148,122.1943359 377.0771484,121.8447266 C376.735321,121.4951172 376.3144226,121.3203125 375.8144531,121.3203125 C375.2050781,121.3203125 374.7246094,121.5478516 374.3730469,122.0029297 C374.0214844,122.4580078 373.8457031,123.078125 373.8457031,123.8632813 C373.8457031,124.5859375 374.0146179,125.1572266 374.3525391,125.5771484 C374.6903992,125.9970703 375.140625,126.2070313 375.703125,126.2070313 C376.257782,126.2070313 376.7109375,126.0009766 377.0625,125.5888672 C377.4140625,125.1767578 377.5898438,124.6640625 377.5898438,124.0507813 Z M390.2929688,127.0039063 L389.1445313,127.0039063 L389.1445313,125.9257813 L389.1210938,125.9257813 C388.648407,126.7460938 387.9140625,127.15625 386.9179688,127.15625 C386.0976563,127.15625 385.445282,126.8642578 384.9609375,126.2802734 C384.476532,125.6962891 384.234375,124.9082031 384.234375,123.9160156 C384.234375,122.8457031 384.507782,121.9873047 385.0546875,121.3408203 C385.601532,120.6943359 386.3163757,120.3710938 387.1992188,120.3710938 C388.0820007,120.3710938 388.7226563,120.7148438 389.1210938,121.4023438 L389.1445313,121.4023438 L389.1445313,117.4121094 L390.2929688,117.4121094 Z M389.1503906,123.1484375 C389.1503906,122.6289063 388.9794617,122.1943359 388.6376953,121.8447266 C388.2958679,121.4951172 387.8749695,121.3203125 387.375,121.3203125 C386.765625,121.3203125 386.2851563,121.5478516 385.9335938,122.0029297 C385.5820313,122.4580078 385.40625,123.078125 385.40625,123.8632813 C385.40625,124.5859375 385.5751648,125.1572266 385.9130859,125.5771484 C386.250946,125.9970703 386.7011719,126.2070313 387.2636719,126.2070313 C387.8183289,126.2070313 388.2714844,126.0009766 388.6230469,125.5888672 C388.9746094,125.1767578 389.1503906,124.6640625 389.1503906,124.0507813 Z M397.921875,127.0039063 L396.7675781,127.0039063 L396.7675781,125.984375 L396.7441406,125.984375 C396.3105469,126.765625 395.6445007,127.15625 394.7460938,127.15625 C393.2109375,127.15625 392.4433594,126.2382813 392.4433594,124.4023438 L392.4433594,120.5234375 L393.5800781,120.5234375 L393.5800781,124.2324219 C393.5800781,125.5488281 394.0839844,126.2070313 395.0917969,126.2070313 C395.5917664,126.2070313 395.9960632,126.0224609 396.3046875,125.6533203 C396.6132507,125.2841797 396.7675476,124.8183594 396.7675781,124.2558594 L396.7675781,120.5234375 L397.921875,120.5234375 Z M403.3007813,126.9394531 C403.0507507,127.0761719 402.7128601,127.1445313 402.2871094,127.1445313 C401.1269531,127.1445313 400.546875,126.5019531 400.546875,125.2167969 L400.546875,121.4726563 L399.4335938,121.4726563 L399.4335938,120.5234375 L400.546875,120.5234375 L400.546875,118.9648438 L401.6894531,118.6015625 L401.6894531,120.5234375 L403.3007813,120.5234375 L403.3007813,121.4726563 L401.6894531,121.4726563 L401.6894531,125.0117188 C401.6894531,125.4375 401.7616882,125.7421875 401.90625,125.9257813 C402.0507507,126.109375 402.2909851,126.2011719 402.6269531,126.2011719 C402.8847656,126.2011719 403.1093445,126.1289063 403.3007813,125.984375 Z M410.0683594,120.5234375 L407.1269531,127.9824219 C406.5800476,129.3652344 405.8085938,130.0566406 404.8125,130.0566406 C404.5273132,130.0566406 404.2831726,130.0253906 404.0800781,129.9628906 L404.0800781,128.9550781 C404.3027344,129.0410156 404.5175476,129.0839844 404.7246094,129.0839844 C405.2441101,129.0839844 405.6328125,128.7792969 405.890625,128.1699219 L406.3886719,126.9921875 L403.8457031,120.5234375 L405.1171875,120.5234375 L406.8105469,125.3925781 L406.9511719,125.9257813 L406.9804688,125.9257813 C407.0039063,125.8046875 407.0507813,125.6308594 407.1210938,125.4042969 L408.890625,120.5234375 Z" style="fill:rgb(23,55,94);stroke:none" clip-path="url(#clip15)" />
<clipPath id="clip16"><path d="M424,117 L437,117 L437,130 L424,130 L424,117 Z" /></clipPath>
<path d="M434.4999695,123 C434.4999695,120.5147171 432.48526,118.5 429.9999695,118.5 C427.5147095,118.5 425.4999695,120.5147171 425.5,123 C425.5,125.4852829 427.5147095,127.5 430,127.5 C432.48526,127.4999924 434.5,125.4852753 434.4999695,122.9999924 Z" style="fill:rgb(250,250,250);stroke:none" clip-path="url(#clip16)" />
<clipPath id="clip17"><path d="M424,117 L437,117 L437,130 L424,130 L424,117 Z" /></clipPath>
<path d="M434.4999695,123 C434.4999695,120.5147171 432.48526,118.5 429.9999695,118.5 C427.5147095,118.5 425.4999695,120.5147171 425.5,123 C425.5,125.4852829 427.5147095,127.5 430,127.5 C432.48526,127.4999924 434.5,125.4852753 434.4999695,122.9999924 Z" style="fill:none;stroke:rgb(85,142,213)" clip-path="url(#clip17)" />
<clipPath id="clip18"><path d="M424,117 L437,117 L437,130 L424,130 L424,117 Z" /></clipPath>
<path d="M428,123 L432,123" style="fill:none;stroke:rgb(150,160,200)" clip-path="url(#clip18)" />
<clipPath id="clip19"><path d="M443,59 L624,59 L624,104 L443,104 L443,59 Z" /></clipPath>
<path d="M446,101 L620,101 Z" style="fill:none;stroke:rgb(85,142,213);stroke-width:3" clip-path="url(#clip19)" />
<clipPath id="clip20"><path d="M454,63 L613,63 L613,100 L454,100 L454,63 Z" /></clipPath>
<path d="M460.4794922,73.9746094 L467.6044922,73.9746094 L467.6044922,79.2480469 L466.6669922,79.2480469 L466.6669922,78.4511719 L461.4169922,78.4511719 L461.4169922,79.2480469 L460.4794922,79.2480469 Z M459.4013672,72.0878906 C459.4013367,74.2363281 459.2919617,75.6855469 459.0732422,76.4355469 C458.8544617,77.2949219 458.3896179,78.2441406 457.6787109,79.2832031 C457.4989929,79.0175781 457.2841492,78.7441406 457.0341797,78.4628906 C457.5888367,77.6738281 457.9638367,76.8808594 458.1591797,76.0839844 C458.3544617,75.3183594 458.4521484,74.1933594 458.4521484,72.7089844 L458.4521484,68.7597656 C461.8739929,68.6503906 464.8896179,68.4160156 467.4990234,68.0566406 L468.0615234,69.0292969 C464.8271484,69.3574219 461.9403992,69.5683594 459.4013672,69.6621094 L459.4013672,71.2089844 L468.6826172,71.2089844 L468.6826172,72.0878906 Z M466.6669922,74.8300781 L461.4169922,74.8300781 L461.4169922,77.6191406 L466.6669922,77.6191406 Z M469.4501953,78.4160156 C470.7470398,77.2988281 471.4970398,75.6582031 471.7001953,73.4941406 L472.6845703,73.6464844 C472.5908203,74.3691406 472.4482117,75.0429688 472.2568359,75.6679688 C472.8622742,76.9570313 473.8017273,77.6972656 475.0751953,77.8886719 L475.0751953,72.7324219 L469.7197266,72.7324219 L469.7197266,71.8535156 L480.8525391,71.8535156 L480.8525391,72.7324219 L476.0478516,72.7324219 L476.0478516,74.6308594 L480.1259766,74.6308594 L480.1259766,75.4980469 L476.0478516,75.4980469 L476.0478516,77.953125 C477.6025085,77.9921875 479.2939453,77.9785156 481.1220703,77.9121094 C480.9892273,78.2167969 480.8759766,78.5410156 480.7822266,78.8847656 C478.8681335,78.9082031 477.1962891,78.8964844 475.7666016,78.8496094 C474.0048523,78.8496094 472.7099304,78.1347656 471.8818359,76.7050781 C471.4365234,77.7402344 470.8330078,78.6152344 470.0712891,79.3300781 C469.891571,79.0253906 469.6845398,78.7207031 469.4501953,78.4160156 Z M470.1416016,69.1347656 L475.1396484,69.1347656 C474.9091492,68.7988281 474.6650391,68.4707031 474.4072266,68.1503906 L475.2978516,67.6699219 C475.6025391,68.0214844 475.9345398,68.4160156 476.2939453,68.8535156 L475.7666016,69.1347656 L480.5126953,69.1347656 L480.5126953,71.3613281 L479.5869141,71.3613281 L479.5869141,70.0136719 L471.0673828,70.0136719 L471.0673828,71.3496094 L470.1416016,71.3496094 Z M487.9658203,77.6953125 L482.7626953,77.6953125 L482.7626953,76.7050781 L484.7958984,76.7050781 L484.7958984,69.8144531 L482.7099609,70.4179688 L482.7099609,69.3632813 L485.9384766,68.4257813 L485.9384766,76.7050781 L487.9658203,76.7050781 Z" style="fill:rgb(0,0,0);stroke:none" clip-path="url(#clip20)" />
<clipPath id="clip21"><path d="M454,63 L613,63 L613,100 L454,100 L454,63 Z" /></clipPath>
<path d="M456.6113281,89.6699219 C456.6113281,88.5996094 456.9101563,87.7548828 457.5078125,87.1357422 C458.1054688,86.5166016 458.9159851,86.2070313 459.9394531,86.2070313 C460.9120789,86.2070313 461.6747742,86.5048828 462.2275391,87.1005859 C462.7802429,87.6962891 463.0566406,88.5195313 463.0566406,89.5703125 C463.0566406,90.59375 462.7616882,91.4199219 462.171875,92.0488281 C461.5820007,92.6777344 460.7909851,92.9921875 459.7988281,92.9921875 C458.8300476,92.9921875 458.0566101,92.6875 457.4785156,92.078125 C456.9003601,91.46875 456.6113281,90.6660156 456.6113281,89.6699219 Z M457.7832031,89.6347656 C457.7832031,90.3808594 457.9716492,90.96875 458.3486328,91.3984375 C458.7255554,91.828125 459.2323914,92.0429688 459.8691406,92.0429688 C460.5253601,92.0429688 461.0253601,91.8330078 461.3691406,91.4130859 C461.7128601,90.9931641 461.8847656,90.390625 461.8847656,89.6054688 C461.8847656,88.8164063 461.7128601,88.2109375 461.3691406,87.7890625 C461.0253601,87.3671875 460.5253601,87.15625 459.8691406,87.15625 C459.2246094,87.15625 458.7157898,87.3769531 458.3427734,87.8183594 C457.969696,88.2597656 457.7832031,88.8652344 457.7832031,89.6347656 Z M468.2246094,84.2265625 C468.0097351,84.1132813 467.7773132,84.0566406 467.5273438,84.0566406 C466.8085632,84.0566406 466.4492188,84.5019531 466.4492188,85.3925781 L466.4492188,86.359375 L467.9667969,86.359375 L467.9667969,87.3085938 L466.4492188,87.3085938 L466.4492188,92.8398438 L465.3125,92.8398438 L465.3125,87.3085938 L464.2050781,87.3085938 L464.2050781,86.359375 L465.3125,86.359375 L465.3125,85.3398438 C465.3125,84.6445313 465.5126648,84.0986328 465.9130859,83.7021484 C466.313446,83.3056641 466.8222351,83.1074219 467.4394531,83.1074219 C467.7675781,83.1074219 468.0292664,83.1445313 468.2246094,83.21875 Z M475.953125,92.7753906 C475.7030945,92.9121094 475.3652039,92.9804688 474.9394531,92.9804688 C473.7792969,92.9804688 473.1992188,92.3378906 473.1992188,91.0527344 L473.1992188,87.3085938 L472.0859375,87.3085938 L472.0859375,86.359375 L473.1992188,86.359375 L473.1992188,84.8007813 L474.3417969,84.4375 L474.3417969,86.359375 L475.953125,86.359375 L475.953125,87.3085938 L474.3417969,87.3085938 L474.3417969,90.8476563 C474.3417969,91.2734375 474.414032,91.578125 474.5585938,91.7617188 C474.7030945,91.9453125 474.9433289,92.0371094 475.2792969,92.0371094 C475.5371094,92.0371094 475.7616882,91.9648438 475.953125,91.8203125 Z M482.9199219,92.8398438 L481.7773438,92.8398438 L481.7773438,89.1132813 C481.7773438,87.8085938 481.2929382,87.15625 480.3242188,87.15625 C479.8280945,87.15625 479.4160156,87.3466797 479.0878906,87.7275391 C478.7597656,88.1083984 478.5957031,88.5878906 478.5957031,89.1660156 L478.5957031,92.8398438 L477.4472656,92.8398438 L477.4472656,83.2480469 L478.5957031,83.2480469 L478.5957031,87.4257813 L478.6191406,87.4257813 C479.1152039,86.6132813 479.8203125,86.2070313 480.734375,86.2070313 C482.1913757,86.2070313 482.9199219,87.0878906 482.9199219,88.8496094 Z M490.3378906,89.8925781 L485.8027344,89.8925781 C485.8222351,90.5839844 486.0116882,91.1181641 486.3710938,91.4951172 C486.7304382,91.8720703 487.2324219,92.0605469 487.8769531,92.0605469 C488.6035156,92.0605469 489.2695007,91.828125 489.875,91.3632813 L489.875,92.3886719 C489.304657,92.7910156 488.5487976,92.9921875 487.6074219,92.9921875 C486.6699219,92.9921875 485.938446,92.6953125 485.4130859,92.1015625 C484.8876648,91.5078125 484.625,90.6835938 484.625,89.6289063 C484.625,88.6367188 484.9130554,87.8183594 485.4892578,87.1738281 C486.0653992,86.5292969 486.7812195,86.2070313 487.6367188,86.2070313 C488.4843445,86.2070313 489.1464539,86.4794922 489.6230469,87.0244141 C490.0995789,87.5693359 490.3378906,88.3320313 490.3378906,89.3125 Z M489.1894531,88.9726563 C489.1855164,88.3867188 489.0468445,87.9335938 488.7734375,87.6132813 C488.4999695,87.2929688 488.1152039,87.1328125 487.6191406,87.1328125 C487.1621094,87.1328125 486.766571,87.3027344 486.4326172,87.6425781 C486.0986328,87.9824219 485.8886414,88.4257813 485.8027344,88.9726563 Z M495.59375,84.0742188 C495.59375,83.8710938 495.6620789,83.7001953 495.7988281,83.5615234 C495.9355164,83.4228516 496.1073914,83.3535156 496.3144531,83.3535156 C496.5253906,83.3535156 496.7011719,83.421875 496.8417969,83.5585938 C496.9824219,83.6953125 497.0527344,83.8671875 497.0527344,84.0742188 C497.0527344,84.2734375 496.9814148,84.4414063 496.8388672,84.578125 C496.6962585,84.7148438 496.5214539,84.7832031 496.3144531,84.7832031 C496.1073914,84.7832031 495.9355164,84.7138672 495.7988281,84.5751953 C495.6620789,84.4365234 495.59375,84.2695313 495.59375,84.0742188 Z M496.8769531,92.5878906 C496.8769531,93.6386719 496.6591492,94.4521484 496.2236328,95.0283203 C495.7880554,95.6044922 495.1698914,95.8925781 494.3691406,95.8925781 C494.0722656,95.8925781 493.7812195,95.8242188 493.4960938,95.6875 L493.4960938,94.6503906 C493.8007813,94.8378906 494.0898438,94.9316406 494.3632813,94.9316406 C495.273407,94.9316406 495.7285156,94.2070313 495.7285156,92.7578125 L495.7285156,86.359375 L496.8769531,86.359375 Z M504.3769531,92.8398438 L503.2226563,92.8398438 L503.2226563,91.8203125 L503.1992188,91.8203125 C502.765625,92.6015625 502.0995789,92.9921875 501.2011719,92.9921875 C499.6660156,92.9921875 498.8984375,92.0742188 498.8984375,90.2382813 L498.8984375,86.359375 L500.0351563,86.359375 L500.0351563,90.0683594 C500.0351563,91.3847656 500.5390625,92.0429688 501.546875,92.0429688 C502.0468445,92.0429688 502.4511414,91.8583984 502.7597656,91.4892578 C503.0683289,91.1201172 503.2226257,90.6542969 503.2226563,90.0917969 L503.2226563,86.359375 L504.3769531,86.359375 Z M512.2695313,92.8398438 L511.1210938,92.8398438 L511.1210938,91.7617188 L511.0976563,91.7617188 C510.6249695,92.5820313 509.890625,92.9921875 508.8945313,92.9921875 C508.0742188,92.9921875 507.4218445,92.7001953 506.9375,92.1162109 C506.4530945,91.5322266 506.2109375,90.7441406 506.2109375,89.7519531 C506.2109375,88.6816406 506.4843445,87.8232422 507.03125,87.1767578 C507.5780945,86.5302734 508.2929382,86.2070313 509.1757813,86.2070313 C510.0585632,86.2070313 510.6992188,86.5507813 511.0976563,87.2382813 L511.1210938,87.2382813 L511.1210938,83.2480469 L512.2695313,83.2480469 Z M511.1269531,88.984375 C511.1269531,88.4648438 510.9560242,88.0302734 510.6142578,87.6806641 C510.2724304,87.3310547 509.851532,87.15625 509.3515625,87.15625 C508.7421875,87.15625 508.2617188,87.3837891 507.9101563,87.8388672 C507.5585938,88.2939453 507.3828125,88.9140625 507.3828125,89.6992188 C507.3828125,90.421875 507.5517273,90.9931641 507.8896484,91.4130859 C508.2275085,91.8330078 508.6777344,92.0429688 509.2402344,92.0429688 C509.7948914,92.0429688 510.2480469,91.8369141 510.5996094,91.4248047 C510.9511719,91.0126953 511.1269531,90.5 511.1269531,89.8867188 Z M514.4082031,84.0742188 C514.4082031,83.8710938 514.4775391,83.7001953 514.6162109,83.5615234 C514.7548828,83.4228516 514.9257813,83.3535156 515.1289063,83.3535156 C515.3359375,83.3535156 515.5107422,83.421875 515.6533203,83.5585938 C515.7958984,83.6953125 515.8671875,83.8671875 515.8671875,84.0742188 C515.8671875,84.2773438 515.7958984,84.4462891 515.6533203,84.5810547 C515.5107422,84.7158203 515.3359375,84.7832031 515.1289063,84.7832031 C514.921875,84.7832031 514.75,84.7158203 514.6132813,84.5810547 C514.4765625,84.4462891 514.4082031,84.2773438 514.4082031,84.0742188 Z M514.5429688,92.8398438 L514.5429688,86.359375 L515.6914063,86.359375 L515.6914063,92.8398438 Z M522.3125,92.546875 C521.8164063,92.84375 521.21875,92.9921875 520.5195313,92.9921875 C519.5820313,92.9921875 518.828125,92.6914063 518.2578125,92.0898438 C517.6875,91.4882813 517.4023438,90.7089844 517.4023438,89.7519531 C517.4023438,88.6894531 517.7099609,87.8330078 518.3251953,87.1826172 C518.9404297,86.5322266 519.7636719,86.2070313 520.7949219,86.2070313 C521.3886719,86.2070313 521.8964844,86.3125 522.3183594,86.5234375 L522.3183594,87.6601563 C521.8613281,87.3242188 521.3535156,87.15625 520.7949219,87.15625 C520.1386719,87.15625 519.6044922,87.3837891 519.1923828,87.8388672 C518.7802734,88.2939453 518.5742188,88.9003906 518.5742188,89.6582031 C518.5742188,90.4042969 518.7685547,90.9882813 519.1572266,91.4101563 C519.5458984,91.8320313 520.0703125,92.0429688 520.7304688,92.0429688 C521.2890625,92.0429688 521.8164063,91.859375 522.3125,91.4921875 Z M523.8945313,84.0742188 C523.8945313,83.8710938 523.9638672,83.7001953 524.1025391,83.5615234 C524.2412109,83.4228516 524.4121094,83.3535156 524.6152344,83.3535156 C524.8222656,83.3535156 524.9970703,83.421875 525.1396484,83.5585938 C525.2822266,83.6953125 525.3535156,83.8671875 525.3535156,84.0742188 C525.3535156,84.2773438 525.2822266,84.4462891 525.1396484,84.5810547 C524.9970703,84.7158203 524.8222656,84.7832031 524.6152344,84.7832031 C524.4082031,84.7832031 524.2363281,84.7158203 524.0996094,84.5810547 C523.9628906,84.4462891 523.8945313,84.2773438 523.8945313,84.0742188 Z M524.0292969,92.8398438 L524.0292969,86.359375 L525.1777344,86.359375 L525.1777344,92.8398438 Z M527.4746094,86.8105469 C528.1191406,86.4082031 528.8632813,86.2070313 529.7070313,86.2070313 C531.2695313,86.2070313 532.0507813,87.0273438 532.0507813,88.6679688 L532.0507813,92.8398438 L530.9140625,92.8398438 L530.9140625,91.8378906 L530.8847656,91.8378906 C530.4355469,92.6074219 529.7734375,92.9921875 528.8984375,92.9921875 C528.2695313,92.9921875 527.7695313,92.8222656 527.3984375,92.4824219 C527.0273438,92.1425781 526.8417969,91.6835938 526.8417969,91.1054688 C526.8417969,89.8945313 527.5585938,89.1894531 528.9921875,88.9902344 L530.9140625,88.7207031 C530.9140625,87.6621094 530.4765625,87.1328125 529.6015625,87.1328125 C528.8242188,87.1328125 528.1152344,87.3945313 527.4746094,87.9179688 Z M529.3964844,89.7929688 C528.8652344,89.8632813 528.4990234,89.9960938 528.2978516,90.1914063 C528.0966797,90.3867188 527.9960938,90.6601563 527.9960938,91.0117188 C527.9960938,91.3203125 528.1054688,91.5722656 528.3242188,91.7675781 C528.5429688,91.9628906 528.8320313,92.0605469 529.1914063,92.0605469 C529.6914063,92.0605469 530.1035156,91.8847656 530.4277344,91.5332031 C530.7519531,91.1816406 530.9140625,90.7402344 530.9140625,90.2089844 L530.9140625,89.5878906 Z M534.1484375,92.8398438 L534.1484375,83.2480469 L535.296875,83.2480469 L535.296875,92.8398438 Z M546.7226563,92.8398438 L545.5742188,92.8398438 L545.5742188,91.7617188 L545.5507813,91.7617188 C545.078125,92.5820313 544.34375,92.9921875 543.3476563,92.9921875 C542.5273438,92.9921875 541.875,92.7001953 541.390625,92.1162109 C540.90625,91.5322266 540.6640625,90.7441406 540.6640625,89.7519531 C540.6640625,88.6816406 540.9375,87.8232422 541.484375,87.1767578 C542.03125,86.5302734 542.7460938,86.2070313 543.6289063,86.2070313 C544.5117188,86.2070313 545.1523438,86.5507813 545.5507813,87.2382813 L545.5742188,87.2382813 L545.5742188,83.2480469 L546.7226563,83.2480469 Z M545.5800781,88.984375 C545.5800781,88.4648438 545.4091797,88.0302734 545.0673828,87.6806641 C544.7255859,87.3310547 544.3046875,87.15625 543.8046875,87.15625 C543.1953125,87.15625 542.7148438,87.3837891 542.3632813,87.8388672 C542.0117188,88.2939453 541.8359375,88.9140625 541.8359375,89.6992188 C541.8359375,90.421875 542.0048828,90.9931641 542.3427734,91.4130859 C542.6806641,91.8330078 543.1308594,92.0429688 543.6933594,92.0429688 C544.2480469,92.0429688 544.7011719,91.8369141 545.0527344,91.4248047 C545.4042969,91.0126953 545.5800781,90.5 545.5800781,89.8867188 Z M554.28125,89.8925781 L549.7460938,89.8925781 C549.765625,90.5839844 549.9550781,91.1181641 550.3144531,91.4951172 C550.6738281,91.8720703 551.1757813,92.0605469 551.8203125,92.0605469 C552.546875,92.0605469 553.2128906,91.828125 553.8183594,91.3632813 L553.8183594,92.3886719 C553.2480469,92.7910156 552.4921875,92.9921875 551.5507813,92.9921875 C550.6132813,92.9921875 549.8818359,92.6953125 549.3564453,92.1015625 C548.8310547,91.5078125 548.5683594,90.6835938 548.5683594,89.6289063 C548.5683594,88.6367188 548.8564453,87.8183594 549.4326172,87.1738281 C550.0087891,86.5292969 550.7246094,86.2070313 551.5800781,86.2070313 C552.4277344,86.2070313 553.0898438,86.4794922 553.5664063,87.0244141 C554.0429688,87.5693359 554.28125,88.3320313 554.28125,89.3125 Z M553.1328125,88.9726563 C553.1289063,88.3867188 552.9902344,87.9335938 552.7167969,87.6132813 C552.4433594,87.2929688 552.0585938,87.1328125 551.5625,87.1328125 C551.1054688,87.1328125 550.7099609,87.3027344 550.3759766,87.6425781 C550.0419922,87.9824219 549.8320313,88.4257813 549.7460938,88.9726563 Z M557.1640625,91.9257813 L557.1640625,95.8222656 L556.015625,95.8222656 L556.015625,86.359375 L557.1640625,86.359375 L557.1640625,87.4785156 L557.1875,87.4785156 C557.6953125,86.6308594 558.4375,86.2070313 559.4140625,86.2070313 C560.2421875,86.2070313 560.8916016,86.4970703 561.3623047,87.0771484 C561.8330078,87.6572266 562.0683594,88.4355469 562.0683594,89.4121094 C562.0683594,90.4902344 561.8017578,91.3564453 561.2685547,92.0107422 C560.7353516,92.6650391 560.0175781,92.9921875 559.1152344,92.9921875 C558.2832031,92.9921875 557.640625,92.6367188 557.1875,91.9257813 Z M557.1582031,90.1679688 C557.1582031,90.6953125 557.328125,91.1396484 557.6679688,91.5009766 C558.0078125,91.8623047 558.4335938,92.0429688 558.9453125,92.0429688 C559.5546875,92.0429688 560.03125,91.8085938 560.375,91.3398438 C560.71875,90.8710938 560.890625,90.2226563 560.890625,89.3945313 C560.890625,88.6953125 560.7304688,88.1474609 560.4101563,87.7509766 C560.0898438,87.3544922 559.6523438,87.15625 559.0976563,87.15625 C558.53125,87.15625 558.0664063,87.3574219 557.703125,87.7597656 C557.3398438,88.1621094 557.1582031,88.6777344 557.1582031,89.3066406 Z M564.0605469,86.8105469 C564.7050781,86.4082031 565.4492188,86.2070313 566.2929688,86.2070313 C567.8554688,86.2070313 568.6367188,87.0273438 568.6367188,88.6679688 L568.6367188,92.8398438 L567.5,92.8398438 L567.5,91.8378906 L567.4707031,91.8378906 C567.0214844,92.6074219 566.359375,92.9921875 565.484375,92.9921875 C564.8554688,92.9921875 564.3554688,92.8222656 563.984375,92.4824219 C563.6132813,92.1425781 563.4277344,91.6835938 563.4277344,91.1054688 C563.4277344,89.8945313 564.1445313,89.1894531 565.578125,88.9902344 L567.5,88.7207031 C567.5,87.6621094 567.0625,87.1328125 566.1875,87.1328125 C565.4101563,87.1328125 564.7011719,87.3945313 564.0605469,87.9179688 Z M565.9824219,89.7929688 C565.4511719,89.8632813 565.0849609,89.9960938 564.8837891,90.1914063 C564.6826172,90.3867188 564.5820313,90.6601563 564.5820313,91.0117188 C564.5820313,91.3203125 564.6914063,91.5722656 564.9101563,91.7675781 C565.1289063,91.9628906 565.4179688,92.0605469 565.7773438,92.0605469 C566.2773438,92.0605469 566.6894531,91.8847656 567.0136719,91.5332031 C567.3378906,91.1816406 567.5,90.7402344 567.5,90.2089844 L567.5,89.5878906 Z M574.2148438,87.4960938 C574.0234375,87.359375 573.7597656,87.2910156 573.4238281,87.2910156 C572.9785156,87.2910156 572.6113281,87.4990234 572.3222656,87.9150391 C572.0332031,88.3310547 571.8886719,88.8789063 571.8886719,89.5585938 L571.8886719,92.8398438 L570.7402344,92.8398438 L570.7402344,86.359375 L571.8886719,86.359375 L571.8886719,87.6777344 L571.9121094,87.6777344 C572.2402344,86.7246094 572.8066406,86.2480469 573.6113281,86.2480469 C573.8730469,86.2480469 574.0742188,86.2773438 574.2148438,86.3359375 Z M578.5683594,92.7753906 C578.3183594,92.9121094 577.9804688,92.9804688 577.5546875,92.9804688 C576.3945313,92.9804688 575.8144531,92.3378906 575.8144531,91.0527344 L575.8144531,87.3085938 L574.7011719,87.3085938 L574.7011719,86.359375 L575.8144531,86.359375 L575.8144531,84.8007813 L576.9570313,84.4375 L576.9570313,86.359375 L578.5683594,86.359375 L578.5683594,87.3085938 L576.9570313,87.3085938 L576.9570313,90.8476563 C576.9570313,91.2734375 577.0292969,91.578125 577.1738281,91.7617188 C577.3183594,91.9453125 577.5585938,92.0371094 577.8945313,92.0371094 C578.1523438,92.0371094 578.3769531,91.9648438 578.5683594,91.8203125 Z M589.390625,92.8398438 L588.2421875,92.8398438 L588.2421875,89.1191406 C588.2421875,88.4160156 588.1327515,87.9130859 587.9140625,87.6103516 C587.6952515,87.3076172 587.3358765,87.15625 586.8359375,87.15625 C586.4140625,87.15625 586.0526733,87.3535156 585.7519531,87.7480469 C585.4511108,88.1425781 585.3007813,88.609375 585.3007813,89.1484375 L585.3007813,92.8398438 L584.1523438,92.8398438 L584.1523438,89.0019531 C584.1522827,87.7714844 583.6777344,87.15625 582.7285156,87.15625 C582.2910156,87.15625 581.9287109,87.34375 581.6416016,87.71875 C581.3544922,88.09375 581.2109375,88.5722656 581.2109375,89.1542969 L581.2109375,92.8398438 L580.0625,92.8398438 L580.0625,86.359375 L581.2109375,86.359375 L581.2109375,87.3847656 L581.234375,87.3847656 C581.6953125,86.5996094 582.3691406,86.2070313 583.2558594,86.2070313 C583.6894531,86.2070313 584.0722046,86.3261719 584.4042969,86.5644531 C584.7362671,86.8027344 584.9667969,87.125 585.0957031,87.53125 C585.5761719,86.6484375 586.2948608,86.2070313 587.2519531,86.2070313 C588.6776733,86.2070313 589.390564,87.0859375 589.390625,88.84375 Z M596.9257813,89.8925781 L592.390625,89.8925781 C592.4100952,90.5839844 592.5995483,91.1181641 592.9589844,91.4951172 C593.3182983,91.8720703 593.8203125,92.0605469 594.4648438,92.0605469 C595.1914063,92.0605469 595.8573608,91.828125 596.4628906,91.3632813 L596.4628906,92.3886719 C595.8925171,92.7910156 595.1366577,92.9921875 594.1953125,92.9921875 C593.2578125,92.9921875 592.5263062,92.6953125 592.0009766,92.1015625 C591.4755249,91.5078125 591.2128906,90.6835938 591.2128906,89.6289063 C591.2128906,88.6367188 591.5009155,87.8183594 592.0771484,87.1738281 C592.6532593,86.5292969 593.3690796,86.2070313 594.2246094,86.2070313 C595.0722046,86.2070313 595.734314,86.4794922 596.2109375,87.0244141 C596.687439,87.5693359 596.9257813,88.3320313 596.9257813,89.3125 Z M595.7773438,88.9726563 C595.7733765,88.3867188 595.6347046,87.9335938 595.3613281,87.6132813 C595.0878296,87.2929688 594.703064,87.1328125 594.2070313,87.1328125 C593.75,87.1328125 593.3544312,87.3027344 593.0205078,87.6425781 C592.6865234,87.9824219 592.4765015,88.4257813 592.390625,88.9726563 Z M604.1386719,92.8398438 L602.9960938,92.8398438 L602.9960938,89.1542969 C602.9960327,87.8222656 602.5097046,87.15625 601.5371094,87.15625 C601.0332031,87.15625 600.6190796,87.34375 600.2949219,87.71875 C599.9706421,88.09375 599.8085938,88.5683594 599.8085938,89.1425781 L599.8085938,92.8398438 L598.6601563,92.8398438 L598.6601563,86.359375 L599.8085938,86.359375 L599.8085938,87.4316406 L599.8320313,87.4316406 C600.3202515,86.6152344 601.0292358,86.2070313 601.9589844,86.2070313 C602.6698608,86.2070313 603.2108765,86.4345703 603.5820313,86.8896484 C603.953064,87.3447266 604.1386719,88.0078125 604.1386719,88.8789063 Z M609.3886719,92.7753906 C609.1386108,92.9121094 608.8007202,92.9804688 608.375,92.9804688 C607.2148438,92.9804688 606.6347656,92.3378906 606.6347656,91.0527344 L606.6347656,87.3085938 L605.5214844,87.3085938 L605.5214844,86.359375 L606.6347656,86.359375 L606.6347656,84.8007813 L607.7773438,84.4375 L607.7773438,86.359375 L609.3886719,86.359375 L609.3886719,87.3085938 L607.7773438,87.3085938 L607.7773438,90.8476563 C607.7773438,91.2734375 607.8495483,91.578125 607.9941406,91.7617188 C608.1386108,91.9453125 608.3788452,92.0371094 608.7148438,92.0371094 C608.9726563,92.0371094 609.1972046,91.9648438 609.3886719,91.8203125 Z" style="fill:rgb(0,0,0);stroke:none" clip-path="url(#clip21)" />
<clipPath id="clip22"><path d="M443,103 L600,103 L600,148 L443,148 L443,103 Z" /></clipPath>
<path d="M446,145 L596,145 Z" style="fill:none;stroke:rgb(85,142,213);stroke-width:3" clip-path="url(#clip22)" />
<clipPath id="clip23"><path d="M454,107 L589,107 L589,144 L454,144 L454,107 Z" /></clipPath>
<path d="M460.5234375,117.9746094 L467.6484375,117.9746094 L467.6484375,123.2480469 L466.7109375,123.2480469 L466.7109375,122.4511719 L461.4609375,122.4511719 L461.4609375,123.2480469 L460.5234375,123.2480469 Z M459.4453125,116.0878906 C459.445282,118.2363281 459.335907,119.6855469 459.1171875,120.4355469 C458.898407,121.2949219 458.4335632,122.2441406 457.7226563,123.2832031 C457.5429382,123.0175781 457.3280945,122.7441406 457.078125,122.4628906 C457.632782,121.6738281 458.007782,120.8808594 458.203125,120.0839844 C458.398407,119.3183594 458.4960938,118.1933594 458.4960938,116.7089844 L458.4960938,112.7597656 C461.9179382,112.6503906 464.9335632,112.4160156 467.5429688,112.0566406 L468.1054688,113.0292969 C464.8710938,113.3574219 461.9843445,113.5683594 459.4453125,113.6621094 L459.4453125,115.2089844 L468.7265625,115.2089844 L468.7265625,116.0878906 Z M466.7109375,118.8300781 L461.4609375,118.8300781 L461.4609375,121.6191406 L466.7109375,121.6191406 Z M469.4941406,122.4160156 C470.7909851,121.2988281 471.5409851,119.6582031 471.7441406,117.4941406 L472.7285156,117.6464844 C472.6347656,118.3691406 472.492157,119.0429688 472.3007813,119.6679688 C472.9062195,120.9570313 473.8456726,121.6972656 475.1191406,121.8886719 L475.1191406,116.7324219 L469.7636719,116.7324219 L469.7636719,115.8535156 L480.8964844,115.8535156 L480.8964844,116.7324219 L476.0917969,116.7324219 L476.0917969,118.6308594 L480.1699219,118.6308594 L480.1699219,119.4980469 L476.0917969,119.4980469 L476.0917969,121.953125 C477.6464539,121.9921875 479.3378906,121.9785156 481.1660156,121.9121094 C481.0331726,122.2167969 480.9199219,122.5410156 480.8261719,122.8847656 C478.9120789,122.9082031 477.2402344,122.8964844 475.8105469,122.8496094 C474.0487976,122.8496094 472.7538757,122.1347656 471.9257813,120.7050781 C471.4804688,121.7402344 470.8769531,122.6152344 470.1152344,123.3300781 C469.9355164,123.0253906 469.7284851,122.7207031 469.4941406,122.4160156 Z M470.1855469,113.1347656 L475.1835938,113.1347656 C474.9530945,112.7988281 474.7089844,112.4707031 474.4511719,112.1503906 L475.3417969,111.6699219 C475.6464844,112.0214844 475.9784851,112.4160156 476.3378906,112.8535156 L475.8105469,113.1347656 L480.5566406,113.1347656 L480.5566406,115.3613281 L479.6308594,115.3613281 L479.6308594,114.0136719 L471.1113281,114.0136719 L471.1113281,115.3496094 L470.1855469,115.3496094 Z M487.8398438,121.6953125 L482.3203125,121.6953125 L482.3203125,120.6992188 L484.9570313,118.0683594 C485.6835938,117.3417969 486.1699219,116.7666016 486.4160156,116.3427734 C486.6621094,115.9189453 486.7851563,115.4804688 486.7851563,115.0273438 C486.7851563,114.5117188 486.6405945,114.1162109 486.3515625,113.8408203 C486.0624695,113.5654297 485.6445007,113.4277344 485.0976563,113.4277344 C484.2890625,113.4277344 483.5175476,113.7714844 482.7832031,114.4589844 L482.7832031,113.2929688 C483.4980164,112.7421875 484.3300781,112.4667969 485.2792969,112.4667969 C486.0956726,112.4667969 486.7402039,112.6875 487.2128906,113.1289063 C487.6855164,113.5703125 487.921875,114.1640625 487.921875,114.9101563 C487.921875,115.4726563 487.7704773,116.0244141 487.4677734,116.5654297 C487.1650085,117.1064453 486.5917969,117.7949219 485.7480469,118.6308594 L483.6796875,120.6523438 L483.6796875,120.6757813 L487.8398438,120.6757813 Z" style="fill:rgb(0,0,0);stroke:none" clip-path="url(#clip23)" />
<clipPath id="clip24"><path d="M454,107 L589,107 L589,144 L454,144 L454,107 Z" /></clipPath>
<path d="M460.5107422,136.7050781 C460.2607117,136.8417969 459.922821,136.9101563 459.4970703,136.9101563 C458.3369141,136.9101563 457.7568359,136.2675781 457.7568359,134.9824219 L457.7568359,131.2382813 L456.6435547,131.2382813 L456.6435547,130.2890625 L457.7568359,130.2890625 L457.7568359,128.7304688 L458.8994141,128.3671875 L458.8994141,130.2890625 L460.5107422,130.2890625 L460.5107422,131.2382813 L458.8994141,131.2382813 L458.8994141,134.7773438 C458.8994141,135.203125 458.9716492,135.5078125 459.1162109,135.6914063 C459.2607117,135.875 459.500946,135.9667969 459.8369141,135.9667969 C460.0947266,135.9667969 460.3193054,135.8945313 460.5107422,135.75 Z M461.5712891,133.5996094 C461.5712891,132.5292969 461.8701172,131.6845703 462.4677734,131.0654297 C463.0654297,130.4462891 463.875946,130.1367188 464.8994141,130.1367188 C465.8720398,130.1367188 466.6347351,130.4345703 467.1875,131.0302734 C467.7402039,131.6259766 468.0166016,132.4492188 468.0166016,133.5 C468.0166016,134.5234375 467.7216492,135.3496094 467.1318359,135.9785156 C466.5419617,136.6074219 465.750946,136.921875 464.7587891,136.921875 C463.7900085,136.921875 463.016571,136.6171875 462.4384766,136.0078125 C461.860321,135.3984375 461.5712891,134.5957031 461.5712891,133.5996094 Z M462.7431641,133.5644531 C462.7431641,134.3105469 462.9316101,134.8984375 463.3085938,135.328125 C463.6855164,135.7578125 464.1923523,135.9726563 464.8291016,135.9726563 C465.485321,135.9726563 465.985321,135.7626953 466.3291016,135.3427734 C466.672821,134.9228516 466.8447266,134.3203125 466.8447266,133.5351563 C466.8447266,132.7460938 466.672821,132.140625 466.3291016,131.71875 C465.985321,131.296875 465.485321,131.0859375 464.8291016,131.0859375 C464.1845703,131.0859375 463.6757507,131.3066406 463.3027344,131.7480469 C462.929657,132.1894531 462.7431641,132.7949219 462.7431641,133.5644531 Z M473.1552734,135.3691406 C473.7333679,135.7871094 474.3564453,135.9960938 475.0244141,135.9960938 C475.9189148,135.9960938 476.3662109,135.703125 476.3662109,135.1171875 C476.3662109,134.8671875 476.2685242,134.6611328 476.0732422,134.4990234 C475.8778992,134.3369141 475.4814148,134.1445313 474.8837891,133.921875 C474.1650085,133.6328125 473.6982117,133.3466797 473.4833984,133.0634766 C473.2685242,132.7802734 473.1611023,132.4375 473.1611328,132.0351563 C473.1611023,131.4609375 473.4042969,131.0009766 473.890625,130.6552734 C474.3769531,130.3095703 474.9755554,130.1367188 475.6865234,130.1367188 C476.2373047,130.1367188 476.7489929,130.2324219 477.2216797,130.4238281 L477.2216797,131.53125 C476.7372742,131.21875 476.188446,131.0625 475.5751953,131.0625 C475.2079773,131.0625 474.9091492,131.1425781 474.6787109,131.3027344 C474.4482117,131.4628906 474.3330078,131.6738281 474.3330078,131.9355469 C474.3330078,132.1933594 474.4159851,132.3945313 474.5820313,132.5390625 C474.7480164,132.6835938 475.1161804,132.8691406 475.6865234,133.0957031 C476.4091492,133.3652344 476.8974304,133.6445313 477.1513672,133.9335938 C477.4052429,134.2226563 477.5322266,134.5800781 477.5322266,135.0058594 C477.5322266,135.5996094 477.2890625,136.0673828 476.8027344,136.4091797 C476.3164063,136.7509766 475.6865234,136.921875 474.9130859,136.921875 C474.2411804,136.921875 473.6552429,136.7949219 473.1552734,136.5410156 Z M479.3896484,130.7402344 C480.0341797,130.3378906 480.7783203,130.1367188 481.6220703,130.1367188 C483.1845398,130.1367188 483.9658203,130.9570313 483.9658203,132.5976563 L483.9658203,136.7695313 L482.8291016,136.7695313 L482.8291016,135.7675781 L482.7998047,135.7675781 C482.3505554,136.5371094 481.688446,136.921875 480.8134766,136.921875 C480.1845398,136.921875 479.6845398,136.7519531 479.3134766,136.4121094 C478.9423523,136.0722656 478.7568359,135.6132813 478.7568359,135.0351563 C478.7568359,133.8242188 479.4736328,133.1191406 480.9072266,132.9199219 L482.8291016,132.6503906 C482.8291016,131.5917969 482.391571,131.0625 481.5166016,131.0625 C480.7392273,131.0625 480.0302429,131.3242188 479.3896484,131.8476563 Z M481.3115234,133.7226563 C480.7802429,133.7929688 480.414032,133.9257813 480.2128906,134.1210938 C480.0116882,134.3164063 479.9111328,134.5898438 479.9111328,134.9414063 C479.9111328,135.25 480.0204773,135.5019531 480.2392578,135.6972656 C480.4579773,135.8925781 480.7470398,135.9902344 481.1064453,135.9902344 C481.6064148,135.9902344 482.0185242,135.8144531 482.3427734,135.4628906 C482.6669617,135.1113281 482.8291016,134.6699219 482.8291016,134.1386719 L482.8291016,133.5175781 Z M491.3427734,130.2890625 L488.4013672,137.7480469 C487.8544617,139.1308594 487.0830078,139.8222656 486.0869141,139.8222656 C485.8017273,139.8222656 485.5575867,139.7910156 485.3544922,139.7285156 L485.3544922,138.7207031 C485.5771484,138.8066406 485.7919617,138.8496094 485.9990234,138.8496094 C486.5185242,138.8496094 486.9072266,138.5449219 487.1650391,137.9355469 L487.6630859,136.7578125 L485.1201172,130.2890625 L486.3916016,130.2890625 L488.0849609,135.1582031 L488.2255859,135.6914063 L488.2548828,135.6914063 C488.2783203,135.5703125 488.3251953,135.3964844 488.3955078,135.1699219 L490.1650391,130.2890625 Z M504.5732422,130.2890625 L502.6396484,136.7695313 L501.4443359,136.7695313 L500.1552734,132.2226563 C500.1005554,132.0273438 500.0653992,131.8203125 500.0498047,131.6015625 L500.0263672,131.6015625 C500.0146179,131.765625 499.969696,131.96875 499.8916016,132.2109375 L498.4970703,136.7695313 L497.3369141,136.7695313 L495.3916016,130.2890625 L496.5869141,130.2890625 L497.8818359,135.09375 C497.9208679,135.2382813 497.9501648,135.4355469 497.9697266,135.6855469 L498.0166016,135.6855469 C498.032196,135.4707031 498.0693054,135.2675781 498.1279297,135.0761719 L499.5224609,130.2890625 L500.5830078,130.2890625 L501.9423828,135.0996094 C501.9814148,135.2402344 502.0126953,135.4394531 502.0361328,135.6972656 L502.0888672,135.6972656 C502.0966492,135.5253906 502.1318054,135.3261719 502.1943359,135.0996094 L503.4599609,130.2890625 Z M511.5048828,136.7695313 L510.3623047,136.7695313 L510.3623047,133.0429688 C510.3623047,131.7382813 509.8778992,131.0859375 508.9091797,131.0859375 C508.4130554,131.0859375 508.0009766,131.2763672 507.6728516,131.6572266 C507.3447266,132.0380859 507.1806641,132.5175781 507.1806641,133.0957031 L507.1806641,136.7695313 L506.0322266,136.7695313 L506.0322266,127.1777344 L507.1806641,127.1777344 L507.1806641,131.3554688 L507.2041016,131.3554688 C507.7001648,130.5429688 508.4052734,130.1367188 509.3193359,130.1367188 C510.7763367,130.1367188 511.5048828,131.0175781 511.5048828,132.7792969 Z M513.7958984,130.7402344 C514.4404297,130.3378906 515.1845703,130.1367188 516.0283203,130.1367188 C517.5908203,130.1367188 518.3720703,130.9570313 518.3720703,132.5976563 L518.3720703,136.7695313 L517.2353516,136.7695313 L517.2353516,135.7675781 L517.2060547,135.7675781 C516.7568359,136.5371094 516.0947266,136.921875 515.2197266,136.921875 C514.5908203,136.921875 514.0908203,136.7519531 513.7197266,136.4121094 C513.3486328,136.0722656 513.1630859,135.6132813 513.1630859,135.0351563 C513.1630859,133.8242188 513.8798828,133.1191406 515.3134766,132.9199219 L517.2353516,132.6503906 C517.2353516,131.5917969 516.7978516,131.0625 515.9228516,131.0625 C515.1455078,131.0625 514.4365234,131.3242188 513.7958984,131.8476563 Z M515.7177734,133.7226563 C515.1865234,133.7929688 514.8203125,133.9257813 514.6191406,134.1210938 C514.4179688,134.3164063 514.3173828,134.5898438 514.3173828,134.9414063 C514.3173828,135.25 514.4267578,135.5019531 514.6455078,135.6972656 C514.8642578,135.8925781 515.1533203,135.9902344 515.5126953,135.9902344 C516.0126953,135.9902344 516.4248047,135.8144531 516.7490234,135.4628906 C517.0732422,135.1113281 517.2353516,134.6699219 517.2353516,134.1386719 L517.2353516,133.5175781 Z M523.5869141,136.7050781 C523.3369141,136.8417969 522.9990234,136.9101563 522.5732422,136.9101563 C521.4130859,136.9101563 520.8330078,136.2675781 520.8330078,134.9824219 L520.8330078,131.2382813 L519.7197266,131.2382813 L519.7197266,130.2890625 L520.8330078,130.2890625 L520.8330078,128.7304688 L521.9755859,128.3671875 L521.9755859,130.2890625 L523.5869141,130.2890625 L523.5869141,131.2382813 L521.9755859,131.2382813 L521.9755859,134.7773438 C521.9755859,135.203125 522.0478516,135.5078125 522.1923828,135.6914063 C522.3369141,135.875 522.5771484,135.9667969 522.9130859,135.9667969 C523.1708984,135.9667969 523.3955078,135.8945313 523.5869141,135.75 Z M531.8486328,136.7050781 C531.5986328,136.8417969 531.2607422,136.9101563 530.8349609,136.9101563 C529.6748047,136.9101563 529.0947266,136.2675781 529.0947266,134.9824219 L529.0947266,131.2382813 L527.9814453,131.2382813 L527.9814453,130.2890625 L529.0947266,130.2890625 L529.0947266,128.7304688 L530.2373047,128.3671875 L530.2373047,130.2890625 L531.8486328,130.2890625 L531.8486328,131.2382813 L530.2373047,131.2382813 L530.2373047,134.7773438 C530.2373047,135.203125 530.3095703,135.5078125 530.4541016,135.6914063 C530.5986328,135.875 530.8388672,135.9667969 531.1748047,135.9667969 C531.4326172,135.9667969 531.6572266,135.8945313 531.8486328,135.75 Z M538.8154297,136.7695313 L537.6728516,136.7695313 L537.6728516,133.0429688 C537.6728516,131.7382813 537.1884766,131.0859375 536.2197266,131.0859375 C535.7236328,131.0859375 535.3115234,131.2763672 534.9833984,131.6572266 C534.6552734,132.0380859 534.4912109,132.5175781 534.4912109,133.0957031 L534.4912109,136.7695313 L533.3427734,136.7695313 L533.3427734,127.1777344 L534.4912109,127.1777344 L534.4912109,131.3554688 L534.5146484,131.3554688 C535.0107422,130.5429688 535.7158203,130.1367188 536.6298828,130.1367188 C538.0869141,130.1367188 538.8154297,131.0175781 538.8154297,132.7792969 Z M546.2333984,133.8222656 L541.6982422,133.8222656 C541.7177734,134.5136719 541.9072266,135.0478516 542.2666016,135.4248047 C542.6259766,135.8017578 543.1279297,135.9902344 543.7724609,135.9902344 C544.4990234,135.9902344 545.1650391,135.7578125 545.7705078,135.2929688 L545.7705078,136.3183594 C545.2001953,136.7207031 544.4443359,136.921875 543.5029297,136.921875 C542.5654297,136.921875 541.8339844,136.625 541.3085938,136.03125 C540.7832031,135.4375 540.5205078,134.6132813 540.5205078,133.5585938 C540.5205078,132.5664063 540.8085938,131.7480469 541.3847656,131.1035156 C541.9609375,130.4589844 542.6767578,130.1367188 543.5322266,130.1367188 C544.3798828,130.1367188 545.0419922,130.4091797 545.5185547,130.9541016 C545.9951172,131.4990234 546.2333984,132.2617188 546.2333984,133.2421875 Z M545.0849609,132.9023438 C545.0810547,132.3164063 544.9423828,131.8632813 544.6689453,131.5429688 C544.3955078,131.2226563 544.0107422,131.0625 543.5146484,131.0625 C543.0576172,131.0625 542.6621094,131.2324219 542.328125,131.5722656 C541.9941406,131.9121094 541.7841797,132.3554688 541.6982422,132.9023438 Z M551.6181641,136.7695313 L551.6181641,127.1777344 L552.7666016,127.1777344 L552.7666016,136.7695313 Z M555.0634766,130.7402344 C555.7080078,130.3378906 556.4521484,130.1367188 557.2958984,130.1367188 C558.8583984,130.1367188 559.6396484,130.9570313 559.6396484,132.5976563 L559.6396484,136.7695313 L558.5029297,136.7695313 L558.5029297,135.7675781 L558.4736328,135.7675781 C558.0244141,136.5371094 557.3623047,136.921875 556.4873047,136.921875 C555.8583984,136.921875 555.3583984,136.7519531 554.9873047,136.4121094 C554.6162109,136.0722656 554.4306641,135.6132813 554.4306641,135.0351563 C554.4306641,133.8242188 555.1474609,133.1191406 556.5810547,132.9199219 L558.5029297,132.6503906 C558.5029297,131.5917969 558.0654297,131.0625 557.1904297,131.0625 C556.4130859,131.0625 555.7041016,131.3242188 555.0634766,131.8476563 Z M556.9853516,133.7226563 C556.4541016,133.7929688 556.0878906,133.9257813 555.8867188,134.1210938 C555.6855469,134.3164063 555.5849609,134.5898438 555.5849609,134.9414063 C555.5849609,135.25 555.6943359,135.5019531 555.9130859,135.6972656 C556.1318359,135.8925781 556.4208984,135.9902344 556.7802734,135.9902344 C557.2802734,135.9902344 557.6923828,135.8144531 558.0166016,135.4628906 C558.3408203,135.1113281 558.5029297,134.6699219 558.5029297,134.1386719 L558.5029297,133.5175781 Z M570.0458984,130.2890625 L568.1123047,136.7695313 L566.9169922,136.7695313 L565.6279297,132.2226563 C565.5732422,132.0273438 565.5380859,131.8203125 565.5224609,131.6015625 L565.4990234,131.6015625 C565.4873047,131.765625 565.4423828,131.96875 565.3642578,132.2109375 L563.9697266,136.7695313 L562.8095703,136.7695313 L560.8642578,130.2890625 L562.0595703,130.2890625 L563.3544922,135.09375 C563.3935547,135.2382813 563.4228516,135.4355469 563.4423828,135.6855469 L563.4892578,135.6855469 C563.5048828,135.4707031 563.5419922,135.2675781 563.6005859,135.0761719 L564.9951172,130.2890625 L566.0556641,130.2890625 L567.4150391,135.0996094 C567.4541016,135.2402344 567.4853516,135.4394531 567.5087891,135.6972656 L567.5615234,135.6972656 C567.5693359,135.5253906 567.6044922,135.3261719 567.6669922,135.0996094 L568.9326172,130.2890625 Z M575.0205078,128.0039063 C575.0205078,127.8007813 575.0898438,127.6298828 575.2285156,127.4912109 C575.3671875,127.3525391 575.5380859,127.2832031 575.7412109,127.2832031 C575.9482422,127.2832031 576.1230469,127.3515625 576.265625,127.4882813 C576.4082031,127.625 576.4794922,127.796875 576.4794922,128.0039063 C576.4794922,128.2070313 576.4082031,128.3759766 576.265625,128.5107422 C576.1230469,128.6455078 575.9482422,128.7128906 575.7412109,128.7128906 C575.5341797,128.7128906 575.3623047,128.6455078 575.2255859,128.5107422 C575.0888672,128.3759766 575.0205078,128.2070313 575.0205078,128.0039063 Z M575.1552734,136.7695313 L575.1552734,130.2890625 L576.3037109,130.2890625 L576.3037109,136.7695313 Z M578.0849609,135.3691406 C578.6630859,135.7871094 579.2861328,135.9960938 579.9541016,135.9960938 C580.8486328,135.9960938 581.2958984,135.703125 581.2958984,135.1171875 C581.2958984,134.8671875 581.1982422,134.6611328 581.0029297,134.4990234 C580.8076172,134.3369141 580.4111328,134.1445313 579.8134766,133.921875 C579.0947266,133.6328125 578.6279297,133.3466797 578.4130859,133.0634766 C578.1982422,132.7802734 578.0908203,132.4375 578.0908203,132.0351563 C578.0908203,131.4609375 578.3339844,131.0009766 578.8203125,130.6552734 C579.3066406,130.3095703 579.9052734,130.1367188 580.6162109,130.1367188 C581.1669922,130.1367188 581.6787109,130.2324219 582.1513672,130.4238281 L582.1513672,131.53125 C581.6669922,131.21875 581.1181641,131.0625 580.5048828,131.0625 C580.1376953,131.0625 579.8388672,131.1425781 579.6083984,131.3027344 C579.3779297,131.4628906 579.2626953,131.6738281 579.2626953,131.9355469 C579.2626953,132.1933594 579.3457031,132.3945313 579.5117188,132.5390625 C579.6777344,132.6835938 580.0458984,132.8691406 580.6162109,133.0957031 C581.3388672,133.3652344 581.8271484,133.6445313 582.0810547,133.9335938 C582.3349609,134.2226563 582.4619141,134.5800781 582.4619141,135.0058594 C582.4619141,135.5996094 582.21875,136.0673828 581.7324219,136.4091797 C581.2460938,136.7509766 580.6162109,136.921875 579.8427734,136.921875 C579.1708984,136.921875 578.5849609,136.7949219 578.0849609,136.5410156 Z M583.8388672,136.1660156 C583.8388672,135.9550781 583.9111328,135.7773438 584.0556641,135.6328125 C584.2001343,135.4882813 584.3798218,135.4160156 584.5947266,135.4160156 C584.8134155,135.4160156 584.9950562,135.4892578 585.1396484,135.6357422 C585.2841187,135.7822266 585.3564453,135.9589844 585.3564453,136.1660156 C585.3564453,136.3691406 585.2841187,136.5439453 585.1396484,136.6904297 C584.9950562,136.8369141 584.8115234,136.9101563 584.5888672,136.9101563 C584.3739624,136.9101563 584.1952515,136.8369141 584.0527344,136.6904297 C583.9101563,136.5439453 583.8388672,136.3691406 583.8388672,136.1660156 Z" style="fill:rgb(0,0,0);stroke:none" clip-path="url(#clip24)" />
</svg>
