<svg width="645" xmlns:xlink="http://www.w3.org/1999/xlink" viewBox="0 0 645 276" height="276" xmlns="http://www.w3.org/2000/svg">
    <defs/>
    <g transform="translate(-396.00,-195.00)">
        <g transform="translate(501.34,200.00)" id="shape1">
            <text style="fill:#191919;font-family:Microsoft YaHei;font-size:10.00pt" xml:space="preserve">
                <tspan x="14.0" y="23.0">Camp David Accords</tspan>
                <tspan x="52.0" y="42.0">(1978年)</tspan>
            </text>
        </g>
        <g transform="translate(397.00,273.42)" id="shape2">
            <path d="M.0,.0L95.5,.0L95.5,51.3L.0,51.3L.0,.0z" fill="none" stroke="#999999"/>
            <text style="fill:#191919;font-family:Microsoft YaHei;font-size:10.00pt" xml:space="preserve">
                <tspan x="34.8" y="21.7">美国</tspan>
                <tspan x="16.3" y="40.7">(吉米·卡特)</tspan>
            </text>
        </g>
        <g transform="translate(548.02,284.17)" id="shape3">
            <path d="M.0,.0L63.6,.0L63.6,29.8L.0,29.8L.0,.0z" fill="#d7d7d7" fill-rule="nonzero" stroke="#999999"/>
            <text style="fill:#191919;font-family:Microsoft YaHei;font-size:10.00pt" xml:space="preserve">
                <tspan x="12.3" y="20.4">以色列</tspan>
            </text>
        </g>
        <g transform="translate(711.36,277.59)" id="shape4">
            <path d="M.0,.0L119.6,.0L119.6,43.0L.0,43.0L.0,.0z" fill="#d7d7d7" fill-rule="nonzero" stroke="#999999"/>
            <text style="fill:#191919;font-family:Microsoft YaHei;font-size:10.00pt" xml:space="preserve">
                <tspan x="46.8" y="17.5">埃及</tspan>
                <tspan x="19.8" y="36.5">(总统: 萨达特)</tspan>
            </text>
        </g>
        <g transform="translate(611.66,297.86)" id="shape5">
            <path d="M8.0,.0L67.7,.0L67.7,-0.5L93.7,-0.5" fill="none" stroke="#191919"/>
            <path d="M8.0,4.0L.0,.0L8.0,-4.0L8.0,4.0" fill="#191919" stroke-width="1" stroke-linecap="round" stroke="#191919"/>
            <path d="M93.7,-3.5L99.7,-0.5L93.7,2.5L93.7,-3.5" fill="#191919" stroke-width="1" stroke-linecap="round" stroke="#191919"/>
            <rect width="37.0" fill="#ffffff" x="30.4" y="-9.5" height="19.0"/>
            <text style="fill:#191919;font-family:Microsoft YaHei;font-size:10.00pt" xml:space="preserve">
                <tspan x="30.4" y="5.5">1.和解</tspan>
            </text>
        </g>
        <g transform="translate(869.00,340.00)" id="shape6">
            <path d="M.0,.0L133.0,.0L133.0,48.8L.0,48.8L.0,.0z" fill="none" stroke="#999999"/>
            <text style="fill:#191919;font-family:Microsoft YaHei;font-size:10.00pt" xml:space="preserve">
                <tspan x="8.0" y="20.4">其他拒绝承认以色列</tspan>
                <tspan x="27.5" y="39.4">的阿拉伯国家</tspan>
            </text>
        </g>
        <g transform="translate(776.92,320.59)" id="shape7">
            <path d="M.0,.0L.0,44.3L86.1,44.3" fill="none" stroke="#191919"/>
            <path d="M86.1,41.3L92.1,44.3L86.1,47.3L86.1,41.3" fill="#191919" stroke-width="1" stroke-linecap="round" stroke="#191919"/>
            <rect width="63.0" fill="#ffffff" x="17.0" y="34.8" height="19.0"/>
            <text style="fill:#191919;font-family:Microsoft YaHei;font-size:10.00pt" xml:space="preserve">
                <tspan x="17.0" y="49.8">2.关系破裂</tspan>
            </text>
        </g>
        <g transform="translate(938.26,340.00)" id="shape8">
            <path d="M.0,.0L.0,-46.1L-101.3,-46.1" fill="none" stroke="#191919"/>
            <path d="M-101.3,-43.1L-107.3,-46.1L-101.3,-49.1L-101.3,-43.1" fill="#191919" stroke-width="1" stroke-linecap="round" stroke="#191919"/>
        </g>
        <g transform="translate(869.00,246.00)" id="shape9">
            <text style="fill:#191919;font-family:Microsoft YaHei;font-size:10.00pt" xml:space="preserve">
                <tspan x="47.4" y="20.4">3.埃及被取消</tspan>
                <tspan x="13.9" y="39.4">阿拉伯联盟的成员国资格</tspan>
            </text>
        </g>
        <g transform="translate(762.21,320.59)" id="shape10">
            <path d="M.0,.0L.0,95.4L-184.0,95.4L-184.0,-0.6" fill="none" stroke="#191919"/>
            <path d="M-187.0,-0.6L-184.0,-6.6L-181.0,-0.6L-187.0,-0.6" fill="#191919" stroke-width="1" stroke-linecap="round" stroke="#191919"/>
        </g>
        <g transform="translate(567.00,416.00)" id="shape11">
            <text style="fill:#191919;font-family:Microsoft YaHei;font-size:10.00pt" xml:space="preserve">
                <tspan x="24.0" y="23.0">4.萨达特于1981年被暗杀，</tspan>
                <tspan x="26.0" y="42.0">自此以阿和平再次陷入僵局</tspan>
            </text>
        </g>
    </g>
</svg>
