<svg xmlns="http://www.w3.org/2000/svg" viewBox="0 0 450.83 477.79"><defs><style>.cls-1{font-size:24px;font-family:MicrosoftYaHeiLight, Microsoft YaHei;}.cls-2,.cls-3{fill:none;stroke-miterlimit:10;}.cls-2{stroke:#000;}.cls-3{stroke:#231815;}</style></defs><title>资源 5</title><g id="图层_2" data-name="图层 2"><g id="图层_1-2" data-name="图层 1"><text class="cls-1" transform="translate(387.93 251.44)">0 , 2π</text><text class="cls-1" transform="translate(171.94 327.38)">α</text><path class="cls-2" d="M177.7,286.89c2.89,6,7.65,10.43,13.36,11.83a18.27,18.27,0,0,0,9-.19"/><polygon points="175.42 280.2 174.99 290.94 178 287.34 182.63 288.18 175.42 280.2"/><circle class="cls-3" cx="202.97" cy="241.63" r="135.9"/><line class="cls-3" x1="33.39" y1="241.63" x2="372.55" y2="241.63"/><line class="cls-3" x1="202.97" y1="72.05" x2="202.97" y2="411.21"/><text class="cls-1" transform="translate(0 251.44)">π</text><text class="cls-1" transform="translate(214.77 456.11)">π</text><text class="cls-1" transform="translate(188.34 442.71)">3<tspan x="0" y="28.8">2</tspan></text><line class="cls-3" x1="178.53" y1="448.71" x2="208.53" y2="448.71"/><text class="cls-1" transform="translate(214.77 33.95)">π</text><text class="cls-1" transform="translate(192.03 20.54)">1<tspan x="0" y="28.8">2</tspan></text><line class="cls-3" x1="178.53" y1="26.54" x2="208.53" y2="26.54"/><line class="cls-3" x1="202.97" y1="241.63" x2="132.57" y2="354.21"/></g></g></svg>