<svg xmlns="http://www.w3.org/2000/svg">
<defs>
<font horiz-adv-x="2048" id="font394">

<!-- Copyright to this file still held by me, K. Schroeder, KDS4444. Am releasing this image under CC-BY-SA 4.0 which is not the same thing as public domain.  In order to reuse this image anywhere you must credit me as the author and provide a link to the image on Commons where you found the file.  Any version of this image which not credit me as the author and/ or does not link to the original file and indicate its copyright license as CC-BY-SA 4.0 is a violation of my copyright terms and may not be used.  Like this file?  Want me to make one like this for you?  You can email me through my Commons account.  That should still work until I am dead.  Probably.  I am cheap.  Make me an offer.  As Wikipedia has made abundantly clear, my only objective in doing any of this is to get paid for the hard work I do.  Not paid much, by the way.  But being paid is nice.  And it shouldn't be a fucking sin.  Especially when you disclose it.  End rant. -->

<font-face font-family="'DejaVuSans',sans-serif" units-per-em="2048" underline-position="-130" underline-thickness="90"/>
<missing-glyph horiz-adv-x="1229" d="M102,-362l0,1806l1024,0l0,-1806M217,-248l795,0l0,1577l-795,0z"/>
<glyph unicode=" " horiz-adv-x="651"/>
<glyph unicode="!" horiz-adv-x="821" d="M309,254l203,0l0,-254l-203,0M309,1493l203,0l0,-655l-20,-357l-162,0l-21,357z"/>
<glyph unicode="&quot;" horiz-adv-x="942" d="M367,1493l0,-555l-170,0l0,555M745,1493l0,-555l-170,0l0,555z"/>
<glyph unicode="#" horiz-adv-x="1716" d="M1047,901l-291,0l-84,-334l293,0M897,1470l-104,-415l292,0l105,415l160,0l-103,-415l312,0l0,-154l-351,0l-82,-334l318,0l0,-153l-357,0l-104,-414l-160,0l103,414l-293,0l-103,-414l-161,0l104,414l-315,0l0,153l352,0l84,334l-322,0l0,154l361,0l102,415z"/>
<glyph unicode="$" horiz-adv-x="1303" d="M692,-301l-100,0l-1,301C521,1 451,10 381,25C311,40 241,62 170,92l0,180C238,229 307,197 377,176C446,154 518,143 592,142l0,456C445,622 338,663 271,720C204,777 170,856 170,956C170,1065 206,1150 279,1213C352,1276 456,1312 592,1321l0,235l100,0l0,-232C754,1321 814,1315 872,1305C930,1294 987,1280 1042,1262l0,-175C987,1115 930,1137 872,1152C813,1167 753,1176 692,1179l0,-427C843,729 955,687 1026,627C1097,567 1133,485 1133,381C1133,268 1095,180 1020,115C944,50 835,12 692,2M592,770l0,410C515,1171 456,1149 415,1114C374,1079 354,1032 354,973C354,916 373,871 411,839C448,807 509,784 592,770M692,578l0,-433C777,156 841,180 884,217C927,254 948,302 948,362C948,421 928,467 887,502C846,537 781,562 692,578z"/>
<glyph unicode="%" horiz-adv-x="1946" d="M1489,657C1431,657 1386,632 1353,583C1320,534 1303,465 1303,377C1303,290 1320,222 1353,173C1386,123 1431,98 1489,98C1546,98 1591,123 1624,173C1657,222 1673,290 1673,377C1673,464 1657,533 1624,583C1591,632 1546,657 1489,657M1489,784C1594,784 1678,747 1740,674C1802,601 1833,502 1833,377C1833,252 1802,154 1740,81C1677,8 1594,-29 1489,-29C1382,-29 1298,8 1236,81C1174,154 1143,252 1143,377C1143,502 1174,602 1237,675C1299,748 1383,784 1489,784M457,1393C400,1393 355,1368 322,1319C289,1269 272,1201 272,1114C272,1026 288,957 321,908C354,859 399,834 457,834C515,834 561,859 594,908C627,957 643,1026 643,1114C643,1200 626,1268 593,1318C560,1368 514,1393 457,1393M1360,1520l160,0l-934,-1549l-160,0M457,1520C562,1520 646,1484 709,1411C772,1338 803,1239 803,1114C803,988 772,889 710,816C647,743 563,707 457,707C351,707 267,744 206,817C144,890 113,989 113,1114C113,1238 144,1337 206,1410C268,1483 352,1520 457,1520z"/>
<glyph unicode="&amp;" horiz-adv-x="1597" d="M498,803C437,749 393,695 365,642C336,588 322,532 322,473C322,376 357,295 428,230C499,165 587,133 694,133C757,133 817,144 872,165C927,186 979,217 1028,260M639,915l508,-520C1186,454 1217,518 1239,586C1261,653 1274,725 1278,801l186,0C1456,713 1435,626 1400,540C1365,454 1317,369 1255,285l279,-285l-252,0l-143,147C1070,88 997,44 921,15C845,-14 763,-29 676,-29C515,-29 384,17 282,109C180,200 129,318 129,461C129,546 151,627 196,702C241,777 308,847 397,913C365,955 341,997 324,1039C307,1080 299,1121 299,1161C299,1269 336,1356 410,1422C484,1487 582,1520 705,1520C760,1520 816,1514 871,1502C926,1490 981,1472 1038,1448l0,-182C980,1297 925,1321 872,1338C819,1354 770,1362 725,1362C655,1362 598,1344 555,1307C511,1270 489,1222 489,1163C489,1129 499,1095 519,1061C538,1026 578,978 639,915z"/>
<glyph unicode="'" horiz-adv-x="563" d="M367,1493l0,-555l-170,0l0,555z"/>
<glyph unicode="(" horiz-adv-x="799" d="M635,1554C546,1401 479,1249 436,1099C393,949 371,797 371,643C371,489 393,337 437,186C480,35 546,-117 635,-270l-160,0C375,-113 300,41 251,192C201,343 176,494 176,643C176,792 201,941 250,1092C299,1243 374,1397 475,1554z"/>
<glyph unicode=")" horiz-adv-x="799" d="M164,1554l160,0C424,1397 499,1243 549,1092C598,941 623,792 623,643C623,494 598,343 549,192C499,41 424,-113 324,-270l-160,0C253,-117 319,35 363,186C406,337 428,489 428,643C428,797 406,949 363,1099C319,1249 253,1401 164,1554z"/>
<glyph unicode="*" horiz-adv-x="1024" d="M963,1247l-359,-194l359,-195l-58,-98l-336,203l0,-377l-114,0l0,377l-336,-203l-58,98l359,195l-359,194l58,99l336,-203l0,377l114,0l0,-377l336,203z"/>
<glyph unicode="+" horiz-adv-x="1716" d="M942,1284l0,-557l557,0l0,-170l-557,0l0,-557l-168,0l0,557l-557,0l0,170l557,0l0,557z"/>
<glyph unicode="," horiz-adv-x="651" d="M240,254l211,0l0,-172l-164,-320l-129,0l82,320z"/>
<glyph unicode="-" horiz-adv-x="739" d="M100,643l539,0l0,-164l-539,0z"/>
<glyph unicode="." horiz-adv-x="651" d="M219,254l211,0l0,-254l-211,0z"/>
<glyph unicode="/" horiz-adv-x="690" d="M520,1493l170,0l-520,-1683l-170,0z"/>
<glyph unicode="0" horiz-adv-x="1303" d="M651,1360C547,1360 469,1309 417,1207C364,1104 338,950 338,745C338,540 364,387 417,285C469,182 547,131 651,131C756,131 834,182 887,285C939,387 965,540 965,745C965,950 939,1104 887,1207C834,1309 756,1360 651,1360M651,1520C818,1520 946,1454 1035,1322C1123,1189 1167,997 1167,745C1167,494 1123,302 1035,170C946,37 818,-29 651,-29C484,-29 356,37 268,170C179,302 135,494 135,745C135,997 179,1189 268,1322C356,1454 484,1520 651,1520z"/>
<glyph unicode="1" horiz-adv-x="1303" d="M254,170l330,0l0,1139l-359,-72l0,184l357,72l202,0l0,-1323l330,0l0,-170l-860,0z"/>
<glyph unicode="2" horiz-adv-x="1303" d="M393,170l705,0l0,-170l-948,0l0,170C227,249 331,356 464,490C596,623 679,709 713,748C778,821 823,882 849,933C874,983 887,1032 887,1081C887,1160 859,1225 804,1275C748,1325 675,1350 586,1350C523,1350 456,1339 386,1317C315,1295 240,1262 160,1217l0,204C241,1454 317,1478 388,1495C459,1512 523,1520 582,1520C737,1520 860,1481 952,1404C1044,1327 1090,1223 1090,1094C1090,1033 1079,975 1056,920C1033,865 991,800 930,725C913,706 860,650 771,558C682,465 556,336 393,170z"/>
<glyph unicode="3" horiz-adv-x="1303" d="M831,805C928,784 1003,741 1058,676C1112,611 1139,530 1139,434C1139,287 1088,173 987,92C886,11 742,-29 555,-29C492,-29 428,-23 362,-10C295,2 227,20 156,45l0,195C212,207 273,183 340,166C407,149 476,141 549,141C676,141 772,166 839,216C905,266 938,339 938,434C938,522 907,591 846,641C784,690 698,715 588,715l-174,0l0,166l182,0C695,881 771,901 824,941C877,980 903,1037 903,1112C903,1189 876,1248 822,1289C767,1330 689,1350 588,1350C533,1350 473,1344 410,1332C347,1320 277,1301 201,1276l0,180C278,1477 350,1493 417,1504C484,1515 547,1520 606,1520C759,1520 881,1485 970,1416C1059,1346 1104,1252 1104,1133C1104,1050 1080,981 1033,924C986,867 918,827 831,805z"/>
<glyph unicode="4" horiz-adv-x="1303" d="M774,1317l-510,-797l510,0M721,1493l254,0l0,-973l213,0l0,-168l-213,0l0,-352l-201,0l0,352l-674,0l0,195z"/>
<glyph unicode="5" horiz-adv-x="1303" d="M221,1493l793,0l0,-170l-608,0l0,-366C435,967 465,975 494,980C523,985 553,987 582,987C749,987 881,941 978,850C1075,759 1124,635 1124,479C1124,318 1074,194 974,105C874,16 733,-29 551,-29C488,-29 425,-24 360,-13C295,-2 227,14 158,35l0,203C218,205 280,181 344,165C408,149 476,141 547,141C662,141 754,171 821,232C888,293 922,375 922,479C922,583 888,665 821,726C754,787 662,817 547,817C493,817 439,811 386,799C332,787 277,768 221,743z"/>
<glyph unicode="6" horiz-adv-x="1303" d="M676,827C585,827 514,796 461,734C408,672 381,587 381,479C381,372 408,287 461,225C514,162 585,131 676,131C767,131 839,162 892,225C945,287 971,372 971,479C971,587 945,672 892,734C839,796 767,827 676,827M1077,1460l0,-184C1026,1300 975,1318 924,1331C872,1344 821,1350 770,1350C637,1350 535,1305 465,1215C394,1125 354,989 344,807C383,865 433,910 492,941C551,972 617,987 688,987C838,987 957,942 1044,851C1131,760 1174,636 1174,479C1174,326 1129,203 1038,110C947,17 827,-29 676,-29C503,-29 371,37 280,170C189,302 143,494 143,745C143,981 199,1169 311,1310C423,1450 573,1520 762,1520C813,1520 864,1515 916,1505C967,1495 1021,1480 1077,1460z"/>
<glyph unicode="7" horiz-adv-x="1303" d="M168,1493l960,0l0,-86l-542,-1407l-211,0l510,1323l-717,0z"/>
<glyph unicode="8" horiz-adv-x="1303" d="M651,709C555,709 480,683 425,632C370,581 342,510 342,420C342,330 370,259 425,208C480,157 555,131 651,131C747,131 823,157 878,209C933,260 961,331 961,420C961,510 934,581 879,632C824,683 748,709 651,709M449,795C362,816 295,857 247,916C198,975 174,1048 174,1133C174,1252 217,1347 302,1416C387,1485 503,1520 651,1520C800,1520 916,1485 1001,1416C1086,1347 1128,1252 1128,1133C1128,1048 1104,975 1056,916C1007,857 940,816 854,795C951,772 1027,728 1082,662C1136,596 1163,515 1163,420C1163,275 1119,164 1031,87C942,10 816,-29 651,-29C486,-29 360,10 272,87C183,164 139,275 139,420C139,515 166,596 221,662C276,728 352,772 449,795M375,1114C375,1037 399,976 448,933C496,890 564,868 651,868C738,868 806,890 855,933C904,976 928,1037 928,1114C928,1191 904,1252 855,1295C806,1338 738,1360 651,1360C564,1360 496,1338 448,1295C399,1252 375,1191 375,1114z"/>
<glyph unicode="9" horiz-adv-x="1303" d="M225,31l0,184C276,191 327,173 379,160C431,147 482,141 532,141C665,141 767,186 838,276C908,365 948,501 958,684C919,627 870,583 811,552C752,521 686,506 614,506C465,506 347,551 260,642C173,732 129,855 129,1012C129,1165 174,1288 265,1381C356,1474 476,1520 627,1520C800,1520 932,1454 1023,1322C1114,1189 1159,997 1159,745C1159,510 1103,322 992,182C880,41 730,-29 541,-29C490,-29 439,-24 387,-14C335,-4 281,11 225,31M627,664C718,664 790,695 843,757C896,819 922,904 922,1012C922,1119 896,1204 843,1267C790,1329 718,1360 627,1360C536,1360 465,1329 412,1267C359,1204 332,1119 332,1012C332,904 359,819 412,757C465,695 536,664 627,664z"/>
<glyph unicode=":" horiz-adv-x="690" d="M240,254l211,0l0,-254l-211,0M240,1059l211,0l0,-254l-211,0z"/>
<glyph unicode=";" horiz-adv-x="690" d="M240,1059l211,0l0,-254l-211,0M240,254l211,0l0,-172l-164,-320l-129,0l82,320z"/>
<glyph unicode="&lt;" horiz-adv-x="1716" d="M1499,1008l-1032,-367l1032,-365l0,-182l-1282,465l0,166l1282,465z"/>
<glyph unicode="=" horiz-adv-x="1716" d="M217,930l1282,0l0,-168l-1282,0M217,522l1282,0l0,-170l-1282,0z"/>
<glyph unicode="&gt;" horiz-adv-x="1716" d="M217,1008l0,182l1282,-465l0,-166l-1282,-465l0,182l1030,365z"/>
<glyph unicode="?" horiz-adv-x="1087" d="M391,254l203,0l0,-254l-203,0M588,401l-191,0l0,154C397,622 406,678 425,721C444,764 483,815 543,872l90,89C671,996 699,1030 716,1061C733,1092 741,1124 741,1157C741,1216 719,1264 676,1301C632,1338 574,1356 502,1356C449,1356 393,1344 334,1321C274,1298 212,1264 147,1219l0,188C210,1445 273,1473 338,1492C402,1511 468,1520 537,1520C660,1520 758,1488 833,1423C907,1358 944,1273 944,1167C944,1116 932,1068 908,1023C884,977 842,925 782,868l-88,-86C663,751 641,726 628,709C615,691 605,674 600,657C596,643 593,626 591,606C589,586 588,559 588,524z"/>
<glyph unicode="@" horiz-adv-x="2048" d="M762,537C762,442 786,367 833,313C880,258 945,231 1028,231C1110,231 1175,258 1222,313C1269,368 1292,442 1292,537C1292,630 1268,705 1220,760C1172,815 1107,842 1026,842C945,842 881,815 834,760C786,705 762,631 762,537M1307,238C1267,187 1221,149 1170,125C1118,100 1058,88 989,88C874,88 781,130 710,213C638,296 602,404 602,537C602,670 638,779 710,862C782,945 875,987 989,987C1058,987 1118,975 1170,950C1222,925 1268,887 1307,836l0,131l143,0l0,-736C1547,246 1624,290 1679,365C1734,439 1761,535 1761,653C1761,724 1751,791 1730,854C1709,917 1677,975 1634,1028C1565,1115 1480,1182 1381,1229C1281,1275 1172,1298 1055,1298C973,1298 894,1287 819,1266C744,1244 674,1212 610,1169C505,1101 424,1012 365,902C306,791 276,672 276,543C276,437 295,338 334,245C372,152 427,71 500,0C570,-69 651,-122 743,-158C835,-195 933,-213 1038,-213C1124,-213 1209,-198 1292,-169C1375,-140 1451,-99 1520,-45l90,-111C1527,-221 1436,-270 1338,-304C1239,-339 1139,-356 1038,-356C915,-356 798,-334 689,-290C580,-247 482,-183 397,-100C312,-17 247,80 202,190C157,299 135,417 135,543C135,664 158,780 203,890C248,1000 313,1097 397,1180C483,1265 582,1330 695,1375C808,1420 927,1442 1053,1442C1194,1442 1326,1413 1447,1355C1568,1297 1669,1215 1751,1108C1801,1043 1839,972 1866,895C1892,818 1905,739 1905,657C1905,482 1852,343 1746,242C1640,141 1494,88 1307,84z"/>
<glyph unicode="A" horiz-adv-x="1401" d="M700,1294l-274,-743l549,0M586,1493l229,0l569,-1493l-210,0l-136,383l-673,0l-136,-383l-213,0z"/>
<glyph unicode="B" horiz-adv-x="1405" d="M403,713l0,-547l324,0C836,166 916,189 969,234C1021,279 1047,347 1047,440C1047,533 1021,602 969,647C916,691 836,713 727,713M403,1327l0,-450l299,0C801,877 874,896 923,933C971,970 995,1026 995,1102C995,1177 971,1234 923,1271C874,1308 801,1327 702,1327M201,1493l516,0C871,1493 990,1461 1073,1397C1156,1333 1198,1242 1198,1124C1198,1033 1177,960 1134,906C1091,852 1029,818 946,805C1045,784 1123,739 1178,672C1233,604 1260,519 1260,418C1260,285 1215,182 1124,109C1033,36 904,0 737,0l-536,0z"/>
<glyph unicode="C" horiz-adv-x="1430" d="M1319,1378l0,-213C1251,1228 1179,1276 1102,1307C1025,1338 943,1354 856,1354C685,1354 555,1302 464,1198C373,1093 328,942 328,745C328,548 373,398 464,294C555,189 685,137 856,137C943,137 1025,153 1102,184C1179,215 1251,263 1319,326l0,-211C1248,67 1174,31 1095,7C1016,-17 932,-29 844,-29C618,-29 440,40 310,179C180,317 115,506 115,745C115,985 180,1174 310,1313C440,1451 618,1520 844,1520C933,1520 1018,1508 1097,1485C1176,1461 1250,1425 1319,1378z"/>
<glyph unicode="D" horiz-adv-x="1577" d="M403,1327l0,-1161l244,0C853,166 1004,213 1100,306C1195,399 1243,547 1243,748C1243,948 1195,1095 1100,1188C1004,1281 853,1327 647,1327M201,1493l415,0C905,1493 1118,1433 1253,1313C1388,1192 1456,1004 1456,748C1456,491 1388,302 1252,181C1116,60 904,0 616,0l-415,0z"/>
<glyph unicode="E" horiz-adv-x="1294" d="M201,1493l944,0l0,-170l-742,0l0,-442l711,0l0,-170l-711,0l0,-541l760,0l0,-170l-962,0z"/>
<glyph unicode="F" horiz-adv-x="1178" d="M201,1493l858,0l0,-170l-656,0l0,-440l592,0l0,-170l-592,0l0,-713l-202,0z"/>
<glyph unicode="G" horiz-adv-x="1587" d="M1219,213l0,401l-330,0l0,166l530,0l0,-641C1341,84 1255,42 1161,14C1067,-15 967,-29 860,-29C627,-29 444,39 313,176C181,312 115,502 115,745C115,989 181,1179 313,1316C444,1452 627,1520 860,1520C957,1520 1050,1508 1138,1484C1225,1460 1306,1425 1380,1378l0,-215C1305,1226 1226,1274 1142,1306C1058,1338 970,1354 877,1354C694,1354 557,1303 466,1201C374,1099 328,947 328,745C328,544 374,392 466,290C557,188 694,137 877,137C948,137 1012,143 1068,156C1124,168 1174,187 1219,213z"/>
<glyph unicode="H" horiz-adv-x="1540" d="M201,1493l202,0l0,-612l734,0l0,612l202,0l0,-1493l-202,0l0,711l-734,0l0,-711l-202,0z"/>
<glyph unicode="I" horiz-adv-x="604" d="M201,1493l202,0l0,-1493l-202,0z"/>
<glyph unicode="J" horiz-adv-x="604" d="M201,1493l202,0l0,-1389C403,-76 369,-207 301,-288C232,-369 122,-410 -29,-410l-77,0l0,170l63,0C46,-240 109,-215 146,-165C183,-115 201,-25 201,104z"/>
<glyph unicode="K" horiz-adv-x="1343" d="M201,1493l202,0l0,-631l670,631l260,0l-741,-696l794,-797l-266,0l-717,719l0,-719l-202,0z"/>
<glyph unicode="L" horiz-adv-x="1141" d="M201,1493l202,0l0,-1323l727,0l0,-170l-929,0z"/>
<glyph unicode="M" horiz-adv-x="1767" d="M201,1493l301,0l381,-1016l383,1016l301,0l0,-1493l-197,0l0,1311l-385,-1024l-203,0l-385,1024l0,-1311l-196,0z"/>
<glyph unicode="N" horiz-adv-x="1532" d="M201,1493l272,0l662,-1249l0,1249l196,0l0,-1493l-272,0l-662,1249l0,-1249l-196,0z"/>
<glyph unicode="O" horiz-adv-x="1612" d="M807,1356C660,1356 544,1301 458,1192C371,1083 328,934 328,745C328,557 371,408 458,299C544,190 660,135 807,135C954,135 1070,190 1156,299C1241,408 1284,557 1284,745C1284,934 1241,1083 1156,1192C1070,1301 954,1356 807,1356M807,1520C1016,1520 1184,1450 1309,1310C1434,1169 1497,981 1497,745C1497,510 1434,322 1309,182C1184,41 1016,-29 807,-29C597,-29 429,41 304,181C178,321 115,509 115,745C115,981 178,1169 304,1310C429,1450 597,1520 807,1520z"/>
<glyph unicode="P" horiz-adv-x="1235" d="M403,1327l0,-561l254,0C751,766 824,790 875,839C926,888 952,957 952,1047C952,1136 926,1205 875,1254C824,1303 751,1327 657,1327M201,1493l456,0C824,1493 951,1455 1037,1380C1122,1304 1165,1193 1165,1047C1165,900 1122,788 1037,713C951,638 824,600 657,600l-254,0l0,-600l-202,0z"/>
<glyph unicode="Q" horiz-adv-x="1612" d="M807,1356C660,1356 544,1301 458,1192C371,1083 328,934 328,745C328,557 371,408 458,299C544,190 660,135 807,135C954,135 1070,190 1156,299C1241,408 1284,557 1284,745C1284,934 1241,1083 1156,1192C1070,1301 954,1356 807,1356M1090,27l266,-291l-244,0l-221,239C869,-26 852,-27 841,-28C829,-29 818,-29 807,-29C597,-29 429,41 304,182C178,322 115,510 115,745C115,981 178,1169 304,1310C429,1450 597,1520 807,1520C1016,1520 1184,1450 1309,1310C1434,1169 1497,981 1497,745C1497,572 1462,423 1393,300C1323,177 1222,86 1090,27z"/>
<glyph unicode="R" horiz-adv-x="1423" d="M909,700C952,685 995,654 1036,606C1077,558 1118,492 1159,408l205,-408l-217,0l-191,383C907,483 859,549 813,582C766,615 703,631 623,631l-220,0l0,-631l-202,0l0,1493l456,0C828,1493 955,1457 1039,1386C1123,1315 1165,1207 1165,1063C1165,969 1143,891 1100,829C1056,767 992,724 909,700M403,1327l0,-530l254,0C754,797 828,820 878,865C927,910 952,976 952,1063C952,1150 927,1216 878,1261C828,1305 754,1327 657,1327z"/>
<glyph unicode="S" horiz-adv-x="1300" d="M1096,1444l0,-197C1019,1284 947,1311 879,1329C811,1347 745,1356 682,1356C572,1356 487,1335 428,1292C368,1249 338,1189 338,1110C338,1044 358,994 398,961C437,927 512,900 623,879l122,-25C896,825 1007,775 1079,703C1150,630 1186,533 1186,412C1186,267 1138,158 1041,83C944,8 801,-29 614,-29C543,-29 468,-21 389,-5C309,11 226,35 141,66l0,208C223,228 303,193 382,170C461,147 538,135 614,135C729,135 818,158 881,203C944,248 975,313 975,397C975,470 953,528 908,569C863,610 789,641 686,662l-123,24C412,716 303,763 236,827C169,891 135,980 135,1094C135,1226 182,1330 275,1406C368,1482 496,1520 659,1520C729,1520 800,1514 873,1501C946,1488 1020,1469 1096,1444z"/>
<glyph unicode="T" horiz-adv-x="1251" d="M-6,1493l1263,0l0,-170l-530,0l0,-1323l-203,0l0,1323l-530,0z"/>
<glyph unicode="U" horiz-adv-x="1499" d="M178,1493l203,0l0,-907C381,426 410,311 468,241C526,170 620,135 750,135C879,135 973,170 1031,241C1089,311 1118,426 1118,586l0,907l203,0l0,-932C1321,366 1273,219 1177,120C1080,21 938,-29 750,-29C561,-29 419,21 323,120C226,219 178,366 178,561z"/>
<glyph unicode="V" horiz-adv-x="1401" d="M586,0l-570,1493l211,0l473,-1257l474,1257l210,0l-569,-1493z"/>
<glyph unicode="W" horiz-adv-x="2025" d="M68,1493l204,0l314,-1262l313,1262l227,0l314,-1262l313,1262l205,0l-375,-1493l-254,0l-315,1296l-318,-1296l-254,0z"/>
<glyph unicode="X" horiz-adv-x="1403" d="M129,1493l217,0l371,-555l373,555l217,0l-480,-717l512,-776l-217,0l-420,635l-423,-635l-218,0l533,797z"/>
<glyph unicode="Y" horiz-adv-x="1251" d="M-4,1493l217,0l414,-614l411,614l217,0l-528,-782l0,-711l-203,0l0,711z"/>
<glyph unicode="Z" horiz-adv-x="1403" d="M115,1493l1173,0l0,-154l-944,-1169l967,0l0,-170l-1219,0l0,154l944,1169l-921,0z"/>
<glyph unicode="[" horiz-adv-x="799" d="M176,1556l424,0l0,-143l-240,0l0,-1540l240,0l0,-143l-424,0z"/>
<glyph unicode="\" horiz-adv-x="690" d="M170,1493l520,-1683l-170,0l-520,1683z"/>
<glyph unicode="]" horiz-adv-x="799" d="M623,1556l0,-1826l-424,0l0,143l239,0l0,1540l-239,0l0,143z"/>
<glyph unicode="^" horiz-adv-x="1716" d="M956,1493l543,-557l-201,0l-440,395l-440,-395l-201,0l543,557z"/>
<glyph unicode="_" horiz-adv-x="1024" d="M1044,-340l0,-143l-1064,0l0,143z"/>
<glyph unicode="`" horiz-adv-x="1024" d="M367,1638l282,-374l-153,0l-326,374z"/>
<glyph unicode="a" horiz-adv-x="1255" d="M702,563C553,563 450,546 393,512C336,478 307,420 307,338C307,273 329,221 372,183C415,144 473,125 547,125C649,125 731,161 793,234C854,306 885,402 885,522l0,41M1069,639l0,-639l-184,0l0,170C843,102 791,52 728,20C665,-13 589,-29 498,-29C383,-29 292,3 225,68C157,132 123,218 123,326C123,452 165,547 250,611C334,675 460,707 627,707l258,0l0,18C885,810 857,875 802,922C746,968 668,991 567,991C503,991 441,983 380,968C319,953 261,930 205,899l0,170C272,1095 338,1115 401,1128C464,1141 526,1147 586,1147C748,1147 869,1105 949,1021C1029,937 1069,810 1069,639z"/>
<glyph unicode="b" horiz-adv-x="1300" d="M997,559C997,694 969,801 914,878C858,955 781,993 684,993C587,993 510,955 455,878C399,801 371,694 371,559C371,424 399,318 455,241C510,164 587,125 684,125C781,125 858,164 914,241C969,318 997,424 997,559M371,950C410,1017 459,1066 518,1099C577,1131 647,1147 729,1147C865,1147 976,1093 1061,985C1146,877 1188,735 1188,559C1188,383 1146,241 1061,133C976,25 865,-29 729,-29C647,-29 577,-13 518,20C459,52 410,101 371,168l0,-168l-185,0l0,1556l185,0z"/>
<glyph unicode="c" horiz-adv-x="1126" d="M999,1077l0,-172C947,934 895,955 843,970C790,984 737,991 684,991C565,991 472,953 406,878C340,802 307,696 307,559C307,422 340,316 406,241C472,165 565,127 684,127C737,127 790,134 843,149C895,163 947,184 999,213l0,-170C948,19 895,1 840,-11C785,-23 726,-29 664,-29C495,-29 361,24 262,130C163,236 113,379 113,559C113,742 163,885 264,990C364,1095 501,1147 676,1147C733,1147 788,1141 842,1130C896,1118 948,1100 999,1077z"/>
<glyph unicode="d" horiz-adv-x="1300" d="M930,950l0,606l184,0l0,-1556l-184,0l0,168C891,101 843,52 784,20C725,-13 654,-29 571,-29C436,-29 326,25 241,133C156,241 113,383 113,559C113,735 156,877 241,985C326,1093 436,1147 571,1147C654,1147 725,1131 784,1099C843,1066 891,1017 930,950M303,559C303,424 331,318 387,241C442,164 519,125 616,125C713,125 790,164 846,241C902,318 930,424 930,559C930,694 902,801 846,878C790,955 713,993 616,993C519,993 442,955 387,878C331,801 303,694 303,559z"/>
<glyph unicode="e" horiz-adv-x="1260" d="M1151,606l0,-90l-846,0C313,389 351,293 420,227C488,160 583,127 705,127C776,127 844,136 911,153C977,170 1043,196 1108,231l0,-174C1042,29 974,8 905,-7C836,-22 765,-29 694,-29C515,-29 374,23 270,127C165,231 113,372 113,549C113,732 163,878 262,986C361,1093 494,1147 662,1147C813,1147 932,1099 1020,1002C1107,905 1151,773 1151,606M967,660C966,761 938,841 883,901C828,961 755,991 664,991C561,991 479,962 418,904C356,846 320,764 311,659z"/>
<glyph unicode="f" horiz-adv-x="721" d="M760,1556l0,-153l-176,0C518,1403 472,1390 447,1363C421,1336 408,1288 408,1219l0,-99l303,0l0,-143l-303,0l0,-977l-185,0l0,977l-176,0l0,143l176,0l0,78C223,1323 252,1414 310,1471C368,1528 460,1556 586,1556z"/>
<glyph unicode="g" horiz-adv-x="1300" d="M930,573C930,706 903,810 848,883C793,956 715,993 616,993C517,993 441,956 386,883C331,810 303,706 303,573C303,440 331,337 386,264C441,191 517,154 616,154C715,154 793,191 848,264C903,337 930,440 930,573M1114,139C1114,-52 1072,-193 987,-286C902,-379 773,-426 598,-426C533,-426 472,-421 415,-411C358,-402 302,-387 248,-367l0,179C302,-217 355,-239 408,-253C461,-267 514,-274 569,-274C690,-274 780,-242 840,-179C900,-116 930,-21 930,106l0,91C892,131 843,82 784,49C725,16 654,0 571,0C434,0 323,52 239,157C155,262 113,400 113,573C113,746 155,885 239,990C323,1095 434,1147 571,1147C654,1147 725,1131 784,1098C843,1065 892,1016 930,950l0,170l184,0z"/>
<glyph unicode="h" horiz-adv-x="1298" d="M1124,676l0,-676l-184,0l0,670C940,776 919,855 878,908C837,961 775,987 692,987C593,987 514,955 457,892C400,829 371,742 371,633l0,-633l-185,0l0,1556l185,0l0,-610C415,1013 467,1064 527,1097C586,1130 655,1147 733,1147C862,1147 959,1107 1025,1028C1091,948 1124,831 1124,676z"/>
<glyph unicode="i" horiz-adv-x="569" d="M193,1120l184,0l0,-1120l-184,0M193,1556l184,0l0,-233l-184,0z"/>
<glyph unicode="j" horiz-adv-x="569" d="M193,1120l184,0l0,-1140C377,-163 350,-266 296,-330C241,-394 154,-426 33,-426l-70,0l0,156l49,0C82,-270 130,-254 155,-221C180,-189 193,-122 193,-20M193,1556l184,0l0,-233l-184,0z"/>
<glyph unicode="k" horiz-adv-x="1186" d="M186,1556l185,0l0,-919l549,483l235,0l-594,-524l619,-596l-240,0l-569,547l0,-547l-185,0z"/>
<glyph unicode="l" horiz-adv-x="569" d="M193,1556l184,0l0,-1556l-184,0z"/>
<glyph unicode="m" horiz-adv-x="1995" d="M1065,905C1111,988 1166,1049 1230,1088C1294,1127 1369,1147 1456,1147C1573,1147 1663,1106 1726,1025C1789,943 1821,827 1821,676l0,-676l-185,0l0,670C1636,777 1617,857 1579,909C1541,961 1483,987 1405,987C1310,987 1234,955 1179,892C1124,829 1096,742 1096,633l0,-633l-185,0l0,670C911,778 892,858 854,910C816,961 757,987 678,987C584,987 509,955 454,892C399,828 371,742 371,633l0,-633l-185,0l0,1120l185,0l0,-174C413,1015 463,1065 522,1098C581,1131 650,1147 731,1147C812,1147 882,1126 939,1085C996,1044 1038,984 1065,905z"/>
<glyph unicode="n" horiz-adv-x="1298" d="M1124,676l0,-676l-184,0l0,670C940,776 919,855 878,908C837,961 775,987 692,987C593,987 514,955 457,892C400,829 371,742 371,633l0,-633l-185,0l0,1120l185,0l0,-174C415,1013 467,1064 527,1097C586,1130 655,1147 733,1147C862,1147 959,1107 1025,1028C1091,948 1124,831 1124,676z"/>
<glyph unicode="o" horiz-adv-x="1253" d="M627,991C528,991 450,953 393,876C336,799 307,693 307,559C307,425 336,320 393,243C450,166 528,127 627,127C725,127 803,166 860,243C917,320 946,426 946,559C946,692 917,797 860,875C803,952 725,991 627,991M627,1147C787,1147 913,1095 1004,991C1095,887 1141,743 1141,559C1141,376 1095,232 1004,128C913,23 787,-29 627,-29C466,-29 341,23 250,128C159,232 113,376 113,559C113,743 159,887 250,991C341,1095 466,1147 627,1147z"/>
<glyph unicode="p" horiz-adv-x="1300" d="M371,168l0,-594l-185,0l0,1546l185,0l0,-170C410,1017 459,1066 518,1099C577,1131 647,1147 729,1147C865,1147 976,1093 1061,985C1146,877 1188,735 1188,559C1188,383 1146,241 1061,133C976,25 865,-29 729,-29C647,-29 577,-13 518,20C459,52 410,101 371,168M997,559C997,694 969,801 914,878C858,955 781,993 684,993C587,993 510,955 455,878C399,801 371,694 371,559C371,424 399,318 455,241C510,164 587,125 684,125C781,125 858,164 914,241C969,318 997,424 997,559z"/>
<glyph unicode="q" horiz-adv-x="1300" d="M303,559C303,424 331,318 387,241C442,164 519,125 616,125C713,125 790,164 846,241C902,318 930,424 930,559C930,694 902,801 846,878C790,955 713,993 616,993C519,993 442,955 387,878C331,801 303,694 303,559M930,168C891,101 843,52 784,20C725,-13 654,-29 571,-29C436,-29 326,25 241,133C156,241 113,383 113,559C113,735 156,877 241,985C326,1093 436,1147 571,1147C654,1147 725,1131 784,1099C843,1066 891,1017 930,950l0,170l184,0l0,-1546l-184,0z"/>
<glyph unicode="r" horiz-adv-x="842" d="M842,948C821,960 799,969 775,975C750,980 723,983 694,983C590,983 510,949 455,882C399,814 371,717 371,590l0,-590l-185,0l0,1120l185,0l0,-174C410,1014 460,1065 522,1098C584,1131 659,1147 748,1147C761,1147 775,1146 790,1145C805,1143 822,1140 841,1137z"/>
<glyph unicode="s" horiz-adv-x="1067" d="M907,1087l0,-174C855,940 801,960 745,973C689,986 631,993 571,993C480,993 411,979 366,951C320,923 297,881 297,825C297,782 313,749 346,725C379,700 444,677 543,655l63,-14C737,613 830,574 885,523C940,472 967,400 967,309C967,205 926,123 844,62C761,1 648,-29 504,-29C444,-29 382,-23 317,-11C252,0 183,18 111,41l0,190C179,196 246,169 312,152C378,134 443,125 508,125C595,125 661,140 708,170C755,199 778,241 778,295C778,345 761,383 728,410C694,437 620,462 506,487l-64,15C328,526 246,563 195,613C144,662 119,730 119,817C119,922 156,1004 231,1061C306,1118 412,1147 549,1147C617,1147 681,1142 741,1132C801,1122 856,1107 907,1087z"/>
<glyph unicode="t" horiz-adv-x="803" d="M375,1438l0,-318l379,0l0,-143l-379,0l0,-608C375,278 388,219 413,193C438,167 488,154 565,154l189,0l0,-154l-189,0C423,0 325,27 271,80C217,133 190,229 190,369l0,608l-135,0l0,143l135,0l0,318z"/>
<glyph unicode="u" horiz-adv-x="1298" d="M174,442l0,678l184,0l0,-671C358,343 379,264 420,211C461,158 523,131 606,131C705,131 784,163 842,226C899,289 928,376 928,485l0,635l184,0l0,-1120l-184,0l0,172C883,104 832,54 773,21C714,-12 645,-29 567,-29C438,-29 341,11 274,91C207,171 174,288 174,442z"/>
<glyph unicode="v" horiz-adv-x="1212" d="M61,1120l195,0l350,-940l350,940l195,0l-420,-1120l-250,0z"/>
<glyph unicode="w" horiz-adv-x="1675" d="M86,1120l184,0l230,-874l229,874l217,0l230,-874l229,874l184,0l-293,-1120l-217,0l-241,918l-242,-918l-217,0z"/>
<glyph unicode="x" horiz-adv-x="1212" d="M1124,1120l-405,-545l426,-575l-217,0l-326,440l-326,-440l-217,0l435,586l-398,534l217,0l297,-399l297,399z"/>
<glyph unicode="y" horiz-adv-x="1212" d="M659,-104C607,-237 556,-324 507,-365C458,-406 392,-426 309,-426l-147,0l0,154l108,0C321,-272 360,-260 388,-236C416,-212 447,-155 481,-66l33,84l-453,1102l195,0l350,-876l350,876l195,0z"/>
<glyph unicode="z" horiz-adv-x="1075" d="M113,1120l874,0l0,-168l-692,-805l692,0l0,-147l-899,0l0,168l692,805l-667,0z"/>
<glyph unicode="{" horiz-adv-x="1303" d="M1047,-190l0,-144l-62,0C819,-334 708,-309 652,-260C595,-211 567,-112 567,35l0,239C567,375 549,444 513,483C477,522 412,541 317,541l-61,0l0,143l61,0C412,684 478,703 514,742C549,780 567,849 567,948l0,240C567,1335 595,1434 652,1483C708,1532 819,1556 985,1556l62,0l0,-143l-68,0C885,1413 824,1398 795,1369C766,1340 752,1278 752,1184l0,-248C752,831 737,755 707,708C676,661 624,629 551,612C625,594 677,561 707,514C737,467 752,391 752,287l0,-248C752,-55 766,-117 795,-146C824,-175 885,-190 979,-190z"/>
<glyph unicode="|" horiz-adv-x="690" d="M430,1565l0,-2048l-170,0l0,2048z"/>
<glyph unicode="}" horiz-adv-x="1303" d="M256,-190l70,0C419,-190 480,-176 509,-147C537,-118 551,-56 551,39l0,248C551,391 566,467 596,514C626,561 678,594 752,612C678,629 626,661 596,708C566,755 551,831 551,936l0,248C551,1279 537,1341 509,1370C480,1399 419,1413 326,1413l-70,0l0,143l63,0C485,1556 596,1532 652,1483C707,1434 735,1335 735,1188l0,-240C735,849 753,780 789,742C825,703 890,684 985,684l62,0l0,-143l-62,0C890,541 825,522 789,483C753,444 735,375 735,274l0,-239C735,-112 707,-211 652,-260C596,-309 485,-334 319,-334l-63,0z"/>
<glyph unicode="~" horiz-adv-x="1716" d="M1499,817l0,-178C1429,586 1364,549 1305,526C1245,503 1183,492 1118,492C1045,492 959,512 862,551C855,554 849,556 846,557C841,559 834,562 824,565C721,606 638,627 575,627C516,627 458,614 401,589C344,563 282,522 217,467l0,178C287,698 352,736 412,759C471,782 533,793 598,793C671,793 757,773 855,733C862,730 867,728 870,727C875,725 883,722 892,719C995,678 1078,657 1141,657C1198,657 1255,670 1312,695C1368,720 1430,761 1499,817z"/>
<glyph unicode=" " horiz-adv-x="651"/>
<glyph unicode="¡" horiz-adv-x="821" d="M512,866l-203,0l0,254l203,0M512,-373l-203,0l0,655l21,357l162,0l20,-357z"/>
<glyph unicode="¢" horiz-adv-x="1303" d="M678,131l0,856C580,975 504,931 449,856C394,781 367,682 367,559C367,436 394,336 449,261C504,186 580,142 678,131M1059,1077l0,-172C1010,932 962,953 917,967C872,981 826,989 781,991l-1,-864C827,130 873,139 919,153C964,167 1011,187 1059,213l0,-170C1016,23 971,7 926,-4C880,-16 831,-24 780,-29l0,-284l-102,0l0,288C517,-12 393,46 305,149C216,251 172,388 172,559C172,731 216,868 305,970C393,1072 517,1130 678,1145l0,287l102,0l1,-287C830,1142 877,1136 923,1125C968,1114 1014,1098 1059,1077z"/>
<glyph unicode="£" horiz-adv-x="1303" d="M1102,1460l0,-182C1051,1305 1003,1326 958,1340C913,1353 870,1360 829,1360C730,1360 662,1334 623,1283C584,1231 565,1134 565,993l0,-215l391,0l0,-143l-391,0l0,-465l557,0l0,-170l-993,0l0,170l236,0l0,465l-199,0l0,143l199,0l0,238C365,1190 401,1318 472,1399C543,1480 656,1520 811,1520C852,1520 897,1515 948,1505C998,1494 1049,1479 1102,1460z"/>
<glyph unicode="¥" horiz-adv-x="1303" d="M1165,455l-413,0l0,-455l-201,0l0,455l-416,0l0,123l416,0l0,51l-84,155l-332,0l0,123l264,0l-317,586l190,0l379,-700l377,700l191,0l-318,-586l264,0l0,-123l-331,0l-84,-155l0,-51l415,0z"/>
<glyph unicode="¦" horiz-adv-x="690" d="M430,408l0,-758l-170,0l0,758M430,1432l0,-758l-170,0l0,758z"/>
<glyph unicode="©" horiz-adv-x="2048" d="M1024,1485C1125,1485 1220,1467 1308,1430C1395,1393 1475,1339 1548,1266C1621,1193 1675,1113 1711,1026C1747,939 1765,844 1765,741C1765,640 1747,546 1711,459C1675,372 1621,292 1548,219C1475,146 1395,92 1308,55C1220,18 1125,0 1024,0C923,0 828,18 741,55C653,92 573,146 500,219C427,292 373,372 337,459C301,546 283,640 283,741C283,844 301,939 337,1026C373,1113 427,1193 500,1266C573,1339 653,1393 741,1430C828,1467 923,1485 1024,1485M1024,1382C937,1382 855,1366 780,1335C705,1304 636,1257 573,1194C510,1131 463,1062 431,986C399,909 383,828 383,741C383,655 399,574 431,499C463,423 510,354 573,291C636,228 705,181 780,150C855,118 937,102 1024,102C1112,102 1194,118 1270,150C1345,181 1414,228 1477,291C1539,353 1586,422 1617,497C1648,572 1663,654 1663,741C1663,830 1647,912 1616,988C1585,1063 1538,1132 1477,1194C1414,1257 1345,1304 1270,1335C1194,1366 1112,1382 1024,1382M1323,1137l0,-129C1279,1030 1235,1046 1192,1057C1149,1068 1105,1073 1061,1073C962,1073 884,1044 829,986C773,927 745,846 745,741C745,635 774,553 831,495C888,437 968,408 1071,408C1114,408 1155,413 1196,424C1237,434 1279,450 1323,473l0,-127C1278,327 1233,312 1188,303C1142,294 1096,289 1049,289C905,289 791,330 708,411C624,492 582,602 582,741C582,880 624,990 708,1071C791,1152 905,1192 1049,1192C1098,1192 1145,1187 1190,1178C1235,1169 1280,1155 1323,1137z"/>
<glyph unicode="«" horiz-adv-x="1253" d="M1061,1059l0,-191l-301,-268l301,-268l0,-191l-469,418l0,82M627,1059l0,-191l-301,-268l301,-268l0,-191l-469,418l0,82z"/>
<glyph unicode="­" horiz-adv-x="739" d="M100,643l539,0l0,-164l-539,0z"/>
<glyph unicode="®" horiz-adv-x="2048" d="M1024,1382C937,1382 855,1366 780,1335C705,1304 636,1257 573,1194C510,1131 463,1062 431,986C399,909 383,828 383,741C383,655 399,574 431,499C463,423 510,354 573,291C636,228 705,181 780,150C855,118 937,102 1024,102C1112,102 1194,118 1270,150C1345,181 1414,228 1477,291C1539,353 1586,422 1617,497C1648,572 1663,654 1663,741C1663,830 1647,912 1616,988C1585,1063 1538,1132 1477,1194C1414,1257 1345,1304 1270,1335C1194,1366 1112,1382 1024,1382M1024,1485C1125,1485 1220,1467 1308,1430C1395,1393 1475,1339 1548,1266C1621,1193 1675,1113 1711,1026C1747,939 1765,844 1765,741C1765,640 1747,546 1711,459C1675,372 1621,292 1548,219C1475,146 1395,92 1308,55C1220,18 1125,0 1024,0C923,0 828,18 741,55C653,92 573,146 500,219C427,292 373,372 337,459C301,546 283,640 283,741C283,844 301,939 337,1026C373,1113 427,1193 500,1266C573,1339 653,1393 741,1430C828,1467 923,1485 1024,1485M997,1071l-123,0l0,-276l123,0C1070,795 1122,805 1151,826C1180,847 1194,882 1194,932C1194,983 1179,1019 1150,1040C1121,1061 1070,1071 997,1071M1004,1174C1121,1174 1209,1154 1267,1115C1325,1075 1354,1015 1354,934C1354,877 1337,829 1302,792C1267,755 1217,730 1153,719C1169,714 1188,698 1211,673C1233,647 1259,610 1290,561l137,-223l-172,0l-129,209C1087,611 1055,652 1031,669C1006,686 976,694 940,694l-66,0l0,-356l-155,0l0,836z"/>
<glyph unicode="°" horiz-adv-x="1024" d="M512,1391C459,1391 414,1373 377,1336C340,1299 322,1253 322,1200C322,1147 340,1103 377,1067C414,1030 459,1012 512,1012C565,1012 610,1030 647,1067C684,1103 702,1147 702,1200C702,1253 684,1298 647,1335C610,1372 565,1391 512,1391M512,1520C555,1520 596,1512 635,1496C674,1479 708,1456 737,1425C768,1395 791,1361 806,1323C821,1285 829,1244 829,1200C829,1112 798,1038 737,977C675,916 599,885 510,885C420,885 345,915 285,975C225,1035 195,1110 195,1200C195,1289 226,1365 287,1427C348,1489 423,1520 512,1520z"/>
<glyph unicode="±" horiz-adv-x="1716" d="M942,1284l0,-387l557,0l0,-170l-557,0l0,-387l-168,0l0,387l-557,0l0,170l557,0l0,387M217,170l1282,0l0,-170l-1282,0z"/>
<glyph unicode="²" horiz-adv-x="821" d="M268,782l424,0l0,-114l-598,0l0,110C117,799 149,828 191,865C420,1068 535,1201 535,1264C535,1308 518,1344 483,1371C448,1398 403,1411 346,1411C311,1411 274,1405 233,1394C192,1382 148,1364 100,1341l0,123C151,1483 199,1497 244,1506C288,1515 329,1520 367,1520C464,1520 541,1498 599,1454C657,1410 686,1352 686,1280C686,1187 576,1046 355,857C318,825 289,800 268,782z"/>
<glyph unicode="³" horiz-adv-x="821" d="M524,1120C585,1108 633,1084 667,1048C700,1011 717,966 717,911C717,828 685,765 622,720C559,675 468,653 350,653C312,653 272,657 231,664C189,671 145,681 98,694l0,121C133,797 170,784 210,775C249,766 291,762 336,762C409,762 465,775 505,802C545,828 565,864 565,911C565,960 547,998 510,1023C473,1048 418,1061 346,1061l-86,0l0,108l94,0C417,1169 464,1180 497,1201C529,1222 545,1252 545,1292C545,1331 528,1360 495,1381C462,1401 413,1411 350,1411C323,1411 293,1408 259,1402C225,1396 181,1385 127,1370l0,115C176,1496 221,1505 264,1511C307,1517 346,1520 383,1520C479,1520 555,1500 612,1461C668,1422 696,1369 696,1303C696,1257 681,1218 651,1186C621,1154 579,1132 524,1120z"/>
<glyph unicode="´" horiz-adv-x="1024" d="M651,1638l199,0l-326,-376l-153,0z"/>
<glyph unicode="µ" horiz-adv-x="1303" d="M174,-426l0,1546l184,0l0,-696C358,327 381,254 427,205C473,156 541,131 631,131C730,131 804,159 854,215C903,271 928,355 928,467l0,653l184,0l0,-862C1112,218 1118,189 1130,170C1141,151 1159,141 1184,141C1190,141 1198,143 1209,147C1220,150 1234,156 1253,164l0,-148C1226,1 1200,-11 1176,-18C1151,-25 1127,-29 1104,-29C1058,-29 1021,-16 994,10C967,36 948,76 938,129C905,76 864,37 816,11C767,-16 710,-29 645,-29C577,-29 519,-16 472,10C424,36 386,75 358,127l0,-553z"/>
<glyph unicode="¶" horiz-adv-x="1303" d="M633,1493l448,0l0,-1690l-141,0l0,1567l-190,0l0,-1567l-142,0l0,846C465,660 354,703 276,777C197,850 158,948 158,1071C158,1198 201,1300 288,1377C375,1454 490,1493 633,1493z"/>
<glyph unicode="·" horiz-adv-x="651" d="M219,838l211,0l0,-254l-211,0z"/>
<glyph unicode="¹" horiz-adv-x="821" d="M156,778l204,0l0,611l-223,-41l0,116l230,39l137,0l0,-725l205,0l0,-110l-553,0z"/>
<glyph unicode="»" horiz-adv-x="1253" d="M193,1059l469,-418l0,-82l-469,-418l0,191l301,268l-301,268M627,1059l469,-418l0,-82l-469,-418l0,191l301,268l-301,268z"/>
<glyph unicode="¼" horiz-adv-x="1985" d="M156,778l204,0l0,611l-223,-41l0,116l230,39l137,0l0,-725l205,0l0,-110l-553,0M1640,714l-309,-419l309,0M1618,835l166,0l0,-540l135,0l0,-109l-135,0l0,-186l-144,0l0,186l-414,0l0,121M1378,1520l160,0l-932,-1549l-160,0z"/>
<glyph unicode="½" horiz-adv-x="1985" d="M156,778l204,0l0,611l-223,-41l0,116l230,39l137,0l0,-725l205,0l0,-110l-553,0M1431,114l424,0l0,-114l-598,0l0,110C1280,131 1312,160 1354,197C1583,400 1698,533 1698,596C1698,640 1681,676 1646,703C1611,730 1566,743 1509,743C1474,743 1437,737 1396,726C1355,714 1311,696 1263,673l0,123C1314,815 1362,829 1407,838C1451,847 1492,852 1530,852C1627,852 1704,830 1762,786C1820,742 1849,684 1849,612C1849,519 1739,378 1518,189C1481,157 1452,132 1431,114M1378,1520l160,0l-932,-1549l-160,0z"/>
<glyph unicode="¾" horiz-adv-x="1985" d="M524,1120C585,1108 633,1084 667,1048C700,1011 717,966 717,911C717,828 685,765 622,720C559,675 468,653 350,653C312,653 272,657 231,664C189,671 145,681 98,694l0,121C133,797 170,784 210,775C249,766 291,762 336,762C409,762 465,775 505,802C545,828 565,864 565,911C565,960 547,998 510,1023C473,1048 418,1061 346,1061l-86,0l0,108l94,0C417,1169 464,1180 497,1201C529,1222 545,1252 545,1292C545,1331 528,1360 495,1381C462,1401 413,1411 350,1411C323,1411 293,1408 259,1402C225,1396 181,1385 127,1370l0,115C176,1496 221,1505 264,1511C307,1517 346,1520 383,1520C479,1520 555,1500 612,1461C668,1422 696,1369 696,1303C696,1257 681,1218 651,1186C621,1154 579,1132 524,1120M1640,714l-309,-419l309,0M1618,835l166,0l0,-540l135,0l0,-109l-135,0l0,-186l-144,0l0,186l-414,0l0,121M1378,1520l160,0l-932,-1549l-160,0z"/>
<glyph unicode="¿" horiz-adv-x="1087" d="M500,719l190,0l0,-156C690,496 681,440 663,397C644,354 605,303 545,245l-90,-88C416,122 389,88 372,57C355,26 346,-6 346,-39C346,-98 368,-146 412,-183C455,-220 513,-238 586,-238C638,-238 694,-226 754,-203C814,-180 876,-146 940,-101l0,-188C877,-327 814,-355 750,-374C686,-393 620,-402 551,-402C428,-402 330,-370 255,-305C180,-240 143,-155 143,-49C143,2 155,50 180,96C204,141 246,193 305,250l88,86C425,367 447,392 460,410C473,427 482,444 487,461C492,475 495,492 497,512C499,532 500,560 500,596M696,866l-202,0l0,254l202,0z"/>
<glyph unicode="À" horiz-adv-x="1401" d="M700,1294l-274,-743l549,0M586,1493l229,0l569,-1493l-210,0l-136,383l-673,0l-136,-383l-213,0M643,1899l196,-264l-153,0l-230,264z"/>
<glyph unicode="Á" horiz-adv-x="1401" d="M700,1294l-274,-743l549,0M586,1493l229,0l569,-1493l-210,0l-136,383l-673,0l-136,-383l-213,0M755,1899l185,0l-228,-264l-153,0z"/>
<glyph unicode="Â" horiz-adv-x="1401" d="M700,1294l-274,-743l549,0M586,1493l229,0l569,-1493l-210,0l-136,383l-673,0l-136,-383l-213,0M606,1901l188,0l211,-266l-139,0l-166,178l-166,-178l-139,0z"/>
<glyph unicode="Ã" horiz-adv-x="1401" d="M700,1294l-274,-743l549,0M586,1493l229,0l569,-1493l-210,0l-136,383l-673,0l-136,-383l-213,0M696,1710l-57,33C622,1752 609,1759 599,1763C588,1766 579,1768 571,1768C547,1768 528,1760 515,1743C502,1726 495,1703 495,1673l0,-6l-125,0C370,1734 387,1788 422,1827C456,1866 502,1886 559,1886C583,1886 605,1883 626,1878C646,1873 672,1861 704,1843l57,-30C776,1804 790,1798 801,1794C812,1790 823,1788 833,1788C854,1788 872,1797 885,1814C898,1831 905,1853 905,1880l0,6l125,0C1029,1819 1011,1766 977,1727C942,1687 897,1667 841,1667C818,1667 797,1670 778,1675C758,1680 731,1692 696,1710z"/>
<glyph unicode="Ä" horiz-adv-x="1401" d="M700,1294l-274,-743l549,0M586,1493l229,0l569,-1493l-210,0l-136,383l-673,0l-136,-383l-213,0M794,1870l203,0l0,-203l-203,0M403,1870l203,0l0,-203l-203,0z"/>
<glyph unicode="Å" horiz-adv-x="1401" d="M852,1626C852,1668 837,1704 808,1734C778,1763 742,1778 700,1778C657,1778 622,1764 593,1735C564,1706 549,1669 549,1626C549,1584 564,1548 593,1519C622,1490 658,1475 700,1475C742,1475 778,1490 808,1519C837,1548 852,1584 852,1626M700,1294l-272,-743l545,0M549,1397C508,1424 478,1457 457,1496C436,1534 426,1577 426,1626C426,1703 453,1768 506,1821C559,1874 623,1901 700,1901C776,1901 841,1874 895,1821C948,1767 975,1702 975,1626C975,1579 965,1536 944,1497C923,1458 892,1424 852,1397l532,-1397l-210,0l-136,383l-673,0l-136,-383l-213,0z"/>
<glyph unicode="Æ" horiz-adv-x="1995" d="M1845,1493l0,-170l-741,0l0,-442l711,0l0,-170l-711,0l0,-541l760,0l0,-170l-963,0l0,383l-528,0l-160,-383l-205,0l625,1493M772,1335l-330,-784l459,0l0,784z"/>
<glyph unicode="Ç" horiz-adv-x="1430" d="M1319,1378l0,-213C1251,1228 1179,1276 1102,1307C1025,1338 943,1354 856,1354C685,1354 555,1302 464,1198C373,1093 328,942 328,745C328,548 373,398 464,294C555,189 685,137 856,137C943,137 1025,153 1102,184C1179,215 1251,263 1319,326l0,-211C1248,67 1174,31 1095,7C1016,-17 932,-29 844,-29C618,-29 440,40 310,179C180,317 115,506 115,745C115,985 180,1174 310,1313C440,1451 618,1520 844,1520C933,1520 1018,1508 1097,1485C1176,1461 1250,1425 1319,1378M897,0C934,-41 961,-79 979,-114C997,-149 1006,-183 1006,-215C1006,-274 986,-319 946,-349C906,-380 847,-395 768,-395C737,-395 708,-393 679,-389C650,-385 621,-379 592,-371l0,131C615,-251 638,-259 663,-264C688,-269 716,-272 747,-272C786,-272 816,-264 836,-248C856,-232 866,-209 866,-178C866,-158 859,-133 845,-104C830,-75 808,-41 778,0z"/>
<glyph unicode="È" horiz-adv-x="1294" d="M201,1493l944,0l0,-170l-742,0l0,-442l711,0l0,-170l-711,0l0,-541l760,0l0,-170l-962,0M613,1899l196,-264l-153,0l-230,264z"/>
<glyph unicode="É" horiz-adv-x="1294" d="M201,1493l944,0l0,-170l-742,0l0,-442l711,0l0,-170l-711,0l0,-541l760,0l0,-170l-962,0M725,1899l185,0l-228,-264l-153,0z"/>
<glyph unicode="Ê" horiz-adv-x="1294" d="M201,1493l944,0l0,-170l-742,0l0,-442l711,0l0,-170l-711,0l0,-541l760,0l0,-170l-962,0M576,1901l188,0l211,-266l-139,0l-166,178l-166,-178l-139,0z"/>
<glyph unicode="Ë" horiz-adv-x="1294" d="M201,1493l944,0l0,-170l-742,0l0,-442l711,0l0,-170l-711,0l0,-541l760,0l0,-170l-962,0M764,1870l203,0l0,-203l-203,0M373,1870l203,0l0,-203l-203,0z"/>
<glyph unicode="Ì" horiz-adv-x="604" d="M201,1493l202,0l0,-1493l-202,0M246,1899l196,-264l-153,0l-230,264z"/>
<glyph unicode="Í" horiz-adv-x="604" d="M201,1493l202,0l0,-1493l-202,0M358,1899l185,0l-228,-264l-153,0z"/>
<glyph unicode="Î" horiz-adv-x="604" d="M201,1493l202,0l0,-1493l-202,0M209,1901l188,0l211,-266l-139,0l-166,178l-166,-178l-139,0z"/>
<glyph unicode="Ï" horiz-adv-x="604" d="M201,1493l202,0l0,-1493l-202,0M397,1870l203,0l0,-203l-203,0M6,1870l203,0l0,-203l-203,0z"/>
<glyph unicode="Ð" horiz-adv-x="1587" d="M211,1493l416,0C916,1493 1128,1433 1263,1313C1398,1192 1466,1004 1466,748C1466,491 1398,302 1263,181C1127,60 915,0 627,0l-416,0l0,700l-201,0l0,144l201,0M414,1327l0,-483l336,0l0,-144l-336,0l0,-534l243,0C863,166 1014,213 1110,306C1205,399 1253,547 1253,748C1253,948 1205,1095 1110,1188C1014,1281 863,1327 657,1327z"/>
<glyph unicode="Ñ" horiz-adv-x="1532" d="M201,1493l272,0l662,-1249l0,1249l196,0l0,-1493l-272,0l-662,1249l0,-1249l-196,0M762,1710l-57,33C688,1752 675,1759 665,1763C654,1766 645,1768 637,1768C613,1768 594,1760 581,1743C568,1726 561,1703 561,1673l0,-6l-125,0C436,1734 453,1788 488,1827C522,1866 568,1886 625,1886C649,1886 671,1883 692,1878C712,1873 738,1861 770,1843l57,-30C842,1804 856,1798 867,1794C878,1790 889,1788 899,1788C920,1788 938,1797 951,1814C964,1831 971,1853 971,1880l0,6l125,0C1095,1819 1077,1766 1043,1727C1008,1687 963,1667 907,1667C884,1667 863,1670 844,1675C824,1680 797,1692 762,1710z"/>
<glyph unicode="Ò" horiz-adv-x="1612" d="M807,1356C660,1356 544,1301 458,1192C371,1083 328,934 328,745C328,557 371,408 458,299C544,190 660,135 807,135C954,135 1070,190 1156,299C1241,408 1284,557 1284,745C1284,934 1241,1083 1156,1192C1070,1301 954,1356 807,1356M807,1520C1016,1520 1184,1450 1309,1310C1434,1169 1497,981 1497,745C1497,510 1434,322 1309,182C1184,41 1016,-29 807,-29C597,-29 429,41 304,181C178,321 115,509 115,745C115,981 178,1169 304,1310C429,1450 597,1520 807,1520M750,1899l196,-264l-153,0l-230,264z"/>
<glyph unicode="Ó" horiz-adv-x="1612" d="M807,1356C660,1356 544,1301 458,1192C371,1083 328,934 328,745C328,557 371,408 458,299C544,190 660,135 807,135C954,135 1070,190 1156,299C1241,408 1284,557 1284,745C1284,934 1241,1083 1156,1192C1070,1301 954,1356 807,1356M807,1520C1016,1520 1184,1450 1309,1310C1434,1169 1497,981 1497,745C1497,510 1434,322 1309,182C1184,41 1016,-29 807,-29C597,-29 429,41 304,181C178,321 115,509 115,745C115,981 178,1169 304,1310C429,1450 597,1520 807,1520M862,1899l185,0l-228,-264l-153,0z"/>
<glyph unicode="Ô" horiz-adv-x="1612" d="M807,1356C660,1356 544,1301 458,1192C371,1083 328,934 328,745C328,557 371,408 458,299C544,190 660,135 807,135C954,135 1070,190 1156,299C1241,408 1284,557 1284,745C1284,934 1241,1083 1156,1192C1070,1301 954,1356 807,1356M807,1520C1016,1520 1184,1450 1309,1310C1434,1169 1497,981 1497,745C1497,510 1434,322 1309,182C1184,41 1016,-29 807,-29C597,-29 429,41 304,181C178,321 115,509 115,745C115,981 178,1169 304,1310C429,1450 597,1520 807,1520M713,1901l188,0l211,-266l-139,0l-166,178l-166,-178l-139,0z"/>
<glyph unicode="Õ" horiz-adv-x="1612" d="M807,1356C660,1356 544,1301 458,1192C371,1083 328,934 328,745C328,557 371,408 458,299C544,190 660,135 807,135C954,135 1070,190 1156,299C1241,408 1284,557 1284,745C1284,934 1241,1083 1156,1192C1070,1301 954,1356 807,1356M807,1520C1016,1520 1184,1450 1309,1310C1434,1169 1497,981 1497,745C1497,510 1434,322 1309,182C1184,41 1016,-29 807,-29C597,-29 429,41 304,181C178,321 115,509 115,745C115,981 178,1169 304,1310C429,1450 597,1520 807,1520M803,1710l-57,33C729,1752 716,1759 706,1763C695,1766 686,1768 678,1768C654,1768 635,1760 622,1743C609,1726 602,1703 602,1673l0,-6l-125,0C477,1734 494,1788 529,1827C563,1866 609,1886 666,1886C690,1886 712,1883 733,1878C753,1873 779,1861 811,1843l57,-30C883,1804 897,1798 908,1794C919,1790 930,1788 940,1788C961,1788 979,1797 992,1814C1005,1831 1012,1853 1012,1880l0,6l125,0C1136,1819 1118,1766 1084,1727C1049,1687 1004,1667 948,1667C925,1667 904,1670 885,1675C865,1680 838,1692 803,1710z"/>
<glyph unicode="Ö" horiz-adv-x="1612" d="M807,1356C660,1356 544,1301 458,1192C371,1083 328,934 328,745C328,557 371,408 458,299C544,190 660,135 807,135C954,135 1070,190 1156,299C1241,408 1284,557 1284,745C1284,934 1241,1083 1156,1192C1070,1301 954,1356 807,1356M807,1520C1016,1520 1184,1450 1309,1310C1434,1169 1497,981 1497,745C1497,510 1434,322 1309,182C1184,41 1016,-29 807,-29C597,-29 429,41 304,181C178,321 115,509 115,745C115,981 178,1169 304,1310C429,1450 597,1520 807,1520M901,1870l203,0l0,-203l-203,0M510,1870l203,0l0,-203l-203,0z"/>
<glyph unicode="×" horiz-adv-x="1716" d="M1436,1100l-457,-459l457,-457l-119,-121l-459,459l-459,-459l-118,121l456,457l-456,459l118,121l459,-459l459,459z"/>
<glyph unicode="Ø" horiz-adv-x="1612" d="M1206,1112l-717,-846C530,223 578,191 632,169C685,146 744,135 807,135C954,135 1070,190 1156,299C1241,408 1284,557 1284,745C1284,820 1278,888 1265,949C1252,1010 1232,1065 1206,1112M1124,1225C1083,1268 1036,1300 983,1323C929,1345 870,1356 807,1356C660,1356 544,1301 458,1192C371,1083 328,934 328,745C328,670 335,602 348,539C361,476 380,422 406,377M272,219C220,287 181,365 155,453C128,541 115,638 115,745C115,981 178,1169 304,1310C429,1450 597,1520 807,1520C894,1520 974,1507 1048,1482C1121,1456 1187,1418 1245,1368l162,191l102,-89l-170,-198C1391,1203 1430,1125 1457,1036C1484,947 1497,850 1497,745C1497,510 1434,322 1309,182C1184,41 1016,-29 807,-29C722,-29 642,-16 569,9C495,34 428,71 367,121l-162,-191l-103,88z"/>
<glyph unicode="Ù" horiz-adv-x="1499" d="M178,1493l203,0l0,-907C381,426 410,311 468,241C526,170 620,135 750,135C879,135 973,170 1031,241C1089,311 1118,426 1118,586l0,907l203,0l0,-932C1321,366 1273,219 1177,120C1080,21 938,-29 750,-29C561,-29 419,21 323,120C226,219 178,366 178,561M693,1899l196,-264l-153,0l-230,264z"/>
<glyph unicode="Ú" horiz-adv-x="1499" d="M178,1493l203,0l0,-907C381,426 410,311 468,241C526,170 620,135 750,135C879,135 973,170 1031,241C1089,311 1118,426 1118,586l0,907l203,0l0,-932C1321,366 1273,219 1177,120C1080,21 938,-29 750,-29C561,-29 419,21 323,120C226,219 178,366 178,561M805,1899l185,0l-228,-264l-153,0z"/>
<glyph unicode="Û" horiz-adv-x="1499" d="M178,1493l203,0l0,-907C381,426 410,311 468,241C526,170 620,135 750,135C879,135 973,170 1031,241C1089,311 1118,426 1118,586l0,907l203,0l0,-932C1321,366 1273,219 1177,120C1080,21 938,-29 750,-29C561,-29 419,21 323,120C226,219 178,366 178,561M656,1901l188,0l211,-266l-139,0l-166,178l-166,-178l-139,0z"/>
<glyph unicode="Ü" horiz-adv-x="1499" d="M178,1493l203,0l0,-907C381,426 410,311 468,241C526,170 620,135 750,135C879,135 973,170 1031,241C1089,311 1118,426 1118,586l0,907l203,0l0,-932C1321,366 1273,219 1177,120C1080,21 938,-29 750,-29C561,-29 419,21 323,120C226,219 178,366 178,561M844,1870l203,0l0,-203l-203,0M453,1870l203,0l0,-203l-203,0z"/>
<glyph unicode="Ý" horiz-adv-x="1251" d="M-4,1493l217,0l414,-614l411,614l217,0l-528,-782l0,-711l-203,0l0,711M682,1899l185,0l-228,-264l-153,0z"/>
<glyph unicode="Þ" horiz-adv-x="1239" d="M201,1493l202,0l0,-264l254,0C824,1229 951,1192 1037,1117C1122,1042 1165,931 1165,784C1165,637 1122,526 1037,451C951,376 824,338 657,338l-254,0l0,-338l-202,0M403,1063l0,-559l254,0C751,504 824,528 875,577C926,626 952,695 952,784C952,873 927,942 876,991C825,1039 752,1063 657,1063z"/>
<glyph unicode="ß" horiz-adv-x="1290" d="M186,1137C186,1270 226,1374 306,1447C385,1520 498,1556 643,1556C782,1556 888,1517 961,1440C1034,1363 1071,1249 1073,1100C972,1095 894,1073 838,1035C782,996 754,945 754,881C754,850 764,821 783,794C802,767 834,739 877,711l57,-37C1045,603 1116,544 1148,497C1180,450 1196,393 1196,326C1196,211 1159,124 1084,63C1009,2 901,-29 760,-29C717,-29 673,-25 628,-16C583,-8 536,4 487,20l0,164C540,164 590,149 637,140C684,130 729,125 772,125C849,125 908,141 948,173C988,204 1008,250 1008,311C1008,353 998,388 979,416C959,444 915,479 848,520l-92,55C692,614 646,657 617,702C588,747 573,799 573,860C573,945 601,1016 657,1073C712,1130 790,1169 891,1188C886,1257 861,1310 818,1347C774,1384 714,1403 639,1403C552,1403 486,1380 441,1334C396,1287 373,1220 373,1133l0,-1133l-187,0z"/>
<glyph unicode="à" horiz-adv-x="1255" d="M702,563C553,563 450,546 393,512C336,478 307,420 307,338C307,273 329,221 372,183C415,144 473,125 547,125C649,125 731,161 793,234C854,306 885,402 885,522l0,41M1069,639l0,-639l-184,0l0,170C843,102 791,52 728,20C665,-13 589,-29 498,-29C383,-29 292,3 225,68C157,132 123,218 123,326C123,452 165,547 250,611C334,675 460,707 627,707l258,0l0,18C885,810 857,875 802,922C746,968 668,991 567,991C503,991 441,983 380,968C319,953 261,930 205,899l0,170C272,1095 338,1115 401,1128C464,1141 526,1147 586,1147C748,1147 869,1105 949,1021C1029,937 1069,810 1069,639M449,1638l282,-374l-153,0l-326,374z"/>
<glyph unicode="á" horiz-adv-x="1255" d="M702,563C553,563 450,546 393,512C336,478 307,420 307,338C307,273 329,221 372,183C415,144 473,125 547,125C649,125 731,161 793,234C854,306 885,402 885,522l0,41M1069,639l0,-639l-184,0l0,170C843,102 791,52 728,20C665,-13 589,-29 498,-29C383,-29 292,3 225,68C157,132 123,218 123,326C123,452 165,547 250,611C334,675 460,707 627,707l258,0l0,18C885,810 857,875 802,922C746,968 668,991 567,991C503,991 441,983 380,968C319,953 261,930 205,899l0,170C272,1095 338,1115 401,1128C464,1141 526,1147 586,1147C748,1147 869,1105 949,1021C1029,937 1069,810 1069,639M733,1638l199,0l-326,-376l-153,0z"/>
<glyph unicode="â" horiz-adv-x="1255" d="M702,563C553,563 450,546 393,512C336,478 307,420 307,338C307,273 329,221 372,183C415,144 473,125 547,125C649,125 731,161 793,234C854,306 885,402 885,522l0,41M1069,639l0,-639l-184,0l0,170C843,102 791,52 728,20C665,-13 589,-29 498,-29C383,-29 292,3 225,68C157,132 123,218 123,326C123,452 165,547 250,611C334,675 460,707 627,707l258,0l0,18C885,810 857,875 802,922C746,968 668,991 567,991C503,991 441,983 380,968C319,953 261,930 205,899l0,170C272,1095 338,1115 401,1128C464,1141 526,1147 586,1147C748,1147 869,1105 949,1021C1029,937 1069,810 1069,639M520,1638l148,0l245,-376l-139,0l-180,245l-180,-245l-139,0z"/>
<glyph unicode="ã" horiz-adv-x="1255" d="M702,563C553,563 450,546 393,512C336,478 307,420 307,338C307,273 329,221 372,183C415,144 473,125 547,125C649,125 731,161 793,234C854,306 885,402 885,522l0,41M1069,639l0,-639l-184,0l0,170C843,102 791,52 728,20C665,-13 589,-29 498,-29C383,-29 292,3 225,68C157,132 123,218 123,326C123,452 165,547 250,611C334,675 460,707 627,707l258,0l0,18C885,810 857,875 802,922C746,968 668,991 567,991C503,991 441,983 380,968C319,953 261,930 205,899l0,170C272,1095 338,1115 401,1128C464,1141 526,1147 586,1147C748,1147 869,1105 949,1021C1029,937 1069,810 1069,639M590,1370l-57,55C518,1438 506,1448 495,1455C484,1461 474,1464 465,1464C440,1464 421,1452 409,1428C397,1403 390,1364 389,1309l-125,0C265,1399 283,1469 317,1518C351,1567 398,1591 459,1591C484,1591 508,1586 529,1577C550,1568 573,1552 598,1530l57,-55C670,1462 683,1452 694,1446C705,1439 714,1436 723,1436C748,1436 767,1448 779,1473C791,1497 798,1536 799,1591l125,0C923,1501 905,1432 871,1383C837,1334 790,1309 729,1309C704,1309 680,1314 659,1323C638,1332 615,1348 590,1370z"/>
<glyph unicode="ä" horiz-adv-x="1255" d="M702,563C553,563 450,546 393,512C336,478 307,420 307,338C307,273 329,221 372,183C415,144 473,125 547,125C649,125 731,161 793,234C854,306 885,402 885,522l0,41M1069,639l0,-639l-184,0l0,170C843,102 791,52 728,20C665,-13 589,-29 498,-29C383,-29 292,3 225,68C157,132 123,218 123,326C123,452 165,547 250,611C334,675 460,707 627,707l258,0l0,18C885,810 857,875 802,922C746,968 668,991 567,991C503,991 441,983 380,968C319,953 261,930 205,899l0,170C272,1095 338,1115 401,1128C464,1141 526,1147 586,1147C748,1147 869,1105 949,1021C1029,937 1069,810 1069,639M688,1552l203,0l0,-202l-203,0M297,1552l203,0l0,-202l-203,0z"/>
<glyph unicode="å" horiz-adv-x="1255" d="M702,563C553,563 450,546 393,512C336,478 307,420 307,338C307,273 329,221 372,183C415,144 473,125 547,125C649,125 731,161 793,234C854,306 885,402 885,522l0,41M1069,639l0,-639l-184,0l0,170C843,102 791,52 728,20C665,-13 589,-29 498,-29C383,-29 292,3 225,68C157,132 123,218 123,326C123,452 165,547 250,611C334,675 460,707 627,707l258,0l0,18C885,810 857,875 802,922C746,968 668,991 567,991C503,991 441,983 380,968C319,953 261,930 205,899l0,170C272,1095 338,1115 401,1128C464,1141 526,1147 586,1147C748,1147 869,1105 949,1021C1029,937 1069,810 1069,639M746,1524C746,1566 731,1602 702,1631C673,1660 637,1675 594,1675C551,1675 515,1661 486,1632C457,1603 442,1567 442,1524C442,1481 457,1445 486,1416C515,1387 551,1372 594,1372C637,1372 673,1387 702,1416C731,1445 746,1481 746,1524M868,1524C868,1447 842,1382 789,1329C736,1276 671,1249 594,1249C517,1249 453,1276 400,1329C347,1382 320,1447 320,1524C320,1601 347,1666 400,1719C453,1772 517,1798 594,1798C671,1798 736,1772 789,1719C842,1666 868,1601 868,1524z"/>
<glyph unicode="æ" horiz-adv-x="2011" d="M1718,660C1717,761 1690,841 1635,901C1580,961 1506,991 1415,991C1313,991 1231,962 1170,904C1108,846 1072,764 1063,659M995,963C1044,1023 1104,1069 1175,1100C1246,1131 1325,1147 1413,1147C1564,1147 1683,1099 1771,1002C1859,905 1903,773 1903,606l0,-90l-846,0C1065,389 1103,292 1171,225C1239,158 1334,125 1456,125C1525,125 1593,134 1660,152C1727,169 1793,196 1860,231l0,-174C1793,29 1725,8 1656,-7C1587,-22 1517,-29 1446,-29C1335,-29 1238,-9 1155,32C1072,72 1005,132 954,211C905,131 845,71 773,31C701,-9 617,-29 522,-29C396,-29 298,2 228,65C158,127 123,214 123,326C123,452 165,547 250,611C334,675 460,707 627,707l258,0l0,18C885,810 857,875 802,922C746,968 668,991 567,991C503,991 441,983 380,968C319,953 261,930 205,899l0,170C272,1095 338,1115 401,1128C464,1141 526,1147 586,1147C681,1147 764,1131 835,1099C906,1067 959,1022 995,963M702,563C553,563 450,546 393,512C336,478 307,420 307,338C307,273 329,221 372,183C415,144 473,125 547,125C649,125 731,161 793,234C854,306 885,402 885,522l0,41z"/>
<glyph unicode="ç" horiz-adv-x="1126" d="M999,1077l0,-172C947,934 895,955 843,970C790,984 737,991 684,991C565,991 472,953 406,878C340,802 307,696 307,559C307,422 340,316 406,241C472,165 565,127 684,127C737,127 790,134 843,149C895,163 947,184 999,213l0,-170C948,19 895,1 840,-11C785,-23 726,-29 664,-29C495,-29 361,24 262,130C163,236 113,379 113,559C113,742 163,885 264,990C364,1095 501,1147 676,1147C733,1147 788,1141 842,1130C896,1118 948,1100 999,1077M739,0C776,-41 803,-79 821,-114C839,-149 848,-183 848,-215C848,-274 828,-319 788,-349C748,-380 689,-395 610,-395C579,-395 550,-393 521,-389C492,-385 463,-379 434,-371l0,131C457,-251 480,-259 505,-264C530,-269 558,-272 589,-272C628,-272 658,-264 678,-248C698,-232 708,-209 708,-178C708,-158 701,-133 687,-104C672,-75 650,-41 620,0z"/>
<glyph unicode="è" horiz-adv-x="1260" d="M1151,606l0,-90l-846,0C313,389 351,293 420,227C488,160 583,127 705,127C776,127 844,136 911,153C977,170 1043,196 1108,231l0,-174C1042,29 974,8 905,-7C836,-22 765,-29 694,-29C515,-29 374,23 270,127C165,231 113,372 113,549C113,732 163,878 262,986C361,1093 494,1147 662,1147C813,1147 932,1099 1020,1002C1107,905 1151,773 1151,606M967,660C966,761 938,841 883,901C828,961 755,991 664,991C561,991 479,962 418,904C356,846 320,764 311,659M506,1638l282,-374l-153,0l-326,374z"/>
<glyph unicode="é" horiz-adv-x="1260" d="M1151,606l0,-90l-846,0C313,389 351,293 420,227C488,160 583,127 705,127C776,127 844,136 911,153C977,170 1043,196 1108,231l0,-174C1042,29 974,8 905,-7C836,-22 765,-29 694,-29C515,-29 374,23 270,127C165,231 113,372 113,549C113,732 163,878 262,986C361,1093 494,1147 662,1147C813,1147 932,1099 1020,1002C1107,905 1151,773 1151,606M967,660C966,761 938,841 883,901C828,961 755,991 664,991C561,991 479,962 418,904C356,846 320,764 311,659M790,1638l199,0l-326,-376l-153,0z"/>
<glyph unicode="ê" horiz-adv-x="1260" d="M1151,606l0,-90l-846,0C313,389 351,293 420,227C488,160 583,127 705,127C776,127 844,136 911,153C977,170 1043,196 1108,231l0,-174C1042,29 974,8 905,-7C836,-22 765,-29 694,-29C515,-29 374,23 270,127C165,231 113,372 113,549C113,732 163,878 262,986C361,1093 494,1147 662,1147C813,1147 932,1099 1020,1002C1107,905 1151,773 1151,606M967,660C966,761 938,841 883,901C828,961 755,991 664,991C561,991 479,962 418,904C356,846 320,764 311,659M577,1638l148,0l245,-376l-139,0l-180,245l-180,-245l-139,0z"/>
<glyph unicode="ë" horiz-adv-x="1260" d="M1151,606l0,-90l-846,0C313,389 351,293 420,227C488,160 583,127 705,127C776,127 844,136 911,153C977,170 1043,196 1108,231l0,-174C1042,29 974,8 905,-7C836,-22 765,-29 694,-29C515,-29 374,23 270,127C165,231 113,372 113,549C113,732 163,878 262,986C361,1093 494,1147 662,1147C813,1147 932,1099 1020,1002C1107,905 1151,773 1151,606M967,660C966,761 938,841 883,901C828,961 755,991 664,991C561,991 479,962 418,904C356,846 320,764 311,659M745,1552l203,0l0,-202l-203,0M354,1552l203,0l0,-202l-203,0z"/>
<glyph unicode="ì" horiz-adv-x="569" d="M140,1638l282,-374l-153,0l-326,374M193,1120l184,0l0,-1120l-184,0z"/>
<glyph unicode="í" horiz-adv-x="569" d="M424,1638l199,0l-326,-376l-153,0M193,1120l184,0l0,-1120l-184,0z"/>
<glyph unicode="î" horiz-adv-x="569" d="M193,1120l184,0l0,-1120l-184,0M211,1638l148,0l245,-376l-139,0l-180,245l-180,-245l-139,0z"/>
<glyph unicode="ï" horiz-adv-x="569" d="M193,1120l184,0l0,-1120l-184,0M379,1552l203,0l0,-202l-203,0M-12,1552l203,0l0,-202l-203,0z"/>
<glyph unicode="ð" horiz-adv-x="1253" d="M838,915C805,926 773,935 744,940C715,945 686,948 659,948C548,948 461,912 400,840C338,768 307,667 307,537C307,412 336,312 394,238C452,164 530,127 627,127C724,127 801,164 859,238C917,312 946,412 946,537C946,618 937,690 919,753C901,816 874,870 838,915M901,1141C985,1046 1046,950 1084,854C1122,758 1141,652 1141,537C1141,367 1094,230 999,127C904,23 780,-29 627,-29C473,-29 349,23 255,127C160,230 113,367 113,537C113,704 159,839 251,943C343,1046 463,1098 610,1098C622,1098 637,1097 654,1096C671,1094 694,1091 722,1088l-159,180l-319,-107l-33,99l281,92l-181,204l228,0l127,-145l333,111l33,-97l-295,-98z"/>
<glyph unicode="ñ" horiz-adv-x="1298" d="M1124,676l0,-676l-184,0l0,670C940,776 919,855 878,908C837,961 775,987 692,987C593,987 514,955 457,892C400,829 371,742 371,633l0,-633l-185,0l0,1120l185,0l0,-174C415,1013 467,1064 527,1097C586,1130 655,1147 733,1147C862,1147 959,1107 1025,1028C1091,948 1124,831 1124,676M660,1370l-57,55C588,1438 576,1448 565,1455C554,1461 544,1464 535,1464C510,1464 491,1452 479,1428C467,1403 460,1364 459,1309l-125,0C335,1399 353,1469 387,1518C421,1567 468,1591 529,1591C554,1591 578,1586 599,1577C620,1568 643,1552 668,1530l57,-55C740,1462 753,1452 764,1446C775,1439 784,1436 793,1436C818,1436 837,1448 849,1473C861,1497 868,1536 869,1591l125,0C993,1501 975,1432 941,1383C907,1334 860,1309 799,1309C774,1309 750,1314 729,1323C708,1332 685,1348 660,1370z"/>
<glyph unicode="ò" horiz-adv-x="1253" d="M627,991C528,991 450,953 393,876C336,799 307,693 307,559C307,425 336,320 393,243C450,166 528,127 627,127C725,127 803,166 860,243C917,320 946,426 946,559C946,692 917,797 860,875C803,952 725,991 627,991M627,1147C787,1147 913,1095 1004,991C1095,887 1141,743 1141,559C1141,376 1095,232 1004,128C913,23 787,-29 627,-29C466,-29 341,23 250,128C159,232 113,376 113,559C113,743 159,887 250,991C341,1095 466,1147 627,1147M482,1638l282,-374l-153,0l-326,374z"/>
<glyph unicode="ó" horiz-adv-x="1253" d="M627,991C528,991 450,953 393,876C336,799 307,693 307,559C307,425 336,320 393,243C450,166 528,127 627,127C725,127 803,166 860,243C917,320 946,426 946,559C946,692 917,797 860,875C803,952 725,991 627,991M627,1147C787,1147 913,1095 1004,991C1095,887 1141,743 1141,559C1141,376 1095,232 1004,128C913,23 787,-29 627,-29C466,-29 341,23 250,128C159,232 113,376 113,559C113,743 159,887 250,991C341,1095 466,1147 627,1147M766,1638l199,0l-326,-376l-153,0z"/>
<glyph unicode="ô" horiz-adv-x="1253" d="M627,991C528,991 450,953 393,876C336,799 307,693 307,559C307,425 336,320 393,243C450,166 528,127 627,127C725,127 803,166 860,243C917,320 946,426 946,559C946,692 917,797 860,875C803,952 725,991 627,991M627,1147C787,1147 913,1095 1004,991C1095,887 1141,743 1141,559C1141,376 1095,232 1004,128C913,23 787,-29 627,-29C466,-29 341,23 250,128C159,232 113,376 113,559C113,743 159,887 250,991C341,1095 466,1147 627,1147M553,1638l148,0l245,-376l-139,0l-180,245l-180,-245l-139,0z"/>
<glyph unicode="õ" horiz-adv-x="1253" d="M627,991C528,991 450,953 393,876C336,799 307,693 307,559C307,425 336,320 393,243C450,166 528,127 627,127C725,127 803,166 860,243C917,320 946,426 946,559C946,692 917,797 860,875C803,952 725,991 627,991M627,1147C787,1147 913,1095 1004,991C1095,887 1141,743 1141,559C1141,376 1095,232 1004,128C913,23 787,-29 627,-29C466,-29 341,23 250,128C159,232 113,376 113,559C113,743 159,887 250,991C341,1095 466,1147 627,1147M623,1370l-57,55C551,1438 539,1448 528,1455C517,1461 507,1464 498,1464C473,1464 454,1452 442,1428C430,1403 423,1364 422,1309l-125,0C298,1399 316,1469 350,1518C384,1567 431,1591 492,1591C517,1591 541,1586 562,1577C583,1568 606,1552 631,1530l57,-55C703,1462 716,1452 727,1446C738,1439 747,1436 756,1436C781,1436 800,1448 812,1473C824,1497 831,1536 832,1591l125,0C956,1501 938,1432 904,1383C870,1334 823,1309 762,1309C737,1309 713,1314 692,1323C671,1332 648,1348 623,1370z"/>
<glyph unicode="ö" horiz-adv-x="1253" d="M627,991C528,991 450,953 393,876C336,799 307,693 307,559C307,425 336,320 393,243C450,166 528,127 627,127C725,127 803,166 860,243C917,320 946,426 946,559C946,692 917,797 860,875C803,952 725,991 627,991M627,1147C787,1147 913,1095 1004,991C1095,887 1141,743 1141,559C1141,376 1095,232 1004,128C913,23 787,-29 627,-29C466,-29 341,23 250,128C159,232 113,376 113,559C113,743 159,887 250,991C341,1095 466,1147 627,1147M721,1552l203,0l0,-202l-203,0M330,1552l203,0l0,-202l-203,0z"/>
<glyph unicode="÷" horiz-adv-x="1716" d="M735,1135l246,0l0,-246l-246,0M735,395l246,0l0,-245l-246,0M217,727l1282,0l0,-170l-1282,0z"/>
<glyph unicode="ø" horiz-adv-x="1253" d="M905,801l-487,-592C445,181 476,160 511,147C545,134 584,127 627,127C725,127 803,166 860,243C917,320 946,426 946,559C946,612 943,658 936,697C929,736 919,770 905,801M834,909C806,936 775,957 741,971C706,984 668,991 627,991C526,991 448,952 392,874C335,795 307,686 307,545C307,497 310,455 317,418C323,381 333,348 346,317M221,166C185,217 158,276 140,342C122,407 113,480 113,559C113,743 159,887 250,991C341,1095 466,1147 627,1147C689,1147 747,1139 800,1122C853,1105 901,1079 946,1044l139,168l95,-79l-146,-179C1069,903 1096,844 1114,778C1132,712 1141,639 1141,559C1141,376 1095,232 1004,128C913,23 787,-29 627,-29C563,-29 504,-20 451,-3C397,14 349,40 307,74l-139,-168l-96,78z"/>
<glyph unicode="ù" horiz-adv-x="1298" d="M174,442l0,678l184,0l0,-671C358,343 379,264 420,211C461,158 523,131 606,131C705,131 784,163 842,226C899,289 928,376 928,485l0,635l184,0l0,-1120l-184,0l0,172C883,104 832,54 773,21C714,-12 645,-29 567,-29C438,-29 341,11 274,91C207,171 174,288 174,442M490,1638l282,-374l-153,0l-326,374z"/>
<glyph unicode="ú" horiz-adv-x="1298" d="M174,442l0,678l184,0l0,-671C358,343 379,264 420,211C461,158 523,131 606,131C705,131 784,163 842,226C899,289 928,376 928,485l0,635l184,0l0,-1120l-184,0l0,172C883,104 832,54 773,21C714,-12 645,-29 567,-29C438,-29 341,11 274,91C207,171 174,288 174,442M774,1638l199,0l-326,-376l-153,0z"/>
<glyph unicode="û" horiz-adv-x="1298" d="M174,442l0,678l184,0l0,-671C358,343 379,264 420,211C461,158 523,131 606,131C705,131 784,163 842,226C899,289 928,376 928,485l0,635l184,0l0,-1120l-184,0l0,172C883,104 832,54 773,21C714,-12 645,-29 567,-29C438,-29 341,11 274,91C207,171 174,288 174,442M561,1638l148,0l245,-376l-139,0l-180,245l-180,-245l-139,0z"/>
<glyph unicode="ü" horiz-adv-x="1298" d="M174,442l0,678l184,0l0,-671C358,343 379,264 420,211C461,158 523,131 606,131C705,131 784,163 842,226C899,289 928,376 928,485l0,635l184,0l0,-1120l-184,0l0,172C883,104 832,54 773,21C714,-12 645,-29 567,-29C438,-29 341,11 274,91C207,171 174,288 174,442M729,1552l203,0l0,-202l-203,0M338,1552l203,0l0,-202l-203,0z"/>
<glyph unicode="ý" horiz-adv-x="1212" d="M659,-104C607,-237 556,-324 507,-365C458,-406 392,-426 309,-426l-147,0l0,154l108,0C321,-272 360,-260 388,-236C416,-212 447,-155 481,-66l33,84l-453,1102l195,0l350,-876l350,876l195,0M745,1638l199,0l-326,-376l-153,0z"/>
<glyph unicode="þ" horiz-adv-x="1300" d="M371,168l0,-594l-185,0l0,1982l185,0l0,-606C410,1017 459,1066 518,1099C577,1131 647,1147 729,1147C865,1147 976,1093 1061,985C1146,877 1188,735 1188,559C1188,383 1146,241 1061,133C976,25 865,-29 729,-29C647,-29 577,-13 518,20C459,52 410,101 371,168M997,559C997,694 969,801 914,878C858,955 781,993 684,993C587,993 510,955 455,878C399,801 371,694 371,559C371,424 399,318 455,241C510,164 587,125 684,125C781,125 858,164 914,241C969,318 997,424 997,559z"/>
<glyph unicode="–" horiz-adv-x="1024" d="M100,633l824,0l0,-144l-824,0z"/>
<glyph unicode="—" horiz-adv-x="2048" d="M100,633l1848,0l0,-144l-1848,0z"/>
<glyph unicode="‘" horiz-adv-x="651" d="M385,1001l-211,0l0,173l164,319l129,0l-82,-319z"/>
<glyph unicode="’" horiz-adv-x="651" d="M260,1493l211,0l0,-152l-164,-319l-129,0l82,319z"/>
<glyph unicode="“" horiz-adv-x="1061" d="M385,1001l-211,0l0,173l164,319l129,0l-82,-319M795,1001l-211,0l0,173l164,319l129,0l-82,-319z"/>
<glyph unicode="”" horiz-adv-x="1061" d="M256,1493l211,0l0,-172l-164,-320l-129,0l82,320M666,1493l211,0l0,-172l-164,-320l-129,0l82,320z"/>
<glyph unicode="•" horiz-adv-x="1208" d="M307,762C307,845 336,915 394,972C451,1029 522,1057 606,1057C689,1057 759,1029 816,972C873,915 901,845 901,762C901,679 872,608 815,551C758,494 687,465 604,465C521,465 450,494 393,551C336,608 307,679 307,762z"/>
<glyph unicode="…" horiz-adv-x="2048" d="M918,254l212,0l0,-254l-212,0M1599,254l213,0l0,-254l-213,0M236,254l213,0l0,-254l-213,0z"/>
<glyph unicode="€" horiz-adv-x="1303" d="M1167,1378l0,-213C1106,1235 1048,1285 992,1315C935,1345 873,1360 805,1360C700,1360 614,1327 547,1260C480,1193 435,1098 414,973l577,0l-55,-123l-538,0C397,834 396,818 396,803C395,788 395,768 395,745C395,724 395,705 396,690C396,675 397,659 398,643l446,0l-56,-123l-374,0C435,395 480,299 547,232C614,165 700,131 805,131C873,131 935,146 992,176C1048,206 1106,256 1167,326l0,-211C1108,67 1047,31 986,7C924,-17 861,-29 797,-29C639,-29 509,19 406,116C303,213 238,347 211,520l-211,0l55,123l139,0C194,658 194,674 194,690C193,705 193,724 193,745C193,768 193,788 194,804C194,819 194,835 194,850l-194,0l55,123l156,0C238,1144 303,1278 406,1375C509,1472 640,1520 797,1520C862,1520 926,1508 988,1485C1049,1461 1109,1425 1167,1378z"/>
<glyph unicode="™" horiz-adv-x="2048" d="M1098,1493l174,-256l164,256l170,0l0,-578l-113,0l0,484l-195,-303l-55,0l-203,303l0,-484l-114,0l0,578M813,1493l0,-94l-203,0l0,-484l-114,0l0,484l-201,0l0,94z"/>
<glyph unicode="ﬁ" horiz-adv-x="1290" d="M1098,1120l0,-1120l-185,0l0,977l-505,0l0,-977l-185,0l0,977l-176,0l0,143l176,0l0,78C223,1320 252,1410 310,1469C367,1527 456,1556 575,1556l185,0l0,-153l-176,0C518,1403 472,1390 447,1363C421,1336 408,1288 408,1219l0,-99M913,1554l185,0l0,-233l-185,0z"/>
<glyph unicode="ﬂ" horiz-adv-x="1290" d="M586,1556l512,0l0,-1556l-185,0l0,1403l-329,0C518,1403 472,1390 447,1363C421,1336 408,1288 408,1219l0,-99l303,0l0,-143l-303,0l0,-977l-185,0l0,977l-176,0l0,143l176,0l0,78C223,1323 252,1414 310,1471C368,1528 460,1556 586,1556z"/>
</font>
</defs>
</svg>
