<?xml version="1.0" encoding="UTF-8"?>
<svg width="600" height="600" version="1.1" xmlns="http://www.w3.org/2000/svg">
 <g stroke="#000">
  <path d="m158.24 331.97c24.044 8.0409 51.12 9.9127 78.129 2.8763 28.355 2.4596 56.181-6.8073 77.408-26.005 26.602-11.473 46.605-32.877 55.309-60.295 20.638-26.789 15.773-53.362 8.3451-93.445-15.801-39.25-44.889-58.667-84.001-64s-82.667 3.0273-116.44 10.139c-33.777 7.1113-89.777 53.333-85.333 89.778 4.4447 36.444 12.286 122.79 66.588 140.95z" fill="#e6e6e6" stroke-width="4"/>
  <g fill="#fff">
   <g stroke-width="1.3333">
    <path d="m306.8 290.76-2.0065-7.3067-0.74613 1.2579-1.1692-0.4772 1.9831 7.0228c-8e-3 0.36067 0.29813 0.77733 1.1419 0.4908 0.84254-0.28573 0.79694-0.9876 0.79694-0.9876z"/>
    <path d="m160.47 278.76-2.0065-7.3067-0.74614 1.2579-1.1692-0.4772 1.9831 7.0228c-8e-3 0.36067 0.29813 0.77734 1.1419 0.4908 0.84253-0.28573 0.79693-0.9876 0.79693-0.9876z"/>
    <path d="m256.53 297.58-0.13933-7.5755-1.0339 1.0351-1.0149-0.7512 0.1868 7.2943c-0.0964 0.3476 0.0969 0.82814 0.98506 0.75774 0.88734-0.0689 1.0163-0.7604 1.0163-0.7604z"/>
    <path d="m277.47 296.65-0.34053-7.5691-1.0057 1.0612-1.0352-0.724 0.3808 7.2879c-0.0872 0.35027 0.1192 0.82414 1.0052 0.7304 0.8848-0.0924 0.99546-0.7864 0.99546-0.7864z"/>
    <path d="m134.97 284.25-3.1093-6.9101-0.54293 1.358-1.2292-0.2916 3.0416 6.6341c0.0483 0.35733 0.41546 0.72133 1.2045 0.30786 0.78773-0.41213 0.63533-1.0983 0.63533-1.0983z"/>
    <path d="m184.23 279.78 0.61453-7.5521-1.1315 0.92707-0.9356-0.84894-0.53974 7.2773c-0.13013 0.33733 0.0144 0.83333 0.9056 0.8516 0.88934 0.0196 1.0867-0.65494 1.0867-0.65494z"/>
    <path d="m233.63 294.92 0.81174-7.5339-1.1549 0.8972-0.91333-0.8724-0.7292 7.2604c-0.13933 0.33333-7e-3 0.83333 0.8828 0.87507 0.88867 0.0429 1.1029-0.6264 1.1029-0.6264z"/>
    <path d="m315.31 287.24-1.4349-7.4395-1.2799-0.86254-0.69013 1.4921 1.4323 7.1563c-0.0364 0.35867 0.23826 0.79747 1.1016 0.57747 0.862-0.22134 0.87106-0.92387 0.87106-0.92387z"/>
    <path d="m147.31 281.24-1.4349-7.4395-1.2799-0.86254-0.69013 1.4921 1.4323 7.1563c-0.0364 0.35867 0.23827 0.79747 1.1016 0.57747 0.862-0.22134 0.87107-0.92387 0.87107-0.92387z"/>
    <path d="m196.62 285.03 1.8001-7.3595-0.8028-1.3189-1.25 1.0677-1.6841 7.1015c-0.18307 0.3112-0.11667 0.82427 0.75973 0.9844 0.87627 0.1588 1.1771-0.4752 1.1771-0.4752z"/>
    <path d="m296.74 293.58-1.142-7.3099s-0.2676-0.7136-1.1947-0.4896c-1.0885 0.2644-0.78186 1.1016-0.78186 1.1016l1.1439 7.0247c-3e-3 0.32427 0.1836 0.7852 1.0592 0.612 0.87574-0.17187 0.91547-0.9388 0.91547-0.9388z"/>
    <path d="m172.74 278.58-1.142-7.3099s-0.2676-0.7136-1.1947-0.4896c-1.0885 0.2644-0.78186 1.1016-0.78186 1.1016l1.1439 7.0247c-3e-3 0.32427 0.1836 0.7852 1.0592 0.612 0.87574-0.17186 0.91547-0.9388 0.91547-0.9388z"/>
    <path d="m245.24 296.44 0.3072-7.392s-0.12293-0.7512-1.0761-0.71346c-1.1191 0.0468-0.98173 0.9284-0.98173 0.9284l-0.25 7.112c-0.0664 0.3176 0.0267 0.80586 0.9192 0.8072 0.89266 3e-3 1.0815-0.74214 1.0815-0.74214z"/>
    <path d="m207.7 288 1.7207-7.1967s0.0235-0.7604-0.91933-0.90627c-1.1073-0.1692-1.1419 0.72267-1.1419 0.72267l-1.6107 6.9311c-0.12627 0.29947-0.12827 0.7968 0.74733 0.96867 0.87507 0.17453 1.2039-0.51947 1.2039-0.51947z"/>
    <path d="m287.6 295.82-1.0456-8.1321s0.0567 0.7832-0.87493 0.9876c-1.0939 0.2396-1.1133-0.42053-1.1133-0.42053l1.0521 7.8489c0.164-0.274 0.76947-0.42387 1.0156-0.45893 0.246-0.0352 0.96613 0.17506 0.96613 0.17506z"/>
    <path d="m267.21 297.01 0.55533-8.1797s-0.0969 0.77866-1.0501 0.79826c-1.1197 0.0221-1.0104-0.62893-1.0104-0.62893l-0.49414 7.9036c0.21427-0.23693 0.8372-0.2656 1.0853-0.25253 0.24866 0.0133 0.914 0.35933 0.914 0.35933z"/>
    <path d="m220.05 292.63 1.9413-7.9649s-0.22787 0.75-1.1705 0.6068c-1.1075-0.1692-0.888-0.7916-0.888-0.7916l-1.8347 7.7031c0.25133-0.19666 0.8704-0.11853 1.1127-0.0637 0.2428 0.0559 0.8392 0.5104 0.8392 0.5104z"/>
   </g>
   <g stroke-width=".66665">
    <path d="m153.92 150.34c1.3222 0.96411 2.5755 1.2662 3.6074 1.5865 1.0318 0.3204 3.1047 0.0287 3.9315 0.14 0.82692 0.11133 2.7917 0.23306 3.5162 0.23959 0.72465 7e-3 4.5631-0.9921 6.0226-2.1165 1.459-1.1249 4.7422-4.2734 5.5364-5.5376 0.84051-1.3372 4.8416-8.6476 6.1066-11.12 1.2649-2.4719 4.6398-9.2712 5.6743-9.1579 0 0 1.4505-0.19333 1.1445-0.71359-0.30533-0.52012-5.05-2.2206-6.3104-0.26626-1.2604 1.955-3.6835 6.5897-4.5286 8.4445-0.84571 1.8548-5.0311 9.7172-7.1509 12.145-2.511 2.875-4.8098 5.2329-8.8584 6.5409-2.789-0.54359-5.2519-2.7395-6.1769-3.4726-0.92451-0.73372-0.1016-0.2084-0.83331 0.61252-0.73238 0.82171-3.1203 1.627-1.681 2.6751z"/>
    <path d="m170.55 139.97 1.0266 6.3742c0.0691 0.93224-0.79158 1.7005-1.638 0.91664l-2.7357-14.618"/>
    <path d="m174.71 135.81 3.1567 2.7467c0.46092 0.54745 0.0593 1.9406-0.94517 1.4654-1.0046-0.47532-2.6049-3.6718-2.6049-3.6718z"/>
    <path d="m177.06 141.28 4.3-11.68s0.78051-0.45825 1.2428-0.0664c0.46226 0.39266 0.29813 1.3222 0.29813 1.3222l-4.2258 11.992"/>
    <path d="m182.9 148.54 0.96158-11.559 1.203-12.483c0.39132-0.30653 1.6341-0.45053 1.8613 0.17253l-1.9446 25.363z"/>
   </g>
  </g>
  <g stroke-width=".66665">
   <path d="m164.14 152.18c7e-3 0 0.0133-7e-3 0.0133-0.0133 6.6e-4 -0.0133 6.6e-4 -0.0196-0.012-0.0196-2.8893-0.22066-5.6835-1.6184-7.7015-3.6946v7e-3" fill="none"/>
   <g fill="#fff">
    <path d="m168.06 137.08 0.96291 0.82411 0.46813-0.2676"/>
    <path d="m178.82 136.4c0.23506-0.26946 0.81904-0.41919 1.1666-0.26039 0.34759 0.15826 0.69532 0.35546 0.65039 0.97584"/>
    <path d="m184.02 136.11 0.87891 1.483 1.138-1.3092"/>
    <path d="m159.43 125.04c-0.30799-0.87305 0.64705-2.7883 1.2746-3.5071 0.62758-0.71878 1.2494-0.81638 1.6614-0.60545 0.41213 0.21093 1.5476 0.53186 2.2728 0.43559 0.72531-0.0971 1.8724-1.0176 3.0019-0.0756 0.62105 0.51759 1.4297 2.0826 2.1406 3.5383 0.71091 1.4557 3.341 7.897 4.6607 10.704 1.3189 2.8065 3.5598 6.6566 5.8064 9.8858 2.2467 3.2291 4.8163 5.1157 6.367 5.3371 1.1426-0.50638 3.2219-1.5221 5.3169-4.1932 1.3665-1.7428 3.3646-4.5142 4.7226-6.9933 1.5794-2.8827 3.8938-6.8976 5.2629-9.4718 1.3697-2.5749 3.8859-6.0694 4.8221-6.5786 0.93611-0.50905 5.2811-0.36452 5.7921 0.36466 0.51039 0.72905-1.2506 0.91985-2.7115 2.2512-1.4616 1.3321-4.4152 7.3072-5.5728 9.3656-1.1574 2.0593-5.5792 10.09-7.0446 11.836-1.4649 1.7461-4.2799 5.3416-7.9146 5.3079-1.8626-0.0176-3.2056-0.34053-4.5526-0.14586-1.347 0.19466-3.8287-0.0359-6.2941-2.0254-2.4649-1.9896-4.61-5.0103-7.0546-9.2764-2.4433-4.2662-5.2264-11.565-6.3858-14.341-0.30332-0.72718-0.61131-1.0404-0.91597-1.6641-0.42319 1.0306-0.22133 1.5501-1.3568 1.2292-1.1354-0.32159-2.8951-0.2344-3.2987-1.3762z"/>
    <path d="m162.3 150.45 1.9381 0.25066 0.44199-14.154 0.24413-9.5128-1.9797-4.0546z"/>
   </g>
   <path d="m178.82 144.55c1.6068 2.4986 3.91 5.1593 5.298 6.1809 1.3873 1.0221 3.3971 1.9726 5.1828 1.9114" fill="none"/>
   <path d="m186.62 150.76c1.6002 0.40306 3.845 1.0456 6.341-0.25066 2.4954-1.2961 4.6984-4.4582 5.6451-6.0792" fill="none"/>
   <g fill="#fff">
    <path d="m190.4 150.78c0.61585-0.082 0.85478-0.0697 1.0136-0.45706l-0.33133-22.745-2.2201-3.2804 0.68759 26.086s0.30652 0.46879 0.85024 0.39653z"/>
    <path d="m196.51 144.87c0.46545 4e-3 0.93544-0.45706 1.0156-0.68879 0.0795-0.23252-0.50852-3.7311-0.50852-3.7311l-1.6054-10.959-2.173-0.0196 2.345 14.846s0.53839 0.54878 0.92638 0.55212z"/>
    <path d="m201.88 134.03c-0.43813-0.15813-1.0344 0.12173-1.1861 0.31452-0.15239 0.19267-0.75451 3.6887-0.75451 3.6887l-1.0404 4.869 2.0442 0.73824 1.6282-8.783s-0.3268-0.69598-0.69145-0.82744z"/>
    <path d="m206.42 147.68 1.2813-20.79s-0.14987-0.62238-0.84905-0.55145c-0.69918 0.0711-1.0892 0.30013-1.1712 0.76571l-1.2493 17.374z"/>
    <path d="m210.87 152.92c-2.088-0.79558-3.3892-2.7479-5.1491-5.4816"/>
    <path d="m209.95 151.13c1.0814 0.55412 2.8594 1.347 4.1074 0.73758 1.2473-0.60932 3.1946-1.3677 4.927-3.99"/>
    <path d="m220.76 140.91c0.53452 0.18359 1.2434-0.14387 1.4056-0.91851 0.16279-0.77478-0.67118-2.9557-0.67118-2.9557l-0.78452 0.92371-0.48692 2.2467s0.0728 0.54425 0.53705 0.70372z"/>
    <path d="m162.59 136.49c0.31386-0.36332 0.54892-0.55532 1.0144-0.55078 0.46545 4e-3 0.92958 0.17773 1.0806 0.59892"/>
    <path d="m189.14 136.73c0.0723 0.54358 0.61065 1.0924 1.0762 1.0964 0.46612 4e-3 0.89638-0.37959 0.94131-1.039"/>
    <path d="m204.88 137.92c0.16213-0.65825 0.59252-1.0422 1.0189-0.9993 0.42639 0.0429 1.0846 0.20372 1.1165 0.98037"/>
    <path d="m220.16 135.04c-2.0097 4.6386-5.8709 12.038-7.6521 14.298 0 0-1.6966 1.6393-2.319 1.789-1.388-1.0221-3.0851-2.1244-4.9191-5.1692-1.8346-3.0442-3.8104-7.5642-5.3339-10.683-1.5228-3.119-3.798-8.8839-5.6412-10.997-1.843-2.1126-2.7681-2.8197-3.8547-2.7526-1.0878 0.0677-2.332 0.36653-3.1842 0.12573-0.85145-0.24092-2.8938-0.41545-4.104 1.7466l-1.1569 1.9557c1.0456-1.1282 2.3515-2.4615 3.9283-2.2402 1.1452 0.16146 2.399 0.74745 3.7232 3.0365 1.3236 2.289 4.5715 9.1495 5.7882 11.852 1.2161 2.7025 4.5708 9.2538 6.6177 11.653 2.0474 2.3997 4.0044 3.4524 5.246 3.464 1.2421 0.012 2.2805-0.39253 3.1066-0.17773 0.82558 0.21493 2.541 0.67971 3.9328-0.0671 1.6126-0.86451 3.1243-2.0402 5.0156-5.1275 1.8918-3.0871 5.6886-12.972 7.251-15.75"/>
    <path d="m211.74 151.76 0.85345-27.675-1.9062-0.89771-0.72452 27.781z"/>
   </g>
   <path d="m210.19 151.13c0.74612 0.42119 2.1433 1.203 3.5364 0.86064 2.2303-0.54812 3.9042-2.4986 5.2147-4.298" fill="none"/>
   <path d="m216.03 148.85c0.54292 0.0827 1.009 9e-3 1.1685-0.45505 0.1596-0.46412 0.55666-18.002 0.55666-18.002l-1.9889-3.1228-0.50652 20.951s0.22786 0.54559 0.77025 0.62825z" fill="#fff"/>
   <path d="m221.63 137.79c0.24866-0.26812 1.0293-0.69851 1.0293-0.69851l0.71478 0.80864" fill="#fff"/>
   <path d="m211.54 122.57c1.4648 1.0234 3.0923 1.2708 5.4028 6.0018" fill="none"/>
   <g fill="#fff">
    <path d="m210.23 138.05 1.0202-1.1542 0.88144 1.1334"/>
    <path d="m215.52 137.17c0.0768 0.11719 0.95691 1.4062 0.95691 1.4062l1.0593-1.1934"/>
    <path d="m187.48 122.04c0.77078 0.55079 1.694 1.4134 2.3782 2.9721"/>
   </g>
   <path d="m210.4 152.94c-1.0312-0.42372-3.6014-2.2583-4.7727-4.2876" fill="none"/>
   <path d="m162.92 123.11c-0.56119-0.83264-1.2285-1.4089-1.959-0.74278" fill="none"/>
   <g fill="#fff">
    <path d="m218.8 139.72c1.5794-2.8827 3.8939-6.8977 5.2629-9.4718 1.3698-2.5749 3.886-6.0702 4.8221-6.5786 0.93625-0.50905 5.2817-0.36519 5.7923 0.36452 0.51039 0.72919-1.2506 0.91998-2.7122 2.2513-1.4609 1.332-4.4147 7.3065-5.5721 9.3656-0.66011 1.1738-2.3802 4.2871-4.0091 7.0714"/>
    <path d="m224.03 134.19c-0.43812-0.15826-1.0345 0.12173-1.1862 0.31373-0.15226 0.19346-0.75451 3.6887-0.75451 3.6887l-1.0404 4.8697 2.0442 0.73825 1.6282-8.7836s-0.32613-0.69531-0.69132-0.82678z"/>
    <path d="m228.56 147.84 1.2813-20.79s-0.14973-0.62239-0.84891-0.55145c-0.69932 0.0716-1.0892 0.30012-1.1713 0.76558l-1.2486 17.374z"/>
    <path d="m233.02 153.08c-2.0878-0.79625-3.3892-2.7479-5.1489-5.4816"/>
    <path d="m232.11 151.28c1.082 0.55399 2.8593 1.347 4.1072 0.73758 1.2474-0.60932 3.1952-1.3678 4.9269-3.9907"/>
    <path d="m242.91 141.07c0.53452 0.1836 1.2434-0.14386 1.4056-0.91864 0.1628-0.77465-0.67051-2.9557-0.67051-2.9557l-0.78519 0.92384-0.48625 2.2468s0.0723 0.54425 0.53639 0.70371z"/>
    <path d="m227.03 138.08c0.16147-0.65825 0.59186-1.0424 1.0182-0.99997 0.42638 0.0429 1.0846 0.20506 1.1165 0.98104"/>
    <path d="m248.75 132.16c-1.5632 2.7786-5.36 12.663-7.2518 15.75-1.8913 3.0871-3.403 4.2636-5.0155 5.1281-1.392 0.74611-3.1074 0.28119-3.9335 0.0664-0.82558-0.2148-1.864 0.18946-3.1061 0.17773-1.2416-0.012-3.1978-1.0644-5.246-3.464-2.0474-2.3997-5.4009-8.9503-6.6177-11.653-1.2168-2.7023-4.4647-9.5628-5.7883-11.852-1.3241-2.289-2.5774-2.875-3.7232-3.0365-1.5761-0.22133-2.8821 1.112-3.9276 2.2402l1.1562-1.9557c1.2109-2.1621 3.2526-1.9876 4.1042-1.7468 0.85211 0.24093 2.0962-0.0579 3.1835-0.1256 1.0878-0.0671 2.0122 0.63999 3.8554 2.7526 1.843 2.1132 4.1183 7.8779 5.6411 10.997 1.5234 3.1191 3.4992 7.6391 5.3339 10.683 1.8346 3.0449 3.5318 4.1471 4.9192 5.1692 0.62239-0.1492 2.3196-1.7897 2.3196-1.7897 1.7806-2.2604 5.6216-9.6684 7.6515-14.298"/>
    <path d="m233.88 151.92 0.85291-27.675-1.9062-0.89771-0.72465 27.781z"/>
   </g>
   <path d="m232.34 151.29c0.74665 0.42119 2.1431 1.2037 3.5363 0.86065 2.2305-0.54825 3.9042-2.4994 5.2147-4.2975" fill="none"/>
   <path d="m238.17 149.01c0.54292 0.0827 1.009 9e-3 1.1692-0.45506 0.15893-0.46425 0.55599-18.002 0.55599-18.002l-1.9889-3.123-0.50639 20.951s0.22786 0.54558 0.77011 0.62825z" fill="#fff"/>
   <path d="m233.69 122.73c1.4648 1.0221 3.093 1.2701 5.4028 6.0012" fill="none"/>
   <path d="m232.38 138.21 1.0201-1.1549 0.88212 1.134" fill="#fff"/>
   <path d="m237.67 137.33c0.0768 0.1172 0.95704 1.4062 0.95704 1.4062l1.0592-1.1933" fill="#fff"/>
   <path d="m232.55 153.1c-1.0306-0.42386-3.6008-2.259-4.772-4.2876" fill="none"/>
   <g fill="#fff">
    <path d="m249.53 131.4c1.7272-1.9928 2.5891-4.5799 4.3143-5.1548"/>
    <path d="m240.95 139.72c1.5794-2.8827 3.8938-6.8977 5.2629-9.4718 1.3697-2.5749 3.8859-6.0702 4.8222-6.5786 0.93611-0.50905 5.2817-0.36519 5.7921 0.36452 0.51105 0.72919-1.2506 0.91998-2.7115 2.2513-1.4616 1.332-4.4152 7.3065-5.5728 9.3656-0.65945 1.1738-2.3801 4.2871-4.009 7.0714"/>
    <path d="m246.17 134.19c-0.43812-0.15826-1.0344 0.12173-1.1861 0.31373-0.1524 0.19346-0.75452 3.6887-0.75452 3.6887l-1.0404 4.8697 2.0442 0.73825 1.6282-8.7836s-0.32679-0.69531-0.69145-0.82678z"/>
    <path d="m250.69 147.84 1.2813-20.79s-0.14973-0.62239-0.84905-0.55145c-0.69918 0.0716-1.0892 0.30012-1.1712 0.76558l-1.2493 17.374z"/>
    <path d="m255.15 153.08c-2.088-0.79625-3.3892-2.7479-5.1491-5.4816"/>
    <path d="m254.24 151.28c1.0814 0.55399 2.8599 1.347 4.1074 0.73758 1.2473-0.60932 3.1952-1.3678 4.9269-3.9907"/>
    <path d="m265.04 141.07c0.53452 0.1836 1.2434-0.14386 1.4056-0.91864 0.1628-0.77465-0.67051-2.9557-0.67051-2.9557l-0.78519 0.92384-0.48692 2.2468s0.0729 0.54425 0.53706 0.70371z"/>
    <path d="m249.16 138.08c0.16147-0.65825 0.59186-1.0424 1.0182-0.99997 0.42638 0.0429 1.0846 0.20506 1.1165 0.98104"/>
    <path d="m270.88 132.16c-1.5624 2.7786-5.3592 12.663-7.251 15.75-1.8913 3.0871-3.403 4.2636-5.0156 5.1281-1.3918 0.74611-3.1072 0.28119-3.9328 0.0664-0.82611-0.2148-1.8652 0.18946-3.1066 0.17773-1.2416-0.012-3.1986-1.0644-5.246-3.464-2.0476-2.3997-5.4009-8.9503-6.6177-11.653-1.2168-2.7023-4.4647-9.5628-5.7883-11.852-1.3242-2.289-2.5774-2.875-3.7232-3.0365-1.5761-0.22133-2.8827 1.112-3.9276 2.2402l1.1562-1.9557c1.2102-2.1621 3.2533-1.9876 4.1047-1.7468 0.85158 0.24093 2.0957-0.0579 3.1835-0.1256 1.0872-0.0671 2.0117 0.63999 3.8547 2.7526 1.8432 2.1132 4.1178 7.8779 5.6412 10.997s3.4992 7.6391 5.3339 10.683c1.834 3.0449 3.5318 4.1471 4.9191 5.1692 0.62239-0.1492 2.3197-1.7897 2.3197-1.7897 1.7798-2.2604 5.6216-9.6684 7.6514-14.298"/>
    <path d="m256.01 151.92 0.85411-27.675-1.9062-0.89771-0.72518 27.781z"/>
   </g>
   <path d="m254.47 151.29c0.74611 0.42119 2.1433 1.2037 3.5371 0.86065 2.2297-0.54825 3.9035-2.4994 5.214-4.2975" fill="none"/>
   <path d="m260.31 149.01c0.54226 0.0827 1.0084 9e-3 1.1678-0.45506 0.16013-0.46425 0.55665-18.002 0.55665-18.002l-1.9889-3.123-0.50652 20.951s0.22786 0.54558 0.77091 0.62825z" fill="#fff"/>
   <path d="m255.83 122.73c1.4648 1.0221 3.0923 1.2701 5.4028 6.0012" fill="none"/>
   <path d="m254.51 138.21 1.0202-1.1549 0.88211 1.134" fill="#fff"/>
   <path d="m259.8 137.33c0.0761 0.1172 0.95691 1.4062 0.95691 1.4062l1.0586-1.1933" fill="#fff"/>
   <path d="m254.68 153.1c-1.0312-0.42386-3.6014-2.259-4.7726-4.2876" fill="none"/>
   <g fill="#fff">
    <path d="m271.67 131.4c1.7272-1.9928 2.5897-4.5799 4.3143-5.1548"/>
    <path d="m272.24 131.4c1.7272-1.9928 2.5898-4.5799 4.3143-5.1548"/>
    <path d="m263.65 139.72c1.5794-2.8827 3.8939-6.8977 5.2629-9.4718 1.3698-2.5749 3.886-6.0702 4.8222-6.5786 0.93624-0.50905 5.2817-0.36519 5.7922 0.36452 0.51106 0.72919-1.2506 0.91998-2.7115 2.2513-1.4616 1.332-4.4154 7.3065-5.5728 9.3656-0.65959 1.1738-2.3802 4.2871-4.0091 7.0714"/>
    <path d="m268.88 134.19c-0.43812-0.15826-1.0345 0.12173-1.1862 0.31373-0.15226 0.19346-0.75451 3.6887-0.75451 3.6887l-1.0397 4.8697 2.0436 0.73825 1.6282-8.7836s-0.32613-0.69531-0.69132-0.82678z"/>
    <path d="m273.4 147.84 1.2813-20.79s-0.14973-0.62239-0.84891-0.55145c-0.69932 0.0716-1.0892 0.30012-1.1713 0.76558l-1.2486 17.374z"/>
    <path d="m277.87 153.08c-2.0885-0.79625-3.3899-2.7479-5.1496-5.4816"/>
    <path d="m276.95 151.28c1.0814 0.55399 2.8594 1.347 4.1067 0.73758 1.2474-0.60932 3.1953-1.3678 4.927-3.9907"/>
    <path d="m287.75 141.07c0.53452 0.1836 1.2434-0.14386 1.4056-0.91864 0.1628-0.77465-0.67052-2.9557-0.67052-2.9557l-0.78518 0.92384-0.48625 2.2468s0.0723 0.54425 0.53639 0.70371z"/>
    <path d="m271.87 138.08c0.1608-0.65825 0.59185-1.0424 1.0182-0.99997 0.42639 0.0429 1.0846 0.20506 1.1165 0.98104"/>
    <path d="m293.6 132.16c-1.5618 2.7786-5.3593 12.663-7.2505 15.75-1.892 3.0871-3.4036 4.2636-5.0161 5.1281-1.392 0.74611-3.1074 0.28119-3.9328 0.0664-0.82624-0.2148-1.8653 0.18946-3.1067 0.17773-1.2416-0.012-3.1978-1.0644-5.2453-3.464-2.0481-2.3997-5.4016-8.9503-6.6184-11.653-1.2168-2.7023-4.464-9.5628-5.7883-11.852-1.3241-2.289-2.5774-2.875-3.7231-3.0365-1.5762-0.22133-2.8822 1.112-3.9278 2.2402l1.1562-1.9557c1.2109-2.1621 3.2532-1.9876 4.1048-1.7468 0.85145 0.24093 2.0962-0.0579 3.1834-0.1256 1.0873-0.0671 2.0117 0.63999 3.8554 2.7526 1.8432 2.1132 4.1171 7.8779 5.6412 10.997 1.5228 3.1191 3.4986 7.6391 5.3332 10.683 1.8346 3.0449 3.5318 4.1471 4.9192 5.1692 0.62239-0.1492 2.3196-1.7897 2.3196-1.7897 1.7806-2.2604 5.6216-9.6684 7.6515-14.298"/>
    <path d="m278.72 151.92 0.85358-27.675-1.9062-0.89771-0.72531 27.781z"/>
   </g>
   <path d="m277.17 151.29c0.74664 0.42119 2.1431 1.2037 3.5363 0.86065 2.2305-0.54825 3.9048-2.4994 5.2147-4.2975" fill="none"/>
   <path d="m283.03 149.01c0.54226 0.0827 1.009 9e-3 1.1685-0.45506 0.15959-0.46425 0.55598-18.002 0.55598-18.002l-1.9889-3.123-0.50639 20.951s0.22786 0.54558 0.77078 0.62825z" fill="#fff"/>
   <path d="m278.53 122.73c1.4654 1.0221 3.093 1.2701 5.4028 6.0012" fill="none"/>
   <path d="m277.23 138.21 1.0196-1.1549 0.88211 1.134" fill="#fff"/>
   <path d="m282.51 137.33c0.0761 0.1172 0.95704 1.4062 0.95704 1.4062l1.0585-1.1933" fill="#fff"/>
   <path d="m277.4 153.1c-1.0313-0.42386-3.6015-2.259-4.7727-4.2876" fill="none"/>
   <g fill="#fff">
    <path d="m294.37 131.4c1.7272-1.9928 2.5898-4.5799 4.3143-5.1548"/>
    <path d="m294.95 131.4c1.7272-1.9928 2.5898-4.5799 4.3144-5.1548"/>
    <path d="m286.36 139.72c1.5793-2.8827 3.8938-6.8977 5.2635-9.4718 1.3692-2.5749 3.8854-6.0702 4.8215-6.5786 0.93625-0.50905 5.2819-0.36519 5.7923 0.36452 0.51105 0.72919-1.2506 0.91998-2.7115 2.2513-1.4616 1.332-4.4152 7.3065-5.5728 9.3656-0.65945 1.1738-2.3802 4.2871-4.0083 7.0714"/>
    <path d="m291.59 134.19c-0.43812-0.15826-1.0345 0.12173-1.1862 0.31373-0.15226 0.19346-0.75384 3.6887-0.75384 3.6887l-1.0404 4.8697 2.0437 0.73825 1.6282-8.7836s-0.32626-0.69531-0.69145-0.82678z"/>
    <path d="m296.12 147.84 1.2805-20.79s-0.14906-0.62239-0.84824-0.55145c-0.69985 0.0716-1.0898 0.30012-1.1718 0.76558l-1.2488 17.374z"/>
    <path d="m300.57 153.08c-2.0885-0.79625-3.3899-2.7479-5.1496-5.4816"/>
    <path d="m299.65 151.28c1.0813 0.55399 2.8593 1.347 4.1066 0.73758 1.2474-0.60932 3.1952-1.3678 4.9271-3.9907"/>
    <path d="m310.47 141.07c0.53385 0.1836 1.2436-0.14386 1.4049-0.91864 0.16279-0.77465-0.67052-2.9557-0.67052-2.9557l-0.78505 0.92384-0.48705 2.2468s0.0729 0.54425 0.53772 0.70371z"/>
    <path d="m294.57 138.08c0.16146-0.65825 0.59172-1.0424 1.0181-0.99997 0.42652 0.0429 1.0853 0.20506 1.1165 0.98104"/>
    <path d="m316.31 132.16c-1.5612 2.7786-5.3592 12.663-7.2505 15.75-1.8918 3.0871-3.4035 4.2636-5.0155 5.1281-1.3925 0.74611-3.1074 0.28119-3.9335 0.0664-0.82611-0.2148-1.8645 0.18946-3.1067 0.17773-1.2414-0.012-3.1978-1.0644-5.2453-3.464-2.0474-2.3997-5.4015-8.9503-6.6182-11.653-1.2168-2.7023-4.4642-9.5628-5.7883-11.852-1.3242-2.289-2.5774-2.875-3.7232-3.0365-1.5762-0.22133-2.8821 1.112-3.9276 2.2402l1.1569-1.9557c1.2102-2.1621 3.2524-1.9876 4.104-1.7468 0.85145 0.24093 2.0962-0.0579 3.1835-0.1256 1.0872-0.0671 2.0117 0.63999 3.8554 2.7526 1.843 2.1132 4.1178 7.8779 5.6411 10.997 1.5228 3.1191 3.4987 7.6391 5.3332 10.683 1.8346 3.0449 3.5319 4.1471 4.9192 5.1692 0.62239-0.1492 2.3195-1.7897 2.3195-1.7897 1.7806-2.2604 5.6216-9.6684 7.6522-14.298"/>
    <path d="m301.44 151.92 0.85411-27.675-1.9062-0.89771-0.72532 27.781z"/>
   </g>
   <path d="m299.89 151.29c0.74665 0.42119 2.1432 1.2037 3.537 0.86065 2.2298-0.54825 3.9042-2.4994 5.2141-4.2975" fill="none"/>
   <path d="m305.73 149.01c0.54226 0.0827 1.009 9e-3 1.1686-0.45506 0.15946-0.46425 0.55599-18.002 0.55599-18.002l-1.9889-3.123-0.50652 20.951s0.22786 0.54558 0.77078 0.62825z" fill="#fff"/>
   <path d="m301.24 122.73c1.4654 1.0221 3.093 1.2701 5.4036 6.0012" fill="none"/>
   <path d="m299.93 138.21 1.0194-1.1549 0.88211 1.134" fill="#fff"/>
   <path d="m305.21 137.33c0.0761 0.1172 0.95704 1.4062 0.95704 1.4062l1.0585-1.1933" fill="#fff"/>
   <path d="m300.11 153.1c-1.0306-0.42386-3.6008-2.259-4.772-4.2876" fill="none"/>
   <g fill="#fff">
    <path d="m317.08 131.4c1.7278-1.9928 2.5898-4.5799 4.3138-5.1548"/>
    <path d="m317.67 131.4c1.7265-1.9928 2.5885-4.5799 4.3136-5.1548"/>
    <path d="m309.07 139.72c1.5801-2.8827 3.8938-6.8977 5.2636-9.4718 1.3697-2.5749 3.8852-6.0702 4.8215-6.5786 0.93611-0.50905 5.2824-0.36519 5.7928 0.36452 0.51039 0.72919-1.2513 0.91998-2.7122 2.2513-1.4609 1.332-4.4152 7.3065-5.5728 9.3656-0.66012 1.1738-2.3801 4.2871-4.009 7.0714"/>
    <path d="m314.29 134.19c-0.43879-0.15826-1.0352 0.12173-1.1861 0.31373-0.1524 0.19346-0.75519 3.6887-0.75519 3.6887l-1.0404 4.8697 2.0442 0.73825 1.6289-8.7836s-0.32679-0.69531-0.69145-0.82678z"/>
    <path d="m318.83 147.84 1.2812-20.79s-0.14973-0.62239-0.84892-0.55145c-0.69918 0.0716-1.0885 0.30012-1.1705 0.76558l-1.2486 17.374z"/>
    <path d="m323.28 153.08c-2.0872-0.79625-3.3892-2.7479-5.1483-5.4816"/>
    <path d="m322.36 151.28c1.082 0.55399 2.8593 1.347 4.1067 0.73758 1.2473-0.60932 3.1952-1.3678 4.9269-3.9907"/>
    <path d="m333.17 141.07c0.53385 0.1836 1.2434-0.14386 1.4049-0.91864 0.16266-0.77465-0.67065-2.9557-0.67065-2.9557l-0.78505 0.92384-0.48572 2.2468s0.0716 0.54425 0.53652 0.70371z"/>
    <path d="m317.29 138.08c0.16013-0.65825 0.59106-1.0424 1.0181-0.99997 0.42586 0.0429 1.0846 0.20506 1.116 0.98104"/>
    <path d="m339.01 132.16c-1.5612 2.7786-5.3592 12.663-7.2498 15.75-1.8918 3.0871-3.4035 4.2636-5.0168 5.1281-1.3918 0.74611-3.1067 0.28119-3.9322 0.0664-0.82678-0.2148-1.8658 0.18946-3.1067 0.17773-1.2421-0.012-3.1991-1.0644-5.2459-3.464-2.0469-2.3997-5.4016-8.9503-6.6184-11.653-1.2168-2.7023-4.4642-9.5628-5.7883-11.852-1.3236-2.289-2.5774-2.875-3.7232-3.0365-1.5761-0.22133-2.8821 1.112-3.9276 2.2402l1.1569-1.9557c1.2102-2.1621 3.2524-1.9876 4.104-1.7468 0.85158 0.24093 2.0964-0.0579 3.1835-0.1256 1.0872-0.0671 2.0124 0.63999 3.8554 2.7526 1.843 2.1132 4.1171 7.8779 5.6405 10.997 1.5233 3.1191 3.4999 7.6391 5.3344 10.683 1.8333 3.0449 3.5312 4.1471 4.9192 5.1692 0.62238-0.1492 2.319-1.7897 2.319-1.7897 1.7812-2.2604 5.6223-9.6684 7.6521-14.298 2.9166-6.6548 5.7916-11.254 8.9542-12.403l2.5873 3.4491c-1.7253 0.57492-2.5873 3.1621-4.3151 5.1548"/>
    <path d="m324.15 151.92 0.85411-27.675-1.9062-0.89771-0.72518 27.781z"/>
   </g>
   <path d="m322.6 151.29c0.74611 0.42119 2.1431 1.2037 3.5363 0.86065 2.2305-0.54825 3.9036-2.4994 5.2148-4.2975" fill="none"/>
   <g fill="#fff">
    <path d="m328.44 149.01c0.54306 0.0827 1.0092 9e-3 1.1693-0.45506 0.15879-0.46425 0.55598-18.002 0.55598-18.002l-1.9896-3.123-0.50652 20.951s0.22786 0.54558 0.77078 0.62825z"/>
    <path d="m338.88 143.63 0.91664-12.232s-0.24599-0.36319-0.87104-0.40359c-0.62372-0.0404-0.86451 0.38799-0.94784 1.2409-0.0847 0.85344-0.88545 8.7602-0.88545 8.7602z"/>
    <path d="m337.49 137.95c0.24866-0.26826 1.0286-0.69852 1.0286-0.69852l0.71478 0.80852"/>
    <path d="m340.24 148.77c-3.608-4.4895-7.4192-11.233-8.6678-14.222-2.1263-5.0911-3.1991-6.4986-5.0416-8.7922-1.841-2.2942-3.8619-2.0546-5.1027-2.0657-1.2422-0.012-4.1354 2.2513-5.2864 3.5859l1.7696-2.4674c0.94264-1.1302 1.6601-1.7572 2.9074-2.3665 1.2474-0.60945 2.2786-0.18559 3.3111 0.0305 1.0326 0.21679 1.9701-0.39519 3.6236-0.17253 1.6537 0.22199 4.0116 2.6243 6.0506 5.9556 2.039 3.3307 5.8632 12.777 10.282 18.688z"/>
   </g>
   <path d="m323.95 122.73c1.4649 1.0221 3.0938 1.2701 5.4036 6.0012" fill="none"/>
   <path d="m322.64 138.21 1.0196-1.1549 0.88278 1.134" fill="#fff"/>
   <path d="m327.93 137.33c0.0769 0.1172 0.95704 1.4062 0.95704 1.4062l1.0586-1.1933" fill="#fff"/>
   <path d="m322.81 153.1c-1.0312-0.42386-3.6015-2.259-4.7734-4.2876" fill="none"/>
  </g>
 </g>
 <path d="m233.08 328.36c2.1772 6.5332 2.3952 11.76 0.65307 14.373-1.7423 2.6132 13.72 0.43546 16.333 0 2.6132-0.4356-4.7911-8.2755-2.1777-13.066 2.6132-4.7911-14.809-1.3067-14.809-1.3067z" fill="#fff"/>
 <path d="m203.51 292.03c-7.4738 5.7492-14.373 28.746 8.6234 31.046 22.997 2.2995 39.095 9.7739 31.621 30.471-7.4738 20.697-37.37 34.495-32.195 52.892" fill="none" stroke="#000" stroke-width="2.6666"/>
 <path d="m213.24 412.45c-1.8457-2.5338-4.6243-5.5403-7.132-7.1821l5.2192 0.38145 4.2544-3.0455c-1.2838 2.7083-2.0878 6.7225-2.3417 9.8462z" stroke-width="1.3333"/>
 <path d="m264.35 152.58c1.7252 9.4867 12.936 2.5878 4.3124 24.147" fill="none" stroke="#000" stroke-width="2.6666"/>
 <path d="m216.38 209.65c-0.416 1.5208-0.10227 3.7753-0.10227 3.7753l5.9115 0.43293 0.33533-3.5996z"/>
 <path d="m223.44 210.53c-0.41533 1.5209-0.10213 3.7761-0.10213 3.7761l5.9115 0.43227 0.33587-3.5996z"/>
 <path d="m294.08 183.81c-0.86 2.8359-4.0651 14.357-8.8196 17.734-3.7468 2.6615-17.995 5.8439-26.634 6.836-8.6387 0.99147-20.111 2.2981-26.15 2.7981-3.7188 0.308-1.6231 3.36-1.6231 3.36l6.5892-0.70693c6.5885-0.7064 27.938-3.4643 33.416-4.6439 5.4785-1.1791 12.392-2.558 16.326-5.8216 4.5957-3.8112 8.8035-13.343 9.2299-17.791z"/>
 <g stroke="#000">
  <g fill="#fff">
   <g stroke-width="1.3333">
    <path d="m287.98 222.41-1.1315-7.4909-0.89 1.1608-1.1041-0.61133 1.1419 7.2077c-0.0507 0.3568 0.2052 0.80667 1.0756 0.62174 0.8704-0.18494 0.90814-0.888 0.90814-0.888z"/>
    <path d="m223.74 193.8 1.0097 7.5084 0.90826-1.1457 1.0944 0.6288-1.0241-7.2252c0.0567-0.35547-0.192-0.80987-1.0651-0.63867-0.8744 0.17054-0.9232 0.8724-0.9232 0.8724z"/>
    <path d="m272.45 187.97 1.0097 7.5092 0.90827-1.1465 1.0944 0.6296-1.0248-7.226c0.0567-0.35547-0.19133-0.80987-1.0651-0.63867-0.87373 0.17067-0.92253 0.8724-0.92253 0.8724z"/>
    <path d="m247.15 190.86 1.0099 7.5092 0.90813-1.1465 1.0937 0.6296-1.024-7.226c0.0567-0.35547-0.19147-0.8092-1.0652-0.63867-0.8736 0.17067-0.92254 0.8724-0.92254 0.8724z"/>
    <path d="m239.29 191.62 0.43934 6.5573 1.2084 0.96094 0.80466-1.4343-0.4596-6.2747c0.0637-0.35426-0.17453-0.81386-1.0515-0.66146-0.87694 0.1516-0.94134 0.85213-0.94134 0.85213z"/>
    <path d="m281.52 187.63 0.43946 6.5573 1.2089 0.9616 0.804-1.4349-0.4596-6.2741c0.0639-0.3548-0.17387-0.81373-1.0515-0.662-0.87693 0.1516-0.94133 0.85214-0.94133 0.85214z"/>
    <path d="m231.71 192.59 0.54694 6.9961s0.19786 0.73626 1.1425 0.6008c1.1081-0.15814 0.88213-1.0201 0.88213-1.0201l-0.5748-6.7141c0.0344-0.3216-0.10813-0.79827-0.99613-0.7104-0.888 0.0873-1.0007 0.84773-1.0007 0.84773z"/>
    <path d="m263.96 188.89 0.5468 6.996s0.19787 0.73706 1.1425 0.6016c1.1081-0.15827 0.88227-1.0208 0.88227-1.0208l-0.57493-6.7136c0.0345-0.3216-0.108-0.79814-0.99614-0.71094-0.888 0.0879-1.0005 0.84774-1.0005 0.84774z"/>
    <path d="m255.41 189.59 0.912 7.6965s-0.0735-1.11 0.8588-1.3144c1.0937-0.23893 1.1301 0.7468 1.1301 0.7468l-0.9192-7.4128c0.0107-0.32293-0.16667-0.78773-1.0456-0.63547-0.8796 0.15307-0.93613 0.91934-0.93613 0.91934z"/>
    <path d="m244.53 231.81-0.5332-7.558-0.9792 1.0867-1.052-0.69733 0.56574 7.2761c-0.0795 0.35147 0.14 0.82027 1.0228 0.70507s0.97586-0.81254 0.97586-0.81254z"/>
    <path d="m290.86 190.93 1.1685 9.5411s-0.0729-1.1095 0.8588-1.3132c1.0937-0.2396 1.1301 0.74614 1.1301 0.74614l-1.1757-9.2579c0.0107-0.32293-0.16667-0.7884-1.0456-0.63533-0.87894 0.15293-0.93614 0.9192-0.93614 0.9192z"/>
    <path d="m226.8 232.93 0.47013-7.5619-1.0241-1.1556-1.0411 1.2728-0.40093 7.2871c-0.1244 0.338 0.0305 0.83146 0.9212 0.834 0.89 3e-3 1.0748-0.6764 1.0748-0.6764z"/>
    <path d="m253.29 231.39-0.56706-7.5553-1.1719-1.0052-0.85747 1.4037 0.5984 7.2728c-0.0776 0.35213 0.14387 0.8196 1.026 0.7004 0.88214-0.11907 0.972-0.8164 0.972-0.8164z"/>
    <path d="m279.88 225.8-1.1757-7.4851-1.2493-0.9068-0.7416 1.468 1.1836 7.2012c-0.0481 0.3568 0.2096 0.80534 1.0801 0.6152 0.86906-0.19 0.90293-0.89253 0.90293-0.89253z"/>
    <path d="m217.03 229.79 2.1211-5.9511s0.0925-0.75653-0.83387-0.98573c-1.0867-0.26894-1.2012 0.6152-1.2012 0.6152l-1.9883 5.6999c-0.1524 0.2852-0.19867 0.78067 0.6568 1.0325 0.85613 0.25133 1.2455-0.4108 1.2455-0.4108z"/>
    <path d="m262.15 229.57-0.944-7.3379s-0.248-0.7208-1.1809-0.52147c-1.0951 0.23374-0.81053 1.0787-0.81053 1.0787l0.9524 7.0541c-0.012 0.32347 0.1628 0.78974 1.0429 0.64054 0.8796-0.1484 0.94014-0.914 0.94014-0.914z"/>
    <path d="m210.4 221.39 2.9805-7.1536s-0.4812 1.0027-1.3932 0.72333c-1.0704-0.32747-0.61853-1.2044-0.61853-1.2044l-2.8347 6.9101c-0.168 0.27667-0.24146 0.7688 0.5996 1.0664 0.8412 0.29814 1.2663-0.34186 1.2663-0.34186z"/>
    <path d="m270.93 228.49-1.0456-8.1321s0.0567 0.7832-0.87494 0.9876c-1.0939 0.2396-1.1133-0.42053-1.1133-0.42053l1.0521 7.8489c0.164-0.274 0.76947-0.42387 1.0156-0.45893 0.246-0.0352 0.96614 0.17506 0.96614 0.17506z"/>
    <path d="m235.82 232.78-0.0275-8.1999s-0.0416 0.78506-0.99147 0.87173c-1.1145 0.10213-1.0528-0.55533-1.0528-0.55533l0.0697 7.9185c0.19667-0.25133 0.8164-0.32413 1.0651-0.3288 0.24813-4e-3 0.93693 0.29373 0.93693 0.29373z"/>
   </g>
   <path d="m133.75 204.35c1.0449 1.2591 2.1849 1.8607 3.1061 2.4251s3.0019 0.79226 3.7753 1.1041c0.7748 0.3112 2.6491 0.9128 3.3496 1.0984 0.70053 0.1848 4.6667 0.16147 6.3581-0.56973 1.692-0.7304 5.6491-2.974 6.7297-4.0025 1.144-1.0899 6.8217-7.1908 8.6569-9.2748 1.8347-2.0847 6.78-7.8437 7.754-7.4792 0 0 1.4537 0.17 1.2857-0.40946-0.168-0.58014-4.3483-3.3959-6.0508-1.8119-1.7024 1.584-5.1927 5.4792-6.4687 7.0691-1.2761 1.5899-7.2689 8.1803-9.9219 10.011-3.1407 2.168-5.9493 3.888-10.195 4.1588-2.5697-1.2135-4.4167-3.9492-5.1323-4.8873-0.71547-0.93813-0.0475-0.22653-0.95894 0.38933-0.91146 0.6152-3.4244 0.80787-2.2877 2.1791z" stroke-width=".8"/>
   <g stroke-width="1.3333">
    <path d="m152.42 198.39-0.5736 6.4316c-0.1628 0.91987-1.1868 1.4525-1.8137 0.4844l0.94787-14.842"/>
    <path d="m157.47 195.38 2.3835 3.4388c0.31186 0.64454-0.42054 1.8965-1.2773 1.1888-0.85613-0.70826-1.6197-4.2012-1.6197-4.2012z"/>
    <path d="m158.41 201.25 7.0443-10.262s0.8692-0.252 1.2208 0.24227c0.3508 0.49413-0.0365 1.3548-0.0365 1.3548l-7.0488 10.582"/>
    <path d="m162.27 209.74 3.778-10.967 4.2396-11.803c0.4544-0.2012 1.6947-0.0339 1.7617 0.62573l-8.1296 24.104z"/>
   </g>
  </g>
  <path d="m143.2 208.65c7e-3 1e-3 0.0144-3e-3 0.0163-9e-3 3e-3 -0.012 5e-3 -0.0189-8e-3 -0.0215-2.7455-0.92587-5.11-2.9681-6.5547-5.4772l-1e-3 7e-3" fill="none" stroke-width=".8"/>
  <g fill="#fff">
   <g stroke-width="1.3333">
    <path d="m150.71 194.97 0.72987 1.0359 0.51946-0.14387"/>
    <path d="m161.31 196.96c0.29494-0.2032 0.8972-0.2052 1.1953 0.0344 0.29826 0.2396 0.586 0.51574 0.39 1.1068"/>
    <path d="m166.42 197.95 0.48707 1.6537 1.4251-0.98826"/>
   </g>
   <path d="m145.32 181.18c-0.084-0.92187 1.3132-2.5429 2.0984-3.0853 0.78573-0.5416 1.412-0.48374 1.7597-0.17774 0.3476 0.306 1.3685 0.89654 2.0957 0.98174 0.72654 0.0847 2.0651-0.52534 2.9277 0.66546 0.47453 0.65494 0.87293 2.3717 1.2037 3.9569 0.33013 1.586 1.2943 8.4767 1.8815 11.522 0.58786 3.0448 1.8119 7.3287 3.194 11.012 1.3828 3.6829 3.4089 6.1445 4.8568 6.7409 1.2331-0.2096 3.4981-0.6816 6.1863-2.7552 1.7539-1.3523 4.3724-3.5469 6.2988-5.6152 2.2408-2.4056 5.4727-5.7265 7.4336-7.8855 1.9609-2.1576 5.2611-4.9257 6.2936-5.1888 1.0325-0.2624 5.2089 0.94734 5.5241 1.78 0.31507 0.832-1.4388 0.58334-3.1829 1.5143-1.7443 0.93107-6.0781 5.9948-7.7071 7.7057-1.6289 1.7103-7.892 8.4056-9.7416 9.7369-1.8503 1.3315-5.4635 4.1237-8.9785 3.1953-1.8013-0.4752-3.0227-1.1191-4.3763-1.2617-1.3535-0.1432-3.7024-0.97787-5.6021-3.5129-1.8997-2.5352-3.2344-5.9916-4.5528-10.728-1.3184-4.7371-2.2188-12.497-2.6588-15.473-0.11533-0.78-0.336-1.1595-0.47786-1.8392-0.66414 0.8952-0.5964 1.4485-1.6179 0.85747-1.0215-0.59054-2.7487-0.93947-2.8581-2.1459z" stroke-width=".8"/>
   <path d="m141.85 206.51 1.8171 0.72 3.9141-13.61 2.5787-9.1601-0.9212-4.418z" stroke-width="1.3333"/>
  </g>
  <path d="m159.3 204.86c0.94214 2.8171 2.5203 5.9635 3.6133 7.2955 1.0931 1.3321 2.8067 2.7481 4.5527 3.1283" fill="none" stroke-width=".8"/>
  <path d="m165.34 212.8c1.4519 0.78453 3.4695 1.9596 6.2084 1.3177 2.7383-0.642 5.6516-3.1641 6.968-4.502" fill="none" stroke-width=".8"/>
  <g fill="#fff">
   <g stroke-width="1.3333">
    <path d="m168.99 213.76c0.61654 0.0723 0.84507 0.14253 1.0944-0.1928l5.2799-22.127-1.3444-3.7265-5.7564 25.453s0.1816 0.52933 0.72653 0.5932z"/>
    <path d="m176.37 209.53c0.4504 0.11853 1.0195-0.2128 1.1543-0.41787 0.13414-0.20507 0.42574-3.7409 0.42574-3.7409l1.142-11.017-2.1009-0.55533-1.3828 14.968s0.38667 0.664 0.76174 0.76294z"/>
    <path d="m184.26 200.34c-0.38546-0.26106-1.032-0.1368-1.2273 0.012-0.19467 0.14974-1.6387 3.39-1.6387 3.39l-2.2076 4.4629 1.7995 1.2188 3.7408-8.112s-0.14507-0.75467-0.46667-0.972z"/>
    <path d="m185.28 214.69 6.36-19.835s8e-3 -0.64-0.6868-0.7436c-0.69533-0.1028-1.1296 0.0228-1.3236 0.45386l-5.4883 16.533z"/>
   </g>
   <g stroke-width=".8">
    <path d="m188.31 220.87c-1.8281-1.2857-2.6088-3.4987-3.6413-6.5807"/>
    <path d="m187.86 218.9c0.91213 0.80267 2.4401 2.0091 3.7995 1.7259 1.3593-0.28387 3.4336-0.53907 5.7579-2.6543"/>
    <path d="m200.86 211.66c0.47267 0.30933 1.2403 0.16667 1.5885-0.5436 0.3484-0.71093 0.0775-3.0305 0.0775-3.0305l-0.98826 0.7024-1.0247 2.0573s-0.0639 0.5456 0.34693 0.8144z"/>
   </g>
   <g stroke-width="1.3333">
    <path d="m145.56 193.06c0.3932-0.27466 0.668-0.40293 1.1185-0.28386 0.45053 0.11853 0.85733 0.4004 0.9004 0.8464"/>
    <path d="m171.23 199.82c-0.0637 0.5456 0.32293 1.2096 0.77346 1.3281 0.45054 0.1184 0.96227-0.1472 1.168-0.77547"/>
    <path d="m186.19 204.86c0.31906-0.59827 0.8308-0.86453 1.2331-0.718 0.40307 0.1464 1.0013 0.4648 0.84054 1.2252"/>
   </g>
   <path d="m223.53 191.94c-5.9317 1.1113-11.462 3.6041-13.52 5.1556-1.64 1.2369-5.2077 4.7259-8.2975 8.7272-3.0905 4.0007-8.6549 10.221-10.937 11.974 0 0-2.0488 1.172-2.6888 1.1635-1.0931-1.3327-2.4668-2.8191-3.4955-6.2213-1.028-3.4024-1.8307-8.2701-2.5384-11.668-0.70893-3.3984-1.4941-9.5463-2.7604-12.047-1.2663-2.502-1.9883-3.4155-3.0585-3.6172-1.0704-0.2032-2.3509-0.21947-3.1165-0.66214-0.76626-0.44333-2.7025-1.1152-4.4083 0.68227l-1.6028 1.6107c1.2916-0.83654 2.8853-1.8072 4.3587-1.2044 1.0709 0.43813 2.1413 1.3151 2.8613 3.86 0.71946 2.5443 2.1777 9.9935 2.6921 12.912 0.5136 2.9187 2.1516 10.094 3.5448 12.924 1.394 2.83 3.0307 4.3327 4.2319 4.6497 1.2005 0.31707 2.3072 0.18093 3.0547 0.59173 0.74734 0.41214 2.2956 1.2852 3.8288 0.9044 1.7753-0.44146 3.5299-1.2091 6.1236-3.7351 2.5939-2.5267 8.7077-11.173 10.906-13.481 2.4435-2.5657 3.8659-4.4095 6.476-6.8365 1.0899-1.0124 3.9876-2.8301 8.3964-3.8085" stroke-width=".8"/>
   <path d="m189.43 219.96 7.6419-26.615-1.6269-1.3392-7.5429 26.748z" stroke-width="1.3333"/>
  </g>
  <path d="m188.09 218.96c0.61986 0.59186 1.7807 1.694 3.2161 1.7051 2.2963 0.0176 4.3992-1.4609 6.112-2.8821" fill="none" stroke-width=".8"/>
  <g fill="#fff">
   <g stroke-width="1.3333">
    <path d="m194.31 218.2c0.50587 0.21346 0.976 0.2572 1.2448-0.15307 0.26894-0.4108 4.972-17.312 4.972-17.312l-1.1595-3.5169-5.6491 20.183s0.0865 0.58453 0.59173 0.7988z"/>
    <path d="m205.76 215.55 3.9003-11.629s-0.14973-0.41334-0.74533-0.60614c-0.59507-0.19266-0.93294 0.16347-1.2247 0.96947-0.2916 0.806-3.0149 8.2728-3.0149 8.2728z"/>
    <path d="m205.81 209.69c0.30733-0.19933 1.17-0.42387 1.17-0.42387l0.49346 0.9596"/>
   </g>
   <path d="m217.51 229.77c-5.3764-2.5963-5.946-5.9355-7.5151-9.7175-2.8281-6.8164-4.2089-16.914-5.3645-20.645-1.1563-3.7304-2.8503-6.6393-4.3979-7.2623-1.5481-0.6224-2.6073-0.25987-3.5553-0.724-0.94786-0.4648-1.8424-1.1289-3.2017-0.84574-1.3595 0.28387-2.2091 0.7148-3.4004 1.5775l-2.3223 1.9564c1.444-1.0104 4.8053-2.4915 6.0059-2.1745 1.2005 0.31706 3.218 0.58213 4.4381 3.2592 1.22 2.6764 1.914 4.3047 2.7207 9.7624 0.474 3.2051 2.5079 10.68 4.8997 15.919 3.1537 6.9095 7.2755 10.048 11.02 11.679" stroke-width=".8"/>
  </g>
  <path d="m196.43 191.62c1.168 1.3523 2.6843 1.9929 3.7591 7.1472" fill="none" stroke-width=".8"/>
  <g fill="#fff">
   <path d="m191.35 206.3 1.2721-0.86853 0.57614 1.3164" stroke-width="1.3333"/>
   <path d="m196.69 206.74c0.0455 0.13226 0.58134 1.5984 0.58134 1.5984l1.3203-0.89587" stroke-width="1.3333"/>
   <path d="m173.25 185.18c0.612 0.72333 1.2943 1.7864 1.5736 3.4661" stroke-width=".8"/>
  </g>
  <path d="m187.85 220.77c-0.8952-0.664-2.9343-3.0755-3.5703-5.3307" fill="none" stroke-width=".8"/>
  <path d="m149.18 180.16c-0.3392-0.946-0.8444-1.668-1.7161-1.2025" fill="none" stroke-width=".8"/>
  <g fill="#fff">
   <path d="m217.38 195.63 0.91213 7.6965s-0.0729-1.1093 0.8588-1.3137c1.0937-0.2396 1.1295 0.74667 1.1295 0.74667l-0.91854-7.4127c0.0107-0.32293-0.16733-0.78853-1.0463-0.63547-0.87894 0.15294-0.9356 0.91867-0.9356 0.91867z" stroke-width="1.3333"/>
   <path d="m211.59 198.19-0.4408 6.3021s0.11467 0.75387 1.0684 0.72587c1.1185-0.0339 0.99094-0.916 0.99094-0.916l0.3808-6.0248c0.0704-0.31574-0.0183-0.80587-0.9108-0.8176-0.89187-0.012-1.0885 0.7304-1.0885 0.7304z" stroke-width="1.3333"/>
   <path d="m216.83 232.55c11.129 3.2845 36.106 1.0671 44.865-0.5684 8.7585-1.6348 25.404-6.6653 30.182-8.3737 0.78586-0.2812 4.4017-2.9108 5.5176-3.9016 0.54173-0.4812 3.4629-2.9004 4.7416-4.2272 1.278-1.3275 4.0631-4.9239 4.6633-6.2904 0.6348-1.4467 3.5183-9.2656 4.4063-11.897 0.888-2.6315 3.2279-9.8521 4.2683-9.8925 0 0 1.4063-0.40426 1.0273-0.8744-0.37893-0.46933-5.3216-1.4544-6.2812 0.66414-0.95973 2.1184-2.6759 7.0592-3.2396 9.0183-0.56386 1.9589-3.5488 10.351-5.2891 13.064-2.0612 3.2123-2.3783 6.1979-9.4219 11.147-5.0736 2.5859-19.96 6.7448-26.024 8.2141-6.0651 1.47-38.514 5.5619-48.741 1.1321" stroke-width=".8"/>
   <g stroke-width="1.3333">
    <path d="m300.19 205.43 1.9524 6.1543c0.20573 0.91146-0.53373 1.7983-1.4856 1.1472l-4.8536-14.058"/>
    <path d="m303.69 200.72 3.5261 2.2527c0.53574 0.474 0.34374 1.9115-0.72013 1.5892-1.0631-0.32226-3.1159-3.25-3.1159-3.25z"/>
    <path d="m306.82 205.77 2.5384-12.185s0.7044-0.56773 1.2187-0.24746c0.51573 0.3204 0.4896 1.2644 0.4896 1.2644l-2.4185 12.482"/>
    <path d="m313.66 212.1-0.74614-11.575-0.64453-12.524c0.34253-0.36133 1.5508-0.68613 1.8672-0.1028l1.8021 25.374z"/>
    <path d="m297.3 202.94 1.0736 0.67373 0.42373-0.33333"/>
    <path d="m307.84 200.69c0.19346-0.3008 0.7488-0.5352 1.116-0.42907 0.36706 0.10547 0.74013 0.25 0.78706 0.8704"/>
    <path d="m312.94 199.63 1.0872 1.3379 0.9336-1.4616"/>
   </g>
   <path d="m223.53 191.94c3.2089-0.9688 20.233-1.7676 27.967-3.2604 7.7331-1.4929 25.04-3.2709 29.84-3.3112 4.8008-0.0404 9.806-0.10946 13.235 2.0104 0.68747 0.42507 1.72 1.8503 2.6373 3.1855 0.91666 1.336 4.4649 7.3211 6.1823 9.9031 1.7175 2.5827 4.4995 6.0619 7.1967 8.9257 2.6967 2.8647 5.5156 4.3536 7.0808 4.3444 1.0572-0.6692 2.9648-1.9792 4.6444-4.9291 1.0951-1.9244 2.6641-4.9596 3.6433-7.6113 1.1393-3.0839 2.8385-7.3951 3.8151-10.143 0.97653-2.748 2.9519-6.5748 3.8033-7.2155 0.8516-0.64133 5.1707-1.1368 5.7827-0.49027 0.6132 0.64587-1.1016 1.0931-2.3516 2.6251-1.25 1.5325-3.2929 7.8763-4.1368 10.083-0.8424 2.2063-4.0364 10.8-5.2291 12.742-1.1928 1.942-3.448 5.9128-7.0495 6.4135-1.8451 0.25587-3.2201 0.134-4.5248 0.524-1.3033 0.39-3.7916 0.52667-6.5235-1.0788-2.7304-1.6055-5.2961-4.2792-8.3399-8.1399-3.0443-3.8607-6.8697-10.673-8.4237-13.248-0.4076-0.67506-0.75787-0.93946-1.1511-1.5117-2.5176-3.082-6.5397-4.0012-10.111-4.1321-3.5704-0.1308-21.228 1.9212-27.378 2.776-6.1504 0.85493-27.101 2.7215-30.558 3.4109" stroke-width=".8"/>
  </g>
  <path d="m309.04 208.75c1.9569 2.2357 4.6263 4.5287 6.1484 5.336 1.5235 0.80734 3.6497 1.4519 5.4076 1.1296" fill="none" stroke-width=".8"/>
  <path d="m317.67 213.74c1.6432 0.16413 3.9583 0.4688 6.2356-1.1797 2.2787-1.6491 3.9935-5.1001 4.6915-6.8431" fill="none" stroke-width=".8"/>
  <g fill="#fff">
   <g stroke-width="1.3333">
    <path d="m321.41 213.22c0.5964-0.17186 0.83467-0.19466 0.93493-0.60026l-3.668-22.451-2.6784-2.9193 4.5117 25.703s0.3724 0.41853 0.89973 0.26693z"/>
    <path d="m326.59 206.47c0.46093-0.0644 0.858-0.5892 0.9036-0.83067 0.0443-0.2416-1.0508-3.6152-1.0508-3.6152l-3.1979-10.605-2.1524 0.29893 4.5 14.342s0.61334 0.4636 0.99747 0.41013z"/>
    <path d="m330.32 194.95c-0.45694-0.0924-1.0052 0.27213-1.1276 0.48506-0.1224 0.2128-0.2044 3.7597-0.2044 3.7597l-0.31374 4.9693 2.1301 0.42973 0.3204-8.9271s-0.42454-0.64-0.8048-0.7168z"/>
    <path d="m336.8 207.79-1.7877-20.753s-0.23827-0.59387-0.91934-0.42067c-0.68226 0.1732-1.0339 0.45707-1.0468 0.92907l1.3164 17.37z"/>
   </g>
   <path d="m341.98 212.32c-2.1824-0.4804-3.7565-2.2207-5.8985-4.6653" stroke-width=".8"/>
   <path d="m340.81 210.68c1.1511 0.38866 3.026 0.91213 4.1705 0.1256 1.1445-0.78574 2.9596-1.8216 4.2877-4.6705" stroke-width=".8"/>
   <path d="m318.1 199.5c0.15106 0.52733 0.7644 0.99013 1.2253 0.9264 0.46213-0.0639 0.83067-0.5072 0.77853-1.166" stroke-width="1.3333"/>
   <path d="m333.85 198.37c0.0639-0.6744 0.43226-1.1177 0.86066-1.138 0.4284-0.0208 1.1029 0.0424 1.2487 0.806" stroke-width="1.3333"/>
   <path d="m348.04 196.16c-1.306 4.8835-3.5379 9.8789-4.9675 12.376 0 0-1.4375 1.8717-2.0313 2.1107-1.5221-0.8072-3.3632-1.6484-5.6249-4.3899-2.2617-2.7423-4.8803-6.9232-6.8451-9.7845s-5.0625-8.2299-7.1967-10.049c-2.1328-1.8191-3.1509-2.3828-4.2173-2.1563-1.0652 0.22654-2.2527 0.70507-3.1303 0.59174-0.8776-0.1132-2.9232 0.0144-3.8033 2.3308l-0.8568 2.1041c0.8684-1.2701 1.9648-2.7805 3.556-2.7923 1.1575-9e-3 2.4831 0.386 4.1289 2.4557 1.6457 2.0703 5.8659 8.3795 7.4673 10.874 1.6003 2.4941 5.8803 8.4819 8.2579 10.555 2.3776 2.0723 4.4675 2.8268 5.6979 2.6561 1.2305-0.1712 2.198-0.72387 3.0469-0.6328 0.8476 0.0912 2.6133 0.29947 3.8801-0.64387 1.4675-1.0917 2.7904-2.4772 4.2084-5.8092 1.418-3.3313 1.2617-3.8164 2.3984-6.7949z" stroke-width=".8"/>
   <path d="m342.66 211.05-3.2213-27.501-2.0169-0.608 3.3647 27.587z" stroke-width="1.3333"/>
  </g>
  <path d="m341.04 210.65c0.8008 0.30666 2.2969 0.87573 3.6251 0.33213 2.1249-0.86987 3.4948-3.0456 4.526-5.0176" fill="none" stroke-width=".8"/>
  <path d="m346.48 207.54c0.54946 1e-3 1-0.13933 1.0885-0.62173 0.0899-0.48307-2.0937-17.889-2.0937-17.889l-2.4257-2.7976 2.5768 20.8s0.306 0.50653 0.85414 0.50853z" fill="#fff" stroke-width="1.3333"/>
  <path d="m348.75 186.23c-2.6132-2.9017-5.1913-5.0255-6.8593-5.0027s-2.5065 0.76627-3.5599 0.70374c-1.0535-0.0624-2.1355-0.33-3.28 0.4564-1.1445 0.7852-1.7617 1.5111-2.5273 2.7669l-1.388 2.7005c0.94266-1.4896 3.4713-4.1523 4.7017-4.3236 1.2292-0.17053 3.1928-0.70506 5.3516 1.2936 2.1589 1.9988 3.4271 3.2332 6.2773 7.9571l3.582-2.0495s-0.638-2.6601-2.2981-4.5025z" fill="#fff" stroke-width=".8"/>
  <path d="m338.18 182.21c1.5991 0.79613 3.2461 0.80267 6.2267 5.1425" fill="none" stroke-width=".8"/>
  <g fill="#fff">
   <path d="m339.16 197.71 0.83987-1.2923 1.0391 0.99213" stroke-width="1.3333"/>
   <path d="m344.26 196.06c0.0925 0.1048 1.1524 1.25 1.1524 1.25l0.8724-1.3359" stroke-width="1.3333"/>
   <path d="m314.31 185.21c0.84374 0.43094 1.8841 1.1484 2.7891 2.5899" stroke-width=".8"/>
  </g>
  <path d="m341.52 212.41c-1.082-0.2676-3.8945-1.7051-5.3503-3.5403" fill="none" stroke-width=".8"/>
  <path d="m296.27 217.94-0.94333-7.338s-0.248-0.72133-1.1816-0.52146c-1.0944 0.2344-0.80987 1.0788-0.80987 1.0788l0.95174 7.054c-0.012 0.3236 0.16346 0.78906 1.0431 0.64066 0.88014-0.1484 0.94-0.914 0.94-0.914z" fill="#fff" stroke-width="1.3333"/>
  <g fill="none" stroke-width=".8">
   <path d="m301.8 214.19c-1.9179 1.9909-4.4199 5.3821-13.823 8.2227"/>
   <path d="m294.76 196.2c-2.4648-4.2024-4.332-9.7415-11.861-9.7923"/>
   <path d="m205.98 201.33c2.6648-2.2507 8.3021-6.7956 18.318-8.0312"/>
   <path d="m210.42 222.03c0.8456 2.7039 3.5201 9.5417 10.605 10.908"/>
  </g>
  <g fill="#fff" stroke-width="1.3333">
   <path d="m287.86 201.34 5.0013 6.1348s-0.6028-0.93427 0.112-1.5665c0.8392-0.74014 1.3503 0.1036 1.3503 0.1036l-4.8705-5.8828c-0.14774-0.28774-0.5292-0.60747-1.2225-0.0469-0.69413 0.5612-0.37053 1.2579-0.37053 1.2579z"/>
   <path d="m225.57 213.28-0.1316 7.5755 1.0704-0.99666 0.98693 0.78706 0.0749-7.2976c0.10933-0.34306-0.0677-0.82933-0.95707-0.7916-0.88933 0.0371-1.0436 0.72334-1.0436 0.72334z"/>
   <path d="m218.56 212.05-1.0553 7.6777s0.2084-1.0917 1.1621-1.0547c1.1185 0.0436 0.9056 1.0065 0.9056 1.0065l0.97653-7.4049c0.0919-0.31053 0.0371-0.80467-0.85226-0.87827-0.8892-0.0736-1.1367 0.6536-1.1367 0.6536z"/>
   <path d="m274.09 207.65 1.0097 7.5091 0.9088-1.1465 1.0937 0.6296-1.024-7.2252c0.0565-0.35614-0.19213-0.81-1.0652-0.63934-0.8736 0.1712-0.92306 0.8724-0.92306 0.8724z"/>
   <path d="m248.48 211.31 1.0104 7.5091 0.90813-1.1464 1.0937 0.62947-1.024-7.2259c0.0567-0.35547-0.19146-0.8092-1.0652-0.63867-0.8736 0.1712-0.92306 0.8724-0.92306 0.8724z"/>
   <path d="m240.62 212.07 0.4388 6.5573 1.2089 0.96094 0.80467-1.4343-0.46027-6.2748c0.0644-0.35413-0.17386-0.81373-1.0508-0.66147-0.8776 0.15174-0.94133 0.85227-0.94133 0.85227z"/>
   <path d="m282.3 205.46 1.4687 6.4063 1.3451 0.7584 0.5684-1.5436-1.444-6.1231c7e-3 -0.36-0.3008-0.776-1.1425-0.48827-0.84254 0.2884-0.7956 0.99027-0.7956 0.99027z"/>
   <path d="m233.04 213.04 0.54627 6.9961s0.19853 0.73693 1.1432 0.60147c1.1081-0.15814 0.88213-1.0208 0.88213-1.0208l-0.5748-6.7136c0.0345-0.3216-0.10813-0.79814-0.99613-0.71027-0.888 0.0879-1.0007 0.84707-1.0007 0.84707z"/>
   <path d="m265.28 209.34 0.5468 6.9961s0.19867 0.73627 1.1427 0.60094c1.108-0.15827 0.8828-1.0208 0.8828-1.0208l-0.57494-6.7136c0.0339-0.3216-0.10866-0.79814-0.99666-0.71027-0.88747 0.0872-1.0007 0.8476-1.0007 0.8476z"/>
   <path d="m256.74 210.04 0.91147 7.6959s-0.0729-1.1093 0.85933-1.3131c1.0931-0.2396 1.1296 0.746 1.1296 0.746l-0.91866-7.412c0.0107-0.3236-0.16734-0.78907-1.0463-0.63614-0.87893 0.15294-0.93547 0.91934-0.93547 0.91934z"/>
  </g>
 </g>
 <path d="m266.35 182.53c0.0795-3.1334-0.29426-7.2101-1.2837-10.04l3.908 3.4804 5.2297 0.17506c-2.6679 1.3665-5.7498 4.0611-7.8541 6.3846z" stroke-width="1.3333"/>
 <path d="m232.44 237.97c-10.349 6.0364-31.909 7.7615-37.082 25.009" fill="none" stroke="#000" stroke-width="2.6666"/>
 <path d="m193.56 268.96c-0.19986-3.1282-0.93424-7.1554-2.1713-9.8858l4.2018 3.119 5.2239-0.29092c-2.5358 1.5989-5.3657 4.5559-7.2544 7.0577z" stroke-width="1.3333"/>
 <path d="m293.42 441.48c-28.513 1.6824-35.482 54.856-22.977 73.28 12.506 18.425 41.964 12.749 50.126 2.03 8.1601-10.719 11.713-77.603-27.149-75.31z" fill="#cfcfcf"/>
 <g stroke="#000">
  <g fill="#fff" stroke-width="1.3333">
   <path d="m376.06 483.55-1.7943-11.883-1.4115 1.8411-1.7513-0.9687 1.81 11.432c-0.0795 0.565 0.32547 1.2786 1.7069 0.9857 1.3803-0.2931 1.4401-1.4076 1.4401-1.4076z"/>
   <path d="m307.14 498.46-0.8464-11.988-1.5527 1.7227-1.6687-1.1055 0.8972 11.54c-0.12507 0.5573 0.222 1.3008 1.6224 1.1185s1.5481-1.2877 1.5481-1.2877z"/>
   <path d="m279.01 500.24 0.74546-11.993-1.6237-1.8347-1.6511 2.0208-0.636 11.557c-0.198 0.5364 0.0481 1.319 1.4596 1.323 1.4121 0 1.7057-1.073 1.7057-1.073z"/>
   <path d="m321.03 497.8-0.89973-11.984-1.8595-1.5938-1.3593 2.2252 0.94787 11.536c-0.1224 0.5587 0.22786 1.3008 1.6276 1.112 1.3997-0.1901 1.5431-1.2956 1.5431-1.2956z"/>
   <path d="m363.21 488.93-1.8659-11.872-1.9804-1.44-1.1759 2.3293 1.8776 11.422c-0.0781 0.5664 0.332 1.2773 1.7109 0.9766 1.3803-0.3021 1.4336-1.4154 1.4336-1.4154z"/>
   <path d="m263.53 495.26 3.3639-9.4401s0.14654-1.2005-1.3223-1.5637c-1.7232-0.4259-1.9049 0.9765-1.9049 0.9765l-3.1543 9.0391c-0.24214 0.453-0.31574 1.2396 1.0417 1.638 1.358 0.3997 1.9759-0.6498 1.9759-0.6498z"/>
   <path d="m335.09 494.91-1.4961-11.639s-0.39453-1.1432-1.8736-0.8268c-1.7371 0.3711-1.2852 1.7123-1.2852 1.7123l1.5104 11.188c-0.0195 0.513 0.25907 1.2513 1.6536 1.0169 1.3959-0.2357 1.4909-1.4505 1.4909-1.4505z"/>
   <path d="m253.01 481.94 4.7272-11.348s-0.7624 1.5898-2.2096 1.147c-1.698-0.5194-0.9812-1.9113-0.9812-1.9113l-4.496 10.961c-0.26627 0.4388-0.3828 1.22 0.9512 1.6927 1.3339 0.4727 2.0084-0.5417 2.0084-0.5417z"/>
   <path d="m349.02 493.19-1.6575-12.9s0.0897 1.2435-1.3893 1.5677c-1.7344 0.3802-1.7657-0.668-1.7657-0.668l1.6693 12.451c0.2604-0.435 1.2213-0.6719 1.6107-0.7279s1.5325 0.2773 1.5325 0.2773z"/>
   <path d="m293.33 499.99-0.0436-13.005s-0.0657 1.2448-1.5729 1.3828c-1.7676 0.1615-1.6687-0.8815-1.6687-0.8815l0.11013 12.561c0.31187-0.3997 1.2949-0.5156 1.6888-0.5221 0.39387-0.01 1.4863 0.4648 1.4863 0.4648z"/>
   <path d="m158.31 439.96 0.45254-7.0912"/>
   <path d="m169.05 440.68 3.7805 5.4544c0.49413 1.0221-0.66667 3.0077-2.026 1.8853-1.3587-1.1236-2.5697-6.664-2.5697-6.664z"/>
   <path d="m178.29 444.21-5.8769 8.823"/>
   <path d="m170.54 449.99 4.9732-7.246"/>
   <path d="m186 446.64-6.7188 19.919-2.6172-3.1093 5.9929-17.395"/>
   <path d="m158.34 440.02 1.1575 1.6418 0.82426-0.2278"/>
   <path d="m175.14 443.18c0.46747-0.3216 1.4225-0.3242 1.8959 0.055 0.47266 0.3803 0.9296 0.8191 0.61906 1.7552"/>
   <path d="m183.25 444.75 0.77214 2.6224 2.2604-1.5677"/>
  </g>
  <path d="m149.78 418.15c-0.1328-1.4623 2.0833-4.0339 3.3288-4.8932 1.2461-0.8595 2.2403-0.7669 2.7911-0.2813 0.55134 0.4844 2.1712 1.4218 3.3241 1.5559 1.1531 0.1355 3.2755-0.8333 4.6445 1.056 0.752 1.0391 1.3841 3.7618 1.9083 6.2762 0.52466 2.5156 2.0533 13.445 2.9851 18.276 0.93227 4.8294 2.8736 11.624 5.0664 17.465 2.1927 5.8425 5.4061 9.7474 7.7031 10.693 1.9557-0.332 5.5488-1.082 9.8125-4.3697 2.7812-2.1459 6.9355-5.6263 9.9908-8.9076 3.5541-3.8151 8.6797-9.0833 11.791-12.506 3.1107-3.4232 8.3444-7.8139 9.9817-8.2305 1.638-0.4167 8.2624 1.5026 8.7624 2.8229 0.50067 1.3203-2.2812 0.9257-5.0481 2.4024-2.7669 1.4765-9.6407 9.5091-12.225 12.221-2.584 2.7135-12.518 13.333-15.452 15.445-2.9343 2.1118-8.6655 6.5402-14.241 5.0689-2.8568-0.7552-4.7943-1.776-6.9415-2.0025-2.1471-0.2267-5.8724-1.5508-8.8853-5.5718-3.0131-4.0208-5.1309-9.5038-7.222-17.017-2.0912-7.5116-3.5189-19.822-4.2168-24.542-0.18293-1.2369-0.5332-1.8385-0.75787-2.9167-1.054 1.4194-0.946 2.297-2.5664 1.3607-1.6197-0.9375-4.36-1.4909-4.5339-3.4049z" stroke-width=".8"/>
  <path d="m153.36 437.89 4.0904-14.53-1.4609-7.0065-5.4941 19.68" fill="#fff" stroke-width="1.3333"/>
  <path d="m171.96 455.71c1.4941 4.4701 3.9968 9.4597 5.7305 11.573 1.7344 2.1134 4.4524 4.3582 7.2213 4.9623" fill="none" stroke-width=".8"/>
  <path d="m181.54 468.3c2.3028 1.2448 5.5039 3.1082 9.8471 2.0899 4.3431-1.0169 8.9641-5.0181 11.053-7.1405" fill="none" stroke-width=".8"/>
  <g fill="#fff">
   <g stroke-width="1.3333">
    <path d="m190.7 448.88-4.5247 20.006s0.28774 0.8397 1.1523 0.9413c0.97853 0.1134 1.3412 0.2266 1.7364-0.306l4.7532-19.92"/>
    <path d="m199.03 463.11c0.71427 0.1888 1.6172-0.3373 1.8301-0.6628 0.2136-0.3254 0.67574-5.9336 0.67574-5.9336l1.8119-17.475-3.3327-0.8802-2.1933 23.741s0.61334 1.0533 1.2083 1.2109z"/>
    <path d="m211.54 448.55c-0.612-0.4141-1.6375-0.2175-1.9467 0.02-0.3092 0.2371-2.6003 5.3764-2.6003 5.3764l-3.5007 7.0793 2.8541 1.9336 5.9336-12.867s-0.2304-1.1965-0.74013-1.5416z"/>
    <path d="m218.29 455.34 4.9713-15.504s0.0133-1.0143-1.0899-1.1784c-1.1023-0.164-1.7923 0.036-2.0996 0.7188l-4.9043 14.775"/>
   </g>
   <path d="m237.87 466.49c0.75 0.4909 1.9675 0.2643 2.5195-0.8633 0.55213-1.1276 0.12306-4.806 0.12306-4.806l-1.5676 1.1146-1.6251 3.2631s-0.1016 0.8645 0.55013 1.2916z" stroke-width=".8"/>
   <g stroke-width="1.3333">
    <path d="m150.16 437c0.6244-0.4349 1.0599-0.6393 1.7741-0.4505 0.71413 0.1888 1.36 0.6368 1.4284 1.3437"/>
    <path d="m190.87 447.72c-0.10093 0.8647 0.5124 1.918 1.2265 2.1068 0.71427 0.1888 1.5261-0.2344 1.8523-1.2292"/>
    <path d="m214.61 455.7c0.5052-0.9493 1.3171-1.3712 1.9557-1.1393 0.63934 0.233 1.5885 0.7382 1.3333 1.944"/>
    <path d="m226.08 457.63 5.7943-20.18-2.5801-2.125-6.0852 21.579"/>
    <path d="m234.35 459.86c1.6107-5.7174 2.996-10.695 2.996-10.695l-1.8379-5.5781-4.3033 15.374"/>
    <path d="m245.64 472.67 6.1863-18.445s-0.2376-0.655-1.1817-0.961c-0.944-0.306-1.4804 0.2591-1.9427 1.5378-0.46294 1.2786-4.7819 13.122-4.7819 13.122z"/>
    <path d="m245.73 463.38c0.4876-0.3151 1.8548-0.6719 1.8548-0.6719l0.7832 1.5221"/>
   </g>
  </g>
  <path d="m264.28 495.22c-8.5268-4.1186-9.4311-9.4154-11.92-15.414-4.4856-10.811-6.6757-26.828-8.5091-32.745-1.8333-5.9167-4.5203-10.531-6.9759-11.518-2.4552-0.9883-4.1355-0.4128-5.6388-1.1497-1.5032-0.7371-2.9224-1.7904-5.0787-1.3412-2.1556 0.4505-3.504 1.1341-5.3927 2.5026l-3.6843 3.1015c2.2904-1.6015 7.6219-3.9504 9.5261-3.4479 1.9049 0.5027 5.1048 0.9232 7.0397 5.1694 1.9348 4.246 3.0357 6.8281 4.3157 15.486 0.75133 5.0833 3.9779 16.939 7.7715 25.25 5.002 10.958 11.54 15.937 17.479 18.523" stroke-width=".8"/>
  <path d="m230.85 434.71c1.8529 2.1445 4.2585 3.1627 5.9629 11.337" fill="none" stroke-width=".8"/>
  <path d="m222.8 457.99 2.0183-1.3763 0.91334 2.0872" fill="#fff" stroke-width="1.3333"/>
  <path d="m231.27 458.7c0.0716 0.2097 0.92187 2.5352 0.92187 2.5352l2.0944-1.4205" fill="#fff" stroke-width="1.3333"/>
  <path d="m155.9 416.54c-0.53773-1.5-1.3385-2.6445-2.722-1.9063" fill="none" stroke-width=".8"/>
  <path d="m263.21 499.63c17.653 5.211 57.27 1.6927 71.162-0.8997 13.892-2.5937 40.294-10.573 47.872-13.282 1.246-0.4467 6.9817-4.6172 8.7525-6.1888 0.85933-0.7631 5.4923-4.6003 7.5196-6.7058 2.0285-2.1041 6.4465-7.8086 7.3971-9.9765 1.0065-2.2956 5.582-14.698 6.9896-18.871 1.4088-4.1731 5.1211-15.626 6.7696-15.69 0 0 2.2304-0.642 1.6301-1.3868-0.6016-0.7448-8.4413-2.3072-9.9635 1.0535-1.5209 3.3606-4.2436 11.196-5.1381 14.303-0.89453 3.1081-5.6288 16.419-8.3893 20.723-3.2695 5.095-3.7721 9.8306-14.944 17.681-8.0481 4.1016-31.659 10.697-41.279 13.029-9.6199 2.3308-61.089 8.8216-77.312 1.7956" stroke-width=".8"/>
  <g fill="#fff">
   <g stroke-width="1.3333">
    <path d="m390.99 453.21 5.1759 14.994c1.5104 1.0325 2.6823-0.3738 2.358-1.8191l-3.0976-9.7617-0.98053-5.2474-1.9075 2.3542"/>
    <path d="m399.69 448.18 6.8776 4.5298c0.85027 0.7514 0.54547 3.0314-1.1407 2.5196-1.6875-0.5104-6.9115-4.0586-6.9115-4.0586z"/>
    <path d="m407.71 448.69 2.2644-10.87s1.1172-0.901 1.9336-0.3932 0.776 2.0052 0.776 2.0052l-1.8776 9.694"/>
    <path d="m415.6 448.84-1.0209-19.866c0.54307-0.5717 2.4597-1.0873 2.9609-0.1628l1.3907 19.574"/>
    <path d="m390.84 452.66 1.7019 1.0678 0.6732-0.5287"/>
    <path d="m407.56 449.09c0.3072-0.4766 1.1875-0.8477 1.7708-0.681 0.582 0.168 1.1732 0.3972 1.2473 1.3802"/>
    <path d="m415.65 447.41 1.7252 2.1224 1.4792-2.319"/>
    <path d="m427.19 447.32-2.4363-14.91-4.2487-4.6302 3.4975 19.922"/>
    <path d="m437.3 458.26c0.73173-0.1003 1.362-0.9336 1.4323-1.3177 0.0716-0.3816-1.6667-5.7344-1.6667-5.7344l-5.0716-16.82-3.4153 0.4752 7.1393 22.747s0.97253 0.7358 1.582 0.6499z"/>
    <path d="m443.21 440c-0.72387-0.1459-1.5951 0.4323-1.7877 0.7696-0.194 0.3385-0.32427 5.9635-0.32427 5.9635l-0.49733 7.8828 3.3789 0.681 0.50773-14.16s-0.6744-1.0143-1.2773-1.1367z"/>
    <path d="m448.73 443.87 0.90494 11.935 3.8659 4.5586-1.4219-16.504"/>
   </g>
   <path d="m461.71 467.55c-3.4623-0.7617-5.9596-3.5221-9.3568-7.3997" stroke-width=".8"/>
   <path d="m459.85 464.94c1.8268 0.6172 4.8008 1.4467 6.6159 0.1992 1.8151-1.246 4.694-2.8893 6.8008-7.4088" stroke-width=".8"/>
   <path d="m423.83 447.21c0.24094 0.8373 1.2123 1.5716 1.944 1.4701 0.73187-0.1016 1.3177-0.8046 1.2344-1.8489" stroke-width="1.3333"/>
   <path d="m448.81 445.41c0.0989-1.0716 0.68493-1.7735 1.3647-1.806 0.6796-0.033 1.75 0.068 1.9804 1.2786" stroke-width="1.3333"/>
  </g>
  <path d="m471.32 441.91c-2.0716 7.746-5.6107 15.671-7.8776 19.632 0 0-2.28 2.9688-3.2227 3.3476-2.4153-1.2799-5.3347-2.6145-8.9219-6.9635-3.5885-4.3489-7.7409-10.98-10.858-15.52-3.1172-4.5377-8.0287-13.053-11.413-15.939-3.3841-2.8853-5-3.7798-6.6901-3.4205-1.6901 0.3581-3.5743 1.1172-4.9661 0.9388-1.392-0.1797-4.6368 0.022-6.0325 3.6967l-1.3595 3.3372c1.3776-2.0143 3.1159-4.4102 5.6407-4.4298 1.8359-0.014 3.9388 0.6134 6.5495 3.8959 2.6107 3.2839 9.3047 13.292 11.844 17.247 2.5377 3.9558 9.3268 13.453 13.099 16.741 3.7709 3.2877 7.086 4.4844 9.0377 4.2136 1.9505-0.2722 3.4857-1.1486 4.8321-1.004 1.3463 0.1445 4.1457 0.4753 6.1563-1.0208 2.3281-1.7318 4.4257-3.9298 6.6744-9.2135 2.2475-5.2852 2.0013-6.0548 3.8047-10.779z" stroke-width=".8"/>
  <path d="m457.17 442.94 2.6537 21.764 2.9739 0.8295-2.5897-22.12" fill="#fff" stroke-width="1.3333"/>
  <path d="m460.22 464.89c1.2695 0.4871 3.6432 1.3893 5.75 0.5273 3.3711-1.3801 5.5429-4.8306 7.1796-7.9582" fill="none" stroke-width=".8"/>
  <g fill="#fff" stroke-width="1.3333">
   <path d="m465.44 442.47 2.0677 16.685s0.4844 0.8033 1.3555 0.806c0.86973 0 1.5847-0.2201 1.7265-0.9857 0.0795-0.4232-0.94787-9.0755-1.8801-16.715"/>
   <path d="m457.24 444.36 1.3307-2.0494 1.6484 1.5729"/>
   <path d="m465.33 441.75c0.14706 0.1666 1.8293 1.983 1.8293 1.983l1.3828-2.1185"/>
  </g>
  <path d="m460.98 467.69c-1.7161-0.4244-6.1759-2.7044-8.4871-5.6146" fill="none" stroke-width=".8"/>
  <path d="m389.21 476.45-1.4973-11.639s-0.3932-1.1434-1.8737-0.827c-1.7356 0.3712-1.2851 1.7111-1.2851 1.7111l1.5104 11.189c-0.0196 0.5129 0.25906 1.2512 1.6536 1.0156 1.3959-0.2357 1.4921-1.4492 1.4921-1.4492z" fill="#fff" stroke-width="1.3333"/>
  <g fill="none">
   <path d="m397.98 470.5c-3.0417 3.1574-7.0092 8.5364-21.925 13.043" stroke-width=".8"/>
   <path d="m253.04 482.94c1.3419 4.2878 5.584 15.134 16.823 17.301" stroke-width=".8"/>
   <g stroke-width="2.6667">
    <path d="m286.18 426.45v17.047h-0.0541c-1.0723-1.5091-2.834-2.4935-4.8261-2.4935-3.2669 0-5.9153 2.6484-5.9153 5.9167 0 3.2669 2.6484 5.9153 5.9153 5.9153 2.0273 0 3.8144-1.0221 4.8803-2.5768v5.5795c-3.8613 1.9309-16.893 10.725-10.887 17.375h31.747c6.0059-6.6497-7.0248-15.444-10.886-17.375v-11.68c0.53907-3.164 5.9525-1.7058 5.9525-3.336s-5.4135-2.8711-5.9525-2.9908v-1.8776c0.25133-1.8946 1.4584-1.8308 2.8932-0.8984 1.0483 1.6561 2.8848 2.7642 4.9896 2.7642 3.2676 0 5.9153-2.6484 5.9153-5.9166 0-3.267-2.6477-5.9154-5.9153-5.9154-1.5149 0-2.8828 0.5872-3.9296 1.5247-1.9037 1.1759-3.644 2.6485-3.9532 1.1915v-20.272"/>
    <path d="m332.24 410.64-1.086 17.013h-0.0547c-0.97386-1.5743-2.6692-2.6694-4.6575-2.7956-3.2604-0.2084-6.0716 2.2656-6.28 5.526-0.20827 3.2604 2.2656 6.0716 5.526 6.28 2.0235 0.1301 3.8712-0.7762 5.0352-2.2604l-0.3568 5.5689c-3.9765 1.6797-17.542 9.6264-11.971 16.646l31.682 2.0234c6.418-6.254-6.026-15.861-9.7565-18.034l0.7448-11.656c0.7396-3.1224 6.0496-1.3216 6.1524-2.9492 0.10413-1.6276-5.2188-3.2109-5.7487-3.3647l0.11973-1.8722c0.37107-1.8751 1.5716-1.7358 2.944-0.7136 0.94147 1.72 2.7032 2.9426 4.8035 3.0768 3.2604 0.2084 6.0729-2.2656 6.2812-5.526 0.2084-3.2604-2.2669-6.0729-5.5273-6.2813-1.5117-0.096-2.914 0.4024-4.0183 1.2709-1.9752 1.052-3.806 2.4114-4.0208 0.9375l1.2917-20.231"/>
    <path d="m395.9 317.21-2.642 16.841-0.0547-8e-3c-0.82426-1.6569-2.4128-2.9024-4.3801-3.2109-3.2279-0.50653-6.2553 1.6992-6.7617 4.9271-0.50654 3.2272 1.7005 6.2545 4.9271 6.7611 2.0039 0.31373 3.9271-0.41867 5.2213-1.7897l-0.86454 5.5131c-4.1147 1.3079-18.352 7.9765-13.448 15.478l15.681 2.4596 15.682 2.4609c6.9635-5.6393-4.5469-16.347-8.0625-18.853l1.8112-11.539c1.0221-3.0416 6.1445-0.76173 6.3972-2.3724 0.25254-1.6113-4.9024-3.6757-5.4167-3.8776l0.29026-1.8541c0.54307-1.8327 1.7253-1.5833 2.9988-0.44014 0.77854 1.7989 2.4205 3.1784 4.5 3.504 3.2279 0.5064 6.2552-1.6992 6.7616-4.9271 0.50654-3.2273-1.6992-6.254-4.9271-6.7605-1.4973-0.23493-2.94 0.1328-4.1184 0.89587-2.0625 0.86653-4.0105 2.0521-4.0899 0.56453l3.1419-20.027"/>
   </g>
  </g>
 </g>
 <path d="m410.11 299.64c1.9531 0 3.5364-1.5833 3.5364-3.5372 0-1.9531-1.5833-3.5364-3.5364-3.5364-1.9532 0-3.5377 1.5833-3.5377 3.5364 0 1.9539 1.5845 3.5372 3.5377 3.5372z"/>
 <path d="m343.58 392.44c1.9532 0 3.5379-1.5833 3.5379-3.5364 0-1.9532-1.5847-3.5377-3.5379-3.5377-1.9531 0-3.5364 1.5845-3.5364 3.5377 0 1.9531 1.5833 3.5364 3.5364 3.5364z"/>
 <path d="m295.55 407.34c1.9531 0 3.5364-1.5834 3.5364-3.5379 0-1.9531-1.5833-3.5364-3.5364-3.5364-1.9537 0-3.5371 1.5833-3.5371 3.5364 0 1.9545 1.5833 3.5379 3.5371 3.5379z"/>
 <path d="m295.42 399.43c1.9532 0 3.5371-1.5833 3.5371-3.5365 0-1.9531-1.5839-3.5364-3.5371-3.5364-1.9531 0-3.5371 1.5833-3.5371 3.5364 0 1.9532 1.584 3.5365 3.5371 3.5365z"/>
 <path d="m296.55 391.14c1.9537 0 3.5371-1.5846 3.5371-3.5378 0-1.9531-1.5833-3.5364-3.5371-3.5364-1.9532 0-3.5365 1.5833-3.5365 3.5364 0 1.9532 1.5833 3.5378 3.5365 3.5378z"/>
 <path d="m293.16 383.23c1.9532 0 3.5371-1.5833 3.5371-3.5364 0-1.9532-1.5839-3.5365-3.5371-3.5365-1.9531 0-3.5371 1.5833-3.5371 3.5365 0 1.9531 1.584 3.5364 3.5371 3.5364z"/>
 <path d="m286.38 378.71c1.9531 0 3.5364-1.5834 3.5364-3.5364 0-1.9532-1.5833-3.5366-3.5364-3.5366-1.9537 0-3.5371 1.5834-3.5371 3.5366 0 1.953 1.5833 3.5364 3.5371 3.5364z"/>
 <path d="m278.47 373.43c1.9532 0 3.5365-1.5833 3.5365-3.5379 0-1.953-1.5833-3.5364-3.5365-3.5364-1.9537 0-3.5371 1.5834-3.5371 3.5364 0 1.9546 1.5833 3.5379 3.5371 3.5379z"/>
 <path d="m274.32 365.14c1.9531 0 3.5371-1.5833 3.5371-3.5365 0-1.9531-1.584-3.5378-3.5371-3.5378-1.9532 0-3.5372 1.5847-3.5372 3.5378 0 1.9532 1.584 3.5365 3.5372 3.5365z"/>
 <path d="m277.71 357.23c1.9537 0 3.5371-1.5834 3.5371-3.5364 0-1.9532-1.5833-3.5366-3.5371-3.5366-1.9531 0-3.5364 1.5833-3.5364 3.5366 0 1.953 1.5833 3.5364 3.5364 3.5364z"/>
 <g fill="#fff" stroke="#000" stroke-width="1.3333">
  <path d="m377.47 362.94-2.138 11.825 1.9297-1.2864 1.3449 1.4831 1.9779-11.405c0.2592-0.5092 0.1068-1.3152-1.2955-1.4831-1.4024-0.1693-1.8191 0.8659-1.8191 0.8659z"/>
  <path d="m390.66 364.38-1.9883 11.852 1.4232 1.9935 1.8529-1.8386 1.8345-11.428c0.25267-0.5129 0.0885-1.3164-1.3151-1.4674s-1.8073 0.8893-1.8073 0.8893z"/>
  <path d="m404.33 367.02-1.5585 11.632s0.49346-1.0183 2.0039-0.9414c1.7735 0.089 1.3177 1.8438 1.3177 1.8438l1.3867-12.141c0.15107-0.4909 0.0729-1.276-1.3359-1.4088s-1.8139 1.0156-1.8139 1.0156z"/>
  <path d="m318.17 457.76-0.71093 11.997 1.6289 1.8282 1.6459-2.0235 0.6028-11.56c0.19533-0.5365-0.0521-1.319-1.4648-1.319-1.4115 0-1.7019 1.0769-1.7019 1.0769z"/>
  <path d="m345.51 459.67-0.5052 11.724s0.194 1.1926 1.7057 1.1328c1.7748-0.07 1.5573-1.4675 1.5573-1.4675l0.41667-11.282c0.10546-0.5014-0.0431-1.2774-1.4571-1.2826-1.4153-0.01-1.7175 1.1758-1.7175 1.1758z"/>
  <path d="m331.28 458.88-0.41546 13s0.10946-1.2421 1.6212-1.3268c1.7721-0.099 1.6367 0.9388 1.6367 0.9388l0.332-12.556c-0.32546 0.3868 1.2825-1.4531-1.2877-1.6511-2.5691-0.1965-1.8867 1.5951-1.8867 1.5951z"/>
  <path d="m276.77 474.26-0.5208 12.006 1.7389-1.5365 1.5325 1.289 0.41866-11.568c0.18747-0.5403-0.0729-1.3177-1.4844-1.2956-1.4121 0.022-1.6849 1.1043-1.6849 1.1043z"/>
  <path d="m302.61 474.01 0.19586 11.05 1.7292 1.7344 1.5293-2.1145-0.28-10.606c0.166-0.5468-0.12627-1.3138-1.5357-1.2343-1.4096 0.079-1.6387 1.1705-1.6387 1.1705z"/>
  <path d="m290.42 473.36-0.53254 12.055s0.0748 0.9986 1.5865 0.9232c1.7728-0.087 1.6732-1.2904 1.6732-1.2904l0.5664-11.688c-0.32814 0.3867-0.43427-0.4336-1.864-0.414-1.4296 0.02-1.4296 0.414-1.4296 0.414z"/>
 </g>
 <g fill="none">
  <path d="m289.9 576.12c55.176 0.1236 112.93-22 174.53-73.335 68.1-56.749 106.4-159.17 103-195.68-8-86-78-98-98-166-15.608-53.066-96.102-127.62-140-116-68.001 18-138.67-11.333-200 18-61.333 29.333-99.333 88.667-86 148.67 13.333 60-16 80-16 125.33 0 45.333 19.333 168.58 74 201.92 54.667 33.333 84.933 56.87 188.47 57.102z" stroke="#231f20" stroke-width="6.6668"/>
  <path d="m289.9 576.12c55.176 0.1236 112.93-22 174.53-73.335 68.1-56.749 106.4-159.17 103-195.68-8-86-78-98-98-166-15.608-53.066-96.102-127.62-140-116-68.001 18-138.67-11.333-200 18-61.333 29.333-99.333 88.667-86 148.67 13.333 60-16 80-16 125.33 0 45.333 19.333 168.58 74 201.92 54.667 33.333 84.933 56.87 188.47 57.102z" stroke="#fff" stroke-width="2.6668"/>
  <path d="m381.45 384.87-14 30.666" stroke="#000" stroke-width="1.3333"/>
 </g>
 <path d="m365.79 419.2c0.14707-2.0142 0.0325-4.6483-0.51825-6.4998l2.4075 2.3593 3.3606 0.27346c-1.7592 0.79825-3.8255 2.4362-5.2499 3.8671z" stroke-width="1.3333"/>
 <path d="m314.79 513.54s15.333 0 30.666-3.9999" fill="none" stroke="#cfcfcf" stroke-width="3.9999"/>
 <path d="m357.13 506.48c-4.9635 3.4726-10.875 8.7303-14.141 13.517l0.92837-10.07-5.729-8.3331c5.1873 2.5807 12.914 4.2824 18.941 4.8865z" fill="#cfcfcf" stroke-width="1.3333"/>
 <path d="m463.24 535.53h-47.111" fill="none" stroke="#231f20" stroke-width="1.3333"/>
 <path d="m128.13 288.2c12.667-7.3333 48.615-12.49 63.333-5.3333 13.044 6.3431 31.333 12 42 13.333 29.115 3.6393 71.333 4 86-11.333" fill="none" stroke="#000" stroke-width="4"/>
 <g font-family="'Liberation Sans'" font-size="15">
  <switch transform="translate(248,112)" text-anchor="middle">
   <text systemLanguage="de, en"><tspan>DNA</tspan></text>
   <text><tspan>DNA</tspan></text>
  </switch>
  <switch transform="translate(367 271)">
   <text systemLanguage="de"><tspan>Zellkern</tspan></text>
   <text systemLanguage="en"><tspan>Nucleus</tspan></text>
   <text systemLanguage="id"><tspan>Nukleus</tspan></text>
   <text><tspan>Nucleus</tspan></text>
  </switch>
  <switch transform="translate(416 352)">
   <text systemLanguage="de, en, id, nl"><tspan>tRNA</tspan></text>
   <text><tspan>tRNA</tspan></text>
  </switch>
  <switch transform="translate(468 542)">
   <text systemLanguage="de"><tspan>Zellmembran</tspan></text>
   <text systemLanguage="en"><tspan>Cell membrane</tspan></text>
   <text systemLanguage="id"><tspan>membrane sel</tspan></text>
   <text systemLanguage="nl"><tspan>celmembraan</tspan></text>
   <text><tspan>Cell membrane</tspan></text>
  </switch>
  <switch transform="translate(443 430)">
   <text systemLanguage="de, en, id, nl"><tspan>mRNA</tspan></text>
   <text><tspan>mRNA</tspan></text>
  </switch>
  <switch transform="translate(261,172)" text-anchor="end">
   <text systemLanguage="de"><tspan>Transkription</tspan></text>
   <text systemLanguage="en"><tspan>mRNA Transcription</tspan></text>
   <text systemLanguage="id"><tspan>transkripsl mRNA</tspan></text>
   <text><tspan>mRNA Transcription</tspan></text>
  </switch>
  <switch transform="translate(211 262)">
   <text systemLanguage="de"><tspan>RNA-Prozessierung</tspan></text>
   <text systemLanguage="en"><tspan>Mature mRNA</tspan></text>
   <text systemLanguage="id"><tspan>mRNA</tspan></text>
   <text systemLanguage="nl"><tspan>transcriptie</tspan></text>
   <text><tspan>Mature mRNA</tspan></text>
  </switch>
  <switch transform="translate(224,367)" text-anchor="end">
   <text systemLanguage="de"><tspan>mRNA-Transport</tspan><tspan x="-15" y="15">ins Cytoplasma</tspan><tspan x="-30" y="30">zur Translation</tspan></text>
   <text systemLanguage="en"><tspan>Transport to cytoplasm</tspan><tspan x="-15" y="15">for protein synthesis</tspan><tspan x="-30" y="30">(translation)</tspan></text>
   <text systemLanguage="id"><tspan>transpor</tspan><tspan x="-15" y="15">for ke sltoplasma</tspan><tspan x="-30" y="30">untuk translasl</tspan></text>
   <text systemLanguage="nl"><tspan>naar cytoplasma</tspan><tspan x="-15" y="15">voor</tspan><tspan x="-30" y="30">eiwitsynthese</tspan></text>
   <text><tspan>Transport to cytoplasm</tspan><tspan x="-15" y="15">for protein synthesis</tspan><tspan x="-30" y="30">(translation)</tspan></text>
  </switch>
 </g>
</svg>