<svg xmlns="http://www.w3.org/2000/svg" xmlns:ev="http://www.w3.org/2001/xml-events" height="396" xmlns:xlink="http://www.w3.org/1999/xlink" viewBox="0 0 973 396" width="973"><defs/><g transform="translate(5.5,5.5)" id="page1"><rect height="386" fill="#ffffff" x="0" y="0" width="963"/><path fill="none" d="M131.0,30.0L131.0,7.3C131.0,5.6,129.7,4.3,128.0,4.3L-122.0,4.3C-123.7,4.3,-126.1,4.5,-127.9,3.6C-129.7,2.5,-131.0,.6,-131.0,-1.7L-131.0,-30.0" transform="translate(350.78,259.85)" id="shape1" stroke-linecap="round" stroke="#696969"/><path fill="none" d="M.0,22.5L.0,4.3C.0,2.6,.0,.3,.0,-1.7C.0,-2.6,.0,-3.6,.0,-4.7L.0,-22.5" transform="translate(219.78,129.35)" id="shape2" stroke-linecap="round" stroke="#696969"/><path fill="none" d="M-97.8,30.0L-97.8,7.3C-97.8,5.6,-96.4,4.3,-94.8,4.3L88.8,4.3C90.4,4.3,92.9,4.5,94.6,3.6C96.5,2.5,97.8,.6,97.8,-1.7L97.8,-30.0" transform="translate(579.53,259.85)" id="shape3" stroke-linecap="round" stroke="#696969"/><path fill="none" d="M.0,22.5L.0,4.3C.0,2.6,.0,.3,.0,-1.7C.0,-2.6,.0,-3.6,.0,-4.7L.0,-22.5" transform="translate(677.28,148.35)" id="shape4" stroke-linecap="round" stroke="#696969"/><g transform="translate(431.78,289.85)" id="shape5"><path stroke-width="3" fill-rule="nonzero" fill="#3f5cb8" d="M.0,.0L100.0,.0L100.0,56.0L.0,56.0L.0,.0z" stroke="#3f5cb8"/><text style="fill:#ffffff;font-family:Microsoft YaHei;font-size:10.00pt" xml:space="preserve"><tspan x="24.8" y="34.0">中心主题</tspan></text></g><g transform="translate(106.78,151.85)" id="shape6"><path fill-rule="nonzero" fill="#eaebf1" d="M.0,.0L226.0,.0L226.0,78.0L.0,78.0L.0,.0z" stroke="#eaebf1"/><text style="fill:#303030;font-family:Microsoft YaHei;font-size:10.00pt" xml:space="preserve"><tspan x="28.8" y="25.5">`主`  the spiral arrangement </tspan><tspan x="32.8" y="44.5">/of </tspan><tspan style="fill:#42c181" x="55.8">scale-bract complexes</tspan><tspan x="192.8"> </tspan><tspan x="22.8" y="63.5">/on </tspan><tspan style="fill:#42c181" x="48.8">ovule-bearing pine cones</tspan><tspan x="203.8">,</tspan></text></g><g transform="translate(39.28,38.85)" id="shape7"><path fill="none" d="M.0,.0L361.0,.0L361.0,68.0L.0,68.0L.0,.0z" stroke="#696969"/><text style="fill:#454545;font-family:Microsoft YaHei;font-size:10.00pt" xml:space="preserve"><tspan x="156.3" y="20.5">后定说明</tspan><tspan x="13.8" y="39.5"> where `主` the female </tspan><tspan style="fill:#42c181" x="152.8">reproductive organs</tspan><tspan x="276.8"> of conifers </tspan><tspan x="134.3" y="58.5">`谓` are located,</tspan></text></g><g transform="translate(543.28,170.85)" id="shape8"><path fill-rule="nonzero" fill="#eaebf1" d="M.0,.0L268.0,.0L268.0,59.0L.0,59.0L.0,.0z" stroke="#eaebf1"/><text style="fill:#303030;font-family:Microsoft YaHei;font-size:10.00pt" xml:space="preserve"><tspan x="81.8" y="25.5">系表  is important</tspan><tspan x="22.8" y="44.5">to the production of airflow patterns</tspan></text></g><g transform="translate(430.28,76.85)" id="shape9"><path fill="none" d="M.0,.0L494.0,.0L494.0,49.0L.0,49.0L.0,.0z" stroke="#696969"/><text style="fill:#454545;font-family:Microsoft YaHei;font-size:10.00pt" xml:space="preserve"><tspan x="125.3" y="20.5"> that spiral (v.) over the cone's surfaces, </tspan><tspan x="13.8" y="39.5">结果状 thereby 从而  </tspan><tspan style="font-weight:bold" x="141.8">passing</tspan><tspan x="191.8"> (v.) airborne pollen </tspan><tspan style="font-weight:bold" x="313.8">from</tspan><tspan x="346.8"> one scale </tspan><tspan style="font-weight:bold" x="411.8">to</tspan><tspan x="425.8"> the next.</tspan></text></g></g></svg>