<svg width="1005" xmlns="http://www.w3.org/2000/svg" xmlns:xlink="http://www.w3.org/1999/xlink" height="434" viewBox="0 0 1005 434" xmlns:ev="http://www.w3.org/2001/xml-events"><defs/><g transform="translate(5.5,5.5)" id="page1"><rect width="995" x="0" fill="#ffffff" y="0" height="424"/><path transform="translate(371.26,259.85)" stroke="#696969" fill="none" stroke-linecap="round" id="shape1" d="M126.0,30.0L126.0,7.3C126.0,5.6,124.7,4.3,123.0,4.3L-117.0,4.3C-118.7,4.3,-121.1,4.5,-122.9,3.6C-124.7,2.5,-126.0,.6,-126.0,-1.7L-126.0,-30.0"/><path transform="translate(245.26,167.35)" stroke="#696969" fill="none" stroke-linecap="round" id="shape2" d="M.0,22.5L.0,4.3C.0,2.6,.0,.3,.0,-1.7C.0,-2.6,.0,-3.6,.0,-4.7L.0,-22.5"/><path transform="translate(608.01,259.85)" stroke="#696969" fill="none" stroke-linecap="round" id="shape3" d="M-110.8,30.0L-110.8,7.3C-110.8,5.6,-109.4,4.3,-107.8,4.3L101.8,4.3C103.4,4.3,105.9,4.5,107.6,3.6C109.5,2.5,110.8,.6,110.8,-1.7L110.8,-30.0"/><path transform="translate(718.76,167.35)" stroke="#696969" fill="none" stroke-linecap="round" id="shape4" d="M.0,22.5L.0,4.3C.0,2.6,.0,.3,.0,-1.7C.0,-2.6,.0,-3.6,.0,-4.7L.0,-22.5"/><g transform="translate(310.76,289.85)" id="shape5"><path stroke-width="3" fill-rule="nonzero" stroke="#3f5cb8" fill="#3f5cb8" d="M.0,.0L373.0,.0L373.0,94.0L.0,94.0L.0,.0z"/><text style="fill:#ffffff;font-family:Microsoft YaHei;font-size:10.00pt" xml:space="preserve"><tspan x="162.3" y="33.5">主句框架</tspan><tspan x="25.8" y="52.5">"Even the requirement... can be met by techniques..."</tspan><tspan x="29.8" y="71.5">（“即便是……的要求，也可以通过……技术来满足”）</tspan></text></g><g transform="translate(145.76,189.85)" id="shape6"><path fill-rule="nonzero" stroke="#eaebf1" fill="#eaebf1" d="M.0,.0L199.0,.0L199.0,40.0L.0,40.0L.0,.0z"/><text style="fill:#303030;font-family:Microsoft YaHei;font-size:10.00pt" xml:space="preserve"><tspan x="22.8" y="25.5">Even `主` the requirement</tspan></text></g><g transform="translate(38.76,38.85)" id="shape7"><path stroke="#696969" fill="none" d="M.0,.0L413.0,.0L413.0,106.0L.0,106.0L.0,.0z"/><rect width="225.0" x="17.8" fill="#ffff00" y="81.5" height="19.0"/><text style="fill:#454545;font-family:Microsoft YaHei;font-size:10.00pt" xml:space="preserve"><tspan x="175.8" y="20.5">同位语从句</tspan><tspan x="43.3" y="39.5">that `主` biomaterials /processed from these materials</tspan><tspan x="102.8" y="58.5">`谓`  be nontoxic (a.) to </tspan><tspan style="fill:#4c85d9" x="247.8">host tissue</tspan><tspan x="13.8" y="96.5">(</tspan><tspan x="17.8">虚拟语气: be nontoxic（省略should）</tspan><tspan x="242.8">，表示强制或建议性要求。)</tspan></text></g><g transform="translate(594.76,189.85)" id="shape8"><path fill-rule="nonzero" stroke="#eaebf1" fill="#eaebf1" d="M.0,.0L248.0,.0L248.0,40.0L.0,40.0L.0,.0z"/><text style="fill:#303030;font-family:Microsoft YaHei;font-size:10.00pt" xml:space="preserve"><tspan x="22.8" y="25.5">`谓` can be met (v.) by </tspan><tspan style="fill:#42c181" x="161.8">techniques</tspan></text></g><g transform="translate(481.76,95.85)" id="shape9"><path stroke="#696969" fill="none" d="M.0,.0L474.0,.0L474.0,49.0L.0,49.0L.0,.0z"/><text style="fill:#454545;font-family:Microsoft YaHei;font-size:10.00pt" xml:space="preserve"><tspan style="fill:#c00000" x="13.8" y="20.5">derived from</tspan><tspan x="92.8"> studying (v.) the reactions of </tspan><tspan style="fill:#4c85d9" x="276.8">tissue cultures</tspan><tspan x="364.8"> to biomaterials </tspan><tspan x="147.3" y="39.5">/</tspan><tspan style="fill:#c00000" x="153.3">or from</tspan><tspan x="200.3"> short-term implants.</tspan></text></g></g></svg>