<svg xmlns:xlink="http://www.w3.org/1999/xlink" width="1784" xmlns="http://www.w3.org/2000/svg" height="377" xmlns:ev="http://www.w3.org/2001/xml-events" viewBox="0 0 1784 377"><defs/><g id="page1" transform="translate(5.5,5.5)"><rect x="0" width="1774" height="367" y="0" fill="#ffffff"/><path stroke-linecap="round" d="M370.4,30.0L370.4,7.3C370.4,5.6,369.0,4.3,367.4,4.3L-361.4,4.3C-363.0,4.3,-365.5,4.5,-367.3,3.6C-369.1,2.5,-370.4,.6,-370.4,-1.7L-370.4,-30.0" id="shape1" transform="translate(516.40,240.85)" fill="none" stroke="#696969"/><path stroke-linecap="round" d="M199.1,30.0L199.1,7.3C199.1,5.6,197.8,4.3,196.1,4.3L-190.1,4.3C-191.8,4.3,-194.2,4.5,-196.0,3.6C-197.9,2.5,-199.1,.6,-199.1,-1.7L-199.1,-30.0" id="shape2" transform="translate(687.65,240.85)" fill="none" stroke="#696969"/><path stroke-linecap="round" d="M-171.3,30.0L-171.3,7.3C-171.3,5.6,-169.9,4.3,-168.3,4.3L162.3,4.3C163.9,4.3,166.4,4.5,168.1,3.6C170.0,2.5,171.3,.6,171.3,-1.7L171.3,-30.0" id="shape3" transform="translate(1058.03,240.85)" fill="none" stroke="#696969"/><path stroke-linecap="round" d="M132.1,22.5L132.1,4.3C132.1,2.6,130.8,1.3,129.1,1.3L-123.1,1.3C-124.8,1.3,-127.2,1.5,-129.0,.6C-130.9,-0.5,-132.1,-2.4,-132.1,-4.7L-132.1,-22.5" id="shape4" transform="translate(1097.15,148.35)" fill="none" stroke="#696969"/><path stroke-linecap="round" d="M-123.6,22.5L-123.6,4.3C-123.6,2.6,-122.3,1.3,-120.6,1.3L114.6,1.3C116.3,1.3,118.7,1.5,120.5,.6C122.4,-0.5,123.6,-2.4,123.6,-4.7L123.6,-22.5" id="shape5" transform="translate(1352.90,148.35)" fill="none" stroke="#696969"/><g id="shape6" transform="translate(836.78,270.85)"><path stroke-width="3" d="M.0,.0L100.0,.0L100.0,56.0L.0,56.0L.0,.0z" fill-rule="nonzero" fill="#3f5cb8" stroke="#3f5cb8"/><text style="fill:#ffffff;font-family:Microsoft YaHei;font-size:10.00pt" xml:space="preserve"><tspan x="25.8" y="33.5">中心主题</tspan></text></g><g id="shape7" transform="translate(39.03,170.85)"><path d="M.0,.0L214.0,.0L214.0,40.0L.0,40.0L.0,.0z" fill-rule="nonzero" fill="#eaebf1" stroke="#eaebf1"/><text style="fill:#303030;font-family:Microsoft YaHei;font-size:10.00pt" xml:space="preserve"><tspan x="22.8" y="25.5">These questions are political</tspan></text></g><g id="shape8" transform="translate(283.03,113.85)"><path d="M.0,.0L411.0,.0L411.0,97.0L.0,97.0L.0,.0z" fill-rule="nonzero" fill="#eaebf1" stroke="#eaebf1"/><rect x="151.8" width="22.0" height="19.0" y="48.5" fill="#ffff00"/><text style="fill:#303030;font-family:Microsoft YaHei;font-size:10.00pt" xml:space="preserve"><tspan x="154.3" y="25.5">in the sense that </tspan><tspan x="123.3" y="44.5">/`主` the debate over them </tspan><tspan x="22.8" y="63.5">`谓` will inevitably be </tspan><tspan x="151.8">less</tspan><tspan x="173.8"> an exploration of abstract matters </tspan><tspan x="106.8" style="fill:#4c85d9" y="82.5">in a spirit of</tspan><tspan x="179.8"> disinterested inquiry</tspan></text></g><g id="shape9" transform="translate(1105.78,170.85)"><path d="M.0,.0L247.0,.0L247.0,40.0L.0,40.0L.0,.0z" fill-rule="nonzero" fill="#eaebf1" stroke="#eaebf1"/><rect x="22.8" width="28.0" height="19.0" y="10.5" fill="#ffff00"/><text style="fill:#303030;font-family:Microsoft YaHei;font-size:10.00pt" xml:space="preserve"><tspan x="22.8" y="25.5">than</tspan><tspan x="50.8"> an academic power struggle</tspan></text></g><g id="shape10" transform="translate(724.03,38.85)"><path d="M.0,.0L482.0,.0L482.0,87.0L.0,87.0L.0,.0z" fill="none" stroke="#696969"/><text style="fill:#454545;font-family:Microsoft YaHei;font-size:10.00pt" xml:space="preserve"><tspan x="215.3" y="20.5">in which </tspan><tspan x="36.8" y="39.5">`主` </tspan><tspan x="61.8" style="fill:#4c85d9">the careers</tspan><tspan x="129.8"> and </tspan><tspan x="160.8" style="fill:#4c85d9">professional fortunes</tspan><tspan x="290.8"> of many women scholars</tspan><tspan x="13.8" y="58.5">—only now entering (v.) the academic profession </tspan><tspan x="318.8" style="fill:#4c85d9">in substantial numbers</tspan><tspan x="457.8">—</tspan><tspan x="179.8" y="77.5">`谓` will be </tspan><tspan x="246.8" style="font-weight:bold">at stake</tspan><tspan x="298.8">, </tspan></text></g><g id="shape11" transform="translate(1218.53,38.85)"><path d="M.0,.0L516.0,.0L516.0,87.0L.0,87.0L.0,.0z" fill="none" stroke="#696969"/><text style="fill:#454545;font-family:Microsoft YaHei;font-size:10.00pt" xml:space="preserve"><tspan x="213.3" y="20.5">and with them </tspan><tspan x="39.3" y="39.5">the chances for</tspan><tspan x="135.3" style="fill:#4c85d9"> a distinctive contribution</tspan><tspan x="292.3"> to</tspan><tspan x="309.3" style="fill:#4c85d9"> humanistic understanding</tspan><tspan x="473.3">, </tspan><tspan x="15.3" y="58.5">`同位语` a contribution /that </tspan><tspan x="192.3" style="font-weight:bold">might be</tspan><tspan x="252.3"> </tspan><tspan x="256.3" style="fill:#4c85d9">an important influence</tspan><tspan x="396.3"> against sexism in </tspan><tspan x="224.3" y="77.5">our society.</tspan></text></g></g></svg>