<svg xmlns:xlink="http://www.w3.org/1999/xlink" xmlns:ev="http://www.w3.org/2001/xml-events" xmlns="http://www.w3.org/2000/svg" width="478" viewBox="0 0 478 490" height="490"><defs/><g transform="translate(5.5,5.5)" id="page1"><rect fill="#ffffff" y="0" width="468" x="0" height="480"/><path stroke-linecap="round" fill="none" stroke="#696969" d="M.0,30.0L.0,7.3C.0,5.6,.0,3.3,.0,1.3C.0,.4,.0,-0.6,.0,-1.7L.0,-30.0" transform="translate(234.26,353.85)" id="shape1"/><path stroke-linecap="round" fill="none" stroke="#696969" d="M.0,22.5L.0,4.3C.0,2.6,.0,.3,.0,-1.7C.0,-2.6,.0,-3.6,.0,-4.7L.0,-22.5" transform="translate(234.26,242.35)" id="shape2"/><path stroke-linecap="round" fill="none" stroke="#696969" d="M.0,22.5L.0,4.3C.0,2.6,.0,.3,.0,-1.7C.0,-2.6,.0,-3.6,.0,-4.7L.0,-22.5" transform="translate(234.26,129.35)" id="shape3"/><g transform="translate(184.26,383.85)" id="shape4"><path fill="#3f5cb8" stroke="#3f5cb8" stroke-width="3" d="M.0,.0L100.0,.0L100.0,56.0L.0,56.0L.0,.0z" fill-rule="nonzero"/><text style="fill:#ffffff;font-family:Microsoft YaHei;font-size:10.00pt" xml:space="preserve"><tspan y="33.5" x="25.8">中心主题</tspan></text></g><g transform="translate(39.26,264.85)" id="shape5"><path fill="#eaebf1" stroke="#eaebf1" d="M.0,.0L390.0,.0L390.0,59.0L.0,59.0L.0,.0z" fill-rule="nonzero"/><text style="fill:#303030;font-family:Microsoft YaHei;font-size:10.00pt" xml:space="preserve"><tspan y="25.5" x="22.8">`主系`  There is, however, `表` </tspan><tspan style="fill:#42c181" x="202.8">considerable disagreement</tspan><tspan x="366.8"> </tspan><tspan y="44.5" x="118.8">among cultural historians</tspan></text></g><g transform="translate(55.76,151.85)" id="shape6"><path fill="none" stroke="#696969" d="M.0,.0L357.0,.0L357.0,68.0L.0,68.0L.0,.0z"/><text style="fill:#454545;font-family:Microsoft YaHei;font-size:10.00pt" xml:space="preserve"><tspan style="fill:#42c181" y="20.5" x="37.3">regarding</tspan><tspan x="96.3"> public attitudes toward the railroad, </tspan><tspan style="font-weight:bold" y="39.5" x="74.8">both</tspan><tspan x="105.8"> at its inception in the 1830s </tspan><tspan style="font-weight:bold" y="58.5" x="13.8">and</tspan><tspan x="38.8"> during </tspan><tspan style="fill:#fd8851" x="86.8">the half century</tspan><tspan x="184.8"> between 1880 and 1930, </tspan></text></g><g transform="translate(48.76,38.85)" id="shape7"><path fill="none" stroke="#696969" d="M.0,.0L371.0,.0L371.0,68.0L.0,68.0L.0,.0z"/><text style="fill:#454545;font-family:Microsoft YaHei;font-size:10.00pt" xml:space="preserve"><tspan style="fill:#fd8851" y="20.5" x="13.8">when</tspan><tspan x="46.8"> `主` the national rail system`谓`  was completed (v.)</tspan><tspan y="39.5" x="53.3">and reached (v.) the zenith of its popularity </tspan><tspan y="58.5" x="124.8">in the United States.</tspan></text></g></g></svg>