<svg width="1101" xmlns:xlink="http://www.w3.org/1999/xlink" xmlns="http://www.w3.org/2000/svg" viewBox="0 0 1101 396" xmlns:ev="http://www.w3.org/2001/xml-events" height="396"><defs/><g id="page1" transform="translate(5.5,5.5)"><rect width="1091" y="0" x="0" fill="#ffffff" height="386"/><path id="shape1" d="M151.5,30.0L151.5,7.3C151.5,5.6,150.2,4.3,148.5,4.3L-142.5,4.3C-144.2,4.3,-146.6,4.5,-148.4,3.6C-150.2,2.5,-151.5,.6,-151.5,-1.7L-151.5,-30.0" stroke-linecap="round" transform="translate(393.76,259.85)" stroke="#696969" fill="none"/><path id="shape2" d="M.0,22.5L.0,4.3C.0,2.6,.0,.3,.0,-1.7C.0,-2.6,.0,-3.6,.0,-4.7L.0,-22.5" stroke-linecap="round" transform="translate(242.26,167.35)" stroke="#696969" fill="none"/><path id="shape3" d="M.0,22.5L.0,4.3C.0,2.6,.0,.3,.0,-1.7C.0,-2.6,.0,-3.6,.0,-4.7L.0,-22.5" stroke-linecap="round" transform="translate(242.26,92.35)" stroke="#696969" fill="none"/><path id="shape4" d="M-29.0,30.0L-29.0,7.3C-29.0,5.6,-27.7,4.3,-26.0,4.3L20.0,4.3C21.7,4.3,24.1,4.5,25.9,3.6C27.7,2.5,29.0,.6,29.0,-1.7L29.0,-30.0" stroke-linecap="round" transform="translate(574.26,259.85)" stroke="#696969" fill="none"/><path id="shape5" d="M.0,22.5L.0,4.3C.0,2.6,.0,.3,.0,-1.7C.0,-2.6,.0,-3.6,.0,-4.7L.0,-22.5" stroke-linecap="round" transform="translate(603.26,167.35)" stroke="#696969" fill="none"/><path id="shape6" d="M-180.5,30.0L-180.5,7.3C-180.5,5.6,-179.2,4.3,-177.5,4.3L171.5,4.3C173.2,4.3,175.6,4.5,177.4,3.6C179.2,2.5,180.5,.6,180.5,-1.7L180.5,-30.0" stroke-linecap="round" transform="translate(725.76,259.85)" stroke="#696969" fill="none"/><path id="shape7" d="M.0,22.5L.0,4.3C.0,2.6,.0,.3,.0,-1.7C.0,-2.6,.0,-3.6,.0,-4.7L.0,-22.5" stroke-linecap="round" transform="translate(906.26,167.35)" stroke="#696969" fill="none"/><g id="shape8" transform="translate(495.26,289.85)"><path d="M.0,.0L100.0,.0L100.0,56.0L.0,56.0L.0,.0z" fill-rule="nonzero" stroke="#3f5cb8" stroke-width="3" fill="#3f5cb8"/><text xml:space="preserve" style="fill:#ffffff;font-family:Microsoft YaHei;font-size:10.00pt"><tspan y="33.5" x="25.8">中心主题</tspan></text></g><g id="shape9" transform="translate(179.26,189.85)"><path d="M.0,.0L126.0,.0L126.0,40.0L.0,40.0L.0,.0z" fill-rule="nonzero" stroke="#191919" fill="#ffffff"/><text xml:space="preserve" style="fill:#303030;font-family:Microsoft YaHei;font-size:10.00pt"><tspan y="25.5" x="22.8">`主` A critique</tspan></text></g><g id="shape10" transform="translate(149.76,114.85)"><path d="M.0,.0L185.0,.0L185.0,30.0L.0,30.0L.0,.0z" stroke="#696969" fill="none"/><text xml:space="preserve" style="fill:#454545;font-family:Microsoft YaHei;font-size:10.00pt"><tspan y="20.5" x="13.8">of Handlin's interpretation</tspan></text></g><g id="shape11" transform="translate(38.76,39.85)"><path d="M.0,.0L407.0,.0L407.0,30.0L.0,30.0L.0,.0z" stroke="#696969" fill="none"/><text xml:space="preserve" style="fill:#454545;font-family:Microsoft YaHei;font-size:10.00pt"><tspan y="20.5" x="13.8">of why `主` legal slavery `谓` did not appear (v.) until the 1660s</tspan></text></g><g id="shape12" transform="translate(528.26,189.85)"><path d="M.0,.0L150.0,.0L150.0,40.0L.0,40.0L.0,.0z" fill-rule="nonzero" stroke="#eaebf1" fill="#eaebf1"/><text xml:space="preserve" style="fill:#303030;font-family:Microsoft YaHei;font-size:10.00pt"><tspan y="25.5" x="22.8">`谓` suggests that</tspan></text></g><g id="shape13" transform="translate(475.76,57.85)"><path d="M.0,.0L255.0,.0L255.0,87.0L.0,87.0L.0,.0z" stroke="#696969" fill="none"/><text xml:space="preserve" style="fill:#454545;font-family:Microsoft YaHei;font-size:10.00pt"><tspan y="20.5" x="116.3">宾从</tspan><tspan y="39.5" x="13.8">`主` </tspan><tspan x="38.8" style="font-weight:bold">assumptions</tspan><tspan x="120.8"> /about the relation </tspan><tspan y="58.5" x="16.8">between slavery and racial prejudice </tspan><tspan y="77.5" x="37.3">/`谓` </tspan><tspan x="68.3" style="font-weight:bold">should be reexamined,</tspan></text></g><g id="shape14" transform="translate(859.26,189.85)"><path d="M.0,.0L94.0,.0L94.0,40.0L.0,40.0L.0,.0z" fill-rule="nonzero" stroke="#eaebf1" fill="#eaebf1"/><text xml:space="preserve" style="fill:#303030;font-family:Microsoft YaHei;font-size:10.00pt"><tspan y="25.5" x="22.8">and that</tspan></text></g><g id="shape15" transform="translate(760.76,38.85)"><path d="M.0,.0L291.0,.0L291.0,106.0L.0,106.0L.0,.0z" stroke="#696969" fill="none"/><text xml:space="preserve" style="fill:#454545;font-family:Microsoft YaHei;font-size:10.00pt"><tspan y="20.5" x="134.3">宾从</tspan><tspan y="39.5" x="90.3">`主` </tspan><tspan x="115.3" style="font-weight:bold">explanations</tspan><tspan x="200.3"> </tspan><tspan y="58.5" x="13.8">/for the different treatment of Black slaves </tspan><tspan y="77.5" x="58.3">in North and South America </tspan><tspan y="96.5" x="61.8">/`谓` </tspan><tspan x="92.8" style="font-weight:bold">should be expanded.</tspan></text></g></g></svg>