<svg width="959" xmlns="http://www.w3.org/2000/svg" xmlns:xlink="http://www.w3.org/1999/xlink" viewBox="0 0 959 267" height="267">
    <defs/>
    <g transform="translate(-511.76,-263.35)">
        <g id="shape1" transform="translate(513.26,369.85)">
            <path d="M4.0,.0L92.0,.0C94.2,.0,96.0,1.8,96.0,4.0L96.0,50.0C96.0,52.2,94.2,54.0,92.0,54.0L4.0,54.0C1.8,54.0,.0,52.2,.0,50.0L.0,4.0C.0,1.8,1.8,.0,4.0,.0z" fill-rule="nonzero" stroke="#3f5cb8" fill="#3f5cb8" stroke-width="3"/>
            <text style="fill:#ffffff;font-family:Microsoft YaHei;font-size:9.00pt" xml:space="preserve">
                <tspan x="24.8" y="32.0">中心主题</tspan>
            </text>
        </g>
        <g id="shape2" transform="translate(672.26,277.10)">
            <path d="M4.0,.0L156.0,.0C158.2,.0,160.0,1.8,160.0,4.0L160.0,34.0C160.0,36.2,158.2,38.0,156.0,38.0L4.0,38.0C1.8,38.0,.0,36.2,.0,34.0L.0,4.0C.0,1.8,1.8,.0,4.0,.0z" fill-rule="nonzero" stroke="#eaebf1" fill="#eaebf1"/>
            <text style="fill:#303030;font-family:Microsoft YaHei;font-size:9.00pt" xml:space="preserve">
                <tspan x="21.8" y="24.0">Perhaps `主` the fact</tspan>
            </text>
        </g>
        <g id="shape3" transform="translate(857.26,281.35)">
            <path d="M.0,29.5L47.0,29.5" stroke="#696969" fill="none"/>
            <text style="fill:#454545;font-family:Microsoft YaHei;font-size:9.00pt" xml:space="preserve">
                <tspan x="11.5" y="19.8">后定</tspan>
            </text>
        </g>
        <g id="shape4" transform="translate(929.26,264.35)">
            <path d="M.0,63.5L200.0,63.5" stroke="#696969" fill="none"/>
            <text style="fill:#454545;font-family:Microsoft YaHei;font-size:9.00pt" xml:space="preserve">
                <tspan x="11.5" y="19.8">`主` many of these first studies</tspan>
                <tspan x="11.5" y="36.8">`谓` considered</tspan>
                <tspan x="11.5" y="53.8">`宾` only algae of </tspan>
                <tspan x="115.5" style="fill:#42c181">a size</tspan>
            </text>
        </g>
        <g id="shape5" transform="translate(1154.26,264.35)">
            <path d="M.0,63.5L184.0,63.5" stroke="#696969" fill="none"/>
            <text style="fill:#454545;font-family:Microsoft YaHei;font-size:9.00pt" xml:space="preserve">
                <tspan x="11.5" y="19.8">后定</tspan>
                <tspan x="11.5" y="36.8" style="fill:#42c181">that</tspan>
                <tspan x="33.5"> could be collected </tspan>
                <tspan x="11.5" y="53.8">in a net (net phytoplankton)</tspan>
            </text>
        </g>
        <g id="shape6" transform="translate(672.26,365.10)">
            <path d="M4.0,.0L95.0,.0C97.2,.0,99.0,1.8,99.0,4.0L99.0,51.0C99.0,53.2,97.2,55.0,95.0,55.0L4.0,55.0C1.8,55.0,.0,53.2,.0,51.0L.0,4.0C.0,1.8,1.8,.0,4.0,.0z" fill-rule="nonzero" stroke="#eaebf1" fill="#eaebf1"/>
            <text style="fill:#303030;font-family:Microsoft YaHei;font-size:9.00pt" xml:space="preserve">
                <tspan x="21.8" y="24.0">插入语</tspan>
                <tspan x="21.8" y="41.0">a practice</tspan>
            </text>
        </g>
        <g id="shape7" transform="translate(796.26,360.85)">
            <path d="M.0,63.5L298.0,63.5" stroke="#696969" fill="none"/>
            <text style="fill:#454545;font-family:Microsoft YaHei;font-size:9.00pt" xml:space="preserve">
                <tspan x="11.5" y="19.8">后定</tspan>
                <tspan x="11.5" y="36.8">that overlooked (v.) </tspan>
                <tspan x="11.5" y="53.8">`宾` the smaller </tspan>
                <tspan x="103.5" style="fill:#42c181">phytoplankton</tspan>
                <tspan x="187.5"> (nannoplankton)</tspan>
            </text>
        </g>
        <g id="shape8" transform="translate(1119.26,377.85)">
            <path d="M.0,29.5L128.0,29.5" stroke="#696969" fill="none"/>
            <text style="fill:#454545;font-family:Microsoft YaHei;font-size:9.00pt" xml:space="preserve">
                <tspan x="11.5" y="19.8" style="fill:#42c181">that</tspan>
                <tspan x="33.5"> we now know</tspan>
            </text>
        </g>
        <g id="shape9" transform="translate(1272.26,369.35)">
            <path d="M.0,46.5L197.0,46.5" stroke="#696969" fill="none"/>
            <text style="fill:#454545;font-family:Microsoft YaHei;font-size:9.00pt" xml:space="preserve">
                <tspan x="11.5" y="19.8">`主` grazers </tspan>
                <tspan x="11.5" y="36.8">`系` are most likely to feed on</tspan>
            </text>
        </g>
        <g id="shape10" transform="translate(672.26,457.35)">
            <path d="M4.0,.0L190.0,.0C192.2,.0,194.0,1.8,194.0,4.0L194.0,68.0C194.0,70.2,192.2,72.0,190.0,72.0L4.0,72.0C1.8,72.0,.0,70.2,.0,68.0L.0,4.0C.0,1.8,1.8,.0,4.0,.0z" fill-rule="nonzero" stroke="#eaebf1" fill="#eaebf1"/>
            <text style="fill:#303030;font-family:Microsoft YaHei;font-size:9.00pt" xml:space="preserve">
                <tspan x="21.8" y="24.0">`谓` led to a de-emphasis </tspan>
                <tspan x="21.8" y="41.0">of the role of grazers </tspan>
                <tspan x="21.8" y="58.0">in subsequent research.</tspan>
            </text>
        </g>
    </g>
</svg>
