<svg viewBox="0 0 1060 302" width="1060" xmlns="http://www.w3.org/2000/svg" xmlns:ev="http://www.w3.org/2001/xml-events" height="302" xmlns:xlink="http://www.w3.org/1999/xlink"><defs/><g id="page1" transform="translate(5.5,5.5)"><rect x="0" width="1050" y="0" fill="#ffffff" height="292"/><path stroke-linecap="round" fill="none" stroke="#696969" d="M195.0,30.0L195.0,7.3C195.0,5.6,193.7,4.3,192.0,4.3L-186.0,4.3C-187.7,4.3,-190.1,4.5,-191.9,3.6C-193.7,2.5,-195.0,.6,-195.0,-1.7L-195.0,-30.0" id="shape1" transform="translate(329.78,166.55)"/><path stroke-linecap="round" fill="none" stroke="#696969" d="M53.3,30.0L53.3,7.3C53.3,5.6,51.9,4.3,50.3,4.3L-44.3,4.3C-45.9,4.3,-48.4,4.5,-50.1,3.6C-52.0,2.5,-53.3,.6,-53.3,-1.7L-53.3,-30.0" id="shape2" transform="translate(471.53,166.55)"/><path stroke-linecap="round" fill="none" stroke="#696969" d="M-141.8,30.0L-141.8,7.3C-141.8,5.6,-140.4,4.3,-138.8,4.3L132.8,4.3C134.4,4.3,136.9,4.5,138.6,3.6C140.5,2.5,141.8,.6,141.8,-1.7L141.8,-30.0" id="shape3" transform="translate(666.53,166.55)"/><g id="shape4" transform="translate(474.78,196.55)"><path fill-rule="nonzero" fill="#3f5cb8" stroke-width="3" d="M.0,.0L100.0,.0L100.0,56.0L.0,56.0L.0,.0z" stroke="#3f5cb8"/><text xml:space="preserve" style="fill:#ffffff;font-family:Microsoft YaHei;font-size:10.00pt"><tspan x="25.8" y="33.5">中心主题</tspan></text></g><g id="shape5" transform="translate(38.78,58.55)"><path fill-rule="nonzero" fill="#eaebf1" d="M.0,.0L192.0,.0L192.0,78.0L.0,78.0L.0,.0z" stroke="#eaebf1"/><text xml:space="preserve" style="fill:#303030;font-family:Microsoft YaHei;font-size:10.00pt"><tspan x="38.8" y="25.5" style="fill:#c00000">Is it not tyrannical,</tspan><tspan x="152.8"> </tspan><tspan x="22.8" y="44.5">插入语 in Pascal's sense, </tspan><tspan x="48.3" y="63.5" style="fill:#c00000">to insist (v.) that</tspan></text></g><g id="shape6" transform="translate(260.78,39.55)"><path fill-rule="nonzero" fill="#eaebf1" d="M.0,.0L315.0,.0L315.0,97.0L.0,97.0L.0,.0z" stroke="#eaebf1"/><text xml:space="preserve" style="fill:#303030;font-family:Microsoft YaHei;font-size:10.00pt"><tspan x="127.8" y="25.5">`主` </tspan><tspan x="152.8" style="fill:#c00000">those</tspan><tspan x="186.8"> </tspan><tspan x="101.8" y="44.5">who </tspan><tspan x="131.8" style="font-weight:bold">excel (v.)  in</tspan><tspan x="212.8"> </tspan><tspan x="116.3" y="63.5">“</tspan><tspan x="129.3" style="fill:#42c181">sensitivity</tspan><tspan x="189.3">”</tspan><tspan x="22.8" y="82.5"> or “</tspan><tspan x="56.8" style="fill:#42c181">the ability</tspan><tspan x="116.8"> to express (v.) compassion”</tspan></text></g><g id="shape7" transform="translate(605.78,39.55)"><path fill-rule="nonzero" fill="#eaebf1" d="M.0,.0L405.0,.0L405.0,97.0L.0,97.0L.0,.0z" stroke="#eaebf1"/><text xml:space="preserve" style="fill:#303030;font-family:Microsoft YaHei;font-size:10.00pt"><tspan x="122.3" y="25.5">`谓` </tspan><tspan x="147.3" style="fill:#c00000">merit (v.) equal wealth </tspan><tspan x="84.8" y="44.5" style="fill:#c00000">/with</tspan><tspan x="116.8"> those who </tspan><tspan x="188.8" style="font-weight:bold">excel (v.) in</tspan><tspan x="265.8"> </tspan><tspan x="269.8" style="fill:#42c181">qualities</tspan><tspan x="319.8"> </tspan><tspan x="22.8" y="63.5">( 插入语，举例说明 such as “the capacity for hard work”) </tspan><tspan x="62.3" y="82.5">后定说明 </tspan><tspan x="118.3" style="fill:#42c181">essential</tspan><tspan x="170.3"> (a.) in producing (v.) wealth?</tspan></text></g></g></svg>