<svg width="1103" xmlns:xlink="http://www.w3.org/1999/xlink" xmlns="http://www.w3.org/2000/svg" viewBox="0 0 1103 358" xmlns:ev="http://www.w3.org/2001/xml-events" height="358"><defs/><g id="page1" transform="translate(5.5,5.5)"><rect width="1093" y="0" x="0" fill="#ffffff" height="348"/><path id="shape1" d="M124.6,30.0L124.6,7.3C124.6,5.6,123.3,4.3,121.6,4.3L-115.6,4.3C-117.3,4.3,-119.7,4.5,-121.5,3.6C-123.4,2.5,-124.6,.6,-124.6,-1.7L-124.6,-30.0" stroke-linecap="round" transform="translate(421.63,221.85)" stroke="#696969" fill="none"/><path id="shape2" d="M.0,22.5L.0,4.3C.0,2.6,.0,.3,.0,-1.7C.0,-2.6,.0,-3.6,.0,-4.7L.0,-22.5" stroke-linecap="round" transform="translate(297.01,129.35)" stroke="#696969" fill="none"/><path id="shape3" d="M-136.5,30.0L-136.5,7.3C-136.5,5.6,-135.2,4.3,-133.5,4.3L127.5,4.3C129.2,4.3,131.6,4.5,133.4,3.6C135.2,2.5,136.5,.6,136.5,-1.7L136.5,-30.0" stroke-linecap="round" transform="translate(682.76,221.85)" stroke="#696969" fill="none"/><path id="shape4" d="M56.9,22.5L56.9,4.3C56.9,2.6,55.5,1.3,53.9,1.3L-47.9,1.3C-49.5,1.3,-52.0,1.5,-53.8,.6C-55.6,-0.5,-56.9,-2.4,-56.9,-4.7L-56.9,-22.5" stroke-linecap="round" transform="translate(762.38,129.35)" stroke="#696969" fill="none"/><path id="shape5" d="M-63.4,22.5L-63.4,4.3C-63.4,2.6,-62.0,1.3,-60.4,1.3L54.4,1.3C56.0,1.3,58.5,1.5,60.3,.6C62.1,-0.5,63.4,-2.4,63.4,-4.7L63.4,-22.5" stroke-linecap="round" transform="translate(882.63,129.35)" stroke="#696969" fill="none"/><g id="shape6" transform="translate(496.26,251.85)"><path d="M.0,.0L100.0,.0L100.0,56.0L.0,56.0L.0,.0z" fill-rule="nonzero" stroke="#3f5cb8" stroke-width="3" fill="#3f5cb8"/><text xml:space="preserve" style="fill:#ffffff;font-family:Microsoft YaHei;font-size:10.00pt"><tspan y="33.5" x="25.8">中心主题</tspan></text></g><g id="shape7" transform="translate(206.51,151.85)"><path d="M.0,.0L181.0,.0L181.0,40.0L.0,40.0L.0,.0z" fill-rule="nonzero" stroke="#eaebf1" fill="#eaebf1"/><text xml:space="preserve" style="fill:#303030;font-family:Microsoft YaHei;font-size:10.00pt"><tspan y="25.5" x="22.8">They `谓` posit (v.) that</tspan></text></g><g id="shape8" transform="translate(39.01,38.85)"><path d="M.0,.0L516.0,.0L516.0,68.0L.0,68.0L.0,.0z" stroke="#696969" fill="none"/><text xml:space="preserve" style="fill:#454545;font-family:Microsoft YaHei;font-size:10.00pt"><tspan y="20.5" x="117.8">`主` biological distinctions /between the sexes </tspan><tspan y="39.5" x="41.8">`谓`</tspan><tspan x="62.8" style="font-weight:bold"> result (v.) in </tspan><tspan x="149.8">a necessary </tspan><tspan x="224.8" style="fill:#4c85d9">sexual division of labor</tspan><tspan x="364.8"> /in the family and </tspan><tspan y="58.5" x="200.8">throughout society</tspan></text></g><g id="shape9" transform="translate(772.26,151.85)"><path d="M.0,.0L94.0,.0L94.0,40.0L.0,40.0L.0,.0z" fill-rule="nonzero" stroke="#eaebf1" fill="#eaebf1"/><text xml:space="preserve" style="fill:#303030;font-family:Microsoft YaHei;font-size:10.00pt"><tspan y="25.5" x="22.8">and that</tspan></text></g><g id="shape10" transform="translate(585.01,57.85)"><path d="M.0,.0L241.0,.0L241.0,49.0L.0,49.0L.0,.0z" stroke="#696969" fill="none"/><text xml:space="preserve" style="fill:#454545;font-family:Microsoft YaHei;font-size:10.00pt"><tspan y="20.5" x="39.3">women's procreative labor </tspan><tspan y="39.5" x="13.8">is currently undervalued by society,</tspan></text></g><g id="shape11" transform="translate(838.51,57.85)"><path d="M.0,.0L215.0,.0L215.0,49.0L.0,49.0L.0,.0z" stroke="#696969" fill="none"/><text xml:space="preserve" style="fill:#454545;font-family:Microsoft YaHei;font-size:10.00pt"><tspan y="20.5" x="81.3"> 结果状语</tspan><tspan y="39.5" x="13.8">to the disadvantage of women.</tspan></text></g></g></svg>