<svg viewBox="0 0 1436 283" width="1436" xmlns="http://www.w3.org/2000/svg" xmlns:ev="http://www.w3.org/2001/xml-events" height="283" xmlns:xlink="http://www.w3.org/1999/xlink"><defs/><g id="page1" transform="translate(5.5,5.5)"><rect x="0" width="1426" y="0" fill="#ffffff" height="273"/><path stroke-linecap="round" fill="none" stroke="#696969" d="M281.5,30.0L281.5,7.3C281.5,5.6,280.2,4.3,278.5,4.3L-272.5,4.3C-274.2,4.3,-276.6,4.5,-278.4,3.6C-280.2,2.5,-281.5,.6,-281.5,-1.7L-281.5,-30.0" id="shape1" transform="translate(431.28,147.55)"/><path stroke-linecap="round" fill="none" stroke="#696969" d="M77.5,30.0L77.5,7.3C77.5,5.6,76.2,4.3,74.5,4.3L-68.5,4.3C-70.2,4.3,-72.6,4.5,-74.4,3.6C-76.2,2.5,-77.5,.6,-77.5,-1.7L-77.5,-30.0" id="shape2" transform="translate(635.28,147.55)"/><path stroke-linecap="round" fill="none" stroke="#696969" d="M-204.0,30.0L-204.0,7.3C-204.0,5.6,-202.7,4.3,-201.0,4.3L195.0,4.3C196.7,4.3,199.1,4.5,200.9,3.6C202.7,2.5,204.0,.6,204.0,-1.7L204.0,-30.0" id="shape3" transform="translate(916.78,147.55)"/><g id="shape4" transform="translate(662.78,177.55)"><path fill-rule="nonzero" fill="#3f5cb8" stroke-width="3" d="M.0,.0L100.0,.0L100.0,56.0L.0,56.0L.0,.0z" stroke="#3f5cb8"/><text xml:space="preserve" style="fill:#ffffff;font-family:Microsoft YaHei;font-size:10.00pt"><tspan x="25.8" y="33.5">中心主题</tspan></text></g><g id="shape5" transform="translate(38.78,77.55)"><path fill-rule="nonzero" fill="#eaebf1" d="M.0,.0L222.0,.0L222.0,40.0L.0,40.0L.0,.0z" stroke="#eaebf1"/><text xml:space="preserve" style="fill:#303030;font-family:Microsoft YaHei;font-size:10.00pt"><tspan x="22.8" y="25.5">Herbert Shaw argues (v.) that</tspan></text></g><g id="shape6" transform="translate(290.78,58.55)"><path fill-rule="nonzero" fill="#eaebf1" d="M.0,.0L534.0,.0L534.0,59.0L.0,59.0L.0,.0z" stroke="#eaebf1"/><text xml:space="preserve" style="fill:#303030;font-family:Microsoft YaHei;font-size:10.00pt"><tspan x="25.3" y="25.5">because scientists have underestimated (v.) the input of substantial amounts of </tspan><tspan x="31.3" y="44.5">energy /from extraterrestrial impactors (asteroids and comets striking Earth), </tspan></text></g><g id="shape7" transform="translate(854.78,39.55)"><path fill-rule="nonzero" fill="#eaebf1" d="M.0,.0L532.0,.0L532.0,78.0L.0,78.0L.0,.0z" stroke="#eaebf1"/><text xml:space="preserve" style="fill:#303030;font-family:Microsoft YaHei;font-size:10.00pt"><tspan x="111.3" y="25.5">they have difficulty </tspan><tspan x="233.3" style="font-weight:bold">accounting for</tspan><tspan x="330.3"> the difference </tspan><tspan x="22.8" y="44.5" style="font-weight:bold">/between</tspan><tspan x="85.8"> </tspan><tspan x="89.8" style="fill:#42c181">the quantity of energy</tspan><tspan x="227.8"> /produced from sources intrinsic (a.) to Earth </tspan><tspan x="143.3" y="63.5" style="font-weight:bold">/and</tspan><tspan x="174.3"> </tspan><tspan x="178.3" style="fill:#42c181">that</tspan><tspan x="203.3"> involved (v.) in plate tectonics.</tspan></text></g></g></svg>