<svg width="1121" xmlns="http://www.w3.org/2000/svg" xmlns:xlink="http://www.w3.org/1999/xlink" height="377" viewBox="0 0 1121 377" xmlns:ev="http://www.w3.org/2001/xml-events"><defs/><g transform="translate(5.5,5.5)" id="page1"><rect width="1111" x="0" fill="#ffffff" y="0" height="367"/><path transform="translate(345.76,240.85)" stroke="#696969" fill="none" stroke-linecap="round" id="shape1" d="M209.5,30.0L209.5,7.3C209.5,5.6,208.2,4.3,206.5,4.3L-200.5,4.3C-202.2,4.3,-204.6,4.5,-206.4,3.6C-208.2,2.5,-209.5,.6,-209.5,-1.7L-209.5,-30.0"/><path transform="translate(501.76,240.85)" stroke="#696969" fill="none" stroke-linecap="round" id="shape2" d="M53.5,30.0L53.5,7.3C53.5,5.6,52.2,4.3,50.5,4.3L-44.5,4.3C-46.2,4.3,-48.6,4.5,-50.4,3.6C-52.2,2.5,-53.5,.6,-53.5,-1.7L-53.5,-30.0"/><path transform="translate(711.26,240.85)" stroke="#696969" fill="none" stroke-linecap="round" id="shape3" d="M-156.0,30.0L-156.0,7.3C-156.0,5.6,-154.7,4.3,-153.0,4.3L147.0,4.3C148.7,4.3,151.1,4.5,152.9,3.6C154.7,2.5,156.0,.6,156.0,-1.7L156.0,-30.0"/><path transform="translate(867.26,148.35)" stroke="#696969" fill="none" stroke-linecap="round" id="shape4" d="M.0,22.5L.0,4.3C.0,2.6,.0,.3,.0,-1.7C.0,-2.6,.0,-3.6,.0,-4.7L.0,-22.5"/><path stroke-width="3" transform="translate(522.76,270.85)" fill-rule="nonzero" stroke="#3f5cb8" fill="#3f5cb8" id="shape5" d="M.0,.0L65.0,.0L65.0,56.0L.0,56.0L.0,.0z"/><g transform="translate(38.76,151.85)" id="shape6"><path fill-rule="nonzero" stroke="#eaebf1" fill="#eaebf1" d="M.0,.0L195.0,.0L195.0,59.0L.0,59.0L.0,.0z"/><text style="fill:#303030;font-family:Microsoft YaHei;font-size:10.00pt" xml:space="preserve"><tspan x="23.8" y="25.5">`主` A recent generation </tspan><tspan x="22.8" y="44.5">of historians of science,  </tspan></text></g><g transform="translate(263.76,94.85)" id="shape7"><path fill-rule="nonzero" stroke="#eaebf1" fill="#eaebf1" d="M.0,.0L369.0,.0L369.0,116.0L.0,116.0L.0,.0z"/><text style="fill:#303030;font-family:Microsoft YaHei;font-size:10.00pt" xml:space="preserve"><tspan x="173.3" y="25.5">状语</tspan><tspan style="font-weight:bold" x="22.8" y="44.5">far from</tspan><tspan x="78.8"> </tspan><tspan style="fill:#c00000" x="82.8">portraying</tspan><tspan x="146.8"> (v.) </tspan><tspan style="fill:#42c181" x="172.8">accepted (a.) scientific views</tspan><tspan x="345.8"> </tspan><tspan style="fill:#c00000" x="24.8" y="63.5">as</tspan><tspan x="37.8"> </tspan><tspan style="fill:#42c181" x="41.8">objectively accurate reflections</tspan><tspan x="231.8"> of a natural world,</tspan><tspan x="115.3" y="101.5">(as 说明“描绘成什么”)</tspan></text></g><g transform="translate(708.76,170.85)" id="shape8"><path fill-rule="nonzero" stroke="#eaebf1" fill="#eaebf1" d="M.0,.0L317.0,.0L317.0,40.0L.0,40.0L.0,.0z"/><text style="fill:#303030;font-family:Microsoft YaHei;font-size:10.00pt" xml:space="preserve"><tspan x="22.8" y="25.5">`谓` explain (v.) the acceptance of such views</tspan></text></g><g transform="translate(662.76,38.85)" id="shape9"><path stroke="#696969" fill="none" d="M.0,.0L409.0,.0L409.0,87.0L.0,87.0L.0,.0z"/><text style="fill:#454545;font-family:Microsoft YaHei;font-size:10.00pt" xml:space="preserve"><tspan x="186.8" y="20.5">方式状</tspan><tspan style="font-weight:bold" x="168.3" y="39.5">in terms of</tspan><tspan x="240.3"> </tspan><tspan style="fill:#42c181" x="45.8" y="58.5">the ideological biases</tspan><tspan x="175.8"> of </tspan><tspan style="fill:#42c181" x="196.8">certain influential scientists</tspan><tspan x="362.8"> </tspan><tspan x="13.8" y="77.5">or </tspan><tspan style="fill:#42c181" x="30.8">the institutional and rhetorical power</tspan><tspan x="257.8"> /such scientists wield. </tspan></text></g></g></svg>