<svg width="1573" xmlns:xlink="http://www.w3.org/1999/xlink" xmlns="http://www.w3.org/2000/svg" viewBox="0 0 1573 414" xmlns:ev="http://www.w3.org/2001/xml-events" height="414"><defs/><g id="page1" transform="translate(5.5,5.5)"><rect width="1563" y="0" x="0" fill="#ffffff" height="404"/><path id="shape1" d="M322.1,30.0L322.1,7.3C322.1,5.6,320.8,4.3,319.1,4.3L-313.1,4.3C-314.8,4.3,-317.2,4.5,-319.0,3.6C-320.9,2.5,-322.1,.6,-322.1,-1.7L-322.1,-30.0" stroke-linecap="round" transform="translate(459.13,277.85)" stroke="#696969" fill="none"/><path id="shape2" d="M179.1,30.0L179.1,7.3C179.1,5.6,177.8,4.3,176.1,4.3L-170.1,4.3C-171.8,4.3,-174.2,4.5,-176.0,3.6C-177.9,2.5,-179.1,.6,-179.1,-1.7L-179.1,-30.0" stroke-linecap="round" transform="translate(602.13,277.85)" stroke="#696969" fill="none"/><path id="shape3" d="M-64.0,30.0L-64.0,7.3C-64.0,5.6,-62.7,4.3,-61.0,4.3L55.0,4.3C56.7,4.3,59.1,4.5,60.9,3.6C62.7,2.5,64.0,.6,64.0,-1.7L64.0,-30.0" stroke-linecap="round" transform="translate(845.26,277.85)" stroke="#696969" fill="none"/><path id="shape4" d="M.0,22.5L.0,4.3C.0,2.6,.0,.3,.0,-1.7C.0,-2.6,.0,-3.6,.0,-4.7L.0,-22.5" stroke-linecap="round" transform="translate(774.01,110.35)" stroke="#696969" fill="none"/><path id="shape5" d="M67.6,22.5L67.6,4.3C67.6,2.6,66.3,1.3,64.6,1.3L-58.6,1.3C-60.3,1.3,-62.7,1.5,-64.5,.6C-66.4,-0.5,-67.6,-2.4,-67.6,-4.7L-67.6,-22.5" stroke-linecap="round" transform="translate(841.63,185.35)" stroke="#696969" fill="none"/><path id="shape6" d="M-84.6,22.5L-84.6,4.3C-84.6,2.6,-83.3,1.3,-81.6,1.3L75.6,1.3C77.3,1.3,79.7,1.5,81.5,.6C83.4,-0.5,84.6,-2.4,84.6,-4.7L84.6,-22.5" stroke-linecap="round" transform="translate(993.88,185.35)" stroke="#696969" fill="none"/><path id="shape7" d="M-299.6,30.0L-299.6,7.3C-299.6,5.6,-298.3,4.3,-296.6,4.3L290.6,4.3C292.3,4.3,294.7,4.5,296.5,3.6C298.4,2.5,299.6,.6,299.6,-1.7L299.6,-30.0" stroke-linecap="round" transform="translate(1080.88,277.85)" stroke="#696969" fill="none"/><path id="shape8" d="M.0,22.5L.0,4.3C.0,2.6,.0,.3,.0,-1.7C.0,-2.6,.0,-3.6,.0,-4.7L.0,-22.5" stroke-linecap="round" transform="translate(1380.51,185.35)" stroke="#696969" fill="none"/><g id="shape9" transform="translate(731.26,307.85)"><path d="M.0,.0L100.0,.0L100.0,56.0L.0,56.0L.0,.0z" fill-rule="nonzero" stroke="#3f5cb8" stroke-width="3" fill="#3f5cb8"/><text xml:space="preserve" style="fill:#ffffff;font-family:Microsoft YaHei;font-size:10.00pt"><tspan y="33.5" x="25.8">中心主题</tspan></text></g><g id="shape10" transform="translate(39.01,207.85)"><path d="M.0,.0L196.0,.0L196.0,40.0L.0,40.0L.0,.0z" fill-rule="nonzero" stroke="#191919" fill="#ffffff"/><text xml:space="preserve" style="fill:#303030;font-family:Microsoft YaHei;font-size:10.00pt"><tspan y="25.5" x="22.8">Unless they succeed (v.), </tspan></text></g><g id="shape11" transform="translate(265.01,188.85)"><path d="M.0,.0L316.0,.0L316.0,59.0L.0,59.0L.0,.0z" fill-rule="nonzero" stroke="#eaebf1" fill="#eaebf1"/><text xml:space="preserve" style="fill:#303030;font-family:Microsoft YaHei;font-size:10.00pt"><tspan y="25.5" x="22.8">`主` the yield gains /of the Green Revolution </tspan><tspan y="44.5" x="93.3">`谓` will be largely lost</tspan></text></g><g id="shape12" transform="translate(865.76,207.85)"><path d="M.0,.0L87.0,.0L87.0,40.0L.0,40.0L.0,.0z" fill-rule="nonzero" stroke="#191919" fill="#ffffff"/><text xml:space="preserve" style="fill:#303030;font-family:Microsoft YaHei;font-size:10.00pt"><tspan y="25.5" x="22.8">even if </tspan></text></g><g id="shape13" transform="translate(611.01,38.85)"><path d="M.0,.0L326.0,.0L326.0,49.0L.0,49.0L.0,.0z" stroke="#696969" fill="none"/><text xml:space="preserve" style="fill:#454545;font-family:Microsoft YaHei;font-size:10.00pt"><tspan y="20.5" x="80.8">that equip (v.) those plants </tspan><tspan y="39.5" x="13.8">/to enter (v.) into a symbiosis with nitrogen fixers</tspan></text></g><g id="shape14" transform="translate(684.51,132.85)"><path d="M.0,.0L179.0,.0L179.0,30.0L.0,30.0L.0,.0z" stroke="#696969" fill="none"/><text xml:space="preserve" style="fill:#454545;font-family:Microsoft YaHei;font-size:10.00pt"><tspan y="20.5" x="13.8">`主` the genes in legumes</tspan></text></g><g id="shape15" transform="translate(949.51,132.85)"><path d="M.0,.0L258.0,.0L258.0,30.0L.0,30.0L.0,.0z" stroke="#696969" fill="none"/><text xml:space="preserve" style="fill:#454545;font-family:Microsoft YaHei;font-size:10.00pt"><tspan y="20.5" x="13.8">`谓` are identified (v.) and isolated (v.), </tspan></text></g><g id="shape16" transform="translate(1325.51,207.85)"><path d="M.0,.0L110.0,.0L110.0,40.0L.0,40.0L.0,.0z" fill-rule="nonzero" stroke="#696969" fill="#ffffff"/><text xml:space="preserve" style="fill:#303030;font-family:Microsoft YaHei;font-size:10.00pt"><tspan y="25.5" x="22.8">and even if</tspan></text></g><g id="shape17" transform="translate(1237.51,94.85)"><path d="M.0,.0L286.0,.0L286.0,68.0L.0,68.0L.0,.0z" stroke="#696969" fill="none"/><text xml:space="preserve" style="fill:#454545;font-family:Microsoft YaHei;font-size:10.00pt"><tspan y="20.5" x="13.8">`主` the transfer of those gene complexes, </tspan><tspan y="39.5" x="78.8">once they are found, </tspan><tspan y="58.5" x="76.8">`系` becomes possible.</tspan></text></g></g></svg>