<svg width="1541" xmlns="http://www.w3.org/2000/svg" xmlns:xlink="http://www.w3.org/1999/xlink" viewBox="0 0 1541 528" height="528" xmlns:ev="http://www.w3.org/2001/xml-events"><defs/><g id="page1" transform="translate(5.5,5.5)"><rect width="1531" height="518" x="0" y="0" fill="#ffffff"/><path d="M234.6,30.0L234.6,7.3C234.6,5.6,233.3,4.3,231.6,4.3L-225.6,4.3C-227.3,4.3,-229.7,4.5,-231.5,3.6C-233.4,2.5,-234.6,.6,-234.6,-1.7L-234.6,-30.0" stroke-linecap="round" id="shape1" stroke="#696969" transform="translate(531.15,392.55)" fill="none"/><path d="M-136.0,30.0L-136.0,7.3C-136.0,5.6,-134.7,4.3,-133.0,4.3L127.0,4.3C128.7,4.3,131.1,4.5,132.9,3.6C134.7,2.5,136.0,.6,136.0,-1.7L136.0,-30.0" stroke-linecap="round" id="shape2" stroke="#696969" transform="translate(901.78,392.55)" fill="none"/><path d="M132.1,22.5L132.1,4.3C132.1,2.6,130.8,1.3,129.1,1.3L-123.1,1.3C-124.8,1.3,-127.2,1.5,-129.0,.6C-130.9,-0.5,-132.1,-2.4,-132.1,-4.7L-132.1,-22.5" stroke-linecap="round" id="shape3" stroke="#696969" transform="translate(905.65,281.05)" fill="none"/><path d="M.0,22.5L.0,4.3C.0,2.6,.0,.3,.0,-1.7C.0,-2.6,.0,-3.6,.0,-4.7L.0,-22.5" stroke-linecap="round" id="shape4" stroke="#696969" transform="translate(773.53,206.05)" fill="none"/><path d="M-98.1,22.5L-98.1,4.3C-98.1,2.6,-96.8,1.3,-95.1,1.3L89.1,1.3C90.8,1.3,93.2,1.5,95.0,.6C96.9,-0.5,98.1,-2.4,98.1,-4.7L98.1,-22.5" stroke-linecap="round" id="shape5" stroke="#696969" transform="translate(1135.90,281.05)" fill="none"/><path d="M.0,22.5L.0,4.3C.0,2.6,.0,.3,.0,-1.7C.0,-2.6,.0,-3.6,.0,-4.7L.0,-22.5" stroke-linecap="round" id="shape6" stroke="#696969" transform="translate(1234.03,168.05)" fill="none"/><g id="shape7" transform="translate(715.78,422.55)"><path d="M.0,.0L100.0,.0L100.0,56.0L.0,56.0L.0,.0z" fill-rule="nonzero" stroke="#3f5cb8" fill="#3f5cb8" stroke-width="3"/><text xml:space="preserve" style="fill:#ffffff;font-family:Microsoft YaHei;font-size:10.00pt"><tspan x="25.8" y="33.5">中心主题</tspan></text></g><g id="shape8" transform="translate(39.53,265.55)"><path d="M.0,.0L514.0,.0L514.0,97.0L.0,97.0L.0,.0z" fill-rule="nonzero" stroke="#eaebf1" fill="#eaebf1"/><text xml:space="preserve" style="fill:#303030;font-family:Microsoft YaHei;font-size:10.00pt"><tspan x="22.8" y="25.5">`主` </tspan><tspan style="fill:#c00000" x="47.8">The resurgence</tspan><tspan x="141.8"> /of multiple ethnic groups within a single state, Hill says, </tspan><tspan x="136.3" y="44.5">`系` </tspan><tspan style="fill:#c00000" x="161.3">is not</tspan><tspan x="195.3"> “potentially threatening  (a.) </tspan><tspan x="125.8" y="63.5">to </tspan><tspan style="fill:#4c85d9" x="142.8">the sovereign jurisdiction</tspan><tspan x="296.8"> of the state,” </tspan><tspan x="165.3" y="82.5">as Urban and Sherzer suggest;</tspan></text></g><g id="shape9" transform="translate(871.28,303.55)"><path d="M.0,.0L333.0,.0L333.0,59.0L.0,59.0L.0,.0z" fill-rule="nonzero" stroke="#eaebf1" fill="#eaebf1"/><text xml:space="preserve" style="fill:#303030;font-family:Microsoft YaHei;font-size:10.00pt"><tspan x="22.8" y="25.5">rather, `主` </tspan><tspan style="fill:#c00000" x="91.8">the assertion</tspan><tspan x="170.8"> of cultural differences </tspan><tspan x="115.8" y="44.5">`谓` </tspan><tspan style="fill:#c00000" x="140.8">threatens</tspan><tspan x="198.8"> (v.)</tspan></text></g><g id="shape10" transform="translate(616.53,228.55)"><path d="M.0,.0L314.0,.0L314.0,30.0L.0,30.0L.0,.0z" stroke="#696969" fill="none"/><text xml:space="preserve" style="fill:#454545;font-family:Microsoft YaHei;font-size:10.00pt"><tspan x="13.8" y="20.5">to reveal (v.)  ethnocentric beliefs and practices</tspan></text></g><g id="shape11" transform="translate(583.53,134.55)"><path d="M.0,.0L380.0,.0L380.0,49.0L.0,49.0L.0,.0z" stroke="#696969" fill="none"/><text xml:space="preserve" style="fill:#454545;font-family:Microsoft YaHei;font-size:10.00pt"><tspan x="153.8" y="20.5">upon which </tspan><tspan x="13.8" y="39.5">`主` conquest (a.) states `谓` were historically founded `表` </tspan></text></g><g id="shape12" transform="translate(1126.53,190.55)"><path d="M.0,.0L215.0,.0L215.0,68.0L.0,68.0L.0,.0z" stroke="#696969" fill="none"/><text xml:space="preserve" style="fill:#454545;font-family:Microsoft YaHei;font-size:10.00pt"><tspan x="80.3" y="20.5">and thus </tspan><tspan style="font-weight:bold" x="13.8" y="39.5">to open(v.)  up</tspan><tspan x="112.8"> the possibility </tspan><tspan x="39.3" y="58.5">for a “nations-state”</tspan></text></g><g id="shape13" transform="translate(976.03,39.55)"><path d="M.0,.0L516.0,.0L516.0,106.0L.0,106.0L.0,.0z" stroke="#696969" fill="none"/><text xml:space="preserve" style="fill:#454545;font-family:Microsoft YaHei;font-size:10.00pt"><tspan x="232.3" y="20.5">in which </tspan><tspan x="20.3" y="39.5">`主` conquered ethnic groups `谓` </tspan><tspan style="font-weight:bold" x="229.3">enjoy</tspan><tspan x="265.3"> (v.) </tspan><tspan style="fill:#4c85d9" x="291.3">equal rights</tspan><tspan x="363.3"> /</tspan><tspan style="font-weight:bold" x="373.3">with</tspan><tspan x="401.3"> the conquering </tspan><tspan x="215.3" y="58.5">ethnic group /</tspan><tspan x="19.3" y="77.5">but </tspan><tspan style="font-weight:bold" x="44.3">do not face</tspan><tspan x="120.3"> (v.) the threat of </tspan><tspan style="fill:#4c85d9" x="228.3">persecution</tspan><tspan x="300.3"> /or </tspan><tspan style="fill:#4c85d9" x="327.3">cultural assimilation</tspan><tspan x="448.3"> into the </tspan><tspan x="187.3" y="96.5">dominant ethnic group.</tspan></text></g></g></svg>