<svg width="1031" xmlns="http://www.w3.org/2000/svg" xmlns:xlink="http://www.w3.org/1999/xlink" height="434" viewBox="0 0 1031 434" xmlns:ev="http://www.w3.org/2001/xml-events"><defs/><g transform="translate(5.5,5.5)" id="page1"><rect width="1021" x="0" fill="#ffffff" y="0" height="424"/><path transform="translate(324.13,297.85)" stroke="#696969" fill="none" stroke-linecap="round" id="shape1" d="M186.1,30.0L186.1,7.3C186.1,5.6,184.8,4.3,183.1,4.3L-177.1,4.3C-178.8,4.3,-181.2,4.5,-183.0,3.6C-184.9,2.5,-186.1,.6,-186.1,-1.7L-186.1,-30.0"/><path transform="translate(138.01,205.35)" stroke="#696969" fill="none" stroke-linecap="round" id="shape2" d="M.0,22.5L.0,4.3C.0,2.6,.0,.3,.0,-1.7C.0,-2.6,.0,-3.6,.0,-4.7L.0,-22.5"/><path transform="translate(567.26,297.85)" stroke="#696969" fill="none" stroke-linecap="round" id="shape3" d="M-57.0,30.0L-57.0,7.3C-57.0,5.6,-55.7,4.3,-54.0,4.3L48.0,4.3C49.7,4.3,52.1,4.5,53.9,3.6C55.7,2.5,57.0,.6,57.0,-1.7L57.0,-30.0"/><path transform="translate(500.88,205.35)" stroke="#696969" fill="none" stroke-linecap="round" id="shape4" d="M123.4,22.5L123.4,4.3C123.4,2.6,122.0,1.3,120.4,1.3L-114.4,1.3C-116.0,1.3,-118.5,1.5,-120.3,.6C-122.1,-0.5,-123.4,-2.4,-123.4,-4.7L-123.4,-22.5"/><path transform="translate(682.63,205.35)" stroke="#696969" fill="none" stroke-linecap="round" id="shape5" d="M-58.4,22.5L-58.4,4.3C-58.4,2.6,-57.0,1.3,-55.4,1.3L49.4,1.3C51.0,1.3,53.5,1.5,55.3,.6C57.1,-0.5,58.4,-2.4,58.4,-4.7L58.4,-22.5"/><path stroke-width="3" transform="translate(477.76,327.85)" fill-rule="nonzero" stroke="#3f5cb8" fill="#3f5cb8" id="shape6" d="M.0,.0L65.0,.0L65.0,56.0L.0,56.0L.0,.0z"/><g transform="translate(40.01,227.85)" id="shape7"><path fill-rule="nonzero" stroke="#eaebf1" fill="#eaebf1" d="M.0,.0L196.0,.0L196.0,40.0L.0,40.0L.0,.0z"/><text style="fill:#303030;font-family:Microsoft YaHei;font-size:10.00pt" xml:space="preserve"><tspan x="22.8" y="25.5">`主` The hydrologic cycle,</tspan></text></g><g transform="translate(39.01,133.85)" id="shape8"><path stroke="#696969" fill="none" d="M.0,.0L198.0,.0L198.0,49.0L.0,49.0L.0,.0z"/><text style="fill:#454545;font-family:Microsoft YaHei;font-size:10.00pt" xml:space="preserve"><tspan x="38.3" y="20.5">(同位语，用逗号隔开)</tspan><tspan x="13.8" y="39.5">a major topic in this science,</tspan></text></g><g transform="translate(479.26,227.85)" id="shape9"><path fill-rule="nonzero" stroke="#eaebf1" fill="#eaebf1" d="M.0,.0L290.0,.0L290.0,40.0L.0,40.0L.0,.0z"/><text style="fill:#303030;font-family:Microsoft YaHei;font-size:10.00pt" xml:space="preserve"><tspan x="22.8" y="25.5">`系` is the complete cycle of phenomena</tspan></text></g><g transform="translate(267.01,152.85)" id="shape10"><path stroke="#696969" fill="none" d="M.0,.0L221.0,.0L221.0,30.0L.0,30.0L.0,.0z"/><text style="fill:#454545;font-family:Microsoft YaHei;font-size:10.00pt" xml:space="preserve"><tspan x="13.8" y="20.5">through which water passes (v.),</tspan></text></g><g transform="translate(500.51,38.85)" id="shape11"><path stroke="#696969" fill="none" d="M.0,.0L481.0,.0L481.0,144.0L.0,144.0L.0,.0z"/><text style="fill:#454545;font-family:Microsoft YaHei;font-size:10.00pt" xml:space="preserve"><tspan x="180.3" y="20.5">伴随状语, 或补充说明</tspan><tspan style="font-weight:bold" x="92.8" y="58.5">beginning</tspan><tspan x="159.8"> </tspan><tspan style="font-weight:bold" x="163.8">as</tspan><tspan x="177.8"> 照…方式 atmospheric water vapor,</tspan><tspan style="font-weight:bold" x="84.3" y="77.5">passing into</tspan><tspan x="164.3"> liquid and solid form </tspan><tspan style="font-weight:bold" x="298.3">as</tspan><tspan x="312.3"> precipitation, </tspan><tspan x="106.3" y="96.5">thence </tspan><tspan style="font-weight:bold" x="152.3">along and into</tspan><tspan x="249.3"> the ground surface, </tspan><tspan x="13.8" y="115.5">and finally again (adv.)</tspan><tspan style="font-weight:bold" x="150.8"> returning to</tspan><tspan x="234.8"> the form of atmospheric water vapor </tspan><tspan style="font-weight:bold" x="107.3" y="134.5">by means of</tspan><tspan x="188.3"> evaporation and transpiration.</tspan></text></g></g></svg>