<svg xmlns="http://www.w3.org/2000/svg" xmlns:ev="http://www.w3.org/2001/xml-events" height="433" xmlns:xlink="http://www.w3.org/1999/xlink" viewBox="0 0 1298 433" width="1298"><defs/><g transform="translate(5.5,5.5)" id="page1"><rect height="423" fill="#ffffff" x="0" y="0" width="1288"/><path fill="none" d="M232.8,30.0L232.8,7.3C232.8,5.6,231.4,4.3,229.8,4.3L-223.8,4.3C-225.4,4.3,-227.9,4.5,-229.6,3.6C-231.5,2.5,-232.8,.6,-232.8,-1.7L-232.8,-30.0" transform="translate(411.03,296.85)" id="shape1" stroke-linecap="round" stroke="#696969"/><path fill="none" d="M155.8,22.5L155.8,4.3C155.8,2.6,154.4,1.3,152.8,1.3L-146.8,1.3C-148.4,1.3,-150.9,1.5,-152.6,.6C-154.5,-0.5,-155.8,-2.4,-155.8,-4.7L-155.8,-22.5" transform="translate(642.53,204.35)" id="shape2" stroke-linecap="round" stroke="#696969"/><path fill="none" d="M.0,22.5L.0,4.3C.0,2.6,.0,.3,.0,-1.7C.0,-2.6,.0,-3.6,.0,-4.7L.0,-22.5" transform="translate(486.78,110.35)" id="shape3" stroke-linecap="round" stroke="#696969"/><path fill="none" d="M-77.3,30.0L-77.3,7.3C-77.3,5.6,-75.9,4.3,-74.3,4.3L68.3,4.3C69.9,4.3,72.4,4.5,74.1,3.6C76.0,2.5,77.3,.6,77.3,-1.7L77.3,-30.0" transform="translate(721.03,296.85)" id="shape4" stroke-linecap="round" stroke="#696969"/><path fill="none" d="M10.0,22.5L10.0,4.3C10.0,2.6,8.7,1.3,7.0,1.3L-1.0,1.3C-2.7,1.3,-5.1,1.5,-6.9,.6C-8.7,-0.5,-10.0,-2.4,-10.0,-4.7L-10.0,-22.5" transform="translate(788.28,204.35)" id="shape5" stroke-linecap="round" stroke="#696969"/><path fill="none" d="M.0,22.5L.0,4.3C.0,2.6,.0,.3,.0,-1.7C.0,-2.6,.0,-3.6,.0,-4.7L.0,-22.5" transform="translate(778.28,91.35)" id="shape6" stroke-linecap="round" stroke="#696969"/><path fill="none" d="M-145.8,22.5L-145.8,4.3C-145.8,2.6,-144.4,1.3,-142.8,1.3L136.8,1.3C138.4,1.3,140.9,1.5,142.6,.6C144.5,-0.5,145.8,-2.4,145.8,-4.7L145.8,-22.5" transform="translate(944.03,204.35)" id="shape7" stroke-linecap="round" stroke="#696969"/><g transform="translate(593.78,326.85)" id="shape8"><path stroke-width="3" fill-rule="nonzero" fill="#3f5cb8" d="M.0,.0L100.0,.0L100.0,56.0L.0,56.0L.0,.0z" stroke="#3f5cb8"/><text style="fill:#ffffff;font-family:Microsoft YaHei;font-size:10.00pt" xml:space="preserve"><tspan x="24.8" y="34.0">中心主题</tspan></text></g><g transform="translate(38.78,207.85)" id="shape9"><path fill-rule="nonzero" fill="#eaebf1" d="M.0,.0L279.0,.0L279.0,59.0L.0,59.0L.0,.0z" stroke="#eaebf1"/><text style="fill:#303030;font-family:Microsoft YaHei;font-size:10.00pt" xml:space="preserve"><tspan x="21.8" y="26.0">While the new doctrine </tspan><tspan x="21.8" y="45.0">`谓` seems (v.) almost certainly correct,</tspan></text></g><g transform="translate(379.78,132.85)" id="shape10"><path fill-rule="nonzero" fill="#f5d2d0" d="M.0,.0L214.0,.0L214.0,49.0L.0,49.0L.0,.0z" stroke="#696969"/><text style="fill:#454545;font-family:Microsoft YaHei;font-size:10.00pt" xml:space="preserve"><tspan x="13.8" y="20.5">`主` the one papyrus fragment </tspan><tspan x="25.3" y="39.5">`谓` </tspan><tspan style="font-weight:bold" x="50.3">raises (v.) the specter</tspan></text></g><g transform="translate(347.78,57.85)" id="shape11"><path fill="none" d="M.0,.0L278.0,.0L278.0,30.0L.0,30.0L.0,.0z" stroke="#696969"/><text style="fill:#454545;font-family:Microsoft YaHei;font-size:10.00pt" xml:space="preserve"><tspan x="13.8" y="20.5"> that another `谓` may </tspan><tspan style="font-weight:bold" x="153.8">be unearthed</tspan><tspan x="242.8"> (v.),</tspan></text></g><g transform="translate(764.28,226.85)" id="shape12"><path fill-rule="nonzero" fill="#eaebf1" d="M.0,.0L68.0,.0L68.0,40.0L.0,40.0L.0,.0z" stroke="#eaebf1"/><text style="fill:#303030;font-family:Microsoft YaHei;font-size:10.00pt" xml:space="preserve"><tspan x="22.8" y="25.5">主句</tspan></text></g><g transform="translate(638.28,113.85)" id="shape13"><path fill="none" d="M.0,.0L280.0,.0L280.0,68.0L.0,68.0L.0,.0z" stroke="#696969"/><text style="fill:#454545;font-family:Microsoft YaHei;font-size:10.00pt" xml:space="preserve"><tspan x="13.8" y="20.5">伴随状语 </tspan><tspan style="fill:#c00000;font-weight:bold" x="69.8">showing</tspan><tspan x="124.8"> (v.), for instance, </tspan><tspan style="font-weight:bold" x="233.8">that</tspan><tspan x="259.8"> /</tspan><tspan x="40.3" y="39.5">it was a posthumous production </tspan><tspan x="70.3" y="58.5">of the Danaid tetralogy</tspan></text></g><g transform="translate(677.78,38.85)" id="shape14"><path fill="none" d="M.0,.0L201.0,.0L201.0,30.0L.0,30.0L.0,.0z" stroke="#696969"/><text style="fill:#454545;font-family:Microsoft YaHei;font-size:10.00pt" xml:space="preserve"><tspan x="13.8" y="20.5"> which bested (v.) Sophocles,</tspan></text></g><g transform="translate(930.78,132.85)" id="shape15"><path fill="none" d="M.0,.0L318.0,.0L318.0,49.0L.0,49.0L.0,.0z" stroke="#696969"/><text style="fill:#454545;font-family:Microsoft YaHei;font-size:10.00pt" xml:space="preserve"><tspan x="13.8" y="20.5">伴随状语 </tspan><tspan style="fill:#c00000" x="69.8">and </tspan><tspan style="fill:#c00000;font-weight:bold" x="96.8">throwing</tspan><tspan x="156.8"> (v.) the date once more </tspan><tspan style="font-weight:bold" x="94.8" y="39.5">into</tspan><tspan x="120.8"> utter confusion. </tspan></text></g></g></svg>