<svg xmlns:ev="http://www.w3.org/2001/xml-events" xmlns:xlink="http://www.w3.org/1999/xlink" xmlns="http://www.w3.org/2000/svg" viewBox="0 0 1344 443" width="1344" height="443"><defs/><g id="page1" transform="translate(5.5,5.5)"><rect fill="#ffffff" x="0" width="1334" height="433" y="0"/><path id="shape1" transform="translate(297.03,212.85)" stroke="#696969" stroke-linecap="round" fill="none" d="M.0,22.5L.0,4.3C.0,2.6,.0,.3,.0,-1.7C.0,-2.6,.0,-3.6,.0,-4.7L.0,-22.5"/><path id="shape2" transform="translate(807.65,212.85)" stroke="#696969" stroke-linecap="round" fill="none" d="M132.1,22.5L132.1,4.3C132.1,2.6,130.8,1.3,129.1,1.3L-123.1,1.3C-124.8,1.3,-127.2,1.5,-129.0,.6C-130.9,-0.5,-132.1,-2.4,-132.1,-4.7L-132.1,-22.5"/><path id="shape3" transform="translate(988.15,212.85)" stroke="#696969" stroke-linecap="round" fill="none" d="M-48.4,22.5L-48.4,4.3C-48.4,2.6,-47.0,1.3,-45.4,1.3L39.4,1.3C41.0,1.3,43.5,1.5,45.3,.6C47.1,-0.5,48.4,-2.4,48.4,-4.7L48.4,-22.5"/><path id="shape4" transform="translate(481.90,306.35)" stroke="#696969" stroke-linecap="round" fill="none" d="M184.9,30.0L184.9,7.3C184.9,5.6,183.5,4.3,181.9,4.3L-175.9,4.3C-177.5,4.3,-180.0,4.5,-181.8,3.6C-183.6,2.5,-184.9,.6,-184.9,-1.7L-184.9,-30.0"/><path id="shape5" transform="translate(803.28,306.35)" stroke="#696969" stroke-linecap="round" fill="none" d="M-136.5,30.0L-136.5,7.3C-136.5,5.6,-135.2,4.3,-133.5,4.3L127.5,4.3C129.2,4.3,131.6,4.5,133.4,3.6C135.2,2.5,136.5,.6,136.5,-1.7L136.5,-30.0"/><g id="shape6" transform="translate(612.78,336.35)"><path stroke="#3f5cb8" stroke-width="3" fill="#3f5cb8" fill-rule="nonzero" d="M.0,.0L108.0,.0L108.0,57.0L.0,57.0L.0,.0z"/><text xml:space="preserve" style="fill:#ffffff;font-family:Microsoft YaHei;font-size:11.00pt"><tspan x="25.8" y="34.5">中心主题</tspan></text></g><g id="shape7" transform="translate(39.03,79.35)"><path stroke="#696969" fill="none" d="M.0,.0L516.0,.0L516.0,111.0L.0,111.0L.0,.0z"/><text xml:space="preserve" style="fill:#454545;font-family:Microsoft YaHei;font-size:11.00pt"><tspan x="16.3" y="21.5">Observing (v.) that /`主` species 后定说明 found (v.) on high ground `</tspan><tspan x="100.8" y="41.5">系` </tspan><tspan style="font-weight:bold" x="123.8">are different from</tspan><tspan x="258.8"> those on low ground </tspan><tspan x="25.8" y="81.5">and knowing that /in the Amazon `主` lowlands `系` </tspan><tspan style="font-weight:bold" x="391.8">are drier than</tspan><tspan x="493.8"> </tspan><tspan x="227.3" y="101.5">uplands, </tspan></text></g><g id="shape8" transform="translate(585.03,159.35)"><path stroke="#696969" fill="none" d="M.0,.0L181.0,.0L181.0,31.0L.0,31.0L.0,.0z"/><text xml:space="preserve" style="fill:#454545;font-family:Microsoft YaHei;font-size:11.00pt"><tspan x="13.8" y="21.5">he proposed (v.) that </tspan></text></g><g id="shape9" transform="translate(778.53,39.35)"><path stroke="#696969" fill="none" d="M.0,.0L516.0,.0L516.0,151.0L.0,151.0L.0,.0z"/><text xml:space="preserve" style="fill:#454545;font-family:Microsoft YaHei;font-size:11.00pt"><tspan x="188.3" y="21.5">during the ice ages </tspan><tspan x="32.3" y="41.5">`主` the Amazon lowlands `系`  became a near-desert arid plain; </tspan><tspan x="26.3" y="81.5">meanwhile, `主` the more elevated regions `系` became islands of </tspan><tspan x="225.3" y="101.5">moisture </tspan><tspan x="150.8" y="121.5">/and hence </tspan><tspan style="font-weight:bold" x="235.8">served as</tspan><tspan x="305.8"> refuges </tspan><tspan style="font-weight:bold" x="114.8" y="141.5">for</tspan><tspan x="136.8"> the fauna and flora of the rain forest.</tspan></text></g><g id="shape10" transform="translate(261.03,235.35)"><path stroke="#eaebf1" fill="#eaebf1" fill-rule="nonzero" d="M.0,.0L72.0,.0L72.0,41.0L.0,41.0L.0,.0z"/><text xml:space="preserve" style="fill:#303030;font-family:Microsoft YaHei;font-size:11.00pt"><tspan x="22.8" y="26.5">主题</tspan></text></g><g id="shape11" transform="translate(903.78,235.35)"><path stroke="#eaebf1" fill="#eaebf1" fill-rule="nonzero" d="M.0,.0L72.0,.0L72.0,41.0L.0,41.0L.0,.0z"/><text xml:space="preserve" style="fill:#303030;font-family:Microsoft YaHei;font-size:11.00pt"><tspan x="22.8" y="26.5">主题</tspan></text></g></g></svg>