<svg viewBox="0 0 1224 528" width="1224" xmlns="http://www.w3.org/2000/svg" xmlns:ev="http://www.w3.org/2001/xml-events" height="528" xmlns:xlink="http://www.w3.org/1999/xlink"><defs/><g id="page1" transform="translate(5.5,5.5)"><rect x="0" width="1214" y="0" fill="#ffffff" height="518"/><path stroke-linecap="round" fill="none" stroke="#696969" d="M202.1,30.0L202.1,7.3C202.1,5.6,200.8,4.3,199.1,4.3L-193.1,4.3C-194.8,4.3,-197.2,4.5,-199.0,3.6C-200.9,2.5,-202.1,.6,-202.1,-1.7L-202.1,-30.0" id="shape1" transform="translate(404.65,392.55)"/><path stroke-linecap="round" fill="none" stroke="#696969" d="M.0,22.5L.0,4.3C.0,2.6,.0,.3,.0,-1.7C.0,-2.6,.0,-3.6,.0,-4.7L.0,-22.5" id="shape2" transform="translate(202.53,300.05)"/><path stroke-linecap="round" fill="none" stroke="#696969" d="M52.1,30.0L52.1,7.3C52.1,5.6,50.8,4.3,49.1,4.3L-43.1,4.3C-44.8,4.3,-47.2,4.5,-49.0,3.6C-50.9,2.5,-52.1,.6,-52.1,-1.7L-52.1,-30.0" id="shape3" transform="translate(554.65,392.55)"/><path stroke-linecap="round" fill="none" stroke="#696969" d="M-150.0,30.0L-150.0,7.3C-150.0,5.6,-148.7,4.3,-147.0,4.3L141.0,4.3C142.7,4.3,145.1,4.5,146.9,3.6C148.7,2.5,150.0,.6,150.0,-1.7L150.0,-30.0" id="shape4" transform="translate(756.78,392.55)"/><path stroke-linecap="round" fill="none" stroke="#696969" d="M.0,22.5L.0,4.3C.0,2.6,.0,.3,.0,-1.7C.0,-2.6,.0,-3.6,.0,-4.7L.0,-22.5" id="shape5" transform="translate(906.78,262.05)"/><path stroke-linecap="round" fill="none" stroke="#696969" d="M64.6,22.5L64.6,4.3C64.6,2.6,63.3,1.3,61.6,1.3L-55.6,1.3C-57.3,1.3,-59.7,1.5,-61.5,.6C-63.4,-0.5,-64.6,-2.4,-64.6,-4.7L-64.6,-22.5" id="shape6" transform="translate(842.15,130.05)"/><path stroke-linecap="round" fill="none" stroke="#696969" d="M-72.4,22.5L-72.4,4.3C-72.4,2.6,-71.0,1.3,-69.4,1.3L63.4,1.3C65.0,1.3,67.5,1.5,69.3,.6C71.1,-0.5,72.4,-2.4,72.4,-4.7L72.4,-22.5" id="shape7" transform="translate(979.15,130.05)"/><g id="shape8" transform="translate(556.78,422.55)"><path fill-rule="nonzero" fill="#3f5cb8" stroke-width="3" d="M.0,.0L100.0,.0L100.0,56.0L.0,56.0L.0,.0z" stroke="#3f5cb8"/><text xml:space="preserve" style="fill:#ffffff;font-family:Microsoft YaHei;font-size:10.00pt"><tspan x="25.8" y="33.5">中心主题</tspan></text></g><g id="shape9" transform="translate(39.03,322.55)"><path fill-rule="nonzero" fill="#eaebf1" d="M.0,.0L327.0,.0L327.0,40.0L.0,40.0L.0,.0z" stroke="#eaebf1"/><text xml:space="preserve" style="fill:#303030;font-family:Microsoft YaHei;font-size:10.00pt"><tspan x="22.8" y="25.5">`主` Virginia Woolf's provocative (a.) </tspan><tspan x="245.8" style="fill:#42c181">statement</tspan></text></g><g id="shape10" transform="translate(64.53,228.55)"><path fill="none" stroke="#696969" d="M.0,.0L276.0,.0L276.0,49.0L.0,49.0L.0,.0z"/><text xml:space="preserve" style="fill:#454545;font-family:Microsoft YaHei;font-size:10.00pt"><tspan x="63.8" y="20.5">about her </tspan><tspan x="127.8" style="fill:#42c181">intentions</tspan><tspan x="188.8"> (n.) </tspan><tspan x="13.8" y="39.5">/后定说明 in writing (v.) Mrs. Dallowayhas</tspan></text></g><g id="shape11" transform="translate(396.03,303.55)"><path fill-rule="nonzero" fill="#eaebf1" d="M.0,.0L213.0,.0L213.0,59.0L.0,59.0L.0,.0z" stroke="#eaebf1"/><text xml:space="preserve" style="fill:#303030;font-family:Microsoft YaHei;font-size:10.00pt"><tspan x="22.8" y="25.5">`谓`  regularly been ignored </tspan><tspan x="68.8" y="44.5">by the critics</tspan></text></g><g id="shape12" transform="translate(787.78,284.55)"><path fill-rule="nonzero" fill="#eaebf1" d="M.0,.0L238.0,.0L238.0,78.0L.0,78.0L.0,.0z" stroke="#eaebf1"/><text xml:space="preserve" style="fill:#303030;font-family:Microsoft YaHei;font-size:10.00pt"><tspan x="81.8" y="25.5">原因状语从句</tspan><tspan x="22.8" y="44.5">since it highlights (v.) </tspan><tspan x="155.8" style="fill:#42c181">an aspect </tspan><tspan x="51.3" y="63.5">of her literary interests</tspan></text></g><g id="shape13" transform="translate(748.28,152.55)"><path fill="none" stroke="#696969" d="M.0,.0L317.0,.0L317.0,87.0L.0,87.0L.0,.0z"/><text xml:space="preserve" style="fill:#454545;font-family:Microsoft YaHei;font-size:10.00pt"><tspan x="99.8" y="20.5">very different from </tspan><tspan x="13.8" y="39.5">the traditional picture of </tspan><tspan x="167.8" style="fill:#42c181">the “poetic” novelist</tspan><tspan x="31.8" y="77.5">(very different from 作定语修饰 an aspect)</tspan></text></g><g id="shape14" transform="translate(639.03,58.55)"><path fill="none" stroke="#696969" d="M.0,.0L277.0,.0L277.0,49.0L.0,49.0L.0,.0z"/><text xml:space="preserve" style="fill:#454545;font-family:Microsoft YaHei;font-size:10.00pt"><tspan x="79.8" y="20.5" style="fill:#c00000">concerned (v.) with </tspan><tspan x="13.8" y="39.5">examining (v.) states of reverie and vision</tspan></text></g><g id="shape15" transform="translate(928.53,39.55)"><path fill="none" stroke="#696969" d="M.0,.0L246.0,.0L246.0,68.0L.0,68.0L.0,.0z"/><text xml:space="preserve" style="fill:#454545;font-family:Microsoft YaHei;font-size:10.00pt"><tspan x="96.3" y="20.5">and </tspan><tspan x="123.3" style="fill:#c00000">with</tspan><tspan x="149.3"> </tspan><tspan x="13.8" y="39.5">following (v.) the intricate pathways </tspan><tspan x="39.8" y="58.5">of individual consciousness.</tspan></text></g></g></svg>