<svg xmlns:ev="http://www.w3.org/2001/xml-events" xmlns:xlink="http://www.w3.org/1999/xlink" xmlns="http://www.w3.org/2000/svg" viewBox="0 0 1731 383" width="1731" height="383"><defs/><g id="page1" transform="translate(5.5,5.5)"><rect fill="#ffffff" x="0" width="1721" height="373" y="0"/><path id="shape1" transform="translate(552.65,246.35)" stroke="#696969" stroke-linecap="round" fill="none" d="M308.1,30.0L308.1,7.3C308.1,5.6,306.8,4.3,305.1,4.3L-299.1,4.3C-300.8,4.3,-303.2,4.5,-305.0,3.6C-306.9,2.5,-308.1,.6,-308.1,-1.7L-308.1,-30.0"/><path id="shape2" transform="translate(871.78,246.35)" stroke="#696969" stroke-linecap="round" fill="none" d="M-11.0,30.0L-11.0,7.3C-11.0,5.6,-9.7,4.3,-8.0,4.3L2.0,4.3C3.7,4.3,6.1,4.5,7.9,3.6C9.7,2.5,11.0,.6,11.0,-1.7L11.0,-30.0"/><path id="shape3" transform="translate(760.90,132.85)" stroke="#696969" stroke-linecap="round" fill="none" d="M121.9,22.5L121.9,4.3C121.9,2.6,120.5,1.3,118.9,1.3L-112.9,1.3C-114.5,1.3,-117.0,1.5,-118.8,.6C-120.6,-0.5,-121.9,-2.4,-121.9,-4.7L-121.9,-22.5"/><path id="shape4" transform="translate(965.65,132.85)" stroke="#696969" stroke-linecap="round" fill="none" d="M-82.9,22.5L-82.9,4.3C-82.9,2.6,-81.5,1.3,-79.9,1.3L73.9,1.3C75.5,1.3,78.0,1.5,79.8,.6C81.6,-0.5,82.9,-2.4,82.9,-4.7L82.9,-22.5"/><path id="shape5" transform="translate(1179.90,246.35)" stroke="#696969" stroke-linecap="round" fill="none" d="M-319.1,30.0L-319.1,7.3C-319.1,5.6,-317.8,4.3,-316.1,4.3L310.1,4.3C311.8,4.3,314.2,4.5,316.0,3.6C317.9,2.5,319.1,.6,319.1,-1.7L319.1,-30.0"/><g id="shape6" transform="translate(806.78,276.35)"><path stroke="#3f5cb8" stroke-width="3" fill="#3f5cb8" fill-rule="nonzero" d="M.0,.0L108.0,.0L108.0,57.0L.0,57.0L.0,.0z"/><text xml:space="preserve" style="fill:#ffffff;font-family:Microsoft YaHei;font-size:11.00pt"><tspan x="25.8" y="34.5">中心主题</tspan></text></g><g id="shape7" transform="translate(39.53,135.35)"><path stroke="#eaebf1" fill="#eaebf1" fill-rule="nonzero" d="M.0,.0L410.0,.0L410.0,81.0L.0,81.0L.0,.0z"/><text xml:space="preserve" style="fill:#303030;font-family:Microsoft YaHei;font-size:11.00pt"><tspan style="fill:#000000" x="63.8" y="26.5">`主`</tspan><tspan style="fill:#42c181" x="86.8"> Calculations</tspan><tspan x="177.8"> of the density of alloys </tspan><tspan x="138.3" y="46.5">后定说明 </tspan><tspan style="fill:#42c181;font-weight:bold" x="202.3">based on</tspan><tspan x="271.3"> </tspan><tspan style="fill:#4c85d9" x="22.8" y="66.5">Bernal-type models</tspan><tspan x="164.8"> of </tspan><tspan style="fill:#42c181" x="187.8">the alloys metal component</tspan></text></g><g id="shape8" transform="translate(711.28,155.35)"><path stroke="#eaebf1" fill="#eaebf1" fill-rule="nonzero" d="M.0,.0L343.0,.0L343.0,61.0L.0,61.0L.0,.0z"/><text xml:space="preserve" style="fill:#303030;font-family:Microsoft YaHei;font-size:11.00pt;font-weight:bold"><tspan x="71.8" y="26.5">agreed `谓`  fairly well with</tspan><tspan style="font-weight:normal" x="270.8"> </tspan><tspan style="font-weight:normal" x="22.8" y="46.5">the experimentally determined (a.) </tspan><tspan style="fill:#42c181;font-weight:normal" x="278.8">values</tspan></text></g><g id="shape9" transform="translate(479.53,39.35)"><path stroke="#696969" fill="none" d="M.0,.0L319.0,.0L319.0,71.0L.0,71.0L.0,.0z"/><text xml:space="preserve" style="fill:#454545;font-family:Microsoft YaHei;font-size:11.00pt"><tspan x="54.3" y="21.5">from measurements on </tspan><tspan style="fill:#42c181" x="227.3">alloys</tspan><tspan x="76.3" y="41.5">/后定说明 </tspan><tspan style="font-weight:bold" x="146.3">consisting of</tspan><tspan x="242.3"> </tspan><tspan style="fill:#4c85d9" x="13.8" y="61.5">a noble metal </tspan><tspan style="fill:#4c85d9;font-weight:bold" x="116.8">together with</tspan><tspan style="fill:#4c85d9" x="219.8"> a metalloid</tspan><tspan x="304.8">,</tspan></text></g><g id="shape10" transform="translate(811.03,39.35)"><path stroke="#696969" fill="none" d="M.0,.0L475.0,.0L475.0,71.0L.0,71.0L.0,.0z"/><text xml:space="preserve" style="fill:#454545;font-family:Microsoft YaHei;font-size:11.00pt;font-weight:bold"><tspan x="209.8" y="21.5">such as</tspan><tspan style="font-weight:normal" x="264.8"> </tspan><tspan style="font-weight:normal" x="127.3" y="41.5">alloys of palladium and silicon, </tspan><tspan style="font-weight:normal" x="13.8" y="61.5">or alloys 后定说明 </tspan><tspan x="142.8">consisting of</tspan><tspan style="font-weight:normal" x="238.8"> iron, phosphorus, and carbon, </tspan></text></g><g id="shape11" transform="translate(1316.03,135.35)"><path stroke="#eaebf1" fill="#eaebf1" fill-rule="nonzero" d="M.0,.0L366.0,.0L366.0,81.0L.0,81.0L.0,.0z"/><text xml:space="preserve" style="fill:#303030;font-family:Microsoft YaHei;font-size:11.00pt"><tspan x="139.8" y="26.5">让步状语从句</tspan><tspan style="font-weight:bold" x="148.3" y="46.5">although</tspan><tspan x="217.3"> </tspan><tspan x="22.8" y="66.5">`主` small discrepancies (n.) `谓` remained (v.).</tspan></text></g></g></svg>