<svg viewBox="0 0 1211 433" width="1211" xmlns="http://www.w3.org/2000/svg" xmlns:ev="http://www.w3.org/2001/xml-events" height="433" xmlns:xlink="http://www.w3.org/1999/xlink"><defs/><g id="page1" transform="translate(5.5,5.5)"><rect x="0" width="1201" y="0" fill="#ffffff" height="423"/><path stroke-linecap="round" fill="none" stroke="#696969" d="M173.1,30.0L173.1,7.3C173.1,5.6,171.8,4.3,170.1,4.3L-164.1,4.3C-165.8,4.3,-168.2,4.5,-170.0,3.6C-171.9,2.5,-173.1,.6,-173.1,-1.7L-173.1,-30.0" id="shape1" transform="translate(427.65,297.55)"/><path stroke-linecap="round" fill="none" stroke="#696969" d="M.0,22.5L.0,4.3C.0,2.6,.0,.3,.0,-1.7C.0,-2.6,.0,-3.6,.0,-4.7L.0,-22.5" id="shape2" transform="translate(254.53,167.05)"/><path stroke-linecap="round" fill="none" stroke="#696969" d="M1.1,30.0L1.1,4.3C1.1,4.3,1.1,4.3,1.1,4.3L1.1,4.3C1.1,4.3,1.1,4.3,1.1,4.3C-0.1,4.3,-1.1,1.6,-1.1,-1.7L-1.1,-30.0" id="shape3" transform="translate(599.65,297.55)"/><path stroke-linecap="round" fill="none" stroke="#696969" d="M-172.0,30.0L-172.0,7.3C-172.0,5.6,-170.7,4.3,-169.0,4.3L163.0,4.3C164.7,4.3,167.1,4.5,168.9,3.6C170.7,2.5,172.0,.6,172.0,-1.7L172.0,-30.0" id="shape4" transform="translate(772.78,297.55)"/><path stroke-linecap="round" fill="none" stroke="#696969" d="M56.4,22.5L56.4,4.3C56.4,2.6,55.0,1.3,53.4,1.3L-47.4,1.3C-49.0,1.3,-51.5,1.5,-53.3,.6C-55.1,-0.5,-56.4,-2.4,-56.4,-4.7L-56.4,-22.5" id="shape5" transform="translate(888.40,205.05)"/><path stroke-linecap="round" fill="none" stroke="#696969" d="M-55.4,22.5L-55.4,4.3C-55.4,2.6,-54.0,1.3,-52.4,1.3L46.4,1.3C48.0,1.3,50.5,1.5,52.3,.6C54.1,-0.5,55.4,-2.4,55.4,-4.7L55.4,-22.5" id="shape6" transform="translate(1000.15,205.05)"/><path stroke-linecap="round" fill="none" stroke="#696969" d="M.0,22.5L.0,4.3C.0,2.6,.0,.3,.0,-1.7C.0,-2.6,.0,-3.6,.0,-4.7L.0,-22.5" id="shape7" transform="translate(1055.53,92.05)"/><g id="shape8" transform="translate(550.78,327.55)"><path fill-rule="nonzero" fill="#3f5cb8" stroke-width="3" d="M.0,.0L100.0,.0L100.0,56.0L.0,56.0L.0,.0z" stroke="#3f5cb8"/><text xml:space="preserve" style="fill:#ffffff;font-family:Microsoft YaHei;font-size:10.00pt"><tspan x="25.8" y="33.5">中心主题</tspan></text></g><g id="shape9" transform="translate(103.53,189.55)"><path fill-rule="nonzero" fill="#eaebf1" d="M.0,.0L302.0,.0L302.0,78.0L.0,78.0L.0,.0z" stroke="#eaebf1"/><text xml:space="preserve" style="fill:#303030;font-family:Microsoft YaHei;font-size:10.00pt"><tspan x="60.8" y="25.5">(状语，修饰主句的主语 Posner)</tspan><tspan x="22.8" y="63.5">Critiquing (v.) the movement's assumption</tspan></text></g><g id="shape10" transform="translate(39.53,95.55)"><path fill="none" stroke="#696969" d="M.0,.0L430.0,.0L430.0,49.0L.0,49.0L.0,.0z"/><text xml:space="preserve" style="fill:#454545;font-family:Microsoft YaHei;font-size:10.00pt"><tspan x="13.8" y="20.5">that `主` lawyers `谓`  can </tspan><tspan x="171.8" style="font-weight:bold">offer</tspan><tspan x="204.8"> (v.)  special insights </tspan><tspan x="330.8" style="font-weight:bold">into</tspan><tspan x="356.8"> </tspan><tspan x="360.8" style="fill:#42c181">literature </tspan><tspan x="125.8" y="39.5" style="fill:#42c181">/that</tspan><tspan x="156.8"> deals with legal matters,</tspan></text></g><g id="shape11" transform="translate(499.53,208.55)"><path fill-rule="nonzero" fill="#eaebf1" d="M.0,.0L198.0,.0L198.0,59.0L.0,59.0L.0,.0z" stroke="#eaebf1"/><text xml:space="preserve" style="fill:#303030;font-family:Microsoft YaHei;font-size:10.00pt"><tspan x="63.3" y="25.5"> `主` Posner </tspan><tspan x="22.8" y="44.5">`谓`  </tspan><tspan x="51.8" style="font-weight:bold">points (v.) out that </tspan></text></g><g id="shape12" transform="translate(800.78,227.55)"><path fill-rule="nonzero" fill="#eaebf1" d="M.0,.0L288.0,.0L288.0,40.0L.0,40.0L.0,.0z" stroke="#eaebf1"/><text xml:space="preserve" style="fill:#303030;font-family:Microsoft YaHei;font-size:10.00pt"><tspan x="22.8" y="25.5">`主` literature `谓` use (v.) the law loosely</tspan></text></g><g id="shape13" transform="translate(727.53,133.55)"><path fill="none" stroke="#696969" d="M.0,.0L209.0,.0L209.0,49.0L.0,49.0L.0,.0z"/><text xml:space="preserve" style="fill:#454545;font-family:Microsoft YaHei;font-size:10.00pt"><tspan x="86.8" y="20.5">表目的</tspan><tspan x="13.8" y="39.5">to convey (v.) a particular idea</tspan></text></g><g id="shape14" transform="translate(949.03,114.55)"><path fill="none" stroke="#696969" d="M.0,.0L213.0,.0L213.0,68.0L.0,68.0L.0,.0z"/><text xml:space="preserve" style="fill:#454545;font-family:Microsoft YaHei;font-size:10.00pt"><tspan x="75.8" y="20.5">并列表目的</tspan><tspan x="53.3" y="39.5">or </tspan><tspan x="70.3" style="font-weight:bold">as</tspan><tspan x="84.3"> a metaphor </tspan><tspan x="13.8" y="58.5">for the workings of the </tspan><tspan x="159.8" style="fill:#42c181">society</tspan></text></g><g id="shape15" transform="translate(953.53,39.55)"><path fill="none" stroke="#696969" d="M.0,.0L204.0,.0L204.0,30.0L.0,30.0L.0,.0z"/><text xml:space="preserve" style="fill:#454545;font-family:Microsoft YaHei;font-size:10.00pt"><tspan x="13.8" y="20.5">envisioned (v.) in their fiction.</tspan></text></g></g></svg>