<svg xmlns:xlink="http://www.w3.org/1999/xlink" xmlns:ev="http://www.w3.org/2001/xml-events" xmlns="http://www.w3.org/2000/svg" width="991" viewBox="0 0 991 452" height="452"><defs/><g transform="translate(5.5,5.5)" id="page1"><rect fill="#ffffff" y="0" width="981" x="0" height="442"/><path stroke-linecap="round" fill="none" stroke="#696969" d="M.0,30.0L.0,7.3C.0,5.6,.0,3.3,.0,1.3C.0,.4,.0,-0.6,.0,-1.7L.0,-30.0" transform="translate(490.26,315.85)" id="shape1"/><path stroke-linecap="round" fill="none" stroke="#696969" d="M190.5,22.5L190.5,4.3C190.5,2.6,189.2,1.3,187.5,1.3L-181.5,1.3C-183.2,1.3,-185.6,1.5,-187.4,.6C-189.2,-0.5,-190.5,-2.4,-190.5,-4.7L-190.5,-22.5" transform="translate(299.76,185.35)" id="shape2"/><path stroke-linecap="round" fill="none" stroke="#696969" d="M84.3,22.5L84.3,4.3C84.3,2.6,82.9,1.3,81.3,1.3L-75.3,1.3C-76.9,1.3,-79.4,1.5,-81.1,.6C-83.0,-0.5,-84.3,-2.4,-84.3,-4.7L-84.3,-22.5" transform="translate(406.01,185.35)" id="shape3"/><path stroke-linecap="round" fill="none" stroke="#696969" d="M-106.3,22.5L-106.3,4.3C-106.3,2.6,-104.9,1.3,-103.3,1.3L97.3,1.3C98.9,1.3,101.4,1.5,103.1,.6C105.0,-0.5,106.3,-2.4,106.3,-4.7L106.3,-22.5" transform="translate(596.51,185.35)" id="shape4"/><path stroke-linecap="round" fill="none" stroke="#696969" d="M.0,22.5L.0,4.3C.0,2.6,.0,.3,.0,-1.7C.0,-2.6,.0,-3.6,.0,-4.7L.0,-22.5" transform="translate(702.76,110.35)" id="shape5"/><g transform="translate(440.26,345.85)" id="shape6"><path fill="#3f5cb8" stroke="#3f5cb8" stroke-width="3" d="M.0,.0L100.0,.0L100.0,56.0L.0,56.0L.0,.0z" fill-rule="nonzero"/><text style="fill:#ffffff;font-family:Microsoft YaHei;font-size:10.00pt" xml:space="preserve"><tspan y="33.5" x="25.8">中心主题</tspan></text></g><g transform="translate(264.76,207.85)" id="shape7"><path fill="#eaebf1" stroke="#eaebf1" d="M.0,.0L451.0,.0L451.0,78.0L.0,78.0L.0,.0z" fill-rule="nonzero"/><text style="fill:#303030;font-family:Microsoft YaHei;font-size:10.00pt" xml:space="preserve"><tspan y="25.5" x="153.8">`主` The people's liberty </tspan><tspan y="44.5" x="22.8">`谓` consists (v.) </tspan><tspan style="font-weight:bold" x="122.8">not</tspan><tspan x="144.8"> in their original responsibility /for what exists, </tspan><tspan y="63.5" x="136.8">/</tspan><tspan style="font-weight:bold" x="142.8">but</tspan><tspan x="164.8"> merely in the </tspan><tspan style="fill:#42c181" x="252.8">faculty</tspan><tspan x="294.8"> (n.)</tspan></text></g><g transform="translate(38.76,113.85)" id="shape8"><path fill="none" stroke="#696969" d="M.0,.0L141.0,.0L141.0,49.0L.0,49.0L.0,.0z"/><text style="fill:#454545;font-family:Microsoft YaHei;font-size:10.00pt" xml:space="preserve"><tspan y="20.5" x="46.3">后定说明</tspan><tspan y="39.5" x="13.8">they have acquired</tspan></text></g><g transform="translate(192.26,94.85)" id="shape9"><path fill="none" stroke="#696969" d="M.0,.0L259.0,.0L259.0,68.0L.0,68.0L.0,.0z"/><text style="fill:#454545;font-family:Microsoft YaHei;font-size:10.00pt" xml:space="preserve"><tspan style="fill:#42c181" y="20.5" x="103.3">后定说明 </tspan><tspan style="fill:#42c181" y="39.5" x="47.3">of</tspan><tspan x="60.3"> abolishing (v.) any detail </tspan><tspan y="58.5" x="13.8">/that may distress (v.) or wound them,</tspan></text></g><g transform="translate(572.76,132.85)" id="shape10"><path fill="none" stroke="#696969" d="M.0,.0L260.0,.0L260.0,30.0L.0,30.0L.0,.0z"/><text style="fill:#454545;font-family:Microsoft YaHei;font-size:10.00pt" xml:space="preserve"><tspan style="fill:#42c181" y="20.5" x="13.8">and of</tspan><tspan x="53.8"> imposing (v.) any new measure,</tspan></text></g><g transform="translate(463.76,38.85)" id="shape11"><path fill="none" stroke="#696969" d="M.0,.0L478.0,.0L478.0,49.0L.0,49.0L.0,.0z"/><text style="fill:#454545;font-family:Microsoft YaHei;font-size:10.00pt" xml:space="preserve"><tspan y="20.5" x="65.3">`主` which, seen </tspan><tspan style="fill:#4c85d9" x="165.3">against the background of</tspan><tspan x="328.3"> existing laws, </tspan><tspan y="39.5" x="13.8">`谓` may commend (v.) itself </tspan><tspan style="fill:#4c85d9" x="189.8">from time to time</tspan><tspan x="298.8"> /to their instinct and mind.</tspan></text></g></g></svg>