<svg xmlns="http://www.w3.org/2000/svg" xmlns:ev="http://www.w3.org/2001/xml-events" height="358" xmlns:xlink="http://www.w3.org/1999/xlink" viewBox="0 0 1166 358" width="1166"><defs/><g transform="translate(5.5,5.5)" id="page1"><rect height="348" fill="#ffffff" x="0" y="0" width="1156"/><path fill="none" d="M205.6,30.0L205.6,7.3C205.6,5.6,204.3,4.3,202.6,4.3L-196.6,4.3C-198.3,4.3,-200.7,4.5,-202.5,3.6C-204.4,2.5,-205.6,.6,-205.6,-1.7L-205.6,-30.0" transform="translate(372.15,221.85)" id="shape1" stroke-linecap="round" stroke="#696969"/><path fill="none" d="M52.9,30.0L52.9,7.3C52.9,5.6,51.5,4.3,49.9,4.3L-43.9,4.3C-45.5,4.3,-48.0,4.5,-49.8,3.6C-51.6,2.5,-52.9,.6,-52.9,-1.7L-52.9,-30.0" transform="translate(524.90,221.85)" id="shape2" stroke-linecap="round" stroke="#696969"/><path fill="none" d="M.0,22.5L.0,4.3C.0,2.6,.0,.3,.0,-1.7C.0,-2.6,.0,-3.6,.0,-4.7L.0,-22.5" transform="translate(472.03,91.35)" id="shape3" stroke-linecap="round" stroke="#696969"/><path fill="none" d="M-152.8,30.0L-152.8,7.3C-152.8,5.6,-151.4,4.3,-149.8,4.3L143.8,4.3C145.4,4.3,147.9,4.5,149.6,3.6C151.5,2.5,152.8,.6,152.8,-1.7L152.8,-30.0" transform="translate(730.53,221.85)" id="shape4" stroke-linecap="round" stroke="#696969"/><path fill="none" d="M86.6,22.5L86.6,4.3C86.6,2.6,85.3,1.3,83.6,1.3L-77.6,1.3C-79.3,1.3,-81.7,1.5,-83.5,.6C-85.4,-0.5,-86.6,-2.4,-86.6,-4.7L-86.6,-22.5" transform="translate(796.65,129.35)" id="shape5" stroke-linecap="round" stroke="#696969"/><path fill="none" d="M-33.1,22.5L-33.1,4.3C-33.1,2.6,-31.8,1.3,-30.1,1.3L24.1,1.3C25.8,1.3,28.2,1.5,30.0,.6C31.9,-0.5,33.1,-2.4,33.1,-4.7L33.1,-22.5" transform="translate(916.40,129.35)" id="shape6" stroke-linecap="round" stroke="#696969"/><g transform="translate(527.78,251.85)" id="shape7"><path stroke-width="3" fill-rule="nonzero" fill="#3f5cb8" d="M.0,.0L100.0,.0L100.0,56.0L.0,56.0L.0,.0z" stroke="#3f5cb8"/><text style="fill:#ffffff;font-family:Microsoft YaHei;font-size:10.00pt" xml:space="preserve"><tspan x="24.8" y="34.0">中心主题</tspan></text></g><g transform="translate(39.03,151.85)" id="shape8"><path fill-rule="nonzero" fill="#eaebf1" d="M.0,.0L255.0,.0L255.0,40.0L.0,40.0L.0,.0z" stroke="#eaebf1"/><text style="fill:#303030;font-family:Microsoft YaHei;font-size:10.00pt" xml:space="preserve"><tspan x="22.8" y="25.5">it may prove difficult or impossible</tspan></text></g><g transform="translate(324.03,113.85)" id="shape9"><path fill-rule="nonzero" fill="#eaebf1" d="M.0,.0L296.0,.0L296.0,78.0L.0,78.0L.0,.0z" stroke="#eaebf1"/><text style="fill:#303030;font-family:Microsoft YaHei;font-size:10.00pt" xml:space="preserve"><tspan x="103.8" y="25.5">to establish (v.)</tspan><tspan x="66.8" y="44.5">for a successful revolution </tspan><tspan x="22.8" y="63.5">a comprehensive and trustworthy picture</tspan></text></g><g transform="translate(381.03,38.85)" id="shape10"><path fill="none" d="M.0,.0L182.0,.0L182.0,30.0L.0,30.0L.0,.0z" stroke="#696969"/><text style="fill:#454545;font-family:Microsoft YaHei;font-size:10.00pt" xml:space="preserve"><tspan x="13.8" y="20.5">of those who participated</tspan></text></g><g transform="translate(717.78,151.85)" id="shape11"><path fill-rule="nonzero" fill="#eaebf1" d="M.0,.0L331.0,.0L331.0,40.0L.0,40.0L.0,.0z" stroke="#eaebf1"/><text style="fill:#303030;font-family:Microsoft YaHei;font-size:10.00pt" xml:space="preserve"><tspan x="22.8" y="25.5">or to answer (v.) even the most basic questions</tspan></text></g><g transform="translate(650.03,76.85)" id="shape12"><path fill="none" d="M.0,.0L120.0,.0L120.0,30.0L.0,30.0L.0,.0z" stroke="#696969"/><text style="fill:#454545;font-family:Microsoft YaHei;font-size:10.00pt" xml:space="preserve"><tspan x="13.8" y="20.5">one might pose</tspan></text></g><g transform="translate(782.53,76.85)" id="shape13"><path fill="none" d="M.0,.0L334.0,.0L334.0,30.0L.0,30.0L.0,.0z" stroke="#696969"/><text style="fill:#454545;font-family:Microsoft YaHei;font-size:10.00pt" xml:space="preserve"><tspan x="13.8" y="20.5">concerning (v.) the social origins of the insurgents.</tspan></text></g></g></svg>