<svg xmlns="http://www.w3.org/2000/svg" xmlns:ev="http://www.w3.org/2001/xml-events" height="414" xmlns:xlink="http://www.w3.org/1999/xlink" viewBox="0 0 1236 414" width="1236"><defs/><g transform="translate(5.5,5.5)" id="page1"><rect height="404" fill="#ffffff" x="0" y="0" width="1226"/><path fill="none" d="M221.4,30.0L221.4,7.3C221.4,5.6,220.0,4.3,218.4,4.3L-212.4,4.3C-214.0,4.3,-216.5,4.5,-218.3,3.6C-220.1,2.5,-221.4,.6,-221.4,-1.7L-221.4,-30.0" transform="translate(391.40,277.85)" id="shape1" stroke-linecap="round" stroke="#696969"/><path fill="none" d="M.0,22.5L.0,4.3C.0,2.6,.0,.3,.0,-1.7C.0,-2.6,.0,-3.6,.0,-4.7L.0,-22.5" transform="translate(170.03,185.35)" id="shape2" stroke-linecap="round" stroke="#696969"/><path fill="none" d="M-73.0,30.0L-73.0,7.3C-73.0,5.6,-71.7,4.3,-70.0,4.3L64.0,4.3C65.7,4.3,68.1,4.5,69.9,3.6C71.7,2.5,73.0,.6,73.0,-1.7L73.0,-30.0" transform="translate(685.78,277.85)" id="shape3" stroke-linecap="round" stroke="#696969"/><path fill="none" d="M157.9,22.5L157.9,4.3C157.9,2.6,156.5,1.3,154.9,1.3L-148.9,1.3C-150.5,1.3,-153.0,1.5,-154.8,.6C-156.6,-0.5,-157.9,-2.4,-157.9,-4.7L-157.9,-22.5" transform="translate(600.90,185.35)" id="shape4" stroke-linecap="round" stroke="#696969"/><path fill="none" d="M106.3,22.5L106.3,4.3C106.3,2.6,104.9,1.3,103.3,1.3L-97.3,1.3C-98.9,1.3,-101.4,1.5,-103.1,.6C-105.0,-0.5,-106.3,-2.4,-106.3,-4.7L-106.3,-22.5" transform="translate(770.78,110.35)" id="shape5" stroke-linecap="round" stroke="#696969"/><path fill="none" d="M6.3,22.5L6.3,4.3C6.3,2.6,4.9,1.3,3.3,1.3L2.8,1.3C1.1,1.3,-1.4,1.5,-3.1,.6C-5.0,-0.5,-6.3,-2.4,-6.3,-4.7L-6.3,-22.5" transform="translate(870.78,110.35)" id="shape6" stroke-linecap="round" stroke="#696969"/><path fill="none" d="M-100.0,22.5L-100.0,4.3C-100.0,2.6,-98.7,1.3,-97.0,1.3L91.0,1.3C92.7,1.3,95.1,1.5,96.9,.6C98.7,-0.5,100.0,-2.4,100.0,-4.7L100.0,-22.5" transform="translate(977.03,110.35)" id="shape7" stroke-linecap="round" stroke="#696969"/><path fill="none" d="M-59.1,22.5L-59.1,4.3C-59.1,2.6,-57.8,1.3,-56.1,1.3L50.1,1.3C51.8,1.3,54.2,1.5,56.0,.6C57.9,-0.5,59.1,-2.4,59.1,-4.7L59.1,-22.5" transform="translate(817.90,185.35)" id="shape8" stroke-linecap="round" stroke="#696969"/><g transform="translate(562.78,307.85)" id="shape9"><path stroke-width="3" fill-rule="nonzero" fill="#3f5cb8" d="M.0,.0L100.0,.0L100.0,56.0L.0,56.0L.0,.0z" stroke="#3f5cb8"/><text style="fill:#ffffff;font-family:Microsoft YaHei;font-size:10.00pt" xml:space="preserve"><tspan x="24.8" y="34.0">中心主题</tspan></text></g><g transform="translate(46.53,207.85)" id="shape10"><path fill-rule="nonzero" fill="#eaebf1" d="M.0,.0L247.0,.0L247.0,40.0L.0,40.0L.0,.0z" stroke="#eaebf1"/><text style="fill:#303030;font-family:Microsoft YaHei;font-size:10.00pt" xml:space="preserve"><tspan x="21.8" y="26.0">Besides the normal economic risk</tspan></text></g><g transform="translate(39.03,132.85)" id="shape11"><path fill="none" d="M.0,.0L262.0,.0L262.0,30.0L.0,30.0L.0,.0z" stroke="#696969"/><text style="fill:#454545;font-family:Microsoft YaHei;font-size:10.00pt" xml:space="preserve"><tspan x="13.8" y="20.5">that accompanies (v.) such enterprises,</tspan></text></g><g transform="translate(604.78,207.85)" id="shape12"><path fill-rule="nonzero" fill="#eaebf1" d="M.0,.0L308.0,.0L308.0,40.0L.0,40.0L.0,.0z" stroke="#eaebf1"/><text style="fill:#303030;font-family:Microsoft YaHei;font-size:10.00pt" xml:space="preserve"><tspan x="22.8" y="25.5">主` investors `谓` face (v.) the additional risk</tspan></text></g><g transform="translate(331.03,113.85)" id="shape13"><path fill="none" d="M.0,.0L224.0,.0L224.0,49.0L.0,49.0L.0,.0z" stroke="#696969"/><text style="fill:#454545;font-family:Microsoft YaHei;font-size:10.00pt" xml:space="preserve"><tspan x="21.8" y="20.5">that `主` the host government</tspan><tspan x="13.8" y="39.5">`谓`  may attempt (v.) unilaterally</tspan></text></g><g transform="translate(567.53,38.85)" id="shape14"><path fill="none" d="M.0,.0L194.0,.0L194.0,49.0L.0,49.0L.0,.0z" stroke="#696969"/><text style="fill:#454545;font-family:Microsoft YaHei;font-size:10.00pt" xml:space="preserve"><tspan x="16.3" y="20.5">to change (v.) [in its favor] </tspan><tspan x="13.8" y="39.5">the terms of the agreement</tspan></text></g><g transform="translate(774.03,38.85)" id="shape15"><path fill="none" d="M.0,.0L181.0,.0L181.0,49.0L.0,49.0L.0,.0z" stroke="#696969"/><text style="fill:#454545;font-family:Microsoft YaHei;font-size:10.00pt" xml:space="preserve"><tspan x="16.3" y="20.5">or even to terminate (v.) </tspan><tspan x="13.8" y="39.5">the agreement altogether</tspan></text></g><g transform="translate(967.53,38.85)" id="shape16"><path fill="none" d="M.0,.0L219.0,.0L219.0,49.0L.0,49.0L.0,.0z" stroke="#696969"/><text style="fill:#454545;font-family:Microsoft YaHei;font-size:10.00pt" xml:space="preserve"><tspan x="13.8" y="20.5">and appropriate (v.) the project </tspan><tspan x="84.3" y="39.5">for itself.</tspan></text></g><g transform="translate(852.53,132.85)" id="shape17"><path fill="none" d="M.0,.0L49.0,.0L49.0,30.0L.0,30.0L.0,.0z" stroke="#696969"/><text style="fill:#454545;font-family:Microsoft YaHei;font-size:10.00pt" xml:space="preserve"><tspan x="13.8" y="20.5">`宾` </tspan></text></g></g></svg>