<svg id="图层_1" data-name="图层 1" xmlns="http://www.w3.org/2000/svg" viewBox="0 0 1052.06 307.2"><defs><style>.cls-1,.cls-7{fill:none;stroke:#696969;}.cls-1{stroke-linecap:round;}.cls-1,.cls-2,.cls-5,.cls-7{stroke-width:2px;}.cls-2{fill:#3f5cb8;stroke:#3f5cb8;}.cls-14,.cls-3,.cls-4,.cls-6,.cls-8,.cls-9{isolation:isolate;}.cls-14,.cls-4,.cls-6,.cls-8,.cls-9{font-size:12px;}.cls-4{fill:#fff;}.cls-14,.cls-4,.cls-6,.cls-9{font-family:MicrosoftYaHei, Microsoft YaHei;}.cls-5{fill:#eaebf1;stroke:#eaebf1;}.cls-6{fill:#303030;}.cls-8{fill:#c00000;font-family:MicrosoftYaHei-Bold, Microsoft YaHei;font-weight:700;}.cls-9{fill:#454545;}.cls-10{letter-spacing:-0.01em;}.cls-11{letter-spacing:0em;}.cls-12{letter-spacing:-0.02em;}.cls-13{letter-spacing:0.01em;}.cls-14{fill:#42c181;}.cls-15{letter-spacing:-0.01em;}.cls-16{letter-spacing:-0.01em;}.cls-17{letter-spacing:-0.07em;}</style></defs><g id="shape1"><path class="cls-1" d="M113,149.82h23.7a3,3,0,0,0,3-3V32a3,3,0,0,1,3-3h33.4"/></g><g id="shape2"><path class="cls-1" d="M113,149.83h23.7a3,3,0,0,1,3,3v31a3,3,0,0,0,3,3h33.4"/></g><g id="shape3"><path class="cls-1" d="M425.06,186.84h12.2a3,3,0,0,0,3-3v-47.6a3,3,0,0,1,3-3h6.8"/></g><g id="shape4"><path class="cls-1" d="M425.06,186.87h12.2a3,3,0,0,1,3,3v9.8a3,3,0,0,0,3,3h6.8"/></g><g id="shape5"><path class="cls-1" d="M512.06,202.71h12.2a3,3,0,0,1,3,3v23a3,3,0,0,0,3,3h6.8"/></g><g id="shape6"><path class="cls-1" d="M425.06,186.84h12.2a3,3,0,0,1,3,3v88.8a3,3,0,0,0,3,3h6.8"/></g><g id="shape7"><path class="cls-1" d="M654.06,281.61h12.2a3,3,0,0,1,3,3v3.6a3,3,0,0,0,3,3h6.8"/></g><g id="shape8"><path class="cls-2" d="M18.06,122.33h91a4,4,0,0,1,4,4v47a4,4,0,0,1-4,4h-91a4,4,0,0,1-4-4v-47A4,4,0,0,1,18.06,122.33Z"/><g class="cls-3"><text class="cls-4" transform="translate(38.36 155.83)">中心主题</text></g></g><g id="shape9"><path class="cls-5" d="M180.06,8.51h211a4,4,0,0,1,4,4v33a4,4,0,0,1-4,4h-211a4,4,0,0,1-4-4v-33A4,4,0,0,1,180.06,8.51Z"/><g class="cls-3"><text class="cls-6" transform="translate(198.36 35.01)">Islamic law is a phenomenon</text></g></g><g id="shape10"><path class="cls-5" d="M180.06,166.33h241a4,4,0,0,1,4,4v33a4,4,0,0,1-4,4h-241a4,4,0,0,1-4-4v-33A4,4,0,0,1,180.06,166.33Z"/><g class="cls-3"><text class="cls-6" transform="translate(198.36 192.83)">对phenomenon 的后定 : so...that...</text></g></g><g id="shape11"><path class="cls-7" d="M450.06,133.31h188"/><g class="cls-3"><text class="cls-8" transform="translate(461.66 104.11)">so</text><text class="cls-9" transform="translate(476.66 104.11)"><tspan xml:space="preserve"> diffe</tspan><tspan class="cls-10" x="29.55" y="0">r</tspan><tspan x="33.96" y="0">ent </tspan></text><text class="cls-9" transform="translate(461.66 123.11)">f<tspan class="cls-10" x="4.16" y="0">r</tspan><tspan x="8.57" y="0">om all other fo</tspan><tspan class="cls-11" x="93.79" y="0">r</tspan><tspan x="98.34" y="0">ms </tspan><tspan class="cls-12" x="118.69" y="0">o</tspan><tspan x="126.09" y="0">f law</tspan></text></g></g><g id="shape12"><path class="cls-7" d="M450.06,202.76h62"/><g class="cls-3"><text class="cls-9" transform="translate(461.66 192.56)">插入语</text></g></g><g id="shape13"><path class="cls-7" d="M537.06,231.76h515"/><g class="cls-3"><text class="cls-9" transform="translate(548.66 163.56)">让步状语 notwithstanding, <tspan class="cls-12" x="152" y="0">o</tspan><tspan x="159.4" y="0">f cou</tspan><tspan class="cls-13" x="188.15" y="0">r</tspan><tspan x="192.82" y="0">se, </tspan></text><text class="cls-9" transform="translate(548.66 183.56)">a considerable and inevitable number</text><text class="cls-9" transform="translate(773.66 183.56)"> <tspan class="cls-12" x="3.55" y="0">o</tspan><tspan x="10.95" y="0">f coincidences (n.) with one or the other </tspan></text><text class="cls-9" transform="translate(548.66 202.56)"><tspan class="cls-12">o</tspan><tspan x="7.39" y="0">f them </tspan></text><text class="cls-9" transform="translate(548.66 221.56)">范围限定 as far as /</text><text class="cls-14" transform="translate(665.66 221.56)">subject mat<tspan class="cls-15" x="67.01" y="0">t</tspan><tspan x="71.38" y="0">er</tspan></text><text class="cls-9" transform="translate(754.66 221.56)"><tspan xml:space="preserve"> and </tspan></text><text class="cls-14" transform="translate(785.66 221.56)">positi<tspan class="cls-16" x="31.71" y="0">v</tspan><tspan x="37.93" y="0">e enactments</tspan></text><text class="cls-9" transform="translate(908.66 221.56)"><tspan xml:space="preserve"> a</tspan><tspan class="cls-10" x="10.18" y="0">r</tspan><tspan x="14.6" y="0">e conce</tspan><tspan class="cls-11" x="58.82" y="0">r</tspan><tspan x="63.38" y="0">ned</tspan></text></g></g><g id="shape14"><path class="cls-7" d="M450.06,281.71h204"/><g class="cls-3"><text class="cls-8" transform="translate(461.66 271.51)">that</text><text class="cls-9" transform="translate(487.66 271.51)"><tspan xml:space="preserve"> its study is indispensable</tspan></text></g></g><g id="shape15"><path class="cls-7" d="M679.06,291.21h287"/><g class="cls-3"><text class="cls-9" transform="translate(690.66 262.01)">in o<tspan class="cls-10" x="21.77" y="0">r</tspan><tspan x="26.18" y="0">der </tspan><tspan class="cls-15" x="48.8" y="0">t</tspan><tspan x="53.17" y="0">o app</tspan><tspan class="cls-10" x="86.31" y="0">r</tspan><tspan x="90.72" y="0">ecia</tspan><tspan class="cls-15" x="113.37" y="0">t</tspan><tspan x="117.74" y="0">e (</tspan><tspan class="cls-17" x="132.11" y="0">v</tspan><tspan x="137.6" y="0">.) adequa</tspan><tspan class="cls-15" x="190.86" y="0">t</tspan><tspan x="195.23" y="0">ely </tspan></text><text class="cls-9" transform="translate(690.66 281.01)">the full range <tspan class="cls-12" x="80.36" y="0">o</tspan><tspan x="87.75" y="0">f possible legal phenomena.</tspan></text></g></g></svg>