<svg xmlns:ev="http://www.w3.org/2001/xml-events" xmlns:xlink="http://www.w3.org/1999/xlink" xmlns="http://www.w3.org/2000/svg" viewBox="0 0 1793 422" width="1793" height="422"><defs/><g id="page1" transform="translate(5.5,5.5)"><rect fill="#ffffff" x="0" width="1783" height="412" y="0"/><path id="shape1" transform="translate(282.15,191.85)" stroke="#696969" stroke-linecap="round" fill="none" d="M101.4,22.5L101.4,4.3C101.4,2.6,100.0,1.3,98.4,1.3L-92.4,1.3C-94.0,1.3,-96.5,1.5,-98.3,.6C-100.1,-0.5,-101.4,-2.4,-101.4,-4.7L-101.4,-22.5"/><path id="shape2" transform="translate(457.40,191.85)" stroke="#696969" stroke-linecap="round" fill="none" d="M-73.9,22.5L-73.9,4.3C-73.9,2.6,-72.5,1.3,-70.9,1.3L64.9,1.3C66.5,1.3,69.0,1.5,70.8,.6C72.6,-0.5,73.9,-2.4,73.9,-4.7L73.9,-22.5"/><path id="shape3" transform="translate(637.65,285.35)" stroke="#696969" stroke-linecap="round" fill="none" d="M254.1,30.0L254.1,7.3C254.1,5.6,252.8,4.3,251.1,4.3L-245.1,4.3C-246.8,4.3,-249.2,4.5,-251.0,3.6C-252.9,2.5,-254.1,.6,-254.1,-1.7L-254.1,-30.0"/><path id="shape4" transform="translate(1126.90,191.85)" stroke="#696969" stroke-linecap="round" fill="none" d="M124.1,22.5L124.1,4.3C124.1,2.6,122.8,1.3,121.1,1.3L-115.1,1.3C-116.8,1.3,-119.2,1.5,-121.0,.6C-122.9,-0.5,-124.1,-2.4,-124.1,-4.7L-124.1,-22.5"/><path id="shape5" transform="translate(1071.40,285.35)" stroke="#696969" stroke-linecap="round" fill="none" d="M-179.6,30.0L-179.6,7.3C-179.6,5.6,-178.3,4.3,-176.6,4.3L170.6,4.3C172.3,4.3,174.7,4.5,176.5,3.6C178.4,2.5,179.6,.6,179.6,-1.7L179.6,-30.0"/><path id="shape6" transform="translate(1376.65,191.85)" stroke="#696969" stroke-linecap="round" fill="none" d="M-125.6,22.5L-125.6,4.3C-125.6,2.6,-124.3,1.3,-122.6,1.3L116.6,1.3C118.3,1.3,120.7,1.5,122.5,.6C124.4,-0.5,125.6,-2.4,125.6,-4.7L125.6,-22.5"/><g id="shape7" transform="translate(837.78,315.35)"><path stroke="#3f5cb8" stroke-width="3" fill="#3f5cb8" fill-rule="nonzero" d="M.0,.0L108.0,.0L108.0,57.0L.0,57.0L.0,.0z"/><text xml:space="preserve" style="fill:#ffffff;font-family:Microsoft YaHei;font-size:11.00pt"><tspan x="25.8" y="34.5">中心主题</tspan></text></g><g id="shape8" transform="translate(39.28,118.35)"><path stroke="#696969" fill="none" d="M.0,.0L283.0,.0L283.0,51.0L.0,51.0L.0,.0z"/><text xml:space="preserve" style="fill:#000000;font-family:Microsoft YaHei;font-size:11.00pt"><tspan x="25.3" y="21.5">While `主` historians of literature </tspan><tspan x="13.8" y="41.5">`谓` have always been aware (a.) that</tspan></text></g><g id="shape9" transform="translate(334.78,118.35)"><path stroke="#696969" fill="none" d="M.0,.0L393.0,.0L393.0,51.0L.0,51.0L.0,.0z"/><text xml:space="preserve" style="fill:#454545;font-family:Microsoft YaHei;font-size:11.00pt"><tspan x="183.3" y="21.5">宾从</tspan><tspan x="13.8" y="41.5">`主` writers `谓` work (v.) within particular traditions,</tspan></text></g><g id="shape10" transform="translate(347.53,214.35)"><path stroke="#eaebf1" fill="#eaebf1" fill-rule="nonzero" d="M.0,.0L72.0,.0L72.0,41.0L.0,41.0L.0,.0z"/><text xml:space="preserve" style="fill:#303030;font-family:Microsoft YaHei;font-size:11.00pt"><tspan x="22.8" y="26.5">主题</tspan></text></g><g id="shape11" transform="translate(757.78,118.35)"><path stroke="#696969" fill="none" d="M.0,.0L490.0,.0L490.0,51.0L.0,51.0L.0,.0z"/><text xml:space="preserve" style="fill:#454545;font-family:Microsoft YaHei;font-size:11.00pt"><tspan x="15.8" y="21.5">主` the application of this notion </tspan><tspan style="font-weight:bold" x="252.8">to</tspan><tspan x="268.8"> the history of political ideas </tspan><tspan x="13.8" y="41.5">`谓` forms (v.) a sharp contrast /to the assumptions of the 1950s, </tspan></text></g><g id="shape12" transform="translate(1215.03,214.35)"><path stroke="#eaebf1" fill="#eaebf1" fill-rule="nonzero" d="M.0,.0L72.0,.0L72.0,41.0L.0,41.0L.0,.0z"/><text xml:space="preserve" style="fill:#303030;font-family:Microsoft YaHei;font-size:11.00pt"><tspan x="22.8" y="26.5">主题</tspan></text></g><g id="shape13" transform="translate(1260.28,39.35)"><path stroke="#696969" fill="none" d="M.0,.0L484.0,.0L484.0,130.0L.0,130.0L.0,.0z"/><text xml:space="preserve" style="fill:#454545;font-family:Microsoft YaHei;font-size:11.00pt"><tspan x="104.8" y="21.5">when</tspan><tspan style="font-weight:bold" x="143.8"> it was naively thought (v.) that</tspan><tspan x="378.8"> </tspan><tspan x="30.3" y="41.5">`主` the close reading of a text /by an analytic philosopher /</tspan><tspan x="63.8" y="61.5">`系` was sufficient (a.) to establish (v.) its meaning, </tspan><tspan x="144.3" y="100.5">even if `主` the philosopher </tspan><tspan x="13.8" y="120.5">`谓` </tspan><tspan style="font-weight:bold" x="40.8">had no knowledge of</tspan><tspan x="201.8"> the period of the text's composition.</tspan></text></g></g></svg>