<svg xmlns:ev="http://www.w3.org/2001/xml-events" xmlns:xlink="http://www.w3.org/1999/xlink" height="471" viewBox="0 0 1352 471" xmlns="http://www.w3.org/2000/svg" width="1352"><defs/><g transform="translate(5.5,5.5)" id="page1"><rect x="0" height="461" width="1342" y="0" fill="#ffffff"/><path d="M237.5,30.0L237.5,7.3C237.5,5.6,236.2,4.3,234.5,4.3L-228.5,4.3C-230.2,4.3,-232.6,4.5,-234.4,3.6C-236.2,2.5,-237.5,.6,-237.5,-1.7L-237.5,-30.0" transform="translate(433.28,334.85)" id="shape1" stroke-linecap="round" stroke="#696969" fill="none"/><path d="M93.3,30.0L93.3,7.3C93.3,5.6,91.9,4.3,90.3,4.3L-84.3,4.3C-85.9,4.3,-88.4,4.5,-90.1,3.6C-92.0,2.5,-93.3,.6,-93.3,-1.7L-93.3,-30.0" transform="translate(577.53,334.85)" id="shape2" stroke-linecap="round" stroke="#696969" fill="none"/><path d="M.0,22.5L.0,4.3C.0,2.6,.0,.3,.0,-1.7C.0,-2.6,.0,-3.6,.0,-4.7L.0,-22.5" transform="translate(484.28,242.35)" id="shape3" stroke-linecap="round" stroke="#696969" fill="none"/><path d="M.0,22.5L.0,4.3C.0,2.6,.0,.3,.0,-1.7C.0,-2.6,.0,-3.6,.0,-4.7L.0,-22.5" transform="translate(484.28,110.35)" id="shape4" stroke-linecap="round" stroke="#696969" fill="none"/><path d="M-3.3,30.0L-3.3,4.3C-3.3,4.3,-3.3,4.3,-3.3,4.3L-2.8,4.3C-2.8,4.3,-2.8,4.3,-2.8,4.3C.6,4.3,3.3,1.6,3.3,-1.7L3.3,-30.0" transform="translate(674.03,334.85)" id="shape5" stroke-linecap="round" stroke="#696969" fill="none"/><path d="M-182.5,30.0L-182.5,7.3C-182.5,5.6,-181.2,4.3,-179.5,4.3L173.5,4.3C175.2,4.3,177.6,4.5,179.4,3.6C181.2,2.5,182.5,.6,182.5,-1.7L182.5,-30.0" transform="translate(853.28,334.85)" id="shape6" stroke-linecap="round" stroke="#696969" fill="none"/><g transform="translate(620.78,364.85)" id="shape7"><path d="M.0,.0L100.0,.0L100.0,56.0L.0,56.0L.0,.0z" stroke="#3f5cb8" fill-rule="nonzero" stroke-width="3" fill="#3f5cb8"/><text style="fill:#ffffff;font-family:Microsoft YaHei;font-size:10.00pt" xml:space="preserve"><tspan x="25.8" y="33.5">中心主题</tspan></text></g><g transform="translate(38.78,226.85)" id="shape8"><path d="M.0,.0L314.0,.0L314.0,78.0L.0,78.0L.0,.0z" stroke="#eaebf1" fill-rule="nonzero" fill="#eaebf1"/><text style="fill:#303030;font-family:Microsoft YaHei;font-size:10.00pt" xml:space="preserve"><tspan x="37.8" y="25.5">`主` How explicit (a.) and consistent (a.) </tspan><tspan x="22.8" y="44.5">the symbolizing process was intended to be </tspan><tspan x="67.8" y="63.5">`系` is a much thornier matter</tspan></text></g><g transform="translate(415.78,264.85)" id="shape9"><path d="M.0,.0L137.0,.0L137.0,40.0L.0,40.0L.0,.0z" stroke="#eaebf1" fill-rule="nonzero" fill="#eaebf1"/><text style="fill:#303030;font-family:Microsoft YaHei;font-size:10.00pt" xml:space="preserve"><tspan x="22.8" y="25.5">but `主` anyone</tspan></text></g><g transform="translate(382.78,132.85)" id="shape10"><path d="M.0,.0L203.0,.0L203.0,87.0L.0,87.0L.0,.0z" stroke="#696969" fill="none"/><text style="fill:#454545;font-family:Microsoft YaHei;font-size:10.00pt" xml:space="preserve"><tspan x="25.8" y="20.5">who has </tspan><tspan x="80.8" style="fill:#c00000">more</tspan><tspan x="112.8"> </tspan><tspan x="116.8" style="fill:#4c85d9">familiarity</tspan><tspan x="176.8"> </tspan><tspan x="13.8" style="fill:#c00000" y="39.5">than</tspan><tspan x="41.8"> a passing acquaintance </tspan><tspan x="37.8" style="fill:#4c85d9" y="58.5">with</tspan><tspan x="63.8"> Dutch literature </tspan><tspan x="19.8" y="77.5">or </tspan><tspan x="36.8" style="fill:#4c85d9">with</tspan><tspan x="62.8"> the kinds of images</tspan></text></g><g transform="translate(384.78,38.85)" id="shape11"><path d="M.0,.0L199.0,.0L199.0,49.0L.0,49.0L.0,.0z" stroke="#696969" fill="none"/><text style="fill:#454545;font-family:Microsoft YaHei;font-size:10.00pt" xml:space="preserve"><tspan x="13.8" y="20.5">used (v.) in illustrated books </tspan><tspan x="23.3" y="39.5">(above all emblem books)</tspan></text></g><g transform="translate(615.78,264.85)" id="shape12"><path d="M.0,.0L123.0,.0L123.0,40.0L.0,40.0L.0,.0z" stroke="#eaebf1" fill-rule="nonzero" fill="#eaebf1"/><text style="fill:#303030;font-family:Microsoft YaHei;font-size:10.00pt" xml:space="preserve"><tspan x="22.8" y="25.5">`谓` will know</tspan></text></g><g transform="translate(768.78,188.85)" id="shape13"><path d="M.0,.0L534.0,.0L534.0,116.0L.0,116.0L.0,.0z" stroke="#eaebf1" fill-rule="nonzero" fill="#eaebf1"/><rect x="228.8" height="19.0" width="82.0" y="10.5" fill="#ffff00"/><rect x="405.8" height="19.0" width="82.0" y="29.5" fill="#ffff00"/><text style="fill:#303030;font-family:Microsoft YaHei;font-size:10.00pt" xml:space="preserve"><tspan x="25.8" y="25.5">`宾` how much </tspan><tspan x="119.8" style="fill:#c00000">less pervasive</tspan><tspan x="202.8"> (a.) </tspan><tspan x="228.8">was the habit</tspan><tspan x="310.8"> of investing (v.) ordinary objects   </tspan><tspan x="32.8" y="44.5">(</tspan><tspan x="36.8" style="text-decoration:underline">← 注意: 这里有倒装, 正常语序是 how much less pervasive (a.) </tspan><tspan x="405.8" style="text-decoration:underline">the habit was</tspan><tspan x="487.8" style="text-decoration:underline">... )</tspan><tspan x="178.3" style="fill:#c00000" y="63.5">/than</tspan><tspan x="212.3"> of investing (v.) scenes </tspan><tspan x="210.8" y="82.5">with meaning that </tspan><tspan x="115.3" y="101.5">go beyond their surface and outward appearance.</tspan></text></g></g></svg>