<svg viewBox="0 0 1294 433" width="1294" xmlns="http://www.w3.org/2000/svg" xmlns:ev="http://www.w3.org/2001/xml-events" height="433" xmlns:xlink="http://www.w3.org/1999/xlink"><defs/><g id="page1" transform="translate(5.5,5.5)"><rect x="0" width="1284" y="0" fill="#ffffff" height="423"/><path stroke-linecap="round" fill="none" stroke="#696969" d="M230.5,30.0L230.5,7.3C230.5,5.6,229.2,4.3,227.5,4.3L-221.5,4.3C-223.2,4.3,-225.6,4.5,-227.4,3.6C-229.2,2.5,-230.5,.6,-230.5,-1.7L-230.5,-30.0" id="shape1" transform="translate(411.28,297.55)"/><path stroke-linecap="round" fill="none" stroke="#696969" d="M117.5,30.0L117.5,7.3C117.5,5.6,116.2,4.3,114.5,4.3L-108.5,4.3C-110.2,4.3,-112.6,4.5,-114.4,3.6C-116.2,2.5,-117.5,.6,-117.5,-1.7L-117.5,-30.0" id="shape2" transform="translate(524.28,297.55)"/><path stroke-linecap="round" fill="none" stroke="#696969" d="M.0,22.5L.0,4.3C.0,2.6,.0,.3,.0,-1.7C.0,-2.6,.0,-3.6,.0,-4.7L.0,-22.5" id="shape3" transform="translate(180.78,186.05)"/><path stroke-linecap="round" fill="none" stroke="#696969" d="M28.0,30.0L28.0,7.3C28.0,5.6,26.7,4.3,25.0,4.3L-19.0,4.3C-20.7,4.3,-23.1,4.5,-24.9,3.6C-26.7,2.5,-28.0,.6,-28.0,-1.7L-28.0,-30.0" id="shape4" transform="translate(613.78,297.55)"/><path stroke-linecap="round" fill="none" stroke="#696969" d="M-168.0,30.0L-168.0,7.3C-168.0,5.6,-166.7,4.3,-165.0,4.3L159.0,4.3C160.7,4.3,163.1,4.5,164.9,3.6C166.7,2.5,168.0,.6,168.0,-1.7L168.0,-30.0" id="shape5" transform="translate(809.78,297.55)"/><path stroke-linecap="round" fill="none" stroke="#696969" d="M.0,22.5L.0,4.3C.0,2.6,.0,.3,.0,-1.7C.0,-2.6,.0,-3.6,.0,-4.7L.0,-22.5" id="shape6" transform="translate(977.78,186.05)"/><path stroke-linecap="round" fill="none" stroke="#696969" d="M.0,22.5L.0,4.3C.0,2.6,.0,.3,.0,-1.7C.0,-2.6,.0,-3.6,.0,-4.7L.0,-22.5" id="shape7" transform="translate(977.78,92.05)"/><g id="shape8" transform="translate(591.78,327.55)"><path fill-rule="nonzero" fill="#3f5cb8" stroke-width="3" d="M.0,.0L100.0,.0L100.0,56.0L.0,56.0L.0,.0z" stroke="#3f5cb8"/><text xml:space="preserve" style="fill:#ffffff;font-family:Microsoft YaHei;font-size:10.00pt"><tspan x="25.8" y="33.5">中心主题</tspan></text></g><g id="shape9" transform="translate(99.28,208.55)"><path fill-rule="nonzero" fill="#eaebf1" d="M.0,.0L163.0,.0L163.0,59.0L.0,59.0L.0,.0z" stroke="#eaebf1"/><text xml:space="preserve" style="fill:#303030;font-family:Microsoft YaHei;font-size:10.00pt"><tspan x="22.8" y="25.5">In the early 1950's, </tspan><tspan x="41.3" y="44.5">`主` </tspan><tspan x="66.3" style="fill:#c00000">historians</tspan></text></g><g id="shape10" transform="translate(352.78,227.55)"><path fill-rule="nonzero" fill="#eaebf1" d="M.0,.0L108.0,.0L108.0,40.0L.0,40.0L.0,.0z" stroke="#eaebf1"/><text xml:space="preserve" style="fill:#303030;font-family:Microsoft YaHei;font-size:10.00pt"><tspan x="22.8" y="25.5">`谓` </tspan><tspan x="47.8" style="fill:#c00000">began</tspan><tspan x="85.8">,</tspan></text></g><g id="shape11" transform="translate(38.78,95.55)"><path fill="none" stroke="#696969" d="M.0,.0L284.0,.0L284.0,68.0L.0,68.0L.0,.0z"/><text xml:space="preserve" style="fill:#454545;font-family:Microsoft YaHei;font-size:10.00pt"><tspan x="29.8" y="20.5">who studied (v.) preindustrial Europe </tspan><tspan x="14.8" y="39.5">(which we may define (v.)  here as Europe </tspan><tspan x="13.8" y="58.5">in the period from roughly 1300 to 1800) </tspan></text></g><g id="shape12" transform="translate(490.78,208.55)"><path fill-rule="nonzero" fill="#eaebf1" d="M.0,.0L190.0,.0L190.0,59.0L.0,59.0L.0,.0z" stroke="#eaebf1"/><rect x="22.8" width="39.0" y="10.5" fill="#ffff00" height="19.0"/><text xml:space="preserve" style="fill:#303030;font-family:Microsoft YaHei;font-size:10.00pt"><tspan x="22.8" y="25.5">插入语</tspan><tspan x="61.8"> for the first time </tspan><tspan x="43.8" y="44.5">in large numbers,</tspan></text></g><g id="shape13" transform="translate(710.78,208.55)"><path fill-rule="nonzero" fill="#eaebf1" d="M.0,.0L534.0,.0L534.0,59.0L.0,59.0L.0,.0z" stroke="#eaebf1"/><rect x="132.3" width="32.0" y="10.5" fill="#ffff00" height="19.0"/><rect x="421.3" width="28.0" y="10.5" fill="#ffff00" height="19.0"/><text xml:space="preserve" style="fill:#303030;font-family:Microsoft YaHei;font-size:10.00pt"><tspan x="23.3" y="25.5" style="fill:#c00000">to investigate</tspan><tspan x="106.3"> (v.) </tspan><tspan x="132.3">more</tspan><tspan x="164.3"> of the preindustrial European population </tspan><tspan x="421.3">than</tspan><tspan x="449.3"> </tspan><tspan x="453.3" style="fill:#42c181">the 2 or 3 </tspan><tspan x="243.3" y="44.5" style="fill:#42c181">percent </tspan></text></g><g id="shape14" transform="translate(746.28,114.55)"><path fill="none" stroke="#696969" d="M.0,.0L463.0,.0L463.0,49.0L.0,49.0L.0,.0z"/><rect x="17.8" width="39.0" y="24.5" fill="#ffff00" height="19.0"/><text xml:space="preserve" style="fill:#454545;font-family:Microsoft YaHei;font-size:10.00pt"><tspan x="87.3" y="20.5">who comprised (v.) the political and social elite: </tspan><tspan x="13.8" y="39.5">(</tspan><tspan x="17.8">同位语</tspan><tspan x="56.8">) the kings, generals, judges, nobles, bishops, and local magnates</tspan></text></g><g id="shape15" transform="translate(812.28,39.55)"><path fill="none" stroke="#696969" d="M.0,.0L331.0,.0L331.0,30.0L.0,30.0L.0,.0z"/><text xml:space="preserve" style="fill:#454545;font-family:Microsoft YaHei;font-size:10.00pt"><tspan x="13.8" y="20.5">who </tspan><tspan x="43.8" style="font-weight:bold">had</tspan><tspan x="68.8"> hitherto </tspan><tspan x="125.8" style="font-weight:bold">usually</tspan><tspan x="170.8"> </tspan><tspan x="174.8" style="font-weight:bold">filled</tspan><tspan x="208.8"> (v.) history books.</tspan></text></g></g></svg>