<svg width="884" xmlns:xlink="http://www.w3.org/1999/xlink" xmlns="http://www.w3.org/2000/svg" viewBox="0 0 884 471" xmlns:ev="http://www.w3.org/2001/xml-events" height="471"><defs/><g id="page1" transform="translate(5.5,5.5)"><rect width="874" y="0" x="0" fill="#ffffff" height="461"/><path id="shape1" d="M104.8,30.0L104.8,7.3C104.8,5.6,103.4,4.3,101.8,4.3L-95.8,4.3C-97.4,4.3,-99.9,4.5,-101.6,3.6C-103.5,2.5,-104.8,.6,-104.8,-1.7L-104.8,-30.0" stroke-linecap="round" transform="translate(332.51,334.85)" stroke="#696969" fill="none"/><path id="shape2" d="M-101.8,30.0L-101.8,7.3C-101.8,5.6,-100.4,4.3,-98.8,4.3L92.8,4.3C94.4,4.3,96.9,4.5,98.6,3.6C100.5,2.5,101.8,.6,101.8,-1.7L101.8,-30.0" stroke-linecap="round" transform="translate(539.01,334.85)" stroke="#696969" fill="none"/><path id="shape3" d="M.0,22.5L.0,4.3C.0,2.6,.0,.3,.0,-1.7C.0,-2.6,.0,-3.6,.0,-4.7L.0,-22.5" stroke-linecap="round" transform="translate(227.76,223.35)" stroke="#696969" fill="none"/><path id="shape4" d="M.0,22.5L.0,4.3C.0,2.6,.0,.3,.0,-1.7C.0,-2.6,.0,-3.6,.0,-4.7L.0,-22.5" stroke-linecap="round" transform="translate(640.76,204.35)" stroke="#696969" fill="none"/><path id="shape5" d="M.0,22.5L.0,4.3C.0,2.6,.0,.3,.0,-1.7C.0,-2.6,.0,-3.6,.0,-4.7L.0,-22.5" stroke-linecap="round" transform="translate(640.76,129.35)" stroke="#696969" fill="none"/><g id="shape6" transform="translate(387.26,364.85)"><path d="M.0,.0L100.0,.0L100.0,56.0L.0,56.0L.0,.0z" fill-rule="nonzero" stroke="#3f5cb8" stroke-width="3" fill="#3f5cb8"/><text xml:space="preserve" style="fill:#ffffff;font-family:Microsoft YaHei;font-size:10.00pt"><tspan y="33.5" x="25.8">中心主题</tspan></text></g><g id="shape7" transform="translate(96.76,245.85)"><path d="M.0,.0L262.0,.0L262.0,59.0L.0,59.0L.0,.0z" fill-rule="nonzero" stroke="#eaebf1" fill="#eaebf1"/><text xml:space="preserve" style="fill:#303030;font-family:Microsoft YaHei;font-size:10.00pt"><tspan y="25.5" x="22.8">If she </tspan><tspan x="60.8" style="font-weight:bold">defines</tspan><tspan x="108.8"> (v.) feminist criticism </tspan><tspan y="44.5" x="33.8" style="font-weight:bold">as</tspan><tspan x="47.8"> objective (a.) and scientific(a.)</tspan></text></g><g id="shape8" transform="translate(446.26,226.85)"><path d="M.0,.0L389.0,.0L389.0,78.0L.0,78.0L.0,.0z" fill-rule="nonzero" stroke="#eaebf1" fill="#eaebf1"/><text xml:space="preserve" style="fill:#303030;font-family:Microsoft YaHei;font-size:10.00pt"><tspan y="25.5" x="140.8">`主` the definition </tspan><tspan y="44.5" x="22.8">`谓` </tspan><tspan x="47.8" style="font-weight:bold">not only</tspan><tspan x="101.8"> precludes (v.) the critic-as-artist approach, </tspan><tspan y="63.5" x="65.8" style="font-weight:bold">but may also</tspan><tspan x="150.8"> impede (v.) </tspan><tspan x="225.8" style="fill:#42c181">accomplishment</tspan></text></g><g id="shape9" transform="translate(39.26,132.85)"><path d="M.0,.0L377.0,.0L377.0,68.0L.0,68.0L.0,.0z" stroke="#696969" fill="none"/><text xml:space="preserve" style="fill:#454545;font-family:Microsoft YaHei;font-size:10.00pt"><tspan y="20.5" x="170.8">同位语</tspan><tspan y="39.5" x="68.3">—a valid, verifiable, intellectual method </tspan><tspan y="58.5" x="13.8">/that anyone, whether man or woman, can perform (v.)—</tspan></text></g><g id="shape10" transform="translate(499.26,151.85)"><path d="M.0,.0L283.0,.0L283.0,30.0L.0,30.0L.0,.0z" stroke="#696969" fill="none"/><text xml:space="preserve" style="fill:#454545;font-family:Microsoft YaHei;font-size:10.00pt"><tspan y="20.5" x="13.8">of the utilitarian (a.) political </tspan><tspan x="188.8" style="fill:#42c181">objectives</tspan><tspan x="249.8"> (n.)</tspan></text></g><g id="shape11" transform="translate(490.26,38.85)"><path d="M.0,.0L301.0,.0L301.0,68.0L.0,68.0L.0,.0z" stroke="#696969" fill="none"/><text xml:space="preserve" style="fill:#454545;font-family:Microsoft YaHei;font-size:10.00pt"><tspan y="20.5" x="47.3">of those /who seek to change (v.) </tspan><tspan y="39.5" x="13.8">the academic establishment and its thinking, </tspan><tspan y="58.5" x="73.3">especially about sex roles.</tspan></text></g></g></svg>