<svg xmlns="http://www.w3.org/2000/svg" viewBox="0 0 765.37 536.03"><defs><style>.cls-1,.cls-11,.cls-7,.cls-8,.cls-9{fill:none;stroke-miterlimit:10;}.cls-1{stroke:#231815;}.cls-2,.cls-6{font-size:12px;font-family:MicrosoftYaHei, Microsoft YaHei;}.cls-3{letter-spacing:-0.01em;}.cls-4{fill:#c30d23;}.cls-5{fill:#231815;}.cls-6{fill:#9fa0a0;}.cls-7,.cls-8,.cls-9{stroke:#898989;}.cls-8{stroke-dasharray:2.03 2.03;}.cls-9{stroke-dasharray:2.06 2.06;}.cls-10{fill:#898989;}.cls-11{stroke:#000;}</style></defs><title>资源 2</title><g id="图层_2" data-name="图层 2"><g id="图层_1-2" data-name="图层 1"><polygon class="cls-1" points="298 214.1 112.42 535.53 483.58 535.53 298 214.1"/><line class="cls-1" x1="238.13" y1="320.32" x2="357.87" y2="320.32"/><line class="cls-1" x1="178.27" y1="426.82" x2="417.73" y2="426.82"/><rect class="cls-1" x="147.13" y="116.5" width="301.74" height="78"/><rect class="cls-1" x="147.13" y="0.5" width="301.74" height="78"/><text class="cls-2" transform="translate(252.65 142.22)">business ta<tspan class="cls-3" x="63.77" y="0">r</tspan><tspan x="68.19" y="0">get </tspan><tspan x="-97.32" y="14.4">你通过做哪些事情, 来解决上面你面对的这个商业问题,</tspan><tspan x="-23.55" y="28.8">或实现上面这个销售数字?</tspan></text><text class="cls-2" transform="translate(363 252.22)">为了实现上面这个business ta<tspan class="cls-3" x="159.77" y="0">r</tspan><tspan x="164.19" y="0">get </tspan><tspan class="cls-4"><tspan x="0" y="14.4">你必须要改变消费者的</tspan><tspan x="0" y="28.8">哪个“理性看法”或”感性感受”才行?</tspan></tspan><tspan x="0" y="43.2">之后, 消费者才会按你想要的来行动</tspan></text><text class="cls-2" transform="translate(411 359.59)"><tspan class="cls-4">你作为说客, 你提供什么说辞理由/动机</tspan><tspan x="203.57" y="0">, 才能让消费者改变</tspan><tspan x="0" y="14.4">你想让他们改变的“理性看法”或”感性感受”?</tspan><tspan x="0" y="28.8">需要”洞察” → 能引发共鸣/共情 → 就能走进对方的心.</tspan></text><text class="cls-2" transform="translate(483 454.22)">你的上面提供的理由说辞, <tspan x="0" y="14.4">采用什么形式手法来表达?</tspan><tspan x="0" y="28.8">- 理性看法 &lt;- 用逻辑说服/启发, 来改变它.</tspan><tspan x="0" y="43.2">- 感性感受 &lt;- 用感染/打动, 来攻心之.</tspan></text><text class="cls-2" transform="translate(250 30.22)">要实现的销售额<tspan x="0" y="14.4">or</tspan><tspan x="0" y="28.8">要解决的商业问题</tspan></text><line class="cls-1" x1="297" y1="85.24" x2="297" y2="107.18"/><polygon class="cls-5" points="297 114.24 292.94 104.29 297 106.65 301.06 104.29 297 114.24"/><line class="cls-1" x1="352" y1="263.74" x2="310.06" y2="263.74"/><polygon class="cls-5" points="303 263.74 312.95 259.68 310.59 263.74 312.95 267.81 303 263.74"/><line class="cls-1" x1="401" y1="366.74" x2="310.06" y2="366.74"/><polygon class="cls-5" points="303 366.74 312.95 362.68 310.59 366.74 312.95 370.81 303 366.74"/><line class="cls-1" x1="464" y1="469.74" x2="310.06" y2="469.74"/><polygon class="cls-5" points="303 469.74 312.95 465.68 310.59 469.74 312.95 473.81 303 469.74"/><line class="cls-1" x1="109" y1="469.74" x2="136.94" y2="469.74"/><polygon class="cls-5" points="144 469.74 134.05 473.81 136.41 469.74 134.05 465.68 144 469.74"/><text class="cls-6" transform="translate(542.37 190.22)">解决上面这个问题</text><line class="cls-7" x1="531" y1="230.24" x2="531" y2="229.24"/><line class="cls-8" x1="531" y1="227.21" x2="531" y2="163.26"/><polyline class="cls-7" points="531 162.24 531 161.24 530 161.24"/><line class="cls-9" x1="527.94" y1="161.24" x2="467.09" y2="161.24"/><line class="cls-7" x1="466.06" y1="161.24" x2="465.06" y2="161.24"/><polygon class="cls-10" points="458 161.24 467.95 157.18 465.59 161.24 467.95 165.31 458 161.24"/><text class="cls-6" transform="translate(669.37 302.22)">解决上面这个问题</text><line class="cls-7" x1="658" y1="342.24" x2="658" y2="341.24"/><line class="cls-8" x1="658" y1="339.21" x2="658" y2="275.26"/><polyline class="cls-7" points="658 274.24 658 273.24 657 273.24"/><line class="cls-9" x1="654.94" y1="273.24" x2="594.09" y2="273.24"/><line class="cls-7" x1="593.06" y1="273.24" x2="592.06" y2="273.24"/><polygon class="cls-10" points="585 273.24 594.95 269.18 592.59 273.24 594.95 277.31 585 273.24"/><polyline class="cls-11" points="239.94 281.69 165.3 281.69 165.3 367.88 192.94 367.88"/><polygon points="247 281.69 237.05 277.63 239.41 281.69 237.05 285.76 247 281.69"/><polygon points="200 367.88 190.05 371.94 192.41 367.88 190.05 363.81 200 367.88"/><text class="cls-2" transform="translate(0 333.24)">用”逻辑推演”的方法来得出</text><text class="cls-2" transform="translate(275.66 295.24)">对/ 错</text><text class="cls-2" transform="translate(259.66 370.24)">对/ 错</text><text class="cls-2" transform="translate(255.66 475.24)">好/ 坏</text><text class="cls-2" transform="translate(0 459.24)">优先用”遍历穷举”<tspan x="0" y="14.4">的方法来得出</tspan></text></g></g></svg>