<svg xmlns="http://www.w3.org/2000/svg" viewBox="0 0 2370.12 1155.33"><defs><style>.cls-1{fill:#2ea7e0;}.cls-1,.cls-2{opacity:0.3;}.cls-2{fill:#ea5514;}.cls-3{font-size:17px;fill:#172a88;font-family:MicrosoftYaHei-Bold, Microsoft YaHei;font-weight:700;}.cls-10,.cls-13,.cls-14,.cls-15,.cls-17,.cls-18,.cls-19,.cls-20,.cls-21,.cls-22,.cls-23,.cls-24,.cls-25,.cls-32,.cls-33,.cls-4,.cls-9{fill:none;}.cls-10,.cls-33,.cls-4,.cls-5,.cls-9{stroke:#231815;}.cls-10,.cls-13,.cls-14,.cls-15,.cls-17,.cls-18,.cls-19,.cls-20,.cls-21,.cls-22,.cls-23,.cls-24,.cls-25,.cls-32,.cls-33,.cls-4,.cls-5,.cls-9{stroke-miterlimit:10;}.cls-5{fill:#fff;}.cls-12,.cls-28,.cls-6{font-size:12px;font-family:MicrosoftYaHei, Microsoft YaHei;}.cls-7{letter-spacing:-0.01em;}.cls-28,.cls-8{fill:#c30d23;}.cls-9{stroke-dasharray:2.01 2.01;}.cls-10{stroke-dasharray:1.99 1.99;}.cls-11{fill:#231815;}.cls-12{fill:#9fa0a0;}.cls-13,.cls-14,.cls-15,.cls-17,.cls-18,.cls-19,.cls-20,.cls-21,.cls-22,.cls-23,.cls-24,.cls-32{stroke:#898989;}.cls-14{stroke-dasharray:2.03 2.03;}.cls-15{stroke-dasharray:2.06 2.06;}.cls-16{fill:#898989;}.cls-17{stroke-dasharray:2.06 2.06;}.cls-18{stroke-dasharray:2.02 2.02;}.cls-19{stroke-dasharray:2.01 2.01;}.cls-20{stroke-dasharray:1.96 1.96;}.cls-21{stroke-dasharray:1.99 1.99;}.cls-22{stroke-dasharray:2 2;}.cls-23{stroke-dasharray:1.98 1.98;}.cls-24{stroke-dasharray:1.99 1.99;}.cls-25{stroke:#000;}.cls-26{letter-spacing:-0.11em;}.cls-27{letter-spacing:-0.02em;}.cls-29{font-size:70.42px;}.cls-29,.cls-30,.cls-31{font-family:MicrosoftYaHeiLight, Microsoft YaHei;}.cls-30{font-size:88.31px;}.cls-31{font-size:141.61px;}.cls-32{stroke-dasharray:2 2;}.cls-33{stroke-width:0.25px;}</style></defs><title>资源 7</title><g id="图层_2" data-name="图层 2"><g id="图层_2-2" data-name="图层 2"><polygon class="cls-1" points="711.24 544.94 589.59 755.65 832.89 755.65 711.24 544.94"/><polygon class="cls-2" points="587.89 761.4 527.89 864.4 897.89 864.4 836.57 761.4 587.89 761.4"/><text class="cls-3" transform="translate(662.57 644.72)">逻辑推理出的<tspan x="-17" y="25">能解决问题的策略</tspan></text><text class="cls-3" transform="translate(601.65 831.03)">艺术表达, 没有对错, 只有好坏<tspan x="-84.24" y="25">(因为”对错”在上面的策略逻辑推理中已经解决了) </tspan></text></g><g id="图层_1-2" data-name="图层 1"><polygon class="cls-4" points="711.89 544.26 526.31 865.69 897.47 865.69 711.89 544.26"/><polygon class="cls-5" points="711.89 321.93 897.47 0.5 526.31 0.5 711.89 321.93"/><line class="cls-4" x1="652.02" y1="650.48" x2="771.75" y2="650.48"/><line class="cls-4" x1="592.16" y1="756.98" x2="831.62" y2="756.98"/><rect class="cls-4" x="561.02" y="446.66" width="301.74" height="78"/><rect class="cls-4" x="561.02" y="330.66" width="301.74" height="78"/><text class="cls-6" transform="translate(666.54 472.38)">business ta<tspan class="cls-7" x="63.77" y="0">r</tspan><tspan x="68.19" y="0">get </tspan><tspan x="-97.32" y="14.4">你通过做哪些事情, 来解决上面你面对的这个商业问题,</tspan><tspan x="-23.55" y="28.8">或实现上面这个销售数字?</tspan></text><rect class="cls-4" x="561.02" y="1012.09" width="301.74" height="78"/><text class="cls-6" transform="translate(687.89 1037.8)">传播路径<tspan class="cls-8"><tspan x="-60" y="14.4">人们为什么要传播你的信息呢？</tspan><tspan x="-83.45" y="28.8">你必须提供给他们一个传播的理由(动机).</tspan></tspan></text><text class="cls-6" transform="translate(776.89 582.38)">为了实现上面这个business ta<tspan class="cls-7" x="159.77" y="0">r</tspan><tspan x="164.19" y="0">get </tspan><tspan class="cls-8"><tspan x="0" y="14.4">你必须要改变消费者的</tspan><tspan x="0" y="28.8">哪个“理性看法”或”感性感受”才行?</tspan></tspan><tspan x="0" y="43.2">之后, 消费者才会按你想要的来行动</tspan></text><text class="cls-6" transform="translate(824.89 689.75)"><tspan class="cls-8">你作为说客, 你提供什么说辞理由/动机</tspan><tspan x="203.57" y="0">, 才能让消费者改变</tspan><tspan x="0" y="14.4">你想让他们改变的“理性看法”或”感性感受”?</tspan><tspan x="0" y="28.8">需要”洞察” → 能引发共鸣/共情 → 就能走进对方的心.</tspan></text><text class="cls-6" transform="translate(896.89 784.38)">你的上面提供的理由说辞, <tspan x="0" y="14.4">采用什么形式手法来表达?</tspan><tspan x="0" y="28.8">- 理性看法 &lt;- 用逻辑说服/启发, 来改变它.</tspan><tspan x="0" y="43.2">- 感性感受 &lt;- 用感染/打动, 来攻心之.</tspan></text><text class="cls-6" transform="translate(1139.89 1002.8)">洞察思考: 他们会被什么&quot;吸引&quot;(爱看什么?)</text><text class="cls-6" transform="translate(1139.89 1049.8)">洞察思考: 他们为了什么个人利益, 会参与传播与分享?<tspan x="0" y="14.4">你的内容必须要有一个被人关注、被人转发、被人谈论的理由.</tspan></text><text class="cls-6" transform="translate(1139.89 1123.12)">洞察思考: &quot;消费者的决策&quot;是怎样的?(消费心理学)</text><text class="cls-6" transform="translate(962.89 1006.8)">旁观者</text><text class="cls-6" transform="translate(663.89 360.38)">要实现的销售额<tspan x="0" y="14.4">or</tspan><tspan x="0" y="28.8">要解决的商业问题</tspan></text><rect class="cls-4" x="162.02" y="330.66" width="301.74" height="78"/><polyline class="cls-4" points="373.47 894.05 373.47 895.05 372.47 895.05"/><line class="cls-9" x1="370.47" y1="895.05" x2="2.5" y2="895.05"/><polyline class="cls-4" points="1.5 895.05 0.5 895.05 0.5 894.05"/><line class="cls-10" x1="0.5" y1="892.06" x2="0.5" y2="550.23"/><polyline class="cls-4" points="0.5 549.23 0.5 548.23 1.5 548.23"/><line class="cls-9" x1="3.51" y1="548.23" x2="371.47" y2="548.23"/><polyline class="cls-4" points="372.47 548.23 373.47 548.23 373.47 549.23"/><line class="cls-10" x1="373.47" y1="551.22" x2="373.47" y2="893.05"/><text class="cls-6" transform="translate(264.89 360.38)">建立/塑造品牌形象</text><line class="cls-4" x1="710.89" y1="415.4" x2="710.89" y2="437.34"/><polygon class="cls-11" points="710.89 444.4 706.82 434.46 710.89 436.82 714.95 434.46 710.89 444.4"/><line class="cls-4" x1="710.89" y1="876.97" x2="710.89" y2="997.77"/><polygon class="cls-11" points="710.89 1004.83 706.82 994.88 710.89 997.24 714.95 994.88 710.89 1004.83"/><line class="cls-4" x1="765.89" y1="593.9" x2="723.95" y2="593.9"/><polygon class="cls-11" points="716.89 593.9 726.84 589.84 724.48 593.9 726.84 597.97 716.89 593.9"/><line class="cls-4" x1="814.89" y1="696.9" x2="723.95" y2="696.9"/><polygon class="cls-11" points="716.89 696.9 726.84 692.84 724.48 696.9 726.84 700.97 716.89 696.9"/><line class="cls-4" x1="1128.89" y1="808.9" x2="1148.83" y2="808.9"/><polygon class="cls-11" points="1155.89 808.9 1145.94 812.97 1148.3 808.9 1145.94 804.84 1155.89 808.9"/><line class="cls-4" x1="877.89" y1="799.9" x2="723.95" y2="799.9"/><polygon class="cls-11" points="716.89 799.9 726.84 795.84 724.48 799.9 726.84 803.97 716.89 799.9"/><line class="cls-4" x1="522.89" y1="799.9" x2="550.83" y2="799.9"/><polygon class="cls-11" points="557.89 799.9 547.94 803.97 550.3 799.9 547.94 795.84 557.89 799.9"/><line class="cls-4" x1="1127.89" y1="999.33" x2="1104.95" y2="999.33"/><polygon class="cls-11" points="1097.89 999.33 1107.84 995.26 1105.48 999.33 1107.84 1003.39 1097.89 999.33"/><line class="cls-4" x1="1127.89" y1="1045.33" x2="1104.95" y2="1045.33"/><polygon class="cls-11" points="1097.89 1045.33 1107.84 1041.26 1105.48 1045.33 1107.84 1049.39 1097.89 1045.33"/><line class="cls-4" x1="1127.89" y1="1120.33" x2="1104.95" y2="1120.33"/><polygon class="cls-11" points="1097.89 1120.33 1107.84 1116.26 1105.48 1120.33 1107.84 1124.39 1097.89 1120.33"/><text class="cls-12" transform="translate(956.26 520.38)">解决上面这个问题</text><line class="cls-13" x1="944.89" y1="560.4" x2="944.89" y2="559.4"/><line class="cls-14" x1="944.89" y1="557.37" x2="944.89" y2="493.42"/><polyline class="cls-13" points="944.89 492.4 944.89 491.4 943.89 491.4"/><line class="cls-15" x1="941.83" y1="491.4" x2="880.98" y2="491.4"/><line class="cls-13" x1="879.95" y1="491.4" x2="878.95" y2="491.4"/><polygon class="cls-16" points="871.89 491.4 881.84 487.34 879.48 491.4 881.84 495.47 871.89 491.4"/><text class="cls-12" transform="translate(1083.26 632.38)">解决上面这个问题</text><line class="cls-13" x1="1071.89" y1="672.4" x2="1071.89" y2="671.4"/><line class="cls-14" x1="1071.89" y1="669.37" x2="1071.89" y2="605.42"/><polyline class="cls-13" points="1071.89 604.4 1071.89 603.4 1070.89 603.4"/><line class="cls-15" x1="1068.83" y1="603.4" x2="1007.98" y2="603.4"/><line class="cls-13" x1="1006.95" y1="603.4" x2="1005.95" y2="603.4"/><polygon class="cls-16" points="998.89 603.4 1008.84 599.34 1006.48 603.4 1008.84 607.47 998.89 603.4"/><line class="cls-13" x1="1789.58" y1="957.54" x2="1790.58" y2="957.54"/><line class="cls-17" x1="1792.64" y1="957.54" x2="1853.41" y2="957.54"/><polyline class="cls-13" points="1854.44 957.54 1855.44 957.54 1855.44 958.54"/><line class="cls-18" x1="1855.44" y1="960.56" x2="1855.44" y2="1048.33"/><polyline class="cls-13" points="1855.44 1049.34 1855.44 1050.34 1854.44 1050.34"/><line class="cls-19" x1="1852.43" y1="1050.34" x2="1483.95" y2="1050.34"/><line class="cls-13" x1="1482.95" y1="1050.34" x2="1481.95" y2="1050.34"/><polygon class="cls-16" points="1474.89 1050.34 1484.84 1046.28 1482.48 1050.34 1484.84 1054.41 1474.89 1050.34"/><line class="cls-13" x1="1797.46" y1="936.01" x2="1798.46" y2="936.01"/><line class="cls-20" x1="1800.42" y1="936.01" x2="1870.08" y2="936.01"/><polyline class="cls-13" points="1871.06 936.01 1872.06 936.01 1872.06 937.01"/><line class="cls-21" x1="1872.06" y1="939" x2="1872.06" y2="1116.71"/><polyline class="cls-13" points="1872.06 1117.7 1872.06 1118.7 1871.06 1118.7"/><line class="cls-22" x1="1869.06" y1="1118.7" x2="1417.95" y2="1118.7"/><line class="cls-13" x1="1416.95" y1="1118.7" x2="1415.95" y2="1118.7"/><polygon class="cls-16" points="1408.89 1118.7 1418.84 1114.64 1416.48 1118.7 1418.84 1122.77 1408.89 1118.7"/><line class="cls-13" x1="1823.72" y1="896.8" x2="1824.72" y2="896.8"/><line class="cls-20" x1="1826.68" y1="896.8" x2="1896.34" y2="896.8"/><polyline class="cls-13" points="1897.32 896.8 1898.32 896.8 1898.32 897.8"/><line class="cls-23" x1="1898.32" y1="899.77" x2="1898.32" y2="997.55"/><polyline class="cls-13" points="1898.32 998.54 1898.32 999.54 1897.32 999.54"/><line class="cls-24" x1="1895.33" y1="999.54" x2="1381.95" y2="999.54"/><line class="cls-13" x1="1380.95" y1="999.54" x2="1379.95" y2="999.54"/><polygon class="cls-16" points="1372.89 999.54 1382.84 995.48 1380.48 999.54 1382.84 1003.61 1372.89 999.54"/><rect class="cls-25" x="912.89" y="974.83" width="180" height="180"/><rect class="cls-25" x="962.89" y="1024.83" width="130" height="130"/><rect class="cls-25" x="1010.89" y="1072.83" width="82" height="82"/><text class="cls-6" transform="translate(987.26 1045.46)">参与传播者<tspan class="cls-26" x="0" y="14.4">T</tspan><tspan x="5.51" y="14.4">a</tspan><tspan class="cls-7" x="12.14" y="14.4">r</tspan><tspan x="16.55" y="14.4">get audience</tspan></text><text class="cls-6" transform="translate(1024.2 1121.51)">目标消费者<tspan x="0" y="14.4">ta</tspan><tspan class="cls-7" x="11.1" y="14.4">r</tspan><tspan x="15.52" y="14.4">get consumer</tspan></text><polyline class="cls-25" points="653.83 611.86 579.19 611.86 579.19 698.04 606.83 698.04"/><polygon points="660.89 611.86 650.94 607.79 653.3 611.86 650.94 615.92 660.89 611.86"/><polygon points="613.89 698.04 603.94 702.11 606.3 698.04 603.94 693.98 613.89 698.04"/><text class="cls-6" transform="translate(413.89 663.4)">用”逻辑推演”的方法来得出</text><text class="cls-6" transform="translate(689.55 625.4)">对/ 错</text><text class="cls-6" transform="translate(673.55 700.4)">对/ 错</text><text class="cls-6" transform="translate(669.55 805.4)">好/ 坏</text><text class="cls-6" transform="translate(413.89 789.4)">优先用”遍历穷举”<tspan x="0" y="14.4">的方法来得出</tspan></text><text class="cls-6" transform="translate(24.94 781.36)">广告效果的评判模型 : 四象限<tspan x="0" y="14.4">“对错”: </tspan><tspan x="0" y="28.8" xml:space="preserve">          → 与解决问题的策略因果链的 </tspan><tspan class="cls-7" x="198.61" y="28.8">r</tspan><tspan x="203.02" y="28.8">ele</tspan><tspan class="cls-27" x="219.83" y="28.8">v</tspan><tspan x="225.9" y="28.8">ance 相关性, </tspan><tspan x="0" y="43.2" xml:space="preserve">          → im</tspan><tspan class="cls-7" x="65.5" y="43.2">p</tspan><tspan x="72.99" y="43.2" xml:space="preserve">act 影响力 : 洞察,  打动人心, 让人一辈子忘不了</tspan><tspan x="0" y="72">“好坏”:</tspan><tspan x="0" y="86.4" xml:space="preserve">          → originality 原创性</tspan></text><text class="cls-28" transform="translate(102.28 572.65)">战略/<tspan x="0" y="14.4">顶层策略上</tspan></text><text class="cls-28" transform="translate(27.61 656.65)">战术/<tspan x="0" y="14.4">底层执行上</tspan></text><text class="cls-6" transform="translate(1140.89 688.83)">--&gt; 需要有”<tspan class="cls-8" x="70.83" y="0">洞察</tspan><tspan x="94.83" y="0">”: 即 少被察觉的真相</tspan></text><text class="cls-6" transform="translate(1177.89 716.83)"><tspan xml:space="preserve">1.  &quot;认知&quot;与&quot;真相&quot;之间的缝隙 --&gt; 一闻此言，恍然而悟</tspan><tspan x="0" y="14.4">2. &quot;表达&quot;与&quot;认知&quot;之间的缝隙. --&gt; 心念已至，口未能及</tspan></text><text class="cls-6" transform="translate(1530.2 683.67)"><tspan xml:space="preserve">1.  未被满足的需求</tspan><tspan x="0" y="20">2. 未被说出的心声</tspan><tspan x="0" y="40">3. 未被关注的感受</tspan><tspan x="0" y="60">4. 未被实现的梦想</tspan></text><rect class="cls-25" x="1159.89" y="656.4" width="329" height="94"/><rect class="cls-25" x="1159.89" y="783.72" width="150" height="59"/><text class="cls-29" transform="translate(1498.2 727.98)">{</text><text class="cls-6" transform="translate(1619.2 881.09)">审美价值 (--&gt; 给于旁观者)、<tspan x="0" y="20">娱乐价值 (--&gt; 给于旁观者)、</tspan><tspan x="0" y="40">情感价值(动心) (--&gt; 给于旁观者)、</tspan><tspan x="0" y="60">知识价值 (--&gt; 给于目标消费者)、</tspan><tspan x="0" y="80">社交价值 (--&gt; 给于参与传播者)</tspan></text><text class="cls-30" transform="translate(1587.2 940.71) scale(0.8 1)">{</text><text class="cls-31" transform="translate(1321.2 893.91) scale(0.5 1)">{</text><text class="cls-6" transform="translate(1180.89 810.77)">解决广告的”原罪”:<tspan x="0" y="14.4">打扰人</tspan></text><rect class="cls-25" x="1621.2" y="756.77" width="242" height="92"/><text class="cls-6" transform="translate(1642.2 779.2)">只有你用有想象力的、原创的、新鲜<tspan x="0" y="14.4">的方式来讲述 → 才会有趣味 → 人们</tspan><tspan x="0" y="28.8">才会听你 → 才能知道你说的内容 → </tspan><tspan x="0" y="43.2">才可能相信你 → 大家都相信后, 才能</tspan><tspan x="0" y="57.6">变成了大家的真相.</tspan></text><text class="cls-6" transform="translate(1362.89 792.77)">1. 制造糖衣炮弹: <tspan x="0" y="14.4">找到那个最讨人喜欢的”打扰别人”的方式 --&gt;</tspan></text><text class="cls-6" transform="translate(1362.89 917.57)">2. 给观众提供任何的真正有价值的东西</text><polyline class="cls-32" points="1806.83 876.83 1818.83 876.83 1818.83 921.83 1806.83 921.83"/><text class="cls-6" transform="translate(1883.89 780.4)">--&gt; 1. 广告不一定需要创意. “传播”比”创意”更重要!<tspan x="0" y="28.8">2. 广告必须要达成“说服/改变” 消费者的”理性/感性”态度的目的.</tspan><tspan x="0" y="43.2">而创意不一定需要&quot;改变&quot;什么. 创意只是用来&quot;表达&quot;的，表达某种思想、某种观点、某种感觉.</tspan></text><line class="cls-4" x1="123.56" y1="660.45" x2="244.35" y2="660.45"/><polygon class="cls-11" points="251.41 660.45 241.46 664.51 243.82 660.45 241.46 656.38 251.41 660.45"/><line class="cls-4" x1="187.49" y1="724.37" x2="187.49" y2="603.58"/><polygon class="cls-11" points="187.49 596.52 191.55 606.47 187.49 604.11 183.42 606.47 187.49 596.52"/><text class="cls-6" transform="translate(102.49 663.53)">错</text><text class="cls-6" transform="translate(179.8 579.45)">好</text><text class="cls-6" transform="translate(179.8 747.45)">坏</text><text class="cls-6" transform="translate(259.49 663.53)">对</text><circle class="cls-33" cx="149.89" cy="624.86" r="12.26"/><circle class="cls-33" cx="186.99" cy="624.86" r="12.26"/><circle class="cls-33" cx="224.08" cy="624.86" r="12.26"/><circle class="cls-33" cx="149.89" cy="659.84" r="12.26"/><circle class="cls-33" cx="186.99" cy="659.84" r="12.26"/><circle class="cls-33" cx="224.08" cy="659.84" r="12.26"/><circle class="cls-33" cx="149.89" cy="694.81" r="12.26"/><circle class="cls-33" cx="186.99" cy="694.81" r="12.26"/><circle class="cls-33" cx="224.08" cy="694.81" r="12.26"/></g></g></svg>