<svg xmlns="http://www.w3.org/2000/svg" viewBox="0 0 344 201.22"><defs><style>.cls-1{fill:#b3b3b3;}.cls-2,.cls-5,.cls-6{fill:none;stroke-miterlimit:10;}.cls-2{stroke:#000;}.cls-3,.cls-4{font-size:12px;font-family:MicrosoftYaHeiLight, Microsoft YaHei;}.cls-4{fill:#666;}.cls-5,.cls-6{stroke:#ccc;stroke-width:2px;}.cls-6{stroke-dasharray:2.03 2.03;}.cls-7{fill:#ccc;}</style></defs><g id="图层_2" data-name="图层 2"><g id="图层_1-2" data-name="图层 1"><rect class="cls-1" x="24" y="116.39" width="308" height="23.83"/><line class="cls-2" y1="94.72" x2="336.94" y2="94.72"/><polygon points="344 94.72 334.05 98.79 336.41 94.72 334.05 90.66 344 94.72"/><line class="cls-2" x1="263.5" y1="0.72" x2="263.5" y2="201.22"/><text class="cls-3" transform="translate(269.09 89.3)">now</text><rect class="cls-1" x="24" y="33.22" width="80" height="23.83"/><text class="cls-3" transform="translate(108.09 134.3)">have been doing</text><text class="cls-3" transform="translate(36.09 50.3)">have done</text><text class="cls-3" transform="translate(31.31 10.27)">1. 延续时间更短暂<tspan x="0" y="14.4">2. 已完成, 但后果对现在有影响</tspan></text><text class="cls-3" transform="translate(109.31 161.27)">1.延续时间更长久, 现在依然在进行<tspan x="0" y="14.4">2. 后果对现在有影响</tspan></text><text class="cls-4" transform="translate(126.31 61.27)">后果对现在有影响</text><line class="cls-5" x1="104" y1="45.22" x2="105" y2="45.22"/><line class="cls-6" x1="107.03" y1="45.22" x2="247.87" y2="45.22"/><line class="cls-5" x1="248.88" y1="45.22" x2="249.88" y2="45.22"/><polygon class="cls-7" points="264 45.22 244.1 53.35 248.82 45.22 244.1 37.09 264 45.22"/></g></g></svg>