<?xml version="1.0" standalone="no"?>
<!DOCTYPE svg PUBLIC "-//W3C//DTD SVG 1.0//EN" "http://www.w3.org/TR/2001/REC-SVG-20010904/DTD/svg10.dtd">
<svg xmlns="http://www.w3.org/2000/svg" xmlns:xlink="http://www.w3.org/1999/xlink" id="body_1" width="270" height="71">

<g transform="matrix(1.3333334 0 0 1.3333334 0 0)">
    <path d="M0 0L202.5 0L202.5 53.25L0 53.25z" stroke="none" fill="#FFFFFF" fill-rule="evenodd" />
	<g transform="matrix(0.75 0 0 0.75 9.75 7.5)">
		<g>
			<g>
				<g transform="matrix(1 0 0 1 0 0)">
					<g>
                        <path transform="matrix(1 0 0 1 0 0)"  d="M8.972065 9.287813C 8.924091 9.471651 8.870991 9.671968 8.812397 9.888765C 8.754169 10.105562 8.6758 10.30588 8.576923 10.489351C 8.478413 10.673189 8.356831 10.829195 8.211811 10.958101C 8.067158 11.0870075 7.888081 11.151094 7.67458 11.151094C 7.3852735 11.151094 7.153828 11.07126 6.9806104 10.911226C 6.807759 10.751192 6.7011914 10.546114 6.660908 10.295626C 6.4719434 10.518648 6.245625 10.717134 5.981953 10.890718C 5.7182813 11.064302 5.441792 11.151094 5.152119 11.151094C 4.846333 11.151094 4.590718 11.075289 4.3856397 10.922945C 4.1805615 10.770601 4.0194287 10.577242 3.9026077 10.342501C 3.7619827 10.061617 3.6876419 9.75876 3.6795852 9.434298L3.6795852 9.434298L3.6795852 9.346407C 3.6795852 9.042086 3.7220657 8.739229 3.8062942 8.438204C 3.8989456 8.102755 4.0307813 7.7706013 4.2014356 7.4424763C 4.372456 7.1143513 4.5987744 6.809664 4.8803906 6.5280476C 5.1096387 6.298067 5.3711133 6.1047077 5.6648145 5.9483356C 5.9585156 5.79233 6.254414 5.7139606 6.5521436 5.7135944C 6.8055615 5.7139606 7.012837 5.7813435 7.1739697 5.916109C 7.3351026 6.0508747 7.4596143 6.216036 7.547871 6.41086L7.547871 6.41086L7.5661817 6.334688C 7.5903516 6.206148 7.6496778 6.108736 7.74416 6.0420856C 7.8386426 5.9758015 7.9342237 5.9424763 8.030903 5.94211C 8.1396675 5.9424763 8.230122 5.973604 8.302265 6.03586C 8.342548 6.0831013 8.364887 6.1475544 8.368549 6.2292194C 8.368549 6.2607136 8.364887 6.29587 8.356831 6.334688L8.356831 6.334688L7.4874463 9.721407C 7.4475293 9.881807 7.419331 10.034151 7.403218 10.178438C 7.395161 10.249117 7.391133 10.315401 7.391133 10.377657C 7.391133 10.432589 7.395161 10.489351 7.403218 10.547579C 7.419331 10.653414 7.4548535 10.735445 7.5090528 10.794039C 7.563252 10.8526325 7.6386914 10.881929 7.735005 10.881563C 7.835713 10.881929 7.9272656 10.843111 8.009663 10.764742C 8.092426 10.686739 8.1656685 10.575411 8.230122 10.4307575C 8.294575 10.28647 8.355732 10.117281 8.4139595 9.923922C 8.472553 9.730562 8.531879 9.518526 8.591938 9.287813C 8.608051 9.217867 8.656391 9.182711 8.736958 9.182344L8.736958 9.182344L8.8757515 9.182344C 8.940205 9.182711 8.972065 9.206148 8.972065 9.252657L8.972065 9.252657L8.972065 9.287813zM7.366963 7.1374226C 7.3508496 7.059786 7.3369336 6.9825153 7.3248487 6.9063435C 7.3127637 6.8301716 7.292622 6.752901 7.264424 6.674532C 7.1999707 6.48337 7.1036572 6.3215046 6.974751 6.18857C 6.8458447 6.0560017 6.682881 5.9893513 6.4858594 5.988985C 6.304951 5.9893513 6.127705 6.053072 5.9548535 6.179781C 5.782002 6.306856 5.6248975 6.467989 5.4839063 6.662813C 5.286885 6.936739 5.139302 7.2209187 5.040425 7.5157185C 4.941914 7.8108845 4.8521924 8.118135 4.771626 8.438204C 4.691426 8.750948 4.6251416 9.053804 4.5727735 9.346407C 4.540547 9.499117 4.5244336 9.64377 4.5244336 9.780001C 4.5244336 9.92502 4.540547 10.065645 4.5727735 10.201876C 4.6130567 10.39377 4.684468 10.554903 4.787007 10.68564C 4.889546 10.816744 5.035298 10.881929 5.2242627 10.881563C 5.4216504 10.881929 5.6179395 10.814547 5.8127637 10.679781C 6.007954 10.545015 6.18813 10.382051 6.352925 10.190157C 6.417378 10.11252 6.4789014 10.036348 6.537129 9.9620075C 6.5957227 9.888033 6.6488233 9.807833 6.697163 9.721407L6.697163 9.721407L7.366963 7.1374226z" stroke="none" fill="#000000" fill-rule="nonzero" />
                        <path transform="matrix(1 0 0 1 0 0)"  d="M22.975752 8.438204C 22.883467 8.774385 22.750532 9.106539 22.57768 9.434664C 22.404829 9.762789 22.179243 10.065645 21.901655 10.342501C 21.672407 10.573214 21.41313 10.765841 21.123457 10.920015C 20.83415 11.07419 20.53642 11.151094 20.230268 11.151094C 19.940962 11.151094 19.697432 11.0730915 19.50041 10.917086C 19.303389 10.76108 19.15251 10.565523 19.047773 10.330782C 18.923262 10.049898 18.856611 9.747042 18.848555 9.422579L18.848555 9.422579L18.848555 9.346407C 18.848555 9.042086 18.888838 8.739229 18.969404 8.438204L18.969404 8.438204L20.182295 3.721407C 20.214521 3.592867 20.234297 3.4932575 20.242353 3.4225788L20.242353 3.4225788L20.242353 3.3991413C 20.242353 3.344942 20.226606 3.3039265 20.19438 3.2760944C 20.137983 3.237276 20.039473 3.2120075 19.898848 3.2002888C 19.758223 3.18857 19.601118 3.1827106 19.4279 3.1823444C 19.387617 3.1827106 19.359419 3.170992 19.343306 3.1471882C 19.327559 3.1318073 19.319502 3.1142292 19.319502 3.0944538C 19.319502 3.079073 19.32353 3.063692 19.33122 3.0475788L19.33122 3.0475788L19.35539 2.9538288C 19.37956 2.8838825 19.435957 2.8388386 19.52458 2.8190632L19.52458 2.8190632L21.111372 2.690157L21.135542 2.690157C 21.167768 2.6905231 21.191938 2.6982136 21.208052 2.7135944C 21.216108 2.7297077 21.220137 2.749117 21.220137 2.7721882C 21.220137 2.7883015 21.216108 2.8036823 21.208052 2.8190632L21.208052 2.8190632L20.278608 6.41086C 20.46794 6.219698 20.678144 6.0560017 20.909224 5.919039C 21.140669 5.782442 21.380903 5.7139606 21.630293 5.7135944C 21.936079 5.7139606 22.193525 5.79233 22.402632 5.9483356C 22.612104 6.1047077 22.772871 6.298067 22.885298 6.5280476C 23.018232 6.809664 23.088545 7.1143513 23.096601 7.44211L23.096601 7.44211L23.096601 7.5241413C 23.096601 7.8215046 23.056318 8.126192 22.975752 8.438204zM22.221724 6.662813C 22.18144 6.467989 22.1071 6.306856 21.998335 6.179781C 21.889936 6.053072 21.744917 5.9893513 21.564009 5.988985C 21.35893 5.9893513 21.159712 6.054903 20.966719 6.1856403C 20.773726 6.316744 20.594648 6.4797077 20.429487 6.674532C 20.304976 6.8349323 20.19438 6.9894733 20.0977 7.1374226L20.0977 7.1374226L19.759687 8.438204C 19.679487 8.750948 19.619062 9.053804 19.57878 9.346407C 19.562666 9.467989 19.55461 9.585176 19.55461 9.697969C 19.55461 9.874117 19.57475 10.042208 19.615034 10.201876C 19.663374 10.39377 19.742842 10.554903 19.853437 10.68564C 19.964033 10.816744 20.113813 10.881929 20.302778 10.881563C 20.484053 10.881929 20.662031 10.816744 20.83708 10.68564C 21.012129 10.554903 21.167768 10.39377 21.304365 10.201876C 21.501753 9.936739 21.6508 9.65439 21.751143 9.355562C 21.851484 9.056734 21.941938 8.750948 22.022505 8.438204C 22.103071 8.118135 22.17375 7.809786 22.233809 7.5124226C 22.257978 7.3681355 22.270063 7.2275105 22.270063 7.0905476C 22.270063 6.9462605 22.25395 6.8038044 22.221724 6.662813z" stroke="none" fill="#000000" fill-rule="nonzero" />
                        <path transform="matrix(1 0 0 1 0 0)"  d="M37.919502 9.686251C 37.935616 9.702364 37.943672 9.717745 37.943672 9.733126C 37.943672 9.756929 37.931587 9.784395 37.907417 9.815157C 37.59394 10.249117 37.195503 10.580172 36.712837 10.808687C 36.23017 11.037203 35.745308 11.151094 35.258614 11.151094C 34.920967 11.151094 34.627266 11.07712 34.377876 10.928804C 34.128487 10.780489 33.933296 10.584932 33.792305 10.342501C 33.62751 10.069307 33.53266 9.770479 33.50849 9.446016C 33.5008 9.36838 33.496773 9.288179 33.496773 9.205782C 33.496773 8.960054 33.529 8.704073 33.593086 8.438204C 33.685738 8.0870075 33.830757 7.747164 34.02778 7.419039C 34.2248 7.090914 34.47236 6.7902546 34.769722 6.516329C 35.04328 6.2782917 35.34394 6.0852985 35.6717 5.936617C 35.999825 5.7883015 36.328682 5.7139606 36.65827 5.7135944C 36.85566 5.7139606 37.040962 5.744356 37.213814 5.804781C 37.386665 5.865572 37.532417 5.9512653 37.65107 6.0625935C 37.769722 6.1739216 37.855415 6.3057575 37.907417 6.457735C 37.92353 6.536104 37.931587 6.6163044 37.931587 6.6979694C 37.931587 6.7880573 37.919502 6.8840046 37.895332 6.985079C 37.85505 7.145479 37.77265 7.2677937 37.64814 7.351656C 37.52363 7.4358845 37.39875 7.4776325 37.273872 7.4772663C 37.14936 7.4776325 37.04682 7.4325886 36.966255 7.3425007C 36.90986 7.2883015 36.88166 7.2157917 36.88166 7.125704C 36.88166 7.0868855 36.889717 7.0400105 36.90583 6.985079C 36.946114 6.825411 37.02558 6.7071247 37.144234 6.630953C 37.262886 6.554781 37.38044 6.5126667 37.496895 6.50461C 37.432808 6.344942 37.32038 6.2189655 37.15925 6.1270466C 36.99848 6.035494 36.80732 5.9893513 36.58613 5.988985C 36.372993 5.9893513 36.156563 6.053072 35.937202 6.179781C 35.71821 6.306856 35.525948 6.471651 35.361153 6.674532C 35.13996 6.9327106 34.971138 7.211031 34.854317 7.509859C 34.73786 7.808687 34.638985 8.118135 34.55842 8.438204C 34.478218 8.750948 34.415962 9.053804 34.37165 9.346407C 34.355537 9.444551 34.34748 9.536104 34.34748 9.621798C 34.34748 9.8213825 34.379707 10.010714 34.443794 10.190157C 34.508247 10.397432 34.617012 10.564791 34.769722 10.6915C 34.9228 10.818575 35.107735 10.881929 35.324898 10.881563C 35.76362 10.881929 36.189888 10.770601 36.604073 10.547945C 37.018623 10.325289 37.362495 10.020601 37.63569 9.633516C 37.651802 9.602755 37.68403 9.579317 37.73237 9.563204L37.73237 9.563204L37.768623 9.563204C 37.792793 9.56357 37.812935 9.57126 37.82905 9.586641L37.82905 9.586641L37.919502 9.686251z" stroke="none" fill="#000000" fill-rule="nonzero" />
                        <path transform="matrix(1 0 0 1 0 0)"  d="M7.342793 26.34211C 7.270283 26.600288 7.2340283 26.824776 7.2340283 27.015938C 7.2340283 27.07087 7.2380567 27.121773 7.2461133 27.168282C 7.270283 27.391304 7.3849072 27.502632 7.5899854 27.502266C 7.6906934 27.502632 7.782246 27.463814 7.8646436 27.385445C 7.9474072 27.307442 8.020649 27.196114 8.085102 27.05146C 8.149555 26.907173 8.210712 26.737984 8.26894 26.544624C 8.327534 26.351265 8.38686 26.139229 8.4469185 25.908516C 8.463032 25.83857 8.511372 25.803413 8.591938 25.803047L8.591938 25.803047L8.730732 25.803047C 8.795185 25.803413 8.827045 25.82685 8.827045 25.87336L8.827045 25.87336L8.827045 25.908516C 8.778706 26.092354 8.725605 26.292671 8.667377 26.509468C 8.60915 26.726265 8.530781 26.926582 8.431904 27.110054C 8.333393 27.293892 8.211811 27.449898 8.066792 27.578804C 7.9221387 27.70771 7.7430615 27.771797 7.529927 27.771797C 7.240254 27.771797 7.0088086 27.691963 6.835957 27.531929C 6.6631055 27.371895 6.556538 27.166817 6.516255 26.916328C 6.32729 27.13935 6.1009717 27.337837 5.8373 27.511421C 5.573994 27.685005 5.297505 27.771797 5.007466 27.771797C 4.702046 27.771797 4.4464307 27.695992 4.2413526 27.543648C 4.0362744 27.391304 3.875508 27.197945 3.7586868 26.963203C 3.6180618 26.68232 3.5433547 26.379463 3.535298 26.055L3.535298 26.055L3.535298 25.96711C 3.535298 25.662788 3.5777786 25.359932 3.662007 25.058907C 3.7546585 24.723457 3.8864944 24.391304 4.0575147 24.063179C 4.228535 23.735054 4.4548535 23.430367 4.7361035 23.14875C 4.9653516 22.91877 5.226826 22.72541 5.5205274 22.569038C 5.8142285 22.413033 6.110127 22.334663 6.4074903 22.334297C 6.660908 22.334663 6.8681836 22.402046 7.02895 22.536812C 7.190083 22.671577 7.3145947 22.836739 7.403218 23.031563L7.403218 23.031563L8.096821 20.34211C 8.129047 20.21357 8.149189 20.11396 8.157246 20.043282L8.157246 20.043282L8.157246 20.031563C 8.157246 19.977364 8.137104 19.93232 8.096821 19.896797C 8.048847 19.857979 7.9543653 19.83271 7.813374 19.820992C 7.672749 19.809273 7.5156446 19.803413 7.342793 19.803047C 7.270283 19.803413 7.2340283 19.770088 7.2340283 19.703438L7.2340283 19.703438L7.2340283 19.668282L7.270283 19.574532C 7.2863965 19.504585 7.340962 19.459541 7.433247 19.439766L7.433247 19.439766L8.579853 19.346016L9.014179 19.31086L9.038349 19.31086C 9.070576 19.311226 9.094746 19.318916 9.110859 19.334297C 9.118916 19.3581 9.122578 19.381538 9.122578 19.40461L9.122578 19.40461L9.122578 19.439766zM7.2219434 23.758125C 7.20583 23.680489 7.191914 23.603218 7.179829 23.527046C 7.1681104 23.450874 7.147969 23.373604 7.1194043 23.295235C 7.0553174 23.104073 6.959004 22.942207 6.8300977 22.809273C 6.7011914 22.676704 6.5382276 22.610054 6.341206 22.609688C 6.160298 22.610054 5.983052 22.673775 5.8102 22.800484C 5.6373487 22.927559 5.480244 23.088692 5.339619 23.283516C 5.1425977 23.557442 4.9946485 23.841621 4.8961377 24.136421C 4.797627 24.431587 4.7079053 24.738838 4.627339 25.058907C 4.5471387 25.37165 4.4808545 25.674507 4.4284863 25.96711C 4.39626 26.11982 4.3801465 26.264473 4.3801465 26.400703C 4.3801465 26.545723 4.39626 26.686348 4.4284863 26.822578C 4.4687696 27.014473 4.5401807 27.175606 4.6427197 27.306343C 4.745259 27.437447 4.8910108 27.502632 5.0799756 27.502266C 5.2773633 27.502632 5.4736524 27.43525 5.6684766 27.300484C 5.863667 27.165718 6.0434766 27.002754 6.2082715 26.81086C 6.2727246 26.733223 6.334248 26.657051 6.3924756 26.58271C 6.4510694 26.508736 6.50417 26.428535 6.5521436 26.34211L6.5521436 26.34211L7.2219434 23.758125z" stroke="none" fill="#000000" fill-rule="nonzero" />
                        <path transform="matrix(1 0 0 1 0 0)"  d="M23.150068 26.306953C 23.166182 26.323067 23.174238 26.338448 23.174238 26.353828C 23.174238 26.377632 23.162153 26.405098 23.137983 26.43586C 22.824507 26.86982 22.42607 27.200874 21.943403 27.42939C 21.460737 27.657906 20.975874 27.771797 20.48918 27.771797C 20.143476 27.771797 19.849775 27.685005 19.608442 27.511421C 19.36711 27.337837 19.175947 27.123604 19.034956 26.869453C 18.878218 26.565132 18.795454 26.229317 18.787397 25.86164C 18.77934 25.822823 18.775312 25.781807 18.775312 25.738594C 18.775312 25.410835 18.819624 25.07502 18.908247 24.730782C 18.988813 24.41877 19.124311 24.117012 19.315474 23.825874C 19.506636 23.535103 19.747236 23.273994 20.036543 23.043282C 20.310102 22.820992 20.60893 22.647408 20.932661 22.522163C 21.256392 22.397285 21.575361 22.334663 21.888838 22.334297C 22.078169 22.334663 22.255415 22.36689 22.42021 22.431343C 22.585005 22.495796 22.72087 22.583687 22.827436 22.695015C 22.934004 22.806343 23.007246 22.938179 23.04753 23.090157C 23.063643 23.160835 23.0717 23.237007 23.0717 23.318672C 23.0717 23.40876 23.059614 23.504707 23.035444 23.605782C 22.962934 23.910835 22.811323 24.149239 22.579878 24.320992C 22.348433 24.49311 22.081099 24.619087 21.777143 24.698921C 21.473555 24.779121 21.150923 24.827095 20.808882 24.842476C 20.46684 24.858223 20.14311 24.865913 19.837324 24.865547C 19.745039 25.201729 19.682417 25.526192 19.65019 25.838203C 19.634443 25.944038 19.626387 26.047676 19.626387 26.14875C 19.626387 26.348335 19.650557 26.539864 19.69853 26.72297C 19.762983 26.945992 19.865889 27.13166 20.006514 27.279976C 20.147139 27.428658 20.330244 27.502632 20.555464 27.502266C 20.994184 27.502632 21.420454 27.391304 21.834639 27.168648C 22.24919 26.945992 22.593061 26.641304 22.866255 26.25422C 22.890425 26.2154 22.922651 26.191963 22.962934 26.183907L22.962934 26.183907L22.987104 26.183907C 23.019331 26.184273 23.0435 26.191963 23.059614 26.207344L23.059614 26.207344L23.150068 26.306953zM22.582808 23.605782C 22.606977 23.50837 22.619062 23.420479 22.619062 23.34211C 22.619062 23.174385 22.568892 23.02607 22.468184 22.896797C 22.319502 22.705635 22.102339 22.610054 21.816694 22.609688C 21.60356 22.610054 21.389326 22.663887 21.173994 22.771187C 20.958662 22.878853 20.768599 23.024239 20.603804 23.207344C 20.414839 23.406929 20.26872 23.624825 20.166182 23.86103C 20.063643 24.097603 19.974287 24.344429 19.897749 24.601875C 20.211592 24.602242 20.518476 24.590523 20.818037 24.567085C 21.117598 24.543648 21.387129 24.497871 21.62663 24.42939C 21.866133 24.361275 22.070112 24.260567 22.238935 24.127632C 22.408125 23.995064 22.522749 23.821114 22.582808 23.605782z" stroke="none" fill="#000000" fill-rule="nonzero" />
                        <path transform="matrix(1 0 0 1 0 0)"  d="M38.62995 20.137032C 38.58967 20.297432 38.50727 20.419746 38.38276 20.503609C 38.258247 20.587837 38.1352 20.629585 38.01435 20.62922C 37.88984 20.629585 37.7873 20.584541 37.706734 20.494453C 37.650337 20.440254 37.620308 20.369942 37.61628 20.283516C 37.61628 20.244698 37.624336 20.195992 37.64045 20.137032C 37.680733 20.000801 37.749214 19.892403 37.845894 19.812202C 37.942574 19.732368 38.046944 19.684395 38.15937 19.668282C 38.026802 19.516304 37.83747 19.440132 37.59211 19.439766C 37.43537 19.440132 37.29035 19.56501 37.157784 19.814766C 37.133614 19.854317 37.105415 19.937447 37.07319 20.064156C 37.040962 20.19123 37.005806 20.343575 36.96772 20.521187C 36.929634 20.699165 36.89045 20.887398 36.850166 21.086617C 36.809883 21.285835 36.77363 21.477364 36.7414 21.66047L36.7414 21.66047L36.578438 22.474922L37.755074 22.474922C 37.819527 22.475288 37.851753 22.508614 37.851753 22.574532L37.851753 22.574532L37.851753 22.609688L37.827583 22.703438C 37.795357 22.793526 37.73713 22.83857 37.652534 22.838203L37.652534 22.838203L36.505928 22.838203L35.914864 25.803047C 35.858467 26.076973 35.79841 26.368843 35.733955 26.67939C 35.669502 26.989937 35.59919 27.297554 35.52265 27.602242C 35.44648 27.906929 35.360054 28.19477 35.263374 28.466133C 35.166695 28.737862 35.06196 28.97297 34.949165 29.172188C 34.88508 29.285713 34.810738 29.397774 34.726143 29.509102C 34.641914 29.62043 34.548164 29.72004 34.445625 29.80793C 34.343086 29.89582 34.23432 29.96833 34.119698 30.024727C 34.005074 30.08149 33.881294 30.109688 33.74836 30.109688C 33.600044 30.109688 33.460518 30.085518 33.329414 30.036446C 33.199043 29.98774 33.088448 29.921455 32.997627 29.837227C 32.907173 29.753365 32.83979 29.652657 32.795113 29.53547C 32.779366 29.473213 32.77131 29.40876 32.770943 29.34211C 32.77131 29.279854 32.779366 29.211372 32.795113 29.137032C 32.835762 28.976997 32.920357 28.85688 33.048897 28.77668C 33.177803 28.696846 33.304146 28.656563 33.428658 28.656563C 33.5539 28.656563 33.65644 28.697578 33.73664 28.77961C 33.793037 28.834541 33.82087 28.904854 33.82087 28.990547C 33.82087 29.029732 33.812813 29.078438 33.7967 29.137032C 33.756783 29.273994 33.687935 29.384224 33.589058 29.468086C 33.490547 29.552315 33.38288 29.60212 33.265694 29.6175C 33.398994 29.762154 33.579903 29.834297 33.808784 29.834297C 33.933662 29.834297 34.045357 29.769844 34.143867 29.640938C 34.24238 29.512032 34.321846 29.344307 34.38227 29.137032C 34.522896 28.656563 34.650703 28.126656 34.765327 27.546577C 34.87995 26.9665 34.993477 26.40107 35.10627 25.849922L35.10627 25.849922L35.715645 22.838203L34.738228 22.838203C 34.697945 22.83857 34.669746 22.82685 34.653633 22.803047C 34.63752 22.787666 34.629463 22.770088 34.629463 22.750313C 34.629463 22.734932 34.63349 22.719551 34.64155 22.703438L34.64155 22.703438L34.665718 22.609688C 34.673775 22.57087 34.693916 22.53901 34.726143 22.513374C 34.75837 22.488106 34.790596 22.475288 34.822456 22.474922L34.822456 22.474922L35.788155 22.474922L35.938667 21.695625C 35.962837 21.543648 35.995064 21.375923 36.035347 21.192085C 36.07563 21.008614 36.123238 20.826973 36.177437 20.647163C 36.231636 20.46772 36.29389 20.2956 36.364204 20.131538C 36.434517 19.967476 36.518013 19.828682 36.614693 19.715157C 36.755684 19.555489 36.91645 19.423653 37.09736 19.320015C 37.278267 19.216743 37.467598 19.164742 37.66462 19.164375C 37.8133 19.164742 37.956123 19.187447 38.093086 19.232124C 38.23005 19.277168 38.343575 19.341621 38.43403 19.425484C 38.524483 19.509712 38.58967 19.610054 38.62995 19.726875C 38.65412 19.781807 38.666206 19.84626 38.666206 19.920235C 38.666206 19.983223 38.65412 20.055367 38.62995 20.137032z" stroke="none" fill="#000000" fill-rule="nonzero" />
                        <path transform="matrix(1 0 0 1 0 0)"  d="M9.172016 42.529217C 9.11562 42.736492 9.042377 42.950726 8.951923 43.171185C 8.861469 43.39201 8.747944 43.592327 8.610981 43.77177C 8.474018 43.95158 8.319111 44.099895 8.146259 44.217083C 7.973408 44.33427 7.7760205 44.392498 7.554829 44.392498C 7.3658643 44.392498 7.2050977 44.35258 7.072163 44.27238C 6.9395947 44.192547 6.835957 44.086346 6.761616 43.95341C 6.6872754 43.820843 6.649922 43.6663 6.649922 43.490154C 6.6418653 43.48283 6.637837 43.47111 6.637837 43.454998C 6.637837 43.29533 6.6722608 43.12724 6.740376 42.95109C 6.8733106 42.607586 6.998921 42.26591 7.1175733 41.926067C 7.2362256 41.586224 7.3398633 41.24455 7.42812 40.90031C 7.4845166 40.67033 7.526997 40.445477 7.554829 40.226482C 7.5628858 40.164227 7.566914 40.09611 7.566914 40.021404C 7.566914 39.885174 7.550801 39.7581 7.518574 39.640545C 7.438374 39.36735 7.2655225 39.230755 6.9996533 39.23039C 6.573384 39.230755 6.20937 39.37431 5.9076123 39.66142C 5.6058545 39.94853 5.3385205 40.332317 5.105244 40.81242L5.105244 40.81242L4.27834 44.00578C 4.2464795 44.13505 4.181294 44.23173 4.082417 44.29582C 3.9839065 44.36027 3.8842971 44.392498 3.7835891 44.392498C 3.6832473 44.392498 3.6008499 44.35954 3.5363967 44.29289C 3.4961135 44.25407 3.475972 44.197674 3.475972 44.122967C 3.475972 44.08415 3.4800003 44.04533 3.488057 44.00578L3.488057 44.00578L5.3040967 36.96281C 5.3363233 36.83427 5.356465 36.73466 5.3645215 36.663982L5.3645215 36.663982L5.3645215 36.640545C 5.3645215 36.586346 5.348408 36.54533 5.3161817 36.517498C 5.2601514 36.47868 5.1616406 36.45341 5.0206494 36.441692C 4.8800244 36.429974 4.72292 36.424114 4.5500684 36.423748C 4.509785 36.424114 4.481587 36.412395 4.4654737 36.38859C 4.4493604 36.37321 4.4413037 36.355633 4.4413037 36.335857C 4.4413037 36.320477 4.445332 36.305096 4.4533887 36.288982L4.4533887 36.288982L4.4775586 36.195232C 4.5017285 36.125286 4.5603223 36.080242 4.6526074 36.060467L4.6526074 36.060467L6.221455 35.93156L6.245625 35.93156C 6.2778516 35.931927 6.3020215 35.939617 6.3177686 35.954998C 6.333882 35.9788 6.3419385 35.99821 6.3419385 36.01359C 6.3419385 36.029705 6.33791 36.045086 6.3298535 36.060467L6.3298535 36.060467L5.3645215 39.804607C 5.585713 39.54716 5.8351026 39.34135 6.1126904 39.18681C 6.3902783 39.032635 6.7103467 38.955364 7.072163 38.954998C 7.301411 38.955364 7.5138135 38.99748 7.7086377 39.08134C 7.903828 39.16557 8.053608 39.299236 8.158344 39.48234C 8.275166 39.674236 8.333393 39.888836 8.333393 40.126873L8.333393 40.126873L8.333393 40.15617C 8.325336 40.40263 8.289082 40.650555 8.224628 40.90031C 8.132343 41.25224 8.024677 41.60014 7.901997 41.943645C 7.7793164 42.287518 7.651509 42.63505 7.518574 42.986248C 7.3940625 43.298992 7.3318067 43.562664 7.3318067 43.777264C 7.3318067 43.78532 7.335835 43.78935 7.3438916 43.788982C 7.3438916 44.012005 7.438374 44.123333 7.627339 44.122967C 7.7763867 44.123333 7.9082227 44.079388 8.022846 43.991497C 8.13747 43.903606 8.242939 43.788616 8.339619 43.645794C 8.436298 43.503338 8.520527 43.335247 8.593037 43.141888C 8.665546 42.94853 8.731831 42.74455 8.791889 42.529217C 8.808002 42.45927 8.856342 42.424114 8.9365425 42.423748L8.9365425 42.423748L9.075336 42.423748C 9.13979 42.424114 9.172016 42.44755 9.172016 42.49406L9.172016 42.49406L9.172016 42.529217z" stroke="none" fill="#000000" fill-rule="nonzero" />
                        <path transform="matrix(1 0 0 1 0 0)"  d="M22.42204 36.851482C 22.389814 36.988445 22.314375 37.10307 22.195723 37.194622C 22.07707 37.28654 21.947432 37.332317 21.80644 37.33195C 21.665815 37.332317 21.559248 37.285442 21.486738 37.191326C 21.438398 37.137127 21.412397 37.072674 21.40837 36.997967C 21.40837 36.951458 21.416426 36.902752 21.432539 36.851482C 21.464766 36.715252 21.541304 36.600994 21.661787 36.509075C 21.782637 36.417522 21.913374 36.37138 22.053999 36.371014C 22.19499 36.37138 22.301558 36.416424 22.373701 36.50578C 22.42204 36.568768 22.44621 36.636883 22.44621 36.710857C 22.44621 36.7581 22.438154 36.804974 22.42204 36.851482zM22.49455 42.529217C 22.44621 42.736492 22.376997 42.950726 22.286177 43.171185C 22.195723 43.39201 22.085127 43.592327 21.95439 43.77177C 21.824018 43.95158 21.67204 44.099895 21.49919 44.217083C 21.326338 44.33427 21.12712 44.392498 20.901533 44.392498C 20.712568 44.392498 20.550703 44.35258 20.415937 44.27238C 20.281172 44.192547 20.176802 44.086346 20.102095 43.95341C 20.027754 43.820843 19.9904 43.6663 19.9904 43.490154C 19.982344 43.48283 19.978315 43.474773 19.978315 43.466717C 19.978315 43.298992 20.01457 43.12724 20.08708 42.95109L20.08708 42.95109L21.064497 40.367107C 21.189009 40.03935 21.251265 39.767986 21.251265 39.552654C 21.251265 39.338055 21.156782 39.230755 20.967817 39.23039C 20.819136 39.230755 20.686201 39.27287 20.569746 39.35673C 20.45329 39.44096 20.347456 39.555218 20.252974 39.699505C 20.158491 39.84416 20.073896 40.01225 19.999556 40.20341C 19.925215 40.39494 19.863691 40.59782 19.815351 40.81242C 19.783125 40.89079 19.728926 40.931805 19.652388 40.935467L19.652388 40.935467L19.51982 40.935467C 19.463423 40.935833 19.435225 40.906536 19.435225 40.847576L19.435225 40.847576L19.435225 40.81242C 19.483564 40.605877 19.554976 40.39201 19.649458 40.171185C 19.74394 39.950726 19.857832 39.75041 19.9904 39.5706C 20.123335 39.391155 20.276411 39.243572 20.449263 39.128216C 20.622114 39.013226 20.819136 38.955364 21.040327 38.954998C 21.229292 38.955364 21.389326 38.995647 21.520063 39.07548C 21.6508 39.15568 21.751509 39.26298 21.821821 39.397747C 21.892134 39.532513 21.931318 39.683758 21.939375 39.851482L21.939375 39.851482L21.939375 39.892498C 21.939375 40.0529 21.907148 40.22099 21.842695 40.396404L21.842695 40.396404L20.865278 42.986248C 20.748823 43.30705 20.69023 43.574383 20.69023 43.788982C 20.682173 43.79704 20.678144 43.805096 20.678144 43.81242C 20.678144 44.019695 20.774824 44.123333 20.967817 44.122967C 21.116865 44.123333 21.250532 44.079388 21.369184 43.991497C 21.487837 43.903606 21.594404 43.788616 21.688887 43.645794C 21.78337 43.503338 21.866133 43.335247 21.936445 43.141888C 22.006758 42.94853 22.070112 42.74455 22.126509 42.529217C 22.142622 42.45927 22.192793 42.424114 22.277021 42.423748L22.277021 42.423748L22.409956 42.423748C 22.442183 42.424114 22.47038 42.431805 22.49455 42.447186C 22.502607 42.4633 22.508833 42.47868 22.512495 42.49406C 22.512495 42.502117 22.506636 42.513836 22.49455 42.529217z" stroke="none" fill="#000000" fill-rule="nonzero" />
                        <path transform="matrix(1 0 0 1 0 0)"  d="M38.133736 36.851482C 38.08979 36.988445 38.010323 37.10307 37.8957 37.194622C 37.781075 37.28654 37.653267 37.332317 37.512276 37.33195C 37.37165 37.332317 37.265083 37.285442 37.192574 37.191326C 37.144234 37.137127 37.120064 37.064617 37.120064 36.97453C 37.120064 36.93571 37.124092 36.894695 37.13215 36.851482C 37.172432 36.715252 37.2519 36.600994 37.370552 36.509075C 37.489204 36.417522 37.618843 36.37138 37.759468 36.371014C 37.90046 36.37138 38.007027 36.416424 38.079536 36.50578C 38.11982 36.568768 38.141792 36.64494 38.14582 36.734295C 38.14582 36.773846 38.141792 36.812664 38.133736 36.851482zM36.474434 44.91984C 36.40998 45.158245 36.30561 45.38786 36.16059 45.60832C 36.015938 45.829144 35.844917 46.0236 35.647896 46.191326C 35.450874 46.359417 35.232613 46.491253 34.99311 46.586834C 34.753975 46.68278 34.511543 46.73039 34.266182 46.73039C 34.125557 46.73039 33.99079 46.71208 33.861885 46.674725C 33.733345 46.637737 33.623848 46.583904 33.533028 46.51359C 33.44294 46.44328 33.377388 46.351727 33.33674 46.2382C 33.312935 46.183636 33.30085 46.119183 33.300484 46.04484C 33.30085 45.997967 33.308907 45.94157 33.324654 45.87492C 33.365303 45.714886 33.449898 45.595867 33.578438 45.517498C 33.707344 45.439495 33.831856 45.40031 33.95234 45.40031C 34.077583 45.40031 34.181953 45.439495 34.266182 45.517498C 34.32258 45.57243 34.35041 45.644573 34.35041 45.734295C 34.35041 45.77348 34.342354 45.820354 34.32624 45.87492C 34.294014 45.996136 34.234688 46.094646 34.148262 46.17082C 34.062202 46.24699 33.972847 46.300823 33.87983 46.33195C 34.005074 46.41032 34.15339 46.451336 34.32624 46.454998C 34.483345 46.454998 34.631294 46.41325 34.77009 46.32902C 34.908882 46.24516 35.03852 46.132732 35.159004 45.992107C 35.279854 45.851482 35.385323 45.689617 35.475777 45.50578C 35.566597 45.322308 35.63581 45.127117 35.68415 44.91984L35.68415 44.91984L36.8487 40.378826C 36.913155 40.12138 36.945015 39.898724 36.945015 39.710857L36.945015 39.710857L36.945015 39.564373C 36.920845 39.342083 36.80622 39.230755 36.601143 39.23039C 36.436348 39.230755 36.28144 39.2747 36.13642 39.36259C 35.991768 39.45048 35.8581 39.568768 35.73542 39.717083C 35.61274 39.865765 35.501045 40.035686 35.400337 40.22685C 35.299995 40.418377 35.20954 40.617596 35.128975 40.82414C 35.09675 40.894817 35.046577 40.931805 34.978096 40.935467L34.978096 40.935467L34.84516 40.935467C 34.78913 40.928143 34.7591 40.898846 34.754707 40.847576L34.754707 40.847576L34.754707 40.81242C 34.835274 40.59782 34.93818 40.37846 35.06269 40.153606C 35.187202 39.92912 35.330025 39.7288 35.49079 39.55302C 35.651924 39.37724 35.829903 39.233685 36.025093 39.122356C 36.220284 39.01103 36.43232 38.955364 36.661568 38.954998C 36.85859 38.955364 37.02961 38.99345 37.174263 39.069622C 37.319283 39.145794 37.435005 39.24943 37.52143 39.38017C 37.607857 39.511272 37.663155 39.66032 37.687325 39.828045L37.687325 39.828045L37.687325 39.986248C 37.687325 40.11552 37.67121 40.246258 37.638985 40.378826z" stroke="none" fill="#000000" fill-rule="nonzero" />
                        <path transform="matrix(1 0 0 1 1.02 24.091055)"  d="M-0.636 -21.907055L-0.636 21.907055" stroke="#000000" stroke-width="0.576" stroke-linecap="round" fill="none" />
                        <path transform="matrix(-1 0 0 -1 41.130234 24.091055)"  d="M-0.636 -21.907055L-0.636 21.907055" stroke="#000000" stroke-width="0.576" stroke-linecap="round" fill="none" />
                        <path transform="matrix(1 0 0 1 52.230236 24.091055)"  d="M-4.2 -1.26L4.2 -1.26" stroke="#000000" stroke-width="0.48" stroke-linecap="round" fill="none" />
                        <path transform="matrix(1 0 0 1 52.230236 24.091055)"  d="M-4.2 1.26L4.2 1.26" stroke="#000000" stroke-width="0.48" stroke-linecap="round" fill="none" />
                        <path transform="matrix(1 0 0 1 0 0)"  d="M71.861 25.908516C 71.81303 26.092354 71.759926 26.292671 71.70133 26.509468C 71.643105 26.726265 71.564735 26.926582 71.46586 27.110054C 71.36735 27.293892 71.245766 27.449898 71.100746 27.578804C 70.95609 27.70771 70.777016 27.771797 70.563515 27.771797C 70.27421 27.771797 70.04276 27.691963 69.869545 27.531929C 69.69669 27.371895 69.590126 27.166817 69.54984 26.916328C 69.36088 27.13935 69.13456 27.337837 68.87089 27.511421C 68.607216 27.685005 68.33073 27.771797 68.04105 27.771797C 67.73527 27.771797 67.47965 27.695992 67.274574 27.543648C 67.069496 27.391304 66.90836 27.197945 66.79154 26.963203C 66.65092 26.68232 66.57658 26.379463 66.56852 26.055L66.56852 26.055L66.56852 25.96711C 66.56852 25.662788 66.611 25.359932 66.69523 25.058907C 66.78788 24.723457 66.919716 24.391304 67.09037 24.063179C 67.26139 23.735054 67.48771 23.430367 67.769325 23.14875C 67.99857 22.91877 68.26005 22.72541 68.55375 22.569038C 68.84745 22.413033 69.14335 22.334663 69.44108 22.334297C 69.694496 22.334663 69.90177 22.402046 70.062904 22.536812C 70.22404 22.671577 70.34855 22.836739 70.436806 23.031563L70.436806 23.031563L70.45512 22.95539C 70.47929 22.82685 70.53861 22.729439 70.633095 22.662788C 70.72758 22.596504 70.82316 22.563179 70.91984 22.562813C 71.0286 22.563179 71.11906 22.594307 71.1912 22.656563C 71.23148 22.703804 71.25382 22.768257 71.257484 22.849922C 71.257484 22.881416 71.25382 22.916573 71.245766 22.95539L71.245766 22.95539L70.37638 26.34211C 70.336464 26.50251 70.308266 26.654854 70.29215 26.79914C 70.284096 26.86982 70.28007 26.936104 70.28007 26.99836C 70.28007 27.053291 70.284096 27.110054 70.29215 27.168282C 70.308266 27.274117 70.34379 27.356148 70.39799 27.414742C 70.45219 27.473335 70.527626 27.502632 70.62394 27.502266C 70.72465 27.502632 70.8162 27.463814 70.8986 27.385445C 70.98136 27.307442 71.0546 27.196114 71.11906 27.05146C 71.18351 26.907173 71.24467 26.737984 71.302895 26.544624C 71.36149 26.351265 71.420815 26.139229 71.48087 25.908516C 71.49699 25.83857 71.54533 25.803413 71.62589 25.803047L71.62589 25.803047L71.76469 25.803047C 71.82914 25.803413 71.861 25.82685 71.861 25.87336L71.861 25.87336L71.861 25.908516zM70.2559 23.758125C 70.239784 23.680489 70.22587 23.603218 70.21378 23.527046C 70.2017 23.450874 70.18156 23.373604 70.15336 23.295235C 70.088905 23.104073 69.99259 22.942207 69.863686 22.809273C 69.73478 22.676704 69.571815 22.610054 69.374794 22.609688C 69.193886 22.610054 69.01664 22.673775 68.84379 22.800484C 68.67094 22.927559 68.51383 23.088692 68.37284 23.283516C 68.17582 23.557442 68.02824 23.841621 67.92936 24.136421C 67.83085 24.431587 67.74113 24.738838 67.66056 25.058907C 67.58036 25.37165 67.51408 25.674507 67.46171 25.96711C 67.42948 26.11982 67.41337 26.264473 67.41337 26.400703C 67.41337 26.545723 67.42948 26.686348 67.46171 26.822578C 67.50199 27.014473 67.5734 27.175606 67.67594 27.306343C 67.77848 27.437447 67.92423 27.502632 68.1132 27.502266C 68.310585 27.502632 68.506874 27.43525 68.7017 27.300484C 68.89689 27.165718 69.077065 27.002754 69.24186 26.81086C 69.30631 26.733223 69.367836 26.657051 69.42606 26.58271C 69.48466 26.508736 69.53776 26.428535 69.5861 26.34211L69.5861 26.34211L70.2559 23.758125z" stroke="none" fill="#000000" fill-rule="nonzero" />
                        <path transform="matrix(1 0 0 1 0 0)"  d="M77.246956 26.306953C 77.26307 26.323067 77.271126 26.338448 77.271126 26.353828C 77.271126 26.377632 77.25904 26.405098 77.23487 26.43586C 76.921394 26.86982 76.52296 27.200874 76.04029 27.42939C 75.557625 27.657906 75.07276 27.771797 74.58607 27.771797C 74.240364 27.771797 73.94666 27.685005 73.70533 27.511421C 73.464 27.337837 73.272835 27.123604 73.13184 26.869453C 72.975105 26.565132 72.89234 26.229317 72.884285 25.86164C 72.87623 25.822823 72.8722 25.781807 72.8722 25.738594C 72.8722 25.410835 72.91651 25.07502 73.005135 24.730782C 73.0857 24.41877 73.2212 24.117012 73.41236 23.825874C 73.60352 23.535103 73.844124 23.273994 74.13343 23.043282C 74.40699 22.820992 74.70582 22.647408 75.02955 22.522163C 75.35328 22.397285 75.67225 22.334663 75.985725 22.334297C 76.17506 22.334663 76.3523 22.36689 76.5171 22.431343C 76.68189 22.495796 76.81776 22.583687 76.924324 22.695015C 77.03089 22.806343 77.10413 22.938179 77.14442 23.090157C 77.16053 23.160835 77.16859 23.237007 77.16859 23.318672C 77.16859 23.40876 77.1565 23.504707 77.13233 23.605782C 77.05982 23.910835 76.90821 24.149239 76.676765 24.320992C 76.44532 24.49311 76.177986 24.619087 75.87403 24.698921C 75.57044 24.779121 75.24781 24.827095 74.90577 24.842476C 74.56373 24.858223 74.24 24.865913 73.93421 24.865547C 73.84193 25.201729 73.779305 25.526192 73.74708 25.838203C 73.73133 25.944038 73.723274 26.047676 73.723274 26.14875C 73.723274 26.348335 73.747444 26.539864 73.79542 26.72297C 73.85987 26.945992 73.962776 27.13166 74.1034 27.279976C 74.244026 27.428658 74.42713 27.502632 74.65235 27.502266C 75.09107 27.502632 75.51734 27.391304 75.931526 27.168648C 76.34608 26.945992 76.68995 26.641304 76.96314 26.25422C 76.98731 26.2154 77.01954 26.191963 77.05982 26.183907L77.05982 26.183907L77.08399 26.183907C 77.11622 26.184273 77.14039 26.191963 77.1565 26.207344L77.1565 26.207344L77.246956 26.306953zM76.679695 23.605782C 76.703865 23.50837 76.71595 23.420479 76.71595 23.34211C 76.71595 23.174385 76.66578 23.02607 76.56507 22.896797C 76.41639 22.705635 76.19923 22.610054 75.91358 22.609688C 75.70045 22.610054 75.48621 22.663887 75.27088 22.771187C 75.05555 22.878853 74.865486 23.024239 74.70069 23.207344C 74.51173 23.406929 74.36561 23.624825 74.26307 23.86103C 74.16053 24.097603 74.071175 24.344429 73.99464 24.601875C 74.30848 24.602242 74.615364 24.590523 74.914925 24.567085C 75.214485 24.543648 75.48402 24.497871 75.72352 24.42939C 75.96302 24.361275 76.167 24.260567 76.33582 24.127632C 76.50501 23.995064 76.61964 23.821114 76.679695 23.605782z" stroke="none" fill="#000000" fill-rule="nonzero" />
                        <path transform="matrix(1 0 0 1 0 0)"  d="M81.760826 20.230782C 81.71688 20.367744 81.63741 20.482368 81.52279 20.573921C 81.408165 20.66584 81.28036 20.711617 81.139366 20.71125C 80.99874 20.711617 80.89217 20.664742 80.819664 20.570625C 80.771324 20.516426 80.747154 20.443916 80.747154 20.353828C 80.747154 20.31501 80.75118 20.273994 80.75924 20.230782C 80.79952 20.094551 80.87899 19.980293 80.99764 19.888374C 81.116295 19.796822 81.24593 19.750679 81.38656 19.750313C 81.52755 19.750679 81.63412 19.795723 81.70663 19.885078C 81.74691 19.948067 81.76888 20.024239 81.77291 20.113594C 81.77291 20.153145 81.76888 20.191963 81.760826 20.230782zM80.101524 28.29914C 80.03707 28.537544 79.9327 28.767159 79.78768 28.987617C 79.64303 29.208443 79.47201 29.4029 79.27499 29.570625C 79.077965 29.738716 78.8597 29.870552 78.6202 29.966133C 78.381065 30.06208 78.13863 30.109688 77.89327 30.109688C 77.75265 30.109688 77.61788 30.091377 77.488976 30.054024C 77.360435 30.017036 77.25094 29.963203 77.16012 29.89289C 77.07003 29.822578 77.00448 29.731026 76.96383 29.6175C 76.940025 29.562935 76.92794 29.498482 76.927574 29.42414C 76.92794 29.377266 76.936 29.32087 76.951744 29.25422C 76.99239 29.094185 77.07699 28.975166 77.20553 28.896797C 77.334435 28.818794 77.45895 28.77961 77.57943 28.77961C 77.70467 28.77961 77.809044 28.818794 77.89327 28.896797C 77.94967 28.951729 77.9775 29.023872 77.9775 29.113594C 77.9775 29.152779 77.969444 29.199654 77.95333 29.25422C 77.921104 29.375435 77.86178 29.473946 77.77535 29.550117C 77.68929 29.62629 77.59994 29.680122 77.50692 29.71125C 77.632164 29.78962 77.78048 29.830635 77.95333 29.834297C 78.110435 29.834297 78.258385 29.79255 78.39718 29.70832C 78.53597 29.624458 78.66561 29.512032 78.786095 29.371407C 78.906944 29.230782 79.01241 29.068916 79.10287 28.885078C 79.19369 28.701607 79.2629 28.506416 79.31124 28.29914L79.31124 28.29914L80.47579 23.758125C 80.540245 23.500679 80.572105 23.278023 80.572105 23.090157L80.572105 23.090157L80.572105 22.943672C 80.547935 22.721382 80.43331 22.610054 80.22823 22.609688C 80.06344 22.610054 79.90853 22.654 79.76351 22.74189C 79.61886 22.82978 79.48519 22.948067 79.36251 23.096382C 79.23983 23.245064 79.128136 23.414986 79.02743 23.606148C 78.927086 23.797676 78.83663 23.996895 78.756065 24.203438C 78.72384 24.274117 78.67367 24.311104 78.60519 24.314766L78.60519 24.314766L78.47225 24.314766C 78.41622 24.307442 78.38619 24.278145 78.3818 24.226875L78.3818 24.226875L78.3818 24.19172C 78.462364 23.97712 78.56527 23.75776 78.68978 23.532906C 78.81429 23.308418 78.957115 23.1081 79.11788 22.93232C 79.279015 22.756538 79.45699 22.612984 79.65218 22.501656C 79.847374 22.390327 80.05941 22.334663 80.28866 22.334297C 80.48568 22.334663 80.6567 22.37275 80.80135 22.448921C 80.94637 22.525093 81.062096 22.62873 81.14852 22.759468C 81.23495 22.890572 81.290245 23.03962 81.314415 23.207344L81.314415 23.207344L81.314415 23.365547C 81.314415 23.49482 81.2983 23.625557 81.266075 23.758125z" stroke="none" fill="#000000" fill-rule="nonzero" />
                        <path transform="matrix(1 0 0 1 89.89216 24.091055)"  d="M-4.2 0L4.2 0" stroke="#000000" stroke-width="0.48" stroke-linecap="round" fill="none" />
                        <path transform="matrix(1 0 0 1 89.89216 24.091055)"  d="M0 -4.2L0 4.2" stroke="#000000" stroke-width="0.48" stroke-linecap="round" fill="none" />
                        <path transform="matrix(1 0 0 1 0 0)"  d="M101.69613 25.058907C 101.60384 25.395088 101.47091 25.727242 101.29806 26.055367C 101.125206 26.383492 100.89962 26.686348 100.62203 26.963203C 100.392784 27.193916 100.13351 27.386543 99.843834 27.540718C 99.55453 27.694893 99.2568 27.771797 98.950645 27.771797C 98.66134 27.771797 98.41781 27.693794 98.22079 27.537788C 98.023766 27.381783 97.87289 27.186226 97.76815 26.951485C 97.64364 26.6706 97.57699 26.367744 97.56893 26.043282L97.56893 26.043282L97.56893 25.96711C 97.56893 25.662788 97.609215 25.359932 97.68978 25.058907L97.68978 25.058907L98.90267 20.34211C 98.9349 20.21357 98.95467 20.11396 98.96273 20.043282L98.96273 20.043282L98.96273 20.019844C 98.96273 19.965645 98.94698 19.92463 98.91476 19.896797C 98.85836 19.857979 98.75985 19.83271 98.619225 19.820992C 98.4786 19.809273 98.321495 19.803413 98.14828 19.803047C 98.107994 19.803413 98.079796 19.791695 98.06368 19.76789C 98.047935 19.75251 98.03988 19.734932 98.03988 19.715157C 98.03988 19.699776 98.04391 19.684395 98.0516 19.668282L98.0516 19.668282L98.07577 19.574532C 98.09994 19.504585 98.156334 19.459541 98.24496 19.439766L98.24496 19.439766L99.83175 19.31086L99.85592 19.31086C 99.888145 19.311226 99.912315 19.318916 99.92843 19.334297C 99.936485 19.35041 99.94051 19.36982 99.94051 19.39289C 99.94051 19.409004 99.936485 19.424385 99.92843 19.439766L99.92843 19.439766L98.998985 23.031563C 99.18832 22.8404 99.39852 22.676704 99.6296 22.539742C 99.861046 22.403145 100.10128 22.334663 100.35067 22.334297C 100.656456 22.334663 100.9139 22.413033 101.12301 22.569038C 101.33248 22.72541 101.49325 22.91877 101.605675 23.14875C 101.73861 23.430367 101.80892 23.735054 101.81698 24.062813L101.81698 24.062813L101.81698 24.144844C 101.81698 24.442207 101.776695 24.746895 101.69613 25.058907zM100.9421 23.283516C 100.90182 23.088692 100.82748 22.927559 100.71871 22.800484C 100.61031 22.673775 100.465294 22.610054 100.284386 22.609688C 100.07931 22.610054 99.88009 22.675606 99.687096 22.806343C 99.4941 22.937447 99.315025 23.10041 99.149864 23.295235C 99.02535 23.455635 98.91476 23.610176 98.81808 23.758125L98.81808 23.758125L98.480064 25.058907C 98.399864 25.37165 98.33944 25.674507 98.29916 25.96711C 98.28304 26.088692 98.27499 26.20588 98.27499 26.318672C 98.27499 26.49482 98.29513 26.66291 98.33541 26.822578C 98.38375 27.014473 98.46322 27.175606 98.573814 27.306343C 98.68441 27.437447 98.83419 27.502632 99.023155 27.502266C 99.20443 27.502632 99.38241 27.437447 99.55746 27.306343C 99.732506 27.175606 99.888145 27.014473 100.02474 26.822578C 100.22213 26.557442 100.37118 26.275093 100.47152 25.976265C 100.57186 25.677437 100.662315 25.37165 100.74288 25.058907C 100.82345 24.738838 100.89413 24.430489 100.954185 24.133125C 100.978355 23.988838 100.99044 23.848213 100.99044 23.71125C 100.99044 23.566963 100.97433 23.424507 100.9421 23.283516z" stroke="none" fill="#000000" fill-rule="nonzero" />
                        <path transform="matrix(1 0 0 1 0 0)"  d="M108.08077 20.137032C 108.04049 20.297432 107.95809 20.419746 107.83358 20.503609C 107.70907 20.587837 107.58602 20.629585 107.46517 20.62922C 107.34066 20.629585 107.23812 20.584541 107.157555 20.494453C 107.10116 20.440254 107.07113 20.369942 107.0671 20.283516C 107.0671 20.244698 107.07516 20.195992 107.09127 20.137032C 107.13155 20.000801 107.200035 19.892403 107.296715 19.812202C 107.393394 19.732368 107.497765 19.684395 107.61019 19.668282C 107.47762 19.516304 107.28829 19.440132 107.04293 19.439766C 106.88619 19.440132 106.74117 19.56501 106.608604 19.814766C 106.584435 19.854317 106.55624 19.937447 106.52401 20.064156C 106.49178 20.19123 106.45663 20.343575 106.41854 20.521187C 106.380455 20.699165 106.34127 20.887398 106.30099 21.086617C 106.260704 21.285835 106.22445 21.477364 106.19222 21.66047L106.19222 21.66047L106.02926 22.474922L107.205894 22.474922C 107.27035 22.475288 107.302574 22.508614 107.302574 22.574532L107.302574 22.574532L107.302574 22.609688L107.278404 22.703438C 107.24618 22.793526 107.18795 22.83857 107.103355 22.838203L107.103355 22.838203L105.95675 22.838203L105.365685 25.803047C 105.30929 26.076973 105.24923 26.368843 105.18478 26.67939C 105.12032 26.989937 105.05001 27.297554 104.97347 27.602242C 104.8973 27.906929 104.810875 28.19477 104.714195 28.466133C 104.617516 28.737862 104.51278 28.97297 104.39999 29.172188C 104.3359 29.285713 104.26156 29.397774 104.17696 29.509102C 104.092735 29.62043 103.998985 29.72004 103.89645 29.80793C 103.79391 29.89582 103.68514 29.96833 103.57052 30.024727C 103.455894 30.08149 103.332115 30.109688 103.19918 30.109688C 103.050865 30.109688 102.91134 30.085518 102.780235 30.036446C 102.649864 29.98774 102.53927 29.921455 102.44845 29.837227C 102.357994 29.753365 102.29061 29.652657 102.24593 29.53547C 102.23019 29.473213 102.22213 29.40876 102.22176 29.34211C 102.22213 29.279854 102.23019 29.211372 102.24593 29.137032C 102.28658 28.976997 102.37118 28.85688 102.49972 28.77668C 102.628624 28.696846 102.75497 28.656563 102.87948 28.656563C 103.00472 28.656563 103.10726 28.697578 103.18746 28.77961C 103.24386 28.834541 103.27169 28.904854 103.27169 28.990547C 103.27169 29.029732 103.26363 29.078438 103.24752 29.137032C 103.2076 29.273994 103.138756 29.384224 103.03988 29.468086C 102.94137 29.552315 102.8337 29.60212 102.716515 29.6175C 102.849815 29.762154 103.03072 29.834297 103.259605 29.834297C 103.38448 29.834297 103.49618 29.769844 103.59469 29.640938C 103.6932 29.512032 103.77267 29.344307 103.83309 29.137032C 103.97372 28.656563 104.101524 28.126656 104.21615 27.546577C 104.33077 26.9665 104.4443 26.40107 104.55709 25.849922L104.55709 25.849922L105.166466 22.838203L104.18905 22.838203C 104.148766 22.83857 104.12057 22.82685 104.104454 22.803047C 104.08834 22.787666 104.080284 22.770088 104.080284 22.750313C 104.080284 22.734932 104.08431 22.719551 104.09237 22.703438L104.09237 22.703438L104.11654 22.609688C 104.124596 22.57087 104.14474 22.53901 104.17696 22.513374C 104.20919 22.488106 104.24142 22.475288 104.27328 22.474922L104.27328 22.474922L105.238976 22.474922L105.38949 21.695625C 105.41366 21.543648 105.445885 21.375923 105.48617 21.192085C 105.52645 21.008614 105.57406 20.826973 105.62826 20.647163C 105.68246 20.46772 105.74471 20.2956 105.815025 20.131538C 105.88534 19.967476 105.968834 19.828682 106.06551 19.715157C 106.206505 19.555489 106.36727 19.423653 106.54818 19.320015C 106.72909 19.216743 106.91842 19.164742 107.11544 19.164375C 107.26412 19.164742 107.406944 19.187447 107.54391 19.232124C 107.68087 19.277168 107.794395 19.341621 107.88485 19.425484C 107.9753 19.509712 108.04049 19.610054 108.08077 19.726875C 108.10494 19.781807 108.11703 19.84626 108.11703 19.920235C 108.11703 19.983223 108.10494 20.055367 108.08077 20.137032z" stroke="none" fill="#000000" fill-rule="nonzero" />
                        <path transform="matrix(1 0 0 1 0 0)"  d="M113.55419 25.908516C 113.497795 26.115791 113.42455 26.330025 113.3341 26.550484C 113.243645 26.771309 113.13012 26.971626 112.99316 27.15107C 112.85619 27.33088 112.70129 27.479195 112.528435 27.596382C 112.35558 27.71357 112.158195 27.771797 111.937004 27.771797C 111.74804 27.771797 111.58727 27.73188 111.45434 27.65168C 111.32177 27.571846 111.21813 27.465645 111.14379 27.33271C 111.06945 27.200142 111.0321 27.0456 111.0321 26.869453C 111.02404 26.86213 111.02001 26.85041 111.02001 26.834297C 111.02001 26.67463 111.054436 26.506538 111.12255 26.33039C 111.255486 25.986885 111.381096 25.64521 111.49975 25.305367C 111.6184 24.965523 111.72204 24.623848 111.810295 24.27961C 111.86669 24.04963 111.90917 23.824776 111.937004 23.605782C 111.94506 23.543526 111.94909 23.47541 111.94909 23.400703C 111.94909 23.264473 111.932976 23.137398 111.90075 23.019844C 111.82055 22.74665 111.6477 22.610054 111.38183 22.609688C 110.95556 22.610054 110.591545 22.753609 110.28979 23.040718C 109.98803 23.327827 109.720695 23.711617 109.48742 24.19172L109.48742 24.19172L108.660515 27.385078C 108.628654 27.51435 108.56347 27.61103 108.46459 27.675117C 108.36608 27.73957 108.26647 27.771797 108.165764 27.771797C 108.06542 27.771797 107.983025 27.738838 107.91857 27.672188C 107.87829 27.63337 107.85815 27.576973 107.85815 27.502266C 107.85815 27.463448 107.862175 27.42463 107.87023 27.385078L107.87023 27.385078L109.68627 20.34211C 109.7185 20.21357 109.73864 20.11396 109.7467 20.043282L109.7467 20.043282L109.7467 20.019844C 109.7467 19.965645 109.73058 19.92463 109.69836 19.896797C 109.64233 19.857979 109.543816 19.83271 109.402824 19.820992C 109.2622 19.809273 109.105095 19.803413 108.93224 19.803047C 108.89196 19.803413 108.86376 19.791695 108.84765 19.76789C 108.831535 19.75251 108.82348 19.734932 108.82348 19.715157C 108.82348 19.699776 108.82751 19.684395 108.83556 19.668282L108.83556 19.668282L108.85973 19.574532C 108.8839 19.504585 108.9425 19.459541 109.03478 19.439766L109.03478 19.439766L110.60363 19.31086L110.6278 19.31086C 110.66003 19.311226 110.6842 19.318916 110.69994 19.334297C 110.71606 19.3581 110.72411 19.37751 110.72411 19.39289C 110.72411 19.409004 110.720085 19.424385 110.71203 19.439766L110.71203 19.439766L109.7467 23.183907C 109.96789 22.92646 110.21728 22.72065 110.494865 22.566109C 110.77245 22.411934 111.09252 22.334663 111.45434 22.334297C 111.683586 22.334663 111.89599 22.376778 112.09081 22.46064C 112.286 22.544868 112.43578 22.678535 112.54052 22.86164C 112.65734 23.053535 112.71557 23.268135 112.71557 23.506172L112.71557 23.506172L112.71557 23.53547C 112.70751 23.781929 112.67126 24.029854 112.606804 24.27961C 112.51452 24.631538 112.40685 24.979439 112.28417 25.322945C 112.16149 25.666817 112.03368 26.01435 111.90075 26.365547C 111.77624 26.678291 111.71398 26.941963 111.71398 27.156563C 111.71398 27.16462 111.71801 27.168648 111.72607 27.168282C 111.72607 27.391304 111.82055 27.502632 112.009514 27.502266C 112.15856 27.502632 112.2904 27.458687 112.40502 27.370796C 112.519646 27.282906 112.625114 27.167915 112.721794 27.025093C 112.818474 26.882637 112.9027 26.714546 112.97521 26.521187C 113.04772 26.327827 113.114006 26.123848 113.174065 25.908516C 113.19018 25.83857 113.23852 25.803413 113.31872 25.803047L113.31872 25.803047L113.45751 25.803047C 113.521965 25.803413 113.55419 25.82685 113.55419 25.87336L113.55419 25.87336L113.55419 25.908516z" stroke="none" fill="#000000" fill-rule="nonzero" />
                        <path transform="matrix(1 0 0 1 121.63462 24.091055)"  d="M-4.2 0L4.2 0" stroke="#000000" stroke-width="0.48" stroke-linecap="round" fill="none" />
                        <path transform="matrix(1 0 0 1 121.63462 24.091055)"  d="M0 -4.2L0 4.2" stroke="#000000" stroke-width="0.48" stroke-linecap="round" fill="none" />
                        <path transform="matrix(1 0 0 1 0 0)"  d="M133.73434 26.306953C 133.75046 26.323067 133.75851 26.338448 133.75851 26.353828C 133.75851 26.377632 133.74643 26.405098 133.72226 26.43586C 133.40878 26.86982 133.01035 27.200874 132.52768 27.42939C 132.04501 27.657906 131.56015 27.771797 131.07346 27.771797C 130.73581 27.771797 130.44211 27.697823 130.19272 27.549507C 129.94333 27.401192 129.74814 27.205635 129.60715 26.963203C 129.44235 26.69001 129.3475 26.391182 129.32333 26.06672C 129.31564 25.989082 129.31161 25.908882 129.31161 25.826485C 129.31161 25.580757 129.34384 25.324776 129.40793 25.058907C 129.50058 24.70771 129.6456 24.367867 129.84262 24.039742C 130.03964 23.711617 130.2872 23.410957 130.58456 23.137032C 130.85812 22.898994 131.15878 22.706001 131.48654 22.55732C 131.81467 22.409004 132.14352 22.334663 132.47311 22.334297C 132.6705 22.334663 132.8558 22.365059 133.02866 22.425484C 133.2015 22.486275 133.34726 22.571968 133.46591 22.683296C 133.58456 22.794624 133.67026 22.92646 133.72226 23.078438C 133.73837 23.156807 133.74643 23.237007 133.74643 23.318672C 133.74643 23.40876 133.73434 23.504707 133.71017 23.605782C 133.66989 23.766182 133.5875 23.888496 133.46298 23.972359C 133.33847 24.056587 133.2136 24.098335 133.08871 24.09797C 132.9642 24.098335 132.86166 24.053291 132.7811 23.963203C 132.7247 23.909004 132.6965 23.836494 132.6965 23.746407C 132.6965 23.707588 132.70456 23.660713 132.72067 23.605782C 132.76096 23.446114 132.84042 23.327827 132.95908 23.251656C 133.07773 23.175484 133.19528 23.13337 133.31174 23.125313C 133.24765 22.965645 133.13522 22.839668 132.97409 22.74775C 132.81332 22.656197 132.62216 22.610054 132.40097 22.609688C 132.18784 22.610054 131.9714 22.673775 131.75204 22.800484C 131.53305 22.927559 131.34079 23.092354 131.176 23.295235C 130.9548 23.553413 130.78598 23.831734 130.66916 24.130562C 130.5527 24.42939 130.45383 24.738838 130.37326 25.058907C 130.29306 25.37165 130.2308 25.674507 130.1865 25.96711C 130.17038 26.065254 130.16232 26.156807 130.16232 26.2425C 130.16232 26.442085 130.19455 26.631416 130.25864 26.81086C 130.32309 27.018135 130.43185 27.185493 130.58456 27.312202C 130.73764 27.439278 130.92258 27.502632 131.13974 27.502266C 131.57846 27.502632 132.00473 27.391304 132.41891 27.168648C 132.83347 26.945992 133.17734 26.641304 133.45053 26.25422C 133.46664 26.223457 133.49887 26.20002 133.54721 26.183907L133.54721 26.183907L133.58347 26.183907C 133.60764 26.184273 133.62778 26.191963 133.64389 26.207344L133.64389 26.207344L133.73434 26.306953z" stroke="none" fill="#000000" fill-rule="nonzero" />
                        <path transform="matrix(1 0 0 1 0 0)"  d="M138.66457 26.34211C 138.59206 26.600288 138.5558 26.824776 138.5558 27.015938C 138.5558 27.07087 138.55983 27.121773 138.56789 27.168282C 138.59206 27.391304 138.70668 27.502632 138.91176 27.502266C 139.01247 27.502632 139.10402 27.463814 139.18642 27.385445C 139.26918 27.307442 139.34242 27.196114 139.40688 27.05146C 139.47133 26.907173 139.53249 26.737984 139.59071 26.544624C 139.6493 26.351265 139.70863 26.139229 139.76869 25.908516C 139.7848 25.83857 139.83315 25.803413 139.91371 25.803047L139.91371 25.803047L140.0525 25.803047C 140.11696 25.803413 140.14882 25.82685 140.14882 25.87336L140.14882 25.87336L140.14882 25.908516C 140.10048 26.092354 140.04738 26.292671 139.98915 26.509468C 139.93092 26.726265 139.85255 26.926582 139.75368 27.110054C 139.65517 27.293892 139.53358 27.449898 139.38857 27.578804C 139.24391 27.70771 139.06483 27.771797 138.8517 27.771797C 138.56203 27.771797 138.33058 27.691963 138.15773 27.531929C 137.98488 27.371895 137.87831 27.166817 137.83803 26.916328C 137.64906 27.13935 137.42274 27.337837 137.15907 27.511421C 136.89577 27.685005 136.61928 27.771797 136.32924 27.771797C 136.02382 27.771797 135.7682 27.695992 135.56313 27.543648C 135.35805 27.391304 135.19728 27.197945 135.08046 26.963203C 134.93983 26.68232 134.86513 26.379463 134.85707 26.055L134.85707 26.055L134.85707 25.96711C 134.85707 25.662788 134.89955 25.359932 134.98378 25.058907C 135.07643 24.723457 135.20827 24.391304 135.37929 24.063179C 135.55031 23.735054 135.77663 23.430367 136.05788 23.14875C 136.28712 22.91877 136.5486 22.72541 136.8423 22.569038C 137.136 22.413033 137.4319 22.334663 137.72926 22.334297C 137.98268 22.334663 138.18996 22.402046 138.35072 22.536812C 138.51186 22.671577 138.63637 22.836739 138.72499 23.031563L138.72499 23.031563L139.4186 20.34211C 139.45082 20.21357 139.47096 20.11396 139.47902 20.043282L139.47902 20.043282L139.47902 20.031563C 139.47902 19.977364 139.45888 19.93232 139.4186 19.896797C 139.37062 19.857979 139.27614 19.83271 139.13515 19.820992C 138.99452 19.809273 138.83742 19.803413 138.66457 19.803047C 138.59206 19.803413 138.5558 19.770088 138.5558 19.703438L138.5558 19.703438L138.5558 19.668282L138.59206 19.574532C 138.60817 19.504585 138.66273 19.459541 138.75502 19.439766L138.75502 19.439766L139.90163 19.346016L140.33595 19.31086L140.36012 19.31086C 140.39235 19.311226 140.41652 19.318916 140.43263 19.334297C 140.44069 19.3581 140.44435 19.381538 140.44435 19.40461L140.44435 19.40461L140.44435 19.439766zM138.54372 23.758125C 138.5276 23.680489 138.51369 23.603218 138.5016 23.527046C 138.48988 23.450874 138.46974 23.373604 138.44118 23.295235C 138.37709 23.104073 138.28078 22.942207 138.15187 22.809273C 138.02296 22.676704 137.86 22.610054 137.66298 22.609688C 137.48207 22.610054 137.30482 22.673775 137.13197 22.800484C 136.95912 22.927559 136.80202 23.088692 136.66139 23.283516C 136.46437 23.557442 136.31642 23.841621 136.21791 24.136421C 136.1194 24.431587 136.02968 24.738838 135.94911 25.058907C 135.86891 25.37165 135.80263 25.674507 135.75026 25.96711C 135.71803 26.11982 135.70192 26.264473 135.70192 26.400703C 135.70192 26.545723 135.71803 26.686348 135.75026 26.822578C 135.79054 27.014473 135.86195 27.175606 135.9645 27.306343C 136.06703 27.437447 136.21278 27.502632 136.40175 27.502266C 136.59914 27.502632 136.79543 27.43525 136.99025 27.300484C 137.18544 27.165718 137.36525 27.002754 137.53004 26.81086C 137.5945 26.733223 137.65602 26.657051 137.71425 26.58271C 137.77284 26.508736 137.82594 26.428535 137.87392 26.34211L137.87392 26.34211L138.54372 23.758125z" stroke="none" fill="#000000" fill-rule="nonzero" />
                        <path transform="matrix(1 0 0 1 0 0)"  d="M143.84422 20.230782C 143.812 20.367744 143.73656 20.482368 143.6179 20.573921C 143.49925 20.66584 143.36961 20.711617 143.22862 20.71125C 143.088 20.711617 142.98143 20.664742 142.90892 20.570625C 142.86058 20.516426 142.83458 20.451973 142.83055 20.377266C 142.83055 20.330757 142.83861 20.282051 142.85472 20.230782C 142.88695 20.094551 142.96349 19.980293 143.08397 19.888374C 143.20482 19.796822 143.33556 19.750679 143.47618 19.750313C 143.61717 19.750679 143.72374 19.795723 143.79588 19.885078C 143.84422 19.948067 143.8684 20.016182 143.8684 20.090157C 143.8684 20.137398 143.86034 20.184273 143.84422 20.230782zM143.91673 25.908516C 143.8684 26.115791 143.79918 26.330025 143.70836 26.550484C 143.6179 26.771309 143.50731 26.971626 143.37657 27.15107C 143.2462 27.33088 143.09422 27.479195 142.92137 27.596382C 142.74852 27.71357 142.5493 27.771797 142.32372 27.771797C 142.13475 27.771797 141.97289 27.73188 141.83812 27.65168C 141.70335 27.571846 141.59898 27.465645 141.52428 27.33271C 141.44994 27.200142 141.41258 27.0456 141.41258 26.869453C 141.40453 26.86213 141.4005 26.854073 141.4005 26.846016C 141.4005 26.678291 141.43675 26.506538 141.50926 26.33039L141.50926 26.33039L142.48668 23.746407C 142.61119 23.418648 142.67345 23.147285 142.67345 22.931953C 142.67345 22.717354 142.57896 22.610054 142.39 22.609688C 142.24132 22.610054 142.10838 22.652168 141.99193 22.73603C 141.87547 22.82026 141.76964 22.934517 141.67516 23.078804C 141.58067 23.223457 141.49608 23.391548 141.42174 23.58271C 141.3474 23.774239 141.28587 23.97712 141.23753 24.19172C 141.2053 24.270088 141.15111 24.311104 141.07457 24.314766L141.07457 24.314766L140.942 24.314766C 140.8856 24.315132 140.8574 24.285835 140.8574 24.226875L140.8574 24.226875L140.8574 24.19172C 140.90575 23.985176 140.97716 23.771309 141.07164 23.550484C 141.16612 23.330025 141.28001 23.129707 141.41258 22.949898C 141.54552 22.770454 141.6986 22.622871 141.87144 22.507515C 142.0443 22.392525 142.24132 22.334663 142.46251 22.334297C 142.65147 22.334663 142.81151 22.374947 142.94225 22.45478C 143.07298 22.53498 143.17369 22.64228 143.244 22.777046C 143.31432 22.911812 143.3535 23.063057 143.36156 23.230782L143.36156 23.230782L143.36156 23.271797C 143.36156 23.432198 143.32933 23.600288 143.26488 23.775703L143.26488 23.775703L142.28746 26.365547C 142.171 26.686348 142.11241 26.953682 142.11241 27.168282C 142.10435 27.176338 142.10033 27.184395 142.10033 27.19172C 142.10033 27.398994 142.197 27.502632 142.39 27.502266C 142.53905 27.502632 142.67271 27.458687 142.79137 27.370796C 142.91002 27.282906 143.01659 27.167915 143.11107 27.025093C 143.20555 26.882637 143.28831 26.714546 143.35863 26.521187C 143.42894 26.327827 143.4923 26.123848 143.54869 25.908516C 143.5648 25.83857 143.61497 25.803413 143.6992 25.803047L143.6992 25.803047L143.83214 25.803047C 143.86436 25.803413 143.89256 25.811104 143.91673 25.826485C 143.92479 25.842598 143.93102 25.857979 143.93468 25.87336C 143.93468 25.881416 143.92882 25.893135 143.91673 25.908516z" stroke="none" fill="#000000" fill-rule="nonzero" />
                        <path transform="matrix(1 0 0 1 64.23024 24.091055)"  d="M1.0305246 5.6703515C -3.1934752 3.1186934 -3.1934752 -3.1186934 1.0305246 -5.6703515L1.0305246 -5.6703515L1.6449246 -5.6703515C -2.1950753 -3.1186934 -2.1950753 3.1186934 1.6449246 5.6703515" stroke="none" fill="#000000" fill-rule="nonzero" />
                        <path transform="matrix(-1 0 0 -1 146.58083 24.091055)"  d="M1.0305246 5.6703515C -3.1934752 3.1186934 -3.1934752 -3.1186934 1.0305246 -5.6703515L1.0305246 -5.6703515L1.6449246 -5.6703515C -2.1950753 -3.1186934 -2.1950753 3.1186934 1.6449246 5.6703515" stroke="none" fill="#000000" fill-rule="nonzero" />
                        <path transform="matrix(1 0 0 1 158.58083 24.091055)"  d="M-4.2 0L4.2 0" stroke="#000000" stroke-width="0.48" stroke-linecap="round" fill="none" />
                        <path transform="matrix(1 0 0 1 0 0)"  d="M177.34056 26.306953C 177.35667 26.323067 177.36473 26.338448 177.36473 26.353828C 177.36473 26.377632 177.35265 26.405098 177.32848 26.43586C 177.015 26.86982 176.61656 27.200874 176.1339 27.42939C 175.65123 27.657906 175.16637 27.771797 174.67967 27.771797C 174.34203 27.771797 174.04832 27.697823 173.79893 27.549507C 173.54955 27.401192 173.35435 27.205635 173.21336 26.963203C 173.04857 26.69001 172.95372 26.391182 172.92955 26.06672C 172.92186 25.989082 172.91783 25.908882 172.91783 25.826485C 172.91783 25.580757 172.95006 25.324776 173.01414 25.058907C 173.1068 24.70771 173.25182 24.367867 173.44884 24.039742C 173.64586 23.711617 173.89342 23.410957 174.19078 23.137032C 174.46434 22.898994 174.765 22.706001 175.09276 22.55732C 175.42088 22.409004 175.74974 22.334663 176.07933 22.334297C 176.27672 22.334663 176.46202 22.365059 176.63487 22.425484C 176.80772 22.486275 176.95348 22.571968 177.07213 22.683296C 177.19078 22.794624 177.27647 22.92646 177.32848 23.078438C 177.34459 23.156807 177.35265 23.237007 177.35265 23.318672C 177.35265 23.40876 177.34056 23.504707 177.31639 23.605782C 177.27611 23.766182 177.19371 23.888496 177.0692 23.972359C 176.94469 24.056587 176.81981 24.098335 176.69493 24.09797C 176.57042 24.098335 176.46788 24.053291 176.38731 23.963203C 176.33092 23.909004 176.30272 23.836494 176.30272 23.746407C 176.30272 23.707588 176.31078 23.660713 176.32689 23.605782C 176.36717 23.446114 176.44664 23.327827 176.56529 23.251656C 176.68394 23.175484 176.8015 23.13337 176.91795 23.125313C 176.85387 22.965645 176.74144 22.839668 176.5803 22.74775C 176.41954 22.656197 176.22838 22.610054 176.00719 22.609688C 175.79405 22.610054 175.57762 22.673775 175.35826 22.800484C 175.13927 22.927559 174.947 23.092354 174.78221 23.295235C 174.56102 23.553413 174.3922 23.831734 174.27538 24.130562C 174.15892 24.42939 174.06004 24.738838 173.97948 25.058907C 173.89928 25.37165 173.83702 25.674507 173.79271 25.96711C 173.7766 26.065254 173.76854 26.156807 173.76854 26.2425C 173.76854 26.442085 173.80077 26.631416 173.86485 26.81086C 173.9293 27.018135 174.03807 27.185493 174.19078 27.312202C 174.34386 27.439278 174.5288 27.502632 174.74596 27.502266C 175.18468 27.502632 175.61095 27.391304 176.02513 27.168648C 176.43968 26.945992 176.78355 26.641304 177.05675 26.25422C 177.07286 26.223457 177.10509 26.20002 177.15343 26.183907L177.15343 26.183907L177.18968 26.183907C 177.21385 26.184273 177.234 26.191963 177.2501 26.207344L177.2501 26.207344L177.34056 26.306953z" stroke="none" fill="#000000" fill-rule="nonzero" />
                        <path transform="matrix(1 0 0 1 0 0)"  d="M182.92848 26.306953C 182.9446 26.323067 182.95265 26.338448 182.95265 26.353828C 182.95265 26.377632 182.94057 26.405098 182.9164 26.43586C 182.60292 26.86982 182.20448 27.200874 181.72182 27.42939C 181.23915 27.657906 180.75429 27.771797 180.2676 27.771797C 179.92189 27.771797 179.62819 27.685005 179.38686 27.511421C 179.14552 27.337837 178.95436 27.123604 178.81337 26.869453C 178.65663 26.565132 178.57387 26.229317 178.56581 25.86164C 178.55775 25.822823 178.55373 25.781807 178.55373 25.738594C 178.55373 25.410835 178.59804 25.07502 178.68666 24.730782C 178.76723 24.41877 178.90273 24.117012 179.09389 23.825874C 179.28505 23.535103 179.52565 23.273994 179.81496 23.043282C 180.08852 22.820992 180.38734 22.647408 180.71107 22.522163C 181.0348 22.397285 181.35378 22.334663 181.66725 22.334297C 181.85658 22.334663 182.03383 22.36689 182.19862 22.431343C 182.36342 22.495796 182.49928 22.583687 182.60585 22.695015C 182.71242 22.806343 182.78566 22.938179 182.82594 23.090157C 182.84206 23.160835 182.85011 23.237007 182.85011 23.318672C 182.85011 23.40876 182.83803 23.504707 182.81386 23.605782C 182.74135 23.910835 182.58974 24.149239 182.35829 24.320992C 182.12685 24.49311 181.85951 24.619087 181.55556 24.698921C 181.25197 24.779121 180.92934 24.827095 180.5873 24.842476C 180.24525 24.858223 179.92152 24.865913 179.61574 24.865547C 179.52345 25.201729 179.46083 25.526192 179.4286 25.838203C 179.41286 25.944038 179.4048 26.047676 179.4048 26.14875C 179.4048 26.348335 179.42897 26.539864 179.47694 26.72297C 179.5414 26.945992 179.6443 27.13166 179.78493 27.279976C 179.92555 27.428658 180.10866 27.502632 180.33388 27.502266C 180.7726 27.502632 181.19887 27.391304 181.61305 27.168648C 182.0276 26.945992 182.37148 26.641304 182.64467 26.25422C 182.66884 26.2154 182.70107 26.191963 182.74135 26.183907L182.74135 26.183907L182.76552 26.183907C 182.79774 26.184273 182.82191 26.191963 182.83803 26.207344L182.83803 26.207344L182.92848 26.306953zM182.36122 23.605782C 182.38539 23.50837 182.39748 23.420479 182.39748 23.34211C 182.39748 23.174385 182.3473 23.02607 182.2466 22.896797C 182.09792 22.705635 181.88075 22.610054 181.59511 22.609688C 181.38197 22.610054 181.16774 22.663887 180.95241 22.771187C 180.73708 22.878853 180.54701 23.024239 180.38222 23.207344C 180.19325 23.406929 180.04713 23.624825 179.9446 23.86103C 179.84206 24.097603 179.7527 24.344429 179.67616 24.601875C 179.99 24.602242 180.29689 24.590523 180.59645 24.567085C 180.89601 24.543648 181.16554 24.497871 181.40504 24.42939C 181.64455 24.361275 181.84853 24.260567 182.01735 24.127632C 182.18654 23.995064 182.30116 23.821114 182.36122 23.605782z" stroke="none" fill="#000000" fill-rule="nonzero" />
                        <path transform="matrix(1 0 0 1 0 0)"  d="M189.40341 25.908516C 189.34702 26.115791 189.27377 26.330025 189.18332 26.550484C 189.09286 26.771309 188.97934 26.971626 188.84238 27.15107C 188.70541 27.33088 188.5505 27.479195 188.37766 27.596382C 188.2048 27.71357 188.00742 27.771797 187.78622 27.771797C 187.59726 27.771797 187.4365 27.73188 187.30356 27.65168C 187.17099 27.571846 187.06735 27.465645 186.99301 27.33271C 186.91867 27.200142 186.88132 27.0456 186.88132 26.869453C 186.87326 26.86213 186.86923 26.85041 186.86923 26.834297C 186.86923 26.67463 186.90366 26.506538 186.97177 26.33039C 187.1047 25.986885 187.23032 25.64521 187.34897 25.305367C 187.46762 24.965523 187.57126 24.623848 187.65952 24.27961C 187.71591 24.04963 187.75839 23.824776 187.78622 23.605782C 187.79428 23.543526 187.79831 23.47541 187.79831 23.400703C 187.79831 23.264473 187.7822 23.137398 187.74997 23.019844C 187.66977 22.74665 187.49692 22.610054 187.23105 22.609688C 186.80478 22.610054 186.44077 22.753609 186.139 23.040718C 185.83725 23.327827 185.56992 23.711617 185.33664 24.19172L185.33664 24.19172L184.50974 27.385078C 184.47787 27.51435 184.41269 27.61103 184.31381 27.675117C 184.2153 27.73957 184.11569 27.771797 184.01498 27.771797C 183.91464 27.771797 183.83224 27.738838 183.76779 27.672188C 183.72751 27.63337 183.70737 27.576973 183.70737 27.502266C 183.70737 27.463448 183.7114 27.42463 183.71945 27.385078L183.71945 27.385078L185.53549 20.34211C 185.56772 20.21357 185.58786 20.11396 185.59592 20.043282L185.59592 20.043282L185.59592 20.019844C 185.59592 19.965645 185.5798 19.92463 185.54758 19.896797C 185.49155 19.857979 185.39304 19.83271 185.25204 19.820992C 185.11142 19.809273 184.95432 19.803413 184.78146 19.803047C 184.74118 19.803413 184.71298 19.791695 184.69687 19.76789C 184.68076 19.75251 184.6727 19.734932 184.6727 19.715157C 184.6727 19.699776 184.67673 19.684395 184.68478 19.668282L184.68478 19.668282L184.70895 19.574532C 184.73312 19.504585 184.79172 19.459541 184.884 19.439766L184.884 19.439766L186.45285 19.31086L186.47702 19.31086C 186.50925 19.311226 186.53342 19.318916 186.54916 19.334297C 186.56528 19.3581 186.57333 19.37751 186.57333 19.39289C 186.57333 19.409004 186.5693 19.424385 186.56125 19.439766L186.56125 19.439766L185.59592 23.183907C 185.81711 22.92646 186.0665 22.72065 186.34409 22.566109C 186.62167 22.411934 186.94174 22.334663 187.30356 22.334297C 187.5328 22.334663 187.74521 22.376778 187.94003 22.46064C 188.13522 22.544868 188.285 22.678535 188.38974 22.86164C 188.50656 23.053535 188.56479 23.268135 188.56479 23.506172L188.56479 23.506172L188.56479 23.53547C 188.55673 23.781929 188.52048 24.029854 188.45602 24.27961C 188.36374 24.631538 188.25607 24.979439 188.13339 25.322945C 188.01071 25.666817 187.8829 26.01435 187.74997 26.365547C 187.62546 26.678291 187.5632 26.941963 187.5632 27.156563C 187.5632 27.16462 187.56723 27.168648 187.57529 27.168282C 187.57529 27.391304 187.66977 27.502632 187.85873 27.502266C 188.00778 27.502632 188.13962 27.458687 188.25424 27.370796C 188.36887 27.282906 188.47433 27.167915 188.57101 27.025093C 188.6677 26.882637 188.75192 26.714546 188.82443 26.521187C 188.89694 26.327827 188.96323 26.123848 189.02328 25.908516C 189.0394 25.83857 189.08774 25.803413 189.16794 25.803047L189.16794 25.803047L189.30673 25.803047C 189.37119 25.803413 189.40341 25.82685 189.40341 25.87336L189.40341 25.87336L189.40341 25.908516z" stroke="none" fill="#000000" fill-rule="nonzero" />
                        <path transform="matrix(1 0 0 1 197.48383 24.091055)"  d="M-4.2 0L4.2 0" stroke="#000000" stroke-width="0.48" stroke-linecap="round" fill="none" />
                        <path transform="matrix(1 0 0 1 197.48383 24.091055)"  d="M0 -4.2L0 4.2" stroke="#000000" stroke-width="0.48" stroke-linecap="round" fill="none" />
                        <path transform="matrix(1 0 0 1 0 0)"  d="M208.96907 26.34211C 208.89656 26.600288 208.8603 26.824776 208.8603 27.015938C 208.8603 27.07087 208.86433 27.121773 208.87239 27.168282C 208.89656 27.391304 209.01118 27.502632 209.21626 27.502266C 209.31697 27.502632 209.40852 27.463814 209.49092 27.385445C 209.57368 27.307442 209.64693 27.196114 209.71138 27.05146C 209.77583 26.907173 209.83699 26.737984 209.89522 26.544624C 209.95381 26.351265 210.01314 26.139229 210.0732 25.908516C 210.08931 25.83857 210.13765 25.803413 210.21822 25.803047L210.21822 25.803047L210.35701 25.803047C 210.42146 25.803413 210.45332 25.82685 210.45332 25.87336L210.45332 25.87336L210.45332 25.908516C 210.40498 26.092354 210.35188 26.292671 210.29366 26.509468C 210.23543 26.726265 210.15706 26.926582 210.05818 27.110054C 209.95967 27.293892 209.83809 27.449898 209.69307 27.578804C 209.54842 27.70771 209.36934 27.771797 209.1562 27.771797C 208.86653 27.771797 208.63509 27.691963 208.46223 27.531929C 208.28938 27.371895 208.18282 27.166817 208.14253 26.916328C 207.95357 27.13935 207.72725 27.337837 207.46358 27.511421C 207.20027 27.685005 206.92378 27.771797 206.63374 27.771797C 206.32832 27.771797 206.07271 27.695992 205.86763 27.543648C 205.66255 27.391304 205.50179 27.197945 205.38496 26.963203C 205.24434 26.68232 205.16963 26.379463 205.16158 26.055L205.16158 26.055L205.16158 25.96711C 205.16158 25.662788 205.20406 25.359932 205.28828 25.058907C 205.38094 24.723457 205.51277 24.391304 205.68379 24.063179C 205.85481 23.735054 206.08113 23.430367 206.36238 23.14875C 206.59163 22.91877 206.8531 22.72541 207.1468 22.569038C 207.4405 22.413033 207.7364 22.334663 208.03377 22.334297C 208.28719 22.334663 208.49446 22.402046 208.65523 22.536812C 208.81636 22.671577 208.94087 22.836739 209.0295 23.031563L209.0295 23.031563L209.7231 20.34211C 209.75533 20.21357 209.77547 20.11396 209.78352 20.043282L209.78352 20.043282L209.78352 20.031563C 209.78352 19.977364 209.76338 19.93232 209.7231 19.896797C 209.67513 19.857979 209.58064 19.83271 209.43965 19.820992C 209.29903 19.809273 209.14192 19.803413 208.96907 19.803047C 208.89656 19.803413 208.8603 19.770088 208.8603 19.703438L208.8603 19.703438L208.8603 19.668282L208.89656 19.574532C 208.91267 19.504585 208.96724 19.459541 209.05952 19.439766L209.05952 19.439766L210.20613 19.346016L210.64046 19.31086L210.66463 19.31086C 210.69685 19.311226 210.72102 19.318916 210.73714 19.334297C 210.7452 19.3581 210.74886 19.381538 210.74886 19.40461L210.74886 19.40461L210.74886 19.439766zM208.84822 23.758125C 208.8321 23.680489 208.81819 23.603218 208.8061 23.527046C 208.79439 23.450874 208.77425 23.373604 208.74568 23.295235C 208.6816 23.104073 208.58528 22.942207 208.45638 22.809273C 208.32747 22.676704 208.1645 22.610054 207.96748 22.609688C 207.78658 22.610054 207.60933 22.673775 207.43648 22.800484C 207.26363 22.927559 207.10652 23.088692 206.9659 23.283516C 206.76888 23.557442 206.62093 23.841621 206.52242 24.136421C 206.4239 24.431587 206.33418 24.738838 206.25362 25.058907C 206.17342 25.37165 206.10713 25.674507 206.05476 25.96711C 206.02254 26.11982 206.00642 26.264473 206.00642 26.400703C 206.00642 26.545723 206.02254 26.686348 206.05476 26.822578C 206.09505 27.014473 206.16646 27.175606 206.269 27.306343C 206.37154 27.437447 206.51729 27.502632 206.70625 27.502266C 206.90364 27.502632 207.09993 27.43525 207.29475 27.300484C 207.48994 27.165718 207.66975 27.002754 207.83455 26.81086C 207.899 26.733223 207.96053 26.657051 208.01875 26.58271C 208.07735 26.508736 208.13045 26.428535 208.17842 26.34211L208.17842 26.34211L208.84822 23.758125z" stroke="none" fill="#000000" fill-rule="nonzero" />
                        <path transform="matrix(1 0 0 1 0 0)"  d="M215.59337 25.058907C 215.50108 25.395088 215.36815 25.727242 215.1953 26.055367C 215.02245 26.383492 214.79686 26.686348 214.51927 26.963203C 214.29002 27.193916 214.03075 27.386543 213.74107 27.540718C 213.45177 27.694893 213.15404 27.771797 212.84789 27.771797C 212.55858 27.771797 212.31505 27.693794 212.11803 27.537788C 211.921 27.381783 211.77013 27.186226 211.66539 26.951485C 211.54088 26.6706 211.47423 26.367744 211.46617 26.043282L211.46617 26.043282L211.46617 25.96711C 211.46617 25.662788 211.50645 25.359932 211.58702 25.058907L211.58702 25.058907L212.79991 20.34211C 212.83214 20.21357 212.85191 20.11396 212.85997 20.043282L212.85997 20.043282L212.85997 20.019844C 212.85997 19.965645 212.84422 19.92463 212.812 19.896797C 212.7556 19.857979 212.65709 19.83271 212.51646 19.820992C 212.37584 19.809273 212.21873 19.803413 212.04552 19.803047C 212.00523 19.803413 211.97704 19.791695 211.96092 19.76789C 211.94518 19.75251 211.93712 19.734932 211.93712 19.715157C 211.93712 19.699776 211.94115 19.684395 211.94884 19.668282L211.94884 19.668282L211.973 19.574532C 211.99718 19.504585 212.05357 19.459541 212.1422 19.439766L212.1422 19.439766L213.72899 19.31086L213.75316 19.31086C 213.78539 19.311226 213.80956 19.318916 213.82567 19.334297C 213.83372 19.35041 213.83775 19.36982 213.83775 19.39289C 213.83775 19.409004 213.83372 19.424385 213.82567 19.439766L213.82567 19.439766L212.89622 23.031563C 213.08556 22.8404 213.29576 22.676704 213.52684 22.539742C 213.75829 22.403145 213.99852 22.334663 214.24791 22.334297C 214.5537 22.334663 214.81114 22.413033 215.02025 22.569038C 215.22972 22.72541 215.39049 22.91877 215.50291 23.14875C 215.63585 23.430367 215.70616 23.735054 215.71422 24.062813L215.71422 24.062813L215.71422 24.144844C 215.71422 24.442207 215.67393 24.746895 215.59337 25.058907zM214.83934 23.283516C 214.79906 23.088692 214.72472 22.927559 214.61595 22.800484C 214.50755 22.673775 214.36253 22.610054 214.18163 22.609688C 213.97655 22.610054 213.77733 22.675606 213.58434 22.806343C 213.39134 22.937447 213.21227 23.10041 213.0471 23.295235C 212.92259 23.455635 212.812 23.610176 212.71532 23.758125L212.71532 23.758125L212.3773 25.058907C 212.2971 25.37165 212.23668 25.674507 212.1964 25.96711C 212.18028 26.088692 212.17223 26.20588 212.17223 26.318672C 212.17223 26.49482 212.19237 26.66291 212.23265 26.822578C 212.28099 27.014473 212.36046 27.175606 212.47105 27.306343C 212.58165 27.437447 212.73143 27.502632 212.9204 27.502266C 213.10167 27.502632 213.27965 27.437447 213.4547 27.306343C 213.62975 27.175606 213.78539 27.014473 213.92198 26.822578C 214.11937 26.557442 214.26842 26.275093 214.36876 25.976265C 214.4691 25.677437 214.55956 25.37165 214.64012 25.058907C 214.72069 24.738838 214.79137 24.430489 214.85143 24.133125C 214.8756 23.988838 214.88768 23.848213 214.88768 23.71125C 214.88768 23.566963 214.87157 23.424507 214.83934 23.283516z" stroke="none" fill="#000000" fill-rule="nonzero" />
                        <path transform="matrix(1 0 0 1 0 0)"  d="M220.3548 20.230782C 220.31085 20.367744 220.23138 20.482368 220.11676 20.573921C 220.00214 20.66584 219.87433 20.711617 219.73334 20.71125C 219.59271 20.711617 219.48615 20.664742 219.41364 20.570625C 219.3653 20.516426 219.34113 20.443916 219.34113 20.353828C 219.34113 20.31501 219.34515 20.273994 219.35321 20.230782C 219.3935 20.094551 219.47296 19.980293 219.59161 19.888374C 219.71027 19.796822 219.8399 19.750679 219.98053 19.750313C 220.12152 19.750679 220.22809 19.795723 220.3006 19.885078C 220.34088 19.948067 220.36285 20.024239 220.36688 20.113594C 220.36688 20.153145 220.36285 20.191963 220.3548 20.230782zM218.6955 28.29914C 218.63104 28.537544 218.52667 28.767159 218.38165 28.987617C 218.237 29.208443 218.06598 29.4029 217.86896 29.570625C 217.67194 29.738716 217.45367 29.870552 217.21417 29.966133C 216.97504 30.06208 216.7326 30.109688 216.48724 30.109688C 216.34662 30.109688 216.21185 30.091377 216.08295 30.054024C 215.9544 30.017036 215.84491 29.963203 215.75409 29.89289C 215.664 29.822578 215.59845 29.731026 215.5578 29.6175C 215.534 29.562935 215.52191 29.498482 215.52155 29.42414C 215.52191 29.377266 215.52997 29.32087 215.54572 29.25422C 215.58636 29.094185 215.67096 28.975166 215.7995 28.896797C 215.9284 28.818794 216.05292 28.77961 216.1734 28.77961C 216.29865 28.77961 216.40302 28.818794 216.48724 28.896797C 216.54364 28.951729 216.57147 29.023872 216.57147 29.113594C 216.57147 29.152779 216.56342 29.199654 216.5473 29.25422C 216.51508 29.375435 216.45575 29.473946 216.36932 29.550117C 216.28326 29.62629 216.19391 29.680122 216.10089 29.71125C 216.22614 29.78962 216.37445 29.830635 216.5473 29.834297C 216.7044 29.834297 216.85236 29.79255 216.99115 29.70832C 217.12994 29.624458 217.25958 29.512032 217.38007 29.371407C 217.50092 29.230782 217.60638 29.068916 217.69684 28.885078C 217.78766 28.701607 217.85687 28.506416 217.90521 28.29914L217.90521 28.29914L219.06976 23.758125C 219.13422 23.500679 219.16608 23.278023 219.16608 23.090157L219.16608 23.090157L219.16608 22.943672C 219.1419 22.721382 219.02728 22.610054 218.8222 22.609688C 218.65741 22.610054 218.5025 22.654 218.35748 22.74189C 218.21283 22.82978 218.07916 22.948067 217.95648 23.096382C 217.8338 23.245064 217.7221 23.414986 217.6214 23.606148C 217.52106 23.797676 217.4306 23.996895 217.35004 24.203438C 217.31781 24.274117 217.26764 24.311104 217.19916 24.314766L217.19916 24.314766L217.06622 24.314766C 217.0102 24.307442 216.98016 24.278145 216.97577 24.226875L216.97577 24.226875L216.97577 24.19172C 217.05634 23.97712 217.15924 23.75776 217.28375 23.532906C 217.40826 23.308418 217.55109 23.1081 217.71185 22.93232C 217.87299 22.756538 218.05096 22.612984 218.24615 22.501656C 218.44135 22.390327 218.65338 22.334663 218.88263 22.334297C 219.07965 22.334663 219.25067 22.37275 219.39532 22.448921C 219.54034 22.525093 219.65607 22.62873 219.7425 22.759468C 219.82892 22.890572 219.88422 23.03962 219.90839 23.207344L219.90839 23.207344L219.90839 23.365547C 219.90839 23.49482 219.89227 23.625557 219.86005 23.758125z" stroke="none" fill="#000000" fill-rule="nonzero" />
                        <path transform="matrix(1 0 0 1 228.48611 24.091055)"  d="M-4.2 0L4.2 0" stroke="#000000" stroke-width="0.48" stroke-linecap="round" fill="none" />
                        <path transform="matrix(1 0 0 1 228.48611 24.091055)"  d="M0 -4.2L0 4.2" stroke="#000000" stroke-width="0.48" stroke-linecap="round" fill="none" />
                        <path transform="matrix(1 0 0 1 0 0)"  d="M241.4569 25.908516C 241.40892 26.092354 241.35582 26.292671 241.29723 26.509468C 241.239 26.726265 241.16063 26.926582 241.06175 27.110054C 240.96324 27.293892 240.84166 27.449898 240.69664 27.578804C 240.55199 27.70771 240.37291 27.771797 240.15941 27.771797C 239.8701 27.771797 239.63866 27.691963 239.46544 27.531929C 239.29259 27.371895 239.18602 27.166817 239.14574 26.916328C 238.95677 27.13935 238.73045 27.337837 238.46678 27.511421C 238.20311 27.685005 237.92662 27.771797 237.63695 27.771797C 237.33116 27.771797 237.07555 27.695992 236.87047 27.543648C 236.66539 27.391304 236.50426 27.197945 236.38744 26.963203C 236.24681 26.68232 236.17247 26.379463 236.16441 26.055L236.16441 26.055L236.16441 25.96711C 236.16441 25.662788 236.2069 25.359932 236.29112 25.058907C 236.38377 24.723457 236.51561 24.391304 236.68626 24.063179C 236.85728 23.735054 237.0836 23.430367 237.36522 23.14875C 237.59447 22.91877 237.85594 22.72541 238.14964 22.569038C 238.44334 22.413033 238.73924 22.334663 239.03697 22.334297C 239.29039 22.334663 239.49767 22.402046 239.6588 22.536812C 239.81993 22.671577 239.94444 22.836739 240.0327 23.031563L240.0327 23.031563L240.05101 22.95539C 240.07518 22.82685 240.1345 22.729439 240.22899 22.662788C 240.32347 22.596504 240.41905 22.563179 240.51573 22.562813C 240.6245 22.563179 240.71495 22.594307 240.7871 22.656563C 240.82738 22.703804 240.84972 22.768257 240.85338 22.849922C 240.85338 22.881416 240.84972 22.916573 240.84166 22.95539L240.84166 22.95539L239.97227 26.34211C 239.93236 26.50251 239.90416 26.654854 239.88805 26.79914C 239.87999 26.86982 239.87596 26.936104 239.87596 26.99836C 239.87596 27.053291 239.87999 27.110054 239.88805 27.168282C 239.90416 27.274117 239.93968 27.356148 239.99388 27.414742C 240.04808 27.473335 240.12352 27.502632 240.21983 27.502266C 240.32054 27.502632 240.4121 27.463814 240.49449 27.385445C 240.57726 27.307442 240.6505 27.196114 240.71495 27.05146C 240.7794 26.907173 240.84056 26.737984 240.89879 26.544624C 240.95738 26.351265 241.01671 26.139229 241.07677 25.908516C 241.09288 25.83857 241.14122 25.803413 241.22179 25.803047L241.22179 25.803047L241.36058 25.803047C 241.42503 25.803413 241.4569 25.82685 241.4569 25.87336L241.4569 25.87336L241.4569 25.908516zM239.85179 23.758125C 239.83568 23.680489 239.82176 23.603218 239.80968 23.527046C 239.79759 23.450874 239.77745 23.373604 239.74925 23.295235C 239.6848 23.104073 239.58849 22.942207 239.45958 22.809273C 239.33067 22.676704 239.16771 22.610054 238.97069 22.609688C 238.78978 22.610054 238.61253 22.673775 238.43968 22.800484C 238.26683 22.927559 238.10973 23.088692 237.96873 23.283516C 237.77171 23.557442 237.62413 23.841621 237.52525 24.136421C 237.42674 24.431587 237.33702 24.738838 237.25645 25.058907C 237.17625 25.37165 237.10997 25.674507 237.0576 25.96711C 237.02538 26.11982 237.00926 26.264473 237.00926 26.400703C 237.00926 26.545723 237.02538 26.686348 237.0576 26.822578C 237.09789 27.014473 237.1693 27.175606 237.27184 27.306343C 237.37437 27.437447 237.52013 27.502632 237.70909 27.502266C 237.90648 27.502632 238.10277 27.43525 238.29759 27.300484C 238.49278 27.165718 238.67296 27.002754 238.83775 26.81086C 238.9022 26.733223 238.96373 26.657051 239.02196 26.58271C 239.08055 26.508736 239.13365 26.428535 239.18199 26.34211L239.18199 26.34211L239.85179 23.758125z" stroke="none" fill="#000000" fill-rule="nonzero" />
                        <path transform="matrix(1 0 0 1 0 0)"  d="M245.15128 20.230782C 245.11905 20.367744 245.04361 20.482368 244.92496 20.573921C 244.8063 20.66584 244.67667 20.711617 244.53568 20.71125C 244.39505 20.711617 244.28848 20.664742 244.21597 20.570625C 244.16763 20.516426 244.14163 20.451973 244.1376 20.377266C 244.1376 20.330757 244.14566 20.282051 244.16177 20.230782C 244.194 20.094551 244.27054 19.980293 244.39102 19.888374C 244.51187 19.796822 244.64261 19.750679 244.78323 19.750313C 244.92422 19.750679 245.03079 19.795723 245.10294 19.885078C 245.15128 19.948067 245.17545 20.016182 245.17545 20.090157C 245.17545 20.137398 245.16739 20.184273 245.15128 20.230782zM245.22379 25.908516C 245.17545 26.115791 245.10623 26.330025 245.01541 26.550484C 244.92496 26.771309 244.81436 26.971626 244.68362 27.15107C 244.55325 27.33088 244.40128 27.479195 244.22842 27.596382C 244.05557 27.71357 243.85635 27.771797 243.63077 27.771797C 243.4418 27.771797 243.27994 27.73188 243.14517 27.65168C 243.0104 27.571846 242.90604 27.465645 242.83133 27.33271C 242.75699 27.200142 242.71964 27.0456 242.71964 26.869453C 242.71158 26.86213 242.70755 26.854073 242.70755 26.846016C 242.70755 26.678291 242.7438 26.506538 242.81631 26.33039L242.81631 26.33039L243.79373 23.746407C 243.91824 23.418648 243.9805 23.147285 243.9805 22.931953C 243.9805 22.717354 243.88602 22.610054 243.69705 22.609688C 243.54837 22.610054 243.41544 22.652168 243.29898 22.73603C 243.18253 22.82026 243.07669 22.934517 242.98221 23.078804C 242.88773 23.223457 242.80313 23.391548 242.72879 23.58271C 242.65445 23.774239 242.59293 23.97712 242.54459 24.19172C 242.51236 24.270088 242.45816 24.311104 242.38162 24.314766L242.38162 24.314766L242.24905 24.314766C 242.19266 24.315132 242.16446 24.285835 242.16446 24.226875L242.16446 24.226875L242.16446 24.19172C 242.2128 23.985176 242.28421 23.771309 242.3787 23.550484C 242.47318 23.330025 242.58707 23.129707 242.71964 22.949898C 242.85257 22.770454 243.00565 22.622871 243.1785 22.507515C 243.35135 22.392525 243.54837 22.334663 243.76956 22.334297C 243.95853 22.334663 244.11856 22.374947 244.2493 22.45478C 244.38004 22.53498 244.48074 22.64228 244.55106 22.777046C 244.62137 22.911812 244.66055 23.063057 244.66861 23.230782L244.66861 23.230782L244.66861 23.271797C 244.66861 23.432198 244.63638 23.600288 244.57193 23.775703L244.57193 23.775703L243.59451 26.365547C 243.47806 26.686348 243.41946 26.953682 243.41946 27.168282C 243.4114 27.176338 243.40738 27.184395 243.40738 27.19172C 243.40738 27.398994 243.50406 27.502632 243.69705 27.502266C 243.8461 27.502632 243.97977 27.458687 244.09842 27.370796C 244.21707 27.282906 244.32364 27.167915 244.41812 27.025093C 244.5126 26.882637 244.59537 26.714546 244.66568 26.521187C 244.736 26.327827 244.79935 26.123848 244.85574 25.908516C 244.87186 25.83857 244.92203 25.803413 245.00626 25.803047L245.00626 25.803047L245.13919 25.803047C 245.17142 25.803413 245.19962 25.811104 245.22379 25.826485C 245.23184 25.842598 245.23807 25.857979 245.24173 25.87336C 245.24173 25.881416 245.23587 25.893135 245.22379 25.908516z" stroke="none" fill="#000000" fill-rule="nonzero" />
                        <path transform="matrix(1 0 0 1 0 0)"  d="M251.26155 20.137032C 251.22127 20.297432 251.13887 20.419746 251.01436 20.503609C 250.88985 20.587837 250.7668 20.629585 250.64595 20.62922C 250.52144 20.629585 250.4189 20.584541 250.33833 20.494453C 250.28194 20.440254 250.2519 20.369942 250.24788 20.283516C 250.24788 20.244698 250.25594 20.195992 250.27205 20.137032C 250.31233 20.000801 250.38081 19.892403 250.4775 19.812202C 250.57417 19.732368 250.67854 19.684395 250.79097 19.668282C 250.6584 19.516304 250.46907 19.440132 250.22371 19.439766C 250.06697 19.440132 249.92195 19.56501 249.78938 19.814766C 249.76521 19.854317 249.73701 19.937447 249.70479 20.064156C 249.67256 20.19123 249.6374 20.343575 249.59932 20.521187C 249.56123 20.699165 249.52205 20.887398 249.48177 21.086617C 249.44148 21.285835 249.40523 21.477364 249.373 21.66047L249.373 21.66047L249.21004 22.474922L250.38667 22.474922C 250.45113 22.475288 250.48335 22.508614 250.48335 22.574532L250.48335 22.574532L250.48335 22.609688L250.45918 22.703438C 250.42696 22.793526 250.36873 22.83857 250.28413 22.838203L250.28413 22.838203L249.13753 22.838203L248.54646 25.803047C 248.49007 26.076973 248.43001 26.368843 248.36555 26.67939C 248.3011 26.989937 248.23079 27.297554 248.15425 27.602242C 248.07808 27.906929 247.99165 28.19477 247.89497 28.466133C 247.7983 28.737862 247.69356 28.97297 247.58076 29.172188C 247.51668 29.285713 247.44234 29.397774 247.35774 29.509102C 247.27351 29.62043 247.17976 29.72004 247.07722 29.80793C 246.97469 29.89582 246.86592 29.96833 246.7513 30.024727C 246.63667 30.08149 246.5129 30.109688 246.37996 30.109688C 246.23164 30.109688 246.09212 30.085518 245.96101 30.036446C 245.83064 29.98774 245.72005 29.921455 245.62923 29.837227C 245.53877 29.753365 245.47139 29.652657 245.42671 29.53547C 245.41096 29.473213 245.40291 29.40876 245.40254 29.34211C 245.40291 29.279854 245.41096 29.211372 245.42671 29.137032C 245.46736 28.976997 245.55196 28.85688 245.6805 28.77668C 245.8094 28.696846 245.93575 28.656563 246.06026 28.656563C 246.1855 28.656563 246.28804 28.697578 246.36824 28.77961C 246.42464 28.834541 246.45247 28.904854 246.45247 28.990547C 246.45247 29.029732 246.44441 29.078438 246.4283 29.137032C 246.38838 29.273994 246.31953 29.384224 246.22066 29.468086C 246.12215 29.552315 246.01448 29.60212 245.8973 29.6175C 246.0306 29.762154 246.2115 29.834297 246.44038 29.834297C 246.56526 29.834297 246.67696 29.769844 246.77547 29.640938C 246.87398 29.512032 246.95345 29.344307 247.01387 29.137032C 247.1545 28.656563 247.2823 28.126656 247.39693 27.546577C 247.51155 26.9665 247.62508 26.40107 247.73787 25.849922L247.73787 25.849922L248.34724 22.838203L247.36983 22.838203C 247.32954 22.83857 247.30135 22.82685 247.28523 22.803047C 247.26912 22.787666 247.26106 22.770088 247.26106 22.750313C 247.26106 22.734932 247.26509 22.719551 247.27315 22.703438L247.27315 22.703438L247.29732 22.609688C 247.30537 22.57087 247.32552 22.53901 247.35774 22.513374C 247.38997 22.488106 247.4222 22.475288 247.45406 22.474922L247.45406 22.474922L248.41975 22.474922L248.57027 21.695625C 248.59444 21.543648 248.62666 21.375923 248.66695 21.192085C 248.70723 21.008614 248.75484 20.826973 248.80904 20.647163C 248.86324 20.46772 248.92549 20.2956 248.9958 20.131538C 249.06612 19.967476 249.14961 19.828682 249.24629 19.715157C 249.38728 19.555489 249.54805 19.423653 249.72896 19.320015C 249.90987 19.216743 250.0992 19.164742 250.29622 19.164375C 250.4449 19.164742 250.58772 19.187447 250.72469 19.232124C 250.86165 19.277168 250.97517 19.341621 251.06563 19.425484C 251.15608 19.509712 251.22127 19.610054 251.26155 19.726875C 251.28572 19.781807 251.2978 19.84626 251.2978 19.920235C 251.2978 19.983223 251.28572 20.055367 251.26155 20.137032z" stroke="none" fill="#000000" fill-rule="nonzero" />
                        <path transform="matrix(1 0 0 1 170.58083 24.091055)"  d="M1.0305246 5.6703515C -3.1934752 3.1186934 -3.1934752 -3.1186934 1.0305246 -5.6703515L1.0305246 -5.6703515L1.6449246 -5.6703515C -2.1950753 -3.1186934 -2.1950753 3.1186934 1.6449246 5.6703515" stroke="none" fill="#000000" fill-rule="nonzero" />
                        <path transform="matrix(-1 0 0 -1 252.30188 24.091055)"  d="M1.0305246 5.6703515C -3.1934752 3.1186934 -3.1934752 -3.1186934 1.0305246 -5.6703515L1.0305246 -5.6703515L1.6449246 -5.6703515C -2.1950753 -3.1186934 -2.1950753 3.1186934 1.6449246 5.6703515" stroke="none" fill="#000000" fill-rule="nonzero" />
					</g>
				</g>
			</g>
		</g>
	</g>
</g>
</svg>