<svg id="图层_1" data-name="图层 1" xmlns="http://www.w3.org/2000/svg" xmlns:xlink="http://www.w3.org/1999/xlink" viewBox="0 0 196 117.25"><defs><style>.cls-1,.cls-10,.cls-11,.cls-12,.cls-4,.cls-9{fill:none;}.cls-2{clip-path:url(#clip-path);}.cls-3{fill:#fff;}.cls-4{stroke:#4472c4;stroke-width:5px;opacity:0.2;}.cls-10,.cls-11,.cls-12,.cls-4,.cls-9{stroke-miterlimit:10;}.cls-5{clip-path:url(#clip-path-3);}.cls-6{clip-path:url(#clip-path-4);}.cls-7,.cls-8{fill-rule:evenodd;}.cls-8{fill:#f0f;}.cls-9{stroke:#f0f;}.cls-10,.cls-11,.cls-12,.cls-9{stroke-linecap:round;}.cls-12,.cls-9{stroke-width:0.2px;}.cls-10,.cls-11,.cls-12{stroke:#000;}.cls-10{stroke-width:0.43px;}.cls-11{stroke-width:0.36px;}</style><clipPath id="clip-path"><rect class="cls-1" x="-384" y="-211.08" width="960" height="540"/></clipPath><clipPath id="clip-path-3"><rect class="cls-1" width="192" height="117.84"/></clipPath><clipPath id="clip-path-4"><rect class="cls-1" y="-0.01" width="192" height="117.85"/></clipPath></defs><g class="cls-2"><g class="cls-2"><rect class="cls-3" x="-384" y="-211.08" width="960" height="540"/></g><line class="cls-4" x1="91.08" y1="12.48" x2="16.08" y2="55.98"/><g class="cls-5"><g class="cls-6"><path class="cls-7" d="M83.11,13.6l0-.17a.85.85,0,0,0,0-.17.91.91,0,0,0-.22-.37.5.5,0,0,0-.37-.15.69.69,0,0,0-.39.14,1.81,1.81,0,0,0-.36.37,2.17,2.17,0,0,0-.33.64c-.07.22-.14.45-.2.69s-.11.47-.15.69a1.87,1.87,0,0,0,0,.32,1.65,1.65,0,0,0,0,.32.75.75,0,0,0,.16.36.4.4,0,0,0,.33.15.78.78,0,0,0,.44-.15,1.74,1.74,0,0,0,.4-.37,2.09,2.09,0,0,0,.14-.17.57.57,0,0,0,.12-.18Zm1.21,1.63q-.06.19-.12.45a1.77,1.77,0,0,1-.18.45,1.31,1.31,0,0,1-.27.35.56.56,0,0,1-.4.14.71.71,0,0,1-.52-.18.76.76,0,0,1-.24-.46,2.74,2.74,0,0,1-.51.45,1.13,1.13,0,0,1-.63.19.88.88,0,0,1-.57-.17,1.15,1.15,0,0,1-.36-.43,1.59,1.59,0,0,1-.17-.68v-.07a2.72,2.72,0,0,1,.09-.69,3.91,3.91,0,0,1,.3-.75,3,3,0,0,1,.51-.68,2.33,2.33,0,0,1,.59-.44,1.35,1.35,0,0,1,.66-.17.72.72,0,0,1,.47.15,1,1,0,0,1,.28.37V13a.34.34,0,0,1,.14-.22.35.35,0,0,1,.21-.07.31.31,0,0,1,.21.07.26.26,0,0,1,.05.14s0,.05,0,.08l-.65,2.55a2.58,2.58,0,0,0-.07.34c0,.06,0,.11,0,.15s0,.09,0,.13a.37.37,0,0,0,.08.19.24.24,0,0,0,.17.06.29.29,0,0,0,.21-.09.83.83,0,0,0,.16-.25,2.35,2.35,0,0,0,.14-.38c0-.14.09-.3.13-.47a.1.1,0,0,1,.11-.08h.11s.07,0,.07,0Z"/><path class="cls-7" d="M85.69,17.44a.12.12,0,0,0,0,.08s0,.06,0,.07a.88.88,0,0,0,.23,0h.32s.06,0,.06,0v.07a.11.11,0,0,1-.09.05H84.53s0,0,0,0h0v0a.08.08,0,0,1,.09-.06h.33a1,1,0,0,0,.24,0s.09-.06.12-.15L86,14.88a1.26,1.26,0,0,1-.35.17,1.21,1.21,0,0,1-.38.06h0a0,0,0,0,1,0,0V15s0-.07.08-.06a1.18,1.18,0,0,0,.62-.19,2.85,2.85,0,0,0,.51-.47l.06,0h0l0,0v0s0,0,0,0Z"/><path class="cls-7" d="M88.09,17.79a1.6,1.6,0,0,1-.28.53,1.81,1.81,0,0,1-.47.44h-.09s0,0,0,0,0,0,0-.05a1.73,1.73,0,0,0,.44-.41,1.38,1.38,0,0,0,.25-.48l0-.08a.24.24,0,0,1-.11.06l-.15,0a.2.2,0,0,1-.2-.09.15.15,0,0,1,0-.11s0-.05,0-.07a.32.32,0,0,1,.13-.18.37.37,0,0,1,.26-.09.25.25,0,0,1,.16,0,.24.24,0,0,1,.07.13.36.36,0,0,1,0,.11v.06A1.16,1.16,0,0,1,88.09,17.79Z"/><path class="cls-8" d="M92.65,17.07c0,.09-.07.18-.11.27a.82.82,0,0,1-.16.25.79.79,0,0,1-.22.19.51.51,0,0,1-.28.07.46.46,0,0,1-.23-.05.29.29,0,0,1-.14-.13.6.6,0,0,1-.06-.19v0a.54.54,0,0,1,0-.21l.18-.43.15-.43c0-.1,0-.19,0-.28a.28.28,0,0,0,0-.09.78.78,0,0,0,0-.16.23.23,0,0,0-.25-.17.76.76,0,0,0-.51.18,1.72,1.72,0,0,0-.38.48l-.39,1.34a.16.16,0,0,1-.09.12.25.25,0,0,1-.14,0,.14.14,0,0,1-.11,0,.09.09,0,0,1,0-.07.11.11,0,0,1,0,0l.43-1.52a1.11,1.11,0,0,0,0-.28v-.06a.14.14,0,0,0-.16-.14c-.1,0-.18.06-.24.19a3.61,3.61,0,0,0-.16.47.09.09,0,0,1-.08,0h-.06s0,0,0,0v0c0-.07,0-.15.07-.24a2,2,0,0,1,.11-.26.67.67,0,0,1,.17-.2.45.45,0,0,1,.26-.08.47.47,0,0,1,.34.12.39.39,0,0,1,.14.29,1.52,1.52,0,0,1,.37-.3,1.06,1.06,0,0,1,.48-.11.94.94,0,0,1,.3,0,.51.51,0,0,1,.21.17.5.5,0,0,1,.08.27v0a1.18,1.18,0,0,1,0,.31,3.81,3.81,0,0,1-.15.44c-.06.14-.11.29-.18.43a.9.9,0,0,0-.09.35c0,.09,0,.13.14.13a.41.41,0,0,0,.19,0,.54.54,0,0,0,.15-.15,1.05,1.05,0,0,0,.12-.21l.09-.26a.05.05,0,0,1,.06,0h.08s0,0,0,0Z"/><path class="cls-7" d="M54.65,26.18l0-.17a1.16,1.16,0,0,0,0-.18,1,1,0,0,0-.22-.36.5.5,0,0,0-.37-.15.67.67,0,0,0-.39.14,1.81,1.81,0,0,0-.36.37,2.05,2.05,0,0,0-.33.64c-.07.22-.14.45-.2.69s-.11.46-.15.68a1.22,1.22,0,0,0,0,.32,1.12,1.12,0,0,0,0,.32.83.83,0,0,0,.16.37.42.42,0,0,0,.33.14.78.78,0,0,0,.44-.15,1.74,1.74,0,0,0,.4-.37A2.09,2.09,0,0,0,54,28.3a.57.57,0,0,0,.12-.18Zm1.21,1.62q-.06.19-.12.45a2.23,2.23,0,0,1-.18.45,1.17,1.17,0,0,1-.27.35.56.56,0,0,1-.4.14.76.76,0,0,1-.53-.18.82.82,0,0,1-.24-.46,2.4,2.4,0,0,1-.5.45,1.13,1.13,0,0,1-.63.19.88.88,0,0,1-.57-.17,1.07,1.07,0,0,1-.36-.43,1.46,1.46,0,0,1-.17-.68v-.07a2.59,2.59,0,0,1,.09-.68,3.91,3.91,0,0,1,.3-.75,3,3,0,0,1,.51-.69,2.56,2.56,0,0,1,.59-.43,1.37,1.37,0,0,1,.66-.18.72.72,0,0,1,.47.15,1.17,1.17,0,0,1,.28.38v-.06a.34.34,0,0,1,.14-.22.37.37,0,0,1,.21-.08.38.38,0,0,1,.21.07.33.33,0,0,1,0,.15s0,.05,0,.08l-.66,2.54a2.45,2.45,0,0,0-.06.34c0,.06,0,.11,0,.15s0,.09,0,.13a.37.37,0,0,0,.08.19.24.24,0,0,0,.17.06.3.3,0,0,0,.21-.09.72.72,0,0,0,.16-.25,2,2,0,0,0,.14-.38c0-.14.09-.3.13-.47a.1.1,0,0,1,.11-.08h.11s.07,0,.07.05Z"/><path class="cls-7" d="M58.85,28a1,1,0,0,1-.22.37,2.47,2.47,0,0,1-.38.32,5.11,5.11,0,0,1-.46.28l-.47.23a2.89,2.89,0,0,0-.5.33,1.86,1.86,0,0,0-.37.42.32.32,0,0,1,.14,0,1.55,1.55,0,0,1,.31,0l.29.05.3.05a1.39,1.39,0,0,0,.3,0,.68.68,0,0,0,.23-.05.66.66,0,0,0,.2-.14.82.82,0,0,0,.17-.2.67.67,0,0,0,.1-.23.08.08,0,0,1,.08-.05h.11v0a1.7,1.7,0,0,1-.14.35,1.77,1.77,0,0,1-.21.32,1.05,1.05,0,0,1-.3.22.68.68,0,0,1-.35.09.83.83,0,0,1-.32-.06,2,2,0,0,1-.25-.14l-.25-.14a.73.73,0,0,0-.3-.06.24.24,0,0,0-.19.1.64.64,0,0,0-.13.26s0,0-.08,0h-.1s0,0,0,0h0a1.9,1.9,0,0,1,.43-.75,2.44,2.44,0,0,1,.76-.58,3,3,0,0,0,.72-.46,1.4,1.4,0,0,0,.42-.61,2.12,2.12,0,0,0,.08-.41v-.08a.71.71,0,0,0-.05-.29.5.5,0,0,0-.19-.22.47.47,0,0,0-.29-.08.9.9,0,0,0-.4.09,1.59,1.59,0,0,0-.33.25,1.83,1.83,0,0,0-.26.36,2.53,2.53,0,0,0-.18.42.88.88,0,0,0,0,.21.17.17,0,0,0,0,.07.12.12,0,0,0,.13.11.41.41,0,0,0,.19,0,.7.7,0,0,0,.16-.14.91.91,0,0,0,.13-.19,1.33,1.33,0,0,0,.1-.24.22.22,0,0,0,0-.08.15.15,0,0,0,0-.07.35.35,0,0,0-.06-.14s0,0,0,0a.05.05,0,0,1,0-.05h0l0,0,0,0a.35.35,0,0,1,.09.23.32.32,0,0,1,0,.14.85.85,0,0,1-.11.26,1,1,0,0,1-.15.24.68.68,0,0,1-.21.17.68.68,0,0,1-.27.07.32.32,0,0,1-.18-.05.27.27,0,0,1-.09-.12.32.32,0,0,1,0-.14s0,0,0,0a.55.55,0,0,1,0-.18,2.22,2.22,0,0,1,.2-.45,1.72,1.72,0,0,1,.31-.4,1.41,1.41,0,0,1,.4-.29,1.13,1.13,0,0,1,.48-.11,1.06,1.06,0,0,1,.45.1.82.82,0,0,1,.32.26.83.83,0,0,1,.16.39.62.62,0,0,1,0,.13A1.26,1.26,0,0,1,58.85,28Z"/><path class="cls-7" d="M59.83,30.36a1.48,1.48,0,0,1-.27.53,2.07,2.07,0,0,1-.48.45H59l0,0a.05.05,0,0,1,0,0,1.93,1.93,0,0,0,.44-.41,1.55,1.55,0,0,0,.26-.49v-.08a.3.3,0,0,1-.11.07l-.15,0a.2.2,0,0,1-.2-.09.15.15,0,0,1,0-.11s0,0,0-.07a.38.38,0,0,1,.13-.18.37.37,0,0,1,.26-.08.21.21,0,0,1,.16.05.2.2,0,0,1,.08.12s0,.07,0,.11v.06A1.16,1.16,0,0,1,59.83,30.36Z"/><path class="cls-8" d="M64.39,29.64c0,.09-.07.18-.11.27a.87.87,0,0,1-.16.26,1,1,0,0,1-.22.18.51.51,0,0,1-.28.08.59.59,0,0,1-.23-.05.38.38,0,0,1-.14-.14.53.53,0,0,1-.06-.19v0a.54.54,0,0,1,.05-.21l.18-.43.15-.43c0-.1,0-.19,0-.28a.28.28,0,0,0,0-.09.78.78,0,0,0,0-.16.23.23,0,0,0-.25-.17.76.76,0,0,0-.51.18,1.72,1.72,0,0,0-.38.48l-.39,1.34a.18.18,0,0,1-.09.13.37.37,0,0,1-.14,0,.18.18,0,0,1-.11,0,.1.1,0,0,1,0-.08.11.11,0,0,1,0,0l.43-1.52a1.11,1.11,0,0,0,.05-.28V28.4a.14.14,0,0,0-.16-.14c-.1,0-.18.06-.24.19a3.61,3.61,0,0,0-.16.47.07.07,0,0,1-.08,0H61.5s0,0,0,0v0c0-.07,0-.15.07-.24a2,2,0,0,1,.11-.26.67.67,0,0,1,.17-.2.45.45,0,0,1,.26-.08.47.47,0,0,1,.34.12.39.39,0,0,1,.14.29,1.52,1.52,0,0,1,.37-.3,1.06,1.06,0,0,1,.48-.11.94.94,0,0,1,.3.05.51.51,0,0,1,.21.17.5.5,0,0,1,.08.27v0a1.18,1.18,0,0,1-.05.31,3.81,3.81,0,0,1-.15.44c-.06.14-.11.29-.18.44a.82.82,0,0,0-.09.34c0,.09,0,.13.14.13a.32.32,0,0,0,.19,0,.54.54,0,0,0,.15-.15,1.05,1.05,0,0,0,.12-.21l.09-.26a.05.05,0,0,1,.06,0h.08s0,0,0,0Z"/><line class="cls-9" x1="65.86" y1="28.88" x2="69.39" y2="28.88"/><path class="cls-8" d="M71.94,30s0,.06,0,.08a.07.07,0,0,0,0,.07.88.88,0,0,0,.23,0h.32s.06,0,.06,0,0,0,0,0v0a.1.1,0,0,1-.09.06l-.84,0-.84,0a0,0,0,0,1-.05,0v-.07a.08.08,0,0,1,.09-.06h.33l.24,0s.09-.06.11-.15l.74-2.56a1.26,1.26,0,0,1-.35.17,1.21,1.21,0,0,1-.38.06h0a0,0,0,0,1,0,0v0l0,0s0-.07.08-.06a1.15,1.15,0,0,0,.61-.19,2,2,0,0,0,.51-.46l.07,0h0l0,0v0Z"/><path class="cls-7" d="M83,26.18,83,26a1.16,1.16,0,0,0,0-.18,1,1,0,0,0-.22-.36.5.5,0,0,0-.37-.15.72.72,0,0,0-.4.14,1.78,1.78,0,0,0-.35.37,2.05,2.05,0,0,0-.33.64,7,7,0,0,0-.2.69c-.06.23-.11.46-.15.68a1.22,1.22,0,0,0,0,.32,1.12,1.12,0,0,0,0,.32.83.83,0,0,0,.16.37.41.41,0,0,0,.33.14.8.8,0,0,0,.44-.15,2,2,0,0,0,.4-.37,2.09,2.09,0,0,0,.14-.17.81.81,0,0,0,.12-.18Zm1.21,1.62q-.06.19-.12.45a2.23,2.23,0,0,1-.18.45,1.17,1.17,0,0,1-.27.35.59.59,0,0,1-.41.14.75.75,0,0,1-.52-.18.76.76,0,0,1-.24-.46A2.22,2.22,0,0,1,82,29a1.08,1.08,0,0,1-.62.19.88.88,0,0,1-.57-.17,1.07,1.07,0,0,1-.36-.43,1.46,1.46,0,0,1-.17-.68v-.07a2.59,2.59,0,0,1,.09-.68,3.91,3.91,0,0,1,.3-.75,3,3,0,0,1,.51-.69,2.56,2.56,0,0,1,.59-.43,1.37,1.37,0,0,1,.66-.18.72.72,0,0,1,.47.15,1.17,1.17,0,0,1,.28.38v-.06a.34.34,0,0,1,.14-.22.37.37,0,0,1,.21-.08.32.32,0,0,1,.2.07.2.2,0,0,1,.05.15v.08l-.66,2.54a2.45,2.45,0,0,0-.06.34.86.86,0,0,0,0,.15.53.53,0,0,0,0,.13.37.37,0,0,0,.08.19.24.24,0,0,0,.17.06.3.3,0,0,0,.21-.09.72.72,0,0,0,.16-.25,2,2,0,0,0,.14-.38c0-.14.09-.3.13-.47s0-.08.11-.08h.11s.07,0,.07.05Z"/><path class="cls-7" d="M87.21,28a1,1,0,0,1-.22.37,2.47,2.47,0,0,1-.38.32,5.11,5.11,0,0,1-.46.28l-.47.23a2.55,2.55,0,0,0-.5.33,1.86,1.86,0,0,0-.37.42A.29.29,0,0,1,85,30a1.55,1.55,0,0,1,.31,0l.29.05.29.05a1.55,1.55,0,0,0,.31,0,.59.59,0,0,0,.22-.05.6.6,0,0,0,.21-.14.82.82,0,0,0,.17-.2.67.67,0,0,0,.1-.23.08.08,0,0,1,.08-.05H87v0a1.7,1.7,0,0,1-.14.35,1.4,1.4,0,0,1-.22.32.89.89,0,0,1-.29.22.68.68,0,0,1-.35.09.83.83,0,0,1-.32-.06l-.26-.14-.25-.14a.65.65,0,0,0-.29-.06.24.24,0,0,0-.19.1.64.64,0,0,0-.13.26s0,0-.08,0h-.1s0,0,0,0h0a1.9,1.9,0,0,1,.43-.75,2.44,2.44,0,0,1,.76-.58,3,3,0,0,0,.72-.46,1.4,1.4,0,0,0,.42-.61,2.12,2.12,0,0,0,.08-.41v-.08a.71.71,0,0,0,0-.29.5.5,0,0,0-.19-.22.48.48,0,0,0-.3-.08.86.86,0,0,0-.39.09,1.59,1.59,0,0,0-.33.25,1.83,1.83,0,0,0-.26.36,1.9,1.9,0,0,0-.18.42.88.88,0,0,0,0,.21.17.17,0,0,0,0,.07.12.12,0,0,0,.13.11.41.41,0,0,0,.19,0,.7.7,0,0,0,.16-.14,1.56,1.56,0,0,0,.13-.19,1.33,1.33,0,0,0,.1-.24.22.22,0,0,0,0-.08.15.15,0,0,0,0-.07.35.35,0,0,0-.06-.14s0,0,0,0a.05.05,0,0,1,0-.05h0l0,0,0,0a.35.35,0,0,1,.09.23.32.32,0,0,1,0,.14,1.19,1.19,0,0,1-.11.26,1,1,0,0,1-.15.24.62.62,0,0,1-.22.17.59.59,0,0,1-.26.07.32.32,0,0,1-.18-.05.27.27,0,0,1-.09-.12.32.32,0,0,1,0-.14s0,0,0,0a.55.55,0,0,1,0-.18,2.22,2.22,0,0,1,.2-.45,1.68,1.68,0,0,1,.3-.4,1.46,1.46,0,0,1,.41-.29,1.13,1.13,0,0,1,.48-.11,1.06,1.06,0,0,1,.45.1.82.82,0,0,1,.32.26.83.83,0,0,1,.16.39.62.62,0,0,1,0,.13A1.26,1.26,0,0,1,87.21,28Z"/><path class="cls-7" d="M88.19,30.36a1.48,1.48,0,0,1-.27.53,2.07,2.07,0,0,1-.48.45h-.08l0,0a.05.05,0,0,1,0,0,1.93,1.93,0,0,0,.44-.41,1.79,1.79,0,0,0,.26-.49v-.08a.41.41,0,0,1-.11.07l-.15,0a.2.2,0,0,1-.2-.09.15.15,0,0,1,0-.11s0,0,0-.07a.38.38,0,0,1,.13-.18.37.37,0,0,1,.26-.08.21.21,0,0,1,.16.05.25.25,0,0,1,.08.12s0,.07,0,.11v.06A1.16,1.16,0,0,1,88.19,30.36Z"/><path class="cls-7" d="M92.75,29.64a1.53,1.53,0,0,1-.11.27.87.87,0,0,1-.16.26.79.79,0,0,1-.22.18.5.5,0,0,1-.27.08.52.52,0,0,1-.23-.05.34.34,0,0,1-.15-.14.53.53,0,0,1-.06-.19v0a.54.54,0,0,1,0-.21l.18-.43a3.66,3.66,0,0,0,.15-.43c0-.1,0-.19.06-.28v-.09a.78.78,0,0,0,0-.16.23.23,0,0,0-.25-.17.76.76,0,0,0-.51.18,1.53,1.53,0,0,0-.37.48l-.4,1.34a.18.18,0,0,1-.09.13.33.33,0,0,1-.14,0,.18.18,0,0,1-.11,0,.1.1,0,0,1,0-.08.11.11,0,0,1,0,0l.44-1.52a1,1,0,0,0,0-.28V28.4a.14.14,0,0,0-.16-.14.25.25,0,0,0-.23.19,2.49,2.49,0,0,0-.17.47.07.07,0,0,1-.08,0h-.06s0,0,0,0v0c0-.07,0-.15.07-.24a2,2,0,0,1,.11-.26.85.85,0,0,1,.17-.2.45.45,0,0,1,.26-.08.47.47,0,0,1,.34.12.39.39,0,0,1,.14.29,1.52,1.52,0,0,1,.37-.3,1.06,1.06,0,0,1,.48-.11.94.94,0,0,1,.3.05.51.51,0,0,1,.21.17.5.5,0,0,1,.08.27v0a1.18,1.18,0,0,1,0,.31,3.81,3.81,0,0,1-.15.44c-.05.14-.11.29-.18.44a1,1,0,0,0-.08.34c0,.09,0,.13.13.13a.32.32,0,0,0,.19,0,.54.54,0,0,0,.15-.15.72.72,0,0,0,.12-.21,1.14,1.14,0,0,0,.09-.26.07.07,0,0,1,.07,0h.07s0,0,0,0Z"/><path class="cls-7" d="M35.56,41.19a.6.6,0,0,1-.23.34.64.64,0,0,1-.38.14.35.35,0,0,1-.31-.15.29.29,0,0,1-.07-.2.32.32,0,0,1,0-.13.58.58,0,0,1,.22-.34.64.64,0,0,1,.39-.14.38.38,0,0,1,.31.14.36.36,0,0,1,.07.22A.74.74,0,0,1,35.56,41.19Z"/><path class="cls-7" d="M38.33,41.19a.6.6,0,0,1-.23.34.64.64,0,0,1-.38.14.35.35,0,0,1-.31-.15.29.29,0,0,1-.07-.2.32.32,0,0,1,0-.13.58.58,0,0,1,.22-.34.64.64,0,0,1,.39-.14.38.38,0,0,1,.31.14.36.36,0,0,1,.07.22A.74.74,0,0,1,38.33,41.19Z"/><path class="cls-7" d="M41.1,41.19a.58.58,0,0,1-.22.34.64.64,0,0,1-.39.14.36.36,0,0,1-.31-.15.35.35,0,0,1-.07-.2.69.69,0,0,1,0-.13.6.6,0,0,1,.23-.34.64.64,0,0,1,.38-.14.4.4,0,0,1,.32.14.43.43,0,0,1,.06.22A.74.74,0,0,1,41.1,41.19Z"/><path class="cls-7" d="M15.22,51.23l0-.17a1.21,1.21,0,0,0,0-.18,1,1,0,0,0-.22-.36.46.46,0,0,0-.36-.15.69.69,0,0,0-.4.14,1.71,1.71,0,0,0-.35.36,2.64,2.64,0,0,0-.34.64c-.07.23-.14.46-.2.7s-.11.46-.15.68a1.82,1.82,0,0,0,0,.32,1.66,1.66,0,0,0,0,.32.86.86,0,0,0,.16.36.4.4,0,0,0,.33.15.75.75,0,0,0,.44-.15,2,2,0,0,0,.41-.37l.14-.17.12-.18Zm1.2,1.61c0,.14-.07.29-.12.46a2.2,2.2,0,0,1-.17.45,1.6,1.6,0,0,1-.28.35.56.56,0,0,1-.4.14.73.73,0,0,1-.52-.18.76.76,0,0,1-.24-.46,2.22,2.22,0,0,1-.51.45,1.1,1.1,0,0,1-.62.19.93.93,0,0,1-.58-.17,1.26,1.26,0,0,1-.36-.43,1.75,1.75,0,0,1-.17-.69v-.06a2.6,2.6,0,0,1,.1-.68,4.63,4.63,0,0,1,.29-.75,3,3,0,0,1,.51-.69,2.79,2.79,0,0,1,.59-.43,1.38,1.38,0,0,1,.67-.18.69.69,0,0,1,.46.15.88.88,0,0,1,.28.38l0-.06a.33.33,0,0,1,.13-.22.37.37,0,0,1,.22-.08.32.32,0,0,1,.2.07.25.25,0,0,1,.05.15.25.25,0,0,1,0,.08l-.65,2.54a2.45,2.45,0,0,0-.06.34.86.86,0,0,0,0,.15.57.57,0,0,0,0,.13.3.3,0,0,0,.08.19.22.22,0,0,0,.17.06.28.28,0,0,0,.2-.09.84.84,0,0,0,.17-.25c0-.11.09-.23.13-.38s.09-.3.14-.48.05-.07.11-.07h.1s.07,0,.07,0Z"/><path class="cls-7" d="M19.69,54.69c0,.09-.07.18-.11.27a.87.87,0,0,1-.16.26,1,1,0,0,1-.22.18.51.51,0,0,1-.28.08.59.59,0,0,1-.23,0,.38.38,0,0,1-.14-.14.53.53,0,0,1-.06-.19v0a.54.54,0,0,1,.05-.21l.18-.43.15-.43c0-.1,0-.19.05-.28a.28.28,0,0,0,0-.09.78.78,0,0,0,0-.16.23.23,0,0,0-.25-.17.76.76,0,0,0-.51.18,1.72,1.72,0,0,0-.38.48l-.39,1.34a.18.18,0,0,1-.09.13.37.37,0,0,1-.14,0,.14.14,0,0,1-.11,0,.08.08,0,0,1,0-.07.11.11,0,0,1,0,0l.43-1.52a1.11,1.11,0,0,0,.05-.28v-.06a.14.14,0,0,0-.16-.14c-.1,0-.18.06-.24.19a3.61,3.61,0,0,0-.16.47.09.09,0,0,1-.08.05H16.8s0,0,0,0v0c0-.07,0-.15.07-.24a2,2,0,0,1,.11-.26.67.67,0,0,1,.17-.2.45.45,0,0,1,.26-.08.47.47,0,0,1,.34.12.39.39,0,0,1,.14.29,1.52,1.52,0,0,1,.37-.3,1.06,1.06,0,0,1,.48-.11.94.94,0,0,1,.3.05.51.51,0,0,1,.21.17.5.5,0,0,1,.08.27v0a1.18,1.18,0,0,1-.05.31,3.81,3.81,0,0,1-.15.44c-.06.14-.11.29-.18.44a.82.82,0,0,0-.09.34c0,.09.05.13.14.13a.41.41,0,0,0,.19,0,.54.54,0,0,0,.15-.15l.12-.21.09-.26a.05.05,0,0,1,.06,0h.08s0,0,0,0Z"/><path class="cls-7" d="M20.77,55.41a1.81,1.81,0,0,1-.28.53,2.07,2.07,0,0,1-.48.45h-.08a0,0,0,0,1,0,0,.05.05,0,0,1,0,0,1.87,1.87,0,0,0,.43-.41,1.55,1.55,0,0,0,.26-.49v-.08a.3.3,0,0,1-.11.07l-.15,0a.22.22,0,0,1-.2-.09.2.2,0,0,1,0-.11.2.2,0,0,1,0-.07.36.36,0,0,1,.12-.18.38.38,0,0,1,.26-.08.21.21,0,0,1,.16,0,.2.2,0,0,1,.08.12.41.41,0,0,1,0,.11v.06Z"/><path class="cls-8" d="M23.75,55.06a.31.31,0,0,0,0,.08.07.07,0,0,0,.05.07.8.8,0,0,0,.23,0h.32a.05.05,0,0,1,.06,0s0,0,0,0v0a.09.09,0,0,1-.09,0H22.6s-.05,0-.05,0h0v0a.08.08,0,0,1,.09-.06H23a1.18,1.18,0,0,0,.25,0c.05,0,.09-.06.11-.15l.74-2.56a1.62,1.62,0,0,1-.35.17,1.21,1.21,0,0,1-.38.06h0a0,0,0,0,1,0,0v-.07a.08.08,0,0,1,.09,0,1.15,1.15,0,0,0,.61-.19,2,2,0,0,0,.51-.46l.07,0h0l0,0v0Z"/><path class="cls-7" d="M34.94,51.23a.55.55,0,0,1,0-.17,1.21,1.21,0,0,0,0-.18,1,1,0,0,0-.22-.36.48.48,0,0,0-.36-.15.69.69,0,0,0-.4.14,2,2,0,0,0-.36.36,3,3,0,0,0-.33.64c-.07.23-.14.46-.2.7s-.11.46-.15.68a1.87,1.87,0,0,0,0,.32,1.65,1.65,0,0,0,0,.32.75.75,0,0,0,.16.36.4.4,0,0,0,.33.15.78.78,0,0,0,.44-.15,2,2,0,0,0,.41-.37l.13-.17a.57.57,0,0,0,.12-.18Zm1.2,1.61c0,.14-.08.29-.12.46a1.77,1.77,0,0,1-.18.45,1.31,1.31,0,0,1-.27.35.56.56,0,0,1-.4.14.73.73,0,0,1-.52-.18.76.76,0,0,1-.24-.46,2.22,2.22,0,0,1-.51.45,1.12,1.12,0,0,1-.62.19.91.91,0,0,1-.58-.17,1.26,1.26,0,0,1-.36-.43,1.6,1.6,0,0,1-.17-.69v-.06a2.24,2.24,0,0,1,.1-.68,3.86,3.86,0,0,1,.29-.75,3,3,0,0,1,.51-.69,2.56,2.56,0,0,1,.59-.43,1.38,1.38,0,0,1,.67-.18.69.69,0,0,1,.46.15,1,1,0,0,1,.28.38l0-.06a.3.3,0,0,1,.13-.22.37.37,0,0,1,.21-.08.35.35,0,0,1,.21.07.25.25,0,0,1,0,.15.25.25,0,0,1,0,.08L35,53.17c0,.12-.05.24-.07.34s0,.11,0,.15,0,.09,0,.13A.47.47,0,0,0,35,54a.24.24,0,0,0,.17.06.29.29,0,0,0,.21-.09.67.67,0,0,0,.16-.25,2.35,2.35,0,0,0,.14-.38c.05-.14.09-.3.14-.48s0-.07.1-.07h.11s.07,0,.07,0Z"/><path class="cls-7" d="M39.4,54.69a1.48,1.48,0,0,1-.1.27,1.13,1.13,0,0,1-.16.26,1.24,1.24,0,0,1-.22.18.51.51,0,0,1-.28.08.56.56,0,0,1-.23,0,.38.38,0,0,1-.14-.14.53.53,0,0,1-.06-.19v0a.54.54,0,0,1,0-.21l.18-.43.15-.43c0-.1,0-.19,0-.28a.28.28,0,0,0,0-.09.41.41,0,0,0,0-.16.21.21,0,0,0-.24-.17.76.76,0,0,0-.51.18,1.55,1.55,0,0,0-.38.48l-.39,1.34a.21.21,0,0,1-.09.13.43.43,0,0,1-.14,0,.13.13,0,0,1-.11,0,.08.08,0,0,1,0-.07v0l.44-1.52a1.11,1.11,0,0,0,0-.28v-.06a.14.14,0,0,0-.16-.14c-.1,0-.18.06-.24.19a3.47,3.47,0,0,0-.17.47.08.08,0,0,1-.07.05h-.07s0,0,0,0v0c0-.07.05-.15.08-.24a1.19,1.19,0,0,1,.11-.26.67.67,0,0,1,.17-.2.41.41,0,0,1,.25-.08.48.48,0,0,1,.35.12.42.42,0,0,1,.14.29,1.48,1.48,0,0,1,.36-.3,1.06,1.06,0,0,1,.48-.11.94.94,0,0,1,.3.05.48.48,0,0,1,.22.17.5.5,0,0,1,.08.27v0A1.81,1.81,0,0,1,39,54l-.15.44-.18.44a.82.82,0,0,0-.09.34c0,.09.05.13.14.13a.41.41,0,0,0,.19,0,1.06,1.06,0,0,0,.15-.15,1.17,1.17,0,0,0,.2-.47.08.08,0,0,1,.07,0h.07s0,0,0,0Z"/><path class="cls-7" d="M40.48,55.41a1.57,1.57,0,0,1-.27.53,2.07,2.07,0,0,1-.48.45h-.08l0,0a.05.05,0,0,1,0,0,1.93,1.93,0,0,0,.44-.41,1.79,1.79,0,0,0,.26-.49v-.08a.41.41,0,0,1-.11.07l-.15,0a.2.2,0,0,1-.2-.09.15.15,0,0,1,0-.11s0,0,0-.07A.38.38,0,0,1,40,55a.37.37,0,0,1,.26-.08.21.21,0,0,1,.16,0,.25.25,0,0,1,.08.12s0,.07,0,.11v.06A1.16,1.16,0,0,1,40.48,55.41Z"/><path class="cls-7" d="M44.89,53.08a.9.9,0,0,1-.21.38,2.57,2.57,0,0,1-.39.32,4,4,0,0,1-.46.28l-.47.23a2.11,2.11,0,0,0-.49.33,1.9,1.9,0,0,0-.38.42.33.33,0,0,1,.15,0l.3,0,.3.05.29,0a1.39,1.39,0,0,0,.3,0,.64.64,0,0,0,.23-.05.9.9,0,0,0,.2-.14.82.82,0,0,0,.17-.2.67.67,0,0,0,.1-.23.08.08,0,0,1,.08,0h.11v0a1.7,1.7,0,0,1-.14.35,2.2,2.2,0,0,1-.21.32,1,1,0,0,1-.29.22.79.79,0,0,1-.67,0,1.59,1.59,0,0,1-.26-.14l-.25-.14a.73.73,0,0,0-.3-.06.24.24,0,0,0-.19.1.7.7,0,0,0-.13.26s0,0-.08,0h-.1v0h0a1.9,1.9,0,0,1,.43-.75,2.37,2.37,0,0,1,.77-.58A3.09,3.09,0,0,0,44,53.7a1.37,1.37,0,0,0,.42-.62,2.88,2.88,0,0,0,.09-.4v-.09a.67.67,0,0,0-.06-.28.5.5,0,0,0-.19-.22A.47.47,0,0,0,44,52a.93.93,0,0,0-.4.09,1.31,1.31,0,0,0-.33.25,1.83,1.83,0,0,0-.26.36,2.53,2.53,0,0,0-.18.42.88.88,0,0,0,0,.21.17.17,0,0,0,0,.07.12.12,0,0,0,.13.11.41.41,0,0,0,.19-.05.7.7,0,0,0,.16-.14.91.91,0,0,0,.13-.19,1.73,1.73,0,0,0,.1-.24.25.25,0,0,0,0-.08v-.07a.61.61,0,0,0-.07-.14s0,0,0,0a.05.05,0,0,1,0,0h0l.05,0,0,0a.37.37,0,0,1,.1.23.32.32,0,0,1,0,.14,1.17,1.17,0,0,1-.1.26,1.43,1.43,0,0,1-.16.24.68.68,0,0,1-.21.17.6.6,0,0,1-.27.06.29.29,0,0,1-.17,0,.23.23,0,0,1-.1-.12.32.32,0,0,1,0-.14s0,0,0,0a1.1,1.1,0,0,1,0-.18,3,3,0,0,1,.2-.45,1.72,1.72,0,0,1,.31-.4,1.41,1.41,0,0,1,.4-.29,1.13,1.13,0,0,1,.48-.11,1.06,1.06,0,0,1,.45.1.75.75,0,0,1,.32.26.83.83,0,0,1,.16.39.62.62,0,0,1,0,.13A.86.86,0,0,1,44.89,53.08Z"/><path class="cls-7" d="M59.51,53.66a.57.57,0,0,1-.23.34.59.59,0,0,1-.39.14.36.36,0,0,1-.3-.14.32.32,0,0,1-.08-.21.83.83,0,0,1,0-.13.67.67,0,0,1,.61-.47.38.38,0,0,1,.32.13.43.43,0,0,1,.06.22A.49.49,0,0,1,59.51,53.66Z"/><path class="cls-7" d="M62.28,53.66a.57.57,0,0,1-.23.34.59.59,0,0,1-.39.14.36.36,0,0,1-.3-.14.32.32,0,0,1-.08-.21.83.83,0,0,1,0-.13.67.67,0,0,1,.61-.47.38.38,0,0,1,.32.13.43.43,0,0,1,.06.22A.49.49,0,0,1,62.28,53.66Z"/><path class="cls-7" d="M65.05,53.66a.57.57,0,0,1-.23.34.58.58,0,0,1-.38.14.37.37,0,0,1-.31-.14.31.31,0,0,1-.07-.21.34.34,0,0,1,0-.13.56.56,0,0,1,.22-.33.59.59,0,0,1,.39-.14.37.37,0,0,1,.31.13.36.36,0,0,1,.07.22A.5.5,0,0,1,65.05,53.66Z"/><path class="cls-7" d="M82.83,51.23l0-.17a1.21,1.21,0,0,0,0-.18,1.07,1.07,0,0,0-.21-.36.5.5,0,0,0-.37-.15.69.69,0,0,0-.4.14,1.71,1.71,0,0,0-.35.36,2.64,2.64,0,0,0-.34.64c-.07.23-.14.46-.2.7s-.11.46-.15.68a1.82,1.82,0,0,0,0,.32,1.66,1.66,0,0,0,0,.32.86.86,0,0,0,.16.36.4.4,0,0,0,.33.15.75.75,0,0,0,.44-.15,1.79,1.79,0,0,0,.41-.37l.14-.17a1.4,1.4,0,0,0,.12-.18ZM84,52.84c0,.14-.07.29-.12.46a2.2,2.2,0,0,1-.17.45,1.6,1.6,0,0,1-.28.35.56.56,0,0,1-.4.14.73.73,0,0,1-.52-.18.76.76,0,0,1-.24-.46,2.22,2.22,0,0,1-.51.45,1.1,1.1,0,0,1-.62.19.93.93,0,0,1-.58-.17,1.26,1.26,0,0,1-.36-.43,1.75,1.75,0,0,1-.17-.69v-.06a2.6,2.6,0,0,1,.1-.68,3.91,3.91,0,0,1,.3-.75,2.69,2.69,0,0,1,.5-.69,2.79,2.79,0,0,1,.59-.43,1.4,1.4,0,0,1,.67-.18.73.73,0,0,1,.47.15,1.08,1.08,0,0,1,.28.38v-.06a.33.33,0,0,1,.13-.22.4.4,0,0,1,.22-.08.32.32,0,0,1,.2.07.25.25,0,0,1,0,.15.25.25,0,0,1,0,.08l-.65,2.54a2.45,2.45,0,0,0-.06.34.86.86,0,0,0,0,.15.57.57,0,0,0,0,.13.37.37,0,0,0,.08.19.22.22,0,0,0,.17.06.28.28,0,0,0,.2-.09.84.84,0,0,0,.17-.25,3.94,3.94,0,0,0,.14-.38l.13-.48c0-.05,0-.07.11-.07H84c.05,0,.07,0,.07,0Z"/><path class="cls-7" d="M87.3,54.69c0,.09-.07.18-.11.27a.87.87,0,0,1-.16.26,1,1,0,0,1-.22.18.5.5,0,0,1-.27.08.52.52,0,0,1-.23,0,.34.34,0,0,1-.15-.14.53.53,0,0,1-.06-.19v0a.54.54,0,0,1,.05-.21l.18-.43c.06-.14.1-.29.15-.43l.06-.28v-.09a.78.78,0,0,0,0-.16.23.23,0,0,0-.25-.17.76.76,0,0,0-.51.18,1.53,1.53,0,0,0-.37.48L85,55.31a.18.18,0,0,1-.09.13.37.37,0,0,1-.14,0,.14.14,0,0,1-.11,0,.08.08,0,0,1,0-.07.11.11,0,0,1,0,0l.43-1.52a1.11,1.11,0,0,0,0-.28v-.06a.14.14,0,0,0-.16-.14.25.25,0,0,0-.23.19,2.49,2.49,0,0,0-.17.47.09.09,0,0,1-.08.05h-.06s0,0,0,0v0c0-.07,0-.15.07-.24a2,2,0,0,1,.11-.26.85.85,0,0,1,.17-.2.45.45,0,0,1,.26-.08.47.47,0,0,1,.34.12.39.39,0,0,1,.14.29,1.52,1.52,0,0,1,.37-.3,1.06,1.06,0,0,1,.48-.11.94.94,0,0,1,.3.05.51.51,0,0,1,.21.17.5.5,0,0,1,.08.27v0a1.18,1.18,0,0,1-.05.31,3.81,3.81,0,0,1-.15.44c0,.14-.11.29-.18.44a1,1,0,0,0-.08.34c0,.09,0,.13.13.13a.41.41,0,0,0,.19,0,.54.54,0,0,0,.15-.15A.72.72,0,0,0,87,55a2,2,0,0,0,.09-.26s0,0,.07,0h.07s0,0,0,0Z"/><path class="cls-7" d="M88.38,55.41a1.81,1.81,0,0,1-.28.53,2.07,2.07,0,0,1-.48.45h-.08a0,0,0,0,1,0,0,.05.05,0,0,1,0,0A1.87,1.87,0,0,0,88,55.9a1.55,1.55,0,0,0,.26-.49l0-.08a.35.35,0,0,1-.12.07l-.15,0a.22.22,0,0,1-.2-.09.2.2,0,0,1,0-.11.2.2,0,0,1,0-.07.32.32,0,0,1,.13-.18.34.34,0,0,1,.25-.08.19.19,0,0,1,.16,0,.2.2,0,0,1,.08.12.41.41,0,0,1,0,.11v.06Z"/><path class="cls-7" d="M92.93,54.69c0,.09-.06.18-.1.27a1.64,1.64,0,0,1-.16.26,1.24,1.24,0,0,1-.22.18.54.54,0,0,1-.28.08.52.52,0,0,1-.23,0,.5.5,0,0,1-.15-.14.38.38,0,0,1-.05-.19v0a.41.41,0,0,1,.05-.21c.06-.14.12-.29.17-.43a3.66,3.66,0,0,0,.15-.43,1.57,1.57,0,0,0,.06-.28s0-.06,0-.09a.41.41,0,0,0,0-.16.23.23,0,0,0-.24-.17.8.8,0,0,0-.52.18A1.69,1.69,0,0,0,91,54l-.39,1.34a.25.25,0,0,1-.09.13.43.43,0,0,1-.14,0,.17.17,0,0,1-.12,0,.12.12,0,0,1,0-.07v0l.44-1.52a1,1,0,0,0,0-.28v-.06a.14.14,0,0,0-.16-.14c-.09,0-.17.06-.23.19a3.47,3.47,0,0,0-.17.47.08.08,0,0,1-.07.05H90s0,0,0,0v0c0-.07,0-.15.08-.24a.85.85,0,0,1,.11-.26.55.55,0,0,1,.17-.2.41.41,0,0,1,.25-.08.5.5,0,0,1,.35.12.38.38,0,0,1,.13.29,1.52,1.52,0,0,1,.37-.3,1.06,1.06,0,0,1,.48-.11.94.94,0,0,1,.3.05.51.51,0,0,1,.21.17.44.44,0,0,1,.09.27v0a1.88,1.88,0,0,1-.06.31c0,.15-.09.29-.14.44l-.18.44a.82.82,0,0,0-.09.34c0,.09,0,.13.13.13a.38.38,0,0,0,.19,0,.75.75,0,0,0,.16-.15,1,1,0,0,0,.11-.21,1.14,1.14,0,0,0,.09-.26.08.08,0,0,1,.07,0h.07s0,0,0,0Z"/><line class="cls-10" x1="10.04" y1="9.89" x2="10.04" y2="55.55"/><line class="cls-10" x1="95.24" y1="55.55" x2="95.24" y2="9.89"/><line class="cls-11" x1="9.76" y1="76.56" x2="16.06" y2="76.56"/><line class="cls-11" x1="9.76" y1="78.45" x2="16.06" y2="78.45"/><line class="cls-11" x1="23.66" y1="77.51" x2="27.57" y2="77.51"/><path class="cls-7" d="M30.66,79.52a.31.31,0,0,0,0,.13c0,.07,0,.11.07.13a1.17,1.17,0,0,0,.35.06h.5c.06,0,.09,0,.1.06s0,0,0,0l0,.08a.14.14,0,0,1-.14.1c-.42,0-.86,0-1.3,0s-.88,0-1.32,0c-.06,0-.08,0-.08-.07v0l0-.08a.11.11,0,0,1,.13-.1h.51a1.43,1.43,0,0,0,.38-.06.31.31,0,0,0,.18-.26L31.16,75a2.64,2.64,0,0,1-.55.29,1.72,1.72,0,0,1-.6.1s-.05,0-.06,0a.08.08,0,0,1,0,0s0,0,0,0l0-.08a.14.14,0,0,1,.14-.11,1.62,1.62,0,0,0,.95-.32,3.57,3.57,0,0,0,.8-.8s.06-.07.1-.07h0a.11.11,0,0,1,.08,0v.07Z"/><path class="cls-7" d="M22.68,81.76a5,5,0,0,1,0-8.51h.46a5.27,5.27,0,0,0,0,8.51"/><path class="cls-7" d="M33.3,73.25a5,5,0,0,1,0,8.51h-.47a5.27,5.27,0,0,0,0-8.51"/><path class="cls-7" d="M42.61,72.9a.05.05,0,0,1,0,0h0l-.21,0a.44.44,0,0,0-.19.07.35.35,0,0,0-.11.1.83.83,0,0,0-.07.13l-.83,2.92a.09.09,0,0,1-.09,0H41s0,0,0,0c-.22-.51-.43-1-.64-1.54s-.42-1-.64-1.53l-.75,2.62a.29.29,0,0,0,0,.09.06.06,0,0,0,0,0,.13.13,0,0,0,.06.11.26.26,0,0,0,.14.06l.21,0s.05,0,.05,0,0,0,0,0v0a.05.05,0,0,1,0,0H38s0,0,0,0v-.06s0,0,0,0l0,0,.21,0a.6.6,0,0,0,.19-.06.52.52,0,0,0,.11-.1l.07-.14L39.5,73a.58.58,0,0,0-.21,0H39a0,0,0,0,1,0,0s0,0,0,0v0a.08.08,0,0,1,.08-.06H40l0,0,1.12,2.68.64-2.23a.29.29,0,0,0,0-.09.17.17,0,0,0-.06-.14.33.33,0,0,0-.16-.07l-.19,0h0v0s0,0,0,0v0a.08.08,0,0,1,.08-.06h1.21a0,0,0,0,1,0,0v.06Z"/><path class="cls-8" d="M48.42,75.52c0,.09-.06.18-.1.27a1.53,1.53,0,0,1-.16.25,1,1,0,0,1-.22.19.53.53,0,0,1-.28.07.52.52,0,0,1-.23,0,.35.35,0,0,1-.14-.13.34.34,0,0,1-.06-.2v0a.39.39,0,0,1,.05-.2c.06-.15.12-.29.17-.43a3.81,3.81,0,0,0,.15-.44,1.4,1.4,0,0,0,.06-.28s0,0,0-.09a.45.45,0,0,0,0-.16.23.23,0,0,0-.24-.17.76.76,0,0,0-.51.18,1.6,1.6,0,0,0-.38.49l-.39,1.34a.23.23,0,0,1-.23.16.12.12,0,0,1-.11,0,.09.09,0,0,1,0-.07v0l.44-1.53a1,1,0,0,0,.05-.28v-.06a.16.16,0,0,0-.17-.14c-.09,0-.17.07-.23.19a4.29,4.29,0,0,0-.17.48.08.08,0,0,1-.07,0h-.07s0,0,0,0h0c0-.08,0-.16.08-.25a.8.8,0,0,1,.11-.25.55.55,0,0,1,.17-.2A.36.36,0,0,1,46.1,74a.54.54,0,0,1,.35.11.42.42,0,0,1,.13.3,1.29,1.29,0,0,1,.37-.3,1,1,0,0,1,.48-.11.73.73,0,0,1,.3,0,.49.49,0,0,1,.3.44h0a1.67,1.67,0,0,1-.05.31l-.15.44-.18.44a.9.9,0,0,0-.09.34.12.12,0,0,0,.13.14.31.31,0,0,0,.19-.06A.52.52,0,0,0,48,76a1.17,1.17,0,0,0,.2-.47s0,0,.07,0h.07s0,0,0,0Z"/><path class="cls-8" d="M50.7,74.75a.32.32,0,1,1-.31-.31A.31.31,0,0,1,50.7,74.75Z"/><path class="cls-8" d="M58.2,75.52c0,.09-.06.18-.1.27a1.53,1.53,0,0,1-.16.25,1,1,0,0,1-.22.19.53.53,0,0,1-.28.07.52.52,0,0,1-.23,0,.38.38,0,0,1-.15-.13.42.42,0,0,1-.05-.2v0a.39.39,0,0,1,.05-.2c.06-.15.12-.29.17-.43a3.81,3.81,0,0,0,.15-.44,1.4,1.4,0,0,0,.06-.28v-.09a.44.44,0,0,0,0-.16.24.24,0,0,0-.24-.17.8.8,0,0,0-.52.18,1.75,1.75,0,0,0-.37.49l-.39,1.34a.23.23,0,0,1-.1.12.23.23,0,0,1-.14,0,.15.15,0,0,1-.11,0,.08.08,0,0,1,0-.07v0L56,74.61a1,1,0,0,0,0-.28v-.06a.14.14,0,0,0-.16-.14c-.09,0-.17.07-.23.19a2.92,2.92,0,0,0-.17.48.08.08,0,0,1-.08,0h-.06s0,0,0,0h0c0-.08,0-.16.07-.25a1.15,1.15,0,0,1,.12-.25.55.55,0,0,1,.17-.2.36.36,0,0,1,.25-.08.54.54,0,0,1,.35.11.42.42,0,0,1,.13.3,1.17,1.17,0,0,1,.37-.3,1,1,0,0,1,.48-.11.73.73,0,0,1,.3,0,.44.44,0,0,1,.21.17.43.43,0,0,1,.08.27h0a1.12,1.12,0,0,1,0,.31,3.26,3.26,0,0,1-.15.44c-.05.15-.11.29-.17.44a.9.9,0,0,0-.09.34c0,.09,0,.14.13.14a.31.31,0,0,0,.19-.06.4.4,0,0,0,.15-.14.72.72,0,0,0,.12-.21,1.14,1.14,0,0,0,.09-.26s0,0,.07,0h.07s0,0,0,0Z"/><line class="cls-9" x1="59.6" y1="74.75" x2="63.13" y2="74.75"/><path class="cls-8" d="M65.69,75.89a.11.11,0,0,0,0,.08.07.07,0,0,0,0,.07.63.63,0,0,0,.23,0h.32s.06,0,.06,0a0,0,0,0,1,0,0v0a.1.1,0,0,1-.09.06H64.53s0,0,0,0v-.06a.08.08,0,0,1,.09-.06h.33a.7.7,0,0,0,.24,0,.24.24,0,0,0,.12-.15L66,73.33a1.62,1.62,0,0,1-.35.17,1.21,1.21,0,0,1-.38.06l0,0s0,0,0,0,0,0,0,0v0a.08.08,0,0,1,.08-.06,1.1,1.1,0,0,0,.62-.19,2.17,2.17,0,0,0,.51-.45.06.06,0,0,1,.06,0h0s0,0,0,0a0,0,0,0,1,0,0v0Z"/><path class="cls-8" d="M54.66,77.14a2.8,2.8,0,0,1,0-4.77h.26a3,3,0,0,0,0,4.77"/><path class="cls-8" d="M67.16,72.37a2.81,2.81,0,0,1,0,4.77H66.9a3,3,0,0,0,0-4.77"/><path class="cls-8" d="M71.74,74.75a.31.31,0,1,1-.31-.31A.31.31,0,0,1,71.74,74.75Z"/><path class="cls-8" d="M74.24,76a.37.37,0,0,1-.14.19.44.44,0,0,1-.24.07.23.23,0,0,1-.2-.08.15.15,0,0,1,0-.11.17.17,0,0,1,0-.07.33.33,0,0,1,.14-.19.46.46,0,0,1,.24-.08.26.26,0,0,1,.2.08.17.17,0,0,1,0,.12A.2.2,0,0,1,74.24,76Z"/><path class="cls-8" d="M76,76a.37.37,0,0,1-.14.19.44.44,0,0,1-.24.07.23.23,0,0,1-.2-.08.15.15,0,0,1,0-.11.17.17,0,0,1,0-.07.33.33,0,0,1,.14-.19.46.46,0,0,1,.24-.08.26.26,0,0,1,.2.08.17.17,0,0,1,0,.12A.2.2,0,0,1,76,76Z"/><path class="cls-8" d="M77.72,76a.37.37,0,0,1-.14.19.45.45,0,0,1-.25.07.22.22,0,0,1-.19-.08.15.15,0,0,1,0-.11.17.17,0,0,1,0-.07.29.29,0,0,1,.14-.19.46.46,0,0,1,.24-.08.26.26,0,0,1,.2.08.17.17,0,0,1,0,.12A.2.2,0,0,1,77.72,76Z"/><path class="cls-8" d="M80.69,74.75a.31.31,0,1,1-.31-.31A.31.31,0,0,1,80.69,74.75Z"/><path class="cls-8" d="M85.35,73.62a1.09,1.09,0,0,1-.19.35,1.35,1.35,0,0,1-.32.31,1.82,1.82,0,0,1-.45.21.74.74,0,0,1,.32.22.64.64,0,0,1,.15.31.59.59,0,0,1,0,.13,1,1,0,0,1,0,.24,1.11,1.11,0,0,1-.21.38,1.83,1.83,0,0,1-.36.31,1.63,1.63,0,0,1-.47.2,1.67,1.67,0,0,1-.49.08,1.06,1.06,0,0,1-.37-.07.65.65,0,0,1-.26-.19.57.57,0,0,1-.14-.28.5.5,0,0,1,0-.12.6.6,0,0,1,0-.22.28.28,0,0,1,.12-.16.49.49,0,0,1,.18,0,.21.21,0,0,1,.16,0,.11.11,0,0,1,0,.09.17.17,0,0,1,0,.07.25.25,0,0,1-.13.17.38.38,0,0,1-.17,0h0a.51.51,0,0,0,.17.39.65.65,0,0,0,.46.16,1,1,0,0,0,.33-.06A1,1,0,0,0,84,76a.77.77,0,0,0,.23-.28,2.26,2.26,0,0,0,.13-.33,2.06,2.06,0,0,0,.07-.32V75a.48.48,0,0,0,0-.2.35.35,0,0,0-.15-.17.48.48,0,0,0-.24-.06h-.32a0,0,0,0,1,0,0v-.07a.07.07,0,0,1,.07,0H84a.8.8,0,0,0,.3-.06.71.71,0,0,0,.28-.16.82.82,0,0,0,.21-.25,1.88,1.88,0,0,0,.12-.3,1.21,1.21,0,0,0,.06-.31h0a.44.44,0,0,0-.25-.41.6.6,0,0,0-.27-.06,1.19,1.19,0,0,0-.37.06,1.26,1.26,0,0,0-.33.16,1.55,1.55,0,0,0-.27.24.87.87,0,0,0-.16.3.78.78,0,0,0,0,.14.3.3,0,0,0,0,.1.16.16,0,0,0,.16.11.38.38,0,0,0,.21-.07.32.32,0,0,0,.13-.18.14.14,0,0,0,0-.07.34.34,0,0,0-.08-.19,0,0,0,0,1,0,0s0,0,0,0h0l.06,0s0,0,0,0a.42.42,0,0,1,.09.14.28.28,0,0,1,0,.09.36.36,0,0,1,0,.1.52.52,0,0,1-.52.37.34.34,0,0,1-.18,0,.27.27,0,0,1-.1-.11.37.37,0,0,1,0-.15s0,0,0,0a.77.77,0,0,1,0-.15,1,1,0,0,1,.19-.35,1.46,1.46,0,0,1,.72-.46,1.25,1.25,0,0,1,.43-.07,1.05,1.05,0,0,1,.4.07.73.73,0,0,1,.29.19.61.61,0,0,1,.15.3.57.57,0,0,1,0,.13A.86.86,0,0,1,85.35,73.62Z"/><path class="cls-8" d="M87.27,74.75a.31.31,0,0,1-.31.32.32.32,0,0,1,0-.63A.31.31,0,0,1,87.27,74.75Z"/><path class="cls-8" d="M91.71,73.91a.83.83,0,0,1-.22.37,1.74,1.74,0,0,1-.38.32,3.52,3.52,0,0,1-.46.28l-.47.24a2.84,2.84,0,0,0-.5.32,2.42,2.42,0,0,0-.37.42.32.32,0,0,1,.14,0l.31,0,.3.06.29,0a1.42,1.42,0,0,0,.3,0,.5.5,0,0,0,.23,0,.86.86,0,0,0,.2-.13,1.06,1.06,0,0,0,.17-.2.82.82,0,0,0,.1-.24s0,0,.08,0h.11a0,0,0,0,1,0,0h0a1.51,1.51,0,0,1-.14.35,1.48,1.48,0,0,1-.21.32,1.22,1.22,0,0,1-.29.23.74.74,0,0,1-.67,0,1.58,1.58,0,0,1-.26-.13L89.72,76a.6.6,0,0,0-.3-.07.28.28,0,0,0-.19.1.71.71,0,0,0-.13.26s0,0-.08,0H89a.05.05,0,0,1,0,0,0,0,0,0,1,0,0v0a2,2,0,0,1,.43-.75A2.57,2.57,0,0,1,90.1,75a3,3,0,0,0,.72-.47,1.3,1.3,0,0,0,.42-.61,3,3,0,0,0,.09-.41v-.08a.67.67,0,0,0-.06-.28.45.45,0,0,0-.19-.22.48.48,0,0,0-.29-.09.79.79,0,0,0-.4.1,1.11,1.11,0,0,0-.33.25,1.38,1.38,0,0,0-.26.36,2,2,0,0,0-.18.42.81.81,0,0,0,0,.2.15.15,0,0,0,0,.07c0,.08.05.11.13.11a.32.32,0,0,0,.19,0,.48.48,0,0,0,.16-.13,1.27,1.27,0,0,0,.13-.19,2.44,2.44,0,0,0,.1-.24.28.28,0,0,0,0-.09.13.13,0,0,0,0-.06.47.47,0,0,0-.06-.15,0,0,0,0,1,0,0s0,0,0,0h0l0,0,0,0a.33.33,0,0,1,.1.23.35.35,0,0,1,0,.14,1.12,1.12,0,0,1-.11.26,1.14,1.14,0,0,1-.15.23.68.68,0,0,1-.21.17.52.52,0,0,1-.27.07.34.34,0,0,1-.18,0,.27.27,0,0,1-.09-.12.4.4,0,0,1,0-.15,0,0,0,0,1,0,0,1.11,1.11,0,0,1,0-.17,3.05,3.05,0,0,1,.2-.46,1.72,1.72,0,0,1,.31-.4,1.38,1.38,0,0,1,.4-.28,1.13,1.13,0,0,1,.48-.11.93.93,0,0,1,.45.1.89.89,0,0,1,.32.25.83.83,0,0,1,.16.4.57.57,0,0,1,0,.13A1.19,1.19,0,0,1,91.71,73.91Z"/><path class="cls-8" d="M93.76,74.75a.31.31,0,0,1-.31.32.32.32,0,0,1,0-.63A.31.31,0,0,1,93.76,74.75Z"/><path class="cls-8" d="M96.57,75.89a.19.19,0,0,0,0,.08.06.06,0,0,0,0,.07.57.57,0,0,0,.22,0h.32s.06,0,.06,0v0l0,0a.08.08,0,0,1-.08.06H95.42s-.06,0-.06,0v0l0,0a.08.08,0,0,1,.08-.06h.33A.7.7,0,0,0,96,76a.19.19,0,0,0,.12-.15l.74-2.56a1.87,1.87,0,0,1-.35.17,1.27,1.27,0,0,1-.39.06.05.05,0,0,1,0,0s0,0,0,0,0,0,0,0v0a.08.08,0,0,1,.09-.06,1.09,1.09,0,0,0,.61-.19,2,2,0,0,0,.51-.45.08.08,0,0,1,.07,0h0s0,0,0,0,0,0,0,0a0,0,0,0,1,0,0Z"/><path class="cls-7" d="M44.89,77.29a3.08,3.08,0,0,1,0-5.07h.26a3.26,3.26,0,0,0,0,5.07"/><path class="cls-7" d="M98,72.22a3.08,3.08,0,0,1,0,5.07h-.26a3.26,3.26,0,0,0,0-5.07"/><path class="cls-7" d="M118.75,77.26a1.16,1.16,0,0,1,0-.18.59.59,0,0,0,0-.17,1,1,0,0,0-.22-.37.48.48,0,0,0-.36-.15.64.64,0,0,0-.4.15,1.54,1.54,0,0,0-.36.36,3,3,0,0,0-.33.64c-.07.22-.14.45-.2.69s-.11.46-.15.68a2.11,2.11,0,0,0,0,.33,1.75,1.75,0,0,0,0,.32.85.85,0,0,0,.16.36.4.4,0,0,0,.33.15.72.72,0,0,0,.44-.16,2.3,2.3,0,0,0,.41-.36l.13-.17a.76.76,0,0,0,.12-.19Zm1.2,1.61q-.06.21-.12.45a1.77,1.77,0,0,1-.18.45,1.06,1.06,0,0,1-.27.35.57.57,0,0,1-.4.15.73.73,0,0,1-.52-.18.79.79,0,0,1-.24-.46,2.74,2.74,0,0,1-.51.44,1.14,1.14,0,0,1-.63.2,1,1,0,0,1-.57-.17,1.29,1.29,0,0,1-.36-.44A1.59,1.59,0,0,1,116,79v-.07a2.33,2.33,0,0,1,.1-.68,3.86,3.86,0,0,1,.29-.75,3,3,0,0,1,.51-.68,2.59,2.59,0,0,1,.59-.44,1.47,1.47,0,0,1,.66-.17.72.72,0,0,1,.47.15.93.93,0,0,1,.28.37l0-.06a.32.32,0,0,1,.13-.22.35.35,0,0,1,.21-.07.3.3,0,0,1,.21.07.26.26,0,0,1,0,.14s0,.05,0,.08l-.65,2.54c0,.12,0,.24-.07.35s0,.1,0,.15,0,.08,0,.13a.43.43,0,0,0,.08.18.24.24,0,0,0,.17.07.29.29,0,0,0,.21-.09.67.67,0,0,0,.16-.25,2.77,2.77,0,0,0,.14-.38c0-.15.09-.31.13-.48a.11.11,0,0,1,.11-.08h.11c.05,0,.07,0,.07,0Z"/><path class="cls-7" d="M121.32,81.09a.19.19,0,0,0,0,.08.07.07,0,0,0,0,.07.63.63,0,0,0,.23,0h.32s.06,0,.06,0,0,0,0,0v0a.1.1,0,0,1-.09.06l-.83,0-.85,0s0,0,0,0v-.06a.1.1,0,0,1,.09-.06h.33a.7.7,0,0,0,.24,0c.06,0,.09-.07.12-.15l.73-2.56a1.39,1.39,0,0,1-.35.16,1.21,1.21,0,0,1-.38.06h0s0,0,0,0,0,0,0,0v0a.08.08,0,0,1,.09-.06,1.09,1.09,0,0,0,.61-.19,2,2,0,0,0,.51-.46.09.09,0,0,1,.07,0h.06v0Z"/><path class="cls-7" d="M123.71,81.43a1.52,1.52,0,0,1-.27.54,2,2,0,0,1-.48.44h-.08l0,0s0,0,0,0a1.73,1.73,0,0,0,.44-.41,1.66,1.66,0,0,0,.26-.49v-.07a.38.38,0,0,1-.26.08c-.1,0-.17,0-.2-.08a.15.15,0,0,1,0-.11s0,0,0-.07a.46.46,0,0,1,.13-.19.42.42,0,0,1,.26-.08.25.25,0,0,1,.16,0,.29.29,0,0,1,.08.13s0,.07,0,.11v0A.8.8,0,0,1,123.71,81.43Z"/><path class="cls-7" d="M128.27,80.72a1.53,1.53,0,0,1-.11.27,1,1,0,0,1-.16.25.67.67,0,0,1-.22.19.5.5,0,0,1-.27.07.52.52,0,0,1-.23,0,.32.32,0,0,1-.15-.13.59.59,0,0,1-.06-.2v0a.49.49,0,0,1,.05-.2l.18-.44a3.12,3.12,0,0,0,.15-.43,2.8,2.8,0,0,0,.06-.28v-.09a.88.88,0,0,0,0-.16.24.24,0,0,0-.25-.17.76.76,0,0,0-.51.18,1.47,1.47,0,0,0-.37.49l-.4,1.34a.18.18,0,0,1-.09.12.23.23,0,0,1-.14,0,.14.14,0,0,1-.11,0,.11.11,0,0,1,0-.12l.43-1.53a.76.76,0,0,0,0-.28v-.06a.14.14,0,0,0-.16-.14.25.25,0,0,0-.23.19,2.62,2.62,0,0,0-.17.48.09.09,0,0,1-.08,0h-.06s0,0,0,0h0c0-.08,0-.16.07-.25a1.45,1.45,0,0,1,.11-.25,1.2,1.2,0,0,1,.17-.21.45.45,0,0,1,.26-.08.47.47,0,0,1,.34.12.42.42,0,0,1,.14.29,1.28,1.28,0,0,1,.37-.29,1,1,0,0,1,.48-.12.73.73,0,0,1,.3.06.39.39,0,0,1,.21.17.5.5,0,0,1,.08.27h0a1.12,1.12,0,0,1-.05.31,3.26,3.26,0,0,1-.15.44,4.07,4.07,0,0,1-.18.44,1,1,0,0,0-.08.34c0,.09,0,.14.13.14a.33.33,0,0,0,.19-.06.4.4,0,0,0,.15-.14A.72.72,0,0,0,128,81a2.67,2.67,0,0,0,.09-.26.08.08,0,0,1,.07,0h.07s0,0,0,0Z"/><path class="cls-7" d="M132.61,77.51a.56.56,0,1,1-.56-.56A.56.56,0,0,1,132.61,77.51Z"/><path class="cls-7" d="M138.43,77.26l0-.18a1.36,1.36,0,0,0,0-.17,1,1,0,0,0-.22-.37.5.5,0,0,0-.37-.15.66.66,0,0,0-.4.15,1.5,1.5,0,0,0-.35.36,2.3,2.3,0,0,0-.33.64,7,7,0,0,0-.2.69c-.06.24-.11.46-.15.68a1.35,1.35,0,0,0,0,.33,1.17,1.17,0,0,0,0,.32.85.85,0,0,0,.16.36.39.39,0,0,0,.33.15.75.75,0,0,0,.44-.16,2.25,2.25,0,0,0,.4-.36l.14-.17.12-.19Zm1.21,1.61q-.06.21-.12.45a3,3,0,0,1-.18.45,1.06,1.06,0,0,1-.27.35.59.59,0,0,1-.41.15.75.75,0,0,1-.52-.18.79.79,0,0,1-.24-.46,2.45,2.45,0,0,1-.51.44,1.09,1.09,0,0,1-.62.2.94.94,0,0,1-.57-.17,1.21,1.21,0,0,1-.37-.44,1.58,1.58,0,0,1-.16-.68v-.07a2.71,2.71,0,0,1,.09-.68,3.91,3.91,0,0,1,.3-.75,3,3,0,0,1,.51-.68,2.59,2.59,0,0,1,.59-.44,1.47,1.47,0,0,1,.66-.17.72.72,0,0,1,.47.15,1,1,0,0,1,.28.37v-.06a.37.37,0,0,1,.14-.22.35.35,0,0,1,.21-.07.27.27,0,0,1,.2.07.2.2,0,0,1,.05.14v.08l-.66,2.54a2.33,2.33,0,0,0-.06.35.76.76,0,0,0,0,.15.62.62,0,0,0,0,.13.33.33,0,0,0,.08.18.24.24,0,0,0,.17.07.32.32,0,0,0,.21-.09.83.83,0,0,0,.16-.25c0-.11.09-.24.14-.38s.09-.31.13-.48a.1.1,0,0,1,.11-.08h.1c.05,0,.08,0,.08,0Z"/><path class="cls-7" d="M142.63,79.11a.89.89,0,0,1-.22.37,2,2,0,0,1-.38.32,5.11,5.11,0,0,1-.46.28l-.47.24a2.52,2.52,0,0,0-.5.32,2.42,2.42,0,0,0-.37.42.3.3,0,0,1,.14,0,1.56,1.56,0,0,1,.31,0l.29,0,.29.06.31,0a.44.44,0,0,0,.22,0A.74.74,0,0,0,142,81a1.06,1.06,0,0,0,.17-.2,1.22,1.22,0,0,0,.1-.24s0,0,.08,0h.11s0,0,0,0h0a1.51,1.51,0,0,1-.14.35,1.4,1.4,0,0,1-.22.32.92.92,0,0,1-.29.23.69.69,0,0,1-.35.08.83.83,0,0,1-.32-.06l-.26-.13a2,2,0,0,0-.25-.14.54.54,0,0,0-.29-.07.24.24,0,0,0-.19.1.71.71,0,0,0-.13.26s0,0-.08,0h-.1a0,0,0,0,1,0,0v0a2,2,0,0,1,.43-.75,2.57,2.57,0,0,1,.76-.57,3.31,3.31,0,0,0,.72-.47,1.35,1.35,0,0,0,.42-.61,2,2,0,0,0,.08-.41v-.08a.66.66,0,0,0-.05-.28.45.45,0,0,0-.19-.22.49.49,0,0,0-.3-.09.76.76,0,0,0-.39.1,1.11,1.11,0,0,0-.33.25,1.38,1.38,0,0,0-.26.36,1.57,1.57,0,0,0-.18.42.81.81,0,0,0,0,.2.15.15,0,0,0,0,.07c0,.08,0,.11.13.11a.32.32,0,0,0,.19-.05.65.65,0,0,0,.16-.13,1.74,1.74,0,0,0,.13-.2,1.6,1.6,0,0,0,.1-.23.28.28,0,0,0,0-.09.13.13,0,0,0,0-.06.47.47,0,0,0-.06-.15s0,0,0,0,0,0,0,0h0l.06,0s0,0,0,0a.32.32,0,0,1,.09.23.36.36,0,0,1,0,.14,1.83,1.83,0,0,1-.11.26,1.14,1.14,0,0,1-.15.23.62.62,0,0,1-.22.17.48.48,0,0,1-.26.07.44.44,0,0,1-.18,0,.27.27,0,0,1-.09-.12.4.4,0,0,1,0-.15v0a.51.51,0,0,1,0-.17,2.07,2.07,0,0,1,.2-.46,1.68,1.68,0,0,1,.3-.4,1.42,1.42,0,0,1,.41-.28,1,1,0,0,1,.48-.11,1.06,1.06,0,0,1,.45.09.92.92,0,0,1,.32.26.83.83,0,0,1,.16.4.57.57,0,0,1,0,.13A1.19,1.19,0,0,1,142.63,79.11Z"/><path class="cls-7" d="M143.61,81.43a1.52,1.52,0,0,1-.27.54,2,2,0,0,1-.48.44h-.08l0,0s0,0,0,0a1.73,1.73,0,0,0,.44-.41,1.42,1.42,0,0,0,.25-.49l0-.07a.38.38,0,0,1-.26.08c-.1,0-.17,0-.2-.08a.15.15,0,0,1,0-.11s0,0,0-.07a.46.46,0,0,1,.13-.19.42.42,0,0,1,.26-.08.25.25,0,0,1,.16,0,.29.29,0,0,1,.08.13s0,.07,0,.11v0A.8.8,0,0,1,143.61,81.43Z"/><path class="cls-7" d="M148.16,80.72a1.48,1.48,0,0,1-.1.27,1.32,1.32,0,0,1-.16.25.79.79,0,0,1-.22.19.51.51,0,0,1-.28.07.56.56,0,0,1-.23,0,.35.35,0,0,1-.14-.13.59.59,0,0,1-.06-.2v0a.49.49,0,0,1,.05-.2l.18-.44.15-.43a2.74,2.74,0,0,0,.05-.28.25.25,0,0,0,0-.09.88.88,0,0,0,0-.16.24.24,0,0,0-.25-.17.76.76,0,0,0-.51.18,1.63,1.63,0,0,0-.38.49l-.39,1.34a.18.18,0,0,1-.09.12.25.25,0,0,1-.14,0,.12.12,0,0,1-.11,0,.11.11,0,0,1,0-.12l.43-1.53a1,1,0,0,0,0-.28v-.06a.15.15,0,0,0-.16-.14c-.1,0-.18.06-.24.19a2.68,2.68,0,0,0-.16.48.09.09,0,0,1-.08,0h-.07a0,0,0,0,1,0,0h0c0-.08.05-.16.08-.25a1,1,0,0,1,.11-.25.87.87,0,0,1,.17-.21.41.41,0,0,1,.25-.08.48.48,0,0,1,.35.12.47.47,0,0,1,.14.29,1.28,1.28,0,0,1,.37-.29.9.9,0,0,1,.48-.12.8.8,0,0,1,.3.06.39.39,0,0,1,.21.17.5.5,0,0,1,.08.27h0a1.12,1.12,0,0,1-.05.31c-.05.15-.09.3-.15.44l-.18.44a.86.86,0,0,0-.09.34.13.13,0,0,0,.14.14.33.33,0,0,0,.19-.06.49.49,0,0,0,.15-.14,2,2,0,0,0,.12-.21l.09-.26a.06.06,0,0,1,.06,0h.07s0,0,0,0Z"/><line class="cls-12" x1="149.64" y1="79.95" x2="153.17" y2="79.95"/><path class="cls-7" d="M155.72,81.09s0,0,0,.08a.08.08,0,0,0,.05.07.63.63,0,0,0,.23,0h.32a.06.06,0,0,1,.06,0s0,0,0,0v0a.1.1,0,0,1-.09.06l-.84,0-.84,0s0,0,0,0v-.06a.08.08,0,0,1,.09-.06h.32a.81.81,0,0,0,.25,0,.2.2,0,0,0,.11-.15l.74-2.56a1.58,1.58,0,0,1-.35.16,1.21,1.21,0,0,1-.38.06h0s0,0,0,0v-.07a.1.1,0,0,1,.09-.06,1.07,1.07,0,0,0,.61-.19,1.72,1.72,0,0,0,.51-.46.11.11,0,0,1,.07,0h.07v0Z"/><path class="cls-7" d="M161.09,77.51a.56.56,0,1,1-.56-.56A.56.56,0,0,1,161.09,77.51Z"/><path class="cls-7" d="M166.92,77.26a1.16,1.16,0,0,1,0-.18.59.59,0,0,0,0-.17,1,1,0,0,0-.22-.37.5.5,0,0,0-.37-.15.64.64,0,0,0-.39.15,1.54,1.54,0,0,0-.36.36,2.6,2.6,0,0,0-.33.64c-.07.22-.14.45-.2.69s-.11.46-.15.68a2.11,2.11,0,0,0,0,.33,1.75,1.75,0,0,0,0,.32.85.85,0,0,0,.16.36.4.4,0,0,0,.33.15.72.72,0,0,0,.44-.16,2.3,2.3,0,0,0,.41-.36l.13-.17a.76.76,0,0,0,.12-.19Zm1.2,1.61q-.06.21-.12.45a1.77,1.77,0,0,1-.18.45,1.06,1.06,0,0,1-.27.35.57.57,0,0,1-.4.15.73.73,0,0,1-.52-.18.79.79,0,0,1-.24-.46,3.1,3.1,0,0,1-.51.44,1.14,1.14,0,0,1-.63.2,1,1,0,0,1-.57-.17,1.29,1.29,0,0,1-.36-.44,1.59,1.59,0,0,1-.17-.68v-.07a2.33,2.33,0,0,1,.1-.68,3.31,3.31,0,0,1,.29-.75,3,3,0,0,1,.51-.68,2.59,2.59,0,0,1,.59-.44,1.47,1.47,0,0,1,.66-.17.72.72,0,0,1,.47.15.93.93,0,0,1,.28.37l0-.06a.32.32,0,0,1,.13-.22.35.35,0,0,1,.21-.07.3.3,0,0,1,.21.07.26.26,0,0,1,0,.14s0,.05,0,.08L167,79.19a2.41,2.41,0,0,0-.07.35s0,.1,0,.15,0,.08,0,.13A.33.33,0,0,0,167,80a.24.24,0,0,0,.17.07.29.29,0,0,0,.21-.09.83.83,0,0,0,.16-.25,2.77,2.77,0,0,0,.14-.38c0-.15.09-.31.13-.48a.11.11,0,0,1,.11-.08h.11s.07,0,.07,0Z"/><path class="cls-7" d="M171.38,80.72a1.48,1.48,0,0,1-.1.27,1.32,1.32,0,0,1-.16.25,1,1,0,0,1-.22.19.53.53,0,0,1-.28.07.56.56,0,0,1-.23,0,.35.35,0,0,1-.14-.13.43.43,0,0,1-.06-.2v0a.49.49,0,0,1,.05-.2l.18-.44c.05-.14.1-.28.14-.43a1.4,1.4,0,0,0,.06-.28s0,0,0-.09a.45.45,0,0,0,0-.16.23.23,0,0,0-.24-.17.76.76,0,0,0-.51.18,1.49,1.49,0,0,0-.38.49l-.39,1.34a.23.23,0,0,1-.23.16.12.12,0,0,1-.11,0,.09.09,0,0,1,0-.07v0l.44-1.53a1,1,0,0,0,0-.28v-.06a.16.16,0,0,0-.17-.14c-.09,0-.17.06-.23.19a3.67,3.67,0,0,0-.17.48.08.08,0,0,1-.07,0h-.07a0,0,0,0,1,0,0h0c0-.08.05-.16.08-.25a.71.71,0,0,1,.11-.25.68.68,0,0,1,.17-.21.41.41,0,0,1,.25-.08.48.48,0,0,1,.35.12.41.41,0,0,1,.13.29,1.43,1.43,0,0,1,.37-.29,1,1,0,0,1,.48-.12.73.73,0,0,1,.3.06.33.33,0,0,1,.21.17.44.44,0,0,1,.09.27h0a1.67,1.67,0,0,1-.05.31l-.15.44-.18.44a.86.86,0,0,0-.09.34.13.13,0,0,0,.14.14.35.35,0,0,0,.19-.06.64.64,0,0,0,.15-.14,2,2,0,0,0,.12-.21,2.58,2.58,0,0,0,.08-.26s0,0,.07,0h.07s0,0,0,0Z"/><path class="cls-7" d="M172.46,81.43a1.52,1.52,0,0,1-.27.54,2,2,0,0,1-.48.44h-.09a0,0,0,0,0,0,0s0,0,0,0a1.73,1.73,0,0,0,.44-.41,1.42,1.42,0,0,0,.25-.49l0-.07a.38.38,0,0,1-.26.08c-.1,0-.17,0-.2-.08a.15.15,0,0,1,0-.11s0,0,0-.07A.46.46,0,0,1,172,81a.42.42,0,0,1,.26-.08.25.25,0,0,1,.16,0,.29.29,0,0,1,.08.13s0,.07,0,.11v0A.8.8,0,0,1,172.46,81.43Z"/><path class="cls-7" d="M175.45,81.09a.19.19,0,0,0,0,.08.08.08,0,0,0,0,.07.57.57,0,0,0,.22,0H176s.06,0,.06,0v.07a.1.1,0,0,1-.09.06l-.84,0-.84,0s-.05,0-.05,0v-.06a.08.08,0,0,1,.09-.06h.32a.7.7,0,0,0,.24,0,.19.19,0,0,0,.12-.15l.74-2.56a1.58,1.58,0,0,1-.35.16,1.27,1.27,0,0,1-.39.06h0s0,0,0,0a0,0,0,0,1,0,0v0a.1.1,0,0,1,.09-.06,1.09,1.09,0,0,0,.61-.19,1.72,1.72,0,0,0,.51-.46.09.09,0,0,1,.07,0h.06v0s0,0,0,0Z"/><path class="cls-7" d="M116.12,83.23a2.36,2.36,0,0,0,2.22,1.56h25.89a2.1,2.1,0,0,1,2,1.38h.25a2.08,2.08,0,0,1,2-1.38h25.9a2.36,2.36,0,0,0,2.22-1.56l-.06-.19a2.08,2.08,0,0,1-1.89,1.21H148.41a2.08,2.08,0,0,0-2,1.38h-.25a2.1,2.1,0,0,0-2-1.38H118.07A2.08,2.08,0,0,1,116.18,83"/><path class="cls-7" d="M103,87.09a0,0,0,0,1,0,0,.05.05,0,0,1,0,0,2.2,2.2,0,0,0-.44.42,1.44,1.44,0,0,0-.27.48v.09a.41.41,0,0,1,.27-.1.26.26,0,0,1,.21.08.27.27,0,0,1,0,.12.17.17,0,0,1,0,.07.32.32,0,0,1-.13.18.37.37,0,0,1-.25.09.29.29,0,0,1-.17,0,.26.26,0,0,1-.08-.13.59.59,0,0,1,0-.13v0a1.16,1.16,0,0,1,0-.18,1.43,1.43,0,0,1,.28-.53,2.07,2.07,0,0,1,.48-.45H103Zm1.06,0a0,0,0,0,1,0,0,.05.05,0,0,1,0,0,2,2,0,0,0-.45.42,1.23,1.23,0,0,0-.25.48l0,0a.06.06,0,0,1,0,0,.45.45,0,0,1,.28-.1.26.26,0,0,1,.21.08.27.27,0,0,1,0,.12.17.17,0,0,1,0,.07.32.32,0,0,1-.13.18.37.37,0,0,1-.25.09.26.26,0,0,1-.17,0,.26.26,0,0,1-.08-.13.3.3,0,0,1,0-.13v0a.39.39,0,0,1,0-.18,1.57,1.57,0,0,1,.27-.53,2.34,2.34,0,0,1,.49-.45H104Z"/><path class="cls-7" d="M108.58,89.47h-2.46v1.28h2.46ZM104.77,88h1.71q.18-.33.33-.66l.4.11-.29.55h2.48v.31h-2.67c-.19.31-.38.6-.59.88H109v2.26h-.39v-.36h-2.46v.36h-.39V89.66a9.51,9.51,0,0,1-.76.79,3.84,3.84,0,0,0-.3-.25,8.56,8.56,0,0,0,1.63-1.92h-1.53Z"/><polygon class="cls-7" points="109.61 90.86 111.5 90.86 111.5 87.4 111.94 87.4 111.94 88.66 113.92 88.66 113.92 88.99 111.94 88.99 111.94 90.86 114.3 90.86 114.3 91.19 109.61 91.19 109.61 90.86"/><path class="cls-7" d="M116.43,87.59a1.74,1.74,0,0,1-.28.54,2.08,2.08,0,0,1-.49.44h-.09v0a.05.05,0,0,1,0-.05,2.16,2.16,0,0,0,.44-.41,1.45,1.45,0,0,0,.26-.49.06.06,0,0,0,0,0,.09.09,0,0,0,0,0,.24.24,0,0,1-.12.07.41.41,0,0,1-.16,0,.23.23,0,0,1-.2-.08.23.23,0,0,1,0-.11.22.22,0,0,1,0-.08.38.38,0,0,1,.12-.17.39.39,0,0,1,.26-.09.29.29,0,0,1,.17.05.25.25,0,0,1,.08.12.45.45,0,0,1,0,.12v0Zm1,0a1.52,1.52,0,0,1-.27.54,1.9,1.9,0,0,1-.49.44h-.09a0,0,0,0,0,0,0,.05.05,0,0,1,0-.05,1.78,1.78,0,0,0,.45-.41,1.45,1.45,0,0,0,.26-.49s0,0,0,0,0,0,0,0a.24.24,0,0,1-.12.07.41.41,0,0,1-.16,0,.22.22,0,0,1-.2-.08.25.25,0,0,1,0-.11s0,0,0-.08a.34.34,0,0,1,.13-.17.37.37,0,0,1,.26-.09.29.29,0,0,1,.17.05.36.36,0,0,1,.08.12.45.45,0,0,1,0,.12v0A1,1,0,0,1,117.48,87.59Z"/><path class="cls-7" d="M121.87,87.77h.39v2.67h-.39Zm1-.45h.4v3.54c0,.35-.2.53-.59.53H122c0-.11,0-.24-.07-.37l.64,0c.21,0,.31-.09.31-.27Zm-4,2.4H120v-.51h.38v.51h1.11V90h-1.11v.74l1.18-.13a1.83,1.83,0,0,0,0,.32l-2.75.33-.11-.36,1.28-.12V90h-1.14Zm2-1.59a11.17,11.17,0,0,1,.73,1l-.38.16c0-.1-.11-.2-.17-.3l-2,.17-.18-.35a1.27,1.27,0,0,0,.49-.41,6.57,6.57,0,0,0,.36-.55h-.9v-.31h2.77v.31H120.2a11.67,11.67,0,0,1-.73,1l1.4-.11c-.11-.16-.22-.32-.34-.47Z"/><path class="cls-7" d="M126.22,87.09s0,0,0,0a.05.05,0,0,1,0,0,2,2,0,0,0-.45.42,1.41,1.41,0,0,0-.26.48l0,.09a.41.41,0,0,1,.27-.1.23.23,0,0,1,.21.08.19.19,0,0,1,0,.12s0,0,0,.07a.38.38,0,0,1-.13.18.39.39,0,0,1-.26.09.29.29,0,0,1-.17,0,.35.35,0,0,1-.08-.13.57.57,0,0,1,0-.13v0a.57.57,0,0,1,0-.18,1.6,1.6,0,0,1,.28-.53,1.93,1.93,0,0,1,.49-.45h.08Zm1.06,0a0,0,0,0,1,0,0,.05.05,0,0,1,0,0,2.57,2.57,0,0,0-.45.42,1.38,1.38,0,0,0-.25.48.09.09,0,0,0,0,0s0,0,0,0a.43.43,0,0,1,.27-.1.24.24,0,0,1,.21.08.56.56,0,0,1,0,.12.19.19,0,0,1,0,.07.28.28,0,0,1-.13.18.35.35,0,0,1-.25.09.29.29,0,0,1-.17,0,.35.35,0,0,1-.08-.13.59.59,0,0,1,0-.13v0a1.16,1.16,0,0,1,0-.18,1.6,1.6,0,0,1,.28-.53,2.07,2.07,0,0,1,.48-.45h.09Z"/><path class="cls-7" d="M128.71,90.88h1.76V89.52h-1.19a8.08,8.08,0,0,1-1.14,1.56,1.79,1.79,0,0,0-.27-.28,6.47,6.47,0,0,0,1.49-2.51h-1.31V88h1.4c.05-.21.1-.43.13-.65l.41,0c0,.22-.09.42-.14.61h2.8v.32h-2.88a7.55,7.55,0,0,1-.34.92h2.91v.31h-1.46v1.36h1.77v.31h-3.94Z"/><path class="cls-7" d="M132.85,87.67h4.69V88H135.2v.91l.22-.26c.74.37,1.36.71,1.85,1L137,90c-.5-.33-1.1-.68-1.79-1.05v2.46h-.44V88h-1.91Z"/><path class="cls-7" d="M139.67,87.59a1.55,1.55,0,0,1-.28.54,2,2,0,0,1-.48.44h-.09v0a.05.05,0,0,1,0-.05,2.22,2.22,0,0,0,.45-.41,1.42,1.42,0,0,0,.25-.49.08.08,0,0,0,0,0,.09.09,0,0,1,0,0,.37.37,0,0,1-.12.07.41.41,0,0,1-.16,0,.22.22,0,0,1-.2-.08.17.17,0,0,1,0-.11.22.22,0,0,1,0-.08.34.34,0,0,1,.13-.17.37.37,0,0,1,.26-.09.25.25,0,0,1,.16.05.27.27,0,0,1,.09.12s0,.07,0,.12v0A1,1,0,0,1,139.67,87.59Zm1.06,0a1.55,1.55,0,0,1-.28.54,1.85,1.85,0,0,1-.48.44h-.09v0a.05.05,0,0,1,0-.05,1.91,1.91,0,0,0,.44-.41,1.3,1.3,0,0,0,.26-.49.06.06,0,0,0,0,0l0,0a.33.33,0,0,1-.13.07.37.37,0,0,1-.15,0,.24.24,0,0,1-.21-.08.23.23,0,0,1,0-.11.22.22,0,0,1,0-.08.34.34,0,0,1,.13-.17.35.35,0,0,1,.25-.09.26.26,0,0,1,.17.05.2.2,0,0,1,.08.12.43.43,0,0,1,0,.12v0A1,1,0,0,1,140.73,87.59Z"/><path class="cls-7" d="M144.53,89.16l.3-.19c.35.37.64.68.85,1l-.36.22A9.43,9.43,0,0,0,144.53,89.16Zm-.88-.83h-1.09v1h1.09Zm-1.09,2.38h1.09V89.65h-1.09Zm1.55-1.84a5.75,5.75,0,0,0,.77-1.55l.4.09c-.08.21-.16.41-.25.59h1.55c0,1.44-.07,2.34-.09,2.71s-.29.66-.8.66l-.89,0a3.41,3.41,0,0,0-.08-.37h0a7.1,7.1,0,0,0,.88.06c.29,0,.45-.13.47-.4s.06-1.19.08-2.31h-1.29a5.8,5.8,0,0,1-.44.71A2.56,2.56,0,0,0,144.11,88.87ZM142.18,88h.48c.12-.26.22-.49.3-.7l.4.1c-.1.22-.19.41-.29.6h1v3.33h-.39V91h-1.09v.36h-.38Z"/><path class="cls-7" d="M149.19,89.09l.32-.17c.26.34.49.66.69,1l-.36.18C149.65,89.76,149.43,89.43,149.19,89.09Zm-.08-.84h1.6v-.9h.39v.9h.59v.31h-.59v2.2c0,.4-.23.61-.69.61h-.71c0-.1,0-.23-.08-.38.32,0,.56,0,.73,0s.36-.11.36-.32V88.56h-1.6Zm-1.76.16.8,1a4,4,0,0,0,.37-1.33H147v-.32h1.91v.31a5.21,5.21,0,0,1-.51,1.65l.76,1-.35.2-.61-.83a4.63,4.63,0,0,1-1.09,1.21c-.07-.08-.14-.19-.24-.3a4.5,4.5,0,0,0,1.1-1.22l-.91-1.19Z"/><path class="cls-7" d="M152.8,88.72v.54h1.28v-.54Zm0,1.38h1.31v-.55H152.8A4.68,4.68,0,0,1,152.77,90.1Zm1.69,0h1.35v-.55h-1.35Zm1.35-1.38h-1.35v.54h1.35Zm-1-.75h-1.69a6.25,6.25,0,0,1-.45.44h1.7C154.58,88.25,154.72,88.11,154.85,88Zm-3.06.73a5.21,5.21,0,0,0,1.46-1.42l.39.09-.23.31h1.93V88l-.46.44h1.31v2.46c0,.34-.18.51-.55.51h-.7c0-.1-.05-.21-.07-.34l.62,0c.21,0,.32-.08.32-.24v-.42h-1.35v1h-.38v-1h-1.36a2,2,0,0,1-.54,1.1l-.29-.28a2.18,2.18,0,0,0,.53-1.67v-.88c-.11.09-.22.18-.34.26Z"/><path class="cls-7" d="M160.07,87.56l.21-.21a6.93,6.93,0,0,1,.73.45l-.23.24A7.45,7.45,0,0,0,160.07,87.56Zm-3.36,3.26c.56-.1,1.14-.22,1.71-.35,0,.12,0,.22,0,.32l-1.6.35Zm.61-1c.29,0,.62-.08,1-.14,0,.11,0,.21,0,.32l-1.41.2-.08-.31a5.7,5.7,0,0,0,.73-.89l-.73,0-.09-.29a7.49,7.49,0,0,0,.92-1.49l.36.13c-.33.56-.61,1-.85,1.34l.58,0,.35-.56.35.15A17.67,17.67,0,0,1,157.32,89.85Zm.82,1.27a8.35,8.35,0,0,0,1.58-.66,3.46,3.46,0,0,1-.27-.89l-1,.12,0-.3,1-.13a5.67,5.67,0,0,1-.06-.62l-.88.08-.05-.3.91-.09c0-.29,0-.62,0-1h.39c0,.36,0,.69,0,1l1.61-.16,0,.3-1.64.16a5.67,5.67,0,0,0,.06.62l1.66-.2,0,.29-1.66.21a4,4,0,0,0,.22.75,3.9,3.9,0,0,0,.86-.73l.31.21a5.92,5.92,0,0,1-1,.82,1.32,1.32,0,0,0,.44.44c.22.11.35,0,.41-.17a4.44,4.44,0,0,0,.11-.59l.37.12a4.4,4.4,0,0,1-.17.68.48.48,0,0,1-.47.36,1,1,0,0,1-.66-.25,2,2,0,0,1-.35-.4,8,8,0,0,1-1.48.64C158.33,91.33,158.25,91.23,158.14,91.12Z"/><polygon class="cls-7" points="161.66 90.86 163.55 90.86 163.55 87.4 163.99 87.4 163.99 88.66 165.97 88.66 165.97 88.99 163.99 88.99 163.99 90.86 166.35 90.86 166.35 91.19 161.66 91.19 161.66 90.86"/><path class="cls-7" d="M167.05,87.6h3.74v.32h-3.74Zm-.47,1.22h4.67v.32h-1.53v1.63c0,.17.1.25.29.25h.42c.23,0,.36-.09.39-.28a5.66,5.66,0,0,0,.07-.59l.42.1a6,6,0,0,1-.1.61c-.06.3-.3.46-.7.46h-.59c-.4,0-.6-.18-.6-.52V89.14h-1v.13a2.26,2.26,0,0,1-.31,1.32,2.67,2.67,0,0,1-1.22.86l-.28-.28a2.58,2.58,0,0,0,1.12-.75,1.86,1.86,0,0,0,.29-1.13v-.15h-1.35Z"/><path class="cls-7" d="M174.52,90.72l.21-.23c.35.15.77.35,1.26.59l-.24.27Q175.06,91,174.52,90.72Zm-1.77-.21.24.24c-.49.26-.91.46-1.28.62a1.7,1.7,0,0,0-.19-.27A10.94,10.94,0,0,0,172.75,90.51Zm2.2-1c.38.28.72.54,1,.8l-.29.23-.29-.26-1.31,0v.53c0,.33-.2.5-.61.5h-.57a2.73,2.73,0,0,0-.06-.34l.56,0q.3,0,.3-.21v-.48l-1.1.05-.56,0-.2-.33a4.2,4.2,0,0,0,.65-.15l1-.37-1.06.07-.37,0-.16-.31a2.55,2.55,0,0,0,.44-.12L173,89h-1.48v-.27h2.13v-.29H172v-.26h1.67v-.28h-1.94v-.26h1.94V87.3H174v.37h2v.26h-2v.28h1.63v.26H174v.29h2.15V89h-2.61c-.32.15-.65.3-1,.44l1.59-.09c.26-.1.51-.21.75-.32l.27.19c-.82.35-1.64.66-2.45.93l2.4-.1a4.78,4.78,0,0,0-.42-.34Z"/><path class="cls-7" d="M178.88,89.16l.3-.19a11.89,11.89,0,0,1,.85,1l-.35.22A11.13,11.13,0,0,0,178.88,89.16Zm-.88-.83h-1.08v1H178Zm-1.08,2.38H178V89.65h-1.08Zm1.54-1.84a5.75,5.75,0,0,0,.77-1.55l.4.09c-.08.21-.16.41-.25.59h1.56c0,1.44-.07,2.34-.1,2.71s-.29.66-.8.66l-.89,0a2,2,0,0,0-.08-.37h0A7.1,7.1,0,0,0,180,91c.29,0,.45-.13.47-.4s.06-1.19.08-2.31h-1.29a5.8,5.8,0,0,1-.44.71A1.7,1.7,0,0,0,178.46,88.87ZM176.53,88H177c.12-.26.21-.49.29-.7l.41.1c-.1.22-.2.41-.3.6h1v3.33H178V91h-1.08v.36h-.39Z"/><path class="cls-7" d="M181.28,89.8l1.15-.18v-.4h-1V89h1v-.3h.35v1.48h-.35v-.21l-1.06.2Zm3.21-1.15h.35V89a6.2,6.2,0,0,0,.92-.3l.13.29a9.73,9.73,0,0,1-1,.29v.28a.21.21,0,0,0,.23.23h.21c.19,0,.3-.06.32-.16a1.68,1.68,0,0,0,.06-.36l.35.12c0,.13-.06.25-.09.35a.52.52,0,0,1-.56.35H185q-.48,0-.48-.51Zm1.56,2.26c-.09.11-.19.22-.28.35a3.25,3.25,0,0,1-2-1.41v1.6h-.36V89.9a3.69,3.69,0,0,1-2,1.39l-.26-.31a3.56,3.56,0,0,0,2.22-1.57v-.94h-2.14V88.2h2.14v-.39l-1.81,0a1.67,1.67,0,0,0-.06-.29q2.41,0,4-.12l.05.29-1.84.07v.4H186v.27h-2.18v.87A3.08,3.08,0,0,0,186.05,90.91Z"/><path class="cls-7" d="M189.76,90.33l.29-.18c.3.3.61.62.93,1l-.34.22A12.84,12.84,0,0,0,189.76,90.33Zm-1-.2.32.2c-.37.4-.72.76-1.06,1.06-.07-.07-.17-.14-.27-.23A8.11,8.11,0,0,0,188.75,90.13ZM190.32,88h-1.71v1.41h1.71Zm-4.18,2.34a5.14,5.14,0,0,0,.74-1.4h-.72v-.29h.77V88l-.67,0a1.77,1.77,0,0,0-.08-.31c.66,0,1.23-.08,1.72-.14l.09.32-.7.06v.69H188v.29h-.72v.59l.19-.15q.3.25.63.57l-.28.21-.54-.54v1.87h-.36V89.59a4.56,4.56,0,0,1-.62,1.09C186.25,90.55,186.2,90.43,186.14,90.31Zm2.1-2.63h2.44v2.18h-.36v-.2h-1.71v.2h-.37Z"/><line class="cls-11" x1="9.76" y1="104.9" x2="16.06" y2="104.9"/><line class="cls-11" x1="9.76" y1="106.79" x2="16.06" y2="106.79"/><line class="cls-11" x1="23.66" y1="105.84" x2="27.57" y2="105.84"/><path class="cls-7" d="M30.66,107.85a.35.35,0,0,0,0,.14c0,.07,0,.11.07.12a.76.76,0,0,0,.35.06h.5c.06,0,.09,0,.1.07s0,0,0,0l0,.08a.15.15,0,0,1-.14.1c-.42,0-.86,0-1.3,0s-.88,0-1.32,0c-.06,0-.08,0-.08-.07v0l0-.08a.12.12,0,0,1,.13-.11h.51a.91.91,0,0,0,.38-.06c.09,0,.15-.11.18-.26l1.16-4.48a2.24,2.24,0,0,1-.55.29,1.73,1.73,0,0,1-.6.11.06.06,0,0,1-.06,0,.05.05,0,0,1,0,0,0,0,0,0,1,0,0l0-.09a.13.13,0,0,1,.14-.1,1.63,1.63,0,0,0,.95-.33,3.2,3.2,0,0,0,.8-.8.12.12,0,0,1,.1-.06h0a.11.11,0,0,1,.08,0v.07Z"/><path class="cls-7" d="M22.68,110.1a5,5,0,0,1,0-8.51h.46a5.27,5.27,0,0,0,0,8.51"/><path class="cls-7" d="M33.3,101.59a5,5,0,0,1,0,8.51h-.47a5.27,5.27,0,0,0,0-8.51"/><line class="cls-12" x1="38.13" y1="100.28" x2="58.1" y2="100.28"/><path class="cls-7" d="M41.65,97.78l-.1.27a2.13,2.13,0,0,1-.16.25,1.3,1.3,0,0,1-.22.19.64.64,0,0,1-.28.07.52.52,0,0,1-.23,0,.34.34,0,0,1-.15-.14.38.38,0,0,1,0-.19v0a.41.41,0,0,1,0-.21c.06-.14.12-.28.17-.43a3.12,3.12,0,0,0,.15-.43,1.57,1.57,0,0,0,.06-.28v-.09a.44.44,0,0,0,0-.16.24.24,0,0,0-.24-.17.8.8,0,0,0-.52.18,1.69,1.69,0,0,0-.37.48l-.39,1.35a.23.23,0,0,1-.1.12.23.23,0,0,1-.14,0,.15.15,0,0,1-.11,0,.09.09,0,0,1,0-.07s0,0,0,0l.44-1.53a1,1,0,0,0,0-.28v-.06a.14.14,0,0,0-.16-.14c-.09,0-.17.06-.23.19a2.49,2.49,0,0,0-.17.47s0,0-.08.06h-.06a0,0,0,0,1,0,0v0c0-.07.05-.15.07-.24a1.23,1.23,0,0,1,.12-.26.65.65,0,0,1,.17-.2.41.41,0,0,1,.25-.08.5.5,0,0,1,.35.12.43.43,0,0,1,.13.29,1.28,1.28,0,0,1,.37-.29,1,1,0,0,1,.48-.12.73.73,0,0,1,.3.06.39.39,0,0,1,.21.17.43.43,0,0,1,.08.27h0a1.12,1.12,0,0,1,0,.31,3.26,3.26,0,0,1-.15.44c0,.15-.11.29-.17.44a.86.86,0,0,0-.09.34c0,.09,0,.14.13.14a.31.31,0,0,0,.19-.06.5.5,0,0,0,.15-.14.66.66,0,0,0,.12-.22,1.06,1.06,0,0,0,.09-.25s0,0,.07,0h.07s0,0,0,0Z"/><path class="cls-7" d="M47.38,97.78a2.57,2.57,0,0,1-.11.27,1,1,0,0,1-.16.25.82.82,0,0,1-.22.19.6.6,0,0,1-.27.07.52.52,0,0,1-.23,0,.29.29,0,0,1-.15-.14.53.53,0,0,1-.06-.19v0a.54.54,0,0,1,0-.21l.18-.43a3.12,3.12,0,0,0,.15-.43c0-.1,0-.19.06-.28v-.09a.88.88,0,0,0,0-.16.24.24,0,0,0-.25-.17.76.76,0,0,0-.51.18,1.53,1.53,0,0,0-.37.48l-.4,1.35a.18.18,0,0,1-.09.12.23.23,0,0,1-.14,0,.14.14,0,0,1-.11,0,.11.11,0,0,1,0-.12l.43-1.53a.79.79,0,0,0,0-.28v-.06a.14.14,0,0,0-.16-.14.25.25,0,0,0-.23.19,2.49,2.49,0,0,0-.17.47.1.1,0,0,1-.08.06h-.06a0,0,0,0,1,0,0v0c0-.07,0-.15.07-.24a2,2,0,0,1,.11-.26,1.12,1.12,0,0,1,.17-.2.45.45,0,0,1,.26-.08.47.47,0,0,1,.34.12.4.4,0,0,1,.14.29,1.28,1.28,0,0,1,.37-.29,1,1,0,0,1,.48-.12.73.73,0,0,1,.3.06.39.39,0,0,1,.21.17.5.5,0,0,1,.08.27h0a1.12,1.12,0,0,1,0,.31,3.26,3.26,0,0,1-.15.44,4.07,4.07,0,0,1-.18.44,1,1,0,0,0-.08.34c0,.09,0,.14.13.14a.33.33,0,0,0,.19-.06.5.5,0,0,0,.15-.14.66.66,0,0,0,.12-.22,1.84,1.84,0,0,0,.09-.25.08.08,0,0,1,.07,0h.07s0,0,0,0Z"/><line class="cls-12" x1="48.78" y1="97.01" x2="52.3" y2="97.01"/><path class="cls-7" d="M54.86,98.15a.19.19,0,0,0,0,.07.08.08,0,0,0,0,.08.57.57,0,0,0,.22,0h.32s.06,0,.06,0v.07a.1.1,0,0,1-.09.06l-.84,0-.84,0s-.05,0-.05,0V98.4a.08.08,0,0,1,.09-.06h.32a.7.7,0,0,0,.24,0,.19.19,0,0,0,.12-.15l.74-2.56a1.58,1.58,0,0,1-.35.16,1.21,1.21,0,0,1-.38.06s0,0,0,0a0,0,0,0,1,0,0v-.06a.1.1,0,0,1,.09-.06,1.09,1.09,0,0,0,.61-.19,1.87,1.87,0,0,0,.51-.46.09.09,0,0,1,.07,0h.07v0Z"/><path class="cls-7" d="M43.84,99.4a2.8,2.8,0,0,1,0-4.77h.25a3,3,0,0,0,0,4.77"/><path class="cls-7" d="M56.33,94.63a2.8,2.8,0,0,1,0,4.77h-.25a3,3,0,0,0,0-4.77"/><path class="cls-7" d="M49.62,102.55a.89.89,0,0,1-.22.37,1.74,1.74,0,0,1-.38.32,4,4,0,0,1-.46.28l-.47.24a2.44,2.44,0,0,0-.49.32,2.49,2.49,0,0,0-.38.42.57.57,0,0,1,.15,0l.3,0,.3,0,.29.06.3,0a.48.48,0,0,0,.23,0,.86.86,0,0,0,.2-.13,1.06,1.06,0,0,0,.17-.2.82.82,0,0,0,.1-.24s0,0,.08-.05h.11s0,0,0,0h0a1.51,1.51,0,0,1-.14.35,1.77,1.77,0,0,1-.21.32,1.28,1.28,0,0,1-.29.23.73.73,0,0,1-.36.08.75.75,0,0,1-.31-.06c-.1,0-.18-.09-.26-.13l-.25-.14a.6.6,0,0,0-.3-.07.24.24,0,0,0-.19.1A.79.79,0,0,0,47,105s0,0-.08,0h-.1s0,0,0,0h0a1.9,1.9,0,0,1,.43-.75,2.49,2.49,0,0,1,.77-.57,3.5,3.5,0,0,0,.71-.47,1.35,1.35,0,0,0,.42-.61,3.38,3.38,0,0,0,.09-.41v-.08a.64.64,0,0,0-.06-.28.45.45,0,0,0-.19-.22.48.48,0,0,0-.29-.09.82.82,0,0,0-.4.1,1.11,1.11,0,0,0-.33.25,1.38,1.38,0,0,0-.26.36,2,2,0,0,0-.18.42.75.75,0,0,0,0,.2.15.15,0,0,0,0,.07c0,.08.05.11.13.11a.32.32,0,0,0,.19,0,.65.65,0,0,0,.16-.13,1,1,0,0,0,.13-.2,1.6,1.6,0,0,0,.1-.23.28.28,0,0,0,0-.09v-.06a1,1,0,0,0-.07-.15,0,0,0,0,1,0,0s0,0,0,0h0l0,0,0,0a.33.33,0,0,1,.1.24.39.39,0,0,1,0,.14,1.72,1.72,0,0,1-.1.26,1.88,1.88,0,0,1-.16.23.68.68,0,0,1-.21.17.5.5,0,0,1-.27.07.39.39,0,0,1-.17,0,.23.23,0,0,1-.1-.12.4.4,0,0,1,0-.15s0,0,0,0a1,1,0,0,1,0-.17,2.67,2.67,0,0,1,.2-.46,1.72,1.72,0,0,1,.31-.4,1.38,1.38,0,0,1,.4-.28,1,1,0,0,1,.48-.11,1.06,1.06,0,0,1,.45.09.92.92,0,0,1,.32.26.83.83,0,0,1,.16.4.57.57,0,0,1,0,.13A1.25,1.25,0,0,1,49.62,102.55Z"/><path class="cls-7" d="M62.5,105.59a.55.55,0,0,1,0-.17,1.21,1.21,0,0,0,0-.18,1,1,0,0,0-.22-.36.48.48,0,0,0-.36-.15.69.69,0,0,0-.4.14,2,2,0,0,0-.36.36,2.84,2.84,0,0,0-.33.65c-.07.22-.14.45-.2.69s-.11.46-.15.68a1.82,1.82,0,0,0,0,.32,1.66,1.66,0,0,0,0,.32.86.86,0,0,0,.16.36.4.4,0,0,0,.33.15.75.75,0,0,0,.44-.15,2,2,0,0,0,.41-.37l.13-.17a.57.57,0,0,0,.12-.18Zm1.2,1.62c0,.13-.07.28-.12.45a1.77,1.77,0,0,1-.18.45,1.17,1.17,0,0,1-.27.35.56.56,0,0,1-.4.14.73.73,0,0,1-.52-.18A.76.76,0,0,1,62,108a2.22,2.22,0,0,1-.51.45,1.12,1.12,0,0,1-.62.19.91.91,0,0,1-.58-.17,1.26,1.26,0,0,1-.36-.43,1.59,1.59,0,0,1-.17-.68v-.07a2.24,2.24,0,0,1,.1-.68,3.86,3.86,0,0,1,.29-.75,2.8,2.8,0,0,1,.51-.69,2.56,2.56,0,0,1,.59-.43,1.38,1.38,0,0,1,.67-.18.69.69,0,0,1,.46.15,1,1,0,0,1,.28.38l0-.06a.3.3,0,0,1,.13-.22.37.37,0,0,1,.22-.08.35.35,0,0,1,.2.07.25.25,0,0,1,0,.15.25.25,0,0,1,0,.08l-.65,2.54c0,.12-.05.24-.07.34v.28a.47.47,0,0,0,.08.19.24.24,0,0,0,.17.06.29.29,0,0,0,.21-.09.6.6,0,0,0,.16-.25,2.35,2.35,0,0,0,.14-.38c0-.14.09-.3.14-.47s0-.08.1-.08h.11s.07,0,.07.05Z"/><path class="cls-7" d="M65.07,109.42a.31.31,0,0,0,0,.08s0,.06,0,.07a.71.71,0,0,0,.22,0h.32s.06,0,.06,0v.07a.07.07,0,0,1-.08,0H63.92s-.06,0-.06,0v0l0,0a.08.08,0,0,1,.08-.06h.33a1,1,0,0,0,.24,0c.06,0,.09-.06.12-.15l.74-2.56A1.41,1.41,0,0,1,65,107a1.27,1.27,0,0,1-.39.06h0s0,0,0,0V107a.07.07,0,0,1,.09,0,1.18,1.18,0,0,0,.61-.19,2.47,2.47,0,0,0,.51-.46l.07,0h0a.05.05,0,0,1,0,0s0,0,0,0,0,0,0,0Z"/><path class="cls-7" d="M67.47,109.77a1.48,1.48,0,0,1-.27.53,2.07,2.07,0,0,1-.48.45h-.08s0,0,0,0a.05.05,0,0,1,0,0,1.93,1.93,0,0,0,.44-.41,1.55,1.55,0,0,0,.26-.49v-.08a.3.3,0,0,1-.11.07l-.15,0a.2.2,0,0,1-.2-.09.15.15,0,0,1,0-.11s0,0,0-.07a.38.38,0,0,1,.13-.18.37.37,0,0,1,.26-.08.21.21,0,0,1,.16,0,.2.2,0,0,1,.08.12s0,.07,0,.11v.06A1.16,1.16,0,0,1,67.47,109.77Z"/><path class="cls-7" d="M72,109.05a1.53,1.53,0,0,1-.11.27.87.87,0,0,1-.16.26.79.79,0,0,1-.22.18.5.5,0,0,1-.27.08.52.52,0,0,1-.23,0,.34.34,0,0,1-.15-.14.38.38,0,0,1,0-.19v0a.52.52,0,0,1,0-.21c.07-.14.12-.29.18-.43a3.66,3.66,0,0,0,.15-.43,1.57,1.57,0,0,0,.06-.28V108a.78.78,0,0,0,0-.16.23.23,0,0,0-.24-.17.77.77,0,0,0-.52.18,1.53,1.53,0,0,0-.37.48l-.4,1.34a.18.18,0,0,1-.09.13.33.33,0,0,1-.14,0,.16.16,0,0,1-.11,0,.08.08,0,0,1,0-.07.11.11,0,0,1,0,0l.44-1.52a1,1,0,0,0,0-.28v-.06a.14.14,0,0,0-.16-.14c-.1,0-.17.06-.23.19a2.49,2.49,0,0,0-.17.47.09.09,0,0,1-.08,0h-.06s0,0,0,0v0c0-.07.05-.15.07-.24a2,2,0,0,1,.11-.26.7.7,0,0,1,.18-.2.39.39,0,0,1,.25-.08.45.45,0,0,1,.34.12.39.39,0,0,1,.14.29,1.52,1.52,0,0,1,.37-.3,1.06,1.06,0,0,1,.48-.11.94.94,0,0,1,.3,0,.51.51,0,0,1,.21.17.43.43,0,0,1,.08.27v0a1.18,1.18,0,0,1,0,.31,3.81,3.81,0,0,1-.15.44c-.05.14-.11.29-.17.44a.82.82,0,0,0-.09.34c0,.09,0,.13.13.13a.41.41,0,0,0,.19,0,.54.54,0,0,0,.15-.15.72.72,0,0,0,.12-.21,1.14,1.14,0,0,0,.09-.26.07.07,0,0,1,.07,0H72s0,0,0,0Z"/><path class="cls-7" d="M76.37,105.84a.56.56,0,1,1-.56-.55A.56.56,0,0,1,76.37,105.84Z"/><path class="cls-7" d="M82.19,105.59l0-.17a1.16,1.16,0,0,0,0-.18,1,1,0,0,0-.22-.36.5.5,0,0,0-.37-.15.72.72,0,0,0-.4.14,2,2,0,0,0-.35.36,2.22,2.22,0,0,0-.33.65,7,7,0,0,0-.2.69c-.06.23-.11.46-.15.68a1.22,1.22,0,0,0,0,.32,1.12,1.12,0,0,0,0,.32.75.75,0,0,0,.16.36.39.39,0,0,0,.33.15.8.8,0,0,0,.44-.15,2,2,0,0,0,.4-.37,2.09,2.09,0,0,0,.14-.17,1.4,1.4,0,0,0,.12-.18Zm1.21,1.62q-.06.2-.12.45a3,3,0,0,1-.18.45,1.17,1.17,0,0,1-.27.35.59.59,0,0,1-.41.14.75.75,0,0,1-.52-.18.76.76,0,0,1-.24-.46,2.22,2.22,0,0,1-.51.45,1.08,1.08,0,0,1-.62.19.88.88,0,0,1-.57-.17,1.18,1.18,0,0,1-.37-.43,1.58,1.58,0,0,1-.16-.68v-.07a2.59,2.59,0,0,1,.09-.68,3.91,3.91,0,0,1,.3-.75,2.8,2.8,0,0,1,.51-.69,2.56,2.56,0,0,1,.59-.43,1.37,1.37,0,0,1,.66-.18.72.72,0,0,1,.47.15,1.17,1.17,0,0,1,.28.38V105a.34.34,0,0,1,.14-.22.37.37,0,0,1,.21-.08.32.32,0,0,1,.2.07.25.25,0,0,1,0,.15V105l-.66,2.54a2.45,2.45,0,0,0-.06.34.86.86,0,0,0,0,.15.57.57,0,0,0,0,.13.37.37,0,0,0,.08.19.24.24,0,0,0,.17.06.32.32,0,0,0,.21-.09.72.72,0,0,0,.16-.25,3.94,3.94,0,0,0,.14-.38c0-.14.09-.3.13-.47s0-.08.11-.08h.1c.05,0,.08,0,.08.05Z"/><path class="cls-7" d="M86.39,107.45a1,1,0,0,1-.22.37,2.47,2.47,0,0,1-.38.32,5.11,5.11,0,0,1-.46.28l-.47.23a2.17,2.17,0,0,0-.5.33,1.86,1.86,0,0,0-.37.42.29.29,0,0,1,.14,0,1.55,1.55,0,0,1,.31,0l.29,0,.29,0a1.55,1.55,0,0,0,.31,0,.59.59,0,0,0,.22,0,.77.77,0,0,0,.21-.14.82.82,0,0,0,.17-.2.94.94,0,0,0,.1-.23.08.08,0,0,1,.08,0h.11v0s0,0,0,0a1.7,1.7,0,0,1-.14.35,1.66,1.66,0,0,1-.22.32.89.89,0,0,1-.29.22.7.7,0,0,1-.35.09.83.83,0,0,1-.32-.06l-.26-.14-.25-.14a.65.65,0,0,0-.29-.06.24.24,0,0,0-.19.1.64.64,0,0,0-.13.26s0,0-.08,0h-.1s0,0,0,0h0a1.9,1.9,0,0,1,.43-.75,2.44,2.44,0,0,1,.76-.58,3,3,0,0,0,.72-.46,1.4,1.4,0,0,0,.42-.61A2.12,2.12,0,0,0,86,107V107a.68.68,0,0,0,0-.29.5.5,0,0,0-.19-.22.48.48,0,0,0-.3-.08.86.86,0,0,0-.39.09,1.31,1.31,0,0,0-.33.25,1.83,1.83,0,0,0-.26.36,1.9,1.9,0,0,0-.18.42.88.88,0,0,0,0,.21.17.17,0,0,0,0,.07.12.12,0,0,0,.13.11.41.41,0,0,0,.19,0,.7.7,0,0,0,.16-.14,1.56,1.56,0,0,0,.13-.19,1.33,1.33,0,0,0,.1-.24.25.25,0,0,0,0-.08.15.15,0,0,0,0-.07.35.35,0,0,0-.06-.14v0a.05.05,0,0,1,0,0h0l.06,0,0,0a.35.35,0,0,1,.09.23.32.32,0,0,1,0,.14,1.19,1.19,0,0,1-.11.26,1,1,0,0,1-.15.24.62.62,0,0,1-.22.17.58.58,0,0,1-.26.06.32.32,0,0,1-.18,0,.27.27,0,0,1-.09-.12.32.32,0,0,1,0-.14s0,0,0,0a.55.55,0,0,1,0-.18,2.22,2.22,0,0,1,.2-.45,1.68,1.68,0,0,1,.3-.4,1.46,1.46,0,0,1,.41-.29,1.13,1.13,0,0,1,.48-.11,1.06,1.06,0,0,1,.45.1.82.82,0,0,1,.32.26.83.83,0,0,1,.16.39.62.62,0,0,1,0,.13A1.26,1.26,0,0,1,86.39,107.45Z"/><path class="cls-7" d="M87.37,109.77a1.48,1.48,0,0,1-.27.53,2.07,2.07,0,0,1-.48.45h-.08s0,0,0,0a.05.05,0,0,1,0,0,1.93,1.93,0,0,0,.44-.41,1.52,1.52,0,0,0,.25-.49l0-.08a.41.41,0,0,1-.11.07l-.15,0a.2.2,0,0,1-.2-.09.15.15,0,0,1,0-.11s0,0,0-.07a.38.38,0,0,1,.13-.18.37.37,0,0,1,.26-.08.21.21,0,0,1,.16,0,.25.25,0,0,1,.08.12s0,.07,0,.11v.06A1.16,1.16,0,0,1,87.37,109.77Z"/><path class="cls-7" d="M91.92,109.05a1.48,1.48,0,0,1-.1.27,1.13,1.13,0,0,1-.16.26,1,1,0,0,1-.22.18.51.51,0,0,1-.28.08.56.56,0,0,1-.23,0,.38.38,0,0,1-.14-.14.53.53,0,0,1-.06-.19v0a.54.54,0,0,1,0-.21l.18-.43.15-.43c0-.1,0-.19,0-.28a.28.28,0,0,0,0-.09.78.78,0,0,0,0-.16.23.23,0,0,0-.25-.17.76.76,0,0,0-.51.18,1.72,1.72,0,0,0-.38.48l-.39,1.34a.18.18,0,0,1-.09.13.37.37,0,0,1-.14,0,.13.13,0,0,1-.11,0,.08.08,0,0,1,0-.07.11.11,0,0,1,0,0l.43-1.52a1.11,1.11,0,0,0,0-.28v-.06a.14.14,0,0,0-.16-.14c-.1,0-.18.06-.24.19a2.55,2.55,0,0,0-.16.47.09.09,0,0,1-.08,0H89s0,0,0,0v0c0-.07.05-.15.08-.24a1.19,1.19,0,0,1,.11-.26.67.67,0,0,1,.17-.2.41.41,0,0,1,.25-.08.48.48,0,0,1,.35.12.42.42,0,0,1,.14.29,1.52,1.52,0,0,1,.37-.3,1,1,0,0,1,.48-.11,1,1,0,0,1,.3,0,.51.51,0,0,1,.21.17.5.5,0,0,1,.08.27v0a1.18,1.18,0,0,1,0,.31c0,.15-.09.29-.15.44l-.18.44a.82.82,0,0,0-.09.34c0,.09,0,.13.14.13a.41.41,0,0,0,.19,0,.71.71,0,0,0,.15-.15,2,2,0,0,0,.12-.21l.09-.26a.05.05,0,0,1,.06,0h.07s0,0,0,0Z"/><line class="cls-12" x1="93.4" y1="108.29" x2="96.93" y2="108.29"/><path class="cls-7" d="M99.48,109.42a.31.31,0,0,0,0,.08.07.07,0,0,0,.05.07.78.78,0,0,0,.22,0h.33s.06,0,.06,0v.07a.09.09,0,0,1-.09,0H98.33s0,0,0,0v-.07a.08.08,0,0,1,.09-.06h.32a1.18,1.18,0,0,0,.25,0s.09-.06.11-.15l.74-2.56a1.26,1.26,0,0,1-.35.17,1.21,1.21,0,0,1-.38.06h0a0,0,0,0,1,0,0V107a.08.08,0,0,1,.09,0,1.15,1.15,0,0,0,.61-.19,2.29,2.29,0,0,0,.52-.46l.07,0h0l0,0s0,0,0,0,0,0,0,0Z"/><path class="cls-7" d="M104.85,105.84a.56.56,0,1,1-.55-.55A.56.56,0,0,1,104.85,105.84Z"/><path class="cls-7" d="M110.68,105.59l0-.17a1.21,1.21,0,0,0-.05-.18,1.07,1.07,0,0,0-.21-.36.5.5,0,0,0-.37-.15.69.69,0,0,0-.4.14,1.71,1.71,0,0,0-.35.36,2.53,2.53,0,0,0-.34.65c-.07.22-.14.45-.2.69s-.11.46-.15.68a1.82,1.82,0,0,0,0,.32,1.66,1.66,0,0,0,0,.32.86.86,0,0,0,.16.36.4.4,0,0,0,.33.15.75.75,0,0,0,.44-.15,1.79,1.79,0,0,0,.41-.37l.14-.17.12-.18Zm1.2,1.62q0,.2-.12.45a2.2,2.2,0,0,1-.17.45,1.39,1.39,0,0,1-.28.35.56.56,0,0,1-.4.14.73.73,0,0,1-.52-.18.76.76,0,0,1-.24-.46,2.22,2.22,0,0,1-.51.45,1.1,1.1,0,0,1-.62.19.93.93,0,0,1-.58-.17,1.26,1.26,0,0,1-.36-.43,1.75,1.75,0,0,1-.17-.68v-.07a2.6,2.6,0,0,1,.1-.68,3.91,3.91,0,0,1,.3-.75,2.53,2.53,0,0,1,.5-.69,2.79,2.79,0,0,1,.59-.43,1.38,1.38,0,0,1,.67-.18.69.69,0,0,1,.46.15.94.94,0,0,1,.28.38l0-.06a.33.33,0,0,1,.13-.22.37.37,0,0,1,.22-.08.32.32,0,0,1,.2.07.25.25,0,0,1,.05.15.25.25,0,0,1,0,.08l-.65,2.54a2.45,2.45,0,0,0-.06.34.86.86,0,0,0,0,.15.57.57,0,0,0,0,.13.37.37,0,0,0,.08.19.22.22,0,0,0,.17.06.28.28,0,0,0,.2-.09.72.72,0,0,0,.17-.25c0-.11.09-.23.13-.38s.09-.3.14-.47.05-.08.11-.08h.1s.07,0,.07.05Z"/><path class="cls-7" d="M115.15,109.05c0,.09-.07.18-.11.27a.87.87,0,0,1-.16.26,1,1,0,0,1-.22.18.51.51,0,0,1-.28.08.59.59,0,0,1-.23,0,.38.38,0,0,1-.14-.14.53.53,0,0,1-.06-.19v0a.54.54,0,0,1,0-.21l.18-.43.15-.43c0-.1,0-.19,0-.28a.28.28,0,0,0,0-.09.78.78,0,0,0,0-.16.23.23,0,0,0-.25-.17.76.76,0,0,0-.51.18,1.72,1.72,0,0,0-.38.48l-.39,1.34a.18.18,0,0,1-.09.13.37.37,0,0,1-.14,0,.14.14,0,0,1-.11,0,.08.08,0,0,1,0-.07.11.11,0,0,1,0,0l.43-1.52a1.11,1.11,0,0,0,0-.28v-.06a.14.14,0,0,0-.16-.14c-.1,0-.18.06-.24.19a3.61,3.61,0,0,0-.16.47.09.09,0,0,1-.08,0h-.06s0,0,0,0v0c0-.07,0-.15.07-.24a2,2,0,0,1,.11-.26.85.85,0,0,1,.17-.2.45.45,0,0,1,.26-.08.47.47,0,0,1,.34.12.39.39,0,0,1,.14.29,1.52,1.52,0,0,1,.37-.3,1.06,1.06,0,0,1,.48-.11.94.94,0,0,1,.3,0,.51.51,0,0,1,.21.17.5.5,0,0,1,.08.27v0a1.18,1.18,0,0,1,0,.31,3.81,3.81,0,0,1-.15.44c-.06.14-.11.29-.18.44a.79.79,0,0,0-.08.34c0,.09,0,.13.13.13a.41.41,0,0,0,.19,0,.54.54,0,0,0,.15-.15,1.05,1.05,0,0,0,.12-.21,2,2,0,0,0,.09-.26.05.05,0,0,1,.06,0h.08s0,0,0,0Z"/><path class="cls-7" d="M116.23,109.77a1.69,1.69,0,0,1-.28.53,2.07,2.07,0,0,1-.48.45h-.08a0,0,0,0,1,0,0,.05.05,0,0,1,0,0,1.87,1.87,0,0,0,.43-.41,1.55,1.55,0,0,0,.26-.49l0-.08-.12.07-.15,0a.22.22,0,0,1-.2-.09.2.2,0,0,1,0-.11.2.2,0,0,1,0-.07.36.36,0,0,1,.12-.18.38.38,0,0,1,.26-.08.21.21,0,0,1,.16,0,.2.2,0,0,1,.08.12.41.41,0,0,1,0,.11v.06Z"/><path class="cls-7" d="M119.21,109.42a.31.31,0,0,0,0,.08.07.07,0,0,0,0,.07.8.8,0,0,0,.23,0h.32a.05.05,0,0,1,.06,0s0,0,0,0v0a.09.09,0,0,1-.09,0h-1.68s0,0,0,0v-.07a.08.08,0,0,1,.09-.06h.32a1.18,1.18,0,0,0,.25,0s.09-.06.11-.15l.74-2.56a1.26,1.26,0,0,1-.35.17,1.21,1.21,0,0,1-.38.06h0a0,0,0,0,1,0,0V107a.08.08,0,0,1,.09,0,1.15,1.15,0,0,0,.61-.19,2,2,0,0,0,.51-.46l.07,0h0l0,0v0Z"/></g></g><line class="cls-4" x1="180.39" y1="78.48" x2="113.64" y2="78.48"/></g></svg>