<svg id="图层_1" data-name="图层 1" xmlns="http://www.w3.org/2000/svg" xmlns:xlink="http://www.w3.org/1999/xlink" viewBox="0 0 165.6 93.6"><defs><style>.cls-1,.cls-7,.cls-8,.cls-9{fill:none;}.cls-2{clip-path:url(#clip-path);}.cls-3{fill:#fff;}.cls-4{clip-path:url(#clip-path-3);}.cls-5{clip-path:url(#clip-path-4);}.cls-6{fill-rule:evenodd;}.cls-7,.cls-8,.cls-9{stroke:#000;stroke-miterlimit:10;}.cls-7{stroke-width:0.18px;}.cls-8,.cls-9{stroke-linecap:round;}.cls-8{stroke-width:0.43px;}.cls-9{stroke-width:0.36px;}</style><clipPath id="clip-path"><rect class="cls-1" x="-400.8" y="-224.4" width="960" height="540"/></clipPath><clipPath id="clip-path-3"><rect class="cls-1" x="-4.08" y="-5.04" width="166.56" height="101.28"/></clipPath><clipPath id="clip-path-4"><rect class="cls-1" x="-4.08" y="-5.05" width="166.56" height="101.29"/></clipPath></defs><g class="cls-2"><g class="cls-2"><rect class="cls-3" x="-400.8" y="-224.4" width="960" height="540"/></g><g class="cls-4"><g class="cls-5"><path class="cls-6" d="M10.26,10.82a.35.35,0,0,0,0,.14c0,.07,0,.11.07.13a1.17,1.17,0,0,0,.35.06h.51c.06,0,.09,0,.09.07a.06.06,0,0,1,0,0l0,.08a.13.13,0,0,1-.13.1c-.43,0-.87,0-1.31,0l-1.32,0c-.05,0-.08,0-.08-.07v0l0-.08a.13.13,0,0,1,.13-.11H9a1.43,1.43,0,0,0,.38-.06q.13,0,.18-.27l1.16-4.47a2.64,2.64,0,0,1-.55.29,1.72,1.72,0,0,1-.6.1l-.06,0a.08.08,0,0,1,0,0s0,0,0,0l0-.08a.14.14,0,0,1,.14-.11,1.6,1.6,0,0,0,1-.32,3.57,3.57,0,0,0,.8-.8.14.14,0,0,1,.11-.07h0a.09.09,0,0,1,.07,0s0,0,0,0,0,0,0,0Z"/><path class="cls-6" d="M23.75,7.36a1.49,1.49,0,0,1-.34.66,4,4,0,0,1-.59.56q-.34.26-.72.48l-.74.42a4,4,0,0,0-.77.56,3.49,3.49,0,0,0-.59.74.52.52,0,0,1,.23,0,2.42,2.42,0,0,1,.47,0l.47.09.45.09a2.42,2.42,0,0,0,.47,0,.8.8,0,0,0,.36-.09,1.41,1.41,0,0,0,.32-.24,1.52,1.52,0,0,0,.26-.35,1.62,1.62,0,0,0,.17-.41.1.1,0,0,1,.11-.08h.11l.07,0s0,0,0,0v0a5.11,5.11,0,0,1-.22.62,2.4,2.4,0,0,1-.34.55,1.55,1.55,0,0,1-.45.4,1.08,1.08,0,0,1-.55.15,1,1,0,0,1-.5-.11,3.81,3.81,0,0,1-.4-.23l-.39-.25a1,1,0,0,0-.47-.12.41.41,0,0,0-.29.18,1.34,1.34,0,0,0-.21.45c0,.06-.05.08-.12.08h-.09l-.07,0,0,0v0a3.48,3.48,0,0,1,.67-1.31,3.85,3.85,0,0,1,1.19-1,4.82,4.82,0,0,0,1.12-.82A2.24,2.24,0,0,0,23,7.36a3.71,3.71,0,0,0,.14-.71V6.51a1.64,1.64,0,0,0-.08-.5.88.88,0,0,0-.3-.38.73.73,0,0,0-.46-.15,1.22,1.22,0,0,0-.62.16,2.14,2.14,0,0,0-.52.44,2.85,2.85,0,0,0-.41.63,5.05,5.05,0,0,0-.27.74,1.18,1.18,0,0,0,0,.35.53.53,0,0,0,0,.13c0,.13.09.19.2.19A.53.53,0,0,0,21,8a.9.9,0,0,0,.25-.23,1.63,1.63,0,0,0,.21-.34A2.6,2.6,0,0,0,21.56,7a.77.77,0,0,0,0-.15.41.41,0,0,0,0-.11.77.77,0,0,0-.1-.25s0,0,0,0a.1.1,0,0,1,.05-.08l0,0,.08,0a.1.1,0,0,1,.05,0,.63.63,0,0,1,.15.41.67.67,0,0,1,0,.24,2.54,2.54,0,0,1-.17.46,2.33,2.33,0,0,1-.24.41,1.55,1.55,0,0,1-.33.3.78.78,0,0,1-.42.11.41.41,0,0,1-.27-.07A.41.41,0,0,1,20.19,8a1,1,0,0,1-.05-.25s0,0,0,0a1.54,1.54,0,0,1,0-.3,4.89,4.89,0,0,1,.31-.8A3.1,3.1,0,0,1,21,6a2.48,2.48,0,0,1,.63-.5,1.55,1.55,0,0,1,.75-.19,1.49,1.49,0,0,1,.71.17,1.44,1.44,0,0,1,.5.45,1.85,1.85,0,0,1,.25.69,1.85,1.85,0,0,1,0,.23A1.77,1.77,0,0,1,23.75,7.36Z"/><path class="cls-6" d="M35.25,6.85a1.67,1.67,0,0,1-.29.62,2.16,2.16,0,0,1-.51.54,2.48,2.48,0,0,1-.7.37,1.15,1.15,0,0,1,.51.38,1.3,1.3,0,0,1,.24.55,1.64,1.64,0,0,1,0,.23,1.22,1.22,0,0,1-.07.41,1.81,1.81,0,0,1-.31.66,2.26,2.26,0,0,1-.57.54,3,3,0,0,1-.73.37,2.58,2.58,0,0,1-.77.12,1.34,1.34,0,0,1-.58-.12,1.09,1.09,0,0,1-.41-.32,1,1,0,0,1-.21-.49,1.55,1.55,0,0,1,0-.21,1.34,1.34,0,0,1,.07-.39.41.41,0,0,1,.19-.28.54.54,0,0,1,.28-.09.41.41,0,0,1,.25.08.27.27,0,0,1,.06.17.25.25,0,0,1,0,.12.49.49,0,0,1-.2.3.72.72,0,0,1-.27.07h0a1,1,0,0,0,.27.69.93.93,0,0,0,.71.27,1.44,1.44,0,0,0,.53-.11,2,2,0,0,0,.49-.31,1.72,1.72,0,0,0,.36-.49,4,4,0,0,0,.2-.58,3.82,3.82,0,0,0,.11-.57V9.24a1,1,0,0,0-.06-.35.64.64,0,0,0-.24-.3.65.65,0,0,0-.37-.12h-.5s-.07,0-.07-.06v0l0-.1a.1.1,0,0,1,.11-.08h.49a1.17,1.17,0,0,0,.47-.1,1.27,1.27,0,0,0,.44-.28,1.54,1.54,0,0,0,.33-.44,3,3,0,0,0,.19-.53,2,2,0,0,0,.08-.53v0a.81.81,0,0,0-.11-.43.69.69,0,0,0-.28-.28.8.8,0,0,0-.41-.1,1.65,1.65,0,0,0-.58.1,1.86,1.86,0,0,0-.52.28,1.81,1.81,0,0,0-.41.42,1.5,1.5,0,0,0-.26.52,1.2,1.2,0,0,0,0,.24.5.5,0,0,0,0,.19.25.25,0,0,0,.25.18.52.52,0,0,0,.33-.12.54.54,0,0,0,.2-.31.28.28,0,0,0,0-.13.53.53,0,0,0-.12-.32.09.09,0,0,1,0,0,.08.08,0,0,1,0-.07l0,0,.08,0,.06,0a.91.91,0,0,1,.13.26.39.39,0,0,1,0,.15.57.57,0,0,1,0,.18.87.87,0,0,1-.82.65.54.54,0,0,1-.27-.07.42.42,0,0,1-.16-.19.59.59,0,0,1,0-.27,0,0,0,0,1,0,0,1.24,1.24,0,0,1,0-.27,1.66,1.66,0,0,1,.3-.61,2.32,2.32,0,0,1,.5-.49,2.43,2.43,0,0,1,.62-.32A1.93,1.93,0,0,1,34,5.26a1.56,1.56,0,0,1,.62.12,1.15,1.15,0,0,1,.46.35,1.22,1.22,0,0,1,.24.5,2.32,2.32,0,0,1,0,.24A1.73,1.73,0,0,1,35.25,6.85Z"/><path class="cls-6" d="M10.26,23.29a.39.39,0,0,0,0,.14c0,.07,0,.11.07.13a1.17,1.17,0,0,0,.35.06h.51q.09,0,.09.06a.06.06,0,0,1,0,0l0,.08a.13.13,0,0,1-.13.1c-.43,0-.87,0-1.31,0s-.88,0-1.32,0c-.05,0-.08,0-.08-.07v0l0-.08a.12.12,0,0,1,.13-.1H9a1.43,1.43,0,0,0,.38-.06q.13,0,.18-.27l1.16-4.47a2.64,2.64,0,0,1-.55.29,1.72,1.72,0,0,1-.6.1s0,0-.06,0a.08.08,0,0,1,0,0s0,0,0,0l0-.08a.12.12,0,0,1,.14-.1,1.61,1.61,0,0,0,1-.33,3.57,3.57,0,0,0,.8-.8.14.14,0,0,1,.11-.07h0a.09.09,0,0,1,.07,0s0,0,0,0v0Z"/><path class="cls-6" d="M21.5,23.29a.39.39,0,0,0,0,.14c0,.07,0,.11.07.13a1.17,1.17,0,0,0,.35.06h.5c.06,0,.09,0,.1.06s0,0,0,0l0,.08a.15.15,0,0,1-.14.1c-.43,0-.86,0-1.31,0l-1.32,0c-.05,0-.08,0-.08-.07v0l0-.08a.13.13,0,0,1,.14-.1h.51a1.43,1.43,0,0,0,.38-.06q.12,0,.18-.27L22,18.82a2.35,2.35,0,0,1-.54.29,1.76,1.76,0,0,1-.6.1s-.05,0-.06,0a0,0,0,0,1,0,0s0,0,0,0l0-.08a.12.12,0,0,1,.13-.1,1.64,1.64,0,0,0,1-.33,3.53,3.53,0,0,0,.79-.8.15.15,0,0,1,.11-.07h0a.08.08,0,0,1,.07,0s0,0,0,0a0,0,0,0,1,0,0Z"/><path class="cls-6" d="M32.73,23.29a.39.39,0,0,0,0,.14.13.13,0,0,0,.08.13,1.05,1.05,0,0,0,.35.06h.5q.09,0,.09.06a.06.06,0,0,1,0,0l0,.08a.13.13,0,0,1-.13.1c-.43,0-.87,0-1.31,0s-.88,0-1.32,0c-.05,0-.08,0-.08-.07v0l0-.08a.12.12,0,0,1,.14-.1h.5a1.43,1.43,0,0,0,.38-.06q.13,0,.18-.27l1.16-4.47a2.64,2.64,0,0,1-.55.29,1.72,1.72,0,0,1-.6.1s0,0-.06,0a.08.08,0,0,1,0,0s0,0,0,0L32,19a.12.12,0,0,1,.14-.1,1.59,1.59,0,0,0,.95-.33,3.38,3.38,0,0,0,.8-.8.15.15,0,0,1,.11-.07h0a.09.09,0,0,1,.07,0s0,0,0,0a0,0,0,0,1,0,0Z"/><path class="cls-6" d="M11.59,35.12a.84.84,0,0,0,0-.27.77.77,0,0,0,0-.27.82.82,0,0,0-.28-.41l-.93-.77a3,3,0,0,0-.91.67A2.13,2.13,0,0,0,9,35a1.32,1.32,0,0,0,0,.33.9.9,0,0,0,0,.18,1,1,0,0,0,.17.44.92.92,0,0,0,.36.28,1,1,0,0,0,.49.11,1.7,1.7,0,0,0,.54-.09A1.83,1.83,0,0,0,11,36a2,2,0,0,0,.38-.38A1.19,1.19,0,0,0,11.59,35.12Zm.73-3.53a1.35,1.35,0,0,0,0-.29c0-.05,0-.11,0-.16a.85.85,0,0,0-.16-.36.76.76,0,0,0-.31-.25.94.94,0,0,0-.43-.09,1.19,1.19,0,0,0-.45.08,1.56,1.56,0,0,0-.43.21,1.22,1.22,0,0,0-.33.31,1.2,1.2,0,0,0-.2.39,2,2,0,0,0,0,.23.78.78,0,0,0,0,.22.67.67,0,0,0,.23.34l.84.68a2.82,2.82,0,0,0,.76-.56A1.7,1.7,0,0,0,12.32,31.59Zm.42,0a1.73,1.73,0,0,1-.55.86,4.13,4.13,0,0,1-.92.59l.47.38a1.15,1.15,0,0,1,.4.61,1.39,1.39,0,0,1,.06.4,1.64,1.64,0,0,1-.06.42,2.23,2.23,0,0,1-.32.68,2.51,2.51,0,0,1-.53.55,2.25,2.25,0,0,1-.68.37,2.1,2.1,0,0,1-.74.13,2,2,0,0,1-.66-.11,1.41,1.41,0,0,1-.49-.33,1,1,0,0,1-.25-.52.86.86,0,0,1-.05-.27A1.56,1.56,0,0,1,8.47,35a2,2,0,0,1,.65-1,4.2,4.2,0,0,1,1.1-.7L9.89,33a1,1,0,0,1-.35-.54,1.25,1.25,0,0,1,0-.32,1.44,1.44,0,0,1,.06-.4,2,2,0,0,1,.28-.6,2.14,2.14,0,0,1,.46-.49,2.23,2.23,0,0,1,.58-.33,1.82,1.82,0,0,1,.65-.12,1.56,1.56,0,0,1,.57.11,1.17,1.17,0,0,1,.43.29.94.94,0,0,1,.23.43,1,1,0,0,1,0,.24A1.82,1.82,0,0,1,12.74,31.59Z"/><path class="cls-6" d="M22.83,35.12a1.24,1.24,0,0,0,0-.27,1.12,1.12,0,0,0,0-.27.78.78,0,0,0-.29-.41l-.92-.77a2.87,2.87,0,0,0-.91.67,2.15,2.15,0,0,0-.53.92,2,2,0,0,0,0,.33,1,1,0,0,0,0,.18,1.08,1.08,0,0,0,.18.44,1,1,0,0,0,.35.28,1,1,0,0,0,.49.11,1.85,1.85,0,0,0,1.43-.73A1.34,1.34,0,0,0,22.83,35.12Zm.72-3.53a.92.92,0,0,0,0-.29.86.86,0,0,0,0-.16.73.73,0,0,0-.15-.36.76.76,0,0,0-.31-.25,1,1,0,0,0-.43-.09,1.28,1.28,0,0,0-.46.08,1.65,1.65,0,0,0-.42.21,1.22,1.22,0,0,0-.33.31,1,1,0,0,0-.2.39,1,1,0,0,0,0,.23.78.78,0,0,0,0,.22.67.67,0,0,0,.23.34l.83.68a2.87,2.87,0,0,0,.77-.56A1.59,1.59,0,0,0,23.55,31.59Zm.42,0a1.71,1.71,0,0,1-.54.86,4.13,4.13,0,0,1-.92.59l.47.38a1.21,1.21,0,0,1,.4.61,2.76,2.76,0,0,1,.06.4,1.64,1.64,0,0,1-.06.42,2.49,2.49,0,0,1-.32.68,2.76,2.76,0,0,1-.53.55,2.38,2.38,0,0,1-.68.37,2.14,2.14,0,0,1-.74.13,1.94,1.94,0,0,1-.66-.11,1.32,1.32,0,0,1-.49-.33,1,1,0,0,1-.26-.52.84.84,0,0,1,0-.27,1.16,1.16,0,0,1,.05-.36,2,2,0,0,1,.65-1,4.14,4.14,0,0,1,1.09-.7L21.13,33a1.12,1.12,0,0,1-.36-.54,1.87,1.87,0,0,1,0-.32,1.9,1.9,0,0,1,.05-.4,2.08,2.08,0,0,1,.29-.6,2.14,2.14,0,0,1,.46-.49,2.08,2.08,0,0,1,.58-.33,1.77,1.77,0,0,1,.64-.12,1.48,1.48,0,0,1,.57.11,1,1,0,0,1,.43.29A.88.88,0,0,1,24,31a1.94,1.94,0,0,1,0,.24A1.22,1.22,0,0,1,24,31.59Z"/><path class="cls-6" d="M34.06,35.12a.84.84,0,0,0,0-.27.86.86,0,0,0-.32-.68l-.93-.77a3,3,0,0,0-.91.67,2.13,2.13,0,0,0-.52.92,1.32,1.32,0,0,0-.05.33.9.9,0,0,0,0,.18,1,1,0,0,0,.17.44.92.92,0,0,0,.36.28,1,1,0,0,0,.49.11,1.8,1.8,0,0,0,1.42-.73A1.19,1.19,0,0,0,34.06,35.12Zm.73-3.53a1.35,1.35,0,0,0,0-.29c0-.05,0-.11,0-.16a.85.85,0,0,0-.16-.36.81.81,0,0,0-.3-.25,1,1,0,0,0-.43-.09,1.24,1.24,0,0,0-.46.08,1.56,1.56,0,0,0-.43.21,1.6,1.6,0,0,0-.33.31,1,1,0,0,0-.19.39,1,1,0,0,0,0,.23.54.54,0,0,0,0,.22.61.61,0,0,0,.23.34l.83.68a2.82,2.82,0,0,0,.76-.56A1.61,1.61,0,0,0,34.79,31.59Zm.42,0a1.73,1.73,0,0,1-.55.86,3.92,3.92,0,0,1-.92.59l.47.38a1.15,1.15,0,0,1,.4.61,1.39,1.39,0,0,1,.06.4,1.64,1.64,0,0,1-.06.42,2,2,0,0,1-.32.68,2.3,2.3,0,0,1-.53.55,2.14,2.14,0,0,1-.68.37,2.1,2.1,0,0,1-.74.13,2,2,0,0,1-.66-.11,1.41,1.41,0,0,1-.49-.33,1,1,0,0,1-.25-.52.86.86,0,0,1-.05-.27A1.18,1.18,0,0,1,31,35a1.94,1.94,0,0,1,.64-1,4.2,4.2,0,0,1,1.1-.7L32.37,33a1,1,0,0,1-.36-.54,1.25,1.25,0,0,1,0-.32,1.44,1.44,0,0,1,.06-.4,2,2,0,0,1,.28-.6,2.39,2.39,0,0,1,.46-.49,2.23,2.23,0,0,1,.58-.33A1.87,1.87,0,0,1,34,30.2a1.48,1.48,0,0,1,.57.11,1.09,1.09,0,0,1,.43.29,1.07,1.07,0,0,1,.24.43,1.93,1.93,0,0,1,0,.24A1.82,1.82,0,0,1,35.21,31.59Z"/><line class="cls-7" x1="7.54" y1="27.52" x2="34.95" y2="27.52"/><line class="cls-8" x1="5.97" y1="4.85" x2="5.97" y2="37.72"/><line class="cls-8" x1="37.12" y1="37.72" x2="37.12" y2="4.85"/><path class="cls-6" d="M45.32,20h.35c-.3.35-.52.6-.66.74s-.38.35-.72.64h7.33l-.16.45H44.13a3.35,3.35,0,0,1,.43,1.38H44.2a5.43,5.43,0,0,0-.67-1,2.94,2.94,0,0,0-.69-.54l.07-.21a5.9,5.9,0,0,0,1-.5A14,14,0,0,0,45.32,20Z"/><path class="cls-6" d="M59.45,20.76H57.36v.71h2.09Zm-5,2h2.28V22H54.67Zm3.6-4.62h.67c-.12.25-.23.48-.36.7H60.8v.47H58.86c.22.21.43.43.63.65l-.44.33h1v2h-.59V22H57.36v.75h3.09c0,.45-.05.87-.08,1.28a.87.87,0,0,1-1,.94H58.23c0-.18-.08-.38-.13-.59.5,0,.89,0,1.17,0a.43.43,0,0,0,.49-.44c0-.24.05-.47.06-.71H57.36v2.29h-.62V23.42a6.74,6.74,0,0,1-3.23,1.93c-.09-.15-.2-.31-.32-.48a6.74,6.74,0,0,0,3-1.63H53.82v-.51l.37-1.26h2.55v-.71H54.05v-.5h1.51c-.21-.27-.42-.52-.64-.76l.31-.22h-.56a7.26,7.26,0,0,1-1.06,1.09,4.65,4.65,0,0,0-.39-.41,5,5,0,0,0,1.5-1.85h.67a5.3,5.3,0,0,1-.4.7h2.24v.47H55.38l.62.65-.43.33H59c-.2-.27-.41-.52-.61-.75l.33-.23h-.66a6.07,6.07,0,0,1-.64.83,3.74,3.74,0,0,0-.47-.36A5.32,5.32,0,0,0,58.06,18.11Z"/><path class="cls-6" d="M66.32,19.83a1.6,1.6,0,0,1-.34.66,4.52,4.52,0,0,1-.59.56,7.67,7.67,0,0,1-.73.48l-.73.42a3.73,3.73,0,0,0-.78.57,3.16,3.16,0,0,0-.58.73.48.48,0,0,1,.22-.05,2.52,2.52,0,0,1,.48.05l.46.09.46.09a2.26,2.26,0,0,0,.47.05.73.73,0,0,0,.35-.09,1.27,1.27,0,0,0,.33-.24,1.33,1.33,0,0,0,.26-.35,1.46,1.46,0,0,0,.16-.41c0-.05,0-.07.12-.08H66l.07,0s0,0,0,0v0a3.48,3.48,0,0,1-.21.62,3,3,0,0,1-.34.55A1.58,1.58,0,0,1,65,24a1.06,1.06,0,0,1-.55.15A1,1,0,0,1,64,24a4,4,0,0,1-.41-.23l-.39-.25a1,1,0,0,0-.46-.11.39.39,0,0,0-.3.17,1.3,1.3,0,0,0-.2.46c0,.05-.05.07-.12.07H62l-.07,0a0,0,0,0,1,0,0v0a3.57,3.57,0,0,1,.66-1.32,4,4,0,0,1,1.2-1,4.79,4.79,0,0,0,1.12-.81,2.35,2.35,0,0,0,.65-1.08,4.46,4.46,0,0,0,.14-.71V19a1.64,1.64,0,0,0-.08-.5.94.94,0,0,0-.3-.38.75.75,0,0,0-.47-.15,1.21,1.21,0,0,0-.61.16,2,2,0,0,0-.52.44,3,3,0,0,0-.41.63,4.16,4.16,0,0,0-.28.74,1.72,1.72,0,0,0,0,.35.51.51,0,0,0,0,.13c0,.13.08.19.2.19a.61.61,0,0,0,.3-.08,1.12,1.12,0,0,0,.25-.24,2.18,2.18,0,0,0,.2-.34c.06-.13.11-.27.16-.41a1,1,0,0,0,0-.16s0-.07,0-.11A.8.8,0,0,0,64,19v0a.1.1,0,0,1,0-.08h0s.06,0,.08,0,0,0,.06,0a.63.63,0,0,1,.14.4,1.07,1.07,0,0,1,0,.25,4.13,4.13,0,0,1-.17.45,2.36,2.36,0,0,1-.25.41.94.94,0,0,1-.33.3.79.79,0,0,1-.42.12.46.46,0,0,1-.27-.08.48.48,0,0,1-.14-.2.8.8,0,0,1,0-.26.06.06,0,0,1,0,0,1,1,0,0,1,0-.3,3.77,3.77,0,0,1,.31-.8,3.43,3.43,0,0,1,.47-.7,2.57,2.57,0,0,1,.64-.5,1.61,1.61,0,0,1,.75-.19,1.45,1.45,0,0,1,.7.17,1.28,1.28,0,0,1,.5.45,1.56,1.56,0,0,1,.25.69,2.15,2.15,0,0,1,0,.23A2.1,2.1,0,0,1,66.32,19.83Z"/><path class="cls-6" d="M67.93,23.93a3.27,3.27,0,0,1-.44.95,3.35,3.35,0,0,1-.76.79.1.1,0,0,1-.07,0,.07.07,0,0,1-.06,0h0a.11.11,0,0,1,0-.05.1.1,0,0,1,0-.08,3.22,3.22,0,0,0,.7-.73,2.84,2.84,0,0,0,.4-.87l0-.14a.42.42,0,0,1-.18.11.59.59,0,0,1-.23.05.36.36,0,0,1-.33-.16.33.33,0,0,1-.05-.2.49.49,0,0,1,0-.12.67.67,0,0,1,.21-.33.55.55,0,0,1,.4-.15.34.34,0,0,1,.26.09.35.35,0,0,1,.12.23.62.62,0,0,1,0,.2v.09A2.88,2.88,0,0,1,67.93,23.93Z"/><path class="cls-6" d="M75.19,19.32a1.67,1.67,0,0,1-.29.62,2.16,2.16,0,0,1-.51.54,2.25,2.25,0,0,1-.7.37,1.15,1.15,0,0,1,.51.38,1.36,1.36,0,0,1,.24.55,1.64,1.64,0,0,1,0,.23,1.22,1.22,0,0,1-.07.41,1.82,1.82,0,0,1-.31.66,2.49,2.49,0,0,1-.57.55,3.3,3.3,0,0,1-.73.36,2.58,2.58,0,0,1-.77.12,1.34,1.34,0,0,1-.58-.12.94.94,0,0,1-.41-.32,1,1,0,0,1-.21-.49,1.55,1.55,0,0,1,0-.21,1.34,1.34,0,0,1,.07-.39A.43.43,0,0,1,71,22.3a.54.54,0,0,1,.28-.09.37.37,0,0,1,.25.09.23.23,0,0,1,.06.16.5.5,0,0,1,0,.12.47.47,0,0,1-.21.3.68.68,0,0,1-.26.07h0a1,1,0,0,0,.28.69.93.93,0,0,0,.7.27,1.4,1.4,0,0,0,.53-.11,1.89,1.89,0,0,0,.5-.31,1.72,1.72,0,0,0,.36-.49,4,4,0,0,0,.2-.58,3.82,3.82,0,0,0,.11-.57v-.14a1,1,0,0,0-.06-.35.7.7,0,0,0-.24-.3.58.58,0,0,0-.37-.11h-.51a.05.05,0,0,1-.06-.06v0l0-.11a.1.1,0,0,1,.11-.08h.49a1.17,1.17,0,0,0,.47-.1,1.14,1.14,0,0,0,.44-.28,1.54,1.54,0,0,0,.33-.44,3,3,0,0,0,.19-.53,2,2,0,0,0,.08-.53v0a.77.77,0,0,0-.11-.43.65.65,0,0,0-.28-.29.8.8,0,0,0-.41-.1,1.65,1.65,0,0,0-.58.1,1.86,1.86,0,0,0-.52.28,2.09,2.09,0,0,0-.42.42,1.78,1.78,0,0,0-.25.52,1.29,1.29,0,0,0,0,.25.48.48,0,0,0,0,.18.25.25,0,0,0,.25.18.52.52,0,0,0,.33-.12.55.55,0,0,0,.2-.3.32.32,0,0,0,0-.14.56.56,0,0,0-.12-.32V19a.08.08,0,0,1,0-.07h0a.12.12,0,0,1,.08,0s0,0,.06,0a1,1,0,0,1,.13.25.77.77,0,0,1,0,.15.68.68,0,0,1,0,.19.86.86,0,0,1-.3.45.8.8,0,0,1-.52.19A.54.54,0,0,1,72,20a.42.42,0,0,1-.16-.19.59.59,0,0,1,0-.27,0,0,0,0,1,0,0,1.24,1.24,0,0,1,0-.27,1.51,1.51,0,0,1,.3-.61,2.32,2.32,0,0,1,.5-.49,2.43,2.43,0,0,1,.62-.32,1.93,1.93,0,0,1,.67-.12,1.56,1.56,0,0,1,.62.12,1.15,1.15,0,0,1,.46.35,1.2,1.2,0,0,1,.24.51,2,2,0,0,1,0,.23A1.65,1.65,0,0,1,75.19,19.32Z"/><path class="cls-6" d="M76.58,20.25a7.67,7.67,0,0,0,2-2.14l.55.33a10.35,10.35,0,0,1-2.21,2.38C76.8,20.64,76.69,20.44,76.58,20.25Zm3.19-1.56h4v.56h-4Zm-3.23,3.93A9.05,9.05,0,0,0,78.71,20l.54.32a12.39,12.39,0,0,1-.84,1.25v3.95h-.64V22.29a9.35,9.35,0,0,1-1,.93A5.46,5.46,0,0,0,76.54,22.62Zm2.79-1.68H84.2v.56H82.71v2.93c0,.61-.32.92-1,.92H80.43c0-.2-.07-.43-.12-.68.4,0,.81.06,1.21.06a.46.46,0,0,0,.53-.51V21.5H79.33Z"/><path class="cls-6" d="M85.22,18.64h6v.57h-6Zm-.74,2.18h7.43v.56H89.48V24.3c0,.29.15.44.46.44h.66a.55.55,0,0,0,.63-.49,10.56,10.56,0,0,0,.12-1.06,5.4,5.4,0,0,0,.67.18c0,.43-.11.79-.16,1.08a1,1,0,0,1-1.12.82H89.8c-.64,0-1-.31-1-.92v-3H87.26v.24A4.4,4.4,0,0,1,86.77,24a4.57,4.57,0,0,1-2,1.55,5.11,5.11,0,0,0-.45-.5,4.37,4.37,0,0,0,1.79-1.34,3.67,3.67,0,0,0,.46-2v-.27H84.48Z"/><path class="cls-6" d="M97.14,24.2l.34-.4q.83.4,2,1.05l-.39.48C98.37,24.87,97.71,24.5,97.14,24.2Zm-2.83-.36.39.41a22.29,22.29,0,0,1-2,1.11l-.32-.48A16.17,16.17,0,0,0,94.31,23.84Zm3.51-1.74c.61.5,1.16,1,1.63,1.43A5.9,5.9,0,0,0,99,24l-.47-.48-2.1.1v.94c0,.59-.32.89-1,.89l-.91,0q0-.25-.09-.6c.38,0,.68.06.88.06s.49-.13.49-.39V23.6l-1.76.09c-.34,0-.64,0-.89.09l-.32-.59a5.66,5.66,0,0,0,1-.27c.57-.21,1.13-.43,1.67-.66-.63,0-1.19.08-1.7.13l-.58.07L93,21.91a3.29,3.29,0,0,0,.71-.23c.33-.16.64-.33.94-.5H92.3v-.47h3.4V20.2H93v-.48H95.7v-.5H92.59v-.47H95.7v-.64h.61v.64h3.15v.47H96.31v.5h2.61v.48H96.31v.51h3.45v.47H95.59c-.51.28-1,.54-1.59.79l2.54-.15c.42-.19.82-.39,1.21-.58l.43.34c-1.31.62-2.63,1.18-3.92,1.67l3.83-.19-.67-.61Z"/><path class="cls-6" d="M103.7,21.29l.5-.29c.42.6.78,1.17,1.1,1.73l-.57.32C104.42,22.49,104.08,21.9,103.7,21.29Zm-.14-1.5h2.57v-1.6h.62v1.6h.94v.57h-.94v3.92a1,1,0,0,1-1.1,1.08h-1.14c0-.18-.07-.4-.12-.67.51,0,.89.06,1.16.06a.51.51,0,0,0,.58-.57V20.36h-2.57Zm-2.8.3L102,21.91a8.09,8.09,0,0,0,.59-2.36h-2.42V19h3.05v.54a10.23,10.23,0,0,1-.82,2.95c.41.6.82,1.18,1.21,1.74l-.56.36-1-1.48a8.39,8.39,0,0,1-1.74,2.16c-.1-.16-.23-.34-.38-.55a7.6,7.6,0,0,0,1.75-2.16c-.48-.71-1-1.43-1.46-2.14Z"/><path class="cls-6" d="M111.55,20.47l.59-.16a29.86,29.86,0,0,1,.71,3l-.68.17A29.48,29.48,0,0,0,111.55,20.47Zm-1.85.38.58-.2c.32.91.63,1.93.92,3.05l-.65.2C110.31,22.91,110,21.89,109.7,20.85Zm-.42,3.67h3.56a36.09,36.09,0,0,0,1.27-4.08l.67.18c-.48,1.64-.9,2.94-1.28,3.9h1.9v.56h-6.12Zm2.1-6.15.56-.3a10.06,10.06,0,0,1,.63.89l-.37.21h3.12v.57h-6v1.83a6,6,0,0,1-1.13,4,4.87,4.87,0,0,0-.44-.52,5.06,5.06,0,0,0,.92-3.42V19.17h3.25A8.14,8.14,0,0,0,111.38,18.37Z"/><path class="cls-6" d="M121.14,18.54l.33-.38c.43.24.83.48,1.21.74l-.37.45Q121.76,18.93,121.14,18.54Zm-2.2,6.38a8.23,8.23,0,0,0,1.58-1.35A11.32,11.32,0,0,1,120,20h-2.9v1.14h2.22c0,1-.08,1.75-.13,2.39s-.4,1-1,1l-.84,0c0-.19-.07-.4-.12-.62a6.64,6.64,0,0,0,.9.07c.3,0,.46-.2.5-.6s.07-1,.09-1.7h-1.59A6.29,6.29,0,0,1,116,25.54c-.12-.17-.26-.34-.4-.52a5.76,5.76,0,0,0,.87-3.54v-2H120c0-.4,0-.82,0-1.28h.64c0,.35,0,.78,0,1.28h2.65V20H120.6a12.71,12.71,0,0,0,.38,3,8.82,8.82,0,0,0,1.23-2.22l.6.24a11.2,11.2,0,0,1-1.58,2.65c.37.74.74,1.12,1.1,1.12.13,0,.23-.12.3-.35s.13-.74.17-1.12l.58.21a10.63,10.63,0,0,1-.25,1.31.71.71,0,0,1-.65.59,1.34,1.34,0,0,1-.9-.31,2.83,2.83,0,0,1-.79-1,8.45,8.45,0,0,1-1.41,1.2C119.24,25.22,119.1,25.07,118.94,24.92Z"/><path class="cls-6" d="M124.68,18.34v2.25h2.17v.56h-2.17v3.17c.54-.22,1.23-.53,2.1-.92,0,.23,0,.45,0,.67-.76.29-1.4.57-1.92.83a2.9,2.9,0,0,0-.62.41l-.47-.58a.65.65,0,0,0,.24-.55V18.34Zm2.66-.19H128v3.16a12.82,12.82,0,0,0,2.47-2.2l.54.4a18,18,0,0,1-3,2.54v2.16c0,.33.15.49.45.49h1.32a.51.51,0,0,0,.58-.44c.06-.38.11-.79.14-1.25a6.38,6.38,0,0,0,.66.22c0,.46-.11.88-.18,1.25a.93.93,0,0,1-1,.77h-1.69c-.59,0-.89-.31-.89-.94Z"/><path class="cls-6" d="M137.25,23.72h-.55V19.34h.55Zm.82-5.56h.56V24.4a1.24,1.24,0,0,1-.18.78.84.84,0,0,1-.65.2c-.22,0-.58,0-1.08,0a3.36,3.36,0,0,0-.11-.62c.4,0,.73.06,1,.06s.33,0,.39-.11a.78.78,0,0,0,.09-.48Zm-6.76,3.61a12.69,12.69,0,0,0,1.47-3.63l.57.11a15,15,0,0,1-.52,1.65v5.57h-.52V21.1a15,15,0,0,1-.76,1.35C131.49,22.25,131.41,22,131.31,21.77Zm2.82.53.31-.41c.23.15.48.33.76.54a7.7,7.7,0,0,0,.41-1.67h-1.08a6.94,6.94,0,0,1-1.08,2.2,3.11,3.11,0,0,0-.37-.46,8.63,8.63,0,0,0,1.29-3.4h-.83v-.53h3v.53H135c-.08.41-.17.79-.27,1.15h1.5v.51a6.85,6.85,0,0,1-2.47,4.73c-.12-.15-.26-.31-.43-.49A5.94,5.94,0,0,0,135,23Z"/><path class="cls-6" d="M141.3,23.47a.58.58,0,0,1-.22.34.64.64,0,0,1-.39.14.36.36,0,0,1-.31-.15.38.38,0,0,1-.07-.21.74.74,0,0,1,0-.12.6.6,0,0,1,.23-.34.64.64,0,0,1,.38-.14.4.4,0,0,1,.32.14.42.42,0,0,1,.06.21A.69.69,0,0,1,141.3,23.47Z"/><path class="cls-6" d="M59.45,33.24H57.36V34h2.09Zm-5,2h2.28v-.75H54.67Zm3.6-4.62h.67c-.12.25-.23.48-.36.71H60.8v.46H58.86q.33.31.63.66l-.44.32h1v2h-.59v-.27H57.36v.75h3.09c0,.45-.05.88-.08,1.28a.87.87,0,0,1-1,.94H58.23c0-.18-.08-.38-.13-.59.5,0,.89,0,1.17,0a.43.43,0,0,0,.49-.44c0-.23.05-.47.06-.71H57.36V38h-.62V35.89a6.74,6.74,0,0,1-3.23,1.93c-.09-.15-.2-.31-.32-.48a6.74,6.74,0,0,0,3-1.63H53.82V35.2L54.19,34h2.55v-.71H54.05v-.51h1.51c-.21-.27-.42-.52-.64-.76l.31-.22h-.56a7.26,7.26,0,0,1-1.06,1.09,4.7,4.7,0,0,0-.39-.4,5.07,5.07,0,0,0,1.5-1.86h.67a6.16,6.16,0,0,1-.4.71h2.24v.46H55.38l.62.65-.43.33H59c-.2-.27-.41-.52-.61-.75l.33-.23h-.66a5.51,5.51,0,0,1-.64.83,3.74,3.74,0,0,0-.47-.36A5.2,5.2,0,0,0,58.06,30.58Z"/><path class="cls-6" d="M66.59,31.79a2,2,0,0,1-.28.63,2.83,2.83,0,0,1-.51.53,2.41,2.41,0,0,1-.71.37,1.1,1.1,0,0,1,.51.39,1.15,1.15,0,0,1,.24.54,1.79,1.79,0,0,1,0,.23,1.51,1.51,0,0,1-.06.41,1.84,1.84,0,0,1-.32.66,2.3,2.3,0,0,1-.57.55,2.61,2.61,0,0,1-.73.36,2.58,2.58,0,0,1-.77.12,1.5,1.5,0,0,1-.58-.11,1.11,1.11,0,0,1-.41-.33.93.93,0,0,1-.2-.49.52.52,0,0,1,0-.21,1.43,1.43,0,0,1,.06-.39.47.47,0,0,1,.19-.28.54.54,0,0,1,.28-.09.37.37,0,0,1,.25.09.23.23,0,0,1,.06.16.25.25,0,0,1,0,.12.39.39,0,0,1-.2.3.72.72,0,0,1-.27.07h0a.93.93,0,0,0,1,1,1.26,1.26,0,0,0,.53-.11,2,2,0,0,0,.49-.31,1.6,1.6,0,0,0,.36-.49,3.85,3.85,0,0,0,.2-.57q.08-.3.12-.57v-.15a.84.84,0,0,0-.07-.35.7.7,0,0,0-.24-.3.65.65,0,0,0-.37-.11H64c-.05,0-.07,0-.07-.06v0l0-.11s0-.07.11-.08h.49a1.4,1.4,0,0,0,.48-.09,1.36,1.36,0,0,0,.43-.29,1.41,1.41,0,0,0,.33-.44,3,3,0,0,0,.19-.53,2.45,2.45,0,0,0,.09-.53v0a.89.89,0,0,0-.11-.43.74.74,0,0,0-.29-.29.78.78,0,0,0-.41-.1,1.65,1.65,0,0,0-.58.1,1.86,1.86,0,0,0-.52.28,1.68,1.68,0,0,0-.41.43,1.54,1.54,0,0,0-.26.51,1.29,1.29,0,0,0,0,.25.48.48,0,0,0,0,.18.25.25,0,0,0,.25.18.52.52,0,0,0,.33-.12.55.55,0,0,0,.2-.3.32.32,0,0,0,0-.14.56.56,0,0,0-.12-.32.09.09,0,0,1,0-.12h0a.12.12,0,0,1,.08,0s0,0,.06,0a.75.75,0,0,1,.13.25.39.39,0,0,1,0,.15.68.68,0,0,1,0,.19.86.86,0,0,1-.3.45.8.8,0,0,1-.52.19.57.57,0,0,1-.27-.07.49.49,0,0,1-.16-.19.59.59,0,0,1-.05-.27,0,0,0,0,1,0,0,1.24,1.24,0,0,1,0-.27,1.66,1.66,0,0,1,.3-.61,2.32,2.32,0,0,1,.5-.49,2.43,2.43,0,0,1,.62-.32,1.93,1.93,0,0,1,.67-.12,1.56,1.56,0,0,1,.62.12,1.15,1.15,0,0,1,.46.35,1.2,1.2,0,0,1,.24.51,2,2,0,0,1,0,.23A1.65,1.65,0,0,1,66.59,31.79Z"/><path class="cls-6" d="M68,32.72a7.67,7.67,0,0,0,2-2.14l.56.33a10.88,10.88,0,0,1-2.22,2.39C68.2,33.11,68.09,32.91,68,32.72Zm3.19-1.56h4v.56h-4Zm-3.23,3.93a8.92,8.92,0,0,0,2.17-2.67l.54.32A11.35,11.35,0,0,1,69.81,34v3.95h-.64V34.76a8.41,8.41,0,0,1-1,.93A6.46,6.46,0,0,0,67.94,35.09Zm2.79-1.67H75.6V34H74.11V36.9c0,.62-.32.92-1,.92H71.83c0-.2-.07-.43-.12-.68.4,0,.81.06,1.21.06s.53-.17.53-.5V34H70.73Z"/><path class="cls-6" d="M77.87,36.4a3,3,0,0,1-.44,1,3.6,3.6,0,0,1-.76.8h-.13v0a.06.06,0,0,1,0-.05.1.1,0,0,1,0-.08,3,3,0,0,0,.7-.73,2.87,2.87,0,0,0,.41-.87l0-.14a.52.52,0,0,1-.19.12.85.85,0,0,1-.23,0,.34.34,0,0,1-.33-.16.38.38,0,0,1,0-.19.3.3,0,0,1,0-.13.64.64,0,0,1,.2-.33.58.58,0,0,1,.41-.15.36.36,0,0,1,.26.09.46.46,0,0,1,.12.23,1.12,1.12,0,0,1,0,.2v.09A2.79,2.79,0,0,1,77.87,36.4Z"/><path class="cls-6" d="M85.4,33.43H83.22v1.89H85.4Zm-3.64-2.2h7.61v.56H88.09v5.06a.9.9,0,0,1-1,1H85.67a5.39,5.39,0,0,0-.12-.68q.87.06,1.32.06t.57-.6V31.79H81.76Zm.86,1.67H86v3H83.22v.53h-.6Z"/><path class="cls-6" d="M92.67,30.62c.35.53.73,1.16,1.15,1.9l-.6.33c-.4-.77-.76-1.42-1.09-2ZM93,34.93c0,.33,0,.56.06.71l-2.3,1.42a5.85,5.85,0,0,0-.49.38l-.43-.59a.94.94,0,0,0,.35-.76V30.9h.63v5.34C91.38,35.91,92.1,35.48,93,34.93Zm2.39-4.14H96v1.35a8.2,8.2,0,0,1-.54,3.28c.63.64,1.23,1.26,1.81,1.88l-.55.47q-.78-.95-1.56-1.8A5.86,5.86,0,0,1,92.48,38l-.41-.52a5.36,5.36,0,0,0,2.6-2,6.22,6.22,0,0,0,.71-3.37Z"/><path class="cls-6" d="M100.69,33.74H102V31.56h-1.27Zm3.12-2.18h-1.27v2.18h1.27Zm-6.44,3,1-.29v-1.7h-.93v-.5h.93V30.66H99v1.45h.89v.5H99v1.53l.86-.27c0,.25,0,.44,0,.58l-.84.26v2.38a.69.69,0,0,1-.73.79h-.71c0-.19-.06-.39-.1-.62a5.55,5.55,0,0,0,.63,0q.33,0,.33-.36v-2l-.93.31ZM100.1,31h4.3v3.65h-.59v-.41h-3.12v2.28c0,.41.19.61.57.61h2.17c.47,0,.75-.18.81-.52a11.37,11.37,0,0,0,.16-1.15,6.19,6.19,0,0,0,.65.22c-.08.5-.15.89-.22,1.18a1.12,1.12,0,0,1-1.25.82H101c-.62,0-.93-.34-.93-1Z"/><path class="cls-6" d="M105.19,34.15a8.72,8.72,0,0,0,2.56-3.21l.61.25a10.29,10.29,0,0,1-2.68,3.44A2.79,2.79,0,0,0,105.19,34.15Zm4.35-3.1.56-.21a6,6,0,0,0,2.78,3.09,4,4,0,0,0-.47.58A7,7,0,0,1,109.54,31.05Zm.66,4c.74.94,1.36,1.78,1.87,2.55l-.59.37c-.14-.23-.29-.47-.46-.72-1.69.08-3.06.17-4.12.25a5,5,0,0,0-.71.13l-.34-.64a2.11,2.11,0,0,0,.64-.41,15.65,15.65,0,0,0,2-3l.66.29a28.16,28.16,0,0,1-2,3c1.06,0,2.25-.08,3.59-.14-.29-.43-.61-.88-1-1.36Z"/><path class="cls-6" d="M114.64,33.14h1.9V31.88h.59v1.26h2v.52h-2a2.8,2.8,0,0,1-.09.58c.72.55,1.46,1.16,2.22,1.81l-.47.47c-.59-.59-1.23-1.17-1.92-1.76a3.82,3.82,0,0,1-2,1.9c-.14-.19-.28-.35-.41-.5a3,3,0,0,0,2.1-2.5h-1.88Zm4.89-1.5h-5.35V37h5.35Zm-6-.56h6.57V38h-.61V37.5h-5.35V38h-.61Z"/><path class="cls-6" d="M120.9,34h3.58v-.82l2.2-1.56h-5v-.56h6v.58l-2.58,1.83V34h3.37v.56h-3.37v2.36c0,.66-.36,1-1.08,1l-1.21,0c0-.2,0-.42-.1-.68a11.13,11.13,0,0,0,1.19.08.48.48,0,0,0,.55-.54v-2.2H120.9Z"/><path class="cls-6" d="M133,35.12a.84.84,0,0,0,0-.27.86.86,0,0,0-.32-.68l-.93-.77a3,3,0,0,0-.91.67,2.13,2.13,0,0,0-.52.92,2,2,0,0,0-.05.33.9.9,0,0,0,0,.18,1,1,0,0,0,.17.44.92.92,0,0,0,.36.28,1,1,0,0,0,.49.11,1.8,1.8,0,0,0,1.42-.73A1.19,1.19,0,0,0,133,35.12Zm.73-3.53a1.35,1.35,0,0,0,0-.29c0-.05,0-.11,0-.16a.85.85,0,0,0-.16-.36.81.81,0,0,0-.3-.25,1,1,0,0,0-.43-.09,1.24,1.24,0,0,0-.46.08,1.56,1.56,0,0,0-.43.21,1.6,1.6,0,0,0-.33.31,1.18,1.18,0,0,0-.19.39,1,1,0,0,0,0,.23.54.54,0,0,0,0,.22.61.61,0,0,0,.23.34l.83.68a2.82,2.82,0,0,0,.76-.56A1.61,1.61,0,0,0,133.74,31.59Zm.42,0a1.66,1.66,0,0,1-.55.86,4.07,4.07,0,0,1-.91.59l.47.38a1.2,1.2,0,0,1,.39.61,1.39,1.39,0,0,1,.06.4,1.64,1.64,0,0,1-.06.42,2,2,0,0,1-.32.68,2.3,2.3,0,0,1-.53.55,2.14,2.14,0,0,1-.68.37,2.1,2.1,0,0,1-.74.13,1.88,1.88,0,0,1-.65-.11,1.32,1.32,0,0,1-.49-.33,1,1,0,0,1-.26-.52.86.86,0,0,1,0-.27,1.18,1.18,0,0,1,.06-.36,2,2,0,0,1,.64-1,4.2,4.2,0,0,1,1.1-.7l-.32-.26a1,1,0,0,1-.36-.54,1.92,1.92,0,0,1-.05-.32,1.44,1.44,0,0,1,.06-.4,2,2,0,0,1,.28-.6,2.39,2.39,0,0,1,.46-.49,2.23,2.23,0,0,1,.58-.33,1.87,1.87,0,0,1,.65-.12,1.48,1.48,0,0,1,.57.11,1.09,1.09,0,0,1,.43.29,1.07,1.07,0,0,1,.24.43,1.93,1.93,0,0,1,0,.24A1.82,1.82,0,0,1,134.16,31.59Z"/><path class="cls-6" d="M141.89,31.43h-2.73v.65h2.73Zm-2.73,1.78h2.73v-.66h-2.73Zm-3.63,1.37,1-.43V32.56h-.93v-.51h.93V30.66h.59v1.39h1v.51h-1v1.31c.3-.14.6-.29.89-.45l.06.6-.95.46v2.6c0,.49-.19.75-.57.79a8.61,8.61,0,0,1-.9,0c0-.21-.07-.41-.1-.62a7.07,7.07,0,0,0,.72,0c.17,0,.26-.1.26-.28V34.77l-.91.47Zm1.87,3.07a3.47,3.47,0,0,0,1.22-2.53h.57a5,5,0,0,1-.15,1,2.4,2.4,0,0,0,1.27,1V34.83h-2.38v-.5h5.19v.5h-2.23v.83h1.93v.48h-1.93V37.2a21.71,21.71,0,0,0,2.32,0s-.07.21-.18.55c-.61,0-1.24,0-1.9,0a2.63,2.63,0,0,1-2.28-1.06,3.74,3.74,0,0,1-.94,1.34A3.26,3.26,0,0,0,137.4,37.65Zm1.2-6.7h3.84V33.9h-.55v-.22h-2.73v.22h-.56Z"/><polygon class="cls-6" points="149.54 34.38 149.54 34.1 147.52 34.1 147.52 37.03 149.77 37.03 149.77 34.9 150.42 34.9 150.42 37.87 149.77 37.87 149.77 37.6 143.99 37.6 143.99 34.9 144.64 34.9 144.64 37.03 146.85 37.03 146.85 34.1 144.19 34.1 144.19 31.42 144.85 31.42 144.85 33.53 146.85 33.53 146.85 30.73 147.52 30.73 147.52 33.53 149.54 33.53 149.54 31.42 150.2 31.42 150.2 34.38 149.54 34.38"/><path class="cls-6" d="M151.29,34.14h3.41V32.45h-2.78v-.57h2.78V30.57h.67v1.31h2.84v.57h-2.84v1.69h3.45v.57H155c-.56.76-1.19,1.53-1.88,2.3l3.87-.12q-.51-.66-1.08-1.35l.48-.33c.7.79,1.36,1.6,2,2.43l-.57.37-.46-.63c-1.72.06-3.21.13-4.47.23a4.3,4.3,0,0,0-.66.12l-.33-.62a1.63,1.63,0,0,0,.64-.38,15.2,15.2,0,0,0,1.62-2h-2.88Z"/><path class="cls-6" d="M161.18,35.94a.58.58,0,0,1-.22.34.67.67,0,0,1-.39.14.35.35,0,0,1-.31-.15.29.29,0,0,1-.07-.2.69.69,0,0,1,0-.13.58.58,0,0,1,.22-.34.67.67,0,0,1,.39-.14.4.4,0,0,1,.32.14.43.43,0,0,1,.06.22A.74.74,0,0,1,161.18,35.94Z"/><line class="cls-9" x1="5.68" y1="58.29" x2="11.98" y2="58.29"/><line class="cls-9" x1="5.68" y1="60.18" x2="11.98" y2="60.18"/><path class="cls-6" d="M17.89,60.6a.93.93,0,0,0,0-.54.76.76,0,0,0-.28-.41l-.93-.77a3.16,3.16,0,0,0-.91.67,2.19,2.19,0,0,0-.52.92,1.39,1.39,0,0,0-.05.33,1.27,1.27,0,0,0,.19.62.94.94,0,0,0,.36.29,1.1,1.1,0,0,0,.49.1,1.8,1.8,0,0,0,1.42-.73A1.19,1.19,0,0,0,17.89,60.6Zm.73-3.53a1.35,1.35,0,0,0,0-.29c0-.05,0-.1,0-.16a1,1,0,0,0-.16-.36.91.91,0,0,0-.3-.25,1,1,0,0,0-.43-.09,1.48,1.48,0,0,0-.46.08,1.56,1.56,0,0,0-.43.21,1.93,1.93,0,0,0-.33.31,1,1,0,0,0-.19.39,1,1,0,0,0,0,.23.59.59,0,0,0,0,.23.65.65,0,0,0,.23.34l.83.67a3,3,0,0,0,.76-.55A1.59,1.59,0,0,0,18.62,57.07Zm.42,0a1.69,1.69,0,0,1-.55.86,3.81,3.81,0,0,1-.92.59l.47.38a1.15,1.15,0,0,1,.4.61,1.39,1.39,0,0,1,.06.4,1.64,1.64,0,0,1-.06.42,2,2,0,0,1-.32.68,2.4,2.4,0,0,1-1.95,1.06,1.76,1.76,0,0,1-.66-.12,1.41,1.41,0,0,1-.49-.33,1,1,0,0,1-.25-.51.87.87,0,0,1,0-.28,1.23,1.23,0,0,1,.06-.36,2,2,0,0,1,.64-1,4.47,4.47,0,0,1,1.1-.7l-.32-.25a1,1,0,0,1-.36-.55,1.19,1.19,0,0,1-.05-.32,1.44,1.44,0,0,1,.06-.4,2,2,0,0,1,.28-.6,2.67,2.67,0,0,1,.46-.49,2.52,2.52,0,0,1,.58-.32,1.82,1.82,0,0,1,.65-.12,1.48,1.48,0,0,1,.57.1,1.3,1.3,0,0,1,.43.29,1.14,1.14,0,0,1,.24.43,1.93,1.93,0,0,1,0,.24A1.82,1.82,0,0,1,19,57.07Z"/><path class="cls-6" d="M24.6,48.78a.32.32,0,0,0,0,.14.11.11,0,0,0,.07.12.92.92,0,0,0,.35.06h.51c.05,0,.09,0,.09.06a.09.09,0,0,1,0,0l0,.07a.14.14,0,0,1-.14.1l-1.3,0-1.32,0c-.06,0-.08,0-.08-.07v0l0-.07a.12.12,0,0,1,.13-.11h.51a1.11,1.11,0,0,0,.38-.06.31.31,0,0,0,.18-.26L25.1,44.3a2.64,2.64,0,0,1-.55.29,1.73,1.73,0,0,1-.6.11.06.06,0,0,1-.06,0,.05.05,0,0,1,0,0,.08.08,0,0,1,0,0l0-.08a.13.13,0,0,1,.14-.1,1.63,1.63,0,0,0,.95-.33,3.38,3.38,0,0,0,.8-.8.17.17,0,0,1,.1-.07h0a.09.09,0,0,1,.07,0s0,0,0,0,0,0,0,0Z"/><path class="cls-6" d="M37.6,45.32a1.49,1.49,0,0,1-.33.65,3.58,3.58,0,0,1-.6.56A7.57,7.57,0,0,1,36,47l-.73.41a3.73,3.73,0,0,0-.78.57,3.78,3.78,0,0,0-.59.73.53.53,0,0,1,.23,0,2.42,2.42,0,0,1,.47,0l.47.1.45.09a2.42,2.42,0,0,0,.47,0,.8.8,0,0,0,.36-.09,1,1,0,0,0,.33-.23,1.87,1.87,0,0,0,.26-.35,2.31,2.31,0,0,0,.16-.41c0-.06.05-.08.12-.09h.1l.07,0a.06.06,0,0,1,0,0,0,0,0,0,1,0,0,3,3,0,0,1-.22.61,2.51,2.51,0,0,1-.33.55,1.72,1.72,0,0,1-.46.4,1,1,0,0,1-.55.16,1.15,1.15,0,0,1-.5-.11l-.4-.24L34.49,49a.89.89,0,0,0-.47-.12.38.38,0,0,0-.29.18,1,1,0,0,0-.2.45.12.12,0,0,1-.12.08h-.1a.09.09,0,0,1-.07,0s0,0,0,0v0a3.55,3.55,0,0,1,.67-1.31,3.81,3.81,0,0,1,1.2-1,4.94,4.94,0,0,0,1.11-.81,2.39,2.39,0,0,0,.66-1.07A4.54,4.54,0,0,0,37,44.6v-.14a1.42,1.42,0,0,0-.08-.5.9.9,0,0,0-.29-.38.75.75,0,0,0-.47-.15,1.19,1.19,0,0,0-.61.17A2,2,0,0,0,35,44a2.85,2.85,0,0,0-.41.63,4.93,4.93,0,0,0-.27.73,1.81,1.81,0,0,0-.05.36.25.25,0,0,0,0,.12.19.19,0,0,0,.2.2.55.55,0,0,0,.3-.09.91.91,0,0,0,.24-.24,1.4,1.4,0,0,0,.21-.34,2.48,2.48,0,0,0,.15-.41.39.39,0,0,0,0-.15.37.37,0,0,0,0-.11.55.55,0,0,0-.1-.25s0,0,0-.05,0,0,0-.07l0,0s.06,0,.08,0a.05.05,0,0,1,0,0,.6.6,0,0,1,.15.4.69.69,0,0,1,0,.25,2.07,2.07,0,0,1-.17.45,2.33,2.33,0,0,1-.24.41.94.94,0,0,1-.33.3.79.79,0,0,1-.42.12.46.46,0,0,1-.27-.08A.43.43,0,0,1,34,46a.78.78,0,0,1,0-.26v0a1.54,1.54,0,0,1,0-.3,4.79,4.79,0,0,1,.31-.79,3.17,3.17,0,0,1,.48-.71,2.72,2.72,0,0,1,.63-.5,1.67,1.67,0,0,1,.75-.19,1.42,1.42,0,0,1,1.21.62,1.69,1.69,0,0,1,.25.69,2.15,2.15,0,0,1,0,.23A1.88,1.88,0,0,1,37.6,45.32Z"/><path class="cls-6" d="M49,44.8a2.24,2.24,0,0,1-.29.63,2.83,2.83,0,0,1-.51.53,2.49,2.49,0,0,1-.7.37,1.21,1.21,0,0,1,.51.39,1.18,1.18,0,0,1,.23.54,1.79,1.79,0,0,1,0,.23,1.51,1.51,0,0,1-.06.41,1.84,1.84,0,0,1-.32.66,2.3,2.3,0,0,1-.57.55,2.61,2.61,0,0,1-.73.36,2.53,2.53,0,0,1-.76.13,1.38,1.38,0,0,1-.59-.12,1.2,1.2,0,0,1-.41-.33,1.13,1.13,0,0,1-.2-.49.49.49,0,0,1,0-.21,1.43,1.43,0,0,1,.06-.39.47.47,0,0,1,.2-.28.51.51,0,0,1,.27-.09.37.37,0,0,1,.25.09.24.24,0,0,1,.06.17.45.45,0,0,1,0,.11.42.42,0,0,1-.21.3.54.54,0,0,1-.27.07h0a1,1,0,0,0,.27.69,1,1,0,0,0,.71.27,1.23,1.23,0,0,0,.53-.11,1.75,1.75,0,0,0,.49-.31,1.33,1.33,0,0,0,.36-.49,3.85,3.85,0,0,0,.2-.57,4.48,4.48,0,0,0,.12-.57V47.2a1.09,1.09,0,0,0-.06-.36.89.89,0,0,0-.24-.3.7.7,0,0,0-.38-.11h-.5a.05.05,0,0,1-.06-.06v0l0-.1c0-.06,0-.08.11-.09H47a1.24,1.24,0,0,0,.91-.38,1.28,1.28,0,0,0,.33-.44,3,3,0,0,0,.19-.53,2.47,2.47,0,0,0,.09-.52v0a.89.89,0,0,0-.11-.43.74.74,0,0,0-.29-.29.76.76,0,0,0-.41-.1,1.69,1.69,0,0,0-.58.1,2,2,0,0,0-.52.28,2.09,2.09,0,0,0-.41.43,1.51,1.51,0,0,0-.25.51.85.85,0,0,0,0,.25.34.34,0,0,0,0,.18.24.24,0,0,0,.24.18.52.52,0,0,0,.33-.12.55.55,0,0,0,.2-.3.32.32,0,0,0,0-.14.51.51,0,0,0-.12-.31.13.13,0,0,1,0-.06.06.06,0,0,1,0-.06l0,0a.18.18,0,0,1,.09,0,.05.05,0,0,1,0,0,1.23,1.23,0,0,1,.14.25.76.76,0,0,1,0,.15.65.65,0,0,1,0,.19,1,1,0,0,1-.31.46.79.79,0,0,1-.51.18.51.51,0,0,1-.28-.07.49.49,0,0,1-.16-.19.76.76,0,0,1-.05-.27s0,0,0,0a.93.93,0,0,1,0-.27,1.71,1.71,0,0,1,.29-.61,2.58,2.58,0,0,1,.5-.49,2.8,2.8,0,0,1,.62-.32,1.93,1.93,0,0,1,.67-.12,1.52,1.52,0,0,1,.62.13,1.07,1.07,0,0,1,.46.34,1.2,1.2,0,0,1,.24.51,1.94,1.94,0,0,1,0,.24A1.55,1.55,0,0,1,49,44.8Z"/><path class="cls-6" d="M24.6,61.25a.32.32,0,0,0,0,.14.11.11,0,0,0,.07.12.76.76,0,0,0,.35.06h.51c.05,0,.09,0,.09.07a.08.08,0,0,1,0,0l0,.08a.14.14,0,0,1-.14.09l-1.3,0-1.32,0c-.06,0-.08,0-.08-.06v0l0-.08a.12.12,0,0,1,.13-.11h.51a.91.91,0,0,0,.38-.06c.09,0,.15-.11.18-.26l1.16-4.48a2.24,2.24,0,0,1-.55.29,1.73,1.73,0,0,1-.6.11.06.06,0,0,1-.06,0,.05.05,0,0,1,0,0,0,0,0,0,1,0,0l0-.09a.13.13,0,0,1,.14-.1,1.63,1.63,0,0,0,.95-.33,3.38,3.38,0,0,0,.8-.8.12.12,0,0,1,.1-.06h0a.09.09,0,0,1,.07,0v0s0,0,0,0Z"/><path class="cls-6" d="M35.35,61.25a.32.32,0,0,0,0,.14.11.11,0,0,0,.07.12.76.76,0,0,0,.35.06h.5c.06,0,.1,0,.1.07a.08.08,0,0,1,0,0l0,.08a.14.14,0,0,1-.14.09l-1.31,0-1.31,0c-.06,0-.08,0-.08-.06v0l0-.08a.12.12,0,0,1,.13-.11h.51a.91.91,0,0,0,.38-.06c.09,0,.15-.11.18-.26l1.15-4.48a2,2,0,0,1-.54.29,1.73,1.73,0,0,1-.6.11.06.06,0,0,1-.06,0,.05.05,0,0,1,0,0,0,0,0,0,1,0,0l0-.09a.13.13,0,0,1,.13-.1,1.64,1.64,0,0,0,1-.33,3.38,3.38,0,0,0,.8-.8.12.12,0,0,1,.1-.06h0a.11.11,0,0,1,.07,0v0s0,0,0,0Z"/><path class="cls-6" d="M46.5,61.25l0,.14a.12.12,0,0,0,.08.12.73.73,0,0,0,.35.06h.5c.06,0,.09,0,.09.07a.08.08,0,0,1,0,0v.08a.15.15,0,0,1-.14.09l-1.31,0-1.32,0c-.05,0-.08,0-.08-.06v0l0-.08a.14.14,0,0,1,.14-.11h.51a.94.94,0,0,0,.38-.06c.08,0,.14-.11.18-.26L47,56.77a2.08,2.08,0,0,1-.55.29,1.71,1.71,0,0,1-.59.11.06.06,0,0,1-.06,0s0,0,0,0a0,0,0,0,1,0,0V57a.14.14,0,0,1,.14-.1,1.64,1.64,0,0,0,1-.33,3.34,3.34,0,0,0,.79-.8.14.14,0,0,1,.11-.06h0a.09.09,0,0,1,.07,0,0,0,0,0,1,0,0,.08.08,0,0,1,0,0Z"/><path class="cls-6" d="M24.6,73.72a.35.35,0,0,0,0,.14c0,.06,0,.11.07.12A.76.76,0,0,0,25,74h.51c.05,0,.09,0,.09.07a.08.08,0,0,1,0,0l0,.08a.15.15,0,0,1-.14.1c-.42,0-.86,0-1.3,0s-.88,0-1.32,0c-.06,0-.08,0-.08-.07v0l0-.08a.12.12,0,0,1,.13-.11h.51a.91.91,0,0,0,.38-.06c.09,0,.15-.11.18-.26l1.16-4.48a2.24,2.24,0,0,1-.55.29,1.73,1.73,0,0,1-.6.11.06.06,0,0,1-.06,0,.05.05,0,0,1,0,0,0,0,0,0,1,0,0l0-.09a.13.13,0,0,1,.14-.1A1.63,1.63,0,0,0,25,69a3.2,3.2,0,0,0,.8-.8.12.12,0,0,1,.1-.06h0a.09.09,0,0,1,.07,0s0,0,0,0,0,0,0,0Z"/><path class="cls-6" d="M35.35,73.72a.35.35,0,0,0,0,.14c0,.06,0,.11.07.12a.76.76,0,0,0,.35.06h.5c.06,0,.1,0,.1.07a.08.08,0,0,1,0,0l0,.08a.15.15,0,0,1-.14.1c-.43,0-.86,0-1.31,0l-1.31,0c-.06,0-.08,0-.08-.07v0l0-.08a.12.12,0,0,1,.13-.11h.51a.91.91,0,0,0,.38-.06c.09,0,.15-.11.18-.26l1.15-4.48a2,2,0,0,1-.54.29,1.73,1.73,0,0,1-.6.11.06.06,0,0,1-.06,0,.05.05,0,0,1,0,0,0,0,0,0,1,0,0l0-.09a.13.13,0,0,1,.13-.1,1.64,1.64,0,0,0,1-.33,3.2,3.2,0,0,0,.8-.8.12.12,0,0,1,.1-.06h0a.11.11,0,0,1,.07,0s0,0,0,0,0,0,0,0Z"/><path class="cls-6" d="M46.5,73.72l0,.14a.11.11,0,0,0,.08.12.73.73,0,0,0,.35.06h.5c.06,0,.09,0,.09.07a.08.08,0,0,1,0,0v.08a.16.16,0,0,1-.14.1c-.43,0-.86,0-1.31,0l-1.32,0a.07.07,0,0,1-.08-.07v0l0-.08a.14.14,0,0,1,.14-.11h.51a.94.94,0,0,0,.38-.06c.08,0,.14-.11.18-.26L47,69.24a2.08,2.08,0,0,1-.55.29,1.71,1.71,0,0,1-.59.11.06.06,0,0,1-.06,0s0,0,0,0a0,0,0,0,1,0,0v-.09a.14.14,0,0,1,.14-.1,1.64,1.64,0,0,0,1-.33,3.16,3.16,0,0,0,.79-.8.14.14,0,0,1,.11-.06h0a.09.09,0,0,1,.07,0,0,0,0,0,1,0,0,.06.06,0,0,1,0,0Z"/><line class="cls-7" x1="22.29" y1="65.47" x2="48.72" y2="65.47"/><line class="cls-8" x1="20.71" y1="42.8" x2="20.71" y2="75.68"/><line class="cls-8" x1="50.89" y1="75.68" x2="50.89" y2="42.8"/><path class="cls-6" d="M59.09,58h.35c-.3.35-.52.6-.66.74s-.38.36-.71.64h7.32l-.16.45H57.91a3.36,3.36,0,0,1,.42,1.38H58a5.26,5.26,0,0,0-.68-1,2.74,2.74,0,0,0-.69-.55l.07-.2a6,6,0,0,0,1-.51A12.93,12.93,0,0,0,59.09,58Z"/><path class="cls-6" d="M67,62l1.16-.31V59.51h-1V59h1V57.24H67.09V56.7h2.77v.54H68.77V59h1v.54h-1v2l1.13-.33c0,.19,0,.37,0,.56l-2.73.83Zm3.08-5.56H74v4.48h-.6V57H70.69v4h-.6Zm1.62,1.07h.6v1.25a7.66,7.66,0,0,1-.17,1.69h.51v1.89c0,.26.15.39.44.39h.37c.31,0,.48-.13.51-.4s.06-.56.08-1c.17.07.38.15.63.23a8.4,8.4,0,0,1-.13,1c-.07.46-.41.68-1,.68H73c-.61,0-.92-.28-.92-.84V60.75a3.31,3.31,0,0,1-.41.93,5.38,5.38,0,0,1-2.17,1.78,4.21,4.21,0,0,0-.41-.5,4.68,4.68,0,0,0,2.08-1.63,4.59,4.59,0,0,0,.56-2.52Z"/><path class="cls-6" d="M77,62.33h2.41V60.09h-2v-.53h2V58.05H80v1.51h2v.53H80v2.24h2.47v.52H77ZM75,57H77.3c.13-.3.24-.61.34-.92l.64.15c-.09.27-.19.52-.29.77h4.47v.56H77.75a12.86,12.86,0,0,1-1.07,1.88V63.4h-.6V60.24a11.62,11.62,0,0,1-.89,1,4.33,4.33,0,0,0-.37-.54,11.48,11.48,0,0,0,2.23-3.1H75Z"/><path class="cls-6" d="M84.78,61.88a2.82,2.82,0,0,1-.44.95,3.6,3.6,0,0,1-.76.8l-.07,0-.05,0v0l0,0a.12.12,0,0,1,0-.09,2.85,2.85,0,0,0,.7-.73,2.67,2.67,0,0,0,.41-.87l0-.13a.78.78,0,0,1-.18.11.67.67,0,0,1-.24,0,.35.35,0,0,1-.33-.15.46.46,0,0,1,0-.2.69.69,0,0,1,0-.13.72.72,0,0,1,.2-.33.62.62,0,0,1,.41-.14.36.36,0,0,1,.26.09.43.43,0,0,1,.12.22,1.23,1.23,0,0,1,0,.2v.1A1.65,1.65,0,0,1,84.78,61.88Z"/><path class="cls-6" d="M94.69,58.94H90.81v.89h3.88Zm-3.88,2.3h3.88v-.9H90.81Zm0,2.19H90.2V59.57A12.82,12.82,0,0,1,89,60.78c-.1-.17-.23-.35-.37-.54a9.51,9.51,0,0,0,2.32-2.68h-2.1V57h2.39a8,8,0,0,0,.38-1l.64.14c-.11.28-.22.55-.34.82h4.34v.55H91.61c-.16.29-.33.58-.52.86h4.22v4a.83.83,0,0,1-.94.93H93.14c0-.16-.07-.37-.12-.61.47,0,.85.05,1.14.05s.53-.17.53-.5v-.53H90.81Z"/><path class="cls-6" d="M99.5,58h1.61c0-.32,0-.65,0-1h-1.6C99.52,57.4,99.51,57.73,99.5,58Zm-3-1.55H104V57h-2.36c0,.36,0,.69,0,1h1.9v4.42c0,.57-.3.85-.89.85H101.5c0-.17-.06-.37-.1-.58.48,0,.85.05,1.1.05s.49-.15.49-.46V58.58h-1.34a9.74,9.74,0,0,1-.16,1.32,19,19,0,0,1,1.42,1.4l-.4.42c-.39-.46-.79-.88-1.18-1.27a5,5,0,0,1-1.22,1.83,2.65,2.65,0,0,0-.48-.4,4.22,4.22,0,0,0,1.46-3.3H99.48a6.71,6.71,0,0,1-.11,1.11c.42.33.76.62,1,.85l-.33.49-.85-.81a4.82,4.82,0,0,1-1.16,1.84c-.13-.13-.27-.28-.45-.43a4,4,0,0,0,1.31-3.05H97.59v4.77H97V58H99c0-.32,0-.65,0-1H96.55Z"/><path class="cls-6" d="M104.34,58.2a7.39,7.39,0,0,0,2-2.14l.56.33a10.67,10.67,0,0,1-2.22,2.39C104.56,58.59,104.46,58.4,104.34,58.2Zm3.2-1.56h4v.56h-4Zm-3.23,3.93a9.06,9.06,0,0,0,2.16-2.67l.54.32a11.35,11.35,0,0,1-.84,1.25v4h-.63V60.24a10.72,10.72,0,0,1-1,.94C104.49,61,104.4,60.77,104.31,60.57Zm2.78-1.67H112v.56h-1.49v2.92a.84.84,0,0,1-1,.93h-1.32c0-.2-.07-.42-.12-.67.4,0,.81.06,1.21.06s.53-.17.53-.51V59.46h-2.72Z"/><path class="cls-6" d="M113,56.6h6v.56h-6Zm-.74,2.17h7.43v.57h-2.43v2.91c0,.3.15.44.46.44h.66a.55.55,0,0,0,.63-.49,10.22,10.22,0,0,0,.12-1.06c.2.07.43.13.67.19,0,.43-.11.78-.17,1.07a1,1,0,0,1-1.11.82h-.94c-.65,0-1-.3-1-.91v-3H115v.24a4.36,4.36,0,0,1-.49,2.34,4.49,4.49,0,0,1-2,1.55,6.66,6.66,0,0,0-.45-.5,4.28,4.28,0,0,0,1.79-1.34,3.66,3.66,0,0,0,.46-2v-.27h-2.14Z"/><path class="cls-6" d="M124.89,62.16l.34-.41c.55.27,1.22.62,2,1.06l-.39.47C126.12,62.83,125.47,62.45,124.89,62.16Zm-2.82-.37.38.42c-.78.46-1.45.83-2,1.1l-.32-.47A15.74,15.74,0,0,0,122.07,61.79Zm3.51-1.73c.61.49,1.15,1,1.62,1.42q-.15.12-.45.42l-.47-.47-2.09.1v.93c0,.6-.33.89-1,.89h-.91c0-.17,0-.37-.09-.61.38,0,.68.06.88.06s.49-.13.49-.39v-.84l-1.76.08a6.68,6.68,0,0,0-.89.1l-.32-.59a8,8,0,0,0,1-.27l1.67-.67-1.7.13-.58.07-.27-.55a3.29,3.29,0,0,0,.71-.22c.33-.17.64-.33.94-.5h-2.36v-.47h3.4v-.52h-2.68v-.47h2.68v-.5h-3.11v-.47h3.11v-.65h.62v.65h3.14v.47h-3.14v.5h2.6v.47h-2.6v.52h3.43v.47h-4.16c-.52.27-1,.53-1.59.78l2.54-.15c.41-.19.81-.38,1.2-.58l.43.34c-1.31.63-2.62,1.18-3.91,1.67,1.29-.05,2.56-.11,3.83-.18l-.67-.61Z"/><path class="cls-6" d="M131.46,59.25,132,59c.41.59.78,1.17,1.1,1.72l-.58.33C132.18,60.44,131.83,59.86,131.46,59.25Zm-.14-1.5h2.56v-1.6h.62v1.6h.94v.56h-.94v3.92a1,1,0,0,1-1.1,1.08h-1.14a6.19,6.19,0,0,0-.12-.68c.51,0,.9.06,1.16.06s.58-.18.58-.56V58.31h-2.56Zm-2.81.3,1.29,1.82a8.23,8.23,0,0,0,.58-2.37H128v-.57h3v.55a10.1,10.1,0,0,1-.82,3c.42.59.82,1.17,1.21,1.73l-.55.36c-.32-.49-.65-1-1-1.47a8,8,0,0,1-1.74,2.15l-.37-.54a7.78,7.78,0,0,0,1.74-2.17l-1.45-2.14Z"/><path class="cls-6" d="M139.31,58.43l.6-.17a30,30,0,0,1,.7,3l-.67.18A28.51,28.51,0,0,0,139.31,58.43Zm-1.85.37.58-.19c.32.9.63,1.92.93,3l-.66.19C138.08,60.86,137.79,59.85,137.46,58.8ZM137,62.47h3.57a33,33,0,0,0,1.27-4.08l.67.18c-.48,1.64-.9,2.94-1.27,3.9h1.9V63H137Zm2.11-6.15.57-.29a8.77,8.77,0,0,1,.63.89l-.38.21h3.12v.56h-6v1.84A5.93,5.93,0,0,1,136,63.48a6.65,6.65,0,0,0-.45-.52,5,5,0,0,0,.92-3.42V57.13h3.27A7.31,7.31,0,0,0,139.14,56.32Z"/><path class="cls-6" d="M147.27,60.48h2.88V59.05h-2.88Zm2.88-3.36h-2.88v1.43h2.88Zm-2.88,5.31h2.88V61h-2.88Zm-3.84-1.66a8,8,0,0,0,1.27-2.64h-1.18v-.5h1.19V56.14h.57v1.49h1.12v.5h-1.12v1.3l.3-.31c.36.34.68.66,1,1l-.41.39c-.29-.32-.58-.64-.87-.94v3.89h-.57V59.54a7.09,7.09,0,0,1-1,1.88A7.08,7.08,0,0,0,143.43,60.77Zm3.25-4.16h4v6.83h-.58v-.51h-2.88v.51h-.59Z"/><path class="cls-6" d="M157,58.34c-.1-.14-.31-.4-.63-.76l.4-.27a7.16,7.16,0,0,1,.68.7Zm-3.36,0c-.19-.24-.41-.5-.64-.76l.4-.27c.25.23.48.46.7.7ZM153,61.87l.41-.38c.35.29.71.6,1.07.94l-.45.41C153.74,62.55,153.39,62.23,153,61.87Zm3-5.81h.66a6.73,6.73,0,0,1-.36.71h2.48v.46H156a6.05,6.05,0,0,1-.55.73,2.81,2.81,0,0,0-.51-.3A5.2,5.2,0,0,0,156,56.06Zm-3.29,0h.66a8.06,8.06,0,0,1-.39.71h2.23v.46h-2.56a6.81,6.81,0,0,1-1.06,1.09c-.1-.12-.23-.25-.38-.4A5.23,5.23,0,0,0,152.73,56.06Zm-1.18,4.88h4.82v-.59h.6v.59h1.65v.5H157v1c0,.63-.33.94-1,.94h-1.18c0-.18-.06-.39-.11-.64.41,0,.78.06,1.13.06s.56-.15.56-.44v-.91h-4.82Zm-.26-1.23h3.43V59h-2.89v-.48h2.89v-.59h.6v.59h3V59h-3v.75h3.56v.5h-7.59Z"/><path class="cls-6" d="M161.23,61.42a.55.55,0,0,1-.22.34.67.67,0,0,1-.39.14.37.37,0,0,1-.31-.14.31.31,0,0,1-.07-.21.69.69,0,0,1,0-.13.61.61,0,0,1,.22-.34.65.65,0,0,1,.39-.13.39.39,0,0,1,.32.13.43.43,0,0,1,.06.22A.74.74,0,0,1,161.23,61.42Z"/><path class="cls-6" d="M67.83,68.72c.43.41.8.8,1.12,1.15l-.51.42c-.37-.44-.72-.84-1.06-1.2ZM69.3,74c0,.23,0,.44.08.63-.31.23-.63.48-.95.74a3.68,3.68,0,0,0-.35.33l-.44-.47a.94.94,0,0,0,.24-.7V71.62H67v-.55h1.47v3.59Zm.08,1.45A9.56,9.56,0,0,0,73.71,72l.52.34A10.15,10.15,0,0,1,72.82,74c.59.45,1.17.9,1.73,1.36l-.47.48c-.48-.44-1-.93-1.68-1.46A10.49,10.49,0,0,1,69.78,76,5.4,5.4,0,0,0,69.38,75.46Zm0-1.59a8.92,8.92,0,0,0,2.41-1.69l-1.59.15a2.86,2.86,0,0,0-.55.12l-.28-.55a2.25,2.25,0,0,0,.5-.4c.3-.36.62-.79,1-1.27H69.32v-.54H71.9c-.22-.33-.42-.61-.62-.86l.5-.31c.2.24.42.52.68.86l-.47.31h2.56v.54h-3c-.38.52-.77,1-1.18,1.51l1.92-.12A6.58,6.58,0,0,0,73,70.51l.57.29a9.13,9.13,0,0,1-3.78,3.53C69.67,74.17,69.52,74,69.38,73.87Z"/><path class="cls-6" d="M74.89,70.67a7.49,7.49,0,0,0,2-2.13l.56.33a10.84,10.84,0,0,1-2.22,2.38C75.11,71.06,75,70.87,74.89,70.67Zm3.2-1.56h4v.56h-4ZM74.85,73A9.18,9.18,0,0,0,77,70.38l.53.32a14.08,14.08,0,0,1-.83,1.24v4h-.64V72.71a10.72,10.72,0,0,1-1,.94A6.65,6.65,0,0,0,74.85,73Zm2.79-1.67h4.87v.56H81v2.92a.84.84,0,0,1-1,.93H78.74c0-.2-.07-.42-.11-.67q.6.06,1.2.06c.36,0,.53-.17.53-.51V71.93H77.64Z"/><path class="cls-6" d="M88.12,74.08h-.59V69.51h.59Zm1.11-5.4h.62v6.17c0,.63-.3,1-.89,1H87.71a5,5,0,0,0-.13-.67c.53,0,.92.07,1.17.07s.48-.17.48-.5ZM84,72.6l.38-.42c.39.31.74.61,1.06.91a5.89,5.89,0,0,0,.73-1.88H84.43a10.34,10.34,0,0,1-1.49,2.42,4.5,4.5,0,0,0-.3-.59,11.27,11.27,0,0,0,1.78-3.55H82.89V69h4.32v.54H85.06c-.12.41-.26.8-.41,1.18h2.14v.55A7,7,0,0,1,83.47,76a5.17,5.17,0,0,0-.47-.46,7.53,7.53,0,0,0,2.11-1.91C84.81,73.31,84.44,73,84,72.6Z"/><path class="cls-6" d="M96,69l.37-.38a14,14,0,0,1,1.14.88l-.44.44A13.83,13.83,0,0,0,96,69Zm-5.44,5.76,1.79-.22v-2.1h-1.5v-.56h3.61v.56H93v2l1.84-.26c0,.2,0,.4,0,.61-1.54.21-2.91.41-4.09.59Zm0-4.74h4.28c0-.46,0-1,0-1.46h.66c0,.49,0,1,0,1.46h2.65v.56H95.44c.1,2.51.52,4,1.29,4.58.28.22.48.16.59-.18a7.11,7.11,0,0,0,.21-1.15l.62.19a10.29,10.29,0,0,1-.31,1.41.7.7,0,0,1-.71.52,1.55,1.55,0,0,1-1.06-.52Q95,74.27,94.81,70.56H90.5Z"/><path class="cls-6" d="M102.41,71.85l.47-.34a21.34,21.34,0,0,1,1.36,1.7l-.57.39A16.94,16.94,0,0,0,102.41,71.85ZM101,70.37H99.27v1.81H101Zm-1.73,4.24H101V72.72H99.27Zm2.46-3.27A11.17,11.17,0,0,0,103,68.57l.64.15c-.13.38-.26.73-.4,1.06h2.48c-.06,2.57-.11,4.18-.15,4.84a1.11,1.11,0,0,1-1.27,1.17c-.47,0-1,0-1.43,0a5.41,5.41,0,0,0-.12-.67h0a10.6,10.6,0,0,0,1.41.11.68.68,0,0,0,.75-.72c.06-.74.1-2.12.13-4.12H103a11.32,11.32,0,0,1-.7,1.27A2.58,2.58,0,0,0,101.73,71.34Zm-3.08-1.53h.78c.19-.46.35-.87.47-1.24l.65.18c-.16.38-.32.73-.47,1.06h1.54v6H101v-.59H99.27v.64h-.62Z"/><path class="cls-6" d="M109.38,74h3.12v-.67h-3.12Zm0-1.15h3.12v-.67h-3.12Zm3.12-1.82h-3.12v.67h3.12Zm-3.12,4.13h3.12v-.68h-3.12Zm-3.26-3a11.25,11.25,0,0,0,1.6-3.62l.57.16a15.9,15.9,0,0,1-.67,1.81v5.32h-.56V71.74a11.2,11.2,0,0,1-.7,1.12A6.62,6.62,0,0,0,106.12,72.24Zm1.91,3h.78V70.56h1.82v-.68h-2.24v-.51h2.24v-.79h.58v.79h2.42v.51h-2.42v.68h1.86v4.63h.73v.51H108Z"/><line class="cls-9" x1="116.58" y1="70.77" x2="122.88" y2="70.77"/><line class="cls-9" x1="116.58" y1="72.66" x2="122.88" y2="72.66"/><path class="cls-6" d="M129.33,69.07a.92.92,0,0,0-.22-.5.65.65,0,0,0-.49-.2,1.06,1.06,0,0,0-.61.2,1.76,1.76,0,0,0-.48.5,2.87,2.87,0,0,0-.22.43c-.07.17-.13.35-.2.55s-.12.4-.17.6-.11.4-.15.58-.09.41-.15.63l-.15.65a4.69,4.69,0,0,0-.1.6,2.23,2.23,0,0,0,0,.33.71.71,0,0,0,0,.15,1,1,0,0,0,.2.53.64.64,0,0,0,.51.22,1,1,0,0,0,.61-.22,2,2,0,0,0,.47-.53,2.7,2.7,0,0,0,.23-.48q.11-.28.21-.6c.07-.21.13-.43.19-.65s.12-.43.16-.63.1-.37.15-.58.1-.4.13-.6.07-.38.09-.55a2.62,2.62,0,0,0,0-.27Zm.49-.1a2.88,2.88,0,0,1,.1.78c0,.12,0,.25,0,.38a11.52,11.52,0,0,1-.25,1.25c-.11.41-.24.82-.39,1.22a3.88,3.88,0,0,1-.68,1.15,2.22,2.22,0,0,1-.72.57,1.8,1.8,0,0,1-.85.22,1.19,1.19,0,0,1-.73-.22,1.1,1.1,0,0,1-.42-.57,2.54,2.54,0,0,1-.11-.78c0-.12,0-.24,0-.37a9.06,9.06,0,0,1,.24-1.22,12.72,12.72,0,0,1,.4-1.24,4.1,4.1,0,0,1,.68-1.17,2.42,2.42,0,0,1,.72-.59,1.8,1.8,0,0,1,.85-.22,1.17,1.17,0,0,1,.73.22A1.15,1.15,0,0,1,129.82,69Z"/><line class="cls-9" x1="5.68" y1="83.51" x2="11.98" y2="83.51"/><line class="cls-9" x1="5.68" y1="85.4" x2="11.98" y2="85.4"/><path class="cls-6" d="M18.43,81.81a1,1,0,0,0-.22-.5.65.65,0,0,0-.49-.2,1.08,1.08,0,0,0-.61.2,1.9,1.9,0,0,0-.48.5,2.57,2.57,0,0,0-.22.44c-.06.16-.13.35-.19.54s-.13.4-.18.6-.1.4-.15.58-.09.41-.15.63l-.15.65a4.69,4.69,0,0,0-.1.6,2.24,2.24,0,0,0,0,.34.66.66,0,0,0,0,.14,1,1,0,0,0,.2.53.64.64,0,0,0,.51.22,1,1,0,0,0,.61-.22,2.2,2.2,0,0,0,.48-.53,2.72,2.72,0,0,0,.22-.48,5.29,5.29,0,0,0,.21-.6c.07-.21.13-.43.19-.65s.12-.43.16-.63.1-.37.15-.58.1-.4.14-.6.06-.38.08-.55,0-.19,0-.27S18.43,81.86,18.43,81.81Zm.49-.1a2.88,2.88,0,0,1,.11.78c0,.12,0,.25,0,.38a9.53,9.53,0,0,1-.25,1.25,10.8,10.8,0,0,1-.39,1.22,3.68,3.68,0,0,1-.68,1.15,2.22,2.22,0,0,1-.72.57,1.77,1.77,0,0,1-.85.22,1.19,1.19,0,0,1-.73-.22,1.1,1.1,0,0,1-.42-.57,2.54,2.54,0,0,1-.11-.78c0-.12,0-.24,0-.37a9.37,9.37,0,0,1,.24-1.22,12.72,12.72,0,0,1,.4-1.24,4.1,4.1,0,0,1,.68-1.17,2.34,2.34,0,0,1,.73-.59,1.77,1.77,0,0,1,.85-.22,1.21,1.21,0,0,1,.73.22A1.19,1.19,0,0,1,18.92,81.71Z"/></g></g></g></svg>