<svg id="图层_1" data-name="图层 1" xmlns="http://www.w3.org/2000/svg" xmlns:xlink="http://www.w3.org/1999/xlink" viewBox="0 0 288 69.6"><defs><style>.cls-1,.cls-11,.cls-7{fill:none;}.cls-2{clip-path:url(#clip-path);}.cls-3{fill:#fff;}.cls-4{clip-path:url(#clip-path-3);}.cls-5{clip-path:url(#clip-path-4);}.cls-10,.cls-6,.cls-8,.cls-9{fill-rule:evenodd;}.cls-11,.cls-7{stroke:#000;stroke-linecap:round;stroke-miterlimit:10;}.cls-7{stroke-width:0.36px;}.cls-8{fill:green;}.cls-9{fill:#0080ff;}.cls-10{fill:red;}.cls-11{stroke-width:0.2px;}</style><clipPath id="clip-path"><rect class="cls-1" x="-124.4" y="-350.8" width="540" height="780"/></clipPath><clipPath id="clip-path-3"><rect class="cls-1" x="5.68" y="6.92" width="279.84" height="64.56"/></clipPath><clipPath id="clip-path-4"><rect class="cls-1" x="5.68" y="6.92" width="279.85" height="64.56"/></clipPath></defs><g class="cls-2"><g class="cls-2"><rect class="cls-3" x="-124.4" y="-350.8" width="540" height="780"/></g><g class="cls-4"><g class="cls-5"><path class="cls-6" d="M6.48,10.42h.66v1h4.61V9.53H6.2V9h6.19v3.49h-.64V12H7.14v2.18a.6.6,0,0,0,.67.69h3.8c.44,0,.71-.16.8-.47a6.72,6.72,0,0,0,.21-1.22,5.08,5.08,0,0,0,.66.23,10.86,10.86,0,0,1-.23,1.24,1.18,1.18,0,0,1-1.3.84H7.66a1,1,0,0,1-1.18-1.18Z"/><path class="cls-6" d="M20.23,9.83H18.17v4.53h2.06Zm-6.66,2h1.58c0-.46,0-1,0-1.74h-.65c-.16.43-.32.8-.48,1.14L13.49,11a11,11,0,0,0,.95-2.54l.6.14c-.1.34-.2.66-.3.95h2.35v.54H15.82c0,.69,0,1.27-.05,1.74h1.47v.54H15.73c0,.13,0,.25-.05.36.65.72,1.21,1.37,1.67,1.94l-.52.38q-.75-1-1.32-1.62a4.89,4.89,0,0,1-1.64,2.42c-.13-.17-.28-.35-.43-.52a4.24,4.24,0,0,0,1.66-3H13.57Zm4-2.53h3.27v6.37h-.6V14.9H18.17v.75h-.61Z"/><path class="cls-6" d="M26.38,9l-1.72,2.95h1.93Zm1.82,5.19a.13.13,0,0,1-.13.1l-.9,0H27l-1.06,0c-.06,0-.09,0-.09-.07v0l0-.07c0-.07.06-.11.13-.1h.3a.62.62,0,0,0,.27-.09.14.14,0,0,0,.09-.08.36.36,0,0,0,0-.09v0l-.12-1.5H24.49l-.73,1.25a.43.43,0,0,0-.07.22.25.25,0,0,0,.06.16.45.45,0,0,0,.4.17q.09,0,.09.06a.08.08,0,0,1,0,0l0,.07a.13.13,0,0,1-.13.1l-.82,0h-.12l-.72,0-.06,0s0,0,0,0a.08.08,0,0,1,0,0l0-.07a.11.11,0,0,1,.13-.1.92.92,0,0,0,.29,0,1,1,0,0,0,.28-.11,1.1,1.1,0,0,0,.23-.2,1.28,1.28,0,0,0,.2-.26l3.19-5.48a.2.2,0,0,1,.17-.1H27a.1.1,0,0,1,.11.1l.4,5.73c0,.08,0,.15,0,.19a.17.17,0,0,0,.09.11.42.42,0,0,0,.22.05h.34c.06,0,.08,0,.08.06v0Z"/><path class="cls-6" d="M36.15,9.26H32.09v.65h4.06Zm-4.06,1.81h4.06v-.66H32.09Zm-.2,1.9.58.18a7.12,7.12,0,0,1-.28.74A2.4,2.4,0,0,0,33.93,15V12.74H30.42v-.52h7.41v.52H34.55v.75h2.74V14H34.55v1q1.47,0,3.42,0c-.08.21-.15.41-.21.59-1.51,0-2.67,0-3.48,0a2.61,2.61,0,0,1-2.35-1.18,4.53,4.53,0,0,1-1.34,1.5,6,6,0,0,0-.38-.49A4,4,0,0,0,31.89,13ZM31.5,8.76h5.23v3.11h-.58v-.29H32.09v.29H31.5Z"/><path class="cls-6" d="M41.79,11.62l.5-.29c.42.59.78,1.17,1.1,1.73l-.58.32C42.51,12.81,42.17,12.23,41.79,11.62Zm-.14-1.5h2.56V8.52h.63v1.6h.94v.57h-.94V14.6a1,1,0,0,1-1.1,1.09H42.6c0-.18-.07-.41-.13-.67q.77.06,1.17.06a.5.5,0,0,0,.57-.57V10.69H41.65Zm-2.81.3c.45.62.88,1.23,1.29,1.82a7.92,7.92,0,0,0,.58-2.37H38.3V9.3h3v.55a10.1,10.1,0,0,1-.82,3c.42.59.83,1.17,1.22,1.74l-.56.36c-.32-.5-.64-1-1-1.48a8.43,8.43,0,0,1-1.75,2.16c-.1-.16-.22-.34-.37-.55a7.64,7.64,0,0,0,1.74-2.17c-.47-.71-1-1.42-1.45-2.14Z"/><path class="cls-6" d="M49.63,11.7l.58.2a22.6,22.6,0,0,1-1.12,2.76c-.17-.08-.36-.16-.58-.24A23.12,23.12,0,0,0,49.63,11.7Zm2.1.22.53-.23a24.52,24.52,0,0,1,1.34,2.64l-.6.29C52.58,13.63,52.16,12.73,51.73,11.92Zm-1-1.43h.58v4.38a.76.76,0,0,1-.87.86c-.24,0-.53,0-.87,0,0-.18-.05-.39-.09-.6a6.33,6.33,0,0,0,.89.06q.36,0,.36-.39Zm-4.84,3.33a9.81,9.81,0,0,0,1.31-2.58H46v-.51h1.28V9.6l-1.09.11c0-.17-.08-.35-.14-.53,1.23-.12,2.2-.24,2.92-.36l.15.54c-.4.06-.83.12-1.29.17v1.2h1v.18a12.87,12.87,0,0,0,1.29-2.47l.59.19c-.16.34-.31.66-.46,1h3.17v.53q-.16.41-.6,1.26a4,4,0,0,0-.57-.22c.21-.44.37-.79.47-1H49.93a11.79,11.79,0,0,1-.8,1.31l-.35-.35v.16h-1V12l.27-.24q.59.54.93.93l-.4.37c-.28-.32-.55-.61-.8-.86v3.62h-.55V12.56a8.18,8.18,0,0,1-1,1.86A3.73,3.73,0,0,0,45.91,13.82Z"/><path class="cls-6" d="M57.84,11.75l.46-.34a19.64,19.64,0,0,1,1.37,1.7l-.57.39A20.59,20.59,0,0,0,57.84,11.75Zm-1.41-1.48H54.69v1.81h1.74Zm-1.74,4.24h1.74V12.62H54.69Zm2.47-3.27a10.74,10.74,0,0,0,1.22-2.78l.65.16c-.13.38-.27.73-.4,1.06h2.48c-.06,2.57-.12,4.18-.16,4.84a1.12,1.12,0,0,1-1.27,1.18c-.46,0-.94,0-1.42,0a4.92,4.92,0,0,0-.12-.66h0a10.37,10.37,0,0,0,1.41.1.68.68,0,0,0,.75-.72c.06-.74.1-2.12.12-4.13H58.38a9.45,9.45,0,0,1-.69,1.28A2.88,2.88,0,0,0,57.16,11.24ZM54.08,9.71h.78c.19-.46.34-.87.47-1.25l.64.18c-.16.38-.32.74-.47,1.07H57v5.95h-.61v-.58H54.69v.63h-.61Z"/><path class="cls-6" d="M63.69,14.26a2.91,2.91,0,0,1-.44,1,3.34,3.34,0,0,1-.76.79l-.07,0-.05,0v0l0,0a.08.08,0,0,1,0-.08,3.39,3.39,0,0,0,.69-.73,2.87,2.87,0,0,0,.41-.87l0-.14a.54.54,0,0,1-.18.11.67.67,0,0,1-.24,0,.35.35,0,0,1-.33-.15.46.46,0,0,1-.05-.2.69.69,0,0,1,0-.13.64.64,0,0,1,.2-.32.58.58,0,0,1,.41-.15.36.36,0,0,1,.26.09.43.43,0,0,1,.12.22,1.23,1.23,0,0,1,0,.2v.1A1.91,1.91,0,0,1,63.69,14.26Z"/><path class="cls-6" d="M71.84,8.58c.6.6,1,1,1.27,1.29l-.54.44c-.33-.41-.72-.85-1.19-1.33ZM73.5,13a3.84,3.84,0,0,0,.15.65c-.63.6-1.1,1.07-1.41,1.43l-.44-.49a1.26,1.26,0,0,0,.23-.75V11.5H71.1V11h1.52v2.92C72.86,13.66,73.15,13.37,73.5,13ZM73,14.87h1.07V10.74h.6v4.13h1.22V9.41H73.47V8.85h5.14v.56H76.55v2.25h1.78v.55H76.55v2.66h2.18v.56H73Z"/><path class="cls-6" d="M81.22,9.62H80v1.7h1.26Zm0,4V11.85H80v1.76ZM85.5,9.39H83.33V10.8H85.5Zm-2.22,3.37H85.5V11.34H83.33A12.83,12.83,0,0,1,83.28,12.76ZM79.39,9.07h2.4v5.09H80v.54h-.57Zm2.3,6.81a3.83,3.83,0,0,0-.5-.46,4.21,4.21,0,0,0,1.24-1.61,6.69,6.69,0,0,0,.3-2.35V8.83H86.1v6.06a.78.78,0,0,1-.88.89l-1.31,0c0-.2-.07-.41-.11-.62.5,0,.91,0,1.23,0s.47-.15.47-.44V13.3H83.2A4.37,4.37,0,0,1,81.69,15.88Z"/><path class="cls-6" d="M95.74,12.62a1.76,1.76,0,0,0,.07-.45v-.1a1.23,1.23,0,0,0-.14-.47.78.78,0,0,0-.29-.31.74.74,0,0,0-.42-.12H93.3l-.64,2.5a1.34,1.34,0,0,0,0,.22.15.15,0,0,0,0,.07s.11,0,.27,0h1.21a1.39,1.39,0,0,0,.52-.11,2.36,2.36,0,0,0,.48-.29,2.17,2.17,0,0,0,.4-.46A2.14,2.14,0,0,0,95.74,12.62Zm.56-3a1.47,1.47,0,0,0,0-.36V9.17a.86.86,0,0,0-.13-.41.87.87,0,0,0-.27-.27.7.7,0,0,0-.38-.1h-1.2a.61.61,0,0,0-.31,0,.49.49,0,0,0-.11.27L93.36,11h1.3a1.37,1.37,0,0,0,.52-.1,2.1,2.1,0,0,0,.5-.29A1.74,1.74,0,0,0,96.3,9.64Zm.82,0a1.27,1.27,0,0,1-.29.58,2.52,2.52,0,0,1-.52.46,2.39,2.39,0,0,1-.48.24,2.9,2.9,0,0,1-.48.14,1.65,1.65,0,0,1,.55.14,1.27,1.27,0,0,1,.43.31,1.07,1.07,0,0,1,.27.49,1,1,0,0,1,0,.29,1,1,0,0,1,0,.33,1.52,1.52,0,0,1-.31.64,2.43,2.43,0,0,1-.54.52,2.3,2.3,0,0,1-.71.37,2.45,2.45,0,0,1-.75.12H91l-.06,0s0,0,0,0a.08.08,0,0,1,0,0V14.1a.12.12,0,0,1,.14-.1h.4a.72.72,0,0,0,.29-.05.43.43,0,0,0,.16-.27l1.27-5a.55.55,0,0,0,0-.16.11.11,0,0,0,0-.1.69.69,0,0,0-.26,0h-.41a.06.06,0,0,1-.06,0l0,0s0,0,0,0l0-.07a.1.1,0,0,1,0-.07.16.16,0,0,1,.09,0h3a2.15,2.15,0,0,1,.68.11,1.23,1.23,0,0,1,.54.33,1.14,1.14,0,0,1,.28.49.86.86,0,0,1,0,.28A1.12,1.12,0,0,1,97.12,9.64Z"/><path class="cls-6" d="M102.17,8.31l0,0-.05,0H102s-.05,0-.05,0h0a1.85,1.85,0,0,0,0-.23l0-.23V7.78a.31.31,0,0,0,0-.1.22.22,0,0,0,0-.13.38.38,0,0,0-.23-.13,1.51,1.51,0,0,0-.32,0h-.31a.61.61,0,0,0-.19,0s0,.07-.07.16l-.79,2.75a.14.14,0,0,0,0,.06.08.08,0,0,0,.06.08.79.79,0,0,0,.26,0h.35s.06,0,.06,0v.07a.08.08,0,0,1-.08.05H98.78l0,0v-.06s0,0,0-.05h.41a1,1,0,0,0,.28,0,.18.18,0,0,0,.12-.14l.8-2.75a.5.5,0,0,0,0-.14v0a.53.53,0,0,0-.18,0H100a1.87,1.87,0,0,0-.34,0,.81.81,0,0,0-.3.13.34.34,0,0,0-.12.12,1.18,1.18,0,0,0-.11.19,1.47,1.47,0,0,0-.1.22c0,.08-.07.16-.1.23a.08.08,0,0,1-.08.06h0l0,0v0c.05-.16.11-.34.18-.51a5.49,5.49,0,0,0,.21-.51s0-.06.08-.06h3.13s0,0,0,0h0Z"/><path class="cls-6" d="M107.89,9l-1.72,2.95h1.92Zm1.82,5.19a.13.13,0,0,1-.13.1l-.9,0h-.15l-1.07,0s-.08,0-.08-.07v0l0-.07a.11.11,0,0,1,.13-.1h.3a.62.62,0,0,0,.27-.09.14.14,0,0,0,.09-.08.36.36,0,0,0,0-.09v0l-.12-1.5H106l-.73,1.25a.43.43,0,0,0-.07.22.25.25,0,0,0,.06.16.45.45,0,0,0,.4.17q.09,0,.09.06a.08.08,0,0,1,0,0l0,.07a.12.12,0,0,1-.13.1l-.82,0h-.12l-.72,0-.06,0,0,0a.08.08,0,0,1,0,0l0-.07A.11.11,0,0,1,104,14a.92.92,0,0,0,.29,0,1,1,0,0,0,.28-.11,1.16,1.16,0,0,0,.24-.2,1.74,1.74,0,0,0,.19-.26l3.19-5.48a.19.19,0,0,1,.17-.1h.09a.1.1,0,0,1,.11.1l.4,5.73c0,.08,0,.15,0,.19a.17.17,0,0,0,.09.11.4.4,0,0,0,.22.05h.34c.06,0,.08,0,.08.06a.08.08,0,0,1,0,0Z"/><path class="cls-6" d="M115.14,12.62a1.74,1.74,0,0,0,.06-.45v-.1a1,1,0,0,0-.14-.47.86.86,0,0,0-.29-.31.74.74,0,0,0-.42-.12h-1.66l-.64,2.5a1.34,1.34,0,0,0,0,.22.15.15,0,0,0,0,.07s.11,0,.27,0h1.21a1.43,1.43,0,0,0,.52-.11,2.36,2.36,0,0,0,.48-.29,2.18,2.18,0,0,0,.63-1Zm.56-3a1.47,1.47,0,0,0,0-.36V9.17a.86.86,0,0,0-.13-.41.87.87,0,0,0-.27-.27.74.74,0,0,0-.4-.1h-1.19a.61.61,0,0,0-.31,0,.56.56,0,0,0-.12.27L112.75,11H114a1.39,1.39,0,0,0,.53-.1,2.32,2.32,0,0,0,.5-.29A1.7,1.7,0,0,0,115.7,9.64Zm.82,0a1.4,1.4,0,0,1-.3.58,2.47,2.47,0,0,1-.51.46,2.69,2.69,0,0,1-.48.24,3.32,3.32,0,0,1-.49.14,1.59,1.59,0,0,1,.55.14,1.1,1.1,0,0,1,.43.31A1,1,0,0,1,116,12a1.55,1.55,0,0,1,0,.29,1.26,1.26,0,0,1-.05.33,1.65,1.65,0,0,1-.31.64,2.43,2.43,0,0,1-.54.52,2.49,2.49,0,0,1-1.47.49h-3.24l-.07,0a.08.08,0,0,1,0-.08V14.1c0-.07.06-.11.13-.1h.41a.76.76,0,0,0,.29-.05.43.43,0,0,0,.16-.27l1.27-5a.5.5,0,0,0,0-.16.11.11,0,0,0,0-.1.69.69,0,0,0-.26,0h-.41a.06.06,0,0,1-.06,0s0,0,0,0,0,0,0,0V8.22a.18.18,0,0,1,.05-.07.16.16,0,0,1,.09,0h3a2.17,2.17,0,0,1,.69.11,1.26,1.26,0,0,1,.53.33,1.16,1.16,0,0,1,.29.49,1.26,1.26,0,0,1,0,.28A1.12,1.12,0,0,1,116.52,9.64Z"/><path class="cls-6" d="M125.33,8.49h.61v1.76l2.68-.49c0,1.05-.08,1.86-.11,2.44a1.5,1.5,0,0,1-.29,1,1.25,1.25,0,0,1-.92.27c-.25,0-.53,0-.83,0,0-.18-.07-.39-.13-.62q.36,0,.93.06a.65.65,0,0,0,.5-.15.91.91,0,0,0,.14-.55c0-.59.06-1.15.08-1.69l-2,.37V14.2h-.61V11l-1.82.33v3.05c0,.42.22.63.67.63h3.59c.51,0,.8-.18.86-.54a8.55,8.55,0,0,0,.14-1.12l.67.23c-.08.47-.14.84-.21,1.12-.13.59-.57.88-1.32.88h-3.85c-.77,0-1.16-.36-1.16-1.08V11.39l-1,.19-.1-.57,1.14-.21V9.34h.61v1.35l1.82-.33Z"/><path class="cls-6" d="M135.48,9.26h-4.07v.65h4.07Zm-4.07,1.81h4.07v-.66h-4.07Zm-.2,1.9.59.18a7.12,7.12,0,0,1-.28.74,2.4,2.4,0,0,0,1.74,1.1V12.74h-3.51v-.52h7.4v.52h-3.27v.75h2.73V14h-2.73v1q1.47,0,3.42,0l-.22.59c-1.5,0-2.66,0-3.47,0a2.61,2.61,0,0,1-2.35-1.18,4.64,4.64,0,0,1-1.34,1.5,6,6,0,0,0-.38-.49A4,4,0,0,0,131.21,13Zm-.38-4.21h5.23v3.11h-.58v-.29h-4.07v.29h-.58Z"/><path class="cls-6" d="M141.11,11.62l.5-.29c.42.59.79,1.17,1.11,1.73l-.58.32C141.84,12.81,141.49,12.23,141.11,11.62Zm-.13-1.5h2.56V8.52h.62v1.6h.94v.57h-.94V14.6a1,1,0,0,1-1.1,1.09h-1.14a6.06,6.06,0,0,0-.12-.67c.51,0,.89.06,1.16.06a.51.51,0,0,0,.58-.57V10.69H141Zm-2.81.3,1.29,1.82A8.23,8.23,0,0,0,140,9.87h-2.42V9.3h3v.55a10.42,10.42,0,0,1-.82,3c.42.59.82,1.17,1.21,1.74l-.55.36c-.32-.5-.65-1-1-1.48a8.19,8.19,0,0,1-1.74,2.16c-.1-.16-.23-.34-.38-.55a7.51,7.51,0,0,0,1.75-2.17l-1.45-2.14Z"/><path class="cls-6" d="M149,11.7l.58.2a22.6,22.6,0,0,1-1.12,2.76c-.17-.08-.36-.16-.58-.24A21.53,21.53,0,0,0,149,11.7Zm2.11.22.53-.23a28.85,28.85,0,0,1,1.34,2.64l-.61.29Q151.7,13.14,151.07,11.92Zm-1-1.43h.59v4.38a.77.77,0,0,1-.88.86c-.24,0-.53,0-.86,0,0-.18-.06-.39-.1-.6a6.37,6.37,0,0,0,.9.06c.23,0,.35-.13.35-.39Zm-4.84,3.33a10.12,10.12,0,0,0,1.31-2.58h-1.27v-.51h1.28V9.6l-1.1.11a3.79,3.79,0,0,0-.14-.53c1.24-.12,2.21-.24,2.94-.36l.14.54c-.4.06-.83.12-1.29.17v1.2h1v.18a12.33,12.33,0,0,0,1.29-2.47l.59.19c-.16.34-.31.66-.46,1h3.17v.53q-.16.41-.6,1.26a4,4,0,0,0-.57-.22c.21-.44.37-.79.47-1h-2.74a10.46,10.46,0,0,1-.8,1.31c-.13-.14-.25-.25-.35-.35v.16h-1V12l.27-.24q.59.54.93.93l-.4.37c-.28-.32-.54-.61-.8-.86v3.62h-.55V12.56a9,9,0,0,1-1,1.86C145.45,14.22,145.35,14,145.24,13.82Z"/><path class="cls-6" d="M157.17,11.75l.46-.34a21.76,21.76,0,0,1,1.37,1.7l-.57.39A20.59,20.59,0,0,0,157.17,11.75Zm-1.41-1.48H154v1.81h1.73ZM154,14.51h1.73V12.62H154Zm2.46-3.27a10.74,10.74,0,0,0,1.22-2.78l.65.16c-.13.38-.27.73-.4,1.06h2.48c-.07,2.57-.12,4.18-.16,4.84A1.12,1.12,0,0,1,159,15.7c-.46,0-.94,0-1.42,0a4.92,4.92,0,0,0-.12-.66h0a10.37,10.37,0,0,0,1.41.1.68.68,0,0,0,.75-.72c.06-.74.1-2.12.12-4.13h-2.06a9.45,9.45,0,0,1-.69,1.28A2.88,2.88,0,0,0,156.49,11.24Zm-3.08-1.53h.78c.19-.46.34-.87.47-1.25l.64.18c-.16.38-.32.74-.47,1.07h1.54v5.95h-.61v-.58H154v.63h-.62Z"/><path class="cls-6" d="M163.07,13.79a.57.57,0,0,1-.23.34.59.59,0,0,1-.39.14.36.36,0,0,1-.3-.14.32.32,0,0,1-.08-.21.83.83,0,0,1,0-.13.67.67,0,0,1,.61-.47.38.38,0,0,1,.32.13.43.43,0,0,1,.06.22A.49.49,0,0,1,163.07,13.79Z"/><path class="cls-6" d="M8.84,28.29,9.29,28c.34.35.68.74,1,1.18l-.5.38A12.3,12.3,0,0,0,8.84,28.29Zm2.83.49.44-.33c.32.33.74.8,1.25,1.41l-.52.4C12.5,29.8,12.11,29.3,11.67,28.78Zm-5.28-.29.6.18a16.88,16.88,0,0,1-.76,1.81l-.56-.24A11.94,11.94,0,0,0,6.39,28.49Zm.75-2.78H9.22V24.6H7.14Zm4.75-1.11H9.81v1.11h2.08ZM7.14,27.34H9.22V26.21H7.14Zm2.67,0h2.08V26.21H9.81ZM7.66,28.52h.6v1.31c0,.35.16.53.47.53H10.4a.56.56,0,0,0,.58-.53,7.14,7.14,0,0,0,.11-.79l.6.23c-.08.38-.14.67-.2.85a.94.94,0,0,1-1,.76H8.58a.83.83,0,0,1-.92-.95Zm-1.1-4.45h5.92v4.07h-.59v-.28H7.14v.28H6.56Z"/><path class="cls-6" d="M13.68,26.12h2.69v-.95H14.31v-.5h2.06v-.9H17v.9h1.62v.5H17v.95h.78A17.19,17.19,0,0,0,20,24.27l.47.39c-.58.52-1.17,1-1.76,1.46H21v.52H18c-.3.21-.59.41-.89.6h3.43v.51H16.92l-.32.66h3.08c-.1.84-.18,1.36-.22,1.55a1.09,1.09,0,0,1-1.22,1l-1.68,0a5.59,5.59,0,0,0-.16-.65c.61.05,1.19.08,1.73.08a.66.66,0,0,0,.73-.51,9,9,0,0,0,.15-.9H16v-.5l.34-.66h-.08a20.57,20.57,0,0,1-2.4,1.19,5.07,5.07,0,0,0-.36-.54A20.72,20.72,0,0,0,17,26.64h-3.3Z"/><path class="cls-6" d="M23.9,29.07a.6.6,0,0,1-.22.35.63.63,0,0,1-.39.13.37.37,0,0,1-.38-.35.83.83,0,0,1,0-.13.58.58,0,0,1,.23-.33.64.64,0,0,1,.38-.14.4.4,0,0,1,.32.14.39.39,0,0,1,.06.21A.25.25,0,0,1,23.9,29.07Zm.77-2.92a.71.71,0,0,1-.24.34.58.58,0,0,1-.38.13.34.34,0,0,1-.31-.14.31.31,0,0,1-.08-.22.52.52,0,0,1,0-.11.6.6,0,0,1,.23-.34.64.64,0,0,1,.38-.14.39.39,0,0,1,.32.14.34.34,0,0,1,.07.22A.49.49,0,0,1,24.67,26.15Z"/><path class="cls-6" d="M34.27,26.9l.5-.29c.41.59.78,1.17,1.1,1.73l-.58.32C35,28.1,34.65,27.51,34.27,26.9Zm-.14-1.5h2.56V23.8h.63v1.6h.93V26h-.93v3.92A1,1,0,0,1,36.21,31H35.08c0-.18-.07-.41-.13-.67.51,0,.9.06,1.16.06a.51.51,0,0,0,.58-.57V26H34.13Zm-2.81.3,1.29,1.82a8.23,8.23,0,0,0,.58-2.37H30.77v-.57h3.05v.55A10.1,10.1,0,0,1,33,28.08l1.21,1.74-.55.36-1-1.48a8.19,8.19,0,0,1-1.74,2.16c-.1-.16-.23-.34-.38-.55a7.51,7.51,0,0,0,1.75-2.17L30.86,26Z"/><path class="cls-6" d="M42.11,27l.58.21a23.06,23.06,0,0,1-1.13,2.75A5.46,5.46,0,0,0,41,29.7,24.17,24.17,0,0,0,42.11,27Zm2.1.22.53-.23a25.73,25.73,0,0,1,1.34,2.65l-.6.28C45.06,28.91,44.64,28,44.21,27.2Zm-1-1.43h.58v4.38a.77.77,0,0,1-.88.86c-.23,0-.52,0-.86,0q0-.27-.09-.6a6.23,6.23,0,0,0,.89.06q.36,0,.36-.39ZM38.39,29.1a9.48,9.48,0,0,0,1.3-2.58H38.43V26h1.28V24.88l-1.1.11c0-.16-.08-.34-.13-.53,1.22-.12,2.2-.24,2.92-.36l.15.54-1.3.18V26h1v.18a12.57,12.57,0,0,0,1.3-2.47l.58.19c-.15.34-.3.67-.45,1h3.16v.54c-.11.26-.31.68-.6,1.25a3.25,3.25,0,0,0-.57-.22c.22-.44.38-.78.48-1H42.4a10.31,10.31,0,0,1-.79,1.3l-.36-.35v.16h-1v.79l.27-.24a10.07,10.07,0,0,1,.93.93l-.4.38a9.94,9.94,0,0,0-.8-.87v3.62h-.54V27.84a8.91,8.91,0,0,1-1,1.87C38.6,29.5,38.5,29.3,38.39,29.1Z"/><path class="cls-6" d="M52.77,26.55H50.24v1.78h2.53Zm-6.5.37h1.39c0-.44,0-1,0-1.53h-.5a7.16,7.16,0,0,1-.56,1.18,3.92,3.92,0,0,0-.39-.5,7.1,7.1,0,0,0,.84-2.36l.57.1a9.59,9.59,0,0,1-.28,1.06h1.91v.52h-1q0,.87,0,1.53H49.4v.53H48.21a8.16,8.16,0,0,1-.14,1l.36-.22c.4.59.77,1.15,1.09,1.69l-.52.31c-.3-.55-.63-1.09-1-1.62A4.24,4.24,0,0,1,46.61,31a5.67,5.67,0,0,0-.42-.46,4.34,4.34,0,0,0,1.43-3.12H46.27Zm3.38-2.7h4.16v.52H50.24V26h3.11v3.25h-.58v-.43H50.24V30.3h3.64v.53H49.65Z"/><path class="cls-6" d="M56.67,28.29c.14,1-.11,1.5-.73,1.63a4.61,4.61,0,0,1-.76,0c0-.19-.08-.4-.13-.62a2.15,2.15,0,0,0,.67.05c.36,0,.48-.4.36-1.06a3.13,3.13,0,0,0-.7-1.35c.23-.74.45-1.46.64-2.18H55v6.36h-.57V24.24h2.21v.52c-.34,1.12-.56,1.81-.66,2.08A3.3,3.3,0,0,1,56.67,28.29Zm.23.54h2.28V27.72H57.06v-.53a17.59,17.59,0,0,0,.89-1.9h-1v-.53h1.25c.12-.34.24-.68.35-1l.64.13c-.11.3-.22.6-.35.91h2.77v.53h-3c-.26.61-.53,1.25-.84,1.9h1.43V25.76h.65v1.43H61.4v.53H59.83v1.11h1.84v.54H59.83v1.76h-.65V29.37H56.9Z"/><path class="cls-6" d="M64.63,29.59l.37.49c-.91.4-1.82.76-2.74,1.08-.07-.17-.17-.35-.28-.56A20.78,20.78,0,0,0,64.63,29.59Zm1.72.53.32-.49c.9.27,1.81.56,2.74.9l-.3.59C68.41,30.82,67.49,30.49,66.35,30.12Zm-2.81-2.43h4.33V27H63.54Zm0-1.19h4.33v-.69H63.54Zm4.33-1.88H63.54v.69h4.33Zm-4.33,4.27h4.33v-.7H63.54Zm-1.65,0H63V24.08h5.52v4.81h1v.54H61.89Z"/><path class="cls-6" d="M75.76,26.6H71.89v.89h3.87Zm-3.87,2.29h3.87V28H71.89Zm0,2.2h-.61V27.22A12.92,12.92,0,0,1,70,28.43c-.1-.17-.23-.35-.36-.54A9.67,9.67,0,0,0,72,25.21H69.89v-.55h2.4a7.93,7.93,0,0,0,.37-1l.64.14a8.33,8.33,0,0,1-.34.82h4.35v.55H72.69a9.45,9.45,0,0,1-.53.86h4.22v4a.82.82,0,0,1-.93.93H74.21c0-.17-.07-.37-.12-.61.48,0,.86.05,1.14.05s.53-.17.53-.51V29.4H71.89Z"/><path class="cls-6" d="M77.93,25.47l.5.12c-.09.6-.22,1.24-.38,1.92a3.61,3.61,0,0,0-.53-.14A19.26,19.26,0,0,0,77.93,25.47Zm.71-1.69h.59v1.44l.33-.18a12.39,12.39,0,0,1,.69,1.14l-.48.3a9.59,9.59,0,0,0-.54-1v5.66h-.59Zm1.2,6.52h2.5v-2h-2v-.52h2V26H81.09a14.88,14.88,0,0,1-.66,1.41,2.73,2.73,0,0,0-.52-.34A10.07,10.07,0,0,0,81,24.26l.61.16c-.09.34-.19.68-.31,1h1V23.79h.6v1.65h2V26h-2v1.81h1.87v.52H82.94v2h2.27v.52H79.84Z"/><path class="cls-6" d="M90.18,27.88a6.13,6.13,0,0,1-.1,1.41c.94.4,1.9.83,2.88,1.31l-.33.55c-1-.53-1.9-1-2.75-1.36q-.6,1-3,1.38-.14-.24-.33-.54c1.59-.24,2.52-.63,2.8-1.16a3.57,3.57,0,0,0,.2-1.59Zm-4.05-3.67c2.49,0,4.65-.12,6.49-.31l.22.58c-1.93.13-4,.22-6.1.25V27a6.76,6.76,0,0,1-1,4.13c-.15-.18-.31-.34-.46-.49a5.72,5.72,0,0,0,.84-3.59ZM87.51,27h2V26.1H87v-.52h2.52v-.82h.62v.82h2.61v.52H90.18V27h2.07V29.6h-.6V27.49H88.11V29.6h-.6Z"/><path class="cls-6" d="M100.9,23.06a.11.11,0,0,1-.11.1h-.73l-2.13,8.29h.72s.08,0,.08.07v0l0,.16a.11.11,0,0,1-.12.1h-1a.09.09,0,0,1-.07,0s0,0,0,0v0l2.26-8.81a.14.14,0,0,1,.14-.1h1a.06.06,0,0,1,.07.07v0Z"/><path class="cls-6" d="M101.66,29.07a.63.63,0,0,1-.61.48.34.34,0,0,1-.31-.14.31.31,0,0,1-.07-.21.66.66,0,0,1,0-.13.58.58,0,0,1,.23-.33.64.64,0,0,1,.38-.14.39.39,0,0,1,.32.14.39.39,0,0,1,.06.21A.49.49,0,0,1,101.66,29.07Z"/><path class="cls-6" d="M104.43,29.07a.63.63,0,0,1-.61.48.34.34,0,0,1-.31-.14.31.31,0,0,1-.07-.21.34.34,0,0,1,0-.13.56.56,0,0,1,.22-.33.64.64,0,0,1,.39-.14.38.38,0,0,1,.31.14.33.33,0,0,1,.07.21A.5.5,0,0,1,104.43,29.07Z"/><path class="cls-6" d="M107.2,29.07a.63.63,0,0,1-.61.48.34.34,0,0,1-.31-.14.31.31,0,0,1-.07-.21.34.34,0,0,1,0-.13.56.56,0,0,1,.22-.33.64.64,0,0,1,.39-.14.38.38,0,0,1,.31.14.33.33,0,0,1,.07.21A.5.5,0,0,1,107.2,29.07Z"/><path class="cls-6" d="M109,31.71a.14.14,0,0,1-.13.1h-1a.07.07,0,0,1-.08-.07v0l0-.16a.11.11,0,0,1,.12-.1h.71l2.14-8.29h-.72a.06.06,0,0,1-.07-.07v0l0-.16a.12.12,0,0,1,.13-.1h1l.07,0a.09.09,0,0,1,0,.08Z"/><path class="cls-6" d="M116,23.59s0,0,0,0l-.05,0h0s0,0,0,0h0c0-.07,0-.15,0-.23l0-.23v-.08a.34.34,0,0,0,0-.1.33.33,0,0,0,0-.13.44.44,0,0,0-.23-.13,1.58,1.58,0,0,0-.32,0H115a.75.75,0,0,0-.2,0,.5.5,0,0,0-.07.16L114,25.6s0,0,0,.06a.07.07,0,0,0,.06.08.79.79,0,0,0,.26,0h.35s0,0,0,0v.07s0,.05-.09.05h-1.93s0,0,0,0v-.06s0,0,0,0,0,0,0,0h.36a1,1,0,0,0,.28,0c.06,0,.1-.06.12-.14l.79-2.75a.44.44,0,0,0,0-.14v0a.53.53,0,0,0-.18,0h-.32a2,2,0,0,0-.34,0,1,1,0,0,0-.3.13A.51.51,0,0,0,113,23a1.45,1.45,0,0,0-.1.18l-.11.22-.09.23s0,.06-.08.06h0l0,0s0,0,0,0v0l.19-.51.21-.51a.08.08,0,0,1,.08-.06h3.14s0,0,0,0h0Z"/><line class="cls-7" x1="119.07" y1="25.95" x2="125.37" y2="25.95"/><line class="cls-7" x1="119.07" y1="27.84" x2="125.37" y2="27.84"/><path class="cls-6" d="M131.39,23.06a.11.11,0,0,1-.12.1h-.72l-2.13,8.29h.72c.05,0,.08,0,.08.07v0l-.05.16a.11.11,0,0,1-.12.1h-1a.09.09,0,0,1-.07,0s0,0,0,0v0l2.26-8.81a.13.13,0,0,1,.13-.1h1a.06.06,0,0,1,.07.07v0Z"/><path class="cls-6" d="M132.14,29.07a.6.6,0,0,1-.22.35.63.63,0,0,1-.39.13.34.34,0,0,1-.3-.14.32.32,0,0,1-.08-.21.83.83,0,0,1,0-.13.58.58,0,0,1,.23-.33.64.64,0,0,1,.38-.14.4.4,0,0,1,.32.14.39.39,0,0,1,.06.21A.25.25,0,0,1,132.14,29.07Z"/><path class="cls-6" d="M134.92,29.07a.63.63,0,0,1-.61.48.34.34,0,0,1-.31-.14.31.31,0,0,1-.07-.21.66.66,0,0,1,0-.13.58.58,0,0,1,.23-.33.64.64,0,0,1,.38-.14.39.39,0,0,1,.32.14.39.39,0,0,1,.06.21A.49.49,0,0,1,134.92,29.07Z"/><path class="cls-6" d="M137.69,29.07a.63.63,0,0,1-.61.48.34.34,0,0,1-.31-.14.31.31,0,0,1-.07-.21.66.66,0,0,1,0-.13.63.63,0,0,1,.23-.33.64.64,0,0,1,.39-.14.38.38,0,0,1,.31.14.33.33,0,0,1,.07.21A.5.5,0,0,1,137.69,29.07Z"/><path class="cls-6" d="M139.45,31.71a.14.14,0,0,1-.13.1h-1a.08.08,0,0,1-.08-.07v0l.05-.16a.11.11,0,0,1,.12-.1h.71l2.14-8.29h-.72a.06.06,0,0,1-.07-.07v0l0-.16a.12.12,0,0,1,.13-.1h1l.07,0a.09.09,0,0,1,0,.08Z"/><path class="cls-6" d="M8.92,40.33H7.54c0,.46,0,.87,0,1.23H8.92Zm0,1.76H7.52c0,.33,0,.76,0,1.27H8.89C8.9,43,8.91,42.55,8.91,42.09Zm4.35,2.1c0,.92-.42,1.4-1.25,1.42a7,7,0,0,1-.8,0q0-.27-.12-.69A3.75,3.75,0,0,0,12,45c.43,0,.65-.3.65-.82a2.38,2.38,0,0,0-1.1-1.72q.57-1.22.93-2.16H11v6.39h-.58V39.76H13.1v.61c-.36.85-.65,1.5-.87,2A2.48,2.48,0,0,1,13.26,44.19ZM5.8,43.36H6.9c0-.16,0-.58,0-1.27H5.85v-.53H7c0-.36,0-.77,0-1.23H5.82V39.8h3.7c0,2.6,0,4.44-.1,5.5,0,.74-.37,1.11-1,1.12l-1.06,0a4.26,4.26,0,0,0-.13-.62,8.59,8.59,0,0,0,1.09.09c.35,0,.53-.22.55-.64s0-.83,0-1.33H7.44a4.42,4.42,0,0,1-1.34,2.8c-.11-.15-.24-.32-.4-.5a3.64,3.64,0,0,0,1.14-2.3h-1Z"/><path class="cls-6" d="M13.49,43.25a14,14,0,0,0,3.55-4l.63.3A14.05,14.05,0,0,1,14,43.74,3.52,3.52,0,0,0,13.49,43.25Zm5.65.06c.7.95,1.35,1.91,2,2.88l-.61.38-.41-.67c-2.44.14-4,.23-4.59.28a7.41,7.41,0,0,0-1,.14l-.31-.66a3,3,0,0,0,.91-.59,24.27,24.27,0,0,0,3.52-4.36l.67.33a28.82,28.82,0,0,1-3.78,4.51c1,0,2.36-.1,4.19-.2-.39-.61-.77-1.19-1.13-1.72Z"/><path class="cls-6" d="M24,44.16l.43-.27a11.54,11.54,0,0,1,.74,1l-.48.31A10.51,10.51,0,0,0,24,44.16Zm3-4.09.36-.39c.41.28.8.57,1.18.87l-.4.44C27.87,40.77,27.49,40.46,27,40.07ZM22.23,44l.5.2a9.32,9.32,0,0,1-.86,1.67,3.11,3.11,0,0,0-.49-.26A8.77,8.77,0,0,0,22.23,44Zm2.19-2h-2v1.09h2Zm-3-1.66h1.91a9.41,9.41,0,0,0-.49-.83l.52-.24a9.27,9.27,0,0,1,.5.84l-.5.23h2v.51H21.44Zm.47,1.17h3v2.25h-.53v-.18H23.7v2.22a.69.69,0,0,1-.79.76l-.67,0a2.35,2.35,0,0,0-.13-.57,5.52,5.52,0,0,0,.71.05.3.3,0,0,0,.34-.34v-2.1h-.72v.18h-.53Zm3.25,0H26c0-.4,0-1.11,0-2.13h.56q0,1.41,0,2.13h2.25V42H27.4v3.58c0,.24.1.36.29.36h.25q.33,0,.39-.45a7.9,7.9,0,0,0,.1-1.14l.58.22c-.05.45-.09.81-.13,1.1a.8.8,0,0,1-.86.8H27.5q-.66,0-.66-.78V42H26.5a6.75,6.75,0,0,1-1.75,4.73c-.13-.14-.28-.29-.44-.44A6,6,0,0,0,25.94,42h-.78Z"/><path class="cls-6" d="M30.38,41.47l.45-.36a14.84,14.84,0,0,1,1.07,1.17l-.5.41C31.13,42.34,30.8,41.94,30.38,41.47Zm3.67.89a12.61,12.61,0,0,0,1.1-1.28l.53.4c-.38.45-.78.86-1.18,1.25Zm2.79,3.14c-.16.21-.31.4-.43.57a8.08,8.08,0,0,1-3.12-2.26v2.86H32.7v-2.9a11.32,11.32,0,0,1-3.14,2.38,6.09,6.09,0,0,0-.41-.51,13.09,13.09,0,0,0,3.36-2.27H29.28v-.53H32.7v-2h-3v-.53h3V39.27h.59v1.08h3v.53h-3v2h3.43v.53H33.45A8.35,8.35,0,0,0,36.84,45.5Z"/><path class="cls-6" d="M39.24,44.88H43.1v-.53H39.24Zm3.86-1.51H39.24v.52H43.1Zm-3.86,2.5H43.1v-.53H39.24Zm-2.13-4h2.35a5.45,5.45,0,0,0,.35-.62H37.62v-.47H40a4.92,4.92,0,0,0,.23-.6l-2.66.07c0-.16-.07-.33-.11-.51,2.45,0,4.61-.11,6.47-.22l.1.51-3.15.13c-.07.21-.15.41-.23.62H44v.47H40.46c-.1.21-.21.42-.33.62h4.48v.48H39.82c-.13.19-.27.37-.41.56h4.25v3.75H43.1v-.29H39.24v.29h-.55V43.71a11.3,11.3,0,0,1-1.35,1.2c-.1-.15-.22-.32-.37-.51a9.1,9.1,0,0,0,2.16-2.07h-2Z"/><path class="cls-6" d="M47.07,44.88h3.86v-.53H47.07Zm3.86-1.51H47.07v.52h3.86Zm-3.86,2.5h3.86v-.53H47.07Zm-2.13-4h2.35c.13-.2.24-.41.35-.62H45.45v-.47h2.41c.09-.2.16-.4.23-.6l-2.67.07c0-.16-.06-.33-.1-.51,2.44,0,4.6-.11,6.47-.22l.09.51-3.15.13c-.07.21-.14.41-.23.62h3.35v.47H48.28c-.1.21-.21.42-.33.62h4.49v.48h-4.8a6.64,6.64,0,0,1-.41.56h4.25v3.75h-.55v-.29H47.07v.29h-.55V43.71a12.14,12.14,0,0,1-1.35,1.2c-.1-.15-.23-.32-.37-.51A9.1,9.1,0,0,0,47,42.33h-2Z"/><path class="cls-6" d="M55.21,44.63A.55.55,0,0,1,55,45a.62.62,0,0,1-.38.14.35.35,0,0,1-.31-.15.31.31,0,0,1-.07-.21.74.74,0,0,1,0-.12.55.55,0,0,1,.22-.34.64.64,0,0,1,.39-.14.42.42,0,0,1,.32.14.39.39,0,0,1,.06.21A.69.69,0,0,1,55.21,44.63ZM56,41.7a.6.6,0,0,1-.23.34.62.62,0,0,1-.38.14A.39.39,0,0,1,55,42a.34.34,0,0,1-.07-.22.5.5,0,0,1,0-.12.58.58,0,0,1,.23-.34.62.62,0,0,1,.38-.14.4.4,0,0,1,.32.14.36.36,0,0,1,.07.22A.5.5,0,0,1,56,41.7Z"/><path class="cls-8" d="M70.31,43.46a1.88,1.88,0,0,0,.06-.46v-.09a1.08,1.08,0,0,0-.14-.48.92.92,0,0,0-.28-.31.74.74,0,0,0-.42-.12H67.87l-.64,2.5a.91.91,0,0,0,0,.23.35.35,0,0,0,0,.06.56.56,0,0,0,.28,0h1.21a1.34,1.34,0,0,0,.51-.11,1.77,1.77,0,0,0,.88-.75A2.3,2.3,0,0,0,70.31,43.46Zm.55-3a1.49,1.49,0,0,0,0-.36V40a1,1,0,0,0-.13-.42.87.87,0,0,0-.27-.27.81.81,0,0,0-.39-.1H68.93a.55.55,0,0,0-.31.05.62.62,0,0,0-.12.28l-.57,2.26h1.29a1.44,1.44,0,0,0,.53-.11,1.76,1.76,0,0,0,.49-.29A1.65,1.65,0,0,0,70.86,40.47Zm.83,0a1.4,1.4,0,0,1-.3.58,2.07,2.07,0,0,1-.52.46,2.37,2.37,0,0,1-.47.25,2.85,2.85,0,0,1-.48.13,1.53,1.53,0,0,1,.54.14,1.31,1.31,0,0,1,.43.31,1,1,0,0,1,.28.5,2.7,2.7,0,0,1,0,.28,1.4,1.4,0,0,1,0,.34,1.85,1.85,0,0,1-.31.63,2.47,2.47,0,0,1-.54.53,2.64,2.64,0,0,1-.71.36,2.19,2.19,0,0,1-.75.13H65.61a.09.09,0,0,1-.07,0,.05.05,0,0,1,0,0s0,0,0,0l0-.07a.11.11,0,0,1,.13-.1h.4a.78.78,0,0,0,.3,0q.11,0,.15-.27l1.27-5a.61.61,0,0,0,0-.16c0-.06,0-.09,0-.1a.67.67,0,0,0-.27-.06h-.4s-.06,0-.07,0a.08.08,0,0,1,0,0s0,0,0,0l0-.07a.12.12,0,0,1,0-.07.11.11,0,0,1,.08,0h3a2.26,2.26,0,0,1,.69.11,1.19,1.19,0,0,1,.53.34,1.07,1.07,0,0,1,.29.48,1.27,1.27,0,0,1,0,.28A1.1,1.1,0,0,1,71.69,40.47Z"/><path class="cls-8" d="M76.42,39.14s0,0,0,0l0,0h0s-.05,0-.05,0v0c0-.07,0-.15,0-.23l0-.23v-.07s0-.08,0-.11a.4.4,0,0,0,0-.13.44.44,0,0,0-.23-.13,1.58,1.58,0,0,0-.32,0H75.4a.75.75,0,0,0-.2,0,.64.64,0,0,0-.07.16l-.79,2.75a.15.15,0,0,0,0,.06s0,.07,0,.08a.91.91,0,0,0,.27,0H75s0,0,0,0v.07a.08.08,0,0,1-.09.06l-.94,0-1,0,0,0v0s0,0,0,0v0s0,0,0,0l0,0h.36a.91.91,0,0,0,.27,0c.07,0,.11-.06.13-.14l.79-2.75a.45.45,0,0,0,0-.13v0a.53.53,0,0,0-.18,0h-.32a2,2,0,0,0-.34,0,1,1,0,0,0-.3.13.51.51,0,0,0-.12.13l-.11.18a2.14,2.14,0,0,1-.1.22l-.09.24a.09.09,0,0,1-.08.05h0l0,0h0v0a5.27,5.27,0,0,1,.19-.51l.21-.52a.08.08,0,0,1,.08-.06h3.13a0,0,0,0,1,0,0v0Z"/><path class="cls-9" d="M82.14,39.81l-1.73,3h1.93ZM84,45c0,.07-.07.11-.13.11l-.9,0h-.15l-1.07,0a.07.07,0,0,1-.08-.07v0l0-.07a.11.11,0,0,1,.13-.1h.3a.92.92,0,0,0,.27-.08.24.24,0,0,0,.09-.08.17.17,0,0,0,0-.1v0L82.36,43H80.25l-.74,1.26a.48.48,0,0,0-.06.21.34.34,0,0,0,0,.17.48.48,0,0,0,.41.16c.06,0,.08,0,.09.06v0L80,45a.14.14,0,0,1-.13.11l-.83,0h-.12l-.71,0a.09.09,0,0,1-.07,0s0,0,0,0a.08.08,0,0,1,0,0v-.07a.13.13,0,0,1,.13-.1,1.53,1.53,0,0,0,.3,0,1,1,0,0,0,.28-.12,1.07,1.07,0,0,0,.23-.2,1,1,0,0,0,.19-.26l3.2-5.48a.18.18,0,0,1,.17-.09h.09a.1.1,0,0,1,.11.09l.4,5.74c0,.08,0,.14,0,.19a.16.16,0,0,0,.08.1.46.46,0,0,0,.23,0h.34c.06,0,.08,0,.08.06a.06.06,0,0,1,0,0Z"/><path class="cls-10" d="M89.38,43.46a1.9,1.9,0,0,0,.07-.46v-.09a1.22,1.22,0,0,0-.14-.48.86.86,0,0,0-.29-.31A.74.74,0,0,0,88.6,42H86.94l-.64,2.5a1.43,1.43,0,0,0,0,.23s0,.05,0,.06.11,0,.27,0h1.21a1.39,1.39,0,0,0,.52-.11,2,2,0,0,0,.48-.29,2.17,2.17,0,0,0,.4-.46A2.25,2.25,0,0,0,89.38,43.46Zm.56-3a1.47,1.47,0,0,0,0-.36V40a.9.9,0,0,0-.13-.42.87.87,0,0,0-.27-.27.8.8,0,0,0-.38-.1H88a.61.61,0,0,0-.31.05.54.54,0,0,0-.11.28L87,41.81h1.3a1.39,1.39,0,0,0,.52-.11,1.81,1.81,0,0,0,.5-.29A1.7,1.7,0,0,0,89.94,40.47Zm.82,0a1.38,1.38,0,0,1-.29.58,2.26,2.26,0,0,1-.52.46,2.44,2.44,0,0,1-.48.25,2.85,2.85,0,0,1-.48.13,1.65,1.65,0,0,1,.55.14,1.43,1.43,0,0,1,.43.31,1.11,1.11,0,0,1,.27.5.9.9,0,0,1,0,.28,1,1,0,0,1,0,.34,1.55,1.55,0,0,1-.31.63,2.47,2.47,0,0,1-.54.53,2.5,2.5,0,0,1-.71.36,2.19,2.19,0,0,1-.75.13H84.68a.06.06,0,0,1-.06,0s0,0,0,0a.08.08,0,0,1,0,0v-.07a.12.12,0,0,1,.14-.1h.4a.72.72,0,0,0,.29,0c.07,0,.12-.12.16-.27l1.27-5a.61.61,0,0,0,0-.16c0-.06,0-.09,0-.1a.66.66,0,0,0-.26-.06h-.41s0,0-.06,0a.06.06,0,0,1,0-.08l0-.07a.1.1,0,0,1,0-.07l.09,0h3a2.15,2.15,0,0,1,.68.11,1.16,1.16,0,0,1,.54.34,1.05,1.05,0,0,1,.28.48.86.86,0,0,1,0,.28A1.12,1.12,0,0,1,90.76,40.47Z"/><path class="cls-6" d="M64.55,46.8a5.18,5.18,0,0,1,0-8.71H65a5.47,5.47,0,0,0,0,8.71"/><path class="cls-6" d="M91.92,38.09a5.18,5.18,0,0,1,0,8.71h-.46a5.47,5.47,0,0,0,0-8.71"/><path class="cls-6" d="M100.18,39.14l0,0-.05,0h0s0,0,0,0v0c0-.07,0-.15,0-.23l0-.23v-.07s0-.08,0-.11a.25.25,0,0,0,0-.13.41.41,0,0,0-.22-.13,1.66,1.66,0,0,0-.32,0h-.32a.66.66,0,0,0-.19,0,.4.4,0,0,0-.07.16l-.79,2.75a.15.15,0,0,0,0,.06s0,.07,0,.08a.84.84,0,0,0,.26,0h.36s0,0,0,0a0,0,0,0,1,0,0v0a.07.07,0,0,1-.08.06l-.94,0-1,0,0,0v0l0,0s0,0,0,0l.05,0h.36a.91.91,0,0,0,.27,0,.17.17,0,0,0,.13-.14l.79-2.75a.45.45,0,0,0,0-.13,0,0,0,0,0,0,0,.44.44,0,0,0-.18,0H98a1.87,1.87,0,0,0-.34,0,1,1,0,0,0-.3.13.51.51,0,0,0-.12.13,1.42,1.42,0,0,0-.11.18l-.1.22-.09.24a.1.1,0,0,1-.08.05h0a.05.05,0,0,1,0,0h0v0a5.27,5.27,0,0,1,.19-.51l.21-.52a.08.08,0,0,1,.08-.06h3.13a0,0,0,0,1,.05,0v0Z"/><line class="cls-7" x1="103.21" y1="41.5" x2="109.5" y2="41.5"/><line class="cls-7" x1="103.21" y1="43.39" x2="109.5" y2="43.39"/><path class="cls-10" d="M116.91,43.46A1.88,1.88,0,0,0,117,43v-.09a1.08,1.08,0,0,0-.14-.48.83.83,0,0,0-.28-.31.74.74,0,0,0-.42-.12h-1.67l-.64,2.5a1.85,1.85,0,0,0,0,.23.35.35,0,0,0,0,.06.56.56,0,0,0,.28,0h1.22a1.34,1.34,0,0,0,.51-.11,1.77,1.77,0,0,0,.88-.75A2.3,2.3,0,0,0,116.91,43.46Zm.55-3a1.49,1.49,0,0,0,.05-.36V40a1,1,0,0,0-.13-.42.87.87,0,0,0-.27-.27.81.81,0,0,0-.39-.1h-1.19a.55.55,0,0,0-.31.05.72.72,0,0,0-.13.28l-.57,2.26h1.3a1.44,1.44,0,0,0,.53-.11,1.76,1.76,0,0,0,.49-.29A1.65,1.65,0,0,0,117.46,40.47Zm.83,0a1.4,1.4,0,0,1-.3.58,2.07,2.07,0,0,1-.52.46,2.37,2.37,0,0,1-.47.25,2.85,2.85,0,0,1-.48.13,1.53,1.53,0,0,1,.54.14,1.31,1.31,0,0,1,.43.31,1,1,0,0,1,.28.5,2.7,2.7,0,0,1,0,.28,1.4,1.4,0,0,1,0,.34,1.85,1.85,0,0,1-.31.63,2.47,2.47,0,0,1-.54.53,2.64,2.64,0,0,1-.71.36,2.19,2.19,0,0,1-.75.13H112.2a.09.09,0,0,1-.07,0,.05.05,0,0,1,0,0s0,0,0,0l0-.07a.11.11,0,0,1,.13-.1h.4a.78.78,0,0,0,.3,0q.11,0,.15-.27l1.27-5a.61.61,0,0,0,0-.16c0-.06,0-.09,0-.1a.67.67,0,0,0-.27-.06h-.4a.08.08,0,0,1-.07,0,.06.06,0,0,1,0,0v0l0-.07a.12.12,0,0,1,0-.07.13.13,0,0,1,.08,0h3a2.22,2.22,0,0,1,.69.11,1.19,1.19,0,0,1,.53.34,1.07,1.07,0,0,1,.29.48,1.27,1.27,0,0,1,0,.28A1.1,1.1,0,0,1,118.29,40.47Z"/><path class="cls-6" d="M123,39.14l0,0,0,0h0s0,0,0,0v0c0-.07,0-.15,0-.23a2,2,0,0,0,0-.23v-.18a.25.25,0,0,0-.05-.13.41.41,0,0,0-.22-.13,1.66,1.66,0,0,0-.32,0H122a.66.66,0,0,0-.19,0,.64.64,0,0,0-.07.16l-.79,2.75a.15.15,0,0,0,0,.06s0,.07,0,.08a.88.88,0,0,0,.26,0h.36s.05,0,.05,0a0,0,0,0,1,0,0v0s0,.06-.08.06l-.94,0-1,0,0,0v0s0,0,0,0v0s0,0,0,0l0,0h.36a.91.91,0,0,0,.27,0,.17.17,0,0,0,.13-.14l.79-2.75a.45.45,0,0,0,0-.13,0,0,0,0,0,0,0,.41.41,0,0,0-.17,0h-.32a1.87,1.87,0,0,0-.34,0,1,1,0,0,0-.3.13.51.51,0,0,0-.12.13,1.42,1.42,0,0,0-.11.18l-.1.22-.09.24a.1.1,0,0,1-.08.05h-.05a.05.05,0,0,1,0,0h0v0a5.27,5.27,0,0,1,.19-.51l.21-.52a.08.08,0,0,1,.08-.06h3.13a0,0,0,0,1,0,0v0Z"/><path class="cls-9" d="M153.22,39.81l-1.72,3h1.92ZM155,45c0,.07-.06.11-.12.11l-.9,0h-.15l-1.07,0a.07.07,0,0,1-.08-.07v0l0-.07a.11.11,0,0,1,.13-.1h.3a.84.84,0,0,0,.27-.08.24.24,0,0,0,.09-.08.17.17,0,0,0,0-.1v0L153.44,43h-2.11l-.74,1.26a.48.48,0,0,0-.06.21.27.27,0,0,0,.06.17.44.44,0,0,0,.4.16q.09,0,.09.06a.06.06,0,0,1,0,0l0,.07a.14.14,0,0,1-.13.11l-.82,0H150l-.71,0a.06.06,0,0,1-.06,0s0,0,0,0a.08.08,0,0,1,0,0v-.07a.13.13,0,0,1,.14-.1,1.43,1.43,0,0,0,.29,0,1,1,0,0,0,.28-.12,1.07,1.07,0,0,0,.23-.2,1.37,1.37,0,0,0,.2-.26l3.19-5.48a.18.18,0,0,1,.17-.09h.09a.1.1,0,0,1,.11.09l.4,5.74c0,.08,0,.14,0,.19a.16.16,0,0,0,.08.1.46.46,0,0,0,.23,0H155c.05,0,.08,0,.08.06a.06.06,0,0,1,0,0Z"/><path class="cls-6" d="M159,39.14a.05.05,0,0,1,0,0l-.05,0h0s-.06,0-.06,0v0a1.57,1.57,0,0,0,0-.23,1,1,0,0,0,0-.23v-.18a.39.39,0,0,0,0-.13.4.4,0,0,0-.23-.13,1.48,1.48,0,0,0-.31,0H158a.66.66,0,0,0-.19,0,.4.4,0,0,0-.07.16L157,41.15a.15.15,0,0,0,0,.06s0,.07.05.08a.84.84,0,0,0,.26,0h.36s0,0,0,0a0,0,0,0,1,0,0v0a.07.07,0,0,1-.08.06l-.94,0-1,0,0,0v-.08l0,0,.06,0h.35a.94.94,0,0,0,.28,0c.06,0,.1-.06.13-.14l.79-2.75a.45.45,0,0,0,0-.13,0,0,0,0,0,0,0,.44.44,0,0,0-.18,0h-.31a1.87,1.87,0,0,0-.34,0,1,1,0,0,0-.3.13.51.51,0,0,0-.12.13,1.42,1.42,0,0,0-.11.18l-.1.22a2.44,2.44,0,0,1-.1.24.08.08,0,0,1-.08.05h0s0,0,0,0h0v0a3.52,3.52,0,0,1,.19-.51l.21-.52a.08.08,0,0,1,.08-.06h3.13a0,0,0,0,1,.05,0v0Z"/><path class="cls-6" d="M149.3,48.52a2.09,2.09,0,0,0,2,1.38h1.08a1.84,1.84,0,0,1,1.72,1.2h.22A1.81,1.81,0,0,1,156,49.9h1.08a2.09,2.09,0,0,0,2-1.38L159,48.3a1.81,1.81,0,0,1-1.65,1.06H156a1.81,1.81,0,0,0-1.71,1.2h-.22a1.84,1.84,0,0,0-1.72-1.2H151a1.81,1.81,0,0,1-1.65-1.06"/><path class="cls-6" d="M127.68,52.6h-1.06V53h1.06Zm-1.06,1h1.06v-.37h-1.06Zm2.63,0h.32v.53a2.11,2.11,0,0,1-.1.7c.5.31.86.55,1.1.73l-.26.22a11.43,11.43,0,0,0-.95-.68l-.06.08a1.86,1.86,0,0,1-1,.64,3.18,3.18,0,0,0-.26-.25A1.73,1.73,0,0,0,129,55a1.49,1.49,0,0,0,.26-.95Zm-.83-.45h.7c0-.16.06-.32.08-.48h-1v-.27h2.42v.27h-1.11c0,.17-.06.33-.09.48h.94v1.78h-.31V53.4h-1.36v1.51h-.31Zm-2.12-.78H128V54h-.32v-.13h-1.06V54h-.32ZM126,55.92a2,2,0,0,0,.39-1.28h.33c0,.18,0,.34-.05.5a1.61,1.61,0,0,0,.45.45V54.45H126v-.28h2.23v.28h-.83v.44h.78v.27h-.78v.58a2.73,2.73,0,0,0,.74.12c.57,0,1.44,0,2.62,0,0,.09-.08.2-.13.33-1.16,0-2,0-2.49,0a2,2,0,0,1-1.59-.65,2.57,2.57,0,0,1-.37.82C126.11,56.19,126,56.05,126,55.92Z"/><path class="cls-6" d="M131.94,52.68v.78h2.68v-.78Zm0,1.07v.79h2.68v-.79Zm0,1.08v.79h2.68v-.79Zm-.41-2.46H135v3.88h-.41v-.32h-2.68v.32h-.41Z"/><path class="cls-6" d="M136.28,53.26h.42v.57h2.88V52.76H136.1v-.31H140V54.4h-.41v-.26H136.7v1.22q0,.39.42.39h2.37c.28,0,.45-.09.51-.26a3.92,3.92,0,0,0,.13-.68l.41.12a5.35,5.35,0,0,1-.14.7c-.1.31-.37.47-.81.47H137c-.49,0-.74-.22-.74-.66Z"/><path class="cls-6" d="M140.72,55.63c.67-.11,1.23-.22,1.69-.32,0,.11,0,.22,0,.31-.44.08-1,.18-1.57.32Zm.58-1c.32,0,.67-.08,1-.13,0,.12,0,.22,0,.31-.4,0-.88.11-1.44.2l-.09-.31a6.59,6.59,0,0,0,.77-.85l-.73,0-.09-.29a7.26,7.26,0,0,0,1-1.49l.36.12a15.81,15.81,0,0,1-.9,1.35l.58,0c.13-.17.25-.36.38-.57l.36.15A15,15,0,0,1,141.3,54.66Zm1,1.13h1.37v-1h-1v-.3h2.45v.3h-1v1h1.35v.3h-3.11Zm.31-3.12v-.31h2.32v.31a5,5,0,0,1-.73.73c.48.21.92.43,1.32.63l-.25.29a14.11,14.11,0,0,0-1.35-.72,5.67,5.67,0,0,1-1.46.71,2.09,2.09,0,0,0-.23-.29,4.61,4.61,0,0,0,2.26-1.35Z"/><path class="cls-6" d="M147.42,52.34l.28-.19a7.65,7.65,0,0,1,.6.62L148,53C147.81,52.76,147.63,52.55,147.42,52.34Zm-1.28-.14c.26.21.51.44.77.68l-.33.24q-.41-.43-.72-.72ZM147.19,55a1.82,1.82,0,0,0,.05.35l-.75.52a1.86,1.86,0,0,0-.22.19l-.28-.26a.5.5,0,0,0,.15-.39V53.87h-.55v-.31h.94v1.86Zm2.42-1.66h-2v1h2ZM150,53v1.72h-.36v-.16h-.45v1.1a.21.21,0,0,0,.24.23h.33a.21.21,0,0,0,.23-.19,3.86,3.86,0,0,0,0-.56l.39.13c0,.19-.05.38-.08.56s-.22.36-.52.36h-.46c-.36,0-.55-.16-.55-.48V54.56h-.5a1.88,1.88,0,0,1-.25,1,2.13,2.13,0,0,1-1,.7,2.92,2.92,0,0,0-.23-.29,1.77,1.77,0,0,0,.92-.56,1.48,1.48,0,0,0,.23-.88h-.35v.16h-.36V53h1.51q.28-.36.6-.84l.38.19c-.22.26-.4.47-.57.65Z"/><path class="cls-6" d="M153.71,52.45l-1.08,1.65h1.21Zm1.14,2.91a.09.09,0,0,1-.08.06l-.57,0h-.09l-.67,0a0,0,0,0,1-.05,0v-.06a.08.08,0,0,1,.08-.06h.19a.33.33,0,0,0,.17,0l.06-.05a.08.08,0,0,0,0,0h0l-.07-.84h-1.33l-.46.7a.19.19,0,0,0,0,.12.12.12,0,0,0,0,.09.29.29,0,0,0,.25.09s.05,0,.05,0v.06s0,.06-.08.06l-.52,0h-.08l-.45,0a.05.05,0,0,1,0,0v0s0,0,0,0v0a.08.08,0,0,1,.08-.06l.19,0a.49.49,0,0,0,.17-.06l.15-.11.12-.15,2-3.07a.14.14,0,0,1,.11-.05h.05c.05,0,.07,0,.08.05l.25,3.21s0,.08,0,.11a.09.09,0,0,0,.06.06.37.37,0,0,0,.14,0h.21s.05,0,.05,0v.06Z"/><path class="cls-6" d="M159.8,52.61h-2.55V53h2.55Zm-2.55,1h2.55v-.37h-2.55Zm-.12,1.07.36.09a4.08,4.08,0,0,1-.17.42,1.55,1.55,0,0,0,1.09.62V54.56h-2.2v-.29h4.64v.29h-2V55h1.71v.28H158.8v.58c.61,0,1.33,0,2.14,0l-.13.33h-2.18a1.73,1.73,0,0,1-1.48-.66,2.89,2.89,0,0,1-.83.84l-.24-.28A2.23,2.23,0,0,0,157.13,54.69Zm-.25-2.36h3.29v1.74h-.37V53.9h-2.55v.17h-.37Z"/><path class="cls-6" d="M163.34,53.93l.31-.16q.39.49.69,1l-.36.18C163.79,54.6,163.57,54.27,163.34,53.93Zm-.09-.84h1.61v-.9h.39v.9h.59v.32h-.59V55.6c0,.41-.23.61-.69.61h-.72c0-.1,0-.23-.07-.37l.72,0c.25,0,.37-.11.37-.32V53.41h-1.61Zm-1.76.17.81,1a4.15,4.15,0,0,0,.36-1.33h-1.51v-.32h1.91v.31a5.22,5.22,0,0,1-.52,1.65l.76,1-.34.2-.62-.82a5,5,0,0,1-1.09,1.21l-.23-.31a4.42,4.42,0,0,0,1.09-1.21l-.91-1.2Z"/><path class="cls-6" d="M168.25,54l.37.11a11.64,11.64,0,0,1-.71,1.54,3.58,3.58,0,0,0-.36-.13A12,12,0,0,0,168.25,54Zm1.32.12.33-.13a13.92,13.92,0,0,1,.84,1.48l-.37.16C170.1,55.06,169.84,54.55,169.57,54.1Zm-.62-.8h.37v2.45c0,.32-.18.48-.55.48h-.54c0-.1,0-.22-.06-.34a5,5,0,0,0,.56,0c.15,0,.22-.07.22-.21Zm-3,1.86a5.19,5.19,0,0,0,.82-1.44H166v-.29h.8V52.8l-.69.06c0-.09-.05-.19-.08-.3.76-.06,1.38-.13,1.83-.2l.09.31-.81.09v.67h.63v.1a7.39,7.39,0,0,0,.81-1.38l.37.1c-.1.2-.2.38-.29.55h2v.29a7.39,7.39,0,0,1-.37.71,2.12,2.12,0,0,0-.36-.13,5.55,5.55,0,0,0,.3-.58h-1.72a7.26,7.26,0,0,1-.5.74l-.22-.2v.09h-.63v.44l.17-.13a5.53,5.53,0,0,1,.58.52l-.25.2c-.17-.18-.34-.34-.5-.48v2h-.34V54.46a5,5,0,0,1-.64,1A2.27,2.27,0,0,0,165.92,55.16Z"/><path class="cls-6" d="M173.4,54l.29-.19c.36.37.64.69.86.95l-.36.22A11,11,0,0,0,173.4,54Zm-.89-.83h-1.08v1h1.08Zm-1.08,2.38h1.08V54.49h-1.08ZM173,53.72a5.68,5.68,0,0,0,.77-1.56l.41.09c-.09.21-.17.41-.26.6h1.56c0,1.43-.07,2.33-.1,2.7s-.29.66-.79.66l-.9,0a3.25,3.25,0,0,0-.07-.38h0a7.22,7.22,0,0,0,.88.06c.3,0,.45-.13.48-.4s.06-1.18.07-2.31h-1.29a5.12,5.12,0,0,1-.43.71A2.27,2.27,0,0,0,173,53.72ZM171,52.86h.49a7,7,0,0,0,.29-.7l.41.1c-.1.22-.2.42-.29.6h1v3.33h-.39v-.33h-1.08v.36H171Z"/><path class="cls-6" d="M178,53.72q.83-.44,1.53-.9h-3.63v-.34h4.3v.41c-.58.35-1.16.68-1.77,1v1.54a.73.73,0,0,1-.18.57,1,1,0,0,1-.66.17h-.8c0-.14,0-.27-.07-.41.32,0,.59.05.83.05s.45-.12.45-.38Z"/><path class="cls-6" d="M182,55.41a1.88,1.88,0,0,1-.75,1h-.09v0s0,0,0-.05a1.91,1.91,0,0,0,.44-.41,1.38,1.38,0,0,0,.25-.48l0-.08a.24.24,0,0,1-.11.06l-.15,0a.23.23,0,0,1-.21-.09.2.2,0,0,1,0-.11.17.17,0,0,1,0-.07.38.38,0,0,1,.13-.19.39.39,0,0,1,.25-.08.29.29,0,0,1,.17,0,.21.21,0,0,1,.07.13.37.37,0,0,1,0,.11v0A1.08,1.08,0,0,1,182,55.41Z"/><path class="cls-6" d="M127.66,61.75v-.81h-.92c0,.41,0,.68,0,.81Zm.8-2a17.59,17.59,0,0,0,2.09-.19l.13.32q-1.2.12-1.86.15V61h2v.28H130v2.27h-.36V61.26h-.85v.24a2.63,2.63,0,0,1-.84,2.07l-.28-.27a2.31,2.31,0,0,0,.76-1.81Zm-2.07,0a10,10,0,0,0,1.67-.17l.13.31c-.48.06-1,.11-1.45.14v.65H128v1.55h-.34V62h-.94a2.86,2.86,0,0,1-.51,1.52l-.26-.25a2.74,2.74,0,0,0,.44-1.74Z"/><path class="cls-6" d="M132.83,59.42c.22.3.46.65.72,1.07l-.38.18c-.25-.43-.48-.79-.68-1.09Zm.2,2.42a2.78,2.78,0,0,0,0,.4l-1.45.79-.3.21-.27-.33a.52.52,0,0,0,.22-.42V59.58h.39v3C132,62.39,132.47,62.14,133,61.84Zm1.49-2.32h.4v.75a4.11,4.11,0,0,1-.34,1.84c.4.36.77.71,1.13,1.06l-.34.26c-.33-.36-.65-.69-1-1a3.62,3.62,0,0,1-1.68,1.15,3.22,3.22,0,0,0-.26-.29,3.46,3.46,0,0,0,1.64-1.13,3.26,3.26,0,0,0,.43-1.89Z"/><path class="cls-6" d="M139,59.7l-1.09,1.66h1.21Zm1.13,2.91a.08.08,0,0,1-.08.06h-1.32s-.05,0-.06,0v0l0,0a.07.07,0,0,1,.08-.06,1.2,1.2,0,0,0,.19,0,.55.55,0,0,0,.17,0l.06,0,0-.05v0l-.08-.84h-1.32l-.46.7a.24.24,0,0,0,0,.12.12.12,0,0,0,0,.09.3.3,0,0,0,.26.09s0,0,0,0v.06a.1.1,0,0,1-.09.06h-1.08v0a0,0,0,0,1,0,0v0a.08.08,0,0,1,.08-.06.62.62,0,0,0,.19,0l.17-.07a.72.72,0,0,0,.15-.11l.12-.14,2-3.07a.13.13,0,0,1,.11-.06h.05s.07,0,.07.06l.25,3.21a.87.87,0,0,0,0,.1.1.1,0,0,0,.05.06.31.31,0,0,0,.15,0,1.46,1.46,0,0,0,.21,0s0,0,0,0v0Z"/><path class="cls-6" d="M142.69,59.19l0,0h-.06s0,0,0,0h0a12.69,12.69,0,0,1,0-.27v-.11l0-.08a.21.21,0,0,0-.14-.07.52.52,0,0,0-.18,0H142a.37.37,0,0,0,0,.1l-.47,1.63v0a.07.07,0,0,0,0,0h.36s0,0,0,0h0v0s0,0-.05,0h-1.12s0,0,0,0h0v0l0,0h.41a.11.11,0,0,0,.07-.09l.47-1.63a.51.51,0,0,0,0-.09h-.3a.68.68,0,0,0-.2,0,.48.48,0,0,0-.18.07.29.29,0,0,0-.07.08l-.06.11a.31.31,0,0,0-.06.13l-.06.14a.05.05,0,0,1,0,0h-.05a2.33,2.33,0,0,1,.11-.31l.12-.3a.05.05,0,0,1,0,0h1.86a0,0,0,0,1,0,0h0Z"/><line class="cls-11" x1="144.39" y1="60.65" x2="147.93" y2="60.65"/><line class="cls-11" x1="144.39" y1="61.71" x2="147.93" y2="61.71"/><path class="cls-6" d="M151.94,59.7l-1.08,1.66h1.2Zm1.14,2.91a.09.09,0,0,1-.08.06h-1.33s0,0,0,0v-.06a.08.08,0,0,1,.08-.06,1.2,1.2,0,0,0,.19,0,.48.48,0,0,0,.17,0l.06,0s0,0,0-.05v0l-.07-.84h-1.33l-.46.7a.24.24,0,0,0,0,.12.12.12,0,0,0,0,.09.3.3,0,0,0,.26.09s.05,0,.05,0v.06a.1.1,0,0,1-.09.06h-1.08v0a0,0,0,0,1,0,0v0a.08.08,0,0,1,.08-.06.61.61,0,0,0,.19,0l.17-.07a.72.72,0,0,0,.15-.11l.12-.14,2-3.07a.13.13,0,0,1,.11-.06h0a.07.07,0,0,1,.08.06l.25,3.21s0,.08,0,.1a.09.09,0,0,0,.06.06.24.24,0,0,0,.14,0,1.46,1.46,0,0,0,.21,0s.05,0,.05,0v.06Z"/><path class="cls-8" d="M193.43,43.46a1.9,1.9,0,0,0,.07-.46v-.09a1.22,1.22,0,0,0-.14-.48.92.92,0,0,0-.28-.31.8.8,0,0,0-.43-.12H191l-.63,2.5a.91.91,0,0,0,0,.23s0,.05,0,.06a.54.54,0,0,0,.27,0h1.21a1.39,1.39,0,0,0,.52-.11,2,2,0,0,0,.48-.29,2.17,2.17,0,0,0,.4-.46A2.25,2.25,0,0,0,193.43,43.46Zm.56-3a1.47,1.47,0,0,0,0-.36V40a.9.9,0,0,0-.13-.42.87.87,0,0,0-.27-.27.8.8,0,0,0-.38-.1h-1.2a.61.61,0,0,0-.31.05.54.54,0,0,0-.11.28l-.58,2.26h1.3a1.39,1.39,0,0,0,.52-.11,1.81,1.81,0,0,0,.5-.29A1.7,1.7,0,0,0,194,40.47Zm.82,0a1.38,1.38,0,0,1-.29.58,2.26,2.26,0,0,1-.52.46,2.68,2.68,0,0,1-.47.25,3.24,3.24,0,0,1-.49.13,1.65,1.65,0,0,1,.55.14,1.43,1.43,0,0,1,.43.31,1.11,1.11,0,0,1,.27.5.9.9,0,0,1,0,.28,1,1,0,0,1-.05.34,1.66,1.66,0,0,1-.3.63,2.76,2.76,0,0,1-.55.53,2.5,2.5,0,0,1-.71.36,2.18,2.18,0,0,1-.74.13h-3.24a.08.08,0,0,1-.07,0,.05.05,0,0,1,0,0,.08.08,0,0,1,0,0l0-.07c0-.07,0-.1.13-.1h.4a.69.69,0,0,0,.29,0,.35.35,0,0,0,.16-.27l1.27-5a.61.61,0,0,0,0-.16c0-.06,0-.09-.05-.1a.61.61,0,0,0-.26-.06h-.41s-.05,0-.06,0a.06.06,0,0,1,0-.08l0-.07s0,0,.05-.07a.11.11,0,0,1,.08,0h3a2.15,2.15,0,0,1,.68.11,1.22,1.22,0,0,1,.54.34,1.05,1.05,0,0,1,.28.48.86.86,0,0,1,0,.28A1.12,1.12,0,0,1,194.81,40.47Z"/><path class="cls-8" d="M199.54,39.14a.05.05,0,0,1,0,0l-.05,0h-.06s0,0,0,0v0a1.57,1.57,0,0,0,0-.23l0-.23v-.07a.37.37,0,0,0,0-.11.25.25,0,0,0,0-.13.44.44,0,0,0-.23-.13,1.51,1.51,0,0,0-.32,0h-.31a.61.61,0,0,0-.19,0,.3.3,0,0,0-.07.16l-.79,2.75a.15.15,0,0,0,0,.06s0,.07,0,.08a.79.79,0,0,0,.26,0h.35s.06,0,.06,0v.07a.08.08,0,0,1-.08.06l-.94,0-.95,0a.05.05,0,0,1,0,0v-.08l0,0,0,0h.36a.94.94,0,0,0,.28,0c.06,0,.1-.06.13-.14l.79-2.75a.45.45,0,0,0,0-.13s0,0,0,0a.48.48,0,0,0-.18,0h-.31a1.87,1.87,0,0,0-.34,0,1,1,0,0,0-.3.13.3.3,0,0,0-.12.13.78.78,0,0,0-.11.18,2.14,2.14,0,0,0-.1.22l-.1.24a.08.08,0,0,1-.08.05h0l0,0h0s0,0,0,0a5.17,5.17,0,0,1,.18-.51c.08-.18.15-.35.21-.52a.1.1,0,0,1,.09-.06h3.12s0,0,0,0v0Z"/><path class="cls-6" d="M187.68,46.8a5.18,5.18,0,0,1,0-8.71h.46a5.47,5.47,0,0,0,0,8.71"/><path class="cls-6" d="M201.75,38.09a5.19,5.19,0,0,1,0,8.71h-.46a5.47,5.47,0,0,0,0-8.71"/><path class="cls-6" d="M210,39.14s0,0,0,0l0,0h-.05s0,0,0,0v0c0-.07,0-.15,0-.23l0-.23v-.07a.37.37,0,0,0,0-.11.4.4,0,0,0,0-.13.44.44,0,0,0-.23-.13,1.58,1.58,0,0,0-.32,0H209l-.21,0a.64.64,0,0,0-.07.16l-.79,2.75s0,.05,0,.06a.07.07,0,0,0,.06.08.79.79,0,0,0,.26,0h.35s0,0,0,0v.07a.08.08,0,0,1-.09.06l-.94,0-.94,0-.05,0v0s0,0,0,0v0s0,0,0,0l.05,0h.36a1,1,0,0,0,.28,0c.06,0,.1-.06.12-.14l.79-2.75a.45.45,0,0,0,0-.13v0a.53.53,0,0,0-.18,0h-.32a2,2,0,0,0-.34,0,1,1,0,0,0-.3.13.51.51,0,0,0-.12.13,1.45,1.45,0,0,0-.1.18l-.11.22-.09.24a.09.09,0,0,1-.08.05h0a.05.05,0,0,1,0,0h0s0,0,0,0a5.17,5.17,0,0,1,.18-.51l.21-.52a.08.08,0,0,1,.08-.06h3.14a0,0,0,0,1,0,0v0Z"/><line class="cls-7" x1="213.04" y1="41.5" x2="219.34" y2="41.5"/><line class="cls-7" x1="213.04" y1="43.39" x2="219.34" y2="43.39"/><path class="cls-6" d="M226.73,43.46a1.88,1.88,0,0,0,.06-.46v-.09a1.07,1.07,0,0,0-.13-.48,1,1,0,0,0-.29-.31A.74.74,0,0,0,226,42h-1.66l-.64,2.5a1.43,1.43,0,0,0,0,.23v.06a.6.6,0,0,0,.28,0h1.21a1.43,1.43,0,0,0,.52-.11,2,2,0,0,0,.48-.29,1.87,1.87,0,0,0,.39-.46A1.92,1.92,0,0,0,226.73,43.46Zm.56-3a1.47,1.47,0,0,0,0-.36V40a.9.9,0,0,0-.13-.42.87.87,0,0,0-.27-.27.81.81,0,0,0-.39-.1h-1.19a.58.58,0,0,0-.31.05.62.62,0,0,0-.12.28l-.57,2.26h1.29a1.4,1.4,0,0,0,.53-.11,2,2,0,0,0,.5-.29A1.7,1.7,0,0,0,227.29,40.47Zm.82,0a1.4,1.4,0,0,1-.3.58,2.22,2.22,0,0,1-.51.46,2.76,2.76,0,0,1-.48.25,2.85,2.85,0,0,1-.48.13,1.53,1.53,0,0,1,.54.14,1.22,1.22,0,0,1,.43.31,1,1,0,0,1,.28.5,1.35,1.35,0,0,1,0,.28,1.4,1.4,0,0,1,0,.34,1.68,1.68,0,0,1-.31.63,2.47,2.47,0,0,1-.54.53A2.5,2.5,0,0,1,226,45a2.19,2.19,0,0,1-.75.13H222a.09.09,0,0,1-.07,0s0,0,0,0a.08.08,0,0,1,0,0v-.07a.12.12,0,0,1,.13-.1h.41a.76.76,0,0,0,.29,0c.07,0,.12-.12.16-.27l1.27-5a.53.53,0,0,0,0-.16c0-.06,0-.09,0-.1a.66.66,0,0,0-.26-.06h-.41s0,0-.06,0a0,0,0,0,1,0,0,.08.08,0,0,1,0,0v-.07a.18.18,0,0,1,.05-.07l.09,0h3a2.15,2.15,0,0,1,.68.11,1.19,1.19,0,0,1,.53.34,1.07,1.07,0,0,1,.29.48,1.27,1.27,0,0,1,0,.28A1.1,1.1,0,0,1,228.11,40.47Z"/><path class="cls-6" d="M232.84,39.14s0,0,0,0l-.05,0h0s-.05,0-.05,0v0c0-.07,0-.15,0-.23l0-.23v-.07a.37.37,0,0,0,0-.11.4.4,0,0,0,0-.13.44.44,0,0,0-.23-.13,1.58,1.58,0,0,0-.32,0h-.31a.75.75,0,0,0-.2,0,.44.44,0,0,0-.06.16l-.8,2.75s0,.05,0,.06a.07.07,0,0,0,.06.08.79.79,0,0,0,.26,0h.35s.05,0,.05,0v.07a.08.08,0,0,1-.09.06l-.94,0-.94,0-.05,0v0s0,0,0,0v0s0,0,0,0l.05,0h.36a1,1,0,0,0,.28,0c.06,0,.1-.06.12-.14l.79-2.75a.45.45,0,0,0,0-.13v0a.53.53,0,0,0-.18,0h-.32a2,2,0,0,0-.34,0,1,1,0,0,0-.3.13.51.51,0,0,0-.12.13,1.45,1.45,0,0,0-.1.18,2.14,2.14,0,0,0-.1.22,2.44,2.44,0,0,0-.1.24.09.09,0,0,1-.08.05h-.05l0,0h0s0,0,0,0a5.17,5.17,0,0,1,.18-.51l.21-.52s0-.06.08-.06H233a0,0,0,0,1,.05,0v0Z"/><path class="cls-6" d="M238.56,39.81l-1.73,3h1.93ZM240.38,45c0,.07-.06.11-.12.11l-.91,0h-.15l-1.07,0a.07.07,0,0,1-.08-.07v-.11a.13.13,0,0,1,.14-.1h.3a.92.92,0,0,0,.27-.08.24.24,0,0,0,.09-.08.17.17,0,0,0,0-.1v0L238.78,43h-2.11l-.74,1.26a.48.48,0,0,0-.06.21.34.34,0,0,0,0,.17.46.46,0,0,0,.41.16c.06,0,.08,0,.09.06v0l0,.07a.14.14,0,0,1-.13.11l-.83,0h-.12l-.71,0a.09.09,0,0,1-.07,0s0,0,0,0a.08.08,0,0,1,0,0v-.07a.13.13,0,0,1,.13-.1,1.53,1.53,0,0,0,.3,0,1,1,0,0,0,.28-.12,1.07,1.07,0,0,0,.23-.2,1,1,0,0,0,.19-.26l3.2-5.48a.18.18,0,0,1,.17-.09h.08a.1.1,0,0,1,.12.09l.4,5.74c0,.08,0,.14,0,.19a.16.16,0,0,0,.08.1.46.46,0,0,0,.23,0h.35s.08,0,.08.06a.06.06,0,0,1,0,0Z"/><path class="cls-6" d="M245.81,43.46a1.88,1.88,0,0,0,.06-.46v-.09a1.08,1.08,0,0,0-.14-.48.92.92,0,0,0-.28-.31A.74.74,0,0,0,245,42h-1.66l-.64,2.5a1.85,1.85,0,0,0,0,.23.35.35,0,0,0,0,.06.56.56,0,0,0,.28,0h1.21a1.34,1.34,0,0,0,.51-.11,1.77,1.77,0,0,0,.88-.75A2.3,2.3,0,0,0,245.81,43.46Zm.55-3a1.49,1.49,0,0,0,0-.36V40a1,1,0,0,0-.13-.42.87.87,0,0,0-.27-.27.81.81,0,0,0-.39-.1h-1.19a.55.55,0,0,0-.31.05.62.62,0,0,0-.12.28l-.57,2.26h1.29a1.44,1.44,0,0,0,.53-.11,1.76,1.76,0,0,0,.49-.29A1.65,1.65,0,0,0,246.36,40.47Zm.83,0a1.4,1.4,0,0,1-.3.58,2.07,2.07,0,0,1-.52.46,2.37,2.37,0,0,1-.47.25,2.85,2.85,0,0,1-.48.13A1.53,1.53,0,0,1,246,42a1.31,1.31,0,0,1,.43.31,1,1,0,0,1,.28.5,2.7,2.7,0,0,1,0,.28,1.4,1.4,0,0,1-.05.34,1.85,1.85,0,0,1-.31.63,2.47,2.47,0,0,1-.54.53,2.64,2.64,0,0,1-.71.36,2.19,2.19,0,0,1-.75.13h-3.24a.09.09,0,0,1-.07,0,.05.05,0,0,1,0,0s0,0,0,0l0-.07a.11.11,0,0,1,.13-.1h.4a.78.78,0,0,0,.3,0q.1,0,.15-.27l1.27-5a.61.61,0,0,0,0-.16c0-.06,0-.09,0-.1a.67.67,0,0,0-.27-.06h-.4s-.06,0-.07,0a.08.08,0,0,1,0,0s0,0,0,0l0-.07a.12.12,0,0,1,.05-.07.13.13,0,0,1,.08,0h3a2.26,2.26,0,0,1,.69.11,1.19,1.19,0,0,1,.53.34,1.07,1.07,0,0,1,.29.48,1.27,1.27,0,0,1,0,.28A1.1,1.1,0,0,1,247.19,40.47Z"/><path class="cls-6" d="M258.13,41.2h.34c-.3.35-.52.6-.66.74s-.38.35-.71.64h7.32l-.16.45h-7.32a3.35,3.35,0,0,1,.43,1.37H257a5.64,5.64,0,0,0-.68-1,3.27,3.27,0,0,0-.69-.55l.07-.2a5.28,5.28,0,0,0,1-.5A15.86,15.86,0,0,0,258.13,41.2Z"/><path class="cls-6" d="M269.61,39.42c.6.59,1,1,1.26,1.28l-.53.44c-.33-.4-.73-.85-1.2-1.33Zm1.66,4.41a3.84,3.84,0,0,0,.15.65c-.63.6-1.1,1.07-1.42,1.43l-.43-.49a1.26,1.26,0,0,0,.23-.75V42.33h-.93V41.8h1.52v2.91C270.62,44.49,270.92,44.2,271.27,43.83Zm-.46,1.88h1.08V41.57h.59v4.14h1.23V40.24h-2.47v-.55h5.15v.55h-2.07v2.25h1.79V43h-1.79v2.67h2.19v.55h-5.7Z"/><path class="cls-6" d="M280.41,42c0,.23,0,.44,0,.61-.9.23-1.64.42-2.23.6a1.78,1.78,0,0,0-.39.2l-.33-.56a.49.49,0,0,0,.22-.41V39.4h.6v1.16h2.11v.55h-2.11v1.51Zm-3.49,2.31h3.3v-1h.61v1h3.32v.57h-3.32v1.75h-.61V44.92h-3.3Zm3.92-5h.6V41q1.19-.51,2.25-1.08l.31.53c-.72.33-1.58.7-2.56,1.12v.63c0,.32.15.48.46.48h1.21c.3,0,.47-.13.49-.39s.06-.58.08-1l.59.24c0,.43-.09.78-.14,1-.07.44-.42.66-1,.66h-1.33a.8.8,0,0,1-.92-.89Z"/></g></g></g></svg>