<?xml version="1.0" encoding="UTF-8"?>
<svg id="_图层_1" data-name="图层 1" xmlns="http://www.w3.org/2000/svg" xmlns:xlink="http://www.w3.org/1999/xlink" viewBox="0 0 80 65">
  <defs>
    <style>
      .cls-1 {
        fill: #fff;
      }

      .cls-2 {
        stroke: #efea3a;
      }

      .cls-2, .cls-3, .cls-4, .cls-5, .cls-6, .cls-7, .cls-8 {
        fill: none;
      }

      .cls-2, .cls-3, .cls-4, .cls-5, .cls-6, .cls-8 {
        stroke-miterlimit: 10;
      }

      .cls-2, .cls-3, .cls-6, .cls-8 {
        opacity: .5;
        stroke-width: 8px;
      }

      .cls-9 {
        clip-path: url(#clippath-2);
      }

      .cls-3 {
        stroke: #8dc553;
      }

      .cls-4 {
        stroke-width: .55px;
      }

      .cls-4, .cls-5 {
        stroke: #000;
        stroke-linecap: round;
      }

      .cls-10 {
        clip-path: url(#clippath-1);
      }

      .cls-11 {
        clip-path: url(#clippath-4);
      }

      .cls-5 {
        stroke-width: .66px;
      }

      .cls-12 {
        clip-path: url(#clippath);
      }

      .cls-6 {
        stroke: #e37933;
      }

      .cls-13 {
        clip-path: url(#clippath-3);
      }

      .cls-8 {
        stroke: #22a5de;
      }

      .cls-14 {
        fill-rule: evenodd;
      }
    </style>
    <clipPath id="clippath">
      <rect class="cls-7" x="-311" y="-335" width="540" height="780"/>
    </clipPath>
    <clipPath id="clippath-1">
      <rect class="cls-7" x="-311" y="-335" width="540" height="780"/>
    </clipPath>
    <clipPath id="clippath-2">
      <rect class="cls-7" x="-311" y="-335" width="540" height="780"/>
    </clipPath>
    <clipPath id="clippath-3">
      <rect class="cls-7" x="-9.32" y="-6.08" width="101.88" height="81.24"/>
    </clipPath>
    <clipPath id="clippath-4">
      <rect class="cls-7" x="-9.32" y="-6.08" width="101.88" height="81.24"/>
    </clipPath>
  </defs>
  <g class="cls-12">
    <g class="cls-10">
      <g class="cls-9">
        <rect class="cls-1" x="-311" y="-335" width="540" height="780"/>
      </g>
      <line class="cls-3" x1="17.02" y1="40.62" x2="48.02" y2="11.62"/>
      <line class="cls-8" x1="39.34" y1="58.02" x2="70.34" y2="29.02"/>
      <line class="cls-6" x1="54.58" y1="22.88" x2="70.08" y2="8.38"/>
      <line class="cls-6" x1="14.26" y1="60.2" x2="29.76" y2="45.7"/>
      <line class="cls-2" x1="10.78" y1="4.9" x2="72.53" y2="61.8"/>
      <g class="cls-13">
        <g class="cls-11">
          <path class="cls-14" d="M23.04,11.02c-.04-.3-.14-.55-.33-.76-.19-.2-.44-.3-.75-.3s-.63,.1-.93,.3c-.29,.2-.54,.45-.73,.76-.12,.19-.23,.41-.33,.67-.1,.25-.2,.53-.3,.83-.1,.3-.19,.61-.27,.92-.08,.31-.16,.6-.22,.88-.07,.31-.15,.63-.23,.96-.08,.34-.16,.67-.23,.99-.07,.32-.12,.63-.16,.91-.03,.2-.04,.37-.04,.51,0,.08,0,.15,.01,.22,.03,.32,.13,.58,.31,.81,.18,.22,.44,.33,.78,.33s.63-.11,.92-.33c.29-.22,.53-.49,.73-.81,.12-.2,.24-.44,.35-.73,.11-.29,.22-.59,.32-.92,.1-.32,.2-.65,.29-.99,.09-.33,.18-.66,.25-.96,.07-.28,.15-.57,.23-.88,.08-.31,.15-.62,.2-.92,.06-.3,.1-.58,.13-.84,.02-.15,.03-.29,.03-.42,0-.09,0-.17-.01-.24Zm.75-.14c.11,.38,.16,.77,.16,1.18,0,.19,0,.38-.03,.58-.08,.63-.21,1.27-.37,1.91-.17,.63-.37,1.25-.6,1.86-.23,.61-.58,1.2-1.04,1.74-.31,.37-.67,.66-1.1,.88-.43,.22-.86,.33-1.29,.33s-.8-.11-1.11-.33c-.31-.22-.52-.51-.65-.88-.11-.38-.17-.77-.17-1.18,0-.18,0-.37,.03-.56,.07-.61,.19-1.23,.37-1.86,.17-.63,.37-1.26,.6-1.89,.24-.63,.58-1.23,1.04-1.79,.31-.38,.68-.68,1.1-.9,.43-.23,.86-.34,1.3-.34,.43,0,.8,.11,1.11,.34,.31,.23,.53,.53,.65,.9Z"/>
          <path class="cls-14" d="M42.77,14.68c-.02-.09-.03-.18-.05-.26s-.04-.18-.07-.27c-.07-.22-.18-.4-.33-.56-.15-.15-.33-.23-.56-.23-.21,0-.41,.07-.61,.22-.2,.14-.38,.33-.54,.55-.23,.31-.39,.64-.51,.98-.11,.34-.22,.69-.31,1.06-.09,.36-.17,.7-.23,1.04-.04,.18-.05,.34-.05,.5,0,.17,.02,.33,.05,.48,.05,.22,.13,.4,.24,.55,.12,.15,.29,.22,.5,.22,.23,0,.45-.08,.67-.23,.22-.15,.43-.34,.62-.56,.07-.09,.14-.18,.21-.26,.07-.09,.13-.18,.18-.28l.77-2.96Zm1.84,2.46c-.05,.21-.12,.44-.18,.69-.07,.25-.16,.48-.27,.69-.11,.21-.25,.39-.42,.54-.16,.15-.37,.22-.62,.22-.33,0-.6-.09-.79-.27-.2-.18-.32-.42-.37-.7-.22,.25-.48,.48-.78,.68-.3,.2-.62,.3-.95,.3-.35,0-.64-.09-.88-.26-.23-.18-.42-.4-.55-.67-.16-.32-.25-.67-.25-1.04v-.1c0-.35,.05-.69,.14-1.04,.11-.38,.26-.76,.45-1.14,.2-.38,.45-.72,.78-1.05,.26-.26,.56-.48,.9-.66,.34-.18,.67-.27,1.01-.27,.29,0,.53,.08,.71,.23,.18,.15,.33,.34,.43,.57l.02-.09c.03-.15,.09-.26,.2-.33,.11-.08,.22-.11,.33-.11,.13,0,.23,.04,.31,.11,.05,.05,.07,.13,.08,.22,0,.04,0,.08-.01,.12l-1,3.88c-.05,.18-.08,.36-.1,.52,0,.08-.01,.16-.01,.23,0,.06,0,.13,.01,.19,.02,.12,.06,.22,.12,.28,.06,.07,.15,.1,.26,.1,.12,0,.22-.04,.31-.13,.1-.09,.18-.22,.25-.38,.07-.16,.14-.36,.21-.58,.07-.22,.13-.46,.2-.73,.02-.08,.07-.12,.17-.12h.16c.07,0,.11,.03,.11,.08v.04Z"/>
          <line class="cls-4" x1="55.81" y1="15.06" x2="61.77" y2="15.06"/>
          <path class="cls-14" d="M67.96,14.13c-.05-.22-.13-.41-.26-.55-.12-.14-.29-.22-.5-.22-.23,0-.46,.08-.68,.23-.22,.15-.43,.34-.62,.56-.14,.18-.27,.36-.38,.53l-.39,1.49c-.09,.36-.16,.7-.21,1.04-.02,.14-.03,.27-.03,.4,0,.2,.02,.39,.07,.58,.05,.22,.15,.4,.27,.55,.13,.15,.3,.22,.51,.22s.41-.07,.61-.22c.2-.15,.38-.33,.54-.55,.23-.3,.4-.63,.51-.97,.11-.34,.22-.69,.31-1.05,.09-.37,.17-.72,.24-1.06,.03-.17,.04-.33,.04-.48s-.02-.33-.05-.49Zm.86,2.03c-.11,.38-.26,.76-.45,1.14-.2,.38-.46,.72-.77,1.04-.26,.26-.56,.49-.89,.66-.33,.18-.67,.27-1.02,.27-.33,0-.61-.09-.83-.27-.23-.18-.4-.4-.52-.67-.14-.32-.22-.67-.23-1.04v-.09c0-.35,.05-.69,.14-1.04l1.39-5.4c.04-.15,.06-.26,.07-.34v-.03c0-.06-.02-.11-.05-.14-.06-.04-.18-.07-.34-.09-.16-.01-.34-.02-.54-.02-.05,0-.08-.01-.1-.04-.02-.02-.03-.04-.03-.06,0-.02,0-.04,.01-.05l.03-.11c.03-.08,.09-.13,.19-.15l1.82-.15h.03s.06,0,.08,.03c0,.02,.01,.04,.01,.07,0,.02,0,.04-.01,.05l-1.06,4.11c.22-.22,.46-.41,.72-.56,.27-.16,.54-.23,.83-.23,.35,0,.65,.09,.88,.27,.24,.18,.42,.4,.55,.66,.15,.32,.23,.67,.24,1.05v.09c0,.34-.05,.69-.14,1.05Z"/>
          <line class="cls-4" x1="13.12" y1="34.08" x2="19.09" y2="34.08"/>
          <path class="cls-14" d="M25.64,33.7c-.02-.09-.04-.18-.05-.26-.01-.09-.04-.18-.07-.27-.07-.22-.18-.4-.33-.56-.15-.15-.33-.23-.56-.23-.21,0-.41,.07-.61,.22-.2,.14-.38,.33-.54,.55-.22,.31-.39,.64-.51,.98-.11,.34-.22,.69-.31,1.06-.09,.36-.17,.7-.23,1.04-.04,.17-.05,.34-.05,.5,0,.17,.02,.33,.05,.48,.05,.22,.13,.4,.25,.55,.12,.15,.28,.22,.5,.22s.45-.08,.67-.23c.22-.15,.43-.34,.62-.56,.07-.09,.14-.18,.21-.26,.07-.08,.13-.18,.18-.27l.77-2.96Zm1.84,2.46c-.05,.21-.11,.44-.18,.69-.07,.25-.16,.48-.27,.69-.11,.21-.25,.39-.42,.54-.16,.15-.37,.22-.62,.22-.33,0-.6-.09-.79-.27-.2-.18-.32-.42-.37-.7-.22,.25-.47,.48-.78,.68s-.62,.3-.95,.3c-.35,0-.64-.09-.88-.26-.24-.17-.42-.4-.55-.66-.16-.32-.25-.67-.25-1.04v-.1c0-.35,.05-.7,.15-1.04,.11-.38,.26-.76,.45-1.14,.2-.38,.45-.72,.78-1.05,.26-.26,.56-.49,.9-.66,.34-.18,.67-.27,1.01-.27,.29,0,.53,.08,.71,.23,.18,.15,.33,.34,.43,.57l.02-.09c.03-.15,.1-.26,.2-.34,.11-.07,.22-.11,.33-.11,.12,0,.23,.04,.31,.11,.05,.05,.07,.13,.08,.22,0,.04,0,.08-.01,.12l-1,3.88c-.05,.18-.08,.36-.1,.52,0,.08-.01,.16-.01,.23,0,.06,0,.13,.01,.2,.02,.12,.06,.21,.12,.28,.06,.07,.15,.1,.26,.1s.22-.04,.31-.13c.09-.09,.18-.22,.25-.38,.07-.16,.14-.36,.21-.58,.07-.22,.13-.46,.2-.73,.02-.08,.07-.12,.17-.12h.16c.07,0,.11,.03,.11,.08v.04Z"/>
          <path class="cls-14" d="M44.32,30.05c-.04-.3-.14-.55-.33-.76-.18-.2-.43-.3-.75-.3-.33,0-.63,.1-.93,.3-.29,.2-.54,.45-.73,.76-.12,.19-.23,.41-.33,.67-.1,.26-.2,.54-.3,.83-.1,.3-.19,.61-.27,.92-.08,.31-.16,.6-.22,.88-.07,.31-.15,.63-.23,.96-.08,.33-.16,.67-.23,.99-.07,.33-.12,.63-.16,.91-.03,.2-.04,.37-.04,.51,0,.08,0,.15,.01,.22,.03,.32,.13,.59,.31,.81,.18,.22,.44,.34,.78,.34s.63-.11,.92-.34c.29-.22,.53-.49,.73-.81,.12-.2,.24-.44,.35-.72,.11-.29,.22-.59,.32-.92,.1-.32,.2-.65,.29-.99,.09-.34,.18-.66,.25-.96,.07-.28,.15-.57,.23-.88,.08-.31,.15-.62,.2-.92,.06-.3,.1-.58,.12-.84,.02-.15,.03-.29,.03-.42,0-.09,0-.17-.01-.24Zm.75-.14c.11,.38,.16,.77,.16,1.18,0,.19,0,.38-.03,.58-.08,.64-.2,1.27-.37,1.91-.17,.63-.37,1.25-.6,1.86-.23,.61-.58,1.2-1.04,1.74-.31,.37-.67,.66-1.1,.88-.43,.22-.86,.33-1.29,.33s-.8-.11-1.11-.33c-.31-.22-.53-.51-.65-.88-.11-.38-.17-.77-.17-1.18,0-.18,0-.37,.03-.56,.07-.61,.19-1.23,.36-1.86,.17-.63,.37-1.25,.6-1.89,.24-.63,.58-1.23,1.04-1.78,.31-.38,.67-.68,1.1-.9,.43-.23,.86-.34,1.3-.34s.8,.11,1.11,.34c.31,.23,.53,.53,.65,.9Z"/>
          <line class="cls-4" x1="55.69" y1="34.08" x2="61.65" y2="34.08"/>
          <path class="cls-14" d="M69.05,36.61s.03,.04,.03,.05c0,.03-.01,.06-.04,.09-.36,.5-.82,.88-1.37,1.14-.55,.26-1.11,.39-1.67,.39-.39,0-.72-.08-1.01-.25-.29-.17-.51-.39-.67-.67-.19-.31-.3-.65-.33-1.03,0-.09-.01-.18-.01-.27,0-.28,.04-.57,.11-.88,.11-.4,.27-.79,.5-1.17,.23-.38,.51-.72,.85-1.03,.31-.27,.66-.49,1.03-.66,.38-.17,.75-.25,1.13-.25,.23,0,.44,.04,.63,.1,.2,.07,.36,.17,.5,.3,.14,.13,.24,.28,.29,.45,.02,.09,.03,.18,.03,.27,0,.1-.01,.21-.04,.33-.05,.18-.14,.32-.28,.42-.14,.1-.29,.14-.43,.14s-.26-.05-.35-.15c-.07-.06-.1-.14-.1-.25,0-.04,0-.1,.03-.16,.05-.18,.14-.32,.27-.41s.27-.14,.4-.14c-.07-.18-.2-.33-.39-.43-.18-.11-.4-.16-.65-.16s-.49,.07-.74,.22-.47,.33-.66,.57c-.25,.29-.45,.61-.58,.96-.13,.34-.25,.7-.34,1.06-.09,.36-.16,.7-.21,1.04-.02,.11-.03,.22-.03,.31,0,.23,.04,.45,.11,.65,.07,.24,.2,.43,.37,.57,.18,.15,.39,.22,.64,.22,.5,0,.99-.13,1.46-.38,.47-.25,.87-.6,1.18-1.05,.02-.04,.05-.06,.11-.08h.04s.05,0,.07,.03l.1,.11Z"/>
          <path class="cls-14" d="M21.73,52.17c-.05-.22-.13-.41-.26-.55-.12-.14-.29-.22-.5-.22-.24,0-.46,.08-.68,.23-.22,.15-.43,.34-.62,.56-.14,.18-.27,.36-.38,.53l-.39,1.49c-.09,.36-.16,.7-.21,1.04-.02,.14-.03,.27-.03,.4,0,.2,.02,.39,.07,.58,.05,.22,.15,.4,.27,.55s.3,.22,.51,.22,.41-.07,.61-.22c.2-.15,.38-.33,.53-.55,.23-.3,.4-.63,.51-.97,.11-.34,.22-.69,.31-1.05,.09-.37,.17-.72,.24-1.06,.03-.17,.04-.33,.04-.48s-.02-.33-.05-.49Zm.86,2.03c-.11,.38-.26,.76-.46,1.14-.2,.38-.46,.72-.77,1.04-.26,.26-.56,.49-.89,.66-.33,.18-.67,.27-1.02,.27-.33,0-.61-.09-.83-.27-.23-.18-.4-.4-.52-.67-.14-.32-.22-.67-.23-1.04v-.09c0-.35,.05-.69,.14-1.04l1.39-5.4c.04-.15,.06-.26,.07-.34v-.03c0-.06-.02-.11-.05-.14-.07-.04-.18-.07-.34-.09-.16-.01-.34-.02-.54-.02-.05,0-.08-.01-.1-.04-.02-.02-.03-.04-.03-.06,0-.02,0-.04,.01-.05l.03-.11c.03-.08,.09-.13,.19-.15l1.82-.15h.03s.07,0,.08,.03c0,.02,.01,.04,.01,.07,0,.02,0,.04-.01,.05l-1.06,4.11c.22-.22,.46-.41,.72-.56,.26-.16,.54-.23,.82-.23,.35,0,.65,.09,.89,.27,.24,.18,.42,.4,.55,.66,.15,.32,.23,.67,.24,1.05v.09c0,.34-.05,.69-.14,1.05Z"/>
          <path class="cls-14" d="M44.1,55.63s.03,.04,.03,.05c0,.03-.01,.06-.04,.09-.36,.5-.82,.88-1.37,1.14-.55,.26-1.11,.39-1.67,.39-.39,0-.72-.09-1.01-.25-.29-.17-.51-.39-.67-.67-.19-.31-.3-.65-.33-1.03,0-.09-.01-.18-.01-.27,0-.28,.04-.58,.11-.88,.11-.4,.27-.79,.5-1.17,.23-.38,.51-.72,.85-1.03,.31-.27,.66-.49,1.03-.66,.38-.17,.75-.25,1.13-.25,.23,0,.44,.04,.64,.1,.2,.07,.36,.17,.5,.29,.14,.13,.23,.28,.29,.45,.02,.09,.03,.18,.03,.27,0,.1-.01,.21-.04,.33-.05,.18-.14,.32-.28,.42-.14,.1-.29,.14-.43,.14-.14,0-.26-.05-.35-.15-.06-.06-.1-.14-.1-.25,0-.04,0-.1,.03-.16,.05-.18,.14-.32,.27-.4,.14-.09,.27-.14,.4-.14-.07-.18-.2-.33-.39-.43-.18-.11-.4-.16-.66-.16s-.49,.07-.74,.22c-.25,.15-.47,.33-.66,.57-.25,.3-.45,.61-.58,.96-.13,.34-.25,.7-.34,1.06-.09,.36-.16,.7-.21,1.04-.02,.11-.03,.22-.03,.32,0,.23,.04,.44,.11,.65,.07,.24,.2,.43,.37,.57,.17,.14,.39,.22,.63,.22,.5,0,.99-.13,1.46-.38,.47-.25,.87-.6,1.18-1.05,.02-.04,.05-.06,.11-.08h.04s.05,0,.07,.03l.1,.11Z"/>
          <path class="cls-14" d="M65.12,49.06c-.04-.3-.15-.55-.33-.76-.18-.2-.43-.3-.75-.3s-.63,.1-.93,.3c-.29,.2-.54,.45-.73,.76-.12,.19-.23,.41-.33,.67-.1,.26-.2,.53-.3,.83-.1,.3-.19,.61-.27,.92-.08,.31-.16,.61-.22,.88-.07,.31-.15,.63-.23,.96-.08,.34-.16,.67-.23,.99-.07,.33-.12,.63-.16,.91-.03,.2-.04,.37-.04,.51,0,.08,0,.15,.01,.22,.03,.32,.13,.58,.31,.81,.18,.22,.44,.33,.78,.33s.63-.11,.92-.33c.29-.22,.53-.49,.73-.81,.12-.2,.24-.44,.35-.73,.11-.29,.22-.59,.32-.92,.1-.32,.2-.65,.29-.99,.09-.33,.17-.66,.25-.96,.07-.27,.15-.57,.23-.88,.08-.31,.15-.62,.2-.92,.06-.3,.1-.58,.13-.84,.02-.15,.03-.29,.03-.42,0-.09,0-.17-.01-.24Zm.75-.14c.11,.38,.16,.77,.16,1.18,0,.19,0,.38-.03,.58-.08,.63-.2,1.27-.37,1.91-.17,.63-.36,1.25-.6,1.86-.23,.62-.58,1.2-1.04,1.74-.31,.37-.67,.66-1.1,.88-.43,.22-.86,.33-1.29,.33s-.8-.11-1.11-.33c-.31-.22-.53-.51-.65-.88-.11-.38-.17-.77-.17-1.18,0-.18,0-.37,.03-.56,.07-.61,.19-1.23,.36-1.86,.17-.63,.37-1.26,.6-1.89,.24-.63,.58-1.23,1.04-1.79,.31-.38,.67-.68,1.1-.9,.43-.23,.86-.34,1.3-.34,.43,0,.81,.11,1.11,.34,.31,.23,.53,.53,.65,.9Z"/>
          <polyline class="cls-5" points="10.42 9.23 6.01 9.23 6.01 58.93 10.42 58.93"/>
          <polyline class="cls-5" points="71.78 58.93 76.2 58.93 76.2 9.23 71.78 9.23"/>
        </g>
      </g>
    </g>
  </g>
</svg>