<?xml version="1.0" encoding="UTF-8"?>
<svg id="_图层_1" data-name="图层 1" xmlns="http://www.w3.org/2000/svg" xmlns:xlink="http://www.w3.org/1999/xlink" viewBox="0 0 113.33 95.11">
  <defs>
    <style>
      .cls-1 {
        clip-path: url(#clippath-11);
      }

      .cls-2 {
        fill: #fff;
      }

      .cls-3 {
        font-family: MicrosoftYaHei, 'Microsoft YaHei';
        font-size: 6px;
      }

      .cls-4 {
        clip-path: url(#clippath-2);
      }

      .cls-5 {
        clip-path: url(#clippath-6);
      }

      .cls-6 {
        stroke-width: .18px;
      }

      .cls-6, .cls-7, .cls-8, .cls-9, .cls-10, .cls-11 {
        fill: none;
      }

      .cls-6, .cls-7, .cls-9, .cls-10, .cls-11 {
        stroke-miterlimit: 10;
      }

      .cls-6, .cls-9, .cls-11 {
        stroke: #000;
      }

      .cls-7 {
        stroke: #8dc553;
      }

      .cls-7, .cls-10 {
        opacity: .5;
        stroke-width: 8px;
      }

      .cls-12 {
        clip-path: url(#clippath-7);
      }

      .cls-13 {
        clip-path: url(#clippath-1);
      }

      .cls-14 {
        clip-path: url(#clippath-4);
      }

      .cls-15 {
        clip-path: url(#clippath-12);
      }

      .cls-16 {
        clip-path: url(#clippath-9);
      }

      .cls-17 {
        clip-path: url(#clippath);
      }

      .cls-18 {
        clip-path: url(#clippath-3);
      }

      .cls-19 {
        clip-path: url(#clippath-8);
      }

      .cls-20 {
        clip-path: url(#clippath-5);
      }

      .cls-9 {
        stroke-width: .43px;
      }

      .cls-9, .cls-11 {
        stroke-linecap: round;
      }

      .cls-21 {
        clip-path: url(#clippath-10);
      }

      .cls-10 {
        stroke: #22a5de;
      }

      .cls-11 {
        stroke-width: .36px;
      }

      .cls-22 {
        fill-rule: evenodd;
      }
    </style>
    <clipPath id="clippath">
      <rect class="cls-8" x="-209.67" y="-361.61" width="540" height="780"/>
    </clipPath>
    <clipPath id="clippath-1">
      <rect class="cls-8" x="-209.67" y="-361.61" width="540" height="780"/>
    </clipPath>
    <clipPath id="clippath-2">
      <rect class="cls-8" x="-209.67" y="-361.61" width="540" height="780"/>
    </clipPath>
    <clipPath id="clippath-3">
      <rect class="cls-8" x="-209.67" y="-361.61" width="540" height="780"/>
    </clipPath>
    <clipPath id="clippath-4">
      <rect class="cls-8" x="-209.67" y="-361.61" width="540" height="780"/>
    </clipPath>
    <clipPath id="clippath-5">
      <rect class="cls-8" x="-209.67" y="-361.61" width="540" height="780"/>
    </clipPath>
    <clipPath id="clippath-6">
      <rect class="cls-8" x="-209.67" y="-361.61" width="540" height="780"/>
    </clipPath>
    <clipPath id="clippath-7">
      <rect class="cls-8" x="-209.67" y="-361.61" width="540" height="780"/>
    </clipPath>
    <clipPath id="clippath-8">
      <rect class="cls-8" x="-209.67" y="-361.61" width="540" height="780"/>
    </clipPath>
    <clipPath id="clippath-9">
      <rect class="cls-8" x="-209.67" y="-361.61" width="540" height="780"/>
    </clipPath>
    <clipPath id="clippath-10">
      <rect class="cls-8" x="-209.67" y="-361.61" width="540" height="780"/>
    </clipPath>
    <clipPath id="clippath-11">
      <rect class="cls-8" x="1.41" y="-4.61" width="117.84" height="66"/>
    </clipPath>
    <clipPath id="clippath-12">
      <rect class="cls-8" x="1.41" y="-4.61" width="117.84" height="66"/>
    </clipPath>
  </defs>
  <g class="cls-17">
    <g class="cls-13">
      <g class="cls-4">
        <rect class="cls-2" x="-209.67" y="-361.61" width="540" height="780"/>
      </g>
      <path d="M48.81,65.35l-3-6-3,6h6Zm-2.5,8.5v-9.5h-1v9.5h1Z"/>
      <g class="cls-18">
        <text class="cls-3" transform="translate(11.71 83.33)"><tspan x="0" y="0">原第</tspan></text>
      </g>
      <g class="cls-14">
        <text class="cls-3" transform="translate(23.71 83.33)"><tspan x="0" y="0">1</tspan></text>
      </g>
      <g class="cls-20">
        <text class="cls-3" transform="translate(27.19 83.33)"><tspan x="0" y="0">行元素的</tspan></text>
      </g>
      <g class="cls-5">
        <text class="cls-3" transform="translate(21.19 90.53)"><tspan x="0" y="0">代数余子式</tspan></text>
      </g>
      <path d="M69.33,65.35l-3-6-3,6h6Zm-2.5,8.5v-9.5h-1v9.5h1Z"/>
      <g class="cls-12">
        <text class="cls-3" transform="translate(61.72 83.33)"><tspan x="0" y="0">原第</tspan></text>
      </g>
      <g class="cls-19">
        <text class="cls-3" transform="translate(73.72 83.33)"><tspan x="0" y="0">2</tspan></text>
      </g>
      <g class="cls-16">
        <text class="cls-3" transform="translate(77.2 83.33)"><tspan x="0" y="0">行元素的</tspan></text>
      </g>
      <g class="cls-21">
        <text class="cls-3" transform="translate(61.72 90.53)"><tspan x="0" y="0">代数余子式</tspan></text>
      </g>
      <line class="cls-7" x1="45.39" y1="53.61" x2="45.39" y2="3.37"/>
      <line class="cls-10" x1="65.43" y1="53.61" x2="65.43" y2="3.37"/>
      <g class="cls-1">
        <g class="cls-15">
          <path class="cls-22" d="M10.93,25.46l-1.73,2.95h1.93l-.2-2.95Zm1.82,5.19c-.02,.07-.07,.1-.13,.1-.3-.02-.6-.03-.9-.03h-.15c-.35,0-.71,.02-1.06,.03-.05,0-.08-.02-.09-.07v-.03l.02-.07c.02-.07,.06-.11,.13-.11,.11,0,.21,0,.31-.01,.09,0,.18-.04,.27-.08,.04-.02,.07-.04,.09-.08,.02-.03,.03-.06,.03-.09v-.03l-.11-1.5h-2.12l-.73,1.25c-.04,.08-.06,.15-.06,.22,0,.06,.02,.11,.05,.16,.08,.11,.21,.16,.41,.16,.05,0,.08,.02,.09,.06,0,.01,0,.03,0,.04l-.02,.07c-.02,.07-.07,.1-.13,.1-.28-.01-.55-.02-.82-.03h-.12c-.24,0-.47,0-.72,.03-.03,0-.05,0-.06-.03-.01-.01-.02-.02-.02-.04s0-.03,0-.04l.02-.07c.02-.07,.06-.11,.13-.11,.1,0,.2-.01,.3-.03s.19-.06,.28-.12c.09-.05,.16-.12,.24-.2,.07-.08,.14-.17,.19-.26l3.2-5.47c.04-.07,.1-.1,.17-.1h.09c.07,0,.11,.03,.12,.1l.4,5.73c0,.08,.02,.14,.03,.19,.01,.05,.04,.08,.08,.11,.05,.03,.12,.05,.23,.05s.22,0,.34,0c.05,0,.08,.02,.08,.06,0,.01,0,.03,0,.04l-.02,.07Z"/>
          <path class="cls-22" d="M15.63,23.9s.01,.03,.01,.05c0,.02,0,.03-.01,.05-.02,.04-.05,.07-.09,.08l-.91,.36,.7,.37s.04,.03,.04,.06h0c0,.05-.02,.08-.05,.11-.03,.03-.07,.05-.11,.05-.01,0-.02,0-.04,0-.03,0-.05,0-.07-.03l-.56-.47-.16,.85s-.03,.07-.07,.1c-.04,.03-.08,.04-.12,.04s-.08-.01-.1-.04c-.02-.01-.02-.03-.02-.05,0-.01,0-.03,.01-.04l.33-.85-.83,.47s-.05,.03-.08,.03c-.01,0-.02,0-.03,0-.04,0-.07-.02-.08-.05,0-.01-.01-.03-.01-.04,0-.02,0-.04,.02-.06,.02-.03,.05-.06,.09-.08l.9-.37-.69-.36s-.05-.04-.05-.07c0,0,0,0,0-.01,0-.03,.02-.06,.05-.1,.03-.03,.07-.05,.11-.06,.01,0,.02,0,.03,0,.03,0,.06,0,.08,.02l.56,.47,.16-.85s.03-.07,.07-.09,.08-.03,.12-.03,.08,.01,.1,.03c.02,.01,.02,.03,.02,.05,0,.01,0,.03-.01,.04l-.32,.85,.83-.47s.06-.02,.09-.02c0,0,.02,0,.03,0,.03,0,.06,.03,.07,.06Z"/>
          <path class="cls-22" d="M7.01,34.17c.3,.83,1.09,1.38,1.97,1.38h.38c.77,0,1.45,.48,1.71,1.2h.22c.26-.72,.95-1.2,1.71-1.2h.39c.88,0,1.67-.55,1.97-1.38l-.04-.22c-.3,.64-.94,1.05-1.65,1.05h-.66c-.77,0-1.45,.48-1.71,1.2h-.22c-.26-.72-.95-1.2-1.71-1.2h-.66c-.71,0-1.35-.41-1.65-1.05"/>
          <path class="cls-22" d="M3.17,38.42l.32-.19c.21,.23,.42,.47,.63,.72l-.34,.22c-.24-.31-.45-.56-.61-.74Zm2.08,.56c.27-.29,.49-.55,.67-.78l.35,.22c-.14,.17-.38,.42-.71,.77l-.3-.21Zm-3.65,.9c.52-.61,.9-1.3,1.17-2.08l.4,.1c-.14,.35-.3,.68-.46,.98v3.04h-.38v-2.4c-.18,.27-.37,.52-.57,.74-.04-.12-.1-.25-.16-.37Zm1.38,.51h1.52v-.69h-1.32v-.32h1.32v-1.55h.39v1.55h1.32v.32h-1.32v.69h1.53v.32h-1.53v1.21h-.39v-1.21h-1.52v-.32Z"/>
          <path class="cls-22" d="M8.44,37.85c.16,.34,.28,.63,.36,.87-.13,.04-.24,.07-.34,.11-.08-.26-.19-.55-.33-.88l.3-.09Zm2.16,1.36h-.97v.38h.97v-.38Zm-.97,1.01h.97v-.38h-.97v.38Zm-.11,1.26c.37,.01,.96,.01,1.76-.01-.05,.12-.1,.23-.14,.33-.67,.01-1.21,0-1.63-.02-.46-.02-.81-.17-1.05-.47-.17,.2-.33,.4-.47,.61l-.24-.26c.11-.14,.3-.37,.59-.68v-1.43h-.39v-.28h.73v1.83c.2,.25,.48,.38,.84,.39Zm-1.46-1.33c.07,.51-.07,.8-.43,.87-.11,.02-.25,.02-.43,0-.02-.09-.05-.2-.1-.33,.16,.03,.3,.04,.41,.03,.2-.03,.26-.22,.19-.58-.05-.19-.19-.41-.42-.64,.13-.36,.25-.74,.38-1.13h-.57v3.53h-.34v-3.83h1.27v.3c-.12,.36-.24,.72-.37,1.08,.22,.22,.36,.45,.41,.7Zm.91-1.9h.67c.06-.14,.11-.29,.16-.44l.33,.08c-.05,.12-.1,.24-.15,.36h1.25v.28h-1.38c-.07,.14-.14,.27-.21,.4h1.29v1.9c0,.29-.16,.44-.49,.44h-.45s-.03-.12-.07-.31c.18,0,.33,.01,.44,.01,.16,0,.24-.07,.24-.21v-.29h-.97v.81h-.33v-1.82c-.12,.16-.24,.32-.37,.46-.05-.11-.1-.21-.15-.3,.3-.36,.54-.72,.73-1.09h-.55v-.28Z"/>
          <path class="cls-22" d="M15.53,39.37h-1.59v1h1.59v-1Zm-4.08,.21h.87c.02-.25,.02-.54,.02-.86h-.31c-.1,.24-.22,.46-.35,.66-.08-.1-.16-.19-.25-.28,.25-.38,.43-.82,.53-1.32l.36,.06c-.05,.21-.11,.41-.17,.59h1.2v.29h-.64c0,.33,0,.61-.02,.86h.73v.29h-.75c-.02,.21-.04,.4-.09,.58l.23-.12c.25,.33,.48,.64,.68,.95l-.33,.17c-.19-.3-.39-.61-.61-.91-.15,.57-.45,1.01-.89,1.33-.07-.08-.16-.17-.26-.26,.52-.39,.82-.97,.89-1.75h-.85v-.29Zm2.12-1.52h2.61v.29h-2.24v.72h1.95v1.82h-.36v-.24h-1.59v.82h2.29v.29h-2.66v-3.7Z"/>
          <path class="cls-22" d="M17.98,40.35c.09,.54-.07,.84-.46,.91-.09,.01-.25,.02-.47,0-.02-.11-.05-.22-.09-.35,.14,.03,.28,.04,.42,.03,.22-.03,.3-.23,.22-.6-.05-.23-.19-.48-.43-.75,.15-.41,.28-.82,.4-1.22h-.63v3.56h-.36v-3.85h1.39v.29c-.22,.63-.36,1.01-.42,1.16,.25,.3,.39,.57,.43,.81Zm.15,.3h1.43v-.62h-1.33v-.3c.2-.33,.38-.68,.56-1.06h-.65v-.3h.78c.08-.19,.15-.38,.22-.58l.4,.07c-.07,.17-.14,.34-.22,.51h1.74v.3h-1.87c-.16,.34-.33,.69-.52,1.06h.89v-.8h.41v.8h.99v.3h-.99v.62h1.16v.3h-1.16v.98h-.41v-.98h-1.43v-.3Z"/>
          <line class="cls-11" x1="24.66" y1="27.15" x2="30.96" y2="27.15"/>
          <line class="cls-11" x1="24.66" y1="29.04" x2="30.96" y2="29.04"/>
          <path class="cls-22" d="M44.5,6.61l-1.73,2.95h1.93l-.2-2.95Zm1.82,5.19c-.02,.07-.07,.1-.13,.1-.3-.02-.6-.03-.9-.03h-.15c-.35,0-.71,.01-1.06,.03-.06,0-.08-.02-.09-.07v-.03l.02-.07c.02-.07,.06-.11,.13-.11,.11,0,.21,0,.31-.01,.09,0,.18-.03,.27-.08,.04-.02,.07-.04,.09-.08,.02-.03,.03-.06,.03-.09v-.03l-.11-1.5h-2.12l-.73,1.25c-.04,.08-.06,.15-.06,.22,0,.06,.02,.11,.05,.16,.08,.11,.21,.16,.41,.16,.05,0,.08,.02,.09,.06,0,.01,0,.03,0,.04l-.02,.07c-.02,.07-.07,.1-.13,.1-.28-.01-.55-.02-.82-.03h-.12c-.24,0-.47,0-.72,.03-.03,0-.05,0-.06-.03-.01-.01-.02-.02-.02-.04,0-.01,0-.02,0-.04l.02-.07c.02-.07,.06-.11,.13-.11,.1,0,.2-.01,.3-.03s.19-.06,.28-.11c.09-.05,.17-.12,.24-.2,.07-.08,.14-.16,.19-.26l3.2-5.47c.04-.07,.1-.1,.17-.1h.09c.07,0,.11,.03,.12,.1l.4,5.73c0,.08,.02,.14,.03,.19,.01,.05,.04,.08,.08,.11,.05,.03,.12,.05,.23,.05,.1,0,.22,0,.34,0,.05,0,.08,.02,.08,.06,0,.01,0,.03,0,.04l-.02,.07Z"/>
          <path class="cls-22" d="M47.71,12.82s-.02,.05-.02,.08c0,.04,.02,.06,.05,.07,.04,.02,.12,.03,.22,.04,.11,0,.21,0,.32,0,.04,0,.06,.01,.06,.04,0,0,0,.02,0,.02v.05s-.06,.06-.1,.06c-.27-.01-.55-.01-.84-.02-.28,0-.56,0-.84,.02-.03,0-.05-.01-.05-.04v-.06s.05-.06,.1-.06c.11,0,.22,0,.33,0,.11,0,.19-.02,.24-.04,.06-.02,.09-.07,.12-.15l.74-2.56c-.11,.07-.23,.13-.35,.17-.12,.04-.25,.06-.38,.06-.02,0-.03,0-.04-.02,0,0-.01-.02-.01-.02,0,0,0-.01,0-.02v-.05s.06-.06,.1-.06c.21,0,.41-.06,.61-.19,.2-.13,.37-.28,.51-.46,.02-.02,.04-.04,.07-.04h.02s.03,0,.05,.02c0,0,0,.01,0,.02,0,0,0,.01,0,.02l-.9,3.12Z"/>
          <path class="cls-22" d="M50.69,12.82s-.02,.05-.02,.08c0,.04,.02,.06,.05,.07,.04,.02,.12,.03,.22,.04,.11,0,.21,0,.32,0,.04,0,.06,.01,.06,.04,0,0,0,.02,0,.02v.05s-.06,.06-.1,.06c-.28-.01-.55-.01-.84-.02-.28,0-.56,0-.84,.02-.03,0-.05-.01-.05-.04v-.06s.05-.06,.1-.06c.11,0,.22,0,.33,0,.11,0,.19-.02,.24-.04,.06-.02,.09-.07,.12-.15l.74-2.56c-.11,.07-.23,.13-.35,.17-.12,.04-.25,.06-.38,.06-.02,0-.03,0-.04-.02,0,0-.01-.02-.01-.02,0,0,0-.01,0-.02v-.05s.06-.06,.1-.06c.21,0,.41-.06,.61-.19,.2-.13,.37-.28,.51-.46,.02-.02,.04-.04,.07-.04h.02s.03,0,.05,.02c0,0,0,.01,0,.02,0,0,0,.01,0,.02l-.89,3.12Z"/>
          <path class="cls-22" d="M63.41,6.61l-1.73,2.95h1.93l-.2-2.95Zm1.82,5.19c-.03,.07-.07,.1-.13,.1-.3-.02-.6-.03-.9-.03h-.15c-.35,0-.71,.01-1.06,.03-.05,0-.08-.02-.09-.07v-.03l.02-.07c.02-.07,.06-.11,.13-.11,.11,0,.21,0,.31-.01,.09,0,.18-.03,.27-.08,.04-.02,.07-.04,.09-.08,.02-.03,.03-.06,.03-.09v-.03l-.11-1.5h-2.11l-.73,1.25c-.04,.08-.06,.15-.06,.22,0,.06,.02,.11,.05,.16,.08,.11,.21,.16,.41,.16,.06,0,.08,.02,.09,.06,0,.01,0,.03,0,.04l-.02,.07c-.03,.07-.07,.1-.13,.1-.28-.01-.55-.02-.82-.03h-.12c-.24,0-.47,0-.72,.03-.03,0-.05,0-.06-.03-.01-.01-.02-.02-.02-.04,0-.01,0-.02,0-.04l.02-.07c.02-.07,.06-.11,.13-.11,.1,0,.2-.01,.3-.03s.19-.06,.28-.11c.09-.05,.16-.12,.24-.2,.07-.08,.14-.16,.19-.26l3.2-5.47c.04-.07,.1-.1,.17-.1h.09c.07,0,.11,.03,.12,.1l.4,5.73c0,.08,.02,.14,.03,.19,.01,.05,.04,.08,.08,.11,.05,.03,.12,.05,.23,.05,.1,0,.22,0,.34,0,.06,0,.08,.02,.08,.06,0,.01,0,.03,0,.04l-.02,.07Z"/>
          <path class="cls-22" d="M68.24,10.84c-.03,.14-.11,.26-.21,.37-.11,.11-.24,.22-.38,.32-.14,.1-.3,.19-.46,.28-.16,.09-.32,.17-.47,.24-.19,.09-.35,.2-.5,.32-.15,.13-.27,.26-.37,.42,.04-.02,.09-.02,.14-.02,.1,0,.21,0,.3,.03,.1,.02,.2,.03,.3,.05,.1,.02,.2,.04,.29,.05,.09,.02,.19,.03,.3,.03,.08,0,.15-.02,.23-.05,.08-.03,.14-.08,.21-.14,.06-.06,.12-.12,.17-.2,.05-.08,.08-.15,.1-.23,0-.03,.03-.05,.08-.05h.07s.03,0,.05,.01c0,0,0,.01,0,.02,0,0,0,0,0,.02-.03,.12-.08,.24-.14,.35-.06,.12-.13,.22-.22,.32-.09,.1-.18,.17-.29,.23-.11,.06-.23,.09-.35,.09-.12,0-.22-.02-.32-.06-.09-.04-.18-.09-.26-.14-.08-.05-.16-.1-.25-.14-.09-.04-.18-.07-.3-.07-.07,0-.13,.03-.19,.1-.06,.07-.1,.15-.13,.26,0,.03-.03,.04-.08,.04h-.06s-.03,0-.04-.01c0,0-.01,0-.01-.02,0,0,0,0,0-.01,.08-.27,.22-.52,.43-.75,.21-.23,.46-.42,.77-.57,.27-.13,.51-.28,.72-.47,.21-.18,.35-.39,.42-.61,.04-.14,.07-.27,.09-.41v-.08c0-.1-.02-.19-.05-.28-.04-.09-.11-.16-.19-.22-.08-.06-.18-.09-.3-.09-.14,0-.27,.03-.39,.1-.12,.06-.23,.15-.33,.25-.1,.1-.19,.23-.26,.36-.07,.14-.13,.28-.17,.42-.02,.08-.03,.15-.03,.2,0,.03,0,.05,.01,.07,.01,.07,.05,.11,.13,.11,.07,0,.13-.02,.19-.05,.06-.03,.11-.08,.16-.13,.05-.06,.09-.12,.13-.2,.04-.07,.07-.15,.1-.24,0-.03,.01-.06,.01-.09,0-.02,0-.04,0-.06-.01-.05-.03-.1-.07-.14,0,0,0-.01,0-.02,0-.02,.01-.03,.03-.05h.01s.04-.03,.05-.03c.02,0,.03,0,.03,.02,.06,.07,.09,.15,.09,.23,0,.05,0,.09-.02,.14-.03,.09-.06,.17-.11,.26-.05,.09-.1,.16-.16,.24-.06,.07-.13,.13-.21,.17-.08,.04-.17,.07-.27,.07-.07,0-.13-.01-.17-.04-.04-.03-.07-.07-.09-.12-.02-.05-.03-.1-.03-.15,0,0,0-.01,0-.02,0-.06,0-.12,.03-.17,.05-.15,.11-.31,.2-.46,.08-.15,.19-.28,.31-.4,.12-.12,.26-.21,.41-.29,.15-.07,.31-.11,.48-.11s.32,.03,.45,.1c.13,.06,.24,.15,.32,.26,.09,.12,.14,.25,.16,.39,0,.05,.01,.09,.01,.13,0,.11-.02,.22-.05,.32Z"/>
          <path class="cls-22" d="M69.8,12.82s-.02,.05-.02,.08c0,.04,.02,.06,.05,.07,.04,.02,.12,.03,.22,.04,.11,0,.21,0,.32,0,.04,0,.06,.01,.06,.04,0,0,0,.02,0,.02v.05s-.06,.06-.1,.06c-.28-.01-.55-.01-.84-.02-.28,0-.56,0-.84,.02-.03,0-.05-.01-.05-.04v-.06s.05-.06,.1-.06c.11,0,.22,0,.33,0,.11,0,.19-.02,.24-.04,.06-.02,.09-.07,.12-.15l.74-2.56c-.11,.07-.23,.13-.35,.17-.12,.04-.25,.06-.38,.06-.02,0-.03,0-.04-.02,0,0-.01-.02-.01-.02,0,0,0-.01,0-.02v-.05s.06-.06,.1-.06c.21,0,.41-.06,.61-.19,.2-.13,.37-.28,.51-.46,.02-.02,.04-.04,.07-.04h.02s.04,0,.05,.02c0,0,0,.01,0,.02,0,0,0,.01,0,.02l-.89,3.12Z"/>
          <path class="cls-22" d="M82.06,9.24c0,.31-.25,.56-.56,.56s-.55-.25-.55-.56,.25-.55,.55-.55,.56,.25,.56,.55Z"/>
          <path class="cls-22" d="M79.22,9.24c0,.31-.25,.56-.56,.56s-.55-.25-.55-.56,.25-.55,.55-.55,.56,.25,.56,.55Z"/>
          <path class="cls-22" d="M84.89,9.24c0,.31-.25,.56-.56,.56s-.55-.25-.55-.56,.25-.55,.55-.55,.56,.25,.56,.55Z"/>
          <path class="cls-22" d="M96.03,6.61l-1.73,2.95h1.93l-.2-2.95Zm1.82,5.19c-.02,.07-.07,.1-.13,.1-.3-.02-.6-.03-.9-.03h-.15c-.35,0-.71,.01-1.06,.03-.05,0-.08-.02-.09-.07v-.03l.02-.07c.02-.07,.06-.11,.13-.11,.11,0,.21,0,.31-.01,.09,0,.18-.03,.27-.08,.04-.02,.07-.04,.09-.08,.02-.03,.03-.06,.03-.09v-.03l-.11-1.5h-2.11l-.73,1.25c-.04,.08-.06,.15-.06,.22,0,.06,.02,.11,.05,.16,.08,.11,.21,.16,.41,.16,.05,0,.08,.02,.09,.06,0,.01,0,.03,0,.04l-.02,.07c-.03,.07-.07,.1-.13,.1-.28-.01-.55-.02-.82-.03h-.12c-.24,0-.47,0-.72,.03-.03,0-.05,0-.06-.03-.01-.01-.02-.02-.02-.04,0-.01,0-.02,0-.04l.02-.07c.02-.07,.06-.11,.13-.11,.1,0,.2-.01,.3-.03,.1-.02,.19-.06,.28-.11,.09-.05,.16-.12,.24-.2,.07-.08,.14-.16,.19-.26l3.2-5.47c.04-.07,.1-.1,.17-.1h.09c.07,0,.11,.03,.12,.1l.4,5.73c0,.08,.02,.14,.03,.19,.01,.05,.04,.08,.08,.11,.05,.03,.12,.05,.23,.05,.1,0,.22,0,.34,0,.06,0,.08,.02,.08,.06,0,.01,0,.03,0,.04l-.02,.07Z"/>
          <path class="cls-22" d="M101.13,12.45c-.03,.09-.06,.18-.1,.27-.04,.09-.1,.18-.16,.25-.06,.08-.14,.14-.22,.19-.08,.05-.17,.07-.28,.07-.09,0-.17-.02-.23-.05-.06-.03-.11-.08-.14-.13-.03-.06-.05-.12-.06-.19v-.02c0-.07,.02-.14,.05-.21,.06-.14,.12-.29,.18-.43,.06-.14,.11-.29,.15-.43,.03-.1,.05-.19,.06-.28,0-.03,0-.06,0-.09,0-.06,0-.11-.02-.16-.04-.12-.12-.17-.24-.17-.2,0-.37,.06-.51,.18-.14,.12-.27,.28-.37,.48l-.39,1.34c-.02,.05-.05,.1-.09,.12-.05,.03-.09,.04-.14,.04s-.08-.01-.11-.04c-.02-.02-.03-.04-.03-.07,0-.01,0-.03,0-.05l.44-1.52c.03-.11,.05-.2,.05-.28v-.06c-.01-.09-.07-.14-.16-.14s-.18,.06-.23,.19c-.06,.13-.12,.28-.17,.48-.02,.03-.04,.05-.08,.05h-.07s-.04-.01-.04-.04v-.02c.02-.07,.05-.16,.08-.25,.03-.09,.06-.18,.11-.26,.05-.08,.1-.15,.17-.2,.07-.05,.15-.08,.25-.08,.15,0,.26,.04,.35,.12,.08,.08,.13,.17,.14,.29,.11-.12,.23-.22,.37-.3,.14-.07,.3-.11,.48-.11,.11,0,.21,.02,.3,.05,.09,.04,.16,.09,.21,.17,.06,.08,.08,.17,.08,.27h0c0,.12-.02,.22-.05,.33-.04,.15-.09,.29-.15,.44-.06,.15-.12,.29-.18,.44-.06,.14-.09,.25-.09,.34s.04,.14,.13,.14c.07,0,.13-.02,.19-.06,.06-.04,.11-.09,.15-.15,.05-.06,.08-.13,.12-.21,.04-.08,.06-.17,.09-.26,.02-.03,.04-.04,.07-.04h.07s.04,.01,.04,.03v.02Z"/>
          <path class="cls-22" d="M102.79,12.82s-.02,.05-.02,.08c0,.04,.01,.06,.04,.07,.05,.02,.12,.03,.23,.04,.1,0,.21,0,.32,0,.04,0,.06,.01,.06,.04,0,0,0,.02-.01,.02v.05s-.06,.06-.1,.06c-.27-.01-.55-.01-.83-.02-.28,0-.56,0-.85,.02-.03,0-.05-.01-.05-.04v-.06s.05-.06,.1-.06c.11,0,.22,0,.33,0,.11,0,.19-.02,.24-.04,.05-.02,.09-.07,.12-.15l.73-2.56c-.11,.07-.23,.13-.35,.17-.12,.04-.25,.06-.38,.06-.02,0-.03,0-.04-.02-.01,0-.01-.02-.01-.02,0,0,0-.01,.01-.02v-.05s.05-.06,.09-.06c.21,0,.42-.06,.62-.19,.19-.13,.36-.28,.51-.46,.01-.02,.04-.04,.06-.04h.02s.04,0,.05,.02c0,0,.01,.01,.01,.02,0,0-.01,.01-.01,.02l-.89,3.12Z"/>
          <path class="cls-22" d="M44.5,19.18l-1.73,2.95h1.93l-.2-2.95Zm1.82,5.19c-.02,.07-.07,.1-.13,.1-.3-.02-.6-.03-.9-.03h-.15c-.35,0-.71,.02-1.06,.03-.06,0-.08-.02-.09-.07v-.03l.02-.07c.02-.07,.06-.11,.13-.11,.11,0,.21,0,.31-.01,.09,0,.18-.04,.27-.08,.04-.02,.07-.04,.09-.08,.02-.03,.03-.06,.03-.09v-.03l-.11-1.5h-2.12l-.73,1.25c-.04,.08-.06,.15-.06,.22,0,.06,.02,.11,.05,.16,.08,.11,.21,.16,.41,.16,.05,0,.08,.02,.09,.06,0,.01,0,.03,0,.04l-.02,.07c-.02,.07-.07,.1-.13,.1-.28-.01-.55-.02-.82-.03h-.12c-.24,0-.47,0-.72,.03-.03,0-.05,0-.06-.03-.01-.01-.02-.02-.02-.04s0-.03,0-.04l.02-.07c.02-.07,.06-.11,.13-.11,.1,0,.2-.01,.3-.03s.19-.06,.28-.11c.09-.06,.17-.12,.24-.2,.07-.08,.14-.17,.19-.26l3.2-5.47c.04-.07,.1-.1,.17-.1h.09c.07,0,.11,.03,.12,.1l.4,5.73c0,.08,.02,.14,.03,.19,.01,.05,.04,.08,.08,.11,.05,.03,.12,.05,.23,.05,.1,0,.22,0,.34,0,.05,0,.08,.02,.08,.06,0,.01,0,.03,0,.04l-.02,.07Z"/>
          <path class="cls-22" d="M47.71,25.39s-.02,.05-.02,.08c0,.04,.02,.06,.05,.07,.04,.02,.12,.03,.22,.03,.11,0,.21,0,.32,0,.04,0,.06,.01,.06,.04,0,0,0,.02,0,.03v.04s-.06,.06-.1,.06c-.27-.01-.55-.01-.84-.01s-.56,0-.84,.01c-.03,0-.05-.01-.05-.04v-.06s.05-.06,.1-.06c.11,0,.22,0,.33,0,.11,0,.19-.01,.24-.03,.06-.02,.09-.07,.12-.15l.74-2.56c-.11,.07-.23,.13-.35,.17s-.25,.06-.38,.06c-.02,0-.03,0-.04-.02,0,0-.01-.01-.01-.02,0,0,0-.01,0-.02v-.05s.06-.06,.1-.06c.21,0,.41-.06,.61-.19,.2-.12,.37-.28,.51-.46,.02-.02,.04-.04,.07-.04h.02s.03,0,.05,.02c0,0,0,.01,0,.02,0,0,0,.01,0,.02l-.9,3.12Z"/>
          <path class="cls-22" d="M52.11,23.41c-.03,.13-.11,.26-.21,.37-.11,.11-.24,.22-.38,.32-.14,.1-.3,.19-.46,.28-.17,.09-.32,.17-.47,.24-.19,.09-.35,.2-.5,.32-.15,.13-.27,.27-.38,.42,.04-.02,.09-.03,.15-.03,.1,0,.21,0,.3,.03,.1,.02,.2,.04,.3,.05,.1,.02,.2,.04,.29,.05,.1,.02,.2,.03,.3,.03,.08,0,.15-.02,.23-.05,.08-.03,.14-.08,.21-.14,.07-.06,.12-.12,.17-.2,.05-.08,.08-.15,.1-.23,0-.03,.03-.05,.08-.05h.07s.03,0,.05,0c0,0,0,.02,0,.02,0,0,0,0,0,.01-.03,.12-.08,.24-.14,.35-.06,.12-.13,.22-.22,.32-.09,.1-.18,.17-.29,.23-.11,.06-.23,.09-.35,.09-.12,0-.23-.02-.32-.06-.09-.04-.18-.09-.26-.14-.08-.05-.17-.09-.25-.14-.09-.04-.18-.07-.3-.07-.07,0-.13,.03-.19,.1-.06,.07-.1,.15-.13,.26,0,.03-.03,.04-.08,.04h-.06s-.03,0-.04-.01c0,0-.01,0-.01-.02,0,0,0,0,0-.02,.08-.27,.22-.52,.43-.75,.21-.23,.46-.43,.77-.57,.27-.13,.51-.28,.72-.47,.21-.18,.35-.39,.42-.61,.04-.14,.07-.27,.09-.41v-.08c0-.1-.02-.19-.05-.28-.04-.09-.11-.16-.19-.22-.08-.06-.18-.09-.3-.09-.14,0-.27,.03-.39,.1s-.23,.15-.34,.25c-.1,.1-.19,.22-.26,.36-.07,.14-.13,.28-.17,.42-.02,.08-.04,.14-.04,.2,0,.03,0,.05,.01,.07,.01,.07,.05,.11,.13,.11,.07,0,.13-.02,.19-.05,.06-.03,.11-.08,.16-.13,.05-.05,.09-.12,.13-.19,.04-.07,.07-.15,.1-.24,0-.03,.01-.06,.01-.09,0-.02,0-.04,0-.06-.01-.05-.03-.1-.07-.14,0,0,0-.02,0-.03,0-.02,.01-.03,.03-.04h.01s.04-.03,.05-.03c.02,0,.03,0,.03,.02,.06,.07,.09,.14,.09,.23,0,.05,0,.1-.02,.14-.03,.09-.06,.17-.11,.26-.05,.09-.1,.17-.16,.24-.06,.07-.13,.13-.21,.17-.08,.04-.17,.07-.27,.07-.07,0-.13-.01-.17-.04-.04-.03-.07-.07-.09-.12-.02-.05-.03-.1-.03-.15,0,0,0-.01,0-.02,0-.06,0-.12,.03-.17,.05-.15,.11-.31,.2-.46,.08-.15,.19-.28,.31-.4,.12-.12,.26-.21,.41-.29,.15-.07,.31-.11,.48-.11s.32,.03,.45,.1c.13,.06,.24,.15,.32,.26,.09,.12,.14,.25,.16,.39,0,.05,.01,.09,.01,.13,0,.11-.02,.22-.05,.32Z"/>
          <path class="cls-22" d="M63.41,19.18l-1.73,2.95h1.93l-.2-2.95Zm1.82,5.19c-.03,.07-.07,.1-.13,.1-.3-.02-.6-.03-.9-.03h-.15c-.35,0-.71,.02-1.06,.03-.05,0-.08-.02-.09-.07v-.03l.02-.07c.02-.07,.06-.11,.13-.11,.11,0,.21,0,.31-.01,.09,0,.18-.04,.27-.08,.04-.02,.07-.04,.09-.08,.02-.03,.03-.06,.03-.09v-.03l-.11-1.5h-2.11l-.73,1.25c-.04,.08-.06,.15-.06,.22,0,.06,.02,.11,.05,.16,.08,.11,.21,.16,.41,.16,.06,0,.08,.02,.09,.06,0,.01,0,.03,0,.04l-.02,.07c-.03,.07-.07,.1-.13,.1-.28-.01-.55-.02-.82-.03h-.12c-.24,0-.47,0-.72,.03-.03,0-.05,0-.06-.03-.01-.01-.02-.02-.02-.04s0-.03,0-.04l.02-.07c.02-.07,.06-.11,.13-.11,.1,0,.2-.01,.3-.03s.19-.06,.28-.11c.09-.06,.16-.12,.24-.2,.07-.08,.14-.17,.19-.26l3.2-5.47c.04-.07,.1-.1,.17-.1h.09c.07,0,.11,.03,.12,.1l.4,5.73c0,.08,.02,.14,.03,.19,.01,.05,.04,.08,.08,.11,.05,.03,.12,.05,.23,.05,.1,0,.22,0,.34,0,.06,0,.08,.02,.08,.06,0,.01,0,.03,0,.04l-.02,.07Z"/>
          <path class="cls-22" d="M68.24,23.41c-.03,.13-.11,.26-.21,.37-.11,.11-.24,.22-.38,.32-.14,.1-.3,.19-.46,.28-.16,.09-.32,.17-.47,.24-.19,.09-.35,.2-.5,.32-.15,.13-.27,.27-.37,.42,.04-.02,.09-.03,.14-.03,.1,0,.21,0,.3,.03,.1,.02,.2,.04,.3,.05,.1,.02,.2,.04,.29,.05,.09,.02,.19,.03,.3,.03,.08,0,.15-.02,.23-.05,.08-.03,.14-.08,.21-.14,.06-.06,.12-.12,.17-.2,.05-.08,.08-.15,.1-.23,0-.03,.03-.05,.08-.05h.07s.03,0,.05,0c0,0,0,.02,0,.02,0,0,0,0,0,.01-.03,.12-.08,.24-.14,.35-.06,.12-.13,.22-.22,.32-.09,.1-.18,.17-.29,.23-.11,.06-.23,.09-.35,.09-.12,0-.22-.02-.32-.06-.09-.04-.18-.09-.26-.14-.08-.05-.16-.09-.25-.14-.09-.04-.18-.07-.3-.07-.07,0-.13,.03-.19,.1-.06,.07-.1,.15-.13,.26,0,.03-.03,.04-.08,.04h-.06s-.03,0-.04-.01c0,0-.01,0-.01-.02,0,0,0,0,0-.02,.08-.27,.22-.52,.43-.75,.21-.23,.46-.43,.77-.57,.27-.13,.51-.28,.72-.47,.21-.18,.35-.39,.42-.61,.04-.14,.07-.27,.09-.41v-.08c0-.1-.02-.19-.05-.28-.04-.09-.11-.16-.19-.22-.08-.06-.18-.09-.3-.09-.14,0-.27,.03-.39,.1-.12,.06-.23,.15-.33,.25-.1,.1-.19,.22-.26,.36-.07,.14-.13,.28-.17,.42-.02,.08-.03,.14-.03,.2,0,.03,0,.05,.01,.07,.01,.07,.05,.11,.13,.11,.07,0,.13-.02,.19-.05,.06-.03,.11-.08,.16-.13,.05-.05,.09-.12,.13-.19,.04-.07,.07-.15,.1-.24,0-.03,.01-.06,.01-.09,0-.02,0-.04,0-.06-.01-.05-.03-.1-.07-.14,0,0,0-.02,0-.03,0-.02,.01-.03,.03-.04h.01s.04-.03,.05-.03c.02,0,.03,0,.03,.02,.06,.07,.09,.14,.09,.23,0,.05,0,.1-.02,.14-.03,.09-.06,.17-.11,.26-.05,.09-.1,.17-.16,.24-.06,.07-.13,.13-.21,.17-.08,.04-.17,.07-.27,.07-.07,0-.13-.01-.17-.04-.04-.03-.07-.07-.09-.12-.02-.05-.03-.1-.03-.15,0,0,0-.01,0-.02,0-.06,0-.12,.03-.17,.05-.15,.11-.31,.2-.46,.08-.15,.19-.28,.31-.4,.12-.12,.26-.21,.41-.29,.15-.07,.31-.11,.48-.11s.32,.03,.45,.1c.13,.06,.24,.15,.32,.26,.09,.12,.14,.25,.16,.39,0,.05,.01,.09,.01,.13,0,.11-.02,.22-.05,.32Z"/>
          <path class="cls-22" d="M71.22,23.41c-.03,.13-.11,.26-.21,.37-.11,.11-.24,.22-.38,.32-.14,.1-.3,.19-.46,.28-.16,.09-.32,.17-.47,.24-.19,.09-.35,.2-.5,.32-.15,.13-.27,.27-.37,.42,.04-.02,.09-.03,.14-.03,.1,0,.21,0,.3,.03,.1,.02,.2,.04,.3,.05,.1,.02,.2,.04,.29,.05,.09,.02,.19,.03,.3,.03,.08,0,.15-.02,.23-.05,.08-.03,.14-.08,.21-.14,.06-.06,.12-.12,.17-.2,.05-.08,.08-.15,.1-.23,0-.03,.03-.05,.08-.05h.07s.03,0,.05,0c0,0,0,.02,0,.02,0,0,0,0,0,.01-.03,.12-.08,.24-.14,.35-.06,.12-.13,.22-.22,.32-.09,.1-.18,.17-.29,.23-.11,.06-.23,.09-.35,.09-.12,0-.22-.02-.32-.06-.09-.04-.18-.09-.26-.14-.08-.05-.16-.09-.25-.14-.09-.04-.18-.07-.3-.07-.07,0-.13,.03-.19,.1-.06,.07-.1,.15-.13,.26,0,.03-.03,.04-.08,.04h-.06s-.03,0-.04-.01c0,0-.01,0-.01-.02,0,0,0,0,0-.02,.08-.27,.22-.52,.43-.75,.21-.23,.46-.43,.77-.57,.27-.13,.51-.28,.72-.47,.21-.18,.35-.39,.42-.61,.04-.14,.07-.27,.09-.41v-.08c0-.1-.02-.19-.05-.28-.04-.09-.11-.16-.19-.22-.08-.06-.18-.09-.3-.09-.14,0-.27,.03-.39,.1-.12,.06-.23,.15-.33,.25-.1,.1-.19,.22-.26,.36-.07,.14-.13,.28-.17,.42-.02,.08-.03,.14-.03,.2,0,.03,0,.05,.01,.07,.01,.07,.05,.11,.13,.11,.07,0,.13-.02,.19-.05,.06-.03,.11-.08,.16-.13,.05-.05,.09-.12,.13-.19,.04-.07,.07-.15,.1-.24,0-.03,.01-.06,.01-.09,0-.02,0-.04,0-.06-.01-.05-.03-.1-.07-.14,0,0,0-.02,0-.03,0-.02,.01-.03,.03-.04h.01s.04-.03,.05-.03c.02,0,.03,0,.03,.02,.06,.07,.09,.14,.09,.23,0,.05,0,.1-.02,.14-.03,.09-.06,.17-.11,.26-.05,.09-.1,.17-.16,.24-.06,.07-.13,.13-.21,.17-.08,.04-.17,.07-.27,.07-.07,0-.13-.01-.17-.04-.04-.03-.07-.07-.09-.12-.02-.05-.03-.1-.03-.15,0,0,0-.01,0-.02,0-.06,0-.12,.03-.17,.05-.15,.11-.31,.2-.46,.08-.15,.19-.28,.31-.4,.12-.12,.26-.21,.41-.29,.15-.07,.31-.11,.48-.11s.32,.03,.45,.1c.13,.06,.24,.15,.32,.26,.09,.12,.14,.25,.16,.39,0,.05,.01,.09,.01,.13,0,.11-.02,.22-.05,.32Z"/>
          <path class="cls-22" d="M96.03,19.18l-1.73,2.95h1.93l-.2-2.95Zm1.82,5.19c-.02,.07-.07,.1-.13,.1-.3-.02-.6-.03-.9-.03h-.15c-.35,0-.71,.02-1.06,.03-.05,0-.08-.02-.09-.07v-.03l.02-.07c.02-.07,.06-.11,.13-.11,.11,0,.21,0,.31-.01,.09,0,.18-.04,.27-.08,.04-.02,.07-.04,.09-.08,.02-.03,.03-.06,.03-.09v-.03l-.11-1.5h-2.11l-.73,1.25c-.04,.08-.06,.15-.06,.22,0,.06,.02,.11,.05,.16,.08,.11,.21,.16,.41,.16,.05,0,.08,.02,.09,.06,0,.01,0,.03,0,.04l-.02,.07c-.03,.07-.07,.1-.13,.1-.28-.01-.55-.02-.82-.03h-.12c-.24,0-.47,0-.72,.03-.03,0-.05,0-.06-.03-.01-.01-.02-.02-.02-.04s0-.03,0-.04l.02-.07c.02-.07,.06-.11,.13-.11,.1,0,.2-.01,.3-.03,.1-.02,.19-.06,.28-.11,.09-.06,.16-.12,.24-.2,.07-.08,.14-.17,.19-.26l3.2-5.47c.04-.07,.1-.1,.17-.1h.09c.07,0,.11,.03,.12,.1l.4,5.73c0,.08,.02,.14,.03,.19,.01,.05,.04,.08,.08,.11,.05,.03,.12,.05,.23,.05,.1,0,.22,0,.34,0,.06,0,.08,.02,.08,.06,0,.01,0,.03,0,.04l-.02,.07Z"/>
          <path class="cls-22" d="M101.13,25.02c-.03,.09-.06,.18-.1,.27-.04,.09-.1,.18-.16,.25-.06,.08-.14,.14-.22,.19-.08,.05-.17,.07-.28,.07-.09,0-.17-.02-.23-.05-.06-.03-.11-.08-.14-.13-.03-.06-.05-.12-.06-.2v-.02c0-.07,.02-.14,.05-.21,.06-.15,.12-.29,.18-.43,.06-.14,.11-.29,.15-.43,.03-.1,.05-.19,.06-.28,0-.03,0-.05,0-.09,0-.06,0-.11-.02-.16-.04-.11-.12-.17-.24-.17-.2,0-.37,.06-.51,.18-.14,.12-.27,.28-.37,.48l-.39,1.34c-.02,.05-.05,.1-.09,.12-.05,.03-.09,.04-.14,.04s-.08-.01-.11-.04c-.02-.02-.03-.04-.03-.07,0-.01,0-.03,0-.05l.44-1.52c.03-.11,.05-.2,.05-.28v-.06c-.01-.09-.07-.14-.16-.14s-.18,.06-.23,.19c-.06,.13-.12,.29-.17,.48-.02,.03-.04,.05-.08,.05h-.07s-.04-.01-.04-.04h0c.02-.09,.05-.17,.08-.26,.03-.09,.06-.18,.11-.26,.05-.08,.1-.15,.17-.2,.07-.05,.15-.08,.25-.08,.15,0,.26,.04,.35,.12,.08,.08,.13,.18,.14,.29,.11-.13,.23-.22,.37-.3,.14-.07,.3-.11,.48-.11,.11,0,.21,.02,.3,.05,.09,.04,.16,.09,.21,.17,.06,.08,.08,.17,.08,.27h0c0,.12-.02,.22-.05,.32-.04,.15-.09,.29-.15,.44-.06,.14-.12,.29-.18,.44-.06,.13-.09,.25-.09,.34s.04,.14,.13,.14c.07,0,.13-.02,.19-.06,.06-.04,.11-.09,.15-.15,.05-.06,.08-.13,.12-.21,.04-.08,.06-.17,.09-.26,.02-.03,.04-.05,.07-.05h.07s.04,.01,.04,.03v.02Z"/>
          <path class="cls-22" d="M104.2,23.41c-.03,.13-.1,.26-.21,.37-.11,.11-.24,.22-.38,.32-.14,.1-.3,.19-.46,.28-.17,.09-.33,.17-.47,.24-.19,.09-.35,.2-.5,.32-.15,.13-.27,.27-.37,.42,.03-.02,.08-.03,.14-.03,.1,0,.21,0,.3,.03,.1,.02,.2,.04,.3,.05,.1,.02,.2,.04,.29,.05,.1,.02,.2,.03,.3,.03,.08,0,.16-.02,.23-.05,.08-.03,.15-.08,.21-.14,.06-.06,.12-.12,.17-.2,.04-.08,.08-.15,.1-.23,.01-.03,.03-.05,.08-.05h.06s.04,0,.05,0v.02h0c-.04,.13-.08,.25-.14,.37-.06,.12-.13,.22-.22,.32-.08,.1-.18,.17-.29,.23-.11,.06-.23,.09-.35,.09s-.23-.02-.32-.06c-.09-.04-.18-.09-.26-.14-.08-.05-.16-.09-.25-.14-.08-.04-.18-.07-.3-.07-.06,0-.12,.03-.18,.1s-.1,.15-.13,.26c-.01,.03-.04,.04-.08,.04h-.06s-.03,0-.04-.01c0,0-.01,0-.01-.02,0,0,0,0,0-.02,.08-.27,.22-.52,.43-.75,.2-.23,.46-.43,.76-.57,.27-.13,.51-.28,.72-.47,.21-.18,.35-.39,.41-.61,.05-.14,.08-.27,.09-.41v-.08c0-.1-.02-.19-.05-.28-.04-.09-.11-.16-.19-.22-.08-.06-.18-.09-.3-.09-.14,0-.27,.03-.39,.1-.12,.06-.23,.15-.34,.25-.1,.1-.18,.22-.26,.36-.07,.14-.13,.28-.17,.42-.02,.08-.04,.14-.04,.2,0,.03,.01,.05,.02,.07,.01,.07,.05,.11,.12,.11s.14-.02,.19-.05c.06-.03,.12-.08,.16-.13,.05-.05,.1-.12,.13-.19,.04-.07,.08-.15,.1-.24,.01-.03,.02-.06,.02-.09,0-.02-.01-.04-.01-.06-.01-.05-.03-.1-.06-.14-.01,0-.01-.02-.01-.03,0-.02,.01-.03,.03-.04h.01s.04-.03,.05-.03c.02,0,.03,0,.04,.02,.06,.07,.09,.14,.09,.23,0,.05-.01,.1-.02,.14-.03,.09-.06,.17-.11,.26-.04,.09-.1,.17-.16,.24-.06,.07-.13,.13-.21,.17-.08,.04-.17,.07-.27,.07-.07,0-.13-.01-.17-.04-.04-.03-.07-.07-.09-.12-.02-.05-.03-.1-.03-.15v-.02c0-.06,.01-.12,.03-.17,.05-.15,.11-.31,.2-.46,.08-.15,.18-.28,.3-.4,.12-.12,.26-.21,.41-.29,.15-.07,.31-.11,.48-.11s.32,.03,.45,.1c.13,.06,.24,.15,.32,.26,.08,.12,.14,.25,.16,.39,0,.05,.01,.09,.01,.13,0,.11-.02,.22-.06,.32Z"/>
          <path class="cls-22" d="M46.74,34.38c0,.31-.25,.56-.55,.56s-.55-.25-.55-.56,.25-.55,.55-.55,.55,.25,.55,.55Z"/>
          <path class="cls-22" d="M46.74,31.54c0,.31-.25,.56-.55,.56s-.55-.25-.55-.56,.25-.55,.55-.55,.55,.25,.55,.55Z"/>
          <path class="cls-22" d="M46.74,37.21c0,.31-.25,.56-.55,.56s-.55-.25-.55-.56,.25-.55,.55-.55,.55,.25,.55,.55Z"/>
          <path class="cls-22" d="M44.38,44.21l-1.73,2.95h1.93l-.2-2.95Zm1.82,5.19c-.02,.07-.07,.1-.13,.1-.3-.02-.6-.03-.9-.03h-.15c-.35,0-.71,.01-1.06,.03-.06,0-.08-.02-.09-.07v-.03l.02-.07c.02-.07,.06-.11,.13-.11,.11,0,.21,0,.31-.01,.09,0,.18-.04,.27-.08,.04-.02,.07-.04,.09-.08,.02-.03,.03-.06,.03-.09v-.03l-.11-1.5h-2.12l-.73,1.25c-.04,.08-.06,.15-.06,.22,0,.06,.02,.11,.05,.16,.08,.11,.21,.16,.41,.16,.05,0,.08,.02,.09,.06,0,.01,0,.03,0,.04l-.02,.07c-.02,.07-.07,.1-.13,.1-.28-.01-.55-.02-.82-.03h-.12c-.24,0-.47,0-.72,.03-.03,0-.05,0-.06-.03-.01-.01-.02-.02-.02-.04s0-.02,0-.04l.02-.07c.02-.07,.06-.11,.13-.11,.1,0,.2-.01,.3-.03s.19-.06,.28-.11c.09-.06,.16-.12,.24-.2,.07-.08,.14-.17,.19-.26l3.2-5.47c.04-.07,.1-.1,.17-.1h.09c.07,0,.11,.03,.12,.1l.4,5.73c0,.08,.02,.14,.03,.19,.01,.05,.04,.08,.08,.11,.05,.03,.12,.05,.23,.05,.1,0,.22,0,.34,0,.05,0,.08,.02,.08,.06,0,.01,0,.03,0,.04l-.02,.07Z"/>
          <path class="cls-22" d="M47.59,50.43s-.02,.05-.02,.08c0,.04,.02,.06,.05,.07,.04,.02,.12,.03,.22,.03,.11,0,.21,0,.32,0,.04,0,.06,.01,.06,.04,0,0,0,.02,0,.02v.04s-.06,.06-.1,.06c-.27-.01-.55-.02-.84-.02s-.56,0-.84,.02c-.03,0-.05-.01-.05-.04v-.06s.05-.06,.1-.06c.11,0,.22,0,.33,0,.11,0,.19-.01,.24-.03,.06-.02,.09-.07,.12-.15l.74-2.56c-.11,.07-.23,.13-.35,.17-.12,.04-.25,.06-.38,.06-.02,0-.03,0-.04-.02,0,0-.01-.01-.01-.02,0,0,0-.01,0-.02v-.05s.06-.06,.1-.06c.21,0,.41-.06,.61-.19,.2-.12,.37-.28,.51-.46,.02-.02,.04-.04,.07-.04h.02s.03,0,.05,.02c0,0,0,.01,0,.02,0,0,0,.01,0,.02l-.89,3.12Z"/>
          <path class="cls-22" d="M52.13,50.06c-.03,.09-.06,.18-.1,.27-.04,.09-.1,.18-.16,.25-.07,.08-.14,.14-.22,.19-.08,.05-.17,.07-.28,.07-.09,0-.17-.02-.23-.05-.06-.03-.11-.08-.15-.13-.03-.06-.05-.12-.06-.2v-.02c0-.07,.02-.14,.05-.21,.06-.15,.12-.29,.18-.43,.06-.14,.11-.29,.15-.43,.03-.1,.05-.19,.06-.28,0-.03,0-.05,0-.09,0-.06,0-.11-.02-.16-.04-.11-.12-.17-.24-.17-.2,0-.37,.06-.51,.18-.14,.12-.27,.28-.38,.48l-.39,1.34c-.02,.05-.05,.1-.09,.12-.05,.03-.09,.04-.14,.04s-.08-.01-.11-.04c-.02-.02-.03-.04-.03-.07,0-.01,0-.03,0-.05l.44-1.52c.03-.11,.05-.2,.05-.28v-.06c-.01-.09-.07-.14-.16-.14s-.17,.06-.23,.19c-.06,.13-.12,.29-.17,.48-.02,.03-.04,.05-.08,.05h-.07s-.04-.01-.04-.04h0c.02-.09,.05-.17,.08-.26,.03-.09,.06-.18,.11-.26,.05-.08,.1-.15,.17-.2,.07-.05,.15-.08,.25-.08,.15,0,.26,.04,.35,.12s.13,.18,.14,.29c.11-.13,.23-.22,.37-.3,.14-.07,.3-.11,.48-.11,.11,0,.21,.02,.3,.05,.09,.04,.16,.09,.21,.17,.06,.08,.08,.17,.08,.27h0c0,.12-.02,.22-.05,.32-.04,.15-.09,.29-.15,.44-.06,.14-.12,.29-.18,.44-.06,.13-.09,.25-.09,.34s.04,.14,.13,.14c.07,0,.13-.02,.19-.05,.06-.04,.11-.09,.15-.15s.08-.13,.12-.21,.06-.17,.09-.26c.01-.03,.04-.05,.07-.05h.07s.04,.01,.04,.03v.02Z"/>
          <path class="cls-22" d="M63.28,44.21l-1.73,2.95h1.93l-.2-2.95Zm1.82,5.19c-.02,.07-.07,.1-.13,.1-.3-.02-.6-.03-.9-.03h-.15c-.35,0-.71,.01-1.06,.03-.05,0-.08-.02-.09-.07v-.03l.02-.07c.02-.07,.06-.11,.13-.11,.11,0,.21,0,.31-.01,.09,0,.18-.04,.27-.08,.04-.02,.07-.04,.09-.08,.02-.03,.03-.06,.03-.09v-.03l-.11-1.5h-2.12l-.73,1.25c-.04,.08-.06,.15-.06,.22,0,.06,.02,.11,.05,.16,.08,.11,.21,.16,.41,.16,.06,0,.08,.02,.09,.06,0,.01,0,.03,0,.04l-.02,.07c-.02,.07-.07,.1-.13,.1-.28-.01-.55-.02-.82-.03h-.12c-.24,0-.47,0-.72,.03-.03,0-.05,0-.06-.03-.01-.01-.02-.02-.02-.04s0-.02,0-.04l.02-.07c.02-.07,.06-.11,.13-.11,.1,0,.2-.01,.3-.03s.19-.06,.28-.11c.09-.06,.17-.12,.24-.2,.07-.08,.14-.17,.19-.26l3.2-5.47c.04-.07,.1-.1,.17-.1h.09c.07,0,.11,.03,.12,.1l.4,5.73c0,.08,.02,.14,.03,.19,.01,.05,.04,.08,.08,.11,.05,.03,.12,.05,.23,.05,.1,0,.22,0,.34,0,.05,0,.08,.02,.08,.06,0,.01,0,.03-.01,.04l-.02,.07Z"/>
          <path class="cls-22" d="M68.12,48.45c-.03,.13-.11,.26-.22,.37-.11,.11-.24,.22-.38,.32-.15,.1-.3,.19-.46,.28-.17,.09-.32,.17-.47,.24-.19,.09-.35,.2-.5,.32-.15,.13-.27,.27-.38,.42,.04-.02,.09-.02,.15-.02,.1,0,.21,0,.3,.03,.1,.02,.2,.04,.3,.05,.1,.02,.2,.04,.29,.05,.1,.02,.2,.03,.3,.03,.08,0,.15-.02,.23-.05,.07-.03,.14-.08,.21-.14,.07-.06,.12-.12,.17-.2,.05-.08,.08-.15,.1-.23,0-.03,.03-.05,.08-.05h.07s.03,0,.05,0c0,0,0,.01,0,.02,0,0,0,0,0,.01-.03,.12-.08,.24-.14,.35-.06,.12-.13,.22-.22,.32-.09,.1-.18,.17-.29,.23-.11,.06-.23,.09-.35,.09-.12,0-.23-.02-.32-.06-.09-.04-.18-.09-.26-.14-.08-.05-.17-.09-.25-.14-.09-.04-.18-.07-.3-.07-.07,0-.13,.03-.19,.1-.06,.07-.1,.15-.13,.26,0,.03-.03,.04-.08,.04h-.06s-.03,0-.04-.01c0,0-.01,0-.01-.01,0,0,0,0,0-.02,.08-.27,.22-.52,.43-.75,.21-.23,.46-.43,.77-.57,.27-.13,.51-.28,.72-.47,.21-.18,.35-.39,.42-.61,.04-.14,.07-.27,.09-.41v-.08c0-.1-.02-.19-.05-.28-.04-.09-.11-.16-.19-.22-.08-.06-.18-.09-.3-.09-.14,0-.27,.03-.39,.1-.12,.06-.23,.15-.34,.25-.1,.1-.19,.22-.26,.36-.07,.14-.13,.28-.18,.42-.02,.08-.03,.14-.03,.2,0,.03,0,.05,.01,.07,.01,.07,.05,.11,.13,.11,.07,0,.13-.02,.19-.05,.06-.03,.11-.08,.16-.13,.05-.06,.09-.12,.13-.19,.04-.07,.07-.15,.1-.24,0-.03,.01-.06,.01-.09,0-.02,0-.04,0-.06-.01-.05-.03-.1-.07-.14,0,0,0-.01,0-.02,0-.02,0-.03,.03-.04h.02s.04-.03,.05-.03c.02,0,.03,0,.03,.02,.06,.07,.09,.14,.09,.23,0,.05,0,.1-.02,.14-.03,.09-.06,.17-.11,.26-.05,.09-.1,.17-.16,.24-.06,.07-.13,.13-.21,.17-.08,.04-.17,.07-.27,.07-.07,0-.13-.01-.17-.04-.04-.03-.07-.07-.09-.12-.02-.05-.03-.1-.03-.15,0,0,0-.01,0-.02,0-.06,0-.12,.03-.17,.05-.15,.11-.31,.2-.46,.08-.15,.19-.28,.31-.4,.12-.12,.26-.21,.41-.29,.15-.07,.31-.11,.48-.11s.32,.03,.45,.1c.13,.06,.24,.15,.32,.26,.09,.12,.14,.25,.16,.39,0,.05,.01,.09,.01,.13,0,.11-.02,.22-.05,.32Z"/>
          <path class="cls-22" d="M71.24,50.06c-.03,.09-.06,.18-.1,.27-.04,.09-.1,.18-.16,.25-.07,.08-.14,.14-.22,.19-.08,.05-.17,.07-.28,.07-.09,0-.17-.02-.23-.05-.06-.03-.11-.08-.15-.13-.03-.06-.05-.12-.06-.2v-.02c0-.07,.02-.14,.05-.21,.06-.15,.12-.29,.18-.43,.06-.14,.11-.29,.15-.43,.03-.1,.05-.19,.06-.28,0-.03,0-.05,0-.09,0-.06,0-.11-.02-.16-.04-.11-.12-.17-.24-.17-.2,0-.37,.06-.51,.18-.14,.12-.27,.28-.37,.48l-.39,1.34c-.02,.05-.05,.1-.09,.12-.05,.03-.09,.04-.14,.04s-.08-.01-.11-.04c-.02-.02-.03-.04-.03-.07,0-.01,0-.03,0-.05l.44-1.52c.03-.11,.05-.2,.05-.28v-.06c-.01-.09-.07-.14-.16-.14s-.18,.06-.23,.19c-.06,.13-.12,.29-.17,.48-.02,.03-.04,.05-.08,.05h-.07s-.04-.01-.04-.04h0c.02-.09,.05-.17,.08-.26,.03-.09,.06-.18,.11-.26,.05-.08,.1-.15,.17-.2,.07-.05,.15-.08,.25-.08,.15,0,.26,.04,.35,.12,.08,.08,.13,.18,.14,.29,.11-.13,.23-.22,.37-.3,.14-.07,.3-.11,.48-.11,.11,0,.21,.02,.3,.05,.09,.04,.16,.09,.21,.17,.06,.08,.08,.17,.08,.27h0c0,.12-.02,.22-.05,.32-.04,.15-.09,.29-.15,.44-.06,.14-.12,.29-.18,.44-.06,.13-.09,.25-.09,.34s.04,.14,.13,.14c.07,0,.13-.02,.19-.05,.06-.04,.11-.09,.15-.15,.05-.06,.08-.13,.12-.21s.06-.17,.09-.26c.02-.03,.04-.05,.07-.05h.07s.04,.01,.04,.03v.02Z"/>
          <path class="cls-22" d="M95.91,44.21l-1.73,2.95h1.93l-.2-2.95Zm1.82,5.19c-.02,.07-.07,.1-.13,.1-.3-.02-.6-.03-.9-.03h-.15c-.35,0-.71,.01-1.06,.03-.05,0-.08-.02-.09-.07v-.03l.02-.07c.02-.07,.06-.11,.13-.11,.11,0,.21,0,.31-.01,.09,0,.18-.04,.27-.08,.04-.02,.07-.04,.09-.08,.02-.03,.03-.06,.03-.09v-.03l-.11-1.5h-2.12l-.73,1.25c-.04,.08-.06,.15-.06,.22,0,.06,.02,.11,.05,.16,.08,.11,.21,.16,.41,.16,.06,0,.08,.02,.09,.06,0,.01,0,.03-.01,.04l-.02,.07c-.02,.07-.07,.1-.13,.1-.28-.01-.55-.02-.82-.03h-.12c-.24,0-.47,0-.72,.03-.03,0-.05,0-.06-.03-.01-.01-.02-.02-.02-.04s0-.02,0-.04l.02-.07c.02-.07,.06-.11,.13-.11,.1,0,.2-.01,.3-.03,.1-.02,.19-.06,.28-.11,.09-.06,.16-.12,.24-.2,.07-.08,.14-.17,.19-.26l3.2-5.47c.04-.07,.1-.1,.17-.1h.09c.07,0,.11,.03,.12,.1l.4,5.73c0,.08,.02,.14,.03,.19,.01,.05,.04,.08,.08,.11,.05,.03,.12,.05,.23,.05,.1,0,.22,0,.34,0,.05,0,.08,.02,.08,.06,0,.01,0,.03,0,.04l-.02,.07Z"/>
          <path class="cls-22" d="M101.01,50.06c-.03,.09-.06,.18-.1,.27-.04,.09-.1,.18-.16,.25-.07,.08-.14,.14-.22,.19-.08,.05-.17,.07-.28,.07-.09,0-.17-.02-.23-.05-.06-.03-.11-.08-.15-.13-.03-.06-.05-.12-.06-.2v-.02c0-.07,.02-.14,.05-.21,.06-.15,.12-.29,.18-.43,.06-.14,.11-.29,.15-.43,.03-.1,.05-.19,.06-.28,0-.03,0-.05,0-.09,0-.06,0-.11-.02-.16-.04-.11-.12-.17-.24-.17-.2,0-.37,.06-.51,.18-.14,.12-.27,.28-.38,.48l-.39,1.34c-.02,.05-.05,.1-.09,.12-.05,.03-.09,.04-.14,.04s-.08-.01-.11-.04c-.02-.02-.03-.04-.03-.07,0-.01,0-.03,0-.05l.44-1.52c.03-.11,.05-.2,.05-.28v-.06c-.01-.09-.07-.14-.16-.14s-.17,.06-.23,.19c-.06,.13-.12,.29-.17,.48-.02,.03-.04,.05-.08,.05h-.07s-.04-.01-.04-.04h0c.02-.09,.05-.17,.08-.26,.03-.09,.06-.18,.11-.26,.05-.08,.1-.15,.17-.2,.07-.05,.15-.08,.25-.08,.15,0,.26,.04,.35,.12,.08,.08,.13,.18,.14,.29,.11-.13,.23-.22,.37-.3,.14-.07,.3-.11,.48-.11,.11,0,.21,.02,.3,.05,.09,.04,.16,.09,.21,.17,.06,.08,.08,.17,.08,.27h0c0,.12-.02,.22-.05,.32-.04,.15-.09,.29-.15,.44-.06,.14-.12,.29-.18,.44-.06,.13-.09,.25-.09,.34s.04,.14,.13,.14c.07,0,.13-.02,.19-.05,.06-.04,.11-.09,.15-.15,.04-.06,.08-.13,.12-.21s.06-.17,.09-.26c.02-.03,.04-.05,.07-.05h.07s.04,.01,.04,.03v.02Z"/>
          <path class="cls-22" d="M104.23,50.06c-.03,.09-.06,.18-.1,.27-.05,.09-.1,.18-.16,.25-.07,.08-.14,.14-.22,.19-.08,.05-.18,.07-.28,.07-.09,0-.17-.02-.23-.05-.06-.03-.11-.08-.15-.13-.03-.06-.05-.12-.05-.2v-.02c0-.07,.01-.14,.05-.21,.06-.15,.12-.29,.17-.43,.06-.14,.11-.29,.15-.43,.03-.1,.05-.19,.06-.28,0-.03,.01-.05,.01-.09,0-.06-.01-.11-.03-.16-.04-.11-.12-.17-.24-.17-.2,0-.37,.06-.52,.18-.14,.12-.26,.28-.37,.48l-.39,1.34c-.02,.05-.05,.1-.09,.12-.05,.03-.1,.04-.14,.04-.05,0-.09-.01-.12-.04-.01-.02-.02-.04-.02-.07v-.05l.44-1.52c.03-.11,.04-.2,.04-.28v-.06c-.01-.09-.06-.14-.16-.14-.09,0-.17,.06-.23,.19-.06,.13-.11,.29-.17,.48-.02,.03-.04,.05-.08,.05h-.07s-.04-.01-.04-.04h0c.02-.09,.05-.17,.08-.26,.03-.09,.07-.18,.11-.26,.04-.08,.1-.15,.17-.2,.07-.05,.15-.08,.25-.08,.15,0,.26,.04,.35,.12,.08,.08,.13,.18,.13,.29,.11-.13,.23-.22,.37-.3,.14-.07,.3-.11,.48-.11,.11,0,.21,.02,.3,.05,.09,.04,.16,.09,.21,.17,.06,.08,.09,.17,.09,.27h0c-.01,.12-.03,.22-.06,.32-.04,.15-.09,.29-.14,.44-.06,.14-.12,.29-.18,.44-.06,.13-.09,.25-.09,.34s.04,.14,.13,.14c.07,0,.14-.02,.19-.05,.06-.04,.11-.09,.16-.15,.04-.06,.08-.13,.11-.21,.04-.08,.07-.17,.09-.26,.02-.03,.04-.05,.07-.05h.07s.04,.01,.04,.03v.02Z"/>
          <line class="cls-6" x1="55.63" y1="5.26" x2="55.63" y2="50.93"/>
          <line class="cls-6" x1="74.74" y1="5.26" x2="74.74" y2="50.93"/>
          <line class="cls-6" x1="88.26" y1="5.26" x2="88.26" y2="50.93"/>
          <polyline class="cls-9" points="38.56 5.42 35.67 5.42 35.67 50.77 38.56 50.77"/>
          <polyline class="cls-9" points="105.9 50.77 108.8 50.77 108.8 5.42 105.9 5.42"/>
        </g>
      </g>
    </g>
  </g>
</svg>