<?xml version="1.0" encoding="UTF-8"?>
<svg id="_图层_1" data-name="图层 1" xmlns="http://www.w3.org/2000/svg" xmlns:xlink="http://www.w3.org/1999/xlink" viewBox="0 0 147 151.22">
  <defs>
    <style>
      .cls-1 {
        fill: #fff;
      }

      .cls-2, .cls-3, .cls-4, .cls-5, .cls-6, .cls-7 {
        fill: none;
      }

      .cls-2, .cls-3, .cls-4, .cls-5, .cls-7 {
        stroke-linecap: round;
        stroke-miterlimit: 10;
      }

      .cls-2, .cls-4 {
        stroke-width: .36px;
      }

      .cls-2, .cls-5, .cls-7 {
        stroke: #000;
      }

      .cls-3, .cls-4 {
        stroke: #a01f24;
      }

      .cls-3, .cls-7 {
        stroke-width: .2px;
      }

      .cls-8 {
        clip-path: url(#clippath-2);
      }

      .cls-9 {
        fill: #147c3b;
      }

      .cls-9, .cls-10, .cls-11 {
        fill-rule: evenodd;
      }

      .cls-12 {
        clip-path: url(#clippath-1);
      }

      .cls-5 {
        stroke-width: .43px;
      }

      .cls-13 {
        clip-path: url(#clippath);
      }

      .cls-14 {
        clip-path: url(#clippath-3);
      }

      .cls-10 {
        fill: #a01f24;
      }
    </style>
    <clipPath id="clippath">
      <rect class="cls-6" x="-191.33" y="-314.11" width="540" height="780"/>
    </clipPath>
    <clipPath id="clippath-1">
      <rect class="cls-6" x="-191.33" y="-314.11" width="540" height="780"/>
    </clipPath>
    <clipPath id="clippath-2">
      <rect class="cls-6" x="6.67" y="-.55" width="144" height="153"/>
    </clipPath>
    <clipPath id="clippath-3">
      <rect class="cls-6" x="6.67" y="-.55" width="144" height="153"/>
    </clipPath>
  </defs>
  <g class="cls-13">
    <g class="cls-12">
      <rect class="cls-1" x="-191.33" y="-314.11" width="540" height="780"/>
    </g>
    <g class="cls-8">
      <g class="cls-14">
        <path class="cls-11" d="M9.37,7.95h-1.65v1.03h1.65v-1.03Zm-1.65,2.58h1.65v-1.04h-1.65v1.04Zm3.25-.3h.95c.11-.64,.17-1.36,.17-2.18h-1.75v-.53h3.77v.53h-1.44c-.01,.82-.07,1.54-.17,2.18h1.74v.52h-1.84c-.03,.13-.06,.25-.09,.37h.46v2.14c0,.23,.1,.34,.28,.34h.27c.22,0,.35-.09,.38-.28,.04-.23,.07-.54,.09-.91,.16,.07,.35,.14,.57,.22-.04,.37-.08,.66-.13,.89-.08,.42-.35,.63-.81,.63h-.55c-.46,0-.69-.26-.69-.79v-1.82c-.43,1.24-1.15,2.19-2.18,2.84-.13-.15-.28-.31-.47-.47,1.18-.77,1.94-1.82,2.27-3.16h-1.45v-.51c.14-.52,.24-1.1,.3-1.74l.59,.08c-.08,.56-.17,1.11-.29,1.65Zm-1.82,1.21c.41,.51,.78,1.02,1.12,1.54l-.5,.33c-.09-.15-.19-.3-.29-.47-.59,.26-1.15,.51-1.67,.77-.16,.08-.32,.19-.47,.32l-.42-.5c.17-.16,.25-.34,.24-.56V7.44h2.79v3.87h-.57v-.27h-1.65v1.95c.43-.17,.91-.38,1.44-.62-.14-.21-.3-.43-.47-.65l.46-.28Z"/>
        <path class="cls-11" d="M20.48,7.49l.36-.33c.36,.31,.69,.6,1,.86l-.41,.39c-.27-.28-.59-.59-.95-.92Zm-1.76,5.26l.51-.21c.27,.44,.52,.89,.75,1.36l-.55,.24c-.23-.5-.46-.96-.7-1.39Zm-1.92,.06l.51-.23c.24,.43,.49,.89,.73,1.39l-.57,.24c-.18-.44-.41-.91-.67-1.4Zm-1.28-.33l.55,.2c-.19,.46-.47,1.01-.83,1.63-.17-.07-.36-.15-.55-.23,.38-.61,.66-1.15,.83-1.6Zm5.08,.13l.49-.28c.39,.56,.72,1.07,.99,1.51l-.55,.32c-.27-.46-.58-.98-.94-1.55Zm-2.3-3.86h1.24c.02-.5,.02-1.07,.02-1.72h.58c0,.67,0,1.25-.02,1.72h1.92v.54h-1.83c.29,1.16,.96,1.99,2.01,2.5-.16,.17-.32,.35-.48,.52-.9-.53-1.51-1.31-1.85-2.37-.28,.97-.99,1.78-2.15,2.45-.1-.15-.23-.32-.38-.5,1.25-.67,1.96-1.54,2.14-2.6h-1.19v-.54Zm-3.87,1.2c.76-.89,1.32-1.89,1.69-2.99l.58,.18c-.08,.2-.16,.4-.24,.59h1.83v.54c-.35,1.89-1.42,3.32-3.21,4.27-.11-.13-.26-.27-.43-.44,.7-.37,1.28-.79,1.72-1.27-.33-.25-.66-.48-.98-.69l.27-.39c.36,.21,.71,.44,1.05,.69,.14-.2,.27-.38,.37-.56-.33-.24-.68-.46-1.05-.66l.25-.4c.36,.19,.71,.39,1.03,.59,.17-.37,.29-.75,.36-1.15h-1.48c-.38,.75-.83,1.46-1.35,2.12-.12-.13-.26-.27-.42-.43Z"/>
        <path class="cls-11" d="M30.9,7.49l-1.72,2.95h1.93l-.2-2.95Zm1.81,5.19c-.02,.07-.07,.1-.13,.1-.3-.02-.6-.03-.9-.03h-.15c-.35,.01-.71,.02-1.06,.03-.05,0-.08-.02-.09-.07v-.03l.02-.07c.02-.07,.06-.11,.13-.11,.11,0,.21,0,.31-.01,.09,0,.18-.03,.27-.08,.04-.02,.07-.04,.09-.08,.02-.03,.03-.06,.03-.09v-.03l-.11-1.5h-2.11l-.73,1.25c-.04,.08-.06,.15-.06,.22,0,.06,.02,.11,.05,.16,.08,.11,.21,.16,.41,.16,.05,0,.08,.03,.09,.07,0,.01,0,.02,0,.04l-.02,.07c-.02,.07-.07,.1-.13,.1-.28-.01-.55-.02-.82-.03h-.12c-.24,0-.47,.01-.71,.03-.03,0-.05-.01-.06-.03-.01-.01-.02-.02-.02-.03s0-.03,0-.04l.02-.07c.02-.07,.06-.11,.13-.11,.1,0,.2-.01,.3-.03,.1-.02,.19-.06,.28-.11,.09-.06,.16-.12,.24-.2,.07-.08,.14-.17,.19-.26l3.2-5.47c.04-.07,.1-.1,.17-.1h.09c.07,0,.11,.03,.12,.1l.4,5.72c0,.08,.02,.15,.03,.19,.01,.05,.04,.08,.08,.11,.05,.03,.12,.04,.23,.05h.34c.05,0,.08,.03,.08,.07,0,.01,0,.02,0,.04l-.02,.07Z"/>
        <path class="cls-11" d="M37.6,10.12c0,.31-.25,.56-.55,.56s-.55-.25-.55-.56,.25-.55,.55-.55,.55,.25,.55,.55Z"/>
        <path class="cls-11" d="M44.71,7.49l-1.72,2.95h1.93l-.2-2.95Zm1.81,5.19c-.02,.07-.07,.1-.13,.1-.3-.02-.6-.03-.9-.03h-.15c-.35,.01-.71,.02-1.06,.03-.05,0-.08-.02-.09-.07v-.03l.02-.07c.02-.07,.06-.11,.13-.11,.11,0,.21,0,.31-.01,.09,0,.18-.03,.27-.08,.04-.02,.07-.04,.09-.08,.02-.03,.03-.06,.03-.09v-.03l-.11-1.5h-2.11l-.73,1.25c-.04,.08-.06,.15-.06,.22,0,.06,.02,.11,.05,.16,.08,.11,.21,.16,.41,.16,.05,0,.08,.03,.09,.07,0,.01,0,.02,0,.04l-.02,.07c-.03,.07-.07,.1-.13,.1-.28-.01-.55-.02-.82-.03h-.12c-.23,0-.47,.01-.71,.03-.03,0-.05-.01-.06-.03-.01-.01-.02-.02-.02-.03s0-.03,0-.04l.02-.07c.02-.07,.06-.11,.13-.11,.1,0,.2-.01,.3-.03,.1-.02,.19-.06,.28-.11,.09-.06,.16-.12,.23-.2,.07-.08,.14-.17,.19-.26l3.2-5.47c.04-.07,.1-.1,.17-.1h.09c.07,0,.11,.03,.12,.1l.4,5.72c0,.08,.02,.15,.03,.19,.01,.05,.04,.08,.08,.11,.05,.03,.12,.04,.23,.05h.34c.06,0,.08,.03,.08,.07,0,.01,0,.02,0,.04l-.02,.07Z"/>
        <path class="cls-11" d="M49.4,5.93s.01,.03,.01,.05c0,.01,0,.03-.01,.04-.02,.04-.05,.07-.09,.09l-.9,.36,.7,.37s.04,.03,.04,.06h0c0,.05-.02,.08-.05,.11s-.07,.05-.11,.06h-.04s-.05-.01-.07-.02l-.56-.47-.16,.84s-.03,.07-.07,.1c-.04,.03-.08,.04-.12,.04s-.08-.02-.1-.04c-.01-.02-.02-.03-.02-.05s0-.03,.01-.05l.33-.84-.83,.47s-.05,.02-.08,.02h-.03s-.06-.03-.08-.06c0,0-.01-.02-.01-.04s0-.04,.02-.06c.02-.03,.05-.06,.09-.07l.9-.37-.69-.36s-.04-.04-.04-.08c0,0,0,0,0-.01,0-.03,.01-.06,.05-.09,.03-.03,.07-.05,.11-.06,.01,0,.02-.01,.03-.01,.03,0,.06,.01,.08,.03l.56,.47,.16-.85s.03-.07,.07-.09c.04-.02,.08-.04,.12-.04s.08,.02,.1,.04c.01,.01,.02,.03,.02,.05,0,.01,0,.03-.01,.04l-.32,.85,.83-.47s.06-.03,.09-.03c0,0,.02,.01,.03,.01,.03,0,.06,.03,.07,.06Z"/>
        <line class="cls-2" x1="52.15" y1="9.18" x2="58.45" y2="9.18"/>
        <line class="cls-2" x1="52.15" y1="11.07" x2="58.45" y2="11.07"/>
        <path class="cls-11" d="M61.43,14.85c0,.05-.02,.09-.06,.13-.04,.03-.08,.05-.13,.05s-.09-.02-.13-.05c-.04-.04-.06-.08-.06-.13V6.21c0-.05,.02-.09,.05-.12,.04-.04,.08-.06,.13-.06s.09,.02,.13,.06c.04,.03,.06,.07,.06,.12V14.85Z"/>
        <path class="cls-11" d="M67.42,7.49l-1.72,2.95h1.93l-.2-2.95Zm1.81,5.19c-.02,.07-.07,.1-.13,.1-.3-.02-.6-.03-.9-.03h-.15c-.35,.01-.71,.02-1.06,.03-.05,0-.08-.02-.09-.07v-.03l.02-.07c.02-.07,.06-.11,.13-.11,.11,0,.21,0,.3-.01,.09,0,.18-.03,.27-.08,.04-.02,.07-.04,.09-.08,.02-.03,.03-.06,.03-.09v-.03l-.11-1.5h-2.11l-.73,1.25c-.04,.08-.06,.15-.06,.22,0,.06,.02,.11,.05,.16,.08,.11,.21,.16,.41,.16,.05,0,.08,.03,.09,.07,0,.01,0,.02,0,.04l-.02,.07c-.02,.07-.07,.1-.13,.1-.28-.01-.55-.02-.82-.03h-.12c-.24,0-.47,.01-.71,.03-.03,0-.05-.01-.06-.03-.01-.01-.02-.02-.02-.03s0-.03,0-.04l.02-.07c.02-.07,.06-.11,.13-.11,.1,0,.2-.01,.3-.03,.1-.02,.19-.06,.28-.11,.09-.06,.16-.12,.23-.2,.07-.08,.14-.17,.19-.26l3.2-5.47c.04-.07,.1-.1,.17-.1h.09c.07,0,.11,.03,.12,.1l.4,5.72c0,.08,.02,.15,.03,.19,.01,.05,.04,.08,.08,.11,.05,.03,.12,.04,.23,.05h.34c.05,0,.08,.03,.08,.07,0,.01,0,.02,0,.04l-.02,.07Z"/>
        <path class="cls-11" d="M70.74,14.85c0,.05-.02,.09-.06,.13-.04,.03-.08,.05-.13,.05s-.09-.02-.13-.05c-.04-.04-.06-.08-.06-.13V6.21c0-.05,.02-.09,.05-.12,.04-.04,.08-.06,.13-.06s.09,.02,.13,.06c.04,.03,.06,.07,.06,.12V14.85Z"/>
        <path class="cls-11" d="M78.45,8.57s-.02,.06-.04,.08c-.02,.02-.05,.03-.08,.03-.01,0-.02,0-.04,0,0,0,0,0,0,0h-.04s-.07-.02-.08-.06v-.02c.02-.14,.03-.28,.05-.42,.01-.11,.02-.21,.02-.3v-.08c0-.12-.02-.23-.05-.33-.02-.09-.07-.18-.13-.24-.12-.15-.3-.23-.53-.26-.23-.02-.48-.04-.74-.04h-.97c-.17,0-.27,.02-.31,.05-.02,.01-.06,.11-.11,.28l-.57,2.2h.68c.17,0,.33-.01,.47-.02,.14-.02,.27-.06,.37-.14,.1-.08,.17-.19,.22-.33,.05-.13,.1-.29,.14-.46,.02-.06,.07-.1,.13-.09h.08c.05,0,.08,.02,.08,.07v.02l-.57,2.17c-.01,.07-.06,.1-.13,.1h-.07c-.05,0-.08-.02-.08-.06,0-.01,0-.02,0-.04,.04-.16,.07-.32,.09-.46,0-.03,0-.06,0-.09,0-.09-.02-.17-.06-.23-.06-.08-.16-.12-.3-.14-.14,0-.29-.02-.46-.02h-.69l-.63,2.44c-.03,.11-.04,.19-.04,.24,0,.02,0,.03,0,.04,.02,.03,.12,.04,.29,.04h1.04c.27,0,.53-.01,.79-.05,.26-.04,.5-.13,.72-.29,.1-.07,.19-.17,.28-.29,.09-.12,.17-.25,.25-.39,.08-.15,.15-.3,.23-.46,.07-.16,.14-.32,.21-.47,.02-.05,.06-.08,.12-.08h.08c.05,0,.08,.02,.08,.07v.03l-.9,2.13s-.07,.08-.12,.08h-4.71s-.05-.01-.07-.03c-.01-.01-.02-.02-.02-.03s0-.03,0-.04l.02-.07s.02-.05,.05-.07c.03-.03,.05-.04,.08-.04h.4c.13-.01,.22-.02,.29-.05,.07-.04,.12-.13,.15-.27l1.27-4.92c.02-.07,.03-.12,.03-.17s-.02-.08-.05-.1c-.05-.03-.14-.04-.26-.05-.13,0-.26,0-.41,0-.05,0-.08-.02-.08-.07v-.03l.02-.07c.02-.07,.06-.11,.13-.11h4.58s.07,.02,.08,.07v.02l-.23,1.83Z"/>
        <path class="cls-11" d="M10.53,49.92c-.51-.51-1.06-1.02-1.65-1.53-.34,.77-.96,1.38-1.85,1.84-.11-.16-.24-.32-.38-.5,1.02-.49,1.64-1.18,1.85-2.04,.13-.42,.2-1.53,.19-3.34h.59c0,1.82-.06,2.99-.21,3.49,.61,.47,1.26,1,1.95,1.61l-.48,.47Zm-3.3-6.65h3.42v4.82h-.59v-4.29h-2.24v4.29h-.59v-4.82Zm5.02,4.95h-.6v-4.6h.6v4.6Zm.98-5.27h.62v6.21c0,.61-.31,.91-.92,.92-.28,0-.68,0-1.2,0-.03-.17-.07-.4-.12-.67,.52,.05,.9,.07,1.12,.07,.34,.01,.51-.15,.51-.48v-6.04Z"/>
        <path class="cls-11" d="M41.54,43.32l-1.72,2.95h1.93l-.2-2.95Zm1.81,5.19c-.03,.07-.07,.1-.13,.1-.3-.02-.6-.03-.9-.03h-.15c-.35,.01-.71,.02-1.06,.03-.05,0-.08-.02-.09-.07v-.03l.02-.07c.02-.07,.06-.11,.13-.11,.11,0,.21,0,.31-.01,.09,0,.18-.03,.27-.08,.04-.02,.07-.04,.09-.08,.02-.03,.03-.06,.03-.09v-.03l-.11-1.5h-2.11l-.73,1.25c-.04,.08-.06,.15-.06,.22,0,.06,.02,.11,.05,.16,.08,.11,.21,.16,.41,.16,.05,0,.08,.02,.09,.07,0,.01,0,.02,0,.04l-.02,.07c-.02,.07-.07,.1-.13,.1-.28-.01-.55-.02-.82-.03h-.12c-.24,0-.47,.01-.71,.03-.03,0-.05-.01-.06-.03-.01-.01-.02-.02-.02-.03s0-.03,.01-.04l.02-.07c.02-.07,.06-.11,.13-.11,.1,0,.2-.01,.3-.03,.1-.02,.19-.06,.28-.11,.09-.06,.16-.12,.24-.2s.13-.17,.19-.26l3.2-5.47c.04-.07,.1-.1,.17-.1h.09c.07,0,.11,.03,.12,.1l.4,5.72c0,.08,.02,.14,.03,.19,.01,.05,.04,.08,.08,.11,.05,.03,.12,.04,.23,.05h.34c.06,0,.08,.02,.08,.07,0,.01,0,.02,0,.04l-.02,.07Z"/>
        <path class="cls-11" d="M47.56,45.95c0,.31-.25,.56-.55,.56s-.55-.25-.55-.56,.25-.55,.55-.55,.55,.25,.55,.55Z"/>
        <path class="cls-11" d="M54.66,43.32l-1.72,2.95h1.93l-.2-2.95Zm1.81,5.19c-.02,.07-.07,.1-.13,.1-.3-.02-.6-.03-.9-.03h-.15c-.35,.01-.71,.02-1.06,.03-.05,0-.08-.02-.09-.07v-.03l.02-.07c.02-.07,.06-.11,.13-.11,.11,0,.21,0,.3-.01,.09,0,.18-.03,.27-.08,.04-.02,.07-.04,.09-.08,.02-.03,.03-.06,.03-.09v-.03l-.11-1.5h-2.11l-.73,1.25c-.04,.08-.06,.15-.06,.22,0,.06,.02,.11,.05,.16,.08,.11,.21,.16,.41,.16,.05,0,.08,.02,.09,.07,0,.01,0,.02,0,.04l-.02,.07c-.02,.07-.07,.1-.13,.1-.28-.01-.55-.02-.82-.03h-.12c-.24,0-.47,.01-.72,.03-.03,0-.05-.01-.06-.03-.01-.01-.02-.02-.02-.03s0-.03,0-.04l.02-.07c.02-.07,.06-.11,.13-.11,.1,0,.2-.01,.3-.03,.1-.02,.19-.06,.28-.11,.09-.06,.16-.12,.24-.2s.13-.17,.19-.26l3.19-5.47c.04-.07,.1-.1,.17-.1h.09c.07,0,.11,.03,.12,.1l.4,5.72c0,.08,.02,.14,.03,.19,.01,.05,.04,.08,.08,.11,.05,.03,.12,.04,.23,.05h.34c.05,0,.08,.02,.08,.07,0,.01,0,.02,0,.04l-.02,.07Z"/>
        <path class="cls-11" d="M59.36,41.76s.01,.03,.01,.04c0,.02,0,.04-.01,.05-.02,.04-.05,.07-.09,.09l-.9,.36,.7,.37s.04,.03,.04,.06h0c0,.05-.02,.08-.05,.11-.03,.03-.07,.05-.11,.06h-.04s-.05-.01-.07-.02l-.56-.47-.16,.84s-.03,.07-.07,.1c-.04,.02-.08,.04-.12,.04s-.08-.02-.1-.04c-.01-.02-.02-.03-.02-.05s0-.03,.01-.05l.33-.84-.83,.47s-.05,.02-.08,.02h-.03s-.06-.03-.08-.06c0-.01-.01-.02-.01-.04s0-.04,.02-.06c.02-.03,.05-.06,.09-.07l.9-.37-.69-.36s-.04-.04-.04-.08c0,0,0,0,0-.01,0-.03,.02-.06,.05-.09s.07-.05,.11-.06c.01,0,.02,0,.03,0,.03,0,.06,0,.08,.03l.56,.47,.16-.85s.03-.07,.07-.09c.04-.02,.08-.04,.12-.04s.08,.02,.1,.04c.02,.01,.02,.03,.02,.05,0,.01,0,.03-.01,.04l-.32,.85,.83-.47s.06-.03,.09-.03c0,0,.02,0,.03,0,.03,.01,.06,.03,.07,.06Z"/>
        <line class="cls-5" x1="35.72" y1="41.89" x2="35.72" y2="50.02"/>
        <line class="cls-5" x1="62.08" y1="50.02" x2="62.08" y2="41.89"/>
        <path class="cls-11" d="M35.57,51.94c.34,.94,1.23,1.56,2.22,1.56h9.01c.88,0,1.66,.55,1.97,1.38h.25c.3-.83,1.09-1.38,1.97-1.38h9.01c.99,0,1.88-.62,2.22-1.56l-.05-.19c-.34,.74-1.08,1.21-1.9,1.21h-9.28c-.88,0-1.67,.55-1.97,1.38h-.25c-.3-.83-1.09-1.38-1.97-1.38h-9.28c-.81,0-1.55-.47-1.9-1.21"/>
        <path class="cls-11" d="M23.19,57.96v-.58h-1.67v.58h1.67Zm0-1.44h-1.67v.58h1.67v-.58Zm-4.05,2.16c.3-.42,.54-.92,.71-1.49h-.67v-.28h.69v-.84h.35v.84h.68v.28h-.68v.54l.14-.11c.2,.17,.41,.37,.64,.59l-.26,.21c-.2-.22-.38-.39-.53-.54v2.28h-.35v-2.28c-.18,.48-.37,.87-.58,1.16-.04-.12-.1-.24-.15-.37Zm2.02-2.44h2.38v2.11h-.35v-.09h-.9c.1,.25,.23,.48,.39,.68,.33-.17,.64-.34,.92-.52l.24,.26c-.32,.17-.63,.33-.96,.48,.29,.28,.65,.5,1.08,.66-.11,.09-.21,.19-.3,.29-.85-.42-1.42-1.04-1.71-1.85h-.41v1.38c.22-.08,.5-.19,.84-.34,0,.13,.01,.24,.03,.33-.3,.12-.59,.24-.85,.38-.12,.06-.21,.12-.28,.18l-.26-.29c.11-.08,.16-.21,.16-.38v-3.28Z"/>
        <path class="cls-11" d="M28.22,58.97h-1.65v.62h1.65v-.62Zm.03-2.42h-2.15v.53h2.15v-.53Zm-4.19,1.72c.23-.05,.45-.11,.67-.17v-.96h-.61v-.3h.61v-.8h.36v.8h.53v.3h-.53v.86c.15-.04,.3-.08,.45-.13,0,.13,.01,.23,.03,.33-.16,.05-.32,.09-.48,.14v1.27c0,.32-.16,.48-.48,.48-.1,0-.25,0-.44,0-.01-.11-.03-.23-.06-.35,.18,.02,.31,.03,.4,.03,.14,0,.22-.07,.22-.21v-1.11c-.22,.07-.43,.13-.62,.19l-.05-.36Zm2.16,.42h.99v-.53h-1.12c-.04,.86-.26,1.52-.68,1.99-.08-.09-.16-.17-.26-.26,.4-.43,.6-1.09,.6-1.98v-1.63h2.85v1.21h-.35v-.13h-2.15v.52h1.12v-.44h.35v.44h1.27v.29h-1.27v.53h1v1.41h-.35v-.24h-1.65v.24h-.35v-1.41Z"/>
        <path class="cls-11" d="M28.95,58.01c.72-.51,1.25-1.11,1.61-1.8l.38,.14c-.43,.78-.99,1.43-1.68,1.93-.08-.09-.19-.18-.31-.27Zm2.73-1.73l.36-.12c.31,.73,.89,1.31,1.74,1.73-.09,.08-.19,.19-.3,.33-.89-.53-1.49-1.18-1.8-1.94Zm.41,2.25c.46,.52,.85,1,1.17,1.42l-.37,.21c-.09-.13-.18-.26-.29-.4-1.06,.04-1.92,.09-2.59,.14-.12,.01-.27,.04-.44,.07l-.21-.36c.14-.05,.28-.13,.4-.23,.38-.38,.78-.93,1.23-1.67l.41,.16c-.4,.59-.82,1.15-1.28,1.67,.66-.02,1.42-.04,2.26-.08-.18-.24-.38-.5-.6-.76l.31-.17Z"/>
        <path class="cls-11" d="M37.31,56.26l.23-.21c.23,.14,.47,.31,.7,.49l-.27,.25c-.21-.18-.43-.36-.66-.53Zm-3.42,3.23c.36-.04,.74-.08,1.12-.12v-1.17h-.94v-.31h2.27v.31h-.93v1.13c.38-.05,.76-.09,1.15-.15,0,.11,0,.22,0,.34-.97,.12-1.82,.23-2.56,.33l-.1-.35Zm-.02-2.65h2.68c-.01-.26-.02-.53-.03-.82h.41c0,.28,0,.55,.01,.82h1.66v.31h-1.64c.06,1.41,.33,2.26,.81,2.56,.17,.12,.29,.09,.37-.1,.05-.15,.09-.36,.13-.64,.15,.05,.28,.08,.39,.11-.06,.33-.13,.59-.2,.79-.08,.19-.23,.29-.44,.29s-.44-.1-.66-.29c-.46-.42-.72-1.33-.79-2.71h-2.7v-.31Z"/>
        <path class="cls-11" d="M42,60.44s-.01,.05-.04,.07c-.02,.02-.05,.03-.08,.03s-.06-.01-.08-.03c-.02-.02-.04-.04-.04-.07v-4.84s.01-.05,.03-.07c.02-.02,.05-.03,.08-.03s.06,.01,.08,.03c.02,.02,.04,.04,.04,.07v4.84Z"/>
        <path class="cls-11" d="M45.76,56.32l-1.08,1.65h1.21l-.13-1.65Zm1.14,2.91s-.04,.06-.08,.06c-.19,0-.38-.01-.57-.01h-.09c-.22,0-.44,0-.67,.01-.03,0-.05-.01-.05-.04v-.06s.05-.06,.09-.06c.07,0,.13,0,.19,0,.06,0,.11-.02,.17-.05,.02-.01,.04-.03,.06-.04,.01-.02,.02-.03,.02-.05v-.02l-.07-.84h-1.33l-.46,.7s-.04,.08-.04,.12c0,.03,.01,.06,.03,.09,.05,.06,.13,.09,.25,.09,.03,0,.05,.01,.05,.03,0,0,0,.02,0,.02v.04s-.05,.06-.09,.06c-.17,0-.35-.01-.52-.01h-.08c-.15,0-.3,0-.45,.01-.02,0-.03,0-.04-.01,0,0-.01-.01-.01-.02,0,0,0-.01,0-.02v-.04s.05-.06,.09-.06c.06,0,.12,0,.19-.02,.06-.01,.12-.03,.17-.06,.05-.03,.1-.07,.15-.11,.04-.04,.08-.09,.12-.15l2-3.06s.06-.06,.1-.05h.05s.07,.02,.07,.05l.25,3.21s0,.08,.02,.11c0,.03,.03,.05,.05,.06,.03,.02,.08,.03,.14,.03,.06,0,.13,0,.21,0,.03,0,.05,.01,.05,.03,0,0,0,.02,0,.02v.04Z"/>
        <path class="cls-11" d="M50.3,58.36c.03-.09,.04-.17,.04-.26v-.05c0-.1-.04-.19-.09-.27-.04-.07-.1-.13-.18-.17-.08-.04-.16-.07-.26-.07h-1.04l-.4,1.4c-.01,.06-.02,.1-.02,.13,0,.02,0,.03,0,.03,.01,.01,.07,.02,.17,.02h.76c.11,0,.22-.02,.32-.06,.11-.04,.21-.1,.3-.16,.1-.08,.18-.16,.25-.26,.07-.09,.11-.19,.14-.29Zm.35-1.67c.02-.07,.03-.13,.03-.2v-.06c0-.08-.04-.16-.08-.23-.04-.06-.1-.11-.17-.15s-.15-.06-.24-.06h-.75c-.11,0-.17,0-.19,.02-.03,.02-.05,.07-.07,.16l-.36,1.27h.81c.11,0,.22-.02,.33-.06,.11-.04,.21-.09,.31-.16,.21-.15,.34-.32,.39-.52Zm.52,0c-.03,.12-.09,.22-.19,.32-.09,.1-.2,.19-.32,.26-.1,.06-.19,.1-.3,.14-.1,.03-.2,.06-.3,.08,.12,.01,.24,.04,.34,.08,.1,.04,.19,.1,.27,.17,.08,.08,.14,.17,.17,.28,.01,.05,.02,.11,.02,.16,0,.06,0,.12-.03,.19-.03,.13-.1,.24-.19,.36-.09,.11-.21,.21-.34,.29-.14,.09-.29,.16-.44,.21s-.31,.07-.47,.07h-2.03s-.03,0-.04-.01c0,0-.01-.01-.01-.02,0,0,0-.01,0-.02v-.04s.05-.06,.09-.06c.09,0,.17,0,.25,0,.08,0,.14-.01,.18-.03,.04-.02,.08-.07,.1-.15l.8-2.77s.02-.07,.02-.09c0-.03,0-.05-.03-.06-.03-.02-.09-.03-.16-.03-.08,0-.16,0-.26,0-.02,0-.03,0-.04-.01,0,0-.01-.01-.01-.02,0,0,0-.01,0-.02v-.04s.02-.03,.04-.04c.02-.01,.03-.02,.05-.02h1.88c.15,0,.29,.02,.43,.06,.13,.04,.25,.1,.34,.19,.08,.08,.14,.17,.18,.27,.02,.05,.02,.1,.02,.16,0,.06,0,.12-.03,.18Z"/>
        <path class="cls-11" d="M51.89,60.44s-.01,.05-.04,.07c-.02,.02-.05,.03-.08,.03s-.06-.01-.08-.03c-.02-.02-.04-.04-.04-.07v-4.84s.01-.05,.04-.07c.02-.02,.05-.03,.08-.03,.03,0,.06,.01,.08,.03,.02,.02,.04,.04,.04,.07v4.84Z"/>
        <line class="cls-7" x1="54.2" y1="57.26" x2="57.73" y2="57.26"/>
        <line class="cls-7" x1="54.2" y1="58.32" x2="57.73" y2="58.32"/>
        <path class="cls-11" d="M59.6,60.44s-.01,.05-.04,.07c-.02,.02-.05,.03-.08,.03s-.06-.01-.08-.03c-.02-.02-.04-.04-.04-.07v-4.84s.01-.05,.03-.07c.02-.02,.05-.03,.08-.03s.06,.01,.08,.03c.02,.02,.04,.04,.04,.07v4.84Z"/>
        <path class="cls-11" d="M63.36,56.32l-1.08,1.65h1.21l-.13-1.65Zm1.14,2.91s-.04,.06-.08,.06c-.19,0-.38-.01-.56-.01h-.09c-.22,0-.44,0-.67,.01-.03,0-.05-.01-.05-.04v-.06s.05-.06,.09-.06c.07,0,.13,0,.19,0s.11-.02,.17-.05c.02-.01,.04-.03,.06-.04,.01-.02,.02-.03,.02-.05v-.02l-.07-.84h-1.32l-.46,.7s-.04,.08-.04,.12c0,.03,.01,.06,.03,.09,.05,.06,.13,.09,.26,.09,.03,0,.05,.01,.05,.03,0,0,0,.02,0,.02v.04s-.05,.06-.09,.06c-.17,0-.35-.01-.52-.01h-.08c-.15,0-.3,0-.45,.01-.02,0-.03,0-.04-.01,0,0-.01-.01-.01-.02,0,0,0-.01,0-.02v-.04s.05-.06,.09-.06c.06,0,.12,0,.19-.02,.06-.01,.12-.03,.17-.06,.05-.03,.1-.07,.15-.11,.04-.04,.09-.09,.12-.15l2-3.06s.06-.06,.11-.05h.05s.07,.02,.07,.05l.25,3.21s0,.08,.02,.11c0,.03,.03,.05,.05,.06,.03,.02,.08,.03,.14,.03,.06,0,.14,0,.21,0,.03,0,.05,.01,.05,.03,0,0,0,.02,0,.02v.04Z"/>
        <path class="cls-11" d="M65.44,60.44s-.01,.05-.04,.07c-.02,.02-.05,.03-.08,.03s-.06-.01-.08-.03c-.02-.02-.04-.04-.04-.07v-4.84s.01-.05,.04-.07c.02-.02,.05-.03,.08-.03,.03,0,.06,.01,.08,.03,.02,.02,.04,.04,.04,.07v4.84Z"/>
        <path class="cls-11" d="M68.63,57.79c0,.17-.14,.31-.31,.31s-.31-.14-.31-.31,.14-.31,.31-.31,.31,.14,.31,.31Z"/>
        <path class="cls-11" d="M70.75,60.44s-.01,.05-.04,.07c-.02,.02-.05,.03-.08,.03s-.06-.01-.08-.03c-.02-.02-.04-.04-.04-.07v-4.84s.01-.05,.03-.07c.02-.02,.05-.03,.08-.03s.06,.01,.08,.03c.02,.02,.04,.04,.04,.07v4.84Z"/>
        <path class="cls-11" d="M74.78,58.36c.03-.09,.04-.17,.04-.26v-.05c0-.1-.04-.19-.08-.27-.04-.07-.1-.13-.18-.17-.08-.04-.16-.07-.26-.07h-1.04l-.4,1.4c-.02,.06-.02,.1-.02,.13,0,.02,0,.03,0,.03,.01,.01,.07,.02,.17,.02h.76c.11,0,.22-.02,.32-.06,.11-.04,.21-.1,.3-.16,.1-.08,.18-.16,.25-.26,.06-.09,.11-.19,.14-.29Zm.35-1.67c.02-.07,.03-.13,.03-.2v-.06c0-.08-.03-.16-.08-.23-.04-.06-.1-.11-.17-.15s-.15-.06-.24-.06h-.75c-.11,0-.17,0-.19,.02-.03,.02-.05,.07-.07,.16l-.36,1.27h.81c.11,0,.22-.02,.33-.06,.11-.04,.21-.09,.31-.16,.21-.15,.34-.32,.39-.52Zm.52,0c-.03,.12-.09,.22-.19,.32-.09,.1-.2,.19-.32,.26-.1,.06-.19,.1-.3,.14-.1,.03-.2,.06-.3,.08,.12,.01,.24,.04,.34,.08,.1,.04,.19,.1,.27,.17,.09,.08,.14,.17,.17,.28,.01,.05,.02,.11,.02,.16,0,.06-.01,.12-.03,.19-.03,.13-.1,.24-.19,.36-.09,.11-.21,.21-.34,.29-.14,.09-.29,.16-.44,.21-.16,.05-.31,.07-.47,.07h-2.03s-.03,0-.04-.01c0,0-.01-.01-.01-.02,0,0,0-.01,0-.02v-.04s.05-.06,.09-.06c.09,0,.17,0,.25,0,.08,0,.14-.01,.19-.03,.04-.02,.07-.07,.1-.15l.8-2.77s.02-.07,.02-.09c0-.03-.01-.05-.03-.06-.03-.02-.08-.03-.16-.03-.08,0-.17,0-.26,0-.02,0-.03,0-.04-.01,0,0-.01-.01-.01-.02,0,0,0-.01,0-.02v-.04s.02-.03,.04-.04,.03-.02,.05-.02h1.88c.15,0,.29,.02,.43,.06s.25,.1,.33,.19c.09,.08,.15,.17,.18,.27,.01,.05,.02,.1,.02,.16,0,.06,0,.12-.03,.18Z"/>
        <path class="cls-11" d="M76.37,60.44s-.01,.05-.04,.07c-.02,.02-.05,.03-.08,.03s-.06-.01-.08-.03c-.02-.02-.04-.04-.04-.07v-4.84s.01-.05,.03-.07c.02-.02,.05-.03,.08-.03,.03,0,.06,.01,.08,.03,.02,.02,.04,.04,.04,.07v4.84Z"/>
        <path class="cls-11" d="M78.29,59.27c-.05,.18-.15,.36-.28,.53-.13,.17-.29,.32-.47,.45-.02,0-.03,.01-.05,.01-.01,0-.02,0-.03-.01h0s-.01-.03-.01-.04c0-.02,0-.03,.03-.05,.17-.12,.32-.25,.44-.41,.12-.15,.2-.32,.25-.49l.02-.08s-.07,.05-.11,.06c-.05,.02-.1,.02-.15,.02-.1,0-.17-.03-.2-.09-.02-.03-.03-.07-.03-.11,0-.02,0-.05,.01-.07,.02-.07,.06-.13,.13-.18,.07-.05,.15-.08,.25-.08,.07,0,.12,.02,.16,.05,.04,.03,.06,.08,.08,.13,0,.03,.01,.07,.01,.11v.05c0,.06-.02,.12-.03,.18Z"/>
        <path class="cls-11" d="M20.78,65.73l.27-.15c.18,.21,.34,.4,.46,.57l-.3,.17c-.12-.19-.26-.39-.43-.59Zm1.9-2.29l.23-.22c.25,.16,.5,.32,.74,.49l-.25,.24c-.15-.12-.39-.29-.71-.51Zm-2.97,2.2l.31,.11c-.16,.35-.34,.66-.54,.94-.08-.05-.18-.1-.31-.15,.21-.27,.39-.57,.54-.9Zm1.37-1.13h-1.24v.61h1.24v-.61Zm-1.86-.93h1.19c-.08-.15-.18-.3-.3-.46l.32-.13c.12,.15,.22,.31,.31,.46l-.31,.13h1.25v.28h-2.47v-.28Zm.29,.66h1.91v1.26h-.34v-.1h-.45v1.24c0,.28-.16,.43-.49,.43-.15,0-.29,0-.43,0-.01-.11-.04-.22-.08-.32,.15,.02,.29,.03,.44,.03,.14,0,.21-.06,.21-.19v-1.18h-.45v.1h-.34v-1.26Zm2.04-.02h.5c0-.22,.01-.62,.02-1.19h.35c0,.53-.01,.92-.02,1.19h1.41v.31h-.86v2c0,.13,.06,.2,.18,.2h.16c.14,0,.22-.08,.25-.25,.03-.17,.05-.38,.06-.64,.23,.08,.35,.12,.36,.13-.03,.25-.06,.45-.08,.62-.05,.3-.23,.45-.54,.45h-.32c-.28,0-.41-.15-.41-.44v-2.06h-.21c-.02,1.1-.38,1.99-1.09,2.64-.08-.08-.17-.16-.27-.24,.67-.61,1.01-1.41,1.02-2.4h-.49v-.31Z"/>
        <path class="cls-11" d="M26.36,64.59h-1.37v1.06h1.37v-1.06Zm-2.28-1.23h4.77v.32h-.8v2.83c0,.38-.21,.57-.63,.57-.3,0-.6,0-.88,0-.02-.13-.04-.26-.08-.38,.36,.02,.64,.03,.83,.03,.24,0,.36-.11,.36-.34v-2.72h-3.56v-.32Zm.53,.94h2.13v1.65h-1.75v.3h-.38v-1.95Z"/>
        <path class="cls-11" d="M30.92,63.01c.21,.3,.46,.65,.72,1.06l-.38,.18c-.25-.43-.48-.79-.68-1.09l.34-.16Zm.2,2.41c0,.18,.02,.31,.04,.4-.77,.42-1.25,.69-1.44,.8-.11,.06-.21,.13-.3,.21l-.27-.33c.15-.12,.23-.26,.22-.42v-2.91h.4v2.99c.35-.18,.81-.43,1.36-.73Zm1.5-2.32h.39v.75c0,.77-.11,1.38-.34,1.84,.4,.36,.77,.71,1.13,1.05l-.33,.26c-.33-.35-.66-.69-.99-1.01-.37,.49-.93,.87-1.68,1.15-.07-.09-.16-.18-.26-.29,.81-.32,1.36-.7,1.64-1.13,.3-.42,.45-1.05,.44-1.89v-.75Z"/>
        <path class="cls-11" d="M33.87,65.24c.24-.06,.48-.12,.7-.18v-.9h-.64v-.3h.64v-.82h.36v.82h.59v.3h-.59v.8c.2-.05,.39-.11,.57-.16,0,.08,0,.19,0,.33-.2,.05-.4,.11-.58,.16v1.32c0,.31-.15,.47-.46,.47-.15,0-.31,0-.48,0-.02-.12-.04-.24-.06-.36,.16,.02,.31,.02,.45,.02,.12,0,.18-.07,.18-.21v-1.15c-.23,.07-.45,.13-.66,.2l-.05-.35Zm2.77,0c.23,.09,.46,.18,.69,.28v-.78h-1.16v.41c0,.87-.25,1.53-.74,1.98-.08-.09-.17-.18-.27-.28,.43-.38,.64-.94,.64-1.7v-1.79c.86,0,1.69-.07,2.52-.19l.13,.32c-.76,.08-1.52,.13-2.28,.16v.77h2.4v.3h-.88v.93c.3,.13,.59,.26,.9,.4l-.23,.31c-.23-.12-.45-.23-.67-.33v1.08h-.37v-1.25c-.31-.14-.6-.26-.88-.38l.19-.27Z"/>
        <path class="cls-11" d="M40.46,64.86h1.51v-1.22h-1.51v1.22Zm-1.65,0h1.26v-1.22h-1.05v-.33h4.33v.33h-.98v1.22h1.19v.33h-1.19v1.91h-.4v-1.91h-1.51c-.01,.51-.1,.89-.25,1.14-.16,.27-.52,.55-1.09,.82-.08-.1-.18-.2-.28-.29,.49-.22,.82-.45,.98-.68,.15-.19,.22-.52,.23-.99h-1.26v-.33Z"/>
        <polygon class="cls-11" points="47.55 65.12 47.55 64.96 46.28 64.96 46.28 66.6 47.7 66.6 47.7 65.41 48.1 65.41 48.1 67.07 47.7 67.07 47.7 66.92 44.07 66.92 44.07 65.41 44.48 65.41 44.48 66.6 45.86 66.6 45.86 64.96 44.2 64.96 44.2 63.46 44.61 63.46 44.61 64.65 45.86 64.65 45.86 63.08 46.28 63.08 46.28 64.65 47.55 64.65 47.55 63.46 47.96 63.46 47.96 65.12 47.55 65.12"/>
        <path class="cls-11" d="M49.35,64.22l.28-.2c.24,.2,.46,.42,.68,.65l-.32,.23c-.16-.2-.38-.42-.64-.69Zm2.3,.5c.3-.27,.53-.51,.69-.71l.33,.22c-.24,.25-.49,.48-.74,.7l-.28-.21Zm1.75,1.76c-.11,.12-.2,.22-.27,.32-.84-.33-1.49-.75-1.96-1.26v1.6h-.37v-1.62c-.47,.48-1.13,.92-1.97,1.33-.07-.08-.15-.18-.26-.29,.84-.37,1.54-.79,2.11-1.27h-2.03v-.29h2.15v-1.1h-1.86v-.29h1.86v-.6h.37v.6h1.9v.29h-1.9v1.1h2.15v.29h-2.05c.53,.51,1.24,.91,2.13,1.19Z"/>
        <line class="cls-2" x1="82.54" y1="45.01" x2="88.84" y2="45.01"/>
        <line class="cls-2" x1="82.54" y1="46.9" x2="88.84" y2="46.9"/>
        <path class="cls-11" d="M108.03,50.68c0,.05-.02,.09-.06,.13-.04,.03-.08,.05-.13,.05s-.09-.02-.13-.05c-.04-.04-.05-.08-.05-.13v-8.64c0-.05,.01-.09,.05-.12,.04-.04,.08-.06,.13-.06s.09,.02,.13,.06c.04,.03,.06,.07,.06,.12v8.64Z"/>
        <path class="cls-11" d="M114.02,43.32l-1.72,2.95h1.93l-.21-2.95Zm1.82,5.19c-.03,.07-.07,.1-.13,.1-.3-.02-.6-.03-.9-.03h-.15c-.35,.01-.71,.02-1.06,.03-.06,0-.08-.02-.09-.07v-.03l.02-.07c.02-.07,.06-.11,.13-.11,.11,0,.22,0,.31-.01,.09,0,.18-.03,.27-.08,.03-.02,.06-.04,.09-.08,.02-.03,.03-.06,.03-.09v-.03l-.11-1.5h-2.12l-.73,1.25c-.04,.08-.06,.15-.06,.22,0,.06,0,.11,.05,.16,.08,.11,.21,.16,.41,.16,.05,0,.08,.02,.08,.07,0,.01,0,.02-.01,.04v.07c-.04,.07-.08,.1-.15,.1-.27-.01-.55-.02-.82-.03h-.12c-.24,0-.48,.01-.72,.03-.03,0-.05-.01-.06-.03,0-.01-.02-.02-.02-.03s0-.03,.01-.04l.02-.07c.02-.07,.06-.11,.13-.11,.1,0,.2-.01,.3-.03s.19-.06,.27-.11c.09-.06,.17-.12,.24-.2s.13-.17,.19-.26l3.2-5.47c.04-.07,.09-.1,.16-.1h.09c.07,0,.11,.03,.12,.1l.4,5.72c0,.08,.01,.14,.03,.19,0,.05,.04,.08,.08,.11,.05,.03,.12,.04,.23,.05h.33c.06,0,.09,.02,.09,.07,0,.01-.01,.02-.01,.04l-.02,.07Z"/>
        <path class="cls-11" d="M117.35,50.68c0,.05-.02,.09-.06,.13-.04,.03-.08,.05-.13,.05s-.09-.02-.13-.05c-.04-.04-.06-.08-.06-.13v-8.64c0-.05,.02-.09,.06-.12,.04-.04,.08-.06,.13-.06s.09,.02,.13,.06c.04,.03,.06,.07,.06,.12v8.64Z"/>
        <path class="cls-11" d="M107.78,52.02c.3,.83,1.09,1.38,1.97,1.38h1.7c.76,0,1.45,.48,1.71,1.2h.22c.26-.72,.95-1.2,1.71-1.2h1.7c.88,0,1.66-.55,1.97-1.38l-.05-.21c-.3,.64-.94,1.05-1.65,1.05h-1.97c-.76,0-1.45,.48-1.71,1.2h-.22c-.26-.72-.95-1.2-1.71-1.2h-1.97c-.71,0-1.35-.41-1.65-1.05"/>
        <path class="cls-11" d="M95.27,56.84c.51-.34,.92-.74,1.24-1.2l.35,.19c-.37,.5-.84,.94-1.39,1.33-.06-.11-.12-.21-.19-.32Zm2-.87h2.5v.31h-2.5v-.31Zm-2.03,2.2c.5-.35,.95-.85,1.36-1.49l.34,.18c-.17,.25-.34,.48-.53,.7v2.22h-.4v-1.78c-.19,.19-.39,.37-.6,.53-.05-.12-.11-.23-.17-.34Zm1.75-.94h3.05v.31h-.94v1.64c0,.35-.2,.52-.6,.52-.27,0-.54,0-.82,0-.02-.11-.04-.24-.07-.38,.25,.02,.5,.03,.76,.03,.22,0,.33-.1,.33-.28v-1.52h-1.71v-.31Z"/>
        <path class="cls-11" d="M103.56,58.75h-.37v-2.56h.37v2.56Zm.69-3.03h.39v3.46c0,.35-.18,.53-.56,.54-.18,0-.44,0-.79,0-.02-.13-.04-.25-.08-.38,.33,.03,.58,.04,.73,.04,.2,0,.3-.09,.3-.28v-3.37Zm-3.29,2.19l.24-.23c.24,.17,.47,.35,.67,.51,.21-.32,.37-.67,.46-1.05h-1.09c-.25,.5-.56,.95-.93,1.36-.07-.14-.13-.25-.19-.34,.49-.57,.86-1.23,1.12-1.99h-.96v-.3h2.71v.3h-1.35c-.08,.23-.16,.45-.25,.67h1.34v.31c-.26,1.14-.96,2.03-2.08,2.65-.08-.08-.18-.17-.3-.26,.55-.31,.99-.66,1.32-1.07-.18-.16-.42-.34-.7-.56Z"/>
        <path class="cls-11" d="M108.49,55.89l.23-.21c.23,.15,.46,.31,.7,.49l-.27,.25c-.21-.18-.43-.36-.66-.53Zm-3.42,3.23c.36-.04,.74-.08,1.12-.12v-1.17h-.94v-.31h2.27v.31h-.93v1.13c.38-.05,.75-.09,1.15-.15,0,.11,0,.22,0,.34-.97,.12-1.82,.23-2.56,.33l-.1-.35Zm-.02-2.65h2.68c-.01-.26-.02-.53-.03-.82h.41c0,.28,.01,.55,.02,.82h1.66v.31h-1.64c.06,1.41,.33,2.26,.81,2.56,.17,.12,.3,.09,.37-.1,.04-.15,.09-.36,.13-.64,.15,.05,.28,.08,.39,.11-.06,.33-.13,.59-.2,.79-.08,.19-.23,.29-.44,.29-.23,0-.45-.1-.67-.29-.46-.42-.72-1.33-.79-2.71h-2.7v-.31Z"/>
        <path class="cls-11" d="M113.64,56.11h-2.55v.36h2.55v-.36Zm-2.55,1.01h2.55v-.37h-2.55v.37Zm-.12,1.07l.36,.1c-.05,.15-.11,.29-.17,.42,.24,.34,.61,.55,1.09,.62v-1.26h-2.2v-.29h4.64v.29h-2.05v.42h1.71v.28h-1.71v.58c.61,.01,1.33,0,2.14-.02-.05,.12-.09,.23-.13,.33-.95,0-1.67,0-2.18-.01-.68,0-1.17-.23-1.48-.66-.22,.35-.5,.62-.83,.84-.07-.08-.15-.18-.24-.27,.52-.3,.87-.76,1.05-1.36Zm-.25-2.36h3.29v1.75h-.37v-.17h-2.55v.17h-.37v-1.75Z"/>
        <path class="cls-11" d="M117.57,55.75l-.07,.1c.52,.74,1.25,1.28,2.17,1.6-.1,.14-.18,.26-.25,.38-.95-.43-1.67-.98-2.15-1.66-.48,.65-1.2,1.22-2.17,1.72-.07-.1-.15-.21-.24-.33,1-.48,1.75-1.08,2.23-1.8h.48Zm-.53,1.44h.44v2.59h-.44v-2.59Z"/>
        <path class="cls-11" d="M119.99,56l.28-.16c.14,.15,.29,.32,.45,.49l-.3,.18c-.14-.18-.28-.35-.43-.52Zm2.06-.18l.29,.17c-.17,.2-.35,.39-.53,.56-.07-.06-.16-.11-.26-.18,.17-.17,.33-.35,.5-.55Zm-1.51,2.85c.23,.09,.46,.18,.7,.28,.23-.16,.4-.36,.53-.58h-1.01c-.07,.1-.15,.2-.22,.3Zm3.32-1.9h-.9s-.04,.07-.06,.1c.06,.59,.22,1.1,.49,1.52,.25-.41,.41-.95,.47-1.62Zm-3.99-.12h1.11v-.94h.36v.94h.92v.28h-.92v.26l.14-.14c.3,.19,.55,.36,.75,.5l-.23,.23c-.18-.14-.4-.31-.66-.49v.48h-.36v-.59c-.29,.27-.64,.5-1.02,.7-.07-.08-.13-.17-.21-.26,.4-.19,.78-.42,1.11-.69h-.99v-.28Zm-.05,1.44h.73c.07-.11,.14-.22,.21-.33l.34,.1c-.05,.08-.1,.16-.15,.23h1.18v.27c-.12,.27-.31,.51-.55,.72,.17,.07,.35,.14,.54,.22l-.21,.29c-.2-.1-.41-.2-.63-.29-.36,.23-.82,.4-1.37,.54-.05-.09-.11-.19-.17-.29,.47-.09,.87-.22,1.2-.4-.28-.12-.57-.25-.87-.38,.1-.13,.2-.26,.3-.4h-.55v-.28Zm3.1-2.41l.39,.05c-.07,.27-.15,.52-.24,.76h1.48v.29h-.3c-.08,.82-.29,1.47-.62,1.95,.26,.31,.59,.56,.99,.75-.1,.12-.19,.23-.26,.33-.39-.22-.72-.48-.98-.79-.29,.32-.65,.6-1.05,.83-.08-.08-.17-.17-.28-.26,.45-.26,.82-.55,1.1-.87-.27-.39-.44-.84-.52-1.35-.07,.1-.14,.2-.21,.29-.07-.08-.15-.17-.24-.27,.37-.47,.62-1.03,.74-1.7Z"/>
        <path class="cls-11" d="M126.03,58.9c-.05,.19-.14,.36-.27,.53-.13,.17-.29,.32-.48,.45,0,0-.03,.01-.04,.01s-.03,0-.04-.01h0s-.01-.03-.01-.04c0-.02,.01-.03,.02-.05,.18-.12,.32-.26,.44-.41,.12-.15,.21-.32,.26-.49v-.08s-.05,.05-.1,.06c-.04,.02-.09,.02-.15,.02-.1,0-.17-.03-.2-.09-.02-.03-.04-.07-.04-.11,0-.02,0-.05,.02-.07,.01-.07,.06-.13,.12-.18,.07-.06,.16-.08,.26-.08,.07,0,.12,.02,.16,.05,.04,.03,.07,.08,.08,.13,.01,.03,.01,.07,.01,.11v.05c-.01,.06-.02,.12-.04,.18Z"/>
        <path class="cls-11" d="M97.54,64.22h-1.37v1.06h1.37v-1.06Zm-2.28-1.23h4.77v.32h-.8v2.83c0,.38-.21,.57-.63,.57-.3,0-.6,0-.88,0-.02-.13-.04-.26-.08-.38,.36,.02,.64,.03,.83,.03,.24,0,.36-.11,.36-.34v-2.72h-3.56v-.32Zm.54,.94h2.13v1.65h-1.75v.3h-.38v-1.95Z"/>
        <path class="cls-11" d="M102.1,62.64c.22,.3,.45,.65,.72,1.06l-.38,.18c-.25-.43-.48-.79-.69-1.09l.34-.16Zm.2,2.41c0,.18,.02,.31,.04,.4-.77,.42-1.25,.69-1.44,.8-.11,.07-.21,.13-.3,.21l-.28-.33c.15-.12,.23-.26,.22-.42v-2.91h.4v2.99c.35-.18,.81-.43,1.37-.73Zm1.5-2.32h.4v.75c0,.77-.11,1.38-.34,1.84,.4,.36,.78,.71,1.13,1.05l-.33,.26c-.33-.35-.66-.69-.99-1.01-.37,.49-.93,.87-1.68,1.15-.07-.09-.16-.18-.26-.29,.81-.32,1.36-.7,1.64-1.13,.3-.42,.45-1.05,.44-1.89v-.75Z"/>
        <path class="cls-11" d="M109.02,63.1h-1.71v.36h1.71v-.36Zm-1.71,1h1.71v-.37h-1.71v.37Zm-2.27,.77c.21-.08,.41-.16,.62-.24v-.89h-.58v-.29h.58v-.78h.37v.78h.62v.29h-.62v.74c.18-.08,.37-.16,.55-.25,0,.11,.02,.22,.04,.34-.2,.08-.39,.17-.59,.26v1.46c0,.27-.12,.42-.36,.44-.17,.01-.36,.02-.56,.01-.02-.12-.04-.23-.06-.35,.18,.02,.33,.02,.45,.02,.11,0,.16-.05,.16-.15v-1.27c-.19,.09-.38,.17-.57,.26l-.05-.37Zm1.17,1.72c.45-.33,.71-.8,.76-1.41h.36c0,.2-.05,.38-.1,.55,.21,.27,.47,.45,.8,.55v-1.26h-1.49v-.28h3.25v.28h-1.4v.47h1.22v.27h-1.22v.59c.22,.02,.71,.02,1.46,0,0,.01-.04,.12-.11,.31-.38,0-.78,0-1.19-.01-.65,0-1.13-.21-1.43-.6-.14,.29-.34,.54-.59,.75-.1-.07-.2-.14-.32-.2Zm.75-3.75h2.41v1.65h-.35v-.12h-1.71v.12h-.35v-1.65Z"/>
        <path class="cls-11" d="M113.1,63.09h.39v2.67h-.39v-2.67Zm1.05-.45h.4v3.54c0,.35-.2,.52-.59,.52-.13,0-.36,0-.7,0-.02-.11-.04-.24-.07-.38,.28,.02,.5,.03,.65,.03,.21,0,.31-.09,.31-.27v-3.44Zm-4.05,2.4h1.14v-.52h.38v.52h1.11v.31h-1.11v.74c.38-.04,.77-.09,1.18-.13,0,.1,0,.21,.01,.33-.91,.1-1.82,.21-2.74,.32l-.11-.35c.41-.04,.83-.08,1.28-.12v-.78h-1.14v-.31Zm1.99-1.6c.26,.33,.5,.67,.72,1.03-.12,.05-.24,.11-.37,.17-.05-.1-.11-.21-.17-.31-.69,.06-1.35,.12-1.97,.17l-.18-.35c.19-.09,.35-.23,.48-.42,.13-.16,.25-.34,.37-.54h-.9v-.31h2.77v.31h-1.42c-.24,.35-.48,.67-.72,.96,.45-.03,.92-.07,1.4-.11-.11-.16-.22-.32-.34-.47l.33-.14Z"/>
        <path class="cls-11" d="M117.87,62.68h.41v1.44l.19-.19c.46,.31,.87,.59,1.23,.85l-.27,.31c-.35-.27-.73-.56-1.15-.87v2.57h-.41v-4.1Zm-3.05,2.13c.48-.63,.84-1.35,1.08-2.16l.4,.1c-.08,.23-.16,.44-.24,.65h1.34v.31c-.17,1.39-.89,2.4-2.17,3.05-.07-.09-.15-.19-.25-.3,.62-.32,1.1-.72,1.44-1.21-.23-.16-.48-.33-.76-.5l.25-.26c.27,.17,.5,.33,.7,.46,.2-.36,.33-.77,.38-1.24h-1.07c-.23,.49-.52,.98-.88,1.45-.06-.11-.13-.23-.22-.36Z"/>
        <path class="cls-11" d="M121.6,64.59h1.12v-.56h-1.12v.56Zm0,.82h1.12v-.56h-1.12v.56Zm0,.83h1.12v-.56h-1.12v.56Zm-1.13,0h.78v-2.21h-.78v2.21Zm3.38-2.21h-.78v2.21h.78v-2.21Zm-3.75-.28h1.53c.09-.21,.17-.4,.23-.55h-2.02v-.31h4.65v.31h-2.2c-.07,.15-.16,.34-.27,.55h2.2v2.99h-.37v-.23h-3.38v.24h-.37v-3Z"/>
        <path class="cls-11" d="M124.73,64.62h2.15v-.95h-1.75v-.32h1.75v-.73h.42v.73h1.78v.32h-1.78v.95h2.16v.32h-2.39c-.35,.43-.75,.86-1.18,1.29,.36,0,1.17-.03,2.43-.07-.22-.25-.44-.5-.68-.76l.3-.18c.44,.44,.85,.9,1.26,1.36l-.36,.21c-.09-.12-.19-.23-.29-.35-1.08,.03-2.01,.07-2.8,.13-.1,0-.24,.03-.42,.07l-.21-.35c.16-.05,.3-.12,.4-.21,.35-.32,.69-.7,1.02-1.13h-1.81v-.32Z"/>
        <path class="cls-11" d="M130.94,65.88c-.05,.19-.14,.36-.27,.53-.13,.17-.29,.32-.48,.45-.01,0-.03,.01-.05,.01-.01,0-.02,0-.03-.01h0s-.01-.03-.01-.03c0-.02,.01-.03,.03-.05,.18-.12,.32-.25,.44-.41,.12-.15,.2-.32,.25-.49l.02-.08s-.07,.05-.11,.06c-.05,.02-.1,.02-.15,.02-.1,0-.17-.03-.2-.09-.03-.03-.04-.07-.04-.11,0-.02,.01-.05,.01-.07,.02-.07,.06-.13,.13-.18,.07-.06,.15-.08,.26-.08,.07,0,.12,.02,.16,.05,.04,.03,.06,.08,.08,.13,0,.03,.01,.07,.01,.11v.05c-.01,.06-.02,.12-.04,.18Z"/>
        <path class="cls-11" d="M96.6,73.17h3.45v.29h-3.45v-.29Zm2.67-2.96h-1.85v.85h1.85v-.85Zm-1.85,1.98h1.85v-.85h-1.85v.85Zm-2.18-.57c.51-.6,.89-1.26,1.14-1.97l.39,.11c-.16,.39-.33,.74-.52,1.07v2.9h-.37v-2.32c-.15,.22-.31,.41-.48,.59-.04-.12-.1-.24-.16-.38Zm1.8-1.71h2.61v2.84h-.38v-.27h-1.85v.27h-.38v-2.84Z"/>
        <path class="cls-11" d="M102.12,70.52h.85v-.46h-.85v.46Zm-1.21,.82h.85v-.55h-.85v.55Zm3.28-.55h-.85v.55h.85v-.55Zm-2.06,.55h.85v-.55h-.85v.55Zm-.57,1.27c.35,.09,.72,.19,1.1,.28,.31-.16,.56-.36,.73-.59h-1.57c-.09,.11-.17,.21-.26,.31Zm-1.39-.59h1.44c.1-.13,.19-.27,.28-.4l.37,.13c-.07,.09-.14,.18-.21,.27h2.91v.28h-1.11c-.18,.28-.42,.52-.72,.72,.48,.12,.98,.26,1.51,.4l-.21,.33c-.54-.16-1.11-.33-1.7-.5-.56,.25-1.3,.43-2.21,.53-.06-.1-.12-.21-.19-.32,.78-.06,1.42-.18,1.9-.35-.39-.11-.79-.23-1.21-.35,.13-.15,.26-.29,.38-.44h-1.22v-.28Zm.4-1.5h1.21v-.46h-1.44v-.28h4.46v.28h-1.45v.46h1.21v1.25h-.36v-.16h-3.28v.16h-.36v-1.25Z"/>
        <path class="cls-11" d="M106.05,70.68l.29,.21c-.33,.33-.65,.62-.97,.89-.08-.08-.17-.16-.28-.23,.34-.25,.66-.54,.96-.87Zm2.46,.21l.26-.2c.41,.32,.75,.6,1.01,.85l-.29,.23c-.32-.3-.64-.6-.98-.88Zm-.07,1.21h-1.82c.24,.3,.52,.54,.84,.71,.38-.2,.71-.44,.98-.71Zm-3.27-1.94h2.2c-.1-.16-.19-.29-.28-.41l.35-.15c.16,.21,.27,.37,.33,.47l-.19,.08h2.2v.3h-1.56v1.16h-.38v-1.16h-.77v1.17h-.37v-1.17h-1.53v-.3Zm.47,1.94v-.29h3.29v.29c-.31,.35-.68,.64-1.11,.89,.53,.22,1.21,.35,2.05,.41-.11,.14-.21,.26-.28,.35-.86-.1-1.57-.29-2.14-.57-.54,.24-1.25,.44-2.12,.6-.08-.11-.16-.21-.25-.31,.84-.13,1.52-.29,2.02-.49-.35-.23-.65-.52-.9-.87h-.55Z"/>
        <path class="cls-11" d="M113.39,69.85l.21-.22c.27,.13,.52,.27,.75,.42l-.23,.25c-.23-.16-.47-.31-.73-.45Zm-1.38,3.57c.37-.22,.7-.47,.99-.76-.18-.41-.29-1.08-.33-1.99h-1.82v.64h1.39c-.02,.53-.04,.98-.08,1.34-.04,.39-.25,.58-.64,.58-.14,0-.31,0-.53-.02-.02-.1-.05-.22-.08-.35,.23,.03,.42,.04,.57,.04,.18,0,.29-.11,.31-.34,.03-.26,.05-.58,.06-.95h-1c-.03,.97-.25,1.69-.68,2.15-.08-.09-.16-.19-.25-.29,.36-.42,.54-1.08,.54-1.98v-1.13h2.2c0-.22-.02-.46-.03-.72h.4c0,.2,0,.44,.01,.72h1.66v.31h-1.65c.03,.75,.11,1.31,.24,1.68,.31-.37,.57-.78,.77-1.25l.38,.14c-.28,.57-.61,1.06-1,1.48,.24,.42,.47,.63,.7,.63,.08,0,.14-.07,.18-.19,.05-.2,.09-.41,.11-.63,.14,.05,.26,.09,.37,.12-.05,.3-.1,.54-.16,.73-.06,.2-.2,.31-.41,.33-.19,.01-.38-.05-.56-.17-.2-.13-.36-.31-.5-.54-.27,.25-.57,.48-.89,.67-.08-.08-.17-.17-.27-.25Z"/>
        <path class="cls-11" d="M118.36,72.15c-.03,.09-.06,.18-.11,.27-.04,.09-.09,.18-.16,.25-.06,.08-.13,.14-.21,.19-.09,.05-.18,.07-.28,.07-.09,0-.17-.02-.23-.05-.07-.03-.11-.08-.15-.13-.03-.06-.05-.12-.05-.19v-.02c0-.07,.01-.14,.04-.21,.07-.14,.13-.29,.18-.43,.06-.14,.11-.29,.15-.43,.03-.1,.05-.19,.06-.28v-.09c0-.06,0-.11-.02-.16-.04-.12-.12-.17-.24-.17-.2,0-.38,.06-.52,.18-.14,.12-.26,.28-.37,.48l-.39,1.34c-.02,.05-.05,.1-.1,.12-.04,.03-.09,.04-.14,.04-.04,0-.08-.01-.11-.04-.02-.02-.03-.04-.03-.07,0-.01,.01-.03,.01-.05l.44-1.52c.03-.11,.04-.2,.04-.28v-.06c-.01-.09-.06-.14-.16-.14s-.17,.06-.23,.19c-.06,.13-.12,.28-.17,.48-.01,.03-.04,.05-.08,.05h-.06s-.04-.01-.04-.04h0c.02-.09,.05-.17,.07-.26,.03-.09,.07-.18,.12-.26,.04-.08,.1-.15,.17-.2,.07-.05,.15-.08,.25-.08,.15,0,.26,.04,.35,.12,.08,.08,.12,.17,.13,.29,.11-.12,.23-.22,.37-.3,.14-.07,.3-.11,.48-.11,.11,0,.21,.02,.3,.05s.16,.09,.21,.17c.06,.08,.08,.17,.08,.27h0c0,.12-.02,.22-.05,.33-.04,.15-.09,.29-.15,.44-.05,.15-.11,.29-.17,.44-.06,.14-.09,.25-.09,.34s.04,.14,.13,.14c.07,0,.14-.02,.19-.05,.06-.04,.11-.09,.15-.15,.05-.06,.09-.13,.12-.21,.04-.08,.07-.17,.09-.26,.01-.03,.04-.04,.07-.04h.07s.04,.01,.04,.03v.02Z"/>
        <path class="cls-11" d="M119.83,69.89c.27,.23,.56,.5,.88,.83l-.31,.25c-.31-.36-.59-.65-.85-.87l.28-.22Zm.58,1.54c.15,.1,.27,.17,.38,.23-.42,.64-.75,1.19-1.01,1.65l-.39-.22c.33-.44,.67-.99,1.02-1.65Zm2.74-.02c.15-.23,.28-.48,.4-.75h-1.9c-.14,.28-.3,.54-.47,.8-.11-.07-.23-.13-.35-.18,.38-.53,.65-1.08,.82-1.65l.39,.1c-.07,.22-.16,.43-.25,.64h2.17v.3c-.13,.31-.28,.6-.43,.87-.11-.05-.24-.09-.38-.12Zm-.63-.55c0,.14,0,.28-.02,.41,.21,.95,.79,1.65,1.72,2.1-.14,.12-.24,.23-.32,.33-.8-.49-1.32-1.1-1.55-1.82-.21,.78-.79,1.41-1.74,1.88-.06-.09-.15-.18-.26-.3,.98-.45,1.55-1.09,1.71-1.91,.04-.2,.07-.43,.07-.7h.39Z"/>
        <path class="cls-11" d="M124.39,70.34h2.32c-.16-.27-.29-.46-.38-.59l.38-.16c.09,.12,.22,.32,.4,.59l-.35,.15h2.29v.32h-2.93c-.01,.25-.02,.47-.04,.65h2.33c-.03,.61-.08,1.13-.12,1.58-.04,.51-.32,.76-.85,.76-.25,0-.57-.01-.98-.03-.02-.11-.04-.23-.07-.39,.41,.05,.74,.07,.99,.07,.3,0,.46-.15,.5-.46,.04-.33,.07-.74,.1-1.22h-1.92c-.09,.92-.58,1.63-1.48,2.14-.08-.09-.18-.18-.29-.29,.85-.49,1.3-1.14,1.36-1.95,.03-.22,.04-.51,.06-.87h-1.32v-.32Z"/>
        <path class="cls-11" d="M138.67,44.4s-.02,.06-.04,.08c-.03,.02-.05,.03-.08,.03,0,0-.03,.01-.04,0,0,.01-.01,0-.01,0h-.04s-.08-.02-.08-.06v-.02c.02-.14,.03-.28,.05-.42,0-.11,0-.21,0-.3v-.08c0-.12-.02-.23-.04-.33-.03-.09-.07-.18-.13-.24-.12-.15-.3-.23-.53-.26-.23-.02-.48-.04-.74-.04h-.97c-.17,0-.28,.02-.31,.05-.03,0-.06,.11-.11,.28l-.57,2.2h.68c.17,0,.33,0,.47-.02,.15-.02,.27-.06,.38-.14,.1-.08,.17-.19,.22-.33,.05-.13,.09-.29,.14-.46,.02-.06,.06-.1,.12-.09h.08c.06,0,.08,.02,.08,.07v.02l-.56,2.17c-.02,.07-.06,.1-.13,.1h-.08s-.08-.02-.08-.06c0-.01,0-.02,.01-.04,.04-.16,.07-.32,.09-.46,0-.03,0-.06,0-.09,0-.09-.02-.17-.06-.23-.06-.08-.16-.12-.3-.14-.14-.01-.29-.02-.45-.02h-.69l-.63,2.44c-.03,.11-.05,.19-.05,.24,0,.02,.01,.03,.01,.04,.03,.03,.12,.04,.29,.04h1.04c.27,0,.53-.01,.79-.05,.26-.04,.5-.13,.72-.29,.1-.07,.19-.17,.28-.29,.09-.12,.18-.25,.26-.39,.08-.15,.15-.3,.22-.46,.07-.16,.14-.32,.21-.47,.02-.05,.06-.08,.12-.08h.08c.05,0,.08,.02,.08,.07v.03l-.9,2.13c-.02,.05-.06,.08-.12,.08h-4.71s-.05-.01-.06-.03c-.02-.01-.02-.02-.02-.03s0-.03,.01-.04l.02-.07s.02-.05,.04-.08c.03-.02,.06-.03,.09-.03h.4c.13-.01,.22-.02,.29-.05,.07-.04,.12-.13,.16-.27l1.27-4.92c.02-.07,.03-.12,.03-.17s-.02-.08-.05-.1c-.05-.03-.14-.04-.26-.05-.13-.01-.27-.01-.41-.01-.05,0-.08-.02-.08-.07v-.03l.02-.07c.02-.07,.06-.11,.13-.11h4.58s.08,.02,.08,.07v.02l-.23,1.83Z"/>
        <line class="cls-5" x1="93.53" y1="18.89" x2="93.53" y2="73"/>
        <line class="cls-5" x1="140.41" y1="73" x2="140.41" y2="18.89"/>
        <path class="cls-9" d="M7.04,86.6s-.02,.09-.06,.12c-.04,.04-.08,.05-.13,.05s-.09-.02-.13-.05c-.04-.04-.06-.08-.06-.12v-8.64s.02-.09,.05-.13c.04-.04,.08-.05,.13-.05,.05,0,.09,.02,.13,.05,.04,.04,.06,.08,.06,.13v8.64Z"/>
        <path class="cls-9" d="M13.03,79.24l-1.72,2.95h1.93l-.2-2.95Zm1.81,5.19c-.02,.07-.07,.1-.13,.1-.3-.02-.6-.03-.9-.03h-.15c-.35,0-.71,.02-1.06,.03-.05,0-.08-.02-.09-.07v-.03l.02-.07c.02-.07,.06-.11,.13-.11,.11,0,.21,0,.31-.01,.09,0,.18-.04,.27-.08,.04-.02,.07-.04,.09-.08,.02-.03,.03-.06,.03-.09v-.03l-.11-1.5h-2.11l-.73,1.25c-.04,.08-.06,.15-.06,.22,0,.06,.02,.11,.05,.16,.08,.11,.21,.16,.41,.16,.05,0,.08,.02,.09,.06,0,.01,0,.03,0,.04l-.02,.07c-.02,.07-.07,.1-.13,.1-.28-.01-.55-.02-.82-.03h-.12c-.24,0-.47,0-.72,.03-.03,0-.05,0-.06-.03-.01-.01-.02-.02-.02-.04s0-.02,0-.04l.02-.07c.02-.07,.06-.11,.13-.11,.1,0,.2-.01,.3-.03,.1-.02,.19-.06,.28-.12,.09-.05,.16-.12,.24-.2,.07-.08,.14-.17,.19-.26l3.2-5.47c.04-.07,.1-.1,.17-.1h.09c.07,0,.11,.03,.12,.1l.4,5.73c0,.08,.02,.14,.03,.19,.01,.05,.04,.08,.08,.1,.05,.03,.12,.05,.23,.05,.1,0,.22,0,.34,0,.05,0,.08,.02,.08,.06,0,.01,0,.03,0,.04l-.02,.07Z"/>
        <path class="cls-9" d="M16.35,86.6s-.02,.09-.06,.12c-.04,.04-.08,.05-.13,.05s-.09-.02-.13-.05c-.04-.04-.06-.08-.06-.12v-8.64s.02-.09,.05-.13c.04-.04,.08-.05,.13-.05,.05,0,.09,.02,.13,.05,.04,.04,.06,.08,.06,.13v8.64Z"/>
        <path class="cls-11" d="M22.24,81.87c0,.31-.25,.55-.55,.55s-.55-.25-.55-.55,.25-.56,.55-.56,.55,.25,.55,.56Z"/>
        <path class="cls-11" d="M25.68,86.6s-.02,.09-.06,.12c-.04,.04-.08,.05-.13,.05s-.09-.02-.13-.05c-.04-.04-.06-.08-.06-.12v-8.64s.02-.09,.05-.13c.04-.04,.08-.05,.13-.05s.09,.02,.13,.05c.04,.04,.06,.08,.06,.13v8.64Z"/>
        <path class="cls-11" d="M31.67,79.24l-1.72,2.95h1.93l-.2-2.95Zm1.81,5.19c-.02,.07-.07,.1-.13,.1-.3-.02-.6-.03-.9-.03h-.15c-.35,0-.71,.02-1.06,.03-.05,0-.08-.02-.09-.07v-.03l.02-.07c.02-.07,.06-.11,.13-.11,.11,0,.21,0,.31-.01,.09,0,.18-.04,.27-.08,.04-.02,.07-.04,.09-.08,.02-.03,.03-.06,.03-.09v-.03l-.11-1.5h-2.11l-.73,1.25c-.04,.08-.06,.15-.06,.22,0,.06,.02,.11,.05,.16,.08,.11,.21,.16,.41,.16,.05,0,.08,.02,.09,.06,0,.01,0,.03,0,.04l-.02,.07c-.02,.07-.07,.1-.13,.1-.28-.01-.55-.02-.82-.03h-.12c-.24,0-.47,0-.71,.03-.03,0-.05,0-.06-.03-.01-.01-.02-.02-.02-.04s0-.02,0-.04l.02-.07c.02-.07,.06-.11,.13-.11,.1,0,.2-.01,.3-.03,.1-.02,.19-.06,.28-.12,.09-.05,.16-.12,.24-.2,.07-.08,.13-.17,.19-.26l3.2-5.47c.04-.07,.1-.1,.17-.1h.09c.07,0,.11,.03,.12,.1l.4,5.73c0,.08,.02,.14,.03,.19,.01,.05,.04,.08,.08,.1,.05,.03,.12,.05,.23,.05s.22,0,.34,0c.06,0,.08,.02,.08,.06,0,.01,0,.03,0,.04l-.02,.07Z"/>
        <path class="cls-11" d="M37.06,77.68s.01,.03,.01,.05c0,.02,0,.03-.01,.05-.02,.04-.05,.06-.09,.08l-.91,.36,.7,.37s.04,.03,.04,.06h0c0,.05-.02,.08-.05,.11-.03,.03-.07,.05-.11,.05-.01,0-.02,0-.04,0-.03,0-.05,0-.07-.02l-.56-.47-.16,.85s-.03,.07-.07,.1c-.04,.02-.08,.04-.12,.04s-.08-.01-.1-.04c-.01-.01-.02-.03-.02-.05,0-.01,0-.03,.01-.04l.33-.85-.83,.47s-.05,.02-.08,.02c-.01,0-.02,0-.03,0-.04,0-.07-.02-.08-.05,0-.01-.01-.03-.01-.04,0-.02,0-.04,.02-.06,.02-.03,.05-.06,.09-.08l.9-.37-.69-.36s-.05-.04-.05-.07c0,0,0,0,0,0,0-.03,.01-.07,.05-.1,.03-.03,.07-.05,.11-.06,.01,0,.02,0,.03,0,.03,0,.06,0,.08,.02l.56,.47,.16-.85s.03-.07,.07-.09c.04-.02,.08-.03,.12-.03s.08,.01,.1,.03c.01,.01,.02,.03,.02,.05,0,.01,0,.03-.01,.04l-.32,.85,.83-.47s.06-.02,.09-.02c0,0,.02,0,.03,0,.03,0,.06,.03,.07,.06Z"/>
        <path class="cls-11" d="M38.83,86.6s-.02,.09-.06,.12c-.04,.04-.08,.05-.13,.05s-.09-.02-.13-.05c-.04-.04-.06-.08-.06-.12v-8.64s.02-.09,.05-.13c.04-.04,.08-.05,.13-.05,.05,0,.09,.02,.13,.05,.04,.04,.06,.08,.06,.13v8.64Z"/>
        <line class="cls-2" x1="41.43" y1="80.93" x2="47.73" y2="80.93"/>
        <line class="cls-2" x1="41.43" y1="82.82" x2="47.73" y2="82.82"/>
        <path class="cls-11" d="M50.71,86.6s-.02,.09-.06,.12c-.04,.04-.08,.05-.13,.05s-.09-.02-.13-.05c-.04-.04-.06-.08-.06-.12v-8.64s.02-.09,.05-.13c.04-.04,.08-.05,.13-.05s.09,.02,.13,.05c.04,.04,.06,.08,.06,.13v8.64Z"/>
        <path class="cls-11" d="M56.71,79.24l-1.72,2.95h1.93l-.2-2.95Zm1.81,5.19c-.02,.07-.07,.1-.13,.1-.3-.02-.6-.03-.9-.03h-.15c-.35,0-.71,.02-1.06,.03-.05,0-.08-.02-.09-.07v-.03l.02-.07c.02-.07,.06-.11,.13-.11,.11,0,.21,0,.31-.01,.09,0,.18-.04,.27-.08,.04-.02,.07-.04,.09-.08,.02-.03,.03-.06,.03-.09v-.03l-.11-1.5h-2.11l-.73,1.25c-.04,.08-.06,.15-.06,.22,0,.06,.02,.11,.05,.16,.08,.11,.21,.16,.41,.16,.05,0,.08,.02,.09,.06,0,.01,0,.03,0,.04l-.02,.07c-.02,.07-.07,.1-.13,.1-.28-.01-.55-.02-.82-.03h-.12c-.24,0-.47,0-.71,.03-.03,0-.05,0-.06-.03-.01-.01-.02-.02-.02-.04s0-.02,0-.04l.02-.07c.02-.07,.06-.11,.13-.11,.1,0,.2-.01,.3-.03,.1-.02,.19-.06,.28-.12,.09-.05,.16-.12,.24-.2,.07-.08,.13-.17,.19-.26l3.2-5.47c.04-.07,.1-.1,.17-.1h.09c.07,0,.11,.03,.12,.1l.4,5.73c0,.08,.02,.14,.03,.19,.01,.05,.04,.08,.08,.1,.05,.03,.12,.05,.23,.05s.22,0,.34,0c.06,0,.08,.02,.08,.06,0,.01,0,.03,0,.04l-.02,.07Z"/>
        <path class="cls-11" d="M60.03,86.6s-.02,.09-.06,.12c-.04,.04-.08,.05-.13,.05s-.09-.02-.13-.05c-.04-.04-.06-.08-.06-.12v-8.64s.02-.09,.05-.13c.04-.04,.08-.05,.13-.05,.05,0,.09,.02,.13,.05,.04,.04,.06,.08,.06,.13v8.64Z"/>
        <path class="cls-11" d="M66.81,80.19c-.03,.09-.06,.18-.1,.27-.04,.09-.1,.18-.16,.25-.06,.08-.14,.14-.22,.19-.08,.05-.17,.07-.28,.07-.09,0-.17-.02-.23-.05-.06-.03-.11-.08-.14-.13-.03-.06-.05-.12-.06-.2v-.02c0-.07,.02-.14,.05-.21,.06-.14,.12-.29,.18-.43,.05-.14,.1-.29,.15-.43,.03-.1,.04-.19,.06-.28,0-.03,0-.06,0-.09,0-.06,0-.11-.02-.16-.04-.11-.12-.17-.24-.17-.2,0-.37,.06-.51,.18-.14,.12-.27,.28-.37,.48l-.39,1.34c-.01,.05-.05,.1-.09,.12-.05,.03-.09,.04-.14,.04s-.08-.01-.11-.04c-.02-.02-.03-.04-.03-.07,0-.01,0-.03,0-.05l.44-1.52c.03-.11,.04-.2,.04-.28v-.06c-.01-.09-.07-.14-.16-.14s-.17,.06-.23,.19c-.06,.13-.11,.28-.17,.48-.02,.03-.04,.05-.08,.05h-.07s-.04-.01-.04-.04h0c.02-.09,.05-.17,.07-.26,.03-.09,.07-.18,.11-.26,.05-.08,.1-.15,.17-.2,.07-.05,.15-.08,.25-.08,.15,0,.26,.04,.35,.11,.08,.08,.13,.18,.14,.29,.11-.12,.23-.22,.37-.3,.14-.07,.3-.11,.48-.11,.11,0,.21,.02,.3,.05,.09,.04,.16,.09,.21,.17,.05,.08,.08,.17,.08,.27h0c0,.12-.02,.22-.05,.33-.04,.15-.09,.29-.15,.44-.05,.14-.11,.29-.18,.44-.06,.13-.09,.25-.09,.34s.05,.14,.13,.14c.07,0,.13-.02,.19-.05,.06-.04,.11-.09,.15-.15,.05-.06,.09-.13,.12-.21,.03-.08,.06-.17,.09-.26,.01-.03,.04-.04,.07-.05h.07s.04,.01,.04,.03v.02Z"/>
        <path class="cls-11" d="M71.19,81.87c0,.31-.25,.55-.55,.55s-.55-.25-.55-.55,.25-.56,.55-.56,.55,.25,.55,.56Z"/>
        <path class="cls-11" d="M95.98,86.6s-.02,.09-.06,.12c-.04,.04-.08,.05-.13,.05s-.09-.02-.13-.05c-.04-.04-.06-.08-.06-.12v-8.64s.02-.09,.05-.13c.04-.04,.08-.05,.13-.05,.05,0,.09,.02,.13,.05,.04,.04,.06,.08,.06,.13v8.64Z"/>
        <path class="cls-11" d="M103.68,80.32s-.02,.05-.04,.08c-.02,.02-.05,.03-.08,.03-.01,0-.02,0-.04,0,0,0,0,0,0,0h-.04s-.07-.02-.08-.05v-.03c.02-.14,.03-.28,.05-.42,.01-.11,.02-.21,.02-.3v-.08c0-.12-.02-.23-.05-.33-.02-.1-.07-.18-.13-.25-.12-.14-.3-.23-.53-.26s-.48-.04-.74-.04h-.97c-.17,0-.27,.01-.31,.04-.02,.02-.06,.11-.11,.28l-.57,2.2h.68c.17,0,.33,0,.47-.02,.14-.01,.27-.06,.37-.14,.1-.08,.17-.19,.22-.32,.05-.14,.1-.29,.14-.46,.02-.07,.07-.1,.13-.1h.08c.05,0,.08,.02,.08,.07v.03l-.57,2.17c-.01,.07-.05,.1-.13,.1h-.07c-.05,0-.08-.02-.08-.06,0-.01,0-.02,0-.04,.04-.17,.07-.32,.09-.46,0-.04,0-.07,0-.1,0-.09-.02-.17-.06-.22-.06-.08-.16-.13-.3-.14-.14-.01-.29-.02-.45-.02h-.69l-.63,2.44c-.03,.11-.05,.19-.05,.24,0,.02,0,.03,0,.04,.02,.02,.12,.04,.29,.04h1.04c.27,0,.54-.02,.79-.05,.26-.04,.5-.13,.72-.29,.1-.07,.19-.17,.28-.29,.09-.12,.17-.25,.25-.4,.08-.14,.15-.3,.23-.46,.07-.16,.14-.32,.21-.47,.02-.05,.06-.08,.12-.08h.08c.05,0,.08,.02,.08,.07v.03l-.89,2.14c-.03,.05-.07,.08-.12,.08h-4.71s-.05,0-.07-.03c-.01-.01-.02-.02-.02-.04s0-.02,0-.04l.02-.07s.02-.05,.05-.08c.02-.02,.05-.03,.08-.03,.14,0,.28,0,.4,0,.13,0,.22-.02,.29-.05,.07-.03,.12-.12,.15-.27l1.27-4.92c.02-.07,.03-.12,.03-.16,0-.05-.01-.09-.04-.1-.05-.03-.14-.05-.26-.05-.13,0-.26,0-.41,0-.05,0-.08-.02-.08-.08v-.03l.02-.07c.02-.07,.06-.11,.13-.11h4.58s.07,.02,.08,.07v.03l-.23,1.83Z"/>
        <path class="cls-11" d="M104.7,86.6s-.02,.09-.06,.12c-.04,.04-.08,.05-.13,.05s-.09-.02-.13-.05c-.04-.04-.06-.08-.06-.12v-8.64s.02-.09,.05-.13c.04-.04,.08-.05,.13-.05s.09,.02,.13,.05c.04,.04,.06,.08,.06,.13v8.64Z"/>
        <path class="cls-11" d="M95.74,87.94c.3,.83,1.09,1.38,1.97,1.38h1.4c.77,0,1.45,.48,1.71,1.2h.22c.26-.72,.95-1.2,1.71-1.2h1.4c.88,0,1.67-.55,1.97-1.38l-.04-.22c-.3,.64-.94,1.05-1.65,1.05h-1.67c-.77,0-1.45,.48-1.71,1.2h-.22c-.26-.72-.95-1.2-1.71-1.2h-1.67c-.71,0-1.35-.41-1.65-1.05"/>
        <path class="cls-11" d="M76.4,93h1.34v-.48h-1.34v.48Zm3.05-.48h-1.34v.48h1.34v-.48Zm-3.05,1.25h1.34v-.49h-1.34v.49Zm1.71,0h1.34v-.49h-1.34v.49Zm-2.56,.77h2.19v-.47h-1.34v.2h-.37v-2.03h1c-.15-.16-.32-.32-.5-.48l.27-.2c.24,.2,.45,.38,.63,.55l-.18,.13h1.13c.18-.2,.36-.43,.54-.67l.39,.18c-.17,.17-.33,.34-.48,.49h.99v2.03h-.37v-.2h-1.34v.47h2.19v.3h-2.19v.88h-.38v-.88h-2.19v-.3Z"/>
        <path class="cls-11" d="M82.5,92.93c.21,.5,.44,1.11,.69,1.82l-.4,.1c-.22-.68-.44-1.29-.66-1.82l.37-.11Zm-.66-.59h1.7c-.14-.21-.3-.4-.48-.58l.33-.2c.14,.14,.32,.33,.53,.57l-.36,.21h1.59v.31h-3.31v-.31Zm-1.42,1.27c.46-.6,.81-1.28,1.04-2.03l.41,.09c-.13,.35-.28,.68-.43,.99v3.05h-.36v-2.4c-.15,.25-.31,.47-.48,.68-.05-.11-.11-.23-.18-.39Zm1.32,1.57h1.88c.23-.54,.5-1.3,.8-2.3l.43,.11c-.2,.52-.47,1.25-.83,2.18h1.21v.31h-3.5v-.31Z"/>
        <path class="cls-11" d="M86.98,94.13c.09,.54-.07,.84-.46,.91-.09,.01-.25,.02-.47,0-.02-.11-.05-.22-.09-.35,.14,.03,.28,.04,.42,.03,.22-.03,.3-.23,.22-.6-.04-.23-.19-.48-.43-.75,.14-.41,.28-.82,.4-1.22h-.63v3.56h-.36v-3.85h1.39v.29c-.22,.63-.36,1.01-.41,1.16,.24,.3,.39,.57,.42,.81Zm.14,.3h1.43v-.62h-1.33v-.3c.2-.33,.39-.68,.55-1.06h-.65v-.3h.78c.08-.19,.15-.38,.22-.58l.4,.07c-.07,.17-.14,.34-.22,.51h1.74v.3h-1.87c-.16,.34-.33,.69-.52,1.06h.89v-.8h.41v.8h.98v.3h-.98v.62h1.16v.3h-1.16v.98h-.41v-.98h-1.43v-.3Z"/>
        <path class="cls-11" d="M92.81,93.42l.29-.19c.36,.37,.64,.68,.85,.95l-.36,.22c-.23-.32-.49-.65-.79-.98Zm-.88-.83h-1.09v1.02h1.09v-1.02Zm-1.09,2.38h1.09v-1.06h-1.09v1.06Zm1.54-1.83c.3-.42,.56-.93,.77-1.55l.4,.09c-.08,.21-.17,.41-.25,.59h1.55c-.04,1.43-.07,2.34-.1,2.71-.02,.44-.29,.66-.8,.66-.29,0-.59,0-.89-.02-.02-.14-.05-.26-.08-.37h.01c.32,.04,.62,.06,.88,.06,.29,0,.45-.13,.47-.4,.04-.42,.06-1.19,.08-2.31h-1.29c-.14,.27-.29,.51-.43,.71-.09-.05-.2-.11-.33-.15Zm-1.93-.86h.49c.12-.25,.22-.49,.3-.69l.4,.1c-.1,.21-.2,.41-.29,.59h.96v3.33h-.39v-.33h-1.09v.36h-.39v-3.36Z"/>
        <path class="cls-11" d="M95.19,92.76c.51-.34,.92-.74,1.23-1.2l.35,.18c-.37,.5-.84,.94-1.39,1.34-.06-.11-.12-.21-.19-.32Zm2-.88h2.5v.31h-2.5v-.31Zm-2.03,2.2c.5-.35,.95-.85,1.36-1.49l.34,.18c-.16,.25-.34,.48-.53,.7v2.22h-.4v-1.78c-.19,.19-.39,.36-.6,.53-.05-.12-.11-.23-.17-.34Zm1.75-.94h3.05v.31h-.94v1.64c0,.35-.2,.52-.6,.52-.27,0-.55,0-.82,0-.02-.11-.04-.24-.07-.38,.25,.02,.5,.03,.76,.03,.22,0,.33-.1,.33-.29v-1.52h-1.71v-.31Z"/>
        <path class="cls-11" d="M103.48,94.67h-.37v-2.56h.37v2.56Zm.69-3.02h.39v3.46c0,.35-.18,.53-.55,.54-.18,0-.44,0-.79,0-.02-.13-.04-.25-.08-.38,.33,.03,.58,.04,.73,.04,.2,0,.3-.09,.3-.28v-3.37Zm-3.29,2.19l.24-.24c.24,.18,.47,.35,.67,.51,.22-.32,.37-.67,.46-1.05h-1.09c-.25,.5-.56,.95-.93,1.36-.07-.14-.14-.25-.19-.33,.49-.57,.86-1.23,1.12-1.99h-.96v-.3h2.71v.3h-1.35c-.07,.23-.16,.45-.25,.67h1.34v.31c-.26,1.14-.96,2.03-2.08,2.65-.08-.08-.18-.17-.3-.26,.55-.31,.99-.66,1.32-1.07-.18-.16-.42-.34-.7-.55Z"/>
        <path class="cls-11" d="M108.4,91.81l.23-.21c.24,.15,.47,.31,.71,.49l-.28,.25c-.2-.18-.42-.36-.66-.53Zm-3.41,3.23c.36-.04,.74-.08,1.12-.12v-1.17h-.94v-.31h2.27v.31h-.93v1.13c.38-.05,.76-.1,1.15-.15,0,.11-.01,.22-.01,.34-.96,.12-1.82,.23-2.56,.33l-.1-.35Zm-.02-2.65h2.68c-.01-.26-.02-.53-.03-.82h.41c0,.28,0,.55,.02,.82h1.66v.31h-1.65c.07,1.41,.34,2.26,.82,2.56,.17,.12,.29,.09,.36-.1,.05-.15,.09-.36,.13-.65,.15,.05,.28,.08,.39,.11-.06,.33-.12,.59-.19,.79-.08,.19-.23,.29-.45,.29s-.44-.1-.66-.29c-.46-.42-.72-1.33-.79-2.71h-2.7v-.31Z"/>
        <path class="cls-11" d="M111.23,94.82c-.06,.19-.15,.36-.28,.53-.13,.17-.29,.32-.47,.45-.02,0-.03,.01-.05,.01,0,0-.02,0-.03-.01h0s-.01-.03-.01-.03c0-.02,.01-.03,.03-.05,.17-.12,.32-.25,.44-.41,.12-.16,.2-.32,.25-.49l.02-.08s-.07,.05-.11,.06c-.05,.02-.1,.02-.15,.02-.1,0-.17-.03-.21-.09-.02-.03-.03-.07-.03-.11,0-.02,0-.05,.01-.07,.02-.07,.06-.13,.13-.18,.06-.05,.15-.08,.25-.08,.07,0,.13,.02,.17,.05,.04,.03,.06,.08,.07,.13,.01,.03,.01,.07,.01,.11v.05c0,.06-.02,.12-.03,.18Z"/>
        <path class="cls-11" d="M77.54,98.71l.36-.16c.2,.25,.34,.45,.42,.59l-.38,.18c-.17-.28-.31-.48-.4-.61Zm-1.96,3.41h2.15v-1.21h-1.77v-.32h1.77v-.95h-1.95v-.32h4.3v.32h-1.93v.95h1.77v.32h-1.77v1.21h2.15v.31h-4.71v-.31Z"/>
        <path class="cls-11" d="M82.75,100.33l.31-.16c.26,.33,.49,.65,.69,.97l-.36,.18c-.19-.32-.4-.64-.64-.98Zm-.09-.84h1.61v-.9h.39v.9h.59v.32h-.59v2.19c0,.41-.23,.61-.69,.61-.14,0-.38,0-.71,0-.02-.1-.04-.23-.08-.38,.32,.02,.56,.03,.73,.03,.24,0,.36-.11,.36-.32v-2.13h-1.61v-.32Zm-1.76,.17c.28,.35,.55,.69,.81,1.02,.19-.41,.31-.85,.36-1.33h-1.51v-.32h1.91v.31c-.09,.61-.26,1.16-.51,1.65,.26,.33,.52,.66,.76,.97l-.35,.2c-.2-.27-.4-.55-.61-.83-.29,.46-.65,.86-1.09,1.21-.06-.09-.14-.19-.24-.31,.46-.36,.82-.76,1.1-1.21-.3-.4-.6-.8-.91-1.2l.29-.17Z"/>
        <path class="cls-11" d="M86.36,99.96v.54h1.28v-.54h-1.28Zm-.03,1.38h1.31v-.54h-1.28c0,.19-.01,.38-.03,.54Zm1.69,0h1.35v-.54h-1.35v.54Zm1.35-1.38h-1.35v.54h1.35v-.54Zm-.96-.75h-1.7c-.14,.15-.29,.3-.44,.44h1.7c.16-.16,.31-.31,.44-.44Zm-3.06,.73c.6-.4,1.09-.87,1.46-1.42l.39,.09c-.07,.1-.15,.21-.23,.31h1.93v.3c-.15,.14-.3,.29-.46,.44h1.31v2.45c0,.34-.19,.52-.55,.52-.21,0-.44,0-.7,0-.02-.1-.04-.22-.07-.34,.23,.01,.44,.02,.62,.02,.21,0,.32-.08,.32-.25v-.41h-1.35v.97h-.38v-.97h-1.36c-.1,.48-.28,.84-.55,1.1-.09-.1-.19-.19-.29-.28,.36-.32,.54-.87,.54-1.67v-.88c-.11,.09-.22,.17-.34,.26-.09-.07-.18-.14-.29-.22Z"/>
        <path class="cls-11" d="M93.62,98.8l.21-.21c.23,.12,.47,.28,.73,.45l-.23,.24c-.27-.2-.5-.36-.71-.49Zm-3.36,3.26c.57-.11,1.14-.22,1.72-.35-.01,.11-.01,.22-.01,.32-.54,.11-1.07,.22-1.6,.35l-.11-.32Zm.61-.97c.29-.04,.62-.08,1.01-.14-.02,.1-.03,.21-.04,.32-.54,.07-1.01,.14-1.41,.2l-.08-.31c.22-.21,.47-.5,.74-.89-.26,.01-.51,.03-.74,.05l-.09-.28c.3-.35,.61-.85,.92-1.49l.37,.13c-.33,.57-.62,1.01-.85,1.34,.19,0,.39-.01,.58-.02,.11-.17,.23-.36,.35-.56l.36,.16c-.39,.59-.76,1.09-1.1,1.51Zm.82,1.26c.6-.19,1.13-.41,1.57-.66-.11-.25-.2-.55-.27-.9l-1.03,.12-.06-.3,1.04-.13c-.03-.2-.05-.4-.06-.63l-.87,.09-.06-.3,.91-.09c-.02-.29-.03-.62-.05-1h.39c0,.36,.02,.68,.03,.96l1.61-.16,.04,.3-1.64,.17c.01,.22,.03,.43,.06,.62l1.66-.2,.04,.3-1.66,.21c.05,.29,.13,.54,.22,.75,.34-.22,.62-.47,.85-.73l.31,.21c-.29,.3-.63,.58-1.01,.82,.12,.19,.27,.34,.44,.44,.21,.11,.35,.05,.41-.17,.04-.18,.07-.38,.1-.59,.15,.06,.27,.1,.37,.12-.05,.3-.11,.53-.17,.68-.09,.24-.25,.36-.48,.36s-.45-.08-.65-.25c-.13-.11-.25-.24-.35-.4-.44,.25-.94,.46-1.49,.65-.06-.08-.14-.17-.24-.28Z"/>
        <polygon class="cls-11" points="95.21 102.09 97.1 102.09 97.1 98.64 97.54 98.64 97.54 99.9 99.52 99.9 99.52 100.23 97.54 100.23 97.54 102.09 99.91 102.09 99.91 102.43 95.21 102.43 95.21 102.09"/>
        <path class="cls-11" d="M100.6,98.84h3.74v.32h-3.74v-.32Zm-.46,1.22h4.66v.32h-1.53v1.63c0,.16,.1,.25,.29,.25h.42c.23,0,.36-.09,.4-.28,.03-.16,.05-.35,.07-.59,.13,.04,.27,.07,.42,.11-.03,.24-.07,.44-.1,.6-.06,.31-.3,.46-.7,.46h-.59c-.4,0-.61-.17-.61-.52v-1.66h-.98v.13c0,.59-.1,1.03-.31,1.31-.21,.31-.61,.6-1.22,.87-.12-.12-.21-.22-.29-.28,.56-.24,.93-.49,1.12-.75,.19-.25,.28-.63,.28-1.13v-.15h-1.34v-.32Z"/>
        <path class="cls-11" d="M108.07,101.96l.21-.23c.35,.15,.77,.35,1.26,.59l-.24,.27c-.46-.26-.87-.47-1.23-.63Zm-1.77-.21l.24,.24c-.49,.26-.91,.47-1.28,.62-.05-.07-.11-.16-.2-.27,.35-.13,.77-.33,1.24-.59Zm2.2-.97c.38,.28,.72,.54,1.02,.8-.07,.04-.16,.12-.29,.23-.09-.09-.19-.18-.29-.27-.49,.02-.92,.04-1.31,.06v.53c0,.33-.21,.5-.61,.5-.15,0-.34,0-.57,0-.01-.09-.03-.21-.06-.34,.24,.02,.43,.03,.56,.03,.2,0,.3-.07,.3-.22v-.47c-.43,.02-.79,.03-1.1,.05-.22,.01-.4,.03-.56,.05l-.2-.33c.25-.04,.46-.09,.64-.15,.36-.12,.71-.25,1.05-.37-.39,.02-.75,.05-1.06,.07-.12,.01-.24,.02-.37,.04l-.17-.31c.17-.03,.32-.07,.44-.12,.21-.09,.4-.19,.59-.28h-1.48v-.26h2.13v-.29h-1.68v-.26h1.68v-.28h-1.95v-.26h1.95v-.36h.39v.36h1.97v.26h-1.97v.28h1.63v.26h-1.63v.29h2.15v.26h-2.61c-.32,.15-.65,.3-.99,.44,.49-.02,1.02-.05,1.59-.08,.26-.11,.51-.22,.75-.33l.27,.19c-.82,.35-1.64,.66-2.45,.93,.8-.03,1.61-.06,2.4-.1-.14-.11-.28-.23-.42-.34l.25-.2Z"/>
        <path class="cls-11" d="M112.43,100.4l.3-.19c.35,.37,.64,.68,.85,.95l-.36,.22c-.23-.32-.49-.65-.79-.98Zm-.88-.83h-1.09v1.02h1.09v-1.02Zm-1.09,2.38h1.09v-1.06h-1.09v1.06Zm1.55-1.83c.3-.42,.56-.93,.76-1.55l.41,.09c-.08,.21-.17,.41-.25,.59h1.55c-.04,1.43-.07,2.34-.09,2.71-.03,.44-.29,.66-.8,.66-.29,0-.59,0-.89-.03-.02-.14-.05-.26-.08-.37h.01c.33,.04,.62,.06,.89,.06,.29,0,.45-.13,.47-.4,.04-.42,.06-1.19,.08-2.31h-1.3c-.14,.27-.28,.51-.43,.71-.09-.05-.2-.1-.33-.15Zm-1.93-.86h.48c.12-.25,.22-.49,.3-.7l.4,.1c-.1,.21-.2,.41-.29,.59h.96v3.33h-.38v-.33h-1.09v.36h-.38v-3.36Z"/>
        <path class="cls-11" d="M114.82,101.04c.37-.05,.75-.11,1.15-.18v-.4h-1.02v-.27h1.02v-.31h.36v1.48h-.36v-.21c-.3,.06-.65,.13-1.05,.21l-.1-.32Zm3.21-1.15h.36v.39c.32-.08,.63-.18,.92-.29l.13,.28c-.31,.11-.66,.21-1.05,.29v.29c0,.15,.08,.22,.22,.22h.22c.19,0,.29-.05,.32-.16,.02-.1,.05-.22,.06-.36,.13,.05,.24,.09,.34,.12-.02,.13-.05,.25-.08,.36-.07,.23-.26,.34-.56,.34h-.39c-.32,0-.49-.17-.49-.51v-.97Zm1.57,2.26c-.1,.11-.19,.22-.28,.35-.92-.28-1.58-.75-1.96-1.41v1.61h-.36v-1.55c-.39,.6-1.04,1.06-1.96,1.39-.07-.09-.16-.19-.26-.31,.95-.24,1.7-.77,2.22-1.58v-.93h-2.14v-.28h2.14v-.39c-.56,.01-1.17,.03-1.81,.04-.01-.09-.04-.18-.07-.28,1.62-.02,2.96-.06,4.02-.12l.06,.29c-.56,.02-1.17,.05-1.84,.07v.4h2.18v.28h-2.18v.87c.53,.89,1.28,1.41,2.24,1.57Z"/>
        <path class="cls-11" d="M123.3,101.57l.3-.18c.3,.29,.61,.62,.92,.98l-.33,.22c-.29-.36-.58-.7-.89-1.03Zm-1-.2l.32,.2c-.37,.4-.72,.76-1.06,1.07-.08-.07-.17-.15-.27-.23,.39-.34,.73-.69,1.01-1.03Zm1.56-2.16h-1.71v1.41h1.71v-1.41Zm-4.18,2.35c.3-.39,.55-.86,.75-1.4h-.72v-.29h.77v-.67c-.21,.01-.43,.03-.68,.04,0-.1-.04-.2-.07-.31,.66-.03,1.23-.08,1.72-.14l.09,.32c-.2,.02-.43,.04-.7,.06v.69h.72v.29h-.72v.59l.19-.16c.2,.17,.41,.36,.63,.57l-.28,.21c-.17-.18-.35-.36-.54-.54v1.87h-.36v-1.86c-.17,.42-.38,.78-.63,1.08-.05-.12-.1-.24-.17-.36Zm2.11-2.63h2.44v2.18h-.37v-.2h-1.71v.2h-.36v-2.18Z"/>
        <path class="cls-11" d="M125.95,101.8c-.05,.19-.15,.36-.28,.53-.12,.17-.28,.32-.47,.45-.02,0-.03,.01-.05,.01,0,0-.02,0-.03-.01h-.01s-.01-.03-.01-.03c0-.02,.01-.03,.03-.05,.18-.12,.32-.25,.44-.41,.12-.15,.2-.32,.25-.49l.02-.08s-.07,.05-.11,.06c-.05,.01-.1,.02-.15,.02-.1,0-.17-.03-.2-.09-.03-.03-.04-.07-.04-.11,0-.02,.01-.05,.01-.07,.02-.07,.06-.13,.13-.18,.07-.05,.15-.08,.26-.08,.07,0,.12,.02,.16,.05,.04,.03,.06,.08,.07,.13,.01,.03,.02,.07,.02,.11v.05c0,.06-.02,.12-.04,.18Z"/>
        <path class="cls-11" d="M77.16,108.27l.27-.15c.18,.21,.34,.4,.46,.57l-.3,.18c-.12-.19-.26-.39-.43-.59Zm1.9-2.29l.23-.22c.25,.16,.5,.32,.74,.49l-.25,.24c-.15-.12-.39-.29-.71-.52Zm-2.97,2.2l.31,.11c-.16,.35-.34,.66-.54,.94-.08-.05-.18-.1-.31-.15,.21-.27,.39-.57,.54-.9Zm1.37-1.13h-1.24v.61h1.24v-.61Zm-1.86-.93h1.19c-.08-.15-.18-.3-.3-.46l.32-.13c.12,.15,.22,.31,.31,.46l-.31,.13h1.26v.28h-2.47v-.28Zm.29,.66h1.91v1.26h-.34v-.1h-.45v1.24c0,.28-.16,.43-.49,.43-.14,0-.29,0-.42,0-.01-.11-.04-.22-.08-.32,.14,.02,.29,.03,.44,.03,.14,0,.21-.06,.21-.19v-1.18h-.45v.1h-.34v-1.26Zm2.04-.03h.5c0-.22,0-.62,.02-1.19h.35c0,.53-.01,.92-.02,1.19h1.41v.31h-.86v2c0,.13,.06,.2,.18,.2h.16c.14,0,.22-.08,.25-.25,.03-.17,.05-.38,.06-.64,.23,.08,.35,.12,.36,.13-.03,.25-.06,.45-.08,.62-.05,.3-.23,.45-.54,.45h-.32c-.28,0-.42-.15-.42-.44v-2.06h-.21c-.02,1.11-.38,1.99-1.09,2.64-.08-.08-.18-.16-.28-.24,.67-.61,1.01-1.41,1.02-2.4h-.49v-.31Z"/>
        <path class="cls-11" d="M84.03,106.8c-.06-.08-.19-.23-.39-.43l.25-.15c.17,.15,.32,.28,.42,.39l-.28,.19Zm-2.1,0c-.12-.14-.26-.28-.4-.43l.25-.15c.15,.13,.3,.26,.43,.39l-.28,.19Zm-.4,1.98l.26-.21c.22,.16,.44,.34,.67,.52l-.28,.23c-.17-.16-.39-.34-.65-.54Zm1.91-3.25h.41c-.07,.14-.15,.27-.23,.39h1.55v.26h-1.73c-.11,.15-.22,.29-.35,.41-.13-.08-.24-.14-.32-.17,.28-.26,.5-.56,.66-.9Zm-2.07,0h.41c-.07,.14-.16,.27-.25,.39h1.4v.26h-1.61c-.19,.22-.41,.42-.66,.61-.06-.07-.14-.14-.24-.23,.4-.28,.72-.63,.94-1.04Zm-.74,2.73h3.02v-.33h.38v.33h1.03v.28h-1.03v.56c0,.35-.21,.53-.63,.53-.24,0-.49,0-.74,0-.02-.1-.04-.22-.07-.36,.26,.02,.49,.03,.71,.03,.24,0,.35-.08,.35-.25v-.51h-3.02v-.28Zm-.16-.69h2.15v-.41h-1.81v-.27h1.81v-.33h.38v.33h1.89v.27h-1.89v.41h2.23v.28h-4.76v-.28Z"/>
        <path class="cls-11" d="M85.37,107.26h2.24v-1.08h-1.86v-.33h4v.33h-1.73v1.08h2.1v.33h-2.1v1.44c0,.19-.04,.33-.12,.41-.09,.1-.26,.15-.51,.15-.14,0-.42,0-.82,0-.02-.13-.04-.26-.08-.38,.36,.02,.62,.03,.76,.03s.24-.02,.29-.07c.05-.04,.07-.13,.07-.26v-1.31h-2.24v-.33Z"/>
        <path class="cls-11" d="M92.18,108.44s-.02,.05-.02,.08c0,.04,.02,.06,.05,.07,.04,.02,.12,.03,.22,.03,.11,0,.21,0,.32,0,.04,0,.06,.01,.06,.04,0,0,0,.02,0,.02v.04s-.06,.06-.1,.06c-.27,0-.55-.01-.84-.01s-.56,0-.84,.01c-.03,0-.05-.01-.05-.04v-.06s.05-.06,.1-.06c.11,0,.22,0,.33,0,.11,0,.19-.01,.24-.03,.05-.02,.09-.07,.12-.15l.74-2.56c-.11,.07-.23,.13-.35,.17-.12,.04-.25,.06-.38,.06-.02,0-.03,0-.04-.02,0,0-.01-.01-.01-.02,0,0,0-.01,0-.02v-.05s.06-.06,.1-.06c.21,0,.41-.06,.61-.19,.2-.12,.37-.28,.51-.46,.02-.02,.04-.04,.07-.04h.02s.03,0,.05,.02c0,0,0,.01,0,.02,0,0,0,.01,0,.02l-.89,3.12Z"/>
        <path class="cls-11" d="M7.04,127.81s-.02,.09-.06,.13c-.04,.04-.08,.06-.13,.06s-.09-.02-.13-.06c-.04-.04-.06-.08-.06-.13v-8.64s.02-.09,.05-.12c.04-.04,.08-.06,.13-.06,.05,0,.09,.02,.13,.06,.04,.04,.06,.08,.06,.12v8.64Z"/>
        <path class="cls-11" d="M13.03,120.45l-1.72,2.95h1.93l-.2-2.95Zm1.81,5.19c-.02,.07-.07,.1-.13,.1-.3-.02-.6-.03-.9-.03h-.15c-.35,0-.71,.01-1.06,.03-.05,0-.08-.02-.09-.07v-.03l.02-.07c.02-.07,.06-.11,.13-.11,.11,0,.21,0,.31-.01,.09,0,.18-.03,.27-.08,.04-.02,.07-.04,.09-.08,.02-.03,.03-.06,.03-.09v-.03l-.11-1.5h-2.11l-.73,1.25c-.04,.08-.06,.15-.06,.22,0,.06,.02,.11,.05,.16,.08,.11,.21,.16,.41,.16,.05,0,.08,.02,.09,.06,0,.01,0,.03,0,.04l-.02,.07c-.02,.07-.07,.1-.13,.1-.28-.01-.55-.02-.82-.03h-.12c-.24,0-.47,0-.72,.03-.03,0-.05,0-.06-.03-.01-.01-.02-.02-.02-.04s0-.02,0-.04l.02-.07c.02-.07,.06-.11,.13-.11,.1,0,.2-.01,.3-.03,.1-.02,.19-.06,.28-.11,.09-.05,.16-.12,.24-.2,.07-.08,.14-.17,.19-.26l3.2-5.47c.04-.07,.1-.1,.17-.1h.09c.07,0,.11,.03,.12,.1l.4,5.73c0,.08,.02,.14,.03,.19,.01,.05,.04,.08,.08,.11,.05,.03,.12,.05,.23,.05,.1,0,.22,0,.34,0,.05,0,.08,.02,.08,.06,0,.01,0,.03,0,.04l-.02,.07Z"/>
        <path class="cls-11" d="M18.42,118.89s.01,.03,.01,.05c0,.02,0,.03-.01,.05-.02,.04-.05,.07-.09,.08l-.9,.36,.7,.37s.04,.04,.04,.06h0s-.02,.08-.05,.11c-.03,.03-.07,.05-.11,.05-.01,0-.02,0-.04,0-.03,0-.05,0-.07-.02l-.56-.47-.16,.85s-.03,.07-.07,.1c-.04,.03-.08,.04-.12,.04s-.08-.01-.1-.04c-.01-.01-.02-.03-.02-.05,0-.01,0-.03,.01-.04l.33-.85-.83,.47s-.05,.02-.08,.02c-.01,0-.02,0-.03,0-.04,0-.06-.02-.08-.05,0-.01-.01-.03-.01-.04,0-.02,0-.04,.02-.06,.02-.03,.05-.06,.09-.08l.9-.37-.69-.36s-.05-.04-.05-.07c0,0,0,0,0,0,0-.03,.02-.07,.05-.1,.03-.03,.07-.05,.11-.06,.01,0,.02,0,.03,0,.03,0,.06,0,.08,.03l.56,.47,.16-.85s.03-.07,.07-.09c.04-.02,.08-.04,.12-.04,.04,0,.08,.01,.1,.03,.02,.01,.02,.03,.02,.05,0,.01,0,.03-.01,.04l-.32,.85,.83-.47s.06-.03,.08-.03c0,0,.02,0,.03,0,.03,0,.06,.03,.07,.06Z"/>
        <path class="cls-11" d="M20.19,127.81s-.02,.09-.06,.13c-.04,.04-.08,.06-.13,.06s-.09-.02-.13-.06c-.04-.04-.06-.08-.06-.13v-8.64s.02-.09,.05-.12c.04-.04,.08-.06,.13-.06s.09,.02,.13,.06c.04,.04,.06,.08,.06,.12v8.64Z"/>
        <line class="cls-2" x1="22.79" y1="122.14" x2="29.09" y2="122.14"/>
        <line class="cls-2" x1="22.79" y1="124.03" x2="29.09" y2="124.03"/>
        <line class="cls-2" x1="32.74" y1="123.08" x2="51.03" y2="123.08"/>
        <path class="cls-11" d="M34.05,122.26s-.02,.09-.06,.13c-.04,.04-.08,.05-.13,.05s-.09-.02-.13-.05c-.04-.04-.06-.08-.06-.13v-8.64s.02-.09,.06-.12c.04-.04,.08-.05,.13-.05,.05,0,.09,.02,.13,.05,.04,.04,.06,.08,.06,.12v8.64Z"/>
        <path class="cls-11" d="M40.05,114.89l-1.72,2.95h1.93l-.2-2.95Zm1.81,5.19c-.02,.07-.07,.1-.13,.1-.3-.02-.6-.03-.9-.03h-.15c-.35,0-.71,.02-1.06,.03-.06,0-.08-.02-.09-.07v-.03l.02-.07c.02-.07,.06-.11,.13-.11,.11,0,.21,0,.31-.01,.09,0,.18-.03,.27-.08,.04-.02,.07-.04,.09-.08,.02-.03,.03-.06,.03-.09v-.03l-.11-1.5h-2.11l-.73,1.25c-.04,.08-.06,.15-.06,.22,0,.06,.02,.11,.05,.16,.07,.11,.21,.16,.41,.16,.05,0,.08,.02,.09,.06,0,.01,0,.03,0,.04l-.02,.07c-.02,.07-.07,.1-.13,.1-.28-.01-.55-.02-.82-.03h-.12c-.24,0-.47,0-.71,.03-.03,0-.05,0-.06-.03-.01-.01-.02-.02-.02-.04,0-.01,0-.02,0-.04l.02-.07c.02-.07,.06-.11,.13-.11,.1,0,.2-.01,.3-.03,.1-.02,.19-.06,.28-.11,.09-.05,.16-.12,.24-.2,.07-.08,.13-.17,.19-.26l3.19-5.47c.04-.07,.1-.1,.17-.1h.09c.07,0,.11,.03,.12,.1l.4,5.73c0,.08,.02,.14,.03,.19,.01,.05,.04,.08,.08,.11,.05,.03,.12,.05,.23,.05,.1,0,.22,0,.34,0,.05,0,.08,.02,.08,.06,0,.01,0,.03,0,.04l-.02,.07Z"/>
        <path class="cls-11" d="M43.37,122.26s-.02,.09-.06,.13c-.04,.04-.08,.05-.13,.05s-.09-.02-.13-.05c-.04-.04-.06-.08-.06-.13v-8.64s.02-.09,.05-.12c.04-.04,.08-.05,.13-.05,.05,0,.09,.02,.13,.05,.04,.04,.06,.08,.06,.12v8.64Z"/>
        <path class="cls-11" d="M50.15,115.84c-.03,.09-.06,.18-.1,.27-.04,.09-.1,.18-.16,.25-.06,.08-.14,.14-.22,.19-.08,.05-.17,.07-.28,.07-.09,0-.17-.02-.23-.05-.07-.03-.11-.08-.15-.13-.03-.05-.05-.12-.06-.19v-.02c0-.07,.02-.14,.05-.21,.06-.14,.12-.29,.18-.43,.06-.14,.11-.29,.15-.43,.03-.1,.05-.19,.06-.28,0-.03,0-.06,0-.09,0-.06,0-.11-.02-.16-.04-.12-.12-.17-.24-.17-.2,0-.37,.06-.51,.18-.14,.12-.27,.28-.37,.48l-.39,1.34c-.02,.06-.05,.1-.09,.12-.05,.03-.09,.04-.14,.04s-.08-.01-.11-.04c-.02-.02-.03-.04-.03-.07,0-.01,0-.03,0-.05l.44-1.52c.03-.11,.05-.2,.05-.28v-.06c-.01-.09-.07-.14-.16-.14s-.17,.06-.23,.19c-.06,.13-.11,.28-.17,.48-.01,.03-.04,.05-.08,.05h-.07s-.04-.01-.04-.04v-.02c.02-.07,.05-.15,.07-.25,.03-.09,.07-.18,.11-.25,.05-.08,.1-.15,.17-.2,.07-.05,.15-.08,.25-.08,.15,0,.26,.04,.35,.12,.08,.08,.13,.18,.14,.29,.11-.12,.23-.22,.37-.3,.14-.07,.3-.11,.48-.11,.11,0,.21,.02,.3,.05,.09,.04,.16,.09,.21,.17,.05,.08,.08,.17,.08,.27h0c0,.12-.02,.22-.05,.33-.04,.15-.09,.29-.15,.44-.06,.15-.12,.29-.18,.44-.06,.14-.09,.25-.09,.34s.05,.14,.13,.14c.07,0,.13-.02,.19-.06,.06-.04,.11-.09,.15-.15,.04-.06,.08-.13,.12-.21,.03-.08,.06-.17,.09-.26,.01-.03,.04-.04,.07-.04h.07s.04,.01,.04,.03h0Z"/>
        <path class="cls-9" d="M36.64,133.37s-.02,.09-.06,.12c-.04,.04-.08,.05-.13,.05s-.09-.02-.13-.05c-.04-.04-.06-.08-.06-.12v-8.64s.02-.09,.05-.12c.04-.04,.08-.05,.13-.06,.05,0,.09,.02,.13,.06,.04,.04,.06,.08,.06,.12v8.64Z"/>
        <path class="cls-9" d="M42.64,126.01l-1.72,2.95h1.93l-.2-2.95Zm1.81,5.19c-.02,.07-.07,.1-.13,.1-.3-.02-.6-.03-.9-.03h-.15c-.35,0-.71,.02-1.06,.03-.05,0-.08-.02-.09-.07v-.03l.02-.07c.02-.07,.06-.11,.13-.11,.11,0,.21,0,.31-.01s.18-.04,.27-.08c.04-.02,.07-.04,.09-.08,.02-.03,.03-.06,.03-.09v-.03l-.11-1.5h-2.11l-.73,1.25c-.04,.08-.06,.15-.06,.22,0,.06,.02,.11,.05,.16,.08,.11,.21,.16,.41,.16,.05,0,.08,.02,.09,.06,0,.01,0,.03,0,.04l-.02,.07c-.03,.07-.07,.1-.13,.1-.28-.01-.55-.02-.82-.03h-.12c-.24,0-.47,0-.71,.03-.03,0-.05,0-.06-.03-.01-.01-.02-.02-.02-.04s0-.02,0-.04l.02-.07c.02-.07,.06-.11,.13-.11,.1,0,.2-.01,.3-.03s.19-.06,.28-.11c.09-.05,.16-.12,.23-.2,.07-.08,.14-.17,.19-.26l3.2-5.47c.04-.07,.1-.1,.17-.1h.09c.07,0,.11,.03,.12,.1l.4,5.73c0,.08,.02,.14,.03,.19,.01,.05,.04,.08,.08,.11,.05,.03,.12,.05,.23,.05,.1,0,.22,0,.34,0,.05,0,.08,.02,.08,.06,0,.01,0,.03,0,.04l-.02,.07Z"/>
        <path class="cls-9" d="M45.96,133.37s-.02,.09-.06,.12c-.04,.04-.08,.05-.13,.05s-.09-.02-.13-.05c-.04-.04-.06-.08-.06-.12v-8.64s.02-.09,.05-.12c.04-.04,.08-.05,.13-.06,.05,0,.09,.02,.13,.06,.04,.04,.06,.08,.06,.12v8.64Z"/>
        <path class="cls-11" d="M9.71,139.09h-1.93v1.05h1.93v-1.05Zm0,2.62v-1.05h-1.93v1.05h1.93Zm1.44-3.06h2.71v4.52c0,.64-.32,.96-.95,.96-.23,0-.53,0-.9,0-.03-.21-.06-.43-.11-.65,.38,.04,.67,.06,.86,.06,.34,0,.51-.17,.51-.52v-3.8h-1.54v6.25h-.58v-6.81Zm-1.88,3.8c.63,.72,1.16,1.36,1.58,1.92l-.49,.35c-.19-.26-.39-.52-.59-.78-.76,.34-1.4,.64-1.92,.89-.17,.09-.33,.2-.47,.32l-.42-.49c.16-.15,.24-.34,.24-.56v-5.52h3.1v3.86h-.58v-.19h-1.93v1.97c.5-.2,1.05-.44,1.65-.7-.19-.25-.39-.51-.6-.75l.45-.31Z"/>
        <path class="cls-10" d="M19.58,145.94s-.02,.09-.06,.13c-.04,.04-.08,.05-.13,.05s-.09-.02-.13-.05c-.04-.04-.06-.08-.06-.13v-8.64s.02-.09,.05-.13c.04-.04,.08-.05,.13-.05,.05,0,.09,.02,.13,.05,.04,.04,.06,.08,.06,.13v8.64Z"/>
        <path class="cls-10" d="M25.58,138.58l-1.72,2.95h1.93l-.2-2.95Zm1.81,5.19c-.02,.07-.07,.1-.13,.1-.3-.02-.6-.03-.9-.03h-.15c-.35,0-.71,.01-1.06,.03-.05,0-.08-.02-.09-.07v-.03l.02-.07c.02-.07,.06-.11,.13-.11,.11,0,.21,0,.31-.01,.09,0,.18-.03,.27-.08,.04-.02,.07-.04,.09-.08,.02-.03,.03-.06,.03-.09v-.03l-.11-1.5h-2.11l-.73,1.25c-.04,.08-.06,.15-.06,.22,0,.06,.02,.11,.05,.16,.08,.11,.21,.16,.41,.16,.05,0,.08,.02,.09,.06,0,.01,0,.03,0,.04l-.02,.07c-.02,.07-.07,.1-.13,.1-.28-.01-.55-.02-.82-.03h-.12c-.23,0-.47,0-.71,.03-.03,0-.05,0-.06-.03-.01-.01-.02-.02-.02-.04s0-.02,.01-.04l.02-.07c.02-.07,.06-.11,.13-.11,.1,0,.2-.01,.3-.03s.19-.06,.28-.11c.09-.05,.16-.12,.23-.2,.07-.08,.13-.16,.19-.26l3.2-5.47c.04-.07,.1-.1,.17-.1h.09c.07,0,.11,.03,.12,.1l.4,5.73c0,.08,.02,.14,.03,.19,.01,.05,.04,.08,.08,.11,.05,.03,.12,.05,.23,.05s.22,0,.34,0c.05,0,.08,.02,.08,.06,0,.01,0,.03,0,.04l-.02,.07Z"/>
        <path class="cls-10" d="M30.96,137.02s.01,.03,.01,.05,0,.03-.01,.05c-.02,.04-.05,.07-.09,.08l-.91,.36,.7,.37s.04,.04,.04,.06h0s-.02,.08-.05,.11c-.03,.03-.07,.05-.11,.05-.01,0-.02,0-.04,0-.03,0-.05,0-.07-.02l-.56-.47-.16,.85s-.03,.07-.07,.1c-.04,.03-.08,.04-.12,.04s-.08-.01-.1-.04c-.02-.01-.02-.03-.02-.05,0-.01,0-.03,.01-.04l.33-.85-.83,.47s-.05,.02-.08,.02c-.01,0-.02,0-.03,0-.04,0-.06-.02-.08-.05,0-.01-.01-.03-.01-.04,0-.02,0-.04,.02-.06,.02-.03,.05-.06,.09-.08l.9-.37-.69-.36s-.05-.04-.05-.07c0,0,0,0,0,0,0-.03,.01-.07,.05-.1,.03-.03,.07-.05,.11-.06,.01,0,.02,0,.03,0,.03,0,.06,0,.08,.02l.56,.47,.16-.85s.03-.07,.07-.09,.08-.04,.12-.04,.08,.01,.1,.04c.01,.01,.02,.03,.02,.05,0,.01,0,.03-.01,.04l-.32,.85,.83-.47s.06-.02,.09-.02c0,0,.02,0,.03,0,.03,0,.06,.03,.07,.06Z"/>
        <path class="cls-10" d="M32.73,145.94s-.02,.09-.06,.13c-.04,.04-.08,.05-.13,.05s-.09-.02-.13-.05c-.04-.04-.06-.08-.06-.13v-8.64s.02-.09,.06-.13c.04-.04,.08-.05,.13-.05,.05,0,.09,.02,.13,.05,.04,.04,.06,.08,.06,.13v8.64Z"/>
        <line class="cls-4" x1="35.34" y1="140.26" x2="41.64" y2="140.26"/>
        <line class="cls-4" x1="35.34" y1="142.15" x2="41.64" y2="142.15"/>
        <path class="cls-10" d="M44.62,145.94s-.02,.09-.06,.13c-.04,.04-.08,.05-.13,.05s-.09-.02-.13-.05c-.04-.04-.06-.08-.06-.13v-8.64s.02-.09,.05-.13c.04-.04,.08-.05,.13-.05s.09,.02,.13,.05c.04,.04,.06,.08,.06,.13v8.64Z"/>
        <path class="cls-10" d="M50.61,138.58l-1.72,2.95h1.93l-.2-2.95Zm1.81,5.19c-.02,.07-.07,.1-.13,.1-.3-.02-.6-.03-.9-.03h-.15c-.35,0-.71,.01-1.06,.03-.05,0-.08-.02-.09-.07v-.03l.02-.07c.02-.07,.06-.11,.13-.11,.11,0,.21,0,.31-.01,.09,0,.18-.03,.27-.08,.04-.02,.07-.04,.09-.08,.02-.03,.03-.06,.03-.09v-.03l-.11-1.5h-2.11l-.73,1.25c-.04,.08-.06,.15-.06,.22,0,.06,.02,.11,.05,.16,.08,.11,.21,.16,.41,.16,.05,0,.08,.02,.09,.06,0,.01,0,.03,0,.04l-.02,.07c-.02,.07-.07,.1-.13,.1-.28-.01-.55-.02-.82-.03h-.12c-.23,0-.47,0-.71,.03-.03,0-.05,0-.06-.03-.01-.01-.02-.02-.02-.04s0-.02,0-.04l.02-.07c.02-.07,.06-.11,.13-.11,.1,0,.2-.01,.3-.03s.19-.06,.28-.11c.09-.05,.16-.12,.23-.2,.07-.08,.14-.16,.19-.26l3.2-5.47c.04-.07,.1-.1,.17-.1h.09c.07,0,.11,.03,.12,.1l.4,5.73c0,.08,.02,.14,.03,.19,.01,.05,.04,.08,.08,.11,.05,.03,.12,.05,.23,.05s.22,0,.34,0c.05,0,.08,.02,.08,.06,0,.01,0,.03,0,.04l-.02,.07Z"/>
        <path class="cls-10" d="M53.93,145.94s-.02,.09-.06,.13c-.04,.04-.08,.05-.13,.05s-.09-.02-.13-.05c-.04-.04-.06-.08-.06-.13v-8.64s.02-.09,.06-.13c.04-.04,.08-.05,.13-.05,.05,0,.09,.02,.13,.05,.04,.04,.06,.08,.06,.13v8.64Z"/>
        <path class="cls-10" d="M60.71,139.53c-.03,.09-.06,.18-.1,.27-.04,.09-.1,.18-.16,.25-.06,.08-.14,.14-.22,.19-.08,.05-.18,.07-.28,.07-.09,0-.16-.02-.23-.05-.06-.03-.11-.08-.14-.13-.03-.06-.05-.12-.06-.19v-.02c0-.07,.02-.14,.05-.21,.06-.14,.12-.29,.18-.43,.06-.14,.11-.29,.15-.43,.03-.1,.04-.19,.06-.28,0-.03,0-.05,0-.09,0-.06,0-.11-.02-.16-.04-.11-.12-.17-.24-.17-.2,0-.37,.06-.51,.18-.14,.12-.27,.28-.37,.48l-.39,1.34c-.01,.05-.05,.1-.09,.12s-.09,.04-.14,.04-.08-.01-.11-.04c-.02-.02-.03-.04-.03-.07,0-.01,0-.03,0-.05l.44-1.52c.03-.11,.04-.2,.04-.28v-.06c-.01-.09-.07-.14-.16-.14s-.17,.06-.23,.19c-.06,.13-.11,.28-.17,.48-.02,.03-.04,.05-.08,.05h-.07s-.04-.01-.04-.04v-.02c.02-.07,.05-.16,.07-.25,.03-.09,.07-.18,.11-.25,.05-.08,.1-.15,.17-.2,.07-.05,.15-.08,.25-.08,.15,0,.26,.04,.35,.12,.08,.08,.13,.18,.14,.29,.11-.13,.23-.22,.37-.3,.14-.07,.3-.11,.48-.11,.11,0,.21,.02,.3,.05,.09,.04,.16,.09,.21,.17,.05,.08,.08,.17,.08,.27h0c0,.12-.02,.22-.05,.33-.04,.15-.09,.29-.15,.44-.05,.14-.11,.29-.18,.44-.06,.14-.09,.25-.09,.34s.04,.14,.13,.14c.07,0,.13-.02,.19-.06,.06-.04,.11-.08,.15-.15,.04-.06,.09-.13,.12-.21,.04-.08,.06-.17,.09-.26,.02-.03,.04-.04,.07-.04h.07s.04,.01,.04,.03h0Z"/>
        <line class="cls-3" x1="62.11" y1="138.76" x2="65.64" y2="138.76"/>
        <path class="cls-10" d="M68.2,139.89s-.02,.05-.02,.08c0,.04,.02,.06,.05,.07,.04,.02,.12,.03,.22,.03,.11,0,.21,0,.32,0,.04,0,.06,.01,.06,.04,0,0,0,.02,0,.02v.04s-.06,.06-.1,.06c-.27,0-.55-.01-.84-.01s-.56,0-.84,.01c-.03,0-.05-.01-.05-.04v-.06s.05-.06,.1-.06c.11,0,.22,0,.33,0,.11,0,.19-.02,.24-.03,.05-.02,.09-.07,.12-.15l.74-2.56c-.11,.07-.23,.13-.35,.17-.12,.04-.25,.06-.38,.06-.02,0-.03,0-.04-.01,0,0-.01-.01-.01-.02,0,0,0-.01,0-.02v-.05s.06-.06,.1-.06c.21,0,.41-.06,.61-.19,.2-.12,.37-.28,.51-.46,.02-.02,.04-.04,.07-.04h.02s.03,0,.04,.02c0,0,0,.01,0,.02,0,0,0,.01,0,.02l-.89,3.12Z"/>
      </g>
    </g>
  </g>
</svg>