<?xml version="1.0" encoding="UTF-8"?>
<svg id="_图层_1" data-name="图层 1" xmlns="http://www.w3.org/2000/svg" xmlns:xlink="http://www.w3.org/1999/xlink" viewBox="0 0 255 54">
  <defs>
    <style>
      .cls-1 {
        fill: #fff;
      }

      .cls-2 {
        clip-path: url(#clippath-2);
      }

      .cls-3 {
        clip-path: url(#clippath-1);
      }

      .cls-4 {
        stroke: #000;
        stroke-linecap: round;
        stroke-miterlimit: 10;
        stroke-width: .36px;
      }

      .cls-4, .cls-5 {
        fill: none;
      }

      .cls-6 {
        clip-path: url(#clippath);
      }

      .cls-7 {
        fill: blue;
      }

      .cls-7, .cls-8, .cls-9 {
        fill-rule: evenodd;
      }

      .cls-10 {
        clip-path: url(#clippath-3);
      }

      .cls-8 {
        fill: green;
      }
    </style>
    <clipPath id="clippath">
      <rect class="cls-5" x="-143" y="-362" width="540" height="780"/>
    </clipPath>
    <clipPath id="clippath-1">
      <rect class="cls-5" x="-143" y="-362" width="540" height="780"/>
    </clipPath>
    <clipPath id="clippath-2">
      <rect class="cls-5" x="5.56" y="5.92" width="243" height="44.16"/>
    </clipPath>
    <clipPath id="clippath-3">
      <rect class="cls-5" x="5.56" y="5.92" width="242.99" height="44.16"/>
    </clipPath>
  </defs>
  <g class="cls-6">
    <g class="cls-3">
      <rect class="cls-1" x="-143" y="-362" width="540" height="780"/>
    </g>
    <g class="cls-2">
      <g class="cls-10">
        <path class="cls-9" d="M8.6,10.82h-1.93v1.04h1.93v-1.04Zm0,2.62v-1.05h-1.93v1.05h1.93Zm1.44-3.06h2.71v4.51c0,.64-.32,.95-.95,.95-.23,0-.53,0-.9,0-.03-.21-.06-.43-.11-.65,.38,.04,.67,.06,.86,.06,.34,0,.51-.17,.51-.52v-3.79h-1.54v6.23h-.58v-6.79Zm-1.88,3.79c.63,.72,1.16,1.36,1.58,1.92l-.49,.35c-.19-.26-.39-.52-.59-.78-.76,.34-1.4,.64-1.92,.89-.17,.09-.33,.2-.47,.32l-.42-.49c.16-.15,.24-.34,.24-.56v-5.51h3.1v3.85h-.58v-.19h-1.93v1.97c.5-.2,1.05-.44,1.65-.7-.19-.25-.4-.5-.6-.75l.45-.31Z"/>
        <path class="cls-9" d="M15.5,15.57c-.09,.33-.23,.65-.44,.95-.21,.3-.46,.57-.76,.79-.02,.01-.05,.02-.07,.02-.02,0-.04,0-.05-.02v-.02s-.03-.03-.03-.04c0-.03,.02-.06,.05-.08,.28-.21,.51-.45,.7-.73,.19-.27,.32-.56,.41-.87l.03-.14s-.11,.08-.18,.11c-.07,.03-.15,.04-.24,.04-.16,0-.27-.05-.33-.15-.04-.06-.05-.12-.05-.2,0-.04,0-.08,.02-.13,.03-.12,.1-.23,.2-.33,.11-.1,.24-.15,.41-.15,.11,0,.2,.03,.26,.09,.06,.06,.1,.14,.12,.23,.01,.06,.02,.12,.02,.2v.1c-.01,.11-.03,.22-.05,.32Z"/>
        <path class="cls-9" d="M20.97,12.32h1.9v-1.25h.59v1.25h1.95v.52h-1.97c-.01,.2-.04,.39-.08,.57,.72,.56,1.46,1.16,2.22,1.8l-.47,.47c-.59-.58-1.23-1.17-1.92-1.75-.33,.79-1.01,1.42-2.02,1.89-.14-.18-.27-.35-.41-.5,1.33-.58,2.03-1.41,2.1-2.49h-1.88v-.52Zm4.89-1.5h-5.35v5.3h5.35v-5.3Zm-5.96-.56h6.58v6.88h-.62v-.48h-5.35v.48h-.62v-6.88Z"/>
        <path class="cls-9" d="M28.05,10.27l.42-.37c.43,.36,.84,.73,1.23,1.1l-.47,.43c-.38-.4-.77-.79-1.18-1.16Zm3.11,3.4l.42-.37c.49,.44,.94,.88,1.34,1.3l-.48,.42c-.4-.45-.82-.9-1.29-1.36Zm-3.66-1.92h2.89c.07-.61,.11-1.27,.11-1.98h.66c0,.74-.04,1.4-.11,1.98h3.27c-.03,1.54-.08,2.8-.14,3.8-.05,.93-.56,1.39-1.52,1.39-.4,0-.87-.01-1.42-.04-.02-.19-.06-.43-.12-.69,.48,.06,.96,.1,1.42,.1,.62,0,.94-.29,.97-.88,.07-.97,.12-2.01,.14-3.1h-2.69c-.38,2.19-1.43,3.82-3.16,4.89-.14-.17-.3-.36-.47-.55,1.6-.91,2.58-2.36,2.96-4.34h-2.8v-.58Z"/>
        <path class="cls-9" d="M37.57,15.11c-.03,.13-.11,.25-.23,.34-.12,.09-.25,.14-.38,.14s-.24-.05-.31-.15c-.05-.06-.07-.13-.07-.21,0-.03,0-.08,.02-.13,.03-.13,.1-.24,.23-.34,.12-.09,.25-.14,.39-.14s.24,.04,.32,.14c.04,.07,.06,.14,.06,.21,0,.04,0,.08-.02,.12Zm.76-2.92c-.04,.13-.11,.24-.23,.34-.12,.09-.24,.14-.38,.14s-.25-.05-.32-.14c-.05-.06-.07-.13-.07-.22,0-.03,0-.07,.02-.11,.03-.13,.11-.24,.23-.34,.12-.09,.25-.14,.39-.14s.24,.05,.32,.14c.05,.07,.07,.14,.07,.22,0,.04,0,.07-.02,.12Z"/>
        <path class="cls-9" d="M47.16,10.31l-1.72,2.95h1.93l-.2-2.95Zm1.82,5.18c-.02,.07-.07,.1-.13,.1-.3-.02-.6-.03-.9-.03h-.15c-.35,0-.71,.01-1.06,.03-.06,0-.08-.02-.09-.07v-.03l.02-.07c.02-.07,.06-.11,.13-.1,.11,0,.21,0,.31-.01,.09,0,.18-.03,.27-.08,.04-.02,.07-.04,.09-.08,.02-.03,.03-.06,.03-.09v-.03l-.11-1.5h-2.11l-.73,1.25c-.04,.08-.06,.15-.06,.21,0,.06,.02,.11,.05,.16,.08,.11,.21,.16,.41,.16,.06,0,.08,.02,.09,.06,0,.01,0,.03,0,.04l-.02,.07c-.02,.07-.07,.1-.13,.1-.28-.01-.55-.02-.82-.03h-.12c-.24,0-.47,0-.72,.03-.03,0-.05,0-.06-.03-.01-.01-.02-.02-.02-.03s0-.02,0-.04l.02-.07c.02-.07,.06-.11,.13-.1,.1,0,.2-.01,.3-.03,.1-.02,.19-.06,.28-.11s.16-.12,.24-.2c.07-.08,.13-.16,.19-.26l3.2-5.46c.04-.07,.1-.1,.17-.1h.09c.07,0,.11,.03,.12,.1l.4,5.71c0,.08,.02,.14,.03,.19,.01,.05,.04,.08,.08,.11,.05,.03,.12,.05,.23,.05,.1,0,.22,0,.34,0,.05,0,.08,.02,.08,.06,0,.01,0,.03,0,.04l-.02,.07Z"/>
        <path class="cls-9" d="M58.08,11.69c.26,.43,.49,.76,.71,.98,.22,.22,.44,.39,.66,.5l-.07,.2c-.35,.14-.71,.32-1.07,.54-.36,.22-.82,.54-1.36,.97h-.35c.5-.6,.96-1.05,1.39-1.37h-7.32l.16-.45h7.32c-.13-.29-.22-.5-.26-.64s-.09-.38-.15-.73h.35Z"/>
        <path class="cls-9" d="M63.97,15.11c-.03,.13-.1,.25-.23,.34-.12,.09-.25,.14-.39,.14s-.24-.05-.31-.15c-.05-.06-.07-.13-.07-.21,0-.03,0-.08,.02-.13,.03-.13,.11-.24,.23-.34,.12-.09,.25-.14,.38-.14s.24,.04,.32,.14c.04,.07,.06,.14,.06,.21,0,.04,0,.08-.02,.12Z"/>
        <path class="cls-9" d="M66.74,15.11c-.03,.13-.11,.25-.23,.34-.12,.09-.25,.14-.38,.14s-.24-.05-.31-.15c-.05-.06-.07-.13-.07-.21,0-.03,0-.08,.02-.13,.03-.13,.1-.24,.23-.34,.12-.09,.25-.14,.39-.14s.24,.04,.32,.14c.04,.07,.06,.14,.06,.21,0,.04,0,.08-.02,.12Z"/>
        <path class="cls-9" d="M69.51,15.11c-.03,.13-.11,.25-.23,.34-.12,.09-.25,.14-.38,.14s-.24-.05-.31-.15c-.05-.06-.07-.13-.07-.21,0-.03,0-.08,.02-.13,.03-.13,.11-.24,.23-.34,.12-.09,.25-.14,.39-.14s.24,.04,.32,.14c.04,.07,.06,.14,.06,.21,0,.04,0,.08-.02,.12Z"/>
        <polygon class="cls-9" points="102.33 12.93 99.58 14.65 99.13 14.65 100.98 13.16 75.77 13.16 75.77 12.71 100.98 12.71 99.13 11.22 99.58 11.22 102.33 12.93"/>
        <path class="cls-9" d="M82.87,6.62l.2-.22c.26,.13,.53,.28,.79,.44l-.23,.25c-.24-.16-.5-.32-.76-.47Zm-1.58,1.53h-1.04v.68h1.04v-.68Zm-1.81,1.74c.61-.07,1.42-.18,2.4-.33,0,.12,0,.23,.01,.32-.72,.09-1.5,.21-2.32,.34l-.1-.33Zm.42-2.03h1.74v1.46h-.35v-.19h-1.04v.29h-.35v-1.56Zm1.57,2.42c.4-.24,.75-.51,1.06-.82-.21-.49-.33-1.16-.37-2h-2.6v-.31h2.59c-.01-.23-.03-.47-.03-.73h.4c0,.25,0,.49,.01,.73h1.71v.31h-1.7c.02,.69,.11,1.26,.27,1.7,.31-.38,.56-.8,.74-1.27l.38,.14c-.26,.57-.58,1.06-.96,1.49,.15,.27,.32,.46,.52,.57,.19,.11,.31,.06,.36-.14,.05-.21,.09-.42,.11-.64,.13,.05,.26,.09,.37,.12-.06,.32-.12,.56-.17,.73-.07,.22-.21,.33-.44,.33-.19,0-.37-.06-.55-.18-.18-.13-.33-.3-.47-.51-.28,.28-.6,.52-.94,.73-.07-.07-.17-.15-.28-.25Z"/>
        <path class="cls-8" d="M84.41,7.58c.51-.34,.92-.74,1.24-1.19l.35,.18c-.37,.5-.84,.94-1.39,1.33-.06-.11-.12-.21-.19-.32Zm2-.87h2.51v.31h-2.51v-.31Zm-2.03,2.2c.5-.35,.95-.85,1.36-1.49l.34,.18c-.17,.25-.34,.48-.53,.69v2.21h-.4v-1.78c-.19,.19-.39,.36-.6,.52-.05-.12-.11-.23-.17-.34Zm1.75-.94h3.06v.31h-.94v1.63c0,.35-.2,.52-.6,.52-.27,0-.55,0-.83,0-.02-.11-.04-.24-.07-.38,.25,.02,.5,.03,.76,.03,.22,0,.33-.09,.33-.28v-1.52h-1.71v-.31Z"/>
        <path class="cls-8" d="M90.29,7.46l.29,.21c-.33,.33-.65,.62-.97,.89-.08-.08-.17-.16-.28-.23,.34-.25,.66-.54,.96-.86Zm2.45,.2l.27-.2c.41,.32,.75,.6,1.01,.85l-.3,.23c-.31-.3-.64-.6-.98-.88Zm-.06,1.2h-1.82c.24,.3,.52,.54,.84,.71,.39-.2,.71-.43,.99-.71Zm-3.28-1.94h2.2c-.1-.16-.19-.29-.28-.41l.35-.15c.16,.21,.27,.37,.33,.47l-.19,.08h2.19v.3h-1.56v1.16h-.37v-1.16h-.78v1.17h-.37v-1.17h-1.53v-.3Zm.47,1.94v-.29h3.28v.29c-.31,.35-.67,.64-1.1,.89,.52,.22,1.21,.35,2.05,.41-.12,.14-.21,.26-.28,.35-.86-.1-1.58-.29-2.14-.57-.54,.24-1.25,.44-2.13,.6-.08-.11-.16-.21-.25-.31,.84-.13,1.52-.29,2.03-.49-.35-.23-.65-.52-.91-.87h-.55Z"/>
        <path class="cls-8" d="M97.87,7.11h-1.22c-.16,.2-.33,.4-.51,.58h1.2c.22-.23,.4-.42,.54-.58Zm-1.55,1.84h.75c.03-.14,.04-.46,.04-.97h-.79v.97Zm1.95-.97h-.81c0,.35,0,.68-.03,.97h.84v-.97Zm-4.07,.64c.19-.05,.39-.1,.61-.16v-.97h-.57v-.28h.57v-.78h.37v.78h.54v.28h-.54v.86c.16-.05,.33-.1,.5-.16,0,.14,0,.25,0,.33-.03,0-.2,.06-.51,.16v1.34c0,.28-.15,.43-.44,.44-.14,0-.3,0-.48,0-.02-.12-.04-.23-.06-.35,.18,.02,.32,.02,.44,.02s.17-.06,.17-.17v-1.18c-.16,.05-.35,.11-.56,.18l-.05-.35Zm1.37,.33h.42v-1.13c-.08-.05-.17-.12-.28-.19,.42-.38,.76-.8,1.01-1.26l.39,.06c-.08,.13-.16,.26-.25,.39h1.46v.28c-.12,.13-.31,.33-.57,.58h.86v1.26h.39v.29h-1.5c.26,.48,.75,.79,1.48,.92-.12,.12-.22,.24-.29,.34-.66-.19-1.13-.54-1.41-1.04-.18,.43-.72,.79-1.61,1.07-.07-.1-.16-.2-.27-.3,.93-.24,1.46-.56,1.6-.99h-1.44v-.29Z"/>
        <path class="cls-9" d="M108.3,15.11c-.03,.13-.11,.25-.23,.34-.12,.09-.25,.14-.39,.14-.13,0-.23-.05-.3-.15-.05-.06-.08-.13-.08-.21,0-.03,.01-.08,.02-.13,.03-.13,.11-.24,.23-.34,.12-.09,.25-.14,.38-.14,.14,0,.25,.04,.32,.14,.04,.07,.06,.14,.06,.21,0,.04,0,.08,0,.12Z"/>
        <path class="cls-9" d="M111.07,15.11c-.03,.13-.11,.25-.23,.34-.12,.09-.25,.14-.38,.14-.14,0-.24-.05-.31-.15-.05-.06-.07-.13-.07-.21,0-.03,0-.08,.01-.13,.03-.13,.11-.24,.23-.34,.12-.09,.25-.14,.38-.14,.14,0,.25,.04,.32,.14,.04,.07,.06,.14,.06,.21,0,.04,0,.08,0,.12Z"/>
        <path class="cls-9" d="M113.84,15.11c-.03,.13-.11,.25-.23,.34-.12,.09-.25,.14-.38,.14-.14,0-.24-.05-.31-.15-.05-.06-.07-.13-.07-.21,0-.03,0-.08,.02-.13,.03-.13,.1-.24,.22-.34,.12-.09,.25-.14,.39-.14,.13,0,.24,.04,.31,.14,.05,.07,.07,.14,.07,.21,0,.04-.01,.08-.02,.12Z"/>
        <polygon class="cls-9" points="146.65 12.93 143.9 14.65 143.45 14.65 145.3 13.16 120.1 13.16 120.1 12.71 145.3 12.71 143.45 11.22 143.9 11.22 146.65 12.93"/>
        <path class="cls-9" d="M127.2,6.62l.2-.22c.26,.13,.53,.28,.8,.44l-.24,.25c-.24-.16-.49-.32-.76-.47Zm-1.58,1.53h-1.04v.68h1.04v-.68Zm-1.81,1.74c.62-.07,1.42-.18,2.41-.33,0,.12,0,.23,.01,.32-.72,.09-1.5,.21-2.32,.34l-.1-.33Zm.42-2.03h1.74v1.46h-.35v-.19h-1.04v.29h-.35v-1.56Zm1.57,2.42c.4-.24,.75-.51,1.05-.82-.2-.49-.32-1.16-.36-2h-2.6v-.31h2.58c0-.23-.02-.47-.03-.73h.39c.01,.25,.01,.49,.02,.73h1.71v.31h-1.7c.02,.69,.11,1.26,.27,1.7,.31-.38,.55-.8,.73-1.27l.38,.14c-.26,.57-.58,1.06-.95,1.49,.14,.27,.31,.46,.51,.57,.2,.11,.32,.06,.36-.14,.05-.21,.09-.42,.11-.64,.13,.05,.26,.09,.37,.12-.06,.32-.11,.56-.17,.73-.07,.22-.21,.33-.44,.33-.19,0-.37-.06-.54-.18-.18-.13-.34-.3-.47-.51-.28,.28-.6,.52-.94,.73-.08-.07-.17-.15-.28-.25Z"/>
        <path class="cls-7" d="M132.13,9.48h-.37v-2.55h.37v2.55Zm.69-3.02h.39v3.45c0,.35-.19,.53-.56,.53-.17,0-.43,0-.78,0-.02-.13-.04-.25-.08-.38,.33,.02,.58,.04,.73,.04,.2,0,.3-.09,.3-.28v-3.36Zm-3.28,2.19l.23-.23c.25,.17,.47,.35,.67,.51,.22-.32,.37-.67,.46-1.05h-1.09c-.25,.5-.56,.95-.93,1.35-.07-.14-.14-.25-.19-.33,.48-.56,.86-1.23,1.12-1.98h-.96v-.3h2.7v.3h-1.34c-.08,.23-.16,.45-.26,.66h1.34v.31c-.26,1.14-.95,2.02-2.08,2.64-.08-.08-.18-.17-.3-.25,.55-.31,.99-.66,1.33-1.07-.19-.16-.42-.34-.7-.55Z"/>
        <path class="cls-7" d="M134.61,7.46l.29,.21c-.33,.33-.65,.62-.97,.89-.08-.08-.17-.16-.28-.23,.34-.25,.66-.54,.96-.86Zm2.45,.2l.27-.2c.41,.32,.75,.6,1.01,.85l-.3,.23c-.31-.3-.63-.6-.98-.88Zm-.06,1.2h-1.82c.24,.3,.51,.54,.83,.71,.39-.2,.72-.43,.99-.71Zm-3.28-1.94h2.21c-.1-.16-.2-.29-.28-.41l.35-.15c.16,.21,.26,.37,.33,.47l-.19,.08h2.19v.3h-1.56v1.16h-.37v-1.16h-.77v1.17h-.38v-1.17h-1.53v-.3Zm.47,1.94v-.29h3.28v.29c-.3,.35-.67,.64-1.1,.89,.52,.22,1.21,.35,2.05,.41-.12,.14-.21,.26-.28,.35-.86-.1-1.58-.29-2.14-.57-.54,.24-1.25,.44-2.13,.6-.08-.11-.16-.21-.24-.31,.84-.13,1.51-.29,2.02-.49-.35-.23-.65-.52-.9-.87h-.56Z"/>
        <path class="cls-7" d="M142.2,7.11h-1.23c-.15,.2-.33,.4-.51,.58h1.2c.22-.23,.4-.42,.54-.58Zm-1.55,1.84h.75c.03-.14,.04-.46,.04-.97h-.79v.97Zm1.94-.97h-.81c0,.35,0,.68-.03,.97h.84v-.97Zm-4.07,.64c.19-.05,.39-.1,.61-.16v-.97h-.57v-.28h.57v-.78h.37v.78h.54v.28h-.54v.86c.16-.05,.32-.1,.5-.16,0,.14,0,.25,0,.33-.03,0-.2,.06-.51,.16v1.34c0,.28-.15,.43-.45,.44-.14,0-.3,0-.48,0-.02-.12-.04-.23-.06-.35,.18,.02,.33,.02,.44,.02,.12,0,.18-.06,.18-.17v-1.18c-.16,.05-.35,.11-.56,.18l-.05-.35Zm1.37,.33h.42v-1.13c-.08-.05-.18-.12-.28-.19,.42-.38,.76-.8,1.01-1.26l.39,.06c-.08,.13-.16,.26-.25,.39h1.46v.28c-.12,.13-.31,.33-.57,.58h.87v1.26h.39v.29h-1.5c.25,.48,.75,.79,1.47,.92-.12,.12-.21,.24-.29,.34-.66-.19-1.13-.54-1.4-1.04-.18,.43-.72,.79-1.61,1.07-.07-.1-.16-.2-.27-.3,.92-.24,1.46-.56,1.59-.99h-1.43v-.29Z"/>
        <path class="cls-9" d="M152.62,15.11c-.03,.13-.1,.25-.22,.34-.12,.09-.25,.14-.39,.14-.13,0-.24-.05-.3-.15-.05-.06-.08-.13-.08-.21,0-.03,.01-.08,.02-.13,.03-.13,.11-.24,.23-.34,.12-.09,.25-.14,.38-.14,.14,0,.24,.04,.32,.14,.04,.07,.06,.14,.06,.21,0,.04,0,.08-.02,.12Z"/>
        <path class="cls-9" d="M155.39,15.11c-.03,.13-.1,.25-.22,.34-.12,.09-.25,.14-.39,.14-.13,0-.23-.05-.3-.15-.05-.06-.08-.13-.08-.21,0-.03,.01-.08,.02-.13,.03-.13,.11-.24,.23-.34,.12-.09,.25-.14,.38-.14,.14,0,.24,.04,.32,.14,.04,.07,.06,.14,.06,.21,0,.04,0,.08-.02,.12Z"/>
        <path class="cls-9" d="M158.17,15.11c-.03,.13-.11,.25-.23,.34-.12,.09-.25,.14-.39,.14-.13,0-.23-.05-.3-.15-.05-.06-.08-.13-.08-.21,0-.03,.01-.08,.02-.13,.03-.13,.11-.24,.23-.34,.12-.09,.25-.14,.38-.14,.14,0,.25,.04,.32,.14,.04,.07,.06,.14,.06,.21,0,.04,0,.08,0,.12Z"/>
        <path class="cls-9" d="M171.46,11.69c.26,.43,.49,.76,.71,.98,.22,.22,.44,.39,.67,.5l-.07,.2c-.36,.14-.71,.32-1.08,.54-.36,.22-.81,.54-1.36,.97h-.35c.5-.6,.96-1.05,1.39-1.37h-7.33l.16-.45h7.32c-.13-.29-.22-.5-.26-.64-.04-.14-.09-.38-.15-.73h.35Z"/>
        <path class="cls-9" d="M180.29,13.13h-1.93v.72h1.93v-.72Zm-1.93,1.89h1.93v-.72h-1.93v.72Zm1.87-4.56c.46,.59,.87,1.15,1.21,1.69-.19,.13-.37,.24-.53,.34-.1-.17-.2-.35-.32-.53-1.25,.09-2.26,.17-3.01,.24l-.25-.63c.23-.12,.48-.34,.75-.67,.28-.36,.56-.76,.83-1.2l.61,.22c-.43,.6-.88,1.16-1.35,1.69,.77-.05,1.47-.1,2.1-.15-.16-.24-.34-.48-.52-.73l.48-.29Zm1.42-.63h.6v1.28c.71-.27,1.41-.6,2.1-.98l.35,.51c-.8,.39-1.62,.75-2.45,1.08v.43c0,.33,.14,.5,.41,.5h.98c.32,0,.5-.13,.54-.39,.04-.21,.07-.52,.09-.93,.2,.07,.4,.15,.6,.22-.04,.4-.08,.72-.13,.97-.07,.43-.42,.65-1.03,.65h-1.13c-.62,0-.93-.3-.93-.9v-2.44Zm0,3.64h.6v1.23c.72-.26,1.49-.61,2.28-1.04l.35,.51c-.84,.43-1.72,.81-2.63,1.14v.64c0,.31,.12,.47,.37,.47h1.13c.27,0,.42-.12,.46-.37,.03-.22,.06-.54,.09-.98,.19,.07,.39,.14,.6,.21-.04,.44-.08,.77-.13,.99-.07,.44-.39,.66-.96,.66h-1.29c-.58,0-.87-.29-.87-.87v-2.6Zm-3.28,3.59h-.6v-4.4h3.13v3.53c0,.54-.26,.81-.77,.81-.23,0-.52,0-.87,0-.03-.15-.06-.34-.12-.57,.33,.02,.59,.04,.78,.04,.25,0,.38-.13,.38-.38v-.62h-1.93v1.59Z"/>
        <path class="cls-9" d="M186.72,11.68l.46,.38c-.52,.58-1.04,1.11-1.54,1.58-.13-.14-.28-.28-.45-.42,.54-.45,1.05-.96,1.53-1.54Zm3.91,.37l.42-.35c.66,.57,1.2,1.08,1.62,1.51l-.48,.41c-.5-.54-1.02-1.07-1.56-1.57Zm-.1,2.15h-2.91c.38,.54,.83,.96,1.34,1.27,.61-.35,1.14-.78,1.57-1.27Zm-5.23-3.46h3.51c-.16-.28-.3-.52-.44-.72l.56-.26c.25,.38,.42,.66,.52,.84l-.29,.15h3.49v.53h-2.48v2.07h-.6v-2.07h-1.23v2.09h-.6v-2.09h-2.44v-.53Zm.75,3.46v-.51h5.23v.51c-.48,.62-1.07,1.15-1.75,1.58,.83,.39,1.92,.63,3.26,.72-.18,.25-.33,.46-.44,.63-1.38-.18-2.52-.52-3.42-1.02-.86,.43-1.99,.79-3.39,1.07-.13-.19-.26-.38-.39-.55,1.34-.22,2.42-.51,3.23-.87-.56-.41-1.04-.92-1.45-1.56h-.88Z"/>
        <path class="cls-9" d="M198.44,10.2l.32-.39c.43,.24,.83,.49,1.21,.75l-.37,.45c-.37-.28-.76-.55-1.16-.81Zm-2.21,6.36c.59-.39,1.12-.83,1.58-1.35-.29-.73-.47-1.92-.52-3.55h-2.91v1.13h2.22c-.03,.95-.07,1.75-.12,2.39-.07,.69-.41,1.03-1.04,1.03-.21,0-.49,0-.83-.03-.04-.18-.08-.39-.13-.62,.36,.05,.66,.07,.9,.07,.3,0,.47-.2,.5-.6,.04-.46,.07-1.02,.09-1.7h-1.59c-.04,1.73-.4,3.01-1.08,3.83-.13-.17-.26-.34-.4-.51,.58-.75,.87-1.92,.87-3.53v-2.02h3.49c-.01-.39-.03-.82-.05-1.28h.64c0,.35,.01,.78,.02,1.28h2.65v.55h-2.63c.05,1.34,.18,2.34,.38,3,.5-.65,.91-1.39,1.23-2.22l.61,.25c-.44,1.01-.97,1.89-1.59,2.64,.38,.74,.74,1.11,1.1,1.11,.13,0,.23-.12,.3-.35,.07-.36,.13-.73,.17-1.12,.22,.08,.42,.15,.59,.21-.08,.53-.16,.97-.26,1.3-.09,.36-.31,.56-.64,.59-.32,.02-.62-.08-.9-.31-.31-.23-.58-.55-.8-.95-.43,.45-.9,.85-1.41,1.19-.14-.15-.28-.3-.44-.45Z"/>
        <path class="cls-9" d="M204.87,9.39s.02,.03,.02,.04c0,.02-.01,.05-.04,.08-.28,.22-.52,.46-.72,.73-.19,.27-.33,.56-.42,.86l-.02,.16c.11-.12,.25-.18,.43-.18,.17,0,.28,.05,.34,.14,.03,.07,.05,.14,.05,.21,0,.04,0,.08-.02,.13-.03,.12-.1,.23-.21,.33-.1,.1-.24,.15-.4,.15-.12,0-.21-.03-.27-.09s-.1-.13-.13-.23c-.01-.07-.02-.15-.02-.23v-.07c0-.11,.02-.21,.05-.32,.09-.33,.24-.65,.45-.95,.21-.3,.47-.57,.77-.79,.03-.02,.06-.03,.08-.03s.04,0,.05,.03v.02Zm1.7,0s.02,.03,.02,.04c0,.03-.02,.06-.05,.08-.28,.22-.52,.46-.72,.73-.19,.27-.33,.56-.4,.86-.01,.03-.02,.06-.02,.08s-.01,.05-.02,.08c.12-.12,.27-.18,.44-.18s.28,.05,.33,.14c.04,.07,.06,.14,.06,.21,0,.04-.01,.08-.02,.13-.03,.12-.1,.23-.21,.33-.11,.1-.24,.15-.4,.15-.12,0-.21-.03-.27-.09s-.11-.13-.13-.23c-.02-.07-.03-.15-.03-.23v-.07c0-.11,.03-.21,.06-.32,.09-.33,.24-.65,.44-.95,.21-.3,.47-.57,.78-.79,.03-.02,.05-.03,.07-.03,.03,0,.05,0,.06,.03v.02Z"/>
        <path class="cls-9" d="M211.08,13.68l.58,.22c-.42,.91-.84,1.72-1.26,2.42-.16-.09-.34-.18-.56-.26,.41-.64,.82-1.44,1.24-2.39Zm2.47,.25l.55-.25c.48,.91,.89,1.7,1.21,2.38l-.61,.26c-.34-.77-.72-1.57-1.15-2.39Zm-2.83-3.67h4.09v.52h-4.09v-.52Zm-.36,2.18h4.81v.52h-2.13v3.12c0,.62-.29,.93-.88,.93-.28,0-.62,0-1.03,0-.02-.18-.06-.39-.1-.62,.35,.04,.67,.06,.97,.06s.46-.18,.46-.55v-2.93h-2.1v-.52Zm-2.8,2.01c.57-.85,.96-1.74,1.17-2.67h-1.11v-.51h1.17v-1.46h.54v1.46h1.04v.51h-1.04v1.32l.33-.34c.32,.27,.61,.54,.87,.79l-.41,.41c-.25-.27-.51-.54-.79-.82v3.94h-.54v-4.04c-.27,.86-.6,1.54-.97,2.06-.07-.21-.16-.43-.26-.66Z"/>
        <path class="cls-9" d="M220.12,10.04l.5-.31c.2,.24,.43,.54,.68,.9l-.53,.34c-.24-.36-.45-.67-.65-.93Zm-4.17,.15c.43,.48,.86,.99,1.29,1.53-.03,.03-.21,.17-.53,.44-.38-.52-.8-1.05-1.25-1.59l.49-.38Zm2.75,2.51h1.75v-1.11h-1.75v1.11Zm0,1.63h1.75v-1.11h-1.75v1.11Zm-2.07-1.07c.2,.1,.39,.19,.58,.25-.36,1.03-.72,2.06-1.08,3.08l-.63-.28c.4-.91,.77-1.93,1.13-3.06Zm2.07,2.8h1.75v-1.22h-1.75v1.22Zm-1.67-3.21c.74-.88,1.34-1.9,1.8-3.06l.57,.19c-.17,.38-.34,.75-.53,1.1h4.05v.51h-1.87v1.11h1.66v.51h-1.66v1.11h1.68v.51h-1.68v1.22h1.97v.5h-4.32v.6h-.6v-4.74c-.2,.31-.41,.61-.63,.89-.11-.15-.26-.31-.44-.45Z"/>
        <path class="cls-9" d="M230.55,10.26c-.69,.74-1.53,1.4-2.52,1.99-.09-.13-.22-.29-.39-.48,.96-.52,1.78-1.15,2.47-1.89l.44,.38Zm.13,2.1c-.73,.81-1.6,1.53-2.61,2.18-.11-.14-.24-.29-.4-.45,.95-.57,1.8-1.27,2.56-2.1l.45,.37Zm.22,2.17c-.81,.94-1.87,1.81-3.18,2.61-.09-.13-.23-.3-.43-.49,1.26-.65,2.32-1.48,3.16-2.5l.45,.38Zm-5.93-1.54h1.26v-2.12h-1.26v2.12Zm-1.64,0h1.04v-2.12h-.82v-.54h4.22v.54h-.95v2.12h1.19v.54h-1.19v3.56h-.59v-3.56h-1.27c0,1.65-.44,2.85-1.34,3.62-.12-.17-.26-.34-.41-.49,.78-.63,1.17-1.67,1.16-3.13h-1.04v-.54Z"/>
        <path class="cls-9" d="M234.14,10.28c-.09,.33-.24,.65-.44,.95-.21,.3-.47,.56-.78,.79-.02,.01-.04,.02-.07,.02-.02,0-.04,0-.05-.02l-.02-.02s-.01-.03-.01-.04c0-.03,.01-.06,.04-.08,.28-.22,.52-.46,.71-.73,.2-.27,.34-.56,.42-.86,0-.03,.02-.06,.02-.08s.01-.05,.01-.08c-.05,.05-.12,.1-.19,.13-.08,.03-.16,.05-.25,.05-.16,0-.27-.05-.33-.15-.03-.06-.05-.12-.05-.2,0-.04,.01-.08,.02-.13,.03-.11,.1-.22,.2-.32,.11-.1,.24-.15,.41-.15,.11,0,.2,.03,.26,.09,.07,.06,.11,.13,.14,.22,.01,.06,.01,.13,.01,.21v.09c-.01,.11-.03,.22-.05,.32Zm1.68,0c-.08,.33-.23,.65-.43,.95-.21,.3-.47,.56-.78,.79-.02,.01-.05,.02-.07,.02-.02,0-.04,0-.06-.02v-.02s-.03-.03-.03-.04c0-.03,.02-.06,.05-.08,.28-.21,.52-.45,.71-.73,.2-.28,.33-.56,.41-.87,.01-.03,.02-.06,.02-.08,.01-.02,.01-.05,.02-.08-.05,.05-.12,.1-.19,.13-.08,.03-.16,.05-.26,.05-.16,0-.26-.05-.32-.15-.03-.06-.05-.12-.06-.2,0-.04,0-.08,.02-.13,.03-.11,.1-.22,.2-.32,.11-.1,.25-.15,.42-.15,.11,0,.2,.03,.26,.09,.06,.06,.11,.13,.13,.22,.02,.06,.02,.13,.02,.21v.09c-.01,.11-.03,.22-.06,.32Z"/>
        <path class="cls-9" d="M8.25,30.56l.37,.5c-.97,.52-1.89,.94-2.73,1.26-.07-.16-.17-.35-.32-.56,1.07-.38,1.96-.78,2.68-1.2Zm1.88,.5l.34-.51c1.24,.48,2.16,.87,2.75,1.15l-.32,.58c-.88-.44-1.8-.85-2.77-1.22Zm-2.61-3.82h3.75v-.8h-3.75v.8Zm0,1.33h3.75v-.81h-3.75v.81Zm0,1.34h3.75v-.81h-3.75v.81Zm4.35-4.93v.93h1.16v.54h-1.16v3.47h1.33v.54H5.61v-.54h1.32v-3.47h-1.16v-.54h1.16v-.93h.59v.93h3.75v-.93h.59Z"/>
        <path class="cls-9" d="M15.33,26.88c.6,.28,1.14,.56,1.62,.84l-.35,.51c-.48-.3-1-.6-1.58-.91l.3-.44Zm-.69,1.14c.59,.26,1.14,.53,1.66,.81l-.33,.51c-.51-.3-1.05-.59-1.62-.85l.29-.48Zm-.95-2.01h3.52c-.13-.22-.3-.48-.52-.78l.56-.31c.17,.22,.38,.51,.62,.86l-.42,.22h3.29v1.34h-.62v-.78h-5.82v.78h-.62v-1.34Zm-.27,5.75c1.89-.34,3.11-.89,3.66-1.63h-3.53v-.55h3.82c.18-.52,.25-1.42,.24-2.71h.65c0,1.28-.07,2.18-.21,2.71h2.92v.55h-3.13c-.04,.08-.09,.16-.15,.25,1.1,.45,2.17,.91,3.22,1.39l-.34,.57c-1.1-.54-2.18-1.05-3.26-1.51-.7,.66-1.87,1.17-3.51,1.53-.12-.22-.24-.41-.37-.59Z"/>
        <path class="cls-9" d="M23.82,29.78l.44-.27c.29,.37,.54,.71,.73,1.01l-.48,.31c-.19-.34-.42-.69-.69-1.06Zm3.02-4.08l.36-.39c.41,.28,.8,.57,1.18,.87l-.4,.43c-.24-.22-.62-.52-1.14-.92Zm-4.74,3.91l.5,.19c-.25,.63-.54,1.18-.86,1.67-.13-.09-.29-.18-.49-.26,.33-.49,.62-1.02,.85-1.6Zm2.19-2.01h-1.97v1.08h1.97v-1.08Zm-2.97-1.66h1.9c-.13-.26-.29-.54-.49-.82l.51-.24c.19,.27,.36,.55,.5,.83l-.49,.23h2v.51h-3.94v-.51Zm.46,1.17h3.05v2.24h-.54v-.18h-.72v2.21c0,.51-.26,.76-.79,.76-.23,0-.46,0-.68-.01-.02-.19-.06-.39-.12-.57,.23,.03,.47,.05,.71,.05,.23,0,.34-.11,.34-.34v-2.1h-.72v.18h-.54v-2.24Zm3.25-.04h.81c0-.4,.02-1.1,.03-2.12h.56c0,.94-.02,1.64-.03,2.12h2.25v.54h-1.37v3.57c0,.23,.1,.35,.28,.35h.25c.22,0,.35-.15,.39-.44,.05-.3,.08-.68,.1-1.14,.36,.14,.56,.21,.58,.22-.05,.44-.09,.81-.13,1.1-.08,.53-.36,.8-.86,.8h-.51c-.44,0-.66-.26-.66-.78v-3.68h-.34c-.03,1.97-.62,3.54-1.74,4.71-.13-.14-.28-.28-.44-.43,1.06-1.09,1.61-2.52,1.63-4.28h-.78v-.54Z"/>
        <path class="cls-9" d="M34.91,25.73h-4.06v.65h4.06v-.65Zm-4.06,1.8h4.06v-.66h-4.06v.66Zm-.2,1.9l.59,.17c-.08,.26-.18,.51-.28,.74,.39,.61,.97,.98,1.74,1.1v-2.24h-3.51v-.52h7.4v.52h-3.28v.75h2.74v.51h-2.74v1.04c.99,.02,2.13,0,3.42-.03-.08,.21-.15,.41-.22,.59-1.51,0-2.67,0-3.48-.02-1.09-.01-1.87-.4-2.35-1.17-.35,.61-.8,1.11-1.34,1.49-.1-.15-.23-.31-.38-.48,.83-.54,1.38-1.35,1.67-2.43Zm-.38-4.2h5.23v3.11h-.58v-.3h-4.06v.3h-.59v-3.11Z"/>
        <path class="cls-9" d="M39.43,30.24c-.03,.13-.11,.25-.23,.34-.12,.09-.25,.14-.38,.14s-.24-.05-.31-.14c-.05-.06-.07-.13-.07-.21,0-.03,0-.08,.02-.13,.03-.13,.11-.24,.23-.34,.12-.09,.25-.14,.38-.14,.13,0,.24,.05,.32,.14,.04,.07,.06,.14,.06,.21,0,.03,0,.08-.02,.12Zm.76-2.92c-.04,.13-.11,.24-.23,.34-.12,.09-.24,.14-.38,.14-.14,0-.25-.05-.32-.14-.05-.06-.07-.13-.07-.22,0-.03,0-.07,.02-.11,.03-.13,.11-.24,.23-.34,.12-.09,.25-.14,.38-.14s.24,.04,.32,.14c.05,.07,.07,.14,.07,.22,0,.03,0,.07-.02,.12Z"/>
        <path class="cls-9" d="M61.24,26.26c.05-.19,.09-.37,.1-.55v-.08c0-.14-.04-.27-.12-.4-.11-.14-.24-.23-.42-.29-.17-.06-.36-.09-.56-.09h-.85c-.17,0-.27,.01-.31,.04-.04,.03-.07,.12-.11,.28l-.64,2.47h1.19c.2,0,.4-.03,.6-.09,.2-.06,.39-.15,.57-.29,.16-.14,.28-.3,.36-.48,.08-.18,.14-.36,.19-.54Zm.87,0c-.06,.23-.17,.44-.33,.64-.16,.2-.34,.37-.56,.51-.24,.16-.49,.28-.75,.36-.26,.08-.53,.12-.79,.12h-1.38l-.58,2.23c-.02,.07-.03,.12-.03,.16,0,.05,.01,.09,.04,.1,.05,.03,.14,.05,.26,.05,.13,0,.26,0,.4,0,.06,0,.08,.03,.08,.08v.03l-.02,.07c-.03,.07-.07,.1-.13,.1-.38-.02-.76-.03-1.14-.03s-.77,0-1.15,.03c-.05,0-.08-.02-.09-.07v-.03l.02-.07c.02-.07,.06-.11,.13-.11,.14,0,.28,0,.41,0,.13,0,.23-.02,.3-.05,.07-.04,.12-.13,.15-.27l1.27-4.94c.02-.07,.03-.12,.03-.16,0-.05-.01-.09-.04-.1-.05-.03-.14-.05-.26-.05-.13,0-.26,0-.41,0-.05,0-.08-.02-.08-.07v-.03l.03-.07c.01-.07,.05-.1,.12-.1h2.9c.26,0,.5,.04,.72,.12,.22,.08,.41,.2,.57,.36,.14,.15,.24,.33,.3,.53,.02,.1,.03,.19,.03,.29,0,.11-.02,.23-.05,.36Z"/>
        <path class="cls-9" d="M63.61,30.31c-.01,.06-.05,.1-.1,.13s-.1,.04-.15,.04-.09-.01-.12-.05c-.02-.02-.04-.05-.04-.08,0-.02,0-.03,0-.05,.01-.05,.04-.09,.09-.12,.04-.03,.09-.05,.13-.05-.02-.07-.07-.13-.15-.18-.08-.05-.18-.07-.29-.07-.07,0-.13,0-.19,.02-.06,.01-.12,.04-.17,.08-.05,.03-.09,.07-.12,.12-.03,.05-.05,.1-.07,.15-.01,.03-.02,.06-.02,.09,0,.05,.02,.1,.05,.14,.05,.07,.12,.11,.22,.13l.28,.05c.09,.02,.17,.05,.24,.09,.07,.04,.13,.09,.17,.15,.04,.06,.08,.13,.09,.2,0,.03,0,.06,0,.08,0,.05,0,.1-.02,.16-.03,.09-.08,.19-.14,.28-.06,.09-.14,.17-.25,.24-.11,.07-.23,.12-.35,.14-.12,.02-.24,.04-.35,.04s-.22-.01-.31-.04c-.1-.03-.18-.07-.25-.12-.07-.05-.12-.12-.15-.19-.01-.04-.02-.08-.03-.12,0-.04,0-.08,.02-.13,.02-.07,.06-.12,.12-.15,.06-.03,.12-.05,.18-.05s.11,.02,.15,.05c.03,.02,.04,.05,.04,.09,0,.02,0,.04-.01,.06-.02,.07-.06,.12-.12,.15-.06,.03-.12,.05-.17,.05,.03,.09,.1,.16,.2,.21,.1,.05,.23,.07,.37,.07,.08,0,.17,0,.25-.02,.08-.02,.16-.05,.23-.1,.07-.04,.12-.09,.16-.15,.04-.06,.07-.12,.09-.19,.01-.03,.02-.07,.02-.1,0-.07-.02-.13-.07-.18-.07-.08-.16-.13-.28-.15l-.28-.06c-.16-.03-.27-.1-.35-.21-.05-.07-.08-.15-.08-.24,0-.05,0-.1,.02-.15,.02-.08,.06-.16,.11-.24,.05-.08,.12-.15,.21-.21,.09-.06,.18-.1,.29-.12,.1-.02,.2-.03,.3-.03s.18,.01,.26,.04c.08,.03,.15,.06,.21,.11,.06,.05,.1,.1,.12,.17,0,.03,.01,.07,.01,.1,0,.04,0,.08-.02,.12Z"/>
        <path class="cls-9" d="M67.96,28.07c0,.31-.25,.55-.55,.55s-.55-.25-.55-.55,.25-.55,.55-.55,.55,.25,.55,.55Z"/>
        <path class="cls-9" d="M72.01,30.24c-.03,.13-.11,.25-.23,.34-.12,.09-.25,.14-.38,.14s-.24-.05-.31-.14c-.05-.06-.07-.13-.07-.21,0-.03,0-.08,.02-.13,.03-.13,.11-.24,.23-.34,.12-.09,.25-.14,.38-.14,.14,0,.24,.05,.32,.14,.04,.07,.06,.14,.06,.21,0,.03,0,.08-.02,.12Z"/>
        <path class="cls-9" d="M74.78,30.24c-.03,.13-.11,.25-.23,.34-.12,.09-.25,.14-.38,.14s-.24-.05-.31-.14c-.05-.06-.07-.13-.07-.21,0-.03,0-.08,.02-.13,.03-.13,.11-.24,.23-.34,.12-.09,.25-.14,.38-.14,.14,0,.24,.05,.32,.14,.04,.07,.06,.14,.06,.21,0,.03,0,.08-.02,.12Z"/>
        <path class="cls-9" d="M77.55,30.24c-.03,.13-.11,.25-.23,.34-.12,.09-.25,.14-.38,.14s-.24-.05-.31-.14c-.05-.06-.07-.13-.07-.21,0-.03,0-.08,.02-.13,.03-.13,.11-.24,.23-.34,.12-.09,.25-.14,.39-.14,.14,0,.24,.05,.32,.14,.04,.07,.06,.14,.06,.21,0,.03,0,.08-.02,.12Z"/>
        <path class="cls-9" d="M83.1,28.07c0,.31-.25,.55-.55,.55s-.56-.25-.56-.55,.25-.55,.56-.55,.55,.25,.55,.55Z"/>
        <path class="cls-9" d="M91.43,26.26c.05-.19,.09-.37,.1-.55v-.08c0-.14-.04-.27-.12-.4-.1-.14-.24-.23-.42-.29-.17-.06-.36-.09-.56-.09h-.85c-.17,0-.27,.01-.31,.04-.04,.03-.07,.12-.11,.28l-.64,2.47h1.19c.2,0,.4-.03,.6-.09,.2-.06,.39-.15,.57-.29,.16-.14,.28-.3,.36-.48,.08-.18,.14-.36,.19-.54Zm.87,0c-.06,.23-.17,.44-.33,.64s-.34,.37-.56,.51c-.24,.16-.49,.28-.75,.36-.27,.08-.53,.12-.79,.12h-1.38l-.58,2.23c-.02,.07-.03,.12-.03,.16,0,.05,.01,.09,.05,.1,.05,.03,.14,.05,.27,.05,.13,0,.26,0,.4,0,.05,0,.08,.03,.08,.08v.03l-.02,.07c-.02,.07-.07,.1-.13,.1-.38-.02-.76-.03-1.14-.03s-.77,0-1.15,.03c-.05,0-.08-.02-.09-.07v-.03l.02-.07c.02-.07,.06-.11,.13-.11,.14,0,.28,0,.41,0,.13,0,.23-.02,.3-.05,.07-.04,.12-.13,.15-.27l1.27-4.94c.02-.07,.03-.12,.03-.16,0-.05-.02-.09-.05-.1-.05-.03-.13-.05-.26-.05-.13,0-.26,0-.41,0-.05,0-.08-.02-.08-.07v-.03l.03-.07c.01-.07,.05-.1,.12-.1h2.9c.26,0,.5,.04,.72,.12,.22,.08,.41,.2,.57,.36,.14,.15,.24,.33,.3,.53,.02,.1,.03,.19,.03,.29,0,.11-.01,.23-.04,.36Z"/>
        <path class="cls-9" d="M92.82,31.64s-.02,.05-.02,.08c0,.04,.02,.06,.05,.07,.04,.02,.12,.03,.23,.03s.21,0,.32,0c.04,0,.06,.01,.06,.04,0,0,0,.01,0,.02v.04s-.06,.06-.1,.06c-.27,0-.55-.01-.84-.01s-.56,0-.84,.01c-.03,0-.05-.01-.05-.04v-.06s.05-.06,.1-.06c.11,0,.22,0,.32,0,.11,0,.19-.01,.24-.03,.05-.02,.09-.07,.12-.15l.74-2.55c-.11,.07-.23,.13-.35,.17-.12,.04-.25,.06-.38,.06-.02,0-.03,0-.04-.01,0,0-.01-.01-.01-.02,0,0,0-.01,0-.02v-.05s.06-.06,.1-.06c.21,0,.41-.06,.61-.19,.2-.12,.37-.28,.51-.46,.02-.02,.04-.03,.07-.04h.02s.03,0,.05,.02c0,0,0,.01,0,.02,0,0,0,.01,0,.02l-.89,3.11Z"/>
        <path class="cls-9" d="M56.12,33.78c.34,.93,1.23,1.55,2.22,1.55h14.43c.88,0,1.67,.55,1.97,1.37h.25c.3-.83,1.09-1.37,1.97-1.37h14.43c.99,0,1.88-.62,2.22-1.55l-.05-.19c-.34,.74-1.08,1.21-1.9,1.21h-14.7c-.88,0-1.67,.55-1.97,1.37h-.25c-.3-.83-1.09-1.37-1.97-1.37h-14.7c-.81,0-1.55-.47-1.9-1.21"/>
        <path class="cls-9" d="M50.18,38.95h-.64s-.03,.07-.04,.1c.04,.58,.16,1.08,.35,1.49,.19-.4,.3-.93,.33-1.59Zm-1.69,1.17h-.79v.98h.79v-.98Zm-2.52-.26c.42-.58,.73-1.23,.93-1.97l.36,.08c-.1,.33-.22,.63-.34,.91v3.1h-.33v-2.45c-.15,.25-.3,.48-.46,.68-.04-.11-.1-.23-.16-.35Zm1.38-.02h.55v-.83h-.77v-.28h.77v-.81h.36v.81h.77v.28h-.77v.83h.58v1.53h-1.14v.29h-.35v-1.82Zm2.13-1.95l.35,.05c-.06,.26-.12,.51-.2,.74h1.14v.27h-.25c-.05,.8-.21,1.45-.49,1.94,.2,.31,.47,.55,.79,.73-.08,.1-.16,.21-.23,.31-.3-.21-.56-.46-.76-.74-.23,.29-.51,.57-.85,.83-.06-.08-.14-.17-.24-.26,.39-.28,.69-.57,.89-.87-.21-.38-.34-.81-.4-1.3-.08,.14-.16,.28-.25,.4-.06-.08-.13-.17-.21-.27,.33-.5,.56-1.11,.69-1.83Z"/>
        <path class="cls-9" d="M53.52,37.63s.01,.01,.01,.02c0,.01-.01,.03-.03,.05-.17,.12-.32,.26-.45,.41-.12,.15-.21,.31-.26,.48l-.02,.09c.07-.07,.16-.1,.27-.1,.1,0,.18,.03,.21,.08,.02,.04,.03,.08,.03,.12,0,.02,0,.05-.01,.07-.02,.07-.06,.13-.13,.18-.07,.05-.15,.08-.25,.08-.07,0-.13-.02-.17-.05-.04-.03-.07-.08-.08-.13-.01-.04-.02-.08-.02-.13v-.04c0-.06,.01-.12,.03-.18,.05-.18,.15-.36,.28-.53,.13-.17,.29-.32,.49-.44,.02,0,.04-.01,.05-.01,.02,0,.03,0,.03,.01h0Zm1.06,0s.01,.02,.01,.02c0,.02,0,.03-.03,.05-.18,.12-.33,.26-.45,.41-.12,.15-.21,.31-.25,.48,0,.02-.01,.03-.01,.04,0,.01,0,.03-.01,.05,.08-.07,.17-.1,.28-.1s.17,.03,.21,.08c.02,.04,.04,.08,.04,.12,0,.02,0,.05-.01,.07-.02,.07-.06,.13-.13,.18-.07,.05-.15,.08-.25,.08-.07,0-.13-.02-.17-.05-.04-.03-.07-.08-.08-.13-.01-.04-.02-.08-.02-.13v-.04c0-.06,.02-.12,.04-.18,.05-.18,.15-.36,.28-.53,.13-.17,.29-.32,.49-.44,.02,0,.03-.01,.05-.01,.01,0,.03,0,.04,.01h0Z"/>
        <path class="cls-8" d="M55.22,39.04c.51-.34,.92-.74,1.24-1.19l.35,.18c-.37,.49-.84,.94-1.39,1.33-.06-.1-.12-.21-.19-.32Zm2-.87h2.5v.31h-2.5v-.31Zm-2.03,2.2c.5-.35,.95-.85,1.36-1.49l.34,.18c-.17,.25-.34,.48-.53,.69v2.21h-.4v-1.78c-.19,.19-.39,.36-.6,.52-.05-.12-.11-.23-.17-.34Zm1.75-.94h3.06v.31h-.94v1.63c0,.35-.2,.52-.6,.52-.27,0-.55,0-.83,0-.02-.11-.04-.24-.07-.38,.25,.02,.5,.03,.76,.03,.22,0,.33-.09,.33-.28v-1.52h-1.71v-.31Z"/>
        <path class="cls-8" d="M61.09,38.91l.29,.21c-.33,.33-.65,.62-.97,.89-.08-.08-.17-.16-.28-.23,.34-.25,.66-.54,.96-.86Zm2.45,.2l.26-.2c.41,.32,.75,.6,1.01,.85l-.3,.23c-.31-.3-.64-.6-.98-.88Zm-.06,1.2h-1.82c.24,.3,.51,.54,.83,.71,.39-.2,.72-.43,.99-.71Zm-3.28-1.94h2.2c-.1-.16-.19-.29-.28-.41l.35-.15c.16,.21,.27,.37,.33,.47l-.19,.08h2.19v.3h-1.56v1.16h-.37v-1.16h-.78v1.17h-.37v-1.17h-1.53v-.3Zm.47,1.94v-.29h3.28v.29c-.3,.35-.67,.64-1.1,.89,.52,.22,1.21,.35,2.05,.4-.12,.14-.21,.26-.28,.35-.86-.1-1.58-.29-2.14-.57-.54,.24-1.25,.44-2.13,.6-.08-.11-.16-.21-.25-.31,.84-.13,1.52-.29,2.02-.49-.35-.23-.65-.52-.91-.87h-.55Z"/>
        <path class="cls-8" d="M68.68,38.57h-1.22c-.16,.2-.33,.4-.51,.58h1.2c.22-.23,.4-.42,.54-.58Zm-1.55,1.84h.75c.03-.14,.04-.46,.04-.97h-.79v.97Zm1.95-.97h-.81c0,.35,0,.68-.03,.97h.84v-.97Zm-4.07,.64c.19-.05,.39-.1,.61-.16v-.97h-.57v-.28h.57v-.78h.37v.78h.54v.28h-.54v.86c.16-.05,.33-.1,.5-.16,0,.14,0,.25,0,.33-.03,0-.2,.06-.51,.16v1.34c0,.28-.15,.43-.44,.44-.14,0-.3,0-.48,0-.02-.12-.04-.23-.06-.35,.18,.02,.32,.03,.44,.03s.17-.06,.17-.18v-1.18c-.16,.05-.35,.11-.56,.18l-.05-.35Zm1.37,.33h.42v-1.13c-.08-.05-.17-.12-.28-.19,.43-.38,.76-.8,1.01-1.26l.39,.06c-.08,.13-.16,.26-.25,.39h1.46v.28c-.12,.13-.31,.33-.57,.58h.86v1.26h.39v.29h-1.5c.26,.48,.75,.79,1.47,.92-.12,.12-.21,.24-.29,.34-.66-.19-1.13-.54-1.41-1.04-.18,.43-.72,.79-1.61,1.07-.07-.1-.16-.2-.27-.3,.93-.24,1.46-.56,1.6-.99h-1.44v-.29Z"/>
        <path class="cls-9" d="M71.88,38.13c-.05,.19-.15,.36-.28,.53-.13,.17-.29,.32-.48,.44-.01,0-.03,0-.05,0-.01,0-.02,0-.03,0h-.01s0-.03,0-.03c0-.02,0-.03,.03-.05,.17-.12,.32-.26,.44-.41,.12-.15,.21-.31,.26-.48,0-.02,.01-.03,.01-.04s0-.03,0-.05c-.03,.03-.07,.05-.12,.07-.05,.02-.1,.03-.16,.03-.1,0-.17-.03-.2-.09-.02-.03-.03-.07-.03-.11,0-.02,0-.05,.01-.07,.02-.06,.06-.12,.13-.18,.07-.05,.15-.08,.26-.08,.07,0,.13,.02,.17,.05,.04,.03,.07,.07,.08,.12,0,.03,.01,.07,.01,.11v.05c0,.06-.02,.12-.03,.18Zm1.06,0c-.05,.19-.15,.36-.27,.53-.13,.17-.29,.32-.49,.44-.01,0-.03,0-.05,0-.01,0-.02,0-.04,0h0s-.01-.03-.01-.03c0-.02,.01-.03,.03-.05,.17-.12,.32-.25,.44-.41,.12-.15,.21-.32,.26-.49,0-.02,.01-.03,.01-.04,0-.01,0-.03,.01-.05-.03,.03-.07,.05-.12,.07-.05,.02-.1,.03-.16,.03-.1,0-.17-.03-.2-.09-.02-.03-.04-.07-.04-.11,0-.02,0-.05,.01-.07,.02-.06,.06-.12,.13-.18,.07-.05,.15-.08,.26-.08,.07,0,.13,.02,.17,.05,.04,.03,.07,.07,.08,.12,0,.03,.01,.07,.01,.11v.05c0,.06-.02,.12-.04,.18Z"/>
        <path class="cls-9" d="M74.21,41.09c-.06,.19-.15,.36-.28,.53-.13,.17-.29,.32-.48,.44-.01,0-.03,0-.04,0-.01,0-.02,0-.03,0h0s-.01-.03-.01-.03c0-.02,0-.03,.03-.05,.17-.12,.32-.25,.44-.41,.12-.15,.2-.32,.25-.49l.02-.08s-.07,.05-.11,.06c-.04,.02-.09,.02-.15,.02-.1,0-.17-.03-.2-.09-.02-.03-.03-.07-.03-.11,0-.02,0-.05,.01-.07,.02-.07,.06-.13,.13-.18,.07-.05,.15-.08,.26-.08,.07,0,.12,.02,.16,.05,.04,.03,.06,.08,.07,.13,0,.03,.01,.07,.01,.11v.05c0,.06-.02,.12-.03,.18Z"/>
        <path class="cls-9" d="M47.65,47.54l.28-.15c.18,.21,.34,.4,.46,.57l-.3,.18c-.12-.19-.26-.39-.43-.59Zm1.9-2.28l.23-.22c.25,.16,.5,.32,.74,.49l-.25,.24c-.15-.12-.39-.29-.71-.51Zm-2.97,2.19l.31,.11c-.16,.35-.34,.66-.54,.94-.08-.05-.18-.1-.31-.15,.21-.27,.39-.57,.54-.9Zm1.37-1.13h-1.24v.61h1.24v-.61Zm-1.86-.93h1.19c-.08-.15-.19-.3-.31-.46l.32-.13c.12,.15,.22,.31,.31,.46l-.31,.13h1.25v.28h-2.47v-.28Zm.29,.66h1.91v1.26h-.34v-.1h-.45v1.24c0,.28-.16,.43-.49,.43-.14,0-.29,0-.42,0-.01-.11-.04-.22-.08-.32,.15,.02,.29,.03,.44,.03,.14,0,.21-.06,.21-.19v-1.17h-.45v.1h-.34v-1.26Zm2.04-.03h.51c0-.22,0-.62,.02-1.19h.35c0,.53-.01,.92-.02,1.19h1.41v.3h-.86v2c0,.13,.06,.2,.18,.2h.16c.14,0,.22-.08,.25-.25,.03-.17,.05-.38,.06-.64,.23,.08,.35,.12,.36,.13-.03,.25-.06,.45-.08,.61-.05,.3-.23,.45-.54,.45h-.32c-.28,0-.42-.15-.42-.44v-2.06h-.21c-.02,1.1-.39,1.98-1.09,2.64-.08-.08-.18-.16-.28-.24,.67-.61,1.01-1.41,1.02-2.4h-.49v-.3Z"/>
        <path class="cls-9" d="M51.68,44.94c.18,.14,.45,.37,.82,.68l-.32,.26c-.3-.3-.56-.54-.78-.71l.27-.23Zm1.12,2.62c.03,.14,.06,.26,.1,.37-.31,.18-.61,.37-.89,.57-.09,.07-.18,.15-.26,.24l-.32-.28c.13-.1,.19-.24,.19-.43v-1.44h-.7v-.32h1.09v1.82c.23-.14,.5-.32,.79-.52Zm-.29,.81h1.21v-3.48h.42v1.22h1.34v.31h-1.34v1.95h1.59v.32h-3.22v-.32Z"/>
        <path class="cls-9" d="M59.02,45.11l-1.08,1.65h1.21l-.13-1.65Zm1.14,2.9s-.04,.06-.08,.06c-.19,0-.38-.01-.57-.01h-.09c-.22,0-.44,0-.67,.01-.03,0-.05-.01-.05-.04v-.06s.05-.06,.09-.06c.07,0,.13,0,.19,0,.06,0,.11-.02,.17-.05,.02,0,.04-.02,.06-.04,.01-.02,.02-.03,.02-.05h0s-.07-.85-.07-.85h-1.33l-.46,.7s-.04,.08-.04,.12c0,.03,.01,.06,.03,.09,.05,.06,.13,.09,.26,.09,.03,0,.05,.01,.05,.03,0,0,0,.01,0,.02v.04s-.05,.06-.09,.06c-.17,0-.35-.01-.52-.01h-.08c-.15,0-.3,0-.45,.01-.02,0-.03,0-.04-.01,0,0-.01-.01-.01-.02s0-.01,0-.02v-.04s.05-.06,.09-.06c.06,0,.12,0,.19-.02,.06-.01,.12-.03,.17-.06,.05-.03,.1-.07,.15-.11,.04-.04,.08-.09,.12-.15l2-3.06s.06-.06,.1-.05h.05s.07,.02,.07,.05l.25,3.2s.01,.08,.02,.11c0,.03,.03,.05,.05,.06,.03,.02,.08,.03,.14,.03,.07,0,.14,0,.21,0,.03,0,.05,.01,.05,.03,0,0,0,.01,0,.02v.04Z"/>
        <path class="cls-9" d="M62.7,44.6s.01,.01,.01,.02c0,.01,0,.03-.03,.05-.17,.12-.32,.26-.45,.41-.12,.15-.21,.31-.26,.48l-.02,.09c.07-.07,.16-.1,.27-.1,.1,0,.17,.03,.21,.08,.02,.04,.03,.08,.03,.12,0,.02,0,.05-.01,.07-.02,.07-.06,.13-.13,.18-.07,.05-.15,.08-.25,.08-.07,0-.13-.02-.17-.05-.04-.03-.07-.08-.08-.13-.01-.04-.02-.08-.02-.13v-.04c0-.06,.01-.12,.03-.18,.06-.18,.15-.36,.28-.53,.13-.17,.29-.32,.49-.44,.02,0,.04-.01,.05-.01,.01,0,.03,0,.03,.01h0Zm1.06,0s.01,.02,.01,.02c0,.02-.01,.03-.03,.05-.18,.12-.33,.26-.45,.41-.12,.15-.21,.31-.25,.48,0,.02-.01,.03-.01,.05,0,.01,0,.03-.01,.05,.08-.07,.17-.1,.28-.1,.1,0,.17,.03,.21,.08,.02,.04,.04,.08,.04,.12,0,.02,0,.05-.01,.07-.02,.07-.06,.13-.13,.18-.07,.05-.15,.08-.25,.08-.07,0-.13-.02-.17-.05-.04-.03-.07-.08-.08-.13-.01-.04-.02-.08-.02-.13v-.04c0-.06,.02-.12,.04-.18,.06-.18,.15-.36,.28-.53,.13-.17,.29-.32,.49-.44,.02,0,.03-.01,.04-.01,.01,0,.03,0,.04,.01h0Z"/>
        <path class="cls-8" d="M65.19,48.37h1.76v-1.35h-1.19c-.27,.5-.65,1.02-1.14,1.55-.08-.11-.17-.2-.26-.28,.7-.75,1.19-1.58,1.48-2.51h-1.3v-.32h1.39c.05-.21,.1-.42,.14-.65l.41,.05c-.04,.21-.09,.41-.14,.6h2.79v.32h-2.88c-.08,.29-.19,.59-.33,.91h2.91v.32h-1.46v1.35h1.77v.31h-3.94v-.31Z"/>
        <path class="cls-8" d="M69.32,47.3c.36-.05,.75-.11,1.15-.18v-.39h-1.02v-.27h1.02v-.3h.36v1.48h-.36v-.21c-.31,.06-.66,.13-1.06,.2l-.09-.32Zm3.21-1.15h.36v.39c.32-.08,.63-.18,.92-.29l.13,.28c-.31,.11-.66,.21-1.05,.29v.28c0,.15,.07,.22,.22,.22h.22c.19,0,.29-.05,.32-.16,.03-.1,.05-.22,.06-.35,.13,.05,.24,.09,.34,.12-.03,.13-.05,.25-.09,.35-.07,.23-.26,.34-.56,.34h-.39c-.32,0-.49-.17-.49-.51v-.97Zm1.57,2.25c-.1,.11-.2,.22-.29,.35-.92-.28-1.57-.75-1.96-1.41v1.6h-.36v-1.55c-.39,.59-1.04,1.06-1.96,1.38-.07-.09-.16-.19-.26-.3,.96-.24,1.7-.77,2.23-1.57v-.93h-2.14v-.28h2.14v-.39c-.57,.01-1.17,.03-1.81,.04-.02-.09-.04-.18-.07-.28,1.62-.02,2.96-.06,4.02-.12l.05,.29c-.55,.02-1.17,.05-1.84,.06v.4h2.18v.28h-2.18v.87c.53,.89,1.28,1.41,2.24,1.56Z"/>
        <path class="cls-9" d="M76.15,45.1c-.05,.19-.15,.36-.28,.53-.13,.17-.29,.32-.48,.44-.01,0-.03,0-.05,0-.01,0-.02,0-.03,0h-.01s0-.03,0-.03c0-.02,.01-.03,.03-.05,.17-.12,.32-.26,.44-.41,.12-.15,.21-.31,.26-.48,0-.02,.01-.03,.01-.05,0-.01,0-.03,0-.05-.03,.03-.07,.05-.12,.07-.05,.02-.1,.03-.16,.03-.1,0-.17-.03-.2-.09-.02-.03-.03-.07-.03-.11,0-.02,0-.05,.01-.07,.02-.06,.06-.12,.13-.18,.07-.05,.15-.08,.26-.08,.07,0,.13,.02,.17,.05,.04,.03,.07,.07,.08,.12,0,.03,.01,.07,.01,.12v.05c0,.06-.02,.12-.03,.18Zm1.06,0c-.05,.19-.14,.36-.27,.53-.13,.17-.29,.32-.49,.44-.02,0-.03,0-.05,0-.01,0-.02,0-.04,0h0s-.01-.03-.01-.03c0-.02,.01-.03,.03-.05,.17-.12,.32-.25,.44-.41,.12-.15,.21-.32,.26-.49,0-.02,.01-.03,.01-.05,0-.01,0-.03,.01-.05-.03,.03-.07,.05-.12,.07-.05,.02-.1,.03-.16,.03-.1,0-.17-.03-.2-.09-.02-.03-.04-.07-.04-.11,0-.02,0-.05,.01-.07,.02-.06,.06-.12,.13-.18,.07-.05,.15-.08,.26-.08,.07,0,.13,.02,.17,.05,.04,.03,.07,.07,.08,.12,0,.03,.01,.07,.01,.12v.05c0,.06-.02,.12-.04,.18Z"/>
        <path class="cls-9" d="M78.95,44.95l.34-.15c.12,.16,.24,.35,.38,.57l-.36,.16c-.12-.22-.24-.42-.36-.58Zm-.46,.96v-.3h1.6v.31c-.18,.27-.37,.51-.57,.74v.13c.08,.05,.15,.09,.23,.14,.16-.18,.31-.37,.45-.57l.32,.18c-.14,.17-.3,.36-.49,.57,.16,.1,.32,.21,.49,.31l-.25,.25c-.25-.18-.5-.35-.75-.52v1.76h-.37v-1.87c-.19,.18-.39,.35-.6,.5-.04-.11-.08-.23-.13-.36,.46-.31,.88-.74,1.24-1.27h-1.17Zm1.82-.73h2.68c-.05,1.46-.08,2.41-.11,2.85-.01,.52-.27,.78-.77,.77-.16,0-.4,0-.71-.01-.02-.13-.05-.26-.08-.38,.31,.03,.56,.04,.74,.04,.26,0,.4-.14,.41-.44,.03-.44,.07-1.27,.1-2.51h-1.1c-.02,.54-.04,.98-.07,1.31-.07,.86-.51,1.56-1.31,2.11-.08-.09-.19-.18-.31-.27,.75-.5,1.15-1.12,1.21-1.87,.04-.37,.06-.8,.07-1.29h-.77v-.32Z"/>
        <path class="cls-9" d="M86.95,46.08c-.06-.08-.19-.23-.39-.43l.25-.15c.17,.14,.32,.28,.43,.39l-.29,.19Zm-2.1,0c-.12-.14-.26-.28-.4-.43l.25-.15c.15,.13,.3,.26,.43,.39l-.28,.19Zm-.4,1.97l.26-.21c.22,.16,.44,.34,.67,.52l-.28,.23c-.17-.16-.39-.34-.65-.54Zm1.91-3.24h.41c-.07,.14-.15,.27-.23,.39h1.55v.26h-1.73c-.11,.15-.22,.29-.35,.41-.14-.08-.24-.14-.32-.17,.28-.26,.5-.56,.66-.89Zm-2.07,0h.42c-.07,.14-.16,.27-.25,.39h1.4v.26h-1.61c-.19,.22-.41,.42-.66,.61-.06-.07-.15-.14-.24-.23,.4-.28,.72-.63,.94-1.04Zm-.74,2.72h3.02v-.33h.38v.33h1.03v.28h-1.03v.56c0,.35-.21,.53-.63,.53-.24,0-.49,0-.74,0-.02-.1-.04-.22-.07-.36,.26,.02,.49,.03,.71,.03,.24,0,.35-.08,.35-.25v-.51h-3.02v-.28Zm-.16-.69h2.15v-.41h-1.82v-.27h1.82v-.33h.38v.33h1.89v.27h-1.89v.41h2.23v.28h-4.76v-.28Z"/>
        <path class="cls-9" d="M88.35,45.55h2.32c-.16-.27-.29-.46-.38-.58l.38-.15c.09,.12,.22,.31,.4,.58l-.35,.15h2.29v.32h-2.93c-.01,.25-.02,.47-.04,.65h2.33c-.04,.6-.08,1.13-.12,1.57-.04,.5-.32,.76-.85,.76-.24,0-.57-.01-.98-.03-.02-.11-.04-.23-.07-.38,.41,.05,.74,.07,.99,.07,.3,0,.46-.15,.5-.46,.04-.33,.07-.74,.1-1.21h-1.92c-.09,.92-.58,1.63-1.47,2.14-.09-.09-.18-.18-.29-.28,.85-.48,1.3-1.13,1.37-1.95,.02-.22,.04-.51,.06-.87h-1.32v-.32Z"/>
        <path class="cls-9" d="M94.81,47.36c.09,.53-.07,.84-.46,.91-.09,.01-.25,.02-.47,0-.02-.11-.05-.22-.09-.35,.14,.03,.28,.04,.42,.03,.22-.03,.3-.23,.22-.6-.05-.23-.19-.48-.43-.75,.15-.41,.28-.82,.4-1.21h-.63v3.55h-.36v-3.84h1.39v.29c-.22,.62-.36,1.01-.42,1.16,.24,.3,.39,.57,.43,.81Zm.15,.3h1.43v-.62h-1.33v-.3c.2-.33,.38-.68,.55-1.06h-.65v-.3h.78c.08-.19,.15-.38,.22-.58l.4,.07c-.07,.17-.14,.33-.22,.51h1.74v.3h-1.87c-.16,.34-.33,.69-.52,1.06h.89v-.8h.41v.8h.98v.3h-.98v.62h1.16v.3h-1.16v.98h-.41v-.98h-1.43v-.3Z"/>
        <path class="cls-9" d="M101.83,45.57c.03-.1,.05-.21,.06-.31v-.04c0-.08-.03-.15-.08-.22-.07-.08-.15-.13-.26-.16-.11-.03-.22-.05-.35-.05h-.53c-.1,0-.17,0-.19,.02-.02,.02-.05,.07-.07,.15l-.4,1.39h.75c.12,0,.25-.02,.38-.05,.13-.03,.24-.09,.35-.16,.1-.08,.18-.17,.22-.27s.09-.2,.12-.3Zm.55,0c-.04,.13-.11,.25-.21,.36-.1,.11-.21,.21-.35,.29-.15,.09-.3,.16-.47,.2-.17,.05-.33,.07-.49,.07h-.87l-.36,1.25s-.02,.07-.02,.09c0,.03,0,.05,.03,.06,.03,.02,.09,.03,.17,.03,.08,0,.17,0,.25,0,.03,0,.05,.01,.05,.04h0s-.01,.05-.01,.05c-.02,.04-.04,.06-.08,.06-.24,0-.47-.01-.71-.01-.24,0-.48,0-.72,.01-.03,0-.05-.01-.05-.04v-.06s.05-.06,.09-.06c.09,0,.17,0,.25,0,.08,0,.14-.01,.19-.03,.04-.02,.08-.07,.1-.15l.8-2.77s.02-.07,.02-.09c0-.03-.01-.05-.03-.06-.03-.02-.09-.03-.16-.03-.08,0-.17,0-.26,0-.03,0-.05-.01-.05-.04h0s.02-.05,.02-.05c0-.04,.03-.06,.08-.06h1.82c.16,0,.31,.02,.45,.07,.14,.05,.26,.11,.36,.2,.09,.08,.15,.18,.19,.3,.01,.05,.02,.11,.02,.16,0,.06,0,.13-.03,.2Z"/>
        <path class="cls-9" d="M103.36,47.8c-.02,.08-.07,.14-.14,.19-.08,.05-.16,.08-.24,.08s-.15-.03-.19-.08c-.03-.03-.05-.07-.05-.12,0-.02,0-.04,.01-.07,.02-.07,.07-.14,.14-.19,.08-.05,.16-.08,.24-.08,.09,0,.15,.03,.2,.08,.03,.04,.04,.08,.04,.12,0,.02,0,.04-.01,.07Z"/>
        <path class="cls-9" d="M109.01,25.44l-1.73,2.95h1.93l-.2-2.95Zm1.81,5.18c-.02,.07-.06,.1-.12,.1-.31-.02-.61-.03-.91-.03h-.14c-.36,0-.71,.01-1.07,.03-.05,0-.08-.02-.08-.07v-.1c.03-.07,.08-.11,.15-.11,.11,0,.21,0,.3-.01,.09,0,.18-.03,.27-.08,.04-.02,.07-.04,.09-.08,.02-.03,.03-.06,.03-.09v-.03l-.11-1.5h-2.11l-.74,1.25c-.04,.08-.06,.15-.06,.21,0,.06,.02,.11,.05,.16,.08,.11,.22,.16,.41,.16,.06,0,.08,.02,.09,.06,0,.01,0,.03,0,.04l-.02,.07c-.02,.07-.07,.1-.13,.1-.28-.01-.55-.02-.83-.03h-.12c-.23,0-.47,0-.71,.03-.03,0-.05,0-.06-.03-.01-.01-.02-.02-.02-.03s0-.02,0-.04l.02-.07c.02-.07,.06-.11,.13-.11,.1,0,.2-.01,.3-.03,.1-.02,.19-.06,.28-.11,.08-.05,.16-.12,.23-.2,.07-.08,.14-.16,.19-.26l3.2-5.46c.04-.07,.1-.1,.17-.1h.08c.07,0,.11,.03,.12,.1l.4,5.71c.01,.08,.02,.14,.03,.19,.01,.05,.04,.08,.08,.1,.05,.03,.13,.05,.23,.05,.1,0,.21,0,.34,0,.05,0,.08,.02,.08,.06,0,.01,0,.03-.01,.04l-.02,.07Z"/>
        <path class="cls-9" d="M127.11,30.49c.01-.08,.01-.17,.01-.25v-.1c-.01-.11-.03-.2-.06-.28-.04-.08-.1-.14-.17-.19-.08-.05-.18-.07-.31-.07-.14,0-.27,.06-.39,.17-.12,.11-.2,.24-.25,.4,0,.05,0,.1,0,.15,0,.07,0,.13,.03,.19,.04,.1,.11,.17,.21,.2h.13c.27,0,.55-.07,.81-.21Zm1.98-5c-.1-.25-.25-.46-.46-.63-.2-.17-.46-.26-.77-.26s-.6,.09-.89,.26c-.3,.17-.56,.38-.79,.63-.29,.32-.52,.67-.69,1.05-.16,.38-.3,.75-.4,1.14-.1,.38-.16,.75-.17,1.11-.01,.05-.01,.11-.01,.16,0,.31,.05,.6,.16,.87,.07,.17,.16,.32,.27,.45,.11,.13,.25,.23,.41,.3-.03-.07-.04-.14-.04-.21,0-.07,.01-.14,.03-.21,.02-.1,.07-.19,.12-.28,.06-.09,.13-.17,.21-.25,.07-.07,.16-.13,.26-.17,.09-.04,.2-.06,.3-.06,.15,0,.27,.03,.36,.08s.17,.12,.22,.21c.05,.09,.09,.19,.11,.3,.02,.11,.03,.23,.04,.36,.11-.07,.22-.15,.32-.24,.1-.09,.2-.18,.3-.28,.29-.32,.52-.66,.69-1.03,.16-.37,.29-.74,.39-1.12,.1-.38,.16-.76,.18-1.14,.01-.06,.01-.12,.01-.18,0-.3-.05-.59-.16-.86Zm.82,2.18c-.1,.42-.28,.82-.52,1.22-.24,.39-.54,.75-.91,1.07-.34,.3-.71,.54-1.1,.71,.01,.13,.02,.25,.03,.36,.02,.11,.05,.21,.09,.3,.04,.09,.1,.16,.17,.21,.07,.05,.17,.08,.3,.08,.11,0,.22-.02,.32-.07,.1-.05,.2-.11,.29-.19,.09-.08,.17-.18,.24-.29,.07-.11,.12-.23,.15-.35,0-.03,.02-.05,.04-.07,.03-.02,.05-.03,.08-.03s.06,0,.08,.03c.01,.01,.01,.02,.01,.03s0,.02-.01,.03c-.05,.2-.11,.4-.2,.6-.08,.2-.19,.39-.31,.56-.12,.17-.26,.31-.42,.42-.16,.11-.35,.16-.55,.16-.23,0-.4-.05-.5-.15s-.16-.23-.19-.4c-.01-.08-.02-.16-.02-.25s.01-.19,.02-.29c.03-.2,.05-.4,.07-.6-.27,.09-.55,.14-.83,.14-.39,0-.73-.09-1.04-.26-.3-.17-.54-.4-.72-.7-.2-.32-.31-.68-.34-1.08-.01-.1-.02-.19-.02-.29,0-.3,.04-.61,.12-.93,.11-.42,.28-.84,.52-1.24,.24-.4,.55-.77,.92-1.09,.33-.29,.68-.53,1.07-.7,.39-.18,.78-.27,1.18-.27s.73,.09,1.03,.27c.3,.18,.54,.41,.72,.7,.2,.32,.31,.69,.35,1.09,.01,.1,.01,.19,.01,.29,0,.31-.04,.63-.13,.95Z"/>
        <path class="cls-9" d="M131.41,31.64s-.02,.05-.02,.08c0,.04,0,.06,.05,.07,.04,.02,.11,.03,.22,.03,.11,0,.21,0,.32,0,.04,0,.06,.01,.06,.04,0,0,0,.01-.01,.02v.04s-.06,.06-.09,.06c-.28,0-.56-.01-.84-.01s-.56,0-.85,.01c-.03,0-.05-.01-.05-.04v-.02l.02-.04s.04-.06,.08-.06c.11,0,.22,0,.33,0s.19-.01,.24-.03c.06-.02,.09-.07,.12-.15l.74-2.55c-.12,.07-.23,.13-.36,.17-.12,.04-.24,.06-.38,.06-.02,0-.03,0-.04-.01,0,0-.01-.01-.01-.02,0,0,0-.01,.01-.02v-.05s.05-.06,.1-.06c.21,0,.41-.06,.61-.19,.19-.12,.36-.28,.51-.46,.02-.02,.04-.03,.07-.04h.02s.03,0,.04,.02c.01,0,.01,.01,.01,.02,0,0,0,.01-.01,.02l-.89,3.11Z"/>
        <path class="cls-9" d="M136.77,28.07c0,.31-.25,.55-.55,.55s-.56-.25-.56-.55,.25-.55,.56-.55,.55,.25,.55,.55Z"/>
        <path class="cls-9" d="M140.82,30.24c-.03,.13-.1,.25-.22,.34-.12,.09-.25,.14-.39,.14-.13,0-.23-.05-.3-.14-.05-.06-.08-.13-.08-.21,0-.03,.01-.08,.02-.13,.03-.13,.11-.24,.23-.34,.12-.09,.25-.14,.38-.14,.14,0,.24,.05,.32,.14,.04,.07,.06,.14,.06,.21,0,.03,0,.08-.02,.12Z"/>
        <path class="cls-9" d="M143.6,30.24c-.03,.13-.11,.25-.23,.34-.12,.09-.25,.14-.39,.14-.13,0-.23-.05-.3-.14-.05-.06-.08-.13-.08-.21,0-.03,.01-.08,.02-.13,.03-.13,.11-.24,.23-.34,.12-.09,.25-.14,.38-.14,.14,0,.24,.05,.32,.14,.04,.07,.06,.14,.06,.21,0,.03,0,.08-.01,.12Z"/>
        <path class="cls-9" d="M146.37,30.24c-.03,.13-.11,.25-.23,.34-.12,.09-.25,.14-.38,.14-.14,0-.24-.05-.31-.14-.05-.06-.07-.13-.07-.21,0-.03,0-.08,0-.13,.03-.13,.11-.24,.23-.34,.12-.09,.25-.14,.38-.14,.14,0,.25,.05,.32,.14,.04,.07,.06,.14,.06,.21,0,.03,0,.08-.01,.12Z"/>
        <path class="cls-9" d="M151.32,30.49c.01-.08,.01-.17,.01-.25v-.1c0-.11-.02-.2-.06-.28-.04-.08-.09-.14-.17-.19-.07-.05-.18-.07-.31-.07-.14,0-.27,.06-.39,.17-.12,.11-.2,.24-.24,.4-.02,.05-.02,.1-.02,.15,0,.07,0,.13,.03,.19,.05,.1,.12,.17,.22,.2h.12c.28,0,.55-.07,.81-.21Zm1.99-5c-.11-.25-.26-.46-.47-.63-.2-.17-.46-.26-.76-.26s-.6,.09-.9,.26c-.29,.17-.55,.38-.78,.63-.3,.32-.53,.67-.7,1.05-.16,.38-.29,.75-.39,1.14-.1,.38-.16,.75-.18,1.11-.01,.05-.01,.11-.01,.16,0,.31,.06,.6,.17,.87,.07,.17,.16,.32,.27,.45s.24,.23,.4,.3c-.02-.07-.03-.14-.03-.21,0-.07,0-.14,.02-.21,.03-.1,.07-.19,.13-.28s.12-.17,.2-.25c.08-.07,.16-.13,.26-.17,.1-.04,.2-.06,.3-.06,.15,0,.27,.03,.36,.08,.1,.05,.17,.12,.22,.21,.05,.09,.09,.19,.11,.3,.02,.11,.04,.23,.04,.36,.11-.07,.22-.15,.32-.24,.11-.09,.21-.18,.3-.28,.29-.32,.52-.66,.69-1.03,.16-.37,.29-.74,.39-1.12,.1-.38,.16-.76,.19-1.14v-.18c0-.3-.05-.59-.15-.86Zm.82,2.18c-.11,.42-.28,.82-.53,1.22-.24,.39-.54,.75-.9,1.07-.35,.3-.72,.54-1.1,.71,0,.13,.01,.25,.03,.36,.01,.11,.04,.21,.08,.3,.04,.09,.1,.16,.17,.21,.08,.05,.18,.08,.3,.08,.11,0,.22-.02,.32-.07,.11-.05,.2-.11,.29-.19,.1-.08,.17-.18,.24-.29,.07-.11,.12-.23,.15-.35,.01-.03,.02-.05,.04-.07,.03-.02,.06-.03,.09-.03s.05,0,.07,.03c.01,.01,.01,.02,.01,.03s0,.02-.01,.03c-.05,.2-.11,.4-.2,.6-.08,.2-.18,.39-.3,.56-.12,.17-.27,.31-.43,.42-.16,.11-.35,.16-.55,.16-.23,0-.4-.05-.5-.15s-.16-.23-.18-.4c-.02-.08-.02-.16-.02-.25s0-.19,.02-.29c.02-.2,.04-.4,.07-.6-.28,.09-.56,.14-.83,.14-.39,0-.74-.09-1.04-.26-.31-.17-.55-.4-.73-.7-.19-.32-.31-.68-.34-1.08,0-.1-.02-.19-.02-.29,0-.3,.04-.61,.12-.93,.11-.42,.29-.84,.53-1.24,.23-.4,.54-.77,.91-1.09,.33-.29,.69-.53,1.07-.7,.39-.18,.78-.27,1.18-.27s.73,.09,1.03,.27c.3,.18,.54,.41,.72,.7,.2,.32,.32,.69,.35,1.09,.01,.1,.01,.19,.01,.29,0,.31-.04,.63-.12,.95Z"/>
        <path class="cls-9" d="M156.56,29.93s-.04,.06-.08,.06h-.55l-.43,1.47c-.03,.11-.05,.2-.05,.28v.06c.02,.09,.07,.14,.17,.14,.07,0,.15-.02,.21-.06,.07-.04,.14-.09,.19-.15,.06-.06,.11-.13,.16-.21,.05-.08,.09-.17,.13-.26,0-.01,.01-.02,.02-.03,.02,0,.03,0,.04,0h.07s.03,0,.04,.01v.02h0c-.04,.1-.08,.2-.14,.29-.06,.09-.13,.18-.2,.25-.08,.07-.16,.13-.25,.18-.1,.05-.19,.07-.3,.07-.1,0-.18-.02-.24-.05-.07-.03-.13-.08-.17-.13-.04-.05-.06-.12-.07-.19v-.06c0-.05,0-.11,.02-.16l.42-1.47h-.57s-.04-.01-.05-.04h0s.02-.05,.02-.05c0-.04,.04-.06,.08-.06h.56l.24-.83c.02-.05,.05-.09,.09-.12,.05-.03,.1-.04,.14-.04,.05,0,.09,.01,.12,.04,.02,.02,.03,.04,.03,.07,0,.02,0,.03,0,.05l-.23,.83h.55s.05,.01,.05,.04h0s-.01,.05-.01,.05Z"/>
        <path class="cls-9" d="M124.26,33.78c.34,.93,1.23,1.55,2.22,1.55h11.7c.88,0,1.67,.55,1.97,1.37h.25c.3-.83,1.09-1.37,1.97-1.37h11.7c.99,0,1.88-.62,2.22-1.55l-.06-.19c-.34,.74-1.08,1.21-1.89,1.21h-11.97c-.88,0-1.67,.55-1.97,1.37h-.25c-.3-.83-1.09-1.37-1.97-1.37h-11.97c-.81,0-1.55-.47-1.89-1.21"/>
        <path class="cls-9" d="M116.29,38.95h-.64s-.03,.07-.04,.1c.04,.58,.15,1.08,.35,1.49,.19-.4,.3-.93,.33-1.59Zm-1.69,1.17h-.79v.98h.79v-.98Zm-2.52-.26c.42-.58,.73-1.23,.93-1.97l.36,.08c-.11,.33-.22,.63-.34,.91v3.1h-.33v-2.45c-.14,.25-.3,.48-.46,.68-.05-.11-.1-.23-.16-.35Zm1.38-.02h.55v-.83h-.76v-.28h.76v-.81h.36v.81h.77v.28h-.77v.83h.58v1.53h-1.14v.29h-.35v-1.82Zm2.13-1.95l.35,.05c-.05,.26-.12,.51-.19,.74h1.14v.27h-.25c-.04,.8-.2,1.45-.48,1.94,.2,.31,.46,.55,.78,.73-.08,.1-.16,.21-.22,.31-.31-.21-.56-.46-.77-.74-.22,.29-.51,.57-.85,.83-.06-.08-.14-.17-.24-.26,.39-.28,.69-.57,.9-.87-.21-.38-.34-.81-.4-1.3-.08,.14-.16,.28-.25,.4-.05-.08-.13-.17-.21-.27,.33-.5,.56-1.11,.69-1.83Z"/>
        <path class="cls-9" d="M119.63,37.63s.01,.01,.01,.02c0,.01-.01,.03-.03,.05-.17,.12-.32,.26-.44,.41-.13,.15-.21,.31-.27,.48v.09c.06-.07,.15-.1,.26-.1,.1,0,.17,.03,.21,.08,.02,.04,.03,.08,.03,.12,0,.02,0,.05-.01,.07-.02,.07-.06,.13-.13,.18-.07,.05-.15,.08-.25,.08-.07,0-.13-.02-.17-.05-.04-.03-.07-.08-.08-.13-.01-.04-.02-.08-.02-.13v-.04c0-.06,.02-.12,.04-.18,.05-.18,.14-.36,.28-.53,.13-.17,.29-.32,.48-.44,.02,0,.04-.01,.05-.01,.02,0,.03,0,.04,.01h0Zm1.06,0s.01,.02,.01,.02c0,.02-.01,.03-.03,.05-.18,.12-.33,.26-.45,.41-.12,.15-.21,.31-.25,.48-.01,.02-.01,.03-.02,.04,0,.01,0,.03,0,.05,.08-.07,.17-.1,.28-.1,.1,0,.17,.03,.21,.08,.02,.04,.03,.08,.03,.12,0,.02,0,.05-.01,.07-.02,.07-.06,.13-.13,.18-.07,.05-.15,.08-.25,.08-.08,0-.13-.02-.17-.05-.04-.03-.07-.08-.08-.13-.02-.04-.02-.08-.02-.13v-.04c0-.06,.01-.12,.04-.18,.05-.18,.14-.36,.27-.53,.14-.17,.3-.32,.49-.44,.02,0,.04-.01,.05-.01s.02,0,.03,.01h0Z"/>
        <path class="cls-7" d="M124.72,40.94h-.37v-2.55h.37v2.55Zm.69-3.02h.39v3.45c0,.35-.19,.53-.56,.53-.17,0-.44,0-.78,0-.02-.13-.05-.25-.08-.38,.33,.03,.58,.04,.73,.04,.2,0,.3-.09,.3-.28v-3.36Zm-3.28,2.19l.23-.23c.25,.17,.47,.34,.67,.51,.22-.32,.37-.67,.46-1.05h-1.09c-.25,.5-.56,.95-.93,1.35-.07-.14-.14-.25-.19-.33,.48-.57,.86-1.23,1.12-1.98h-.96v-.3h2.7v.3h-1.34c-.08,.23-.16,.45-.26,.66h1.34v.31c-.26,1.14-.96,2.02-2.08,2.64-.08-.08-.18-.17-.3-.25,.55-.31,.99-.66,1.33-1.07-.19-.16-.42-.34-.7-.55Z"/>
        <path class="cls-7" d="M127.2,38.91l.29,.21c-.33,.33-.65,.62-.97,.89-.08-.08-.17-.16-.28-.23,.34-.25,.66-.54,.96-.86Zm2.45,.2l.27-.2c.41,.32,.75,.6,1.01,.85l-.3,.23c-.31-.3-.64-.6-.98-.88Zm-.06,1.2h-1.82c.24,.3,.51,.54,.83,.71,.39-.2,.72-.43,.99-.71Zm-3.28-1.94h2.2c-.1-.16-.19-.29-.27-.41l.35-.15c.15,.21,.26,.37,.33,.47l-.19,.08h2.19v.3h-1.56v1.16h-.37v-1.16h-.77v1.17h-.38v-1.17h-1.53v-.3Zm.47,1.94v-.29h3.28v.29c-.3,.35-.67,.64-1.1,.89,.52,.22,1.21,.35,2.05,.4-.12,.14-.21,.26-.28,.35-.86-.1-1.58-.29-2.14-.57-.54,.24-1.25,.44-2.13,.6-.08-.11-.16-.21-.24-.31,.84-.13,1.51-.29,2.02-.49-.35-.23-.65-.52-.91-.87h-.55Z"/>
        <path class="cls-7" d="M134.79,38.57h-1.23c-.16,.2-.33,.4-.51,.58h1.2c.22-.23,.4-.42,.54-.58Zm-1.55,1.84h.75c.03-.14,.04-.46,.04-.97h-.79v.97Zm1.94-.97h-.81c0,.35,0,.68-.03,.97h.84v-.97Zm-4.07,.64c.19-.05,.39-.1,.61-.16v-.97h-.57v-.28h.57v-.78h.36v.78h.55v.28h-.55v.86c.17-.05,.33-.1,.51-.16,0,.14,0,.25,.01,.33-.03,0-.2,.06-.52,.16v1.34c0,.28-.14,.43-.44,.44-.14,0-.3,0-.48,0-.02-.12-.04-.23-.06-.35,.18,.02,.33,.03,.44,.03,.12,0,.18-.06,.18-.18v-1.18c-.16,.05-.35,.11-.56,.18l-.05-.35Zm1.37,.33h.42v-1.13c-.08-.05-.18-.12-.28-.19,.42-.38,.76-.8,1.01-1.26l.39,.06c-.08,.13-.16,.26-.25,.39h1.46v.28c-.12,.13-.31,.33-.57,.58h.87v1.26h.39v.29h-1.5c.25,.48,.75,.79,1.47,.92-.12,.12-.21,.24-.29,.34-.66-.19-1.13-.54-1.4-1.04-.18,.43-.72,.79-1.61,1.07-.07-.1-.16-.2-.27-.3,.92-.24,1.45-.56,1.59-.99h-1.43v-.29Z"/>
        <path class="cls-9" d="M137.99,38.13c-.06,.19-.15,.36-.28,.53-.13,.17-.3,.32-.49,.44-.01,0-.03,0-.04,0s-.02,0-.04,0h-.01v-.03s.01-.03,.03-.05c.17-.12,.32-.26,.44-.41,.12-.15,.21-.31,.26-.48,0-.02,0-.03,0-.04,.01-.01,.01-.03,.01-.05-.03,.03-.07,.05-.12,.07-.05,.02-.1,.03-.16,.03-.1,0-.16-.03-.2-.09-.02-.03-.03-.07-.03-.11,0-.02,0-.05,.01-.07,.02-.06,.06-.12,.12-.18,.07-.05,.16-.08,.26-.08,.07,0,.13,.02,.17,.05,.04,.03,.06,.07,.08,.12,.01,.03,.01,.07,.01,.11v.05c-.01,.06-.02,.12-.03,.18Zm1.05,0c-.05,.19-.14,.36-.27,.53-.13,.17-.29,.32-.49,.44-.01,0-.03,0-.04,0s-.03,0-.04,0h-.01s-.01-.03-.01-.03c0-.02,.01-.03,.03-.05,.18-.12,.33-.25,.45-.41,.12-.15,.21-.32,.26-.49,0-.02,0-.03,0-.04s.01-.03,.01-.05c-.03,.03-.07,.05-.12,.07-.05,.02-.1,.03-.16,.03-.1,0-.17-.03-.2-.09-.02-.03-.04-.07-.04-.11,0-.02,0-.05,0-.07,.02-.06,.06-.12,.13-.18,.07-.05,.15-.08,.26-.08,.07,0,.13,.02,.17,.05,.03,.03,.06,.07,.08,.12,.01,.03,.01,.07,.01,.11v.05c-.01,.06-.02,.12-.04,.18Z"/>
        <path class="cls-9" d="M140.32,41.09c-.06,.19-.15,.36-.28,.53-.13,.17-.29,.32-.47,.44-.02,0-.03,0-.05,0-.01,0-.02,0-.03,0h0s-.01-.03-.01-.03c0-.02,.01-.03,.03-.05,.17-.12,.32-.25,.44-.41,.11-.15,.2-.32,.25-.49l.02-.08s-.07,.05-.12,.06c-.04,.02-.09,.02-.14,.02-.1,0-.17-.03-.21-.09-.02-.03-.03-.07-.03-.11,0-.02,0-.05,.01-.07,.02-.07,.06-.13,.13-.18,.06-.05,.15-.08,.25-.08,.07,0,.13,.02,.17,.05,.03,.03,.06,.08,.07,.13,.01,.03,.01,.07,.01,.11v.05c-.01,.06-.02,.12-.03,.18Z"/>
        <path class="cls-9" d="M113.76,47.54l.27-.15c.19,.21,.34,.4,.46,.57l-.3,.18c-.12-.19-.26-.39-.43-.59Zm1.89-2.28l.23-.22c.26,.16,.5,.32,.74,.49l-.25,.24c-.15-.12-.39-.29-.72-.51Zm-2.97,2.19l.31,.11c-.15,.35-.33,.66-.54,.94-.08-.05-.18-.1-.3-.15,.2-.27,.38-.57,.53-.9Zm1.37-1.13h-1.23v.61h1.23v-.61Zm-1.86-.93h1.19c-.08-.15-.18-.3-.3-.46l.32-.13c.12,.15,.22,.31,.31,.46l-.31,.13h1.26v.28h-2.47v-.28Zm.29,.66h1.91v1.26h-.34v-.1h-.45v1.24c0,.28-.16,.43-.49,.43-.14,0-.29,0-.42,0-.02-.11-.04-.22-.08-.32,.14,.02,.29,.03,.44,.03,.14,0,.22-.06,.22-.19v-1.17h-.45v.1h-.34v-1.26Zm2.04-.03h.5c.01-.22,.01-.62,.02-1.19h.35c0,.53,0,.92-.02,1.19h1.41v.3h-.86v2c0,.13,.06,.2,.18,.2h.16c.14,0,.22-.08,.25-.25,.03-.17,.05-.38,.06-.64,.23,.08,.35,.12,.36,.13-.03,.25-.05,.45-.08,.61-.05,.3-.23,.45-.54,.45h-.32c-.28,0-.42-.15-.42-.44v-2.06h-.21c-.02,1.1-.39,1.98-1.1,2.64-.08-.08-.17-.16-.27-.24,.66-.61,1.01-1.41,1.02-2.4h-.49v-.3Z"/>
        <path class="cls-9" d="M117.79,44.94c.18,.14,.45,.37,.82,.68l-.32,.26c-.3-.3-.56-.54-.78-.71l.28-.23Zm1.11,2.62c.03,.14,.07,.26,.1,.37-.31,.18-.61,.37-.89,.57-.09,.07-.18,.15-.26,.24l-.32-.28c.13-.1,.19-.24,.19-.43v-1.44h-.7v-.32h1.09v1.82c.23-.14,.5-.32,.79-.52Zm-.29,.81h1.21v-3.48h.42v1.22h1.34v.31h-1.34v1.95h1.59v.32h-3.22v-.32Z"/>
        <path class="cls-9" d="M125.13,45.11l-1.08,1.65h1.21l-.13-1.65Zm1.14,2.9s-.04,.06-.08,.06c-.19,0-.38-.01-.56-.01h-.1c-.22,0-.44,0-.67,.01-.03,0-.05-.01-.05-.04v-.06s.05-.06,.09-.06c.07,0,.14,0,.2,0,.05,0,.11-.02,.16-.05,.03,0,.05-.02,.06-.04,0-.02,.02-.03,.02-.05h0s-.07-.85-.07-.85h-1.33l-.45,.7s-.04,.08-.04,.12c0,.03,.01,.06,.03,.09,.05,.06,.13,.09,.25,.09,.04,0,.06,.01,.06,.03,0,0,0,.01,0,.02v.04s-.05,.06-.09,.06c-.17,0-.35-.01-.52-.01h-.07c-.15,0-.3,0-.45,.01-.02,0-.03,0-.04-.01,0,0,0-.01,0-.02v-.06s.05-.06,.1-.06c.06,0,.12,0,.18-.02,.06-.01,.12-.03,.18-.06,.05-.03,.1-.07,.14-.11,.05-.04,.09-.09,.12-.15l2.01-3.06s.06-.06,.1-.05h.06s.06,.02,.07,.05l.25,3.2s.01,.08,.02,.11c.01,.03,.02,.05,.05,.06,.03,.02,.08,.03,.14,.03,.07,0,.14,0,.22,0,.03,0,.05,.01,.05,.03,0,0-.01,.01-.01,.02v.04Z"/>
        <path class="cls-9" d="M128.81,44.6s.01,.01,.01,.02c0,.01-.01,.03-.02,.05-.18,.12-.33,.26-.45,.41-.13,.15-.21,.31-.26,.48l-.02,.09c.07-.07,.16-.1,.27-.1,.11,0,.18,.03,.21,.08,.02,.04,.04,.08,.04,.12,0,.02-.01,.05-.02,.07-.02,.07-.06,.13-.13,.18-.06,.05-.15,.08-.25,.08-.07,0-.13-.02-.17-.05-.04-.03-.06-.08-.08-.13-.01-.04-.02-.08-.02-.13v-.04c0-.06,.02-.12,.04-.18,.05-.18,.15-.36,.28-.53,.13-.17,.29-.32,.48-.44,.02,0,.04-.01,.05-.01,.02,0,.03,0,.04,.01h0Zm1.06,0s.01,.02,.01,.02c0,.02-.01,.03-.03,.05-.18,.12-.33,.26-.45,.41-.12,.15-.2,.31-.25,.48-.01,.02-.01,.03-.01,.05-.01,.01-.01,.03-.02,.05,.08-.07,.17-.1,.28-.1,.1,0,.17,.03,.21,.08,.02,.04,.03,.08,.03,.12,0,.02,0,.05,0,.07-.02,.07-.06,.13-.13,.18-.07,.05-.15,.08-.25,.08-.07,0-.13-.02-.17-.05-.04-.03-.07-.08-.08-.13-.01-.04-.02-.08-.02-.13v-.04c0-.06,.02-.12,.04-.18,.05-.18,.14-.36,.28-.53,.13-.17,.29-.32,.48-.44,.02,0,.04-.01,.05-.01,.01,0,.03,0,.04,.01h0Z"/>
        <path class="cls-7" d="M134.41,46.97h-2.46v1.28h2.46v-1.28Zm-3.81-1.5h1.72c.11-.21,.23-.43,.33-.66l.39,.11c-.09,.19-.19,.37-.29,.54h2.49v.32h-2.68c-.18,.3-.38,.59-.58,.87h2.82v2.26h-.39v-.36h-2.46v.36h-.38v-1.76c-.25,.28-.5,.54-.77,.79-.06-.06-.16-.14-.3-.25,.64-.56,1.19-1.2,1.63-1.91h-1.53v-.32Z"/>
        <path class="cls-7" d="M135.43,47.3c.37-.05,.75-.11,1.15-.18v-.39h-1.02v-.27h1.02v-.3h.36v1.48h-.36v-.21c-.3,.06-.66,.13-1.06,.2l-.09-.32Zm3.21-1.15h.36v.39c.32-.08,.63-.18,.92-.29l.13,.28c-.31,.11-.66,.21-1.05,.29v.28c0,.15,.07,.22,.22,.22h.22c.18,0,.29-.05,.32-.16,.02-.1,.04-.22,.06-.35,.12,.05,.24,.09,.34,.12-.02,.13-.05,.25-.08,.35-.08,.23-.26,.34-.56,.34h-.39c-.33,0-.49-.17-.49-.51v-.97Zm1.57,2.25c-.1,.11-.19,.22-.28,.35-.92-.28-1.58-.75-1.96-1.41v1.6h-.36v-1.55c-.39,.59-1.04,1.06-1.96,1.38-.07-.09-.16-.19-.27-.3,.96-.24,1.7-.77,2.23-1.57v-.93h-2.14v-.28h2.14v-.39c-.57,.01-1.17,.03-1.81,.04-.02-.09-.04-.18-.07-.28,1.62-.02,2.96-.06,4.02-.12l.05,.29c-.55,.02-1.16,.05-1.83,.06v.4h2.18v.28h-2.18v.87c.53,.89,1.27,1.41,2.24,1.56Z"/>
        <path class="cls-9" d="M142.26,45.1c-.05,.19-.15,.36-.28,.53-.13,.17-.29,.32-.48,.44-.02,0-.03,0-.05,0,0,0-.02,0-.03,0h-.01s-.01-.03-.01-.03c0-.02,.01-.03,.03-.05,.17-.12,.32-.26,.44-.41,.13-.15,.21-.31,.26-.48,.01-.02,.02-.03,.02-.05s0-.03,.01-.05c-.04,.03-.08,.05-.13,.07-.04,.02-.1,.03-.15,.03-.1,0-.17-.03-.21-.09-.02-.03-.03-.07-.03-.11,0-.02,0-.05,0-.07,.02-.06,.06-.12,.13-.18,.06-.05,.15-.08,.25-.08,.07,0,.13,.02,.17,.05,.04,.03,.07,.07,.08,.12,0,.03,0,.07,0,.12v.05c0,.06,0,.12-.03,.18Zm1.06,0c-.06,.19-.15,.36-.28,.53-.13,.17-.29,.32-.48,.44-.02,0-.03,0-.05,0-.01,0-.02,0-.04,0h0s-.01-.03-.01-.03c0-.02,.01-.03,.03-.05,.17-.12,.32-.25,.44-.41,.12-.15,.21-.32,.26-.49,.01-.02,.01-.03,.01-.05,.01-.01,.01-.03,.01-.05-.03,.03-.07,.05-.12,.07-.04,.02-.1,.03-.16,.03-.1,0-.16-.03-.2-.09-.02-.03-.03-.07-.04-.11,0-.02,.01-.05,.02-.07,.02-.06,.06-.12,.12-.18,.07-.05,.16-.08,.26-.08,.08,0,.13,.02,.17,.05,.04,.03,.07,.07,.08,.12,0,.03,0,.07,0,.12v.05c0,.06-.02,.12-.03,.18Z"/>
        <path class="cls-9" d="M145.06,44.95l.34-.15c.12,.16,.25,.35,.38,.57l-.36,.16c-.12-.22-.24-.42-.36-.58Zm-.45,.96v-.3h1.59v.31c-.17,.27-.36,.51-.57,.74v.13c.08,.05,.16,.09,.24,.14,.16-.18,.31-.37,.44-.57l.32,.18c-.13,.17-.3,.36-.49,.57,.16,.1,.33,.21,.49,.31l-.25,.25c-.24-.18-.49-.35-.75-.52v1.76h-.36v-1.87c-.19,.18-.39,.35-.6,.5-.04-.11-.08-.23-.13-.36,.46-.31,.87-.74,1.23-1.27h-1.16Zm1.82-.73h2.68c-.04,1.46-.08,2.41-.11,2.85-.01,.52-.27,.78-.77,.77-.16,0-.4,0-.71-.01-.02-.13-.05-.26-.08-.38,.31,.03,.56,.04,.75,.04,.26,0,.4-.14,.41-.44,.03-.44,.07-1.27,.1-2.51h-1.09c-.02,.54-.05,.98-.07,1.31-.07,.86-.51,1.56-1.31,2.11-.09-.09-.19-.18-.31-.27,.75-.5,1.15-1.12,1.21-1.87,.04-.37,.06-.8,.07-1.29h-.77v-.32Z"/>
        <path class="cls-9" d="M153.06,46.08c-.06-.08-.19-.23-.39-.43l.25-.15c.17,.14,.32,.28,.43,.39l-.29,.19Zm-2.1,0c-.13-.14-.26-.28-.4-.43l.25-.15c.15,.13,.3,.26,.43,.39l-.28,.19Zm-.4,1.97l.25-.21c.22,.16,.44,.34,.67,.52l-.28,.23c-.17-.16-.39-.34-.64-.54Zm1.9-3.24h.42c-.07,.14-.15,.27-.23,.39h1.55v.26h-1.73c-.1,.15-.22,.29-.34,.41-.14-.08-.24-.14-.32-.17,.28-.26,.5-.56,.65-.89Zm-2.06,0h.41c-.07,.14-.15,.27-.24,.39h1.4v.26h-1.61c-.19,.22-.41,.42-.66,.61-.07-.07-.15-.14-.24-.23,.4-.28,.71-.63,.94-1.04Zm-.74,2.72h3.02v-.33h.38v.33h1.03v.28h-1.03v.56c0,.35-.21,.53-.63,.53-.25,0-.49,0-.74,0-.02-.1-.04-.22-.07-.36,.26,.02,.49,.03,.71,.03s.35-.08,.35-.25v-.51h-3.02v-.28Zm-.17-.69h2.16v-.41h-1.82v-.27h1.82v-.33h.37v.33h1.9v.27h-1.9v.41h2.23v.28h-4.76v-.28Z"/>
        <path class="cls-9" d="M154.46,45.55h2.31c-.16-.27-.29-.46-.38-.58l.38-.15c.09,.12,.22,.31,.4,.58l-.35,.15h2.29v.32h-2.93c-.01,.25-.02,.47-.04,.65h2.34c-.04,.6-.09,1.13-.13,1.57-.04,.5-.32,.76-.85,.76-.24,0-.57-.01-.98-.03-.02-.11-.04-.23-.07-.38,.41,.05,.74,.07,.99,.07,.3,0,.46-.15,.5-.46,.04-.33,.07-.74,.1-1.21h-1.92c-.09,.92-.58,1.63-1.48,2.14-.08-.09-.18-.18-.29-.28,.85-.48,1.3-1.13,1.36-1.95,.03-.22,.05-.51,.06-.87h-1.31v-.32Z"/>
        <path class="cls-9" d="M160.92,47.36c.09,.53-.06,.84-.46,.91-.09,.01-.25,.02-.47,0-.02-.11-.05-.22-.09-.35,.14,.03,.28,.04,.43,.03,.22-.03,.29-.23,.22-.6-.05-.23-.19-.48-.43-.75,.14-.41,.27-.82,.39-1.21h-.63v3.55h-.36v-3.84h1.39v.29c-.22,.62-.36,1.01-.41,1.16,.24,.3,.38,.57,.42,.81Zm.15,.3h1.42v-.62h-1.32v-.3c.2-.33,.38-.68,.55-1.06h-.65v-.3h.78c.08-.19,.15-.38,.22-.58l.41,.07c-.07,.17-.14,.33-.22,.51h1.74v.3h-1.88c-.15,.34-.33,.69-.52,1.06h.89v-.8h.41v.8h.98v.3h-.98v.62h1.16v.3h-1.16v.98h-.41v-.98h-1.42v-.3Z"/>
        <path class="cls-9" d="M166.95,47.94v-.2c0-.06-.02-.11-.04-.16-.02-.04-.06-.08-.1-.11-.05-.03-.11-.04-.2-.04-.08,0-.17,.03-.24,.09-.08,.06-.13,.14-.16,.22,0,.03,0,.06,0,.09,0,.04,0,.07,.03,.11,.02,.06,.07,.09,.13,.11h.08c.17,0,.34-.04,.51-.12Zm1.24-2.8c-.06-.14-.16-.26-.29-.35-.13-.1-.29-.14-.48-.14-.19,0-.38,.05-.56,.14-.19,.1-.35,.21-.5,.35-.18,.18-.33,.38-.43,.59-.1,.21-.19,.42-.25,.64-.06,.21-.1,.42-.11,.62,0,.03,0,.06,0,.09,0,.17,.04,.34,.11,.49,.04,.09,.1,.18,.17,.25,.07,.07,.15,.13,.25,.17,0-.04-.02-.08-.02-.12,0-.04,0-.08,.02-.12,0-.05,.04-.11,.07-.16,.04-.05,.08-.1,.13-.14,.05-.04,.1-.07,.17-.1,.06-.02,.12-.04,.19-.04,.09,0,.16,.02,.22,.05,.06,.03,.1,.07,.14,.12,.03,.05,.05,.1,.07,.17,.01,.06,.02,.13,.02,.2,.07-.04,.14-.09,.2-.13,.07-.05,.13-.1,.19-.16,.18-.18,.33-.37,.43-.58,.1-.21,.19-.41,.25-.63,.06-.21,.1-.43,.11-.64,0-.03,0-.07,0-.1,0-.17-.03-.33-.1-.48Zm.51,1.22c-.06,.23-.17,.46-.32,.68-.15,.22-.34,.42-.57,.6-.22,.17-.45,.3-.69,.4,0,.07,.01,.14,.02,.2s.02,.12,.05,.17c.02,.05,.06,.09,.11,.12,.04,.03,.11,.04,.18,.04s.14-.01,.21-.04c.06-.03,.12-.06,.18-.11,.06-.05,.11-.1,.15-.16,.04-.06,.07-.13,.09-.19,0-.02,0-.03,.03-.04,.01-.01,.03-.02,.05-.02,.02,0,.03,0,.05,.02v.04c-.03,.11-.07,.22-.13,.34-.05,.11-.11,.22-.19,.31-.08,.1-.16,.17-.27,.23-.1,.06-.21,.09-.34,.09-.15,0-.25-.03-.31-.08-.07-.06-.11-.13-.12-.22-.01-.04-.01-.09-.01-.14s0-.1,.01-.16c.01-.11,.03-.22,.04-.33-.17,.05-.34,.08-.52,.08-.24,0-.46-.05-.65-.14-.19-.1-.34-.23-.45-.39-.13-.18-.2-.38-.22-.6-.01-.05-.01-.11-.01-.16,0-.17,.02-.34,.07-.52,.07-.24,.18-.47,.33-.69,.15-.23,.34-.43,.58-.61,.2-.16,.43-.29,.67-.39,.24-.1,.49-.15,.74-.15,.24,0,.46,.05,.65,.15,.18,.1,.33,.23,.45,.39,.12,.18,.19,.38,.22,.61v.16c0,.17-.02,.35-.08,.53Z"/>
        <line class="cls-4" x1="172.31" y1="27.13" x2="178.61" y2="27.13"/>
        <line class="cls-4" x1="172.31" y1="29.01" x2="178.61" y2="29.01"/>
        <path class="cls-9" d="M183.83,29.78l.44-.27c.29,.37,.54,.71,.73,1.01l-.48,.31c-.19-.34-.42-.69-.69-1.06Zm3.03-4.08l.36-.39c.4,.28,.79,.57,1.17,.87l-.4,.43c-.23-.22-.61-.52-1.13-.92Zm-4.74,3.91l.5,.19c-.26,.63-.54,1.18-.87,1.67-.12-.09-.29-.18-.49-.26,.33-.49,.62-1.02,.86-1.6Zm2.18-2.01h-1.97v1.08h1.97v-1.08Zm-2.97-1.66h1.9c-.13-.26-.29-.54-.48-.82l.51-.24c.19,.27,.36,.55,.5,.83l-.49,.23h2v.51h-3.94v-.51Zm.46,1.17h3.05v2.24h-.54v-.18h-.72v2.21c0,.51-.26,.76-.78,.76-.23,0-.46,0-.68-.01-.02-.19-.06-.39-.12-.57,.23,.03,.47,.05,.71,.05,.22,0,.34-.11,.34-.34v-2.1h-.72v.18h-.54v-2.24Zm3.26-.04h.8c.01-.4,.02-1.1,.03-2.12h.56c-.01,.94-.02,1.64-.03,2.12h2.25v.54h-1.37v3.57c0,.23,.09,.35,.28,.35h.25c.23,0,.36-.15,.4-.44,.05-.3,.08-.68,.1-1.14,.36,.14,.55,.21,.57,.22-.04,.44-.09,.81-.13,1.1-.07,.53-.36,.8-.86,.8h-.51c-.45,0-.67-.26-.67-.78v-3.68h-.34c-.03,1.97-.61,3.54-1.74,4.71-.13-.14-.28-.28-.44-.43,1.06-1.09,1.6-2.52,1.63-4.28h-.78v-.54Z"/>
        <path class="cls-9" d="M192.03,28.26h-1.92v.72h1.92v-.72Zm-1.92,1.89h1.92v-.72h-1.92v.72Zm1.86-4.56c.47,.59,.87,1.15,1.22,1.69-.2,.13-.38,.24-.53,.34-.1-.17-.21-.35-.32-.52-1.26,.09-2.26,.17-3.02,.24l-.24-.63c.22-.12,.47-.34,.74-.67,.29-.36,.56-.76,.84-1.2l.6,.22c-.42,.6-.87,1.16-1.34,1.69,.77-.05,1.46-.09,2.09-.14-.16-.24-.33-.48-.52-.73l.48-.29Zm1.42-.63h.6v1.28c.71-.27,1.41-.6,2.11-.98l.34,.51c-.8,.39-1.61,.75-2.45,1.08v.43c0,.33,.14,.5,.41,.5h.98c.32,0,.51-.13,.55-.39,.03-.21,.06-.52,.09-.93,.19,.07,.39,.15,.6,.22-.04,.4-.09,.72-.13,.97-.08,.43-.43,.65-1.04,.65h-1.12c-.63,0-.94-.3-.94-.89v-2.44Zm0,3.64h.6v1.23c.73-.26,1.49-.61,2.28-1.04l.35,.51c-.84,.43-1.71,.81-2.63,1.14v.64c0,.31,.13,.47,.38,.47h1.13c.26,0,.41-.12,.45-.37,.04-.22,.07-.54,.09-.98,.2,.07,.4,.14,.6,.21-.04,.44-.08,.77-.13,.99-.06,.44-.38,.66-.96,.66h-1.28c-.59,0-.88-.29-.88-.87v-2.6Zm-3.27,3.59h-.6v-4.4h3.12v3.53c0,.54-.25,.81-.77,.81-.22,0-.51,0-.87,0-.02-.15-.06-.34-.11-.57,.32,.02,.58,.04,.78,.04,.25,0,.37-.13,.37-.38v-.62h-1.92v1.59Z"/>
        <path class="cls-9" d="M199.87,30.54l.44-.32c.3,.3,.58,.61,.84,.92l-.48,.34c-.24-.31-.51-.62-.8-.93Zm-2.98-3.53c.73-.56,1.34-1.26,1.84-2.09l.54,.31c-.63,.91-1.32,1.69-2.06,2.32-.09-.17-.2-.35-.32-.53Zm6.37-1.27h-2.83v.66h2.83v-.66Zm-2.83,1.77h2.83v-.66h-2.83v.66Zm-3.57,1.81c.65-.59,1.27-1.41,1.87-2.45l.53,.27c-.23,.38-.46,.73-.69,1.06v4.06h-.58v-3.3c-.28,.35-.57,.66-.86,.95-.07-.19-.16-.39-.27-.6Zm2.27,.37h3.7v-.61h-3.37v-.49h4.89v.49h-.94v.61h1.13v.49h-1.13v1.08c0,.59-.31,.89-.92,.89-.28,0-.66,0-1.15,0-.02-.16-.06-.37-.11-.6,.34,.03,.71,.05,1.12,.05,.32,0,.48-.16,.48-.47v-.94h-3.7v-.49Zm.75-4.43h3.93v2.97h-.55v-.25h-2.83v.25h-.55v-2.97Z"/>
        <path class="cls-9" d="M209.71,25.74h.63v4.75h-.63v-4.75Zm1.67-.8h.64v6.31c0,.62-.31,.93-.93,.93-.21,0-.59,0-1.12,0-.03-.2-.07-.43-.12-.67,.45,.04,.8,.06,1.05,.06,.32,0,.48-.16,.48-.49v-6.14Zm-6.45,4.28h1.81v-.93h.62v.93h1.76v.55h-1.76v1.31c.6-.07,1.23-.15,1.87-.24,0,.17,.01,.37,.03,.58-1.45,.17-2.91,.37-4.38,.57l-.18-.63c.66-.06,1.34-.14,2.04-.22v-1.38h-1.81v-.55Zm3.17-2.85c.41,.59,.8,1.2,1.16,1.83-.2,.09-.39,.19-.59,.3-.09-.18-.19-.37-.28-.54-1.11,.1-2.16,.21-3.15,.31l-.28-.62c.3-.15,.56-.4,.77-.74,.2-.29,.4-.61,.58-.97h-1.43v-.55h4.42v.55h-2.26c-.38,.63-.77,1.2-1.16,1.71,.73-.05,1.47-.12,2.23-.19-.17-.29-.34-.56-.53-.84l.52-.25Z"/>
        <path class="cls-9" d="M216.62,24.53s.02,.03,.02,.04c0,.02-.02,.05-.05,.08-.28,.22-.52,.46-.71,.73-.2,.27-.34,.56-.42,.86l-.03,.16c.11-.12,.26-.18,.44-.18,.16,0,.27,.05,.33,.14,.04,.07,.06,.14,.06,.21,0,.04-.01,.08-.02,.13-.03,.12-.1,.23-.21,.33-.11,.1-.24,.15-.4,.15-.12,0-.21-.03-.27-.09-.07-.06-.11-.14-.13-.23-.02-.07-.03-.15-.03-.23v-.07c0-.11,.02-.21,.05-.32,.09-.33,.24-.65,.45-.95,.21-.3,.47-.57,.78-.79,.03-.02,.05-.03,.07-.03,.03,0,.05,0,.06,.03v.02Zm1.69,0s.02,.03,.02,.04c0,.03,0,.06-.05,.08-.28,.22-.52,.46-.71,.73-.2,.27-.33,.56-.4,.86-.02,.03-.02,.06-.03,.08,0,.02-.01,.05-.02,.08,.13-.12,.28-.18,.44-.18,.17,0,.28,.05,.33,.14,.04,.07,.06,.14,.06,.21,0,.04,0,.08-.02,.13-.03,.12-.09,.23-.2,.33s-.25,.15-.41,.15c-.11,0-.2-.03-.27-.09-.06-.06-.1-.14-.13-.23-.02-.07-.03-.15-.03-.23v-.07c.01-.11,.03-.21,.06-.32,.09-.33,.24-.65,.45-.95,.21-.3,.47-.57,.77-.79,.04-.02,.06-.03,.08-.03s.04,0,.06,.03v.02Z"/>
        <path class="cls-9" d="M222.82,28.82l.58,.22c-.42,.91-.84,1.72-1.25,2.42-.16-.09-.35-.18-.57-.26,.42-.64,.83-1.44,1.24-2.39Zm2.47,.25l.55-.25c.49,.91,.89,1.7,1.22,2.38l-.62,.26c-.33-.77-.72-1.56-1.15-2.39Zm-2.83-3.67h4.1v.52h-4.1v-.52Zm-.35,2.18h4.8v.52h-2.12v3.12c0,.62-.3,.93-.89,.93-.28,0-.62,0-1.02,0-.03-.18-.06-.39-.11-.62,.35,.04,.68,.06,.97,.06,.31,0,.46-.18,.46-.55v-2.93h-2.09v-.52Zm-2.8,2.01c.57-.85,.96-1.74,1.17-2.67h-1.12v-.51h1.17v-1.46h.54v1.46h1.05v.51h-1.05v1.32l.33-.34c.33,.27,.62,.54,.87,.79l-.41,.41c-.24-.27-.51-.54-.79-.82v3.94h-.54v-4.04c-.27,.86-.59,1.54-.97,2.06-.07-.21-.16-.43-.25-.66Z"/>
        <path class="cls-9" d="M231.86,25.18l.5-.31c.2,.24,.43,.54,.69,.89l-.53,.34c-.24-.36-.46-.67-.66-.93Zm-4.17,.15c.43,.48,.86,.99,1.3,1.53-.04,.02-.22,.17-.54,.44-.38-.52-.8-1.05-1.24-1.59l.48-.38Zm2.76,2.51h1.74v-1.11h-1.74v1.11Zm0,1.62h1.74v-1.11h-1.74v1.11Zm-2.08-1.07c.2,.1,.4,.19,.59,.25-.37,1.03-.73,2.06-1.08,3.08l-.63-.28c.39-.91,.77-1.93,1.12-3.06Zm2.08,2.8h1.74v-1.21h-1.74v1.21Zm-1.67-3.21c.74-.87,1.33-1.9,1.79-3.06l.57,.19c-.17,.38-.34,.75-.52,1.1h4.04v.51h-1.86v1.11h1.66v.51h-1.66v1.11h1.67v.51h-1.67v1.21h1.96v.5h-4.31v.6h-.6v-4.74c-.2,.31-.42,.61-.63,.89-.12-.15-.26-.31-.44-.46Z"/>
        <path class="cls-9" d="M242.3,25.39c-.7,.74-1.54,1.4-2.53,1.99-.09-.13-.22-.29-.38-.48,.95-.52,1.77-1.15,2.46-1.89l.45,.38Zm.12,2.1c-.73,.81-1.6,1.53-2.61,2.18-.11-.14-.24-.29-.4-.45,.95-.57,1.81-1.27,2.56-2.1l.45,.37Zm.22,2.17c-.81,.95-1.87,1.81-3.18,2.61-.08-.13-.23-.3-.43-.49,1.27-.65,2.32-1.48,3.17-2.5l.44,.38Zm-5.93-1.54h1.26v-2.12h-1.26v2.12Zm-1.63,0h1.04v-2.12h-.83v-.54h4.22v.54h-.95v2.12h1.2v.54h-1.2v3.56h-.59v-3.56h-1.26c0,1.65-.45,2.85-1.35,3.62-.12-.17-.26-.34-.4-.49,.77-.63,1.16-1.67,1.15-3.13h-1.03v-.54Z"/>
        <path class="cls-9" d="M245.88,25.42c-.08,.33-.23,.65-.44,.95-.21,.3-.47,.56-.77,.79-.03,.01-.05,.02-.08,.02,0,0-.03,0-.05-.02l-.02-.02s-.01-.03-.01-.04c0-.03,.02-.06,.05-.08,.28-.22,.51-.46,.71-.73,.19-.27,.33-.56,.41-.86,.01-.03,.02-.06,.02-.08,.01-.02,.01-.05,.02-.08-.06,.05-.12,.1-.2,.13-.07,.03-.16,.05-.25,.05-.16,0-.26-.05-.32-.15-.04-.06-.06-.12-.06-.2,0-.04,0-.08,.02-.13,.03-.11,.1-.22,.21-.32,.1-.1,.24-.15,.4-.15,.11,0,.2,.03,.27,.09,.06,.06,.11,.13,.13,.22,0,.06,.02,.13,.02,.21v.09c-.01,.11-.03,.22-.06,.33Zm1.69,0c-.09,.33-.23,.65-.44,.95-.21,.3-.46,.56-.77,.79-.03,.01-.05,.02-.08,.02-.02,0-.03,0-.06-.02v-.02s-.02-.03-.02-.04c0-.03,.01-.06,.05-.08,.27-.21,.51-.45,.7-.73,.2-.27,.34-.56,.41-.87,.02-.03,.02-.06,.03-.08,0-.02,.01-.05,.02-.08-.06,.05-.12,.1-.2,.13-.07,.03-.16,.05-.25,.05-.16,0-.27-.05-.32-.15-.04-.06-.06-.12-.06-.2,0-.04,0-.08,.02-.13,.03-.11,.09-.22,.2-.32,.1-.1,.24-.15,.41-.15,.12,0,.21,.03,.27,.09,.06,.06,.1,.13,.13,.22,.01,.06,.02,.13,.02,.21v.09c-.02,.11-.03,.22-.06,.33Z"/>
      </g>
    </g>
  </g>
</svg>