<svg id="图层_1" data-name="图层 1" xmlns="http://www.w3.org/2000/svg" xmlns:xlink="http://www.w3.org/1999/xlink" viewBox="0 0 260.18 155.28"><defs><style>.cls-1,.cls-10,.cls-13,.cls-16,.cls-19,.cls-20,.cls-21,.cls-4,.cls-5,.cls-7{fill:none;}.cls-2{clip-path:url(#clip-path);}.cls-3{clip-path:url(#clip-path-2);}.cls-10,.cls-4{stroke:#000;}.cls-10,.cls-21,.cls-4,.cls-5,.cls-7{stroke-miterlimit:10;}.cls-21,.cls-4,.cls-5,.cls-7{stroke-width:0.9px;}.cls-5{stroke:#a71f24;}.cls-6{fill:#a71f24;}.cls-7{stroke:#323893;}.cls-8{fill:#323893;}.cls-9{fill:#040000;}.cls-10{stroke-linecap:square;stroke-width:0.9px;}.cls-11{clip-path:url(#clip-path-3);}.cls-12{fill:#523792;}.cls-13{stroke:#523792;stroke-width:0.01px;}.cls-14{clip-path:url(#clip-path-4);}.cls-15{fill:#e71f19;}.cls-16{stroke:#e71f19;stroke-width:0.01px;}.cls-17{clip-path:url(#clip-path-5);}.cls-18,.cls-25{fill:#1861ae;}.cls-19,.cls-20{stroke:#1861ae;}.cls-19{stroke-width:0.01px;}.cls-20{stroke-width:0.01px;}.cls-21{stroke:#156e96;}.cls-22{fill:#156e96;}.cls-23{clip-path:url(#clip-path-7);}.cls-24{clip-path:url(#clip-path-8);}.cls-25{font-size:10.81px;font-family:ArialMT, Arial;}.cls-26{clip-path:url(#clip-path-10);}.cls-27{clip-path:url(#clip-path-11);}</style><clipPath id="clip-path"><rect class="cls-1" x="-104.46" y="-28.49" width="595.92" height="841.92"/></clipPath><clipPath id="clip-path-2"><rect class="cls-1" x="-75.46" y="0.51" width="368.51" height="203.63"/></clipPath><clipPath id="clip-path-3"><rect class="cls-1" x="116.45" y="138.37" width="8.11" height="12.61"/></clipPath><clipPath id="clip-path-4"><rect class="cls-1" x="135.37" y="18.53" width="6.31" height="12.61"/></clipPath><clipPath id="clip-path-5"><rect class="cls-1" x="72.3" y="55.48" width="13.52" height="20.72"/></clipPath><clipPath id="clip-path-7"><rect class="cls-1" x="197.54" y="71.69" width="8.11" height="12.61"/></clipPath><clipPath id="clip-path-8"><rect class="cls-1" x="210.16" y="71.69" width="6.31" height="12.61"/></clipPath><clipPath id="clip-path-10"><rect class="cls-1" x="234.48" y="67.19" width="13.52" height="20.72"/></clipPath><clipPath id="clip-path-11"><rect class="cls-1" x="252.5" y="72.59" width="6.31" height="12.61"/></clipPath></defs><title>0091</title><g class="cls-2"><g class="cls-3"><line class="cls-4" x1="-68.7" y1="106.38" x2="167.25" y2="106.38"/><polygon points="173.56 106.38 167.25 109.53 167.25 103.23 173.56 106.38"/><polygon class="cls-4" points="173.56 106.38 167.25 109.53 167.25 103.23 173.56 106.38"/><line class="cls-4" x1="48.43" y1="196.48" x2="48.43" y2="14.59"/><polygon points="48.43 8.28 51.58 14.59 45.27 14.59 48.43 8.28"/><polygon class="cls-4" points="48.43 8.28 51.58 14.59 45.27 14.59 48.43 8.28"/><line class="cls-5" x1="48.43" y1="106.38" x2="134.05" y2="37.89"/><polygon class="cls-6" points="137.74 34.93 134.79 41.33 134.05 37.89 130.84 36.41 137.74 34.93"/><polygon class="cls-5" points="137.74 34.93 134.79 41.33 134.05 37.89 130.84 36.41 137.74 34.93"/><line class="cls-7" x1="48.43" y1="106.38" x2="115.14" y2="131.39"/><polygon class="cls-8" points="119.56 133.06 112.55 133.8 115.14 131.39 114.77 127.89 119.56 133.06"/><polygon class="cls-7" points="119.56 133.06 112.55 133.8 115.14 131.39 114.77 127.89 119.56 133.06"/><path class="cls-9" d="M115.9,129.85l1.53,2.23-.74.51-1.54-2.23m-2.32-5,1.53,2.23-.74.51-1.54-2.23m-2.32-5,1.53,2.23-.74.51L109,121.46m-2.33-5,1.53,2.23-.74.51L106,117m-2.33-5,1.53,2.23-.74.51-1.53-2.23m-2.33-5,1.53,2.22-.74.52-1.53-2.23m-2.33-5L99,105.37l-.74.52-1.53-2.23m-2.33-5L96,100.92l-.75.52-1.53-2.23m-2.33-5,1.54,2.22-.75.52L90.6,94.76m-2.33-5L89.81,92l-.74.52-1.54-2.23m-2.33-5,1.54,2.22-.74.51-1.54-2.22m-2.33-5,1.54,2.22-.74.51-1.54-2.22"/><path class="cls-10" d="M84.68,86.31l-4.4,3.14m0,0-3.67-5.13"/></g><g class="cls-11"><path class="cls-12" d="M123,144.17a.72.72,0,0,1,.21-.5.67.67,0,0,1,.48-.25.47.47,0,0,1,.37.24,1.34,1.34,0,0,1,.18.73,10.08,10.08,0,0,1-.21,1.49c-.12.48-.22.88-.31,1.19a7.54,7.54,0,0,1-.4,1.05,2.33,2.33,0,0,1-.62.88,1.23,1.23,0,0,1-.81.3,1.86,1.86,0,0,1-.89-.21,1.24,1.24,0,0,1-.55-.56.16.16,0,0,0,0,.06,1.35,1.35,0,0,1-1.14.71,2.1,2.1,0,0,1-.56-.08,1.71,1.71,0,0,1-.53-.25,1.1,1.1,0,0,1-.42-.5,1.85,1.85,0,0,1-.16-.82,6.72,6.72,0,0,1,.38-1.88,8,8,0,0,0,.4-1.52v-.18a.14.14,0,0,0,0-.09.13.13,0,0,0-.12,0h0a.63.63,0,0,0-.48.24,2.17,2.17,0,0,0-.34.53,3.61,3.61,0,0,0-.19.55,2.19,2.19,0,0,1-.09.28.31.31,0,0,1-.18,0h-.16a.19.19,0,0,1-.07-.12,1.72,1.72,0,0,1,.09-.36,6.8,6.8,0,0,1,.26-.66,1.9,1.9,0,0,1,.5-.67,1.06,1.06,0,0,1,.73-.3.91.91,0,0,1,.75.32,1.2,1.2,0,0,1,.26.75,7.42,7.42,0,0,1-.37,1.4,6.48,6.48,0,0,0-.38,1.8,1.17,1.17,0,0,0,.24.84.87.87,0,0,0,.6.26c.33,0,.61-.26.86-.79l.06-.12v-.41a.22.22,0,0,1,0-.1.22.22,0,0,0,0-.09c0-.05,0-.09,0-.12l0-.17,0-.22a2.36,2.36,0,0,1,.07-.31,3.38,3.38,0,0,0,.09-.41,5.32,5.32,0,0,1,.12-.56c.22-1,.35-1.51.38-1.59a.49.49,0,0,1,.48-.35.31.31,0,0,1,.3.13.65.65,0,0,1,.09.24c0,.12-.11.67-.33,1.66s-.34,1.56-.36,1.71a2.57,2.57,0,0,0,0,.45v.09a2.34,2.34,0,0,0,0,.38.74.74,0,0,0,.21.37.72.72,0,0,0,.51.21c.54,0,1-.53,1.28-1.58a7.62,7.62,0,0,0,.23-.84,4.36,4.36,0,0,0,.13-.78,1.28,1.28,0,0,0-.14-.67,2.91,2.91,0,0,0-.3-.41A.61.61,0,0,1,123,144.17Z"/><path class="cls-13" d="M123,144.17a.72.72,0,0,1,.21-.5.67.67,0,0,1,.48-.25.47.47,0,0,1,.37.24,1.34,1.34,0,0,1,.18.73,10.08,10.08,0,0,1-.21,1.49c-.12.48-.22.88-.31,1.19a7.54,7.54,0,0,1-.4,1.05,2.33,2.33,0,0,1-.62.88,1.23,1.23,0,0,1-.81.3,1.86,1.86,0,0,1-.89-.21,1.24,1.24,0,0,1-.55-.56.16.16,0,0,0,0,.06,1.35,1.35,0,0,1-1.14.71,2.1,2.1,0,0,1-.56-.08,1.71,1.71,0,0,1-.53-.25,1.1,1.1,0,0,1-.42-.5,1.85,1.85,0,0,1-.16-.82,6.72,6.72,0,0,1,.38-1.88,8,8,0,0,0,.4-1.52v-.18a.14.14,0,0,0,0-.09.13.13,0,0,0-.12,0h0a.63.63,0,0,0-.48.24,2.17,2.17,0,0,0-.34.53,3.61,3.61,0,0,0-.19.55,2.19,2.19,0,0,1-.09.28.31.31,0,0,1-.18,0h-.16a.19.19,0,0,1-.07-.12,1.72,1.72,0,0,1,.09-.36,6.8,6.8,0,0,1,.26-.66,1.9,1.9,0,0,1,.5-.67,1.06,1.06,0,0,1,.73-.3.91.91,0,0,1,.75.32,1.2,1.2,0,0,1,.26.75,7.42,7.42,0,0,1-.37,1.4,6.48,6.48,0,0,0-.38,1.8,1.17,1.17,0,0,0,.24.84.87.87,0,0,0,.6.26c.33,0,.61-.26.86-.79l.06-.12v-.41a.22.22,0,0,1,0-.1.22.22,0,0,0,0-.09c0-.05,0-.09,0-.12l0-.17,0-.22a2.36,2.36,0,0,1,.07-.31,3.38,3.38,0,0,0,.09-.41,5.32,5.32,0,0,1,.12-.56c.22-1,.35-1.51.38-1.59a.49.49,0,0,1,.48-.35.31.31,0,0,1,.3.13.65.65,0,0,1,.09.24c0,.12-.11.67-.33,1.66s-.34,1.56-.36,1.71a2.57,2.57,0,0,0,0,.45v.09a2.34,2.34,0,0,0,0,.38.75.75,0,0,0,.72.58c.54,0,1-.53,1.28-1.58a7.62,7.62,0,0,0,.23-.84,4.36,4.36,0,0,0,.13-.78,1.28,1.28,0,0,0-.14-.67,2.91,2.91,0,0,0-.3-.41A.61.61,0,0,1,123,144.17Z"/><path class="cls-12" d="M122.71,139.76a.28.28,0,0,1,.06-.18.2.2,0,0,1,.17-.08.2.2,0,0,1,.17.11,2.07,2.07,0,0,1,.09.24,1.49,1.49,0,0,0,.14.35,1,1,0,0,0,.31.35.28.28,0,0,1,.12.23.27.27,0,0,1-.07.2,1,1,0,0,1-.2.13,1.55,1.55,0,0,0-.34.24,2.33,2.33,0,0,0-.43.52c-.1.13-.19.19-.25.19a.18.18,0,0,1-.15-.07.27.27,0,0,1-.07-.18.65.65,0,0,1,.12-.3,2.37,2.37,0,0,1,.26-.33l.15-.14h-3.87l0,0-.06,0a.07.07,0,0,1,0-.06.22.22,0,0,0,0-.11c0-.06,0-.14.15-.26H123A1.73,1.73,0,0,1,122.71,139.76Z"/><path class="cls-13" d="M122.71,139.76a.28.28,0,0,1,.06-.18.2.2,0,0,1,.17-.08.2.2,0,0,1,.17.11,2.07,2.07,0,0,1,.09.24,1.49,1.49,0,0,0,.14.35,1,1,0,0,0,.31.35.28.28,0,0,1,.12.23.27.27,0,0,1-.07.2,1,1,0,0,1-.2.13,1.55,1.55,0,0,0-.34.24,2.33,2.33,0,0,0-.43.52c-.1.13-.19.19-.25.19a.18.18,0,0,1-.15-.07.27.27,0,0,1-.07-.18.65.65,0,0,1,.12-.3,2.37,2.37,0,0,1,.26-.33l.15-.14h-3.87l0,0-.06,0a.07.07,0,0,1,0-.06.22.22,0,0,0,0-.11c0-.06,0-.14.15-.26H123A1.73,1.73,0,0,1,122.71,139.76Z"/></g><g class="cls-14"><path class="cls-15" d="M137.53,24.4c0-.21-.08-.32-.24-.32a.89.89,0,0,0-.62.38,2.87,2.87,0,0,0-.54,1.15s0,0,0,0a.06.06,0,0,0,0,0l0,0,0,0h-.32c-.05-.06-.08-.1-.08-.12a1.92,1.92,0,0,1,.1-.38,6.82,6.82,0,0,1,.3-.67,2.07,2.07,0,0,1,.55-.66,1.34,1.34,0,0,1,.79-.29,1,1,0,0,1,.81.32,1.07,1.07,0,0,1,.3.72,1.37,1.37,0,0,1,0,.34,3,3,0,0,1-.19.57c-.12.33-.25.71-.38,1.15a4.76,4.76,0,0,0-.23,1.15,2.16,2.16,0,0,0,.06.57.74.74,0,0,0,.79.56,1.17,1.17,0,0,0,.86-.44,3.4,3.4,0,0,0,.62-1,11.36,11.36,0,0,0,.36-1.08,3.14,3.14,0,0,0,.14-.71,1.21,1.21,0,0,0-.1-.52,1.17,1.17,0,0,0-.22-.34,1.67,1.67,0,0,1-.23-.23.45.45,0,0,1-.1-.28.78.78,0,0,1,.24-.54.72.72,0,0,1,.51-.24.53.53,0,0,1,.42.23,1.25,1.25,0,0,1,.2.75,5.94,5.94,0,0,1-.15,1.08,12.9,12.9,0,0,1-.46,1.62,4.66,4.66,0,0,1-.88,1.54,1.83,1.83,0,0,1-2.59.23,1.58,1.58,0,0,1-.47-1.23,4.08,4.08,0,0,1,.1-.83c.07-.28.24-.79.51-1.51A4.53,4.53,0,0,0,137.53,24.4Z"/><path class="cls-16" d="M137.53,24.4c0-.21-.08-.32-.24-.32a.89.89,0,0,0-.62.38,2.87,2.87,0,0,0-.54,1.15s0,0,0,0a.06.06,0,0,0,0,0l0,0,0,0h-.32c-.05-.06-.08-.1-.08-.12a1.92,1.92,0,0,1,.1-.38,6.82,6.82,0,0,1,.3-.67,2.07,2.07,0,0,1,.55-.66,1.34,1.34,0,0,1,.79-.29,1,1,0,0,1,.81.32,1.07,1.07,0,0,1,.3.72,1.37,1.37,0,0,1,0,.34,3,3,0,0,1-.19.57c-.12.33-.25.71-.38,1.15a4.76,4.76,0,0,0-.23,1.15,2.16,2.16,0,0,0,.06.57.74.74,0,0,0,.79.56,1.17,1.17,0,0,0,.86-.44,3.4,3.4,0,0,0,.62-1,11.36,11.36,0,0,0,.36-1.08,3.14,3.14,0,0,0,.14-.71,1.21,1.21,0,0,0-.1-.52,1.17,1.17,0,0,0-.22-.34,1.67,1.67,0,0,1-.23-.23.45.45,0,0,1-.1-.28.78.78,0,0,1,.24-.54.72.72,0,0,1,.51-.24.53.53,0,0,1,.42.23,1.25,1.25,0,0,1,.2.75,5.94,5.94,0,0,1-.15,1.08,12.9,12.9,0,0,1-.46,1.62,4.66,4.66,0,0,1-.88,1.54,1.83,1.83,0,0,1-2.59.23,1.58,1.58,0,0,1-.47-1.23,4.08,4.08,0,0,1,.1-.83c.07-.28.24-.79.51-1.51A4.53,4.53,0,0,0,137.53,24.4Z"/><path class="cls-15" d="M140.13,19.92a.24.24,0,0,1,.07-.18.22.22,0,0,1,.18-.08.2.2,0,0,1,.19.11,1.33,1.33,0,0,1,.1.24,1.17,1.17,0,0,0,.16.35,1,1,0,0,0,.34.35.28.28,0,0,1,.14.24.25.25,0,0,1-.09.19.74.74,0,0,1-.21.13,2.13,2.13,0,0,0-.38.25,2.61,2.61,0,0,0-.47.51c-.12.13-.21.2-.28.2a.25.25,0,0,1-.17-.08.24.24,0,0,1-.07-.18.59.59,0,0,1,.13-.3,1.52,1.52,0,0,1,.29-.32l.16-.14h-2.13l-2.13,0,0,0-.06,0a.07.07,0,0,1,0-.07.36.36,0,0,0,0-.1.45.45,0,0,1,.16-.26h4.47A1.65,1.65,0,0,1,140.13,19.92Z"/><path class="cls-16" d="M140.13,19.92a.24.24,0,0,1,.07-.18.22.22,0,0,1,.18-.08.2.2,0,0,1,.19.11,1.33,1.33,0,0,1,.1.24,1.17,1.17,0,0,0,.16.35,1,1,0,0,0,.34.35.28.28,0,0,1,.14.24.25.25,0,0,1-.09.19.74.74,0,0,1-.21.13,2.13,2.13,0,0,0-.38.25,2.61,2.61,0,0,0-.47.51c-.12.13-.21.2-.28.2a.25.25,0,0,1-.17-.08.24.24,0,0,1-.07-.18.59.59,0,0,1,.13-.3,1.52,1.52,0,0,1,.29-.32l.16-.14h-2.13l-2.13,0,0,0-.06,0a.07.07,0,0,1,0-.07.36.36,0,0,0,0-.1.45.45,0,0,1,.16-.26h4.47A1.65,1.65,0,0,1,140.13,19.92Z"/></g><g class="cls-17"><path class="cls-18" d="M80.05,69.66a.65.65,0,0,1,.26-.48.88.88,0,0,1,.56-.24.61.61,0,0,1,.44.22,1.07,1.07,0,0,1,.21.71,7.61,7.61,0,0,1-.25,1.43c-.13.47-.25.85-.36,1.15a7.24,7.24,0,0,1-.47,1,2.34,2.34,0,0,1-.73.84,1.73,1.73,0,0,1-1,.29,2.64,2.64,0,0,1-1-.2,1.31,1.31,0,0,1-.65-.54l0,.05a1.66,1.66,0,0,1-1.34.69,3,3,0,0,1-.67-.08,3.2,3.2,0,0,1-.63-.23,1.28,1.28,0,0,1-.49-.49,1.58,1.58,0,0,1-.19-.78,5.16,5.16,0,0,1,.46-1.82,6.82,6.82,0,0,0,.47-1.45v-.18s0,0-.06-.08a.17.17,0,0,0-.15,0h0a.8.8,0,0,0-.56.23,2.09,2.09,0,0,0-.4.51,3.78,3.78,0,0,0-.23.52,2,2,0,0,1-.1.28.71.71,0,0,1-.22,0h-.19s-.08-.08-.08-.11a1.63,1.63,0,0,1,.11-.35A4.49,4.49,0,0,1,73,69.9a2,2,0,0,1,.59-.65,1.39,1.39,0,0,1,.86-.28,1.19,1.19,0,0,1,.89.31,1,1,0,0,1,.3.72,5.8,5.8,0,0,1-.44,1.34,5.27,5.27,0,0,0-.44,1.73,1,1,0,0,0,.28.81,1.13,1.13,0,0,0,.71.25c.38,0,.72-.26,1-.76l.06-.11v-.4a.22.22,0,0,1,0-.1.22.22,0,0,0,0-.09.37.37,0,0,1,0-.11.91.91,0,0,0,0-.16c0-.08,0-.15,0-.21a2.32,2.32,0,0,1,.08-.3,3,3,0,0,0,.11-.4c0-.13.08-.31.15-.53.26-.95.4-1.46.44-1.53a.59.59,0,0,1,.57-.34.42.42,0,0,1,.35.12.63.63,0,0,1,.11.24A14.3,14.3,0,0,1,78.37,71c-.26,1-.4,1.5-.43,1.64a2.57,2.57,0,0,0,0,.44v.09a1.47,1.47,0,0,0,0,.36.74.74,0,0,0,.25.36,1,1,0,0,0,.6.2c.63,0,1.14-.51,1.51-1.52a7.54,7.54,0,0,0,.27-.81,4.18,4.18,0,0,0,.16-.74,1.12,1.12,0,0,0-.17-.65,3.7,3.7,0,0,0-.35-.4A.47.47,0,0,1,80.05,69.66Z"/><path class="cls-19" d="M80.05,69.66a.65.65,0,0,1,.26-.48.88.88,0,0,1,.56-.24.61.61,0,0,1,.44.22,1.07,1.07,0,0,1,.21.71,7.61,7.61,0,0,1-.25,1.43c-.13.47-.25.85-.36,1.15a7.24,7.24,0,0,1-.47,1,2.34,2.34,0,0,1-.73.84,1.73,1.73,0,0,1-1,.29,2.64,2.64,0,0,1-1-.2,1.31,1.31,0,0,1-.65-.54l0,.05a1.66,1.66,0,0,1-1.34.69,3,3,0,0,1-.67-.08,3.2,3.2,0,0,1-.63-.23,1.28,1.28,0,0,1-.49-.49,1.58,1.58,0,0,1-.19-.78,5.16,5.16,0,0,1,.46-1.82,6.82,6.82,0,0,0,.47-1.45v-.18s0,0-.06-.08a.17.17,0,0,0-.15,0h0a.8.8,0,0,0-.56.23,2.09,2.09,0,0,0-.4.51,3.78,3.78,0,0,0-.23.52,2,2,0,0,1-.1.28.71.71,0,0,1-.22,0h-.19s-.08-.08-.08-.11a1.63,1.63,0,0,1,.11-.35A4.49,4.49,0,0,1,73,69.9a2,2,0,0,1,.59-.65,1.39,1.39,0,0,1,.86-.28,1.19,1.19,0,0,1,.89.31,1,1,0,0,1,.3.72,5.8,5.8,0,0,1-.44,1.34,5.27,5.27,0,0,0-.44,1.73,1,1,0,0,0,.28.81,1.13,1.13,0,0,0,.71.25c.38,0,.72-.26,1-.76l.06-.11v-.4a.22.22,0,0,1,0-.1.22.22,0,0,0,0-.09.37.37,0,0,1,0-.11.91.91,0,0,0,0-.16c0-.08,0-.15,0-.21a2.32,2.32,0,0,1,.08-.3,3,3,0,0,0,.11-.4c0-.13.08-.31.15-.53.26-.95.4-1.46.44-1.53a.59.59,0,0,1,.57-.34.42.42,0,0,1,.35.12.63.63,0,0,1,.11.24A14.3,14.3,0,0,1,78.37,71c-.26,1-.4,1.5-.43,1.64a2.57,2.57,0,0,0,0,.44v.09a1.47,1.47,0,0,0,0,.36.74.74,0,0,0,.25.36,1,1,0,0,0,.6.2c.63,0,1.14-.51,1.51-1.52a7.54,7.54,0,0,0,.27-.81,4.18,4.18,0,0,0,.16-.74,1.12,1.12,0,0,0-.17-.65,3.7,3.7,0,0,0-.35-.4A.47.47,0,0,1,80.05,69.66Z"/><path class="cls-18" d="M82.62,69l-.26,0c-.13,0-.2-.07-.21-.11s.18-.72.52-2,.54-2,.58-2.07a.52.52,0,0,1,.49-.28.82.82,0,0,1,.4.13.44.44,0,0,1,.21.39,1.05,1.05,0,0,1,0,.13s-.28.7-.82,2-.83,1.91-.84,1.92Z"/><path class="cls-20" d="M82.62,69l-.26,0c-.13,0-.2-.07-.21-.11s.18-.72.52-2,.54-2,.58-2.07a.52.52,0,0,1,.49-.28.82.82,0,0,1,.4.13.44.44,0,0,1,.21.39,1.05,1.05,0,0,1,0,.13s-.28.7-.82,2-.83,1.91-.84,1.92Z"/><path class="cls-18" d="M73.12,60v-.16a.27.27,0,0,1,.19-.25H83.53a4.46,4.46,0,0,1-1.91-2.78v0a.05.05,0,0,0,0,0c0-.1.08-.15.23-.15H82l.08,0a.15.15,0,0,1,0,.11,1,1,0,0,0,0,.2c0,.09.06.19.11.31a3.92,3.92,0,0,0,2.56,2.43.14.14,0,0,1,.12.14.13.13,0,0,1-.06.11,2.57,2.57,0,0,1-.32.12,2.93,2.93,0,0,0-.51.24,4.2,4.2,0,0,0-1,.75,3.26,3.26,0,0,0-.6.83c-.13.27-.23.48-.28.62a2.33,2.33,0,0,0-.11.39.37.37,0,0,1-.06.15l-.22,0c-.18,0-.27,0-.27-.13a1.51,1.51,0,0,1,.07-.31,4.46,4.46,0,0,1,1.86-2.55H73.31a.28.28,0,0,1-.19-.25Z"/><path class="cls-19" d="M73.12,60v-.16a.27.27,0,0,1,.19-.25H83.53a4.46,4.46,0,0,1-1.91-2.78v0a.05.05,0,0,0,0,0c0-.1.08-.15.23-.15H82l.08,0a.15.15,0,0,1,0,.11,1,1,0,0,0,0,.2c0,.09.06.19.11.31a3.92,3.92,0,0,0,2.56,2.43.14.14,0,0,1,.12.14.13.13,0,0,1-.06.11,2.57,2.57,0,0,1-.32.12,2.93,2.93,0,0,0-.51.24,4.2,4.2,0,0,0-1,.75,3.26,3.26,0,0,0-.6.83c-.13.27-.23.48-.28.62a2.33,2.33,0,0,0-.11.39.37.37,0,0,1-.06.15l-.22,0c-.18,0-.27,0-.27-.13a1.51,1.51,0,0,1,.07-.31,4.46,4.46,0,0,1,1.86-2.55H73.31a.28.28,0,0,1-.19-.25Z"/></g><g class="cls-3"><line class="cls-21" x1="48.43" y1="106.38" x2="76.39" y2="83.85"/><polygon class="cls-22" points="80.08 80.88 77.14 87.3 76.39 83.85 73.19 82.39 80.08 80.88"/><polygon class="cls-21" points="80.08 80.88 77.14 87.3 76.39 83.85 73.19 82.39 80.08 80.88"/></g><g class="cls-23"><path class="cls-12" d="M204.11,77.5a.76.76,0,0,1,.21-.51.72.72,0,0,1,.48-.24.48.48,0,0,1,.37.23,1.38,1.38,0,0,1,.18.74,10.08,10.08,0,0,1-.21,1.49c-.12.48-.22.88-.31,1.19a7.54,7.54,0,0,1-.4,1,2.42,2.42,0,0,1-.62.88,1.28,1.28,0,0,1-.81.29,2,2,0,0,1-.89-.2,1.29,1.29,0,0,1-.55-.56l0,0a1.33,1.33,0,0,1-1.14.71,2.1,2.1,0,0,1-.56-.07,2.32,2.32,0,0,1-.53-.25,1.1,1.1,0,0,1-.42-.5,1.88,1.88,0,0,1-.16-.82,6.71,6.71,0,0,1,.38-1.89,8,8,0,0,0,.4-1.51V77.4a.12.12,0,0,0,0-.09.18.18,0,0,0-.13-.06h0a.64.64,0,0,0-.48.25,2,2,0,0,0-.34.53,3.51,3.51,0,0,0-.19.54,2.78,2.78,0,0,1-.09.29s-.08,0-.18,0h-.16a.2.2,0,0,1-.07-.11,1.59,1.59,0,0,1,.09-.36,6.8,6.8,0,0,1,.26-.66,2,2,0,0,1,.5-.68,1.06,1.06,0,0,1,.73-.3.89.89,0,0,1,.75.33,1.11,1.11,0,0,1,.26.75,7.63,7.63,0,0,1-.37,1.4,6.36,6.36,0,0,0-.38,1.79,1.22,1.22,0,0,0,.24.85.82.82,0,0,0,.6.25c.33,0,.61-.26.86-.78l.06-.12v-.42a.25.25,0,0,1,0-.1.22.22,0,0,0,0-.09s0-.08,0-.12l0-.16,0-.22a2.05,2.05,0,0,1,.07-.31,3.15,3.15,0,0,0,.09-.42,5.23,5.23,0,0,1,.12-.55c.22-1,.35-1.52.38-1.6a.51.51,0,0,1,.48-.35.33.33,0,0,1,.3.13.69.69,0,0,1,.09.25c0,.11-.11.66-.33,1.66s-.34,1.56-.36,1.7a2.77,2.77,0,0,0,0,.46v.09a2.22,2.22,0,0,0,0,.37.77.77,0,0,0,.21.38.69.69,0,0,0,.51.2c.54,0,1-.52,1.28-1.57a7.62,7.62,0,0,0,.23-.84,6.65,6.65,0,0,0,.14-.78,1.26,1.26,0,0,0-.15-.67,2.54,2.54,0,0,0-.3-.42A.56.56,0,0,1,204.11,77.5Z"/><path class="cls-13" d="M204.11,77.5a.76.76,0,0,1,.21-.51.72.72,0,0,1,.48-.24.48.48,0,0,1,.37.23,1.38,1.38,0,0,1,.18.74,10.08,10.08,0,0,1-.21,1.49c-.12.48-.22.88-.31,1.19a7.54,7.54,0,0,1-.4,1,2.42,2.42,0,0,1-.62.88,1.28,1.28,0,0,1-.81.29,2,2,0,0,1-.89-.2,1.29,1.29,0,0,1-.55-.56l0,0a1.33,1.33,0,0,1-1.14.71,2.1,2.1,0,0,1-.56-.07,2.32,2.32,0,0,1-.53-.25,1.1,1.1,0,0,1-.42-.5,1.88,1.88,0,0,1-.16-.82,6.71,6.71,0,0,1,.38-1.89,8,8,0,0,0,.4-1.51V77.4a.12.12,0,0,0,0-.09.18.18,0,0,0-.13-.06h0a.64.64,0,0,0-.48.25,2,2,0,0,0-.34.53,3.51,3.51,0,0,0-.19.54,2.78,2.78,0,0,1-.09.29s-.08,0-.18,0h-.16a.2.2,0,0,1-.07-.11,1.59,1.59,0,0,1,.09-.36,6.8,6.8,0,0,1,.26-.66,2,2,0,0,1,.5-.68,1.06,1.06,0,0,1,.73-.3.89.89,0,0,1,.75.33,1.11,1.11,0,0,1,.26.75,7.63,7.63,0,0,1-.37,1.4,6.36,6.36,0,0,0-.38,1.79,1.22,1.22,0,0,0,.24.85.82.82,0,0,0,.6.25c.33,0,.61-.26.86-.78l.06-.12v-.41a.28.28,0,0,1,0-.11.22.22,0,0,0,0-.09s0-.08,0-.12l0-.16,0-.22a2.05,2.05,0,0,1,.07-.31,3.15,3.15,0,0,0,.09-.42,5.23,5.23,0,0,1,.12-.55c.22-1,.35-1.52.38-1.6a.51.51,0,0,1,.48-.35.33.33,0,0,1,.3.13.69.69,0,0,1,.09.25c0,.11-.11.66-.33,1.66s-.34,1.56-.36,1.7a2.77,2.77,0,0,0,0,.46v.09a2.22,2.22,0,0,0,0,.37.77.77,0,0,0,.21.38.69.69,0,0,0,.51.2c.54,0,1-.52,1.28-1.57a7.62,7.62,0,0,0,.23-.84,6.65,6.65,0,0,0,.14-.78,1.26,1.26,0,0,0-.15-.67,2.54,2.54,0,0,0-.3-.42A.56.56,0,0,1,204.11,77.5Z"/><path class="cls-12" d="M203.8,73.09a.28.28,0,0,1,.06-.18.18.18,0,0,1,.17-.08.19.19,0,0,1,.17.1,1.2,1.2,0,0,1,.09.25,1.68,1.68,0,0,0,.14.35,1.28,1.28,0,0,0,.31.35.27.27,0,0,1,.12.23.25.25,0,0,1-.07.19.69.69,0,0,1-.2.13,2.27,2.27,0,0,0-.34.25,2.33,2.33,0,0,0-.43.52c-.1.13-.18.19-.25.19a.19.19,0,0,1-.15-.08.24.24,0,0,1-.07-.18.65.65,0,0,1,.12-.3,2.24,2.24,0,0,1,.26-.32l.15-.14H202l-1.94,0,0,0-.06,0s0,0,0-.07a.19.19,0,0,0,0-.1.47.47,0,0,1,.15-.26h4.06A1.78,1.78,0,0,1,203.8,73.09Z"/><path class="cls-13" d="M203.8,73.09a.28.28,0,0,1,.06-.18.18.18,0,0,1,.17-.08.19.19,0,0,1,.17.1,1.2,1.2,0,0,1,.09.25,1.68,1.68,0,0,0,.14.35,1.28,1.28,0,0,0,.31.35.27.27,0,0,1,.12.23.25.25,0,0,1-.07.19.69.69,0,0,1-.2.13,2.27,2.27,0,0,0-.34.25,2.33,2.33,0,0,0-.43.52c-.1.13-.18.19-.25.19a.19.19,0,0,1-.15-.08.24.24,0,0,1-.07-.18.65.65,0,0,1,.12-.3,2.24,2.24,0,0,1,.26-.32l.15-.14H202l-1.94,0,0,0-.06,0s0,0,0-.07a.19.19,0,0,0,0-.1.47.47,0,0,1,.15-.26h4.06A1.78,1.78,0,0,1,203.8,73.09Z"/></g><g class="cls-24"><path class="cls-15" d="M212.31,77.56c0-.21-.08-.32-.23-.32a.91.91,0,0,0-.63.38,3,3,0,0,0-.53,1.15l0,0a.06.06,0,0,0,0,0l0,0h-.36a.2.2,0,0,1-.07-.11,1.38,1.38,0,0,1,.1-.38,4,4,0,0,1,.3-.67,1.84,1.84,0,0,1,.55-.66,1.31,1.31,0,0,1,.78-.29,1.07,1.07,0,0,1,.81.31,1.11,1.11,0,0,1,.3.73,1,1,0,0,1,0,.34,3.39,3.39,0,0,1-.18.57c-.13.32-.26.71-.39,1.15a5.29,5.29,0,0,0-.23,1.15,2.21,2.21,0,0,0,.07.57.73.73,0,0,0,.78.56,1.16,1.16,0,0,0,.86-.44,3.08,3.08,0,0,0,.62-1c.15-.38.27-.74.37-1.07a3.07,3.07,0,0,0,.13-.71,1.21,1.21,0,0,0-.1-.52,1,1,0,0,0-.22-.34,1.58,1.58,0,0,1-.22-.23.41.41,0,0,1-.1-.29.75.75,0,0,1,.23-.53.72.72,0,0,1,.51-.24.57.57,0,0,1,.43.23,1.32,1.32,0,0,1,.2.75,5.94,5.94,0,0,1-.15,1.08,14.86,14.86,0,0,1-.46,1.62,4.68,4.68,0,0,1-.89,1.54,1.77,1.77,0,0,1-1.32.66,1.84,1.84,0,0,1-1.27-.43,1.57,1.57,0,0,1-.46-1.23,3.48,3.48,0,0,1,.1-.83,11.87,11.87,0,0,1,.51-1.51A4.86,4.86,0,0,0,212.31,77.56Z"/><path class="cls-16" d="M212.31,77.56c0-.21-.08-.32-.23-.32a.91.91,0,0,0-.63.38,3,3,0,0,0-.53,1.15l0,0a.06.06,0,0,0,0,0l0,0h-.36a.2.2,0,0,1-.07-.11,1.38,1.38,0,0,1,.1-.38,4,4,0,0,1,.3-.67,1.84,1.84,0,0,1,.55-.66,1.31,1.31,0,0,1,.78-.29,1.07,1.07,0,0,1,.81.31,1.11,1.11,0,0,1,.3.73,1,1,0,0,1,0,.34,3.39,3.39,0,0,1-.18.57c-.13.32-.26.71-.39,1.15a5.29,5.29,0,0,0-.23,1.15,2.21,2.21,0,0,0,.07.57.73.73,0,0,0,.78.56,1.16,1.16,0,0,0,.86-.44,3.08,3.08,0,0,0,.62-1,10.57,10.57,0,0,0,.37-1.07,3.07,3.07,0,0,0,.13-.71,1.21,1.21,0,0,0-.1-.52,1,1,0,0,0-.22-.34,1.58,1.58,0,0,1-.22-.23.41.41,0,0,1-.1-.29.75.75,0,0,1,.23-.53.72.72,0,0,1,.51-.24.57.57,0,0,1,.43.23,1.32,1.32,0,0,1,.2.75,5.94,5.94,0,0,1-.15,1.08,14.86,14.86,0,0,1-.46,1.62,4.68,4.68,0,0,1-.89,1.54,1.77,1.77,0,0,1-1.32.66,1.84,1.84,0,0,1-1.27-.43,1.57,1.57,0,0,1-.46-1.23,3.48,3.48,0,0,1,.1-.83,11.87,11.87,0,0,1,.51-1.51A4.86,4.86,0,0,0,212.31,77.56Z"/><path class="cls-15" d="M214.92,73.08a.28.28,0,0,1,.06-.18.23.23,0,0,1,.19-.08.2.2,0,0,1,.18.11.87.87,0,0,1,.1.24,1.49,1.49,0,0,0,.16.35,1.14,1.14,0,0,0,.34.35.28.28,0,0,1,.14.24.25.25,0,0,1-.09.19.74.74,0,0,1-.21.13,1.68,1.68,0,0,0-.37.25,2.36,2.36,0,0,0-.48.51c-.11.13-.21.2-.27.2a.25.25,0,0,1-.18-.08.24.24,0,0,1-.07-.18.55.55,0,0,1,.14-.3,1.49,1.49,0,0,1,.28-.32,1.3,1.3,0,0,0,.16-.15h-4.26l0,0-.06,0s0,0,0-.06a.19.19,0,0,0,0-.1.45.45,0,0,1,.16-.26h4.48A1.69,1.69,0,0,1,214.92,73.08Z"/><path class="cls-16" d="M214.92,73.08a.28.28,0,0,1,.06-.18.23.23,0,0,1,.19-.08.2.2,0,0,1,.18.11.87.87,0,0,1,.1.24,1.49,1.49,0,0,0,.16.35,1.14,1.14,0,0,0,.34.35.28.28,0,0,1,.14.24.25.25,0,0,1-.09.19.74.74,0,0,1-.21.13,1.68,1.68,0,0,0-.37.25,2.36,2.36,0,0,0-.48.51c-.11.13-.21.2-.27.2a.25.25,0,0,1-.18-.08.24.24,0,0,1-.07-.18.55.55,0,0,1,.14-.3,1.49,1.49,0,0,1,.28-.32l.16-.14h-2.13l-2.13,0,0,0-.06,0s0,0,0-.06a.19.19,0,0,0,0-.1.45.45,0,0,1,.16-.26h4.48A1.69,1.69,0,0,1,214.92,73.08Z"/></g><g class="cls-3"><text class="cls-25" transform="translate(222.77 82.51)">=</text></g><g class="cls-26"><path class="cls-18" d="M242.23,81.38a.65.65,0,0,1,.26-.49.88.88,0,0,1,.56-.24.59.59,0,0,1,.44.23,1.05,1.05,0,0,1,.21.71,7.74,7.74,0,0,1-.25,1.43q-.19.69-.36,1.14a6.74,6.74,0,0,1-.47,1,2.34,2.34,0,0,1-.73.84,1.64,1.64,0,0,1-1,.29,2.66,2.66,0,0,1-1.05-.2,1.35,1.35,0,0,1-.65-.53l0,.05a1.68,1.68,0,0,1-1.34.68,3,3,0,0,1-.67-.07,2.48,2.48,0,0,1-.62-.24,1.24,1.24,0,0,1-.5-.49,1.55,1.55,0,0,1-.19-.78,5.34,5.34,0,0,1,.46-1.81,6.84,6.84,0,0,0,.47-1.46v-.17a.12.12,0,0,0-.06-.09.2.2,0,0,0-.14,0h-.06a.81.81,0,0,0-.56.24,1.77,1.77,0,0,0-.4.51,3.31,3.31,0,0,0-.23.52,2.13,2.13,0,0,1-.1.27s-.09,0-.22,0h-.19c-.05,0-.08-.09-.08-.12a1.46,1.46,0,0,1,.11-.34,5.21,5.21,0,0,1,.31-.64,2.1,2.1,0,0,1,.59-.65,1.41,1.41,0,0,1,.87-.28,1.18,1.18,0,0,1,.88.31,1,1,0,0,1,.3.72,5.8,5.8,0,0,1-.44,1.34,5.33,5.33,0,0,0-.44,1.73,1,1,0,0,0,.28.81,1.13,1.13,0,0,0,.71.25c.38,0,.72-.25,1-.76L239,85v-.4a.22.22,0,0,1,0-.1s0,0,0-.08,0-.08,0-.12a.71.71,0,0,0,0-.16.78.78,0,0,0,0-.21,2.32,2.32,0,0,1,.08-.3,2.62,2.62,0,0,0,.11-.4c0-.13.08-.31.15-.53.26-1,.4-1.46.44-1.53a.61.61,0,0,1,.57-.34.39.39,0,0,1,.35.13.53.53,0,0,1,.11.23,14.75,14.75,0,0,1-.39,1.6c-.26.95-.4,1.5-.43,1.64a3.94,3.94,0,0,0,0,.43v.09a1.47,1.47,0,0,0,0,.36.66.66,0,0,0,.25.36.9.9,0,0,0,.6.2c.63,0,1.14-.51,1.51-1.52a7.54,7.54,0,0,0,.27-.81,3.84,3.84,0,0,0,.16-.74,1.12,1.12,0,0,0-.17-.65,3.7,3.7,0,0,0-.35-.4A.45.45,0,0,1,242.23,81.38Z"/><path class="cls-19" d="M242.23,81.38a.65.65,0,0,1,.26-.49.88.88,0,0,1,.56-.24.59.59,0,0,1,.44.23,1.05,1.05,0,0,1,.21.71,7.74,7.74,0,0,1-.25,1.43q-.19.69-.36,1.14a6.74,6.74,0,0,1-.47,1,2.34,2.34,0,0,1-.73.84,1.64,1.64,0,0,1-1,.29,2.66,2.66,0,0,1-1.05-.2,1.35,1.35,0,0,1-.65-.53l0,.05a1.68,1.68,0,0,1-1.34.68,3,3,0,0,1-.67-.07,2.48,2.48,0,0,1-.62-.24,1.24,1.24,0,0,1-.5-.49,1.55,1.55,0,0,1-.19-.78,5.34,5.34,0,0,1,.46-1.81,6.84,6.84,0,0,0,.47-1.46v-.17a.12.12,0,0,0-.06-.09.2.2,0,0,0-.14,0h-.06a.81.81,0,0,0-.56.24,1.77,1.77,0,0,0-.4.51,3.31,3.31,0,0,0-.23.52,2.13,2.13,0,0,1-.1.27s-.09,0-.22,0h-.19c-.05,0-.08-.09-.08-.12a1.46,1.46,0,0,1,.11-.34,5.21,5.21,0,0,1,.31-.64,2.1,2.1,0,0,1,.59-.65,1.41,1.41,0,0,1,.87-.28,1.18,1.18,0,0,1,.88.31,1,1,0,0,1,.3.72,5.8,5.8,0,0,1-.44,1.34,5.33,5.33,0,0,0-.44,1.73,1,1,0,0,0,.28.81,1.13,1.13,0,0,0,.71.25c.38,0,.72-.25,1-.76L239,85v-.4a.22.22,0,0,1,0-.1s0,0,0-.08,0-.08,0-.12a.71.71,0,0,0,0-.16.78.78,0,0,0,0-.21,2.32,2.32,0,0,1,.08-.3,2.62,2.62,0,0,0,.11-.4c0-.13.08-.31.15-.53.26-1,.4-1.46.44-1.53a.61.61,0,0,1,.57-.34.39.39,0,0,1,.35.13.53.53,0,0,1,.11.23,14.75,14.75,0,0,1-.39,1.6c-.26.95-.4,1.5-.43,1.64a3.94,3.94,0,0,0,0,.43v.09a1.47,1.47,0,0,0,0,.36.66.66,0,0,0,.25.36.9.9,0,0,0,.6.2c.63,0,1.14-.51,1.51-1.52a7.54,7.54,0,0,0,.27-.81,3.84,3.84,0,0,0,.16-.74,1.12,1.12,0,0,0-.17-.65,3.7,3.7,0,0,0-.35-.4A.45.45,0,0,1,242.23,81.38Z"/><path class="cls-18" d="M244.8,80.66l-.26,0c-.13,0-.2-.07-.2-.11s.17-.72.52-2,.53-2,.57-2.06a.51.51,0,0,1,.49-.28.73.73,0,0,1,.4.13.42.42,0,0,1,.21.38,1.15,1.15,0,0,1,0,.14s-.28.69-.82,2-.83,1.9-.84,1.91A.06.06,0,0,1,244.8,80.66Z"/><path class="cls-20" d="M244.8,80.66l-.26,0c-.13,0-.2-.07-.2-.11s.17-.72.52-2,.53-2,.57-2.06a.51.51,0,0,1,.49-.28.73.73,0,0,1,.4.13.42.42,0,0,1,.21.38,1.15,1.15,0,0,1,0,.14s-.28.69-.82,2-.83,1.9-.84,1.91A.06.06,0,0,1,244.8,80.66Z"/><path class="cls-18" d="M235.3,71.71v-.16a.27.27,0,0,1,.19-.25h10.22a4.44,4.44,0,0,1-1.91-2.77v0a.05.05,0,0,0,0,0c0-.1.08-.15.23-.15h0l.16,0a.1.1,0,0,1,.08.05.12.12,0,0,1,0,.11,1.15,1.15,0,0,0,0,.2c0,.08.07.18.11.31a3.87,3.87,0,0,0,1,1.49,3.76,3.76,0,0,0,1.59.93c.08,0,.12.07.12.14a.12.12,0,0,1-.07.11l-.32.13a2.3,2.3,0,0,0-.51.23,4.76,4.76,0,0,0-1,.75,3.26,3.26,0,0,0-.6.83c-.13.28-.23.48-.28.62a2.33,2.33,0,0,0-.11.39.37.37,0,0,1-.06.15.59.59,0,0,1-.22,0c-.18,0-.27,0-.27-.14a1.67,1.67,0,0,1,.07-.31,4.46,4.46,0,0,1,1.86-2.55H235.49a.27.27,0,0,1-.19-.25Z"/><path class="cls-19" d="M235.3,71.71v-.16a.27.27,0,0,1,.19-.25h10.22a4.44,4.44,0,0,1-1.91-2.77v0a.05.05,0,0,0,0,0c0-.1.08-.15.23-.15h0l.16,0a.1.1,0,0,1,.08.05.12.12,0,0,1,0,.11,1.15,1.15,0,0,0,0,.2c0,.08.07.18.11.31a3.87,3.87,0,0,0,1,1.49,3.76,3.76,0,0,0,1.59.93c.08,0,.12.07.12.14a.12.12,0,0,1-.07.11l-.32.13a2.3,2.3,0,0,0-.51.23,4.76,4.76,0,0,0-1,.75,3.26,3.26,0,0,0-.6.83c-.13.28-.23.48-.28.62a2.33,2.33,0,0,0-.11.39.37.37,0,0,1-.06.15.59.59,0,0,1-.22,0c-.18,0-.27,0-.27-.14a1.67,1.67,0,0,1,.07-.31,4.46,4.46,0,0,1,1.86-2.55H235.49a.27.27,0,0,1-.19-.25Z"/></g><g class="cls-27"><path class="cls-15" d="M254.66,78.46c0-.21-.08-.32-.24-.32a.89.89,0,0,0-.62.38,3,3,0,0,0-.54,1.15s0,0,0,0a.08.08,0,0,0,0,0s0,0,0,0l0,0h-.32a.26.26,0,0,1-.07-.12,1.38,1.38,0,0,1,.1-.38,4.84,4.84,0,0,1,.29-.67,2.07,2.07,0,0,1,.55-.66,1.37,1.37,0,0,1,.79-.29,1,1,0,0,1,.81.32,1.07,1.07,0,0,1,.3.72,1.37,1.37,0,0,1,0,.34,3,3,0,0,1-.19.57c-.12.33-.25.71-.38,1.15a4.76,4.76,0,0,0-.23,1.15,2.16,2.16,0,0,0,.06.57.74.74,0,0,0,.79.56,1.17,1.17,0,0,0,.86-.44,3.4,3.4,0,0,0,.62-1,11.36,11.36,0,0,0,.36-1.08,3.14,3.14,0,0,0,.14-.71,1.21,1.21,0,0,0-.1-.52,1.17,1.17,0,0,0-.22-.34,1.67,1.67,0,0,1-.23-.23.45.45,0,0,1-.1-.28.78.78,0,0,1,.24-.54.72.72,0,0,1,.51-.24.53.53,0,0,1,.42.23,1.18,1.18,0,0,1,.2.75,5.94,5.94,0,0,1-.15,1.08,12.9,12.9,0,0,1-.46,1.62,4.49,4.49,0,0,1-.88,1.54,1.77,1.77,0,0,1-1.32.66,1.79,1.79,0,0,1-1.27-.43,1.58,1.58,0,0,1-.47-1.23,4.08,4.08,0,0,1,.1-.83,14.59,14.59,0,0,1,.52-1.51A4.86,4.86,0,0,0,254.66,78.46Z"/><path class="cls-16" d="M254.66,78.46c0-.21-.08-.32-.24-.32a.89.89,0,0,0-.62.38,3,3,0,0,0-.54,1.15s0,0,0,0a.08.08,0,0,0,0,0s0,0,0,0l0,0h-.32c-.05-.06-.07-.09-.07-.12a1.38,1.38,0,0,1,.1-.38,4.84,4.84,0,0,1,.29-.67,2.07,2.07,0,0,1,.55-.66,1.37,1.37,0,0,1,.79-.29,1,1,0,0,1,.81.32,1.07,1.07,0,0,1,.3.72,1.37,1.37,0,0,1,0,.34,3,3,0,0,1-.19.57c-.12.33-.25.71-.38,1.15a4.76,4.76,0,0,0-.23,1.15,2.16,2.16,0,0,0,.06.57.74.74,0,0,0,.79.56,1.17,1.17,0,0,0,.86-.44,3.4,3.4,0,0,0,.62-1,11.36,11.36,0,0,0,.36-1.08,3.14,3.14,0,0,0,.14-.71,1.21,1.21,0,0,0-.1-.52,1.17,1.17,0,0,0-.22-.34,1.67,1.67,0,0,1-.23-.23.45.45,0,0,1-.1-.28.78.78,0,0,1,.24-.54.72.72,0,0,1,.51-.24.53.53,0,0,1,.42.23,1.18,1.18,0,0,1,.2.75,5.94,5.94,0,0,1-.15,1.08,12.9,12.9,0,0,1-.46,1.62,4.49,4.49,0,0,1-.88,1.54,1.77,1.77,0,0,1-1.32.66,1.79,1.79,0,0,1-1.27-.43,1.58,1.58,0,0,1-.47-1.23,4.08,4.08,0,0,1,.1-.83,14.59,14.59,0,0,1,.52-1.51A4.86,4.86,0,0,0,254.66,78.46Z"/><path class="cls-15" d="M257.26,74a.24.24,0,0,1,.07-.18.22.22,0,0,1,.18-.08.2.2,0,0,1,.19.11.87.87,0,0,1,.1.24,1.17,1.17,0,0,0,.16.35,1.14,1.14,0,0,0,.34.35.28.28,0,0,1,.14.24.25.25,0,0,1-.09.19.74.74,0,0,1-.21.13,2.13,2.13,0,0,0-.38.25,2.61,2.61,0,0,0-.47.51c-.12.13-.21.2-.28.2a.25.25,0,0,1-.17-.08.24.24,0,0,1-.07-.18.59.59,0,0,1,.13-.3,1.52,1.52,0,0,1,.29-.32l.16-.14h-2.13l-2.13,0,0,0-.06,0s0,0,0-.07a.36.36,0,0,0,0-.1.45.45,0,0,1,.16-.26h4.47A1.65,1.65,0,0,1,257.26,74Z"/><path class="cls-16" d="M257.26,74a.24.24,0,0,1,.07-.18.22.22,0,0,1,.18-.08.2.2,0,0,1,.19.11.87.87,0,0,1,.1.24,1.17,1.17,0,0,0,.16.35,1.14,1.14,0,0,0,.34.35.28.28,0,0,1,.14.24.25.25,0,0,1-.09.19.74.74,0,0,1-.21.13,2.13,2.13,0,0,0-.38.25,2.61,2.61,0,0,0-.47.51c-.12.13-.21.2-.28.2a.25.25,0,0,1-.17-.08.24.24,0,0,1-.07-.18.59.59,0,0,1,.13-.3,1.52,1.52,0,0,1,.29-.32l.16-.14h-2.13l-2.13,0,0,0-.06,0s0,0,0-.07a.36.36,0,0,0,0-.1.45.45,0,0,1,.16-.26h4.47A1.65,1.65,0,0,1,257.26,74Z"/></g></g></svg>