<svg id="图层_1" data-name="图层 1" xmlns="http://www.w3.org/2000/svg" xmlns:xlink="http://www.w3.org/1999/xlink" viewBox="0 0 92.49 102.2"><defs><style>.cls-1,.cls-9{fill:none;}.cls-2{clip-path:url(#clip-path);}.cls-3{fill:#fff;}.cls-4{clip-path:url(#clip-path-3);}.cls-5{clip-path:url(#clip-path-4);}.cls-6{fill:#a01f24;}.cls-6,.cls-7,.cls-8{fill-rule:evenodd;}.cls-8{fill:#147c3b;}.cls-9{stroke:#000;stroke-linecap:round;stroke-miterlimit:10;stroke-width:0.36px;}</style><clipPath id="clip-path"><rect class="cls-1" x="-223.15" y="-334.87" width="540" height="780"/></clipPath><clipPath id="clip-path-3"><rect class="cls-1" x="4.13" y="3.77" width="85.44" height="102.72"/></clipPath><clipPath id="clip-path-4"><rect class="cls-1" x="4.13" y="3.76" width="85.44" height="102.73"/></clipPath></defs><title>0126</title><g class="cls-2"><g class="cls-2"><rect class="cls-3" x="-223.15" y="-334.87" width="540" height="780"/></g><g class="cls-4"><g class="cls-5"><path class="cls-6" d="M12.91,10.51C14.86,9.94,16,9,16.35,7.7H13.14V7.14h3.3q0-.67.06-1.86H14.7a10.84,10.84,0,0,1-.89,1.47,3.46,3.46,0,0,0-.52-.36A8.59,8.59,0,0,0,14.7,3.73l.6.18c-.1.28-.21.54-.32.81h4.95v.56H17.14c0,.71,0,1.33-.05,1.86h3.27V7.7H17.14q.69,2,3.45,2.67c-.17.21-.32.41-.46.61a4.8,4.8,0,0,1-3.34-2.75c-.4,1.18-1.53,2.14-3.41,2.86Z"/><path class="cls-6" d="M22.47,7.91H24.3V7.44H22.47Zm4.22-.47H24.84v.47h1.85ZM22.47,8.76H24.3V8.27H22.47Zm2.37,0h1.85V8.27H24.84Zm1.8-4.38H22.53v.4h4.11ZM22.53,5.54h4.11V5.13H22.53Zm-1.7.74h7.51v.41H20.83ZM22,4h5.15V6.13h-.52v-.2H22.53v.2H22Zm-1.24,6.4H24.3V10H21.22V9.57H24.3V9.15H22.47v.19H22V7.05h5.27V9.34h-.53V9.15H24.84v.42h3.09V10H24.84v.43h3.53v.4h-7.6Z"/><path class="cls-7" d="M13.06,12.46A2.37,2.37,0,0,0,15.28,14h3.29a2.1,2.1,0,0,1,2,1.38h.25a2.08,2.08,0,0,1,2-1.38H26a2.36,2.36,0,0,0,2.22-1.55l-.05-.2a2.08,2.08,0,0,1-1.9,1.21H22.75a2.08,2.08,0,0,0-2,1.38h-.25a2.1,2.1,0,0,0-2-1.38H15a2.1,2.1,0,0,1-1.9-1.21"/><path class="cls-7" d="M8.11,18.14H5.68v.5H8.11ZM5.68,19.42H8.11v-.5H5.68Zm0,1.23H5.3V18.49a8.67,8.67,0,0,1-.77.68l-.23-.31a5.54,5.54,0,0,0,1.45-1.5H4.43v-.31h1.5a5.05,5.05,0,0,0,.24-.53l.4.08-.21.45H9.08v.31H6.18a5.25,5.25,0,0,1-.33.49H8.5v2.23c0,.35-.2.52-.59.52H7.14c0-.09,0-.21-.08-.34l.72,0c.22,0,.33-.1.33-.29v-.29H5.68Z"/><path class="cls-7" d="M9.22,20.33A2.87,2.87,0,0,0,11.37,18H9.31V17.7h2.07c0-.37,0-.75,0-1.13h.41c0,.37,0,.75,0,1.13h2.14V18H11.8A2.81,2.81,0,0,0,14,20.23a4.32,4.32,0,0,0-.36.34,3.1,3.1,0,0,1-2.06-1.95,3.41,3.41,0,0,1-2.1,2C9.45,20.58,9.36,20.47,9.22,20.33Z"/><path class="cls-7" d="M16.37,16.59h.43v3.47c0,.37-.23.55-.68.55l-.72,0c0-.12-.05-.25-.08-.39.31,0,.55,0,.71,0s.34-.09.34-.27Zm1,1.08.36-.15c.41.64.8,1.32,1.19,2l-.44.18C18.1,18.94,17.73,18.26,17.38,17.67Zm-2.16-.16.4.12a15,15,0,0,1-1.08,2.16l-.4-.19A11.47,11.47,0,0,0,15.22,17.51Z"/><path class="cls-7" d="M20.39,19.78a1.74,1.74,0,0,1-.28.54,2.47,2.47,0,0,1-.47.44h-.09v0a.05.05,0,0,1,0-.05,1.91,1.91,0,0,0,.44-.41,1.42,1.42,0,0,0,.25-.49l0-.07-.12.06a.32.32,0,0,1-.14,0,.26.26,0,0,1-.21-.08.23.23,0,0,1,0-.11.15.15,0,0,1,0-.07.38.38,0,0,1,.13-.19.39.39,0,0,1,.25-.08.29.29,0,0,1,.17,0,.21.21,0,0,1,.07.13.37.37,0,0,1,0,.11v.05A.84.84,0,0,1,20.39,19.78Z"/><path class="cls-7" d="M26.56,18.14H24.13v.5h2.43Zm-2.43,1.28h2.43v-.5H24.13Zm0,1.23h-.38V18.49a8.67,8.67,0,0,1-.77.68c-.07-.1-.14-.2-.23-.31a5.4,5.4,0,0,0,1.45-1.5H22.88v-.31h1.5a3.59,3.59,0,0,0,.24-.53l.4.08a3.68,3.68,0,0,1-.21.45h2.72v.31H24.64a5.25,5.25,0,0,1-.33.49H27v2.23c0,.35-.19.52-.58.52h-.78c0-.09,0-.21-.07-.34l.71,0c.22,0,.33-.1.33-.29v-.29H24.13Z"/><path class="cls-7" d="M27.75,17.27h2.32c-.16-.27-.29-.47-.38-.59l.38-.15c.09.12.22.31.4.58l-.35.16H32.4v.32H29.48c0,.25,0,.47,0,.64h2.33c0,.61-.08,1.14-.12,1.58a.75.75,0,0,1-.85.76l-1,0c0-.11,0-.24-.07-.39a8.39,8.39,0,0,0,1,.07.45.45,0,0,0,.5-.45c0-.34.07-.74.1-1.22H29.42a2.67,2.67,0,0,1-1.48,2.14,4,4,0,0,0-.29-.28A2.42,2.42,0,0,0,29,18.46c0-.22,0-.51.06-.87H27.75Z"/><path class="cls-7" d="M35.6,18.4H34.34v.87H35.6ZM34,18.1h2v1.47H34.34v.29H34Zm-.66,2.52h-.38V17.19h1.43c.08-.21.15-.42.23-.65l.41.1c-.08.2-.16.38-.24.55H37v2.94c0,.31-.19.47-.55.47h-.73c0-.09,0-.2-.07-.32l.7,0c.18,0,.27-.08.27-.25V17.5H33.31Z"/><path class="cls-7" d="M39.63,9.48a3.27,3.27,0,0,1-.44.95,3.55,3.55,0,0,1-.76.79l-.07,0-.06,0v0a.06.06,0,0,1,0,0,.09.09,0,0,1,0-.08,3.22,3.22,0,0,0,.7-.73,3.13,3.13,0,0,0,.41-.87l0-.14a.42.42,0,0,1-.18.11A.59.59,0,0,1,39,9.5a.36.36,0,0,1-.33-.16.42.42,0,0,1-.05-.2.49.49,0,0,1,0-.12.74.74,0,0,1,.21-.33.55.55,0,0,1,.4-.15.38.38,0,0,1,.27.09.46.46,0,0,1,.12.23,1.21,1.21,0,0,1,0,.2v.09A2.88,2.88,0,0,1,39.63,9.48Z"/><path class="cls-8" d="M57.7,7.59l.58.22A27.08,27.08,0,0,1,57,10.24a3.69,3.69,0,0,0-.56-.26A18.61,18.61,0,0,0,57.7,7.59Zm2.47.25.54-.25c.49.9.9,1.7,1.22,2.38l-.62.26C61,9.46,60.6,8.66,60.17,7.84ZM57.34,4.16h4.09v.53H57.34ZM57,6.35h4.8v.53H59.66V10c0,.62-.3.93-.89.93-.27,0-.61,0-1,0,0-.18-.06-.38-.11-.62a8.82,8.82,0,0,0,1,.06c.31,0,.47-.18.47-.55V6.88H57Zm-2.8,2a7.86,7.86,0,0,0,1.17-2.68H54.24v-.5h1.17V3.72H56V5.19h1v.5H56V7l.33-.34c.32.28.61.54.86.79l-.4.41c-.25-.27-.51-.54-.79-.82v4h-.54V7a7.41,7.41,0,0,1-1,2.07A6,6,0,0,0,54.18,8.37Z"/><path class="cls-8" d="M63.75,7.91h1.83V7.44H63.75ZM68,7.44H66.12v.47H68ZM63.75,8.76h1.83V8.27H63.75Zm2.37,0H68V8.27H66.12Zm1.8-4.38H63.81v.4h4.11ZM63.81,5.54h4.11V5.13H63.81Zm-1.7.74h7.51v.41H62.11ZM63.29,4h5.15V6.13h-.52v-.2H63.81v.2h-.52Zm-1.24,6.4h3.53V10H62.5V9.57h3.08V9.15H63.75v.19h-.52V7.05H68.5V9.34H68V9.15H66.12v.42h3.09V10H66.12v.43h3.53v.4h-7.6Z"/><path class="cls-7" d="M54.34,12.46A2.37,2.37,0,0,0,56.56,14h3.29a2.08,2.08,0,0,1,2,1.38h.26A2.08,2.08,0,0,1,64,14h3.29a2.36,2.36,0,0,0,2.22-1.55l-.05-.2a2.1,2.1,0,0,1-1.9,1.21H64a2.08,2.08,0,0,0-2,1.38h-.26a2.08,2.08,0,0,0-2-1.38H56.29a2.1,2.1,0,0,1-1.9-1.21"/><path class="cls-7" d="M48.28,18.14H45.85v.5h2.43Zm-2.43,1.28h2.43v-.5H45.85Zm0,1.23h-.38V18.49a8.67,8.67,0,0,1-.77.68l-.23-.31a5.54,5.54,0,0,0,1.45-1.5H44.6v-.31h1.5a5.05,5.05,0,0,0,.24-.53l.4.08-.21.45h2.72v.31h-2.9a5.25,5.25,0,0,1-.33.49h2.65v2.23c0,.35-.2.52-.59.52h-.77c0-.09,0-.21-.08-.34l.72,0c.22,0,.33-.1.33-.29v-.29H45.85Z"/><path class="cls-7" d="M49.39,20.33A2.87,2.87,0,0,0,51.54,18H49.48V17.7h2.07c0-.37,0-.75,0-1.13H52c0,.37,0,.75,0,1.13h2.14V18H52a2.81,2.81,0,0,0,2.24,2.2,4.32,4.32,0,0,0-.36.34,3.06,3.06,0,0,1-2.05-1.95,3.46,3.46,0,0,1-2.11,2A3.43,3.43,0,0,0,49.39,20.33Z"/><path class="cls-7" d="M56.54,16.59H57v3.47c0,.37-.22.55-.68.55l-.72,0c0-.12,0-.25-.08-.39.31,0,.55,0,.71,0s.34-.09.34-.27Zm1,1.08.36-.15c.41.64.8,1.32,1.19,2l-.44.18C58.27,18.94,57.9,18.26,57.55,17.67Zm-2.16-.16.4.12a15,15,0,0,1-1.08,2.16l-.4-.19A11.47,11.47,0,0,0,55.39,17.51Z"/><path class="cls-7" d="M60.56,19.78a1.74,1.74,0,0,1-.28.54,2.21,2.21,0,0,1-.47.44h-.09v0a.05.05,0,0,1,0-.05,1.91,1.91,0,0,0,.44-.41,1.42,1.42,0,0,0,.25-.49l0-.07-.12.06a.32.32,0,0,1-.14,0,.26.26,0,0,1-.21-.08.23.23,0,0,1,0-.11.15.15,0,0,1,0-.07.38.38,0,0,1,.13-.19.39.39,0,0,1,.25-.08.29.29,0,0,1,.17,0,.21.21,0,0,1,.07.13.37.37,0,0,1,0,.11v.05A.84.84,0,0,1,60.56,19.78Z"/><path class="cls-7" d="M67.71,18.81h.39v1.1c0,.22.12.33.35.33h.67c.21,0,.34-.08.37-.25s0-.36.06-.62l.4.12q0,.42-.09.63c0,.28-.27.42-.68.42h-.84c-.42,0-.63-.2-.63-.58Zm-2.47-.63h1.89a4.68,4.68,0,0,0,.12-1H65.61v-.33h3.92v.33H67.66a6.52,6.52,0,0,1-.13,1h2.36v.33H67.45a3.37,3.37,0,0,1-2,2.19,2.44,2.44,0,0,0-.27-.3,3.18,3.18,0,0,0,1.88-1.89H65.24Z"/><path class="cls-7" d="M70.14,17.27h2.32c-.16-.27-.29-.47-.38-.59l.37-.15c.09.12.23.31.41.58l-.35.16h2.28v.32H71.87c0,.25,0,.47,0,.64h2.33c0,.61-.08,1.14-.13,1.58a.73.73,0,0,1-.84.76l-1,0c0-.11,0-.24-.08-.39a8.4,8.4,0,0,0,1,.07.45.45,0,0,0,.49-.45c0-.34.08-.74.11-1.22H71.8a2.68,2.68,0,0,1-1.47,2.14L70,20.41a2.42,2.42,0,0,0,1.36-1.95q0-.33.06-.87H70.14Z"/><path class="cls-7" d="M78,18.4H76.72v.87H78Zm-1.63-.3h2v1.47H76.72v.29h-.36Zm-.66,2.52h-.38V17.19h1.42c.08-.21.16-.42.24-.65l.41.1c-.08.2-.17.38-.25.55H79.4v2.94c0,.31-.18.47-.54.47h-.74a2.49,2.49,0,0,0-.06-.32l.7,0c.18,0,.27-.08.27-.25V17.5H75.7Z"/><path class="cls-7" d="M11.54,29.88a4.89,4.89,0,0,0,.71,1,2.4,2.4,0,0,0,.66.5l-.07.2a8.37,8.37,0,0,0-1.07.55c-.36.22-.81.55-1.36,1h-.35a9.26,9.26,0,0,1,1.38-1.37H4.13l.15-.45H11.6a5.67,5.67,0,0,1-.26-.65c0-.14-.09-.38-.15-.73Z"/><path class="cls-6" d="M17.36,34.8q2.92-.86,3.44-2.81H17.59v-.57H20.9c0-.44.05-1.06.06-1.85h-1.8a11.13,11.13,0,0,1-.9,1.47,3,3,0,0,0-.52-.36A8.38,8.38,0,0,0,19.15,28l.6.18c-.1.27-.2.54-.32.8h5v.57h-2.8c0,.71,0,1.33-.05,1.85h3.27V32H21.59c.46,1.31,1.62,2.2,3.45,2.67l-.46.6a4.74,4.74,0,0,1-3.33-2.75c-.4,1.19-1.54,2.14-3.41,2.87Z"/><path class="cls-6" d="M26.93,32.2h1.83v-.48H26.93Zm4.22-.48H29.29v.48h1.86Zm-4.22,1.33h1.83v-.49H26.93Zm2.36,0h1.86v-.49H29.29Zm1.8-4.38H27v.39h4.1ZM27,29.83h4.1v-.41H27Zm-1.7.74h7.5V31h-7.5Zm1.17-2.29h5.16v2.14h-.53v-.21H27v.21h-.53Zm-1.23,6.39h3.53v-.42H25.67v-.39h3.09v-.43H26.93v.2H26.4v-2.3h5.27v2.3h-.52v-.2H29.29v.43h3.09v.39H29.29v.42h3.53v.41H25.23Z"/><path class="cls-7" d="M40,29.41a.1.1,0,0,1,0,.09,0,0,0,0,1,0,0,.22.22,0,0,1-.09.14l-2.4,1.86L39,33.4a.19.19,0,0,1,0,.08v0a.23.23,0,0,1-.1.14.3.3,0,0,1-.14.05.21.21,0,0,1-.13-.05l-1.42-1.88-2.4,1.88a.24.24,0,0,1-.14.05.17.17,0,0,1-.12-.05.13.13,0,0,1,0-.08s0,0,0-.06a.2.2,0,0,1,.09-.12l2.39-1.87-1.43-1.86a.1.1,0,0,1,0-.09.11.11,0,0,1,0,0,.2.2,0,0,1,.09-.12.24.24,0,0,1,.14-.06.14.14,0,0,1,.12.06l1.44,1.87,2.39-1.87a.42.42,0,0,1,.14-.06A.14.14,0,0,1,40,29.41Z"/><path class="cls-8" d="M45.76,31.87l.58.23c-.42.91-.84,1.72-1.25,2.42a5.24,5.24,0,0,0-.57-.26A15.87,15.87,0,0,0,45.76,31.87Zm2.47.26.55-.26c.48.91.89,1.7,1.21,2.39l-.61.26C49,33.75,48.66,33,48.23,32.13ZM45.4,28.45h4.09V29H45.4Zm-.35,2.19h4.8v.52H47.72v3.13c0,.62-.29.93-.88.93h-1c0-.18-.06-.38-.11-.62a8.68,8.68,0,0,0,1,.06c.31,0,.46-.18.46-.55V31.16H45.05Zm-2.8,2A7.94,7.94,0,0,0,43.42,30H42.3v-.51h1.17V28H44v1.46h1.05V30H44V31.3l.33-.33c.33.27.62.54.87.79l-.41.41c-.24-.27-.51-.54-.79-.82v3.94h-.54v-4a7.07,7.07,0,0,1-1,2.06A6.62,6.62,0,0,0,42.25,32.66Z"/><path class="cls-8" d="M51.81,32.2h1.83v-.48H51.81ZM56,31.72H54.18v.48H56Zm-4.23,1.33h1.83v-.49H51.81Zm2.37,0H56v-.49H54.18ZM56,28.67h-4.1v.39H56Zm-4.1,1.16H56v-.41h-4.1Zm-1.7.74h7.5V31h-7.5Zm1.17-2.29h5.16v2.14H56v-.21h-4.1v.21h-.53Zm-1.24,6.39h3.53v-.42H50.56v-.39h3.08v-.43H51.81v.2h-.52v-2.3h5.27v2.3H56v-.2H54.18v.43h3.09v.39H54.18v.42h3.53v.41h-7.6Z"/><line class="cls-9" x1="60.51" y1="30.18" x2="66.8" y2="30.18"/><line class="cls-9" x1="60.51" y1="32.07" x2="66.8" y2="32.07"/><path class="cls-6" d="M73,34.8Q76,33.94,76.47,32H73.26v-.57h3.31c0-.44.05-1.06.05-1.85H74.83a11.13,11.13,0,0,1-.9,1.47,3,3,0,0,0-.52-.36A8.38,8.38,0,0,0,74.82,28l.6.18c-.1.27-.2.54-.32.8h5v.57h-2.8c0,.71,0,1.33-.05,1.85h3.27V32H77.26q.69,2,3.45,2.67l-.46.6a4.74,4.74,0,0,1-3.33-2.75c-.4,1.19-1.54,2.14-3.41,2.87Z"/><path class="cls-6" d="M82.6,32.2h1.83v-.48H82.6Zm4.22-.48H85v.48h1.86ZM82.6,33.05h1.83v-.49H82.6Zm2.36,0h1.86v-.49H85Zm1.8-4.38h-4.1v.39h4.1Zm-4.1,1.16h4.1v-.41h-4.1Zm-1.7.74h7.5V31H81Zm1.17-2.29h5.16v2.14h-.53v-.21h-4.1v.21h-.53ZM80.9,34.67h3.53v-.42H81.34v-.39h3.09v-.43H82.6v.2h-.53v-2.3h5.27v2.3h-.52v-.2H85v.43h3.1v.39H85v.42h3.53v.41H80.9Z"/><path class="cls-7" d="M11.54,45a5.32,5.32,0,0,0,.71,1,2.61,2.61,0,0,0,.66.5l-.07.2a7.16,7.16,0,0,0-1.07.54c-.36.23-.81.55-1.36,1h-.35a8.92,8.92,0,0,1,1.38-1.38H4.13l.15-.45H11.6a5.71,5.71,0,0,1-.26-.64c0-.14-.09-.39-.15-.74Z"/><path class="cls-6" d="M17.36,50q2.92-.86,3.44-2.81H17.59v-.57H20.9c0-.45.05-1.07.06-1.85h-1.8a10.41,10.41,0,0,1-.9,1.46,4.8,4.8,0,0,0-.52-.36,8.38,8.38,0,0,0,1.41-2.66l.6.18c-.1.28-.2.55-.32.81h5v.57h-2.8c0,.71,0,1.32-.05,1.85h3.27v.57H21.59A4.44,4.44,0,0,0,25,49.82c-.16.21-.32.41-.46.61a4.78,4.78,0,0,1-3.33-2.75c-.4,1.18-1.54,2.14-3.41,2.86Q17.62,50.26,17.36,50Z"/><path class="cls-6" d="M26.93,47.37h1.83v-.48H26.93Zm4.22-.48H29.29v.48h1.86Zm-4.22,1.32h1.83v-.49H26.93Zm2.36,0h1.86v-.49H29.29Zm1.8-4.38H27v.4h4.1ZM27,45h4.1v-.4H27Zm-1.7.75h7.5v.4h-7.5Zm1.17-2.3h5.16v2.14h-.53v-.2H27v.2h-.53Zm-1.23,6.4h3.53v-.43H25.67V49h3.09V48.6H26.93v.19H26.4V46.5h5.27v2.29h-.52V48.6H29.29V49h3.1v.39h-3.1v.43h3.53v.4H25.23Z"/><path class="cls-7" d="M41.67,44.57a.16.16,0,0,1,0,.09.06.06,0,0,1,0,0,.2.2,0,0,1-.09.13L39.2,46.7l1.45,1.86a.11.11,0,0,1,0,.08v0a.28.28,0,0,1-.11.13.22.22,0,0,1-.14.06.14.14,0,0,1-.12-.06L38.88,47l-2.4,1.87a.25.25,0,0,1-.14.06.16.16,0,0,1-.12-.06.11.11,0,0,1,0-.08s0,0,0-.05a.38.38,0,0,1,.09-.13l2.4-1.86-1.44-1.87a.11.11,0,0,1,0-.13.22.22,0,0,1,.09-.13.3.3,0,0,1,.14,0,.17.17,0,0,1,.12,0L39,46.45l2.39-1.88a.3.3,0,0,1,.14,0A.21.21,0,0,1,41.67,44.57Z"/><path class="cls-7" d="M36.28,52.36c.21.83.76,1.38,1.38,1.38h0c.54,0,1,.47,1.2,1.19H39c.19-.72.67-1.19,1.2-1.19h0c.61,0,1.16-.55,1.37-1.38l0-.22a1.33,1.33,0,0,1-1.15,1.06h-.21c-.53,0-1,.47-1.2,1.19h-.15c-.18-.72-.66-1.19-1.2-1.19h-.2a1.33,1.33,0,0,1-1.16-1.06"/><path class="cls-7" d="M34.27,59.82c1.23-.32,1.94-.85,2.16-1.58h-2v-.31h2.07c0-.26,0-.6,0-1H35.4a5.66,5.66,0,0,1-.56.82,2.23,2.23,0,0,0-.33-.2A4.8,4.8,0,0,0,35.4,56l.37.1c-.06.15-.13.3-.2.45h3.11v.32H36.93c0,.4,0,.74,0,1h2v.31h-2a2.79,2.79,0,0,0,2.17,1.5l-.29.34a3,3,0,0,1-2.09-1.54,3.21,3.21,0,0,1-2.14,1.6C34.48,60,34.38,59.93,34.27,59.82Z"/><path class="cls-7" d="M42.8,59l.3-.18c.3.3.61.63.92,1l-.33.22C43.4,59.67,43.11,59.33,42.8,59Zm-1-.2.32.2c-.37.4-.72.76-1.06,1.07a3.23,3.23,0,0,0-.27-.23A8.88,8.88,0,0,0,41.8,58.8Zm1.56-2.16h-1.7v1.41h1.7ZM39.19,59a5.6,5.6,0,0,0,.74-1.4h-.72v-.3H40v-.66l-.67,0a2,2,0,0,0-.08-.31c.66,0,1.23-.07,1.72-.13l.09.31-.7.06v.69h.72v.3h-.72v.59l.19-.16q.3.25.63.57l-.28.21-.54-.54v1.87H40V58.27a4.38,4.38,0,0,1-.63,1.08C39.3,59.23,39.25,59.11,39.19,59Zm2.1-2.63h2.44v2.18h-.37v-.2h-1.7v.2h-.37Z"/><path class="cls-6" d="M44.87,50q2.93-.86,3.44-2.81H45.1v-.57h3.31c0-.45.05-1.07.06-1.85h-1.8a10.41,10.41,0,0,1-.9,1.46,4.67,4.67,0,0,0-.51-.36,8.56,8.56,0,0,0,1.4-2.66l.6.18a7.18,7.18,0,0,1-.32.81h5v.57H49.1c0,.71,0,1.32-.05,1.85h3.27v.57H49.1a4.46,4.46,0,0,0,3.45,2.66l-.46.61a4.78,4.78,0,0,1-3.33-2.75c-.4,1.18-1.54,2.14-3.41,2.86Q45.13,50.26,44.87,50Z"/><path class="cls-6" d="M54.44,47.37h1.83v-.48H54.44Zm4.22-.48H56.81v.48h1.85Zm-4.22,1.32h1.83v-.49H54.44Zm2.37,0h1.85v-.49H56.81Zm1.79-4.38H54.5v.4h4.1ZM54.5,45h4.1v-.4H54.5Zm-1.7.75h7.5v.4H52.8ZM54,43.44h5.16v2.14H58.6v-.2H54.5v.2H54Zm-1.23,6.4h3.53v-.43H53.18V49h3.09V48.6H54.44v.19h-.53V46.5h5.27v2.29h-.52V48.6H56.81V49H59.9v.39H56.81v.43h3.52v.4H52.74Z"/><line class="cls-9" x1="63.13" y1="45.34" x2="69.43" y2="45.34"/><line class="cls-9" x1="63.13" y1="47.23" x2="69.43" y2="47.23"/><path class="cls-6" d="M72,50q2.92-.86,3.44-2.81H72.25v-.57h3.31c0-.45,0-1.07.06-1.85h-1.8a10.41,10.41,0,0,1-.9,1.46,4.67,4.67,0,0,0-.51-.36,8.8,8.8,0,0,0,1.41-2.66l.6.18c-.1.28-.21.55-.32.81h5v.57H76.26c0,.71,0,1.32-.05,1.85h3.27v.57H76.25a4.46,4.46,0,0,0,3.46,2.66c-.17.21-.32.41-.47.61a4.78,4.78,0,0,1-3.33-2.75c-.4,1.18-1.54,2.14-3.41,2.86Q72.27,50.26,72,50Z"/><path class="cls-6" d="M81.59,47.37h1.83v-.48H81.59Zm4.22-.48H84v.48h1.85Zm-4.22,1.32h1.83v-.49H81.59Zm2.37,0h1.85v-.49H84Zm1.8-4.38H81.65v.4h4.11ZM81.65,45h4.11v-.4H81.65Zm-1.7.75h7.51v.4H80Zm1.18-2.3h5.15v2.14h-.52v-.2H81.65v.2h-.52Zm-1.24,6.4h3.53v-.43H80.33V49h3.09V48.6H81.59v.19h-.52V46.5h5.26v2.29h-.52V48.6H84V49h3.09v.39H84v.43h3.53v.4h-7.6Z"/><path class="cls-7" d="M11.54,69.33a4.89,4.89,0,0,0,.71,1,2.4,2.4,0,0,0,.66.5l-.07.2a8.37,8.37,0,0,0-1.07.55c-.36.22-.81.55-1.36,1h-.35a9.26,9.26,0,0,1,1.38-1.37H4.13l.15-.45H11.6a5.71,5.71,0,0,1-.26-.64c0-.14-.09-.39-.15-.74Z"/><path class="cls-6" d="M17.36,74.25c1.95-.57,3.1-1.5,3.44-2.81H17.59v-.56H20.9q0-.67.06-1.86h-1.8a10.52,10.52,0,0,1-.9,1.47,3,3,0,0,0-.52-.36,8.38,8.38,0,0,0,1.41-2.66l.6.18c-.1.28-.2.54-.32.81h5V69h-2.8c0,.71,0,1.33-.05,1.86h3.27v.56H21.59c.46,1.31,1.62,2.2,3.45,2.67-.16.21-.32.41-.46.61A4.78,4.78,0,0,1,21.25,72c-.4,1.18-1.54,2.14-3.41,2.86Z"/><path class="cls-6" d="M26.93,71.65h1.83v-.48H26.93Zm4.22-.48H29.29v.48h1.86ZM26.93,72.5h1.83V72H26.93Zm2.36,0h1.86V72H29.29Zm1.8-4.38H27v.4h4.1ZM27,69.28h4.1v-.41H27Zm-1.7.74h7.5v.41h-7.5Zm1.17-2.29h5.16v2.14h-.53v-.2H27v.2h-.53Zm-1.23,6.4h3.53V73.7H25.67v-.39h3.09v-.42H26.93v.19H26.4V70.79h5.27v2.29h-.52v-.19H29.29v.42h3.1v.39h-3.1v.43h3.53v.4H25.23Z"/><path class="cls-7" d="M41.67,68.86a.14.14,0,0,1,0,.09,0,0,0,0,1,0,0,.22.22,0,0,1-.09.14L39.2,71l1.45,1.87a.11.11,0,0,1,0,.08v0a.33.33,0,0,1-.11.13.2.2,0,0,1-.14,0,.13.13,0,0,1-.12,0l-1.43-1.88-2.4,1.88a.24.24,0,0,1-.14,0,.15.15,0,0,1-.12,0,.13.13,0,0,1,0-.08.43.43,0,0,1,0,0,.38.38,0,0,1,.09-.13L38.69,71l-1.44-1.86a.1.1,0,0,1,0-.09.13.13,0,0,1,0,0,.29.29,0,0,1,.23-.18.14.14,0,0,1,.12.06L39,70.73l2.39-1.87.14-.06A.18.18,0,0,1,41.67,68.86Z"/><path class="cls-7" d="M36.28,76.65c.21.82.76,1.37,1.38,1.37h0c.54,0,1,.48,1.2,1.2H39c.19-.72.67-1.2,1.2-1.2h0c.61,0,1.16-.55,1.37-1.37l0-.22a1.33,1.33,0,0,1-1.15,1h-.21c-.53,0-1,.48-1.2,1.2h-.15c-.18-.72-.66-1.2-1.2-1.2h-.2a1.33,1.33,0,0,1-1.16-1"/><path class="cls-7" d="M36.48,82.46l.36.13c-.27.51-.53,1-.79,1.36l-.35-.15A8.82,8.82,0,0,0,36.48,82.46Zm1.54.15.35-.15c.3.51.56,1,.76,1.34l-.39.14C38.53,83.51,38.29,83.07,38,82.61Zm-1.77-2.06h2.57v.29H36.25ZM36,81.77h3v.3H37.71v1.74c0,.35-.19.53-.56.53h-.64c0-.1,0-.21-.07-.34l.61,0c.19,0,.29-.1.29-.31V82.07H36ZM34.27,82.9A4.06,4.06,0,0,0,35,81.41h-.69v-.29H35V80.3h.34v.82H36v.29h-.65v.74l.2-.19c.21.15.39.3.55.44l-.26.23-.49-.46v2.21H35V82.11a3.81,3.81,0,0,1-.61,1.16A3.76,3.76,0,0,0,34.27,82.9Z"/><path class="cls-7" d="M42.8,83.29l.3-.18c.3.3.61.62.92,1l-.33.22A12.92,12.92,0,0,0,42.8,83.29Zm-1-.2.32.2c-.37.4-.72.75-1.06,1.06l-.27-.23A8.11,8.11,0,0,0,41.8,83.09Zm1.56-2.16h-1.7v1.41h1.7Zm-4.17,2.35a5.68,5.68,0,0,0,.74-1.41h-.72v-.29H40v-.66l-.67,0a2,2,0,0,0-.08-.31c.66,0,1.23-.07,1.72-.14l.09.32-.7.06v.69h.72v.29h-.72v.59l.19-.15q.3.25.63.57l-.28.21q-.26-.27-.54-.54v1.87H40V82.56a4.14,4.14,0,0,1-.63,1.07A3.73,3.73,0,0,0,39.19,83.28Zm2.1-2.64h2.44v2.18h-.37v-.2h-1.7v.2h-.37Z"/><path class="cls-6" d="M44.87,74.25c2-.57,3.1-1.5,3.44-2.81H45.1v-.56h3.31q0-.67.06-1.86h-1.8a10.52,10.52,0,0,1-.9,1.47,3,3,0,0,0-.51-.36,8.56,8.56,0,0,0,1.4-2.66l.6.18a8,8,0,0,1-.32.81h5V69H49.1c0,.71,0,1.33-.05,1.86h3.27v.56H49.1a4.48,4.48,0,0,0,3.45,2.67l-.46.61A4.78,4.78,0,0,1,48.76,72c-.4,1.18-1.54,2.14-3.41,2.86Z"/><path class="cls-6" d="M54.44,71.65h1.83v-.48H54.44Zm4.22-.48H56.81v.48h1.85ZM54.44,72.5h1.83V72H54.44Zm2.37,0h1.85V72H56.81Zm1.79-4.38H54.5v.4h4.1Zm-4.1,1.16h4.1v-.41H54.5ZM52.8,70h7.5v.41H52.8ZM54,67.73h5.16v2.14H58.6v-.2H54.5v.2H54Zm-1.23,6.4h3.53V73.7H53.18v-.39h3.09v-.42H54.44v.19h-.53V70.79h5.27v2.29h-.52v-.19H56.81v.42H59.9v.39H56.81v.43h3.52v.4H52.74Z"/><line class="cls-9" x1="63.13" y1="69.63" x2="69.43" y2="69.63"/><line class="cls-9" x1="63.13" y1="71.52" x2="69.43" y2="71.52"/><path class="cls-8" d="M75.54,71.32l.57.23A27.16,27.16,0,0,1,74.86,74a4.93,4.93,0,0,0-.56-.27A17.36,17.36,0,0,0,75.54,71.32Zm2.47.26.54-.26c.49.91.89,1.71,1.22,2.39l-.62.26C78.82,73.2,78.44,72.4,78,71.58ZM75.18,67.9h4.09v.53H75.18Zm-.36,2.19h4.8v.52H77.5v3.13c0,.62-.3.93-.88.93-.28,0-.62,0-1,0,0-.18-.06-.38-.11-.62a8.82,8.82,0,0,0,1,.06c.31,0,.46-.18.46-.55V70.61H74.82Zm-2.8,2a7.86,7.86,0,0,0,1.17-2.68H72.08v-.5h1.17V67.46h.53v1.47h1v.5h-1v1.33l.34-.34c.32.27.61.54.86.79l-.4.41c-.25-.27-.51-.54-.8-.82v4h-.53v-4a7.41,7.41,0,0,1-1,2.07A6,6,0,0,0,72,72.11Z"/><path class="cls-8" d="M81.59,71.65h1.83v-.48H81.59Zm4.22-.48H84v.48h1.85ZM81.59,72.5h1.83V72H81.59Zm2.37,0h1.85V72H84Zm1.8-4.38H81.65v.4h4.11Zm-4.11,1.16h4.11v-.41H81.65ZM80,70h7.51v.41H80Zm1.18-2.29h5.15v2.14h-.52v-.2H81.65v.2h-.52Zm-1.24,6.4h3.53V73.7H80.34v-.39h3.08v-.42H81.59v.19h-.52V70.79h5.27v2.29h-.53v-.19H84v.42h3.09v.39H84v.43h3.53v.4h-7.6Z"/><path class="cls-7" d="M11.54,93.62a4.89,4.89,0,0,0,.71,1,2.61,2.61,0,0,0,.66.5l-.07.2a7.25,7.25,0,0,0-1.07.55,15.11,15.11,0,0,0-1.36,1h-.35a9.39,9.39,0,0,1,1.38-1.38H4.13L4.28,95H11.6a5,5,0,0,1-.26-.64c0-.14-.09-.38-.15-.73Z"/><path class="cls-8" d="M20.87,95.61l.58.23c-.42.91-.84,1.72-1.25,2.42a6,6,0,0,0-.56-.26A16.9,16.9,0,0,0,20.87,95.61Zm2.47.26.55-.26c.49.91.89,1.7,1.21,2.38l-.61.27C24.16,97.48,23.77,96.69,23.34,95.87Zm-2.83-3.68H24.6v.52H20.51Zm-.35,2.19H25v.52H22.84V98c0,.63-.3.94-.89.94h-1c0-.18-.06-.39-.11-.62a8.68,8.68,0,0,0,1,.06c.31,0,.46-.18.46-.55V94.9H20.16Zm-2.8,2a8,8,0,0,0,1.17-2.68H17.41v-.51h1.17V91.75h.54v1.46h1.05v.51H19.12V95l.33-.33c.33.27.62.54.87.79l-.41.41c-.24-.27-.51-.54-.79-.82V99h-.54V95a7.19,7.19,0,0,1-1,2.06A6.62,6.62,0,0,0,17.36,96.4Z"/><path class="cls-8" d="M26.93,95.94h1.83v-.48H26.93Zm4.22-.48H29.29v.48h1.86Zm-4.22,1.32h1.83V96.3H26.93Zm2.36,0h1.86V96.3H29.29Zm1.8-4.37H27v.39h4.1ZM27,93.56h4.1v-.4H27Zm-1.7.75h7.5v.4h-7.5ZM26.46,92h5.16v2.13h-.53V94H27v.2h-.53Zm-1.23,6.39h3.53V98H25.67V97.6h3.09v-.43H26.93v.2H26.4v-2.3h5.27v2.3h-.52v-.2H29.29v.43h3.09V98H29.29v.42h3.53v.41H25.23Z"/><path class="cls-7" d="M40,93.15a.1.1,0,0,1,0,.09,0,0,0,0,1,0,0,.22.22,0,0,1-.09.14l-2.4,1.86L39,97.13a.24.24,0,0,1,0,.08v.05a.23.23,0,0,1-.1.14.3.3,0,0,1-.14,0,.18.18,0,0,1-.13-.06l-1.42-1.87-2.4,1.87a.2.2,0,0,1-.14.06.14.14,0,0,1-.12-.06.11.11,0,0,1,0-.07s0,0,0-.06a.26.26,0,0,1,.09-.13l2.39-1.86-1.43-1.86a.1.1,0,0,1,0-.09.11.11,0,0,1,0,0,.2.2,0,0,1,.09-.12.24.24,0,0,1,.14-.06.14.14,0,0,1,.12.06L37.39,95l2.39-1.87a.28.28,0,0,1,.14-.06A.14.14,0,0,1,40,93.15Z"/><path class="cls-8" d="M45.76,95.61l.58.23c-.42.91-.84,1.72-1.25,2.42a5.24,5.24,0,0,0-.57-.26A15.87,15.87,0,0,0,45.76,95.61Zm2.47.26.55-.26c.48.91.89,1.7,1.21,2.38l-.61.27C49,97.48,48.66,96.69,48.23,95.87ZM45.4,92.19h4.09v.52H45.4Zm-.35,2.19h4.8v.52H47.72V98c0,.63-.29.94-.88.94h-1c0-.18-.06-.39-.11-.62a8.68,8.68,0,0,0,1,.06c.31,0,.46-.18.46-.55V94.9H45.05Zm-2.8,2a8,8,0,0,0,1.17-2.68H42.3v-.51h1.17V91.75H44v1.46h1.05v.51H44V95l.33-.33c.33.27.62.54.87.79l-.41.41c-.24-.27-.51-.54-.79-.82V99h-.54V95a7.19,7.19,0,0,1-1,2.06A6.62,6.62,0,0,0,42.25,96.4Z"/><path class="cls-8" d="M51.81,95.94h1.83v-.48H51.81ZM56,95.46H54.18v.48H56Zm-4.23,1.32h1.83V96.3H51.81Zm2.37,0H56V96.3H54.18ZM56,92.41h-4.1v.39H56Zm-4.1,1.15H56v-.4h-4.1Zm-1.7.75h7.5v.4h-7.5ZM51.35,92h5.16v2.13H56V94h-4.1v.2h-.53Zm-1.24,6.39h3.53V98H50.56V97.6h3.08v-.43H51.81v.2h-.52v-2.3h5.27v2.3H56v-.2H54.18v.43h3.09V98H54.18v.42h3.53v.41h-7.6Z"/><line class="cls-9" x1="60.51" y1="93.92" x2="66.8" y2="93.92"/><line class="cls-9" x1="60.51" y1="95.81" x2="66.8" y2="95.81"/><path class="cls-8" d="M72.92,95.61l.57.23c-.42.91-.84,1.72-1.25,2.42a6,6,0,0,0-.56-.26A18,18,0,0,0,72.92,95.61Zm2.46.26.55-.26c.49.91.89,1.7,1.21,2.38l-.61.27C76.2,97.48,75.81,96.69,75.38,95.87Zm-2.83-3.68h4.09v.52H72.55Zm-.35,2.19H77v.52H74.88V98c0,.63-.3.94-.89.94H73c0-.18-.06-.39-.11-.62a8.82,8.82,0,0,0,1,.06c.31,0,.46-.18.46-.55V94.9H72.2Zm-2.8,2a8,8,0,0,0,1.17-2.68H69.45v-.51h1.17V91.75h.54v1.46h1v.51h-1V95l.33-.33c.33.27.62.54.87.79l-.41.41c-.24-.27-.51-.54-.79-.82V99h-.54V95a7.47,7.47,0,0,1-1,2.06C69.58,96.84,69.5,96.62,69.4,96.4Z"/><path class="cls-8" d="M79,95.94H80.8v-.48H79Zm4.22-.48H81.34v.48h1.85ZM79,96.78H80.8V96.3H79Zm2.37,0h1.85V96.3H81.34Zm1.8-4.37H79v.39h4.11ZM79,93.56h4.11v-.4H79Zm-1.7.75h7.51v.4H77.33ZM78.51,92h5.15v2.13h-.52V94H79v.2h-.52Zm-1.24,6.39H80.8V98H77.71V97.6H80.8v-.43H79v.2h-.53v-2.3h5.27v2.3h-.52v-.2H81.34v.43h3.09V98H81.34v.42h3.53v.41h-7.6Z"/></g></g></g></svg>