<svg id="图层_1" data-name="图层 1" xmlns="http://www.w3.org/2000/svg" xmlns:xlink="http://www.w3.org/1999/xlink" viewBox="0 0 196 117.25"><defs><style>.cls-1,.cls-10,.cls-11,.cls-12,.cls-4,.cls-9{fill:none;}.cls-2{clip-path:url(#clip-path);}.cls-3{fill:#fff;}.cls-4{stroke:#4472c4;stroke-width:5px;opacity:0.2;}.cls-10,.cls-11,.cls-12,.cls-4,.cls-9{stroke-miterlimit:10;}.cls-5{clip-path:url(#clip-path-4);}.cls-6{clip-path:url(#clip-path-5);}.cls-7,.cls-8{fill-rule:evenodd;}.cls-8{fill:#f0f;}.cls-9{stroke:#f0f;}.cls-10,.cls-11,.cls-12,.cls-9{stroke-linecap:round;}.cls-12,.cls-9{stroke-width:0.2px;}.cls-10,.cls-11,.cls-12{stroke:#000;}.cls-10{stroke-width:0.43px;}.cls-11{stroke-width:0.36px;}</style><clipPath id="clip-path"><rect class="cls-1" x="-382" y="-211.37" width="960" height="540"/></clipPath><clipPath id="clip-path-4"><rect class="cls-1" x="2" y="-0.29" width="192" height="117.84"/></clipPath><clipPath id="clip-path-5"><rect class="cls-1" x="2" y="-0.3" width="192" height="117.85"/></clipPath></defs><g class="cls-2"><g class="cls-2"><g class="cls-2"><rect class="cls-3" x="-382" y="-211.37" width="960" height="540"/></g><line class="cls-4" x1="93.08" y1="12.19" x2="18.08" y2="55.69"/><line class="cls-4" x1="182.39" y1="78.19" x2="115.64" y2="78.19"/><g class="cls-5"><g class="cls-6"><path class="cls-7" d="M17.5,13.31l0-.17a.85.85,0,0,0,0-.17.91.91,0,0,0-.22-.37.5.5,0,0,0-.37-.15.72.72,0,0,0-.4.14,1.78,1.78,0,0,0-.35.37,2.17,2.17,0,0,0-.33.64,7,7,0,0,0-.2.69c-.06.23-.11.46-.15.68a1.22,1.22,0,0,0,0,.32,1.12,1.12,0,0,0,0,.32.75.75,0,0,0,.16.36.39.39,0,0,0,.33.15.8.8,0,0,0,.44-.15,2,2,0,0,0,.4-.37,2.09,2.09,0,0,0,.14-.17,1.4,1.4,0,0,0,.12-.18Zm1.21,1.62q-.06.2-.12.45a3,3,0,0,1-.18.45,1.31,1.31,0,0,1-.27.35.59.59,0,0,1-.41.14.75.75,0,0,1-.52-.18.76.76,0,0,1-.24-.46,2.22,2.22,0,0,1-.51.45,1.08,1.08,0,0,1-.62.19.88.88,0,0,1-.57-.17,1.18,1.18,0,0,1-.37-.43,1.58,1.58,0,0,1-.16-.68V15a2.59,2.59,0,0,1,.09-.68,3.91,3.91,0,0,1,.3-.75,3,3,0,0,1,.51-.68,2.33,2.33,0,0,1,.59-.44,1.35,1.35,0,0,1,.66-.17.72.72,0,0,1,.47.15,1,1,0,0,1,.28.37v-.06a.34.34,0,0,1,.14-.22.35.35,0,0,1,.21-.07.27.27,0,0,1,.2.07.2.2,0,0,1,.05.14v.08l-.66,2.54a2.45,2.45,0,0,0-.06.34.86.86,0,0,0,0,.15.57.57,0,0,0,0,.13.37.37,0,0,0,.08.19.24.24,0,0,0,.17.06A.32.32,0,0,0,18,16a.83.83,0,0,0,.16-.25,3.94,3.94,0,0,0,.14-.38c0-.14.09-.3.13-.47s0-.08.11-.08h.1c.05,0,.08,0,.08.05Z"/><path class="cls-7" d="M20.07,17.14s0,.05,0,.08a.07.07,0,0,0,.05.07.88.88,0,0,0,.23,0h.32a.05.05,0,0,1,.06,0v.07a.1.1,0,0,1-.09.06l-.84,0-.84,0a0,0,0,0,1-.05-.05h0v-.05a.08.08,0,0,1,.09-.06h.32a1.18,1.18,0,0,0,.25,0c.05,0,.09-.06.11-.15l.74-2.56a1.26,1.26,0,0,1-.35.17,1.21,1.21,0,0,1-.38.06h0a0,0,0,0,1,0,0v0l0,0c0-.05,0-.07.08-.06a1.15,1.15,0,0,0,.61-.19,2,2,0,0,0,.51-.46l.07,0h0l0,0v0Z"/><path class="cls-7" d="M22.48,17.49a1.59,1.59,0,0,1-.28.53,2,2,0,0,1-.47.45h-.09v0a.05.05,0,0,1,0-.05A2.16,2.16,0,0,0,22.1,18a1.42,1.42,0,0,0,.25-.49l0-.08a.41.41,0,0,1-.11.07l-.15,0a.23.23,0,0,1-.21-.09.2.2,0,0,1,0-.11.17.17,0,0,1,0-.07.32.32,0,0,1,.13-.18.35.35,0,0,1,.25-.09.29.29,0,0,1,.17.05.24.24,0,0,1,.07.13.37.37,0,0,1,0,.11v.06A1.13,1.13,0,0,1,22.48,17.49Z"/><path class="cls-7" d="M25.47,17.14a.12.12,0,0,0,0,.08s0,.06,0,.07a.88.88,0,0,0,.23,0H26s.06,0,.06,0v.07a.1.1,0,0,1-.09.06l-.83,0-.85,0a0,0,0,0,1,0-.05h0v-.05a.1.1,0,0,1,.09-.06h.33a1,1,0,0,0,.24,0q.08,0,.12-.15l.73-2.56a1.14,1.14,0,0,1-.35.17,1.21,1.21,0,0,1-.38.06h0a0,0,0,0,1,0,0v-.06a.07.07,0,0,1,.09-.06,1.18,1.18,0,0,0,.61-.19,2.47,2.47,0,0,0,.51-.46l.06,0h0l.05,0v0Z"/><path class="cls-7" d="M36.94,13.31a1,1,0,0,1,0-.17.47.47,0,0,0,0-.17.91.91,0,0,0-.22-.37.5.5,0,0,0-.37-.15.69.69,0,0,0-.39.14,1.81,1.81,0,0,0-.36.37,2.43,2.43,0,0,0-.33.64c-.07.22-.14.45-.2.69s-.11.46-.15.68a1.87,1.87,0,0,0,0,.32,1.65,1.65,0,0,0,0,.32A.75.75,0,0,0,35,16a.4.4,0,0,0,.33.15.78.78,0,0,0,.44-.15,2,2,0,0,0,.41-.37l.13-.17a.57.57,0,0,0,.12-.18Zm1.2,1.62q-.06.2-.12.45a1.77,1.77,0,0,1-.18.45,1.31,1.31,0,0,1-.27.35.56.56,0,0,1-.4.14.73.73,0,0,1-.52-.18.76.76,0,0,1-.24-.46,2.74,2.74,0,0,1-.51.45,1.13,1.13,0,0,1-.63.19.9.9,0,0,1-.57-.17,1.26,1.26,0,0,1-.36-.43,1.59,1.59,0,0,1-.17-.68V15a2.24,2.24,0,0,1,.1-.68,3.31,3.31,0,0,1,.29-.75,3,3,0,0,1,.51-.68,2.33,2.33,0,0,1,.59-.44,1.35,1.35,0,0,1,.66-.17.72.72,0,0,1,.47.15.93.93,0,0,1,.28.37l0-.06a.3.3,0,0,1,.13-.22.35.35,0,0,1,.21-.07.3.3,0,0,1,.21.07.26.26,0,0,1,0,.14s0,0,0,.08L37,15.25c0,.12-.05.24-.07.34s0,.11,0,.15,0,.09,0,.13a.47.47,0,0,0,.08.19.24.24,0,0,0,.17.06.29.29,0,0,0,.21-.09.83.83,0,0,0,.16-.25,2.35,2.35,0,0,0,.14-.38c0-.14.09-.3.13-.47a.1.1,0,0,1,.11-.08h.11s.07,0,.07.05Z"/><path class="cls-7" d="M39.51,17.14a.24.24,0,0,0,0,.08s0,.06,0,.07a.88.88,0,0,0,.23,0h.32s.06,0,.06,0v.07a.1.1,0,0,1-.09.06l-.83,0-.85,0a0,0,0,0,1-.05-.05h0v-.05a.1.1,0,0,1,.09-.06h.33a1,1,0,0,0,.24,0q.08,0,.12-.15l.73-2.56a1.14,1.14,0,0,1-.35.17,1.21,1.21,0,0,1-.38.06h0a0,0,0,0,1,0,0v-.06a.07.07,0,0,1,.09-.06,1.18,1.18,0,0,0,.61-.19,2.47,2.47,0,0,0,.51-.46l.07,0h0l0,0v0Z"/><path class="cls-7" d="M41.91,17.49a1.4,1.4,0,0,1-.27.53,2.07,2.07,0,0,1-.48.45h-.09a0,0,0,0,0,0,0,.05.05,0,0,1,0-.05,1.93,1.93,0,0,0,.44-.41,1.42,1.42,0,0,0,.25-.49l0-.08a.41.41,0,0,1-.11.07l-.15,0a.2.2,0,0,1-.2-.09.15.15,0,0,1,0-.11s0-.05,0-.07a.38.38,0,0,1,.13-.18A.37.37,0,0,1,41.7,17a.25.25,0,0,1,.16.05.35.35,0,0,1,.08.13s0,.07,0,.11v.06A1.16,1.16,0,0,1,41.91,17.49Z"/><path class="cls-7" d="M46.32,15.17a1,1,0,0,1-.22.37,2.07,2.07,0,0,1-.38.32,5.11,5.11,0,0,1-.46.28l-.47.23a2.41,2.41,0,0,0-.5.33,2.05,2.05,0,0,0-.37.41l.14,0a1.55,1.55,0,0,1,.31,0l.3.05.29,0a1.39,1.39,0,0,0,.3,0,.68.68,0,0,0,.23-.05.9.9,0,0,0,.2-.14.82.82,0,0,0,.17-.2.67.67,0,0,0,.1-.23.08.08,0,0,1,.08-.05h.11s0,0,0,0,0,0,0,0A1.7,1.7,0,0,1,46,17a1.69,1.69,0,0,1-.21.31,1.28,1.28,0,0,1-.29.24.86.86,0,0,1-.36.08.75.75,0,0,1-.31-.06,1.59,1.59,0,0,1-.26-.14l-.25-.14a.73.73,0,0,0-.3-.06.24.24,0,0,0-.19.1.58.58,0,0,0-.13.26s0,0-.08,0h-.1s0,0,0,0h0a1.9,1.9,0,0,1,.43-.75,2.44,2.44,0,0,1,.76-.58,3,3,0,0,0,.72-.46,1.4,1.4,0,0,0,.42-.61,3.38,3.38,0,0,0,.09-.41v-.08a.72.72,0,0,0-.06-.29.5.5,0,0,0-.19-.22.55.55,0,0,0-.29-.08.9.9,0,0,0-.4.09,1.59,1.59,0,0,0-.33.25,1.83,1.83,0,0,0-.26.36,2.53,2.53,0,0,0-.18.42.88.88,0,0,0,0,.21.17.17,0,0,0,0,.07.12.12,0,0,0,.13.11.41.41,0,0,0,.19,0,.7.7,0,0,0,.16-.14.91.91,0,0,0,.13-.19,1.33,1.33,0,0,0,.1-.24.22.22,0,0,0,0-.08.15.15,0,0,0,0-.07.35.35,0,0,0-.06-.14v0a.05.05,0,0,1,0-.05h0l.05,0,0,0a.37.37,0,0,1,.1.23.32.32,0,0,1,0,.14.85.85,0,0,1-.11.26,1,1,0,0,1-.15.24.68.68,0,0,1-.21.17.63.63,0,0,1-.27.06.34.34,0,0,1-.18,0,.27.27,0,0,1-.09-.12.32.32,0,0,1,0-.14s0,0,0,0a1.1,1.1,0,0,1,0-.18,3,3,0,0,1,.2-.45,1.72,1.72,0,0,1,.31-.4,1.64,1.64,0,0,1,.4-.29,1.13,1.13,0,0,1,.48-.11,1.06,1.06,0,0,1,.45.1.82.82,0,0,1,.32.26.83.83,0,0,1,.16.39.62.62,0,0,1,0,.13A1.26,1.26,0,0,1,46.32,15.17Z"/><path class="cls-7" d="M60.93,15.74a.55.55,0,0,1-.22.34.59.59,0,0,1-.39.14.36.36,0,0,1-.3-.14.32.32,0,0,1-.08-.21.83.83,0,0,1,0-.13.67.67,0,0,1,.61-.47.39.39,0,0,1,.32.13.43.43,0,0,1,.06.22A.25.25,0,0,1,60.93,15.74Z"/><path class="cls-7" d="M63.7,15.74a.55.55,0,0,1-.22.34.59.59,0,0,1-.39.14.36.36,0,0,1-.3-.14.32.32,0,0,1-.08-.21.83.83,0,0,1,0-.13.67.67,0,0,1,.61-.47.39.39,0,0,1,.32.13.43.43,0,0,1,.06.22A.25.25,0,0,1,63.7,15.74Z"/><path class="cls-7" d="M66.48,15.74a.57.57,0,0,1-.23.34.58.58,0,0,1-.38.14.37.37,0,0,1-.31-.14.31.31,0,0,1-.07-.21.34.34,0,0,1,0-.13.56.56,0,0,1,.22-.33.59.59,0,0,1,.39-.14.37.37,0,0,1,.31.13.36.36,0,0,1,.07.22A.5.5,0,0,1,66.48,15.74Z"/><path class="cls-7" d="M84.26,13.31l0-.17a.84.84,0,0,0,0-.17A.91.91,0,0,0,84,12.6a.46.46,0,0,0-.36-.15.69.69,0,0,0-.4.14,1.55,1.55,0,0,0-.35.37,2.47,2.47,0,0,0-.34.64c-.07.22-.14.45-.2.69s-.11.46-.15.68a1.82,1.82,0,0,0,0,.32,1.66,1.66,0,0,0,0,.32.86.86,0,0,0,.16.36.4.4,0,0,0,.33.15.75.75,0,0,0,.44-.15,2,2,0,0,0,.41-.37l.14-.17a1.4,1.4,0,0,0,.12-.18Zm1.2,1.62q0,.2-.12.45a2.2,2.2,0,0,1-.17.45,1.6,1.6,0,0,1-.28.35.56.56,0,0,1-.4.14.73.73,0,0,1-.52-.18.76.76,0,0,1-.24-.46,2.22,2.22,0,0,1-.51.45,1.12,1.12,0,0,1-.62.19.93.93,0,0,1-.58-.17,1.26,1.26,0,0,1-.36-.43,1.75,1.75,0,0,1-.17-.68V15a2.6,2.6,0,0,1,.1-.68,4.63,4.63,0,0,1,.29-.75,3,3,0,0,1,.51-.68,2.52,2.52,0,0,1,.59-.44,1.36,1.36,0,0,1,.67-.17.69.69,0,0,1,.46.15.93.93,0,0,1,.28.37l0-.06a.33.33,0,0,1,.13-.22.36.36,0,0,1,.22-.07.27.27,0,0,1,.2.07.2.2,0,0,1,.05.14.22.22,0,0,1,0,.08l-.65,2.54a2.45,2.45,0,0,0-.06.34.86.86,0,0,0,0,.15.57.57,0,0,0,0,.13.3.3,0,0,0,.08.19.21.21,0,0,0,.16.06.29.29,0,0,0,.21-.09.84.84,0,0,0,.17-.25c0-.11.09-.23.13-.38s.09-.3.14-.47,0-.08.11-.08h.1s.07,0,.07.05Z"/><path class="cls-7" d="M86.83,17.14a.24.24,0,0,0,0,.08.07.07,0,0,0,0,.07.78.78,0,0,0,.22,0h.32s.06,0,.06,0v.07a.1.1,0,0,1-.09.06l-.84,0-.84,0s-.05,0-.05-.05h0v-.05a.08.08,0,0,1,.09-.06h.32a1,1,0,0,0,.24,0q.09,0,.12-.15l.74-2.56a1.31,1.31,0,0,1-.73.23h0l0,0v-.06q0-.08.09-.06a1.18,1.18,0,0,0,.61-.19,2,2,0,0,0,.51-.46l.07,0h0l0,0v0Z"/><path class="cls-7" d="M89.24,17.49A1.59,1.59,0,0,1,89,18a2.07,2.07,0,0,1-.48.45H88.4v0a.05.05,0,0,1,0-.05,1.87,1.87,0,0,0,.43-.41,1.45,1.45,0,0,0,.26-.49v-.08a.3.3,0,0,1-.11.07l-.15,0a.22.22,0,0,1-.2-.09.2.2,0,0,1,0-.11.17.17,0,0,1,0-.07.36.36,0,0,1,.12-.18A.39.39,0,0,1,89,17a.25.25,0,0,1,.16.05.26.26,0,0,1,.08.13.37.37,0,0,1,0,.11v.06Z"/><path class="cls-8" d="M93.79,16.77c0,.09-.06.18-.1.27a1.53,1.53,0,0,1-.16.25,1,1,0,0,1-.22.19.54.54,0,0,1-.28.08.52.52,0,0,1-.23,0,.41.41,0,0,1-.15-.14.41.41,0,0,1-.05-.19v0a.41.41,0,0,1,.05-.21c.06-.14.12-.29.17-.43a3.66,3.66,0,0,0,.15-.43,1.57,1.57,0,0,0,.06-.28v-.09a.41.41,0,0,0,0-.16.23.23,0,0,0-.24-.17.8.8,0,0,0-.52.18,1.69,1.69,0,0,0-.37.48l-.39,1.34a.22.22,0,0,1-.1.13.33.33,0,0,1-.14,0,.21.21,0,0,1-.11,0,.1.1,0,0,1,0-.08.43.43,0,0,0,0-.05l.44-1.52a1,1,0,0,0,0-.28v-.06a.14.14,0,0,0-.16-.14c-.1,0-.17.06-.23.19a2.49,2.49,0,0,0-.17.47.08.08,0,0,1-.08.05H90.9s0,0,0,0v0c0-.07,0-.15.07-.24a1.23,1.23,0,0,1,.12-.26.55.55,0,0,1,.17-.2.41.41,0,0,1,.25-.08.5.5,0,0,1,.35.12.41.41,0,0,1,.13.29,1.52,1.52,0,0,1,.37-.3,1.06,1.06,0,0,1,.48-.11.94.94,0,0,1,.3.05.51.51,0,0,1,.21.17.43.43,0,0,1,.08.27v0a1.18,1.18,0,0,1,0,.31,3.81,3.81,0,0,1-.15.44c0,.14-.11.29-.17.43a.9.9,0,0,0-.09.35c0,.09,0,.13.13.13a.38.38,0,0,0,.19-.05.54.54,0,0,0,.15-.15.72.72,0,0,0,.12-.21,1.14,1.14,0,0,0,.09-.26.08.08,0,0,1,.07,0h.07s0,0,0,0Z"/><path class="cls-7" d="M17.4,25.89l0-.18a.64.64,0,0,0-.05-.17.93.93,0,0,0-.21-.36.5.5,0,0,0-.37-.15.65.65,0,0,0-.4.14,1.72,1.72,0,0,0-.35.36,2.3,2.3,0,0,0-.33.64,7,7,0,0,0-.2.69q-.09.36-.15.69a1.22,1.22,0,0,0,0,.32,1.12,1.12,0,0,0,0,.32.85.85,0,0,0,.16.36.37.37,0,0,0,.32.15.81.81,0,0,0,.45-.15,2.31,2.31,0,0,0,.4-.37l.14-.17.12-.18Zm1.21,1.61-.12.45a2.34,2.34,0,0,1-.18.45,1.41,1.41,0,0,1-.27.36.64.64,0,0,1-.41.14.75.75,0,0,1-.52-.18.76.76,0,0,1-.24-.46,2.49,2.49,0,0,1-.51.45,1.08,1.08,0,0,1-.62.19.94.94,0,0,1-.57-.17,1.14,1.14,0,0,1-.37-.44,1.55,1.55,0,0,1-.16-.68v-.06a2.72,2.72,0,0,1,.09-.69,3.59,3.59,0,0,1,.3-.74,2.8,2.8,0,0,1,.51-.69,2.13,2.13,0,0,1,.59-.43,1.37,1.37,0,0,1,.66-.18.72.72,0,0,1,.47.15,1.13,1.13,0,0,1,.28.37v-.05a.33.33,0,0,1,.13-.22A.42.42,0,0,1,17.9,25a.32.32,0,0,1,.2.07.25.25,0,0,1,0,.15.25.25,0,0,1,0,.08l-.65,2.54a2.21,2.21,0,0,0-.06.34.76.76,0,0,0,0,.15.62.62,0,0,0,0,.13.3.3,0,0,0,.08.18.21.21,0,0,0,.17.07.28.28,0,0,0,.2-.09.69.69,0,0,0,.17-.25c.05-.11.09-.24.14-.38s.09-.3.13-.48a.1.1,0,0,1,.11-.08h.1s.08,0,.08.06Z"/><path class="cls-7" d="M21.6,27.74a.92.92,0,0,1-.22.38,2.47,2.47,0,0,1-.38.32,5.06,5.06,0,0,1-.46.27l-.47.24a2.52,2.52,0,0,0-.5.32,2.42,2.42,0,0,0-.37.42l.14,0,.31,0,.29.06.29.05a1.53,1.53,0,0,0,.3,0,.46.46,0,0,0,.23-.06.57.57,0,0,0,.21-.13,1.06,1.06,0,0,0,.17-.2,1.15,1.15,0,0,0,.1-.23s0-.05.08-.05h.11v0a3.19,3.19,0,0,1-.14.35,1.34,1.34,0,0,1-.22.31.92.92,0,0,1-.29.23.7.7,0,0,1-.35.09.79.79,0,0,1-.32-.06L19.85,30a2,2,0,0,0-.25-.14.66.66,0,0,0-.3-.07.28.28,0,0,0-.18.1.71.71,0,0,0-.13.26.08.08,0,0,1-.08.05h-.06s0,0,0,0,0,0,0,0v0a2,2,0,0,1,.43-.75,2.45,2.45,0,0,1,.76-.57,3,3,0,0,0,.72-.47,1.21,1.21,0,0,0,.41-.61,1.51,1.51,0,0,0,.09-.41v-.08a.66.66,0,0,0-.05-.28.57.57,0,0,0-.19-.22.49.49,0,0,0-.3-.09.87.87,0,0,0-.39.1,1.56,1.56,0,0,0-.34.25,1.66,1.66,0,0,0-.26.36,2.47,2.47,0,0,0-.17.42.88.88,0,0,0,0,.2.15.15,0,0,0,0,.07q0,.12.12.12a.46.46,0,0,0,.2-.05A.66.66,0,0,0,20,28a.94.94,0,0,0,.14-.19l.1-.24s0-.06,0-.09a.13.13,0,0,0,0-.06.35.35,0,0,0-.06-.14,0,0,0,0,1,0,0,.05.05,0,0,1,0,0h0l0,0s0,0,0,0a.33.33,0,0,1,.09.23.68.68,0,0,1,0,.14,1.45,1.45,0,0,1-.11.26.94.94,0,0,1-.16.23.72.72,0,0,1-.21.18.58.58,0,0,1-.26.06.3.3,0,0,1-.18,0,.27.27,0,0,1-.09-.12.4.4,0,0,1,0-.15v0a.55.55,0,0,1,0-.17,2.22,2.22,0,0,1,.2-.45,1.73,1.73,0,0,1,.3-.41,1.65,1.65,0,0,1,.41-.28,1.13,1.13,0,0,1,.48-.11.93.93,0,0,1,.45.1.89.89,0,0,1,.32.25.94.94,0,0,1,.16.4.62.62,0,0,1,0,.13A1.13,1.13,0,0,1,21.6,27.74Z"/><path class="cls-7" d="M22.58,30.07a1.6,1.6,0,0,1-.28.53,1.8,1.8,0,0,1-.47.44h-.09s0,0,0,0,0,0,0-.05a1.72,1.72,0,0,0,.44-.41,1.38,1.38,0,0,0,.25-.48l0-.08a.24.24,0,0,1-.11.06.4.4,0,0,1-.15,0A.23.23,0,0,1,22,30a.2.2,0,0,1,0-.11.17.17,0,0,1,0-.07.38.38,0,0,1,.13-.19.42.42,0,0,1,.26-.08.25.25,0,0,1,.16.05.24.24,0,0,1,.07.13.36.36,0,0,1,0,.11v.05A1.06,1.06,0,0,1,22.58,30.07Z"/><path class="cls-7" d="M25.57,29.72a.24.24,0,0,0,0,.08s0,.06.05.07a.54.54,0,0,0,.22,0h.32s.06,0,.06,0a0,0,0,0,1,0,0V30a.11.11,0,0,1-.09.05H24.42s-.06,0-.06,0h0l0-.05a.08.08,0,0,1,.08-.06h.33a.7.7,0,0,0,.24,0c.06,0,.09-.07.12-.15l.73-2.56a1.42,1.42,0,0,1-.35.17,1.21,1.21,0,0,1-.38.06l0,0v0s0,0,0,0v0a.08.08,0,0,1,.09-.06,1.16,1.16,0,0,0,.61-.18,2.47,2.47,0,0,0,.51-.46.08.08,0,0,1,.07,0h0l0,0v0a0,0,0,0,0,0,0Z"/><path class="cls-7" d="M56.08,25.89l0-.18a1.36,1.36,0,0,0,0-.17,1,1,0,0,0-.22-.36.5.5,0,0,0-.37-.15.65.65,0,0,0-.4.14,1.72,1.72,0,0,0-.35.36,2.3,2.3,0,0,0-.33.64,7,7,0,0,0-.2.69q-.09.36-.15.69a1.22,1.22,0,0,0,0,.32,1.12,1.12,0,0,0,0,.32.85.85,0,0,0,.16.36.39.39,0,0,0,.33.15.8.8,0,0,0,.44-.15,2.31,2.31,0,0,0,.4-.37l.14-.17.12-.18Zm1.21,1.61q-.06.21-.12.45a2.34,2.34,0,0,1-.18.45,1.22,1.22,0,0,1-.27.36.64.64,0,0,1-.41.14.75.75,0,0,1-.52-.18.76.76,0,0,1-.24-.46,2.49,2.49,0,0,1-.51.45,1.08,1.08,0,0,1-.62.19.94.94,0,0,1-.57-.17,1,1,0,0,1-.36-.44,1.43,1.43,0,0,1-.17-.68v-.06a2.72,2.72,0,0,1,.09-.69,3.59,3.59,0,0,1,.3-.74,2.8,2.8,0,0,1,.51-.69,2.29,2.29,0,0,1,.59-.43,1.37,1.37,0,0,1,.66-.18.72.72,0,0,1,.47.15,1.13,1.13,0,0,1,.28.37v-.05a.34.34,0,0,1,.14-.22.37.37,0,0,1,.21-.08.32.32,0,0,1,.2.07.2.2,0,0,1,0,.15v.08l-.66,2.54a2.21,2.21,0,0,0-.06.34.76.76,0,0,0,0,.15.62.62,0,0,0,0,.13.3.3,0,0,0,.08.18.21.21,0,0,0,.17.07.32.32,0,0,0,.21-.09.83.83,0,0,0,.16-.25c.05-.11.09-.24.14-.38s.09-.3.13-.48a.1.1,0,0,1,.11-.08h.1s.08,0,.08.06Z"/><path class="cls-7" d="M60.28,27.74a.92.92,0,0,1-.22.38,2.47,2.47,0,0,1-.38.32,5.06,5.06,0,0,1-.46.27l-.47.24a2.52,2.52,0,0,0-.5.32,2.42,2.42,0,0,0-.37.42l.14,0,.31,0,.29.06.29.05a1.55,1.55,0,0,0,.31,0,.46.46,0,0,0,.22-.06.57.57,0,0,0,.21-.13,1.06,1.06,0,0,0,.17-.2.77.77,0,0,0,.1-.23.08.08,0,0,1,.08-.05h.11a0,0,0,0,1,0,0v0a2,2,0,0,1-.14.35,1.34,1.34,0,0,1-.22.31.92.92,0,0,1-.29.23.7.7,0,0,1-.35.09.83.83,0,0,1-.32-.06L58.53,30a2,2,0,0,0-.25-.14.65.65,0,0,0-.29-.07.28.28,0,0,0-.19.1.71.71,0,0,0-.13.26s0,.05-.08.05h-.06a.05.05,0,0,1,0,0s0,0,0,0v0a2,2,0,0,1,.43-.75,2.57,2.57,0,0,1,.76-.57,3,3,0,0,0,.72-.47,1.3,1.3,0,0,0,.42-.61,2,2,0,0,0,.08-.41v-.08a.66.66,0,0,0,0-.28.5.5,0,0,0-.19-.22.49.49,0,0,0-.3-.09.87.87,0,0,0-.39.1,1.31,1.31,0,0,0-.33.25,1.38,1.38,0,0,0-.26.36,1.9,1.9,0,0,0-.18.42.88.88,0,0,0,0,.2.15.15,0,0,0,0,.07.12.12,0,0,0,.13.12.41.41,0,0,0,.19-.05.7.7,0,0,0,.16-.14,1.56,1.56,0,0,0,.13-.19,2.44,2.44,0,0,0,.1-.24.28.28,0,0,0,0-.09.13.13,0,0,0,0-.06.35.35,0,0,0-.06-.14,0,0,0,0,1,0,0,.05.05,0,0,1,0,0h0a.06.06,0,0,1,0,0s0,0,0,0a.33.33,0,0,1,.09.23.34.34,0,0,1,0,.14,1.45,1.45,0,0,1-.11.26.91.91,0,0,1-.15.23.65.65,0,0,1-.22.18.58.58,0,0,1-.26.06.32.32,0,0,1-.18,0,.27.27,0,0,1-.09-.12A.4.4,0,0,1,58,28a0,0,0,0,1,0,0,.52.52,0,0,1,0-.17,2.22,2.22,0,0,1,.2-.45,1.73,1.73,0,0,1,.3-.41,1.65,1.65,0,0,1,.41-.28,1.13,1.13,0,0,1,.48-.11.93.93,0,0,1,.45.1.89.89,0,0,1,.32.25.83.83,0,0,1,.16.4.62.62,0,0,1,0,.13A1.13,1.13,0,0,1,60.28,27.74Z"/><path class="cls-7" d="M61.26,30.07a1.57,1.57,0,0,1-.27.53,1.84,1.84,0,0,1-.48.44h-.08l0,0s0,0,0-.05a1.57,1.57,0,0,0,.44-.41,1.61,1.61,0,0,0,.26-.48V30a.24.24,0,0,1-.11.06.4.4,0,0,1-.15,0,.2.2,0,0,1-.2-.09.15.15,0,0,1,0-.11s0-.05,0-.07a.46.46,0,0,1,.13-.19.42.42,0,0,1,.26-.08.25.25,0,0,1,.16.05.35.35,0,0,1,.08.13s0,.07,0,.11v.05A1.06,1.06,0,0,1,61.26,30.07Z"/><path class="cls-8" d="M65.81,29.35a1.48,1.48,0,0,1-.1.27,1.07,1.07,0,0,1-.16.25.79.79,0,0,1-.22.19.51.51,0,0,1-.28.07.43.43,0,0,1-.23-.05.29.29,0,0,1-.14-.13.59.59,0,0,1-.06-.2v0a.53.53,0,0,1,0-.2l.18-.43.15-.43c0-.1,0-.2,0-.29a.19.19,0,0,0,0-.08.78.78,0,0,0,0-.16.24.24,0,0,0-.25-.18.76.76,0,0,0-.51.18,1.93,1.93,0,0,0-.38.49L63.51,30a.14.14,0,0,1-.09.12.25.25,0,0,1-.14,0,.12.12,0,0,1-.11,0,.08.08,0,0,1,0-.07.11.11,0,0,1,0-.05l.43-1.52a1.19,1.19,0,0,0,.05-.28V28.1a.15.15,0,0,0-.16-.14c-.1,0-.18.07-.24.19a3,3,0,0,0-.16.48.09.09,0,0,1-.08.05h-.07a0,0,0,0,1,0,0h0c0-.08,0-.16.08-.25a1.12,1.12,0,0,1,.11-.25.67.67,0,0,1,.17-.2.41.41,0,0,1,.25-.08.52.52,0,0,1,.35.11.47.47,0,0,1,.14.3,1.17,1.17,0,0,1,.37-.3,1,1,0,0,1,.48-.11,1,1,0,0,1,.3,0,.44.44,0,0,1,.21.17.5.5,0,0,1,.08.27h0a1.19,1.19,0,0,1,0,.32,3.66,3.66,0,0,1-.15.43l-.18.44a.9.9,0,0,0-.09.34.13.13,0,0,0,.14.14.33.33,0,0,0,.19-.06.49.49,0,0,0,.15-.14,2,2,0,0,0,.12-.21l.09-.26a.05.05,0,0,1,.06,0h.07s0,0,0,0Z"/><line class="cls-9" x1="67.29" y1="28.59" x2="70.82" y2="28.59"/><path class="cls-8" d="M73.37,29.72s0,.05,0,.08a.07.07,0,0,0,.05.07.61.61,0,0,0,.22,0H74A.05.05,0,0,1,74,30V30a.11.11,0,0,1-.09.05H72.22s0,0,0,0h0V30a.08.08,0,0,1,.09-.06h.32a.81.81,0,0,0,.25,0,.2.2,0,0,0,.11-.15l.74-2.56a1.62,1.62,0,0,1-.35.17,1.21,1.21,0,0,1-.38.06l0,0s0,0,0,0v-.07a.1.1,0,0,1,.09-.06,1.14,1.14,0,0,0,.61-.18,2,2,0,0,0,.51-.46.08.08,0,0,1,.07,0h0l0,0v0Z"/><path class="cls-7" d="M17.84,40.89a.57.57,0,0,1-.23.35.6.6,0,0,1-.38.13.34.34,0,0,1-.31-.14.31.31,0,0,1-.07-.21.83.83,0,0,1,0-.13.56.56,0,0,1,.22-.33.64.64,0,0,1,.39-.14.42.42,0,0,1,.32.14.39.39,0,0,1,.06.21A.5.5,0,0,1,17.84,40.89Z"/><path class="cls-7" d="M20.61,40.89a.57.57,0,0,1-.23.35.6.6,0,0,1-.38.13.34.34,0,0,1-.31-.14.31.31,0,0,1-.07-.21.83.83,0,0,1,0-.13.56.56,0,0,1,.22-.33.64.64,0,0,1,.39-.14.42.42,0,0,1,.32.14.39.39,0,0,1,.06.21A.5.5,0,0,1,20.61,40.89Z"/><path class="cls-7" d="M23.38,40.89a.6.6,0,0,1-.22.35.63.63,0,0,1-.39.13.37.37,0,0,1-.38-.35.83.83,0,0,1,0-.13.58.58,0,0,1,.23-.33.64.64,0,0,1,.38-.14.4.4,0,0,1,.32.14.39.39,0,0,1,.06.21A.25.25,0,0,1,23.38,40.89Z"/><path class="cls-7" d="M37.27,40.89a.6.6,0,0,1-.22.35.63.63,0,0,1-.39.13.35.35,0,0,1-.31-.14.38.38,0,0,1-.07-.21.83.83,0,0,1,0-.13.58.58,0,0,1,.23-.33.64.64,0,0,1,.38-.14.4.4,0,0,1,.32.14.39.39,0,0,1,.06.21A.25.25,0,0,1,37.27,40.89Z"/><path class="cls-7" d="M40,40.89a.6.6,0,0,1-.22.35.63.63,0,0,1-.39.13.35.35,0,0,1-.31-.14.38.38,0,0,1-.07-.21.83.83,0,0,1,0-.13.58.58,0,0,1,.23-.33.64.64,0,0,1,.38-.14.4.4,0,0,1,.32.14.39.39,0,0,1,.06.21A.25.25,0,0,1,40,40.89Z"/><path class="cls-7" d="M42.82,40.89a.63.63,0,0,1-.61.48.34.34,0,0,1-.31-.14.31.31,0,0,1-.07-.21.66.66,0,0,1,0-.13.58.58,0,0,1,.23-.33.64.64,0,0,1,.38-.14.39.39,0,0,1,.32.14.39.39,0,0,1,.06.21A.49.49,0,0,1,42.82,40.89Z"/><path class="cls-7" d="M17.22,50.94l0-.18a1.54,1.54,0,0,0-.05-.17.88.88,0,0,0-.22-.36.46.46,0,0,0-.36-.15.63.63,0,0,0-.4.14,1.34,1.34,0,0,0-.35.36,2.64,2.64,0,0,0-.34.64c-.07.22-.14.45-.2.69s-.11.47-.15.69a1.82,1.82,0,0,0,0,.32,1.66,1.66,0,0,0,0,.32,1,1,0,0,0,.16.36.4.4,0,0,0,.33.15.75.75,0,0,0,.44-.15,2.37,2.37,0,0,0,.41-.37c.05-.06.09-.12.14-.17l.12-.18Zm1.2,1.61q0,.21-.12.45a2,2,0,0,1-.17.45,1.45,1.45,0,0,1-.28.36.61.61,0,0,1-.4.14.73.73,0,0,1-.52-.18.76.76,0,0,1-.24-.46,2.19,2.19,0,0,1-.51.44,1.06,1.06,0,0,1-.62.2,1,1,0,0,1-.58-.17,1.29,1.29,0,0,1-.36-.44,1.59,1.59,0,0,1-.17-.68V52.6a2.35,2.35,0,0,1,.1-.69,4.2,4.2,0,0,1,.29-.74,2.8,2.8,0,0,1,.51-.69,2.48,2.48,0,0,1,.59-.43,1.38,1.38,0,0,1,.67-.18.69.69,0,0,1,.46.15,1,1,0,0,1,.28.37l0-.06a.33.33,0,0,1,.13-.21.37.37,0,0,1,.22-.08.27.27,0,0,1,.2.07.23.23,0,0,1,0,.15.17.17,0,0,1,0,.07l-.65,2.55a2.21,2.21,0,0,0-.06.34.76.76,0,0,0,0,.15.62.62,0,0,0,0,.13.3.3,0,0,0,.07.18.22.22,0,0,0,.17.07.29.29,0,0,0,.21-.09.84.84,0,0,0,.17-.25c0-.11.09-.24.13-.38s.09-.31.14-.48a.1.1,0,0,1,.11-.08h.1s.07,0,.07.06Z"/><path class="cls-7" d="M21.68,54.4a1.48,1.48,0,0,1-.1.27,1.07,1.07,0,0,1-.16.25.79.79,0,0,1-.22.19.51.51,0,0,1-.28.07.43.43,0,0,1-.23,0,.35.35,0,0,1-.14-.13.59.59,0,0,1-.06-.2v0a.53.53,0,0,1,.05-.2l.18-.43.15-.43c0-.1,0-.2.05-.29a.22.22,0,0,0,0-.09.68.68,0,0,0,0-.15.24.24,0,0,0-.25-.18.76.76,0,0,0-.51.18,1.77,1.77,0,0,0-.38.49L19.38,55a.16.16,0,0,1-.09.12.25.25,0,0,1-.14,0,.12.12,0,0,1-.11,0,.09.09,0,0,1,0-.07.11.11,0,0,1,0,0l.43-1.52a1.18,1.18,0,0,0,.05-.29v-.06a.15.15,0,0,0-.16-.14c-.1,0-.18.07-.24.19a3,3,0,0,0-.16.48.09.09,0,0,1-.08,0h-.07a0,0,0,0,1,0,0h0c0-.08.05-.16.08-.25a1.12,1.12,0,0,1,.11-.25.67.67,0,0,1,.17-.2.36.36,0,0,1,.25-.08.52.52,0,0,1,.35.11.47.47,0,0,1,.14.3,1.17,1.17,0,0,1,.37-.3.9.9,0,0,1,.48-.11A.79.79,0,0,1,21,53a.44.44,0,0,1,.21.17.5.5,0,0,1,.08.27h0a1.19,1.19,0,0,1-.05.32c0,.14-.09.29-.15.43l-.18.44a.9.9,0,0,0-.09.34.13.13,0,0,0,.14.14.33.33,0,0,0,.19-.06.49.49,0,0,0,.15-.14,2,2,0,0,0,.12-.21l.09-.26s0,0,.06,0h.07s0,0,0,0Z"/><path class="cls-7" d="M22.76,55.12a1.57,1.57,0,0,1-.27.53,1.84,1.84,0,0,1-.48.44h-.08v0s0,0,0-.05a1.73,1.73,0,0,0,.44-.41,1.41,1.41,0,0,0,.26-.48V55a.2.2,0,0,1-.11.06.33.33,0,0,1-.15,0,.2.2,0,0,1-.2-.09.21.21,0,0,1,0-.11.19.19,0,0,1,0-.07.36.36,0,0,1,.12-.19.45.45,0,0,1,.26-.08.25.25,0,0,1,.16,0,.26.26,0,0,1,.08.13.37.37,0,0,1,0,.11v0A1.06,1.06,0,0,1,22.76,55.12Z"/><path class="cls-8" d="M25.75,54.77a.24.24,0,0,0,0,.08.07.07,0,0,0,.05.07A.57.57,0,0,0,26,55h.32s.06,0,.06,0v.06a.1.1,0,0,1-.09.06H24.6s-.05,0-.05,0V55a.08.08,0,0,1,.09-.06H25a.7.7,0,0,0,.24,0,.19.19,0,0,0,.12-.15l.74-2.56a1.62,1.62,0,0,1-.35.17,1.21,1.21,0,0,1-.38.06l0,0s0,0,0,0v-.07a.1.1,0,0,1,.09-.06,1.16,1.16,0,0,0,.61-.18,2,2,0,0,0,.51-.46.08.08,0,0,1,.07,0h0l0,0s0,0,0,0v0Z"/><line class="cls-10" x1="12.04" y1="9.6" x2="12.04" y2="55.26"/><line class="cls-10" x1="96.1" y1="55.26" x2="96.1" y2="9.6"/><line class="cls-11" x1="11.75" y1="76.27" x2="18.05" y2="76.27"/><line class="cls-11" x1="11.75" y1="78.16" x2="18.05" y2="78.16"/><line class="cls-11" x1="25.66" y1="77.21" x2="29.56" y2="77.21"/><path class="cls-7" d="M32.66,79.22a.35.35,0,0,0,0,.14c0,.07,0,.11.07.12a.88.88,0,0,0,.35.07h.5a.09.09,0,0,1,.1.07s0,0,0,0l0,.08a.15.15,0,0,1-.14.1c-.43,0-.86,0-1.31,0l-1.31,0c-.06,0-.08,0-.08-.07v-.11a.14.14,0,0,1,.14-.11h.51a1.07,1.07,0,0,0,.38-.07c.09,0,.15-.11.18-.26l1.15-4.48a2,2,0,0,1-.54.29,1.52,1.52,0,0,1-.6.11.06.06,0,0,1-.06,0,.05.05,0,0,1,0,0,0,0,0,0,1,0,0L32,75a.13.13,0,0,1,.13-.1,1.64,1.64,0,0,0,1-.33,3.2,3.2,0,0,0,.8-.8.12.12,0,0,1,.1-.06h0a.08.08,0,0,1,.07,0,0,0,0,0,1,0,0,.06.06,0,0,1,0,0Z"/><path class="cls-7" d="M24.68,81.47a5,5,0,0,1,0-8.51h.46a5.27,5.27,0,0,0,0,8.51"/><path class="cls-7" d="M35.29,73a5,5,0,0,1,0,8.51h-.46a5.27,5.27,0,0,0,0-8.51"/><path class="cls-7" d="M44.61,72.6s0,0,0,0l0,0h-.21a.62.62,0,0,0-.19.07.38.38,0,0,0-.11.11A.54.54,0,0,0,44,73l-.83,2.92A.11.11,0,0,1,43,76H43l0,0-.64-1.54c-.21-.52-.42-1-.64-1.53l-.75,2.62a.29.29,0,0,0,0,.09.06.06,0,0,0,0,0,.14.14,0,0,0,.06.11.26.26,0,0,0,.14.06l.2,0s.06,0,.06,0,0,0,0,0v0a.05.05,0,0,1,0,0H40v0s0,0,0,0v0s0,0,0,0h0l.21,0a.7.7,0,0,0,.19-.06.38.38,0,0,0,.11-.11.83.83,0,0,0,.07-.13l.8-2.79-.21,0H41l0,0s0,0,0,0a0,0,0,0,1,0,0v0a.08.08,0,0,1,.08,0H42s0,0,0,0l1.12,2.68L43.76,73a.29.29,0,0,0,0-.09.18.18,0,0,0-.07-.15.35.35,0,0,0-.15-.07h-.19l0,0v0a0,0,0,0,1,0,0v0a.08.08,0,0,1,.08,0h1.21s0,0,0,0v.06Z"/><path class="cls-8" d="M50.42,75.22c0,.09-.06.18-.1.28a2.13,2.13,0,0,1-.16.25.92.92,0,0,1-.22.18.54.54,0,0,1-.28.08.52.52,0,0,1-.23-.05.41.41,0,0,1-.15-.14.38.38,0,0,1-.05-.19v0a.41.41,0,0,1,.05-.21c.06-.14.12-.29.17-.43a3.12,3.12,0,0,0,.15-.43,1.57,1.57,0,0,0,.06-.28v-.09a.41.41,0,0,0,0-.16.24.24,0,0,0-.24-.17.8.8,0,0,0-.52.18,1.69,1.69,0,0,0-.37.48l-.39,1.35A.27.27,0,0,1,48,76a.42.42,0,0,1-.15,0,.21.21,0,0,1-.11,0,.14.14,0,0,1,0-.07v-.05l.44-1.53a1,1,0,0,0,0-.28V74a.14.14,0,0,0-.16-.14c-.09,0-.17.06-.23.19a3.47,3.47,0,0,0-.17.47s0,0-.07.06h-.07a0,0,0,0,1,0,0v0c0-.07,0-.15.08-.24a.85.85,0,0,1,.11-.26.65.65,0,0,1,.17-.2.41.41,0,0,1,.25-.08.5.5,0,0,1,.35.12.39.39,0,0,1,.13.29,1.52,1.52,0,0,1,.37-.3,1.06,1.06,0,0,1,.48-.11.73.73,0,0,1,.3.06.42.42,0,0,1,.21.16.48.48,0,0,1,.08.28h0a1.12,1.12,0,0,1-.05.31,3.81,3.81,0,0,1-.15.44c0,.14-.11.29-.17.44a.86.86,0,0,0-.09.34c0,.09,0,.14.13.14a.31.31,0,0,0,.19-.06.54.54,0,0,0,.15-.15.61.61,0,0,0,.12-.21,1,1,0,0,0,.09-.26.1.1,0,0,1,.07,0h.07s0,0,0,0Z"/><path class="cls-8" d="M52.69,74.46a.31.31,0,0,1-.31.31.31.31,0,1,1,0-.62A.31.31,0,0,1,52.69,74.46Z"/><path class="cls-8" d="M60.2,75.22a2,2,0,0,1-.11.28,1,1,0,0,1-.16.25.72.72,0,0,1-.21.18.57.57,0,0,1-.28.08.52.52,0,0,1-.23-.05.41.41,0,0,1-.15-.14.38.38,0,0,1-.05-.19v0a.52.52,0,0,1,0-.21,3.93,3.93,0,0,0,.18-.43,3.12,3.12,0,0,0,.15-.43,1.57,1.57,0,0,0,.06-.28v-.09a.41.41,0,0,0,0-.16.24.24,0,0,0-.24-.17.78.78,0,0,0-.52.18,1.69,1.69,0,0,0-.37.48l-.39,1.35a.23.23,0,0,1-.1.12.33.33,0,0,1-.14,0,.21.21,0,0,1-.11,0,.09.09,0,0,1,0-.07s0,0,0-.05L58,74.32A1,1,0,0,0,58,74V74a.14.14,0,0,0-.16-.14c-.1,0-.17.06-.23.19a2.49,2.49,0,0,0-.17.47s0,0-.08.06h-.06a0,0,0,0,1,0,0v0c0-.07,0-.15.07-.24a2,2,0,0,1,.11-.26.86.86,0,0,1,.18-.2.39.39,0,0,1,.25-.08.5.5,0,0,1,.35.12.43.43,0,0,1,.13.29,1.52,1.52,0,0,1,.37-.3,1.06,1.06,0,0,1,.48-.11.73.73,0,0,1,.3.06.42.42,0,0,1,.21.16.48.48,0,0,1,.08.28h0a1.12,1.12,0,0,1,0,.31,3.81,3.81,0,0,1-.15.44c-.05.14-.11.29-.17.44a.86.86,0,0,0-.09.34c0,.09,0,.14.13.14a.33.33,0,0,0,.19-.06.54.54,0,0,0,.15-.15.61.61,0,0,0,.12-.21,1,1,0,0,0,.09-.26.08.08,0,0,1,.07,0h.07s0,0,0,0Z"/><line class="cls-9" x1="61.6" y1="74.46" x2="65.13" y2="74.46"/><path class="cls-8" d="M67.68,75.6s0,.05,0,.07a.08.08,0,0,0,0,.08,1,1,0,0,0,.23,0h.32s.06,0,.06,0a0,0,0,0,1,0,0v0a.1.1,0,0,1-.09.06l-.83,0-.85,0a0,0,0,0,1,0,0v-.06a.09.09,0,0,1,.09-.07h.33a1.29,1.29,0,0,0,.24,0,.2.2,0,0,0,.11-.15L68,73a1.58,1.58,0,0,1-.35.16,1.21,1.21,0,0,1-.38.06h0a0,0,0,0,1,0,0v0l0,0a.08.08,0,0,1,.08-.06,1.07,1.07,0,0,0,.61-.19,2.07,2.07,0,0,0,.52-.46s0,0,.06,0h0l0,0v0Z"/><path class="cls-8" d="M56.66,76.85a2.8,2.8,0,0,1,0-4.77h.26a3,3,0,0,0,0,4.77"/><path class="cls-8" d="M69.16,72.08a2.81,2.81,0,0,1,0,4.77H68.9a3,3,0,0,0,0-4.77"/><path class="cls-8" d="M73.74,74.46a.31.31,0,1,1-.31-.31A.31.31,0,0,1,73.74,74.46Z"/><path class="cls-8" d="M76.24,75.68a.33.33,0,0,1-.14.19.38.38,0,0,1-.24.08.26.26,0,0,1-.2-.08.16.16,0,0,1,0-.12.23.23,0,0,1,0-.07.3.3,0,0,1,.14-.18.38.38,0,0,1,.24-.08.26.26,0,0,1,.2.07.19.19,0,0,1,0,.12A.17.17,0,0,1,76.24,75.68Z"/><path class="cls-8" d="M78,75.68a.33.33,0,0,1-.14.19.38.38,0,0,1-.24.08.26.26,0,0,1-.2-.08.16.16,0,0,1,0-.12.23.23,0,0,1,0-.07.3.3,0,0,1,.14-.18.38.38,0,0,1,.24-.08.26.26,0,0,1,.2.07.19.19,0,0,1,0,.12A.17.17,0,0,1,78,75.68Z"/><path class="cls-8" d="M79.72,75.68a.31.31,0,0,1-.15.19.35.35,0,0,1-.24.08.24.24,0,0,1-.19-.08.16.16,0,0,1,0-.12.23.23,0,0,1,0-.07.3.3,0,0,1,.14-.18.35.35,0,0,1,.24-.08.27.27,0,0,1,.2.07.28.28,0,0,1,0,.12S79.72,75.66,79.72,75.68Z"/><path class="cls-8" d="M82.69,74.46a.31.31,0,1,1-.31-.31A.31.31,0,0,1,82.69,74.46Z"/><path class="cls-8" d="M87.35,73.32a1,1,0,0,1-.19.36,1.6,1.6,0,0,1-.33.3,1.65,1.65,0,0,1-.44.22.66.66,0,0,1,.32.22.6.6,0,0,1,.15.31.53.53,0,0,1,0,.13.62.62,0,0,1,0,.23.82.82,0,0,1-.2.38,1.55,1.55,0,0,1-.36.31,2,2,0,0,1-.47.21,1.66,1.66,0,0,1-.49.07.87.87,0,0,1-.37-.07.64.64,0,0,1-.27-.18.66.66,0,0,1-.13-.28.5.5,0,0,1,0-.12.57.57,0,0,1,0-.22.25.25,0,0,1,.12-.16.35.35,0,0,1,.18-.06A.28.28,0,0,1,85,75a.13.13,0,0,1,0,.1.2.2,0,0,1,0,.07.27.27,0,0,1-.13.17.59.59,0,0,1-.17,0h0a.51.51,0,0,0,.17.39.62.62,0,0,0,.45.16.8.8,0,0,0,.34-.07,1.41,1.41,0,0,0,.32-.17,1,1,0,0,0,.23-.28,2.26,2.26,0,0,0,.13-.33,2.17,2.17,0,0,0,.07-.33v-.08a.45.45,0,0,0,0-.2.35.35,0,0,0-.15-.17.4.4,0,0,0-.24-.07h-.32s0,0,0,0v-.08s0,0,.07,0H86a.8.8,0,0,0,.3-.06,1,1,0,0,0,.28-.16.86.86,0,0,0,.21-.26,1.34,1.34,0,0,0,.12-.3A1.59,1.59,0,0,0,87,73h0a.52.52,0,0,0-.07-.25.55.55,0,0,0-.18-.16.6.6,0,0,0-.27-.06,1.19,1.19,0,0,0-.37.06,1.26,1.26,0,0,0-.33.16,1.55,1.55,0,0,0-.27.24.92.92,0,0,0-.16.29,1.15,1.15,0,0,0,0,.14.31.31,0,0,0,0,.11.15.15,0,0,0,.16.1.37.37,0,0,0,.34-.24.19.19,0,0,0,0-.08.27.27,0,0,0-.07-.18,0,0,0,0,1,0,0,.05.05,0,0,1,0,0h0l.06,0,0,0a.6.6,0,0,1,.09.15.25.25,0,0,1,0,.08.43.43,0,0,1,0,.11.53.53,0,0,1-.19.26.57.57,0,0,1-.33.11.48.48,0,0,1-.18,0,.35.35,0,0,1-.1-.11.41.41,0,0,1,0-.16h0a1,1,0,0,1,0-.16,1,1,0,0,1,.19-.34,1.43,1.43,0,0,1,.32-.28,1.84,1.84,0,0,1,.4-.19,2,2,0,0,1,.43-.07,1.76,1.76,0,0,1,.4.07.88.88,0,0,1,.29.2.67.67,0,0,1,.15.29.71.71,0,0,1,0,.14A1.49,1.49,0,0,1,87.35,73.32Z"/><path class="cls-8" d="M89.27,74.46a.31.31,0,1,1-.31-.31A.31.31,0,0,1,89.27,74.46Z"/><path class="cls-8" d="M93.71,73.62a.89.89,0,0,1-.22.37,2,2,0,0,1-.38.32,5.11,5.11,0,0,1-.46.28l-.47.24a2.37,2.37,0,0,0-.5.32,1.86,1.86,0,0,0-.37.42.32.32,0,0,1,.14,0,1.55,1.55,0,0,1,.31,0l.29.05.3.06.3,0a.59.59,0,0,0,.22,0,.6.6,0,0,0,.21-.14.88.88,0,0,0,.27-.43.08.08,0,0,1,.08,0h.11v0s0,0,0,0a1.7,1.7,0,0,1-.14.35,1.77,1.77,0,0,1-.21.32,1.33,1.33,0,0,1-.3.23.78.78,0,0,1-.35.08.83.83,0,0,1-.32-.06L92,75.86l-.25-.13a.54.54,0,0,0-.29-.07.24.24,0,0,0-.19.1.64.64,0,0,0-.13.26s0,0-.08,0h-.1s0,0,0,0h0a1.9,1.9,0,0,1,.43-.75,2.27,2.27,0,0,1,.76-.57,3.31,3.31,0,0,0,.72-.47,1.35,1.35,0,0,0,.42-.61,2.12,2.12,0,0,0,.08-.41v-.08a.71.71,0,0,0,0-.29.5.5,0,0,0-.19-.22.56.56,0,0,0-.3-.08.89.89,0,0,0-.39.09,1.59,1.59,0,0,0-.33.25,1.64,1.64,0,0,0-.26.37,1.57,1.57,0,0,0-.18.42.75.75,0,0,0,0,.2.17.17,0,0,0,0,.07.12.12,0,0,0,.13.11.41.41,0,0,0,.19,0,.65.65,0,0,0,.16-.13,1,1,0,0,0,.13-.2,1.33,1.33,0,0,0,.1-.24.19.19,0,0,0,0-.08.17.17,0,0,0,0-.07.42.42,0,0,0-.06-.14s0,0,0,0,0,0,0-.05h0l0,0,0,0a.35.35,0,0,1,.09.23.32.32,0,0,1,0,.14.85.85,0,0,1-.11.26,1,1,0,0,1-.15.24.62.62,0,0,1-.22.17.48.48,0,0,1-.26.07.32.32,0,0,1-.18,0,.2.2,0,0,1-.09-.11.4.4,0,0,1,0-.15s0,0,0,0a.47.47,0,0,1,0-.17,2.07,2.07,0,0,1,.2-.46,1.68,1.68,0,0,1,.3-.4,1.91,1.91,0,0,1,.41-.29,1.3,1.3,0,0,1,.48-.11,1.24,1.24,0,0,1,.45.1.92.92,0,0,1,.32.26.83.83,0,0,1,.16.39.66.66,0,0,1,0,.13A1.26,1.26,0,0,1,93.71,73.62Z"/><path class="cls-8" d="M95.76,74.46a.32.32,0,1,1-.31-.31A.31.31,0,0,1,95.76,74.46Z"/><path class="cls-8" d="M98.57,75.6a.19.19,0,0,0,0,.07s0,.07,0,.08a1,1,0,0,0,.23,0h.32s.06,0,.06,0a0,0,0,0,1,0,0v0a.1.1,0,0,1-.09.06l-.83,0-.85,0a0,0,0,0,1,0,0v0l0,0a.08.08,0,0,1,.08-.07h.33a1.09,1.09,0,0,0,.24,0,.24.24,0,0,0,.12-.15L98.88,73a1.39,1.39,0,0,1-.35.16,1.16,1.16,0,0,1-.38.06h0s0,0,0,0a0,0,0,0,1,0,0v0a.08.08,0,0,1,.09-.06,1.09,1.09,0,0,0,.61-.19,2.22,2.22,0,0,0,.51-.46l.07,0h0l0,0v0Z"/><path class="cls-7" d="M46.89,77a3.08,3.08,0,0,1,0-5.07h.26a3.26,3.26,0,0,0,0,5.07"/><path class="cls-7" d="M100,71.93A3.08,3.08,0,0,1,100,77h-.26a3.26,3.26,0,0,0,0-5.07"/><path class="cls-7" d="M113.16,77l0-.17a1.16,1.16,0,0,0,0-.18,1,1,0,0,0-.22-.36.5.5,0,0,0-.37-.15.69.69,0,0,0-.39.14,1.81,1.81,0,0,0-.36.37,2.17,2.17,0,0,0-.33.64c-.07.22-.14.45-.2.69s-.11.46-.15.68a1.24,1.24,0,0,0,0,.33,1.1,1.1,0,0,0,0,.31.83.83,0,0,0,.16.37.42.42,0,0,0,.33.14.78.78,0,0,0,.44-.15,1.74,1.74,0,0,0,.4-.37,2.09,2.09,0,0,0,.14-.17.57.57,0,0,0,.12-.18Zm1.21,1.62q-.06.19-.12.45a1.77,1.77,0,0,1-.18.45,1.17,1.17,0,0,1-.27.35.56.56,0,0,1-.4.14.76.76,0,0,1-.53-.18.81.81,0,0,1-.23-.46,2.74,2.74,0,0,1-.51.45,1.13,1.13,0,0,1-.63.19.88.88,0,0,1-.57-.17,1.07,1.07,0,0,1-.36-.43,1.59,1.59,0,0,1-.17-.68v-.07a2.59,2.59,0,0,1,.09-.68,3.91,3.91,0,0,1,.3-.75,3.23,3.23,0,0,1,.51-.69,2.56,2.56,0,0,1,.59-.43,1.37,1.37,0,0,1,.66-.18.67.67,0,0,1,.47.16,1,1,0,0,1,.28.37v-.06a.34.34,0,0,1,.14-.22.35.35,0,0,1,.21-.07.31.31,0,0,1,.21.07.26.26,0,0,1,0,.14s0,0,0,.08l-.65,2.54a2.58,2.58,0,0,0-.07.34c0,.06,0,.11,0,.15s0,.09,0,.13a.37.37,0,0,0,.08.19.24.24,0,0,0,.17.06.34.34,0,0,0,.21-.08.89.89,0,0,0,.16-.26,2,2,0,0,0,.14-.38c0-.14.09-.3.13-.47a.1.1,0,0,1,.11-.08h.11s.07,0,.07,0Z"/><path class="cls-7" d="M115.74,80.79a.13.13,0,0,0,0,.08s0,.06,0,.07a.59.59,0,0,0,.23,0h.32s.06,0,.06,0a0,0,0,0,1,0,0v0a.1.1,0,0,1-.09.06l-.83,0-.85,0a0,0,0,0,1,0,0v-.06a.08.08,0,0,1,.09-.07H115a.65.65,0,0,0,.24,0s.09-.06.12-.15l.73-2.55a1.58,1.58,0,0,1-.35.16,1.21,1.21,0,0,1-.38.06h0a0,0,0,0,1,0,0,0,0,0,0,1,0,0v0s0-.06.08-.06a1.18,1.18,0,0,0,.62-.19,2.47,2.47,0,0,0,.51-.46s0,0,.06,0h0l0,0s0,0,0,0,0,0,0,0Z"/><path class="cls-7" d="M118.14,81.14a1.51,1.51,0,0,1-.28.53,1.84,1.84,0,0,1-.47.45h-.09s0,0,0,0a.05.05,0,0,1,0,0,1.93,1.93,0,0,0,.44-.41,1.52,1.52,0,0,0,.25-.49l0-.08a.41.41,0,0,1-.11.07l-.15,0a.2.2,0,0,1-.2-.09.14.14,0,0,1,0-.11s0,0,0-.07a.32.32,0,0,1,.13-.18.37.37,0,0,1,.26-.08.21.21,0,0,1,.16,0,.19.19,0,0,1,.07.12.43.43,0,0,1,0,.11V81A1.16,1.16,0,0,1,118.14,81.14Z"/><path class="cls-7" d="M122.7,80.42c0,.09-.07.18-.11.27a.87.87,0,0,1-.16.26,1,1,0,0,1-.22.18.51.51,0,0,1-.28.08.59.59,0,0,1-.23,0,.38.38,0,0,1-.14-.14.53.53,0,0,1-.06-.19v0a.54.54,0,0,1,0-.21l.18-.43.15-.43c0-.1,0-.19.05-.28a.28.28,0,0,0,0-.09.78.78,0,0,0,0-.16.24.24,0,0,0-.25-.17.76.76,0,0,0-.51.18,1.72,1.72,0,0,0-.38.48l-.39,1.35a.18.18,0,0,1-.09.12.37.37,0,0,1-.14,0,.18.18,0,0,1-.11,0,.1.1,0,0,1,0-.08.06.06,0,0,1,0,0l.43-1.53a1.11,1.11,0,0,0,.05-.28v-.06a.14.14,0,0,0-.16-.14c-.1,0-.18.06-.24.19a3.61,3.61,0,0,0-.16.47.07.07,0,0,1-.08,0h-.06s0,0,0,0v0c0-.07,0-.15.07-.24a1.19,1.19,0,0,1,.11-.26.82.82,0,0,1,.17-.2.45.45,0,0,1,.26-.08.47.47,0,0,1,.34.12.39.39,0,0,1,.14.29,1.52,1.52,0,0,1,.37-.3,1.06,1.06,0,0,1,.48-.11,1,1,0,0,1,.3,0,.51.51,0,0,1,.21.17.5.5,0,0,1,.08.27v0a1.18,1.18,0,0,1,0,.31,3.81,3.81,0,0,1-.15.44c-.06.14-.11.29-.18.44a.82.82,0,0,0-.09.34c0,.09,0,.13.14.13a.32.32,0,0,0,.19,0,.54.54,0,0,0,.15-.15l.12-.21.09-.26a.05.05,0,0,1,.06,0h.08s0,0,0,0Z"/><path class="cls-7" d="M127,77.21a.55.55,0,1,1-.55-.55A.55.55,0,0,1,127,77.21Z"/><path class="cls-7" d="M132.86,77l0-.17a1.16,1.16,0,0,0,0-.18,1.09,1.09,0,0,0-.22-.36.5.5,0,0,0-.37-.15.72.72,0,0,0-.4.14,1.78,1.78,0,0,0-.35.37,2.17,2.17,0,0,0-.33.64,7,7,0,0,0-.2.69c-.06.23-.11.46-.15.68a1.24,1.24,0,0,0,0,.33,1.1,1.1,0,0,0,0,.31.83.83,0,0,0,.16.37.39.39,0,0,0,.32.14.81.81,0,0,0,.45-.15,2,2,0,0,0,.4-.37,2.09,2.09,0,0,0,.14-.17l.12-.18Zm1.21,1.62q-.06.19-.12.45a3,3,0,0,1-.18.45,1.36,1.36,0,0,1-.27.35.59.59,0,0,1-.41.14.75.75,0,0,1-.52-.18.76.76,0,0,1-.24-.46,2.22,2.22,0,0,1-.51.45,1.08,1.08,0,0,1-.62.19.88.88,0,0,1-.57-.17,1.18,1.18,0,0,1-.37-.43,1.58,1.58,0,0,1-.16-.68v-.07a2.59,2.59,0,0,1,.09-.68,3.91,3.91,0,0,1,.3-.75,3.23,3.23,0,0,1,.51-.69,2.56,2.56,0,0,1,.59-.43,1.37,1.37,0,0,1,.66-.18.67.67,0,0,1,.47.16,1,1,0,0,1,.28.37v-.06a.33.33,0,0,1,.13-.22.4.4,0,0,1,.22-.07.27.27,0,0,1,.2.07.2.2,0,0,1,.05.14.25.25,0,0,1,0,.08L133,78.9a2.45,2.45,0,0,0-.06.34.86.86,0,0,0,0,.15.57.57,0,0,0,0,.13.37.37,0,0,0,.08.19.24.24,0,0,0,.17.06.32.32,0,0,0,.2-.08.73.73,0,0,0,.17-.26,3.14,3.14,0,0,0,.14-.38c0-.14.09-.3.13-.47s.05-.08.11-.08h.1s.08,0,.08,0Z"/><path class="cls-7" d="M137.06,78.82a.89.89,0,0,1-.22.37,2.47,2.47,0,0,1-.38.32,5.11,5.11,0,0,1-.46.28l-.47.24a2.14,2.14,0,0,0-.5.32,1.86,1.86,0,0,0-.37.42.29.29,0,0,1,.14,0,1.55,1.55,0,0,1,.31,0l.29,0,.29.05a1.53,1.53,0,0,0,.3,0,.66.66,0,0,0,.44-.19.82.82,0,0,0,.17-.2.94.94,0,0,0,.1-.23s0,0,.08,0h.11v0a2.55,2.55,0,0,1-.14.35,1.4,1.4,0,0,1-.22.32,1.09,1.09,0,0,1-.29.23.82.82,0,0,1-.35.08.79.79,0,0,1-.32-.06l-.26-.14-.25-.14a.65.65,0,0,0-.29-.06.24.24,0,0,0-.19.1.64.64,0,0,0-.13.26s0,0-.08,0h-.06s0,0,0,0l0,0h0a1.9,1.9,0,0,1,.43-.75,2.33,2.33,0,0,1,.76-.58,3,3,0,0,0,.72-.46,1.3,1.3,0,0,0,.41-.61,1.6,1.6,0,0,0,.09-.41v-.08a.71.71,0,0,0,0-.29.57.57,0,0,0-.19-.22.56.56,0,0,0-.3-.08.86.86,0,0,0-.39.09,1.59,1.59,0,0,0-.33.25,1.88,1.88,0,0,0-.27.36,2.26,2.26,0,0,0-.17.43.75.75,0,0,0,0,.2.17.17,0,0,0,0,.07.11.11,0,0,0,.12.11.46.46,0,0,0,.2,0,.67.67,0,0,0,.16-.14,1.56,1.56,0,0,0,.13-.19c0-.07.07-.15.1-.24s0,0,0-.08a.15.15,0,0,0,0-.07.42.42,0,0,0-.06-.14s0,0,0,0,0,0,0,0h0l.05,0a.05.05,0,0,1,0,0,.35.35,0,0,1,.09.23.59.59,0,0,1,0,.14,1.19,1.19,0,0,1-.11.26,1,1,0,0,1-.16.24.68.68,0,0,1-.21.17.58.58,0,0,1-.26.06.3.3,0,0,1-.18,0,.27.27,0,0,1-.09-.12.32.32,0,0,1,0-.14v0a.47.47,0,0,1,0-.17,2.07,2.07,0,0,1,.2-.46,1.68,1.68,0,0,1,.3-.4,1.46,1.46,0,0,1,.41-.29,1.13,1.13,0,0,1,.48-.11,1.06,1.06,0,0,1,.45.1.82.82,0,0,1,.32.26,1,1,0,0,1,.16.39.62.62,0,0,1,0,.13A1.26,1.26,0,0,1,137.06,78.82Z"/><path class="cls-7" d="M138,81.14a1.51,1.51,0,0,1-.28.53,1.84,1.84,0,0,1-.47.45h-.09s0,0,0,0a.05.05,0,0,1,0,0,1.93,1.93,0,0,0,.44-.41,1.52,1.52,0,0,0,.25-.49l0-.08a.41.41,0,0,1-.11.07l-.15,0a.2.2,0,0,1-.2-.09.14.14,0,0,1,0-.11.2.2,0,0,1,0-.07.32.32,0,0,1,.13-.18.37.37,0,0,1,.26-.08.21.21,0,0,1,.16,0,.19.19,0,0,1,.07.12.43.43,0,0,1,0,.11V81A1.16,1.16,0,0,1,138,81.14Z"/><path class="cls-7" d="M142.59,80.42a1.48,1.48,0,0,1-.1.27,1.13,1.13,0,0,1-.16.26,1.24,1.24,0,0,1-.22.18.51.51,0,0,1-.28.08.56.56,0,0,1-.23,0,.38.38,0,0,1-.14-.14.53.53,0,0,1-.06-.19v0a.54.54,0,0,1,0-.21l.18-.43.15-.43c0-.1,0-.19.05-.28a.28.28,0,0,0,0-.09.41.41,0,0,0,0-.16.22.22,0,0,0-.24-.17.76.76,0,0,0-.51.18,1.55,1.55,0,0,0-.38.48l-.39,1.35a.22.22,0,0,1-.09.12.43.43,0,0,1-.14,0,.16.16,0,0,1-.11,0,.1.1,0,0,1,0-.08v0l.44-1.53a1.11,1.11,0,0,0,0-.28v-.06a.14.14,0,0,0-.16-.14c-.1,0-.18.06-.24.19a3.47,3.47,0,0,0-.17.47.06.06,0,0,1-.07,0h-.07s0,0,0,0v0c0-.07.05-.15.08-.24a1.19,1.19,0,0,1,.11-.26A.82.82,0,0,1,140,79a.41.41,0,0,1,.25-.08.48.48,0,0,1,.35.12.42.42,0,0,1,.14.29,1.48,1.48,0,0,1,.36-.3,1.06,1.06,0,0,1,.48-.11.94.94,0,0,1,.3,0,.48.48,0,0,1,.22.17.5.5,0,0,1,.08.27v0a1.81,1.81,0,0,1,0,.31l-.15.44-.18.44a.82.82,0,0,0-.09.34c0,.09.05.13.14.13a.32.32,0,0,0,.19,0,1.06,1.06,0,0,0,.15-.15l.12-.21a2,2,0,0,0,.08-.26.08.08,0,0,1,.07,0h.07s0,0,0,0Z"/><line class="cls-12" x1="144.07" y1="79.66" x2="147.59" y2="79.66"/><path class="cls-7" d="M150.15,80.79a.31.31,0,0,0,0,.08.07.07,0,0,0,.05.07.54.54,0,0,0,.22,0h.33a0,0,0,0,1,.05,0v.07a.1.1,0,0,1-.09.06l-.84,0-.84,0a0,0,0,0,1-.05,0v-.06a.08.08,0,0,1,.09-.07h.32a.76.76,0,0,0,.25,0s.09-.06.11-.15l.74-2.55a1.58,1.58,0,0,1-.35.16,1.21,1.21,0,0,1-.38.06h0a0,0,0,0,1,0,0v-.06a.08.08,0,0,1,.09-.06,1.18,1.18,0,0,0,.61-.19,2,2,0,0,0,.51-.46l.07,0h0l.05,0v0Z"/><path class="cls-7" d="M155.52,77.21a.56.56,0,1,1-.56-.55A.56.56,0,0,1,155.52,77.21Z"/><path class="cls-7" d="M159.57,79.39a.57.57,0,0,1-.23.35.6.6,0,0,1-.38.13.34.34,0,0,1-.31-.14.31.31,0,0,1-.07-.21.83.83,0,0,1,0-.13.56.56,0,0,1,.22-.33.64.64,0,0,1,.39-.14.39.39,0,0,1,.32.14.37.37,0,0,1,.06.21A.5.5,0,0,1,159.57,79.39Z"/><path class="cls-7" d="M162.34,79.39a.57.57,0,0,1-.23.35.6.6,0,0,1-.38.13.34.34,0,0,1-.31-.14.31.31,0,0,1-.07-.21.83.83,0,0,1,0-.13.56.56,0,0,1,.22-.33.67.67,0,0,1,.39-.14.39.39,0,0,1,.32.14.37.37,0,0,1,.06.21A.5.5,0,0,1,162.34,79.39Z"/><path class="cls-7" d="M165.11,79.39a.6.6,0,0,1-.22.35.63.63,0,0,1-.39.13.35.35,0,0,1-.31-.14.38.38,0,0,1-.07-.21.83.83,0,0,1,0-.13.58.58,0,0,1,.23-.33.62.62,0,0,1,.38-.14.34.34,0,0,1,.38.35A.5.5,0,0,1,165.11,79.39Z"/><path class="cls-7" d="M170.66,77.21a.56.56,0,1,1-.55-.55A.56.56,0,0,1,170.66,77.21Z"/><path class="cls-7" d="M176.49,77a.51.51,0,0,1,0-.17,1.21,1.21,0,0,0-.05-.18,1,1,0,0,0-.22-.36.48.48,0,0,0-.36-.15.69.69,0,0,0-.4.14,1.81,1.81,0,0,0-.36.37,2.78,2.78,0,0,0-.33.64c-.07.22-.14.45-.2.69s-.11.46-.15.68a1.84,1.84,0,0,0,0,.33,1.63,1.63,0,0,0,0,.31,1,1,0,0,0,.16.37.42.42,0,0,0,.33.14.75.75,0,0,0,.44-.15,2,2,0,0,0,.41-.37l.13-.17a.57.57,0,0,0,.12-.18Zm1.2,1.62q-.06.19-.12.45a1.77,1.77,0,0,1-.18.45,1.17,1.17,0,0,1-.27.35.56.56,0,0,1-.4.14.73.73,0,0,1-.52-.18.76.76,0,0,1-.24-.46,2.22,2.22,0,0,1-.51.45,1.12,1.12,0,0,1-.62.19.91.91,0,0,1-.58-.17,1.26,1.26,0,0,1-.36-.43,1.59,1.59,0,0,1-.17-.68v-.07a2.24,2.24,0,0,1,.1-.68,3.86,3.86,0,0,1,.29-.75,3.23,3.23,0,0,1,.51-.69,2.56,2.56,0,0,1,.59-.43,1.38,1.38,0,0,1,.67-.18.65.65,0,0,1,.46.16.93.93,0,0,1,.28.37l0-.06a.3.3,0,0,1,.13-.22.35.35,0,0,1,.21-.07.3.3,0,0,1,.21.07.2.2,0,0,1,.05.14.25.25,0,0,1,0,.08l-.65,2.54c0,.12-.05.24-.07.34v.28a.47.47,0,0,0,.08.19.24.24,0,0,0,.17.06.32.32,0,0,0,.21-.08.72.72,0,0,0,.16-.26,2,2,0,0,0,.14-.38c0-.14.09-.3.14-.47s0-.08.1-.08h.11s.07,0,.07,0Z"/><path class="cls-7" d="M181,80.42a1.48,1.48,0,0,1-.1.27,1.13,1.13,0,0,1-.16.26,1.24,1.24,0,0,1-.22.18.51.51,0,0,1-.28.08.56.56,0,0,1-.23,0,.38.38,0,0,1-.14-.14.53.53,0,0,1-.06-.19v0a.54.54,0,0,1,.05-.21l.18-.43.15-.43c0-.1,0-.19.05-.28a.28.28,0,0,0,0-.09.78.78,0,0,0,0-.16.24.24,0,0,0-.25-.17.76.76,0,0,0-.51.18,1.72,1.72,0,0,0-.38.48l-.39,1.35a.22.22,0,0,1-.09.12.37.37,0,0,1-.14,0,.16.16,0,0,1-.11,0,.1.1,0,0,1,0-.08v0l.44-1.53a1.11,1.11,0,0,0,.05-.28v-.06a.14.14,0,0,0-.16-.14c-.1,0-.18.06-.24.19a3.47,3.47,0,0,0-.17.47.06.06,0,0,1-.07,0h-.07s0,0,0,0v0c0-.07,0-.15.08-.24a1.19,1.19,0,0,1,.11-.26.82.82,0,0,1,.17-.2.41.41,0,0,1,.25-.08A.48.48,0,0,1,179,79a.42.42,0,0,1,.14.29,1.35,1.35,0,0,1,.37-.3,1,1,0,0,1,.47-.11.94.94,0,0,1,.3,0,.48.48,0,0,1,.22.17.5.5,0,0,1,.08.27v0a1.81,1.81,0,0,1-.05.31l-.15.44-.18.44a.82.82,0,0,0-.09.34c0,.09,0,.13.14.13a.32.32,0,0,0,.19,0,1.06,1.06,0,0,0,.15-.15,1.17,1.17,0,0,0,.2-.47.08.08,0,0,1,.07,0h.07s0,0,0,0Z"/><path class="cls-7" d="M182,81.14a1.48,1.48,0,0,1-.27.53,2.07,2.07,0,0,1-.48.45h-.08s0,0,0,0a.05.05,0,0,1,0,0,1.93,1.93,0,0,0,.44-.41,1.79,1.79,0,0,0,.26-.49v-.08a.41.41,0,0,1-.11.07l-.15,0a.2.2,0,0,1-.2-.09.14.14,0,0,1,0-.11s0,0,0-.07a.38.38,0,0,1,.13-.18.37.37,0,0,1,.26-.08.21.21,0,0,1,.16,0,.25.25,0,0,1,.08.12s0,.07,0,.11V81A1.16,1.16,0,0,1,182,81.14Z"/><path class="cls-7" d="M185,80.79a.31.31,0,0,0,0,.08.07.07,0,0,0,.05.07.54.54,0,0,0,.22,0h.32s.06,0,.06,0v.07a.1.1,0,0,1-.09.06l-.84,0-.84,0s-.05,0-.05,0v-.06a.08.08,0,0,1,.09-.07h.32a.65.65,0,0,0,.24,0q.09,0,.12-.15l.74-2.55a1.58,1.58,0,0,1-.35.16,1.21,1.21,0,0,1-.38.06h0s0,0,0,0v-.06a.08.08,0,0,1,.09-.06,1.18,1.18,0,0,0,.61-.19,2,2,0,0,0,.51-.46l.07,0h0l0,0s0,0,0,0v0Z"/><path class="cls-7" d="M110.54,82.94a2.38,2.38,0,0,0,2.22,1.56h33.47a2.12,2.12,0,0,1,2,1.38h.25a2.11,2.11,0,0,1,2-1.38h33.47a2.37,2.37,0,0,0,2.22-1.55l0-.19a2.11,2.11,0,0,1-1.9,1.2H150.41a2.09,2.09,0,0,0-2,1.37h-.25a2.11,2.11,0,0,0-2-1.37H112.49a2.1,2.1,0,0,1-1.89-1.21"/><path class="cls-7" d="M105,86.8v0s0,0,0,.05a2.16,2.16,0,0,0-.44.41,1.59,1.59,0,0,0-.27.49v.09a.36.36,0,0,1,.27-.1.26.26,0,0,1,.21.08.27.27,0,0,1,0,.12.2.2,0,0,1,0,.07.39.39,0,0,1-.38.26.23.23,0,0,1-.17-.05.2.2,0,0,1-.08-.12.69.69,0,0,1,0-.13v0a1.16,1.16,0,0,1,0-.18,1.36,1.36,0,0,1,.28-.53,2.07,2.07,0,0,1,.48-.45H105Zm1.06,0v0a.05.05,0,0,1,0,.05,2,2,0,0,0-.45.41,1.34,1.34,0,0,0-.25.49l0,0a.09.09,0,0,1,0,0,.4.4,0,0,1,.28-.1.26.26,0,0,1,.21.08.27.27,0,0,1,0,.12.2.2,0,0,1,0,.07.39.39,0,0,1-.38.26.22.22,0,0,1-.17-.05.2.2,0,0,1-.08-.12.32.32,0,0,1,0-.13v0a.39.39,0,0,1,0-.18,1.48,1.48,0,0,1,.27-.53,2.34,2.34,0,0,1,.49-.45H106Z"/><path class="cls-7" d="M110.57,89.18h-2.46v1.28h2.46Zm-3.81-1.51h1.71c.12-.21.23-.43.33-.65l.4.11c-.1.19-.19.37-.29.54h2.48V88h-2.67a9.45,9.45,0,0,1-.59.87H111v2.27h-.39v-.36h-2.46v.36h-.39V89.37c-.24.28-.5.54-.76.79a2.42,2.42,0,0,0-.3-.25A8.56,8.56,0,0,0,108.29,88h-1.53Z"/><polygon class="cls-7" points="111.6 90.56 113.49 90.56 113.49 87.1 113.93 87.1 113.93 88.36 115.91 88.36 115.91 88.7 113.93 88.7 113.93 90.56 116.29 90.56 116.29 90.9 111.6 90.9 111.6 90.56"/><path class="cls-7" d="M118.42,87.3a1.69,1.69,0,0,1-.28.53,2.12,2.12,0,0,1-.49.45h-.09v0a.05.05,0,0,1,0,0,2.16,2.16,0,0,0,.44-.41,1.55,1.55,0,0,0,.26-.49.09.09,0,0,0,0,0s0,0,0,0a.35.35,0,0,1-.12.07.41.41,0,0,1-.16,0,.22.22,0,0,1-.2-.09.2.2,0,0,1,0-.11.2.2,0,0,1,0-.07.47.47,0,0,1,.12-.18.45.45,0,0,1,.26-.08.29.29,0,0,1,.17,0,.25.25,0,0,1,.08.12.41.41,0,0,1,0,.12v.05Zm1,0a1.48,1.48,0,0,1-.27.53,1.93,1.93,0,0,1-.49.45h-.09s0,0,0,0a.05.05,0,0,1,0,0,2,2,0,0,0,.45-.41,1.55,1.55,0,0,0,.26-.49s0,0,0,0,0,0,0,0a.35.35,0,0,1-.12.07.41.41,0,0,1-.16,0,.2.2,0,0,1-.2-.09.21.21,0,0,1,0-.11s0,0,0-.07a.41.41,0,0,1,.13-.18.42.42,0,0,1,.26-.08.29.29,0,0,1,.17,0,.36.36,0,0,1,.08.12.41.41,0,0,1,0,.12v.05A1.16,1.16,0,0,1,119.47,87.3Z"/><path class="cls-7" d="M123.86,87.48h.39v2.67h-.39Zm1-.45h.4v3.54c0,.35-.2.52-.59.52H124c0-.11,0-.24-.07-.38a6.29,6.29,0,0,0,.65,0c.21,0,.31-.09.31-.28Zm-4,2.4H122v-.52h.38v.52h1.11v.31h-1.11v.74l1.18-.14a1.94,1.94,0,0,0,0,.33l-2.75.32-.11-.35,1.28-.12v-.78h-1.14Zm2-1.6c.26.33.5.67.73,1l-.38.17-.17-.31-2,.18-.18-.35a1.3,1.3,0,0,0,.49-.42,6.32,6.32,0,0,0,.36-.54h-.9v-.31h2.77v.31h-1.41c-.24.35-.49.67-.73,1,.46,0,.92-.06,1.4-.11l-.34-.47Z"/><path class="cls-7" d="M128.22,86.8l0,0s0,0,0,.05a2,2,0,0,0-.45.41,1.55,1.55,0,0,0-.26.49l0,.09a.36.36,0,0,1,.27-.1.23.23,0,0,1,.21.08.19.19,0,0,1,0,.12s0,0,0,.07a.44.44,0,0,1-.13.18.38.38,0,0,1-.26.08.23.23,0,0,1-.17-.05.25.25,0,0,1-.08-.12.62.62,0,0,1,0-.13v0a.57.57,0,0,1,0-.18,1.51,1.51,0,0,1,.28-.53,1.93,1.93,0,0,1,.49-.45h.08Zm1.06,0v0a.05.05,0,0,1,0,.05,2.52,2.52,0,0,0-.45.41,1.52,1.52,0,0,0-.25.49.08.08,0,0,0,0,0s0,0,0,0a.38.38,0,0,1,.27-.1.24.24,0,0,1,.21.08.56.56,0,0,1,0,.12.25.25,0,0,1,0,.07.31.31,0,0,1-.13.18.34.34,0,0,1-.25.08.23.23,0,0,1-.17-.05.25.25,0,0,1-.08-.12.69.69,0,0,1,0-.13v0a1.16,1.16,0,0,1,0-.18,1.51,1.51,0,0,1,.28-.53,2.07,2.07,0,0,1,.48-.45h.09Z"/><path class="cls-7" d="M130.71,90.59h1.76V89.23h-1.19a8.08,8.08,0,0,1-1.14,1.56,1.44,1.44,0,0,0-.27-.28A6.55,6.55,0,0,0,131.36,88h-1.31v-.33h1.4a5.74,5.74,0,0,0,.13-.65l.41,0c0,.21-.09.41-.14.6h2.8V88h-2.88a6.88,6.88,0,0,1-.34.91h2.91v.32h-1.46v1.36h1.77v.31h-3.94Z"/><path class="cls-7" d="M134.85,87.38h4.69v.34H137.2v.91l.22-.27c.74.38,1.36.72,1.85,1l-.28.34c-.5-.33-1.1-.68-1.79-1v2.46h-.44V87.72h-1.91Z"/><path class="cls-7" d="M141.67,87.3a1.51,1.51,0,0,1-.28.53,2.07,2.07,0,0,1-.48.45h-.09a0,0,0,0,1,0,0,.05.05,0,0,1,0,0,2.22,2.22,0,0,0,.45-.41,1.52,1.52,0,0,0,.25-.49s0,0,0,0a.08.08,0,0,1,0,0l-.12.07a.41.41,0,0,1-.16,0,.2.2,0,0,1-.2-.09.15.15,0,0,1,0-.11.2.2,0,0,1,0-.07.41.41,0,0,1,.13-.18.42.42,0,0,1,.26-.08.25.25,0,0,1,.16,0,.27.27,0,0,1,.09.12s0,.07,0,.12v.05A1.16,1.16,0,0,1,141.67,87.3Zm1.06,0a1.51,1.51,0,0,1-.28.53,1.89,1.89,0,0,1-.48.45h-.09a0,0,0,0,1,0,0,.05.05,0,0,1,0,0,2.16,2.16,0,0,0,.44-.41,1.37,1.37,0,0,0,.26-.49.09.09,0,0,0,0,0s0,0,0,0l-.13.07a.37.37,0,0,1-.15,0,.22.22,0,0,1-.21-.09.2.2,0,0,1,0-.11.2.2,0,0,1,0-.07.41.41,0,0,1,.13-.18.39.39,0,0,1,.25-.08.26.26,0,0,1,.17,0,.2.2,0,0,1,.08.12.37.37,0,0,1,0,.12v.05A1.16,1.16,0,0,1,142.73,87.3Z"/><path class="cls-7" d="M146.53,88.87l.3-.19a12.12,12.12,0,0,1,.85.95l-.36.22A8.48,8.48,0,0,0,146.53,88.87Zm-.88-.83h-1.09v1h1.09Zm-1.09,2.37h1.09v-1h-1.09Zm1.55-1.83a5.75,5.75,0,0,0,.77-1.55l.4.09c-.08.21-.16.4-.25.59h1.55c0,1.43-.07,2.34-.09,2.71s-.29.66-.8.66l-.89,0a3,3,0,0,0-.08-.37h0a7.1,7.1,0,0,0,.88.06.41.41,0,0,0,.47-.4c0-.42.06-1.19.08-2.32h-1.29a6,6,0,0,1-.44.72A1.69,1.69,0,0,0,146.11,88.58Zm-1.93-.86h.48q.18-.37.3-.69l.4.1c-.1.21-.19.41-.29.59h1v3.34h-.39v-.33h-1.09v.36h-.38Z"/><path class="cls-7" d="M151.19,88.79l.32-.16c.26.33.49.66.69,1l-.36.18C151.65,89.46,151.43,89.14,151.19,88.79Zm-.08-.84h1.6v-.89h.39V88h.59v.32h-.59v2.19c0,.41-.23.61-.69.61h-.71c0-.1,0-.23-.08-.38l.73,0c.24,0,.36-.11.36-.32V88.27h-1.6Zm-1.76.17.8,1a3.93,3.93,0,0,0,.37-1.32H149V87.5h1.91v.3a5.06,5.06,0,0,1-.51,1.65c.26.34.52.66.76,1l-.35.2-.61-.83A4.63,4.63,0,0,1,149.11,91l-.24-.31a4.32,4.32,0,0,0,1.1-1.21l-.91-1.2Z"/><path class="cls-7" d="M154.8,88.42V89h1.28v-.55Zm0,1.38h1.31v-.54H154.8A4.5,4.5,0,0,1,154.77,89.8Zm1.69,0h1.35v-.54h-1.35Zm1.35-1.38h-1.35V89h1.35Zm-1-.74h-1.69a6.25,6.25,0,0,1-.45.44h1.7C156.58,88,156.72,87.81,156.85,87.68Zm-3.06.73A5.21,5.21,0,0,0,155.25,87l.39.09c-.08.1-.15.21-.23.3h1.93v.3l-.46.44h1.31v2.45c0,.35-.18.52-.55.52h-.7c0-.1-.05-.22-.07-.34l.62,0c.21,0,.32-.08.32-.25V90.1h-1.35v1h-.38v-1h-1.36a1.94,1.94,0,0,1-.54,1.09l-.29-.28a2.16,2.16,0,0,0,.53-1.66v-.88l-.34.26A2.43,2.43,0,0,0,153.79,88.41Z"/><path class="cls-7" d="M162.07,87.26l.21-.21c.23.13.47.28.73.46l-.23.24C162.51,87.55,162.28,87.39,162.07,87.26Zm-3.36,3.27c.56-.11,1.14-.22,1.71-.35,0,.11,0,.22,0,.32-.54.11-1.07.22-1.6.35Zm.61-1c.29,0,.62-.08,1-.14a3.11,3.11,0,0,0,0,.32l-1.41.2-.08-.32a4.89,4.89,0,0,0,.73-.89l-.73,0-.09-.28a7.79,7.79,0,0,0,.92-1.49l.36.12a14.29,14.29,0,0,1-.85,1.34l.58,0c.11-.17.23-.35.35-.55l.35.15C160,88.64,159.66,89.14,159.32,89.56Zm.82,1.27a8.35,8.35,0,0,0,1.58-.66,3.42,3.42,0,0,1-.27-.9l-1,.13,0-.3,1-.13a5.67,5.67,0,0,1-.06-.62l-.88.08-.05-.3.91-.09c0-.29,0-.62,0-1h.39c0,.36,0,.68,0,1l1.61-.15,0,.29-1.64.17a5.92,5.92,0,0,0,.06.62l1.66-.21,0,.3-1.66.21A4,4,0,0,0,162,90a4.18,4.18,0,0,0,.86-.73l.31.2a5.1,5.1,0,0,1-1,.82,1.27,1.27,0,0,0,.44.45c.22.11.35,0,.41-.17a4.61,4.61,0,0,0,.11-.6,3.38,3.38,0,0,0,.37.13,4.4,4.4,0,0,1-.17.68.47.47,0,0,1-.47.35,1,1,0,0,1-.66-.25,1.73,1.73,0,0,1-.35-.4,8.05,8.05,0,0,1-1.48.65A2.68,2.68,0,0,0,160.14,90.83Z"/><polygon class="cls-7" points="163.66 90.56 165.55 90.56 165.55 87.1 165.99 87.1 165.99 88.36 167.97 88.36 167.97 88.7 165.99 88.7 165.99 90.56 168.35 90.56 168.35 90.9 163.66 90.9 163.66 90.56"/><path class="cls-7" d="M169.05,87.31h3.74v.32h-3.74Zm-.47,1.22h4.67v.31h-1.53v1.64c0,.16.1.25.29.25h.42c.23,0,.36-.1.39-.28s.05-.36.07-.6l.42.11a5.31,5.31,0,0,1-.1.6c-.06.31-.3.46-.7.46h-.59q-.6,0-.6-.51V88.84h-1V89a2.2,2.2,0,0,1-.31,1.31,2.75,2.75,0,0,1-1.22.87l-.28-.28a2.76,2.76,0,0,0,1.12-.75,1.86,1.86,0,0,0,.29-1.13v-.16h-1.35Z"/><path class="cls-7" d="M176.52,90.42l.21-.22c.35.15.77.35,1.26.59l-.24.27C177.29,90.8,176.88,90.59,176.52,90.42Zm-1.77-.2.24.23c-.49.26-.91.47-1.28.62,0-.07-.11-.16-.19-.27A10.67,10.67,0,0,0,174.75,90.22Zm2.2-1c.38.27.72.54,1,.8l-.29.23-.29-.26-1.31,0v.53c0,.33-.2.49-.61.49h-.57a2.73,2.73,0,0,0-.06-.34l.56,0c.2,0,.3-.07.3-.22v-.47l-1.1,0c-.21,0-.4,0-.56.06l-.2-.33a4.2,4.2,0,0,0,.65-.15l1-.38-1.06.08-.37,0-.16-.31a1.89,1.89,0,0,0,.44-.13l.59-.28h-1.48v-.26h2.13v-.29H174v-.26h1.67v-.29h-1.94v-.26h1.94V87H176v.36h2v.26h-2v.29h1.63v.26H176v.29h2.15v.26h-2.61c-.32.16-.65.3-1,.44l1.59-.08.75-.33.27.19c-.82.35-1.64.66-2.45.94l2.4-.1c-.13-.12-.27-.23-.42-.35Z"/><path class="cls-7" d="M180.88,88.87l.3-.19a10.37,10.37,0,0,1,.85.95l-.35.22A9.84,9.84,0,0,0,180.88,88.87ZM180,88h-1.08v1H180Zm-1.08,2.37H180v-1h-1.08Zm1.54-1.83a5.75,5.75,0,0,0,.77-1.55l.4.09c-.08.21-.16.4-.25.59h1.56c0,1.43-.07,2.34-.1,2.71s-.29.66-.8.66l-.89,0a1.85,1.85,0,0,0-.08-.37h0a7.1,7.1,0,0,0,.88.06.41.41,0,0,0,.47-.4c0-.42.06-1.19.08-2.32h-1.29a6,6,0,0,1-.44.72A1.27,1.27,0,0,0,180.46,88.58Zm-1.93-.86H179c.12-.25.21-.48.29-.69l.41.1c-.1.21-.2.41-.3.59h1v3.34H180v-.33h-1.08v.36h-.39Z"/><path class="cls-7" d="M183.28,89.51c.36-.05.74-.11,1.15-.19v-.39h-1v-.27h1v-.3h.35v1.48h-.35v-.22l-1.06.21Zm3.21-1.15h.35v.38a6.19,6.19,0,0,0,.92-.29l.13.28a7.87,7.87,0,0,1-1,.29v.29c0,.15.08.22.23.22h.21c.19,0,.3,0,.32-.16a1.48,1.48,0,0,0,.06-.35,2,2,0,0,0,.35.11q0,.21-.09.36a.51.51,0,0,1-.56.34H187c-.32,0-.48-.17-.48-.5Zm1.56,2.26a3.57,3.57,0,0,0-.28.35,3.22,3.22,0,0,1-2-1.42v1.61h-.36V89.61a3.69,3.69,0,0,1-2,1.39l-.26-.31a3.57,3.57,0,0,0,2.22-1.58v-.93h-2.14V87.9h2.14v-.39l-1.81,0a1.57,1.57,0,0,0-.06-.28q2.41,0,4-.12l.05.29-1.84.06v.4H188v.28h-2.18v.87A3.11,3.11,0,0,0,188.05,90.62Z"/><path class="cls-7" d="M191.76,90l.29-.18c.3.29.61.62.93,1l-.34.22C192.36,90.7,192.06,90.36,191.76,90Zm-1-.2.32.19c-.37.41-.72.76-1.06,1.07a3.53,3.53,0,0,0-.27-.23A8.83,8.83,0,0,0,190.75,89.84Zm1.57-2.17h-1.71v1.41h1.71ZM188.14,90a5.29,5.29,0,0,0,.74-1.4h-.72v-.29h.77v-.67l-.67,0a1.67,1.67,0,0,0-.08-.3c.66,0,1.23-.08,1.72-.14l.09.32-.7,0v.7H190v.29h-.72v.59l.19-.16c.2.17.41.36.63.58l-.28.21a6.88,6.88,0,0,0-.54-.54v1.86h-.36V89.3a4.31,4.31,0,0,1-.62,1.08Zm2.1-2.63h2.44v2.18h-.36v-.2h-1.71v.2h-.37Z"/><line class="cls-11" x1="11.75" y1="104.6" x2="18.05" y2="104.6"/><line class="cls-11" x1="11.75" y1="106.49" x2="18.05" y2="106.49"/><line class="cls-11" x1="25.66" y1="105.55" x2="29.56" y2="105.55"/><path class="cls-7" d="M32.66,107.56a.32.32,0,0,0,0,.14.11.11,0,0,0,.07.12.76.76,0,0,0,.35.06h.5c.06,0,.09,0,.1.06s0,0,0,0l0,.07a.15.15,0,0,1-.14.1l-1.31,0-1.31,0c-.06,0-.08,0-.08-.07V108a.14.14,0,0,1,.14-.11h.51a.91.91,0,0,0,.38-.06.31.31,0,0,0,.18-.26l1.15-4.48a2.35,2.35,0,0,1-.54.29,1.73,1.73,0,0,1-.6.11.06.06,0,0,1-.06,0,.08.08,0,0,1,0,0,.06.06,0,0,1,0,0l0-.08a.13.13,0,0,1,.13-.1,1.64,1.64,0,0,0,1-.33,3.57,3.57,0,0,0,.8-.8A.17.17,0,0,1,34,102h0a.08.08,0,0,1,.07,0,.08.08,0,0,1,0,0,0,0,0,0,1,0,0Z"/><path class="cls-7" d="M24.68,109.8a5,5,0,0,1,0-8.51h.46a5.27,5.27,0,0,0,0,8.51"/><path class="cls-7" d="M35.29,101.29a5,5,0,0,1,0,8.51h-.46a5.27,5.27,0,0,0,0-8.51"/><line class="cls-12" x1="40.13" y1="99.98" x2="60.1" y2="99.98"/><path class="cls-7" d="M43.65,97.48a1.53,1.53,0,0,1-.11.27.87.87,0,0,1-.16.26.91.91,0,0,1-.21.18.57.57,0,0,1-.28.08.52.52,0,0,1-.23,0,.34.34,0,0,1-.15-.14.38.38,0,0,1,0-.19v0a.52.52,0,0,1,0-.21,3.93,3.93,0,0,0,.18-.43,3.66,3.66,0,0,0,.15-.43,1.57,1.57,0,0,0,.06-.28v-.09a.41.41,0,0,0,0-.16.23.23,0,0,0-.24-.17.78.78,0,0,0-.52.18,1.69,1.69,0,0,0-.37.48l-.39,1.34a.22.22,0,0,1-.1.13.33.33,0,0,1-.14,0,.16.16,0,0,1-.11,0,.08.08,0,0,1,0-.07.43.43,0,0,0,0-.05l.44-1.52a1,1,0,0,0,0-.28v-.06a.14.14,0,0,0-.16-.14c-.1,0-.17.06-.23.19a2.49,2.49,0,0,0-.17.47.08.08,0,0,1-.08,0h-.06s0,0,0,0v0c0-.07.05-.15.07-.24a2,2,0,0,1,.11-.26.7.7,0,0,1,.18-.2.39.39,0,0,1,.25-.08.5.5,0,0,1,.35.12.41.41,0,0,1,.13.29,1.52,1.52,0,0,1,.37-.3,1.06,1.06,0,0,1,.48-.11.94.94,0,0,1,.3,0,.51.51,0,0,1,.21.17.43.43,0,0,1,.08.27v0a1.18,1.18,0,0,1,0,.31,3.81,3.81,0,0,1-.15.44c0,.14-.11.29-.17.44a.82.82,0,0,0-.09.34c0,.09,0,.13.13.13a.41.41,0,0,0,.19-.05.54.54,0,0,0,.15-.15.72.72,0,0,0,.12-.21,1.14,1.14,0,0,0,.09-.26.07.07,0,0,1,.07,0h.07s0,0,0,0Z"/><path class="cls-7" d="M49.38,97.48c0,.09-.07.18-.11.27a.87.87,0,0,1-.16.26,1,1,0,0,1-.22.18.51.51,0,0,1-.28.08.59.59,0,0,1-.23,0,.38.38,0,0,1-.14-.14.53.53,0,0,1-.06-.19v0a.54.54,0,0,1,0-.21l.18-.43.15-.43c0-.1,0-.19,0-.28a.28.28,0,0,0,0-.09.78.78,0,0,0,0-.16.23.23,0,0,0-.25-.17.76.76,0,0,0-.51.18,1.72,1.72,0,0,0-.38.48l-.39,1.34a.18.18,0,0,1-.09.13.37.37,0,0,1-.14,0,.14.14,0,0,1-.11,0,.08.08,0,0,1,0-.07.11.11,0,0,1,0-.05l.43-1.52a1.11,1.11,0,0,0,0-.28v-.06A.14.14,0,0,0,47,96.1c-.1,0-.18.06-.24.19a3.61,3.61,0,0,0-.16.47.09.09,0,0,1-.08,0h-.06s0,0,0,0v0c0-.07,0-.15.07-.24a2,2,0,0,1,.11-.26.85.85,0,0,1,.17-.2.45.45,0,0,1,.26-.08.47.47,0,0,1,.34.12.39.39,0,0,1,.14.29,1.52,1.52,0,0,1,.37-.3,1.06,1.06,0,0,1,.48-.11.94.94,0,0,1,.3,0,.51.51,0,0,1,.21.17.5.5,0,0,1,.08.27v0a1.18,1.18,0,0,1,0,.31,3.81,3.81,0,0,1-.15.44c-.06.14-.11.29-.18.44a.79.79,0,0,0-.08.34c0,.09,0,.13.13.13a.41.41,0,0,0,.19-.05A.54.54,0,0,0,49,98a.72.72,0,0,0,.12-.21l.09-.26a.05.05,0,0,1,.06,0h.07s.05,0,.05,0Z"/><line class="cls-12" x1="50.77" y1="96.72" x2="54.3" y2="96.72"/><path class="cls-7" d="M56.86,97.85a.31.31,0,0,0,0,.08.07.07,0,0,0,0,.07.78.78,0,0,0,.22,0h.32s.06,0,.06,0v.07a.09.09,0,0,1-.09,0H55.71s-.05,0-.05,0V98.1a.08.08,0,0,1,.09-.06h.32a1,1,0,0,0,.24,0q.09,0,.12-.15l.74-2.56a1.62,1.62,0,0,1-.35.17,1.21,1.21,0,0,1-.38.06h0l0,0s0,0,0,0v0a.08.08,0,0,1,.09,0,1.18,1.18,0,0,0,.61-.19,2,2,0,0,0,.51-.46l.07,0h0l0,0v0s0,0,0,0Z"/><path class="cls-7" d="M45.83,99.1a2.8,2.8,0,0,1,0-4.76h.26a3,3,0,0,0,0,4.76"/><path class="cls-7" d="M58.33,94.34a2.79,2.79,0,0,1,0,4.76h-.26a2.94,2.94,0,0,0,0-4.76"/><path class="cls-7" d="M51.62,102.26a1,1,0,0,1-.22.37A2.47,2.47,0,0,1,51,103a5.11,5.11,0,0,1-.46.28l-.47.23a2.55,2.55,0,0,0-.5.33,1.86,1.86,0,0,0-.37.42.32.32,0,0,1,.14,0,1.55,1.55,0,0,1,.31,0l.29.05.29,0a1.55,1.55,0,0,0,.31,0,.59.59,0,0,0,.22,0,.77.77,0,0,0,.21-.14.82.82,0,0,0,.17-.2.67.67,0,0,0,.1-.23.08.08,0,0,1,.08,0h.11v0a1.7,1.7,0,0,1-.14.35,2.2,2.2,0,0,1-.21.32,1.33,1.33,0,0,1-.3.23.78.78,0,0,1-.35.08.83.83,0,0,1-.32-.06l-.26-.14-.25-.14a.65.65,0,0,0-.29-.06.24.24,0,0,0-.19.1.64.64,0,0,0-.13.26s0,0-.08,0h-.1s0,0,0,0h0a1.9,1.9,0,0,1,.43-.75,2.44,2.44,0,0,1,.76-.58,3,3,0,0,0,.72-.46,1.4,1.4,0,0,0,.42-.61,2.12,2.12,0,0,0,.08-.41v-.08a.71.71,0,0,0,0-.29.5.5,0,0,0-.19-.22.56.56,0,0,0-.3-.08.86.86,0,0,0-.39.09,1.31,1.31,0,0,0-.33.25,1.83,1.83,0,0,0-.26.36,1.9,1.9,0,0,0-.18.42.88.88,0,0,0,0,.21.17.17,0,0,0,0,.07.12.12,0,0,0,.13.11.41.41,0,0,0,.19,0,.7.7,0,0,0,.16-.14,1.56,1.56,0,0,0,.13-.19,1.33,1.33,0,0,0,.1-.24.22.22,0,0,0,0-.08.15.15,0,0,0,0-.07.35.35,0,0,0-.06-.14v0a.05.05,0,0,1,0-.05h0l0,0,0,0a.35.35,0,0,1,.09.23.32.32,0,0,1,0,.14,1.19,1.19,0,0,1-.11.26,1,1,0,0,1-.15.24.62.62,0,0,1-.22.17.58.58,0,0,1-.26.06.32.32,0,0,1-.18,0,.27.27,0,0,1-.09-.12.32.32,0,0,1,0-.14s0,0,0,0a.55.55,0,0,1,0-.18,2.22,2.22,0,0,1,.2-.45,1.68,1.68,0,0,1,.3-.4,1.61,1.61,0,0,1,.41-.29,1.13,1.13,0,0,1,.48-.11,1.06,1.06,0,0,1,.45.1.82.82,0,0,1,.32.26.83.83,0,0,1,.16.39.62.62,0,0,1,0,.13A1.26,1.26,0,0,1,51.62,102.26Z"/><path class="cls-7" d="M64.5,105.3a1.16,1.16,0,0,1,0-.18.59.59,0,0,0,0-.17,1,1,0,0,0-.22-.36.48.48,0,0,0-.36-.15.63.63,0,0,0-.4.14,1.75,1.75,0,0,0-.36.36,3,3,0,0,0-.33.64c-.07.22-.14.45-.2.69s-.11.47-.15.69a1.87,1.87,0,0,0,0,.32,1.65,1.65,0,0,0,0,.32.85.85,0,0,0,.16.36.4.4,0,0,0,.33.15.78.78,0,0,0,.44-.15,2.37,2.37,0,0,0,.41-.37l.13-.17a.94.94,0,0,0,.12-.18Zm1.2,1.61q-.06.21-.12.45a1.51,1.51,0,0,1-.18.45,1.22,1.22,0,0,1-.27.36.61.61,0,0,1-.4.14.73.73,0,0,1-.52-.18.76.76,0,0,1-.24-.46,2.78,2.78,0,0,1-.51.45,1.13,1.13,0,0,1-.63.19,1,1,0,0,1-.57-.17,1.29,1.29,0,0,1-.36-.44,1.55,1.55,0,0,1-.17-.68V107a2.35,2.35,0,0,1,.1-.69,3.55,3.55,0,0,1,.29-.74,2.8,2.8,0,0,1,.51-.69,2.29,2.29,0,0,1,.59-.43,1.37,1.37,0,0,1,.66-.18.7.7,0,0,1,.47.15,1,1,0,0,1,.28.37l0,0a.3.3,0,0,1,.13-.22.37.37,0,0,1,.21-.08.3.3,0,0,1,.21.07.33.33,0,0,1,0,.15s0,0,0,.08l-.65,2.54c0,.12,0,.23-.07.34s0,.1,0,.15,0,.08,0,.13a.38.38,0,0,0,.08.18.21.21,0,0,0,.17.07A.29.29,0,0,0,65,108a.67.67,0,0,0,.16-.25,2.77,2.77,0,0,0,.14-.38,4.71,4.71,0,0,0,.13-.48.11.11,0,0,1,.11-.08h.11c.05,0,.07,0,.07.06Z"/><path class="cls-7" d="M67.07,109.13a.24.24,0,0,0,0,.08s0,.06,0,.07a.54.54,0,0,0,.22,0h.32s.06,0,.06,0a0,0,0,0,1,0,0v0a.1.1,0,0,1-.09.06H65.91s0,0,0,0v-.06a.1.1,0,0,1,.09-.06h.33a.7.7,0,0,0,.24,0c.06,0,.09-.07.12-.15l.73-2.56a1.42,1.42,0,0,1-.35.17,1.21,1.21,0,0,1-.38.06.05.05,0,0,1,0,0s0,0,0,0,0,0,0,0v0a.08.08,0,0,1,.09-.06,1.16,1.16,0,0,0,.61-.18,2.47,2.47,0,0,0,.51-.46.08.08,0,0,1,.07,0h0l0,0v0a0,0,0,0,0,0,0Z"/><path class="cls-7" d="M69.47,109.48a1.57,1.57,0,0,1-.27.53,1.84,1.84,0,0,1-.48.44h-.08s0,0,0,0,0,0,0,0a1.73,1.73,0,0,0,.44-.41,1.61,1.61,0,0,0,.26-.48v-.08a.24.24,0,0,1-.11.06.4.4,0,0,1-.15,0,.2.2,0,0,1-.2-.09.15.15,0,0,1,0-.11s0-.05,0-.07A.46.46,0,0,1,69,109a.42.42,0,0,1,.26-.08.25.25,0,0,1,.16,0,.35.35,0,0,1,.08.13s0,.07,0,.11v.05A1.06,1.06,0,0,1,69.47,109.48Z"/><path class="cls-7" d="M74,108.76c0,.09-.07.18-.11.27a.82.82,0,0,1-.16.25.79.79,0,0,1-.22.19.5.5,0,0,1-.27.07.41.41,0,0,1-.23-.05.32.32,0,0,1-.15-.13.59.59,0,0,1-.06-.2v0a.53.53,0,0,1,0-.2l.18-.43a4.43,4.43,0,0,0,.15-.43c0-.1,0-.2.06-.29v-.08a.78.78,0,0,0,0-.16.24.24,0,0,0-.25-.18.76.76,0,0,0-.51.18,1.71,1.71,0,0,0-.37.49l-.4,1.34a.16.16,0,0,1-.09.12.23.23,0,0,1-.14,0,.14.14,0,0,1-.11,0,.09.09,0,0,1,0-.07.11.11,0,0,1,0-.05l.43-1.52a.83.83,0,0,0,0-.28v-.07a.14.14,0,0,0-.16-.14.26.26,0,0,0-.23.19,2.92,2.92,0,0,0-.17.48.09.09,0,0,1-.08,0h-.06s0,0,0,0h0c0-.08,0-.16.07-.25a1.89,1.89,0,0,1,.11-.25.85.85,0,0,1,.17-.2.38.38,0,0,1,.26-.08.51.51,0,0,1,.34.11.43.43,0,0,1,.14.3,1.17,1.17,0,0,1,.37-.3,1.06,1.06,0,0,1,.48-.11.94.94,0,0,1,.3,0,.44.44,0,0,1,.21.17.5.5,0,0,1,.08.27h0a1.19,1.19,0,0,1,0,.32,3.66,3.66,0,0,1-.15.43,4.07,4.07,0,0,1-.18.44,1.08,1.08,0,0,0-.08.34c0,.09,0,.14.13.14a.33.33,0,0,0,.19-.06.4.4,0,0,0,.15-.14.72.72,0,0,0,.12-.21,2,2,0,0,0,.09-.26s0,0,.07,0H74s0,0,0,0Z"/><path class="cls-7" d="M78.36,105.55a.55.55,0,1,1-.55-.56A.55.55,0,0,1,78.36,105.55Z"/><path class="cls-7" d="M84.19,105.3l0-.18a1.36,1.36,0,0,0,0-.17,1.09,1.09,0,0,0-.22-.36.5.5,0,0,0-.37-.15.65.65,0,0,0-.4.14,1.72,1.72,0,0,0-.35.36,2.3,2.3,0,0,0-.33.64,7,7,0,0,0-.2.69q-.09.36-.15.69a1.22,1.22,0,0,0,0,.32,1.12,1.12,0,0,0,0,.32.85.85,0,0,0,.16.36.37.37,0,0,0,.33.15A.8.8,0,0,0,83,108a2.31,2.31,0,0,0,.4-.37l.14-.17.12-.18Zm1.21,1.61q-.06.21-.12.45a2.34,2.34,0,0,1-.18.45,1.41,1.41,0,0,1-.27.36.64.64,0,0,1-.41.14.75.75,0,0,1-.52-.18.76.76,0,0,1-.24-.46,2.49,2.49,0,0,1-.51.45,1.08,1.08,0,0,1-.62.19.94.94,0,0,1-.57-.17,1.21,1.21,0,0,1-.37-.44,1.55,1.55,0,0,1-.16-.68V107a2.72,2.72,0,0,1,.09-.69,3.59,3.59,0,0,1,.3-.74,2.8,2.8,0,0,1,.51-.69,2.29,2.29,0,0,1,.59-.43,1.37,1.37,0,0,1,.66-.18.72.72,0,0,1,.47.15,1.13,1.13,0,0,1,.28.37v0a.31.31,0,0,1,.14-.22.37.37,0,0,1,.21-.08.27.27,0,0,1,.2.07.25.25,0,0,1,0,.15.25.25,0,0,1,0,.08l-.65,2.54a2.21,2.21,0,0,0-.06.34.76.76,0,0,0,0,.15.62.62,0,0,0,0,.13.3.3,0,0,0,.08.18.21.21,0,0,0,.17.07.28.28,0,0,0,.2-.09.69.69,0,0,0,.17-.25c0-.11.09-.24.14-.38s.09-.3.13-.48a.1.1,0,0,1,.11-.08h.1c.05,0,.08,0,.08.06Z"/><path class="cls-7" d="M88.39,107.15a.92.92,0,0,1-.22.38,2.47,2.47,0,0,1-.38.32,5.06,5.06,0,0,1-.46.27l-.47.24a2.52,2.52,0,0,0-.5.32,2.42,2.42,0,0,0-.37.42l.14,0,.31,0,.29.06.29,0a1.53,1.53,0,0,0,.3,0,.46.46,0,0,0,.23-.06.57.57,0,0,0,.21-.13,1.06,1.06,0,0,0,.17-.2,1,1,0,0,0,.1-.24.08.08,0,0,1,.08,0h.11v0h0a2.67,2.67,0,0,1-.14.36,1.34,1.34,0,0,1-.22.31.92.92,0,0,1-.29.23.7.7,0,0,1-.35.09.66.66,0,0,1-.32-.07,2.1,2.1,0,0,1-.26-.13,2,2,0,0,0-.25-.14.65.65,0,0,0-.29-.07.28.28,0,0,0-.19.1.71.71,0,0,0-.13.26.08.08,0,0,1-.08,0h-.06l0,0h0v0a2,2,0,0,1,.43-.75,2.45,2.45,0,0,1,.76-.57,3,3,0,0,0,.72-.47,1.21,1.21,0,0,0,.41-.61,1.51,1.51,0,0,0,.09-.41v-.08a.66.66,0,0,0,0-.28.51.51,0,0,0-.19-.22.49.49,0,0,0-.3-.09.87.87,0,0,0-.39.1,1.31,1.31,0,0,0-.33.25,1.41,1.41,0,0,0-.27.36,2.47,2.47,0,0,0-.17.42.88.88,0,0,0,0,.2.15.15,0,0,0,0,.07q0,.12.12.12a.36.36,0,0,0,.2-.06.61.61,0,0,0,.16-.13,1.56,1.56,0,0,0,.13-.19L87,107s0-.06,0-.09a.13.13,0,0,0,0-.06.35.35,0,0,0-.06-.14,0,0,0,0,1,0,0,.05.05,0,0,1,0,0h0l.05,0s0,0,0,0a.32.32,0,0,1,.09.23.34.34,0,0,1,0,.14,1.45,1.45,0,0,1-.11.26.94.94,0,0,1-.16.23.72.72,0,0,1-.21.18.58.58,0,0,1-.26.06.3.3,0,0,1-.18,0,.27.27,0,0,1-.09-.12.4.4,0,0,1,0-.15v0a.55.55,0,0,1,0-.17,2,2,0,0,1,.2-.45,1.73,1.73,0,0,1,.3-.41,1.65,1.65,0,0,1,.41-.28,1.13,1.13,0,0,1,.48-.11.93.93,0,0,1,.45.1.89.89,0,0,1,.32.25.94.94,0,0,1,.16.4.62.62,0,0,1,0,.13A1.13,1.13,0,0,1,88.39,107.15Z"/><path class="cls-7" d="M89.37,109.48a1.6,1.6,0,0,1-.28.53,1.65,1.65,0,0,1-.47.44h-.09s0,0,0,0,0,0,0,0A1.73,1.73,0,0,0,89,110a1.38,1.38,0,0,0,.25-.48l0-.08a.24.24,0,0,1-.11.06.4.4,0,0,1-.15,0,.2.2,0,0,1-.2-.09.15.15,0,0,1,0-.11s0-.05,0-.07a.38.38,0,0,1,.13-.19.42.42,0,0,1,.26-.08.25.25,0,0,1,.16,0,.24.24,0,0,1,.07.13.36.36,0,0,1,0,.11v.05A1.06,1.06,0,0,1,89.37,109.48Z"/><path class="cls-7" d="M93.92,108.76a1.48,1.48,0,0,1-.1.27,1.07,1.07,0,0,1-.16.25,1,1,0,0,1-.22.19.51.51,0,0,1-.28.07.43.43,0,0,1-.23-.05.35.35,0,0,1-.14-.13.59.59,0,0,1-.06-.2v0a.53.53,0,0,1,0-.2l.18-.43.15-.43c0-.1,0-.2,0-.29a.19.19,0,0,0,0-.08.78.78,0,0,0,0-.16.24.24,0,0,0-.25-.18.76.76,0,0,0-.51.18A1.93,1.93,0,0,0,92,108l-.39,1.34a.19.19,0,0,1-.09.12.25.25,0,0,1-.14,0,.12.12,0,0,1-.11,0,.09.09,0,0,1,0-.07v-.05l.44-1.52a1.19,1.19,0,0,0,0-.28v-.07a.15.15,0,0,0-.16-.14c-.1,0-.18.07-.24.19a3,3,0,0,0-.16.48.1.1,0,0,1-.08,0H91a0,0,0,0,1,0,0h0c0-.08.05-.16.08-.25a1.12,1.12,0,0,1,.11-.25.67.67,0,0,1,.17-.2.36.36,0,0,1,.25-.08.52.52,0,0,1,.35.11.47.47,0,0,1,.14.3,1.07,1.07,0,0,1,.37-.3,1,1,0,0,1,.48-.11.93.93,0,0,1,.29,0,.43.43,0,0,1,.22.17.5.5,0,0,1,.08.27h0a1.77,1.77,0,0,1,0,.32l-.15.43-.18.44a.9.9,0,0,0-.09.34.13.13,0,0,0,.14.14.33.33,0,0,0,.19-.06.64.64,0,0,0,.15-.14,1.17,1.17,0,0,0,.2-.47.08.08,0,0,1,.07,0h.07s0,0,0,0Z"/><line class="cls-12" x1="95.4" y1="108" x2="98.92" y2="108"/><path class="cls-7" d="M101.48,109.13a.24.24,0,0,0,0,.08.07.07,0,0,0,.05.07.57.57,0,0,0,.22,0h.32s.06,0,.06,0a0,0,0,0,1,0,0v0a.1.1,0,0,1-.09.06h-1.67s0,0,0,0v-.06a.08.08,0,0,1,.09-.06h.32a.7.7,0,0,0,.24,0,.19.19,0,0,0,.12-.15l.74-2.56a1.62,1.62,0,0,1-.35.17,1.21,1.21,0,0,1-.38.06s0,0,0,0,0,0,0,0v-.07a.1.1,0,0,1,.09-.06,1.16,1.16,0,0,0,.61-.18,2.24,2.24,0,0,0,.51-.46.08.08,0,0,1,.07,0h0l0,0v0a0,0,0,0,0,0,0Z"/><path class="cls-7" d="M106.84,105.55a.56.56,0,1,1-.55-.56A.55.55,0,0,1,106.84,105.55Z"/><path class="cls-7" d="M112.67,105.3l0-.18a1.54,1.54,0,0,0,0-.17,1.07,1.07,0,0,0-.21-.36.5.5,0,0,0-.37-.15.63.63,0,0,0-.4.14,1.5,1.5,0,0,0-.35.36,2.64,2.64,0,0,0-.34.64c-.07.22-.14.45-.2.69s-.11.47-.15.69a1.82,1.82,0,0,0,0,.32,1.66,1.66,0,0,0,0,.32,1,1,0,0,0,.16.36.4.4,0,0,0,.33.15.75.75,0,0,0,.44-.15,2.05,2.05,0,0,0,.41-.37c0-.06.09-.12.14-.17l.12-.18Zm1.2,1.61q0,.21-.12.45a1.83,1.83,0,0,1-.17.45,1.45,1.45,0,0,1-.28.36.61.61,0,0,1-.4.14.73.73,0,0,1-.52-.18.76.76,0,0,1-.24-.46,2.49,2.49,0,0,1-.51.45,1.1,1.1,0,0,1-.62.19,1,1,0,0,1-.58-.17,1.29,1.29,0,0,1-.36-.44,1.71,1.71,0,0,1-.17-.68V107a2.74,2.74,0,0,1,.1-.69,3.59,3.59,0,0,1,.3-.74,2.53,2.53,0,0,1,.5-.69,2.48,2.48,0,0,1,.59-.43,1.38,1.38,0,0,1,.67-.18.69.69,0,0,1,.46.15.91.91,0,0,1,.28.37l0,0a.33.33,0,0,1,.13-.22.37.37,0,0,1,.22-.08.27.27,0,0,1,.2.07.25.25,0,0,1,0,.15.25.25,0,0,1,0,.08l-.65,2.54a2.21,2.21,0,0,0-.06.34.76.76,0,0,0,0,.15.62.62,0,0,0,0,.13.3.3,0,0,0,.08.18.19.19,0,0,0,.17.07.28.28,0,0,0,.2-.09.84.84,0,0,0,.17-.25c0-.11.09-.24.13-.38s.09-.3.14-.48a.1.1,0,0,1,.11-.08h.1s.07,0,.07.06Z"/><path class="cls-7" d="M117.14,108.76c0,.09-.07.18-.11.27a.82.82,0,0,1-.16.25.79.79,0,0,1-.22.19.51.51,0,0,1-.28.07.46.46,0,0,1-.23-.05.35.35,0,0,1-.14-.13.59.59,0,0,1-.06-.2v0a.53.53,0,0,1,0-.2l.18-.43.15-.43c0-.1,0-.2.05-.29a.19.19,0,0,0,0-.08.78.78,0,0,0,0-.16.24.24,0,0,0-.25-.18.76.76,0,0,0-.51.18,1.93,1.93,0,0,0-.38.49l-.39,1.34a.16.16,0,0,1-.09.12.25.25,0,0,1-.14,0,.14.14,0,0,1-.11,0,.09.09,0,0,1,0-.07.11.11,0,0,1,0-.05l.43-1.52a1.19,1.19,0,0,0,0-.28v-.07a.15.15,0,0,0-.16-.14c-.1,0-.18.07-.24.19a4.47,4.47,0,0,0-.16.48.09.09,0,0,1-.08,0h-.06s0,0,0,0h0c0-.08,0-.16.07-.25a1.89,1.89,0,0,1,.11-.25.85.85,0,0,1,.17-.2.38.38,0,0,1,.26-.08.51.51,0,0,1,.34.11.43.43,0,0,1,.14.3,1.17,1.17,0,0,1,.37-.3,1.06,1.06,0,0,1,.48-.11.94.94,0,0,1,.3,0,.44.44,0,0,1,.21.17.5.5,0,0,1,.08.27h0a1.19,1.19,0,0,1,0,.32,3.66,3.66,0,0,1-.15.43c-.06.15-.11.29-.18.44a.86.86,0,0,0-.08.34c0,.09,0,.14.13.14a.33.33,0,0,0,.19-.06.4.4,0,0,0,.15-.14,1.05,1.05,0,0,0,.12-.21,2,2,0,0,0,.09-.26.05.05,0,0,1,.06,0h.08s0,0,0,0Z"/><path class="cls-7" d="M118.22,109.48a1.81,1.81,0,0,1-.28.53,1.84,1.84,0,0,1-.48.44h-.08s0,0,0,0,0,0,0,0a1.69,1.69,0,0,0,.43-.41,1.41,1.41,0,0,0,.26-.48l0-.08a.27.27,0,0,1-.12.06.33.33,0,0,1-.15,0,.22.22,0,0,1-.2-.09.2.2,0,0,1,0-.11.17.17,0,0,1,0-.07.44.44,0,0,1,.12-.19A.45.45,0,0,1,118,109a.25.25,0,0,1,.16,0,.26.26,0,0,1,.08.13.37.37,0,0,1,0,.11v.05Z"/><path class="cls-7" d="M121.2,109.13a.24.24,0,0,0,0,.08.07.07,0,0,0,0,.07.6.6,0,0,0,.23,0h.32a.05.05,0,0,1,.06,0v.06a.1.1,0,0,1-.09.06h-1.68s0,0,0,0v-.06a.08.08,0,0,1,.09-.06h.32a.81.81,0,0,0,.25,0,.2.2,0,0,0,.11-.15l.74-2.56a1.62,1.62,0,0,1-.35.17,1.21,1.21,0,0,1-.38.06.05.05,0,0,1,0,0s0,0,0,0v-.07a.1.1,0,0,1,.09-.06,1.14,1.14,0,0,0,.61-.18A2,2,0,0,0,122,106a.08.08,0,0,1,.07,0h0l0,0v0Z"/></g></g></g></g></svg>