<svg id="图层_1" data-name="图层 1" xmlns="http://www.w3.org/2000/svg" xmlns:xlink="http://www.w3.org/1999/xlink" viewBox="0 0 295.2 91.2"><defs><style>.cls-1,.cls-10,.cls-7{fill:none;}.cls-2{clip-path:url(#clip-path);}.cls-3{fill:#fff;}.cls-4{clip-path:url(#clip-path-3);}.cls-5{clip-path:url(#clip-path-4);}.cls-6,.cls-8,.cls-9{fill-rule:evenodd;}.cls-10,.cls-7{stroke:#000;stroke-linecap:round;stroke-miterlimit:10;}.cls-7{stroke-width:0.36px;}.cls-8{fill:#f0f;}.cls-9{fill:green;}.cls-10{stroke-width:0.43px;}</style><clipPath id="clip-path"><rect class="cls-1" x="-328.8" y="-224.43" width="960" height="540"/></clipPath><clipPath id="clip-path-3"><rect class="cls-1" x="5.28" y="-5.79" width="291.84" height="102.72"/></clipPath><clipPath id="clip-path-4"><rect class="cls-1" x="5.28" y="-5.79" width="291.84" height="102.72"/></clipPath></defs><g class="cls-2"><g class="cls-2"><rect class="cls-3" x="-328.8" y="-224.43" width="960" height="540"/></g><g class="cls-4"><g class="cls-5"><path class="cls-6" d="M10,46.82a4.5,4.5,0,0,1-.16.48,2,2,0,0,1-.26.45,1.41,1.41,0,0,1-.35.34.84.84,0,0,1-.44.13.72.72,0,0,1-.37-.09.59.59,0,0,1-.23-.24,1,1,0,0,1-.09-.35v0a1,1,0,0,1,.08-.37c.1-.26.19-.52.28-.77s.17-.51.24-.77a4.54,4.54,0,0,0,.09-.51s0-.09,0-.15a1.35,1.35,0,0,0,0-.29.38.38,0,0,0-.39-.3,1.13,1.13,0,0,0-.82.32,3.25,3.25,0,0,0-.6.86l-.62,2.4a.34.34,0,0,1-.15.22.47.47,0,0,1-.22.07.22.22,0,0,1-.18-.08.16.16,0,0,1,0-.12.28.28,0,0,1,0-.09l.69-2.72a2.05,2.05,0,0,0,.08-.5V44.6a.24.24,0,0,0-.26-.25c-.16,0-.28.11-.37.33a5,5,0,0,0-.27.85.17.17,0,0,1-.12.1H5.34s-.06,0-.06-.07v0c0-.13.08-.27.12-.44a1.77,1.77,0,0,1,.18-.45,1.22,1.22,0,0,1,.27-.36.61.61,0,0,1,.4-.14.71.71,0,0,1,.55.21.75.75,0,0,1,.22.52,2.11,2.11,0,0,1,.59-.53,1.5,1.5,0,0,1,.77-.2,1,1,0,0,1,.47.1.66.66,0,0,1,.34.3.86.86,0,0,1,.13.48v0a2.16,2.16,0,0,1-.08.56q-.11.39-.24.78c-.09.26-.18.52-.28.78a1.86,1.86,0,0,0-.14.61c0,.17.07.25.21.25a.6.6,0,0,0,.31-.1,1.2,1.2,0,0,0,.24-.26,2.24,2.24,0,0,0,.19-.38c.05-.14.1-.3.14-.46a.11.11,0,0,1,.1-.08h.12s.06,0,.06,0Z"/><path class="cls-6" d="M17.08,42.37l-.11.24a5.14,5.14,0,0,0,2.4,2.32c-.13.15-.27.32-.42.52a6.32,6.32,0,0,1-2.28-2.31,8,8,0,0,1-2.2,2.42,3.09,3.09,0,0,0-.4-.47,7.09,7.09,0,0,0,2.4-2.72Zm.41,2.92h.58v4.37h-.58Zm-1.65,0v1.19a4.24,4.24,0,0,1-1.26,3.27,4.52,4.52,0,0,0-.51-.39,3.66,3.66,0,0,0,1.18-2.91V45.29Zm-1.55,1.22c.15,1-.09,1.48-.7,1.59a3.09,3.09,0,0,1-.75,0c0-.2-.09-.4-.15-.61a2.06,2.06,0,0,0,.69.06q.53-.06.33-1A3.15,3.15,0,0,0,13,45.27c.19-.61.39-1.3.62-2.06h-1V49.7h-.57v-7h2.21v.53l-.66,2A3,3,0,0,1,14.29,46.51Z"/><path class="cls-6" d="M19.56,44.42a7.79,7.79,0,0,0,2-2.13l.55.32A10.22,10.22,0,0,1,19.86,45C19.77,44.81,19.67,44.62,19.56,44.42Zm3.19-1.56h4v.56h-4Zm-3.23,3.93a9.08,9.08,0,0,0,2.17-2.67l.54.32c-.27.45-.55.86-.84,1.25v4h-.64V46.46a12.11,12.11,0,0,1-1,.94C19.7,47.19,19.61,47,19.52,46.79Zm2.78-1.67h4.88v.56h-1.5V48.6c0,.61-.32.92-1,.92H23.4c0-.2-.07-.43-.11-.68a12.1,12.1,0,0,0,1.21.06c.35,0,.53-.17.53-.5V45.68H22.3Z"/><path class="cls-6" d="M32.79,47.83h-.6V43.26h.6Zm1.1-5.4h.62V48.6c0,.63-.29.95-.89.95-.28,0-.7,0-1.25,0,0-.23-.07-.46-.12-.68.53.05.92.07,1.17.07s.47-.17.47-.5Zm-5.24,3.91.38-.42c.39.31.74.62,1.07.92A6.21,6.21,0,0,0,30.82,45H29.09a10.88,10.88,0,0,1-1.48,2.42c-.12-.25-.22-.45-.31-.6a11.29,11.29,0,0,0,1.79-3.55H27.55V42.7h4.32v.53H29.72c-.12.42-.25.81-.4,1.19h2.13V45a7,7,0,0,1-3.31,4.73,5.32,5.32,0,0,0-.48-.46,7.54,7.54,0,0,0,2.11-1.91C29.48,47.05,29.1,46.72,28.65,46.34Z"/><path class="cls-6" d="M40.64,42.73l.37-.38a13.93,13.93,0,0,1,1.13.88l-.44.44A12,12,0,0,0,40.64,42.73Zm-5.45,5.75c.58-.06,1.18-.14,1.79-.22V46.17h-1.5v-.56H39.1v.56H37.61v2l1.84-.26c0,.19,0,.39,0,.6l-4.08.59Zm0-4.73h4.28c0-.46,0-1,0-1.46h.65c0,.49,0,1,0,1.46h2.65v.56H40.1c.1,2.51.53,4,1.3,4.57.27.22.47.16.58-.18a6.9,6.9,0,0,0,.21-1.15c.24.09.45.15.62.2a10.29,10.29,0,0,1-.31,1.41.71.71,0,0,1-.71.51,1.49,1.49,0,0,1-1-.52Q39.63,48,39.48,44.31H35.16Z"/><path class="cls-6" d="M45.1,48.1a3.27,3.27,0,0,1-.44.95,3.35,3.35,0,0,1-.76.79.1.1,0,0,1-.07,0,.07.07,0,0,1-.06,0h0a.11.11,0,0,1,0,0,.09.09,0,0,1,0-.08,3.22,3.22,0,0,0,.7-.73,3.13,3.13,0,0,0,.41-.87l0-.14a.57.57,0,0,1-.18.12.85.85,0,0,1-.23,0,.34.34,0,0,1-.33-.16.33.33,0,0,1,0-.2.49.49,0,0,1,0-.12.67.67,0,0,1,.21-.33.56.56,0,0,1,.41-.15.37.37,0,0,1,.26.09.46.46,0,0,1,.12.23,1.27,1.27,0,0,1,0,.2v.09A2.88,2.88,0,0,1,45.1,48.1Z"/><path class="cls-6" d="M52.64,47.09l1.36.65a3.54,3.54,0,0,0,.92-1.64H53.14C53,46.42,52.82,46.75,52.64,47.09Zm-1-3.65h2.16a10,10,0,0,0-.49-.88l.56-.27c.25.39.43.7.54.92l-.46.23h2.39v1.27h-.62V44H52.29v.74h-.61ZM49,46.33c.34-.1.69-.22,1-.34V44.32h-.94v-.53H50V42.4h.58v1.39h.85v.53h-.85v1.47l.7-.25a5.54,5.54,0,0,0,.06.6l-.76.27v2.36a.71.71,0,0,1-.8.81c-.16,0-.39,0-.68,0A4.22,4.22,0,0,0,49,49a5.71,5.71,0,0,0,.68,0c.21,0,.32-.12.32-.36v-2L49,47ZM51,49.11a7.42,7.42,0,0,0,2.54-1c-.52-.27-1.09-.55-1.7-.83.22-.38.43-.78.64-1.21h-1v-.54h1.19c.19-.41.36-.84.53-1.29l.65.22c-.16.35-.33.7-.51,1.07h3.16v.54h-1a4.28,4.28,0,0,1-1,1.92c.69.36,1.34.72,2,1.08l-.38.57a19,19,0,0,0-2-1.23,8,8,0,0,1-2.8,1.23A2,2,0,0,0,51,49.11Z"/><path class="cls-6" d="M62.23,47.83h-.59V43.26h.59Zm1.11-5.4H64V48.6c0,.63-.3.95-.89.95-.28,0-.7,0-1.25,0,0-.23-.07-.46-.12-.68.52.05.91.07,1.17.07s.47-.17.47-.5ZM58.1,46.34l.38-.42c.39.31.74.62,1.06.92A6,6,0,0,0,60.27,45H58.54a10.56,10.56,0,0,1-1.49,2.42,5.53,5.53,0,0,0-.3-.6,11.29,11.29,0,0,0,1.79-3.55H57V42.7h4.32v.53H59.17c-.12.42-.25.81-.4,1.19H60.9V45a7,7,0,0,1-3.31,4.73,5.32,5.32,0,0,0-.48-.46,7.54,7.54,0,0,0,2.11-1.91C58.92,47.05,58.55,46.72,58.1,46.34Z"/><path class="cls-6" d="M68.13,46.53h1.59v-.82H68.13Zm3-3.37H66v.72h5.11ZM66.3,45.21h1.26v-.65h.57v.65h1.59v-.65h.57v.65h1.44v.5H70.29v.82h1.8V47H68.85a3.69,3.69,0,0,0,.85.95c.4-.18.92-.45,1.56-.78l.33.54-1.4.57a5.42,5.42,0,0,0,2.06.63l-.43.57A4.87,4.87,0,0,1,68.25,47h-.82V48.9L69,48.43A5.8,5.8,0,0,0,69,49c-.47.13-.93.28-1.39.44a5.36,5.36,0,0,0-.56.24l-.34-.45c.13-.08.19-.25.19-.52V47H66a4.85,4.85,0,0,1-.89,2.67c-.13-.17-.28-.35-.44-.53a5.34,5.34,0,0,0,.8-3.28V42.67H71.7v2h-.58v-.25H66v1c0,.42,0,.81,0,1.16h1.58v-.82H66.3Z"/><path class="cls-6" d="M75.12,45.62h2.4V43.45h-2.4Zm-2.64,0h2V43.45H72.82v-.59h6.9v.59H78.15v2.17h1.9v.59h-1.9v3.41h-.63V46.21H75.11a4.38,4.38,0,0,1-.4,2A4.2,4.2,0,0,1,73,49.72c-.14-.18-.28-.36-.44-.53A3.74,3.74,0,0,0,74.11,48a3.38,3.38,0,0,0,.37-1.77h-2Z"/><line class="cls-7" x1="82.87" y1="44.51" x2="89.17" y2="44.51"/><line class="cls-7" x1="82.87" y1="46.4" x2="89.17" y2="46.4"/><path class="cls-8" d="M94.71,56.17a1.3,1.3,0,0,1-.1.27,1.28,1.28,0,0,1-.15.25.76.76,0,0,1-.22.18A.51.51,0,0,1,94,57a.56.56,0,0,1-.23-.05.38.38,0,0,1-.14-.14.31.31,0,0,1-.06-.19h0a.63.63,0,0,1,0-.22L94,55.26a.9.9,0,0,0,.09-.34.13.13,0,0,0-.14-.14.35.35,0,0,0-.18,0,.54.54,0,0,0-.15.15.72.72,0,0,0-.12.21,1.06,1.06,0,0,0-.09.25s0,.05-.08.06h-.06a0,0,0,0,1,0,0v0c0-.08.06-.17.1-.26a1.64,1.64,0,0,1,.16-.26,1.24,1.24,0,0,1,.22-.18.51.51,0,0,1,.28-.08.48.48,0,0,1,.22.05.41.41,0,0,1,.15.14.41.41,0,0,1,0,.19v0a.52.52,0,0,1,0,.21L94,56.36a.82.82,0,0,0-.09.33h0c0,.09,0,.13.13.13a.3.3,0,0,0,.19,0,.54.54,0,0,0,.15-.15.72.72,0,0,0,.12-.21l.09-.25a.07.07,0,0,1,.07-.05h.1v0Zm0-2.39a.27.27,0,0,1-.11.15.37.37,0,0,1-.18,0,.18.18,0,0,1-.15-.06.12.12,0,0,1,0-.08.13.13,0,0,1,0-.06.25.25,0,0,1,.11-.14.32.32,0,0,1,.18-.06.21.21,0,0,1,.16.06.11.11,0,0,1,0,.08A.13.13,0,0,1,94.68,53.78Z"/><path class="cls-8" d="M95.38,57.55s0,0,0,.05,0,0,0,0l.13,0h.19s0,0,0,0h0v0a.05.05,0,0,1,0,0h-1s0,0,0,0h0v0a.07.07,0,0,1,0,0h.2l.14,0s.06,0,.07-.09L95.57,56l-.21.1a.83.83,0,0,1-.22,0h0v0h0v0s0,0,0,0a.65.65,0,0,0,.36-.12,1,1,0,0,0,.3-.27l0,0h0s0,0,0,0h0Z"/><path class="cls-8" d="M98.37,56.17a1.3,1.3,0,0,1-.1.27,1.28,1.28,0,0,1-.15.25.76.76,0,0,1-.22.18.51.51,0,0,1-.28.08.56.56,0,0,1-.23-.05.5.5,0,0,1-.15-.14.38.38,0,0,1,0-.19h0a.47.47,0,0,1,0-.22l.46-1.08a.9.9,0,0,0,.09-.34.13.13,0,0,0-.14-.14.41.41,0,0,0-.19,0,.67.67,0,0,0-.14.15.72.72,0,0,0-.12.21,1.06,1.06,0,0,0-.09.25.1.1,0,0,1-.08.06H97a0,0,0,0,1,0,0v0a1.72,1.72,0,0,1,.1-.26,1.64,1.64,0,0,1,.16-.26,1,1,0,0,1,.22-.18.51.51,0,0,1,.28-.08.48.48,0,0,1,.22.05.38.38,0,0,1,.14.14.33.33,0,0,1,.06.19v0a.54.54,0,0,1,0,.21l-.46,1.09a1,1,0,0,0-.08.33h0c0,.09,0,.13.13.13a.3.3,0,0,0,.19,0,.54.54,0,0,0,.15-.15.72.72,0,0,0,.12-.21l.09-.25a.07.07,0,0,1,.07-.05h.1v0Zm0-2.39a.27.27,0,0,1-.11.15.41.41,0,0,1-.18,0,.18.18,0,0,1-.15-.06.09.09,0,0,1,0-.08.13.13,0,0,1,0-.06.25.25,0,0,1,.11-.14.32.32,0,0,1,.18-.06.18.18,0,0,1,.15.06.09.09,0,0,1,0,.08S98.34,53.76,98.34,53.78Z"/><path class="cls-8" d="M100,56.38a.56.56,0,0,1-.13.22,1.45,1.45,0,0,1-.23.19,2.4,2.4,0,0,1-.27.16l-.28.14a1.57,1.57,0,0,0-.3.2.88.88,0,0,0-.22.25l.08,0,.19,0,.17,0,.17,0h.18a.38.38,0,0,0,.26-.11.29.29,0,0,0,.1-.12.38.38,0,0,0,.06-.13,0,0,0,0,1,0,0h.07v0h0a.72.72,0,0,1-.09.2.5.5,0,0,1-.13.19.58.58,0,0,1-.17.14.46.46,0,0,1-.21,0,.41.41,0,0,1-.19,0L99,57.71l-.15-.08a.34.34,0,0,0-.18,0,.15.15,0,0,0-.11.06.53.53,0,0,0-.08.15s0,0,0,0h-.07a1.19,1.19,0,0,1,.26-.44,1.28,1.28,0,0,1,.45-.34,2.12,2.12,0,0,0,.43-.28.94.94,0,0,0,.25-.36c0-.09,0-.17,0-.25v-.05a.41.41,0,0,0,0-.16.41.41,0,0,0-.12-.14.31.31,0,0,0-.17-.05.5.5,0,0,0-.24.06,1,1,0,0,0-.2.15.8.8,0,0,0-.15.21,1.74,1.74,0,0,0-.11.25.74.74,0,0,0,0,.12s0,0,0,0a.07.07,0,0,0,.08.06.2.2,0,0,0,.11,0,.35.35,0,0,0,.1-.08l.07-.11a.42.42,0,0,0,.06-.14.11.11,0,0,0,0-.05v0a.36.36,0,0,0,0-.09h0l0,0h0l0,0a0,0,0,0,1,0,0,.18.18,0,0,1,.06.13.29.29,0,0,1,0,.09.47.47,0,0,1-.06.15.71.71,0,0,1-.1.14.36.36,0,0,1-.28.14l-.1,0a.13.13,0,0,1-.06-.07.29.29,0,0,1,0-.09h0a.41.41,0,0,1,0-.11,1.59,1.59,0,0,1,.12-.27,1.37,1.37,0,0,1,.18-.24,1,1,0,0,1,.24-.17.72.72,0,0,1,.29-.06.6.6,0,0,1,.27.06.7.7,0,0,1,.19.15.5.5,0,0,1,.09.24.17.17,0,0,1,0,.07A.69.69,0,0,1,100,56.38Z"/><path class="cls-8" d="M101.47,56.62a.26.26,0,0,1-.14.19.35.35,0,0,1-.24.08.24.24,0,0,1-.19-.08.17.17,0,0,1-.05-.12.56.56,0,0,0,0-.07.32.32,0,0,1,.15-.18.35.35,0,0,1,.24-.08.27.27,0,0,1,.2.07.28.28,0,0,1,0,.12A.19.19,0,0,1,101.47,56.62Z"/><path class="cls-8" d="M103.21,56.62a.26.26,0,0,1-.14.19.35.35,0,0,1-.24.08.24.24,0,0,1-.19-.08.17.17,0,0,1,0-.12.56.56,0,0,0,0-.07.32.32,0,0,1,.15-.18.35.35,0,0,1,.24-.08.27.27,0,0,1,.2.07.28.28,0,0,1,0,.12A.19.19,0,0,1,103.21,56.62Z"/><path class="cls-8" d="M105,56.62a.29.29,0,0,1-.14.19.35.35,0,0,1-.24.08.24.24,0,0,1-.19-.08.17.17,0,0,1,0-.12.56.56,0,0,0,0-.07.32.32,0,0,1,.15-.18.35.35,0,0,1,.24-.08.27.27,0,0,1,.2.07.28.28,0,0,1,0,.12A.19.19,0,0,1,105,56.62Z"/><path class="cls-8" d="M107.37,56.17a2.33,2.33,0,0,1-.1.27,1,1,0,0,1-.16.25.72.72,0,0,1-.21.18.54.54,0,0,1-.28.08.52.52,0,0,1-.23-.05.5.5,0,0,1-.15-.14.38.38,0,0,1,0-.19h0a.49.49,0,0,1,.06-.22l.46-1.08a1.08,1.08,0,0,0,.08-.34c0-.09,0-.14-.13-.14a.41.41,0,0,0-.19,0l-.15.15a2,2,0,0,0-.12.21,1.83,1.83,0,0,0-.08.25.1.1,0,0,1-.08.06H106a0,0,0,0,1,0,0v0a1.72,1.72,0,0,1,.1-.26,1.13,1.13,0,0,1,.16-.26.79.79,0,0,1,.22-.18.5.5,0,0,1,.27-.08.52.52,0,0,1,.23.05.38.38,0,0,1,.14.14.6.6,0,0,1,.06.19v0a.54.54,0,0,1,0,.21l-.46,1.09a1,1,0,0,0-.08.33h0c0,.09,0,.13.14.13a.32.32,0,0,0,.19,0l.15-.15a2,2,0,0,0,.12-.21,1.83,1.83,0,0,0,.08-.25.08.08,0,0,1,.08-.05h.1v0A0,0,0,0,0,107.37,56.17Zm0-2.39a.25.25,0,0,1-.1.15.41.41,0,0,1-.19,0,.2.2,0,0,1-.15-.06.11.11,0,0,1,0-.08.13.13,0,0,1,0-.06.21.21,0,0,1,.11-.14.28.28,0,0,1,.18-.06.18.18,0,0,1,.15.06.12.12,0,0,1,0,.08A.14.14,0,0,1,107.33,53.78Z"/><path class="cls-8" d="M109.34,57.33a.52.52,0,0,1-.06.16.54.54,0,0,1-.09.15.63.63,0,0,1-.13.11.34.34,0,0,1-.17,0,.32.32,0,0,1-.14,0,.3.3,0,0,1-.08-.08.42.42,0,0,1,0-.12h0a.27.27,0,0,1,0-.12l.11-.26.09-.26,0-.16V56.7a.28.28,0,0,0,0-.09.14.14,0,0,0-.15-.1.45.45,0,0,0-.3.1.93.93,0,0,0-.22.29l-.24.8s0,.06,0,.07l-.09,0a.07.07,0,0,1-.06,0,.05.05,0,0,1,0,0,0,0,0,0,1,0,0l.26-.91a1.15,1.15,0,0,0,0-.16v0c0-.06,0-.08-.09-.08a.14.14,0,0,0-.14.11,1.28,1.28,0,0,0-.1.28.05.05,0,0,1,0,0h0s0,0,0,0h0s0-.09,0-.14a.77.77,0,0,1,.07-.16.52.52,0,0,1,.1-.11.2.2,0,0,1,.15-.05.28.28,0,0,1,.21.07.21.21,0,0,1,.08.17,1,1,0,0,1,.22-.18.65.65,0,0,1,.29-.06.47.47,0,0,1,.17,0,.22.22,0,0,1,.13.1.3.3,0,0,1,0,.16h0a.57.57,0,0,1,0,.18l-.09.27-.11.26a.58.58,0,0,0,0,.2.07.07,0,0,0,.08.08.2.2,0,0,0,.11,0,.26.26,0,0,0,.09-.09.74.74,0,0,0,.08-.13,1.31,1.31,0,0,0,0-.15s0,0,0,0h.06Z"/><path class="cls-6" d="M106.37,52H95.06l-.1,0s0-.06,0-.12a.25.25,0,0,1,0-.1l4.86-5.82-4.86-6.47a.25.25,0,0,1,0-.1v-.22c0-.11,0-.16.14-.16h11.31L107.52,42h-.33a3,3,0,0,0-.76-1.16,4.46,4.46,0,0,0-1.18-.8,4.91,4.91,0,0,0-1-.33c-.35-.07-.72-.13-1.1-.17s-.76-.06-1.14-.07H96.35l4.43,5.9c0,.08,0,.13,0,.17L96,51.23h6.08c.39,0,.76,0,1.13-.07a9.36,9.36,0,0,0,1.08-.16,5.23,5.23,0,0,0,1-.33,4.28,4.28,0,0,0,1.16-.8,2.65,2.65,0,0,0,.72-1.16h.33Z"/><line class="cls-7" x1="136.54" y1="45.46" x2="140.44" y2="45.46"/><path class="cls-6" d="M143.53,47.47a.31.31,0,0,0,0,.13.13.13,0,0,0,.08.13,1.05,1.05,0,0,0,.35.06h.5q.09,0,.09.06a.06.06,0,0,1,0,0l0,.08a.13.13,0,0,1-.13.1c-.43,0-.87,0-1.31,0s-.87,0-1.32,0c0,0-.08,0-.08-.07v0l0-.08a.12.12,0,0,1,.14-.1h.51a1.34,1.34,0,0,0,.37-.06c.09,0,.15-.12.19-.26L144,43a2.24,2.24,0,0,1-.55.29,1.71,1.71,0,0,1-.59.11.08.08,0,0,1-.07,0s0,0,0,0v0l0-.09a.14.14,0,0,1,.14-.1,1.59,1.59,0,0,0,.95-.33,3,3,0,0,0,.8-.8.14.14,0,0,1,.11-.06h0a.09.09,0,0,1,.07,0,0,0,0,0,1,0,0,.06.06,0,0,1,0,0Z"/><path class="cls-6" d="M135.55,49.71a5,5,0,0,1,0-8.5H136a5.26,5.26,0,0,0,0,8.5"/><path class="cls-6" d="M146.17,41.21a5,5,0,0,1,0,8.5h-.46a5.26,5.26,0,0,0,0-8.5"/><path class="cls-8" d="M155.5,40.74l0,0-.06,0h-.2a.44.44,0,0,0-.19.07.36.36,0,0,0-.11.1.61.61,0,0,0-.07.14L154,44s0,0-.08,0h-.06s0,0-.05,0c-.22-.51-.43-1-.64-1.54L152.53,41l-.75,2.62a.15.15,0,0,0,0,.09v0a.2.2,0,0,0,.06.11.34.34,0,0,0,.15.06l.2,0s.05,0,.05,0V44l0,0h-1.26s0,0,0,0V44s0,0,0,0l0,0,.21,0a.55.55,0,0,0,.18-.06.32.32,0,0,0,.12-.11.54.54,0,0,0,.07-.13l.8-2.78a.58.58,0,0,0-.21,0h-.27a.05.05,0,0,1,0,0s0,0,0,0v0l0,0a.08.08,0,0,1,.08-.06h.89s0,0,0,0L154,43.34l.65-2.22a.44.44,0,0,0,0-.1.19.19,0,0,0-.07-.14.26.26,0,0,0-.15-.07h-.2a.05.05,0,0,1,0,0s0,0,0,0V40.7a.08.08,0,0,1,.08-.06h1.16l0,0v.08Z"/><path class="cls-8" d="M159.9,43.36a1.48,1.48,0,0,1-.1.27,1,1,0,0,1-.16.25.76.76,0,0,1-.21.19.51.51,0,0,1-.28.07.52.52,0,0,1-.23,0,.47.47,0,0,1-.15-.13.42.42,0,0,1-.05-.2h0a.42.42,0,0,1,.06-.21l.46-1.09a1.08,1.08,0,0,0,.08-.34c0-.09,0-.14-.13-.14A.33.33,0,0,0,159,42a.64.64,0,0,0-.15.14,1.17,1.17,0,0,0-.2.47.09.09,0,0,1-.08,0h-.06s0,0,0,0h0a1.48,1.48,0,0,1,.1-.27,1.07,1.07,0,0,1,.16-.25.67.67,0,0,1,.22-.19.5.5,0,0,1,.27-.07.41.41,0,0,1,.23,0,.35.35,0,0,1,.14.13.6.6,0,0,1,.06.19v0a.54.54,0,0,1,0,.21l-.46,1.09a1.08,1.08,0,0,0-.08.34h0a.12.12,0,0,0,.14.13.33.33,0,0,0,.19-.06.49.49,0,0,0,.15-.14,2,2,0,0,0,.12-.21l.09-.26s0,0,.07,0h.1v0Zm0-2.39a.25.25,0,0,1-.1.15.33.33,0,0,1-.19.06.2.2,0,0,1-.15-.06.13.13,0,0,1,0-.08.2.2,0,0,1,0-.07.24.24,0,0,1,.11-.14.3.3,0,0,1,.18-.06.18.18,0,0,1,.15.06s0,.05,0,.08A.14.14,0,0,1,159.86,41Z"/><path class="cls-8" d="M160.57,44.74a.09.09,0,0,0,0,0s0,0,0,0l.14,0h.19s0,0,0,0h0v0a0,0,0,0,1-.05,0h-1s0,0,0,0h0v0s0,0,0,0h.19l.15,0s.05,0,.07-.09l.44-1.52a1,1,0,0,1-.21.1.59.59,0,0,1-.23,0h0s0,0,0,0h0v0a.05.05,0,0,1,0,0,.72.72,0,0,0,.37-.11,1.93,1.93,0,0,0,.3-.27.05.05,0,0,1,0,0h0v0h0Z"/><path class="cls-8" d="M163.56,43.36c0,.09-.06.18-.1.27a1.32,1.32,0,0,1-.16.25.76.76,0,0,1-.21.19.53.53,0,0,1-.28.07.52.52,0,0,1-.23,0,.38.38,0,0,1-.15-.13.33.33,0,0,1-.05-.2h0a.54.54,0,0,1,0-.21l.46-1.09a.9.9,0,0,0,.09-.34c0-.09,0-.14-.13-.14a.31.31,0,0,0-.19.06.64.64,0,0,0-.15.14,1.17,1.17,0,0,0-.2.47.1.1,0,0,1-.08,0h-.06s0,0,0,0h0a1,1,0,0,1,.1-.27,1.07,1.07,0,0,1,.16-.25.76.76,0,0,1,.21-.19.53.53,0,0,1,.28-.07.41.41,0,0,1,.23,0,.35.35,0,0,1,.14.13.41.41,0,0,1,0,.19v0a.52.52,0,0,1,0,.21l-.46,1.09a.86.86,0,0,0-.08.34h0a.12.12,0,0,0,.14.13A.33.33,0,0,0,163,44a.64.64,0,0,0,.15-.14,1,1,0,0,0,.11-.21,1.34,1.34,0,0,0,.09-.26.07.07,0,0,1,.07,0h.11v0Zm0-2.39a.25.25,0,0,1-.1.15.33.33,0,0,1-.19.06.2.2,0,0,1-.15-.06.3.3,0,0,1,0-.08.25.25,0,0,1,0-.07.26.26,0,0,1,.1-.14.33.33,0,0,1,.19-.06.2.2,0,0,1,.15.06.13.13,0,0,1,0,.08A.13.13,0,0,1,163.52,41Z"/><path class="cls-8" d="M165.19,43.57a.46.46,0,0,1-.13.22,1.37,1.37,0,0,1-.22.19l-.28.17-.28.14a1,1,0,0,0-.29.19,1.09,1.09,0,0,0-.23.25l.09,0,.18,0,.18,0,.17,0,.18,0a.31.31,0,0,0,.13,0,.57.57,0,0,0,.13-.08l.1-.12a.42.42,0,0,0,.06-.14s0,0,0,0h.07a1.8,1.8,0,0,1-.08.21,1.18,1.18,0,0,1-.13.18.55.55,0,0,1-.17.14.54.54,0,0,1-.21.05.36.36,0,0,1-.19,0,.8.8,0,0,1-.16-.08l-.15-.08a.33.33,0,0,0-.17,0,.14.14,0,0,0-.11.06.34.34,0,0,0-.08.16.06.06,0,0,1,0,0h-.06a1.12,1.12,0,0,1,.25-.45,1.45,1.45,0,0,1,.46-.34,2,2,0,0,0,.42-.28.76.76,0,0,0,.25-.36,1,1,0,0,0,.05-.25v0a.47.47,0,0,0,0-.17.24.24,0,0,0-.11-.13.27.27,0,0,0-.18,0,.59.59,0,0,0-.23,0,.75.75,0,0,0-.2.15,1.25,1.25,0,0,0-.16.22,1.09,1.09,0,0,0-.1.25.5.5,0,0,0,0,.12.06.06,0,0,0,0,0,.07.07,0,0,0,.07.07.27.27,0,0,0,.12,0l.09-.08.08-.12.06-.14v-.09a.2.2,0,0,0,0-.08v0s0,0,0,0h0s0,0,0,0a.18.18,0,0,1,.06.14.25.25,0,0,1,0,.08,1,1,0,0,1-.07.15.48.48,0,0,1-.09.14.45.45,0,0,1-.13.11.41.41,0,0,1-.16,0,.16.16,0,0,1-.1,0,.18.18,0,0,1,0-.07.15.15,0,0,1,0-.09h0a.36.36,0,0,1,0-.1,1,1,0,0,1,.11-.27.88.88,0,0,1,.19-.24.81.81,0,0,1,.24-.17.55.55,0,0,1,.28-.07.6.6,0,0,1,.27.06.58.58,0,0,1,.19.15.64.64,0,0,1,.1.24v.08A.68.68,0,0,1,165.19,43.57Z"/><path class="cls-8" d="M166.66,43.82a.37.37,0,0,1-.14.19.45.45,0,0,1-.25.07.22.22,0,0,1-.19-.08.15.15,0,0,1,0-.11.17.17,0,0,1,0-.07.29.29,0,0,1,.14-.19.46.46,0,0,1,.24-.08.26.26,0,0,1,.2.08.16.16,0,0,1,0,.12A.2.2,0,0,1,166.66,43.82Z"/><path class="cls-8" d="M168.4,43.82a.37.37,0,0,1-.14.19.45.45,0,0,1-.25.07.22.22,0,0,1-.19-.08.15.15,0,0,1,0-.11.17.17,0,0,1,0-.07.29.29,0,0,1,.14-.19.46.46,0,0,1,.24-.08.26.26,0,0,1,.2.08.16.16,0,0,1,0,.12A.2.2,0,0,1,168.4,43.82Z"/><path class="cls-8" d="M170.14,43.82A.34.34,0,0,1,170,44a.4.4,0,0,1-.24.07.21.21,0,0,1-.19-.08.16.16,0,0,1-.05-.11.19.19,0,0,1,0-.07.29.29,0,0,1,.14-.19.41.41,0,0,1,.24-.08.28.28,0,0,1,.2.08.21.21,0,0,1,0,.12S170.14,43.79,170.14,43.82Z"/><path class="cls-8" d="M172.55,43.36a1,1,0,0,1-.1.27,1.28,1.28,0,0,1-.15.25.67.67,0,0,1-.22.19.51.51,0,0,1-.28.07.56.56,0,0,1-.23,0,.35.35,0,0,1-.14-.13.34.34,0,0,1-.06-.2h0a.54.54,0,0,1,0-.21l.46-1.09a.9.9,0,0,0,.09-.34.13.13,0,0,0-.14-.14.28.28,0,0,0-.18.06.4.4,0,0,0-.15.14.72.72,0,0,0-.12.21,1.14,1.14,0,0,0-.09.26.08.08,0,0,1-.07,0h-.07a0,0,0,0,1,0,0h0c0-.09.06-.18.1-.27a1.53,1.53,0,0,1,.16-.25,1,1,0,0,1,.22-.19.51.51,0,0,1,.28-.07.38.38,0,0,1,.22,0,.38.38,0,0,1,.15.13.41.41,0,0,1,0,.19v0a.52.52,0,0,1,0,.21l-.46,1.09a.9.9,0,0,0-.09.34h0a.12.12,0,0,0,.13.13A.31.31,0,0,0,172,44a.4.4,0,0,0,.15-.14.72.72,0,0,0,.12-.21l.09-.26a.07.07,0,0,1,.07,0h.1a0,0,0,0,1,0,0Zm0-2.39a.27.27,0,0,1-.11.15.3.3,0,0,1-.18.06.18.18,0,0,1-.15-.06s0,0,0-.08,0,0,0-.07a.29.29,0,0,1,.11-.14.33.33,0,0,1,.19-.06.2.2,0,0,1,.15.06.13.13,0,0,1,0,.08A.13.13,0,0,1,172.52,41Z"/><path class="cls-8" d="M174.53,44.52l-.06.16a.56.56,0,0,1-.1.15.49.49,0,0,1-.13.12.43.43,0,0,1-.17,0,.28.28,0,0,1-.13,0,.24.24,0,0,1-.09-.08.21.21,0,0,1,0-.12h0a.27.27,0,0,1,0-.12c0-.09.07-.17.1-.26a2.5,2.5,0,0,0,.09-.25.55.55,0,0,0,0-.17.09.09,0,0,0,0-.05.3.3,0,0,0,0-.1.13.13,0,0,0-.14-.1.49.49,0,0,0-.31.11,1,1,0,0,0-.22.29l-.23.79a.12.12,0,0,1-.06.08L173,45a.09.09,0,0,1-.07,0s0,0,0,0v0l.26-.9a.61.61,0,0,0,0-.17v0a.09.09,0,0,0-.1-.08c-.06,0-.1,0-.14.11a2.39,2.39,0,0,0-.1.29s0,0,0,0h0a0,0,0,0,1,0,0h0c0-.05,0-.1.05-.15a.67.67,0,0,1,.06-.15.43.43,0,0,1,.11-.12.25.25,0,0,1,.15,0,.27.27,0,0,1,.2.07.23.23,0,0,1,.08.17.87.87,0,0,1,.22-.17.57.57,0,0,1,.29-.07l.18,0a.29.29,0,0,1,.12.1.24.24,0,0,1,0,.16h0a.68.68,0,0,1,0,.19,1.61,1.61,0,0,1-.09.26c0,.08-.07.17-.1.26a.45.45,0,0,0,0,.2c0,.06,0,.08.07.08a.24.24,0,0,0,.12,0,.38.38,0,0,0,.09-.09.63.63,0,0,0,.07-.12.75.75,0,0,0,0-.16.05.05,0,0,1,0,0h.07Z"/><path class="cls-8" d="M157.78,45.24a3.3,3.3,0,0,1,0-5.29H158a3.5,3.5,0,0,0,0,5.29"/><path class="cls-8" d="M175,40a3.29,3.29,0,0,1,0,5.29h-.25a3.5,3.5,0,0,0,0-5.29"/><path class="cls-6" d="M133.48,51.35a2.37,2.37,0,0,0,2.22,1.55h17a2.09,2.09,0,0,1,2,1.38h.25a2.09,2.09,0,0,1,2-1.38h17a2.37,2.37,0,0,0,2.22-1.55l-.06-.19a2.09,2.09,0,0,1-1.89,1.2H156.91a2.09,2.09,0,0,0-2,1.38h-.25a2.09,2.09,0,0,0-2-1.38H135.43a2.09,2.09,0,0,1-1.89-1.2"/><path class="cls-6" d="M124.6,58.06l.23-.21.65.45-.26.25Zm0-1.06.23-.21c.24.16.46.31.64.45l-.26.25Zm-1.94-.36a4,4,0,0,0,1.11-1.23h.44l-.24.37h3.36v.3h-3.59a5,5,0,0,1-.84.82Zm3.72.13H124l-.15.75h2.57Q126.41,57.16,126.42,56.77Zm0,1h-2.63l-.15.76h2.73C126.35,58.34,126.36,58.08,126.38,57.82Zm-3.67-.3h.71l.22-1h3.19c0,.37,0,.72,0,1h.7v.3h-.71c0,.28,0,.53,0,.76h.58v.3h-.61a.73.73,0,0,1-.2.44.92.92,0,0,1-.65.18l-.69,0c0-.09,0-.2-.08-.34.34,0,.57,0,.72,0a.57.57,0,0,0,.4-.1.42.42,0,0,0,.1-.2h-3.09v-.32l.15-.74h-.65Z"/><rect x="127.6" y="57.19" width="4.8" height="0.37"/><path class="cls-6" d="M135.53,57.07h.37v.64a2,2,0,0,1-.13.77c.56.26,1.06.52,1.51.78l-.25.3a16.15,16.15,0,0,0-1.41-.81.71.71,0,0,1-.07.09,2.87,2.87,0,0,1-1.37.77c-.07-.08-.15-.18-.25-.28a2.87,2.87,0,0,0,1.31-.69,1.37,1.37,0,0,0,.29-.94Zm-3.06,1.48.73-.15V56.18h-.67v-.3h1.66v.3h-.62v2.14l.69-.15a1.31,1.31,0,0,0,0,.33l-1.72.39Zm2-2h.89l.13-.52h-1.14v-.29h2.91V56h-1.35l-.16.52H137v2.18h-.37V56.79h-1.81v1.89h-.37Z"/><path class="cls-6" d="M140,57.27l.29-.19a12.29,12.29,0,0,1,.86,1l-.36.22A11,11,0,0,0,140,57.27Zm-.88-.83H138v1h1.09ZM138,58.82h1.09V57.76H138ZM139.55,57a6,6,0,0,0,.76-1.56l.41.09c-.08.21-.17.41-.25.6H142q-.06,2.15-.09,2.7c0,.44-.29.66-.8.66l-.89,0a3,3,0,0,0-.08-.37h0a7.38,7.38,0,0,0,.89.06c.29,0,.45-.13.47-.4,0-.42.06-1.19.08-2.31h-1.3a5.12,5.12,0,0,1-.43.71Zm-1.93-.86h.48c.12-.26.22-.49.3-.7l.4.1c-.1.22-.2.42-.29.6h1v3.33h-.38v-.33H138v.36h-.38Z"/><polygon class="cls-6" points="142.32 58.95 143.1 58.95 143.1 56.71 143.52 56.71 143.52 58.95 144.74 58.95 144.74 56.11 142.54 56.11 142.54 55.79 146.93 55.79 146.93 56.11 145.16 56.11 145.16 57.21 146.77 57.21 146.77 57.53 145.16 57.53 145.16 58.95 147.12 58.95 147.12 59.28 142.32 59.28 142.32 58.95"/><path class="cls-6" d="M147.3,59.27a5.59,5.59,0,0,0,1.83-.56.81.81,0,0,0,.37-.79v-.67h.39v.6a2.28,2.28,0,0,1,0,.48,22.37,22.37,0,0,1,2.08.94l-.25.31c-.68-.36-1.33-.68-1.94-.94-.24.41-1,.73-2.21,1Zm.6-2.52h1.77c.16-.13.36-.33.61-.58h-1.72a6.43,6.43,0,0,1-1.05.81l-.28-.25a6.66,6.66,0,0,0,1.55-1.3l.39.12c-.1.12-.2.22-.3.33h1.92v.28c-.2.2-.42.4-.63.59h1.33v1.82h-.39V57.05h-2.82v1.54h-.38Z"/><path class="cls-6" d="M155.8,55.93h-2.52v.61h2.52ZM153,58.29V58l.21-.43h-1v-.31h4.79v.31H153.6l-.21.43h2.89c0,.32-.08.59-.11.79a.8.8,0,0,1-.91.69l-1.19,0c0-.1,0-.22-.08-.36.46,0,.86,0,1.2,0s.54-.14.59-.41c0-.11,0-.26.07-.44Zm-.09-2.66h3.28V57h-.38v-.17h-2.52V57h-.38Z"/><path class="cls-6" d="M158.41,58.67a1.59,1.59,0,0,1-.28.53,2.24,2.24,0,0,1-.47.45h-.09a0,0,0,0,1,0,0,.05.05,0,0,1,0,0,2.16,2.16,0,0,0,.44-.41,1.62,1.62,0,0,0,.25-.49l0-.07-.12.06-.14,0a.26.26,0,0,1-.21-.08.23.23,0,0,1,0-.11.22.22,0,0,1,0-.08.41.41,0,0,1,.13-.18.39.39,0,0,1,.25-.08.29.29,0,0,1,.17.05.23.23,0,0,1,.07.13.37.37,0,0,1,0,.11v.05Z"/><path class="cls-6" d="M126.69,63.51H125.3v1h1.39Zm-3.18,1h1.39v-1h-1.39Zm1.79,1.36h1.39V64.85H125.3Zm-1.79,0h1.39V64.85h-1.39Zm-.4.56V63.2h1.79v-.79h.4v.79h1.79v3.27h-.4v-.25h-3.18v.25Z"/><path class="cls-6" d="M130.2,62.18v0a.09.09,0,0,1,0,0,2,2,0,0,0-.45.41,1.41,1.41,0,0,0-.26.48l0,.09a.41.41,0,0,1,.27-.1.23.23,0,0,1,.21.08.19.19,0,0,1,0,.12s0,0,0,.07a.38.38,0,0,1-.13.18.39.39,0,0,1-.26.09.29.29,0,0,1-.17,0,.3.3,0,0,1-.09-.26v0a.57.57,0,0,1,0-.18,1.81,1.81,0,0,1,.28-.53,1.74,1.74,0,0,1,.49-.44l0,0,0,0Zm1.05,0,0,0s0,0,0,0a2.2,2.2,0,0,0-.45.41,1.38,1.38,0,0,0-.25.48s0,0,0,.05,0,0,0,0a.43.43,0,0,1,.27-.1.23.23,0,0,1,.21.08.56.56,0,0,1,0,.12s0,0,0,.07a.34.34,0,0,1-.14.18.35.35,0,0,1-.25.09.29.29,0,0,1-.17,0,.35.35,0,0,1-.08-.13.59.59,0,0,1,0-.13v0a1.16,1.16,0,0,1,0-.18,1.6,1.6,0,0,1,.28-.53,1.74,1.74,0,0,1,.49-.44l0,0,0,0Z"/><path class="cls-8" d="M131.89,63.59a4.56,4.56,0,0,0,1.24-1.19l.35.18a6.3,6.3,0,0,1-1.39,1.33Zm2-.87h2.5V63h-2.5Zm-2,2.2a5.35,5.35,0,0,0,1.36-1.49l.34.18a7.4,7.4,0,0,1-.53.69v2.22h-.4V64.73a6,6,0,0,1-.6.53A3.59,3.59,0,0,0,131.87,64.92Zm1.75-.94h3v.32h-.94v1.63c0,.35-.2.52-.6.52h-.82c0-.11-.05-.23-.08-.37.25,0,.51,0,.76,0s.33-.09.33-.28V64.3h-1.7Z"/><path class="cls-8" d="M139,64.59l.36.13a15,15,0,0,1-.78,1.36l-.35-.15A10.43,10.43,0,0,0,139,64.59Zm1.55.14.34-.14c.31.51.56,1,.77,1.34l-.39.14C141,65.64,140.78,65.19,140.51,64.73Zm-1.77-2.05h2.56V63h-2.56Zm-.23,1.22h3v.29h-1.34v1.75c0,.35-.18.53-.55.53H139c0-.1,0-.21-.07-.35a4.45,4.45,0,0,0,.61,0c.19,0,.29-.11.29-.31V64.19h-1.32ZM136.76,65a4.26,4.26,0,0,0,.73-1.5h-.7v-.28h.73v-.82h.34v.82h.66v.28h-.66v.74l.21-.18c.21.15.39.3.55.44l-.26.23c-.15-.15-.32-.31-.5-.46v2.21h-.34V64.24a4,4,0,0,1-.6,1.16Z"/><path class="cls-6" d="M141.71,63.19h.57v-.77h.37v.77h.48v.29h-.48v.78l.45-.21c0,.12,0,.23,0,.34l-.49.22v1.45c0,.29-.18.43-.53.43a2.49,2.49,0,0,1-.39,0c0-.11,0-.22-.07-.34h.42c.13,0,.2-.06.2-.19v-1.2l-.56.26-.05-.37.61-.24v-.94h-.57ZM143,65.27h1v-.72h-.76v-.32H144v-.72h-.75v-.32H144v-.77h.38v4.12H144v-1h-1Zm2-2.85h.37v.77h1v.32h-1v.72h.91v.32h-.91v.72h1.11v.32h-1.11v1H145Z"/><path class="cls-6" d="M150,65.5h-.37V62.94H150Zm.7-3h.38v3.45c0,.35-.18.53-.55.54h-.79a2.53,2.53,0,0,0-.07-.38c.33,0,.57,0,.73,0s.3-.09.3-.28Zm-3.3,2.19.24-.24.67.51a3.53,3.53,0,0,0,.46-1h-1.09a6.28,6.28,0,0,1-.93,1.36,3.88,3.88,0,0,0-.2-.34,5.83,5.83,0,0,0,1.12-2h-1v-.3h2.72v.3h-1.36a6.44,6.44,0,0,1-.25.66h1.35v.31a4,4,0,0,1-2.09,2.65,2.67,2.67,0,0,0-.3-.26,4.48,4.48,0,0,0,1.32-1.07C147.93,65.06,147.69,64.88,147.41,64.67Z"/><path class="cls-6" d="M153.47,62.68a1.74,1.74,0,0,1-.28.54,1.9,1.9,0,0,1-.49.44h-.09v0s0,0,0-.05a2.16,2.16,0,0,0,.44-.41,1.37,1.37,0,0,0,.26-.49s0,0,0,0v0a.36.36,0,0,1-.12.08.39.39,0,0,1-.15,0,.23.23,0,0,1-.21-.08.2.2,0,0,1,0-.11.15.15,0,0,1,0-.07.32.32,0,0,1,.13-.18.34.34,0,0,1,.25-.08.29.29,0,0,1,.17,0,.28.28,0,0,1,.08.12.49.49,0,0,1,0,.12v0Q153.49,62.61,153.47,62.68Zm1.05,0a1.52,1.52,0,0,1-.27.54,1.9,1.9,0,0,1-.49.44h-.08l0,0s0,0,0-.05a1.91,1.91,0,0,0,.44-.41,1.37,1.37,0,0,0,.26-.49v0a.43.43,0,0,0,0,0,.36.36,0,0,1-.12.08.41.41,0,0,1-.16,0c-.1,0-.17,0-.2-.08a.21.21,0,0,1,0-.11s0,0,0-.07a.38.38,0,0,1,.13-.18.37.37,0,0,1,.26-.08.29.29,0,0,1,.17,0,.42.42,0,0,1,.08.12.49.49,0,0,1,0,.12v0A.8.8,0,0,1,154.52,62.68Z"/><path class="cls-6" d="M158.33,64.25l.29-.19c.36.37.64.68.86,1l-.36.22A9.7,9.7,0,0,0,158.33,64.25Zm-.88-.83h-1.09v1h1.09Zm-1.09,2.38h1.09V64.74h-1.09ZM157.9,64a5.47,5.47,0,0,0,.77-1.55l.41.09-.25.59h1.55c0,1.44-.07,2.34-.1,2.71s-.28.66-.79.66l-.9,0a3.06,3.06,0,0,0-.07-.37h0a7.22,7.22,0,0,0,.88.06.42.42,0,0,0,.48-.4c0-.42.06-1.19.07-2.31h-1.29a5.79,5.79,0,0,1-.43.71ZM156,63.11h.49c.12-.26.22-.49.3-.7l.4.1c-.1.22-.2.41-.29.6h1v3.33h-.38v-.33h-1.09v.36H156Z"/><path class="cls-6" d="M163,65.62v-.56h-1.33v.56ZM161,63.71a3.05,3.05,0,0,0,1.76-.54H161v-.31h1.85a1.09,1.09,0,0,0,.07-.42h.36a1.73,1.73,0,0,1,0,.42h1.89v.31h-2l0,.08c.64.15,1.27.31,1.87.48l-.17.3c-.66-.21-1.3-.4-1.94-.55a4.22,4.22,0,0,1-1.69.54A2.11,2.11,0,0,0,161,63.71Zm.37,1.05h2.05v1.16h-1.69v.18h-.36Zm-.57-.66h4.67v.3h-.74V66c0,.35-.22.52-.65.52h-.69a3.21,3.21,0,0,0-.08-.34c.24,0,.45,0,.65,0s.4-.09.4-.28V64.4h-3.56Z"/><path class="cls-6" d="M167.61,63.31h.81v-.4h-.81Zm2-.4h-.81v.4h.81Zm-2,1.06h.81v-.4h-.81Zm1.16,0h.81v-.4h-.81Zm-3.2.47a6.54,6.54,0,0,0,1-2l.36.08a7.38,7.38,0,0,1-.42,1v3h-.35V64.15a4.15,4.15,0,0,1-.44.63A3.54,3.54,0,0,0,165.57,64.44Zm3.5.69.3-.09c.13.28.25.55.35.82l-.31.1-.1-.27-1.69.12-.09-.3.89,0v-.57h-1.08v1.58H167V64.64h1.43v-.4h-.81v.14h-.34V62.64h2.65v1.74h-.34v-.14h-.81v.4h1.42V66c0,.31-.18.46-.54.46a6,6,0,0,1-.6,0c0-.09,0-.19-.07-.31a4.58,4.58,0,0,0,.53,0q.33,0,.33-.21V64.91h-1.07v.55l.44,0C169.16,65.34,169.12,65.23,169.07,65.13Z"/><path class="cls-6" d="M170.73,63.38l.32.06q-.09.51-.24,1.08a2,2,0,0,0-.33-.08A7.91,7.91,0,0,0,170.73,63.38Zm.45-1h.37v.81l.21-.1a6.45,6.45,0,0,1,.43.63l-.3.17a4,4,0,0,0-.34-.55v3.17h-.37Zm.76,3.65h1.56V65h-1.25v-.3h1.25v-1h-.78a6.68,6.68,0,0,1-.42.79,1.52,1.52,0,0,0-.32-.19,5.28,5.28,0,0,0,.68-1.55l.38.09c-.06.19-.12.38-.2.57h.66v-.92h.38v.92h1.27v.29h-1.27v1h1.17V65h-1.17v1.12h1.42v.29h-3.36Z"/><path class="cls-6" d="M175.78,62.67c.32.28.6.54.84.77l-.33.26a10.21,10.21,0,0,0-.8-.81Zm.33,1.58a2.69,2.69,0,0,0,.38.19c-.27.65-.5,1.23-.69,1.76l-.39-.19A11.94,11.94,0,0,0,176.11,64.25Zm3.14-.76h-.87c0,.39,0,.71,0,1h.92Zm-2.62,1H178c0-.25,0-.57.05-1h-1.09v-.3H178c0-.25,0-.5,0-.75h.38c0,.25,0,.5,0,.75h1.24v1.28h.57v.3h-1.78a2.7,2.7,0,0,0,1.71,1.37l-.34.33A3,3,0,0,1,178.19,65a2.67,2.67,0,0,1-1.59,1.51,2.87,2.87,0,0,0-.27-.32c.9-.38,1.43-.86,1.57-1.46h-1.27Z"/><path class="cls-6" d="M180.59,62.92h2.06a3.27,3.27,0,0,0-.3-.35l.37-.17.41.42-.22.1h2v.79h-.38v-.48H181v.48h-.38Zm-.29,3.31a2.37,2.37,0,0,0,.93-1.76l.41.06a3.79,3.79,0,0,1-.18.72,1.47,1.47,0,0,0,1.16.79V64.2h-2.21v-.31H185v.31h-2v.68h1.67v.31H183v.88c.64,0,1.33,0,2.08,0a3.65,3.65,0,0,0-.14.35c-.78,0-1.47,0-2.06,0a1.79,1.79,0,0,1-1.6-.77,2.66,2.66,0,0,1-.76.94A3.59,3.59,0,0,0,180.3,66.23Z"/><path class="cls-6" d="M186.61,65.39a.33.33,0,0,1-.14.19.38.38,0,0,1-.24.08.26.26,0,0,1-.2-.08.16.16,0,0,1,0-.12.2.2,0,0,1,0-.07.35.35,0,0,1,.14-.19.44.44,0,0,1,.24-.07.26.26,0,0,1,.2.07.19.19,0,0,1,0,.12A.17.17,0,0,1,186.61,65.39Z"/><path class="cls-6" d="M208,45.21a1.36,1.36,0,0,1,0-.17.58.58,0,0,0,0-.18,1,1,0,0,0-.22-.36.48.48,0,0,0-.36-.15.69.69,0,0,0-.4.14,2,2,0,0,0-.36.36,3,3,0,0,0-.33.64c-.07.22-.14.45-.2.69s-.11.47-.15.69a1.82,1.82,0,0,0,0,.32,1.73,1.73,0,0,0,0,.32,1,1,0,0,0,.16.36.4.4,0,0,0,.33.15.7.7,0,0,0,.44-.16,2.3,2.3,0,0,0,.41-.36l.13-.17a.94.94,0,0,0,.12-.18Zm1.2,1.61q-.06.21-.12.45a1.77,1.77,0,0,1-.18.45,1.06,1.06,0,0,1-.27.35.57.57,0,0,1-.4.15.73.73,0,0,1-.52-.18.79.79,0,0,1-.24-.46,2.45,2.45,0,0,1-.51.44,1.14,1.14,0,0,1-.62.2,1,1,0,0,1-.58-.17,1.29,1.29,0,0,1-.36-.44,1.59,1.59,0,0,1-.17-.68v-.06a2.35,2.35,0,0,1,.1-.69,3.55,3.55,0,0,1,.29-.74,2.8,2.8,0,0,1,.51-.69,2.29,2.29,0,0,1,.59-.43,1.38,1.38,0,0,1,.67-.18.69.69,0,0,1,.46.15,1,1,0,0,1,.28.37l0,0a.3.3,0,0,1,.13-.22.37.37,0,0,1,.21-.08.35.35,0,0,1,.21.07.33.33,0,0,1,.05.15s0,0,0,.08l-.65,2.54c0,.12-.05.23-.07.34s0,.1,0,.15,0,.08,0,.12a.42.42,0,0,0,.08.19.24.24,0,0,0,.17.07.29.29,0,0,0,.21-.09.67.67,0,0,0,.16-.25,2.77,2.77,0,0,0,.14-.38c.05-.15.09-.31.14-.48a.09.09,0,0,1,.1-.08h.11c.05,0,.07,0,.07,0Z"/><path class="cls-8" d="M211,48.67a1.18,1.18,0,0,1-.25.52,1,1,0,0,1-.21.19.69.69,0,0,1-.29.07.51.51,0,0,1-.22-.05.29.29,0,0,1-.15-.14.3.3,0,0,1-.05-.19h0a.63.63,0,0,1,0-.22l.46-1.08a.9.9,0,0,0,.09-.34.12.12,0,0,0-.13-.14.31.31,0,0,0-.19.06.4.4,0,0,0-.15.14.72.72,0,0,0-.12.21,2,2,0,0,0-.09.26.08.08,0,0,1-.07,0h-.07a0,0,0,0,1,0,0h0a1.53,1.53,0,0,1,.11-.27.72.72,0,0,1,.16-.25.76.76,0,0,1,.21-.19.53.53,0,0,1,.28-.07.4.4,0,0,1,.37.18.41.41,0,0,1,0,.19v0a.52.52,0,0,1,0,.21l-.46,1.09a.86.86,0,0,0-.09.34h0c0,.08,0,.13.14.13a.28.28,0,0,0,.18-.06.5.5,0,0,0,.15-.14.66.66,0,0,0,.12-.22l.09-.25a.07.07,0,0,1,.07-.05h.1v0Zm0-2.39a.27.27,0,0,1-.11.15.23.23,0,0,1-.18,0,.16.16,0,0,1-.19-.14s0,0,0-.06a.36.36,0,0,1,.11-.14.33.33,0,0,1,.19-.06.2.2,0,0,1,.15.06.11.11,0,0,1,0,.08A.13.13,0,0,1,211,46.28Z"/><path class="cls-8" d="M211.69,50.05s0,0,0,.05,0,0,0,0l.13,0H212s0,0,0,0h0v0a.05.05,0,0,1-.05,0h-1s0,0,0,0h0v0a.06.06,0,0,1,.06,0h.19l.14,0s.06,0,.07-.09l.44-1.52a.68.68,0,0,1-.21.1.78.78,0,0,1-.22,0h0v0h0v0s0,0,0,0a.72.72,0,0,0,.36-.11,1.38,1.38,0,0,0,.31-.28.05.05,0,0,1,0,0h0v0Z"/><path class="cls-9" d="M214.2,49s0,.05,0,.07a.08.08,0,0,0,0,.08.63.63,0,0,0,.23,0h.32s.06,0,.06,0a0,0,0,0,1,0,0v0a.1.1,0,0,1-.09.06l-.83,0-.85,0a0,0,0,0,1-.05,0v-.06a.08.08,0,0,1,.09-.06h.33a.74.74,0,0,0,.24,0,.2.2,0,0,0,.11-.15l.74-2.56a1.62,1.62,0,0,1-.35.17,1.21,1.21,0,0,1-.38.06l0,0s0,0,0,0v0l0,0a.08.08,0,0,1,.08-.06,1.07,1.07,0,0,0,.61-.19,2,2,0,0,0,.52-.45.06.06,0,0,1,.06,0h0l0,0v0Z"/><path class="cls-6" d="M219.57,45.46a.56.56,0,1,1-.56-.56A.56.56,0,0,1,219.57,45.46Z"/><path class="cls-6" d="M225.4,45.21a1.36,1.36,0,0,1,0-.17.58.58,0,0,0,0-.18,1,1,0,0,0-.22-.36.48.48,0,0,0-.36-.15.69.69,0,0,0-.4.14,2,2,0,0,0-.36.36,3,3,0,0,0-.33.64c-.07.22-.14.45-.2.69s-.11.47-.15.69a1.82,1.82,0,0,0,0,.32,1.73,1.73,0,0,0,0,.32,1,1,0,0,0,.16.36.4.4,0,0,0,.33.15.7.7,0,0,0,.44-.16,2.3,2.3,0,0,0,.41-.36l.13-.17a.94.94,0,0,0,.12-.18Zm1.2,1.61-.12.45a1.77,1.77,0,0,1-.18.45,1.06,1.06,0,0,1-.27.35.57.57,0,0,1-.4.15.73.73,0,0,1-.52-.18.79.79,0,0,1-.24-.46,2.45,2.45,0,0,1-.51.44,1.14,1.14,0,0,1-.62.2,1,1,0,0,1-.58-.17,1.29,1.29,0,0,1-.36-.44,1.59,1.59,0,0,1-.17-.68v-.06a2.35,2.35,0,0,1,.1-.69,3.55,3.55,0,0,1,.29-.74,2.8,2.8,0,0,1,.51-.69,2.29,2.29,0,0,1,.59-.43,1.38,1.38,0,0,1,.67-.18.69.69,0,0,1,.46.15,1,1,0,0,1,.28.37l0,0a.3.3,0,0,1,.13-.22.37.37,0,0,1,.21-.08.35.35,0,0,1,.21.07.33.33,0,0,1,.05.15s0,0,0,.08l-.65,2.54c0,.12-.05.23-.07.34s0,.1,0,.15,0,.08,0,.12a.42.42,0,0,0,.08.19.24.24,0,0,0,.17.07.29.29,0,0,0,.21-.09.67.67,0,0,0,.16-.25,2.77,2.77,0,0,0,.14-.38c0-.15.09-.31.14-.48a.09.09,0,0,1,.1-.08h.11c.05,0,.07,0,.07,0Z"/><path class="cls-8" d="M228.45,48.67a1.18,1.18,0,0,1-.25.52,1,1,0,0,1-.21.19.69.69,0,0,1-.29.07.51.51,0,0,1-.22-.05.29.29,0,0,1-.15-.14.3.3,0,0,1-.05-.19h0a.63.63,0,0,1,0-.22l.46-1.08a.9.9,0,0,0,.09-.34.12.12,0,0,0-.13-.14.31.31,0,0,0-.19.06.4.4,0,0,0-.15.14.72.72,0,0,0-.12.21,2,2,0,0,0-.09.26.08.08,0,0,1-.07,0h-.07a0,0,0,0,1,0,0h0a1.53,1.53,0,0,1,.11-.27.72.72,0,0,1,.16-.25.76.76,0,0,1,.21-.19.53.53,0,0,1,.28-.07.4.4,0,0,1,.37.18.41.41,0,0,1,.05.19v0a.52.52,0,0,1,0,.21l-.46,1.09a.86.86,0,0,0-.09.34h0c0,.08,0,.13.14.13a.28.28,0,0,0,.18-.06.5.5,0,0,0,.15-.14.66.66,0,0,0,.12-.22l.09-.25a.07.07,0,0,1,.07-.05h.1v0Zm0-2.39a.27.27,0,0,1-.11.15.23.23,0,0,1-.18,0,.16.16,0,0,1-.19-.14s0,0,0-.06a.36.36,0,0,1,.11-.14.33.33,0,0,1,.19-.06.2.2,0,0,1,.15.06.11.11,0,0,1,0,.08A.13.13,0,0,1,228.42,46.28Z"/><path class="cls-8" d="M230.09,48.88a.46.46,0,0,1-.13.22,1.11,1.11,0,0,1-.23.19,1.75,1.75,0,0,1-.27.16l-.28.15a1.17,1.17,0,0,0-.3.19,1.07,1.07,0,0,0-.22.25l.09,0,.18,0,.17,0,.18,0,.18,0a.31.31,0,0,0,.13,0,.38.38,0,0,0,.13-.09.52.52,0,0,0,.1-.11l.06-.14s0,0,0,0H230v0h0a1.8,1.8,0,0,1-.08.21,1.18,1.18,0,0,1-.13.18.49.49,0,0,1-.18.14.46.46,0,0,1-.21,0,.34.34,0,0,1-.18,0,.8.8,0,0,1-.16-.08l-.15-.08a.33.33,0,0,0-.17,0,.17.17,0,0,0-.12.06.35.35,0,0,0-.07.15,0,0,0,0,1,0,0h-.07a1.34,1.34,0,0,1,.26-.44,1.41,1.41,0,0,1,.45-.34,2.12,2.12,0,0,0,.43-.28.84.84,0,0,0,.25-.36c0-.09,0-.17.05-.25v-.05a.45.45,0,0,0,0-.16.28.28,0,0,0-.11-.13.28.28,0,0,0-.18-.06.46.46,0,0,0-.23.06.75.75,0,0,0-.2.15.73.73,0,0,0-.16.22,1.09,1.09,0,0,0-.1.25.25.25,0,0,0,0,.12v0a.08.08,0,0,0,.08.06.2.2,0,0,0,.11,0,.25.25,0,0,0,.1-.08,1,1,0,0,0,.08-.11l.06-.14v-.09a.36.36,0,0,0,0-.09h0a0,0,0,0,1,0,0h0l0,0,0,0a.18.18,0,0,1,.06.13.29.29,0,0,1,0,.09.47.47,0,0,1-.06.15l-.09.14a.41.41,0,0,1-.13.1.29.29,0,0,1-.16,0l-.1,0a.13.13,0,0,1-.06-.07s0-.06,0-.09h0a.31.31,0,0,1,0-.1,1.39,1.39,0,0,1,.12-.28,1.3,1.3,0,0,1,.18-.23,1,1,0,0,1,.24-.17.64.64,0,0,1,.56,0,.58.58,0,0,1,.19.15.5.5,0,0,1,.09.24.2.2,0,0,1,0,.07A.69.69,0,0,1,230.09,48.88Z"/><path class="cls-9" d="M233.49,47.06a.73.73,0,0,1-.21.37,2.38,2.38,0,0,1-.38.32,5.3,5.3,0,0,1-.47.28l-.47.24a2.44,2.44,0,0,0-.49.32,2.16,2.16,0,0,0-.38.42.33.33,0,0,1,.15,0l.3,0,.3.05.29.06.3,0a.48.48,0,0,0,.23,0,.85.85,0,0,0,.21-.14.74.74,0,0,0,.16-.19,1.28,1.28,0,0,0,.11-.24s0,0,.07-.05h.11a0,0,0,0,1,0,0,0,0,0,0,1,0,0,2.09,2.09,0,0,1-.13.35,1.81,1.81,0,0,1-.22.32,1.28,1.28,0,0,1-.29.23.85.85,0,0,1-.35.08.79.79,0,0,1-.32-.06l-.26-.13-.25-.14a.58.58,0,0,0-.3-.07.22.22,0,0,0-.18.1.65.65,0,0,0-.14.26s0,0-.07,0h-.11s0,0,0,0h0a1.88,1.88,0,0,1,.42-.75,2.62,2.62,0,0,1,.77-.57,3.24,3.24,0,0,0,.71-.47,1.3,1.3,0,0,0,.42-.61,3,3,0,0,0,.09-.41v-.08a.87.87,0,0,0-.05-.28.59.59,0,0,0-.19-.22.53.53,0,0,0-.3-.09.76.76,0,0,0-.39.1,1,1,0,0,0-.34.25,1.38,1.38,0,0,0-.26.36,2.47,2.47,0,0,0-.17.42.54.54,0,0,0,0,.2s0,0,0,.07a.12.12,0,0,0,.13.11.32.32,0,0,0,.19-.05.48.48,0,0,0,.16-.13,1.27,1.27,0,0,0,.13-.19,2.44,2.44,0,0,0,.1-.24.28.28,0,0,0,0-.09v-.06a.27.27,0,0,0-.07-.14v0s0,0,0,0h0l.05,0s0,0,0,0a.32.32,0,0,1,.09.23.68.68,0,0,1,0,.14c0,.09-.07.17-.11.26a1.88,1.88,0,0,1-.16.23.68.68,0,0,1-.21.17.5.5,0,0,1-.27.07.29.29,0,0,1-.17,0,.22.22,0,0,1-.09-.12.83.83,0,0,1,0-.15v0a.55.55,0,0,1,0-.17,2.24,2.24,0,0,1,.19-.46,2.38,2.38,0,0,1,.31-.4,1.6,1.6,0,0,1,.4-.28,1.13,1.13,0,0,1,.48-.11,1,1,0,0,1,.46.1,1,1,0,0,1,.32.25.92.92,0,0,1,.15.4.69.69,0,0,1,0,.13A.91.91,0,0,1,233.49,47.06Z"/><path class="cls-6" d="M237.65,45.46a.56.56,0,0,1-.56.55.56.56,0,0,1,0-1.11A.56.56,0,0,1,237.65,45.46Z"/><path class="cls-6" d="M241.7,47.64a.6.6,0,0,1-.23.34.64.64,0,0,1-.38.14.35.35,0,0,1-.31-.15.31.31,0,0,1-.07-.21.3.3,0,0,1,0-.12.58.58,0,0,1,.22-.34.64.64,0,0,1,.39-.14.38.38,0,0,1,.31.14.36.36,0,0,1,.07.22A.74.74,0,0,1,241.7,47.64Z"/><path class="cls-6" d="M244.48,47.64a.62.62,0,0,1-.24.34.64.64,0,0,1-.38.14.35.35,0,0,1-.31-.15.31.31,0,0,1-.07-.21.3.3,0,0,1,0-.12.58.58,0,0,1,.22-.34.64.64,0,0,1,.39-.14.4.4,0,0,1,.32.14.36.36,0,0,1,.07.22A.74.74,0,0,1,244.48,47.64Z"/><path class="cls-6" d="M247.25,47.64A.55.55,0,0,1,247,48a.62.62,0,0,1-.38.14.35.35,0,0,1-.31-.15.31.31,0,0,1-.07-.21.74.74,0,0,1,0-.12.58.58,0,0,1,.22-.34.64.64,0,0,1,.39-.14.42.42,0,0,1,.32.14.43.43,0,0,1,.06.22A.74.74,0,0,1,247.25,47.64Z"/><path class="cls-6" d="M252.8,45.46a.56.56,0,1,1-.56-.56A.56.56,0,0,1,252.8,45.46Z"/><path class="cls-6" d="M258.63,45.21a1.36,1.36,0,0,1,0-.17.58.58,0,0,0,0-.18,1,1,0,0,0-.22-.36.48.48,0,0,0-.36-.15.69.69,0,0,0-.4.14,2,2,0,0,0-.36.36,3,3,0,0,0-.33.64c-.07.22-.14.45-.2.69s-.11.47-.15.69a1.87,1.87,0,0,0,0,.32,1.75,1.75,0,0,0,0,.32.85.85,0,0,0,.16.36A.4.4,0,0,0,257,48a.72.72,0,0,0,.44-.16,2.3,2.3,0,0,0,.41-.36l.13-.17a.94.94,0,0,0,.12-.18Zm1.2,1.61-.12.45a1.77,1.77,0,0,1-.18.45,1.06,1.06,0,0,1-.27.35.57.57,0,0,1-.4.15.73.73,0,0,1-.52-.18.79.79,0,0,1-.24-.46,2.74,2.74,0,0,1-.51.44,1.14,1.14,0,0,1-.62.2,1,1,0,0,1-.58-.17,1.29,1.29,0,0,1-.36-.44,1.59,1.59,0,0,1-.17-.68v-.06a2.35,2.35,0,0,1,.1-.69,3.55,3.55,0,0,1,.29-.74,2.8,2.8,0,0,1,.51-.69,2.29,2.29,0,0,1,.59-.43,1.38,1.38,0,0,1,.67-.18.69.69,0,0,1,.46.15,1,1,0,0,1,.28.37l0,0a.3.3,0,0,1,.13-.22.37.37,0,0,1,.21-.08.35.35,0,0,1,.21.07.33.33,0,0,1,.05.15s0,0,0,.08l-.65,2.54c0,.12-.05.23-.07.34s0,.1,0,.15,0,.08,0,.12a.42.42,0,0,0,.08.19.24.24,0,0,0,.17.07.29.29,0,0,0,.21-.09.83.83,0,0,0,.16-.25,2.77,2.77,0,0,0,.14-.38c0-.15.09-.31.13-.48a.11.11,0,0,1,.11-.08h.11c.05,0,.07,0,.07,0Z"/><path class="cls-8" d="M261.68,48.67a1.18,1.18,0,0,1-.25.52.82.82,0,0,1-.22.19.61.61,0,0,1-.28.07.48.48,0,0,1-.22-.05.29.29,0,0,1-.15-.14.31.31,0,0,1-.06-.19h0a.63.63,0,0,1,.05-.22l.46-1.08a.9.9,0,0,0,.09-.34.13.13,0,0,0-.14-.14.28.28,0,0,0-.18.06.4.4,0,0,0-.15.14.72.72,0,0,0-.12.21,2,2,0,0,0-.09.26.08.08,0,0,1-.07,0h-.07a0,0,0,0,1,0,0h0c0-.09.06-.18.1-.27a.92.92,0,0,1,.17-.25.76.76,0,0,1,.21-.19.51.51,0,0,1,.28-.07.38.38,0,0,1,.22,0,.38.38,0,0,1,.15.13.41.41,0,0,1,.05.19v0a.52.52,0,0,1,0,.21l-.46,1.09a.86.86,0,0,0-.09.34h0a.12.12,0,0,0,.13.13.31.31,0,0,0,.19-.06.5.5,0,0,0,.15-.14.66.66,0,0,0,.12-.22l.09-.25a.07.07,0,0,1,.07-.05h.1v0Zm0-2.39a.27.27,0,0,1-.11.15.23.23,0,0,1-.18,0,.16.16,0,0,1-.19-.14s0,0,0-.06a.29.29,0,0,1,.11-.14.33.33,0,0,1,.19-.06.2.2,0,0,1,.15.06.11.11,0,0,1,0,.08A.13.13,0,0,1,261.65,46.28Z"/><path class="cls-8" d="M263.48,49.83l-.06.16a.56.56,0,0,1-.1.15.33.33,0,0,1-.13.11.3.3,0,0,1-.16,0,.29.29,0,0,1-.14,0,.24.24,0,0,1-.09-.08.21.21,0,0,1,0-.12h0a.27.27,0,0,1,0-.12c0-.09.07-.17.1-.26a1.25,1.25,0,0,0,.09-.25,1.36,1.36,0,0,0,0-.17v0s0-.07,0-.1a.15.15,0,0,0-.15-.1.44.44,0,0,0-.31.11,1.09,1.09,0,0,0-.22.28l-.23.8a.11.11,0,0,1-.06.07.11.11,0,0,1-.08,0,.09.09,0,0,1-.07,0s0,0,0,0v0l.26-.9a.61.61,0,0,0,0-.17v0a.09.09,0,0,0-.1-.08c-.06,0-.1,0-.14.11a2.91,2.91,0,0,0-.1.28s0,0,0,0h0s0,0,0,0h0s0-.09,0-.14a.52.52,0,0,1,.07-.15A.29.29,0,0,1,262,49a.25.25,0,0,1,.15-.05.28.28,0,0,1,.29.24.62.62,0,0,1,.22-.17.51.51,0,0,1,.28-.07l.18,0a.24.24,0,0,1,.12.1.24.24,0,0,1,.05.16h0a.68.68,0,0,1,0,.19,1.61,1.61,0,0,1-.09.26c0,.08-.06.17-.1.26a.45.45,0,0,0,0,.2c0,.05,0,.08.08.08a.2.2,0,0,0,.11,0,.38.38,0,0,0,.09-.09.47.47,0,0,0,.07-.12.75.75,0,0,0,.05-.16.05.05,0,0,1,0,0h.07Z"/><path class="cls-9" d="M267.29,48.67l-.1.27a1.38,1.38,0,0,1-.17.25,1,1,0,0,1-.21.19.68.68,0,0,1-.28.07.52.52,0,0,1-.23-.05.34.34,0,0,1-.15-.14.38.38,0,0,1,0-.19v0a.52.52,0,0,1,0-.21,3.25,3.25,0,0,0,.18-.43,3.12,3.12,0,0,0,.15-.43,1.4,1.4,0,0,0,.06-.28v-.09a.44.44,0,0,0,0-.16.24.24,0,0,0-.24-.17.78.78,0,0,0-.52.18,1.62,1.62,0,0,0-.37.49L265,49.29a.23.23,0,0,1-.1.12.23.23,0,0,1-.14,0,.15.15,0,0,1-.11,0,.09.09,0,0,1,0-.07s0,0,0-.05l.44-1.53a1,1,0,0,0,0-.28v-.06a.14.14,0,0,0-.16-.14c-.1,0-.17.07-.23.19a2.62,2.62,0,0,0-.17.48.08.08,0,0,1-.08,0h-.06s0,0,0,0h0c0-.08.05-.16.07-.25a1.15,1.15,0,0,1,.12-.25.55.55,0,0,1,.17-.2.36.36,0,0,1,.25-.08.54.54,0,0,1,.35.11.46.46,0,0,1,.13.3,1.17,1.17,0,0,1,.37-.3,1,1,0,0,1,.48-.11.73.73,0,0,1,.3,0,.39.39,0,0,1,.21.17.43.43,0,0,1,.08.27h0a1.12,1.12,0,0,1-.05.31,3.26,3.26,0,0,1-.15.44c-.05.15-.11.29-.17.44a.86.86,0,0,0-.09.34c0,.09,0,.14.13.14a.31.31,0,0,0,.19-.06.5.5,0,0,0,.15-.14.66.66,0,0,0,.12-.22,1.06,1.06,0,0,0,.09-.25.08.08,0,0,1,.07-.05h.07s0,0,0,0Z"/><path class="cls-6" d="M205.34,51.45A2.37,2.37,0,0,0,207.56,53h26.56a2.09,2.09,0,0,1,2,1.38h.25a2.09,2.09,0,0,1,2-1.38h26.56a2.37,2.37,0,0,0,2.22-1.55l-.06-.2a2.08,2.08,0,0,1-1.89,1.21H238.31a2.09,2.09,0,0,0-2,1.38h-.25a2.09,2.09,0,0,0-2-1.38H207.29a2.08,2.08,0,0,1-1.89-1.21"/><path class="cls-6" d="M190.28,56.67h.94V56h-.94Zm0,.91h.94v-.64h-.94Zm.94.87v-.61h-.94v.73Zm2.45-2.28h-1.26a4.45,4.45,0,0,0,.59,2A5.43,5.43,0,0,0,193.67,56.17Zm-1.79,0V56h-.29v2.38l.55-.08c0,.11,0,.21,0,.29l-.53.07v.67a4,4,0,0,0,1.19-.94,4.73,4.73,0,0,1-.72-2.25Zm-2.39,2.49.43,0V56h-.36v-.29h2.36v.14H194v.27a5.52,5.52,0,0,1-.82,2.27,3.28,3.28,0,0,0,1.09.87,2.23,2.23,0,0,0-.29.31,4.52,4.52,0,0,1-1-.92,5.25,5.25,0,0,1-1.16,1l-.24-.27v.26h-.37v-.9l-1.68.23Z"/><path class="cls-6" d="M197.47,57.18c.6.32,1.18.64,1.74,1l-.28.33c-.66-.43-1.23-.77-1.7-1Zm-3-1.28h4.6v.32h-1.78a8.82,8.82,0,0,1-.62.83H197v2.62h-.41V57.18a7.67,7.67,0,0,1-1.95,1.5,3.65,3.65,0,0,0-.27-.3,7,7,0,0,0,2.46-2.16H194.5Z"/><path class="cls-6" d="M200.29,56.59h2.82v.3h-2.82Zm2.07,1.09H201v.71h1.32Zm-1.68-.3h2v1.31H201v.22h-.36ZM200,59.61h-.37V55.77h4.12v3.35c0,.31-.19.47-.57.47l-.8,0c0-.1,0-.21-.07-.33l.79,0c.18,0,.27-.07.27-.23v-3H200Z"/><path class="cls-6" d="M204.24,56.71a4.44,4.44,0,0,0,1.24-1.2l.34.19A6.09,6.09,0,0,1,204.43,57C204.38,56.93,204.31,56.82,204.24,56.71Zm2-.87h2.51v.31h-2.51Zm-2,2.2a5.4,5.4,0,0,0,1.36-1.5l.34.18a7.55,7.55,0,0,1-.53.7v2.21H205V57.85a5.88,5.88,0,0,1-.6.52A3.41,3.41,0,0,0,204.22,58ZM206,57.1H209v.31h-.94v1.64c0,.34-.2.52-.6.52h-.83a3.35,3.35,0,0,0-.07-.37c.25,0,.51,0,.76,0s.33-.1.33-.29V57.41H206Z"/><path class="cls-6" d="M210.48,58.77a1.81,1.81,0,0,1-.28.53,2.07,2.07,0,0,1-.48.45h-.08a0,0,0,0,1,0,0,.09.09,0,0,1,0-.05,1.65,1.65,0,0,0,.43-.4,1.55,1.55,0,0,0,.26-.49l0-.08a.35.35,0,0,1-.12.07l-.15,0a.22.22,0,0,1-.2-.09.2.2,0,0,1,0-.11.2.2,0,0,1,0-.07.36.36,0,0,1,.12-.18.39.39,0,0,1,.26-.09.21.21,0,0,1,.16.06.2.2,0,0,1,.08.12.37.37,0,0,1,0,.11v.06Z"/><path class="cls-6" d="M215.94,57.18c.6.32,1.18.64,1.74,1l-.27.33c-.66-.43-1.23-.77-1.7-1Zm-3-1.28h4.6v.32H215.8c-.16.24-.36.51-.62.83h.28v2.62H215V57.18a7.62,7.62,0,0,1-1.94,1.5,3.65,3.65,0,0,0-.27-.3,7,7,0,0,0,2.45-2.16H213Z"/><path class="cls-6" d="M218.76,56.59h2.83v.3h-2.83Zm2.07,1.09h-1.32v.71h1.32Zm-1.67-.3h2v1.31h-1.68v.22h-.35Zm-.67,2.23h-.37V55.77h4.11v3.35c0,.31-.19.47-.56.47l-.81,0a2.33,2.33,0,0,0-.06-.33l.79,0c.18,0,.27-.07.27-.23v-3h-3.37Z"/><path class="cls-6" d="M226.1,58.62h-.37V56.06h.37Zm.7-3h.39v3.46c0,.35-.19.53-.56.53-.18,0-.44,0-.79,0a2.53,2.53,0,0,0-.07-.38c.33,0,.57,0,.73,0s.3-.09.3-.28Zm-3.29,2.19.24-.23c.24.17.47.35.67.51a3.07,3.07,0,0,0,.45-1.05h-1.08a6.42,6.42,0,0,1-.93,1.36,1.91,1.91,0,0,0-.2-.34,6.12,6.12,0,0,0,1.13-2h-1v-.31h2.71v.31h-1.35a6.44,6.44,0,0,1-.25.66h1.34V57a4,4,0,0,1-2.08,2.64,2,2,0,0,0-.3-.25,4.64,4.64,0,0,0,1.32-1.07C224,58.18,223.8,58,223.51,57.78Z"/><path class="cls-6" d="M230.15,57.37l.3-.19a12.12,12.12,0,0,1,.85,1l-.36.21A9.36,9.36,0,0,0,230.15,57.37Zm-.88-.83h-1.09v1h1.09Zm-1.09,2.37h1.09v-1h-1.09Zm1.55-1.83a5.75,5.75,0,0,0,.77-1.55l.4.09c-.08.21-.17.41-.25.59h1.55c0,1.44-.07,2.34-.09,2.71s-.29.65-.8.65c-.29,0-.59,0-.89,0a3,3,0,0,0-.08-.37h0a7.1,7.1,0,0,0,.88.06.41.41,0,0,0,.47-.41c0-.41.06-1.18.08-2.3H230.5a5.8,5.8,0,0,1-.44.71A1.69,1.69,0,0,0,229.73,57.08Zm-1.93-.86h.48q.18-.37.3-.69l.4.1c-.1.21-.19.41-.29.59h1v3.33h-.39v-.32h-1.09v.35h-.38Z"/><path class="cls-6" d="M236,58.05c0,.09-.07.18-.11.27a.72.72,0,0,1-.16.25.79.79,0,0,1-.22.19.5.5,0,0,1-.27.08.41.41,0,0,1-.23-.06.28.28,0,0,1-.15-.13.53.53,0,0,1-.06-.19v0a.54.54,0,0,1,0-.21l.18-.43a3.66,3.66,0,0,0,.15-.43c0-.1,0-.19.06-.28V57a.78.78,0,0,0,0-.16.24.24,0,0,0-.25-.17.76.76,0,0,0-.51.18,1.53,1.53,0,0,0-.37.48l-.4,1.34a.14.14,0,0,1-.09.12.24.24,0,0,1-.14.05.14.14,0,0,1-.11-.05.08.08,0,0,1,0-.07.11.11,0,0,1,0,0l.43-1.52a.79.79,0,0,0,.05-.28v-.06a.14.14,0,0,0-.16-.14.25.25,0,0,0-.23.19,2.49,2.49,0,0,0-.17.47.07.07,0,0,1-.08.05h-.06s0,0,0,0v0c0-.07,0-.15.07-.24a2,2,0,0,1,.11-.26,1.12,1.12,0,0,1,.17-.2.45.45,0,0,1,.26-.08.47.47,0,0,1,.34.12.4.4,0,0,1,.14.29,1.52,1.52,0,0,1,.37-.3,1.06,1.06,0,0,1,.48-.11.73.73,0,0,1,.3.06.42.42,0,0,1,.21.16.5.5,0,0,1,.08.27v0a1.18,1.18,0,0,1,0,.31,3.81,3.81,0,0,1-.15.44,3.93,3.93,0,0,1-.18.43,1.07,1.07,0,0,0-.08.35c0,.09,0,.13.13.13a.41.41,0,0,0,.19,0,.54.54,0,0,0,.15-.15.72.72,0,0,0,.12-.21,2,2,0,0,0,.09-.26.07.07,0,0,1,.07,0H236s0,0,0,0Z"/><path class="cls-6" d="M239.75,55.63l-.07.09a4.26,4.26,0,0,0,2.17,1.6c-.1.14-.18.26-.25.38A5.29,5.29,0,0,1,239.45,56a6.33,6.33,0,0,1-2.17,1.72l-.24-.33a5.67,5.67,0,0,0,2.24-1.8Zm-.53,1.44h.44v2.58h-.44Z"/><path class="cls-6" d="M242.49,55.81h3.76v.32h-3.76ZM242,57h4.67v.32h-1.53V59c0,.16.1.24.29.24h.42q.35,0,.39-.27a5.91,5.91,0,0,0,.08-.6l.42.11c0,.24-.07.44-.1.6s-.3.46-.7.46h-.59c-.41,0-.61-.17-.61-.51V57.35h-1v.13a2.28,2.28,0,0,1-.3,1.31,2.86,2.86,0,0,1-1.23.87l-.28-.28a2.69,2.69,0,0,0,1.12-.75,1.86,1.86,0,0,0,.29-1.13v-.15H242Z"/><path class="cls-6" d="M250,58.92l.21-.22c.34.15.76.34,1.26.59l-.24.26Q250.52,59.18,250,58.92Zm-1.78-.2.25.23c-.49.26-.92.47-1.28.62l-.2-.27A10.67,10.67,0,0,0,248.2,58.72Zm2.2-1a10.39,10.39,0,0,1,1,.8,2.64,2.64,0,0,0-.28.23l-.3-.27-1.31.06v.52c0,.34-.2.5-.6.5h-.58c0-.09,0-.2,0-.34a4.52,4.52,0,0,0,.55,0c.2,0,.3-.07.3-.22v-.47l-1.1,0a4.18,4.18,0,0,0-.56.06l-.19-.33a4.33,4.33,0,0,0,.64-.15c.36-.12.71-.25,1.05-.38l-1.07.08-.36,0-.17-.31a1.75,1.75,0,0,0,.44-.13,6.49,6.49,0,0,0,.59-.28h-1.48V57h2.14v-.29H247.4v-.26h1.68v-.28h-2v-.27h2v-.36h.38v.36h2v.27h-2v.28h1.64v.26h-1.64V57h2.16v.26H249c-.33.16-.66.3-1,.44l1.6-.08.75-.33.27.19c-.83.35-1.65.66-2.46.94l2.4-.11-.42-.34Z"/><path class="cls-6" d="M254.19,58H256v-.81h-1.8ZM256,56.1h-1.8v.81H256Zm-1.8,3H256v-.81h-1.8Zm-2.41-.92a4.33,4.33,0,0,0,.8-1.48h-.74v-.28h.75v-.83h.35v.83h.7v.28h-.7v.73l.19-.18c.22.19.43.37.61.54l-.26.23c-.17-.19-.36-.36-.54-.53v2.17h-.35V57.46a4.14,4.14,0,0,1-.64,1A2,2,0,0,0,251.78,58.15Zm2-2.33h2.54v3.82H256v-.28h-1.8v.28h-.37Z"/><path class="cls-6" d="M256.73,58c.36,0,.75-.11,1.15-.19v-.39h-1v-.27h1v-.3h.36v1.48h-.36v-.22l-1.06.21Zm3.21-1.15h.36v.39a8.08,8.08,0,0,0,.91-.3l.13.28a8.82,8.82,0,0,1-1,.3v.28a.19.19,0,0,0,.22.22h.22c.18,0,.29-.05.31-.16a2.39,2.39,0,0,0,.07-.35,1.9,1.9,0,0,0,.34.11,2.36,2.36,0,0,1-.09.36c-.07.23-.25.34-.56.34h-.38a.44.44,0,0,1-.49-.5Zm1.57,2.25a3.51,3.51,0,0,0-.29.36,3.22,3.22,0,0,1-2-1.42v1.61h-.35V58.11a3.78,3.78,0,0,1-2,1.39,3.5,3.5,0,0,0-.27-.31,3.62,3.62,0,0,0,2.23-1.58v-.93h-2.15V56.4h2.15V56l-1.81,0c0-.08,0-.18-.07-.28q2.43,0,4-.12l.05.29-1.84.07v.39h2.19v.28h-2.19v.87A3.07,3.07,0,0,0,261.51,59.11Z"/><path class="cls-6" d="M263,58.77a1.81,1.81,0,0,1-.28.53,2.24,2.24,0,0,1-.47.45h-.09a0,0,0,0,1,0,0,.09.09,0,0,1,0-.05,1.88,1.88,0,0,0,.44-.4,1.52,1.52,0,0,0,.25-.49l0-.08a.41.41,0,0,1-.11.07l-.15,0a.23.23,0,0,1-.21-.09.2.2,0,0,1,0-.11.2.2,0,0,1,0-.07.32.32,0,0,1,.13-.18.35.35,0,0,1,.25-.09.24.24,0,0,1,.17.06.19.19,0,0,1,.07.12.37.37,0,0,1,0,.11v.06A1.13,1.13,0,0,1,263,58.77Z"/><path class="cls-6" d="M191.9,65h1.8v-.8h-1.8Zm1.8-1.88h-1.8v.81h1.8Zm-1.8,3h1.8v-.81h-1.8Zm-2.41-.92a4.33,4.33,0,0,0,.8-1.48h-.74v-.28h.75v-.84h.35v.84h.7v.28h-.7v.73l.19-.18c.22.19.43.37.61.54l-.26.22c-.17-.18-.35-.35-.54-.52v2.17h-.35V64.44a4.14,4.14,0,0,1-.64,1A2,2,0,0,0,189.49,65.13Zm2-2.33h2.54v3.82h-.37v-.28h-1.8v.28h-.37Z"/><path class="cls-6" d="M194.44,65c.37,0,.75-.1,1.15-.18v-.39h-1v-.27h1v-.3H196v1.48h-.36V65.1l-1.06.21Zm3.21-1.14H198v.38a6.06,6.06,0,0,0,.91-.29l.14.28a7.87,7.87,0,0,1-1.05.29v.29a.19.19,0,0,0,.22.22h.22c.18,0,.29-.05.32-.16s0-.22.06-.35a3.3,3.3,0,0,0,.34.11,1.58,1.58,0,0,1-.09.36c-.07.23-.25.34-.56.34h-.38c-.33,0-.49-.17-.49-.51Zm1.57,2.25c-.1.11-.2.23-.29.35A3.16,3.16,0,0,1,197,65v1.61h-.36V65.09a3.71,3.71,0,0,1-2,1.38c-.08-.09-.16-.19-.27-.3a3.62,3.62,0,0,0,2.23-1.58v-.93h-2.14v-.28h2.14V63l-1.81,0c0-.08,0-.18-.07-.28q2.43,0,4-.12l.05.29L197,63v.4h2.18v.28H197v.87A3,3,0,0,0,199.22,66.09Z"/><path class="cls-6" d="M201.86,64.35l.3-.19a12.12,12.12,0,0,1,.85,1l-.36.21A8.41,8.41,0,0,0,201.86,64.35Zm-.88-.83h-1.09v1H201Zm-1.09,2.37H201V64.83h-1.09Zm1.55-1.83a5.75,5.75,0,0,0,.77-1.55l.4.09c-.08.21-.16.41-.25.59h1.55c0,1.43-.07,2.34-.09,2.71s-.29.65-.8.65c-.29,0-.59,0-.89,0a3,3,0,0,0-.08-.37h0a7,7,0,0,0,.88,0c.29,0,.45-.13.47-.4s.06-1.18.08-2.31h-1.29a6,6,0,0,1-.44.72A1.69,1.69,0,0,0,201.44,64.06Zm-1.93-.86H200c.11-.25.21-.48.29-.69l.41.1c-.11.21-.2.41-.3.59h1v3.33H201v-.32h-1.09v.35h-.38Z"/><path class="cls-6" d="M204.2,66q.88-.15,1.74-.33c0,.11,0,.22,0,.32-.53.09-1.07.2-1.63.33Zm4.14-.79h-1.8v.85h1.8Zm-3.51-.2,1.06-.14c0,.11,0,.22,0,.32l-1.46.19-.08-.3a5.54,5.54,0,0,0,.74-.89l-.74,0-.09-.28a7.66,7.66,0,0,0,.92-1.49l.37.13c-.35.59-.64,1-.86,1.33h.59l.34-.53.36.15Q205.39,64.35,204.83,65Zm1.24-.89h1.18v-.65h-1.34v-.3h1.34v-.67h.38v.67H209v.3h-1.36v.65h1.19v.3h-2.75Zm.1.8h2.55v1.69h-.38v-.25h-1.8v.25h-.37Z"/><path class="cls-6" d="M210.06,63.46h1.28V63h-1.28Zm0,.73h1.28v-.46h-1.28ZM213,63H211.7v.46H213Zm-1.29,1.19H213v-.46H211.7ZM214,66.11a4.16,4.16,0,0,0-.3.31,4,4,0,0,1-2-1.14v1.35h-.36V65.28a5.91,5.91,0,0,1-1.94,1.19l-.29-.26a5.76,5.76,0,0,0,1.85-1h-1.75v-.3h2.13v-.46h-1.28v.17h-.37V62.71h3.67v1.93H213v-.17H211.7v.46h2.15v.3H212A3.9,3.9,0,0,0,214,66.11Z"/><path class="cls-6" d="M215.39,65.75a1.57,1.57,0,0,1-.27.53,1.84,1.84,0,0,1-.48.44h-.08s0,0,0,0,0,0,0,0a1.57,1.57,0,0,0,.44-.41,1.61,1.61,0,0,0,.26-.48v-.08a.24.24,0,0,1-.11.06.4.4,0,0,1-.15,0,.2.2,0,0,1-.2-.09.15.15,0,0,1,0-.11s0,0,0-.07a.38.38,0,0,1,.13-.18.37.37,0,0,1,.26-.09.25.25,0,0,1,.16,0,.35.35,0,0,1,.08.13s0,.07,0,.11v.06A1.16,1.16,0,0,1,215.39,65.75Z"/><path class="cls-6" d="M221.63,65.23l.27-.15a4.26,4.26,0,0,1,.46.57l-.3.17A5.15,5.15,0,0,0,221.63,65.23Zm1.9-2.29.22-.22c.26.16.5.32.74.49l-.25.24C224.09,63.33,223.85,63.16,223.53,62.94Zm-3,2.2.32.1a4.93,4.93,0,0,1-.54.94A2.26,2.26,0,0,0,220,66,4.19,4.19,0,0,0,220.55,65.14ZM221.92,64h-1.23v.6h1.23Zm-1.86-.94h1.19a4.44,4.44,0,0,0-.3-.46l.32-.13a4.25,4.25,0,0,1,.32.46l-.31.13h1.25v.29h-2.47Zm.29.66h1.91V65h-.34v-.1h-.45v1.24c0,.28-.16.42-.49.42h-.42a1.32,1.32,0,0,0-.08-.33,3.25,3.25,0,0,0,.44,0c.15,0,.22-.06.22-.19V64.89h-.45V65h-.34Zm2,0h.51c0-.23,0-.62,0-1.19h.36c0,.52,0,.92,0,1.19h1.42V64h-.86v2c0,.14.06.2.17.2h.16c.14,0,.22-.08.25-.25a4.65,4.65,0,0,0,.06-.64l.36.13a5.77,5.77,0,0,1-.08.61.49.49,0,0,1-.54.45h-.32c-.28,0-.42-.14-.42-.44V64h-.21a3.54,3.54,0,0,1-1.09,2.64l-.28-.24a3.14,3.14,0,0,0,1-2.4h-.49Z"/><path class="cls-6" d="M228.59,63H226v.36h2.55ZM226,64h2.55V63.6H226ZM225.91,65l.37.1a3,3,0,0,1-.18.41,1.53,1.53,0,0,0,1.1.62V64.9H225v-.29h4.64v.29h-2.06v.42h1.72v.28h-1.72v.59c.62,0,1.34,0,2.15,0l-.13.33h-2.18a1.71,1.71,0,0,1-1.48-.66,2.8,2.8,0,0,1-.84.84,2.6,2.6,0,0,0-.23-.28A2.25,2.25,0,0,0,225.91,65Zm-.24-2.36H229v1.75h-.36v-.17H226v.17h-.37Z"/><path class="cls-6" d="M231.72,65.14l.23-.22.65.46-.26.24C232.09,65.42,231.89,65.26,231.72,65.14Zm0-1.06.23-.22.65.46-.26.25C232.18,64.4,232,64.23,231.76,64.08Zm-1.94-.37a4.08,4.08,0,0,0,1.12-1.23h.43a3,3,0,0,1-.24.38h3.36v.3h-3.58a4.65,4.65,0,0,1-.85.81Zm3.72.13h-2.45l-.15.76h2.57Zm0,1.06h-2.62l-.16.76h2.74C233.47,65.41,233.49,65.16,233.5,64.9Zm-3.66-.3h.71l.21-1H234c0,.37,0,.72,0,1h.71v.3h-.72c0,.27,0,.52,0,.76h.58V66h-.61a.78.78,0,0,1-.19.44,1,1,0,0,1-.66.18h-.69c0-.1,0-.21-.07-.34l.71,0a.6.6,0,0,0,.4-.1.35.35,0,0,0,.1-.21h-3.09v-.31l.15-.74h-.64Z"/><rect x="234.73" y="64.26" width="4.8" height="0.37"/><path class="cls-6" d="M242.65,64.14H243v.65a2,2,0,0,1-.14.76c.56.27,1.07.53,1.52.79l-.26.29a15.73,15.73,0,0,0-1.41-.8l-.07.09a3,3,0,0,1-1.37.77l-.24-.29a2.65,2.65,0,0,0,1.3-.69,1.35,1.35,0,0,0,.29-.93Zm-3.06,1.48.73-.14V63.26h-.66V63h1.65v.3h-.62V65.4l.69-.15q0,.21,0,.33L239.7,66Zm2-2h.89l.14-.53h-1.14v-.29h2.92v.29H243l-.16.53h1.27v2.18h-.38V63.87h-1.81v1.89h-.37Z"/><path class="cls-6" d="M247.1,64.35l.3-.19a12.12,12.12,0,0,1,.85,1l-.36.21A8.41,8.41,0,0,0,247.1,64.35Zm-.88-.83h-1.09v1h1.09Zm-1.09,2.37h1.09V64.83h-1.09Zm1.55-1.83a5.75,5.75,0,0,0,.77-1.55l.4.09c-.08.21-.16.41-.25.59h1.55c0,1.43-.07,2.34-.09,2.71s-.29.65-.8.65c-.29,0-.59,0-.89,0a3,3,0,0,0-.08-.37h0a7,7,0,0,0,.88,0c.29,0,.45-.13.47-.4s.06-1.18.08-2.31h-1.29a6,6,0,0,1-.44.72A1.69,1.69,0,0,0,246.68,64.06Zm-1.93-.86h.49c.11-.25.21-.48.29-.69l.41.1c-.11.21-.2.41-.3.59h1v3.33h-.39v-.32h-1.09v.35h-.38Z"/><path class="cls-6" d="M251.47,65.57h2v-.38h-2Zm0-.65h2v-.37h-2Zm2-1h-2v.38h2Zm-2,2.31h2v-.38h-2Zm-2-1.64a6.33,6.33,0,0,0,1-2l.35.09a7.11,7.11,0,0,1-.42,1v3H250V64.29a5.73,5.73,0,0,1-.44.62A2.07,2.07,0,0,0,249.43,64.57Zm1.2,1.64h.49V63.63h1.14v-.38h-1.4V63h1.4v-.44h.36V63h1.52v.29h-1.52v.38h1.17v2.58h.46v.29h-3.62Z"/><path class="cls-6" d="M255.74,65.49a.32.32,0,0,1-.14.19.41.41,0,0,1-.24.08.24.24,0,0,1-.19-.08.18.18,0,0,1,0-.12s0,0,0-.07a.34.34,0,0,1,.15-.19.41.41,0,0,1,.24-.08.28.28,0,0,1,.2.08.28.28,0,0,1,0,.12A.25.25,0,0,1,255.74,65.49Z"/><path class="cls-6" d="M189.72,70.63c.23.14.52.33.86.57l-.29.27q-.51-.41-.81-.6Zm.19-1.08a7.14,7.14,0,0,1,.83.61l-.29.25a9.78,9.78,0,0,0-.79-.63Zm.25,2.28.38.14c-.18.49-.36,1-.56,1.61l-.41-.13C189.77,73,190,72.44,190.16,71.83Zm.51,1.21h1.62V71.85H191v-.32h1.25v-1H190.9V70.2h1.54c-.15-.2-.3-.39-.46-.57l.32-.17a5.71,5.71,0,0,1,.51.58l-.3.16h1.62v.32H192.7v1H194v.32H192.7V73h1.56v.32h-3.59Z"/><path class="cls-6" d="M198.32,72.71l.28-.18c.23.21.43.41.61.6l-.3.21C198.71,73.11,198.51,72.9,198.32,72.71Zm-3.49-.17.34.11a7.19,7.19,0,0,1-.41.77l-.33-.13A6.26,6.26,0,0,0,194.83,72.54Zm2.53-2.06c.13-.09.27-.21.43-.34h-2a4.43,4.43,0,0,1,.42.29l-.14.13h1.42Zm.78.81h-2.72v.29h2.72Zm-2.72.83h2.72v-.3h-2.72Zm.18.4H196V73c0,.16.1.24.31.24h1c.24,0,.37-.08.41-.23a1.77,1.77,0,0,0,.09-.38l.36.12c0,.16-.07.29-.1.38-.08.26-.3.39-.65.39h-1.17c-.41,0-.61-.16-.61-.49Zm-1.16-2h1.36q-.2-.16-.39-.3l.15-.12h-.82v-.25h1.92a2.63,2.63,0,0,0-.2-.33l.33-.12.27.45h1.79v.25H198l.17.11-.4.31h1.37v.25h-4.71Zm2,2,.24-.18h-1.24v.13h-.36V71h3.44v1.45h-.36v-.13h-1.47c.21.16.4.31.56.45l-.29.21A6.66,6.66,0,0,0,196.42,72.54Z"/><path class="cls-6" d="M200.91,72.47a.28.28,0,0,1-.14.19.41.41,0,0,1-.24.08.24.24,0,0,1-.19-.08.21.21,0,0,1-.05-.12s0,0,0-.07a.31.31,0,0,1,.15-.19.41.41,0,0,1,.24-.08.28.28,0,0,1,.2.08.28.28,0,0,1,0,.12A.25.25,0,0,1,200.91,72.47Zm.48-1.64a.33.33,0,0,1-.14.19.46.46,0,0,1-.24.08.25.25,0,0,1-.2-.08.17.17,0,0,1-.05-.12.25.25,0,0,1,0-.07.31.31,0,0,1,.14-.19.41.41,0,0,1,.24-.08.28.28,0,0,1,.2.08.2.2,0,0,1,0,.13A.13.13,0,0,1,201.39,70.83Z"/><path class="cls-6" d="M207.62,69.6l.34-.14c.1.13.21.31.35.52l-.35.15C207.84,69.93,207.73,69.75,207.62,69.6Zm-2,0c.16.17.39.43.68.79l-.35.21c-.26-.36-.47-.63-.64-.82Zm.83.57h3.26v.3h-3.26Zm.27.83.23-.22,1.16.83a3.64,3.64,0,0,0,.74-1.08l.37.15a4.7,4.7,0,0,1-.81,1.14l1.14.85-.3.28-1.11-.87a5.24,5.24,0,0,1-1.55.89l-.24-.28a4.72,4.72,0,0,0,1.5-.84C207.39,71.46,207,71.17,206.73,71Zm.27,2.21,1.26,0,1.57,0c0,.09-.08.2-.13.33h-1.56l-1.18,0A1.36,1.36,0,0,1,205.8,73a5.52,5.52,0,0,0-.57.56l-.2-.35.62-.51V71.28h-.58V71h1v1.79A1.15,1.15,0,0,0,207,73.18Z"/><path class="cls-6" d="M210.81,70.57h1.34V70h-1.34Zm0,.85h1.34v-.56h-1.34Zm1.74,0h1.35v-.56h-1.35ZM213.9,70h-1.35v.57h1.35ZM210,73.1h2.19v-.55h-1.9v-.29h1.9v-.55h-1.34v.15h-.38V69.71h3.84v2.15h-.37v-.15h-1.35v.55h1.91v.29h-1.91v.55h2.22v.3H210Z"/><path class="cls-6" d="M216.69,71.43h1.13v-.55h-1.13Zm0,.83h1.13V71.7h-1.13Zm0,.82h1.13v-.56h-1.13Zm-1.12,0h.77v-2.2h-.77Zm3.37-2.2h-.78v2.2h.78Zm-3.75-.28h1.53c.1-.21.17-.4.23-.55h-2v-.31h4.64v.31h-2.2l-.26.55h2.19v3h-.37v-.23h-3.37v.24h-.38Z"/><path class="cls-6" d="M221.13,72.73a1.6,1.6,0,0,1-.28.53,1.8,1.8,0,0,1-.47.44h-.09s0,0,0,0,0,0,0,0a1.91,1.91,0,0,0,.44-.41,1.38,1.38,0,0,0,.25-.48l0-.08a.24.24,0,0,1-.11.06.4.4,0,0,1-.15,0,.23.23,0,0,1-.21-.09.2.2,0,0,1,0-.11.17.17,0,0,1,0-.07.38.38,0,0,1,.13-.19.41.41,0,0,1,.25-.08.29.29,0,0,1,.17,0,.24.24,0,0,1,.07.13.37.37,0,0,1,0,.11v.05A.58.58,0,0,1,221.13,72.73Z"/><path class="cls-6" d="M227.43,71.81V71h-.93v.8Zm.8-2a17.79,17.79,0,0,0,2.09-.19l.13.32c-.8.08-1.43.13-1.86.15V71h1.95v.29h-.75v2.26h-.36V71.33h-.84v.24a2.63,2.63,0,0,1-.85,2.07l-.27-.28a2.28,2.28,0,0,0,.76-1.8Zm-2.08,0a10,10,0,0,0,1.68-.17l.12.31c-.47.07-1,.11-1.45.14v.65h1.27v1.54h-.34v-.18h-1a2.89,2.89,0,0,1-.5,1.52l-.27-.26a2.66,2.66,0,0,0,.44-1.73Z"/><path class="cls-6" d="M231.43,70.63h.94V70h-.94Zm0,.9h.94v-.64h-.94Zm.94.88V71.8h-.94v.73Zm2.45-2.29h-1.26a4.37,4.37,0,0,0,.59,2A5.36,5.36,0,0,0,234.82,70.12Zm-1.78,0V70h-.3v2.37l.55-.07c0,.11,0,.21,0,.28l-.53.08v.67a4,4,0,0,0,1.19-.94,4.81,4.81,0,0,1-.72-2.26Zm-2.4,2.5.43-.05V70h-.36v-.3h2.36v.15h2.11v.26a5.52,5.52,0,0,1-.82,2.28,3.13,3.13,0,0,0,1.09.86c-.09.08-.18.19-.29.31a4.64,4.64,0,0,1-1-.91,4.75,4.75,0,0,1-1.16,1l-.24-.26v.26h-.37v-.91l-1.68.24Z"/><polygon class="cls-6" points="239.42 71.6 239.42 71.44 238.15 71.44 238.15 73.08 239.56 73.08 239.56 71.89 239.97 71.89 239.97 73.55 239.56 73.55 239.56 73.4 235.93 73.4 235.93 71.89 236.34 71.89 236.34 73.08 237.73 73.08 237.73 71.44 236.06 71.44 236.06 69.94 236.47 69.94 236.47 71.12 237.73 71.12 237.73 69.55 238.15 69.55 238.15 71.12 239.42 71.12 239.42 69.94 239.83 69.94 239.83 71.6 239.42 71.6"/><path class="cls-6" d="M243,71.32l.3-.18a12,12,0,0,1,.85.94l-.35.22A11.13,11.13,0,0,0,243,71.32Zm-.88-.82h-1.08v1h1.08Zm-1.08,2.37h1.08V71.81h-1.08ZM242.59,71a5.9,5.9,0,0,0,.77-1.55l.4.09c-.08.21-.16.4-.25.59h1.57c0,1.43-.07,2.33-.1,2.71s-.29.65-.81.65l-.89,0a2,2,0,0,0-.08-.38h0a7.1,7.1,0,0,0,.88.06c.3,0,.46-.13.48-.4s.06-1.18.08-2.31h-1.3a5.12,5.12,0,0,1-.44.71A1.75,1.75,0,0,0,242.59,71Zm-1.93-.86h.49c.12-.25.21-.48.29-.69l.41.1c-.1.21-.2.41-.3.59h1v3.33h-.39v-.32h-1.08v.35h-.39Z"/><path class="cls-6" d="M247.29,72.12l.22-.22.65.46-.26.24C247.66,72.4,247.45,72.24,247.29,72.12Zm0-1.06.23-.22c.25.16.46.32.65.45l-.26.26C247.74,71.38,247.53,71.21,247.32,71.06Zm-1.94-.37a4,4,0,0,0,1.12-1.23h.43a3,3,0,0,1-.24.38h3.37v.3h-3.59a4.65,4.65,0,0,1-.85.81Zm3.72.13h-2.45l-.15.75h2.58C249.09,71.33,249.1,71.08,249.1,70.82Zm0,1.06h-2.62l-.15.76H249C249,72.39,249.05,72.14,249.06,71.88Zm-3.66-.31h.71l.21-1h3.2c0,.37,0,.72-.06,1h.71v.31h-.72c0,.27,0,.52,0,.76H250v.29h-.61a.72.72,0,0,1-.19.44,1,1,0,0,1-.66.18h-.69c0-.1,0-.21-.07-.34l.71,0a.53.53,0,0,0,.4-.11.29.29,0,0,0,.1-.2h-3.09v-.31l.15-.74h-.64Z"/><path class="cls-6" d="M253,69.58l-.07.1a4.22,4.22,0,0,0,2.17,1.6c-.1.13-.19.26-.26.37A5.17,5.17,0,0,1,252.69,70a6.1,6.1,0,0,1-2.17,1.72c-.07-.1-.15-.21-.25-.33a5.44,5.44,0,0,0,2.24-1.8ZM252.46,71h.44v2.59h-.44Z"/><path class="cls-6" d="M255.72,69.77h3.75v.32h-3.75ZM255.26,71h4.66v.31H258.4v1.63c0,.17.1.25.29.25h.41c.23,0,.37-.09.4-.28a5.66,5.66,0,0,0,.07-.59l.42.11a5.31,5.31,0,0,1-.1.6c-.06.3-.3.46-.7.46h-.59c-.4,0-.61-.17-.61-.52V71.3h-1v.14a2.2,2.2,0,0,1-.31,1.31,2.81,2.81,0,0,1-1.22.87,2.35,2.35,0,0,0-.29-.28,2.74,2.74,0,0,0,1.13-.75,1.88,1.88,0,0,0,.28-1.14V71.3h-1.34Z"/><path class="cls-6" d="M263.2,72.88l.21-.23c.35.15.77.35,1.26.59l-.24.27Q263.74,73.12,263.2,72.88Zm-1.77-.21.24.24c-.49.26-.92.46-1.28.62-.05-.07-.11-.16-.2-.27A8.91,8.91,0,0,0,261.43,72.67Zm2.2-1c.38.28.72.55,1,.8l-.29.24-.29-.27-1.31.06v.52c0,.33-.21.5-.61.5h-.57c0-.09,0-.21-.06-.34l.55,0c.21,0,.31-.08.31-.22v-.48l-1.1,0a4,4,0,0,0-.56.06l-.2-.34a4,4,0,0,0,.64-.15c.36-.12.71-.24,1-.37l-1.06.07-.37,0-.17-.3a3.52,3.52,0,0,0,.45-.13l.59-.28h-1.48v-.26h2.13v-.29h-1.68v-.27h1.68v-.28h-1.95v-.26h1.95v-.36h.39v.36h2v.26h-2v.28h1.63v.27h-1.63v.29h2.15v.26h-2.61c-.32.15-.65.3-1,.44l1.59-.08.75-.33.27.19q-1.23.53-2.46.93c.81,0,1.61-.06,2.41-.1l-.42-.34Z"/><path class="cls-6" d="M192.05,78.3l.29-.19c.36.37.64.69.86,1l-.36.22A11,11,0,0,0,192.05,78.3Zm-.88-.83h-1.09v1h1.09Zm-1.09,2.38h1.09V78.79h-1.09ZM191.62,78a5.61,5.61,0,0,0,.77-1.55l.41.08-.25.6h1.55c0,1.43-.07,2.33-.1,2.7s-.28.66-.79.66l-.9,0a3.25,3.25,0,0,0-.07-.38h0a7.22,7.22,0,0,0,.88.06c.3,0,.45-.13.48-.4s.06-1.18.07-2.31h-1.29a5.12,5.12,0,0,1-.43.71A2.27,2.27,0,0,0,191.62,78Zm-1.93-.86h.49q.18-.37.3-.69l.4.1-.29.59h1v3.33h-.38v-.33h-1.09v.36h-.39Z"/><path class="cls-9" d="M197.81,79.55h-.37V77h.37Zm.7-3h.39V80a.49.49,0,0,1-.56.54h-.79a2.32,2.32,0,0,0-.07-.38l.73,0c.2,0,.3-.1.3-.28Zm-3.29,2.19.24-.23c.24.17.47.34.67.51a3.15,3.15,0,0,0,.45-1H195.5a5.79,5.79,0,0,1-.93,1.35,2.18,2.18,0,0,0-.2-.33,6.17,6.17,0,0,0,1.13-2h-1v-.3h2.71V77h-1.35c-.07.23-.16.45-.25.67H197V78a4,4,0,0,1-2.08,2.65,2.81,2.81,0,0,0-.3-.26,4.33,4.33,0,0,0,1.32-1.07C195.74,79.12,195.51,78.93,195.22,78.72Z"/><path class="cls-9" d="M201.5,78.65l.36.12c-.27.51-.53,1-.79,1.36l-.35-.15A9.18,9.18,0,0,0,201.5,78.65Zm1.55.14.34-.14c.3.5.56.95.76,1.33l-.39.15A14.6,14.6,0,0,0,203.05,78.79Zm-1.78-2.06h2.57V77h-2.57ZM201.05,78h3v.3h-1.33V80c0,.35-.19.52-.56.52h-.64c0-.11,0-.22-.07-.35l.61,0c.19,0,.29-.1.29-.31V78.25h-1.31Zm-1.76,1.13a4.06,4.06,0,0,0,.73-1.49h-.7V77.3h.74v-.82h.34v.82h.65v.29h-.65v.74l.2-.19c.21.15.39.3.55.44l-.26.23-.49-.46v2.21h-.34V78.3a4,4,0,0,1-.61,1.15A3.76,3.76,0,0,0,199.29,79.08Z"/><path class="cls-6" d="M205.57,79.71a1.81,1.81,0,0,1-.28.53,2.19,2.19,0,0,1-.47.44h-.09v0s0,0,0-.05a1.91,1.91,0,0,0,.44-.41,1.38,1.38,0,0,0,.25-.48l0-.08a.23.23,0,0,1-.12.06.32.32,0,0,1-.14,0,.23.23,0,0,1-.21-.08.2.2,0,0,1,0-.11.17.17,0,0,1,0-.07.38.38,0,0,1,.13-.19.39.39,0,0,1,.25-.08.29.29,0,0,1,.17,0,.24.24,0,0,1,.07.13.37.37,0,0,1,0,.11v0A1.08,1.08,0,0,1,205.57,79.71Z"/><path class="cls-6" d="M211.64,76.91h-2.55v.37h2.55Zm-2.55,1h2.55v-.37h-2.55ZM209,79l.37.09a2.65,2.65,0,0,1-.18.42,1.57,1.57,0,0,0,1.1.62V78.86h-2.2v-.29h4.65v.29h-2.07v.42h1.72v.28h-1.72v.58c.62,0,1.34,0,2.16,0,0,.12-.1.23-.13.33-1,0-1.69,0-2.2,0a1.67,1.67,0,0,1-1.47-.65,2.66,2.66,0,0,1-.84.83l-.23-.27A2.25,2.25,0,0,0,209,79Zm-.24-2.36H212v1.74h-.36v-.16h-2.55v.16h-.37Z"/><path class="cls-6" d="M213.66,77.6h1V77h-1Zm0,.91h1v-.64h-1Zm1,.88v-.61h-1v.73Zm2.44-2.29h-1.26a4.41,4.41,0,0,0,.59,2A5.36,5.36,0,0,0,217.05,77.1Zm-1.78,0V77H215v2.38l.55-.08c0,.12,0,.22,0,.29l-.53.07v.68a3.87,3.87,0,0,0,1.19-1,4.73,4.73,0,0,1-.72-2.25Zm-2.4,2.5.43,0V77h-.36v-.29h2.36v.15h2.11v.26a5.41,5.41,0,0,1-.82,2.27,3,3,0,0,0,1.09.87c-.09.08-.18.19-.29.31a4.91,4.91,0,0,1-1-.91,4.75,4.75,0,0,1-1.16,1l-.24-.26v.26h-.36v-.91l-1.69.24Z"/><path class="cls-9" d="M221.67,77.34h-3V78h3Zm-3,1.69h3v-.7h-3Zm0,1h3v-.71h-3Zm-.38-3h1.24c.07-.16.15-.35.23-.58l.41.11c-.08.17-.16.33-.24.47h2.1v3.54h-.38v-.25h-3v.25h-.38Z"/><path class="cls-9" d="M226.44,76.76l.22-.19.63.48-.25.22Q226.79,77,226.44,76.76Zm-1.11,2.94.32-.12c.17.24.32.5.47.76l-.35.13C225.63,80.19,225.48,79.94,225.33,79.7Zm-1.2,0,.31-.13c.16.24.31.5.46.78l-.35.14C224.43,80.27,224.29,80,224.13,79.73Zm-.81-.18.35.11a7.15,7.15,0,0,1-.52.91l-.35-.13A4.65,4.65,0,0,0,223.32,79.55Zm3.19.07.31-.16c.24.32.45.6.62.85l-.34.18C226.93,80.23,226.74,79.94,226.51,79.62Zm-1.44-2.16h.77c0-.28,0-.6,0-1h.37c0,.37,0,.69,0,1h1.2v.3h-1.15a2.12,2.12,0,0,0,1.26,1.4l-.3.29a2.3,2.3,0,0,1-1.15-1.32,2.52,2.52,0,0,1-1.36,1.36,2.6,2.6,0,0,0-.24-.27,2.09,2.09,0,0,0,1.34-1.46h-.74Zm-2.43.67a4.83,4.83,0,0,0,1.06-1.68l.36.11-.15.32h1.15v.31a3.36,3.36,0,0,1-2,2.39l-.27-.25a3.74,3.74,0,0,0,1.09-.71c-.21-.14-.42-.26-.62-.38l.17-.22.66.38a2.74,2.74,0,0,0,.23-.31c-.21-.13-.43-.25-.66-.37l.16-.22a5.64,5.64,0,0,1,.65.33,2.59,2.59,0,0,0,.23-.64h-.93a7.33,7.33,0,0,1-.85,1.18Z"/><path class="cls-9" d="M227.62,77.24h.58v-.77h.36v.77H229v.29h-.48v.78l.46-.2a3,3,0,0,0,0,.33l-.5.22v1.46c0,.28-.17.43-.52.43h-.4a2.33,2.33,0,0,0-.06-.35l.42,0a.18.18,0,0,0,.2-.19v-1.2l-.56.25,0-.37.61-.24v-.94h-.58ZM229,79.33h1V78.6h-.77v-.32H230v-.72h-.76v-.32H230v-.77h.37v4.12H230v-.94h-1Zm2-2.86h.38v.77h1v.32h-1v.72h.9v.32h-.9v.73h1.1v.32h-1.1v.94h-.38Z"/><path class="cls-9" d="M235.92,79.55h-.37V77h.37Zm.69-3H237V80a.48.48,0,0,1-.55.54h-.79a2.33,2.33,0,0,0-.08-.38l.73,0c.2,0,.3-.1.3-.28Zm-3.28,2.19.23-.23a7.8,7.8,0,0,1,.67.51,3.17,3.17,0,0,0,.46-1H233.6a5.79,5.79,0,0,1-.93,1.35,2.25,2.25,0,0,0-.19-.33,6.15,6.15,0,0,0,1.12-2h-1v-.3h2.7V77H234c-.08.23-.16.45-.26.67h1.34V78A4,4,0,0,1,233,80.6a2.81,2.81,0,0,0-.3-.26A4.26,4.26,0,0,0,234,79.27Z"/><path class="cls-6" d="M238.79,79.45a.32.32,0,0,1-.14.19.4.4,0,0,1-.24.07.2.2,0,0,1-.19-.08.16.16,0,0,1-.05-.11s0,0,0-.07a.33.33,0,0,1,.14-.19.46.46,0,0,1,.25-.08.24.24,0,0,1,.19.08.19.19,0,0,1,0,.12A.2.2,0,0,1,238.79,79.45Z"/><path class="cls-8" d="M189.52,84.62a4.7,4.7,0,0,0,1.24-1.19l.34.18A6.13,6.13,0,0,1,189.71,85C189.65,84.84,189.59,84.73,189.52,84.62Zm2-.87H194v.31h-2.51Zm-2,2.2a5.36,5.36,0,0,0,1.36-1.49l.33.18a7.32,7.32,0,0,1-.52.69v2.22h-.4V85.76a7.46,7.46,0,0,1-.61.53A3.54,3.54,0,0,0,189.5,86Zm1.74-.94h3.06v.32h-.94V87c0,.35-.2.52-.6.52h-.83c0-.11,0-.24-.07-.38.25,0,.5,0,.76,0s.33-.09.33-.28V85.33h-1.71Z"/><path class="cls-8" d="M196.59,85.62l.36.13a14.9,14.9,0,0,1-.79,1.36l-.35-.15A8.82,8.82,0,0,0,196.59,85.62Zm1.55.15.34-.15c.31.51.56,1,.76,1.34l-.38.14C198.65,86.67,198.41,86.23,198.14,85.77Zm-1.78-2.06h2.57V84h-2.57Zm-.22,1.22h3v.3h-1.33V87c0,.35-.19.53-.56.53h-.64c0-.1,0-.21-.06-.34l.6,0c.2,0,.29-.1.29-.31V85.23h-1.31Zm-1.76,1.13a4.08,4.08,0,0,0,.74-1.49h-.7v-.29h.73v-.82h.34v.82h.66v.29h-.66v.74l.21-.19c.2.15.38.3.54.44l-.25.23-.5-.46v2.21h-.34V85.27a3.81,3.81,0,0,1-.61,1.16A3.76,3.76,0,0,0,194.38,86.06Z"/><path class="cls-6" d="M200.66,86.68a1.55,1.55,0,0,1-.28.54,2,2,0,0,1-.47.44h-.09a0,0,0,0,0,0,0,.05.05,0,0,1,0,0,1.93,1.93,0,0,0,.44-.41,1.42,1.42,0,0,0,.25-.49l0-.07-.11.06a.39.39,0,0,1-.15,0,.26.26,0,0,1-.21-.08.23.23,0,0,1,0-.11.15.15,0,0,1,0-.07.38.38,0,0,1,.13-.19.42.42,0,0,1,.26-.08.25.25,0,0,1,.16,0,.21.21,0,0,1,.07.13.36.36,0,0,1,0,.11v0A.8.8,0,0,1,200.66,86.68Z"/><path class="cls-6" d="M206.73,83.89h-2.55v.37h2.55Zm-2.55,1h2.55v-.37h-2.55ZM204.06,86l.36.09a4.08,4.08,0,0,1-.17.42,1.55,1.55,0,0,0,1.09.62V85.84h-2.2v-.3h4.64v.3h-2.05v.42h1.71v.28h-1.71v.58c.61,0,1.33,0,2.14,0-.05.12-.09.23-.13.34l-2.18,0a1.7,1.7,0,0,1-1.48-.65,2.74,2.74,0,0,1-.83.83l-.24-.27A2.23,2.23,0,0,0,204.06,86Zm-.25-2.36h3.29v1.74h-.37v-.17h-2.55v.17h-.37Z"/><path class="cls-6" d="M211.45,86l-.1.27a1.38,1.38,0,0,1-.17.25.76.76,0,0,1-.21.19.55.55,0,0,1-.28.07.52.52,0,0,1-.23,0,.38.38,0,0,1-.15-.13.42.42,0,0,1-.05-.2v0a.56.56,0,0,1,0-.21,3.25,3.25,0,0,0,.18-.43,3.12,3.12,0,0,0,.15-.43,1.4,1.4,0,0,0,.06-.28v-.09a.44.44,0,0,0,0-.16.24.24,0,0,0-.24-.17.8.8,0,0,0-.52.18,1.62,1.62,0,0,0-.37.49l-.39,1.34a.23.23,0,0,1-.1.12.23.23,0,0,1-.14,0,.15.15,0,0,1-.11,0,.08.08,0,0,1,0-.07v0l.44-1.53a1,1,0,0,0,0-.28v-.06a.14.14,0,0,0-.16-.14c-.09,0-.17.07-.23.19a2.62,2.62,0,0,0-.17.48.08.08,0,0,1-.08,0h-.06s0,0,0,0h0c0-.08,0-.16.07-.25a1.15,1.15,0,0,1,.12-.25.55.55,0,0,1,.17-.2.36.36,0,0,1,.25-.08.54.54,0,0,1,.35.11.46.46,0,0,1,.13.29,1.28,1.28,0,0,1,.37-.29,1,1,0,0,1,.78-.06.44.44,0,0,1,.21.17.43.43,0,0,1,.08.27h0a1.12,1.12,0,0,1-.05.31,3.26,3.26,0,0,1-.15.44c0,.15-.11.29-.17.44a.86.86,0,0,0-.09.34c0,.09,0,.14.13.14a.31.31,0,0,0,.19-.06.5.5,0,0,0,.15-.14.66.66,0,0,0,.12-.22,1.06,1.06,0,0,0,.09-.25s0,0,.07,0h.07s0,0,0,0Z"/><path class="cls-6" d="M215.22,83.54l-.07.1a4.26,4.26,0,0,0,2.17,1.59l-.26.38A5.27,5.27,0,0,1,214.91,84a6,6,0,0,1-2.16,1.72c-.07-.1-.16-.21-.26-.33a5.48,5.48,0,0,0,2.25-1.8ZM214.69,85h.44v2.59h-.44Z"/><path class="cls-6" d="M217.64,83.78l.27-.16c.15.15.3.32.45.49l-.3.19Zm2.05-.18.3.17c-.18.2-.35.39-.53.56a2,2,0,0,0-.26-.18A6.6,6.6,0,0,0,219.69,83.6Zm-1.51,2.85.71.28a1.89,1.89,0,0,0,.52-.58h-1Zm3.33-1.9h-.91a.31.31,0,0,1,0,.1,3.54,3.54,0,0,0,.48,1.52A3.61,3.61,0,0,0,221.51,84.55Zm-4-.12h1.11V83.5H219v.93h.93v.28H219V85l.15-.14.75.5-.23.24a7.9,7.9,0,0,0-.67-.49v.47h-.36V85a4.83,4.83,0,0,1-1,.7l-.21-.26a5.52,5.52,0,0,0,1.12-.69h-1Zm0,1.44h.73a3.7,3.7,0,0,0,.21-.33l.35.1-.15.23h1.18v.27a1.86,1.86,0,0,1-.56.72l.54.22-.21.29-.62-.29a4.79,4.79,0,0,1-1.38.53l-.16-.29a4.25,4.25,0,0,0,1.19-.4l-.87-.38.3-.39h-.55Zm3.11-2.41.39.05a7.54,7.54,0,0,1-.24.76h1.48v.28h-.31a4,4,0,0,1-.62,2,3.08,3.08,0,0,0,1,.76,3.08,3.08,0,0,0-.26.33,3.54,3.54,0,0,1-1-.79,4.64,4.64,0,0,1-1.06.83,3.42,3.42,0,0,0-.27-.27,3.87,3.87,0,0,0,1.09-.87,3.49,3.49,0,0,1-.52-1.35,1.94,1.94,0,0,1-.21.29,2.6,2.6,0,0,0-.24-.27A3.88,3.88,0,0,0,220.57,83.46Z"/><path class="cls-6" d="M224.88,85.28l.3-.19c.35.37.64.68.85,1l-.36.22A9.43,9.43,0,0,0,224.88,85.28Zm-.88-.83h-1.09v1H224Zm-1.09,2.38H224V85.77h-1.09ZM224.46,85a6.06,6.06,0,0,0,.77-1.55l.4.08c-.08.21-.16.41-.25.6h1.55c0,1.43-.07,2.33-.09,2.7s-.29.66-.8.66l-.89,0a3,3,0,0,0-.08-.37h0a7.1,7.1,0,0,0,.88.06c.29,0,.45-.13.47-.4,0-.42.06-1.19.08-2.31h-1.29a5.12,5.12,0,0,1-.44.71Zm-1.93-.86H223c.11-.25.21-.49.29-.69l.4.1c-.1.21-.19.41-.29.59h1v3.33H224v-.33h-1.09v.36h-.38Z"/><path class="cls-8" d="M230,83.5l-.09.11A4.94,4.94,0,0,0,232,85l-.26.34a6.3,6.3,0,0,1-2.13-1.46,6.92,6.92,0,0,1-2.19,1.51,2.63,2.63,0,0,0-.24-.31,6,6,0,0,0,2.26-1.57Zm-2.54,3.58h2v-.73h-1.57V86h1.57V85.4h-1.39v-.31h3.18v.31h-1.39V86h1.57v.31h-1.57v.73h2v.3h-4.39Z"/><path class="cls-8" d="M232.17,84.22h.57v-.77h.37v.77h.48v.29h-.48v.78l.45-.21c0,.12,0,.24,0,.34l-.49.22V87.1c0,.28-.18.42-.53.43h-.39c0-.11,0-.23-.06-.35l.41,0a.18.18,0,0,0,.2-.2V85.8l-.56.26-.05-.37.61-.24v-.94h-.57Zm1.32,2.09h1v-.73h-.76v-.32h.76v-.72h-.75v-.32h.75v-.77h.38v4.12h-.38v-.95h-1Zm2-2.86h.37v.77h1v.32h-1v.72h.91v.32h-.91v.73h1.11v.31h-1.11v.95h-.37Z"/><path class="cls-8" d="M240.46,86.53h-.37V84h.37Zm.7-3h.39V87a.49.49,0,0,1-.56.54h-.79a2.41,2.41,0,0,0-.07-.37l.73,0c.2,0,.3-.09.3-.28Zm-3.29,2.19.24-.24c.24.18.47.35.67.52a3.24,3.24,0,0,0,.45-1h-1.08a6.11,6.11,0,0,1-.93,1.35A2.18,2.18,0,0,0,237,86a6.17,6.17,0,0,0,1.13-2h-1v-.3h2.71V84h-1.35a6.44,6.44,0,0,1-.25.66h1.34v.31a4,4,0,0,1-2.08,2.65,2,2,0,0,0-.3-.26,4.48,4.48,0,0,0,1.32-1.07C238.39,86.1,238.16,85.91,237.87,85.7Z"/><path class="cls-6" d="M244.52,85.28l.3-.19c.35.37.64.68.85,1l-.36.22A9.43,9.43,0,0,0,244.52,85.28Zm-.89-.83h-1.09v1h1.09Zm-1.09,2.38h1.09V85.77h-1.09ZM244.09,85a5.76,5.76,0,0,0,.78-1.55l.4.08c-.08.21-.17.41-.25.6h1.55c0,1.43-.07,2.33-.09,2.7s-.29.66-.8.66l-.89,0a3,3,0,0,0-.08-.37h0a7.1,7.1,0,0,0,.88.06c.29,0,.45-.13.47-.4,0-.42.06-1.19.08-2.31h-1.29a5.12,5.12,0,0,1-.44.71A2.84,2.84,0,0,0,244.09,85Zm-1.93-.86h.48c.12-.25.22-.49.3-.69l.4.1c-.1.21-.19.41-.29.59h1v3.33h-.39v-.33h-1.09v.36h-.38Z"/><path class="cls-6" d="M246.9,84.22h.58v-.77h.36v.77h.48v.29h-.48v.78l.46-.21c0,.12,0,.24,0,.34l-.49.22V87.1c0,.28-.17.42-.52.43h-.4a2.33,2.33,0,0,0-.06-.35l.41,0a.18.18,0,0,0,.21-.2V85.8l-.56.26,0-.37.61-.24v-.94h-.58Zm1.32,2.09h1v-.73h-.76v-.32h.76v-.72h-.75v-.32h.75v-.77h.38v4.12h-.38v-.95h-1Zm2-2.86h.37v.77h1v.32h-1v.72h.91v.32h-.91v.73h1.11v.31h-1.11v.95h-.37Z"/><path class="cls-6" d="M254,83.56l.35-.16a4.58,4.58,0,0,1,.34.43l-.23.12h2.06v.3h-3.85v1.14a3.15,3.15,0,0,1-.66,2.2,3.5,3.5,0,0,0-.27-.28,2.59,2.59,0,0,0,.53-1.84V84h2Q254.16,83.74,254,83.56Zm-1.19,2.13h1.69c-.3-.19-.58-.36-.85-.51l.23-.21.69.38.87-.45H253.1v-.3h3v.3l-1.25.64.12.07-.13.08h1.59V86l-.42.75-.36-.15.35-.6h-1.16v1c0,.34-.19.51-.56.51h-.72a3.35,3.35,0,0,0-.06-.36,5.89,5.89,0,0,0,.67.05q.27,0,.27-.24V86h-1.67Z"/><path class="cls-6" d="M258.38,85.77V85h-.93v.81Zm.8-2a16,16,0,0,0,2.09-.18l.13.32q-1.2.12-1.86.15V85h1.95v.29h-.74v2.26h-.37V85.29h-.84v.23a2.61,2.61,0,0,1-.85,2.07l-.27-.27a2.28,2.28,0,0,0,.76-1.8Zm-2.07,0a11.13,11.13,0,0,0,1.67-.17l.13.31c-.48.06-1,.11-1.46.14v.65h1.27v1.54h-.34v-.18h-.94a2.91,2.91,0,0,1-.51,1.51l-.27-.25a2.66,2.66,0,0,0,.45-1.73Z"/><path class="cls-6" d="M265.39,85H263v.5h2.43ZM263,86.32h2.43v-.5H263Zm0,1.23h-.39V85.39a8.67,8.67,0,0,1-.77.68c-.07-.1-.14-.2-.23-.31A5.71,5.71,0,0,0,263,84.27h-1.32V84h1.5a4.16,4.16,0,0,0,.23-.54l.4.08a4.69,4.69,0,0,1-.21.46h2.73v.31h-2.9q-.15.24-.33.48h2.64V87c0,.34-.19.52-.58.52h-.78a3.46,3.46,0,0,0-.07-.34l.71,0c.23,0,.34-.1.34-.29v-.29H263Z"/><path class="cls-6" d="M268.8,85h-1.36v1.06h1.36Zm-2.28-1.23h4.77v.32h-.8v2.83q0,.56-.63.57H269a2.53,2.53,0,0,0-.07-.38l.83,0c.23,0,.35-.11.35-.33V84.11h-3.56Zm.54.93h2.13v1.66h-1.75v.29h-.38Z"/><path class="cls-6" d="M273.28,85.31h-1.21v.41h1.21Zm-1.21,1.06h1.21V86h-1.21Zm1.17-2.56a11.27,11.27,0,0,1,.76,1l-.33.19-.2-.29-1.89.14-.16-.35a1.66,1.66,0,0,0,.47-.38,7.4,7.4,0,0,0,.52-.67l.38.12a10.76,10.76,0,0,1-.84,1l1.31-.09c-.1-.13-.2-.26-.32-.4Zm.89-.35h.38v.72c.44-.16.88-.34,1.32-.55l.21.28c-.5.22-1,.43-1.53.61v.24c0,.18.08.28.25.28h.62c.2,0,.31-.07.34-.22s0-.29.06-.52l.37.12a4.55,4.55,0,0,1-.08.54c-.05.25-.26.37-.65.37h-.7c-.39,0-.59-.17-.59-.51Zm0,2h.38v.69a11.61,11.61,0,0,0,1.43-.58l.22.29a14.8,14.8,0,0,1-1.65.63v.37c0,.17.08.26.23.26h.71a.25.25,0,0,0,.29-.21q0-.18.06-.54l.37.11a3.88,3.88,0,0,1-.08.56c0,.24-.24.37-.6.37h-.81c-.36,0-.55-.17-.55-.49Zm-2.05,2h-.38V85.05h2v2q0,.45-.48.45h-.54c0-.09,0-.19-.08-.32a4.82,4.82,0,0,0,.49,0q.24,0,.24-.21v-.35h-1.21Z"/><path class="cls-6" d="M276.57,84.41l.32.06q-.09.51-.24,1.08a1.9,1.9,0,0,0-.34-.08A9.15,9.15,0,0,0,276.57,84.41Zm.45-.94h.37v.8l.21-.1c.16.23.31.44.43.63l-.3.17c-.12-.21-.23-.39-.34-.55v3.17H277Zm.75,3.64h1.56V86h-1.24v-.3h1.24v-1h-.78a8.46,8.46,0,0,1-.41.79,2.14,2.14,0,0,0-.33-.19,5.17,5.17,0,0,0,.68-1.55l.38.09c-.05.19-.12.38-.19.57h.65v-.92h.38v.92H281v.29h-1.27v1h1.18V86h-1.18v1.12h1.42v.29h-3.36Z"/><path class="cls-6" d="M282.62,86.43a.41.41,0,0,1-.14.19.45.45,0,0,1-.25.07.22.22,0,0,1-.19-.08.15.15,0,0,1,0-.11.17.17,0,0,1,0-.07.29.29,0,0,1,.14-.19.46.46,0,0,1,.24-.08.26.26,0,0,1,.2.08.16.16,0,0,1,0,.12A.2.2,0,0,1,282.62,86.43Z"/><polyline class="cls-10" points="121.62 4.24 118.73 4.24 118.73 86.68 121.62 86.68"/><polyline class="cls-10" points="284.02 86.68 286.91 86.68 286.91 4.24 284.02 4.24"/></g></g></g></svg>