<svg id="图层_1" data-name="图层 1" xmlns="http://www.w3.org/2000/svg" xmlns:xlink="http://www.w3.org/1999/xlink" viewBox="0 0 224 67.2"><defs><style>.cls-1,.cls-11,.cls-12,.cls-4,.cls-5,.cls-9{fill:none;}.cls-2{clip-path:url(#clip-path);}.cls-3{fill:#fff;}.cls-4{stroke:#92d050;opacity:0.5;}.cls-11,.cls-12,.cls-4,.cls-5,.cls-9{stroke-miterlimit:10;}.cls-4,.cls-5{stroke-width:8px;}.cls-5{stroke:#00b0f0;opacity:0.3;}.cls-6{clip-path:url(#clip-path-4);}.cls-7{clip-path:url(#clip-path-5);}.cls-8{fill:green;}.cls-10,.cls-8{fill-rule:evenodd;}.cls-11,.cls-9{stroke:#000;}.cls-11,.cls-12,.cls-9{stroke-linecap:round;}.cls-12,.cls-9{stroke-width:0.36px;}.cls-11{stroke-width:0.43px;}.cls-12{stroke:green;}</style><clipPath id="clip-path"><rect class="cls-1" x="-368" y="-238.8" width="960" height="540"/></clipPath><clipPath id="clip-path-4"><rect class="cls-1" x="4.36" y="-2.16" width="215.28" height="66.72"/></clipPath><clipPath id="clip-path-5"><rect class="cls-1" x="4.36" y="-2.16" width="215.28" height="66.72"/></clipPath></defs><g class="cls-2"><g class="cls-2"><g class="cls-2"><rect class="cls-3" x="-368" y="-238.8" width="960" height="540"/></g><line class="cls-4" x1="28.06" y1="11.82" x2="86.09" y2="11.82"/><line class="cls-5" x1="28.06" y1="36.66" x2="86.09" y2="36.66"/><line class="cls-5" x1="134.98" y1="11.7" x2="193.01" y2="11.7"/><line class="cls-4" x1="134.02" y1="37.26" x2="192.05" y2="37.26"/><g class="cls-6"><g class="cls-7"><path class="cls-8" d="M10.79,28a1.28,1.28,0,0,0-.5-.6,1.48,1.48,0,0,0-.79-.21h-1a.63.63,0,0,0-.3,0,.5.5,0,0,0-.11.28L6.83,32.43a.85.85,0,0,0,0,.22s0,.05,0,.06.12,0,.28,0h1a2.1,2.1,0,0,0,.9-.2A3,3,0,0,0,9.76,32a3.13,3.13,0,0,0,.62-.94,6.54,6.54,0,0,0,.34-1A6.88,6.88,0,0,0,10.91,29a2.18,2.18,0,0,0,0-.25A2,2,0,0,0,10.79,28ZM11.58,30a4.27,4.27,0,0,1-.48,1.13,4.38,4.38,0,0,1-.83,1,3.73,3.73,0,0,1-1,.64A2.64,2.64,0,0,1,8.2,33h-3c-.06,0-.08,0-.09-.07v0l0-.07a.13.13,0,0,1,.13-.11h.41a1,1,0,0,0,.3,0,.39.39,0,0,0,.15-.27l1.27-4.95a.61.61,0,0,0,0-.16c0-.05,0-.09,0-.1a.56.56,0,0,0-.27,0H6.7c-.06,0-.09,0-.09-.08v0l0-.07a.11.11,0,0,1,.12-.1h3a1.76,1.76,0,0,1,1,.25,2,2,0,0,1,.65.66,2.29,2.29,0,0,1,.3,1,1.7,1.7,0,0,1,0,.22A4.07,4.07,0,0,1,11.58,30Z"/><line class="cls-9" x1="14.32" y1="29.43" x2="20.62" y2="29.43"/><line class="cls-9" x1="14.32" y1="31.32" x2="20.62" y2="31.32"/><path class="cls-10" d="M32,13.69a.35.35,0,0,0,0,.14c0,.07,0,.11.07.12a.76.76,0,0,0,.35.06h.5a.09.09,0,0,1,.1.07s0,0,0,0l0,.08a.16.16,0,0,1-.14.1c-.43,0-.86,0-1.31,0l-1.31,0c-.06,0-.08,0-.08-.07v-.11a.14.14,0,0,1,.14-.11h.51a.91.91,0,0,0,.38-.06c.08,0,.14-.11.18-.26l1.15-4.47a2.35,2.35,0,0,1-.54.29,1.73,1.73,0,0,1-.6.11.06.06,0,0,1-.06,0,0,0,0,0,1,0,0,.06.06,0,0,1,0,0l0-.08c0-.07.06-.11.13-.1a1.64,1.64,0,0,0,1-.33,3.57,3.57,0,0,0,.8-.8.12.12,0,0,1,.1-.06h0a.08.08,0,0,1,.07,0,.05.05,0,0,1,0,.06Z"/><path class="cls-10" d="M50.05,10.24a1.49,1.49,0,0,1-.33.65,4,4,0,0,1-.6.56,7.5,7.5,0,0,1-.72.48l-.74.42a4,4,0,0,0-.77.56,3.7,3.7,0,0,0-.59.73.73.73,0,0,1,.23,0,2.42,2.42,0,0,1,.47.05l.47.09.45.09a2.42,2.42,0,0,0,.47.05.8.8,0,0,0,.36-.09,1.22,1.22,0,0,0,.32-.24,1.28,1.28,0,0,0,.26-.35,1.62,1.62,0,0,0,.17-.41s0-.08.12-.08h.1l.07,0s0,0,0,0v0a3.83,3.83,0,0,1-.22.62,2.4,2.4,0,0,1-.34.55,1.55,1.55,0,0,1-.45.4,1.06,1.06,0,0,1-.55.15,1.15,1.15,0,0,1-.5-.11,2.65,2.65,0,0,1-.4-.24l-.39-.24a.91.91,0,0,0-.47-.12.38.38,0,0,0-.29.18,1.34,1.34,0,0,0-.21.45c0,.05,0,.08-.12.08h-.09a.08.08,0,0,1-.07,0l0,0s0,0,0,0a3.48,3.48,0,0,1,.67-1.31,3.85,3.85,0,0,1,1.19-1,4.79,4.79,0,0,0,1.12-.81,2.28,2.28,0,0,0,.65-1.07,3.66,3.66,0,0,0,.14-.72V9.38a1.38,1.38,0,0,0-.08-.5,1,1,0,0,0-.3-.38.73.73,0,0,0-.46-.15,1.26,1.26,0,0,0-.62.17,1.94,1.94,0,0,0-.52.44,2.85,2.85,0,0,0-.41.63,4.55,4.55,0,0,0-.27.73,1.22,1.22,0,0,0,0,.35.53.53,0,0,0,0,.13c0,.13.09.19.2.19a.61.61,0,0,0,.3-.08.94.94,0,0,0,.25-.24,1.63,1.63,0,0,0,.21-.34,2.86,2.86,0,0,0,.15-.41.39.39,0,0,0,0-.15.49.49,0,0,0,0-.12.72.72,0,0,0-.1-.24.09.09,0,0,1,0-.05s0,0,.05-.08h0a.12.12,0,0,1,.08,0,.05.05,0,0,1,.05,0,.6.6,0,0,1,.15.4.69.69,0,0,1,0,.25,2.07,2.07,0,0,1-.17.45,2.33,2.33,0,0,1-.24.41,1.15,1.15,0,0,1-.33.3.79.79,0,0,1-.42.12.41.41,0,0,1-.27-.08.43.43,0,0,1-.15-.2,1.19,1.19,0,0,1-.05-.26s0,0,0,0a1.54,1.54,0,0,1,0-.3,4.79,4.79,0,0,1,.31-.79,3,3,0,0,1,.48-.71,2.72,2.72,0,0,1,.63-.5,1.66,1.66,0,0,1,.75-.18,1.49,1.49,0,0,1,.71.16,1.45,1.45,0,0,1,.5.45,1.85,1.85,0,0,1,.25.69,1.93,1.93,0,0,1,0,.23A1.87,1.87,0,0,1,50.05,10.24Z"/><path class="cls-10" d="M66.13,9.72a2,2,0,0,1-.29.63,2.83,2.83,0,0,1-.51.53,2.49,2.49,0,0,1-.7.37,1.21,1.21,0,0,1,.74.93.82.82,0,0,1,0,.22,1.52,1.52,0,0,1-.06.42,2,2,0,0,1-.32.66,2.4,2.4,0,0,1-.56.54,2.67,2.67,0,0,1-.74.36,2.25,2.25,0,0,1-.76.13,1.31,1.31,0,0,1-.58-.12,1.23,1.23,0,0,1-.42-.32,1.13,1.13,0,0,1-.2-.49.78.78,0,0,1,0-.21,1.07,1.07,0,0,1,.07-.39A.41.41,0,0,1,62,12.7a.51.51,0,0,1,.28-.09.38.38,0,0,1,.24.08.23.23,0,0,1,.07.17.6.6,0,0,1,0,.12.42.42,0,0,1-.21.29.56.56,0,0,1-.27.08h0a1,1,0,0,0,.27.68.92.92,0,0,0,.71.28,1.4,1.4,0,0,0,.53-.11,2.13,2.13,0,0,0,.49-.31,1.51,1.51,0,0,0,.36-.49,3.1,3.1,0,0,0,.21-.58,4.08,4.08,0,0,0,.11-.57v-.14a1,1,0,0,0-.06-.35.89.89,0,0,0-.24-.3.61.61,0,0,0-.38-.11h-.5a.05.05,0,0,1-.06-.06v0l0-.11a.11.11,0,0,1,.11-.08h.49a1.18,1.18,0,0,0,.48-.1,1.11,1.11,0,0,0,.43-.28,1.31,1.31,0,0,0,.34-.44,2.37,2.37,0,0,0,.18-.53,2.45,2.45,0,0,0,.09-.53v0a.89.89,0,0,0-.11-.43.71.71,0,0,0-.28-.29.82.82,0,0,0-.42-.1,1.69,1.69,0,0,0-.58.1,2,2,0,0,0-.52.28,2.1,2.1,0,0,0-.41.43,1.51,1.51,0,0,0-.25.51.85.85,0,0,0,0,.25.34.34,0,0,0,0,.18.24.24,0,0,0,.24.18.52.52,0,0,0,.34-.12.6.6,0,0,0,.19-.3.32.32,0,0,0,0-.14.51.51,0,0,0-.12-.31.13.13,0,0,1,0-.06s0,0,0-.07h0a.12.12,0,0,1,.09,0,.05.05,0,0,1,0,0,.89.89,0,0,1,.14.25.77.77,0,0,1,0,.15.68.68,0,0,1,0,.19.88.88,0,0,1-.31.45.75.75,0,0,1-.51.19.54.54,0,0,1-.27-.07.44.44,0,0,1-.17-.19.76.76,0,0,1-.05-.27s0,0,0,0a.84.84,0,0,1,0-.27A1.63,1.63,0,0,1,63,9.06a2.9,2.9,0,0,1,.5-.49,2.8,2.8,0,0,1,.62-.32,2,2,0,0,1,.68-.11,1.59,1.59,0,0,1,.62.12,1.1,1.1,0,0,1,.45.34,1.2,1.2,0,0,1,.24.51.93.93,0,0,1,0,.23A1.64,1.64,0,0,1,66.13,9.72Z"/><path class="cls-10" d="M81,14.17s0,.07-.09.09a2.83,2.83,0,0,1-.41.14,2,2,0,0,1-.42,0h-.18l-.36,1.37a.34.34,0,0,1-.15.23.4.4,0,0,1-.23.08A.27.27,0,0,1,79,16a.18.18,0,0,1,0-.13.38.38,0,0,1,0-.1l.39-1.51-.57-.21a1.54,1.54,0,0,0-.61-.12h-.41a1.59,1.59,0,0,0-.34.06l-.15.13-.18.11a.05.05,0,0,1,0,0h0l0,0-.07-.07,0-.05s0-.05.06-.07l.18-.14.18-.16a6.71,6.71,0,0,0,1.12-1.14,8.31,8.31,0,0,0,.86-1.32,10.63,10.63,0,0,0,.64-1.42,14.64,14.64,0,0,0,.45-1.48.34.34,0,0,1,.15-.21.37.37,0,0,1,.21-.08.44.44,0,0,1,.22.07.23.23,0,0,1,0,.14.25.25,0,0,1,0,.08,12.57,12.57,0,0,1-.47,1.43,12.74,12.74,0,0,1-.68,1.39,9.34,9.34,0,0,1-.9,1.29,10.14,10.14,0,0,1-1.11,1.16h.41a1.8,1.8,0,0,1,.62.11l.57.21.42-1.64a.32.32,0,0,1,.14-.22.39.39,0,0,1,.23-.07.36.36,0,0,1,.2.06.23.23,0,0,1,0,.14v.09L80,14.16h.16a2.1,2.1,0,0,0,.69-.13l0,0L81,14l0,.07a0,0,0,0,1,0,0Z"/><path class="cls-10" d="M34.61,20.68s0,0,0,0a.05.05,0,0,1,0,0,2.82,2.82,0,0,1-.88.62,2.37,2.37,0,0,1-1,.22,2.18,2.18,0,0,1-.72-.12l-.47,1.86a2,2,0,0,1,.56-.35,1.84,1.84,0,0,1,.66-.12,1.11,1.11,0,0,1,1,.61,1.68,1.68,0,0,1,.19.67v.14a2.7,2.7,0,0,1-.08.62,3,3,0,0,1-.35.78,2.88,2.88,0,0,1-.59.68,2.45,2.45,0,0,1-.72.44,2,2,0,0,1-.8.16,1.22,1.22,0,0,1-.59-.14,1,1,0,0,1-.4-.38,1.32,1.32,0,0,1-.18-.57c0-.05,0-.1,0-.16a2.1,2.1,0,0,1,.06-.48.5.5,0,0,1,.51-.39.4.4,0,0,1,.26.08.27.27,0,0,1,.08.19.5.5,0,0,1,0,.12.51.51,0,0,1-.25.32.7.7,0,0,1-.26.08h-.07v.06a1.06,1.06,0,0,0,.23.71.87.87,0,0,0,.72.31,1.05,1.05,0,0,0,.53-.14,1.79,1.79,0,0,0,.47-.36,2,2,0,0,0,.38-.61c.08-.23.16-.46.22-.69a6.77,6.77,0,0,0,.16-.69,1.24,1.24,0,0,0,0-.27,1.42,1.42,0,0,0-.05-.36.89.89,0,0,0-.19-.36.42.42,0,0,0-.34-.15,1.6,1.6,0,0,0-.7.16,2.14,2.14,0,0,0-.57.43l-.08.09a.12.12,0,0,1-.09,0h-.05c-.06,0-.08,0-.08-.07v0l.61-2.41.17-.62a.13.13,0,0,1,.11-.09h0l0,0h0a2.06,2.06,0,0,0,1.1.26,2.94,2.94,0,0,0,1.29-.29h0a.05.05,0,0,1,.06.06Z"/><path class="cls-10" d="M49,23.55a.74.74,0,0,0-.23-.39.6.6,0,0,0-.42-.13,1,1,0,0,0-.53.16,1.9,1.9,0,0,0-.45.41,2.69,2.69,0,0,0-.34.58,3.49,3.49,0,0,0-.2.7q-.07.36-.12.63a1.71,1.71,0,0,0,0,.36.53.53,0,0,0,0,.13,1,1,0,0,0,.2.51.57.57,0,0,0,.47.2,1.1,1.1,0,0,0,.51-.12,1.52,1.52,0,0,0,.44-.38,2,2,0,0,0,.33-.59c.07-.22.15-.47.22-.73s.13-.53.17-.75,0-.2,0-.29A1,1,0,0,0,49,23.55Zm1.28-2a.47.47,0,0,1-.2.28.55.55,0,0,1-.29.09.36.36,0,0,1-.24-.09.27.27,0,0,1-.06-.17.22.22,0,0,1,0-.11.41.41,0,0,1,.19-.28A.57.57,0,0,1,50,21.2c-.07-.25-.28-.37-.64-.37a1.3,1.3,0,0,0-.73.24,3,3,0,0,0-.64.59,3.5,3.5,0,0,0-.55,1c-.12.34-.23.69-.32,1a2.48,2.48,0,0,1,.56-.6A1.42,1.42,0,0,1,49.12,23a1.43,1.43,0,0,1,.43.45,1.69,1.69,0,0,1,.22.68v.12a2.87,2.87,0,0,1-.09.66,3.44,3.44,0,0,1-.32.78,3,3,0,0,1-.59.68,2.32,2.32,0,0,1-.68.47,1.86,1.86,0,0,1-.77.15,1.13,1.13,0,0,1-.73-.24,1.38,1.38,0,0,1-.41-.62,4.85,4.85,0,0,1-.09-.55c0-.08,0-.16,0-.24s0-.24,0-.35,0-.4.09-.6.09-.39.14-.59a5.63,5.63,0,0,1,.45-1.17,4.69,4.69,0,0,1,.79-1.07,4.1,4.1,0,0,1,.88-.67,2.07,2.07,0,0,1,1-.28,1,1,0,0,1,.74.25.61.61,0,0,1,.16.44A1.59,1.59,0,0,1,50.32,21.57Z"/><path class="cls-10" d="M66.42,20.73a14.13,14.13,0,0,0-1.58,2.86,22.94,22.94,0,0,0-1,3,.47.47,0,0,1-.2.29.58.58,0,0,1-.3.09.37.37,0,0,1-.25-.09.24.24,0,0,1-.06-.17.74.74,0,0,1,0-.12,12,12,0,0,1,1-2.47,27.09,27.09,0,0,1,1.4-2.36l-.25.1a.84.84,0,0,1-.27,0,.36.36,0,0,1-.27-.1,1.19,1.19,0,0,1-.16-.23,2.3,2.3,0,0,0-.15-.23.25.25,0,0,0-.22-.1,1.28,1.28,0,0,0-.57.13,2.22,2.22,0,0,0-.54.34,3.2,3.2,0,0,0-.47.5,3.73,3.73,0,0,0-.37.6.11.11,0,0,1-.11.06h-.1a.06.06,0,0,1-.06,0,0,0,0,0,1,0,0,.07.07,0,0,1,0,0l1-2.09a.13.13,0,0,1,.1-.08h.11a.09.09,0,0,1,.07,0v0s0,0,0,0l-.26.54a3,3,0,0,1,.64-.47,1.53,1.53,0,0,1,.74-.18.36.36,0,0,1,.25.08.39.39,0,0,1,.11.21,1.09,1.09,0,0,1,0,.26,2.19,2.19,0,0,0,0,.27.43.43,0,0,0,.07.2.19.19,0,0,0,.18.08.68.68,0,0,0,.33-.09,1.48,1.48,0,0,0,.31-.22,3.42,3.42,0,0,0,.29-.34l.28-.39a.21.21,0,0,1,.1-.06h.14s0,0,0,.06A.13.13,0,0,1,66.42,20.73Z"/><path class="cls-10" d="M80.75,25.5a1.24,1.24,0,0,0,0-.27,1.09,1.09,0,0,0,0-.26.85.85,0,0,0-.28-.42l-.93-.76a2.84,2.84,0,0,0-.91.66,2.21,2.21,0,0,0-.53.92,2.09,2.09,0,0,0,0,.34.91.91,0,0,0,0,.17,1,1,0,0,0,.18.44,1,1,0,0,0,.35.29,1.13,1.13,0,0,0,.49.1,1.8,1.8,0,0,0,1-.34,2,2,0,0,0,.39-.38A1.3,1.3,0,0,0,80.75,25.5ZM81.47,22a.92.92,0,0,0,0-.29.86.86,0,0,0,0-.16.73.73,0,0,0-.15-.36.76.76,0,0,0-.31-.25,1,1,0,0,0-.43-.09,1.28,1.28,0,0,0-.46.08,1.65,1.65,0,0,0-.42.21,1.22,1.22,0,0,0-.33.31,1,1,0,0,0-.2.39,1,1,0,0,0,0,.23.78.78,0,0,0,0,.22.67.67,0,0,0,.23.34l.83.67a2.84,2.84,0,0,0,.77-.55A1.59,1.59,0,0,0,81.47,22Zm.42,0a1.71,1.71,0,0,1-.54.86,4.13,4.13,0,0,1-.92.59l.47.37a1.15,1.15,0,0,1,.4.61,2.9,2.9,0,0,1,.06.41,1.56,1.56,0,0,1-.06.41,2.49,2.49,0,0,1-.32.68,2.82,2.82,0,0,1-.53.56,2.65,2.65,0,0,1-.68.37A2.4,2.4,0,0,1,79,27a1.76,1.76,0,0,1-.66-.12,1.32,1.32,0,0,1-.49-.33,1,1,0,0,1-.26-.51.86.86,0,0,1,0-.28,1.2,1.2,0,0,1,0-.36,2,2,0,0,1,.65-1,4.38,4.38,0,0,1,1.09-.69l-.32-.26a1.11,1.11,0,0,1-.36-.55,1.65,1.65,0,0,1,0-.31,1.83,1.83,0,0,1,0-.4,2.08,2.08,0,0,1,.29-.6,2.14,2.14,0,0,1,.46-.49,2.08,2.08,0,0,1,.58-.33,1.81,1.81,0,0,1,.64-.12,1.48,1.48,0,0,1,.57.11,1,1,0,0,1,.43.29.88.88,0,0,1,.24.43,1.94,1.94,0,0,1,0,.24A1.22,1.22,0,0,1,81.89,22Z"/><path class="cls-10" d="M33.8,34a1,1,0,0,0-.18-.52.55.55,0,0,0-.45-.22,1.19,1.19,0,0,0-.53.13,2,2,0,0,0-.45.39,1.7,1.7,0,0,0-.34.6c-.08.22-.15.47-.22.74s-.13.52-.17.74,0,.2,0,.29a1.48,1.48,0,0,0,0,.31.92.92,0,0,0,.23.39.61.61,0,0,0,.43.13,1,1,0,0,0,.53-.16,1.69,1.69,0,0,0,.44-.41,2.58,2.58,0,0,0,.33-.59,3.18,3.18,0,0,0,.22-.7v0h0c.05-.22.09-.43.12-.62a2.36,2.36,0,0,0,0-.35S33.8,34.05,33.8,34Zm.53-.11a2.76,2.76,0,0,1,.1.77,2.23,2.23,0,0,1,0,.37,9.46,9.46,0,0,1-.23,1.18,5.19,5.19,0,0,1-.44,1.17A4.15,4.15,0,0,1,33,38.48a3.87,3.87,0,0,1-.83.67,2,2,0,0,1-1,.28,1.73,1.73,0,0,1-.47-.06,1,1,0,0,1-.35-.18.67.67,0,0,1-.19-.3,1,1,0,0,1,0-.43.41.41,0,0,1,.19-.28.51.51,0,0,1,.28-.09.32.32,0,0,1,.24.09.2.2,0,0,1,.07.16.54.54,0,0,1-.21.4.59.59,0,0,1-.28.1.46.46,0,0,0,.26.25,1.41,1.41,0,0,0,.5.08,1.15,1.15,0,0,0,.68-.24,2.7,2.7,0,0,0,.59-.58,3,3,0,0,0,.52-1c.12-.33.22-.68.31-1a2.18,2.18,0,0,1-.56.61A1.23,1.23,0,0,1,31,36.6a1.43,1.43,0,0,1-.22-.69v-.1a2.88,2.88,0,0,1,.09-.67,2.67,2.67,0,0,1,.32-.79,3.05,3.05,0,0,1,.6-.68,3,3,0,0,1,.71-.47,1.89,1.89,0,0,1,.77-.15,1.09,1.09,0,0,1,.72.25A1.34,1.34,0,0,1,34.33,33.91Z"/><path class="cls-10" d="M45.1,38.61a.32.32,0,0,0,0,.14.12.12,0,0,0,.08.12.7.7,0,0,0,.35.06H46q.09,0,.09.06a.09.09,0,0,1,0,0l0,.07a.13.13,0,0,1-.13.1l-1.31,0-1.32,0s-.08,0-.08-.07v0l0-.07a.13.13,0,0,1,.14-.11h.5a.91.91,0,0,0,.38-.06c.09,0,.15-.11.18-.26l1.16-4.47a2.64,2.64,0,0,1-.55.29,1.72,1.72,0,0,1-.6.1.08.08,0,0,1-.06,0,.08.08,0,0,1,0,0v0l0-.08a.14.14,0,0,1,.14-.11,1.67,1.67,0,0,0,1-.32,3.38,3.38,0,0,0,.8-.8.16.16,0,0,1,.11-.07h0a.09.09,0,0,1,.07,0s0,0,0,0,0,0,0,0Z"/><path class="cls-10" d="M51.66,34a.77.77,0,0,0-.22-.49.6.6,0,0,0-.49-.2,1,1,0,0,0-.61.2,1.57,1.57,0,0,0-.47.49,2,2,0,0,0-.22.44,5.58,5.58,0,0,0-.2.54l-.18.6c-.05.21-.1.4-.14.58s-.1.41-.15.63-.11.44-.15.65a4.79,4.79,0,0,0-.11.6,2.23,2.23,0,0,0,0,.33c0,.05,0,.1,0,.15a.93.93,0,0,0,.21.52.61.61,0,0,0,.51.22A1,1,0,0,0,50,39a2,2,0,0,0,.48-.52,2.7,2.7,0,0,0,.23-.48q.1-.28.21-.6c.06-.21.13-.43.19-.65s.11-.43.16-.63.1-.37.15-.58.09-.4.13-.6.06-.38.08-.55,0-.19,0-.27A.81.81,0,0,0,51.66,34Zm.49-.09a2.76,2.76,0,0,1,.11.77c0,.12,0,.25,0,.38A9.18,9.18,0,0,1,52,36.27c-.11.41-.24.82-.39,1.22a3.67,3.67,0,0,1-.69,1.14,2.12,2.12,0,0,1-.72.58,1.88,1.88,0,0,1-.84.22,1.24,1.24,0,0,1-.73-.22,1.05,1.05,0,0,1-.43-.58,2.76,2.76,0,0,1-.11-.77c0-.12,0-.24,0-.37a9.06,9.06,0,0,1,.24-1.22c.11-.41.24-.82.39-1.24a4,4,0,0,1,.69-1.16,2.31,2.31,0,0,1,.72-.6,1.89,1.89,0,0,1,.85-.22,1.26,1.26,0,0,1,.73.22A1.18,1.18,0,0,1,52.15,33.87Z"/><path class="cls-10" d="M60.91,38.61a.32.32,0,0,0,0,.14.12.12,0,0,0,.08.12.7.7,0,0,0,.35.06h.5q.09,0,.09.06a.09.09,0,0,1,0,0l0,.07a.13.13,0,0,1-.13.1l-1.31,0-1.32,0s-.08,0-.08-.07v0l0-.07a.13.13,0,0,1,.14-.11h.5a.91.91,0,0,0,.38-.06c.09,0,.15-.11.19-.26l1.15-4.47a2.64,2.64,0,0,1-.55.29,1.72,1.72,0,0,1-.6.1.08.08,0,0,1-.06,0,.08.08,0,0,1,0,0v0l0-.08a.14.14,0,0,1,.14-.11,1.67,1.67,0,0,0,.95-.32,3.38,3.38,0,0,0,.8-.8.19.19,0,0,1,.11-.07h0a.09.09,0,0,1,.07,0s0,0,0,0,0,0,0,0Z"/><path class="cls-10" d="M65.66,38.61a.32.32,0,0,0,0,.14.11.11,0,0,0,.07.12.76.76,0,0,0,.35.06h.5c.06,0,.09,0,.1.06s0,0,0,0l0,.07a.15.15,0,0,1-.14.1l-1.31,0-1.31,0c-.06,0-.08,0-.08-.07v-.1a.14.14,0,0,1,.14-.11h.51a.91.91,0,0,0,.38-.06c.09,0,.15-.11.18-.26l1.15-4.47a2.35,2.35,0,0,1-.54.29,1.72,1.72,0,0,1-.6.1.08.08,0,0,1-.06,0,.08.08,0,0,1,0,0,0,0,0,0,1,0,0l0-.08a.14.14,0,0,1,.13-.11,1.7,1.7,0,0,0,1-.32,3.57,3.57,0,0,0,.8-.8.17.17,0,0,1,.1-.07h0a.08.08,0,0,1,.07,0,.06.06,0,0,1,0,0,0,0,0,0,1,0,0Z"/><path class="cls-10" d="M76.72,38.61a.32.32,0,0,0,0,.14.12.12,0,0,0,.08.12.7.7,0,0,0,.35.06h.5q.09,0,.09.06a.09.09,0,0,1,0,0l0,.07a.13.13,0,0,1-.13.1l-1.31,0-1.32,0s-.08,0-.08-.07v0l0-.07a.13.13,0,0,1,.14-.11h.5a.91.91,0,0,0,.38-.06c.09,0,.15-.11.19-.26l1.15-4.47a2.64,2.64,0,0,1-.55.29,1.72,1.72,0,0,1-.6.1l-.06,0a.08.08,0,0,1,0,0v0l0-.08a.14.14,0,0,1,.14-.11,1.67,1.67,0,0,0,1-.32,3.38,3.38,0,0,0,.8-.8.19.19,0,0,1,.11-.07h0a.09.09,0,0,1,.07,0s0,0,0,0,0,0,0,0Z"/><path class="cls-10" d="M83.68,35.15a1.44,1.44,0,0,1-.33.65,3.94,3.94,0,0,1-.59.56,6.2,6.2,0,0,1-.73.49l-.73.42a3.36,3.36,0,0,0-.78.56,3.73,3.73,0,0,0-.58.73.48.48,0,0,1,.22,0,2.52,2.52,0,0,1,.48,0l.46.1.46.09a2.29,2.29,0,0,0,.47,0,.85.85,0,0,0,.35-.08,1.27,1.27,0,0,0,.33-.24,1.52,1.52,0,0,0,.26-.35,1.59,1.59,0,0,0,.16-.41c0-.05.05-.08.12-.08h.17a.08.08,0,0,1,0,0,0,0,0,0,1,0,0,3.39,3.39,0,0,1-.21.61,3.48,3.48,0,0,1-.34.56,1.75,1.75,0,0,1-.46.4,1.06,1.06,0,0,1-.55.15,1.1,1.1,0,0,1-.49-.11L81,39.08a4.11,4.11,0,0,0-.39-.24.88.88,0,0,0-.46-.12.38.38,0,0,0-.3.18,1.25,1.25,0,0,0-.2.45s0,.08-.12.08h-.1a.09.09,0,0,1-.07,0s0,0,0,0v0A3.53,3.53,0,0,1,80,38a4,4,0,0,1,1.2-1,5.13,5.13,0,0,0,1.12-.82A2.32,2.32,0,0,0,83,35.15a4.68,4.68,0,0,0,.14-.71V34.3a1.64,1.64,0,0,0-.08-.5.94.94,0,0,0-.3-.38.75.75,0,0,0-.47-.15,1.18,1.18,0,0,0-.61.16,2,2,0,0,0-.52.44,2.54,2.54,0,0,0-.41.63,3.47,3.47,0,0,0-.27.74,1.22,1.22,0,0,0-.06.35.51.51,0,0,0,0,.13c0,.13.08.19.2.19a.53.53,0,0,0,.3-.09,1.34,1.34,0,0,0,.25-.23,2.18,2.18,0,0,0,.2-.34,4.09,4.09,0,0,0,.16-.42.77.77,0,0,0,0-.15s0-.07,0-.11a.77.77,0,0,0-.1-.25s0,0,0,0a.09.09,0,0,1,0-.08l0,0,.08,0s0,0,.06,0a.68.68,0,0,1,.14.41,1,1,0,0,1,0,.24,2.54,2.54,0,0,1-.17.46,1.87,1.87,0,0,1-.25.41A1.18,1.18,0,0,1,81,36a.84.84,0,0,1-.41.11.47.47,0,0,1-.28-.07.46.46,0,0,1-.14-.21.75.75,0,0,1,0-.26,0,0,0,0,1,0,0,1,1,0,0,1,0-.3,4.13,4.13,0,0,1,.31-.8,3.1,3.1,0,0,1,.48-.7,2.18,2.18,0,0,1,.63-.5,1.61,1.61,0,0,1,.75-.19,1.45,1.45,0,0,1,.7.17,1.28,1.28,0,0,1,.5.45,1.56,1.56,0,0,1,.25.69,2,2,0,0,1,0,.23A1.77,1.77,0,0,1,83.68,35.15Z"/><path class="cls-10" d="M29.29,51.07a.31.31,0,0,0,0,.13.13.13,0,0,0,.08.13,1.05,1.05,0,0,0,.35.06h.5q.09,0,.09.06a.11.11,0,0,1,0,0l0,.07a.13.13,0,0,1-.13.1l-1.31,0-1.32,0s-.08,0-.08-.07v0l0-.07a.12.12,0,0,1,.14-.11h.5a1.43,1.43,0,0,0,.38-.06.31.31,0,0,0,.18-.26l1.16-4.48a2.29,2.29,0,0,1-.55.3,1.72,1.72,0,0,1-.6.1.06.06,0,0,1-.06,0,.05.05,0,0,1,0,0s0,0,0,0l0-.08a.13.13,0,0,1,.14-.11,1.67,1.67,0,0,0,.95-.32,3.24,3.24,0,0,0,.8-.81.15.15,0,0,1,.11-.06h0a.09.09,0,0,1,.07,0v0s0,0,0,0Z"/><path class="cls-10" d="M36.53,47.1a1.92,1.92,0,0,1-.28.62,2.55,2.55,0,0,1-.51.53,2.49,2.49,0,0,1-.7.37,1.2,1.2,0,0,1,.74.94,1.35,1.35,0,0,1,0,.63,1.84,1.84,0,0,1-.32.66,2.3,2.3,0,0,1-.57.55,2.61,2.61,0,0,1-.73.36,2.58,2.58,0,0,1-.77.12,1.36,1.36,0,0,1-.58-.11,1.11,1.11,0,0,1-.41-.33,1,1,0,0,1-.2-.49.49.49,0,0,1,0-.21,1.43,1.43,0,0,1,.06-.39.51.51,0,0,1,.19-.28.57.57,0,0,1,.28-.09.37.37,0,0,1,.25.09.24.24,0,0,1,.06.17.45.45,0,0,1,0,.11.42.42,0,0,1-.21.3.54.54,0,0,1-.27.07h0a.93.93,0,0,0,.27.69,1,1,0,0,0,.71.27,1.26,1.26,0,0,0,.53-.11,1.75,1.75,0,0,0,.49-.31,1.6,1.6,0,0,0,.36-.49,3.49,3.49,0,0,0,.2-.57q.07-.3.12-.57v-.14a.89.89,0,0,0-.07-.36.62.62,0,0,0-.24-.29.59.59,0,0,0-.37-.12h-.5s-.07,0-.07-.06v0l0-.1a.1.1,0,0,1,.11-.08h.49a1.37,1.37,0,0,0,.48-.1,1.52,1.52,0,0,0,.43-.28,1.31,1.31,0,0,0,.33-.45,2.92,2.92,0,0,0,.19-.52,2.56,2.56,0,0,0,.09-.53v0a.92.92,0,0,0-.11-.43.71.71,0,0,0-.29-.28.78.78,0,0,0-.41-.1,1.65,1.65,0,0,0-.58.1,1.75,1.75,0,0,0-.52.28,2,2,0,0,0-.41.42,1.5,1.5,0,0,0-.26.52,1.12,1.12,0,0,0,0,.24.54.54,0,0,0,0,.19.26.26,0,0,0,.25.17.52.52,0,0,0,.33-.12.49.49,0,0,0,.2-.3.28.28,0,0,0,0-.13.53.53,0,0,0-.12-.32.09.09,0,0,1,0-.05.08.08,0,0,1,0-.07l0,0,.08,0a.07.07,0,0,1,.06,0,1.08,1.08,0,0,1,.14.26.76.76,0,0,1,0,.15,1.24,1.24,0,0,1,0,.18,1,1,0,0,1-.31.46.79.79,0,0,1-.51.18.51.51,0,0,1-.28-.07.49.49,0,0,1-.16-.19.76.76,0,0,1,0-.27s0,0,0,0a1.24,1.24,0,0,1,0-.27,1.83,1.83,0,0,1,.3-.61A2.32,2.32,0,0,1,34,46a2.15,2.15,0,0,1,.62-.32,1.93,1.93,0,0,1,.67-.12,1.56,1.56,0,0,1,.62.12,1.23,1.23,0,0,1,.46.34,1.2,1.2,0,0,1,.24.51,2.32,2.32,0,0,1,0,.24A1.73,1.73,0,0,1,36.53,47.1Z"/><path class="cls-10" d="M45.1,51.07a.31.31,0,0,0,0,.13.13.13,0,0,0,.08.13,1.05,1.05,0,0,0,.35.06H46q.09,0,.09.06a.11.11,0,0,1,0,0l0,.07a.13.13,0,0,1-.13.1l-1.31,0-1.32,0s-.08,0-.08-.07v0l0-.07a.12.12,0,0,1,.14-.11h.5a1.43,1.43,0,0,0,.38-.06.31.31,0,0,0,.18-.26l1.16-4.48a2.29,2.29,0,0,1-.55.3,1.72,1.72,0,0,1-.6.1.06.06,0,0,1-.06,0,.05.05,0,0,1,0,0s0,0,0,0l0-.08a.13.13,0,0,1,.14-.11,1.67,1.67,0,0,0,1-.32,3.24,3.24,0,0,0,.8-.81.15.15,0,0,1,.11-.06h0a.09.09,0,0,1,.07,0v0s0,0,0,0Z"/><path class="cls-10" d="M51.42,51.54c0,.05,0,.08-.09.1l-.41.13a1.51,1.51,0,0,1-.42,0h-.18L50,53.19a.32.32,0,0,1-.15.22.4.4,0,0,1-.23.08.26.26,0,0,1-.19-.07.2.2,0,0,1,0-.13.38.38,0,0,1,0-.1l.39-1.52a4.79,4.79,0,0,1-.57-.21,1.54,1.54,0,0,0-.61-.11h-.41a.9.9,0,0,0-.34.06l-.15.12-.18.12-.05,0h-.06l-.07-.08,0,0s0,0,.06-.07l.18-.14c.06,0,.12-.1.18-.15A6.71,6.71,0,0,0,48.83,50a9.33,9.33,0,0,0,.86-1.32,10.76,10.76,0,0,0,.64-1.43c.17-.49.33-1,.45-1.48a.41.41,0,0,1,.15-.21.35.35,0,0,1,.21-.07.43.43,0,0,1,.22.06.33.33,0,0,1,0,.15.2.2,0,0,1,0,.07,13.5,13.5,0,0,1-.48,1.44,11,11,0,0,1-.67,1.38,9.81,9.81,0,0,1-2,2.45h.41a1.79,1.79,0,0,1,.62.1l.57.21.42-1.64a.34.34,0,0,1,.14-.22.48.48,0,0,1,.23-.07.36.36,0,0,1,.2.06.23.23,0,0,1,0,.14.28.28,0,0,1,0,.09l-.45,1.79h.16a1.87,1.87,0,0,0,.69-.13h0l.06,0,0,.07v0Z"/><path class="cls-10" d="M60.91,51.07a.31.31,0,0,0,0,.13.13.13,0,0,0,.08.13,1.05,1.05,0,0,0,.35.06h.5q.09,0,.09.06a.11.11,0,0,1,0,0l0,.07a.13.13,0,0,1-.13.1l-1.31,0-1.32,0s-.08,0-.08-.07v0l0-.07a.12.12,0,0,1,.14-.11h.5a1.43,1.43,0,0,0,.38-.06c.09,0,.15-.12.19-.26l1.15-4.48a2.29,2.29,0,0,1-.55.3,1.72,1.72,0,0,1-.6.1.06.06,0,0,1-.06,0,.05.05,0,0,1,0,0s0,0,0,0l0-.08a.13.13,0,0,1,.14-.11,1.67,1.67,0,0,0,.95-.32,3.24,3.24,0,0,0,.8-.81.17.17,0,0,1,.11-.06h0a.09.09,0,0,1,.07,0v0s0,0,0,0Z"/><path class="cls-10" d="M68.25,45.6v0a.08.08,0,0,1,0,0,3,3,0,0,1-.88.62,2.54,2.54,0,0,1-1,.22,1.94,1.94,0,0,1-.71-.13l-.47,1.86a1.87,1.87,0,0,1,.56-.34,1.84,1.84,0,0,1,.66-.12A1,1,0,0,1,67,48a1.1,1.1,0,0,1,.4.43,1.72,1.72,0,0,1,.19.68v.14a2.62,2.62,0,0,1-.08.61,3,3,0,0,1-.35.78,3.18,3.18,0,0,1-.59.69,2.84,2.84,0,0,1-.72.44,2.22,2.22,0,0,1-.8.15,1.12,1.12,0,0,1-.59-.14,1,1,0,0,1-.4-.38,1.28,1.28,0,0,1-.18-.56s0-.1,0-.16a2,2,0,0,1,.06-.48.52.52,0,0,1,.51-.4.36.36,0,0,1,.26.09.25.25,0,0,1,.08.18.59.59,0,0,1,0,.13.47.47,0,0,1-.25.31.56.56,0,0,1-.26.08h-.07v.06a1,1,0,0,0,.23.7.88.88,0,0,0,.72.32,1.2,1.2,0,0,0,.53-.14,2.35,2.35,0,0,0,.47-.36,1.92,1.92,0,0,0,.37-.61,8.07,8.07,0,0,0,.39-1.39,1.12,1.12,0,0,0,0-.27,1.34,1.34,0,0,0,0-.35.89.89,0,0,0-.19-.36.42.42,0,0,0-.34-.15,1.47,1.47,0,0,0-.7.16,2,2,0,0,0-.57.43l-.08.09a.12.12,0,0,1-.09,0h-.05c-.06,0-.08,0-.08-.07v0l.61-2.41.17-.62a.1.1,0,0,1,.11-.09h0s0,0,0,0h0l0,0a2.26,2.26,0,0,0,1.1.26,3.25,3.25,0,0,0,1.29-.29h0a.05.05,0,0,1,.06.06Z"/><path class="cls-10" d="M76.72,51.07a.31.31,0,0,0,0,.13.13.13,0,0,0,.08.13,1.05,1.05,0,0,0,.35.06h.5q.09,0,.09.06a.11.11,0,0,1,0,0l0,.07a.13.13,0,0,1-.13.1l-1.31,0-1.32,0s-.08,0-.08-.07v0l0-.07A.12.12,0,0,1,75,51.4h.5a1.43,1.43,0,0,0,.38-.06c.09,0,.15-.12.19-.26l1.15-4.48a2.29,2.29,0,0,1-.55.3,1.72,1.72,0,0,1-.6.1A.06.06,0,0,1,76,47a.05.05,0,0,1,0,0s0,0,0,0l0-.08a.13.13,0,0,1,.14-.11,1.67,1.67,0,0,0,1-.32,3.24,3.24,0,0,0,.8-.81.17.17,0,0,1,.11-.06h0a.09.09,0,0,1,.07,0v0s0,0,0,0Z"/><path class="cls-10" d="M82.68,48.46a.74.74,0,0,0-.22-.39A.66.66,0,0,0,82,48a1,1,0,0,0-.53.15,1.75,1.75,0,0,0-.45.41,3,3,0,0,0-.34.59,3.33,3.33,0,0,0-.21.7q-.06.35-.12.63a2.6,2.6,0,0,0,0,.36.53.53,0,0,0,0,.13.9.9,0,0,0,.2.5.57.57,0,0,0,.47.21,1.13,1.13,0,0,0,.51-.12,1.66,1.66,0,0,0,.43-.38,1.77,1.77,0,0,0,.33-.6c.08-.22.16-.46.23-.72s.12-.53.17-.75,0-.2,0-.3A1,1,0,0,0,82.68,48.46Zm1.28-2a.41.41,0,0,1-.19.28.51.51,0,0,1-.29.1.3.3,0,0,1-.24-.1.24.24,0,0,1-.06-.17.45.45,0,0,1,0-.11.43.43,0,0,1,.2-.27.51.51,0,0,1,.29-.1c-.07-.24-.29-.37-.64-.37a1.3,1.3,0,0,0-.73.24,2.6,2.6,0,0,0-.64.6,3.36,3.36,0,0,0-.55,1,9.43,9.43,0,0,0-.32,1,2.16,2.16,0,0,1,.56-.6,1.21,1.21,0,0,1,.74-.24,1.15,1.15,0,0,1,.66.16,1.24,1.24,0,0,1,.43.45,1.57,1.57,0,0,1,.23.68v.11a2.88,2.88,0,0,1-.09.67,3.44,3.44,0,0,1-.32.78,3,3,0,0,1-.59.68,2.69,2.69,0,0,1-.68.47,2.07,2.07,0,0,1-.77.14,1.13,1.13,0,0,1-.73-.24,1.35,1.35,0,0,1-.41-.61,2.62,2.62,0,0,1-.09-.56c0-.07,0-.15,0-.23s0-.24,0-.36,0-.39.09-.59.09-.4.14-.59a5.23,5.23,0,0,1,.45-1.17,4.41,4.41,0,0,1,.79-1.07,3.6,3.6,0,0,1,.88-.67,1.94,1.94,0,0,1,1-.28,1,1,0,0,1,.74.25.6.6,0,0,1,.16.44A1,1,0,0,1,84,46.48Z"/><line class="cls-11" x1="25.32" y1="7.72" x2="25.32" y2="53.02"/><line class="cls-11" x1="86.18" y1="53.02" x2="86.18" y2="7.72"/><path class="cls-10" d="M89.62,33a3,3,0,0,1-.44,1,3.6,3.6,0,0,1-.76.8H88.3v0a.06.06,0,0,1,0-.05.12.12,0,0,1,0-.08,3,3,0,0,0,.7-.73,2.67,2.67,0,0,0,.41-.87l0-.13a.68.68,0,0,1-.19.11A.59.59,0,0,1,89,33a.35.35,0,0,1-.33-.15.46.46,0,0,1,0-.2.32.32,0,0,1,0-.13.72.72,0,0,1,.2-.33.62.62,0,0,1,.41-.14.36.36,0,0,1,.26.09.43.43,0,0,1,.12.22,1.23,1.23,0,0,1,0,.2v.1A3,3,0,0,1,89.62,33Z"/><path class="cls-10" d="M100.86,34.34c-.5-.51-1.06-1-1.65-1.53a3.84,3.84,0,0,1-1.85,1.84c-.11-.16-.23-.32-.38-.5a3.11,3.11,0,0,0,1.84-2,15.2,15.2,0,0,0,.2-3.34h.59a17.18,17.18,0,0,1-.21,3.49c.61.47,1.26,1,1.95,1.61Zm-3.3-6.65H101v4.82h-.6V28.22H98.15v4.29h-.59Zm5,4.95H102V28h.6Zm1-5.27h.62v6.21a.83.83,0,0,1-.93.92h-1.2a6.5,6.5,0,0,0-.12-.67c.52,0,.9.07,1.12.07a.43.43,0,0,0,.51-.48Z"/><path class="cls-10" d="M114.72,28a1.26,1.26,0,0,0-.49-.6,1.49,1.49,0,0,0-.8-.21h-1a.65.65,0,0,0-.31,0,.72.72,0,0,0-.11.28l-1.28,4.95a1.34,1.34,0,0,0,0,.22s0,.05,0,.06.11,0,.27,0h1a2.1,2.1,0,0,0,.9-.2,2.81,2.81,0,0,0,.8-.56,3.13,3.13,0,0,0,.62-.94,6.58,6.58,0,0,0,.35-1,8.3,8.3,0,0,0,.19-1.07,2.18,2.18,0,0,0,0-.25A2,2,0,0,0,114.72,28Zm.79,2.05a4.27,4.27,0,0,1-.48,1.13,4.13,4.13,0,0,1-.83,1,3.73,3.73,0,0,1-1,.64,2.64,2.64,0,0,1-1.08.24h-3c-.05,0-.08,0-.08-.07v0l0-.07a.12.12,0,0,1,.13-.11h.41a1,1,0,0,0,.29,0,.43.43,0,0,0,.16-.27l1.27-4.95a.61.61,0,0,0,0-.16.1.1,0,0,0,0-.1.51.51,0,0,0-.26,0h-.41a.07.07,0,0,1-.08-.08v0l0-.07a.11.11,0,0,1,.12-.1h3a1.75,1.75,0,0,1,1,.25,2,2,0,0,1,.66.66,2.57,2.57,0,0,1,.3,1c0,.08,0,.15,0,.22A3.63,3.63,0,0,1,115.51,30Z"/><path class="cls-10" d="M117.28,34a.11.11,0,0,0,0,.08s0,.06,0,.07a.63.63,0,0,0,.23,0h.32s.06,0,.06,0a0,0,0,0,1,0,0v0a.1.1,0,0,1-.09.06h-1.68s-.05,0-.05,0V34.2a.09.09,0,0,1,.09-.06h.33a.7.7,0,0,0,.24,0,.24.24,0,0,0,.12-.15l.73-2.56a1.42,1.42,0,0,1-.35.17,1.21,1.21,0,0,1-.38.06h0a0,0,0,0,1,0,0v-.07a.07.07,0,0,1,.09-.05,1.18,1.18,0,0,0,.61-.19,2.47,2.47,0,0,0,.51-.46l.06,0h0l0,0s0,0,0,0,0,0,0,0Z"/><line class="cls-9" x1="121.08" y1="29.43" x2="127.38" y2="29.43"/><line class="cls-9" x1="121.08" y1="31.32" x2="127.38" y2="31.32"/><path class="cls-10" d="M139.85,9.1a1,1,0,0,0-.19-.52.54.54,0,0,0-.45-.21,1.18,1.18,0,0,0-.53.12,2,2,0,0,0-.45.39,1.79,1.79,0,0,0-.34.6c-.08.22-.15.47-.22.74s-.13.52-.17.75a2.83,2.83,0,0,0,0,.29,1.55,1.55,0,0,0,0,.31.88.88,0,0,0,.23.38.62.62,0,0,0,.43.14,1.05,1.05,0,0,0,.53-.16,1.93,1.93,0,0,0,.44-.42,2.38,2.38,0,0,0,.33-.59,4,4,0,0,0,.23-.69s0,0,0,0v0c0-.22.09-.43.12-.62a2.26,2.26,0,0,0,0-.35C139.86,9.17,139.85,9.13,139.85,9.1Zm.53-.11a2.88,2.88,0,0,1,.1.78,2.36,2.36,0,0,1,0,.37,10.22,10.22,0,0,1-.23,1.18,5.58,5.58,0,0,1-.44,1.17,5.22,5.22,0,0,1-.77,1.08,3.55,3.55,0,0,1-.83.66,1.87,1.87,0,0,1-1,.28,1.73,1.73,0,0,1-.47-.06,1.14,1.14,0,0,1-.35-.17.65.65,0,0,1-.19-.31.81.81,0,0,1,0-.17.92.92,0,0,1,0-.26.46.46,0,0,1,.19-.28.52.52,0,0,1,.29-.09.29.29,0,0,1,.23.1.19.19,0,0,1,.07.16.23.23,0,0,1,0,.11.47.47,0,0,1-.19.28.59.59,0,0,1-.28.1.43.43,0,0,0,.26.25,1.21,1.21,0,0,0,.5.09A1.15,1.15,0,0,0,138,14a2.75,2.75,0,0,0,.59-.59,3,3,0,0,0,.52-1c.12-.33.22-.68.31-1a2.05,2.05,0,0,1-.56.61,1.23,1.23,0,0,1-.74.24,1.15,1.15,0,0,1-.66-.16,1.24,1.24,0,0,1-.43-.45,1.43,1.43,0,0,1-.22-.69v-.1a2.88,2.88,0,0,1,.09-.67,2.72,2.72,0,0,1,.32-.78,3.08,3.08,0,0,1,.6-.69,2.93,2.93,0,0,1,.71-.46,1.89,1.89,0,0,1,.77-.15,1.06,1.06,0,0,1,.73.25A1.31,1.31,0,0,1,140.38,9Z"/><path class="cls-10" d="M151.15,13.69a.35.35,0,0,0,0,.14c0,.07,0,.11.07.12a.76.76,0,0,0,.35.06h.5a.09.09,0,0,1,.1.07s0,0,0,0l0,.08a.15.15,0,0,1-.14.1c-.42,0-.86,0-1.3,0s-.88,0-1.32,0c-.06,0-.08,0-.08-.07v0l0-.08a.12.12,0,0,1,.13-.11h.51a.91.91,0,0,0,.38-.06c.09,0,.15-.11.18-.26l1.16-4.47a2.64,2.64,0,0,1-.55.29,1.73,1.73,0,0,1-.6.11.06.06,0,0,1-.06,0l0,0a.06.06,0,0,1,0,0l0-.08a.12.12,0,0,1,.14-.1,1.63,1.63,0,0,0,.95-.33,3.38,3.38,0,0,0,.8-.8.12.12,0,0,1,.1-.06h0a.11.11,0,0,1,.08,0v.06Z"/><path class="cls-10" d="M157.71,9a.92.92,0,0,0-.22-.49.63.63,0,0,0-.49-.2,1.08,1.08,0,0,0-.61.2,1.86,1.86,0,0,0-.48.49,3,3,0,0,0-.22.44c-.06.17-.13.35-.19.55a5.26,5.26,0,0,0-.18.6c0,.2-.1.39-.14.57s-.1.42-.16.63l-.15.65c0,.22-.08.41-.1.6a2.24,2.24,0,0,0,0,.34.61.61,0,0,0,0,.14,1,1,0,0,0,.2.53.64.64,0,0,0,.51.22,1,1,0,0,0,.61-.22,2,2,0,0,0,.48-.53,2.72,2.72,0,0,0,.22-.48,4.2,4.2,0,0,0,.21-.6c.07-.21.13-.43.19-.65s.12-.42.17-.63.09-.37.14-.57.1-.41.14-.6.06-.38.08-.55,0-.19,0-.28S157.71,9.09,157.71,9ZM158.2,9a2.81,2.81,0,0,1,.11.77c0,.13,0,.25,0,.38a11.17,11.17,0,0,1-.24,1.26,12.38,12.38,0,0,1-.4,1.22,3.75,3.75,0,0,1-.68,1.14,2.22,2.22,0,0,1-.72.57,1.77,1.77,0,0,1-.85.22,1.19,1.19,0,0,1-.73-.22,1.1,1.1,0,0,1-.42-.57,2.54,2.54,0,0,1-.11-.78,2.42,2.42,0,0,1,0-.37,7.57,7.57,0,0,1,.23-1.21c.11-.42.25-.83.4-1.24A3.85,3.85,0,0,1,155.47,9a2.09,2.09,0,0,1,.73-.59,1.77,1.77,0,0,1,.85-.22,1.21,1.21,0,0,1,.73.22A1.11,1.11,0,0,1,158.2,9Z"/><path class="cls-10" d="M167,13.69a.74.74,0,0,0,0,.14c0,.07,0,.11.08.12a.76.76,0,0,0,.35.06h.5a.09.09,0,0,1,.1.07s0,0,0,0l0,.08a.16.16,0,0,1-.14.1c-.43,0-.86,0-1.31,0l-1.31,0c-.06,0-.08,0-.08-.07v-.11a.14.14,0,0,1,.14-.11h.51a.91.91,0,0,0,.38-.06c.08,0,.14-.11.18-.26l1.15-4.47a2.22,2.22,0,0,1-.55.29,1.67,1.67,0,0,1-.59.11.06.06,0,0,1-.06,0,0,0,0,0,1,0,0,.06.06,0,0,1,0,0l0-.08c0-.07.06-.11.13-.1a1.64,1.64,0,0,0,1-.33,3.34,3.34,0,0,0,.79-.8.14.14,0,0,1,.11-.06h0a.08.08,0,0,1,.07,0,.05.05,0,0,1,0,.06Z"/><path class="cls-10" d="M171.7,13.69a.35.35,0,0,0,0,.14c0,.07,0,.11.08.12a.7.7,0,0,0,.35.06h.5c.06,0,.09,0,.09.07a.08.08,0,0,1,0,0l0,.08a.15.15,0,0,1-.13.1c-.43,0-.87,0-1.31,0s-.88,0-1.32,0a.07.07,0,0,1-.08-.07v0l0-.08A.13.13,0,0,1,170,14h.5a.91.91,0,0,0,.38-.06c.09,0,.15-.11.18-.26l1.16-4.47a2.64,2.64,0,0,1-.55.29,1.73,1.73,0,0,1-.6.11.06.06,0,0,1-.06,0,.08.08,0,0,1,0,0s0,0,0,0l0-.08a.12.12,0,0,1,.14-.1,1.61,1.61,0,0,0,1-.33,3.2,3.2,0,0,0,.8-.8.13.13,0,0,1,.11-.06h0a.09.09,0,0,1,.07,0v0s0,0,0,0Z"/><path class="cls-10" d="M182.76,13.69l0,.14c0,.07,0,.11.08.12a.73.73,0,0,0,.35.06h.5c.06,0,.09,0,.09.07a.08.08,0,0,1,0,0v.08a.16.16,0,0,1-.14.1c-.43,0-.87,0-1.31,0l-1.32,0a.07.07,0,0,1-.08-.07v0l0-.08A.13.13,0,0,1,181,14h.51a.86.86,0,0,0,.37-.06c.09,0,.15-.11.19-.26l1.15-4.47a2.42,2.42,0,0,1-.55.29,1.71,1.71,0,0,1-.59.11.09.09,0,0,1-.07,0,.06.06,0,0,1,0,0v0l0-.08c0-.07.07-.11.14-.1a1.59,1.59,0,0,0,1-.33,3.2,3.2,0,0,0,.8-.8.14.14,0,0,1,.11-.06h0a.09.09,0,0,1,.07,0,0,0,0,0,1,0,.06Z"/><path class="cls-10" d="M189.73,10.24a1.63,1.63,0,0,1-.34.65,4.52,4.52,0,0,1-.59.56,7.67,7.67,0,0,1-.73.48l-.73.42A3.43,3.43,0,0,0,186,13.64a.67.67,0,0,1,.22,0,2.44,2.44,0,0,1,.48.05l.46.09.46.09a2.26,2.26,0,0,0,.47.05.73.73,0,0,0,.35-.09,1.27,1.27,0,0,0,.33-.24,1.52,1.52,0,0,0,.26-.35,1.59,1.59,0,0,0,.16-.41s.05-.08.12-.08h.1l.07,0s0,0,0,0v0a3.78,3.78,0,0,1-.21.62,2.81,2.81,0,0,1-.34.55,1.55,1.55,0,0,1-.45.4,1.12,1.12,0,0,1-.56.15,1.1,1.1,0,0,1-.49-.11,3.38,3.38,0,0,1-.41-.24l-.39-.24a.88.88,0,0,0-.46-.12.36.36,0,0,0-.29.18,1.34,1.34,0,0,0-.21.45c0,.05-.05.08-.12.08h-.1a.06.06,0,0,1-.06,0s0,0,0,0a0,0,0,0,1,0,0,3.6,3.6,0,0,1,.66-1.31,4,4,0,0,1,1.2-1,4.79,4.79,0,0,0,1.12-.81,2.37,2.37,0,0,0,.65-1.07,4.57,4.57,0,0,0,.14-.72V9.38a1.64,1.64,0,0,0-.08-.5,1,1,0,0,0-.3-.38.75.75,0,0,0-.47-.15,1.22,1.22,0,0,0-.61.17,1.94,1.94,0,0,0-.52.44,2.54,2.54,0,0,0-.41.63,3.76,3.76,0,0,0-.27.73,1.28,1.28,0,0,0-.06.35.51.51,0,0,0,0,.13c0,.13.08.19.2.19a.61.61,0,0,0,.3-.08,1.12,1.12,0,0,0,.25-.24,2.18,2.18,0,0,0,.2-.34c.06-.13.11-.27.16-.41a.77.77,0,0,0,0-.15s0-.08,0-.12a.72.72,0,0,0-.1-.24.09.09,0,0,1,0-.05.1.1,0,0,1,0-.08h0a.18.18,0,0,1,.08,0s0,0,.06,0a.65.65,0,0,1,.14.4,1,1,0,0,1,0,.25,2.75,2.75,0,0,1-.17.45,1.87,1.87,0,0,1-.25.41.94.94,0,0,1-.33.3.73.73,0,0,1-.41.12.47.47,0,0,1-.28-.08.48.48,0,0,1-.14-.2.8.8,0,0,1,0-.26.06.06,0,0,1,0,0,1,1,0,0,1,0-.3,4,4,0,0,1,.31-.79,3,3,0,0,1,.48-.71,2.36,2.36,0,0,1,.63-.5,1.6,1.6,0,0,1,.75-.18,1.45,1.45,0,0,1,.7.16,1.36,1.36,0,0,1,.5.45,1.56,1.56,0,0,1,.25.69,2.15,2.15,0,0,1,0,.23A2.24,2.24,0,0,1,189.73,10.24Z"/><path class="cls-10" d="M140.66,20.68s0,0,0,0a.05.05,0,0,1,0,0,2.75,2.75,0,0,1-.89.62,2.37,2.37,0,0,1-1,.22,2.18,2.18,0,0,1-.72-.12l-.47,1.86a2,2,0,0,1,.56-.35,1.84,1.84,0,0,1,.66-.12,1.13,1.13,0,0,1,.62.17,1.15,1.15,0,0,1,.41.44,1.68,1.68,0,0,1,.19.67v.14a2.7,2.7,0,0,1-.08.62,2.75,2.75,0,0,1-.36.78,3.13,3.13,0,0,1-.59.68,2.45,2.45,0,0,1-.72.44,2,2,0,0,1-.79.16,1.24,1.24,0,0,1-.6-.14,1.12,1.12,0,0,1-.4-.38,1.32,1.32,0,0,1-.18-.57v-.16a2.06,2.06,0,0,1,.05-.48.59.59,0,0,1,.2-.3.61.61,0,0,1,.31-.09.4.4,0,0,1,.26.08.27.27,0,0,1,.08.19.5.5,0,0,1,0,.12.48.48,0,0,1-.25.32.7.7,0,0,1-.26.08h-.07v.06a1.12,1.12,0,0,0,.23.71.87.87,0,0,0,.72.31,1.08,1.08,0,0,0,.53-.14,1.79,1.79,0,0,0,.47-.36,2,2,0,0,0,.38-.61c.08-.23.16-.46.22-.69a6.77,6.77,0,0,0,.16-.69,1.24,1.24,0,0,0,0-.27,1.42,1.42,0,0,0,0-.36.89.89,0,0,0-.19-.36.42.42,0,0,0-.34-.15,1.6,1.6,0,0,0-.7.16,2.14,2.14,0,0,0-.57.43l-.08.09a.12.12,0,0,1-.09,0h-.05c-.06,0-.08,0-.08-.07v0l.61-2.41.17-.62a.13.13,0,0,1,.11-.09h0s0,0,0,0h0a2.06,2.06,0,0,0,1.1.26,3,3,0,0,0,1.3-.29h0a.05.05,0,0,1,.06.06Z"/><path class="cls-10" d="M155.08,23.55a.73.73,0,0,0-.22-.39.6.6,0,0,0-.42-.13.94.94,0,0,0-.53.16,1.58,1.58,0,0,0-.45.41,2.69,2.69,0,0,0-.34.58,3.52,3.52,0,0,0-.21.7q-.06.36-.12.63a2.6,2.6,0,0,0,0,.36.53.53,0,0,0,0,.13,1,1,0,0,0,.2.51.56.56,0,0,0,.47.2,1.06,1.06,0,0,0,.5-.12,1.4,1.4,0,0,0,.44-.38,1.63,1.63,0,0,0,.33-.59c.08-.22.16-.47.23-.73s.12-.53.17-.75,0-.2,0-.29A.94.94,0,0,0,155.08,23.55Zm1.28-2a.46.46,0,0,1-.19.28.57.57,0,0,1-.29.09.32.32,0,0,1-.24-.09.28.28,0,0,1-.07-.17.53.53,0,0,1,.22-.39.57.57,0,0,1,.29-.09c-.07-.25-.29-.37-.64-.37a1.3,1.3,0,0,0-.73.24,2.76,2.76,0,0,0-.64.59,3.26,3.26,0,0,0-.55,1,10.16,10.16,0,0,0-.32,1,2.3,2.3,0,0,1,.56-.6,1.27,1.27,0,0,1,.74-.23,1.13,1.13,0,0,1,1.09.6,1.57,1.57,0,0,1,.23.68v.12a2.87,2.87,0,0,1-.09.66,3.44,3.44,0,0,1-.32.78,3,3,0,0,1-.59.68,2.45,2.45,0,0,1-.68.47,1.89,1.89,0,0,1-.77.15,1.11,1.11,0,0,1-.73-.24,1.38,1.38,0,0,1-.41-.62,2.53,2.53,0,0,1-.09-.55c0-.08,0-.16,0-.24s0-.24,0-.35,0-.4.09-.6.09-.39.14-.59a5.63,5.63,0,0,1,.45-1.17,4.41,4.41,0,0,1,.79-1.07,3.86,3.86,0,0,1,.88-.67,2,2,0,0,1,1-.28,1,1,0,0,1,.74.25.61.61,0,0,1,.16.44A1.06,1.06,0,0,1,156.36,21.57Z"/><path class="cls-10" d="M172.47,20.73a14.18,14.18,0,0,0-1.59,2.86,24.54,24.54,0,0,0-1,3,.46.46,0,0,1-.19.29.61.61,0,0,1-.31.09.32.32,0,0,1-.24-.09.24.24,0,0,1-.06-.17.57.57,0,0,1,0-.12,11.48,11.48,0,0,1,1-2.47,24.68,24.68,0,0,1,1.39-2.36l-.25.1a.77.77,0,0,1-.27,0,.33.33,0,0,1-.26-.1,1.24,1.24,0,0,1-.17-.23l-.14-.23a.26.26,0,0,0-.22-.1,1.33,1.33,0,0,0-.58.13,2.22,2.22,0,0,0-.54.34,3.75,3.75,0,0,0-.47.5,3.67,3.67,0,0,0-.36.6.14.14,0,0,1-.12.06H168a.09.09,0,0,1-.07,0,0,0,0,0,1,0,0,.07.07,0,0,1,0,0l1-2.09a.15.15,0,0,1,.11-.08h.11a.06.06,0,0,1,.06,0v0a.08.08,0,0,1,0,0l-.25.54a2.57,2.57,0,0,1,.64-.47,1.49,1.49,0,0,1,.73-.18.36.36,0,0,1,.25.08.4.4,0,0,1,.12.21,2,2,0,0,1,0,.26,1.18,1.18,0,0,0,0,.27.59.59,0,0,0,.07.2.22.22,0,0,0,.18.08.63.63,0,0,0,.33-.09,1.26,1.26,0,0,0,.31-.22,2.46,2.46,0,0,0,.29-.34l.29-.39a.14.14,0,0,1,.1-.06h.13a.06.06,0,0,1,.05.06A.25.25,0,0,1,172.47,20.73Z"/><path class="cls-10" d="M186.79,25.5a1.26,1.26,0,0,0,0-.27,1.09,1.09,0,0,0,0-.26.85.85,0,0,0-.28-.42l-.93-.76a2.84,2.84,0,0,0-.91.66,2.19,2.19,0,0,0-.52.92,1.4,1.4,0,0,0-.05.34.47.47,0,0,0,0,.17.9.9,0,0,0,.17.44,1,1,0,0,0,.35.29,1.15,1.15,0,0,0,.5.1,1.7,1.7,0,0,0,.54-.09,1.62,1.62,0,0,0,.49-.25,2,2,0,0,0,.39-.38A1.3,1.3,0,0,0,186.79,25.5Zm.72-3.52a.92.92,0,0,0,0-.29.86.86,0,0,0,0-.16.73.73,0,0,0-.15-.36.76.76,0,0,0-.31-.25.94.94,0,0,0-.43-.09,1.28,1.28,0,0,0-.46.08,1.65,1.65,0,0,0-.42.21,1.22,1.22,0,0,0-.33.31,1.2,1.2,0,0,0-.2.39.93.93,0,0,0,0,.23.78.78,0,0,0,0,.22.67.67,0,0,0,.23.34l.84.67a2.79,2.79,0,0,0,.76-.55A1.59,1.59,0,0,0,187.51,22Zm.42,0a1.71,1.71,0,0,1-.54.86,4.13,4.13,0,0,1-.92.59l.47.37a1.15,1.15,0,0,1,.4.61,1.93,1.93,0,0,1,.06.41,1.56,1.56,0,0,1-.06.41,2.49,2.49,0,0,1-.32.68,2.56,2.56,0,0,1-.53.56,2.49,2.49,0,0,1-.68.37,2.4,2.4,0,0,1-.74.13,1.76,1.76,0,0,1-.66-.12,1.32,1.32,0,0,1-.49-.33,1,1,0,0,1-.26-.51.86.86,0,0,1,0-.28,1.63,1.63,0,0,1,0-.36,2.07,2.07,0,0,1,.65-1,4.38,4.38,0,0,1,1.09-.69l-.32-.26a1,1,0,0,1-.35-.55,1.12,1.12,0,0,1-.05-.31,1.39,1.39,0,0,1,.06-.4,1.82,1.82,0,0,1,.28-.6,2.14,2.14,0,0,1,.46-.49,2.08,2.08,0,0,1,.58-.33,1.81,1.81,0,0,1,.64-.12,1.48,1.48,0,0,1,.57.11,1,1,0,0,1,.43.29.88.88,0,0,1,.24.43,1.94,1.94,0,0,1,0,.24A1.22,1.22,0,0,1,187.93,22Z"/><path class="cls-10" d="M138,38.61a.32.32,0,0,0,0,.14.11.11,0,0,0,.07.12.76.76,0,0,0,.35.06h.5c.06,0,.09,0,.1.06s0,0,0,0l0,.07a.15.15,0,0,1-.14.1l-1.31,0-1.31,0c-.06,0-.08,0-.08-.07v-.1a.14.14,0,0,1,.14-.11h.51a.91.91,0,0,0,.38-.06c.08,0,.14-.11.18-.26l1.15-4.47a2.35,2.35,0,0,1-.54.29,1.72,1.72,0,0,1-.6.1.08.08,0,0,1-.06,0,.08.08,0,0,1,0,0,0,0,0,0,1,0,0l0-.08a.14.14,0,0,1,.13-.11,1.7,1.7,0,0,0,1-.32,3.79,3.79,0,0,0,.8-.8.14.14,0,0,1,.1-.07h0a.08.08,0,0,1,.07,0,.06.06,0,0,1,0,0,0,0,0,0,1,0,0Z"/><path class="cls-10" d="M156.1,35.15a1.57,1.57,0,0,1-.34.65,3.94,3.94,0,0,1-.59.56,6.2,6.2,0,0,1-.73.49l-.73.42a3.11,3.11,0,0,0-.77.56,3.44,3.44,0,0,0-.59.73.5.5,0,0,1,.23,0,2.42,2.42,0,0,1,.47,0l.46.1.46.09a2.35,2.35,0,0,0,.47,0,.94.94,0,0,0,.36-.08,1.41,1.41,0,0,0,.32-.24,1.52,1.52,0,0,0,.26-.35,1.59,1.59,0,0,0,.16-.41c0-.05.05-.08.12-.08h.18v.07a4.44,4.44,0,0,1-.22.61,2.88,2.88,0,0,1-.34.56,1.71,1.71,0,0,1-.45.4,1.13,1.13,0,0,1-1.05,0l-.41-.24a2.55,2.55,0,0,0-.39-.24.85.85,0,0,0-.46-.12.36.36,0,0,0-.29.18,1.25,1.25,0,0,0-.21.45s-.05.08-.12.08h-.1a.06.06,0,0,1-.06,0s0,0,0,0v0A3.41,3.41,0,0,1,152.4,38a3.85,3.85,0,0,1,1.19-1,5.13,5.13,0,0,0,1.12-.82,2.32,2.32,0,0,0,.65-1.07,4.68,4.68,0,0,0,.14-.71V34.3a1.64,1.64,0,0,0-.08-.5.94.94,0,0,0-.3-.38.73.73,0,0,0-.46-.15,1.22,1.22,0,0,0-.62.16,2.14,2.14,0,0,0-.52.44,2.54,2.54,0,0,0-.41.63,5.05,5.05,0,0,0-.27.74,1.22,1.22,0,0,0-.06.35.51.51,0,0,0,0,.13c0,.13.09.19.2.19a.53.53,0,0,0,.3-.09,1.34,1.34,0,0,0,.25-.23,2.18,2.18,0,0,0,.2-.34,2.61,2.61,0,0,0,.16-.42.77.77,0,0,0,0-.15.41.41,0,0,0,0-.11.77.77,0,0,0-.1-.25s0,0,0,0a.09.09,0,0,1,0-.08l0,0,.07,0a.07.07,0,0,1,.06,0,.62.62,0,0,1,.14.41,1,1,0,0,1,0,.24,2.54,2.54,0,0,1-.17.46,1.87,1.87,0,0,1-.25.41,1.18,1.18,0,0,1-.33.3.81.81,0,0,1-.41.11.47.47,0,0,1-.28-.07.46.46,0,0,1-.14-.21.75.75,0,0,1,0-.26,0,0,0,0,1,0,0,1,1,0,0,1,0-.3,4.13,4.13,0,0,1,.31-.8,3.1,3.1,0,0,1,.48-.7,2.48,2.48,0,0,1,.63-.5,1.61,1.61,0,0,1,.75-.19,1.49,1.49,0,0,1,.71.17,1.44,1.44,0,0,1,.5.45,1.67,1.67,0,0,1,.24.69.93.93,0,0,1,0,.23A2.1,2.1,0,0,1,156.1,35.15Z"/><path class="cls-10" d="M172.17,34.64a1.67,1.67,0,0,1-.29.62,2,2,0,0,1-.51.53,2.15,2.15,0,0,1-.7.37,1.25,1.25,0,0,1,.51.39,1.3,1.3,0,0,1,.24.55,1.5,1.5,0,0,1,0,.22,1.47,1.47,0,0,1-.07.41,1.94,1.94,0,0,1-.31.67,2.68,2.68,0,0,1-.57.54,2.75,2.75,0,0,1-1.5.49,1.34,1.34,0,0,1-.58-.12A1,1,0,0,1,168,39a1,1,0,0,1-.21-.49,1.12,1.12,0,0,1,0-.21,1.46,1.46,0,0,1,.07-.39.41.41,0,0,1,.19-.27.48.48,0,0,1,.28-.1.37.37,0,0,1,.25.09.25.25,0,0,1,.06.17.23.23,0,0,1,0,.11.42.42,0,0,1-.21.3.54.54,0,0,1-.26.07h-.05a1,1,0,0,0,.28.69.93.93,0,0,0,.7.27,1.23,1.23,0,0,0,.53-.11,1.5,1.5,0,0,0,.49-.31,1.48,1.48,0,0,0,.37-.49,3.49,3.49,0,0,0,.2-.57,4.38,4.38,0,0,0,.11-.57V37a1,1,0,0,0-.06-.35.67.67,0,0,0-.62-.42h-.5a.05.05,0,0,1-.06-.06v0l0-.1a.1.1,0,0,1,.1-.08h.5a1.41,1.41,0,0,0,.91-.38,1.54,1.54,0,0,0,.33-.44,2.55,2.55,0,0,0,.18-.53,1.69,1.69,0,0,0,.09-.53v0a.81.81,0,0,0-.11-.43.75.75,0,0,0-.28-.28.8.8,0,0,0-.41-.1,1.65,1.65,0,0,0-.58.1,1.86,1.86,0,0,0-.52.28,2.09,2.09,0,0,0-.42.42,1.67,1.67,0,0,0-.25.52,1.2,1.2,0,0,0,0,.24.5.5,0,0,0,0,.19.25.25,0,0,0,.25.18.52.52,0,0,0,.33-.12.54.54,0,0,0,.2-.31.27.27,0,0,0,0-.13.53.53,0,0,0-.12-.32v0a.08.08,0,0,1,0-.07l0,0,.08,0s0,0,.06,0a1.26,1.26,0,0,1,.13.26.77.77,0,0,1,0,.15.57.57,0,0,1,0,.18.88.88,0,0,1-.3.46.85.85,0,0,1-.52.19.46.46,0,0,1-.27-.08.38.38,0,0,1-.16-.19.53.53,0,0,1,0-.26,0,0,0,0,1,0,0,1.24,1.24,0,0,1,0-.27,1.66,1.66,0,0,1,.3-.61,2.32,2.32,0,0,1,.5-.49,2.37,2.37,0,0,1,.61-.32,2,2,0,0,1,.68-.12,1.56,1.56,0,0,1,.62.12,1.15,1.15,0,0,1,.46.35,1.22,1.22,0,0,1,.24.5,2.32,2.32,0,0,1,0,.24A1.73,1.73,0,0,1,172.17,34.64Z"/><path class="cls-10" d="M187.05,39.08c0,.05,0,.08-.09.1a2.8,2.8,0,0,1-.41.13,1.52,1.52,0,0,1-.42.06H186l-.36,1.37a.36.36,0,0,1-.14.23.44.44,0,0,1-.24.07A.28.28,0,0,1,185,41a.2.2,0,0,1,0-.13.38.38,0,0,1,0-.1l.39-1.52a4.79,4.79,0,0,1-.57-.21,1.7,1.7,0,0,0-.61-.11h-.41a.9.9,0,0,0-.34.06l-.15.12a1.13,1.13,0,0,1-.18.12s0,0-.05,0h0a0,0,0,0,1-.05,0l-.07-.08,0,0s0,0,.06-.07l.18-.13.18-.16a6.71,6.71,0,0,0,1.12-1.14,8.53,8.53,0,0,0,.86-1.32,10.76,10.76,0,0,0,.64-1.43,13.24,13.24,0,0,0,.45-1.48.41.41,0,0,1,.15-.21.35.35,0,0,1,.21-.07.34.34,0,0,1,.22.07.21.21,0,0,1,0,.14.17.17,0,0,1,0,.07,10.73,10.73,0,0,1-1.15,2.82,10.07,10.07,0,0,1-.9,1.3,9.32,9.32,0,0,1-1.11,1.16h.41a1.79,1.79,0,0,1,.62.1l.57.21.42-1.64a.34.34,0,0,1,.14-.22.51.51,0,0,1,.23-.07.47.47,0,0,1,.2.06.26.26,0,0,1,0,.15v.08L186,39.07h.16a2,2,0,0,0,.7-.13h0l.06,0,0,.07s0,0,0,0Z"/><path class="cls-10" d="M135.33,51.07a.31.31,0,0,0,0,.13.13.13,0,0,0,.08.13,1.05,1.05,0,0,0,.35.06h.5q.09,0,.09.06a.11.11,0,0,1,0,0l0,.07a.13.13,0,0,1-.13.1l-1.31,0-1.32,0c-.05,0-.08,0-.08-.07v0l0-.07a.12.12,0,0,1,.14-.11h.5a1.43,1.43,0,0,0,.38-.06c.09,0,.15-.12.19-.26l1.15-4.48a2.29,2.29,0,0,1-.55.3,1.72,1.72,0,0,1-.6.1.06.06,0,0,1-.06,0,.05.05,0,0,1,0,0s0,0,0,0l0-.08a.13.13,0,0,1,.14-.11,1.67,1.67,0,0,0,.95-.32,3.24,3.24,0,0,0,.8-.81.17.17,0,0,1,.11-.06h0a.09.09,0,0,1,.07,0v0s0,0,0,0Z"/><path class="cls-10" d="M142.58,47.1a1.92,1.92,0,0,1-.28.62,2.55,2.55,0,0,1-.51.53,2.41,2.41,0,0,1-.71.37,1.17,1.17,0,0,1,.51.39,1.19,1.19,0,0,1,.24.55,1.35,1.35,0,0,1,0,.63,1.84,1.84,0,0,1-.32.66,2.3,2.3,0,0,1-.57.55,2.61,2.61,0,0,1-.73.36,2.64,2.64,0,0,1-.78.12,1.36,1.36,0,0,1-.58-.11,1.11,1.11,0,0,1-.41-.33,1,1,0,0,1-.2-.49.49.49,0,0,1,0-.21,1.43,1.43,0,0,1,.06-.39.51.51,0,0,1,.19-.28.54.54,0,0,1,.28-.09.37.37,0,0,1,.25.09.24.24,0,0,1,.06.17.45.45,0,0,1,0,.11.42.42,0,0,1-.21.3.54.54,0,0,1-.27.07h0a.93.93,0,0,0,.27.69,1,1,0,0,0,.71.27,1.27,1.27,0,0,0,.54-.11,1.75,1.75,0,0,0,.49-.31,1.6,1.6,0,0,0,.36-.49,3.49,3.49,0,0,0,.2-.57q.08-.3.12-.57v-.14a.89.89,0,0,0-.07-.36.62.62,0,0,0-.24-.29.59.59,0,0,0-.37-.12H140s-.07,0-.07-.06v0l0-.1a.1.1,0,0,1,.11-.08h.49a1.42,1.42,0,0,0,.48-.1,1.52,1.52,0,0,0,.43-.28,1.45,1.45,0,0,0,.33-.45,2.92,2.92,0,0,0,.19-.52,2.56,2.56,0,0,0,.09-.53v0a.92.92,0,0,0-.11-.43.71.71,0,0,0-.29-.28.78.78,0,0,0-.41-.1,1.65,1.65,0,0,0-.58.1,1.75,1.75,0,0,0-.52.28,1.81,1.81,0,0,0-.41.42,1.36,1.36,0,0,0-.27.52,1.12,1.12,0,0,0,0,.24.54.54,0,0,0,0,.19.26.26,0,0,0,.26.17.52.52,0,0,0,.33-.12.49.49,0,0,0,.2-.3.28.28,0,0,0,0-.13.53.53,0,0,0-.12-.32.09.09,0,0,1,0-.05.08.08,0,0,1,0-.07l0,0,.08,0a.07.07,0,0,1,.06,0,.79.79,0,0,1,.13.26.39.39,0,0,1,0,.15,1.24,1.24,0,0,1,0,.18,1,1,0,0,1-.31.46.82.82,0,0,1-.52.18.51.51,0,0,1-.28-.07.49.49,0,0,1-.16-.19.76.76,0,0,1-.05-.27s0,0,0,0a1.24,1.24,0,0,1,0-.27,1.83,1.83,0,0,1,.3-.61A2.63,2.63,0,0,1,140,46a2.15,2.15,0,0,1,.62-.32,1.93,1.93,0,0,1,.67-.12,1.56,1.56,0,0,1,.62.12,1.23,1.23,0,0,1,.46.34,1.2,1.2,0,0,1,.24.51,2.32,2.32,0,0,1,0,.24A1.73,1.73,0,0,1,142.58,47.1Z"/><path class="cls-10" d="M151.15,51.07a.31.31,0,0,0,0,.13c0,.07,0,.11.07.13a1.17,1.17,0,0,0,.35.06h.5c.06,0,.09,0,.1.06a.43.43,0,0,0,0,0l0,.07a.14.14,0,0,1-.14.1l-1.3,0-1.32,0c-.06,0-.08,0-.08-.07v0l0-.07a.12.12,0,0,1,.13-.11h.51a1.43,1.43,0,0,0,.38-.06.31.31,0,0,0,.18-.26l1.16-4.48a2.29,2.29,0,0,1-.55.3,1.72,1.72,0,0,1-.6.1.06.06,0,0,1-.06,0,.05.05,0,0,1,0,0,0,0,0,0,1,0,0l0-.08a.13.13,0,0,1,.14-.11,1.69,1.69,0,0,0,.95-.32,3.42,3.42,0,0,0,.8-.81.15.15,0,0,1,.1-.06h0a.11.11,0,0,1,.08,0v.07Z"/><path class="cls-10" d="M157.46,51.54c0,.05,0,.08-.08.1l-.42.13a1.48,1.48,0,0,1-.41,0h-.19L156,53.19a.32.32,0,0,1-.15.22.4.4,0,0,1-.23.08.25.25,0,0,1-.19-.07.21.21,0,0,1-.05-.13s0-.06,0-.1l.39-1.52-.57-.21a1.48,1.48,0,0,0-.61-.11h-.41a.84.84,0,0,0-.33.06l-.16.12-.17.12,0,0h-.07l-.06-.08,0,0s0,0,0-.07l.18-.14a1.39,1.39,0,0,0,.19-.15A7.1,7.1,0,0,0,154.88,50a10.29,10.29,0,0,0,.86-1.32,10.76,10.76,0,0,0,.64-1.43c.17-.49.32-1,.45-1.48a.34.34,0,0,1,.14-.21.4.4,0,0,1,.22-.07.37.37,0,0,1,.21.06.25.25,0,0,1,0,.15s0,0,0,.07a13.5,13.5,0,0,1-.48,1.44,11,11,0,0,1-.68,1.38,9.49,9.49,0,0,1-2,2.45h.4a1.81,1.81,0,0,1,.63.1l.57.21.41-1.64a.35.35,0,0,1,.15-.22.48.48,0,0,1,.23-.07.36.36,0,0,1,.2.06.33.33,0,0,1,0,.14.28.28,0,0,1,0,.09l-.45,1.79h.16a2,2,0,0,0,.69-.13h0l.06,0,.06.07v0Z"/><path class="cls-10" d="M167,51.07a.65.65,0,0,0,0,.13.13.13,0,0,0,.08.13,1.17,1.17,0,0,0,.35.06h.5c.06,0,.09,0,.1.06a.43.43,0,0,0,0,0l0,.07a.15.15,0,0,1-.14.1l-1.31,0-1.31,0c-.06,0-.08,0-.08-.07v-.1a.13.13,0,0,1,.14-.11h.51a1.43,1.43,0,0,0,.38-.06.36.36,0,0,0,.18-.26l1.15-4.48a2,2,0,0,1-.55.3,1.66,1.66,0,0,1-.59.1.06.06,0,0,1-.06,0s0,0,0,0a0,0,0,0,1,0,0l0-.08c0-.08.06-.11.13-.11a1.7,1.7,0,0,0,1-.32,3.38,3.38,0,0,0,.79-.81.17.17,0,0,1,.11-.06h0a.08.08,0,0,1,.07,0,0,0,0,0,1,0,0s0,0,0,0Z"/><path class="cls-10" d="M174.3,45.6s0,0,0,0a.08.08,0,0,1,0,0,2.87,2.87,0,0,1-.88.62,2.53,2.53,0,0,1-1,.22,2,2,0,0,1-.72-.13l-.47,1.86a2.15,2.15,0,0,1,.56-.34,1.84,1.84,0,0,1,.66-.12,1.08,1.08,0,0,1,.63.17,1.15,1.15,0,0,1,.39.43,1.57,1.57,0,0,1,.19.68v.14a2.18,2.18,0,0,1-.08.61,2.71,2.71,0,0,1-.35.78,2.93,2.93,0,0,1-.59.69,2.68,2.68,0,0,1-.72.44,2.17,2.17,0,0,1-.79.15,1.16,1.16,0,0,1-.6-.14,1.21,1.21,0,0,1-.4-.38,1.15,1.15,0,0,1-.17-.56.81.81,0,0,1,0-.16,2,2,0,0,1,.06-.48.44.44,0,0,1,.2-.3.51.51,0,0,1,.3-.1.4.4,0,0,1,.27.09.24.24,0,0,1,.07.18.59.59,0,0,1,0,.13.45.45,0,0,1-.24.31.56.56,0,0,1-.27.08h-.07v.06a1,1,0,0,0,.24.7.84.84,0,0,0,.71.32,1.17,1.17,0,0,0,.53-.14,2.09,2.09,0,0,0,.47-.36,2.15,2.15,0,0,0,.38-.61c.09-.23.16-.46.23-.7s.11-.46.15-.69a1.12,1.12,0,0,0,0-.27,1.34,1.34,0,0,0,0-.35,1.23,1.23,0,0,0-.19-.36.45.45,0,0,0-.35-.15,1.5,1.5,0,0,0-.7.16,2,2,0,0,0-.57.43l-.07.09a.12.12,0,0,1-.09,0h-.06s-.08,0-.08-.07v0l.62-2.41.16-.62a.11.11,0,0,1,.11-.09h.07l0,0a2.26,2.26,0,0,0,1.1.26,3.25,3.25,0,0,0,1.29-.29h0a.07.07,0,0,1,.07.06Z"/><path class="cls-10" d="M182.76,51.07l0,.13a.13.13,0,0,0,.08.13,1.11,1.11,0,0,0,.35.06h.5q.09,0,.09.06a.11.11,0,0,1,0,0v.07a.15.15,0,0,1-.14.1l-1.31,0-1.32,0c-.05,0-.08,0-.08-.07v0l0-.07a.12.12,0,0,1,.14-.11h.51a1.34,1.34,0,0,0,.37-.06c.09,0,.15-.12.19-.26l1.15-4.48a2.11,2.11,0,0,1-.55.3,1.7,1.7,0,0,1-.59.1.09.09,0,0,1-.07,0s0,0,0,0v0l0-.08c0-.08.07-.11.14-.11a1.64,1.64,0,0,0,1-.32,3.24,3.24,0,0,0,.8-.81.17.17,0,0,1,.11-.06h0a.09.09,0,0,1,.07,0,0,0,0,0,1,0,0s0,0,0,0Z"/><path class="cls-10" d="M188.72,48.46a.74.74,0,0,0-.22-.39.66.66,0,0,0-.42-.12,1,1,0,0,0-.53.15,1.75,1.75,0,0,0-.45.41,3,3,0,0,0-.34.59,4,4,0,0,0-.21.7q-.06.35-.12.63a2.6,2.6,0,0,0,0,.36.53.53,0,0,0,0,.13.9.9,0,0,0,.2.5.57.57,0,0,0,.47.21,1.13,1.13,0,0,0,.51-.12,1.66,1.66,0,0,0,.43-.38,2,2,0,0,0,.34-.6c.07-.22.15-.46.22-.72s.12-.53.17-.75,0-.2,0-.3A1,1,0,0,0,188.72,48.46Zm1.29-2a.42.42,0,0,1-.2.28.51.51,0,0,1-.29.1.3.3,0,0,1-.24-.1.24.24,0,0,1-.06-.17.45.45,0,0,1,0-.11.43.43,0,0,1,.2-.27.51.51,0,0,1,.29-.1c-.07-.24-.29-.37-.64-.37a1.3,1.3,0,0,0-.73.24,2.6,2.6,0,0,0-.64.6,3.36,3.36,0,0,0-.55,1,9.43,9.43,0,0,0-.32,1,2.16,2.16,0,0,1,.56-.6,1.36,1.36,0,0,1,1.41-.08,1.31,1.31,0,0,1,.42.45,1.57,1.57,0,0,1,.23.68v.11a2.88,2.88,0,0,1-.09.67,3.44,3.44,0,0,1-.32.78,3,3,0,0,1-.59.68,2.69,2.69,0,0,1-.68.47,2.07,2.07,0,0,1-.77.14,1.13,1.13,0,0,1-.73-.24,1.35,1.35,0,0,1-.41-.61,2.62,2.62,0,0,1-.09-.56c0-.07,0-.15,0-.23s0-.24,0-.36.05-.39.09-.59.09-.4.14-.59a5.23,5.23,0,0,1,.45-1.17,4.41,4.41,0,0,1,.79-1.07,3.6,3.6,0,0,1,.88-.67,1.94,1.94,0,0,1,1-.28,1,1,0,0,1,.74.25.6.6,0,0,1,.16.44A1.49,1.49,0,0,1,190,46.48Z"/><line class="cls-11" x1="131.36" y1="7.72" x2="131.36" y2="53.02"/><line class="cls-11" x1="192.22" y1="53.02" x2="192.22" y2="7.72"/><path class="cls-10" d="M131.21,55a2.37,2.37,0,0,0,2.22,1.55H159.7a2.09,2.09,0,0,1,2,1.38h.25a2.09,2.09,0,0,1,2-1.38h26.25A2.35,2.35,0,0,0,192.36,55l-.05-.19a2.09,2.09,0,0,1-1.9,1.2H163.89a2.09,2.09,0,0,0-2,1.38h-.25a2.09,2.09,0,0,0-2-1.38H133.16a2.11,2.11,0,0,1-1.9-1.2"/><path class="cls-10" d="M139.53,60.8l.32-.17c.26.34.49.66.69,1l-.36.18C140,61.46,139.77,61.14,139.53,60.8Zm-.09-.84h1.62v-.9h.39V60H142v.31h-.58v2.2q0,.6-.69.6H140a2.37,2.37,0,0,0-.08-.38l.73,0c.24,0,.37-.1.37-.31V60.27h-1.62Zm-1.76.16.81,1a4.09,4.09,0,0,0,.36-1.32h-1.52V59.5h1.92v.31a5.22,5.22,0,0,1-.52,1.65c.26.33.52.65.76,1l-.35.2-.61-.83A4.63,4.63,0,0,1,137.44,63a3.83,3.83,0,0,0-.24-.31,4.32,4.32,0,0,0,1.1-1.21l-.91-1.19Z"/><path class="cls-8" d="M146.14,59.44a.71.71,0,0,0-.31-.33,1,1,0,0,0-.49-.12h-.61a.4.4,0,0,0-.2,0s0,.06-.07.15l-.8,2.77a1.05,1.05,0,0,0,0,.13v0s.08,0,.18,0h.61A1.38,1.38,0,0,0,145,62a1.69,1.69,0,0,0,.51-.32,1.62,1.62,0,0,0,.39-.52,3.1,3.1,0,0,0,.21-.58,3.19,3.19,0,0,0,.12-.6.57.57,0,0,0,0-.13A1,1,0,0,0,146.14,59.44Zm.5,1.15a2.18,2.18,0,0,1-.3.64,2.73,2.73,0,0,1-.52.56,2.57,2.57,0,0,1-.62.36,1.82,1.82,0,0,1-.68.13h-1.89s0,0,0,0v-.06a.06.06,0,0,1,.08,0h.26a.5.5,0,0,0,.19,0,.22.22,0,0,0,.09-.15l.8-2.77a.51.51,0,0,0,0-.09s0,0,0,0a.34.34,0,0,0-.17,0h-.25s-.05,0-.05,0h0v0a.08.08,0,0,1,.08-.06h1.89a1.27,1.27,0,0,1,.6.14,1.23,1.23,0,0,1,.41.37,1.21,1.21,0,0,1,.19.58.62.62,0,0,1,0,.13A2,2,0,0,1,146.64,60.59Z"/><path class="cls-10" d="M151.87,60.12h-.64a1,1,0,0,1,0,.1,4.24,4.24,0,0,0,.35,1.49A4.19,4.19,0,0,0,151.87,60.12Zm-1.69,1.17h-.79v1h.79ZM147.66,61a6,6,0,0,0,.93-2l.36.08c-.11.32-.22.63-.34.91v3.11h-.33V60.71a6.74,6.74,0,0,1-.46.68C147.77,61.28,147.72,61.16,147.66,61ZM149,61h.55v-.83h-.76V59.9h.76v-.81H150v.81h.77v.28H150V61h.58v1.54h-1.14v.29H149Zm2.13-1.95.35,0a7.25,7.25,0,0,1-.19.74h1.14v.27h-.25a4.44,4.44,0,0,1-.48,2,2.18,2.18,0,0,0,.78.73c-.08.11-.16.21-.22.31a3.2,3.2,0,0,1-.77-.74,4.2,4.2,0,0,1-.85.83,2.6,2.6,0,0,0-.24-.27,3.75,3.75,0,0,0,.9-.87,3.54,3.54,0,0,1-.4-1.3,3.89,3.89,0,0,1-.25.4,2,2,0,0,0-.21-.27A4.85,4.85,0,0,0,151.17,59.06Z"/><path class="cls-10" d="M154.54,61.92a.31.31,0,0,0,0,.08.07.07,0,0,0,0,.07.55.55,0,0,0,.23,0h.32a.07.07,0,0,1,.06,0s0,0,0,0v0a.1.1,0,0,1-.09.06l-.84,0-.84,0a0,0,0,0,1,0,0v-.07a.08.08,0,0,1,.09-.06h.32a.76.76,0,0,0,.25,0c.05,0,.09-.06.11-.15l.74-2.55a1.58,1.58,0,0,1-.35.16,1.21,1.21,0,0,1-.38.06h0v-.09a.1.1,0,0,1,.09-.06,1.07,1.07,0,0,0,.61-.19,1.84,1.84,0,0,0,.51-.45.08.08,0,0,1,.07,0h0s0,0,.05,0v0h0Z"/><path class="cls-10" d="M157,62.27a1.69,1.69,0,0,1-.28.53,2.07,2.07,0,0,1-.48.45h-.08a0,0,0,0,1,0,0,.05.05,0,0,1,0,0,2.16,2.16,0,0,0,.44-.41,1.75,1.75,0,0,0,.25-.49l0-.08a.35.35,0,0,1-.12.07l-.14,0a.22.22,0,0,1-.21-.09.2.2,0,0,1,0-.11.2.2,0,0,1,0-.07.36.36,0,0,1,.13-.18.34.34,0,0,1,.25-.08.19.19,0,0,1,.16,0,.2.2,0,0,1,.08.12.41.41,0,0,1,0,.11v.06Z"/><path class="cls-10" d="M161.53,59.66a1.06,1.06,0,0,1-.18.35,1.64,1.64,0,0,1-.33.31,1.85,1.85,0,0,1-.45.21.69.69,0,0,1,.33.22.6.6,0,0,1,.15.31.53.53,0,0,1,0,.13.62.62,0,0,1,0,.23,1,1,0,0,1-.2.38,1.55,1.55,0,0,1-.36.31,2.18,2.18,0,0,1-.47.21,1.71,1.71,0,0,1-.49.07.84.84,0,0,1-.37-.07.64.64,0,0,1-.27-.18.56.56,0,0,1-.13-.28l0-.12a.59.59,0,0,1,.05-.22.23.23,0,0,1,.12-.16.32.32,0,0,1,.18-.06.3.3,0,0,1,.16.05.18.18,0,0,1,0,.1s0,0,0,.07a.29.29,0,0,1-.14.17.53.53,0,0,1-.17,0h0a.57.57,0,0,0,.18.39.65.65,0,0,0,.45.16,1,1,0,0,0,.34-.07,1,1,0,0,0,.31-.18,1,1,0,0,0,.24-.27c.05-.11.09-.22.13-.33s0-.22.07-.33V61a.65.65,0,0,0,0-.2.44.44,0,0,0-.16-.17.43.43,0,0,0-.24-.07h-.32s0,0,0,0v0l0-.06s0,0,.07,0h.31a.85.85,0,0,0,.31-.06,1.12,1.12,0,0,0,.28-.16A.82.82,0,0,0,161,60a1.88,1.88,0,0,0,.12-.3,1.18,1.18,0,0,0,.05-.31h0a.45.45,0,0,0-.07-.25.4.4,0,0,0-.18-.16.53.53,0,0,0-.26-.06,1.15,1.15,0,0,0-.37.06,1.33,1.33,0,0,0-.34.16,1.48,1.48,0,0,0-.26.24.73.73,0,0,0-.16.3.36.36,0,0,0,0,.14.16.16,0,0,0,0,.1.15.15,0,0,0,.16.1.42.42,0,0,0,.21-.06.36.36,0,0,0,.12-.18.1.1,0,0,0,0-.07.3.3,0,0,0-.07-.19,0,0,0,0,1,0,0l0,0h0l0,0s0,0,0,0a.67.67,0,0,1,.09.14s0,.06,0,.09a.44.44,0,0,1,0,.1.46.46,0,0,1-.2.26.55.55,0,0,1-.33.11.31.31,0,0,1-.17,0,.21.21,0,0,1-.1-.11.26.26,0,0,1,0-.15v0a.39.39,0,0,1,0-.15.86.86,0,0,1,.19-.35,1.43,1.43,0,0,1,.32-.28,1.76,1.76,0,0,1,.39-.19,1.61,1.61,0,0,1,.44-.06,1,1,0,0,1,.39.07.77.77,0,0,1,.3.19.89.89,0,0,1,.15.29.71.71,0,0,1,0,.14A.89.89,0,0,1,161.53,59.66Z"/><path class="cls-10" d="M162.34,60.21A4.51,4.51,0,0,0,163.57,59l.35.18a6.09,6.09,0,0,1-1.39,1.33Zm2-.87h2.5v.31h-2.5Zm-2,2.2a5.12,5.12,0,0,0,1.36-1.5l.34.18a7.47,7.47,0,0,1-.52.7v2.21h-.4V61.35a7.46,7.46,0,0,1-.61.53A3.59,3.59,0,0,0,162.31,61.54Zm1.75-.94h3.05v.31h-.93v1.64c0,.34-.2.52-.6.52h-.83c0-.11,0-.23-.07-.37.25,0,.5,0,.76,0s.33-.09.33-.28V60.91h-1.71Z"/><path class="cls-10" d="M170.76,60.6h-2.27l-.15.92h2.34Zm-3.43,1.94h3.27l.06-.71h-2.72v-.3l.3-1.84h-.74v-.3h4.24v.3h-3.1l-.1.61h2.65L171,62.54h.92v.3h-4.59Z"/><path class="cls-10" d="M175.8,59.75h-1.23a6.91,6.91,0,0,1-.51.57h1.2Zm-1.55,1.84H175a6.56,6.56,0,0,0,0-1h-.79Zm1.94-1h-.81c0,.36,0,.68,0,1h.84Zm-4.07.64.61-.16v-1h-.57v-.28h.57v-.78h.36v.78h.55v.28h-.55V61l.51-.16a3.22,3.22,0,0,0,0,.33l-.52.16v1.35a.4.4,0,0,1-.44.44h-.48l-.06-.35.44,0c.12,0,.18-.06.18-.17V61.43l-.56.17Zm1.36.34h.42V60.46a2.67,2.67,0,0,0-.28-.19,4.64,4.64,0,0,0,1-1.26l.39.06c-.08.13-.16.26-.25.39h1.46v.28c-.12.13-.31.33-.57.58h.86v1.27h.39v.29h-1.49a1.91,1.91,0,0,0,1.47.92,3.8,3.8,0,0,0-.29.33,2.2,2.2,0,0,1-1.41-1c-.17.44-.71.79-1.6,1.08l-.27-.31c.92-.23,1.45-.56,1.59-1h-1.44Z"/><path class="cls-10" d="M178.91,62.18l.27-.18c.19.17.37.34.53.51l-.3.19C179.26,62.53,179.09,62.35,178.91,62.18Zm-1.87-2A4.17,4.17,0,0,0,178.19,59l.34.18a6.91,6.91,0,0,1-1.29,1.3A2.61,2.61,0,0,0,177,60.2Zm4-.71h-1.77v.37H181Zm-1.77,1H181v-.37h-1.77Zm-2.24,1a5.62,5.62,0,0,0,1.17-1.37l.34.15c-.15.21-.29.41-.44.59v2.28h-.36V61.3a5.35,5.35,0,0,1-.54.53A3.48,3.48,0,0,0,177,61.5Zm1.42.21h2.32v-.34h-2.11v-.28h3.07v.28h-.59v.34h.7V62h-.7v.61c0,.33-.2.5-.58.5h-.72c0-.09,0-.2-.07-.33.21,0,.44,0,.7,0s.3-.08.3-.26V62h-2.32Zm.47-2.48h2.47v1.66H181v-.14h-1.77v.14h-.35Z"/><path class="cls-10" d="M182.7,60.25l.28-.2a8.2,8.2,0,0,1,.67.65l-.32.23C183.17,60.74,183,60.51,182.7,60.25Zm2.3.49a8.68,8.68,0,0,0,.69-.71l.33.22c-.24.25-.49.48-.74.7Zm1.75,1.76a3.29,3.29,0,0,0-.27.32,5.19,5.19,0,0,1-2-1.26v1.6h-.37V61.53a7.18,7.18,0,0,1-2,1.34,2.1,2.1,0,0,0-.26-.29A8.49,8.49,0,0,0,184,61.31h-2V61h2.14V59.92h-1.86v-.3h1.86V59h.37v.6h1.9v.3h-1.9V61h2.15v.3h-2A5.45,5.45,0,0,0,186.75,62.5Z"/><line class="cls-9" x1="196.21" y1="29.43" x2="202.51" y2="29.43"/><line class="cls-9" x1="196.21" y1="31.32" x2="202.51" y2="31.32"/><line class="cls-12" x1="205.57" y1="30.37" x2="209.47" y2="30.37"/><path class="cls-8" d="M217.77,28a1.34,1.34,0,0,0-.5-.6,1.48,1.48,0,0,0-.79-.21h-1a.63.63,0,0,0-.3,0,.5.5,0,0,0-.11.28l-1.28,4.95a.85.85,0,0,0,0,.22s0,.05,0,.06.11,0,.27,0h1a2.1,2.1,0,0,0,.9-.2,2.81,2.81,0,0,0,.8-.56,3.17,3.17,0,0,0,.63-.94,7.76,7.76,0,0,0,.34-1,6.88,6.88,0,0,0,.19-1.07,2.18,2.18,0,0,0,0-.25A2,2,0,0,0,217.77,28Zm.78,2.05a4.27,4.27,0,0,1-.48,1.13,4.33,4.33,0,0,1-.82,1,4,4,0,0,1-1,.64,2.56,2.56,0,0,1-1.07.24h-3c-.06,0-.09,0-.09-.07v0l0-.07a.13.13,0,0,1,.13-.11h.41a1,1,0,0,0,.3,0,.39.39,0,0,0,.15-.27l1.27-4.95a.61.61,0,0,0,0-.16.1.1,0,0,0,0-.1.49.49,0,0,0-.26,0h-.41a.07.07,0,0,1-.08-.08v0l0-.07a.11.11,0,0,1,.12-.1h3a1.79,1.79,0,0,1,1,.25,2,2,0,0,1,.65.66,2.29,2.29,0,0,1,.3,1,1.7,1.7,0,0,1,0,.22A3.63,3.63,0,0,1,218.55,30Z"/></g></g></g></g></svg>