<svg id="图层_1" data-name="图层 1" xmlns="http://www.w3.org/2000/svg" xmlns:xlink="http://www.w3.org/1999/xlink" viewBox="0 0 156 77.6"><defs><style>.cls-1,.cls-11,.cls-4,.cls-5,.cls-6{fill:none;}.cls-2{clip-path:url(#clip-path);}.cls-3{fill:#fff;}.cls-4{stroke:#ed7d31;opacity:0.5;}.cls-11,.cls-4,.cls-5,.cls-6{stroke-miterlimit:10;}.cls-4,.cls-5{stroke-width:8px;}.cls-5{stroke:#00b0f0;opacity:0.3;}.cls-6{stroke:#c00000;}.cls-7{fill:#ff0;}.cls-8{clip-path:url(#clip-path-4);}.cls-9{clip-path:url(#clip-path-5);}.cls-10{fill-rule:evenodd;}.cls-11{stroke:#000;stroke-linecap:round;stroke-width:0.43px;}</style><clipPath id="clip-path"><rect class="cls-1" x="-400.8" y="-234.8" width="960" height="540"/></clipPath><clipPath id="clip-path-4"><rect class="cls-1" x="-4.08" y="-4.88" width="166.56" height="80.16"/></clipPath><clipPath id="clip-path-5"><rect class="cls-1" x="-4.08" y="-4.88" width="166.56" height="80.16"/></clipPath></defs><g class="cls-2"><g class="cls-2"><g class="cls-2"><rect class="cls-3" x="-400.8" y="-234.8" width="960" height="540"/></g><line class="cls-4" x1="5.34" y1="34.18" x2="51.09" y2="34.18"/><line class="cls-5" x1="21.66" y1="3.22" x2="21.66" y2="50.97"/><circle class="cls-6" cx="21.6" cy="34.12" r="5.76" transform="translate(-17.8 25.27) rotate(-45)"/><rect class="cls-7" x="1.68" y="2.68" width="14.28" height="23.88"/><rect class="cls-7" x="30.72" y="2.68" width="20.4" height="23.88"/><rect class="cls-7" x="1.68" y="39.88" width="14.28" height="11.04"/><rect class="cls-7" x="30.72" y="39.88" width="20.4" height="11.04"/><rect class="cls-7" x="120.84" y="11.32" width="30" height="34.8"/><g class="cls-8"><g class="cls-9"><path class="cls-10" d="M10.27,11a.39.39,0,0,0,0,.14c0,.07,0,.11.08.13a1.05,1.05,0,0,0,.35.06h.5c.06,0,.09,0,.09.07a.06.06,0,0,1,0,0l0,.08a.13.13,0,0,1-.13.1c-.43,0-.87,0-1.31,0l-1.32,0c-.05,0-.08,0-.08-.07v0l0-.08a.13.13,0,0,1,.14-.11h.5a1.43,1.43,0,0,0,.38-.06q.13,0,.18-.27l1.16-4.47a2.24,2.24,0,0,1-.55.29,1.73,1.73,0,0,1-.6.11.06.06,0,0,1-.06,0,.05.05,0,0,1,0,0s0,0,0,0l0-.09a.13.13,0,0,1,.14-.1,1.67,1.67,0,0,0,.95-.32,3.42,3.42,0,0,0,.8-.81.13.13,0,0,1,.11-.06h0a.09.09,0,0,1,.07,0v0s0,0,0,0Z"/><path class="cls-10" d="M21.35,11a.39.39,0,0,0,0,.14c0,.07,0,.11.07.13a1.17,1.17,0,0,0,.35.06h.5a.09.09,0,0,1,.1.07v0l0,.08a.14.14,0,0,1-.14.1c-.43,0-.86,0-1.31,0l-1.31,0c-.06,0-.08,0-.08-.07V11.4a.14.14,0,0,1,.14-.11h.51a1.43,1.43,0,0,0,.38-.06q.14,0,.18-.27l1.15-4.47a2,2,0,0,1-.54.29,1.73,1.73,0,0,1-.6.11.06.06,0,0,1-.06,0,.05.05,0,0,1,0,0,0,0,0,0,1,0,0l0-.09a.13.13,0,0,1,.13-.1,1.7,1.7,0,0,0,1-.32,3.42,3.42,0,0,0,.8-.81.12.12,0,0,1,.1-.06h0a.11.11,0,0,1,.08,0v.07Z"/><path class="cls-10" d="M34.37,6.32a.88.88,0,0,0-.22-.5.63.63,0,0,0-.49-.19,1.09,1.09,0,0,0-.61.19,1.9,1.9,0,0,0-.48.5,2.87,2.87,0,0,0-.22.43c-.06.17-.13.35-.19.55s-.12.4-.18.6-.1.4-.14.58-.1.41-.16.63l-.15.65c0,.21-.08.41-.1.59a2.24,2.24,0,0,0,0,.34c0,.05,0,.1,0,.14a1,1,0,0,0,.21.53.58.58,0,0,0,.5.22,1,1,0,0,0,.61-.22,2,2,0,0,0,.48-.53,3.63,3.63,0,0,0,.23-.48c.07-.18.14-.38.21-.59s.13-.43.19-.65.11-.43.16-.63.09-.38.15-.58.09-.4.13-.6.06-.38.08-.55,0-.19,0-.27A.81.81,0,0,0,34.37,6.32Zm.49-.1A2.88,2.88,0,0,1,35,7c0,.12,0,.25,0,.38a9.48,9.48,0,0,1-.24,1.25c-.11.41-.24.81-.39,1.22A3.78,3.78,0,0,1,33.63,11a2.39,2.39,0,0,1-.72.58,1.87,1.87,0,0,1-.85.21,1.28,1.28,0,0,1-.73-.21,1.17,1.17,0,0,1-.42-.58,2.87,2.87,0,0,1-.11-.77,2.3,2.3,0,0,1,0-.37,6.74,6.74,0,0,1,.24-1.22c.11-.41.24-.82.39-1.24a4.1,4.1,0,0,1,.68-1.17,2.6,2.6,0,0,1,.73-.59,1.77,1.77,0,0,1,.85-.22,1.15,1.15,0,0,1,1.15.81Z"/><path class="cls-10" d="M46.45,7a1.75,1.75,0,0,1-.29.62,2.13,2.13,0,0,1-.51.53,2.37,2.37,0,0,1-.7.37,1.1,1.1,0,0,1,.51.39,1.32,1.32,0,0,1,.24.54,1.77,1.77,0,0,1,0,.23,1.51,1.51,0,0,1-.06.41,1.82,1.82,0,0,1-.31.66,2.44,2.44,0,0,1-.57.54,3.14,3.14,0,0,1-.73.37,2.63,2.63,0,0,1-.77.12,1.34,1.34,0,0,1-.58-.12,1,1,0,0,1-.41-.32,1,1,0,0,1-.21-.49,1.55,1.55,0,0,1,0-.21,1.34,1.34,0,0,1,.07-.39.43.43,0,0,1,.19-.28.54.54,0,0,1,.28-.09.37.37,0,0,1,.25.09.23.23,0,0,1,.06.16.5.5,0,0,1,0,.12.47.47,0,0,1-.21.3.68.68,0,0,1-.26.07h0a1,1,0,0,0,.28.69.93.93,0,0,0,.7.27,1.4,1.4,0,0,0,.53-.11,1.69,1.69,0,0,0,.49-.31,1.59,1.59,0,0,0,.37-.49,4.3,4.3,0,0,0,.2-.57A4.38,4.38,0,0,0,45,9.53V9.38A1,1,0,0,0,45,9a.7.7,0,0,0-.24-.3.66.66,0,0,0-.38-.11h-.5a.05.05,0,0,1-.06-.06v0l0-.1c0-.06,0-.08.1-.09h.5a1.35,1.35,0,0,0,.47-.09A1.57,1.57,0,0,0,45.32,8a1.45,1.45,0,0,0,.33-.45A2.28,2.28,0,0,0,45.83,7a1.69,1.69,0,0,0,.09-.53v0A.81.81,0,0,0,45.81,6a.69.69,0,0,0-.28-.28.8.8,0,0,0-.41-.1A1.83,1.83,0,0,0,44,6a2.09,2.09,0,0,0-.42.42,1.47,1.47,0,0,0-.25.52,1.2,1.2,0,0,0,0,.24.58.58,0,0,0,0,.19.24.24,0,0,0,.25.17.52.52,0,0,0,.33-.12.57.57,0,0,0,.2-.3.51.51,0,0,0,0-.13A.53.53,0,0,0,44,6.68s0,0,0,0,0,0,0-.07l0,0,.08,0a.07.07,0,0,1,0,0,.89.89,0,0,1,.14.25,1,1,0,0,1,0,.16.62.62,0,0,1,0,.18.88.88,0,0,1-.31.46.79.79,0,0,1-.51.18.45.45,0,0,1-.27-.07.42.42,0,0,1-.16-.19A.6.6,0,0,1,43,7.24v0a1.24,1.24,0,0,1,0-.27,1.51,1.51,0,0,1,.3-.61,2.32,2.32,0,0,1,.5-.49,2.1,2.1,0,0,1,.61-.32,2,2,0,0,1,.68-.12,1.56,1.56,0,0,1,.62.12,1.23,1.23,0,0,1,.46.34,1.2,1.2,0,0,1,.24.51,2.32,2.32,0,0,1,0,.24A1.73,1.73,0,0,1,46.45,7Z"/><path class="cls-10" d="M10.27,23.42a.31.31,0,0,0,0,.13c0,.07,0,.11.08.13a1.05,1.05,0,0,0,.35.06h.5q.09,0,.09.06a.06.06,0,0,1,0,0l0,.08a.13.13,0,0,1-.13.1c-.43,0-.87,0-1.31,0s-.88,0-1.32,0c-.05,0-.08,0-.08-.07v0l0-.08a.12.12,0,0,1,.14-.1h.5a1.43,1.43,0,0,0,.38-.06.31.31,0,0,0,.18-.26L10.77,19a2.64,2.64,0,0,1-.55.29,1.72,1.72,0,0,1-.6.1.08.08,0,0,1-.06,0,.08.08,0,0,1,0-.05s0,0,0,0l0-.08a.14.14,0,0,1,.14-.11,1.67,1.67,0,0,0,.95-.32,3.57,3.57,0,0,0,.8-.8.14.14,0,0,1,.11-.07h0a.09.09,0,0,1,.07,0s0,0,0,0,0,0,0,0Z"/><path class="cls-10" d="M21.35,23.42a.31.31,0,0,0,0,.13c0,.07,0,.11.07.13a1.17,1.17,0,0,0,.35.06h.5c.06,0,.09,0,.1.06s0,0,0,0l0,.08a.14.14,0,0,1-.14.1c-.43,0-.86,0-1.31,0s-.87,0-1.31,0c-.06,0-.08,0-.08-.07v-.11a.13.13,0,0,1,.14-.1h.51a1.43,1.43,0,0,0,.38-.06.31.31,0,0,0,.18-.26L21.84,19a2.35,2.35,0,0,1-.54.29,1.72,1.72,0,0,1-.6.1l-.06,0a.08.08,0,0,1,0-.05,0,0,0,0,1,0,0l0-.08a.14.14,0,0,1,.13-.11,1.7,1.7,0,0,0,1-.32,3.57,3.57,0,0,0,.8-.8s.06-.07.1-.07h0a.11.11,0,0,1,.08,0V18Z"/><path class="cls-10" d="M32.53,23.42a.31.31,0,0,0,0,.13.13.13,0,0,0,.08.13,1.05,1.05,0,0,0,.35.06h.5q.09,0,.09.06a.06.06,0,0,1,0,0l0,.08a.13.13,0,0,1-.13.1c-.43,0-.87,0-1.31,0s-.88,0-1.32,0c-.05,0-.08,0-.08-.07v0l0-.08a.12.12,0,0,1,.14-.1h.5a1.43,1.43,0,0,0,.38-.06.31.31,0,0,0,.18-.26L33,19a2.64,2.64,0,0,1-.55.29,1.72,1.72,0,0,1-.6.1l-.06,0a.08.08,0,0,1,0-.05s0,0,0,0l0-.08a.14.14,0,0,1,.14-.11,1.67,1.67,0,0,0,1-.32,3.38,3.38,0,0,0,.8-.8.15.15,0,0,1,.11-.07h0a.09.09,0,0,1,.07,0s0,0,0,0,0,0,0,0Z"/><path class="cls-10" d="M43.93,23.42a.31.31,0,0,0,0,.13c0,.07,0,.11.07.13a1.17,1.17,0,0,0,.35.06h.51q.09,0,.09.06a.06.06,0,0,1,0,0l0,.08a.13.13,0,0,1-.13.1c-.43,0-.87,0-1.31,0s-.88,0-1.32,0c-.05,0-.08,0-.08-.07v0l0-.08a.11.11,0,0,1,.13-.1h.51a1.43,1.43,0,0,0,.38-.06.31.31,0,0,0,.18-.26L44.43,19a2.64,2.64,0,0,1-.55.29,1.72,1.72,0,0,1-.6.1.08.08,0,0,1-.06,0,.08.08,0,0,1,0-.05s0,0,0,0l0-.08a.14.14,0,0,1,.14-.11,1.69,1.69,0,0,0,1-.32,3.57,3.57,0,0,0,.8-.8.14.14,0,0,1,.11-.07h0a.09.09,0,0,1,.07,0s0,0,0,0,0,0,0,0Z"/><path class="cls-10" d="M12.52,32.41a1.47,1.47,0,0,1-.33.66,4.46,4.46,0,0,1-.59.55,6.2,6.2,0,0,1-.73.49l-.73.42a3.43,3.43,0,0,0-1.36,1.29.48.48,0,0,1,.22,0,2.52,2.52,0,0,1,.48,0l.46.1.46.09a2.29,2.29,0,0,0,.47,0,.73.73,0,0,0,.35-.09,1,1,0,0,0,.33-.23,1.52,1.52,0,0,0,.26-.35A2.05,2.05,0,0,0,12,35s0-.08.12-.08h.17a.08.08,0,0,1,0,0,0,0,0,0,1,0,0,3.67,3.67,0,0,1-.21.61,3,3,0,0,1-.34.55,1.58,1.58,0,0,1-.46.4,1,1,0,0,1-.55.16,1.07,1.07,0,0,1-.49-.11l-.41-.24a4.11,4.11,0,0,0-.39-.24A.88.88,0,0,0,9,36a.38.38,0,0,0-.3.18,1.18,1.18,0,0,0-.2.45s0,.08-.12.08h-.1a.09.09,0,0,1-.07,0s0,0,0,0a0,0,0,0,1,0,0,3.53,3.53,0,0,1,.66-1.31,4,4,0,0,1,1.2-1,5.13,5.13,0,0,0,1.12-.82,2.4,2.4,0,0,0,.65-1.07,4.68,4.68,0,0,0,.14-.71v-.14a1.64,1.64,0,0,0-.08-.5.94.94,0,0,0-.3-.38.75.75,0,0,0-.47-.15,1.18,1.18,0,0,0-.61.16,2.17,2.17,0,0,0-.52.44,3,3,0,0,0-.41.63,4.16,4.16,0,0,0-.28.74,1.63,1.63,0,0,0,0,.35.51.51,0,0,0,0,.13c0,.13.08.19.2.19a.53.53,0,0,0,.3-.09,1.07,1.07,0,0,0,.25-.23,2.18,2.18,0,0,0,.2-.34c.06-.13.11-.27.16-.41a1,1,0,0,0,0-.16s0-.07,0-.11a.8.8,0,0,0-.11-.25v0a.1.1,0,0,1,0-.08l0,0,.08,0a.07.07,0,0,1,.06,0,.68.68,0,0,1,.14.41,1.13,1.13,0,0,1,0,.25,4.13,4.13,0,0,1-.17.45,2.36,2.36,0,0,1-.25.41,1.18,1.18,0,0,1-.33.3.88.88,0,0,1-.42.11.45.45,0,0,1-.27-.07A.39.39,0,0,1,9,33.09a.75.75,0,0,1-.05-.26,0,0,0,0,1,0,0,1,1,0,0,1,0-.3,3.57,3.57,0,0,1,.31-.8,3.43,3.43,0,0,1,.47-.7,2.57,2.57,0,0,1,.64-.5,1.61,1.61,0,0,1,.75-.19,1.45,1.45,0,0,1,.7.17,1.28,1.28,0,0,1,.5.45,1.56,1.56,0,0,1,.25.69,2,2,0,0,1,0,.23A1.77,1.77,0,0,1,12.52,32.41Z"/><path class="cls-10" d="M23.6,32.41a1.47,1.47,0,0,1-.33.66,4,4,0,0,1-.6.55,6.07,6.07,0,0,1-.72.49l-.73.42a3.36,3.36,0,0,0-.78.56,3.78,3.78,0,0,0-.59.73.53.53,0,0,1,.23,0,2.42,2.42,0,0,1,.47,0l.47.1.45.09a2.42,2.42,0,0,0,.47,0A.8.8,0,0,0,22.3,36a1,1,0,0,0,.33-.23,1.87,1.87,0,0,0,.26-.35,2.05,2.05,0,0,0,.16-.41s.05-.08.12-.08h.17a.08.08,0,0,1,0,0,0,0,0,0,1,0,0,3.73,3.73,0,0,1-.22.61,2.51,2.51,0,0,1-.33.55,1.72,1.72,0,0,1-.46.4,1,1,0,0,1-.55.16,1.15,1.15,0,0,1-.5-.11l-.4-.24a4.11,4.11,0,0,0-.39-.24A.89.89,0,0,0,20,36a.38.38,0,0,0-.29.18,1.18,1.18,0,0,0-.21.45s-.05.08-.12.08h-.09a.09.09,0,0,1-.07,0s0,0,0,0v0a3.55,3.55,0,0,1,.67-1.31,3.78,3.78,0,0,1,1.2-1,5.07,5.07,0,0,0,1.11-.82,2.34,2.34,0,0,0,.66-1.07A4.63,4.63,0,0,0,23,31.7v-.14a1.38,1.38,0,0,0-.08-.5.92.92,0,0,0-.29-.38.75.75,0,0,0-.47-.15,1.18,1.18,0,0,0-.61.16,2.43,2.43,0,0,0-.53.44,3.41,3.41,0,0,0-.41.63,5.05,5.05,0,0,0-.27.74,1.63,1.63,0,0,0-.05.35.27.27,0,0,0,0,.13.18.18,0,0,0,.2.19.55.55,0,0,0,.3-.09.87.87,0,0,0,.24-.23,1.63,1.63,0,0,0,.21-.34,2.86,2.86,0,0,0,.15-.41.47.47,0,0,0,0-.16.41.41,0,0,0,0-.11.6.6,0,0,0-.1-.25s0,0,0,0,0-.05.05-.08l0,0,.08,0a.05.05,0,0,1,.05,0,.63.63,0,0,1,.15.41.77.77,0,0,1,0,.25,2.07,2.07,0,0,1-.17.45,2.33,2.33,0,0,1-.24.41,1.18,1.18,0,0,1-.33.3.88.88,0,0,1-.42.11.45.45,0,0,1-.27-.07.41.41,0,0,1-.15-.21,1.09,1.09,0,0,1-.05-.26s0,0,0,0a1.54,1.54,0,0,1,0-.3,4.89,4.89,0,0,1,.31-.8,3.1,3.1,0,0,1,.48-.7,2.72,2.72,0,0,1,.63-.5,1.67,1.67,0,0,1,.75-.19,1.46,1.46,0,0,1,.71.17,1.36,1.36,0,0,1,.5.45,1.69,1.69,0,0,1,.25.69,2,2,0,0,1,0,.23A1.77,1.77,0,0,1,23.6,32.41Z"/><path class="cls-10" d="M35.05,31.9a1.67,1.67,0,0,1-.29.62,2,2,0,0,1-.51.53,2.06,2.06,0,0,1-.7.37,1.25,1.25,0,0,1,.51.39,1.3,1.3,0,0,1,.24.55,1.5,1.5,0,0,1,0,.22,1.18,1.18,0,0,1-.07.41,1.94,1.94,0,0,1-.31.67,2.68,2.68,0,0,1-.57.54,2.75,2.75,0,0,1-1.5.49,1.34,1.34,0,0,1-.58-.12,1.1,1.1,0,0,1-.62-.82,1.12,1.12,0,0,1,0-.21,1.46,1.46,0,0,1,.07-.39.41.41,0,0,1,.19-.27.56.56,0,0,1,.28-.1.37.37,0,0,1,.25.09.25.25,0,0,1,.06.17.23.23,0,0,1,0,.11.42.42,0,0,1-.21.3.54.54,0,0,1-.26.07h0a1,1,0,0,0,.28.69.93.93,0,0,0,.7.27,1.31,1.31,0,0,0,.54-.11,1.75,1.75,0,0,0,.49-.31,1.6,1.6,0,0,0,.36-.49,3.49,3.49,0,0,0,.2-.57,4.38,4.38,0,0,0,.11-.57v-.14a1,1,0,0,0-.06-.35.6.6,0,0,0-.24-.3.59.59,0,0,0-.37-.12h-.51a.05.05,0,0,1-.06-.06v0l0-.1a.1.1,0,0,1,.11-.08H33a1.17,1.17,0,0,0,.47-.1,1.27,1.27,0,0,0,.44-.28,1.54,1.54,0,0,0,.33-.44,3,3,0,0,0,.19-.53,2,2,0,0,0,.08-.53v0a.79.79,0,0,0-.11-.43.65.65,0,0,0-.28-.29.8.8,0,0,0-.41-.1,1.65,1.65,0,0,0-.58.1,1.86,1.86,0,0,0-.52.28,1.81,1.81,0,0,0-.41.42,1.59,1.59,0,0,0-.26.52,1.21,1.21,0,0,0,0,.25.48.48,0,0,0,0,.18.25.25,0,0,0,.25.18.52.52,0,0,0,.33-.12.54.54,0,0,0,.2-.31.25.25,0,0,0,0-.13.54.54,0,0,0-.11-.32.09.09,0,0,1,0-.12l0,0,.08,0a.07.07,0,0,1,.06,0,.91.91,0,0,1,.13.26.39.39,0,0,1,0,.15A.57.57,0,0,1,33,32a.87.87,0,0,1-.82.65.46.46,0,0,1-.27-.08.4.4,0,0,1-.16-.18.59.59,0,0,1-.05-.27,0,0,0,0,1,0,0,1.24,1.24,0,0,1,0-.27,1.66,1.66,0,0,1,.3-.61,2.32,2.32,0,0,1,.5-.49,2.43,2.43,0,0,1,.62-.32,1.93,1.93,0,0,1,.67-.12,1.41,1.41,0,0,1,.62.13,1,1,0,0,1,.46.34,1.2,1.2,0,0,1,.24.51,2,2,0,0,1,0,.23A1.65,1.65,0,0,1,35.05,31.9Z"/><path class="cls-10" d="M45.52,36.34a.11.11,0,0,1-.08.1,3.38,3.38,0,0,1-.42.13,1.52,1.52,0,0,1-.42.06h-.18L44.07,38a.4.4,0,0,1-.15.22.46.46,0,0,1-.24.08.28.28,0,0,1-.19-.07.2.2,0,0,1,0-.13.38.38,0,0,1,0-.1l.39-1.52a4.79,4.79,0,0,1-.57-.21,1.7,1.7,0,0,0-.61-.11h-.41a.9.9,0,0,0-.34.06l-.15.12-.17.12-.06,0h-.06l-.07-.08a.11.11,0,0,1,0-.05s0,0,.05-.07l.18-.14.18-.15a6.77,6.77,0,0,0,1.13-1.14,10.29,10.29,0,0,0,.86-1.32,10.7,10.7,0,0,0,.63-1.43c.18-.49.33-1,.46-1.47a.34.34,0,0,1,.14-.22.47.47,0,0,1,.22-.07.31.31,0,0,1,.21.07.21.21,0,0,1,0,.14v.08A12.64,12.64,0,0,1,45,32a10.94,10.94,0,0,1-1.57,2.68,10.2,10.2,0,0,1-1.12,1.16h.41a1.75,1.75,0,0,1,.62.1l.57.21.42-1.64a.32.32,0,0,1,.15-.22.44.44,0,0,1,.22-.07.34.34,0,0,1,.2.06.25.25,0,0,1,0,.15s0,0,0,.08l-.45,1.79h.16a2,2,0,0,0,.69-.13h0l.06,0,0,.07s0,0,0,0Z"/><path class="cls-10" d="M12.9,42.86l0,0,0,0a2.67,2.67,0,0,1-.87.62,2.41,2.41,0,0,1-1,.22,2.18,2.18,0,0,1-.72-.12L9.8,45.51a2.19,2.19,0,0,1,.56-.35A1.85,1.85,0,0,1,11,45a1.13,1.13,0,0,1,.62.17,1.3,1.3,0,0,1,.4.44,1.72,1.72,0,0,1,.19.67v.14a2.27,2.27,0,0,1-.09.62,2.78,2.78,0,0,1-.34.77,3.48,3.48,0,0,1-.59.69,2.63,2.63,0,0,1-.73.44,2.18,2.18,0,0,1-.79.16A1.27,1.27,0,0,1,9.1,49a1.12,1.12,0,0,1-.39-.39,1.24,1.24,0,0,1-.18-.56.81.81,0,0,1,0-.16,2.1,2.1,0,0,1,.06-.48.49.49,0,0,1,.2-.3.58.58,0,0,1,.3-.09.4.4,0,0,1,.27.08.26.26,0,0,1,.07.19.5.5,0,0,1,0,.12.5.5,0,0,1-.24.32.56.56,0,0,1-.27.08H8.82v.06a1.07,1.07,0,0,0,.24.71.84.84,0,0,0,.71.31,1.05,1.05,0,0,0,.53-.14,1.64,1.64,0,0,0,.47-.36,1.84,1.84,0,0,0,.38-.61c.09-.23.16-.46.23-.69s.11-.47.16-.69a2.45,2.45,0,0,0,0-.27,1.42,1.42,0,0,0,0-.36,1,1,0,0,0-.19-.36.44.44,0,0,0-.35-.15,1.63,1.63,0,0,0-.7.16,2.14,2.14,0,0,0-.57.43l-.07.09a.14.14,0,0,1-.09,0H9.49c-.05,0-.08,0-.08-.06v0L10,43.47l.16-.61a.11.11,0,0,1,.11-.09h0l0,0h0a2.16,2.16,0,0,0,1.1.27,3.1,3.1,0,0,0,1.29-.3h.06s.05,0,.06,0Z"/><path class="cls-10" d="M24,42.86s0,0,0,0l0,0a2.82,2.82,0,0,1-.88.62,2.37,2.37,0,0,1-1,.22,2.18,2.18,0,0,1-.72-.12l-.47,1.86a2.19,2.19,0,0,1,.56-.35A1.84,1.84,0,0,1,22.1,45a1.16,1.16,0,0,1,.63.17,1.17,1.17,0,0,1,.39.44,1.57,1.57,0,0,1,.19.67v.14a2.25,2.25,0,0,1-.08.62,2.55,2.55,0,0,1-.35.77,2.93,2.93,0,0,1-.59.69,2.45,2.45,0,0,1-.72.44,2.18,2.18,0,0,1-.79.16,1.27,1.27,0,0,1-.6-.14,1.15,1.15,0,0,1-.4-.39,1.24,1.24,0,0,1-.18-.56v-.16a2.8,2.8,0,0,1,0-.48.52.52,0,0,1,.51-.39.4.4,0,0,1,.27.08.32.32,0,0,1,.07.19.5.5,0,0,1,0,.12.5.5,0,0,1-.24.32.63.63,0,0,1-.27.08H19.9v.06a1.12,1.12,0,0,0,.23.71.87.87,0,0,0,.72.31,1.05,1.05,0,0,0,.53-.14,1.79,1.79,0,0,0,.47-.36,2,2,0,0,0,.38-.61c.09-.23.16-.46.23-.69s.11-.47.15-.69a1.24,1.24,0,0,0,0-.27,1.42,1.42,0,0,0-.05-.36.89.89,0,0,0-.19-.36.42.42,0,0,0-.34-.15,1.6,1.6,0,0,0-.7.16,2.14,2.14,0,0,0-.57.43l-.08.09s-.05,0-.08,0h-.06c-.05,0-.08,0-.08-.06v0l.61-2.42.17-.61c0-.06.05-.09.11-.09h0l0,0h0a2.16,2.16,0,0,0,1.1.27,3.1,3.1,0,0,0,1.29-.3h.05s.06,0,.06,0Z"/><path class="cls-10" d="M33.77,45.72a.73.73,0,0,0-.22-.39.6.6,0,0,0-.42-.13.92.92,0,0,0-.53.16,1.58,1.58,0,0,0-.45.41,2.33,2.33,0,0,0-.34.58,3,3,0,0,0-.21.7q-.08.36-.12.63a2.6,2.6,0,0,0,0,.36v.13a1.06,1.06,0,0,0,.21.51.58.58,0,0,0,.46.2,1.07,1.07,0,0,0,.51-.12,1.4,1.4,0,0,0,.44-.38,1.9,1.9,0,0,0,.33-.59c.08-.22.15-.47.22-.73s.13-.53.18-.75,0-.2,0-.29A1,1,0,0,0,33.77,45.72Zm1.28-2a.43.43,0,0,1-.19.28.59.59,0,0,1-.29.1.37.37,0,0,1-.25-.1.25.25,0,0,1-.06-.17.52.52,0,0,1,0-.11.42.42,0,0,1,.2-.28.55.55,0,0,1,.29-.09c-.08-.25-.29-.37-.64-.37a1.33,1.33,0,0,0-.74.24,3,3,0,0,0-.64.59,3.46,3.46,0,0,0-.54,1,8.13,8.13,0,0,0-.32,1,2.3,2.3,0,0,1,.56-.6,1.4,1.4,0,0,1,1.4-.08,1.2,1.2,0,0,1,.43.46,1.62,1.62,0,0,1,.23.67v.12a2.46,2.46,0,0,1-.1.66,3.43,3.43,0,0,1-.31.78,3,3,0,0,1-.59.68,2.69,2.69,0,0,1-.68.47,1.94,1.94,0,0,1-.78.15,1,1,0,0,1-.72-.25,1.23,1.23,0,0,1-.41-.61,2.53,2.53,0,0,1-.09-.55,1.93,1.93,0,0,1,0-.24,2,2,0,0,1,0-.35c0-.2.05-.39.09-.59s.08-.4.13-.6a6,6,0,0,1,.46-1.16,4.46,4.46,0,0,1,.79-1.08,4.17,4.17,0,0,1,.88-.67,2,2,0,0,1,1-.27,1,1,0,0,1,.73.25.58.58,0,0,1,.17.43A1.06,1.06,0,0,1,35.05,43.74Z"/><path class="cls-10" d="M45.17,45.72a.73.73,0,0,0-.22-.39.6.6,0,0,0-.42-.13.92.92,0,0,0-.53.16,1.58,1.58,0,0,0-.45.41,2.33,2.33,0,0,0-.34.58,3,3,0,0,0-.21.7q-.07.36-.12.63a2.81,2.81,0,0,0,0,.36c0,.05,0,.09,0,.13a1,1,0,0,0,.21.51.57.57,0,0,0,.46.2,1.07,1.07,0,0,0,.51-.12,1.52,1.52,0,0,0,.44-.38,2.13,2.13,0,0,0,.33-.59c.08-.22.15-.47.22-.73s.13-.53.18-.75,0-.2,0-.29A1,1,0,0,0,45.17,45.72Zm1.28-2a.43.43,0,0,1-.19.28.59.59,0,0,1-.29.1.37.37,0,0,1-.25-.1.25.25,0,0,1-.06-.17.52.52,0,0,1,0-.11.41.41,0,0,1,.19-.28.61.61,0,0,1,.3-.09c-.08-.25-.29-.37-.65-.37a1.32,1.32,0,0,0-.73.24,3,3,0,0,0-.64.59,3.77,3.77,0,0,0-.55,1,10.08,10.08,0,0,0-.31,1,2.14,2.14,0,0,1,.56-.6,1.4,1.4,0,0,1,1.4-.08,1.2,1.2,0,0,1,.43.46,1.62,1.62,0,0,1,.23.67v.12a2.94,2.94,0,0,1-.1.66,3.43,3.43,0,0,1-.31.78,3.21,3.21,0,0,1-.59.68,2.56,2.56,0,0,1-.69.47,1.86,1.86,0,0,1-.77.15,1,1,0,0,1-.72-.25,1.23,1.23,0,0,1-.41-.61,2.53,2.53,0,0,1-.09-.55c0-.08,0-.16,0-.24a2,2,0,0,1,0-.35,3,3,0,0,1,.09-.59c0-.2.08-.4.13-.6a6,6,0,0,1,.46-1.16,4.7,4.7,0,0,1,.78-1.08,4.76,4.76,0,0,1,.88-.67,2.07,2.07,0,0,1,1-.27,1,1,0,0,1,.73.25.58.58,0,0,1,.17.43A1.67,1.67,0,0,1,46.45,43.74Z"/><line class="cls-11" x1="5.97" y1="5" x2="5.97" y2="50.27"/><line class="cls-11" x1="48.54" y1="50.27" x2="48.54" y2="5"/><path class="cls-10" d="M5.82,52.2A2.37,2.37,0,0,0,8,53.75H25.16a2.09,2.09,0,0,1,2,1.38h.25a2.09,2.09,0,0,1,2-1.38H46.47a2.37,2.37,0,0,0,2.22-1.55L48.63,52a2.09,2.09,0,0,1-1.89,1.2H29.35a2.09,2.09,0,0,0-2,1.38h-.25a2.09,2.09,0,0,0-2-1.38H7.77A2.11,2.11,0,0,1,5.87,52"/><path class="cls-10" d="M14,58h.8V56.81H14Zm2-1.22h-.79V58H16Zm-4,1.7.64-.16v-1H12v-.28h.58v-.81H13v.81h.56v.28H13v.85l.53-.15c0,.14,0,.25,0,.33l-.52.14V59.9a.4.4,0,0,1-.46.44h-.45A2.73,2.73,0,0,0,12,60l.4,0a.18.18,0,0,0,.2-.2V58.68l-.58.18Zm1.72-2h2.69v2H16v-.23H14V59.6c0,.23.12.34.36.34h1.36c.3,0,.47-.1.51-.29a4.84,4.84,0,0,0,.1-.64,2.77,2.77,0,0,0,.41.12,6,6,0,0,1-.14.66c-.09.31-.35.46-.78.46H14.25a.5.5,0,0,1-.57-.57Z"/><path class="cls-10" d="M20.23,57.2a.89.89,0,0,1-.22.37,2.47,2.47,0,0,1-.38.32,5.11,5.11,0,0,1-.46.28l-.47.23a2.17,2.17,0,0,0-.5.33,2.05,2.05,0,0,0-.37.41l.14,0a1.55,1.55,0,0,1,.31,0l.29.05.29,0a1.55,1.55,0,0,0,.31,0,.59.59,0,0,0,.22-.05.77.77,0,0,0,.21-.14.82.82,0,0,0,.17-.2.67.67,0,0,0,.1-.23.08.08,0,0,1,.08,0h.11s0,0,0,0v0a1.7,1.7,0,0,1-.14.35,1.69,1.69,0,0,1-.21.31.93.93,0,0,1-.3.23.68.68,0,0,1-.35.09.83.83,0,0,1-.32-.06l-.26-.14-.25-.14a.82.82,0,0,0-.29-.07.29.29,0,0,0-.19.11.59.59,0,0,0-.13.25s0,0-.08,0h-.06a.05.05,0,0,1,0,0h0v0a1.94,1.94,0,0,1,.43-.74,2.44,2.44,0,0,1,.76-.58,3,3,0,0,0,.72-.46,1.35,1.35,0,0,0,.42-.61,2.12,2.12,0,0,0,.08-.41v-.08a.64.64,0,0,0-.05-.28.41.41,0,0,0-.19-.22.49.49,0,0,0-.3-.09.86.86,0,0,0-.39.09,1.35,1.35,0,0,0-.33.26,1.38,1.38,0,0,0-.26.36,1.57,1.57,0,0,0-.18.42.75.75,0,0,0,0,.2.17.17,0,0,0,0,.07.12.12,0,0,0,.13.11.41.41,0,0,0,.19-.05.65.65,0,0,0,.16-.13l.13-.2a1.33,1.33,0,0,0,.1-.24.19.19,0,0,0,0-.08.13.13,0,0,0,0-.06.39.39,0,0,0-.06-.15s0,0,0,0,0,0,0-.05h0l.05,0,0,0a.36.36,0,0,1,.09.24A.3.3,0,0,1,19,57a1.19,1.19,0,0,1-.11.26,1,1,0,0,1-.15.24.62.62,0,0,1-.22.17.59.59,0,0,1-.26.07.32.32,0,0,1-.18,0,.24.24,0,0,1-.09-.11.4.4,0,0,1,0-.15v0a.47.47,0,0,1,0-.17,2.07,2.07,0,0,1,.2-.46,1.68,1.68,0,0,1,.3-.4,1.42,1.42,0,0,1,.41-.28,1,1,0,0,1,.48-.11,1.06,1.06,0,0,1,.45.09.92.92,0,0,1,.32.26.83.83,0,0,1,.16.4.57.57,0,0,1,0,.13A1.25,1.25,0,0,1,20.23,57.2Z"/><path class="cls-10" d="M22.88,58.61V57.8H22v.81Zm.8-2a17.92,17.92,0,0,0,2.09-.18l.13.31c-.8.08-1.43.13-1.86.15v.94H26v.28h-.75v2.26h-.36V58.12H24v.24a2.64,2.64,0,0,1-.85,2.07l-.27-.28a2.28,2.28,0,0,0,.76-1.8Zm-2.08,0a10,10,0,0,0,1.68-.18l.12.32c-.47.06-1,.1-1.45.14v.64h1.27v1.54h-.34v-.18h-.95a2.89,2.89,0,0,1-.5,1.52l-.27-.26a2.64,2.64,0,0,0,.44-1.73Z"/><path class="cls-10" d="M27.41,59.77h1.51V58.52H27.67v-.3h1.25v-.84h.4v.84h1.27v.3H29.32v1.25h1.55v.29H27.41Zm-1.2-3h1.42c.08-.17.15-.35.21-.52l.41.09c-.06.14-.12.29-.19.43h2.81v.3h-3a6.12,6.12,0,0,1-.67,1.06v2.21h-.38V58.6a5.62,5.62,0,0,1-.55.54,3,3,0,0,0-.23-.3,6.5,6.5,0,0,0,1.4-1.74H26.21Z"/><path class="cls-10" d="M33.56,58.12l.29-.19a10.68,10.68,0,0,1,.86,1l-.36.21A10.88,10.88,0,0,0,33.56,58.12Zm-.88-.83H31.59v1h1.09Zm-1.09,2.37h1.09v-1H31.59Zm1.55-1.83a5.74,5.74,0,0,0,.76-1.55l.41.09c-.08.21-.17.41-.25.59h1.55c0,1.44-.07,2.34-.1,2.71s-.28.65-.79.65l-.89,0a2.61,2.61,0,0,0-.08-.37h0c.32,0,.62,0,.89,0s.45-.13.47-.4.06-1.18.08-2.3H33.9a5.79,5.79,0,0,1-.43.71A1.69,1.69,0,0,0,33.14,57.83ZM31.2,57h.49c.12-.26.22-.49.3-.7l.4.1c-.1.22-.2.41-.29.6h1V60.3h-.38V60H31.59v.35H31.2Z"/><path class="cls-10" d="M35.94,57.46a4.4,4.4,0,0,0,1.23-1.2l.35.19a5.89,5.89,0,0,1-1.39,1.33Zm2-.87h2.51v.31H37.94Zm-2,2.2a5.42,5.42,0,0,0,1.37-1.5l.33.18a7.47,7.47,0,0,1-.52.7v2.21h-.4V58.6a7.31,7.31,0,0,1-.61.52A2.06,2.06,0,0,0,35.91,58.79Zm1.75-.94h3.06v.31h-.94V59.8q0,.51-.6.51h-.83c0-.11,0-.24-.07-.38A6.34,6.34,0,0,0,39,60c.22,0,.33-.1.33-.29V58.16H37.66Z"/><path class="cls-10" d="M42.17,59.52a1.57,1.57,0,0,1-.27.53,1.84,1.84,0,0,1-.48.44h-.08v0a.06.06,0,0,1,0-.05,1.73,1.73,0,0,0,.44-.41,1.41,1.41,0,0,0,.26-.48v-.08a.2.2,0,0,1-.11.06.37.37,0,0,1-.15,0,.2.2,0,0,1-.2-.09.21.21,0,0,1,0-.11.19.19,0,0,1,0-.07.31.31,0,0,1,.12-.18A.37.37,0,0,1,42,59a.25.25,0,0,1,.16,0,.26.26,0,0,1,.08.13s0,.07,0,.11v.06A1.16,1.16,0,0,1,42.17,59.52Z"/><path class="cls-10" d="M13.67,65.58v-.81h-.93v.81Zm.8-2a16.13,16.13,0,0,0,2.09-.18l.13.32c-.81.08-1.43.13-1.87.15v.93h2v.29H16v2.25h-.36V65.1h-.85v.23A2.63,2.63,0,0,1,14,67.4c-.09-.09-.18-.19-.28-.28a2.29,2.29,0,0,0,.77-1.8Zm-2.08,0a11.25,11.25,0,0,0,1.68-.17l.12.31c-.47.06-1,.11-1.45.14v.65H14V66h-.33v-.19h-.95a2.77,2.77,0,0,1-.51,1.52,2,2,0,0,0-.26-.25,2.72,2.72,0,0,0,.44-1.73Z"/><path class="cls-10" d="M18.2,66.74h1.51V65.49H18.45v-.3h1.26v-.84h.39v.84h1.28v.3H20.1v1.25h1.55V67H18.2Zm-1.2-3h1.42a4.71,4.71,0,0,0,.21-.52l.4.09a3.93,3.93,0,0,1-.18.43h2.8v.31H18.7a6.44,6.44,0,0,1-.67,1v2.21h-.38V65.57a7,7,0,0,1-.55.54l-.23-.3a6.58,6.58,0,0,0,1.39-1.73H17Z"/><path class="cls-10" d="M24.35,65.09l.29-.19c.36.37.64.68.86.95l-.36.22A9.7,9.7,0,0,0,24.35,65.09Zm-.89-.83H22.38v1h1.08Zm-1.08,2.38h1.08V65.58H22.38Zm1.54-1.83a5.75,5.75,0,0,0,.77-1.55l.41.08-.25.6H26.4c0,1.43-.07,2.33-.1,2.7s-.29.66-.79.66c-.3,0-.59,0-.9,0a3.06,3.06,0,0,0-.07-.37h0a7.22,7.22,0,0,0,.88.06.42.42,0,0,0,.48-.4c0-.42.06-1.19.07-2.31H24.69a5.12,5.12,0,0,1-.43.71A2.27,2.27,0,0,0,23.92,64.81ZM22,64h.49c.12-.26.22-.49.29-.69l.41.1c-.1.21-.2.41-.3.59h1v3.32h-.39V67H22.38v.35H22Z"/><path class="cls-10" d="M30.12,66.34h-.38V63.78h.38Zm.69-3h.39v3.45c0,.35-.19.53-.56.53-.18,0-.44,0-.79,0a2.53,2.53,0,0,0-.07-.38c.33,0,.57,0,.73,0s.3-.09.3-.28Zm-3.29,2.19.24-.24c.24.18.47.35.67.52a3.2,3.2,0,0,0,.45-1.06H27.8a6,6,0,0,1-.93,1.36,2.36,2.36,0,0,0-.2-.34,6,6,0,0,0,1.13-2h-1v-.3h2.71v.3H28.19a6.44,6.44,0,0,1-.25.66h1.34v.31a4,4,0,0,1-2.08,2.64,2.82,2.82,0,0,0-.3-.25,4.48,4.48,0,0,0,1.32-1.07C28,65.91,27.81,65.72,27.52,65.51Z"/><path class="cls-10" d="M33,66.49a1.48,1.48,0,0,1-.27.53,2.07,2.07,0,0,1-.48.45h-.09v0a.05.05,0,0,1,0,0,1.93,1.93,0,0,0,.44-.41,1.52,1.52,0,0,0,.25-.49l0-.08a.41.41,0,0,1-.11.07l-.15,0a.2.2,0,0,1-.2-.09.14.14,0,0,1,0-.11s0,0,0-.07a.36.36,0,0,1,.13-.18.37.37,0,0,1,.26-.08.21.21,0,0,1,.16,0,.19.19,0,0,1,.07.12.43.43,0,0,1,0,.11v.06A1.16,1.16,0,0,1,33,66.49Z"/><path class="cls-10" d="M12,72.2h2.15v-.94H12.42v-.32h1.75v-.73h.42v.73h1.78v.32H14.59v.94h2.16v.32H14.36c-.35.42-.74.85-1.18,1.29l2.43-.07L14.93,73l.3-.18c.44.44.86.89,1.26,1.36l-.36.21L15.84,74c-1.08,0-2,.08-2.8.13l-.42.07-.2-.35a1.17,1.17,0,0,0,.4-.21,10.48,10.48,0,0,0,1-1.13H12Z"/><path class="cls-10" d="M21,71.52H19v.4h2Zm-2,1.07h2v-.41H19Zm-2.12-.12.65-.13v-1h-.61V71h.61v-.81h.37V71h.54v.28H17.9v.94l.55-.13c0,.14,0,.25,0,.34l-.53.12v1.24q0,.44-.48.45H17c0-.1,0-.21-.07-.33h.39c.15,0,.23-.06.23-.2V72.67l-.63.15Zm1.39.84h1.51v-.45H19V73h-.36V71.25h1.08v-1h.37v.39h1.5v.28h-1.5v.35h1.24V73H21v-.16h-.82v.45h1.53v.29H20.15v.75h-.37V73.6H18.27Z"/><path class="cls-10" d="M61,26.39a4.89,4.89,0,0,0,.71,1,2.29,2.29,0,0,0,.67.5l-.08.2a8.37,8.37,0,0,0-1.07.55c-.36.22-.81.55-1.36,1h-.35a8.42,8.42,0,0,1,1.39-1.37H53.54l.16-.45H61a5.71,5.71,0,0,1-.26-.64c0-.14-.09-.39-.15-.74Z"/><path class="cls-10" d="M69.93,26.19a1.49,1.49,0,0,1-.33.65,3.94,3.94,0,0,1-.59.56,7.67,7.67,0,0,1-.73.48l-.73.42a4.08,4.08,0,0,0-.78.56,3.65,3.65,0,0,0-.58.73.67.67,0,0,1,.22,0,2.61,2.61,0,0,1,.48.05l.46.09.45.09a2.42,2.42,0,0,0,.47,0,.77.77,0,0,0,.36-.09A1.27,1.27,0,0,0,69,29.5a1.52,1.52,0,0,0,.26-.35,2.05,2.05,0,0,0,.16-.41s.05-.08.12-.08h.1l.07,0s0,0,0,0a0,0,0,0,1,0,0,3.78,3.78,0,0,1-.21.62,3.38,3.38,0,0,1-.34.55,1.58,1.58,0,0,1-.46.4,1.06,1.06,0,0,1-.55.15,1.07,1.07,0,0,1-.49-.11,2.75,2.75,0,0,1-.41-.24l-.39-.24a.89.89,0,0,0-.47-.12.38.38,0,0,0-.29.18,1.16,1.16,0,0,0-.2.45c0,.05,0,.08-.12.08h-.1a.09.09,0,0,1-.07,0s0,0,0,0v0a3.79,3.79,0,0,1,.67-1.31,3.89,3.89,0,0,1,1.2-1,5,5,0,0,0,1.12-.81,2.46,2.46,0,0,0,.65-1.07,4.57,4.57,0,0,0,.14-.72v-.14a1.57,1.57,0,0,0-.08-.49,1,1,0,0,0-.3-.39.75.75,0,0,0-.47-.15,1.19,1.19,0,0,0-.61.17,2.18,2.18,0,0,0-.53.44,2.83,2.83,0,0,0-.4.63,4.06,4.06,0,0,0-.28.73,1.81,1.81,0,0,0,0,.36.5.5,0,0,0,0,.12c0,.13.08.19.2.19a.61.61,0,0,0,.3-.08,1.12,1.12,0,0,0,.25-.24,2.18,2.18,0,0,0,.2-.34,3.89,3.89,0,0,0,.16-.41.76.76,0,0,0,0-.15v-.11a.71.71,0,0,0-.11-.25.43.43,0,0,1,0-.05.1.1,0,0,1,0-.07l0,0s.06,0,.08,0a.05.05,0,0,1,0,0,.6.6,0,0,1,.15.4,1,1,0,0,1,0,.25,4.13,4.13,0,0,1-.17.45,2.36,2.36,0,0,1-.25.41.94.94,0,0,1-.33.3.79.79,0,0,1-.42.12.46.46,0,0,1-.27-.08.41.41,0,0,1-.14-.2.8.8,0,0,1,0-.26.08.08,0,0,1,0,0,1,1,0,0,1,0-.3,4,4,0,0,1,.3-.79,3.6,3.6,0,0,1,.48-.7,2.18,2.18,0,0,1,.64-.5,1.49,1.49,0,0,1,.75-.19,1.35,1.35,0,0,1,.7.17,1.28,1.28,0,0,1,.5.45,1.47,1.47,0,0,1,.25.69,2,2,0,0,1,0,.22A1.88,1.88,0,0,1,69.93,26.19Z"/><path class="cls-10" d="M75.63,27.77l.47-.33c.57.65,1,1.21,1.37,1.69l-.57.39A18.75,18.75,0,0,0,75.63,27.77Zm-1.4-1.48H72.49v1.82h1.74Zm-1.74,4.24h1.74V28.64H72.49ZM75,27.26a10.74,10.74,0,0,0,1.22-2.76l.65.15c-.13.38-.27.73-.4,1.06h2.48c-.07,2.56-.12,4.17-.16,4.83a1.11,1.11,0,0,1-1.27,1.17c-.46,0-.94,0-1.42,0a4,4,0,0,0-.13-.67h0a10.48,10.48,0,0,0,1.41.11.68.68,0,0,0,.75-.72c.06-.74.1-2.11.12-4.12H76.18a9.29,9.29,0,0,1-.69,1.27A3.65,3.65,0,0,0,75,27.26Zm-3.08-1.52h.78c.19-.46.34-.87.47-1.24l.64.18c-.16.38-.32.73-.47,1.06h1.54v5.93h-.61v-.58H72.49v.64h-.61Z"/><path class="cls-10" d="M81.29,29.37l.56.36a16.9,16.9,0,0,1-1.78,1.8c-.14-.12-.31-.26-.51-.41A8.7,8.7,0,0,0,81.29,29.37Zm3.5,0c.81.6,1.49,1.15,2.06,1.63l-.48.48q-.95-.89-2-1.71Zm-1.56-4.19a8.79,8.79,0,0,1-1.89,1.71h3.78A9.92,9.92,0,0,1,83.23,25.19ZM79.67,28.5H83v-1H81.07v-.37c-.41.26-.85.52-1.32.76-.11-.16-.23-.35-.38-.54A9.63,9.63,0,0,0,83,24.55h.82l-.15.19A8,8,0,0,0,87,27.18c-.16.21-.29.4-.41.58A12.28,12.28,0,0,1,85.34,27v.42H83.58v1h3.17v.56H83.58v1.72a.91.91,0,0,1-1,1l-1,0c0-.18-.06-.39-.1-.61a9.42,9.42,0,0,0,1,.06c.36,0,.53-.16.53-.52V29.06H79.67Z"/><path class="cls-10" d="M87.25,27.87h3.58v-.82L93,25.49h-5v-.56h6v.58l-2.58,1.83v.53h3.37v.56H91.48v2.35c0,.67-.36,1-1.08,1l-1.21,0c0-.19,0-.42-.1-.67a11.2,11.2,0,0,0,1.19.07.48.48,0,0,0,.55-.54V28.43H87.25Z"/><path class="cls-10" d="M100.52,24.91l.37-.38a13.84,13.84,0,0,1,1.12.88l-.44.44A13.51,13.51,0,0,0,100.52,24.91Zm-5.45,5.75,1.78-.22V28.35h-1.5v-.56H99v.56H97.49v2c.59-.08,1.21-.16,1.84-.26,0,.2,0,.4,0,.61-1.54.21-2.92.41-4.09.59Zm0-4.73h4.29c0-.46,0-.95,0-1.46h.66c0,.49,0,1,0,1.46h2.65v.56H100c.1,2.51.53,4,1.29,4.57.28.22.47.16.59-.18a9.9,9.9,0,0,0,.21-1.15c.24.08.44.15.62.19a10.11,10.11,0,0,1-.32,1.41.7.7,0,0,1-.7.52,1.52,1.52,0,0,1-1.06-.53q-1.1-1.12-1.26-4.83H95Z"/><path class="cls-10" d="M105.47,29.35l.43-.27a9.55,9.55,0,0,1,.73,1l-.47.32A9.5,9.5,0,0,0,105.47,29.35Zm3-4.09.36-.38c.41.28.8.57,1.18.87l-.4.43C109.39,26,109,25.66,108.49,25.26Zm-4.74,3.92.5.2a9.67,9.67,0,0,1-.86,1.67,2.46,2.46,0,0,0-.49-.26A9.11,9.11,0,0,0,103.75,29.18Zm2.18-2h-2v1.08h2Zm-3-1.67h1.91c-.14-.26-.3-.53-.49-.82l.52-.24a9.14,9.14,0,0,1,.5.83l-.5.23h2V26H103Zm.47,1.18h3v2.24h-.54v-.18h-.71V31c0,.51-.26.76-.79.76h-.67a2.32,2.32,0,0,0-.13-.58,4.17,4.17,0,0,0,.71.06.3.3,0,0,0,.34-.34v-2.1H104v.18h-.53Zm3.25-.05h.81c0-.39,0-1.1,0-2.12h.56c0,.94,0,1.65,0,2.12h2.25v.55h-1.37v3.57c0,.23.1.35.29.35h.25c.22,0,.35-.15.39-.44a8,8,0,0,0,.1-1.14l.58.22c0,.45-.09.81-.13,1.1a.81.81,0,0,1-.86.8H109c-.44,0-.66-.26-.66-.79V27.18H108a6.7,6.7,0,0,1-1.75,4.71c-.13-.14-.28-.28-.44-.43a6,6,0,0,0,1.63-4.28h-.78Z"/><path class="cls-10" d="M116.56,25.29H112.5v.65h4.06Zm-4.06,1.8h4.06v-.65H112.5ZM112.3,29l.58.17a5.4,5.4,0,0,1-.28.74,2.4,2.4,0,0,0,1.74,1.1V28.76h-3.51v-.52h7.41v.52H115v.75h2.74V30H115v1c1,0,2.13,0,3.42,0-.08.21-.15.41-.21.59q-2.27,0-3.48,0a2.59,2.59,0,0,1-2.35-1.17A4.49,4.49,0,0,1,111,31.91a4.46,4.46,0,0,0-.37-.48A4,4,0,0,0,112.3,29Zm-.39-4.21h5.23V27.9h-.58v-.3H112.5v.3h-.59Z"/><path class="cls-10" d="M124.8,17.19l0,.14a.11.11,0,0,0,.08.12.73.73,0,0,0,.35.06h.5c.06,0,.09,0,.09.07a.08.08,0,0,1,0,0v.08a.15.15,0,0,1-.14.09l-1.31,0-1.32,0s-.08,0-.08-.06v0l0-.08a.14.14,0,0,1,.14-.11h.51a.94.94,0,0,0,.38-.06c.08,0,.14-.11.18-.26l1.15-4.47a2.42,2.42,0,0,1-.55.29,1.71,1.71,0,0,1-.59.11.06.06,0,0,1-.06,0,0,0,0,0,1,0,0,.06.06,0,0,1,0,0v-.08a.14.14,0,0,1,.14-.1,1.64,1.64,0,0,0,1-.33,3.34,3.34,0,0,0,.79-.8.14.14,0,0,1,.11-.06h0a.09.09,0,0,1,.07,0,0,0,0,0,1,0,.06Z"/><path class="cls-10" d="M137.83,12.54a.84.84,0,0,0-.21-.49.68.68,0,0,0-.51-.2,1.05,1.05,0,0,0-.6.2,1.6,1.6,0,0,0-.48.49,2.26,2.26,0,0,0-.22.44c-.07.17-.13.35-.2.55s-.12.39-.17.6-.11.39-.15.57l-.15.63c-.06.22-.11.44-.15.65s-.08.41-.11.6,0,.24,0,.33a.71.71,0,0,0,0,.15.91.91,0,0,0,.2.53.64.64,0,0,0,.51.21,1,1,0,0,0,.61-.21,2.16,2.16,0,0,0,.47-.53,2.7,2.7,0,0,0,.23-.48q.11-.28.21-.6c.07-.21.14-.43.2-.65s.11-.43.16-.63l.15-.57c0-.21.1-.41.13-.6a4.05,4.05,0,0,0,.08-.55,1.37,1.37,0,0,0,0-.28A.86.86,0,0,0,137.83,12.54Zm.5-.09a2.8,2.8,0,0,1,.1.77,2.42,2.42,0,0,1,0,.38,8.89,8.89,0,0,1-.24,1.25c-.11.41-.24.82-.39,1.22a3.71,3.71,0,0,1-.69,1.15,2.16,2.16,0,0,1-.73.57,1.76,1.76,0,0,1-.84.22,1.17,1.17,0,0,1-.73-.22,1.12,1.12,0,0,1-.43-.57,2.88,2.88,0,0,1-.11-.78c0-.12,0-.24,0-.37a9.37,9.37,0,0,1,.24-1.22,11.74,11.74,0,0,1,.4-1.23,3.85,3.85,0,0,1,.68-1.17,2.28,2.28,0,0,1,.72-.59,1.8,1.8,0,0,1,.85-.22,1.18,1.18,0,0,1,.74.22A1.17,1.17,0,0,1,138.33,12.45Z"/><path class="cls-10" d="M149.78,13.22a2.24,2.24,0,0,1-.29.63,2.83,2.83,0,0,1-.51.53,2.49,2.49,0,0,1-.7.37,1.27,1.27,0,0,1,.51.38,1.18,1.18,0,0,1,.23.55,1.64,1.64,0,0,1,0,.22,1.52,1.52,0,0,1-.06.42,2,2,0,0,1-.32.66,2.62,2.62,0,0,1-.56.54,2.81,2.81,0,0,1-.74.36,2.25,2.25,0,0,1-.76.13,1.31,1.31,0,0,1-.58-.12,1.14,1.14,0,0,1-.42-.33,1.08,1.08,0,0,1-.2-.49.65.65,0,0,1,0-.21,1.06,1.06,0,0,1,.07-.38.38.38,0,0,1,.19-.28.51.51,0,0,1,.28-.09.33.33,0,0,1,.24.08.22.22,0,0,1,.07.17.74.74,0,0,1,0,.12.42.42,0,0,1-.21.29.7.7,0,0,1-.27.08h0a1,1,0,0,0,.27.68,1,1,0,0,0,.71.27,1.39,1.39,0,0,0,.53-.1,1.88,1.88,0,0,0,.49-.32,1.38,1.38,0,0,0,.36-.48,3.06,3.06,0,0,0,.2-.58,4.48,4.48,0,0,0,.12-.57v-.14a1,1,0,0,0-.06-.35.8.8,0,0,0-.24-.3.63.63,0,0,0-.38-.11h-.5a.05.05,0,0,1-.06-.06v0l0-.11a.1.1,0,0,1,.11-.08h.49a1.18,1.18,0,0,0,.48-.1,1.33,1.33,0,0,0,.43-.28,1.31,1.31,0,0,0,.34-.44,3,3,0,0,0,.18-.53,2.45,2.45,0,0,0,.09-.53v0a.89.89,0,0,0-.11-.43.78.78,0,0,0-.28-.29.93.93,0,0,0-.42-.1,2,2,0,0,0-.58.1,2,2,0,0,0-.52.28,2.09,2.09,0,0,0-.41.43,1.51,1.51,0,0,0-.25.51.85.85,0,0,0,0,.25.34.34,0,0,0,0,.18.24.24,0,0,0,.24.18.48.48,0,0,0,.33-.12.55.55,0,0,0,.2-.3.32.32,0,0,0,0-.14.51.51,0,0,0-.12-.31.13.13,0,0,1,0-.06.09.09,0,0,1,0-.07h0a.12.12,0,0,1,.09,0,.05.05,0,0,1,.05,0,1.23,1.23,0,0,1,.14.25.76.76,0,0,1,0,.15.65.65,0,0,1,0,.19.88.88,0,0,1-.31.45.75.75,0,0,1-.51.19.54.54,0,0,1-.27-.07.44.44,0,0,1-.17-.19.76.76,0,0,1,0-.27,0,0,0,0,1,0,0,.84.84,0,0,1,0-.27,1.63,1.63,0,0,1,.29-.61,2.28,2.28,0,0,1,.5-.48,2.46,2.46,0,0,1,.62-.33,1.94,1.94,0,0,1,.68-.11,1.51,1.51,0,0,1,.61.12,1.13,1.13,0,0,1,.46.34,1.2,1.2,0,0,1,.24.51,1.94,1.94,0,0,1,0,.24A1.61,1.61,0,0,1,149.78,13.22Z"/><path class="cls-10" d="M124.8,29.64l0,.14c0,.07,0,.11.08.12a.73.73,0,0,0,.35.06h.5c.06,0,.09,0,.09.07a.08.08,0,0,1,0,0v.08a.16.16,0,0,1-.14.1c-.43,0-.87,0-1.31,0l-1.32,0a.07.07,0,0,1-.08-.07v0l0-.08a.14.14,0,0,1,.14-.11h.51a.94.94,0,0,0,.38-.06c.08,0,.14-.11.18-.26l1.15-4.47a2.08,2.08,0,0,1-.55.29,1.71,1.71,0,0,1-.59.11.06.06,0,0,1-.06,0s0,0,0,0a.08.08,0,0,1,0,0v-.08a.14.14,0,0,1,.14-.1,1.64,1.64,0,0,0,1-.33,3.16,3.16,0,0,0,.79-.8.14.14,0,0,1,.11-.06h0a.09.09,0,0,1,.07,0,0,0,0,0,1,0,0,.06.06,0,0,1,0,0Z"/><path class="cls-10" d="M136,29.64a.74.74,0,0,0,0,.14c0,.07,0,.11.08.12a.73.73,0,0,0,.35.06h.5c.06,0,.09,0,.09.07v0l0,.08a.16.16,0,0,1-.14.1c-.43,0-.86,0-1.31,0l-1.32,0a.07.07,0,0,1-.08-.07v0l0-.08a.14.14,0,0,1,.14-.11h.51a.94.94,0,0,0,.38-.06c.08,0,.14-.11.18-.26l1.15-4.47a1.93,1.93,0,0,1-.55.29,1.71,1.71,0,0,1-.59.11.06.06,0,0,1-.06,0s0,0,0,0a.08.08,0,0,1,0,0v-.08a.14.14,0,0,1,.14-.1,1.64,1.64,0,0,0,1-.33,3.16,3.16,0,0,0,.79-.8.16.16,0,0,1,.12-.06h0a.1.1,0,0,1,.08,0,0,0,0,0,1,0,0,.06.06,0,0,1,0,0Z"/><path class="cls-10" d="M147.26,29.64a.74.74,0,0,0,0,.14c0,.07,0,.11.08.12a.73.73,0,0,0,.35.06h.5c.06,0,.09,0,.09.07v0l0,.08a.16.16,0,0,1-.14.1c-.43,0-.86,0-1.31,0l-1.31,0c-.06,0-.08,0-.08-.07v-.11a.14.14,0,0,1,.14-.11H146a.94.94,0,0,0,.38-.06c.08,0,.14-.11.18-.26l1.15-4.47a1.93,1.93,0,0,1-.55.29,1.67,1.67,0,0,1-.59.11.06.06,0,0,1-.06,0s0,0,0,0a.08.08,0,0,1,0,0v-.08a.14.14,0,0,1,.14-.1,1.64,1.64,0,0,0,1-.33,3.16,3.16,0,0,0,.79-.8.14.14,0,0,1,.11-.06h0a.09.09,0,0,1,.07,0,0,0,0,0,1,0,0,.06.06,0,0,1,0,0Z"/><path class="cls-10" d="M127.43,36.63a.06.06,0,0,0,0,0s0,0,0,0a3,3,0,0,1-.88.62,2.54,2.54,0,0,1-1,.22,1.94,1.94,0,0,1-.71-.13l-.47,1.86a1.68,1.68,0,0,1,.56-.34,1.84,1.84,0,0,1,.66-.12,1,1,0,0,1,.62.17,1.1,1.1,0,0,1,.4.43,1.72,1.72,0,0,1,.19.67v.15a2.62,2.62,0,0,1-.08.61,3,3,0,0,1-.35.78,2.92,2.92,0,0,1-.59.68,2.5,2.5,0,0,1-.73.44,2,2,0,0,1-.79.16,1.2,1.2,0,0,1-.59-.14,1,1,0,0,1-.4-.38,1.28,1.28,0,0,1-.18-.56s0-.11,0-.16a2,2,0,0,1,.06-.48.48.48,0,0,1,.2-.3.52.52,0,0,1,.31-.1.37.37,0,0,1,.26.09.24.24,0,0,1,.07.18.62.62,0,0,1,0,.13.52.52,0,0,1-.25.31.56.56,0,0,1-.26.08h-.08v.06a1.07,1.07,0,0,0,.24.71.88.88,0,0,0,.72.32,1.13,1.13,0,0,0,.52-.14,1.92,1.92,0,0,0,.48-.37,2,2,0,0,0,.37-.61,5.08,5.08,0,0,0,.23-.69,5.73,5.73,0,0,0,.16-.69,1.24,1.24,0,0,0,0-.27,1.34,1.34,0,0,0,0-.35.89.89,0,0,0-.19-.36.43.43,0,0,0-.35-.15,1.46,1.46,0,0,0-.69.16,1.72,1.72,0,0,0-.57.43l-.08.09a.18.18,0,0,1-.09,0H124a.07.07,0,0,1-.08-.07v0l.62-2.41.17-.62a.1.1,0,0,1,.11-.09h.06l0,0a2.32,2.32,0,0,0,1.1.26,3.26,3.26,0,0,0,1.3-.29h.05s0,0,.06.06Z"/><path class="cls-10" d="M137.23,39.49a.83.83,0,0,0-.23-.39.66.66,0,0,0-.42-.13,1,1,0,0,0-.53.16,1.75,1.75,0,0,0-.45.41,2.77,2.77,0,0,0-.34.59,3.22,3.22,0,0,0-.2.69c-.05.24-.09.45-.12.64a1.71,1.71,0,0,0,0,.36.45.45,0,0,0,0,.12,1,1,0,0,0,.2.51.58.58,0,0,0,.47.21,1,1,0,0,0,.51-.13,1.49,1.49,0,0,0,.43-.38,1.82,1.82,0,0,0,.34-.59c.07-.22.15-.46.22-.73s.13-.52.17-.75a1.43,1.43,0,0,0,0-.29A1.57,1.57,0,0,0,137.23,39.49Zm1.29-2a.42.42,0,0,1-.2.28.51.51,0,0,1-.29.1.3.3,0,0,1-.24-.1.24.24,0,0,1-.06-.17.45.45,0,0,1,0-.11.47.47,0,0,1,.2-.28.57.57,0,0,1,.29-.09c-.07-.24-.29-.37-.64-.37a1.33,1.33,0,0,0-.74.24,2.6,2.6,0,0,0-.64.6,3.24,3.24,0,0,0-.55,1,9.43,9.43,0,0,0-.32,1,2.36,2.36,0,0,1,.56-.61,1.3,1.3,0,0,1,.74-.23,1.21,1.21,0,0,1,.67.16,1.24,1.24,0,0,1,.43.45,1.57,1.57,0,0,1,.23.68v.11a2.74,2.74,0,0,1-.09.66,3.1,3.1,0,0,1-.32.78,3.34,3.34,0,0,1-1.28,1.15,1.89,1.89,0,0,1-.77.15,1.13,1.13,0,0,1-.73-.24,1.35,1.35,0,0,1-.41-.61,5.43,5.43,0,0,1-.09-.56c0-.08,0-.16,0-.24s0-.23,0-.35.05-.39.09-.59.09-.4.14-.6a5.35,5.35,0,0,1,.45-1.16,4.69,4.69,0,0,1,.79-1.07,3.6,3.6,0,0,1,.88-.67,2,2,0,0,1,1-.28,1,1,0,0,1,.74.25.6.6,0,0,1,.16.44A1.49,1.49,0,0,1,138.52,37.51Z"/><path class="cls-10" d="M148.49,39.49a.74.74,0,0,0-.22-.39.66.66,0,0,0-.42-.13,1,1,0,0,0-.53.16,1.75,1.75,0,0,0-.45.41,2.77,2.77,0,0,0-.34.59,3.22,3.22,0,0,0-.2.69c-.05.24-.09.45-.12.64a1.71,1.71,0,0,0,0,.36.45.45,0,0,0,0,.12,1,1,0,0,0,.2.51.58.58,0,0,0,.47.21,1,1,0,0,0,.51-.13,1.49,1.49,0,0,0,.43-.38,1.82,1.82,0,0,0,.34-.59c.07-.22.15-.46.22-.73s.12-.52.17-.75a2.83,2.83,0,0,0,0-.29A1,1,0,0,0,148.49,39.49Zm1.29-2a.42.42,0,0,1-.2.28.51.51,0,0,1-.29.1.31.31,0,0,1-.24-.1.24.24,0,0,1-.06-.17.45.45,0,0,1,0-.11.47.47,0,0,1,.2-.28.57.57,0,0,1,.29-.09c-.07-.24-.29-.37-.64-.37a1.3,1.3,0,0,0-.73.24,2.6,2.6,0,0,0-.64.6,3.24,3.24,0,0,0-.55,1,9.43,9.43,0,0,0-.32,1,2.36,2.36,0,0,1,.56-.61,1.3,1.3,0,0,1,.74-.23,1.21,1.21,0,0,1,.67.16,1.31,1.31,0,0,1,.42.45,1.57,1.57,0,0,1,.23.68v.11a2.74,2.74,0,0,1-.09.66,3.1,3.1,0,0,1-.32.78,2.79,2.79,0,0,1-.59.69,2.63,2.63,0,0,1-.68.46,1.89,1.89,0,0,1-.77.15,1.13,1.13,0,0,1-.73-.24,1.35,1.35,0,0,1-.41-.61,5.43,5.43,0,0,1-.09-.56c0-.08,0-.16,0-.24s0-.23,0-.35.05-.39.09-.59.09-.4.14-.6a5.35,5.35,0,0,1,.45-1.16,4.69,4.69,0,0,1,.79-1.07,3.6,3.6,0,0,1,.88-.67,1.94,1.94,0,0,1,1-.28,1,1,0,0,1,.74.25.6.6,0,0,1,.16.44A1.49,1.49,0,0,1,149.78,37.51Z"/><line class="cls-11" x1="120.59" y1="11.22" x2="120.59" y2="44.05"/><line class="cls-11" x1="151.64" y1="44.05" x2="151.64" y2="11.22"/></g></g></g></g></svg>