<svg id="图层_1" data-name="图层 1" xmlns="http://www.w3.org/2000/svg" xmlns:xlink="http://www.w3.org/1999/xlink" viewBox="0 0 277.6 77.6"><defs><style>.cls-1,.cls-10,.cls-11,.cls-12,.cls-7,.cls-8,.cls-9{fill:none;}.cls-2{clip-path:url(#clip-path);}.cls-3{fill:#fff;}.cls-4{clip-path:url(#clip-path-3);}.cls-5{clip-path:url(#clip-path-4);}.cls-6{fill-rule:evenodd;}.cls-7,.cls-8,.cls-9{stroke:#000;stroke-linecap:round;}.cls-10,.cls-11,.cls-12,.cls-7,.cls-8,.cls-9{stroke-miterlimit:10;}.cls-7{stroke-width:0.43px;}.cls-8{stroke-width:0.36px;}.cls-9{stroke-width:0.2px;}.cls-10{stroke:#c00000;}.cls-11{stroke:#00b050;}.cls-12{stroke:#0070c0;}</style><clipPath id="clip-path"><rect class="cls-1" x="-340.8" y="-235.6" width="960" height="540"/></clipPath><clipPath id="clip-path-3"><rect class="cls-1" x="-4.08" y="-5.32" width="286.56" height="79.44"/></clipPath><clipPath id="clip-path-4"><rect class="cls-1" x="-4.08" y="-5.32" width="286.56" height="79.44"/></clipPath></defs><g class="cls-2"><g class="cls-2"><rect class="cls-3" x="-340.8" y="-235.6" width="960" height="540"/></g><g class="cls-4"><g class="cls-5"><path class="cls-6" d="M10.29,10.53a.32.32,0,0,0,0,.14.11.11,0,0,0,.07.12.76.76,0,0,0,.35.06h.5c.06,0,.09,0,.1.06s0,0,0,.05l0,.07a.15.15,0,0,1-.14.1l-1.31,0-1.31,0c-.06,0-.08,0-.08-.07V11a.14.14,0,0,1,.14-.11h.51a.91.91,0,0,0,.38-.06.36.36,0,0,0,.18-.26l1.15-4.47a2.35,2.35,0,0,1-.54.29,1.76,1.76,0,0,1-.6.1s-.05,0-.06,0,0,0,0,0a0,0,0,0,1,0,0l0-.08a.12.12,0,0,1,.13-.1,1.64,1.64,0,0,0,1-.33,3.53,3.53,0,0,0,.79-.8A.19.19,0,0,1,11.58,5h0a.08.08,0,0,1,.07,0,.08.08,0,0,1,0,0,0,0,0,0,1,0,0Z"/><path class="cls-6" d="M21.55,10.53a.32.32,0,0,0,0,.14.11.11,0,0,0,.07.12.76.76,0,0,0,.35.06h.5c.06,0,.09,0,.1.06s0,0,0,.05l0,.07a.14.14,0,0,1-.14.1l-1.3,0-1.32,0c-.06,0-.08,0-.08-.07v0l0-.07a.12.12,0,0,1,.13-.11h.51a.91.91,0,0,0,.38-.06.31.31,0,0,0,.18-.26l1.16-4.47a2.64,2.64,0,0,1-.55.29,1.72,1.72,0,0,1-.6.1s0,0-.06,0a.08.08,0,0,1,0,0,0,0,0,0,1,0,0l0-.08a.12.12,0,0,1,.14-.1,1.63,1.63,0,0,0,1-.33,3.57,3.57,0,0,0,.8-.8.17.17,0,0,1,.1-.07h0A.11.11,0,0,1,23,5v.07Z"/><path class="cls-6" d="M35.06,7.07a1.47,1.47,0,0,1-.33.66,3.53,3.53,0,0,1-.6.55,5.35,5.35,0,0,1-.72.49l-.73.42a3.43,3.43,0,0,0-1.36,1.29.48.48,0,0,1,.22,0,2.59,2.59,0,0,1,.48,0l.46.1.46.09a2.29,2.29,0,0,0,.47,0,.85.85,0,0,0,.35-.08,1.27,1.27,0,0,0,.33-.24,1.52,1.52,0,0,0,.26-.35,2.05,2.05,0,0,0,.16-.41c0-.05.05-.08.12-.08h.17a.08.08,0,0,1,0,0,0,0,0,0,1,0,0,2.79,2.79,0,0,1-.22.61,2.58,2.58,0,0,1-.33.56,1.92,1.92,0,0,1-.46.4,1.06,1.06,0,0,1-.55.15,1.07,1.07,0,0,1-.49-.11L32.34,11,32,10.76a.89.89,0,0,0-.47-.12.38.38,0,0,0-.29.18,1.25,1.25,0,0,0-.2.45c0,.05,0,.08-.12.08h-.1a.09.09,0,0,1-.07,0s0,0,0,0v0A3.53,3.53,0,0,1,31.36,10a4,4,0,0,1,1.2-1,5.38,5.38,0,0,0,1.12-.82,2.4,2.4,0,0,0,.65-1.07,4.68,4.68,0,0,0,.14-.71V6.22a1.64,1.64,0,0,0-.08-.5.94.94,0,0,0-.3-.38.75.75,0,0,0-.47-.15,1.18,1.18,0,0,0-.61.16,2,2,0,0,0-.52.44,3,3,0,0,0-.41.63,4.16,4.16,0,0,0-.28.74,1.63,1.63,0,0,0-.05.35.51.51,0,0,0,0,.13c0,.13.08.19.2.19a.53.53,0,0,0,.3-.09,1.07,1.07,0,0,0,.25-.23,2.18,2.18,0,0,0,.2-.34,4.09,4.09,0,0,0,.16-.42.76.76,0,0,0,0-.15V6.49a.8.8,0,0,0-.11-.25v0a.1.1,0,0,1,0-.08l0,0,.08,0a0,0,0,0,1,0,0,.63.63,0,0,1,.15.41,1,1,0,0,1,0,.24,3.61,3.61,0,0,1-.17.46,2.36,2.36,0,0,1-.25.41,1.18,1.18,0,0,1-.33.3.88.88,0,0,1-.42.11A.45.45,0,0,1,31.65,8a.39.39,0,0,1-.14-.21.75.75,0,0,1-.05-.26,0,0,0,0,1,0,0,1,1,0,0,1,0-.3,3.57,3.57,0,0,1,.31-.8,3.43,3.43,0,0,1,.47-.7,2.36,2.36,0,0,1,.64-.5A1.61,1.61,0,0,1,33.68,5a1.45,1.45,0,0,1,.7.17,1.36,1.36,0,0,1,.5.45,1.69,1.69,0,0,1,.25.69,2,2,0,0,1,0,.23A1.77,1.77,0,0,1,35.06,7.07Z"/><path class="cls-6" d="M12.12,18.34a.84.84,0,0,0-.21-.5.65.65,0,0,0-.5-.2,1.05,1.05,0,0,0-.6.2,1.76,1.76,0,0,0-.48.5,2.87,2.87,0,0,0-.22.43c-.07.17-.13.35-.2.55s-.12.4-.17.6-.11.4-.15.58-.1.41-.15.63-.11.43-.15.65-.08.41-.11.59,0,.24,0,.34a.61.61,0,0,0,0,.14.88.88,0,0,0,.2.53.61.61,0,0,0,.51.22,1,1,0,0,0,.61-.22,1.83,1.83,0,0,0,.47-.53,2.94,2.94,0,0,0,.23-.47q.11-.28.21-.6c.07-.22.13-.43.19-.65s.11-.43.16-.63.1-.38.15-.58.1-.4.13-.6.07-.38.09-.55a2.62,2.62,0,0,0,0-.27A.81.81,0,0,0,12.12,18.34Zm.5-.1a2.88,2.88,0,0,1,.1.78c0,.12,0,.25,0,.37a11.22,11.22,0,0,1-.25,1.26c-.11.41-.24.81-.39,1.22A4,4,0,0,1,11.39,23a2.39,2.39,0,0,1-.72.58,1.94,1.94,0,0,1-.85.21,1.23,1.23,0,0,1-.73-.21A1.17,1.17,0,0,1,8.67,23a2.48,2.48,0,0,1-.12-.77c0-.12,0-.25,0-.37a9.06,9.06,0,0,1,.24-1.22,12.72,12.72,0,0,1,.4-1.24,4.1,4.1,0,0,1,.68-1.17,2.42,2.42,0,0,1,.72-.59,1.8,1.8,0,0,1,.85-.22,1.17,1.17,0,0,1,.73.22A1.15,1.15,0,0,1,12.62,18.24Z"/><path class="cls-6" d="M21.55,23a.39.39,0,0,0,0,.14c0,.07,0,.11.07.13a1.17,1.17,0,0,0,.35.06h.5c.06,0,.09,0,.1.06s0,0,0,0l0,.08a.14.14,0,0,1-.14.1c-.43,0-.86,0-1.3,0s-.88,0-1.32,0c-.06,0-.08,0-.08-.07v0l0-.08a.11.11,0,0,1,.13-.1h.51a1.43,1.43,0,0,0,.38-.06q.13,0,.18-.27l1.16-4.47a2.24,2.24,0,0,1-.55.29,1.73,1.73,0,0,1-.6.11.06.06,0,0,1-.06,0,.05.05,0,0,1,0,0,0,0,0,0,1,0,0l0-.09a.13.13,0,0,1,.14-.1,1.63,1.63,0,0,0,1-.33,3.2,3.2,0,0,0,.8-.8.12.12,0,0,1,.1-.06h0a.11.11,0,0,1,.08,0v.07Z"/><path class="cls-6" d="M34.65,18.34a.85.85,0,0,0-.22-.5.63.63,0,0,0-.49-.2,1.08,1.08,0,0,0-.61.2,1.76,1.76,0,0,0-.48.5,2.87,2.87,0,0,0-.22.43c-.06.17-.13.35-.19.55s-.12.4-.18.6-.1.4-.14.58-.1.41-.16.63l-.15.65c0,.21-.08.41-.1.59a2.24,2.24,0,0,0,0,.34.61.61,0,0,0,0,.14,1,1,0,0,0,.2.53.61.61,0,0,0,.51.22,1,1,0,0,0,.61-.22,2,2,0,0,0,.48-.53,4.14,4.14,0,0,0,.23-.47c.07-.19.14-.39.2-.6s.13-.43.19-.65.12-.43.17-.63.09-.38.14-.58.1-.4.14-.6.06-.38.08-.55,0-.19,0-.27S34.65,18.39,34.65,18.34Zm.49-.1a2.88,2.88,0,0,1,.11.78c0,.12,0,.25,0,.37A9.31,9.31,0,0,1,35,20.65c-.11.41-.24.81-.39,1.22A4,4,0,0,1,33.91,23a2.39,2.39,0,0,1-.72.58,1.87,1.87,0,0,1-.85.21,1.28,1.28,0,0,1-.73-.21,1.17,1.17,0,0,1-.42-.58,2.81,2.81,0,0,1-.11-.77,2.3,2.3,0,0,1,0-.37,6.74,6.74,0,0,1,.24-1.22c.11-.41.24-.82.39-1.24a4.1,4.1,0,0,1,.68-1.17,2.46,2.46,0,0,1,.73-.59,1.77,1.77,0,0,1,.85-.22,1.15,1.15,0,0,1,1.15.81Z"/><path class="cls-6" d="M12.54,32a1.49,1.49,0,0,1-.34.66,4,4,0,0,1-.59.56q-.34.25-.72.48l-.74.42a3.62,3.62,0,0,0-.77.56,3.44,3.44,0,0,0-.59.73.53.53,0,0,1,.23,0,1.83,1.83,0,0,1,.47,0l.47.09.45.09a2.42,2.42,0,0,0,.47.05.8.8,0,0,0,.36-.09,1.41,1.41,0,0,0,.32-.24,1.52,1.52,0,0,0,.26-.35,1.62,1.62,0,0,0,.17-.41.1.1,0,0,1,.11-.08h.11l.07,0s0,0,0,0v0a4.44,4.44,0,0,1-.22.61,2.26,2.26,0,0,1-.34.56,1.71,1.71,0,0,1-.45.4,1.08,1.08,0,0,1-.55.15,1.15,1.15,0,0,1-.5-.11,3.85,3.85,0,0,1-.4-.24l-.39-.24A.91.91,0,0,0,9,35.55a.38.38,0,0,0-.29.18,1.34,1.34,0,0,0-.21.45s-.05.08-.12.08H8.25a.08.08,0,0,1-.07,0l0,0v0a3.48,3.48,0,0,1,.67-1.31,3.85,3.85,0,0,1,1.19-1,4.82,4.82,0,0,0,1.12-.82A2.24,2.24,0,0,0,11.8,32a3.57,3.57,0,0,0,.14-.71v-.14a1.64,1.64,0,0,0-.08-.5,1,1,0,0,0-.3-.38.73.73,0,0,0-.46-.15,1.23,1.23,0,0,0-.62.17,2.09,2.09,0,0,0-.52.43,3.41,3.41,0,0,0-.41.63,5.05,5.05,0,0,0-.27.74,1.22,1.22,0,0,0,0,.35.53.53,0,0,0,0,.13c0,.13.09.19.2.19a.53.53,0,0,0,.3-.09.77.77,0,0,0,.25-.23,1.63,1.63,0,0,0,.21-.34,2.86,2.86,0,0,0,.15-.41,1,1,0,0,0,0-.15.49.49,0,0,0,0-.12.77.77,0,0,0-.1-.25s0,0,0,0,0-.05.05-.08h0a.12.12,0,0,1,.08,0,.05.05,0,0,1,0,0,.59.59,0,0,1,.15.4.73.73,0,0,1,0,.25,2.75,2.75,0,0,1-.17.45,2.33,2.33,0,0,1-.24.41,1.55,1.55,0,0,1-.33.3.78.78,0,0,1-.42.11.41.41,0,0,1-.27-.07A.41.41,0,0,1,9,32.66a1,1,0,0,1-.05-.25s0,0,0,0a1.54,1.54,0,0,1,0-.3,5.27,5.27,0,0,1,.31-.8,3.1,3.1,0,0,1,.48-.7,2.72,2.72,0,0,1,.63-.5,1.67,1.67,0,0,1,.75-.19,1.49,1.49,0,0,1,.71.17,1.54,1.54,0,0,1,.5.45,1.85,1.85,0,0,1,.25.69,1.93,1.93,0,0,1,0,.23A1.77,1.77,0,0,1,12.54,32Z"/><path class="cls-6" d="M24.07,31.47a1.85,1.85,0,0,1-.29.62,2.6,2.6,0,0,1-.51.54,2.37,2.37,0,0,1-.7.37,1.15,1.15,0,0,1,.51.38,1.18,1.18,0,0,1,.23.55.82.82,0,0,1,0,.22,1.52,1.52,0,0,1-.06.42,1.83,1.83,0,0,1-.32.66,2.62,2.62,0,0,1-.56.54,2.75,2.75,0,0,1-.73.36,2.35,2.35,0,0,1-.77.13,1.34,1.34,0,0,1-.58-.12,1,1,0,0,1-.41-.33,1,1,0,0,1-.21-.49.65.65,0,0,1,0-.21,1.06,1.06,0,0,1,.07-.38.41.41,0,0,1,.19-.28.54.54,0,0,1,.28-.09.36.36,0,0,1,.25.08.25.25,0,0,1,.06.17.74.74,0,0,1,0,.12.42.42,0,0,1-.21.29.7.7,0,0,1-.26.08H20a1,1,0,0,0,.27.68.93.93,0,0,0,.71.27,1.39,1.39,0,0,0,.53-.1,1.73,1.73,0,0,0,.49-.32,1.38,1.38,0,0,0,.36-.48,3.1,3.1,0,0,0,.21-.58,4.38,4.38,0,0,0,.11-.57v-.14a1,1,0,0,0-.06-.35.7.7,0,0,0-.24-.3.69.69,0,0,0-.38-.12h-.5s-.06,0-.06-.06v0l0-.1a.09.09,0,0,1,.1-.08H22a1.18,1.18,0,0,0,.48-.1,1.23,1.23,0,0,0,.43-.28,1.41,1.41,0,0,0,.34-.44,2.37,2.37,0,0,0,.18-.53,2,2,0,0,0,.09-.53v0a.89.89,0,0,0-.11-.43.71.71,0,0,0-.28-.29.82.82,0,0,0-.42-.1,1.73,1.73,0,0,0-.58.1,2,2,0,0,0-.52.28,2.33,2.33,0,0,0-.41.42,1.66,1.66,0,0,0-.25.52,1.41,1.41,0,0,0,0,.25.48.48,0,0,0,0,.18.24.24,0,0,0,.25.18.52.52,0,0,0,.33-.12.54.54,0,0,0,.19-.3.32.32,0,0,0,0-.14.56.56,0,0,0-.12-.32.43.43,0,0,1,0,0s0-.05.05-.07h0a.12.12,0,0,1,.09,0,.05.05,0,0,1,.05,0,.58.58,0,0,1,.16.4.68.68,0,0,1,0,.19.82.82,0,0,1-.31.45.75.75,0,0,1-.51.19.54.54,0,0,1-.27-.07.42.42,0,0,1-.16-.19.6.6,0,0,1-.06-.27v0a1.26,1.26,0,0,1,0-.27,1.63,1.63,0,0,1,.29-.61,2.37,2.37,0,0,1,.51-.49A2.73,2.73,0,0,1,22.1,30a2,2,0,0,1,.68-.12,1.59,1.59,0,0,1,.62.12,1.34,1.34,0,0,1,.46.35,1.5,1.5,0,0,1,.24.51,1.85,1.85,0,0,1,0,.23A1.64,1.64,0,0,1,24.07,31.47Z"/><path class="cls-6" d="M35.44,30l0,0a.05.05,0,0,1,0,0,2.78,2.78,0,0,1-.87.62,2.41,2.41,0,0,1-1,.22,2.18,2.18,0,0,1-.72-.12l-.47,1.86a2.19,2.19,0,0,1,.56-.35,1.84,1.84,0,0,1,.66-.12,1.14,1.14,0,0,1,.63.17,1.3,1.3,0,0,1,.4.44,1.86,1.86,0,0,1,.19.67v.14a2.27,2.27,0,0,1-.09.62,3,3,0,0,1-.34.78,3.74,3.74,0,0,1-.59.68,2.63,2.63,0,0,1-.73.44,2,2,0,0,1-.79.16,1.27,1.27,0,0,1-.6-.14,1.18,1.18,0,0,1-.39-.38,1.32,1.32,0,0,1-.18-.57.81.81,0,0,1,0-.16,2.1,2.1,0,0,1,.06-.48.49.49,0,0,1,.2-.3.58.58,0,0,1,.3-.09.46.46,0,0,1,.27.08.26.26,0,0,1,.07.19.5.5,0,0,1,0,.12.5.5,0,0,1-.24.32.7.7,0,0,1-.27.08h-.07V35a1.07,1.07,0,0,0,.24.71.84.84,0,0,0,.71.31,1.05,1.05,0,0,0,.53-.14,1.64,1.64,0,0,0,.47-.36,2,2,0,0,0,.38-.61c.09-.23.16-.46.23-.69s.11-.47.15-.69a1.24,1.24,0,0,0,0-.27,1.42,1.42,0,0,0,0-.36,1,1,0,0,0-.19-.36.44.44,0,0,0-.35-.15,1.5,1.5,0,0,0-.7.16,2.14,2.14,0,0,0-.57.43l-.07.09s-.06.05-.09,0H32c-.05,0-.08,0-.08-.07v0l.62-2.41.16-.62a.14.14,0,0,1,.11-.09h0s0,0,0,0h0a2.16,2.16,0,0,0,1.1.27,3.1,3.1,0,0,0,1.29-.3h0a.07.07,0,0,1,.07.06Z"/><line class="cls-7" x1="5.97" y1="4.56" x2="5.97" y2="37.39"/><line class="cls-7" x1="37.22" y1="37.39" x2="37.22" y2="4.56"/><path class="cls-6" d="M45.43,19.73h.35c-.31.35-.53.6-.67.74s-.37.35-.71.64h7.32l-.16.45H44.24a3.35,3.35,0,0,1,.43,1.38h-.36a4.94,4.94,0,0,0-.68-1,2.58,2.58,0,0,0-.69-.54l.07-.2a5.37,5.37,0,0,0,1-.51A14,14,0,0,0,45.43,19.73Z"/><path class="cls-6" d="M58,18.54l.4-.4c.45.34.91.71,1.39,1.12l-.47.46C58.91,19.31,58.47,18.91,58,18.54ZM55.32,24.2a9.93,9.93,0,0,0,2-1.17,10.11,10.11,0,0,1-.41-2.39h-2v1.23c.51-.08,1-.18,1.58-.28,0,.23,0,.42,0,.59l-1.6.3v1.75a.75.75,0,0,1-.83.86c-.35,0-.69,0-1,0a3.06,3.06,0,0,0-.13-.63,7.68,7.68,0,0,0,1,.07q.36,0,.36-.36V22.6l-1.51.29-.15-.64L54.26,22V20.64H52.61v-.56h1.65V19L53,19.11a3,3,0,0,0-.17-.59c1.27-.12,2.35-.27,3.26-.45l.18.6-1.33.2v1.21h2c0-.61-.07-1.34-.11-2.21h.64c0,.8,0,1.54.09,2.21h2.81v.56H57.51a10,10,0,0,0,.32,2A9.07,9.07,0,0,0,59.3,21l.55.36A10.81,10.81,0,0,1,58,23.23a3.29,3.29,0,0,0,.52.87c.26.3.49.45.68.45s.19-.08.24-.25A11.66,11.66,0,0,0,59.69,23a3.63,3.63,0,0,0,.59.22A9.09,9.09,0,0,1,60,24.55a.74.74,0,0,1-.75.61A1.66,1.66,0,0,1,58,24.39a4.12,4.12,0,0,1-.46-.78,11.15,11.15,0,0,1-1.81,1.06A3.35,3.35,0,0,0,55.32,24.2Z"/><path class="cls-6" d="M63.22,18.2l.45-.33c.47.53.8.92,1,1.15l-.53.37C63.92,19.09,63.62,18.7,63.22,18.2Zm0,6.89V19.6h.63v5.49Zm-2.77-3.61a12.12,12.12,0,0,0,1.71-3.58l.6.24c-.2.57-.42,1.11-.66,1.63v5.39h-.61V21a11.6,11.6,0,0,1-.79,1.22A6.72,6.72,0,0,0,60.43,21.48Zm7.26,2.43a1.41,1.41,0,0,1-.23.9,1.19,1.19,0,0,1-.85.28c-.31,0-.71,0-1.19,0,0-.15-.06-.35-.12-.61.42,0,.82.05,1.18.05a.61.61,0,0,0,.5-.18,1.08,1.08,0,0,0,.08-.49V19.09h-2v-.58h2.62Z"/><path class="cls-6" d="M68.42,18.65h2v-.82H71v.82h2.32v-.81H74v.81h1.9v.54H74v.72h-.62v-.72H71v.68h-.6v-.68h-2Zm5.88,4H70.48v1.58H74.3Zm-5.86-2.15h2.84a5.5,5.5,0,0,0,.47-.81l.56.22a5.7,5.7,0,0,1-.32.59h3.79V21H71.62a7.78,7.78,0,0,1-1,1.09H74.9v3.11h-.6v-.47H70.48v.48h-.6V22.7c-.35.27-.74.54-1.15.8a5.21,5.21,0,0,0-.47-.47,9.35,9.35,0,0,0,2.6-2H68.44Z"/><path class="cls-6" d="M79.79,22.61c.46.21.91.43,1.35.65a3.59,3.59,0,0,0,.92-1.64H80.28Zm-1-3.65H81a10,10,0,0,0-.49-.88l.56-.27c.25.4.43.7.54.92l-.46.23h2.39v1.27H82.9v-.74H79.43v.74h-.61Zm-2.73,2.89,1-.34V19.84H76.2v-.53h.94V17.92h.58v1.39h.85v.53h-.85v1.47l.7-.25a5.54,5.54,0,0,0,.06.6l-.76.26v2.37a.71.71,0,0,1-.8.81c-.15,0-.38,0-.68,0,0-.2,0-.41-.09-.62a5.58,5.58,0,0,0,.67.05c.21,0,.32-.12.32-.36v-2l-1,.36Zm2.07,2.78a7.65,7.65,0,0,0,2.53-1c-.52-.28-1.09-.55-1.7-.84.22-.37.44-.78.64-1.2h-.94v-.54h1.19c.18-.41.36-.84.52-1.29l.65.22c-.16.35-.33.7-.51,1.07H83.7v.54h-1a4.28,4.28,0,0,1-1,1.92c.69.36,1.35.71,2,1.07l-.37.57a20.33,20.33,0,0,0-2-1.22,8,8,0,0,1-2.8,1.23A2.05,2.05,0,0,0,78.16,24.63Z"/><path class="cls-6" d="M90.13,20.46H88v.71h2.09Zm-5,2h2.29v-.75H85.35Zm3.61-4.61h.67c-.12.24-.23.48-.36.7h2.43V19H89.54q.33.32.63.66l-.44.32h1v2h-.59v-.27H88v.75h3.09c0,.45,0,.87-.08,1.28a.88.88,0,0,1-1,.94H88.91c0-.18-.08-.38-.13-.59.5,0,.89,0,1.17,0a.43.43,0,0,0,.49-.44c0-.24,0-.47.06-.71H88v2.28h-.62v-2.1A6.7,6.7,0,0,1,84.19,25l-.33-.48a6.67,6.67,0,0,0,3-1.62H84.5v-.51l.37-1.25h2.55v-.71H84.73V20h1.51c-.21-.27-.43-.52-.64-.75l.31-.23h-.56a6.82,6.82,0,0,1-1.06,1.09,4.7,4.7,0,0,0-.39-.4,5.24,5.24,0,0,0,1.5-1.85h.67a7,7,0,0,1-.4.7h2.24V19H86.06l.62.65-.43.33h3.46c-.2-.27-.41-.52-.61-.75l.33-.23h-.66a6.18,6.18,0,0,1-.64.84,3.68,3.68,0,0,0-.47-.37A5.26,5.26,0,0,0,88.74,17.81Z"/><rect x="91.76" y="20.96" width="7.65" height="0.66"/><path class="cls-6" d="M99.63,19.94a7.79,7.79,0,0,0,2-2.13l.55.33a10.61,10.61,0,0,1-2.22,2.38C99.84,20.33,99.74,20.14,99.63,19.94Zm3.19-1.56h4v.56h-4Zm-3.23,3.93a9.08,9.08,0,0,0,2.17-2.67l.54.32c-.27.45-.55.86-.84,1.25v3.95h-.64V22a12,12,0,0,1-1,.93Q99.73,22.6,99.59,22.31Zm2.78-1.67h4.87v.56h-1.49v2.92c0,.61-.32.92-1,.92h-1.32c0-.2-.07-.42-.11-.67a12.1,12.1,0,0,0,1.21.06.46.46,0,0,0,.53-.51V21.2h-2.73Z"/><path class="cls-6" d="M110.92,22.05h1.59v-.82h-1.59Zm3-3.37H108.8v.73h5.11Zm-4.82,2.05h1.26v-.65h.57v.65h1.59v-.65h.57v.65h1.44v.5h-1.44v.82h1.8v.49h-3.24a3.69,3.69,0,0,0,.85.95c.4-.19.92-.45,1.56-.79l.33.55-1.4.57a5.61,5.61,0,0,0,2.06.63l-.43.57A4.89,4.89,0,0,1,111,22.54h-.82v1.87l1.53-.47q0,.28,0,.6c-.47.13-.93.27-1.39.43l-.56.25-.33-.46a.58.58,0,0,0,.18-.51V22.54h-.91a4.71,4.71,0,0,1-.89,2.66c-.13-.16-.27-.34-.44-.53a5.24,5.24,0,0,0,.8-3.27V18.19h6.28v2h-.58V19.9H108.8v1c0,.42,0,.81,0,1.16h1.58v-.82h-1.26Z"/><path class="cls-6" d="M117.91,21.14h2.4V19h-2.4Zm-2.64,0h2V19h-1.67v-.59h6.9V19h-1.57v2.17h1.9v.59h-1.9v3.41h-.63V21.73H117.9a4.34,4.34,0,0,1-.4,2,4.06,4.06,0,0,1-1.73,1.47,6.75,6.75,0,0,0-.44-.52,3.82,3.82,0,0,0,1.57-1.21,3.38,3.38,0,0,0,.37-1.77h-2Z"/><line class="cls-8" x1="5.68" y1="51.71" x2="11.98" y2="51.71"/><line class="cls-8" x1="5.68" y1="53.6" x2="11.98" y2="53.6"/><path class="cls-6" d="M23.81,54.66a.39.39,0,0,0,0,.14c0,.07,0,.11.07.13a1.17,1.17,0,0,0,.35.06h.51c.05,0,.09,0,.09.07a.08.08,0,0,1,0,0l0,.08a.14.14,0,0,1-.14.1c-.43,0-.86,0-1.31,0l-1.31,0c-.06,0-.08,0-.08-.07v0l0-.08c0-.07.06-.1.13-.11h.51a1.43,1.43,0,0,0,.38-.06q.13,0,.18-.27l1.15-4.47a2,2,0,0,1-.54.29,1.73,1.73,0,0,1-.6.11.06.06,0,0,1-.06,0,.05.05,0,0,1,0,0,.08.08,0,0,1,0,0l0-.08a.13.13,0,0,1,.13-.1,1.64,1.64,0,0,0,1-.33,3.2,3.2,0,0,0,.8-.8.12.12,0,0,1,.1-.06h0a.11.11,0,0,1,.07,0s0,0,0,0v0Z"/><path class="cls-6" d="M22.3,58.72c.12.83.44,1.38.8,1.38h0c.31,0,.59.48.7,1.2h.09c.11-.72.39-1.2.7-1.2h0c.36,0,.68-.55.8-1.38l0-.21c-.12.64-.38,1.05-.67,1.05H24.6c-.31,0-.59.48-.7,1.2h-.09c-.11-.72-.39-1.2-.7-1.2H23c-.29,0-.55-.41-.68-1.05"/><path class="cls-6" d="M17.5,64a.44.44,0,0,1,0-.1l0-.1a.48.48,0,0,0-.14-.2.31.31,0,0,0-.23-.08.41.41,0,0,0-.25.08,1,1,0,0,0-.22.2,1.31,1.31,0,0,0-.21.36c0,.12-.09.25-.12.38s-.07.26-.1.38a1.37,1.37,0,0,0,0,.19.88.88,0,0,0,0,.17.68.68,0,0,0,.1.21.29.29,0,0,0,.21.08.54.54,0,0,0,.28-.09,1.16,1.16,0,0,0,.25-.2l.09-.1a.86.86,0,0,0,.07-.1Zm.75.9-.07.25a1.45,1.45,0,0,1-.11.25.7.7,0,0,1-.18.2.39.39,0,0,1-.25.08.52.52,0,0,1-.33-.1.43.43,0,0,1-.15-.26,1.1,1.1,0,0,1-.31.25.83.83,0,0,1-.4.11.69.69,0,0,1-.36-.09.75.75,0,0,1-.22-.25.84.84,0,0,1-.11-.38v0a1.31,1.31,0,0,1,.06-.38A2.6,2.6,0,0,1,16,64.1a1.58,1.58,0,0,1,.32-.38,1.31,1.31,0,0,1,.37-.24.86.86,0,0,1,.41-.1.56.56,0,0,1,.3.08.68.68,0,0,1,.17.21v0a.2.2,0,0,1,.08-.12.25.25,0,0,1,.14,0,.28.28,0,0,1,.13,0,.12.12,0,0,1,0,.09.08.08,0,0,1,0,0l-.41,1.42a1.62,1.62,0,0,0,0,.19v.16a.23.23,0,0,0,0,.1.14.14,0,0,0,.11,0,.21.21,0,0,0,.13,0,.39.39,0,0,0,.1-.14,2.2,2.2,0,0,0,.09-.21c0-.08.05-.17.08-.27s0,0,.07,0h.07s0,0,0,0Z"/><path class="cls-6" d="M19,66.26a.43.43,0,0,1,0,0s0,0,0,0a.24.24,0,0,0,.13,0h.19s0,0,0,0h0v0a.05.05,0,0,1,0,0h-1s0,0,0,0h0v0a.05.05,0,0,1,.05,0h.2a.28.28,0,0,0,.14,0,.11.11,0,0,0,.07-.09l.44-1.52a.51.51,0,0,1-.21.1.59.59,0,0,1-.23,0h0a0,0,0,0,1,0,0h0v0a.05.05,0,0,1,.06,0,.72.72,0,0,0,.36-.11,1.63,1.63,0,0,0,.31-.27s0,0,0,0h0v0h0Z"/><path class="cls-6" d="M20.73,66.26a.43.43,0,0,1,0,0s0,0,0,0a.24.24,0,0,0,.13,0h.2s0,0,0,0h0v0a.05.05,0,0,1-.05,0h-1s0,0,0,0h0v0s0,0,0,0h.19a.32.32,0,0,0,.15,0s0,0,.06-.09l.44-1.52a.54.54,0,0,1-.2.1.62.62,0,0,1-.23,0h0v0h0v0s0,0,.05,0a.66.66,0,0,0,.36-.11,1.63,1.63,0,0,0,.31-.27s0,0,0,0h0v0h0Z"/><path class="cls-6" d="M23.05,62.64h3.74V63H23.05Zm-.46,1.21h4.66v.32H25.72V65.8c0,.17.1.25.29.25h.42c.23,0,.36-.09.39-.28a5.31,5.31,0,0,0,.08-.59,3.26,3.26,0,0,0,.42.1c0,.24-.07.44-.11.61s-.29.46-.7.46h-.58c-.41,0-.61-.18-.61-.52V64.17h-1v.14A2.22,2.22,0,0,1,24,65.62a2.67,2.67,0,0,1-1.22.86c-.11-.12-.21-.21-.28-.28a2.66,2.66,0,0,0,1.12-.74,1.9,1.9,0,0,0,.29-1.14v-.15H22.59Z"/><path class="cls-6" d="M30.52,65.75l.22-.23,1.26.59-.24.27A13.27,13.27,0,0,0,30.52,65.75Zm-1.77-.21.24.24c-.48.26-.91.46-1.27.62a3.07,3.07,0,0,0-.2-.27A10.94,10.94,0,0,0,28.75,65.54Zm2.2-1c.39.28.73.55,1,.8a3.11,3.11,0,0,0-.28.24l-.3-.27-1.31,0v.53c0,.33-.2.5-.6.5H28.9a2.73,2.73,0,0,0-.06-.34l.56,0q.3,0,.3-.21v-.48l-1.1,0-.56.05-.19-.33a4.33,4.33,0,0,0,.64-.15c.36-.12.71-.24,1-.37l-1.06.07-.36,0-.17-.31a2.55,2.55,0,0,0,.44-.12l.59-.28H27.49V63.8h2.14v-.29H28v-.27h1.68V63H27.68V62.7h1.95v-.36H30v.36h2V63H30v.28h1.63v.27H30v.29h2.16v.26H29.56l-1,.44,1.59-.09.76-.32.27.19q-1.24.52-2.46.93l2.4-.1c-.13-.11-.27-.23-.42-.34Z"/><path class="cls-6" d="M37.29,52.66a.56.56,0,1,1-.55-.56A.55.55,0,0,1,37.29,52.66Z"/><line class="cls-8" x1="44.63" y1="52.66" x2="48.54" y2="52.66"/><path class="cls-6" d="M51.63,54.66a.89.89,0,0,0,0,.14.13.13,0,0,0,.08.13A1.11,1.11,0,0,0,52,55h.5c.06,0,.09,0,.09.07a.08.08,0,0,1,0,0v.08a.15.15,0,0,1-.14.1c-.43,0-.87,0-1.31,0l-1.32,0s-.08,0-.08-.07v0l0-.08a.14.14,0,0,1,.14-.11h.51a1.34,1.34,0,0,0,.37-.06c.09,0,.15-.12.19-.27l1.15-4.47a2.08,2.08,0,0,1-.55.29,1.71,1.71,0,0,1-.59.11.09.09,0,0,1-.07,0s0,0,0,0v0l0-.08a.14.14,0,0,1,.14-.1A1.59,1.59,0,0,0,52,50a3,3,0,0,0,.8-.8.14.14,0,0,1,.11-.06h0a.09.09,0,0,1,.07,0,0,0,0,0,1,0,0,.06.06,0,0,1,0,0Z"/><path class="cls-6" d="M43.65,56.91a5,5,0,0,1,0-8.5h.46a5.26,5.26,0,0,0,0,8.5"/><path class="cls-6" d="M54.27,48.41a5,5,0,0,1,0,8.5h-.46a5.26,5.26,0,0,0,0-8.5"/><path class="cls-6" d="M60.1,51.34a.31.31,0,0,0,0,.08.07.07,0,0,0,.05.07.78.78,0,0,0,.22,0h.32s.06,0,.06,0v.07a.1.1,0,0,1-.09.06l-.84,0-.84,0s-.05,0-.05,0v-.07a.08.08,0,0,1,.09-.06h.32a1,1,0,0,0,.24,0q.09,0,.12-.15l.74-2.55a1.58,1.58,0,0,1-.35.16,1.21,1.21,0,0,1-.38.06h0s0,0,0,0v-.07a.1.1,0,0,1,.09-.06,1.09,1.09,0,0,0,.61-.19,1.84,1.84,0,0,0,.51-.45.08.08,0,0,1,.07,0h0s0,0,0,0,0,0,0,0v0Z"/><line class="cls-9" x1="62.48" y1="50.21" x2="66.01" y2="50.21"/><line class="cls-9" x1="64.25" y1="48.45" x2="64.25" y2="51.97"/><path class="cls-6" d="M68.57,51.34a.31.31,0,0,0,0,.08.07.07,0,0,0,0,.07.78.78,0,0,0,.22,0h.32s.06,0,.06,0v.07a.1.1,0,0,1-.09.06l-.84,0-.84,0s0,0,0,0v-.07a.08.08,0,0,1,.09-.06h.32a1,1,0,0,0,.24,0q.09,0,.12-.15l.74-2.55a1.58,1.58,0,0,1-.35.16,1.21,1.21,0,0,1-.38.06h0s0,0,0,0v-.07a.1.1,0,0,1,.09-.06,1.09,1.09,0,0,0,.61-.19,1.84,1.84,0,0,0,.51-.45.08.08,0,0,1,.07,0h0a.06.06,0,0,1,0,0v0Z"/><path class="cls-6" d="M76.15,48.44a.65.65,0,0,0,0,.13.13.13,0,0,0,.08.13,1.11,1.11,0,0,0,.35.06H77c.06,0,.09,0,.1.06s0,0,0,0l0,.08a.15.15,0,0,1-.14.1c-.43,0-.86,0-1.31,0l-1.32,0s-.08,0-.08-.07v0l0-.08a.13.13,0,0,1,.14-.1h.51a1.5,1.5,0,0,0,.38-.06.36.36,0,0,0,.18-.26L76.64,44a1.93,1.93,0,0,1-.55.29,1.47,1.47,0,0,1-.59.11.06.06,0,0,1-.06,0s0,0,0,0a0,0,0,0,1,0,0v-.09a.14.14,0,0,1,.14-.1,1.64,1.64,0,0,0,1-.33,3.37,3.37,0,0,0,.8-.8.11.11,0,0,1,.1-.06h0a.08.08,0,0,1,.07,0,0,0,0,0,1,0,0s0,0,0,0Z"/><path class="cls-6" d="M89.25,43.79a1,1,0,0,0-.22-.5.69.69,0,0,0-.49-.2,1.14,1.14,0,0,0-.61.2,1.9,1.9,0,0,0-.48.5,2.87,2.87,0,0,0-.22.43c-.07.17-.13.36-.19.55s-.13.4-.18.6-.11.4-.15.58-.09.41-.15.63l-.15.65a4.85,4.85,0,0,0-.1.59,2.35,2.35,0,0,0,0,.34.61.61,0,0,0,0,.14,1,1,0,0,0,.2.53.61.61,0,0,0,.51.22,1,1,0,0,0,.61-.22,1.83,1.83,0,0,0,.47-.53,2.94,2.94,0,0,0,.23-.47,5.29,5.29,0,0,0,.21-.6c.07-.22.13-.43.19-.65s.12-.43.16-.63.1-.37.15-.58.1-.4.14-.6.06-.38.08-.55,0-.19,0-.27S89.25,43.84,89.25,43.79Zm.49-.1a2.88,2.88,0,0,1,.11.78c0,.12,0,.25,0,.38a11.52,11.52,0,0,1-.25,1.25c-.11.41-.24.82-.39,1.22a3.75,3.75,0,0,1-.68,1.14,2.39,2.39,0,0,1-.72.58,1.9,1.9,0,0,1-.85.21,1.26,1.26,0,0,1-.73-.21,1.17,1.17,0,0,1-.42-.58,2.47,2.47,0,0,1-.11-.77c0-.12,0-.24,0-.37a9.06,9.06,0,0,1,.24-1.22,12.72,12.72,0,0,1,.4-1.24A4.1,4.1,0,0,1,87,43.69a2.42,2.42,0,0,1,.72-.59,1.83,1.83,0,0,1,.86-.22,1.21,1.21,0,0,1,.73.22A1.19,1.19,0,0,1,89.74,43.69Z"/><path class="cls-6" d="M78.67,56.92a2.24,2.24,0,0,1-.29.63,2.83,2.83,0,0,1-.51.53,2.49,2.49,0,0,1-.7.37,1.2,1.2,0,0,1,.51.38,1.18,1.18,0,0,1,.23.55,1.64,1.64,0,0,1,0,.22,1.52,1.52,0,0,1-.06.42,2,2,0,0,1-.32.66,2.62,2.62,0,0,1-.56.54,2.67,2.67,0,0,1-.74.36,2.25,2.25,0,0,1-.76.13,1.31,1.31,0,0,1-.58-.12,1.23,1.23,0,0,1-.42-.32,1.17,1.17,0,0,1-.2-.5.65.65,0,0,1,0-.21,1.06,1.06,0,0,1,.07-.38.38.38,0,0,1,.19-.28.51.51,0,0,1,.28-.09.38.38,0,0,1,.24.08.28.28,0,0,1,.07.17.6.6,0,0,1,0,.12.42.42,0,0,1-.21.29.7.7,0,0,1-.27.08h0a1,1,0,0,0,.27.68.92.92,0,0,0,.71.28,1.4,1.4,0,0,0,.53-.11,1.88,1.88,0,0,0,.49-.32,1.38,1.38,0,0,0,.36-.48,4,4,0,0,0,.21-.58,4.38,4.38,0,0,0,.11-.57v-.14a1,1,0,0,0-.06-.35.89.89,0,0,0-.24-.3.61.61,0,0,0-.38-.11h-.5a.05.05,0,0,1-.06-.06v0l0-.11a.1.1,0,0,1,.11-.08h.49a1.36,1.36,0,0,0,.91-.38,1.41,1.41,0,0,0,.34-.44,3,3,0,0,0,.18-.53,2.45,2.45,0,0,0,.09-.53v0a.89.89,0,0,0-.11-.43.71.71,0,0,0-.28-.29.82.82,0,0,0-.42-.1,1.69,1.69,0,0,0-.58.1,2,2,0,0,0-.52.28,2.09,2.09,0,0,0-.41.43,1.51,1.51,0,0,0-.25.51.85.85,0,0,0,0,.25.34.34,0,0,0,0,.18.24.24,0,0,0,.24.18.48.48,0,0,0,.33-.12.55.55,0,0,0,.2-.3.32.32,0,0,0,0-.14.56.56,0,0,0-.12-.32.09.09,0,0,1,0-.12h0a.12.12,0,0,1,.09,0,.05.05,0,0,1,0,0,.58.58,0,0,1,.16.4.68.68,0,0,1,0,.19.88.88,0,0,1-.31.45.75.75,0,0,1-.51.19.61.61,0,0,1-.28-.07.49.49,0,0,1-.16-.19.76.76,0,0,1,0-.27,0,0,0,0,1,0,0,.84.84,0,0,1,0-.27,1.63,1.63,0,0,1,.29-.61,2.58,2.58,0,0,1,.5-.49,2.8,2.8,0,0,1,.62-.32,2,2,0,0,1,.68-.11,1.59,1.59,0,0,1,.62.12,1.1,1.1,0,0,1,.45.34,1.2,1.2,0,0,1,.24.51.93.93,0,0,1,0,.23A1.64,1.64,0,0,1,78.67,56.92Z"/><path class="cls-6" d="M90,55.43v0a.05.05,0,0,1,0,0,2.82,2.82,0,0,1-.88.62,2.37,2.37,0,0,1-1,.22,2.18,2.18,0,0,1-.72-.12l-.47,1.86a2,2,0,0,1,.56-.35,1.84,1.84,0,0,1,.66-.12,1.16,1.16,0,0,1,.63.17,1.17,1.17,0,0,1,.39.44,1.57,1.57,0,0,1,.19.67V59a2.25,2.25,0,0,1-.08.62,2.71,2.71,0,0,1-.35.78,2.88,2.88,0,0,1-.59.68,2.45,2.45,0,0,1-.72.44,2,2,0,0,1-.79.16,1.27,1.27,0,0,1-.6-.14,1.12,1.12,0,0,1-.4-.38,1.19,1.19,0,0,1-.17-.57.81.81,0,0,1,0-.16,2.8,2.8,0,0,1,0-.48.52.52,0,0,1,.51-.39.46.46,0,0,1,.27.08.34.34,0,0,1,.07.19.5.5,0,0,1,0,.12.5.5,0,0,1-.24.32.63.63,0,0,1-.27.08H86v.06a1.12,1.12,0,0,0,.23.71.87.87,0,0,0,.72.31,1.05,1.05,0,0,0,.53-.14,1.79,1.79,0,0,0,.47-.36,2,2,0,0,0,.38-.61c.09-.23.16-.46.23-.69s.11-.47.15-.69a1.24,1.24,0,0,0,0-.27,1.42,1.42,0,0,0,0-.36,1,1,0,0,0-.2-.36.42.42,0,0,0-.34-.15,1.6,1.6,0,0,0-.7.16,2.14,2.14,0,0,0-.57.43l-.08.09a.15.15,0,0,1-.08,0h-.06c-.06,0-.08,0-.08-.06v0L87.16,56l.17-.61c0-.06,0-.09.11-.09h0l0,0h0a2.16,2.16,0,0,0,1.1.27,3.1,3.1,0,0,0,1.29-.3h0s.06,0,.06,0Z"/><line class="cls-7" x1="72.21" y1="42.47" x2="72.21" y2="62.85"/><line class="cls-7" x1="91.46" y1="62.85" x2="91.46" y2="42.47"/><path class="cls-6" d="M41.58,64.77a2.36,2.36,0,0,0,2.22,1.56H64.5a2.1,2.1,0,0,1,2,1.37h.25a2.1,2.1,0,0,1,2-1.37h20.7a2.36,2.36,0,0,0,2.22-1.56l-.06-.19a2.08,2.08,0,0,1-1.89,1.21h-21a2.1,2.1,0,0,0-2,1.37h-.25a2.1,2.1,0,0,0-2-1.37h-21a2.1,2.1,0,0,1-1.9-1.21"/><path class="cls-6" d="M45.51,70.47s0-.06,0-.09a.38.38,0,0,0,0-.1.46.46,0,0,0-.13-.2A.32.32,0,0,0,45.1,70a.46.46,0,0,0-.25.08.91.91,0,0,0-.23.21,1.13,1.13,0,0,0-.2.35c-.05.13-.09.26-.13.39a3,3,0,0,0-.09.38.67.67,0,0,0,0,.18.57.57,0,0,0,0,.18.35.35,0,0,0,.1.2.23.23,0,0,0,.2.09.49.49,0,0,0,.28-.09,1.22,1.22,0,0,0,.25-.2l.09-.1a.36.36,0,0,0,.07-.1Zm.76.91c0,.07-.05.16-.08.25a1.12,1.12,0,0,1-.11.25.82.82,0,0,1-.17.2.42.42,0,0,1-.26.08.47.47,0,0,1-.32-.1.43.43,0,0,1-.15-.26,1.61,1.61,0,0,1-.32.25.82.82,0,0,1-.39.11.57.57,0,0,1-.36-.1.66.66,0,0,1-.23-.24.75.75,0,0,1-.1-.38v0a1.26,1.26,0,0,1,.06-.38A1.9,1.9,0,0,1,44,70.6a1.62,1.62,0,0,1,.32-.38,1.31,1.31,0,0,1,.37-.24.92.92,0,0,1,.42-.1.52.52,0,0,1,.29.08.72.72,0,0,1,.18.21v0a.21.21,0,0,1,.09-.13.33.33,0,0,1,.13,0A.25.25,0,0,1,46,70a.11.11,0,0,1,0,.08v0l-.41,1.42a.72.72,0,0,0,0,.19.25.25,0,0,0,0,.08.22.22,0,0,0,0,.08.14.14,0,0,0,0,.1.15.15,0,0,0,.1,0,.21.21,0,0,0,.13,0,.53.53,0,0,0,.11-.14.93.93,0,0,0,.08-.22l.09-.26a.06.06,0,0,1,.06,0h.07s.05,0,.05,0Z"/><path class="cls-6" d="M47,72.76s0,0,0,0,0,0,0,0a.41.41,0,0,0,.14,0h.19a0,0,0,0,1,0,0h0v0a.05.05,0,0,1-.05,0h-1s0,0,0,0h0v0a0,0,0,0,1,0,0h.19l.15,0s.05,0,.06-.09l.44-1.52a.75.75,0,0,1-.2.1.93.93,0,0,1-.23,0h0v0h0v0a0,0,0,0,1,0,0,.66.66,0,0,0,.36-.11,1.38,1.38,0,0,0,.31-.28l0,0h0v0Z"/><path class="cls-6" d="M48.75,72.76a.09.09,0,0,0,0,0s0,0,0,0l.14,0h.19a0,0,0,0,1,0,0h0v0a0,0,0,0,1,0,0h-1s0,0,0,0h0v0s0,0,.05,0h.19l.15,0s0,0,.07-.09l.44-1.52a1,1,0,0,1-.21.1.85.85,0,0,1-.23,0h0s0,0,0,0h0v0a.05.05,0,0,1,.05,0,.72.72,0,0,0,.37-.11,1.33,1.33,0,0,0,.3-.28l0,0h0v0Z"/><path class="cls-6" d="M51.06,69.14h3.75v.31H51.06Zm-.46,1.21h4.66v.32H53.74V72.3c0,.16.09.25.29.25h.41a.36.36,0,0,0,.4-.28c0-.16,0-.35.07-.59l.42.1c0,.24-.07.44-.1.6-.07.31-.3.46-.7.46h-.59c-.41,0-.61-.17-.61-.51V70.67h-1v.13A2.34,2.34,0,0,1,52,72.12a2.87,2.87,0,0,1-1.22.86l-.29-.28A2.71,2.71,0,0,0,51.66,72a1.86,1.86,0,0,0,.28-1.13v-.15H50.6Z"/><path class="cls-6" d="M58.54,72.25l.21-.23c.34.15.77.35,1.26.59l-.24.27Q59.08,72.49,58.54,72.25ZM56.77,72l.24.24c-.49.25-.92.46-1.28.61l-.2-.26A10.23,10.23,0,0,0,56.77,72Zm2.2-1c.38.28.72.54,1,.8a2.52,2.52,0,0,0-.29.23l-.29-.26-1.32,0v.53c0,.33-.2.49-.6.49h-.57c0-.1,0-.21-.06-.34l.55,0c.21,0,.31-.07.31-.22v-.47l-1.1,0-.56.05-.2-.33a4,4,0,0,0,.64-.15c.36-.12.71-.24,1-.37l-1.06.07-.37,0L56,71a2.44,2.44,0,0,0,.45-.12l.59-.28H55.51v-.27h2.13V70H56v-.27h1.68v-.28h-2V69.2h2v-.36H58v.36h2v.26H58v.28h1.63V70H58v.28h2.15v.27H57.57l-1,.44,1.6-.09.75-.32.27.19q-1.23.52-2.46.93l2.41-.1-.42-.34Z"/><path class="cls-6" d="M62.9,70.69l.3-.19c.35.37.64.68.85,1l-.36.22A11,11,0,0,0,62.9,70.69ZM62,69.86H60.93v1H62Zm-1.09,2.38H62V71.18H60.93Zm1.55-1.83a6.05,6.05,0,0,0,.76-1.55l.41.08c-.08.21-.17.41-.25.6H65q-.06,2.14-.09,2.7c0,.44-.29.66-.8.66l-.89,0a3,3,0,0,0-.08-.37h0a7.38,7.38,0,0,0,.89.06c.29,0,.45-.13.47-.4s.06-1.19.08-2.31h-1.3a5.12,5.12,0,0,1-.43.71Zm-1.93-.86H61c.12-.25.22-.49.3-.69l.4.1-.29.59h1v3.33H62v-.33H60.93v.36h-.38Z"/><path class="cls-6" d="M68.53,69.21l.25-.22c.29.19.58.39.87.62l-.29.26A10,10,0,0,0,68.53,69.21Zm-3.32,1.65a6.8,6.8,0,0,0,1.19-2l.39.11c-.15.33-.3.63-.45.91V73h-.4V70.52a5.32,5.32,0,0,1-.57.72C65.33,71.12,65.27,71,65.21,70.86Zm1.4-.55,1.14-.1c0-.36-.07-.8-.08-1.33h.42a9.43,9.43,0,0,0,.06,1.29L69.92,70l0,.31-1.77.17c.18,1.15.53,1.85,1,2.08a.18.18,0,0,0,.27-.13,4.73,4.73,0,0,0,.16-.67l.38.12a4.24,4.24,0,0,1-.17.72.51.51,0,0,1-.52.36,1.17,1.17,0,0,1-.79-.43,3.72,3.72,0,0,1-.78-2l-1.12.1Z"/><path class="cls-6" d="M70.38,69.19l.28-.16.45.49-.3.19C70.67,69.53,70.52,69.36,70.38,69.19ZM72.43,69l.3.17a7.11,7.11,0,0,1-.53.56,2,2,0,0,0-.26-.18A6.6,6.6,0,0,0,72.43,69Zm-1.5,2.85.7.28a1.89,1.89,0,0,0,.52-.58h-1ZM74.25,70h-.9l-.06.1a3.54,3.54,0,0,0,.48,1.52A3.61,3.61,0,0,0,74.25,70Zm-4-.12h1.11v-.93h.35v.93h.93v.28h-.93v.25l.15-.14c.3.19.55.36.75.5l-.23.24a7.9,7.9,0,0,0-.67-.49V71h-.35v-.58a5.17,5.17,0,0,1-1,.7l-.21-.26a5.52,5.52,0,0,0,1.12-.69h-1Zm-.06,1.44h.74a3.62,3.62,0,0,0,.2-.33l.35.1-.15.23h1.18v.27a1.93,1.93,0,0,1-.56.72l.55.22-.22.29-.62-.3a4.42,4.42,0,0,1-1.38.54l-.16-.29a4.6,4.6,0,0,0,1.19-.4L70.45,72a3.68,3.68,0,0,0,.3-.39H70.2Zm3.11-2.41.39,0a6.62,6.62,0,0,1-.24.75h1.48V70h-.31a4.12,4.12,0,0,1-.61,2,2.89,2.89,0,0,0,1,.75l-.26.33a3.67,3.67,0,0,1-1-.78,4.64,4.64,0,0,1-1.06.83,3.42,3.42,0,0,0-.27-.27,4.05,4.05,0,0,0,1.09-.87A3.33,3.33,0,0,1,73,70.55a3.15,3.15,0,0,1-.22.29,2.6,2.6,0,0,0-.24-.27A3.67,3.67,0,0,0,73.31,68.87Z"/><path class="cls-6" d="M76.27,71.59l.34.2a10.82,10.82,0,0,1-1.11,1l-.32-.23A5.66,5.66,0,0,0,76.27,71.59Zm2.19,0c.5.34.94.64,1.29.91l-.3.27a13.82,13.82,0,0,0-1.26-1Zm-1-2.35a5.42,5.42,0,0,1-1.19,1h2.38A5.57,5.57,0,0,1,77.48,69.24ZM75.25,71.1h2.06v-.58H76.12v-.21a8.91,8.91,0,0,1-.82.43l-.24-.31a6,6,0,0,0,2.25-1.55h.51l-.1.11a5.08,5.08,0,0,0,2.15,1.37l-.26.32a7.61,7.61,0,0,1-.81-.4v.24H77.7v.58h2v.31h-2v1c0,.38-.22.57-.65.57h-.61c0-.1,0-.22-.06-.34l.59,0c.23,0,.34-.09.34-.29v-.93H75.25Z"/><path class="cls-6" d="M80,70.75h2.25v-.46l1.38-.88H80.51V69.1h3.76v.32l-1.61,1v.3h2.11v.31H82.66v1.32c0,.37-.23.56-.68.56h-.76c0-.11,0-.24-.06-.38.23,0,.48,0,.74,0s.35-.1.35-.3V71.06H80Z"/><path class="cls-6" d="M88.32,69.09l.23-.22c.23.15.47.31.71.5l-.28.24A7.22,7.22,0,0,0,88.32,69.09ZM84.9,72.31,86,72.19V71h-.94V70.7h2.27V71h-.93v1.13L87.57,72c0,.11,0,.22,0,.34L85,72.66Zm0-2.65h2.69c0-.26,0-.53,0-.82H88c0,.27,0,.55,0,.82h1.66V70H88c.06,1.41.33,2.26.81,2.56.18.12.3.09.37-.1a3.91,3.91,0,0,0,.13-.64l.39.1a4.27,4.27,0,0,1-.2.79A.42.42,0,0,1,89,73a1,1,0,0,1-.66-.29A4,4,0,0,1,87.59,70H84.88Z"/><line class="cls-8" x1="95.44" y1="52.66" x2="101.74" y2="52.66"/><line class="cls-8" x1="98.59" y1="49.51" x2="98.59" y2="55.8"/><path class="cls-6" d="M113.57,54.66a.39.39,0,0,0,0,.14c0,.07,0,.11.07.13A1.17,1.17,0,0,0,114,55h.51s.09,0,.09.07a.08.08,0,0,1,0,0l0,.08a.14.14,0,0,1-.14.1c-.42,0-.86,0-1.3,0s-.88,0-1.32,0c0,0-.08,0-.08-.07v0l0-.08c0-.07.06-.1.13-.11h.51a1.43,1.43,0,0,0,.38-.06q.13,0,.18-.27l1.16-4.47a2.24,2.24,0,0,1-.55.29,1.73,1.73,0,0,1-.6.11.06.06,0,0,1-.06,0,.05.05,0,0,1,0,0,.08.08,0,0,1,0,0l0-.08a.13.13,0,0,1,.14-.1A1.63,1.63,0,0,0,114,50a3.2,3.2,0,0,0,.8-.8.12.12,0,0,1,.1-.06h0a.11.11,0,0,1,.07,0s0,0,0,0v0Z"/><path class="cls-6" d="M112.06,58.72c.12.83.44,1.38.8,1.38h0c.31,0,.59.48.7,1.2h.09c.11-.72.39-1.2.7-1.2h0c.36,0,.68-.55.8-1.38l0-.21c-.12.64-.38,1.05-.67,1.05h-.12c-.31,0-.59.48-.7,1.2h-.09c-.11-.72-.39-1.2-.7-1.2h-.12c-.29,0-.55-.41-.67-1.05"/><path class="cls-6" d="M107.26,64a.44.44,0,0,1,0-.1l0-.1a.48.48,0,0,0-.14-.2.3.3,0,0,0-.23-.08.43.43,0,0,0-.25.08,1,1,0,0,0-.22.2,1.31,1.31,0,0,0-.21.36l-.12.38c0,.13-.07.26-.1.38a1.37,1.37,0,0,0,0,.19.88.88,0,0,0,0,.17.53.53,0,0,0,.11.21.25.25,0,0,0,.2.08.51.51,0,0,0,.28-.09,1.16,1.16,0,0,0,.25-.2l.09-.1a.36.36,0,0,0,.07-.1Zm.75.9c0,.08,0,.16-.07.25a1.45,1.45,0,0,1-.11.25.85.85,0,0,1-.17.2.45.45,0,0,1-.26.08.47.47,0,0,1-.32-.1.43.43,0,0,1-.15-.26,1.31,1.31,0,0,1-.32.25.82.82,0,0,1-.39.11.64.64,0,0,1-.36-.09.68.68,0,0,1-.23-.25.84.84,0,0,1-.11-.38v0a1.31,1.31,0,0,1,.06-.38,2.6,2.6,0,0,1,.19-.42,1.85,1.85,0,0,1,.32-.38,1.31,1.31,0,0,1,.37-.24.92.92,0,0,1,.42-.1.55.55,0,0,1,.29.08.68.68,0,0,1,.17.21v0a.18.18,0,0,1,.09-.12.22.22,0,0,1,.13,0,.28.28,0,0,1,.13,0,.12.12,0,0,1,0,.09.08.08,0,0,1,0,0l-.4,1.42a.72.72,0,0,0,0,.19.28.28,0,0,0,0,.09.2.2,0,0,0,0,.07.12.12,0,0,0,0,.1.12.12,0,0,0,.1,0,.21.21,0,0,0,.13,0,.39.39,0,0,0,.1-.14,2.2,2.2,0,0,0,.09-.21,1.73,1.73,0,0,0,.08-.27s0,0,.07,0H108s0,0,0,0Z"/><path class="cls-6" d="M108.72,66.26a.43.43,0,0,1,0,0s0,0,0,0a.24.24,0,0,0,.13,0h.19s0,0,0,0h0v0a.05.05,0,0,1,0,0h-1s0,0,0,0h0v0a.06.06,0,0,1,.06,0h.19a.28.28,0,0,0,.14,0s.06,0,.07-.09l.44-1.52a.51.51,0,0,1-.21.1.54.54,0,0,1-.22,0h0v0h0v0s0,0,.05,0a.69.69,0,0,0,.36-.11,1.63,1.63,0,0,0,.31-.27s0,0,0,0h0v0h0Z"/><path class="cls-6" d="M111.34,65.09a.46.46,0,0,1-.13.22,1.37,1.37,0,0,1-.22.19l-.28.17-.28.14a1.21,1.21,0,0,0-.29.19,1.09,1.09,0,0,0-.23.25l.09,0,.18,0,.18,0,.17,0,.18,0a.31.31,0,0,0,.13,0,.57.57,0,0,0,.13-.08l.1-.12a.42.42,0,0,0,.06-.14s0,0,0,0h.07a1.8,1.8,0,0,1-.08.21,1.27,1.27,0,0,1-.13.19.7.7,0,0,1-.17.13.41.41,0,0,1-.21.05.38.38,0,0,1-.19,0,.8.8,0,0,1-.16-.08l-.15-.08a.47.47,0,0,0-.17,0,.14.14,0,0,0-.11.06.34.34,0,0,0-.08.16.06.06,0,0,1-.05,0h-.06a0,0,0,0,1,0,0h0a1.12,1.12,0,0,1,.25-.45,1.45,1.45,0,0,1,.46-.34,2,2,0,0,0,.42-.28.76.76,0,0,0,.25-.36,1,1,0,0,0,0-.24v0a.47.47,0,0,0,0-.17.28.28,0,0,0-.11-.13.27.27,0,0,0-.18,0,.59.59,0,0,0-.23,0,.75.75,0,0,0-.2.15,1.77,1.77,0,0,0-.16.22,1.09,1.09,0,0,0-.1.25.5.5,0,0,0,0,.12.06.06,0,0,0,0,0,.07.07,0,0,0,.07.07.27.27,0,0,0,.12,0l.09-.08.08-.12.06-.14v-.09a.2.2,0,0,0,0-.08v0s0,0,0,0h0s0,0,0,0a.2.2,0,0,1,.06.14.22.22,0,0,1,0,.08,1,1,0,0,1-.07.15.48.48,0,0,1-.09.14.45.45,0,0,1-.13.11.42.42,0,0,1-.16,0,.17.17,0,0,1-.1,0,.18.18,0,0,1-.05-.07.15.15,0,0,1,0-.09h0a.36.36,0,0,1,0-.1,1,1,0,0,1,.11-.27.88.88,0,0,1,.19-.24.81.81,0,0,1,.24-.17.68.68,0,0,1,.28-.07.6.6,0,0,1,.27.06.49.49,0,0,1,.19.16.6.6,0,0,1,.1.23v.08A.63.63,0,0,1,111.34,65.09Z"/><path class="cls-6" d="M112.81,62.64h3.74V63h-3.74Zm-.46,1.21H117v.32h-1.53V65.8c0,.17.1.25.29.25h.42c.23,0,.36-.09.39-.28a5.31,5.31,0,0,0,.08-.59,3.26,3.26,0,0,0,.42.1c0,.24-.07.44-.11.61s-.29.46-.7.46h-.58c-.41,0-.61-.18-.61-.52V64.17h-1v.14a2.22,2.22,0,0,1-.31,1.31,2.67,2.67,0,0,1-1.22.86c-.11-.12-.21-.21-.28-.28a2.6,2.6,0,0,0,1.12-.74,1.9,1.9,0,0,0,.29-1.14v-.15h-1.34Z"/><path class="cls-6" d="M120.28,65.75l.22-.23,1.26.59-.25.27Q120.82,66,120.28,65.75Zm-1.77-.21.24.24c-.48.26-.91.46-1.27.62a3.07,3.07,0,0,0-.2-.27A10.94,10.94,0,0,0,118.51,65.54Zm2.2-1c.39.28.73.55,1,.8a3.11,3.11,0,0,0-.28.24l-.3-.27-1.31,0v.53c0,.33-.2.5-.6.5h-.58a2.73,2.73,0,0,0-.06-.34l.56,0q.3,0,.3-.21v-.48l-1.1,0-.56.05-.19-.33a4.33,4.33,0,0,0,.64-.15c.36-.12.71-.24,1-.37l-1.06.07-.36,0-.17-.31a2.55,2.55,0,0,0,.44-.12l.59-.28h-1.48V63.8h2.14v-.29h-1.68v-.27h1.68V63h-2V62.7h2v-.36h.38v.36h2V63h-2v.28h1.63v.27h-1.63v.29h2.16v.26h-2.61l-1,.44,1.59-.09.76-.32.27.19q-1.25.52-2.46.93l2.4-.1c-.13-.11-.27-.23-.42-.34Z"/><path class="cls-6" d="M127.05,52.66a.56.56,0,1,1-.55-.56A.55.55,0,0,1,127.05,52.66Z"/><line class="cls-8" x1="134.39" y1="52.66" x2="138.3" y2="52.66"/><path class="cls-6" d="M141.4,54.66a.39.39,0,0,0,0,.14c0,.07,0,.11.07.13a1.17,1.17,0,0,0,.35.06h.5c.06,0,.1,0,.1.07a.08.08,0,0,1,0,0l0,.08a.14.14,0,0,1-.14.1c-.42,0-.86,0-1.3,0s-.88,0-1.32,0c0,0-.08,0-.08-.07V55.1a.15.15,0,0,1,.14-.11h.51a1.43,1.43,0,0,0,.38-.06q.13,0,.18-.27l1.16-4.47a2.24,2.24,0,0,1-.55.29,1.73,1.73,0,0,1-.6.11.06.06,0,0,1-.06,0,.05.05,0,0,1,0,0,.08.08,0,0,1,0,0l0-.08a.13.13,0,0,1,.14-.1,1.63,1.63,0,0,0,.95-.33,3.2,3.2,0,0,0,.8-.8.12.12,0,0,1,.1-.06h0a.11.11,0,0,1,.08,0v.07Z"/><path class="cls-6" d="M133.41,56.91a5,5,0,0,1,0-8.5h.46a5.26,5.26,0,0,0,0,8.5"/><path class="cls-6" d="M144,48.41a5,5,0,0,1,0,8.5h-.47a5.26,5.26,0,0,0,0-8.5"/><path class="cls-6" d="M149.86,51.34s0,.06,0,.08a.07.07,0,0,0,0,.07.88.88,0,0,0,.23,0h.32s.06,0,.06,0v.07a.1.1,0,0,1-.09.06l-.83,0-.85,0a0,0,0,0,1-.05,0v-.07a.08.08,0,0,1,.09-.06h.33l.24,0s.09-.06.11-.15l.74-2.55a1.58,1.58,0,0,1-.35.16,1.21,1.21,0,0,1-.38.06h0s0,0,0,0v0l0-.05a.08.08,0,0,1,.08-.06,1.07,1.07,0,0,0,.61-.19,2,2,0,0,0,.52-.45.06.06,0,0,1,.06,0h0s0,0,0,0v0Z"/><line class="cls-9" x1="152.25" y1="50.21" x2="155.78" y2="50.21"/><line class="cls-9" x1="154.01" y1="48.45" x2="154.01" y2="51.97"/><path class="cls-6" d="M160,49.37a.89.89,0,0,1-.22.37,2,2,0,0,1-.38.32,5.11,5.11,0,0,1-.46.28l-.47.24a2.14,2.14,0,0,0-.5.32,1.86,1.86,0,0,0-.37.42.29.29,0,0,1,.14,0,1.55,1.55,0,0,1,.31,0l.29,0,.29.05.3,0a.66.66,0,0,0,.44-.19.67.67,0,0,0,.17-.2.94.94,0,0,0,.1-.23s0,0,.08,0h.11v0h0a2.13,2.13,0,0,1-.14.35,1.4,1.4,0,0,1-.22.32.89.89,0,0,1-.29.22.7.7,0,0,1-.35.09.79.79,0,0,1-.32-.06l-.26-.14-.25-.14a.65.65,0,0,0-.29-.06.24.24,0,0,0-.19.1.64.64,0,0,0-.13.26s0,0-.08,0h-.1l0,0h0a1.9,1.9,0,0,1,.43-.75,2.17,2.17,0,0,1,.76-.57,3.31,3.31,0,0,0,.72-.47,1.35,1.35,0,0,0,.42-.61,2,2,0,0,0,.08-.41v-.08a.66.66,0,0,0,0-.28.45.45,0,0,0-.19-.22.49.49,0,0,0-.3-.09.76.76,0,0,0-.39.1,1.11,1.11,0,0,0-.33.25A1.41,1.41,0,0,0,158,49a1.94,1.94,0,0,0-.17.42.81.81,0,0,0,0,.2.15.15,0,0,0,0,.07c0,.08.05.11.13.11a.32.32,0,0,0,.19,0,.91.91,0,0,0,.16-.13,1.74,1.74,0,0,0,.13-.2,1.6,1.6,0,0,0,.1-.23s0-.06,0-.09a.13.13,0,0,0,0-.06.47.47,0,0,0-.06-.15s0,0,0,0,0,0,0,0h0l.06,0s0,0,0,0a.32.32,0,0,1,.09.23.36.36,0,0,1,0,.14,1.83,1.83,0,0,1-.11.26,1.19,1.19,0,0,1-.16.23.58.58,0,0,1-.21.17.48.48,0,0,1-.26.07.3.3,0,0,1-.18-.05.2.2,0,0,1-.09-.11.4.4,0,0,1,0-.15v0a.51.51,0,0,1,0-.17,2.07,2.07,0,0,1,.2-.46,1.68,1.68,0,0,1,.3-.4,1.42,1.42,0,0,1,.41-.28,1.13,1.13,0,0,1,.48-.11.93.93,0,0,1,.45.1.89.89,0,0,1,.32.25.83.83,0,0,1,.16.4.57.57,0,0,1,0,.13A1.19,1.19,0,0,1,160,49.37Z"/><path class="cls-6" d="M168.18,43.79a.87.87,0,0,0-.21-.5.69.69,0,0,0-.5-.2,1.13,1.13,0,0,0-.6.2,1.9,1.9,0,0,0-.48.5,2.87,2.87,0,0,0-.22.43c-.07.17-.13.36-.2.55s-.12.4-.17.6-.11.4-.15.58-.1.41-.15.63-.11.43-.15.65-.08.41-.11.59,0,.25,0,.34a.61.61,0,0,0,0,.14.88.88,0,0,0,.2.53.61.61,0,0,0,.51.22,1,1,0,0,0,.61-.22,1.83,1.83,0,0,0,.47-.53,2.94,2.94,0,0,0,.23-.47l.21-.6c.07-.22.13-.43.19-.65s.11-.43.16-.63.1-.37.15-.58.1-.4.13-.6.07-.38.09-.55a2.62,2.62,0,0,0,0-.27A.81.81,0,0,0,168.18,43.79Zm.5-.1a2.88,2.88,0,0,1,.1.78c0,.12,0,.25,0,.38a11.52,11.52,0,0,1-.25,1.25c-.11.41-.24.82-.39,1.22a4,4,0,0,1-.68,1.14,2.39,2.39,0,0,1-.72.58,1.94,1.94,0,0,1-.85.21,1.23,1.23,0,0,1-.73-.21,1.17,1.17,0,0,1-.42-.58,2.48,2.48,0,0,1-.12-.77c0-.12,0-.24,0-.37a9.06,9.06,0,0,1,.24-1.22,12.72,12.72,0,0,1,.4-1.24,4.1,4.1,0,0,1,.68-1.17,2.42,2.42,0,0,1,.72-.59,1.8,1.8,0,0,1,.85-.22,1.17,1.17,0,0,1,.73.22A1.15,1.15,0,0,1,168.68,43.69Z"/><path class="cls-6" d="M179.47,43.79a.82.82,0,0,0-.22-.5.67.67,0,0,0-.49-.2,1.19,1.19,0,0,0-.61.2,1.72,1.72,0,0,0-.47.5,2.16,2.16,0,0,0-.22.43c-.07.17-.14.36-.2.55l-.18.6c-.05.21-.1.4-.14.58s-.1.41-.15.63-.11.43-.15.65a5,5,0,0,0-.11.59,2.35,2.35,0,0,0,0,.34c0,.05,0,.1,0,.14a1,1,0,0,0,.21.53.61.61,0,0,0,.51.22,1,1,0,0,0,.6-.22,2,2,0,0,0,.48-.53,2.94,2.94,0,0,0,.23-.47q.11-.28.21-.6c.06-.22.13-.43.19-.65s.11-.43.16-.63.1-.37.15-.58.09-.4.13-.6a3.84,3.84,0,0,0,.08-.55c0-.1,0-.19,0-.27A.81.81,0,0,0,179.47,43.79Zm.49-.1a2.88,2.88,0,0,1,.11.78c0,.12,0,.25,0,.38a9.48,9.48,0,0,1-.24,1.25c-.11.41-.24.82-.39,1.22a4,4,0,0,1-.68,1.14A2.56,2.56,0,0,1,178,49a1.86,1.86,0,0,1-.84.21,1.23,1.23,0,0,1-.73-.21,1.13,1.13,0,0,1-.43-.58,2.81,2.81,0,0,1-.11-.77c0-.12,0-.24,0-.37a9.06,9.06,0,0,1,.24-1.22c.11-.41.24-.82.39-1.24a4.14,4.14,0,0,1,.69-1.17,2.42,2.42,0,0,1,.72-.59,1.77,1.77,0,0,1,.85-.22,1.15,1.15,0,0,1,1.15.81Z"/><path class="cls-6" d="M168.6,57.44a1.51,1.51,0,0,1-.34.65,4,4,0,0,1-.59.56q-.34.26-.72.48l-.74.42a3.62,3.62,0,0,0-.77.56,3.44,3.44,0,0,0-.59.73.73.73,0,0,1,.23,0,2.42,2.42,0,0,1,.47.05l.47.09.45.09a2.42,2.42,0,0,0,.47,0,.8.8,0,0,0,.36-.09,1.41,1.41,0,0,0,.32-.24,1.52,1.52,0,0,0,.26-.35,1.62,1.62,0,0,0,.17-.41.1.1,0,0,1,.11-.08h.11l.07,0s0,0,0,0a0,0,0,0,0,0,0,4.44,4.44,0,0,1-.22.61,2.26,2.26,0,0,1-.34.56,1.71,1.71,0,0,1-.45.4,1.08,1.08,0,0,1-.55.15,1.15,1.15,0,0,1-.5-.11,2.65,2.65,0,0,1-.4-.24l-.39-.24A.91.91,0,0,0,165,61a.38.38,0,0,0-.29.18,1.34,1.34,0,0,0-.21.45s-.05.08-.12.08h-.09a.08.08,0,0,1-.07,0,0,0,0,0,1,0,0v0a3.48,3.48,0,0,1,.67-1.31,3.85,3.85,0,0,1,1.19-1,4.79,4.79,0,0,0,1.12-.81,2.28,2.28,0,0,0,.65-1.07,3.81,3.81,0,0,0,.14-.72v-.14a1.64,1.64,0,0,0-.08-.5,1,1,0,0,0-.3-.38.73.73,0,0,0-.46-.15,1.23,1.23,0,0,0-.62.17,1.94,1.94,0,0,0-.52.44,2.85,2.85,0,0,0-.41.63,4.55,4.55,0,0,0-.27.73,1.22,1.22,0,0,0-.05.35.53.53,0,0,0,0,.13c0,.13.09.19.2.19a.53.53,0,0,0,.3-.09.77.77,0,0,0,.25-.23,1.63,1.63,0,0,0,.21-.34,2.86,2.86,0,0,0,.15-.41.77.77,0,0,0,0-.15.49.49,0,0,0,0-.12.87.87,0,0,0-.1-.25s0,0,0,0,0-.05.05-.08h0a.12.12,0,0,1,.08,0,.05.05,0,0,1,0,0,.59.59,0,0,1,.15.4.69.69,0,0,1,0,.25,2.75,2.75,0,0,1-.17.45,2.33,2.33,0,0,1-.24.41,1.15,1.15,0,0,1-.33.3.79.79,0,0,1-.42.12.41.41,0,0,1-.27-.08.43.43,0,0,1-.15-.2,1.19,1.19,0,0,1,0-.26v0a1.54,1.54,0,0,1,0-.3,4.79,4.79,0,0,1,.31-.79,3,3,0,0,1,.48-.71,2.72,2.72,0,0,1,.63-.5,1.66,1.66,0,0,1,.75-.18,1.49,1.49,0,0,1,.71.16,1.57,1.57,0,0,1,.5.46,1.74,1.74,0,0,1,.25.68,1.93,1.93,0,0,1,0,.23A1.87,1.87,0,0,1,168.6,57.44Z"/><path class="cls-6" d="M180.26,55.43a0,0,0,0,0,0,0s0,0,0,0a2.67,2.67,0,0,1-.87.62,2.38,2.38,0,0,1-1,.22,2.18,2.18,0,0,1-.72-.12l-.47,1.86a2.08,2.08,0,0,1,.57-.35,1.76,1.76,0,0,1,.66-.12,1.13,1.13,0,0,1,.62.17,1.2,1.2,0,0,1,.4.44,1.72,1.72,0,0,1,.19.67V59a2.27,2.27,0,0,1-.09.62,2.68,2.68,0,0,1-.34.78,3.13,3.13,0,0,1-.59.68,2.63,2.63,0,0,1-.73.44,2,2,0,0,1-.79.16,1.2,1.2,0,0,1-.59-.14,1,1,0,0,1-.4-.38,1.32,1.32,0,0,1-.18-.57s0-.1,0-.16a2.1,2.1,0,0,1,.06-.48.54.54,0,0,1,.2-.3.59.59,0,0,1,.31-.09.45.45,0,0,1,.26.08.28.28,0,0,1,.07.19.25.25,0,0,1,0,.12.5.5,0,0,1-.24.32.56.56,0,0,1-.27.08h-.07v.06a1.07,1.07,0,0,0,.24.71.87.87,0,0,0,.72.31,1,1,0,0,0,.52-.14,1.68,1.68,0,0,0,.48-.36,2,2,0,0,0,.37-.61,6.2,6.2,0,0,0,.23-.69c.06-.24.12-.47.16-.69a1.23,1.23,0,0,0,0-.27,1.42,1.42,0,0,0,0-.36.89.89,0,0,0-.19-.36.44.44,0,0,0-.35-.15,1.67,1.67,0,0,0-.7.16,2,2,0,0,0-.56.43l-.08.09a.14.14,0,0,1-.09,0h-.06s-.08,0-.08-.06v0l.62-2.42.16-.61a.11.11,0,0,1,.11-.09h.05l0,0h0a2.19,2.19,0,0,0,1.1.27,3,3,0,0,0,1.29-.3h.06s.05,0,.06,0Z"/><line class="cls-7" x1="162.39" y1="42.47" x2="162.39" y2="62.85"/><line class="cls-7" x1="181.68" y1="62.85" x2="181.68" y2="42.47"/><path class="cls-6" d="M131.34,64.77a2.35,2.35,0,0,0,2.22,1.56H154.5a2.09,2.09,0,0,1,2,1.37h.25a2.11,2.11,0,0,1,2-1.37h20.93a2.36,2.36,0,0,0,2.22-1.56l-.05-.19a2.1,2.1,0,0,1-1.9,1.21h-21.2a2.11,2.11,0,0,0-2,1.37h-.25a2.09,2.09,0,0,0-2-1.37H133.29a2.08,2.08,0,0,1-1.9-1.21"/><path class="cls-6" d="M135.5,70.47s0-.06,0-.09a.38.38,0,0,0,0-.1.46.46,0,0,0-.13-.2.33.33,0,0,0-.23-.09.46.46,0,0,0-.25.08.91.91,0,0,0-.23.21,1.13,1.13,0,0,0-.2.35c0,.13-.09.26-.13.39a3,3,0,0,0-.09.38.67.67,0,0,0,0,.18.57.57,0,0,0,0,.18.35.35,0,0,0,.1.2.23.23,0,0,0,.2.09.49.49,0,0,0,.28-.09,1.22,1.22,0,0,0,.25-.2l.09-.1a.36.36,0,0,0,.07-.1Zm.75.91c0,.07,0,.16-.07.25a1.12,1.12,0,0,1-.11.25.82.82,0,0,1-.17.2.42.42,0,0,1-.26.08.47.47,0,0,1-.32-.1.43.43,0,0,1-.15-.26,1.61,1.61,0,0,1-.32.25.82.82,0,0,1-.39.11.57.57,0,0,1-.36-.1.66.66,0,0,1-.23-.24.75.75,0,0,1-.1-.38v0a1.26,1.26,0,0,1,.06-.38,1.9,1.9,0,0,1,.18-.42,1.62,1.62,0,0,1,.32-.38,1.31,1.31,0,0,1,.37-.24.92.92,0,0,1,.42-.1.52.52,0,0,1,.29.08.91.91,0,0,1,.18.21v0a.21.21,0,0,1,.09-.13.33.33,0,0,1,.13,0,.25.25,0,0,1,.13,0,.11.11,0,0,1,0,.08v0l-.41,1.42a.72.72,0,0,0,0,.19.25.25,0,0,0,0,.08.22.22,0,0,0,0,.08.14.14,0,0,0,0,.1.15.15,0,0,0,.1,0,.21.21,0,0,0,.13,0,.53.53,0,0,0,.11-.14.93.93,0,0,0,.08-.22l.09-.26a.06.06,0,0,1,.06,0h.07s0,0,0,0Z"/><path class="cls-6" d="M137,72.76s0,0,0,0,0,0,0,0a.41.41,0,0,0,.14,0h.19a0,0,0,0,1,0,0h0v0a.05.05,0,0,1-.05,0h-1s0,0,0,0h0v0a0,0,0,0,1,.05,0h.19l.15,0s0,0,.06-.09l.44-1.52a.75.75,0,0,1-.2.1.93.93,0,0,1-.23,0h0v0h0v0a0,0,0,0,1,.05,0,.66.66,0,0,0,.36-.11,1.38,1.38,0,0,0,.31-.28l0,0h0v0Z"/><path class="cls-6" d="M139.59,71.59a.48.48,0,0,1-.14.22,1.37,1.37,0,0,1-.22.19l-.28.16-.28.15a1,1,0,0,0-.29.19,1.1,1.1,0,0,0-.23.25l.09,0,.18,0,.18,0,.17,0H139a.35.35,0,0,0,.14,0,.42.42,0,0,0,.12-.08.52.52,0,0,0,.1-.11.53.53,0,0,0,.06-.14,0,0,0,0,1,0,0h.06s0,0,0,0h0a1.19,1.19,0,0,1-.08.2.91.91,0,0,1-.13.19.75.75,0,0,1-.17.14.54.54,0,0,1-.21.05.38.38,0,0,1-.19,0,.8.8,0,0,1-.16-.08l-.14-.08a.34.34,0,0,0-.18,0,.14.14,0,0,0-.11.06A.36.36,0,0,0,138,73a0,0,0,0,1-.05,0h-.06a1.16,1.16,0,0,1,.25-.44,1.57,1.57,0,0,1,.46-.34,1.81,1.81,0,0,0,.42-.28.76.76,0,0,0,.25-.36,1.23,1.23,0,0,0,0-.25v0a.47.47,0,0,0,0-.17.24.24,0,0,0-.11-.13.27.27,0,0,0-.18,0,.46.46,0,0,0-.23,0,1,1,0,0,0-.2.15,1,1,0,0,0-.16.22,1.86,1.86,0,0,0-.1.25.5.5,0,0,0,0,.12.06.06,0,0,0,0,0s0,.06.07.06l.12,0a.32.32,0,0,0,.09-.08.44.44,0,0,0,.08-.11l.06-.14a.43.43,0,0,1,0,0s0,0,0,0a.18.18,0,0,0,0-.09h0s0,0,0,0h0l0,0,0,0a.21.21,0,0,1,.05.13.28.28,0,0,1,0,.09,1,1,0,0,1-.07.15.42.42,0,0,1-.09.14.41.41,0,0,1-.13.1.26.26,0,0,1-.15,0l-.11,0a.18.18,0,0,1-.05-.07.29.29,0,0,1,0-.09h0a.3.3,0,0,1,0-.1.81.81,0,0,1,.11-.27,1.12,1.12,0,0,1,.19-.24.81.81,0,0,1,.24-.17.55.55,0,0,1,.28-.07.6.6,0,0,1,.27.06.75.75,0,0,1,.2.15.87.87,0,0,1,.1.24v.07A.69.69,0,0,1,139.59,71.59Z"/><path class="cls-6" d="M141.06,69.14h3.75v.31h-3.75Zm-.46,1.21h4.66v.32h-1.53V72.3c0,.16.1.25.29.25h.42c.23,0,.36-.1.39-.28a5.67,5.67,0,0,0,.08-.59l.42.1c0,.24-.07.44-.1.6-.07.31-.3.46-.7.46h-.59c-.41,0-.61-.17-.61-.51V70.67h-1v.13a2.34,2.34,0,0,1-.3,1.32,2.85,2.85,0,0,1-1.23.86l-.28-.28a2.6,2.6,0,0,0,1.12-.75,1.86,1.86,0,0,0,.29-1.13v-.15H140.6Z"/><path class="cls-6" d="M148.54,72.25l.21-.23,1.26.59-.24.27Q149.08,72.49,148.54,72.25ZM146.76,72l.25.24c-.49.25-.92.46-1.28.61l-.2-.26A10.94,10.94,0,0,0,146.76,72Zm2.21-1c.38.28.72.54,1,.8a2.64,2.64,0,0,0-.28.23l-.3-.26-1.31,0v.53c0,.33-.2.49-.6.49h-.58c0-.1,0-.21,0-.34l.55,0c.2,0,.31-.07.31-.22v-.47l-1.11,0-.55.05-.2-.33a4,4,0,0,0,.64-.15c.36-.12.71-.24,1.05-.37l-1.07.07-.36,0L146,71a2.32,2.32,0,0,0,.44-.12l.59-.28H145.5v-.27h2.14V70H146v-.27h1.68v-.28h-1.95V69.2h1.95v-.36H148v.36h2v.26h-2v.28h1.64V70H148v.28h2.16v.27h-2.61l-1,.44,1.6-.09.75-.32.27.19q-1.24.52-2.46.93l2.4-.1a4.78,4.78,0,0,0-.42-.34Z"/><path class="cls-6" d="M152.9,70.69l.29-.19c.36.37.64.68.86,1l-.36.22A11,11,0,0,0,152.9,70.69Zm-.89-.83h-1.08v1H152Zm-1.08,2.38H152V71.18h-1.08Zm1.54-1.83a5.75,5.75,0,0,0,.77-1.55l.41.08-.25.6H155c0,1.43-.07,2.33-.1,2.7s-.29.66-.79.66c-.3,0-.59,0-.9,0a3.06,3.06,0,0,0-.07-.37h0a7.22,7.22,0,0,0,.88.06c.3,0,.45-.13.48-.4s.06-1.19.07-2.31h-1.29a5.12,5.12,0,0,1-.43.71A2.27,2.27,0,0,0,152.47,70.41Zm-1.93-.86H151a7,7,0,0,0,.29-.69l.41.1-.29.59h1v3.33H152v-.33h-1.08v.36h-.39Z"/><path class="cls-6" d="M158.53,69.21l.25-.22c.28.19.57.39.87.62l-.3.26A9.87,9.87,0,0,0,158.53,69.21Zm-3.33,1.65a6.83,6.83,0,0,0,1.2-2l.38.11a8.57,8.57,0,0,1-.45.91V73h-.39V70.52a7.54,7.54,0,0,1-.57.72C155.32,71.12,155.27,71,155.2,70.86Zm1.4-.55,1.15-.1c0-.36-.07-.8-.08-1.33h.42a9.43,9.43,0,0,0,.06,1.29l1.76-.17.05.31-1.78.17c.19,1.15.54,1.85,1,2.08.15,0,.24,0,.28-.13a4.81,4.81,0,0,0,.15-.67l.39.12c-.05.27-.11.51-.17.72a.51.51,0,0,1-.52.36,1.15,1.15,0,0,1-.79-.43,3.57,3.57,0,0,1-.78-2l-1.13.1Z"/><path class="cls-6" d="M160.38,69.19l.27-.16c.15.15.3.32.45.49l-.3.19Zm2.05-.18.3.17-.53.56-.26-.18C162.1,69.39,162.27,69.21,162.43,69Zm-1.51,2.85.71.28a2,2,0,0,0,.52-.58h-1Zm3.32-1.9h-.9a.93.93,0,0,1-.05.1,3.54,3.54,0,0,0,.48,1.52A3.61,3.61,0,0,0,164.24,70Zm-4-.12h1.11v-.93h.36v.93h.93v.28h-.93v.25l.14-.14.76.5-.24.24a6.3,6.3,0,0,0-.66-.49V71h-.36v-.58a4.83,4.83,0,0,1-1,.7l-.21-.26a5.52,5.52,0,0,0,1.12-.69h-1Zm-.05,1.44h.73l.21-.33.35.1-.16.23h1.18v.27a1.9,1.9,0,0,1-.55.72l.54.22-.21.29-.62-.3a4.62,4.62,0,0,1-1.38.54l-.16-.29a4.74,4.74,0,0,0,1.19-.4l-.87-.38c.1-.12.2-.26.3-.39h-.55Zm3.11-2.41.38,0a5.08,5.08,0,0,1-.23.75h1.47V70h-.3a4.12,4.12,0,0,1-.62,2,2.83,2.83,0,0,0,1,.75l-.27.33a3.83,3.83,0,0,1-1-.78,4.38,4.38,0,0,1-1,.83,2.46,2.46,0,0,0-.28-.27,4.11,4.11,0,0,0,1.1-.87,3.49,3.49,0,0,1-.52-1.35l-.21.29c-.06-.08-.15-.17-.24-.27A3.88,3.88,0,0,0,163.31,68.87Z"/><path class="cls-6" d="M166.26,71.59l.35.2a13.41,13.41,0,0,1-1.11,1,3.66,3.66,0,0,0-.33-.23A5.66,5.66,0,0,0,166.26,71.59Zm2.19,0c.51.34.94.64,1.29.91l-.3.27a13.82,13.82,0,0,0-1.26-1Zm-1-2.35a5.66,5.66,0,0,1-1.19,1h2.37A5.51,5.51,0,0,1,167.48,69.24Zm-2.24,1.86h2.06v-.58h-1.18v-.21a9.13,9.13,0,0,1-.83.43,2,2,0,0,0-.24-.31,5.8,5.8,0,0,0,2.25-1.55h.51l-.09.11a5,5,0,0,0,2.14,1.37c-.1.12-.18.22-.25.32a6.1,6.1,0,0,1-.81-.4v.24h-1.11v.58h2v.31h-2v1c0,.38-.21.57-.65.57h-.61a2.45,2.45,0,0,0-.06-.34l.6,0c.22,0,.33-.09.33-.29v-.93h-2.06Z"/><path class="cls-6" d="M170,70.75h2.25v-.46l1.38-.88H170.5V69.1h3.77v.32l-1.62,1v.3h2.11v.31h-2.11v1.32c0,.37-.23.56-.68.56h-.76a3.26,3.26,0,0,0-.06-.38c.24,0,.48,0,.75,0s.34-.1.34-.3V71.06H170Z"/><path class="cls-6" d="M178.31,69.09l.23-.22a7.69,7.69,0,0,1,.71.5l-.28.24A7.22,7.22,0,0,0,178.31,69.09Zm-3.41,3.22,1.12-.12V71h-1V70.7h2.27V71h-.93v1.13l1.16-.15c0,.11,0,.22,0,.34l-2.57.33Zm0-2.65h2.68c0-.26,0-.53,0-.82h.41c0,.27,0,.55,0,.82h1.66V70H178c.07,1.41.34,2.26.82,2.56.17.12.29.09.36-.1a3.91,3.91,0,0,0,.13-.64l.39.1a5.42,5.42,0,0,1-.19.79A.44.44,0,0,1,179,73a1,1,0,0,1-.66-.29,4.07,4.07,0,0,1-.79-2.71h-2.7Z"/><line class="cls-8" x1="185.66" y1="52.66" x2="191.96" y2="52.66"/><line class="cls-8" x1="188.81" y1="49.51" x2="188.81" y2="55.8"/><path class="cls-6" d="M206.05,51.21a1.49,1.49,0,0,1-.33.65,3.58,3.58,0,0,1-.6.56,6.43,6.43,0,0,1-.72.48l-.73.42a4.08,4.08,0,0,0-.78.56,3.44,3.44,0,0,0-.58.74.48.48,0,0,1,.22,0,2.52,2.52,0,0,1,.48,0l.46.09.46.09a2.26,2.26,0,0,0,.47.05.73.73,0,0,0,.35-.09,1.27,1.27,0,0,0,.33-.24,1.52,1.52,0,0,0,.26-.35,2.05,2.05,0,0,0,.16-.41s.05-.07.12-.08h.1l.07,0s0,0,0,0v0a3.07,3.07,0,0,1-.22.62,2.77,2.77,0,0,1-.33.55,1.72,1.72,0,0,1-.46.4,1.06,1.06,0,0,1-.55.15,1.07,1.07,0,0,1-.49-.11,2.75,2.75,0,0,1-.41-.24l-.39-.24a.88.88,0,0,0-.47-.11.36.36,0,0,0-.29.17,1.33,1.33,0,0,0-.2.45c0,.05,0,.08-.12.08h-.1a.09.09,0,0,1-.07,0s0,0,0,0a0,0,0,0,1,0,0,3.6,3.6,0,0,1,.66-1.31,4,4,0,0,1,1.2-1,5,5,0,0,0,1.12-.81,2.46,2.46,0,0,0,.65-1.07,4.57,4.57,0,0,0,.14-.72v-.14a1.57,1.57,0,0,0-.08-.49,1,1,0,0,0-.3-.39.75.75,0,0,0-.47-.15,1.19,1.19,0,0,0-.61.17,2,2,0,0,0-.52.44,2.54,2.54,0,0,0-.41.63,4.06,4.06,0,0,0-.28.73,1.81,1.81,0,0,0,0,.36.5.5,0,0,0,0,.12c0,.13.08.2.2.2a.53.53,0,0,0,.3-.09,1.12,1.12,0,0,0,.25-.24,2.18,2.18,0,0,0,.2-.34,3.89,3.89,0,0,0,.16-.41.77.77,0,0,0,0-.15s0-.08,0-.11a.71.71,0,0,0-.11-.25v-.05a.09.09,0,0,1,0-.07l0,0s.06,0,.08,0,0,0,.05,0a.6.6,0,0,1,.15.4,1,1,0,0,1,0,.25,4.13,4.13,0,0,1-.17.45,2.36,2.36,0,0,1-.25.41.94.94,0,0,1-.33.3.79.79,0,0,1-.42.12.46.46,0,0,1-.27-.08.41.41,0,0,1-.14-.2.8.8,0,0,1-.05-.26.08.08,0,0,1,0,0,1,1,0,0,1,0-.3,3.5,3.5,0,0,1,.31-.79,3.17,3.17,0,0,1,.47-.7,2.18,2.18,0,0,1,.64-.5,1.49,1.49,0,0,1,.75-.19,1.42,1.42,0,0,1,1.2.62,1.59,1.59,0,0,1,.25.69,2,2,0,0,1,0,.22A1.88,1.88,0,0,1,206.05,51.21Z"/><path class="cls-6" d="M202,58.72c.15.83.54,1.38,1,1.38h0c.38,0,.71.48.84,1.2h.11c.13-.72.47-1.2.84-1.2h0c.44,0,.82-.55,1-1.38l0-.21c-.15.64-.46,1.05-.81,1.05h-.15c-.37,0-.71.48-.84,1.2h-.11c-.13-.72-.46-1.2-.84-1.2h-.14c-.35,0-.67-.41-.82-1.05"/><path class="cls-6" d="M197.49,64s0-.07,0-.1a.54.54,0,0,0,0-.1.46.46,0,0,0-.13-.2.33.33,0,0,0-.24-.08.39.39,0,0,0-.25.08.87.87,0,0,0-.23.2,1.07,1.07,0,0,0-.2.36c0,.12-.09.25-.13.38a3,3,0,0,0-.09.38.68.68,0,0,0,0,.19.47.47,0,0,0,0,.17.41.41,0,0,0,.1.21.25.25,0,0,0,.2.08.49.49,0,0,0,.28-.09,1,1,0,0,0,.25-.2l.1-.1a.36.36,0,0,0,.07-.1Zm.75.9c0,.08,0,.16-.07.25a1,1,0,0,1-.11.25.67.67,0,0,1-.17.2.42.42,0,0,1-.26.08.47.47,0,0,1-.32-.1.43.43,0,0,1-.15-.26,1.37,1.37,0,0,1-.33.25.82.82,0,0,1-.39.11.64.64,0,0,1-.36-.09.78.78,0,0,1-.23-.25.72.72,0,0,1-.1-.38v0a1.31,1.31,0,0,1,.06-.38,1.9,1.9,0,0,1,.18-.42,1.85,1.85,0,0,1,.32-.38,1.31,1.31,0,0,1,.37-.24,1,1,0,0,1,.43-.1.52.52,0,0,1,.29.08.91.91,0,0,1,.18.21v0a.18.18,0,0,1,.09-.12.22.22,0,0,1,.13,0,.25.25,0,0,1,.13,0,.12.12,0,0,1,0,.09v0l-.41,1.42a.72.72,0,0,0,0,.19.28.28,0,0,0,0,.09.2.2,0,0,0,0,.07.12.12,0,0,0,.05.1.12.12,0,0,0,.1,0,.21.21,0,0,0,.13,0,.4.4,0,0,0,.11-.14,1,1,0,0,0,.08-.21q0-.12.09-.27s0,0,.06,0h.07s0,0,0,0Z"/><path class="cls-6" d="M199,66.26a.43.43,0,0,1,0,0s0,0,0,0a.26.26,0,0,0,.14,0h.19s0,0,0,0h0v0a.05.05,0,0,1,0,0h-1s0,0,0,0h0v0s0,0,.05,0h.19a.32.32,0,0,0,.15,0s.05,0,.06-.09l.44-1.52a.54.54,0,0,1-.2.1.62.62,0,0,1-.23,0h0v0h0v0s0,0,.05,0a.66.66,0,0,0,.36-.11,1.63,1.63,0,0,0,.31-.27s0,0,0,0h0v0h0Z"/><path class="cls-6" d="M201.68,64.91a.65.65,0,0,1-.11.22,1.2,1.2,0,0,1-.2.18.88.88,0,0,1-.26.12.53.53,0,0,1,.19.13.37.37,0,0,1,.09.19.19.19,0,0,1,0,.08.39.39,0,0,1,0,.14.53.53,0,0,1-.12.22,1,1,0,0,1-.21.19,1.39,1.39,0,0,1-.28.12,1,1,0,0,1-.29,0,.48.48,0,0,1-.22,0,.31.31,0,0,1-.16-.11.34.34,0,0,1-.08-.17.15.15,0,0,1,0-.07.32.32,0,0,1,0-.13.16.16,0,0,1,.07-.09l.11,0,.09,0a.09.09,0,0,1,0,.06.06.06,0,0,1,0,0,.14.14,0,0,1-.08.1.19.19,0,0,1-.1,0h0a.34.34,0,0,0,.11.23.37.37,0,0,0,.27.09.69.69,0,0,0,.2,0,.93.93,0,0,0,.19-.11.43.43,0,0,0,.13-.17.64.64,0,0,0,.08-.19.72.72,0,0,0,0-.19v0a.25.25,0,0,0,0-.12.22.22,0,0,0-.09-.1.23.23,0,0,0-.14,0h-.2a0,0,0,0,1,0,0h0v0s0,0,0,0h.19a.57.57,0,0,0,.18,0,.42.42,0,0,0,.17-.1.44.44,0,0,0,.12-.15.48.48,0,0,0,.07-.18,1.16,1.16,0,0,0,0-.18h0a.25.25,0,0,0,0-.15.32.32,0,0,0-.1-.1.41.41,0,0,0-.16,0,.83.83,0,0,0-.22,0l-.2.1a1.07,1.07,0,0,0-.16.14.61.61,0,0,0-.09.18.31.31,0,0,0,0,.08.11.11,0,0,0,0,.06.08.08,0,0,0,.09.06.2.2,0,0,0,.13,0,.14.14,0,0,0,.07-.1.07.07,0,0,0,0,0,.14.14,0,0,0,0-.1,0,0,0,0,0,0,0,0,0,0,0,1,0,0h0s0,0,0,0a.26.26,0,0,1,0,.09.07.07,0,0,1,0,.05.13.13,0,0,1,0,.06.36.36,0,0,1-.12.16.33.33,0,0,1-.19.06.18.18,0,0,1-.11,0,.12.12,0,0,1-.06-.06.29.29,0,0,1,0-.09h0a.28.28,0,0,1,0-.09.53.53,0,0,1,.11-.21,1.54,1.54,0,0,1,.19-.17l.24-.11a1.09,1.09,0,0,1,.26,0,.59.59,0,0,1,.23,0,.42.42,0,0,1,.18.11.51.51,0,0,1,.09.18s0,.05,0,.08A.5.5,0,0,1,201.68,64.91Z"/><path class="cls-6" d="M203,62.64h3.75V63H203Zm-.46,1.21h4.66v.32h-1.53V65.8c0,.17.1.25.29.25h.42c.23,0,.36-.09.39-.28a5.31,5.31,0,0,0,.08-.59l.42.1c0,.24-.07.44-.1.61s-.3.46-.7.46h-.59c-.41,0-.61-.18-.61-.52V64.17h-1v.14a2.31,2.31,0,0,1-.3,1.31,2.77,2.77,0,0,1-1.23.86c-.11-.12-.21-.21-.28-.28a2.6,2.6,0,0,0,1.12-.74,1.9,1.9,0,0,0,.29-1.14v-.15h-1.34Z"/><path class="cls-6" d="M210.52,65.75l.21-.23,1.26.59-.24.27Q211.06,66,210.52,65.75Zm-1.78-.21.25.24c-.49.26-.92.46-1.28.62a3.07,3.07,0,0,0-.2-.27A10.94,10.94,0,0,0,208.74,65.54Zm2.2-1c.39.28.73.55,1,.8a3.11,3.11,0,0,0-.28.24l-.3-.27-1.31,0v.53c0,.33-.2.5-.6.5h-.58c0-.1,0-.21,0-.34l.55,0q.3,0,.3-.21v-.48l-1.1,0-.56.05-.19-.33a4.33,4.33,0,0,0,.64-.15c.36-.12.71-.24,1.05-.37l-1.07.07-.36,0-.17-.31a2.32,2.32,0,0,0,.44-.12l.59-.28h-1.48V63.8h2.14v-.29h-1.68v-.27h1.68V63h-2V62.7h2v-.36H210v.36h2V63h-2v.28h1.64v.27H210v.29h2.16v.26h-2.61l-1,.44,1.6-.09.75-.32.27.19q-1.24.52-2.46.93l2.4-.1c-.13-.11-.27-.23-.42-.34Z"/><path class="cls-6" d="M217.28,52.66a.56.56,0,1,1-.55-.56A.55.55,0,0,1,217.28,52.66Z"/><line class="cls-8" x1="224.62" y1="52.66" x2="228.53" y2="52.66"/><path class="cls-6" d="M231.62,54.66a.39.39,0,0,0,0,.14c0,.07,0,.11.07.13A1.17,1.17,0,0,0,232,55h.51c.06,0,.09,0,.09.07a.08.08,0,0,1,0,0l0,.08a.13.13,0,0,1-.13.1c-.43,0-.87,0-1.31,0s-.88,0-1.32,0c0,0-.08,0-.08-.07v0l0-.08a.14.14,0,0,1,.13-.11h.51a1.43,1.43,0,0,0,.38-.06q.14,0,.18-.27l1.16-4.47a2.24,2.24,0,0,1-.55.29,1.73,1.73,0,0,1-.6.11.06.06,0,0,1-.06,0,.05.05,0,0,1,0,0s0,0,0,0l0-.08a.13.13,0,0,1,.14-.1A1.61,1.61,0,0,0,232,50a3.2,3.2,0,0,0,.8-.8.13.13,0,0,1,.11-.06h0a.09.09,0,0,1,.07,0s0,0,0,0v0Z"/><path class="cls-6" d="M223.64,56.91a5,5,0,0,1,0-8.5h.46a5.26,5.26,0,0,0,0,8.5"/><path class="cls-6" d="M234.26,48.41a5,5,0,0,1,0,8.5h-.46a5.26,5.26,0,0,0,0-8.5"/><path class="cls-6" d="M240.09,51.34a.13.13,0,0,0,0,.08s0,.06,0,.07a.88.88,0,0,0,.23,0h.32s.06,0,.06,0v.07a.1.1,0,0,1-.09.06l-.83,0-.85,0a0,0,0,0,1-.05,0v-.07a.08.08,0,0,1,.09-.06h.33a1,1,0,0,0,.24,0s.09-.06.12-.15l.73-2.55a1.39,1.39,0,0,1-.35.16,1.21,1.21,0,0,1-.38.06h0s0,0,0,0,0,0,0,0v-.05a.08.08,0,0,1,.09-.06,1.09,1.09,0,0,0,.61-.19,2.17,2.17,0,0,0,.51-.45.07.07,0,0,1,.06,0h0s0,0,0,0v0Z"/><line class="cls-9" x1="242.47" y1="50.21" x2="246" y2="50.21"/><line class="cls-9" x1="244.23" y1="48.45" x2="244.23" y2="51.97"/><path class="cls-6" d="M250.4,49.08a1.09,1.09,0,0,1-.19.35,1.35,1.35,0,0,1-.32.31,2.27,2.27,0,0,1-.45.21.66.66,0,0,1,.32.22.71.71,0,0,1,.16.31s0,.08,0,.13a.93.93,0,0,1,0,.23,1,1,0,0,1-.21.38,1.23,1.23,0,0,1-.36.31,2,2,0,0,1-.47.21,1.61,1.61,0,0,1-.49.07.87.87,0,0,1-.37-.07.61.61,0,0,1-.26-.18.56.56,0,0,1-.13-.28.27.27,0,0,1,0-.12.85.85,0,0,1,0-.22.23.23,0,0,1,.13-.16.32.32,0,0,1,.17-.06.25.25,0,0,1,.16.05.13.13,0,0,1,0,.1.2.2,0,0,1,0,.07.27.27,0,0,1-.13.17.59.59,0,0,1-.17,0h0a.54.54,0,0,0,.17.39.69.69,0,0,0,.46.16,1,1,0,0,0,.34-.07,1.09,1.09,0,0,0,.31-.18.83.83,0,0,0,.23-.27,1.51,1.51,0,0,0,.13-.33,2.17,2.17,0,0,0,.07-.33v-.08a.45.45,0,0,0,0-.2.35.35,0,0,0-.15-.17.4.4,0,0,0-.24-.07h-.32s0,0,0,0v0l0-.06s0,0,.06,0h.32a.8.8,0,0,0,.3-.06,1,1,0,0,0,.5-.41,1.82,1.82,0,0,0,.11-.3.89.89,0,0,0,.06-.31h0a.45.45,0,0,0-.07-.25.4.4,0,0,0-.18-.16.6.6,0,0,0-.27-.06,1.24,1.24,0,0,0-.37.06,1.26,1.26,0,0,0-.33.16,1.2,1.2,0,0,0-.26.24.9.9,0,0,0-.17.3.78.78,0,0,0,0,.14.3.3,0,0,0,0,.1.15.15,0,0,0,.16.1.37.37,0,0,0,.21-.06.32.32,0,0,0,.13-.18.19.19,0,0,0,0-.07.34.34,0,0,0-.08-.19v0s0,0,0,0h0s0,0,.05,0a0,0,0,0,1,0,0,.42.42,0,0,1,.09.14.28.28,0,0,1,0,.09.38.38,0,0,1,0,.1.51.51,0,0,1-.2.26.57.57,0,0,1-.33.11.29.29,0,0,1-.17,0,.23.23,0,0,1-.11-.11.37.37,0,0,1,0-.15v0a.4.4,0,0,1,0-.15.84.84,0,0,1,.18-.35,1.69,1.69,0,0,1,.32-.28,1.59,1.59,0,0,1,.4-.18,1.25,1.25,0,0,1,.43-.07,1,1,0,0,1,.4.07.61.61,0,0,1,.29.2.55.55,0,0,1,.15.28.78.78,0,0,1,0,.14A.89.89,0,0,1,250.4,49.08Z"/><path class="cls-6" d="M258.52,43.79a1,1,0,0,0-.22-.5.69.69,0,0,0-.49-.2,1.14,1.14,0,0,0-.61.2,1.9,1.9,0,0,0-.48.5,2.87,2.87,0,0,0-.22.43c-.07.17-.13.36-.2.55s-.12.4-.17.6-.11.4-.15.58-.1.41-.15.63-.11.43-.15.65-.08.41-.11.59,0,.25,0,.34a.61.61,0,0,0,0,.14.88.88,0,0,0,.2.53.61.61,0,0,0,.51.22,1,1,0,0,0,.61-.22,1.83,1.83,0,0,0,.47-.53,2.94,2.94,0,0,0,.23-.47q.1-.28.21-.6c.07-.22.13-.43.19-.65s.12-.43.16-.63.1-.37.15-.58.1-.4.13-.6.07-.38.09-.55a2.62,2.62,0,0,0,0-.27Zm.49-.1a2.88,2.88,0,0,1,.1.78c0,.12,0,.25,0,.38a11.52,11.52,0,0,1-.25,1.25c-.11.41-.24.82-.39,1.22a4,4,0,0,1-.68,1.14,2.39,2.39,0,0,1-.72.58,1.9,1.9,0,0,1-.85.21,1.26,1.26,0,0,1-.73-.21,1.17,1.17,0,0,1-.42-.58,2.47,2.47,0,0,1-.11-.77c0-.12,0-.24,0-.37a9.06,9.06,0,0,1,.24-1.22,12.72,12.72,0,0,1,.4-1.24,4.1,4.1,0,0,1,.68-1.17,2.42,2.42,0,0,1,.72-.59,1.8,1.8,0,0,1,.85-.22,1.17,1.17,0,0,1,.73.22A1.15,1.15,0,0,1,259,43.69Z"/><path class="cls-6" d="M267.94,48.44a.31.31,0,0,0,0,.13c0,.07,0,.11.07.13a1.17,1.17,0,0,0,.35.06h.5c.06,0,.09,0,.1.06s0,0,0,0l0,.08a.15.15,0,0,1-.14.1c-.43,0-.86,0-1.31,0l-1.31,0c-.06,0-.08,0-.08-.07v-.11a.13.13,0,0,1,.14-.1h.51a1.43,1.43,0,0,0,.38-.06.33.33,0,0,0,.18-.26L268.43,44a2,2,0,0,1-.54.29,1.52,1.52,0,0,1-.6.11.06.06,0,0,1-.06,0,.05.05,0,0,1,0,0,0,0,0,0,1,0,0l0-.09a.13.13,0,0,1,.13-.1,1.64,1.64,0,0,0,1-.33,3.37,3.37,0,0,0,.8-.8.12.12,0,0,1,.1-.06h0a.08.08,0,0,1,.07,0,0,0,0,0,1,0,0s0,0,0,0Z"/><path class="cls-6" d="M258.93,57.44a1.49,1.49,0,0,1-.33.65,4,4,0,0,1-.6.56,7.5,7.5,0,0,1-.72.48l-.74.42a3.62,3.62,0,0,0-.77.56,3.78,3.78,0,0,0-.59.73.73.73,0,0,1,.23,0,2.42,2.42,0,0,1,.47.05l.47.09.45.09a2.42,2.42,0,0,0,.47,0,.8.8,0,0,0,.36-.09,1.22,1.22,0,0,0,.32-.24,1.28,1.28,0,0,0,.26-.35,1.62,1.62,0,0,0,.17-.41c0-.05.05-.08.12-.08h.1l.07,0s0,0,0,0a0,0,0,0,0,0,0,3.42,3.42,0,0,1-.22.61,2.26,2.26,0,0,1-.34.56,1.71,1.71,0,0,1-.45.4,1.06,1.06,0,0,1-.55.15,1.15,1.15,0,0,1-.5-.11,2.65,2.65,0,0,1-.4-.24l-.39-.24a.91.91,0,0,0-.47-.12.38.38,0,0,0-.29.18,1.34,1.34,0,0,0-.21.45s0,.08-.12.08h-.09a.13.13,0,0,1-.08,0,0,0,0,0,1,0,0v0a3.66,3.66,0,0,1,.68-1.31,3.85,3.85,0,0,1,1.19-1,4.79,4.79,0,0,0,1.12-.81,2.28,2.28,0,0,0,.65-1.07,3.81,3.81,0,0,0,.14-.72v-.14a1.64,1.64,0,0,0-.08-.5,1,1,0,0,0-.3-.38.73.73,0,0,0-.46-.15,1.26,1.26,0,0,0-.62.17,1.94,1.94,0,0,0-.52.44,2.85,2.85,0,0,0-.41.63,4.55,4.55,0,0,0-.27.73,1.72,1.72,0,0,0,0,.35.27.27,0,0,0,0,.13.18.18,0,0,0,.19.19.53.53,0,0,0,.3-.09.77.77,0,0,0,.25-.23,1.63,1.63,0,0,0,.21-.34,2.86,2.86,0,0,0,.15-.41.39.39,0,0,0,0-.15.49.49,0,0,0,0-.12.87.87,0,0,0-.1-.25s0,0,0,0,0-.05.05-.08h0a.12.12,0,0,1,.08,0,.05.05,0,0,1,0,0,.59.59,0,0,1,.15.4.69.69,0,0,1,0,.25,2.75,2.75,0,0,1-.17.45,2.33,2.33,0,0,1-.24.41,1.15,1.15,0,0,1-.33.3.79.79,0,0,1-.42.12.43.43,0,0,1-.27-.08.43.43,0,0,1-.15-.2,1.19,1.19,0,0,1-.05-.26v0a1.54,1.54,0,0,1,0-.3,4.79,4.79,0,0,1,.31-.79,3,3,0,0,1,.48-.71,2.72,2.72,0,0,1,.63-.5,1.66,1.66,0,0,1,.75-.18,1.36,1.36,0,0,1,1.21.62,1.74,1.74,0,0,1,.25.68,1.93,1.93,0,0,1,0,.23A1.87,1.87,0,0,1,258.93,57.44Z"/><path class="cls-6" d="M270.46,56.92a2,2,0,0,1-.29.63,2.83,2.83,0,0,1-.51.53,2.49,2.49,0,0,1-.7.37,1.15,1.15,0,0,1,.51.38,1.18,1.18,0,0,1,.23.55.82.82,0,0,1,0,.22,1.52,1.52,0,0,1-.06.42,2,2,0,0,1-.32.66,2.62,2.62,0,0,1-.56.54,2.75,2.75,0,0,1-.73.36,2.35,2.35,0,0,1-.77.13,1.34,1.34,0,0,1-.58-.12,1.23,1.23,0,0,1-.42-.32,1.17,1.17,0,0,1-.2-.5.65.65,0,0,1,0-.21,1.06,1.06,0,0,1,.07-.38.41.41,0,0,1,.19-.28.54.54,0,0,1,.28-.09.44.44,0,0,1,.25.08.27.27,0,0,1,.06.17.6.6,0,0,1,0,.12.42.42,0,0,1-.21.29.7.7,0,0,1-.26.08h0a1,1,0,0,0,.27.68.93.93,0,0,0,.71.28,1.4,1.4,0,0,0,.53-.11,1.88,1.88,0,0,0,.49-.32,1.38,1.38,0,0,0,.36-.48,4,4,0,0,0,.21-.58,4.38,4.38,0,0,0,.11-.57v-.14A1,1,0,0,0,269,59a.89.89,0,0,0-.24-.3.61.61,0,0,0-.38-.11h-.5a.05.05,0,0,1-.06-.06v0l0-.11a.11.11,0,0,1,.11-.08h.49a1.18,1.18,0,0,0,.48-.1,1.11,1.11,0,0,0,.43-.28,1.41,1.41,0,0,0,.34-.44,2.37,2.37,0,0,0,.18-.53,2.45,2.45,0,0,0,.09-.53v0a.89.89,0,0,0-.11-.43.71.71,0,0,0-.28-.29.82.82,0,0,0-.42-.1,1.69,1.69,0,0,0-.58.1,2,2,0,0,0-.52.28,2.4,2.4,0,0,0-.41.43,1.51,1.51,0,0,0-.25.51.85.85,0,0,0,0,.25.34.34,0,0,0,0,.18.24.24,0,0,0,.25.18.52.52,0,0,0,.33-.12.54.54,0,0,0,.19-.3.32.32,0,0,0,0-.14.56.56,0,0,0-.12-.32.07.07,0,0,1,0-.05s0,0,.05-.07h0a.12.12,0,0,1,.09,0,.05.05,0,0,1,.05,0,.58.58,0,0,1,.16.4.68.68,0,0,1,0,.19.88.88,0,0,1-.31.45.75.75,0,0,1-.51.19.54.54,0,0,1-.27-.07.44.44,0,0,1-.17-.19.76.76,0,0,1-.05-.27s0,0,0,0a.84.84,0,0,1,0-.27,1.63,1.63,0,0,1,.29-.61,2.9,2.9,0,0,1,.5-.49,2.8,2.8,0,0,1,.62-.32,2,2,0,0,1,.68-.11,1.59,1.59,0,0,1,.62.12,1.1,1.1,0,0,1,.45.34,1.2,1.2,0,0,1,.24.51.93.93,0,0,1,0,.23A1.64,1.64,0,0,1,270.46,56.92Z"/><line class="cls-7" x1="252.71" y1="42.47" x2="252.71" y2="62.85"/><line class="cls-7" x1="271.96" y1="62.85" x2="271.96" y2="42.47"/><path class="cls-6" d="M221.57,64.77a2.35,2.35,0,0,0,2.22,1.56h21a2.1,2.1,0,0,1,2,1.37H247a2.1,2.1,0,0,1,2-1.37h21a2.36,2.36,0,0,0,2.22-1.56l-.06-.19a2.08,2.08,0,0,1-1.89,1.21H248.92a2.1,2.1,0,0,0-2,1.37h-.25a2.1,2.1,0,0,0-2-1.37H223.52a2.09,2.09,0,0,1-1.9-1.21"/><path class="cls-6" d="M225.75,70.47a.29.29,0,0,0,0-.09.36.36,0,0,0,0-.1.48.48,0,0,0-.14-.2.32.32,0,0,0-.23-.09.46.46,0,0,0-.25.08.87.87,0,0,0-.22.21,1.41,1.41,0,0,0-.21.35c0,.13-.09.26-.13.39s-.07.26-.09.38a.62.62,0,0,0,0,.18.55.55,0,0,0,0,.18.42.42,0,0,0,.1.2.26.26,0,0,0,.21.09A.48.48,0,0,0,225,72a1.28,1.28,0,0,0,.26-.2l.08-.1a.39.39,0,0,0,.08-.1Zm.76.91-.08.25a.8.8,0,0,1-.11.25.65.65,0,0,1-.17.2.41.41,0,0,1-.25.08.48.48,0,0,1-.33-.1.43.43,0,0,1-.15-.26,1.37,1.37,0,0,1-.32.25.77.77,0,0,1-.39.11.61.61,0,0,1-.36-.1.76.76,0,0,1-.23-.24.86.86,0,0,1-.1-.38v0a1.26,1.26,0,0,1,.06-.38,1.84,1.84,0,0,1,.5-.8A1.47,1.47,0,0,1,225,70a.92.92,0,0,1,.42-.1.5.5,0,0,1,.29.08.6.6,0,0,1,.18.21v0a.2.2,0,0,1,.08-.13.37.37,0,0,1,.14,0,.21.21,0,0,1,.12,0,.2.2,0,0,1,0,.08s0,0,0,0l-.41,1.42a1.62,1.62,0,0,0,0,.19v.16a.31.31,0,0,0,0,.1.18.18,0,0,0,.11,0,.24.24,0,0,0,.13,0,.5.5,0,0,0,.1-.14,1.65,1.65,0,0,0,.09-.22c0-.08.05-.17.08-.26a.07.07,0,0,1,.07,0h.06s0,0,0,0Z"/><path class="cls-6" d="M227.22,72.76a.09.09,0,0,0,0,0s0,0,0,0l.13,0h.19s0,0,0,0h0v0a.07.07,0,0,1-.06,0h-1s0,0,0,0h0v0s0,0,.05,0h.2l.14,0a.11.11,0,0,0,.07-.09l.44-1.52a1,1,0,0,1-.21.1.85.85,0,0,1-.23,0h0s0,0,0,0h0v0a.05.05,0,0,1,.05,0,.72.72,0,0,0,.37-.11,1.33,1.33,0,0,0,.3-.28l0,0h0v0Z"/><path class="cls-6" d="M229.94,71.41a.53.53,0,0,1-.11.21.66.66,0,0,1-.19.18,1.11,1.11,0,0,1-.27.13.53.53,0,0,1,.2.13.66.66,0,0,1,.09.19v.07a.59.59,0,0,1,0,.14.57.57,0,0,1-.12.23.79.79,0,0,1-.22.18A1,1,0,0,1,229,73a.92.92,0,0,1-.29,0,.51.51,0,0,1-.22,0,.46.46,0,0,1-.16-.11.45.45,0,0,1-.08-.17s0,0,0-.07a.59.59,0,0,1,0-.13.25.25,0,0,1,.08-.1.19.19,0,0,1,.1,0,.17.17,0,0,1,.1,0,.14.14,0,0,1,0,.06v0a.2.2,0,0,1-.08.1.22.22,0,0,1-.11,0h0a.3.3,0,0,0,.1.24.4.4,0,0,0,.27.09.45.45,0,0,0,.2,0,.69.69,0,0,0,.19-.1.55.55,0,0,0,.14-.17,1.54,1.54,0,0,0,.08-.19c0-.07,0-.14,0-.2v0a.27.27,0,0,0,0-.12.28.28,0,0,0-.09-.1.33.33,0,0,0-.14,0H229s0,0,0,0h0v0s0,0,0,0h.18a.57.57,0,0,0,.18,0,.48.48,0,0,0,.17-.1.47.47,0,0,0,.13-.15,1.34,1.34,0,0,0,.07-.18.57.57,0,0,0,0-.18h0a.23.23,0,0,0,0-.14.27.27,0,0,0-.11-.1.38.38,0,0,0-.16,0l-.22,0a.54.54,0,0,0-.2.1.66.66,0,0,0-.15.14.42.42,0,0,0-.1.17.31.31,0,0,0,0,.09.13.13,0,0,0,0,.06.1.1,0,0,0,.1.06.19.19,0,0,0,.12,0,.25.25,0,0,0,.08-.1s0,0,0,0a.21.21,0,0,0,0-.11h0a0,0,0,0,1,0,0h0l0,0a0,0,0,0,1,0,0,.24.24,0,0,1,.06.08v0a.17.17,0,0,1,0,.07.33.33,0,0,1-.11.15.37.37,0,0,1-.2.07.15.15,0,0,1-.1,0,.12.12,0,0,1-.06-.06.16.16,0,0,1,0-.09h0s0-.06,0-.1a.59.59,0,0,1,.12-.2A.77.77,0,0,1,229,71a1,1,0,0,1,.23-.11,1.17,1.17,0,0,1,.26,0,.93.93,0,0,1,.24,0,.43.43,0,0,1,.17.12.32.32,0,0,1,.09.17.25.25,0,0,1,0,.08A.51.51,0,0,1,229.94,71.41Z"/><path class="cls-6" d="M231.3,69.14h3.75v.31H231.3Zm-.46,1.21h4.66v.32H234V72.3c0,.16.1.25.29.25h.41c.23,0,.37-.1.4-.28s0-.35.07-.59l.42.1a5.31,5.31,0,0,1-.1.6c-.06.31-.3.46-.7.46h-.59c-.4,0-.61-.17-.61-.51V70.67h-1v.13a2.26,2.26,0,0,1-.31,1.32,2.81,2.81,0,0,1-1.22.86l-.29-.28A2.65,2.65,0,0,0,231.9,72a1.86,1.86,0,0,0,.28-1.13v-.15h-1.34Z"/><path class="cls-6" d="M238.78,72.25,239,72c.35.15.77.35,1.26.59l-.24.27Q239.32,72.49,238.78,72.25ZM237,72l.24.24c-.49.25-.92.46-1.28.61a2.64,2.64,0,0,0-.2-.26A10.23,10.23,0,0,0,237,72Zm2.2-1c.38.28.72.54,1,.8a2.52,2.52,0,0,0-.29.23l-.29-.26-1.31,0v.53c0,.33-.21.49-.61.49h-.57a2.73,2.73,0,0,0-.06-.34l.56,0c.2,0,.3-.07.3-.22v-.47l-1.1,0-.56.05-.2-.33a4,4,0,0,0,.64-.15c.36-.12.71-.24,1-.37l-1.06.07-.37,0-.17-.31a2.44,2.44,0,0,0,.45-.12l.59-.28h-1.48v-.27h2.13V70H236.2v-.27h1.68v-.28h-1.95V69.2h1.95v-.36h.39v.36h2v.26h-2v.28h1.63V70h-1.63v.28h2.15v.27h-2.61c-.32.15-.65.3-1,.44l1.59-.09c.26-.1.51-.21.75-.32l.27.19q-1.23.52-2.46.93l2.41-.1-.42-.34Z"/><path class="cls-6" d="M243.14,70.69l.3-.19c.35.37.64.68.85,1l-.36.22A11,11,0,0,0,243.14,70.69Zm-.88-.83h-1.09v1h1.09Zm-1.09,2.38h1.09V71.18h-1.09Zm1.55-1.83a5.74,5.74,0,0,0,.76-1.55l.41.08c-.08.21-.17.41-.25.6h1.55q-.06,2.14-.09,2.7c0,.44-.29.66-.8.66l-.89,0a3,3,0,0,0-.08-.37h0a7.38,7.38,0,0,0,.89.06c.29,0,.45-.13.47-.4s.06-1.19.08-2.31h-1.3a5.12,5.12,0,0,1-.43.71Zm-1.93-.86h.48c.12-.25.22-.49.3-.69l.4.1-.29.59h1v3.33h-.38v-.33h-1.09v.36h-.38Z"/><path class="cls-6" d="M248.77,69.21,249,69c.29.19.58.39.87.62l-.29.26A10,10,0,0,0,248.77,69.21Zm-3.32,1.65a6.8,6.8,0,0,0,1.19-2L247,69c-.15.33-.3.63-.45.91V73h-.4V70.52a5.32,5.32,0,0,1-.57.72C245.57,71.12,245.51,71,245.45,70.86Zm1.4-.55,1.14-.1c0-.36-.07-.8-.08-1.33h.42a9.43,9.43,0,0,0,.06,1.29l1.77-.17,0,.31-1.77.17c.18,1.15.53,1.85,1,2.08a.18.18,0,0,0,.27-.13,4.73,4.73,0,0,0,.16-.67l.38.12a4.24,4.24,0,0,1-.17.72.51.51,0,0,1-.52.36,1.17,1.17,0,0,1-.79-.43,3.72,3.72,0,0,1-.78-2l-1.12.1Z"/><path class="cls-6" d="M250.62,69.19l.28-.16.44.49-.29.19Zm2-.18.3.17c-.18.2-.35.39-.53.56a2,2,0,0,0-.26-.18A6.6,6.6,0,0,0,252.67,69Zm-1.5,2.85.7.28a1.89,1.89,0,0,0,.52-.58h-1Zm3.32-1.9h-.91a.31.31,0,0,1-.05.1,3.54,3.54,0,0,0,.48,1.52A3.61,3.61,0,0,0,254.49,70Zm-4-.12h1.11v-.93H252v.93h.93v.28H252v.25l.15-.14.75.5-.23.24a7.9,7.9,0,0,0-.67-.49V71h-.35v-.58a5.17,5.17,0,0,1-1,.7l-.21-.26a5.52,5.52,0,0,0,1.12-.69h-1Zm-.06,1.44h.74a3.62,3.62,0,0,0,.2-.33l.35.1-.15.23h1.18v.27a1.93,1.93,0,0,1-.56.72l.54.22-.21.29-.62-.3a4.42,4.42,0,0,1-1.38.54l-.16-.29a4.6,4.6,0,0,0,1.19-.4l-.87-.38a3.68,3.68,0,0,0,.3-.39h-.55Zm3.11-2.41.39,0a6.62,6.62,0,0,1-.24.75h1.49V70h-.31a3.91,3.91,0,0,1-.63,2,3.17,3.17,0,0,0,1,.75L255,73a3.72,3.72,0,0,1-1-.78A4.64,4.64,0,0,1,253,73a3.42,3.42,0,0,0-.27-.27,4.05,4.05,0,0,0,1.09-.87,3.33,3.33,0,0,1-.51-1.35,3.15,3.15,0,0,1-.22.29,2.6,2.6,0,0,0-.24-.27A3.77,3.77,0,0,0,253.55,68.87Z"/><path class="cls-6" d="M256.51,71.59l.35.2a10.82,10.82,0,0,1-1.11,1l-.32-.23A5.32,5.32,0,0,0,256.51,71.59Zm2.19,0c.51.34.94.64,1.3.91l-.3.27c-.4-.33-.82-.65-1.26-1Zm-1-2.35a5.66,5.66,0,0,1-1.19,1h2.38A5.57,5.57,0,0,1,257.73,69.24Zm-2.24,1.86h2.07v-.58h-1.19v-.21c-.25.15-.53.29-.82.43l-.24-.31a6,6,0,0,0,2.25-1.55h.51L258,69a5,5,0,0,0,2.15,1.37c-.1.12-.19.22-.26.32a7.61,7.61,0,0,1-.81-.4v.24H258v.58h2v.31h-2v1c0,.38-.22.57-.65.57h-.61c0-.1,0-.22-.07-.34l.6,0c.22,0,.34-.09.34-.29v-.93h-2.07Z"/><path class="cls-6" d="M260.25,70.75h2.24v-.46l1.39-.88h-3.13V69.1h3.77v.32l-1.62,1v.3H265v.31H262.9v1.32c0,.37-.22.56-.67.56h-.77c0-.11,0-.24,0-.38.23,0,.48,0,.74,0s.34-.1.34-.3V71.06h-2.24Z"/><path class="cls-6" d="M268.57,69.09l.23-.22a7.58,7.58,0,0,1,.7.5l-.27.24C269,69.43,268.8,69.26,268.57,69.09Zm-3.42,3.22,1.12-.12V71h-.94V70.7h2.27V71h-.93v1.13l1.15-.15c0,.11,0,.22,0,.34l-2.56.33Zm0-2.65h2.68c0-.26,0-.53,0-.82h.41c0,.27,0,.55,0,.82h1.66V70h-1.64c.06,1.41.33,2.26.81,2.56.17.12.3.09.37-.1a3.91,3.91,0,0,0,.13-.64l.39.1a5.26,5.26,0,0,1-.2.79.43.43,0,0,1-.44.29,1,1,0,0,1-.67-.29,4,4,0,0,1-.78-2.71h-2.71Z"/></g></g><circle class="cls-10" cx="10.44" cy="8.24" r="5.04"/><circle class="cls-10" cx="23.52" cy="52.4" r="5.04" transform="translate(-30.94 70.64) rotate(-84.35)"/><circle class="cls-11" cx="21.6" cy="8.24" r="5.04"/><circle class="cls-11" cx="114.24" cy="52.4" r="5.04" transform="translate(50.84 160.92) rotate(-84.35)"/><circle class="cls-12" cx="32.88" cy="8.24" r="5.04"/><ellipse class="cls-12" cx="204.3" cy="52.4" rx="5.1" ry="5.04"/></g></svg>