<svg id="图层_1" data-name="图层 1" xmlns="http://www.w3.org/2000/svg" xmlns:xlink="http://www.w3.org/1999/xlink" viewBox="0 0 150.4 129.6"><defs><style>.cls-1,.cls-11,.cls-5,.cls-6,.cls-7{fill:none;}.cls-2{clip-path:url(#clip-path);}.cls-3{fill:#fff;}.cls-4{fill:#ff0;}.cls-5{stroke:#ed7d31;opacity:0.5;}.cls-11,.cls-5,.cls-6,.cls-7{stroke-miterlimit:10;}.cls-5,.cls-6{stroke-width:8px;}.cls-6{stroke:#00b0f0;opacity:0.3;}.cls-7{stroke:#c00000;}.cls-8{clip-path:url(#clip-path-4);}.cls-9{clip-path:url(#clip-path-5);}.cls-10{fill-rule:evenodd;}.cls-11{stroke:#000;stroke-linecap:round;stroke-width:0.51px;}.cls-12{font-size:8.04px;font-family:MicrosoftYaHei, Microsoft YaHei;}.cls-13{letter-spacing:0em;}</style><clipPath id="clip-path"><rect class="cls-1" x="-222.4" y="-331.6" width="540" height="780"/></clipPath><clipPath id="clip-path-4"><rect class="cls-1" x="8" y="19.64" width="79.2" height="77.52"/></clipPath><clipPath id="clip-path-5"><rect class="cls-1" x="8" y="19.63" width="79.2" height="77.53"/></clipPath></defs><g class="cls-2"><g class="cls-2"><g class="cls-2"><rect class="cls-3" x="-222.4" y="-331.6" width="540" height="780"/></g><rect class="cls-4" x="44.12" y="58.76" width="30.36" height="27.6"/><line class="cls-5" x1="20.78" y1="35.42" x2="74.47" y2="35.42"/><line class="cls-6" x1="25.82" y1="30.5" x2="25.82" y2="86.54"/><line class="cls-6" x1="38.18" y1="30.5" x2="38.18" y2="86.54"/><line class="cls-5" x1="20.78" y1="50.78" x2="74.47" y2="50.78"/><rect class="cls-7" x="19.04" y="30.44" width="26.76" height="24.48"/><g class="cls-8"><g class="cls-9"><path class="cls-10" d="M24.93,38.27a.94.94,0,0,0,0,.16.14.14,0,0,0,.09.15,1.17,1.17,0,0,0,.41.07H26c.07,0,.11,0,.11.07a.09.09,0,0,1,0,.05l0,.09a.18.18,0,0,1-.16.12c-.51,0-1,0-1.54,0l-1.55,0c-.06,0-.09,0-.09-.08v0l0-.09a.15.15,0,0,1,.16-.12h.6a1.38,1.38,0,0,0,.44-.07.4.4,0,0,0,.22-.31L25.51,33a2.47,2.47,0,0,1-.64.34,1.88,1.88,0,0,1-.7.12s-.06,0-.07,0a.05.05,0,0,1,0,0s0,0,0,0l0-.09a.14.14,0,0,1,.16-.12,1.9,1.9,0,0,0,1.12-.39,3.78,3.78,0,0,0,.93-.94.2.2,0,0,1,.13-.08h0a.13.13,0,0,1,.09,0s0,0,0,0,0,0,0,0Z"/><path class="cls-10" d="M40.75,34.2a1.71,1.71,0,0,1-.39.77,4.43,4.43,0,0,1-.7.66,9,9,0,0,1-.85.57l-.86.49a4.06,4.06,0,0,0-1.59,1.52.6.6,0,0,1,.26-.05,3.43,3.43,0,0,1,.56.05l.54.11.53.11a2.54,2.54,0,0,0,.56,0,.86.86,0,0,0,.41-.1,1.48,1.48,0,0,0,.39-.28,1.55,1.55,0,0,0,.3-.41,1.66,1.66,0,0,0,.19-.48.14.14,0,0,1,.14-.1h.12a.15.15,0,0,1,.08,0s0,0,0,0l0,0a4.11,4.11,0,0,1-.25.72,2.83,2.83,0,0,1-.4.65,1.81,1.81,0,0,1-.53.47,1.22,1.22,0,0,1-.65.18A1.34,1.34,0,0,1,38,39.1a5.3,5.3,0,0,1-.47-.28l-.46-.28a1,1,0,0,0-.55-.14.45.45,0,0,0-.34.21,1.54,1.54,0,0,0-.24.53c0,.06-.06.09-.14.09h-.12a.08.08,0,0,1-.07,0s0,0,0,0a0,0,0,0,1,0,0,4.09,4.09,0,0,1,.78-1.54,4.57,4.57,0,0,1,1.4-1.18,5.46,5.46,0,0,0,1.31-1,2.7,2.7,0,0,0,.77-1.26,5,5,0,0,0,.16-.84V33.2a1.92,1.92,0,0,0-.09-.59,1.19,1.19,0,0,0-.35-.45.94.94,0,0,0-.55-.17,1.39,1.39,0,0,0-.72.19,2.28,2.28,0,0,0-.61.52,3,3,0,0,0-.48.74,4.54,4.54,0,0,0-.32.87,1.68,1.68,0,0,0-.07.41.4.4,0,0,0,0,.15c0,.15.09.23.23.22a.53.53,0,0,0,.35-.1,1.23,1.23,0,0,0,.29-.27,2,2,0,0,0,.24-.41c.07-.15.13-.31.19-.48a1.1,1.1,0,0,0,0-.18s0-.09,0-.13a.81.81,0,0,0-.12-.29.09.09,0,0,1,0,0,.09.09,0,0,1,0-.09l0,0,.09,0a.07.07,0,0,1,.06,0,.71.71,0,0,1,.17.48.92.92,0,0,1,0,.29,3.28,3.28,0,0,1-.49,1,1.27,1.27,0,0,1-.38.35.92.92,0,0,1-.49.13.51.51,0,0,1-.32-.09.43.43,0,0,1-.17-.24.77.77,0,0,1-.06-.3.06.06,0,0,1,0,0,1.34,1.34,0,0,1,0-.35,5.68,5.68,0,0,1,.36-.94,3.67,3.67,0,0,1,.56-.83,2.92,2.92,0,0,1,.74-.58,1.83,1.83,0,0,1,.88-.23,1.7,1.7,0,0,1,.83.2,1.67,1.67,0,0,1,.59.53,2.13,2.13,0,0,1,.29.81c0,.1,0,.19,0,.27A2.16,2.16,0,0,1,40.75,34.2Z"/><path class="cls-10" d="M54.28,33.6a2.31,2.31,0,0,1-.34.73,3,3,0,0,1-.6.63,2.7,2.7,0,0,1-.82.43,1.42,1.42,0,0,1,.87,1.1,1.14,1.14,0,0,1,0,.26,1.71,1.71,0,0,1-.07.49A2.15,2.15,0,0,1,53,38a3.09,3.09,0,0,1-.66.64,3.61,3.61,0,0,1-.86.42,2.88,2.88,0,0,1-.9.15,1.67,1.67,0,0,1-.69-.14,1.23,1.23,0,0,1-.72-1,1,1,0,0,1,0-.25,1.53,1.53,0,0,1,.08-.45.5.5,0,0,1,.23-.33.62.62,0,0,1,.33-.11.48.48,0,0,1,.29.1.35.35,0,0,1,.07.2.78.78,0,0,1,0,.14.54.54,0,0,1-.25.35.71.71,0,0,1-.31.08h0a1.14,1.14,0,0,0,.32.81,1.11,1.11,0,0,0,.83.32,1.5,1.5,0,0,0,.62-.13,2,2,0,0,0,.58-.37,1.69,1.69,0,0,0,.42-.57,4.12,4.12,0,0,0,.24-.67,4.63,4.63,0,0,0,.13-.67v-.17a1.23,1.23,0,0,0-.07-.42.87.87,0,0,0-.28-.35.74.74,0,0,0-.44-.13h-.59s-.08,0-.08-.07v0l0-.12a.1.1,0,0,1,.12-.09h.58a1.45,1.45,0,0,0,.56-.12,1.4,1.4,0,0,0,.51-.33,1.62,1.62,0,0,0,.39-.52,3.23,3.23,0,0,0,.21-.62,2.31,2.31,0,0,0,.11-.62v0a1,1,0,0,0-.13-.51.87.87,0,0,0-.33-.33,1,1,0,0,0-.49-.12,2,2,0,0,0-.68.12,2.25,2.25,0,0,0-.61.33,2.78,2.78,0,0,0-.48.49,1.93,1.93,0,0,0-.3.61,1.11,1.11,0,0,0,0,.29.51.51,0,0,0,0,.22.28.28,0,0,0,.29.2.63.63,0,0,0,.39-.13.7.7,0,0,0,.23-.36.41.41,0,0,0,0-.16.57.57,0,0,0-.14-.37.13.13,0,0,1,0-.06.09.09,0,0,1,0-.08l0,0a.26.26,0,0,1,.1,0,.1.1,0,0,1,.07,0,1.46,1.46,0,0,1,.16.3,1.1,1.1,0,0,1,0,.18.89.89,0,0,1,0,.22,1.09,1.09,0,0,1-.37.53.87.87,0,0,1-.6.22.57.57,0,0,1-.32-.08.67.67,0,0,1-.19-.22.83.83,0,0,1-.06-.32,0,0,0,0,1,0,0,1.22,1.22,0,0,1,0-.32,2,2,0,0,1,.35-.71,2.5,2.5,0,0,1,.59-.58,2.76,2.76,0,0,1,.72-.38,2.39,2.39,0,0,1,.79-.14,1.73,1.73,0,0,1,.73.15,1.37,1.37,0,0,1,.54.4,1.5,1.5,0,0,1,.28.6c0,.1,0,.19,0,.28A2.28,2.28,0,0,1,54.28,33.6Z"/><path class="cls-10" d="M69.08,38.82a.12.12,0,0,1-.1.12l-.48.15a1.71,1.71,0,0,1-.49.07h-.22l-.41,1.61a.44.44,0,0,1-.18.27.48.48,0,0,1-.27.09A.33.33,0,0,1,66.7,41a.25.25,0,0,1,0-.15s0-.08,0-.12L67.12,39c-.23-.08-.45-.16-.66-.25a1.88,1.88,0,0,0-.72-.13h-.48a1.24,1.24,0,0,0-.4.07l-.18.15a1.37,1.37,0,0,1-.2.13l-.06,0s0,0,0,0l-.07,0-.08-.09a.14.14,0,0,1,0-.06s0-.05.07-.08l.21-.16.21-.18a8,8,0,0,0,1.32-1.34,10.66,10.66,0,0,0,1-1.56,12.64,12.64,0,0,0,.75-1.68c.2-.57.38-1.15.53-1.73a.38.38,0,0,1,.17-.25.51.51,0,0,1,.25-.09.53.53,0,0,1,.25.08.25.25,0,0,1,0,.17.34.34,0,0,1,0,.09,12.73,12.73,0,0,1-.56,1.68,12.87,12.87,0,0,1-.79,1.63,12.09,12.09,0,0,1-1,1.52,11.3,11.3,0,0,1-1.31,1.37h.48a2.15,2.15,0,0,1,.73.12l.67.25.49-1.93a.38.38,0,0,1,.17-.26.5.5,0,0,1,.27-.08.39.39,0,0,1,.23.07.25.25,0,0,1,.05.17.41.41,0,0,1,0,.1l-.53,2.1h.19a2.4,2.4,0,0,0,.81-.15h0l.07,0,.06.08a0,0,0,0,1,0,0Z"/><path class="cls-10" d="M24.93,52.91a1.24,1.24,0,0,0,0,.16.14.14,0,0,0,.09.15,1,1,0,0,0,.41.07H26c.07,0,.11,0,.11.08a.11.11,0,0,1,0,0l0,.09a.18.18,0,0,1-.16.12c-.51,0-1,0-1.54,0l-1.55,0a.08.08,0,0,1-.09-.09v0l0-.09a.15.15,0,0,1,.16-.13h.6a1.14,1.14,0,0,0,.44-.07.39.39,0,0,0,.22-.31l1.35-5.25a3.28,3.28,0,0,1-.64.34,2.1,2.1,0,0,1-.7.12s-.06,0-.07,0a.05.05,0,0,1,0-.05v0l0-.1a.15.15,0,0,1,.16-.12,2,2,0,0,0,1.12-.38,4,4,0,0,0,.93-.94.17.17,0,0,1,.13-.08h0a.1.1,0,0,1,.09,0s0,0,0,0,0,0,0,0Z"/><path class="cls-10" d="M38.11,52.91a1.24,1.24,0,0,0,0,.16.14.14,0,0,0,.09.15,1,1,0,0,0,.41.07h.59c.07,0,.11,0,.11.08a.11.11,0,0,1,0,0l0,.09a.18.18,0,0,1-.16.12c-.51,0-1,0-1.54,0l-1.54,0c-.07,0-.1,0-.1-.09v0l0-.09a.15.15,0,0,1,.16-.13h.6a1.14,1.14,0,0,0,.44-.07c.11,0,.18-.14.22-.31l1.35-5.25a3.28,3.28,0,0,1-.64.34,2.1,2.1,0,0,1-.7.12s-.06,0-.07,0a.05.05,0,0,1,0-.05.08.08,0,0,1,0,0l0-.1a.15.15,0,0,1,.16-.12,2,2,0,0,0,1.12-.38,4,4,0,0,0,.93-.94.17.17,0,0,1,.13-.08h0a.1.1,0,0,1,.09,0s0,0,0,0,0,0,0,0Z"/><path class="cls-10" d="M54,48.85a1.76,1.76,0,0,1-.39.77,4.38,4.38,0,0,1-.7.65,5.73,5.73,0,0,1-.85.57l-.86.49a4.65,4.65,0,0,0-.91.67,4.09,4.09,0,0,0-.68.86.53.53,0,0,1,.26,0,2.59,2.59,0,0,1,.56,0l.54.11.54.11a3.12,3.12,0,0,0,.55.05.92.92,0,0,0,.42-.1,2,2,0,0,0,.38-.28,1.73,1.73,0,0,0,.3-.41,1.84,1.84,0,0,0,.19-.49.14.14,0,0,1,.15-.09h.11l.09,0v.07a4.89,4.89,0,0,1-.26.73,3.3,3.3,0,0,1-.39.65,2.17,2.17,0,0,1-.54.47,1.37,1.37,0,0,1-1.22,0,5.5,5.5,0,0,1-.48-.28c-.15-.1-.3-.2-.46-.29a1.07,1.07,0,0,0-.55-.14.45.45,0,0,0-.34.21,1.73,1.73,0,0,0-.24.53c0,.06-.06.09-.14.09h-.11a.1.1,0,0,1-.08,0s0,0,0,0a.08.08,0,0,1,0,0,4.16,4.16,0,0,1,.78-1.54A4.54,4.54,0,0,1,51,51.07a6.38,6.38,0,0,0,1.32-1,2.78,2.78,0,0,0,.76-1.26,5,5,0,0,0,.16-.84v-.17a1.85,1.85,0,0,0-.09-.58,1.19,1.19,0,0,0-.35-.45.87.87,0,0,0-.55-.18,1.45,1.45,0,0,0-.72.2,2.44,2.44,0,0,0-.61.51,3.2,3.2,0,0,0-.48.75,5.22,5.22,0,0,0-.32.86,1.76,1.76,0,0,0-.06.42.32.32,0,0,0,0,.14c0,.15.1.23.23.23a.6.6,0,0,0,.35-.1,1,1,0,0,0,.29-.28,1.93,1.93,0,0,0,.24-.4,2.38,2.38,0,0,0,.19-.49,1,1,0,0,0,0-.17.53.53,0,0,0,0-.13.79.79,0,0,0-.12-.3.07.07,0,0,1,0,0,.14.14,0,0,1,0-.09l0,0a.16.16,0,0,1,.09,0,.05.05,0,0,1,.06,0,.72.72,0,0,1,.18.48.92.92,0,0,1,0,.28,2.9,2.9,0,0,1-.19.54,2.78,2.78,0,0,1-.29.48,1.18,1.18,0,0,1-.39.35.93.93,0,0,1-.49.14.47.47,0,0,1-.49-.33,1.59,1.59,0,0,1-.06-.3s0,0,0,0a1.49,1.49,0,0,1,0-.36,5.26,5.26,0,0,1,.36-.93,3.49,3.49,0,0,1,.57-.83,2.64,2.64,0,0,1,.74-.59,1.88,1.88,0,0,1,.88-.22,1.76,1.76,0,0,1,.83.2,1.64,1.64,0,0,1,.58.53,1.88,1.88,0,0,1,.29.81,1.32,1.32,0,0,1,0,.27A2.16,2.16,0,0,1,54,48.85Z"/><path class="cls-10" d="M70.3,46.49s0,0,0,0,0,0,0,0a3.31,3.31,0,0,1-1,.72,2.76,2.76,0,0,1-1.17.26,2.39,2.39,0,0,1-.84-.14l-.55,2.18a2.14,2.14,0,0,1,1.43-.54,1.23,1.23,0,0,1,.73.2,1.35,1.35,0,0,1,.47.51,1.94,1.94,0,0,1,.22.79v.17a2.66,2.66,0,0,1-.1.72,3.38,3.38,0,0,1-.4.92,4,4,0,0,1-.69.8,3.19,3.19,0,0,1-.86.52,2.47,2.47,0,0,1-.92.18,1.39,1.39,0,0,1-.7-.16,1.27,1.27,0,0,1-.47-.45,1.43,1.43,0,0,1-.21-.66c0-.06,0-.12,0-.19a2.34,2.34,0,0,1,.07-.57.59.59,0,0,1,.24-.35.66.66,0,0,1,.35-.11.45.45,0,0,1,.31.1.29.29,0,0,1,.09.22.68.68,0,0,1,0,.14.56.56,0,0,1-.29.37.57.57,0,0,1-.31.1h-.08v.07a1.27,1.27,0,0,0,.27.83,1,1,0,0,0,.84.37,1.17,1.17,0,0,0,.62-.16,2.09,2.09,0,0,0,.56-.43,2.4,2.4,0,0,0,.44-.72q.15-.39.27-.81t.18-.81a1.66,1.66,0,0,0,0-.32,1.84,1.84,0,0,0,0-.41,1.17,1.17,0,0,0-.22-.43.5.5,0,0,0-.41-.17,1.86,1.86,0,0,0-.82.18,2.53,2.53,0,0,0-.67.51l-.09.1a.12.12,0,0,1-.1,0s0,0,0,0h0a.08.08,0,0,1-.09-.09v0l.72-2.84.19-.72a.14.14,0,0,1,.13-.11h.06l0,0,0,0a2.67,2.67,0,0,0,1.29.3,3.67,3.67,0,0,0,1.51-.34h.06s.07,0,.08.07Z"/><path class="cls-10" d="M24.93,67.56a.94.94,0,0,0,0,.16.14.14,0,0,0,.09.15,1.17,1.17,0,0,0,.41.07H26c.07,0,.11,0,.11.07a.09.09,0,0,1,0,0l0,.1a.18.18,0,0,1-.16.11c-.51,0-1,0-1.54,0l-1.55,0c-.06,0-.09,0-.09-.08v0l0-.1A.15.15,0,0,1,22.9,68h.6a1.38,1.38,0,0,0,.44-.07.4.4,0,0,0,.22-.31l1.35-5.26a2.47,2.47,0,0,1-.64.34,1.89,1.89,0,0,1-.7.13s-.06,0-.07,0,0,0,0-.05,0,0,0,0l0-.1a.14.14,0,0,1,.16-.12A1.9,1.9,0,0,0,25.39,62a3.78,3.78,0,0,0,.93-.94.19.19,0,0,1,.13-.07h0a.12.12,0,0,1,.09,0s0,0,0,0,0,0,0,0Z"/><path class="cls-10" d="M38.11,67.56a.94.94,0,0,0,0,.16.14.14,0,0,0,.09.15,1.17,1.17,0,0,0,.41.07h.59c.07,0,.11,0,.11.07a.09.09,0,0,1,0,0l0,.1a.18.18,0,0,1-.16.11c-.51,0-1,0-1.54,0l-1.54,0c-.07,0-.1,0-.1-.08v0l0-.1a.15.15,0,0,1,.16-.12h.6a1.38,1.38,0,0,0,.44-.07.38.38,0,0,0,.22-.31l1.35-5.26a2.47,2.47,0,0,1-.64.34,1.89,1.89,0,0,1-.7.13s-.06,0-.07,0,0,0,0-.05a.05.05,0,0,1,0,0l0-.1a.14.14,0,0,1,.16-.12A1.9,1.9,0,0,0,38.57,62a3.78,3.78,0,0,0,.93-.94.19.19,0,0,1,.13-.07h0a.12.12,0,0,1,.09,0s0,0,0,0,0,0,0,0Z"/><path class="cls-10" d="M53.48,62.09a1.07,1.07,0,0,0-.26-.58.75.75,0,0,0-.58-.23,1.3,1.3,0,0,0-.71.23,2.21,2.21,0,0,0-.56.58,3.6,3.6,0,0,0-.26.52c-.08.19-.15.41-.23.64s-.14.47-.2.71-.13.46-.17.67l-.18.75c-.07.25-.13.51-.18.76a6.86,6.86,0,0,0-.12.7,3,3,0,0,0,0,.39.86.86,0,0,0,0,.17,1.1,1.1,0,0,0,.24.62.69.69,0,0,0,.59.26,1.1,1.1,0,0,0,.71-.26,2.21,2.21,0,0,0,.56-.62,2.66,2.66,0,0,0,.27-.56c.09-.22.17-.45.25-.7s.15-.51.22-.76.13-.51.19-.75.11-.43.17-.67a6.53,6.53,0,0,0,.16-.71c0-.23.08-.45.1-.64s0-.23,0-.33S53.48,62.15,53.48,62.09Zm.57-.11a3.08,3.08,0,0,1,.13.91c0,.15,0,.3,0,.45a10.91,10.91,0,0,1-.29,1.47q-.19.72-.45,1.44a4.57,4.57,0,0,1-.81,1.34,2.65,2.65,0,0,1-.84.68,2.18,2.18,0,0,1-1,.25,1.4,1.4,0,0,1-.85-.25,1.31,1.31,0,0,1-.5-.68,3,3,0,0,1-.13-.91c0-.14,0-.29,0-.44a9.49,9.49,0,0,1,.28-1.43c.13-.48.28-1,.46-1.45a4.82,4.82,0,0,1,.8-1.38,2.69,2.69,0,0,1,.85-.69,2.07,2.07,0,0,1,1-.26,1.37,1.37,0,0,1,.86.26A1.28,1.28,0,0,1,54.05,62Z"/><path class="cls-10" d="M68.78,66.8a1.17,1.17,0,0,0,0-.32,1,1,0,0,0,0-.31,1,1,0,0,0-.33-.49l-1.09-.9a3.43,3.43,0,0,0-1.07.78,2.55,2.55,0,0,0-.61,1.08,1.44,1.44,0,0,0-.06.4,1.23,1.23,0,0,0,0,.2,1.26,1.26,0,0,0,.2.52,1.28,1.28,0,0,0,.42.34,1.34,1.34,0,0,0,.58.12,2.1,2.1,0,0,0,.64-.11,2.13,2.13,0,0,0,.58-.3,2.34,2.34,0,0,0,.45-.44A1.5,1.5,0,0,0,68.78,66.8Zm.85-4.14a1.39,1.39,0,0,0,0-.35,1.28,1.28,0,0,0,0-.19,1,1,0,0,0-.18-.42.94.94,0,0,0-.36-.29,1.12,1.12,0,0,0-.5-.11,1.7,1.7,0,0,0-.54.09,2.59,2.59,0,0,0-.5.25,1.71,1.71,0,0,0-.39.37,1.53,1.53,0,0,0-.23.46,1.39,1.39,0,0,0,0,.27A1.09,1.09,0,0,0,67,63a.84.84,0,0,0,.27.4l1,.79a3.45,3.45,0,0,0,.9-.65A2,2,0,0,0,69.63,62.66Zm.49,0a2,2,0,0,1-.64,1,4.82,4.82,0,0,1-1.07.7l.55.44a1.36,1.36,0,0,1,.46.71,1.59,1.59,0,0,1,.07.48,1.81,1.81,0,0,1-.07.49,2.76,2.76,0,0,1-.37.8,2.94,2.94,0,0,1-.62.65,3.13,3.13,0,0,1-.8.44,2.65,2.65,0,0,1-.87.15,2.11,2.11,0,0,1-.77-.14,1.56,1.56,0,0,1-.58-.39,1.22,1.22,0,0,1-.3-.6,1.13,1.13,0,0,1,0-.32,1.71,1.71,0,0,1,.06-.43,2.34,2.34,0,0,1,.76-1.2,5.09,5.09,0,0,1,1.29-.83l-.38-.3a1.13,1.13,0,0,1-.42-.64,2.38,2.38,0,0,1-.06-.37,2,2,0,0,1,.07-.47,2.36,2.36,0,0,1,.33-.7,3,3,0,0,1,.54-.58,2.68,2.68,0,0,1,.68-.38,2,2,0,0,1,.76-.14,1.81,1.81,0,0,1,.67.12,1.27,1.27,0,0,1,.5.34,1.08,1.08,0,0,1,.28.5,1.46,1.46,0,0,1,0,.29A1.76,1.76,0,0,1,70.12,62.66Z"/><path class="cls-10" d="M27.05,76.8a1.2,1.2,0,0,0-.21-.61.63.63,0,0,0-.52-.25,1.38,1.38,0,0,0-.62.15,2,2,0,0,0-.53.46,2,2,0,0,0-.41.7c-.08.26-.17.55-.25.87a7.89,7.89,0,0,0-.19.88,1.39,1.39,0,0,0,0,.7,1,1,0,0,0,.26.46.7.7,0,0,0,.5.16,1.16,1.16,0,0,0,.62-.19,2,2,0,0,0,.53-.49,3.26,3.26,0,0,0,.39-.69,5.56,5.56,0,0,0,.25-.82s0,0,0,0v0c.06-.26.1-.5.14-.73a3.17,3.17,0,0,0,0-.41A.71.71,0,0,0,27.05,76.8Zm.62-.12a3.39,3.39,0,0,1,.13.91c0,.14,0,.29,0,.43a13.15,13.15,0,0,1-.28,1.39A6.06,6.06,0,0,1,27,80.79a5.67,5.67,0,0,1-.9,1.27,4.43,4.43,0,0,1-1,.78,2.16,2.16,0,0,1-1.13.32,2.32,2.32,0,0,1-.55-.06,1.08,1.08,0,0,1-.4-.21.68.68,0,0,1-.23-.36,1,1,0,0,1,0-.19,1.18,1.18,0,0,1,0-.31.53.53,0,0,1,.22-.33.62.62,0,0,1,.34-.11.35.35,0,0,1,.27.11.23.23,0,0,1,.09.19.78.78,0,0,1,0,.14.55.55,0,0,1-.23.32.51.51,0,0,1-.32.12.52.52,0,0,0,.3.3,1.55,1.55,0,0,0,.58.1,1.36,1.36,0,0,0,.8-.28,3.51,3.51,0,0,0,.7-.69,4.14,4.14,0,0,0,.61-1.13c.13-.39.25-.8.36-1.21a2.37,2.37,0,0,1-.66.71,1.37,1.37,0,0,1-.87.28,1.41,1.41,0,0,1-.78-.18,1.48,1.48,0,0,1-.49-.53,1.73,1.73,0,0,1-.27-.81v-.11a3.48,3.48,0,0,1,.11-.8A3,3,0,0,1,24,77.2a3.87,3.87,0,0,1,1.53-1.35,2.19,2.19,0,0,1,.9-.18,1.21,1.21,0,0,1,.85.3A1.55,1.55,0,0,1,27.67,76.68Z"/><path class="cls-10" d="M40.23,76.8a1.2,1.2,0,0,0-.21-.61.63.63,0,0,0-.52-.25,1.38,1.38,0,0,0-.62.15,2,2,0,0,0-.53.46,2.15,2.15,0,0,0-.41.7c-.08.26-.17.55-.25.87a7.89,7.89,0,0,0-.19.88,2.09,2.09,0,0,0,0,.34,1.36,1.36,0,0,0,0,.36,1,1,0,0,0,.26.46.7.7,0,0,0,.5.16,1.16,1.16,0,0,0,.62-.19,2,2,0,0,0,.53-.49,3.26,3.26,0,0,0,.39-.69,5.56,5.56,0,0,0,.25-.82s0,0,0,0v0c.06-.26.1-.5.14-.73a3.17,3.17,0,0,0,0-.41A.71.71,0,0,0,40.23,76.8Zm.62-.12a3,3,0,0,1,.13.91c0,.14,0,.29,0,.43-.07.47-.16.93-.27,1.39a6.61,6.61,0,0,1-.52,1.38,5.67,5.67,0,0,1-.9,1.27,4.43,4.43,0,0,1-1,.78,2.13,2.13,0,0,1-1.13.32,2.32,2.32,0,0,1-.55-.06,1.08,1.08,0,0,1-.4-.21.68.68,0,0,1-.23-.36,1,1,0,0,1,0-.19A1.18,1.18,0,0,1,36,82a.53.53,0,0,1,.22-.33.65.65,0,0,1,.34-.11.35.35,0,0,1,.27.11.23.23,0,0,1,.09.19.78.78,0,0,1,0,.14.55.55,0,0,1-.23.32.51.51,0,0,1-.32.12.52.52,0,0,0,.3.3,1.55,1.55,0,0,0,.58.1,1.42,1.42,0,0,0,.81-.28,3.75,3.75,0,0,0,.69-.69,4.14,4.14,0,0,0,.61-1.13c.13-.39.25-.8.36-1.21a2.37,2.37,0,0,1-.66.71,1.35,1.35,0,0,1-.87.28,1.41,1.41,0,0,1-.78-.18,1.48,1.48,0,0,1-.49-.53,1.85,1.85,0,0,1-.27-.81v-.11a3.48,3.48,0,0,1,.11-.8,3,3,0,0,1,.38-.92,3.87,3.87,0,0,1,1.53-1.35,2.19,2.19,0,0,1,.9-.18,1.21,1.21,0,0,1,.85.3A1.55,1.55,0,0,1,40.85,76.68Z"/><path class="cls-10" d="M53.45,76.8a1.31,1.31,0,0,0-.22-.61.61.61,0,0,0-.52-.25,1.42,1.42,0,0,0-.62.15,2,2,0,0,0-.53.46,2,2,0,0,0-.4.7c-.09.26-.18.55-.26.87a7.89,7.89,0,0,0-.19.88,2,2,0,0,0,0,.34,1.37,1.37,0,0,0,0,.36,1,1,0,0,0,.26.46.7.7,0,0,0,.5.16,1.22,1.22,0,0,0,.63-.19,2,2,0,0,0,.52-.49A3.26,3.26,0,0,0,53,79a4.58,4.58,0,0,0,.25-.82v0c.06-.26.11-.5.14-.73a2.1,2.1,0,0,0,0-.41C53.46,76.89,53.45,76.85,53.45,76.8Zm.61-.12a3,3,0,0,1,.13.91c0,.14,0,.29,0,.43a11,11,0,0,1-.27,1.39,6.61,6.61,0,0,1-.52,1.38,5.62,5.62,0,0,1-.89,1.27,4.67,4.67,0,0,1-1,.78,2.18,2.18,0,0,1-1.13.32,2.4,2.4,0,0,1-.56-.06,1.17,1.17,0,0,1-.4-.21.75.75,0,0,1-.23-.36,1,1,0,0,1,0-.19.89.89,0,0,1,.06-.31.48.48,0,0,1,.21-.33.65.65,0,0,1,.34-.11.38.38,0,0,1,.28.11.26.26,0,0,1,.08.19.78.78,0,0,1,0,.14.58.58,0,0,1-.22.32.56.56,0,0,1-.33.12.55.55,0,0,0,.3.3,1.59,1.59,0,0,0,.58.1,1.42,1.42,0,0,0,.81-.28A3.22,3.22,0,0,0,52,81.9a3.89,3.89,0,0,0,.61-1.13,12.07,12.07,0,0,0,.36-1.21,2.37,2.37,0,0,1-.66.71,1.34,1.34,0,0,1-.87.28,1.35,1.35,0,0,1-.77-.18,1.51,1.51,0,0,1-.5-.53,1.71,1.71,0,0,1-.26-.81v-.11a3.43,3.43,0,0,1,.1-.8,3.3,3.3,0,0,1,.38-.92,3.43,3.43,0,0,1,.71-.8,3.36,3.36,0,0,1,.82-.55,2.19,2.19,0,0,1,.9-.18,1.21,1.21,0,0,1,.85.3A1.47,1.47,0,0,1,54.06,76.68Z"/><path class="cls-10" d="M64.05,82.2a.51.51,0,0,0,0,.17.13.13,0,0,0,.09.14.94.94,0,0,0,.41.07h.59c.06,0,.1,0,.1.08a.11.11,0,0,1,0,0l0,.09a.17.17,0,0,1-.16.12q-.75,0-1.53,0l-1.55,0c-.06,0-.09,0-.09-.08v0l0-.09a.15.15,0,0,1,.16-.13h.6a1.18,1.18,0,0,0,.44-.07c.1,0,.17-.13.21-.31L64.64,77a2.88,2.88,0,0,1-.65.34,2,2,0,0,1-.69.12.1.1,0,0,1-.08,0,.08.08,0,0,1,0,0,.06.06,0,0,1,0,0l0-.09a.16.16,0,0,1,.16-.13,1.87,1.87,0,0,0,1.12-.38,4,4,0,0,0,.94-.94.18.18,0,0,1,.12-.08h0a.08.08,0,0,1,.08,0s0,0,0,0a.08.08,0,0,1,0,0Z"/><path class="cls-10" d="M71.75,76.74a1,1,0,0,0-.25-.58.75.75,0,0,0-.58-.24,1.19,1.19,0,0,0-.71.24,2,2,0,0,0-.57.58,2.69,2.69,0,0,0-.25.51c-.08.2-.16.41-.23.65s-.15.46-.21.7-.12.47-.17.68-.12.48-.18.74l-.18.76c0,.25-.09.49-.12.71a3,3,0,0,0,0,.39.91.91,0,0,0,0,.17,1.1,1.1,0,0,0,.24.62.74.74,0,0,0,.6.26,1.17,1.17,0,0,0,.71-.26,2.37,2.37,0,0,0,.56-.62,4.22,4.22,0,0,0,.27-.56c.08-.22.16-.46.24-.71s.15-.5.22-.76.14-.5.19-.74.12-.44.18-.68.11-.47.15-.7a6.11,6.11,0,0,0,.1-.65c0-.12,0-.23,0-.32A1.15,1.15,0,0,0,71.75,76.74Zm.58-.11a3.39,3.39,0,0,1,.12.91,3.31,3.31,0,0,1,0,.44,13.25,13.25,0,0,1-.28,1.48,14.86,14.86,0,0,1-.46,1.43,4.76,4.76,0,0,1-.8,1.34,2.66,2.66,0,0,1-.85.68,2.15,2.15,0,0,1-1,.25,1.42,1.42,0,0,1-.85-.25,1.33,1.33,0,0,1-.5-.68,3,3,0,0,1-.13-.91c0-.13,0-.28,0-.43a10.61,10.61,0,0,1,.28-1.43c.13-.49.29-1,.47-1.46a4.55,4.55,0,0,1,.8-1.37,2.75,2.75,0,0,1,.85-.7,2.15,2.15,0,0,1,1-.26,1.44,1.44,0,0,1,.86.26A1.42,1.42,0,0,1,72.33,76.63Z"/><line class="cls-11" x1="19.79" y1="31.25" x2="19.79" y2="84.5"/><line class="cls-11" x1="75.15" y1="84.5" x2="75.15" y2="31.25"/></g></g><path d="M16,22.19l2.12,6.36-6.36-2.12Zm-8.24-4.7,7.18,7.17-.71.71L7.05,18.19Z"/><g class="cls-2"><text class="cls-12" transform="translate(3.75 13.42)">红框的这块是二阶子式</text></g><g class="cls-2"><text class="cls-12" transform="translate(54.87 123.9)">黄</text></g><g class="cls-2"><text class="cls-12" transform="translate(62.91 123.9)">框的这块是其</text></g><g class="cls-2"><text class="cls-12" transform="translate(111.15 123.9)">”</text></g><g class="cls-2"><text class="cls-12" transform="translate(119.19 123.9)"><tspan class="cls-13">余子</tspan><tspan x="16.11" y="0">式</tspan></text></g><g class="cls-2"><text class="cls-12" transform="translate(143.22 123.9)">”</text></g><path d="M62.84,94.88l-3-6-3,6Zm-2.5,15.42V93.88h-1V110.3Z"/></g></g></svg>