<svg id="图层_1" data-name="图层 1" xmlns="http://www.w3.org/2000/svg" xmlns:xlink="http://www.w3.org/1999/xlink" viewBox="0 0 57.6 61.2"><defs><style>.cls-1,.cls-11,.cls-4,.cls-5,.cls-6,.cls-7{fill:none;}.cls-2{clip-path:url(#clip-path);}.cls-3{fill:#fff;}.cls-4{stroke:#92d050;}.cls-11,.cls-4,.cls-5,.cls-6,.cls-7{stroke-miterlimit:10;}.cls-4,.cls-5,.cls-6,.cls-7{stroke-width:8px;opacity:0.5;}.cls-5{stroke:#00b0f0;}.cls-6{stroke:#ed7d31;}.cls-7{stroke:#ff0;}.cls-8{clip-path:url(#clip-path-4);}.cls-9{clip-path:url(#clip-path-5);}.cls-10{fill-rule:evenodd;}.cls-11{stroke:#000;stroke-linecap:round;stroke-width:0.56px;}</style><clipPath id="clip-path"><rect class="cls-1" x="-240.4" y="-359.2" width="540" height="780"/></clipPath><clipPath id="clip-path-4"><rect class="cls-1" x="-6.88" y="-3.76" width="72.96" height="69.12"/></clipPath><clipPath id="clip-path-5"><rect class="cls-1" x="-6.88" y="-3.76" width="72.96" height="69.12"/></clipPath></defs><g class="cls-2"><g class="cls-2"><g class="cls-2"><rect class="cls-3" x="-240.4" y="-359.2" width="540" height="780"/></g><line class="cls-4" x1="11.3" y1="34.21" x2="32.3" y2="12.86"/><line class="cls-5" x1="27.02" y1="49.81" x2="48.02" y2="28.46"/><line class="cls-6" x1="8.66" y1="52.48" x2="21.78" y2="39.14"/><line class="cls-6" x1="37.58" y1="23.51" x2="49.24" y2="11.66"/><line class="cls-7" x1="9.02" y1="6.62" x2="53.34" y2="55.66"/><g class="cls-8"><g class="cls-9"><path class="cls-10" d="M14.71,16.83a.39.39,0,0,0,0,.18.15.15,0,0,0,.09.16,1.15,1.15,0,0,0,.46.08h.65c.08,0,.12,0,.12.08a.13.13,0,0,1,0,.06l0,.1a.17.17,0,0,1-.17.13c-.56,0-1.12,0-1.7,0l-1.71,0c-.07,0-.1,0-.1-.09v0l0-.1a.17.17,0,0,1,.18-.14h.66a1.41,1.41,0,0,0,.49-.08.44.44,0,0,0,.24-.34L15.35,11a3.05,3.05,0,0,1-.71.38,2.22,2.22,0,0,1-.77.13s-.07,0-.08,0a.05.05,0,0,1,0-.05s0,0,0,0l0-.11a.17.17,0,0,1,.18-.13,2.12,2.12,0,0,0,1.23-.42,4.46,4.46,0,0,0,1-1,.18.18,0,0,1,.14-.09h0a.15.15,0,0,1,.09,0,.09.09,0,0,1,0,0,.06.06,0,0,1,0,0Z"/><path class="cls-10" d="M30.26,13.9c0-.08,0-.15,0-.23a.9.9,0,0,0-.06-.22,1.15,1.15,0,0,0-.28-.48.61.61,0,0,0-.47-.19.84.84,0,0,0-.52.19,2.06,2.06,0,0,0-.46.47,3.13,3.13,0,0,0-.43.83c-.1.28-.18.58-.26.89s-.14.6-.2.89a2.12,2.12,0,0,0,0,.42,1.84,1.84,0,0,0,0,.41,1.07,1.07,0,0,0,.21.47.5.5,0,0,0,.43.19,1,1,0,0,0,.57-.19,2.65,2.65,0,0,0,.53-.48l.18-.22a2.52,2.52,0,0,0,.15-.24ZM31.82,16c0,.18-.09.38-.15.59a2.7,2.7,0,0,1-.23.58,1.84,1.84,0,0,1-.36.46.77.77,0,0,1-.52.19.93.93,0,0,1-.67-.24,1,1,0,0,1-.31-.6,3.35,3.35,0,0,1-.66.58,1.47,1.47,0,0,1-.81.26,1.22,1.22,0,0,1-.75-.23,1.52,1.52,0,0,1-.47-.56,2,2,0,0,1-.21-.89v-.08a3.41,3.41,0,0,1,.12-.89,5.18,5.18,0,0,1,.38-1,4,4,0,0,1,.66-.9,3.31,3.31,0,0,1,.77-.56,1.82,1.82,0,0,1,.86-.23.89.89,0,0,1,.6.2,1.35,1.35,0,0,1,.37.48l0-.07a.43.43,0,0,1,.17-.29.5.5,0,0,1,.28-.1.4.4,0,0,1,.26.1.3.3,0,0,1,.07.18.52.52,0,0,1,0,.11l-.84,3.29a2.67,2.67,0,0,0-.08.45,1.28,1.28,0,0,0,0,.19,1,1,0,0,0,0,.17.44.44,0,0,0,.1.24.27.27,0,0,0,.22.08.36.36,0,0,0,.27-.11.94.94,0,0,0,.21-.33,3.4,3.4,0,0,0,.18-.49c.06-.19.12-.39.17-.62a.13.13,0,0,1,.14-.1h.14c.06,0,.09,0,.09.07Z"/><path class="cls-10" d="M45,13.44a1,1,0,0,0-.22-.47.5.5,0,0,0-.42-.19,1,1,0,0,0-.58.19,2.6,2.6,0,0,0-.52.48,4.16,4.16,0,0,0-.32.45l-.33,1.26a7.8,7.8,0,0,0-.18.89,2,2,0,0,0,0,.34,1.93,1.93,0,0,0,.06.49,1,1,0,0,0,.23.47.51.51,0,0,0,.43.19.84.84,0,0,0,.52-.19,1.87,1.87,0,0,0,.46-.47,2.81,2.81,0,0,0,.43-.82q.15-.43.27-.9c.08-.31.15-.61.2-.9a1.9,1.9,0,0,0,0-.41A1.84,1.84,0,0,0,45,13.44Zm.73,1.72a4,4,0,0,1-.38,1,3.74,3.74,0,0,1-.66.89,3.25,3.25,0,0,1-.76.56,1.83,1.83,0,0,1-.87.23,1.14,1.14,0,0,1-.71-.23A1.56,1.56,0,0,1,41.9,17a2.4,2.4,0,0,1-.19-.89v-.07a3.41,3.41,0,0,1,.12-.89L43,10.57c0-.12.05-.22.06-.29v0a.17.17,0,0,0,0-.12.61.61,0,0,0-.29-.07,3.32,3.32,0,0,0-.46,0,.08.08,0,0,1-.08,0,.08.08,0,0,1,0,0,.06.06,0,0,1,0,0l0-.09a.22.22,0,0,1,.17-.14l1.54-.12h0a.1.1,0,0,1,.07,0,.14.14,0,0,1,0,.06l0,0-.9,3.5a2.81,2.81,0,0,1,.61-.48,1.41,1.41,0,0,1,.71-.2,1.26,1.26,0,0,1,.75.23,1.59,1.59,0,0,1,.47.56,2.28,2.28,0,0,1,.2.9v.07A3.46,3.46,0,0,1,45.72,15.16Z"/><path class="cls-10" d="M15.78,30.08a1.7,1.7,0,0,1,0-.22l-.06-.23a1.25,1.25,0,0,0-.29-.47.62.62,0,0,0-.47-.2.9.9,0,0,0-.52.19,2.29,2.29,0,0,0-.46.47,3.28,3.28,0,0,0-.43.83c-.09.29-.18.59-.26.9s-.14.6-.19.88a2.18,2.18,0,0,0-.05.42,1.77,1.77,0,0,0,.05.41,1.17,1.17,0,0,0,.21.48.52.52,0,0,0,.42.19,1,1,0,0,0,.58-.2,2.9,2.9,0,0,0,.52-.48l.18-.22a1.14,1.14,0,0,0,.15-.23Zm1.56,2.1c-.05.17-.1.37-.16.58a2.13,2.13,0,0,1-.23.58,1.48,1.48,0,0,1-.35.46.74.74,0,0,1-.52.19,1,1,0,0,1-.68-.23,1,1,0,0,1-.31-.6,3.12,3.12,0,0,1-.66.58,1.54,1.54,0,0,1-.81.25,1.25,1.25,0,0,1-.74-.22,1.53,1.53,0,0,1-.47-.57,2,2,0,0,1-.22-.88v-.09a3.33,3.33,0,0,1,.12-.88,4.69,4.69,0,0,1,.39-1,3.57,3.57,0,0,1,1.42-1.46,1.85,1.85,0,0,1,.86-.23.93.93,0,0,1,.61.2,1.22,1.22,0,0,1,.36.48l0-.07a.43.43,0,0,1,.17-.29.54.54,0,0,1,.28-.09.4.4,0,0,1,.27.09.27.27,0,0,1,.06.19.38.38,0,0,1,0,.1l-.85,3.3c0,.15-.06.3-.08.44a1.34,1.34,0,0,0,0,.2.92.92,0,0,0,0,.16.53.53,0,0,0,.1.24.3.3,0,0,0,.23.09.37.37,0,0,0,.26-.12,1,1,0,0,0,.22-.32c.06-.14.12-.31.18-.5l.17-.61a.13.13,0,0,1,.14-.11h.13c.07,0,.1,0,.1.07Z"/><path class="cls-10" d="M32.11,28.52a1.86,1.86,0,0,1-.43.85,5.38,5.38,0,0,1-.77.73,11,11,0,0,1-.94.63l-.95.54A4.91,4.91,0,0,0,28,32a5,5,0,0,0-.76,1,.84.84,0,0,1,.3-.06,6,6,0,0,1,.61.06l.6.12.59.12a3.08,3.08,0,0,0,.61.06,1,1,0,0,0,.47-.11,1.75,1.75,0,0,0,.42-.31,2.22,2.22,0,0,0,.34-.45,2.74,2.74,0,0,0,.21-.54c0-.06.06-.1.15-.1h.13l.1,0s0,0,0,0,0,0,0,0a4.8,4.8,0,0,1-.29.8,3.27,3.27,0,0,1-.43.72,2.21,2.21,0,0,1-.59.52,1.39,1.39,0,0,1-.72.19,1.34,1.34,0,0,1-.64-.14c-.19-.09-.36-.2-.53-.3a5.29,5.29,0,0,0-.5-.32,1.23,1.23,0,0,0-.61-.15.45.45,0,0,0-.37.23,1.56,1.56,0,0,0-.27.58c0,.07-.07.1-.16.1h-.12a.12.12,0,0,1-.09,0s0,0,0,0a.08.08,0,0,1,0,0,4.66,4.66,0,0,1,.87-1.7A4.91,4.91,0,0,1,28.87,31a6.09,6.09,0,0,0,1.44-1.06,3,3,0,0,0,.85-1.39,5.15,5.15,0,0,0,.18-.92v-.19a2.2,2.2,0,0,0-.1-.64,1.21,1.21,0,0,0-.39-.5,1,1,0,0,0-.6-.2,1.6,1.6,0,0,0-.8.22,2.58,2.58,0,0,0-.68.57,3.61,3.61,0,0,0-.53.82,5.73,5.73,0,0,0-.35.95,1.72,1.72,0,0,0-.07.46.88.88,0,0,0,0,.17.25.25,0,0,0,.26.25.69.69,0,0,0,.39-.12,1.12,1.12,0,0,0,.32-.3,2.72,2.72,0,0,0,.27-.44c.07-.17.14-.35.2-.54a.68.68,0,0,0,0-.2.61.61,0,0,0,0-.14,1,1,0,0,0-.13-.33.07.07,0,0,1,0-.05.14.14,0,0,1,.05-.1l0,0,.11-.06s.05,0,.07.06a.81.81,0,0,1,.19.52,1.13,1.13,0,0,1-.05.32,3.53,3.53,0,0,1-.22.59,3.11,3.11,0,0,1-.32.53,1.45,1.45,0,0,1-.43.39,1,1,0,0,1-.54.15.54.54,0,0,1-.35-.1.51.51,0,0,1-.19-.26,1,1,0,0,1-.06-.34.06.06,0,0,1,0,0,1.83,1.83,0,0,1,.05-.4,5.92,5.92,0,0,1,.4-1,4.17,4.17,0,0,1,.62-.91,3.13,3.13,0,0,1,.82-.65,2.09,2.09,0,0,1,1-.25,1.92,1.92,0,0,1,.92.22,1.76,1.76,0,0,1,.65.59,2.17,2.17,0,0,1,.32.89,1.62,1.62,0,0,1,0,.3A2.27,2.27,0,0,1,32.11,28.52Z"/><path class="cls-10" d="M45.92,32.56s0,0,0,0a.12.12,0,0,1,0,.08,3,3,0,0,1-1.16,1,3.3,3.3,0,0,1-1.41.33,1.6,1.6,0,0,1-.86-.22,1.56,1.56,0,0,1-.57-.57,2,2,0,0,1-.28-.87c0-.08,0-.15,0-.24a3.36,3.36,0,0,1,.1-.74,3.9,3.9,0,0,1,1.14-1.87,3.9,3.9,0,0,1,.88-.57,2.39,2.39,0,0,1,1-.22,1.61,1.61,0,0,1,.54.09,1.23,1.23,0,0,1,.42.25.8.8,0,0,1,.28.62,1,1,0,0,1,0,.28.58.58,0,0,1-.24.36.65.65,0,0,1-.36.12.38.38,0,0,1-.3-.13.25.25,0,0,1-.08-.21.39.39,0,0,1,0-.14.56.56,0,0,1,.23-.34.72.72,0,0,1,.35-.13.82.82,0,0,0-.33-.36,1.13,1.13,0,0,0-.56-.14,1.28,1.28,0,0,0-.63.19,2,2,0,0,0-.56.48,2.87,2.87,0,0,0-.5.81,6.86,6.86,0,0,0-.28.91,7.65,7.65,0,0,0-.18.88,1.39,1.39,0,0,0,0,.27,1.45,1.45,0,0,0,.1.55.92.92,0,0,0,.31.49.79.79,0,0,0,.54.19,2.6,2.6,0,0,0,1.25-.33,2.84,2.84,0,0,0,1-.89.22.22,0,0,1,.09-.07h0l.06,0Z"/><path class="cls-10" d="M16,45.8a1,1,0,0,0-.22-.47.53.53,0,0,0-.42-.18,1,1,0,0,0-.58.19,2.28,2.28,0,0,0-.52.47c-.13.16-.23.31-.33.45l-.33,1.27c-.07.31-.13.6-.17.88a2.16,2.16,0,0,0,0,.35,2,2,0,0,0,.06.49,1.38,1.38,0,0,0,.23.47.55.55,0,0,0,.44.19.84.84,0,0,0,.52-.19,2.57,2.57,0,0,0,.46-.47,3.13,3.13,0,0,0,.43-.83c.1-.29.19-.58.27-.89s.14-.61.2-.9a2.93,2.93,0,0,0,0-.41A2,2,0,0,0,16,45.8Zm.73,1.73a4.69,4.69,0,0,1-.39,1A3.52,3.52,0,0,1,14.91,50a1.81,1.81,0,0,1-.87.22,1.06,1.06,0,0,1-.71-.23,1.46,1.46,0,0,1-.44-.57,2.14,2.14,0,0,1-.19-.88v-.08a3.33,3.33,0,0,1,.12-.88L14,42.94a1.66,1.66,0,0,0,.06-.29v0a.16.16,0,0,0,0-.12.76.76,0,0,0-.29-.07l-.46,0s-.07,0-.08,0,0,0,0-.05,0,0,0,0l0-.09a.2.2,0,0,1,.16-.13l1.55-.13h0A.08.08,0,0,1,15,42a.07.07,0,0,1,0,0,.09.09,0,0,1,0,.05l-.9,3.5a2.81,2.81,0,0,1,.61-.48,1.31,1.31,0,0,1,.7-.2,1.16,1.16,0,0,1,.75.23,1.49,1.49,0,0,1,.47.56,2.24,2.24,0,0,1,.21.89v.08A3.46,3.46,0,0,1,16.71,47.53Z"/><path class="cls-10" d="M31.39,48.75l0,0a.16.16,0,0,1,0,.08,3.05,3.05,0,0,1-1.17,1,3.27,3.27,0,0,1-1.41.33,1.71,1.71,0,0,1-.86-.21,1.67,1.67,0,0,1-.57-.58,1.85,1.85,0,0,1-.27-.87,1.69,1.69,0,0,1,0-.23,3.33,3.33,0,0,1,.09-.75,3.88,3.88,0,0,1,.42-1,4.27,4.27,0,0,1,.72-.88,3.9,3.9,0,0,1,.88-.57,2.38,2.38,0,0,1,1-.21,1.61,1.61,0,0,1,.54.09,1.22,1.22,0,0,1,.43.25,1,1,0,0,1,.25.38,1.94,1.94,0,0,1,0,.24,1,1,0,0,1,0,.28.54.54,0,0,1-.23.35.62.62,0,0,1-.37.12.35.35,0,0,1-.3-.13.29.29,0,0,1-.08-.21.83.83,0,0,1,0-.13.59.59,0,0,1,.23-.35.81.81,0,0,1,.35-.12.74.74,0,0,0-.33-.37,1.1,1.1,0,0,0-.56-.13,1.29,1.29,0,0,0-.63.18,2.34,2.34,0,0,0-.56.48,2.88,2.88,0,0,0-.49.82,6.75,6.75,0,0,0-.29.9,8.1,8.1,0,0,0-.18.88,1.39,1.39,0,0,0,0,.27,1.74,1.74,0,0,0,.1.56,1,1,0,0,0,.31.48.79.79,0,0,0,.54.19,2.57,2.57,0,0,0,1.25-.33,2.76,2.76,0,0,0,1-.89.14.14,0,0,1,.1-.06h0s0,0,.06,0Z"/><path class="cls-10" d="M47,44a2.49,2.49,0,0,1-.38.81,3.06,3.06,0,0,1-.66.69A3,3,0,0,1,45,46a1.67,1.67,0,0,1,.67.5,1.74,1.74,0,0,1,.3.71,1.42,1.42,0,0,1,0,.29,1.68,1.68,0,0,1-.08.54,2.27,2.27,0,0,1-.41.86,3.29,3.29,0,0,1-.73.71,4,4,0,0,1-1,.47,3.48,3.48,0,0,1-1,.16,1.65,1.65,0,0,1-.75-.16,1.31,1.31,0,0,1-.53-.42,1.37,1.37,0,0,1-.27-.64.76.76,0,0,1-.05-.27,1.51,1.51,0,0,1,.09-.5.55.55,0,0,1,.24-.36.7.7,0,0,1,.37-.12.46.46,0,0,1,.32.11.33.33,0,0,1,.08.22,1,1,0,0,1,0,.15.55.55,0,0,1-.28.38.88.88,0,0,1-.34.1h-.06a1.28,1.28,0,0,0,.36.89,1.18,1.18,0,0,0,.91.35,1.64,1.64,0,0,0,.69-.14,2.28,2.28,0,0,0,.64-.4,2.08,2.08,0,0,0,.47-.64,6.49,6.49,0,0,0,.26-.74,5.71,5.71,0,0,0,.15-.74v-.19a1.33,1.33,0,0,0-.08-.45.93.93,0,0,0-.31-.39.84.84,0,0,0-.49-.15h-.65c-.06,0-.08,0-.08-.08v0l0-.13a.13.13,0,0,1,.14-.11h.64a1.57,1.57,0,0,0,.62-.13,1.78,1.78,0,0,0,.56-.36,1.87,1.87,0,0,0,.43-.58,3.64,3.64,0,0,0,.24-.68,2.37,2.37,0,0,0,.11-.69v0a1.06,1.06,0,0,0-.14-.56.94.94,0,0,0-.37-.37,1,1,0,0,0-.53-.13,2.11,2.11,0,0,0-.75.13,2.6,2.6,0,0,0-.68.36,2.76,2.76,0,0,0-.53.55A1.82,1.82,0,0,0,43,44a1.48,1.48,0,0,0,0,.32.54.54,0,0,0,0,.24.3.3,0,0,0,.32.23.68.68,0,0,0,.43-.15.71.71,0,0,0,.25-.4A.33.33,0,0,0,44,44a.65.65,0,0,0-.16-.41s0-.05,0-.07a.1.1,0,0,1,.06-.09l0,0A.21.21,0,0,1,44,43.4a.08.08,0,0,1,.07.05,1.06,1.06,0,0,1,.18.33.62.62,0,0,1,0,.19,1,1,0,0,1,0,.24,1.16,1.16,0,0,1-.4.6,1,1,0,0,1-.67.24.56.56,0,0,1-.35-.1.61.61,0,0,1-.21-.24.78.78,0,0,1-.07-.35,0,0,0,0,1,0,0,1.49,1.49,0,0,1,0-.36,2.14,2.14,0,0,1,.38-.79,3,3,0,0,1,.65-.63,3.06,3.06,0,0,1,.8-.42,2.61,2.61,0,0,1,.87-.15,2.12,2.12,0,0,1,.81.15,1.57,1.57,0,0,1,.59.45,1.54,1.54,0,0,1,.31.66,1.71,1.71,0,0,1,0,.31A2.12,2.12,0,0,1,47,44Z"/><polyline class="cls-11" points="9.89 9.26 6.15 9.26 6.15 51.55 9.89 51.55"/><polyline class="cls-11" points="48.69 51.55 52.44 51.55 52.44 9.26 48.69 9.26"/></g></g></g></g></svg>