<svg id="图层_1" data-name="图层 1" xmlns="http://www.w3.org/2000/svg" xmlns:xlink="http://www.w3.org/1999/xlink" viewBox="0 0 257.6 78.4"><defs><style>.cls-1,.cls-7{fill:none;}.cls-2{clip-path:url(#clip-path);}.cls-3{fill:#fff;}.cls-4{clip-path:url(#clip-path-3);}.cls-5{clip-path:url(#clip-path-4);}.cls-6,.cls-8,.cls-9{fill-rule:evenodd;}.cls-7{stroke:#000;stroke-linecap:round;stroke-miterlimit:10;stroke-width:0.36px;}.cls-8{fill:green;}.cls-9{fill:#0080ff;}</style><clipPath id="clip-path"><rect class="cls-1" x="-140.4" y="-346.8" width="540" height="780"/></clipPath><clipPath id="clip-path-3"><rect class="cls-1" x="4.68" y="4.92" width="249.84" height="76.56"/></clipPath><clipPath id="clip-path-4"><rect class="cls-1" x="4.68" y="4.92" width="249.84" height="76.56"/></clipPath></defs><g class="cls-2"><g class="cls-2"><rect class="cls-3" x="-140.4" y="-346.8" width="540" height="780"/></g><g class="cls-4"><g class="cls-5"><path class="cls-6" d="M10.74,9.59H6.86v.89h3.88ZM6.86,11.88h3.88V11H6.86Zm0,2.2H6.25V10.21A12.9,12.9,0,0,1,5,11.43c-.11-.18-.23-.36-.37-.55A9.37,9.37,0,0,0,7,8.2H4.87V7.65H7.26a8,8,0,0,0,.38-1l.64.15c-.11.27-.22.54-.34.81h4.35V8.2H7.66a8.18,8.18,0,0,1-.52.86h4.22v4a.82.82,0,0,1-.94.92H9.19c0-.17-.07-.37-.12-.61.47,0,.85,0,1.14,0a.46.46,0,0,0,.53-.51v-.53H6.86Z"/><path class="cls-6" d="M13.37,8.65l.42-.36c.33.3.62.59.88.86l-.45.39C14,9.27,13.71,9,13.37,8.65ZM18,9.21a9.69,9.69,0,0,0,.82-.94l.49.35c-.29.33-.58.64-.88.94Zm-2.22.46h1.2V8.13h-1.2Zm2.7,1.63H14.25V12h4.19Zm-4.19,1.94h4.19v-.72H14.25ZM12.59,9.67h2.59V8.13H12.83V7.62H15c-.16-.2-.33-.41-.53-.63l.44-.31a9.07,9.07,0,0,1,.67.72l-.33.22h2c.2-.28.4-.59.61-.93l.57.3-.48.63h2v.51H17.51V9.67H20.1v.51H12.59Zm1.07,1.12H19V14.1h-.58v-.35H14.25v.35h-.59Z"/><path class="cls-6" d="M23.42,11.17h1.45v-.75H23.42Zm0-1.22h1.45V9.2H23.42Zm2,1.22h1.47v-.75H25.42Zm1.47-2H25.42V10h1.47ZM21.28,6.88c.27.31.62.78,1.08,1.41l-.55.38q-.61-.95-1-1.47Zm2.23,6.46,1.92,0L28,13.31c-.06.17-.13.36-.22.59l-2.55,0-1.83-.05A2,2,0,0,1,21.56,13a10.51,10.51,0,0,0-.92,1l-.32-.62,1-.92V10h-.92V9.39H21.9v3.2A1.76,1.76,0,0,0,23.51,13.34Zm-.09-.41h-.54V8.72h1.85l-1.19-.57.32-.36L25,8.33l1.37-.7H22.75V7.15h4.63v.5l-1.86.94.26.13h1.65V12.1c0,.57-.26.85-.8.85-.27,0-.56,0-.87,0,0-.19-.07-.38-.12-.58a6.87,6.87,0,0,0,.83.06q.42,0,.42-.39v-.37H25.42v1.17h-.55V11.65H23.42Z"/><path class="cls-6" d="M34.71,9.54H32.18v1.78h2.53Zm-6.5.38H29.6c0-.45,0-1,0-1.54h-.49a6.8,6.8,0,0,1-.56,1.18,3.92,3.92,0,0,0-.39-.5A7.1,7.1,0,0,0,29,6.7l.57.11c-.08.37-.18.72-.28,1.05h1.91v.52h-1c0,.58,0,1.1,0,1.54h1.16v.52H30.15a6.5,6.5,0,0,1-.15,1l.37-.22c.4.59.77,1.15,1.09,1.69l-.52.31c-.3-.54-.63-1.08-1-1.62A4.24,4.24,0,0,1,28.55,14a4.32,4.32,0,0,0-.42-.45,4.37,4.37,0,0,0,1.43-3.13H28.21Zm3.38-2.71h4.16v.52H32.18V9h3.1v3.24h-.57v-.43H32.18V13.3h3.64v.52H31.59Z"/><path class="cls-6" d="M38.61,11.28c.14,1-.11,1.5-.73,1.63a4.32,4.32,0,0,1-.76,0c0-.19-.08-.4-.14-.63a2.57,2.57,0,0,0,.68.06c.36,0,.47-.41.36-1.07a3.24,3.24,0,0,0-.7-1.35c.23-.74.44-1.46.63-2.17H37v6.35h-.57V7.23h2.21v.53c-.35,1.11-.57,1.81-.66,2.07A3.35,3.35,0,0,1,38.61,11.28Zm.23.54h2.28v-1.1H39v-.54a19.52,19.52,0,0,0,.89-1.89h-1V7.75h1.24c.13-.34.25-.68.36-1l.64.12c-.11.3-.23.6-.35.91h2.77v.54h-3c-.25.61-.52,1.24-.83,1.89h1.43V8.75h.64v1.43h1.57v.54H41.76v1.1h1.85v.54H41.76v1.76h-.64V12.36H38.84Z"/><path class="cls-6" d="M48.86,7.25l-1.72,3h1.93Zm1.82,5.2a.15.15,0,0,1-.13.1q-.45,0-.9,0H49.5c-.35,0-.71,0-1.06,0a.08.08,0,0,1-.09-.07v0l0-.08a.12.12,0,0,1,.13-.1h.31a.92.92,0,0,0,.27-.08l.09-.08a.16.16,0,0,0,0-.09v0l-.11-1.5H47l-.73,1.25a.52.52,0,0,0-.07.21.27.27,0,0,0,.06.17.45.45,0,0,0,.41.16s.08,0,.08.06a.06.06,0,0,1,0,0l0,.08a.13.13,0,0,1-.13.1c-.27,0-.55,0-.82,0h-.12q-.36,0-.72,0a.06.06,0,0,1-.06,0,.05.05,0,0,1,0,0,0,0,0,0,1,0,0l0-.08a.11.11,0,0,1,.13-.1,1.36,1.36,0,0,0,.29,0,1,1,0,0,0,.28-.12.91.91,0,0,0,.24-.2,1.34,1.34,0,0,0,.19-.26l3.2-5.47a.17.17,0,0,1,.16-.1h.09a.11.11,0,0,1,.12.1l.4,5.73a.92.92,0,0,0,0,.19.22.22,0,0,0,.09.1.44.44,0,0,0,.23,0h.33q.09,0,.09.06v0Z"/><path class="cls-6" d="M56.06,13.1a1.3,1.3,0,0,1-.1.27,1.32,1.32,0,0,1-.16.25,1,1,0,0,1-.21.19.53.53,0,0,1-.28.07.52.52,0,0,1-.23-.05.38.38,0,0,1-.15-.13.46.46,0,0,1,0-.2v0a.56.56,0,0,1,0-.21c.07-.14.12-.28.18-.43s.1-.28.14-.43a1.43,1.43,0,0,0,.07-.28v-.08a.51.51,0,0,0,0-.17.23.23,0,0,0-.24-.17.8.8,0,0,0-.52.18,1.71,1.71,0,0,0-.37.49c-.06.23-.13.45-.19.67s-.13.45-.2.67a.18.18,0,0,1-.09.12.27.27,0,0,1-.14,0,.16.16,0,0,1-.12,0,.09.09,0,0,1,0-.07.07.07,0,0,1,0,0l.38-1.31a1.4,1.4,0,0,0,.06-.28v-.08a1,1,0,0,0,0-.17.24.24,0,0,0-.25-.17.76.76,0,0,0-.51.18,1.73,1.73,0,0,0-.38.49l-.39,1.34a.23.23,0,0,1-.1.12.23.23,0,0,1-.14,0,.15.15,0,0,1-.11,0,.08.08,0,0,1,0-.07v0l.44-1.53a1,1,0,0,0,0-.28v-.06a.14.14,0,0,0-.16-.14c-.09,0-.17.06-.23.19a2.37,2.37,0,0,0-.17.48.08.08,0,0,1-.08,0h-.06a0,0,0,0,1,0,0h0c0-.08.05-.16.08-.25a.85.85,0,0,1,.11-.26.61.61,0,0,1,.17-.19.37.37,0,0,1,.25-.09.5.5,0,0,1,.35.12.42.42,0,0,1,.13.3,1.17,1.17,0,0,1,.37-.3,1,1,0,0,1,.48-.12.81.81,0,0,1,.31.06.39.39,0,0,1,.21.17.52.52,0,0,1,.08.23,1.19,1.19,0,0,1,.38-.33,1,1,0,0,1,.5-.13.73.73,0,0,1,.3.06.38.38,0,0,1,.22.17.5.5,0,0,1,.08.27h0a1.67,1.67,0,0,1-.05.31l-.15.44-.18.44a.86.86,0,0,0-.09.34.13.13,0,0,0,.14.14.33.33,0,0,0,.19-.06,1,1,0,0,0,.15-.14,1.45,1.45,0,0,0,.12-.22l.09-.25a.07.07,0,0,1,.07,0h.1v0Z"/><path class="cls-6" d="M60.24,11.37a.06.06,0,0,1,0,.05v0a.16.16,0,0,1-.06.08l-1.51,1,.91,1a.05.05,0,0,1,0,0v0a.13.13,0,0,1-.06.07l-.1,0a.09.09,0,0,1-.07,0l-.9-1.05L57,13.75a.12.12,0,0,1-.16,0,.06.06,0,0,1,0,0v0a.13.13,0,0,1,.06-.07l1.5-1-.9-1s0,0,0,0v0a.19.19,0,0,1,.06-.07l.08,0a.11.11,0,0,1,.08,0l.9,1.05,1.5-1.05.09,0A.11.11,0,0,1,60.24,11.37Z"/><path class="cls-6" d="M63.77,13.1a2.33,2.33,0,0,1-.1.27,1.32,1.32,0,0,1-.16.25,1.3,1.3,0,0,1-.22.19.51.51,0,0,1-.28.07.56.56,0,0,1-.23-.05.35.35,0,0,1-.14-.13.47.47,0,0,1-.06-.2v0a.58.58,0,0,1,.05-.21l.18-.43c0-.14.1-.28.14-.43a1.4,1.4,0,0,0,.06-.28s0-.06,0-.09a.45.45,0,0,0,0-.16.23.23,0,0,0-.24-.17.76.76,0,0,0-.51.18,1.49,1.49,0,0,0-.38.49l-.39,1.34a.23.23,0,0,1-.23.16.12.12,0,0,1-.11,0,.09.09,0,0,1,0-.07v0l.44-1.53a1.11,1.11,0,0,0,.05-.28v-.06a.16.16,0,0,0-.17-.14c-.09,0-.17.06-.23.19a3.2,3.2,0,0,0-.17.48.08.08,0,0,1-.07,0h-.07a0,0,0,0,1,0,0h0c0-.08,0-.16.08-.25a.85.85,0,0,1,.11-.26.61.61,0,0,1,.17-.19.37.37,0,0,1,.25-.09.5.5,0,0,1,.35.12.41.41,0,0,1,.13.29,1.43,1.43,0,0,1,.37-.29,1,1,0,0,1,.48-.12.73.73,0,0,1,.3.06.33.33,0,0,1,.21.17.44.44,0,0,1,.09.27h0a1.67,1.67,0,0,1-.05.31l-.15.44-.18.44a.86.86,0,0,0-.09.34.13.13,0,0,0,.14.14.33.33,0,0,0,.19-.06,1,1,0,0,0,.15-.14,1.45,1.45,0,0,0,.12-.22,1.83,1.83,0,0,0,.08-.25s0,0,.07,0h.07s0,0,0,0Z"/><path class="cls-6" d="M66.55,12.53a2.82,2.82,0,0,1-.44,1,3.55,3.55,0,0,1-.75.8h-.13v0s0,0,0,0,0-.05,0-.08a3.23,3.23,0,0,0,.7-.73,3.1,3.1,0,0,0,.4-.87l0-.14a.42.42,0,0,1-.18.11.64.64,0,0,1-.24.05.31.31,0,0,1-.32-.16.34.34,0,0,1-.06-.2.5.5,0,0,1,0-.12.72.72,0,0,1,.2-.33.58.58,0,0,1,.41-.15.36.36,0,0,1,.26.09.46.46,0,0,1,.12.23,1.12,1.12,0,0,1,0,.2v.09A1.61,1.61,0,0,1,66.55,12.53Z"/><path class="cls-6" d="M74.71,6.86q.9.88,1.26,1.29l-.54.44a14.75,14.75,0,0,0-1.19-1.33Zm1.65,4.41a3.84,3.84,0,0,0,.15.65c-.62.6-1.09,1.08-1.41,1.43l-.44-.49a1.25,1.25,0,0,0,.23-.74V9.77H74V9.24h1.52v2.91C75.72,11.93,76,11.64,76.36,11.27Zm-.45,1.88H77V9h.59v4.14h1.22V7.68H76.33V7.13h5.14v.55H79.41V9.93h1.78v.56H79.41v2.66h2.18v.55H75.91Z"/><path class="cls-6" d="M84.08,7.89H82.82V9.6h1.26Zm0,4V10.13H82.82v1.75Zm4.28-4.21H86.2v1.4h2.16ZM86.14,11h2.22V9.61H86.2C86.2,10.12,86.18,10.6,86.14,11ZM82.25,7.34h2.41v5.09H82.82V13h-.57Zm2.31,6.81a4.62,4.62,0,0,0-.5-.46,4.37,4.37,0,0,0,1.24-1.6,7.07,7.07,0,0,0,.29-2.35V7.11H89v6.05a.79.79,0,0,1-.89.89l-1.31,0c0-.2-.07-.4-.11-.61.51,0,.92,0,1.23,0s.47-.15.47-.44V11.57h-2.3A4.4,4.4,0,0,1,84.56,14.15Z"/><path class="cls-6" d="M92.17,12.07a.6.6,0,0,1-.23.34.64.64,0,0,1-.39.14.34.34,0,0,1-.3-.15.32.32,0,0,1-.08-.21.74.74,0,0,1,0-.12.6.6,0,0,1,.23-.34.64.64,0,0,1,.38-.14.4.4,0,0,1,.32.14.42.42,0,0,1,.06.21A.62.62,0,0,1,92.17,12.07Zm.76-2.93a.71.71,0,0,1-.23.34.64.64,0,0,1-.39.14A.37.37,0,0,1,92,9.48a.33.33,0,0,1-.08-.22.5.5,0,0,1,0-.12.63.63,0,0,1,.23-.34.64.64,0,0,1,.38-.14.39.39,0,0,1,.32.14.36.36,0,0,1,.07.22A.49.49,0,0,1,92.93,9.14Z"/><path class="cls-6" d="M106.52,7.25l-1.72,3h1.93Zm1.82,5.2a.15.15,0,0,1-.13.1q-.45,0-.9,0h-.15c-.35,0-.71,0-1.06,0a.08.08,0,0,1-.09-.07v0l0-.08a.12.12,0,0,1,.13-.1h.31a.92.92,0,0,0,.27-.08l.09-.08a.16.16,0,0,0,0-.09v0l-.11-1.5h-2.12l-.73,1.25a.4.4,0,0,0-.07.21.27.27,0,0,0,.06.17.44.44,0,0,0,.4.16q.09,0,.09.06a.06.06,0,0,1,0,0l0,.08a.14.14,0,0,1-.13.1l-.82,0h-.12q-.36,0-.72,0a.06.06,0,0,1-.06,0s0,0,0,0a0,0,0,0,1,0,0v-.08a.13.13,0,0,1,.14-.1,1.43,1.43,0,0,0,.29,0,1,1,0,0,0,.28-.12.87.87,0,0,0,.23-.2,1.06,1.06,0,0,0,.2-.26l3.2-5.47a.17.17,0,0,1,.16-.1h.09a.11.11,0,0,1,.12.1l.4,5.73a.5.5,0,0,0,0,.19.16.16,0,0,0,.08.1.44.44,0,0,0,.23,0h.33q.09,0,.09.06v0Z"/><path class="cls-6" d="M112.54,9.88a.56.56,0,1,1-.56-.55A.56.56,0,0,1,112.54,9.88Z"/><path class="cls-6" d="M119.64,7.25l-1.72,3h1.93Zm1.82,5.2a.14.14,0,0,1-.13.1q-.45,0-.9,0h-.15c-.35,0-.71,0-1.06,0a.08.08,0,0,1-.09-.07v0l0-.08a.12.12,0,0,1,.13-.1h.31a.92.92,0,0,0,.27-.08l.09-.08a.16.16,0,0,0,0-.09v0l-.11-1.5h-2.12L117,11.73a.48.48,0,0,0-.06.21.26.26,0,0,0,.05.17.46.46,0,0,0,.41.16s.08,0,.08.06a.06.06,0,0,1,0,0v.08a.15.15,0,0,1-.14.1c-.27,0-.55,0-.82,0h-.12c-.24,0-.47,0-.72,0a.06.06,0,0,1-.06,0,.05.05,0,0,1,0,0s0,0,0,0l0-.08a.12.12,0,0,1,.13-.1l.3,0a.83.83,0,0,0,.27-.12.91.91,0,0,0,.24-.2,1.34,1.34,0,0,0,.19-.26L120,6.19a.17.17,0,0,1,.16-.1h.09a.11.11,0,0,1,.12.1l.4,5.73a.5.5,0,0,0,0,.19.16.16,0,0,0,.08.1.44.44,0,0,0,.23,0h.33q.09,0,.09.06v0Z"/><path class="cls-6" d="M125.45,6.58s0,0,0,0,0,0,0,0h-.05s0,0,0,0v0c0-.07,0-.15,0-.23l0-.22V6.06a.37.37,0,0,0,0-.11.5.5,0,0,0,0-.13.42.42,0,0,0-.23-.12,1.08,1.08,0,0,0-.32,0h-.31a.75.75,0,0,0-.2,0,.44.44,0,0,0-.06.17l-.8,2.74a.35.35,0,0,1,0,.06.07.07,0,0,0,.06.08,1.09,1.09,0,0,0,.26,0H124s0,0,0,0v.06a.08.08,0,0,1-.09.06l-.94,0-.94,0,0,0V8.83s0,0,0,0l0,0h.36l.28,0c.06,0,.1-.06.12-.14l.79-2.74a.5.5,0,0,0,0-.14v0a.53.53,0,0,0-.18,0h-.32a2,2,0,0,0-.34,0,.79.79,0,0,0-.3.12.77.77,0,0,0-.12.13l-.1.18a2.14,2.14,0,0,0-.1.22,2.44,2.44,0,0,0-.1.24.09.09,0,0,1-.08,0H122v0s0,0,0,0a5.17,5.17,0,0,1,.18-.51l.21-.52a.07.07,0,0,1,.08,0h3.13s0,0,0,0v0Z"/><path class="cls-6" d="M101.5,14.24a5.18,5.18,0,0,1,0-8.71H102a5.47,5.47,0,0,0,0,8.71"/><path class="cls-6" d="M127.66,5.53a5.18,5.18,0,0,1,0,8.71h-.47a5.46,5.46,0,0,0,0-8.71"/><path class="cls-6" d="M131.67,12a9.17,9.17,0,0,0,1.39-2.51h-1.34V9h1.47V7.83c-.4.06-.81.12-1.22.16a4.35,4.35,0,0,0-.17-.51A27.46,27.46,0,0,0,134.9,7l.18.52c-.43.09-.86.17-1.31.24V9h1.44v.51h-1.44v1l.28-.27c.4.34.8.69,1.19,1.07l-.44.44a14.44,14.44,0,0,0-1-1.06v3.48h-.58V10.56A9.49,9.49,0,0,1,132,12.68C131.88,12.48,131.78,12.27,131.67,12Zm6.71-3.82h-2.17v4.43h2.17Zm-2.78-.55H139V13.9h-.62v-.72h-2.17v.72h-.61Z"/><path class="cls-6" d="M148.39,7.25l-1.72,3h1.93Zm1.82,5.2a.15.15,0,0,1-.13.1l-.9,0H149c-.35,0-.71,0-1.06,0-.06,0-.09,0-.09-.07v0l0-.08a.12.12,0,0,1,.13-.1h.3a.77.77,0,0,0,.27-.08.24.24,0,0,0,.09-.08.36.36,0,0,0,0-.09v0l-.12-1.5H146.5l-.73,1.25a.4.4,0,0,0-.07.21.27.27,0,0,0,.06.17.44.44,0,0,0,.4.16q.09,0,.09.06a.06.06,0,0,1,0,0l0,.08a.13.13,0,0,1-.13.1l-.82,0h-.12q-.36,0-.72,0a.06.06,0,0,1-.06,0,.05.05,0,0,1,0,0,0,0,0,0,1,0,0l0-.08a.11.11,0,0,1,.13-.1,1.36,1.36,0,0,0,.29,0,1,1,0,0,0,.28-.12.91.91,0,0,0,.24-.2,1.34,1.34,0,0,0,.19-.26l3.19-5.47a.2.2,0,0,1,.17-.1H149c.07,0,.11,0,.11.1l.4,5.73c0,.08,0,.14,0,.19a.18.18,0,0,0,.09.1.4.4,0,0,0,.22,0h.34c.06,0,.08,0,.08.06a.06.06,0,0,1,0,0Z"/><path class="cls-6" d="M154.2,6.58l0,0s0,0,0,0h-.05s0,0,0,0v0c0-.07,0-.15,0-.23a1.8,1.8,0,0,0,0-.22V6a.29.29,0,0,0-.05-.13.4.4,0,0,0-.22-.12,1.12,1.12,0,0,0-.32,0h-.32a.66.66,0,0,0-.19,0,.6.6,0,0,0-.07.17l-.79,2.74a.18.18,0,0,0,0,.06s0,.07,0,.08a1.3,1.3,0,0,0,.26,0h.36s.05,0,.05,0v.06s0,.06-.08.06l-.94,0-.95,0a.05.05,0,0,1,0,0s0,0,0,0V8.83s0,0,0,0l0,0h.36a1.3,1.3,0,0,0,.27,0,.17.17,0,0,0,.13-.14l.79-2.74a.5.5,0,0,0,0-.14,0,0,0,0,0,0,0,.41.41,0,0,0-.17,0H152a1.86,1.86,0,0,0-.34,0,.79.79,0,0,0-.3.12.77.77,0,0,0-.12.13s-.07.12-.11.18l-.1.22-.09.24a.1.1,0,0,1-.08,0h-.09v0a5.27,5.27,0,0,1,.19-.51l.21-.52s0,0,.08,0h3.13s0,0,0,0v0Z"/><path class="cls-6" d="M158.8,9.88a.56.56,0,1,1-.56-.55A.56.56,0,0,1,158.8,9.88Z"/><path class="cls-6" d="M165.9,7.25l-1.72,3h1.93Zm1.82,5.2a.15.15,0,0,1-.13.1q-.45,0-.9,0h-.15c-.35,0-.71,0-1.06,0-.06,0-.09,0-.09-.07v0l0-.08a.12.12,0,0,1,.13-.1h.31a.92.92,0,0,0,.27-.08l.09-.08a.32.32,0,0,0,0-.09v0l-.12-1.5H164l-.73,1.25a.52.52,0,0,0-.07.21.27.27,0,0,0,.06.17.45.45,0,0,0,.41.16s.08,0,.08.06a.06.06,0,0,1,0,0v.08a.15.15,0,0,1-.14.1c-.27,0-.55,0-.82,0h-.12q-.36,0-.72,0a.06.06,0,0,1-.06,0,.05.05,0,0,1,0,0,0,0,0,0,1,0,0l0-.08a.12.12,0,0,1,.13-.1l.3,0a.93.93,0,0,0,.27-.12.91.91,0,0,0,.24-.2,1.34,1.34,0,0,0,.19-.26l3.2-5.47a.17.17,0,0,1,.16-.1h.09a.11.11,0,0,1,.12.1l.39,5.73c0,.08,0,.14,0,.19a.22.22,0,0,0,.09.1.42.42,0,0,0,.22,0h.34q.09,0,.09.06v0Z"/><path class="cls-6" d="M143.37,14.24a5.19,5.19,0,0,1,0-8.71h.47a5.47,5.47,0,0,0,0,8.71"/><path class="cls-6" d="M168.72,5.53a5.18,5.18,0,0,1,0,8.71h-.46a5.47,5.47,0,0,0,0-8.71"/><path class="cls-6" d="M178.4,9.55h-3.61l-.25,1.65h3.74ZM172.93,13h5.21l.1-1.29H173.9V11.2l.48-3.29H173.2V7.37H180v.54H175L174.86,9h4.22l-.29,4h1.46v.52h-7.32Z"/><path class="cls-6" d="M181.44,7.22l.42-.38c.44.36.85.73,1.24,1.11l-.47.43C182.25,8,181.85,7.59,181.44,7.22Zm3.12,3.41.43-.37c.49.44.94.88,1.34,1.31l-.48.42C185.45,11.53,185,11.08,184.56,10.63ZM180.9,8.7h2.9a17.37,17.37,0,0,0,.11-2h.66a14.74,14.74,0,0,1-.11,2h3.27c0,1.54-.07,2.81-.13,3.81a1.35,1.35,0,0,1-1.53,1.4c-.4,0-.87,0-1.42,0a6.31,6.31,0,0,0-.12-.69,11.56,11.56,0,0,0,1.43.09.85.85,0,0,0,1-.88c.07-1,.11-2,.13-3.11h-2.68a6.83,6.83,0,0,1-3.17,4.91l-.47-.56a6,6,0,0,0,3-4.35H180.9Z"/><path class="cls-6" d="M192.1,9.89l.5-.29c.41.6.78,1.17,1.1,1.73l-.58.32C192.82,11.09,192.47,10.5,192.1,9.89ZM192,8.39h2.56V6.79h.62v1.6h.94V9h-.94v3.92A1,1,0,0,1,194,14H192.9a6.5,6.5,0,0,0-.12-.67c.51,0,.9.06,1.16.06a.51.51,0,0,0,.58-.57V9H192Zm-2.81.3,1.29,1.83A8.4,8.4,0,0,0,191,8.15H188.6V7.58h3.05v.54a10.33,10.33,0,0,1-.82,3L192,12.81l-.55.36-1-1.48a8.19,8.19,0,0,1-1.74,2.16c-.1-.16-.23-.34-.38-.55a7.6,7.6,0,0,0,1.75-2.16c-.48-.72-1-1.43-1.45-2.14Z"/><path class="cls-6" d="M199.93,10l.58.2a22.42,22.42,0,0,1-1.12,2.75c-.17-.08-.36-.16-.58-.24A21.35,21.35,0,0,0,199.93,10Zm2.11.21.53-.23a27.91,27.91,0,0,1,1.34,2.65l-.6.28C202.88,11.91,202.46,11,202,10.19Zm-1-1.42h.59v4.38a.77.77,0,0,1-.88.86l-.86,0c0-.18-.06-.38-.1-.6a6.37,6.37,0,0,0,.9.06c.23,0,.35-.13.35-.38Zm-4.83,3.32a9.63,9.63,0,0,0,1.3-2.58h-1.26V9h1.27V7.88L196.44,8a4.32,4.32,0,0,0-.14-.54c1.23-.12,2.2-.23,2.93-.36l.14.55-1.29.17V9h1v.18a12.23,12.23,0,0,0,1.29-2.46l.59.18c-.16.35-.31.67-.46,1h3.17V8.4q-.16.39-.6,1.26a4,4,0,0,0-.57-.23c.21-.44.37-.78.47-1h-2.74a11.24,11.24,0,0,1-.8,1.31c-.13-.14-.25-.26-.35-.35v.15h-1v.8l.27-.24a10.16,10.16,0,0,1,.93.92l-.4.38a11.79,11.79,0,0,0-.8-.87v3.63h-.55V10.84a9.07,9.07,0,0,1-1,1.86C196.43,12.49,196.33,12.29,196.22,12.09Z"/><path class="cls-6" d="M210.6,9.54h-2.54v1.78h2.54Zm-6.5.38h1.38c0-.45,0-1,0-1.54H205a6.79,6.79,0,0,1-.55,1.18,5.15,5.15,0,0,0-.4-.5,7.1,7.1,0,0,0,.84-2.36l.57.11a10,10,0,0,1-.28,1.05h1.91v.52h-1c0,.58,0,1.1,0,1.54h1.16v.52H206a6.53,6.53,0,0,1-.14,1l.37-.22c.4.59.76,1.15,1.08,1.69l-.52.31c-.3-.54-.62-1.08-1-1.62A4.22,4.22,0,0,1,204.44,14a4.32,4.32,0,0,0-.42-.45,4.36,4.36,0,0,0,1.42-3.13H204.1Zm3.37-2.71h4.17v.52h-3.58V9h3.12v3.24h-.58v-.43h-2.54V13.3h3.66v.52h-4.25Z"/><path class="cls-6" d="M214.5,11.28c.14,1-.1,1.5-.73,1.63a4.23,4.23,0,0,1-.75,0l-.14-.63a2.5,2.5,0,0,0,.67.06c.36,0,.48-.41.36-1.07a3.1,3.1,0,0,0-.69-1.35c.23-.74.44-1.46.63-2.17h-1v6.35h-.58V7.23h2.21v.53c-.34,1.11-.56,1.81-.66,2.07A3.35,3.35,0,0,1,214.5,11.28Zm.23.54H217v-1.1h-2.12v-.54a17.41,17.41,0,0,0,.89-1.89h-1V7.75H216c.12-.34.24-.68.35-1l.64.12c-.11.3-.23.6-.35.91h2.77v.54h-3c-.26.61-.53,1.24-.83,1.89H217V8.75h.65v1.43h1.56v.54h-1.56v1.1h1.84v.54h-1.84v1.76H217V12.36h-2.28Z"/><path class="cls-6" d="M221.87,12.07a.6.6,0,0,1-.23.34.62.62,0,0,1-.38.14.35.35,0,0,1-.31-.15.31.31,0,0,1-.07-.21.74.74,0,0,1,0-.12.58.58,0,0,1,.22-.34.64.64,0,0,1,.39-.14.42.42,0,0,1,.32.14.42.42,0,0,1,.06.21A.69.69,0,0,1,221.87,12.07Z"/><path class="cls-6" d="M7.84,26.93l.45-.33c.34.35.68.74,1,1.18l-.5.38A13.56,13.56,0,0,0,7.84,26.93Zm2.83.49.44-.33c.32.33.74.8,1.25,1.41l-.52.4C11.5,28.44,11.11,27.94,10.67,27.42Zm-5.28-.29.6.19a17.62,17.62,0,0,1-.76,1.8l-.56-.23A12.53,12.53,0,0,0,5.39,27.13Zm.75-2.78H8.22V23.24H6.14Zm4.75-1.11H8.81v1.11h2.08ZM6.14,26H8.22V24.85H6.14Zm2.67,0h2.08V24.85H8.81ZM6.66,27.16h.6v1.31c0,.35.16.53.47.53H9.4a.56.56,0,0,0,.58-.53,6.81,6.81,0,0,0,.11-.79c.15.07.35.14.6.23-.08.38-.14.67-.2.86a.94.94,0,0,1-1,.75H7.58a.83.83,0,0,1-.92-.95Zm-1.1-4.44h5.92v4.06h-.59V26.5H6.14v.28H5.56Z"/><path class="cls-6" d="M12.68,24.76h2.69v-.94H13.31v-.51h2.06v-.9H16v.9h1.62v.51H16v.94h.78A17.19,17.19,0,0,0,19,22.91l.47.39c-.58.53-1.17,1-1.76,1.46H20v.52H17c-.3.21-.59.41-.89.6h3.43v.51H15.92l-.32.66h3.08c-.1.84-.17,1.36-.22,1.55a1.09,1.09,0,0,1-1.22,1c-.52,0-1.08,0-1.68,0a5,5,0,0,0-.16-.64c.61.05,1.19.07,1.73.07a.66.66,0,0,0,.73-.51,9,9,0,0,0,.15-.9H15v-.5l.34-.66h-.08a21.26,21.26,0,0,1-2.39,1.19c-.12-.19-.24-.37-.37-.54A20.72,20.72,0,0,0,16,25.28h-3.3Z"/><path class="cls-6" d="M22.91,27.72a.64.64,0,0,1-.62.47.34.34,0,0,1-.3-.14.32.32,0,0,1-.08-.21.74.74,0,0,1,0-.12.57.57,0,0,1,.23-.34.64.64,0,0,1,.38-.14.4.4,0,0,1,.32.14.39.39,0,0,1,.06.21A.62.62,0,0,1,22.91,27.72Zm.76-2.93a.67.67,0,0,1-.24.34.59.59,0,0,1-.38.14.37.37,0,0,1-.31-.14.34.34,0,0,1-.07-.22.49.49,0,0,1,0-.12.63.63,0,0,1,.23-.34.64.64,0,0,1,.38-.14.39.39,0,0,1,.32.14.34.34,0,0,1,.07.22A.49.49,0,0,1,23.67,24.79Z"/><path class="cls-6" d="M30.72,23.2h2v-.82h.6v.82h2.33v-.81h.62v.81h1.9v.54h-1.9v.73h-.62v-.73H33.33v.68h-.6v-.68h-2Zm5.88,4H32.78v1.58H36.6ZM30.73,25h2.84a5.56,5.56,0,0,0,.48-.81l.55.22a3.77,3.77,0,0,1-.32.59h3.8v.54H33.92a9.15,9.15,0,0,1-1,1.09H37.2v3.11h-.6v-.47H32.78v.49h-.6V27.26a12.86,12.86,0,0,1-1.15.79c-.15-.16-.31-.32-.47-.46a9.35,9.35,0,0,0,2.6-2H30.73Z"/><rect x="38.41" y="25.52" width="7.65" height="0.66"/><path class="cls-6" d="M50.54,22.56l-.11.17a6.91,6.91,0,0,0,3.46,2.86c-.16.24-.29.47-.41.67a8.57,8.57,0,0,1-3.42-3,10.13,10.13,0,0,1-3.46,3.08q-.16-.27-.39-.6a9.07,9.07,0,0,0,3.57-3.21Zm-.84,2.57h.7v4.63h-.7Z"/><path class="cls-6" d="M60.59,25.19H58.06V27h2.53Zm-6.5.38h1.39c0-.45,0-1,0-1.54H55a6.8,6.8,0,0,1-.56,1.18,3.92,3.92,0,0,0-.39-.5,7.1,7.1,0,0,0,.84-2.36l.57.1a9.59,9.59,0,0,1-.28,1.06h1.91V24h-1c0,.58,0,1.09,0,1.54h1.16v.52H56a6.67,6.67,0,0,1-.15,1l.37-.22c.41.59.77,1.15,1.09,1.69l-.52.31c-.3-.55-.63-1.09-1-1.62a4.24,4.24,0,0,1-1.42,2.38,5.67,5.67,0,0,0-.42-.46,4.34,4.34,0,0,0,1.43-3.12H54.09Zm3.38-2.71h4.16v.52H58.06v1.3h3.11v3.24h-.58v-.43H58.06v1.45H61.7v.53H57.47Z"/><path class="cls-6" d="M64.49,26.93c.14,1-.11,1.5-.73,1.63a4.61,4.61,0,0,1-.76,0c0-.19-.08-.4-.13-.62a2.5,2.5,0,0,0,.67.06c.36-.05.48-.41.36-1.07a3.24,3.24,0,0,0-.7-1.35c.24-.74.45-1.46.64-2.18h-1v6.36h-.57V22.88h2.21v.52c-.34,1.12-.57,1.81-.66,2.08A3.35,3.35,0,0,1,64.49,26.93Zm.23.54H67v-1.1H64.88v-.54a18.35,18.35,0,0,0,.89-1.89h-1V23.4H66c.12-.34.24-.68.35-1l.64.13c-.11.3-.23.6-.35.91h2.77v.54h-3c-.26.61-.53,1.24-.83,1.89H67V24.4h.65v1.43h1.57v.54H67.65v1.1h1.84V28H67.65v1.76H67V28H64.72Z"/><path class="cls-6" d="M75.58,23.19H71.52v.65h4.06ZM71.52,25h4.06v-.66H71.52Zm-.2,1.91.58.17a5.4,5.4,0,0,1-.28.74,2.4,2.4,0,0,0,1.74,1.1V26.66H69.85v-.52h7.41v.52H74v.75h2.74v.51H74v1c1,0,2.13,0,3.42,0-.08.21-.15.41-.21.59-1.51,0-2.67,0-3.48,0a2.59,2.59,0,0,1-2.35-1.18A4.53,4.53,0,0,1,70,29.82c-.1-.15-.23-.31-.37-.49A4,4,0,0,0,71.32,26.9Zm-.39-4.22h5.24V25.8h-.59v-.3H71.52v.3h-.59Z"/><path class="cls-6" d="M81.22,25.54l.5-.29c.42.59.78,1.17,1.1,1.73l-.57.32C81.94,26.74,81.6,26.15,81.22,25.54ZM81.08,24h2.57v-1.6h.62V24h.94v.57h-.94v3.92a1,1,0,0,1-1.1,1.08H82c0-.18-.07-.41-.12-.67.51,0,.89.06,1.16.06a.51.51,0,0,0,.58-.57V24.61H81.08Zm-2.81.3c.45.62.88,1.23,1.29,1.82a7.92,7.92,0,0,0,.58-2.37H77.73v-.57h3v.55A10.32,10.32,0,0,1,80,26.72c.41.6.82,1.18,1.21,1.74l-.56.36c-.32-.49-.64-1-1-1.48A8.61,8.61,0,0,1,77.9,29.5L77.52,29a7.68,7.68,0,0,0,1.75-2.17l-1.46-2.13Z"/><path class="cls-6" d="M89.06,25.62l.58.21a23.09,23.09,0,0,1-1.12,2.75c-.17-.08-.36-.16-.58-.24A20.93,20.93,0,0,0,89.06,25.62Zm2.11.22.53-.23A27.91,27.91,0,0,1,93,28.26l-.6.28C92,27.55,91.59,26.65,91.17,25.84Zm-1-1.43h.59V28.8a.77.77,0,0,1-.88.85c-.24,0-.52,0-.86,0,0-.18-.06-.38-.1-.6a6.37,6.37,0,0,0,.9.06c.23,0,.35-.13.35-.38Zm-4.83,3.33a10.09,10.09,0,0,0,1.3-2.58H85.38v-.51h1.28V23.52l-1.09.12c0-.17-.08-.35-.14-.54,1.23-.12,2.2-.24,2.93-.36l.14.54-1.29.18v1.19h1v.18a12.06,12.06,0,0,0,1.29-2.47l.59.19c-.16.35-.31.67-.46,1H92.8v.53c-.11.26-.31.68-.6,1.25a4,4,0,0,0-.57-.22c.21-.44.37-.78.48-1H89.36a12.8,12.8,0,0,1-.8,1.31L88.21,25v.16h-1V26l.27-.24q.58.54.93.93L88,27a11.79,11.79,0,0,0-.8-.87v3.63h-.55v-3.3a8.9,8.9,0,0,1-1,1.87C85.56,28.14,85.46,27.94,85.35,27.74Z"/><path class="cls-6" d="M97.27,25.67l.47-.34c.57.66,1,1.22,1.36,1.7l-.57.39A16.94,16.94,0,0,0,97.27,25.67Zm-1.41-1.48H94.13V26h1.73Zm-1.73,4.25h1.73v-1.9H94.13Zm2.46-3.28a11.17,11.17,0,0,0,1.23-2.77l.64.15c-.13.38-.26.73-.4,1.07h2.48q-.09,3.84-.15,4.83a1.12,1.12,0,0,1-1.27,1.18c-.47,0-1,0-1.43-.05a4.92,4.92,0,0,0-.12-.66h0A10.48,10.48,0,0,0,99,29a.68.68,0,0,0,.75-.72c.06-.74.1-2.11.13-4.12H97.82a11.32,11.32,0,0,1-.7,1.27A2.58,2.58,0,0,0,96.59,25.16Zm-3.08-1.53h.78c.19-.45.35-.87.47-1.24l.65.18-.47,1.06h1.54v5.95h-.62V29H94.13v.63h-.62Z"/><path class="cls-6" d="M103.13,28.18a3.06,3.06,0,0,1-.45.95,3.3,3.3,0,0,1-.75.79.12.12,0,0,1-.08,0,.06.06,0,0,1,0,0h0a.17.17,0,0,1,0-.05.1.1,0,0,1,0-.08,3.22,3.22,0,0,0,.7-.73,2.84,2.84,0,0,0,.4-.87l0-.14a.42.42,0,0,1-.18.11.61.61,0,0,1-.24,0,.33.33,0,0,1-.32-.15.34.34,0,0,1-.06-.2.5.5,0,0,1,0-.12.72.72,0,0,1,.2-.33.59.59,0,0,1,.41-.15.36.36,0,0,1,.26.09.46.46,0,0,1,.12.23,1.12,1.12,0,0,1,0,.2v.09A3.26,3.26,0,0,1,103.13,28.18Z"/><path class="cls-6" d="M114.37,29.51c-.51-.51-1.06-1-1.65-1.54a3.88,3.88,0,0,1-1.85,1.84c-.11-.15-.24-.32-.38-.49a3.12,3.12,0,0,0,1.84-2.05,14.8,14.8,0,0,0,.19-3.34h.6a17.38,17.38,0,0,1-.21,3.5c.61.46,1.26,1,2,1.6Zm-3.3-6.66h3.42v4.82h-.59V23.38h-2.24v4.29h-.59Zm5,4.95h-.61V23.19h.61Zm1-5.27h.62v6.21a.82.82,0,0,1-.93.92c-.28,0-.68,0-1.2,0q0-.25-.12-.66c.52,0,.9.07,1.12.07s.51-.16.51-.49Z"/><path class="cls-6" d="M121.23,22.76l.43-.38q.7.61,1.38,1.29l-.47.44C122.23,23.73,121.79,23.28,121.23,22.76Zm3,2.48.54-.26c.42.71.79,1.43,1.14,2.15l-.61.32C125.07,26.79,124.72,26.05,124.28,25.24Zm-5-.74.59.18a20.2,20.2,0,0,1-.85,2.66c-.17-.08-.36-.16-.58-.24A19.48,19.48,0,0,0,119.25,24.5Zm-.87,4.2a15.52,15.52,0,0,0,2-1.21V23.66h.6V27A13.38,13.38,0,0,0,124.43,23l.58.28a14.92,14.92,0,0,1-4,4.58v.46c0,.34.16.51.49.51h1.94a.54.54,0,0,0,.6-.49,6.39,6.39,0,0,0,.11-1c.26.1.47.17.64.22a9,9,0,0,1-.2,1.05.94.94,0,0,1-1,.75h-2.2a.84.84,0,0,1-.94-1v-.14a17.86,17.86,0,0,1-1.58.95A4.16,4.16,0,0,0,118.38,28.7Z"/><path class="cls-6" d="M132.23,25.24h-3.88v.89h3.88Zm-3.88,2.29h3.88v-.9h-3.88Zm0,2.2h-.61V25.86a14.32,14.32,0,0,1-1.24,1.22,5.3,5.3,0,0,0-.37-.55,9.55,9.55,0,0,0,2.33-2.68h-2.11V23.3h2.4a8,8,0,0,0,.38-1l.64.15c-.1.27-.22.54-.34.81h4.35v.55h-4.63a9.35,9.35,0,0,1-.52.86h4.22v4a.82.82,0,0,1-.94.92h-1.23c0-.17-.07-.37-.12-.61.47,0,.85,0,1.14,0a.46.46,0,0,0,.53-.51V28h-3.88Z"/><path class="cls-6" d="M141.71,21.7a.1.1,0,0,1-.11.1h-.73l-2.13,8.29h.72s.08,0,.08.07v0l0,.16a.11.11,0,0,1-.12.1h-1a.09.09,0,0,1-.07,0s0,0,0,0a0,0,0,0,1,0,0l2.25-8.81a.14.14,0,0,1,.14-.1h1a.06.06,0,0,1,.07.07v0Z"/><path class="cls-6" d="M142.47,27.72a.63.63,0,0,1-.23.34.62.62,0,0,1-.38.13.34.34,0,0,1-.31-.14.31.31,0,0,1-.07-.21.57.57,0,0,1,0-.12.57.57,0,0,1,.23-.34.64.64,0,0,1,.38-.14.39.39,0,0,1,.32.14.39.39,0,0,1,.06.21A.62.62,0,0,1,142.47,27.72Z"/><path class="cls-6" d="M145.24,27.72a.63.63,0,0,1-.23.34.62.62,0,0,1-.38.13.34.34,0,0,1-.31-.14.31.31,0,0,1-.07-.21.3.3,0,0,1,0-.12.55.55,0,0,1,.22-.34.64.64,0,0,1,.39-.14.38.38,0,0,1,.31.14.33.33,0,0,1,.07.21A.69.69,0,0,1,145.24,27.72Z"/><path class="cls-6" d="M148,27.72a.63.63,0,0,1-.23.34.62.62,0,0,1-.38.13.34.34,0,0,1-.31-.14.31.31,0,0,1-.07-.21.3.3,0,0,1,0-.12.55.55,0,0,1,.22-.34.64.64,0,0,1,.39-.14.38.38,0,0,1,.31.14.33.33,0,0,1,.07.21A.69.69,0,0,1,148,27.72Z"/><path class="cls-6" d="M149.77,30.35a.14.14,0,0,1-.13.1h-1a.08.08,0,0,1-.08-.07v0l0-.16a.11.11,0,0,1,.12-.1h.71l2.14-8.29h-.72s-.07,0-.07-.07v0l0-.16a.12.12,0,0,1,.13-.1h1a.09.09,0,0,1,.07,0,0,0,0,0,1,0,0,.06.06,0,0,1,0,0Z"/><path class="cls-6" d="M156.85,22.23s0,0,0,0l0,0h-.05s-.05,0-.05,0h0c0-.07,0-.15,0-.23l0-.23v-.07a.37.37,0,0,0,0-.11.4.4,0,0,0,0-.13.52.52,0,0,0-.23-.13,1.58,1.58,0,0,0-.32,0h-.31a.75.75,0,0,0-.2,0,.44.44,0,0,0-.06.16l-.81,2.75s0,.05,0,.06a.07.07,0,0,0,.06.08.91.91,0,0,0,.27,0h.35s0,0,0,0v.07s0,.05-.09.05h-1.94s0,0,0,0v-.06s0,0,0,0l.05,0h.36a1,1,0,0,0,.28,0c.06,0,.1-.06.12-.14l.8-2.75a.45.45,0,0,0,0-.13v0a.53.53,0,0,0-.18,0h-.33a1.32,1.32,0,0,0-.34,0,.79.79,0,0,0-.3.12.51.51,0,0,0-.12.13,1.45,1.45,0,0,0-.1.18l-.11.22-.09.24a.09.09,0,0,1-.08.05h-.05l0,0s0,0,0,0a0,0,0,0,1,0,0,5.17,5.17,0,0,1,.18-.51l.21-.52a.08.08,0,0,1,.08-.06H157a0,0,0,0,1,0,0v0Z"/><line class="cls-7" x1="159.88" y1="24.59" x2="166.18" y2="24.59"/><line class="cls-7" x1="159.88" y1="26.48" x2="166.18" y2="26.48"/><path class="cls-6" d="M172.2,21.7a.1.1,0,0,1-.11.1h-.73l-2.13,8.29H170c.05,0,.08,0,.08.07v0l-.05.16a.11.11,0,0,1-.12.1h-1a.09.09,0,0,1-.07,0s0,0,0,0a0,0,0,0,1,0,0l2.25-8.81a.13.13,0,0,1,.13-.1h1a.06.06,0,0,1,.07.07v0Z"/><path class="cls-6" d="M173,27.72a.64.64,0,0,1-.62.47.34.34,0,0,1-.3-.14.32.32,0,0,1-.08-.21.74.74,0,0,1,0-.12.57.57,0,0,1,.23-.34.64.64,0,0,1,.38-.14.4.4,0,0,1,.32.14.39.39,0,0,1,.06.21A.62.62,0,0,1,173,27.72Z"/><path class="cls-6" d="M175.73,27.72a.63.63,0,0,1-.23.34.62.62,0,0,1-.38.13.34.34,0,0,1-.31-.14.31.31,0,0,1-.07-.21.57.57,0,0,1,0-.12.57.57,0,0,1,.23-.34.64.64,0,0,1,.38-.14.39.39,0,0,1,.32.14.4.4,0,0,1,.07.21A.69.69,0,0,1,175.73,27.72Z"/><path class="cls-6" d="M178.5,27.72a.63.63,0,0,1-.23.34.62.62,0,0,1-.38.13.34.34,0,0,1-.31-.14.31.31,0,0,1-.07-.21.3.3,0,0,1,0-.12.55.55,0,0,1,.22-.34.64.64,0,0,1,.39-.14.38.38,0,0,1,.31.14.33.33,0,0,1,.07.21A.69.69,0,0,1,178.5,27.72Z"/><path class="cls-6" d="M180.26,30.35a.14.14,0,0,1-.13.1h-1a.08.08,0,0,1-.08-.07v0l.05-.16a.11.11,0,0,1,.12-.1H180l2.14-8.29h-.72c-.05,0-.07,0-.07-.07v0l0-.16a.12.12,0,0,1,.13-.1h1a.09.09,0,0,1,.07,0,0,0,0,0,1,0,0,.06.06,0,0,1,0,0Z"/><path class="cls-6" d="M33.8,36.27H32.42c0,.45,0,.87,0,1.23H33.8Zm0,1.76H32.4q0,.49,0,1.26h1.4C33.78,38.9,33.79,38.48,33.79,38Zm4.35,2.09c0,.93-.42,1.4-1.25,1.43a5.29,5.29,0,0,1-.8-.06c0-.18-.06-.41-.11-.69a3.18,3.18,0,0,0,.88.13c.43,0,.65-.29.65-.81a2.36,2.36,0,0,0-1.1-1.72q.57-1.23.93-2.16H35.87v6.39h-.58V35.7H38v.61c-.35.84-.65,1.49-.87,1.95A2.51,2.51,0,0,1,38.14,40.12Zm-7.46-.83h1.1c0-.15,0-.57,0-1.26H30.73V37.5h1.1c0-.36,0-.77,0-1.23H30.7v-.54h3.7c0,2.61,0,4.44-.1,5.51,0,.74-.37,1.11-1,1.11l-1.06,0a4.13,4.13,0,0,0-.13-.61,10.5,10.5,0,0,0,1.09.08c.35,0,.53-.22.55-.63s0-.83,0-1.34H32.32A4.4,4.4,0,0,1,31,42.63a5.14,5.14,0,0,0-.4-.5,3.73,3.73,0,0,0,1.15-2.31H30.68Z"/><path class="cls-6" d="M38.37,39.18a13.86,13.86,0,0,0,3.55-4l.63.31a14.29,14.29,0,0,1-3.7,4.14A5.43,5.43,0,0,0,38.37,39.18Zm5.66.06c.69.95,1.34,1.92,2,2.89l-.62.37L45,41.84c-2.44.13-4,.23-4.59.28a7.94,7.94,0,0,0-1,.13l-.31-.65A3.21,3.21,0,0,0,40,41a24.63,24.63,0,0,0,3.52-4.36l.67.33a29.2,29.2,0,0,1-3.78,4.5c1,0,2.36-.1,4.19-.19-.39-.62-.77-1.19-1.13-1.72Z"/><path class="cls-6" d="M51.61,35.94l.4-.4c.46.33.92.71,1.39,1.11l-.47.47A16.36,16.36,0,0,0,51.61,35.94Zm-2.68,5.67a11.7,11.7,0,0,0,2-1.17A10.07,10.07,0,0,1,50.5,38h-2v1.23L50.07,39q0,.34,0,.6l-1.6.29v1.76a.75.75,0,0,1-.84.86c-.35,0-.69,0-1,0a4,4,0,0,0-.13-.64,7.7,7.7,0,0,0,1,.08.32.32,0,0,0,.36-.36V40l-1.5.3-.16-.65,1.66-.27V38H46.21v-.56h1.65V36.36l-1.3.15a5.54,5.54,0,0,0-.17-.6,30.3,30.3,0,0,0,3.25-.44l.19.59-1.33.21v1.21h2c0-.61-.08-1.34-.12-2.21H51c0,.8,0,1.54.08,2.21h2.81V38H51.11a11,11,0,0,0,.32,2A8.68,8.68,0,0,0,52.9,38.4l.55.36a11.12,11.12,0,0,1-1.81,1.88,3,3,0,0,0,.51.87,1,1,0,0,0,.69.45c.11,0,.18-.09.23-.25a11.49,11.49,0,0,0,.22-1.27,4.09,4.09,0,0,0,.6.22c-.1.56-.19,1-.28,1.3a.76.76,0,0,1-.76.61,1.66,1.66,0,0,1-1.25-.77,3.28,3.28,0,0,1-.46-.78,11.7,11.7,0,0,1-1.82,1.06A2.78,2.78,0,0,0,48.93,41.61Z"/><path class="cls-6" d="M56.82,35.6l.46-.33c.47.53.79.91,1,1.15l-.54.37A12,12,0,0,0,56.82,35.6Zm0,6.89V37h.63v5.49ZM54,38.88a12.12,12.12,0,0,0,1.71-3.58l.6.23a16.06,16.06,0,0,1-.67,1.64v5.4h-.6V38.35a13,13,0,0,1-.8,1.23C54.22,39.37,54.14,39.14,54,38.88Zm7.26,2.43a1.42,1.42,0,0,1-.23.91,1.22,1.22,0,0,1-.86.28c-.31,0-.7,0-1.18,0,0-.15-.07-.36-.13-.61.43,0,.82,0,1.18,0a.6.6,0,0,0,.5-.18.94.94,0,0,0,.09-.49V36.49h-2v-.58H61.3Z"/><path class="cls-6" d="M64.48,40.09l.44-.27a11.26,11.26,0,0,1,.73,1l-.47.32A10.78,10.78,0,0,0,64.48,40.09Zm3-4.09.36-.39c.4.28.8.58,1.18.88l-.4.43C68.41,36.7,68,36.4,67.51,36Zm-4.74,3.93.5.19a9.44,9.44,0,0,1-.87,1.68,2.2,2.2,0,0,0-.49-.26A9.14,9.14,0,0,0,62.77,39.93Zm2.18-2H63V39h2Zm-3-1.67h1.9a7.22,7.22,0,0,0-.48-.82l.51-.24a7.31,7.31,0,0,1,.5.83l-.49.23h2v.51H62Zm.46,1.18h3v2.25H65v-.18h-.71V41.7c0,.51-.27.76-.79.76h-.68a2.85,2.85,0,0,0-.12-.58,4.17,4.17,0,0,0,.71.06.31.31,0,0,0,.34-.34v-2.1H63v.18h-.54Zm3.26-.05h.8c0-.39,0-1.1,0-2.12h.56c0,.94,0,1.65,0,2.12h2.25v.55H67.94V41.5c0,.23.09.35.28.35h.26c.22,0,.35-.15.39-.44a9.85,9.85,0,0,0,.1-1.14l.58.22c0,.44-.09.81-.13,1.1a.82.82,0,0,1-.87.8H68c-.44,0-.66-.26-.66-.79V37.92H67a6.67,6.67,0,0,1-1.74,4.72c-.13-.14-.28-.28-.44-.43a6,6,0,0,0,1.63-4.29H65.7Z"/><path class="cls-6" d="M70.92,37.4l.44-.35a12.07,12.07,0,0,1,1.08,1.17l-.51.41C71.67,38.28,71.33,37.87,70.92,37.4Zm3.67.89A12.65,12.65,0,0,0,75.69,37l.53.4c-.38.44-.78.86-1.19,1.25Zm2.79,3.14c-.17.21-.31.4-.43.57a8.17,8.17,0,0,1-3.12-2.25v2.86h-.59V39.7a11.48,11.48,0,0,1-3.14,2.39c-.11-.15-.25-.32-.42-.52a13.33,13.33,0,0,0,3.37-2.27H69.81v-.52h3.43v-2h-3v-.52h3V35.21h.59v1.08h3v.52h-3v2h3.43v.52H74A8.46,8.46,0,0,0,77.38,41.43Z"/><path class="cls-6" d="M79.78,40.81h3.86v-.52H79.78Zm3.86-1.51H79.78v.52h3.86Zm-3.86,2.51h3.86v-.54H79.78Zm-2.13-4H80c.13-.2.24-.4.35-.61H78.16v-.48h2.41a6,6,0,0,0,.23-.59l-2.67.07c0-.16-.06-.33-.1-.51q3.66-.06,6.47-.22l.09.5c-1.07.05-2.12.1-3.14.13a6.62,6.62,0,0,1-.24.62h3.35v.48H81c-.1.21-.21.41-.33.61h4.49v.48H80.36c-.13.19-.27.38-.42.56h4.25v3.76h-.55v-.3H79.78v.3h-.55V39.65a13.37,13.37,0,0,1-1.35,1.2,4.6,4.6,0,0,0-.37-.51,9.14,9.14,0,0,0,2.16-2.08h-2Z"/><path class="cls-6" d="M87.61,40.81h3.86v-.52H87.61Zm3.86-1.51H87.61v.52h3.86Zm-3.86,2.51h3.86v-.54H87.61Zm-2.13-4h2.35c.12-.2.24-.4.35-.61H86v-.48H88.4c.08-.19.16-.39.23-.59L86,36.17c0-.16-.06-.33-.11-.51q3.68-.06,6.48-.22l.09.5c-1.08.05-2.13.1-3.15.13a6.56,6.56,0,0,1-.23.62h3.35v.48H88.82c-.1.21-.21.41-.33.61H93v.48H88.18c-.13.19-.26.38-.41.56H92v3.76h-.55v-.3H87.61v.3h-.55V39.65a16,16,0,0,1-1.35,1.2c-.1-.16-.23-.33-.37-.51a9.53,9.53,0,0,0,2.16-2.08h-2Z"/><path class="cls-6" d="M105.76,35.75l-1.73,3H106Zm1.82,5.19a.13.13,0,0,1-.13.1l-.9,0h-.15l-1.07,0s-.08,0-.08-.07v0l0-.07a.12.12,0,0,1,.13-.11h.3a.5.5,0,0,0,.27-.08.18.18,0,0,0,.09-.08.16.16,0,0,0,0-.09v0L106,39h-2.12l-.73,1.25a.49.49,0,0,0-.06.22.3.3,0,0,0,.05.16.46.46,0,0,0,.41.16.08.08,0,0,1,.09.07s0,0,0,0l0,.07a.13.13,0,0,1-.13.1l-.83,0h-.12c-.24,0-.47,0-.71,0,0,0-.06,0-.07,0s0,0,0,0,0,0,0,0l0-.07a.13.13,0,0,1,.13-.11,1.53,1.53,0,0,0,.3,0,.81.81,0,0,0,.27-.11,1.16,1.16,0,0,0,.24-.2,1.57,1.57,0,0,0,.19-.26l3.2-5.48a.19.19,0,0,1,.17-.1h.09a.11.11,0,0,1,.11.1l.4,5.73c0,.08,0,.15,0,.19a.23.23,0,0,0,.08.11.61.61,0,0,0,.23,0h.34c.06,0,.08,0,.08.07a.08.08,0,0,1,0,0Z"/><path class="cls-6" d="M111.77,38.38a.55.55,0,0,1-1.1,0,.55.55,0,1,1,1.1,0Z"/><path class="cls-6" d="M118.88,35.75l-1.72,3h1.92Zm1.82,5.19a.13.13,0,0,1-.13.1l-.9,0h-.15l-1.07,0s-.08,0-.08-.07v0l0-.07a.12.12,0,0,1,.13-.11h.3a.5.5,0,0,0,.27-.08.18.18,0,0,0,.09-.08.36.36,0,0,0,0-.09v0L119.1,39H117l-.74,1.25a.49.49,0,0,0-.06.22.25.25,0,0,0,.06.16.44.44,0,0,0,.4.16c.06,0,.09,0,.09.07a.08.08,0,0,1,0,0l0,.07a.13.13,0,0,1-.13.1l-.82,0h-.13l-.71,0a.06.06,0,0,1-.06,0s0,0,0,0a.06.06,0,0,1,0,0l0-.07a.12.12,0,0,1,.13-.11,1.36,1.36,0,0,0,.29,0,1,1,0,0,0,.28-.11,1.1,1.1,0,0,0,.23-.2,1.64,1.64,0,0,0,.2-.26l3.19-5.48a.19.19,0,0,1,.17-.1h.09a.11.11,0,0,1,.11.1l.4,5.73c0,.08,0,.15,0,.19a.19.19,0,0,0,.09.11.51.51,0,0,0,.22,0h.34c.06,0,.08,0,.08.07a.08.08,0,0,1,0,0Z"/><path class="cls-6" d="M124.68,35.08a.08.08,0,0,1,0,0l0,0h0s0,0,0,0h0a1.85,1.85,0,0,1,0-.23,2,2,0,0,0,0-.23v-.18a.22.22,0,0,0,0-.13.36.36,0,0,0-.22-.13,1.66,1.66,0,0,0-.32,0h-.32a.42.42,0,0,0-.19,0,.34.34,0,0,0-.07.16l-.79,2.74a.2.2,0,0,0,0,.07.08.08,0,0,0,.05.08.84.84,0,0,0,.26,0h.36s0,0,0,0a0,0,0,0,1,0,0v0a.07.07,0,0,1-.08.06h-1.93v0l0,0s0,0,0,0h.41a.91.91,0,0,0,.27,0,.2.2,0,0,0,.13-.15l.79-2.74a.5.5,0,0,0,0-.14s0,0,0,0-.07,0-.18,0h-.31a1.87,1.87,0,0,0-.34,0,.81.81,0,0,0-.3.13.68.68,0,0,0-.12.12l-.11.19c0,.07-.07.14-.1.22a2.29,2.29,0,0,1-.1.23.07.07,0,0,1-.07.06h0s0,0,0,0v0a3.52,3.52,0,0,1,.19-.51l.21-.51a.08.08,0,0,1,.08-.06h3.13s0,0,0,0h0Z"/><path class="cls-6" d="M100.74,42.74a5.19,5.19,0,0,1,0-8.72h.46a5.48,5.48,0,0,0,0,8.72"/><path class="cls-6" d="M126.89,34a5.18,5.18,0,0,1,0,8.72h-.46a5.47,5.47,0,0,0,0-8.72"/><path class="cls-6" d="M136.8,36h-4.06v.65h4.06Zm-4.06,1.81h4.06v-.66h-4.06Zm-.2,1.9.58.17a5.54,5.54,0,0,1-.28.75,2.4,2.4,0,0,0,1.74,1.1V39.51h-3.5V39h7.4v.52H135.2v.75h2.74v.51H135.2v1c1,0,2.13,0,3.42,0-.08.21-.15.41-.21.59q-2.26,0-3.48,0a2.59,2.59,0,0,1-2.35-1.17,4.63,4.63,0,0,1-1.34,1.5,4.5,4.5,0,0,0-.37-.49A4,4,0,0,0,132.54,39.74Zm-.39-4.22h5.23v3.12h-.58v-.3h-4.06v.3h-.59Z"/><path class="cls-6" d="M143.09,37.27l.33-.44a31.09,31.09,0,0,1,3,1.66L146,39A31.08,31.08,0,0,0,143.09,37.27Zm1.65,2.52h-4.32v1.76h4.32Zm-5.67-4.12h7v.54h-2.88a7.08,7.08,0,0,1-.61.62h.33V39h-.62V37.09A14.69,14.69,0,0,1,139.15,39a3.64,3.64,0,0,0-.39-.55,13.27,13.27,0,0,0,3.71-2.26h-3.4Zm.72,3.59h5.57v3.32h-.62v-.5h-4.32v.51h-.63Z"/><path class="cls-6" d="M149.38,41.2l.36.45a26.79,26.79,0,0,1-2.68,1c-.08-.16-.17-.34-.28-.53A21.5,21.5,0,0,0,149.38,41.2Zm1.69.49.29-.47c.78.23,1.68.52,2.7.88l-.28.53C152.86,42.28,152,42,151.07,41.69Zm-2.72-2h4.11V39.2h-4.11Zm0-1h4.11v-.51h-4.11Zm4.11-1.46h-4.11v.51h4.11Zm-4.11,3.37h4.11v-.52h-4.11Zm-1.7,0h1.11V36.84H150V36.3h-3.26v-.48H150v-.59h.6v.59H154v.48h-3.4v.54H153v3.83h1.13v.48h-7.52Z"/><path class="cls-6" d="M158.49,38.52l.47-.34a21.34,21.34,0,0,1,1.36,1.7l-.57.39A15.93,15.93,0,0,0,158.49,38.52ZM157.08,37h-1.73v1.81h1.73Zm-1.73,4.24h1.73V39.39h-1.73ZM157.81,38A10.74,10.74,0,0,0,159,35.23l.64.16c-.13.38-.26.73-.4,1.06h2.48c-.06,2.56-.11,4.18-.15,4.84a1.11,1.11,0,0,1-1.27,1.17c-.47,0-.94,0-1.43,0a5.41,5.41,0,0,0-.12-.67h0a10.73,10.73,0,0,0,1.41.11.69.69,0,0,0,.76-.72c.05-.74.09-2.12.12-4.13H159a10.5,10.5,0,0,1-.7,1.27A2.87,2.87,0,0,0,157.81,38Zm-3.08-1.54h.78c.19-.45.35-.86.47-1.24l.65.18c-.16.38-.32.74-.47,1.06h1.54v6h-.62v-.59h-1.73v.64h-.62Z"/><path class="cls-6" d="M168,37.48a8.06,8.06,0,0,0-.62-.76l.4-.28a8.51,8.51,0,0,1,.68.71Zm-3.35,0c-.2-.24-.41-.5-.64-.76l.4-.28c.24.23.48.47.69.71ZM164,41l.41-.38c.34.29.7.6,1.07.94L165,42C164.72,41.69,164.38,41.37,164,41Zm3-5.81h.66c-.12.25-.24.48-.36.71h2.48v.46H167a7.32,7.32,0,0,1-.55.73,2.82,2.82,0,0,0-.52-.3A5,5,0,0,0,167,35.2Zm-3.3,0h.67a6.16,6.16,0,0,1-.4.71h2.23v.46h-2.56a6.74,6.74,0,0,1-1.05,1.09,4.7,4.7,0,0,0-.39-.4A5.32,5.32,0,0,0,163.71,35.2Zm-1.17,4.88h4.81v-.59h.6v.59h1.65v.5H168v1c0,.63-.33,1-1,1h-1.17c0-.18-.07-.39-.12-.64.41,0,.79.06,1.13.06s.56-.14.56-.44v-.91h-4.81Zm-.26-1.24h3.43V38.1h-2.9v-.48h2.9V37h.6v.59h3v.48h-3v.74h3.55v.51h-7.58Z"/><path class="cls-6" d="M170.1,38.3h3.58V36.37h-3v-.59h6.37v.59h-2.77V38.3h3.35v.59h-3.35v2.56a1.13,1.13,0,0,1-.19.74,1.05,1.05,0,0,1-.81.27H172a3.87,3.87,0,0,0-.12-.68c.58,0,1,.06,1.21.06a.65.65,0,0,0,.46-.13.71.71,0,0,0,.11-.47V38.89H170.1Z"/><path class="cls-6" d="M186.92,35.75l-1.72,3h1.93Zm1.82,5.19a.13.13,0,0,1-.13.1l-.9,0h-.15l-1.06,0c-.06,0-.09,0-.09-.07v0l0-.07a.13.13,0,0,1,.13-.11h.31a.5.5,0,0,0,.26-.08.25.25,0,0,0,.1-.08l0-.09v0l-.12-1.5H185l-.73,1.25a.4.4,0,0,0-.07.22.25.25,0,0,0,.06.16.45.45,0,0,0,.41.16c.05,0,.08,0,.08.07a.08.08,0,0,1,0,0l0,.07a.12.12,0,0,1-.13.1l-.82,0h-.12L183,41a.06.06,0,0,1-.06,0s0,0,0,0a.06.06,0,0,1,0,0l0-.07a.13.13,0,0,1,.13-.11,1.53,1.53,0,0,0,.3,0,.9.9,0,0,0,.27-.11,1.16,1.16,0,0,0,.24-.2,2.48,2.48,0,0,0,.19-.26l3.19-5.48a.2.2,0,0,1,.17-.1h.09c.07,0,.11,0,.12.1l.39,5.73c0,.08,0,.15,0,.19a.24.24,0,0,0,.09.11.55.55,0,0,0,.22,0h.34c.06,0,.08,0,.08.07v0Z"/><path class="cls-6" d="M192.73,35.08l0,0,0,0h-.05s0,0,0,0h0c0-.08,0-.15,0-.23l0-.23v-.08s0-.07,0-.1a.22.22,0,0,0-.05-.13.36.36,0,0,0-.22-.13,1.58,1.58,0,0,0-.32,0h-.32a.42.42,0,0,0-.19,0,.5.5,0,0,0-.07.16l-.79,2.74a.2.2,0,0,0,0,.07.08.08,0,0,0,.05.08.91.91,0,0,0,.27,0h.35s.05,0,.05,0v0l0,0s0,.06-.08.06h-1.93v0a0,0,0,0,1,0,0v0s0,0,0,0h.41a.91.91,0,0,0,.27,0,.18.18,0,0,0,.13-.15l.79-2.74a.5.5,0,0,0,0-.14v0s-.08,0-.18,0h-.32a2,2,0,0,0-.34,0,.81.81,0,0,0-.3.13.68.68,0,0,0-.12.12l-.11.19-.1.22-.09.23s0,.06-.08.06h-.05a.05.05,0,0,1,0,0v0a5.27,5.27,0,0,1,.19-.51l.21-.51a.08.08,0,0,1,.08-.06h3.13s0,0,0,0h0Z"/><path class="cls-6" d="M197.32,38.38a.56.56,0,0,1-1.11,0,.56.56,0,1,1,1.11,0Z"/><path class="cls-6" d="M204.42,35.75l-1.72,3h1.93Zm1.82,5.19a.13.13,0,0,1-.13.1l-.9,0h-.15L204,41c-.06,0-.08,0-.09-.07v0l0-.07a.13.13,0,0,1,.13-.11h.31a.56.56,0,0,0,.27-.08.32.32,0,0,0,.09-.08.16.16,0,0,0,0-.09v0l-.11-1.5h-2.12l-.73,1.25a.49.49,0,0,0-.06.22.24.24,0,0,0,0,.16.46.46,0,0,0,.41.16c.05,0,.08,0,.08.07a.08.08,0,0,1,0,0v.07a.14.14,0,0,1-.14.1l-.82,0h-.12l-.72,0a.06.06,0,0,1-.06,0s0,0,0,0,0,0,0,0l0-.07a.13.13,0,0,1,.13-.11,1.53,1.53,0,0,0,.3,0,.81.81,0,0,0,.27-.11,1.16,1.16,0,0,0,.24-.2,2.48,2.48,0,0,0,.19-.26l3.2-5.48a.17.17,0,0,1,.16-.1H205c.07,0,.11,0,.12.1l.4,5.73a.47.47,0,0,0,0,.19.18.18,0,0,0,.08.11.56.56,0,0,0,.23,0h.33c.06,0,.09,0,.09.07s0,0,0,0Z"/><path class="cls-6" d="M181.9,42.74a5.19,5.19,0,0,1,0-8.72h.47a5.47,5.47,0,0,0,0,8.72"/><path class="cls-6" d="M207.24,34a5.18,5.18,0,0,1,0,8.72h-.46a5.47,5.47,0,0,0,0-8.72"/><path class="cls-6" d="M212.63,41a3.06,3.06,0,0,1-.45.95,3.16,3.16,0,0,1-.75.8l-.08,0,0,0v0l0,0a.14.14,0,0,1,0-.09,3,3,0,0,0,.7-.73,2.64,2.64,0,0,0,.4-.87l0-.13a.78.78,0,0,1-.18.11.61.61,0,0,1-.24,0,.33.33,0,0,1-.32-.15.36.36,0,0,1-.06-.2.69.69,0,0,1,0-.13.72.72,0,0,1,.2-.33.64.64,0,0,1,.41-.14.36.36,0,0,1,.26.09.43.43,0,0,1,.12.22,1.23,1.23,0,0,1,0,.2v.1A3.06,3.06,0,0,1,212.63,41Z"/><path class="cls-6" d="M226.12,38.12h-3.3a5.42,5.42,0,0,0,1.62,2.39A5.61,5.61,0,0,0,226.12,38.12ZM221,35.76a55.65,55.65,0,0,0,6-.37l.22.6c-1.78.15-3.65.25-5.6.31v1.27h5.25v.55A6.92,6.92,0,0,1,225,40.89a7.19,7.19,0,0,0,2.75,1,8,8,0,0,0-.49.66,8.78,8.78,0,0,1-2.76-1.26,8.8,8.8,0,0,1-2.82,1.35,5.46,5.46,0,0,0-.42-.57,9,9,0,0,0,2.73-1.19,5.86,5.86,0,0,1-1.75-2.77h-.6v.43a6.19,6.19,0,0,1-1.18,4.07c-.13-.16-.28-.32-.43-.48a5.51,5.51,0,0,0,1-3.59Z"/><path class="cls-6" d="M231,35.49l.57-.28c.21.3.45.65.71,1.08l-.6.31C231.45,36.22,231.23,35.85,231,35.49Zm-2.6,1.16h6.31v.57A23.86,23.86,0,0,1,229.87,41a3.34,3.34,0,0,0,2.22.79c1.22,0,2.36,0,3.41,0-.12.29-.21.51-.25.64l-3.41,0a3.51,3.51,0,0,1-2.57-1.08.11.11,0,0,0-.17,0,11.4,11.4,0,0,0-1,1l-.34-.62a8.12,8.12,0,0,1,1-.84.78.78,0,0,1,.5-.16,23.88,23.88,0,0,0,4.53-3.39h-5.41Z"/><path class="cls-6" d="M239.22,35.26h.61V37l2.69-.49c0,1-.08,1.86-.11,2.43a1.57,1.57,0,0,1-.29,1,1.28,1.28,0,0,1-.93.27l-.82,0a5.76,5.76,0,0,0-.13-.62c.24,0,.55,0,.92.06a.62.62,0,0,0,.5-.15.93.93,0,0,0,.15-.55c0-.59.06-1.16.08-1.69l-2.06.37V41h-.61V37.72l-1.81.32V41.1c0,.41.22.62.67.62h3.59c.51,0,.79-.18.86-.53a10.56,10.56,0,0,0,.14-1.13l.66.24c-.07.46-.14.84-.2,1.12-.13.59-.57.88-1.32.88H238c-.77,0-1.16-.36-1.16-1.08V38.16l-1.05.18-.1-.56,1.15-.21V36.11h.61v1.35l1.81-.33Z"/><path class="cls-6" d="M249.37,36h-4.06v.65h4.06Zm-4.06,1.81h4.06v-.66h-4.06Zm-.2,1.9.58.17a5.54,5.54,0,0,1-.28.75,2.4,2.4,0,0,0,1.75,1.1V39.51h-3.51V39h7.4v.52h-3.28v.75h2.74v.51h-2.74v1c1,0,2.13,0,3.43,0-.09.21-.16.41-.22.59q-2.26,0-3.48,0a2.59,2.59,0,0,1-2.35-1.17,4.6,4.6,0,0,1-1.33,1.5c-.11-.15-.23-.32-.38-.49A4,4,0,0,0,245.11,39.74Zm-.39-4.22H250v3.12h-.59v-.3h-4.06v.3h-.59Z"/><path class="cls-6" d="M253.48,40.56a.57.57,0,0,1-.23.34.58.58,0,0,1-.38.14.37.37,0,0,1-.31-.14.31.31,0,0,1-.07-.21.32.32,0,0,1,0-.13.56.56,0,0,1,.22-.33.59.59,0,0,1,.39-.14.37.37,0,0,1,.31.13.36.36,0,0,1,.07.22A.74.74,0,0,1,253.48,40.56Z"/><path class="cls-6" d="M12.1,53.05a5.32,5.32,0,0,0,.71,1,2.61,2.61,0,0,0,.66.5l-.07.2a7.16,7.16,0,0,0-1.07.54,16.21,16.21,0,0,0-1.36,1h-.35A8.5,8.5,0,0,1,12,54.88H4.68l.16-.45h7.32a5.71,5.71,0,0,1-.26-.64c0-.14-.09-.39-.15-.74Z"/><path class="cls-8" d="M26.05,51.66l-1.72,3h1.93Zm1.82,5.2a.13.13,0,0,1-.13.1q-.45,0-.9,0h-.15l-1.06,0c-.06,0-.09,0-.09-.07v0l0-.07c0-.08.06-.11.13-.11H26a.7.7,0,0,0,.27-.08.32.32,0,0,0,.09-.08.32.32,0,0,0,0-.09v0l-.12-1.5H24.16l-.73,1.25a.4.4,0,0,0-.07.22.25.25,0,0,0,.06.16.45.45,0,0,0,.41.16c.05,0,.08,0,.08.06a.09.09,0,0,1,0,0v.07a.14.14,0,0,1-.14.1l-.82,0h-.12q-.36,0-.72,0a.06.06,0,0,1-.06,0l0,0a.06.06,0,0,1,0,0l0-.07c0-.08.06-.11.13-.11a1.53,1.53,0,0,0,.3,0,.9.9,0,0,0,.27-.11,1.16,1.16,0,0,0,.24-.2,2.48,2.48,0,0,0,.19-.26l3.2-5.48a.17.17,0,0,1,.16-.1h.09a.11.11,0,0,1,.12.1l.4,5.73a.5.5,0,0,0,0,.19.18.18,0,0,0,.08.11.56.56,0,0,0,.23,0h.33q.09,0,.09.06s0,0,0,0Z"/><path class="cls-6" d="M32.07,54.3a.56.56,0,1,1-.55-.56A.55.55,0,0,1,32.07,54.3Z"/><path class="cls-9" d="M39.18,51.66l-1.73,3h1.93ZM41,56.86a.12.12,0,0,1-.12.1q-.45,0-.9,0h-.15l-1.07,0s-.08,0-.08-.07v-.1a.13.13,0,0,1,.14-.11h.3a.7.7,0,0,0,.27-.08.18.18,0,0,0,.09-.08.16.16,0,0,0,0-.09v0l-.11-1.5H37.29l-.74,1.25a.49.49,0,0,0-.06.22.3.3,0,0,0,0,.16.46.46,0,0,0,.41.16.08.08,0,0,1,.09.06s0,0,0,0l0,.07a.13.13,0,0,1-.13.1l-.83,0h-.12l-.71,0a.09.09,0,0,1-.07,0,0,0,0,0,1,0,0v0l0-.07c0-.08.06-.11.13-.11a1.53,1.53,0,0,0,.3,0,1,1,0,0,0,.28-.11,1.43,1.43,0,0,0,.23-.2,1.57,1.57,0,0,0,.19-.26l3.2-5.48a.19.19,0,0,1,.17-.1h.08a.11.11,0,0,1,.12.1l.4,5.73c0,.08,0,.14,0,.19a.18.18,0,0,0,.08.11.61.61,0,0,0,.23,0h.34c.05,0,.08,0,.08.06a.09.09,0,0,1,0,0Z"/><path class="cls-9" d="M45,51a.08.08,0,0,1,0,0h-.1s0,0,0,0v0a2.23,2.23,0,0,1,0-.23,1.64,1.64,0,0,0,0-.22v-.19a.22.22,0,0,0,0-.12.36.36,0,0,0-.22-.13,1.66,1.66,0,0,0-.32,0H44a.42.42,0,0,0-.19,0,.34.34,0,0,0-.07.16L42.91,53a.2.2,0,0,0,0,.07.08.08,0,0,0,.05.08l.26,0h.36a0,0,0,0,1,0,0v.06a.07.07,0,0,1-.08.06H41.59v-.09l0,0,.06,0H42l.28,0a.22.22,0,0,0,.13-.15l.79-2.74a.5.5,0,0,0,0-.14s0,0,0,0-.07,0-.18,0h-.31a1.87,1.87,0,0,0-.34,0,.67.67,0,0,0-.3.13l-.12.12-.11.19c0,.07-.07.14-.1.22a2.29,2.29,0,0,1-.1.23.06.06,0,0,1-.08,0h-.08v0a3.52,3.52,0,0,1,.19-.51l.21-.51a.08.08,0,0,1,.08-.06h3.13s0,0,0,0h0Z"/><path class="cls-6" d="M21,58.65a5.18,5.18,0,0,1,0-8.71h.47a5.46,5.46,0,0,0,0,8.71"/><path class="cls-6" d="M47.19,49.94a5.18,5.18,0,0,1,0,8.71h-.46a5.47,5.47,0,0,0,0-8.71"/><path class="cls-6" d="M55.44,51a.08.08,0,0,1,0,0h-.1s0,0,0,0v0a2.23,2.23,0,0,1,0-.23,1.64,1.64,0,0,0,0-.22v-.19a.22.22,0,0,0,0-.12.36.36,0,0,0-.22-.13,1.66,1.66,0,0,0-.32,0h-.32a.42.42,0,0,0-.19,0,.34.34,0,0,0-.07.16L53.37,53a.2.2,0,0,0,0,.07.08.08,0,0,0,0,.08l.26,0H54a0,0,0,0,1,0,0v.06s0,.06-.08.06H52.05v-.09l0,0,.06,0h.35l.28,0A.2.2,0,0,0,52.9,53l.79-2.74a.5.5,0,0,0,0-.14s0,0,0,0-.07,0-.18,0h-.31a1.87,1.87,0,0,0-.34,0,.67.67,0,0,0-.3.13l-.12.12-.11.19c0,.07-.07.14-.1.22a2.29,2.29,0,0,1-.1.23.06.06,0,0,1-.08,0H52v0a3.52,3.52,0,0,1,.19-.51l.21-.51a.08.08,0,0,1,.08-.06h3.13s0,0,0,0h0Z"/><line class="cls-7" x1="58.48" y1="53.35" x2="64.78" y2="53.35"/><line class="cls-7" x1="58.48" y1="55.24" x2="64.78" y2="55.24"/><path class="cls-9" d="M76.43,51.66l-1.73,3h1.93Zm1.81,5.2a.12.12,0,0,1-.12.1q-.45,0-.9,0h-.15L76,57s-.08,0-.08-.07v0l0-.07a.12.12,0,0,1,.13-.11h.3a.65.65,0,0,0,.27-.08.18.18,0,0,0,.09-.08.16.16,0,0,0,0-.09v0l-.11-1.5H74.54l-.74,1.25a.49.49,0,0,0-.06.22.3.3,0,0,0,.05.16.48.48,0,0,0,.41.16c.06,0,.08,0,.09.06s0,0,0,0l0,.07a.13.13,0,0,1-.13.1l-.82,0h-.13l-.71,0a.09.09,0,0,1-.07,0,0,0,0,0,1,0,0v0l0-.07c0-.08.06-.11.13-.11a1.53,1.53,0,0,0,.3,0,1,1,0,0,0,.28-.11,1.43,1.43,0,0,0,.23-.2,2.56,2.56,0,0,0,.2-.26l3.19-5.48a.19.19,0,0,1,.17-.1H77a.1.1,0,0,1,.11.1l.4,5.73c0,.08,0,.14,0,.19a.18.18,0,0,0,.08.11.61.61,0,0,0,.23,0h.34s.08,0,.08.06a.09.09,0,0,1,0,0Z"/><path class="cls-9" d="M82.24,51l0,0h-.1s0,0,0,0v0c0-.07,0-.15,0-.23l0-.22v-.08s0-.07,0-.11a.22.22,0,0,0-.05-.12.36.36,0,0,0-.22-.13,1.66,1.66,0,0,0-.32,0h-.32a.42.42,0,0,0-.19,0,.34.34,0,0,0-.07.16L80.16,53a.2.2,0,0,0,0,.07.08.08,0,0,0,0,.08l.26,0h.36a0,0,0,0,1,.05,0v.06a.07.07,0,0,1-.08.06H78.84v0l0,0a.05.05,0,0,1,0,0l.05,0h.36l.27,0a.2.2,0,0,0,.13-.15l.79-2.74a.5.5,0,0,0,0-.14s0,0,0,0-.07,0-.18,0H80a1.87,1.87,0,0,0-.34,0,.67.67,0,0,0-.3.13.68.68,0,0,0-.12.12l-.11.19c0,.07-.07.14-.1.22L79,51s0,.06-.08,0h-.09v0a5.27,5.27,0,0,1,.19-.51l.21-.51a.08.08,0,0,1,.08-.06h3.13s.05,0,.05,0h0Z"/><path class="cls-6" d="M71.41,58.65a5.18,5.18,0,0,1,0-8.71h.46a5.47,5.47,0,0,0,0,8.71"/><path class="cls-6" d="M84.44,49.94a5.18,5.18,0,0,1,0,8.71H84a5.47,5.47,0,0,0,0-8.71"/><path class="cls-6" d="M92.7,51l0,0h-.1s0,0,0,0v0c0-.07,0-.15,0-.23l0-.22v-.08s0-.07,0-.11a.22.22,0,0,0,0-.12.36.36,0,0,0-.22-.13,1.58,1.58,0,0,0-.32,0h-.32a.42.42,0,0,0-.19,0,.5.5,0,0,0-.07.16L90.62,53a.2.2,0,0,0,0,.07.08.08,0,0,0,0,.08l.26,0h.36a0,0,0,0,1,0,0v.06s0,.06-.08.06H89.3v0l0,0a.05.05,0,0,1,0,0l0,0h.36l.27,0a.2.2,0,0,0,.13-.15l.79-2.74a.5.5,0,0,0,0-.14s0,0,0,0-.07,0-.17,0h-.32a1.87,1.87,0,0,0-.34,0,.67.67,0,0,0-.3.13l-.12.12-.11.19c0,.07-.07.14-.1.22l-.09.23s0,.06-.08,0h-.09v0a5.27,5.27,0,0,1,.19-.51l.21-.51a.08.08,0,0,1,.08-.06h3.13s0,0,0,0h0Z"/><path class="cls-6" d="M97.29,54.3a.56.56,0,1,1-.56-.56A.56.56,0,0,1,97.29,54.3Z"/><path class="cls-8" d="M104.4,51.66l-1.73,3h1.93Zm1.82,5.2a.13.13,0,0,1-.13.1q-.45,0-.9,0H105L104,57s-.08,0-.08-.07v-.1a.13.13,0,0,1,.14-.11h.3a.7.7,0,0,0,.27-.08.18.18,0,0,0,.09-.08.36.36,0,0,0,0-.09v0l-.12-1.5H102.5l-.73,1.25a.49.49,0,0,0-.06.22.3.3,0,0,0,.05.16.46.46,0,0,0,.41.16.08.08,0,0,1,.09.06s0,0,0,0l0,.07a.13.13,0,0,1-.13.1l-.83,0h-.12l-.71,0a.09.09,0,0,1-.07,0l0,0v0l0-.07c0-.08.06-.11.13-.11a1.53,1.53,0,0,0,.3,0,1,1,0,0,0,.28-.11,1.43,1.43,0,0,0,.23-.2,1.57,1.57,0,0,0,.19-.26l3.2-5.48a.2.2,0,0,1,.17-.1H105a.1.1,0,0,1,.11.1l.4,5.73c0,.08,0,.14,0,.19a.19.19,0,0,0,.09.11.51.51,0,0,0,.22,0h.34c.06,0,.08,0,.08.06a.09.09,0,0,1,0,0Z"/><path class="cls-6" d="M110.21,51l0,0h-.1s0,0,0,0v0c0-.07,0-.15,0-.23a1.64,1.64,0,0,0,0-.22v-.19a.22.22,0,0,0,0-.12.36.36,0,0,0-.22-.13,1.66,1.66,0,0,0-.32,0h-.32a.42.42,0,0,0-.19,0,.5.5,0,0,0-.07.16L108.13,53a.2.2,0,0,0,0,.07.08.08,0,0,0,0,.08l.26,0h.36a0,0,0,0,1,0,0v.06s0,.06-.08.06h-1.93v0a0,0,0,0,1,0,0v0a.05.05,0,0,1,0,0l.05,0h.36l.27,0a.2.2,0,0,0,.13-.15l.79-2.74a.5.5,0,0,0,0-.14s0,0,0,0-.07,0-.17,0H108a1.87,1.87,0,0,0-.34,0,.67.67,0,0,0-.3.13.68.68,0,0,0-.12.12l-.11.19c0,.07-.07.14-.1.22l-.09.23s0,.06-.08,0h-.09v0a5.27,5.27,0,0,1,.19-.51l.21-.51a.08.08,0,0,1,.08-.06h3.13s.05,0,.05,0h0Z"/><line class="cls-7" x1="113.24" y1="53.35" x2="119.54" y2="53.35"/><line class="cls-7" x1="113.24" y1="55.24" x2="119.54" y2="55.24"/><path class="cls-6" d="M126.19,51.66l-1.73,3h1.93Zm1.82,5.2a.12.12,0,0,1-.12.1l-.92,0h-.14l-1.07,0c-.05,0-.08,0-.08-.07v-.1a.13.13,0,0,1,.14-.11h.3a.7.7,0,0,0,.27-.08.18.18,0,0,0,.09-.08.16.16,0,0,0,0-.09v0l-.11-1.5H124.3l-.74,1.25a.49.49,0,0,0-.06.22.3.3,0,0,0,0,.16.46.46,0,0,0,.41.16.08.08,0,0,1,.09.06s0,0,0,0l0,.07a.13.13,0,0,1-.13.1l-.83,0h-.12l-.71,0a.09.09,0,0,1-.07,0,0,0,0,0,1,0,0v0l0-.07c0-.08.06-.11.13-.11a1.53,1.53,0,0,0,.3,0,1,1,0,0,0,.28-.11,1.43,1.43,0,0,0,.23-.2,1.57,1.57,0,0,0,.19-.26l3.2-5.48a.19.19,0,0,1,.17-.1h.08a.11.11,0,0,1,.12.1l.4,5.73a.5.5,0,0,0,0,.19.18.18,0,0,0,.08.11.62.62,0,0,0,.24,0H128s.08,0,.08.06a.09.09,0,0,1,0,0Z"/><path class="cls-6" d="M132.21,54.3a.56.56,0,1,1-.55-.56A.55.55,0,0,1,132.21,54.3Z"/><path class="cls-6" d="M139.32,51.66l-1.73,3h1.93Zm1.81,5.2a.12.12,0,0,1-.12.1l-.9,0H140l-1.07,0s-.08,0-.08-.07v-.1a.13.13,0,0,1,.14-.11h.3a.7.7,0,0,0,.27-.08.18.18,0,0,0,.09-.08.16.16,0,0,0,0-.09v0l-.11-1.5h-2.11l-.74,1.25a.49.49,0,0,0-.06.22.3.3,0,0,0,.05.16.46.46,0,0,0,.41.16.08.08,0,0,1,.09.06s0,0,0,0l0,.07a.13.13,0,0,1-.13.1l-.83,0h-.12l-.71,0a.09.09,0,0,1-.07,0,0,0,0,0,1,0,0v0l0-.07c0-.08.06-.11.13-.11a1.53,1.53,0,0,0,.3,0,1,1,0,0,0,.28-.11,1.43,1.43,0,0,0,.23-.2,1.57,1.57,0,0,0,.19-.26l3.2-5.48a.19.19,0,0,1,.17-.1h.08a.11.11,0,0,1,.12.1l.4,5.73c0,.08,0,.14,0,.19a.18.18,0,0,0,.08.11.61.61,0,0,0,.23,0h.34s.08,0,.08.06a.09.09,0,0,1,0,0Z"/><path class="cls-6" d="M145.12,51a.08.08,0,0,1,0,0H145s-.05,0-.05,0v0a1.57,1.57,0,0,0,0-.23l0-.22v-.19a.33.33,0,0,0,0-.12.35.35,0,0,0-.23-.13,1.51,1.51,0,0,0-.32,0h-.31a.42.42,0,0,0-.19,0s0,.07-.07.16L143.05,53a.2.2,0,0,0,0,.07s0,.07.05.08l.26,0h.36a0,0,0,0,1,0,0s0,0,0,0v0a.08.08,0,0,1-.08.06h-1.93v-.09l0,0,.05,0h.36l.28,0a.22.22,0,0,0,.13-.15l.79-2.74a.5.5,0,0,0,0-.14v0s-.07,0-.18,0h-.31a1.87,1.87,0,0,0-.34,0,.67.67,0,0,0-.3.13.34.34,0,0,0-.12.12,1.18,1.18,0,0,0-.11.19,1.47,1.47,0,0,0-.1.22c0,.08-.07.15-.1.23a.06.06,0,0,1-.08,0h-.09v0s0,0,0,0a5.17,5.17,0,0,1,.18-.51,5.49,5.49,0,0,0,.21-.51.1.1,0,0,1,.09-.06h3.12s.05,0,.05,0h0Z"/><path class="cls-6" d="M156.56,53.05h.35c-.31.35-.53.6-.67.74s-.37.36-.71.64h7.32l-.16.45h-7.32a3.35,3.35,0,0,1,.43,1.38h-.36a4.81,4.81,0,0,0-.69-1,2.58,2.58,0,0,0-.69-.54l.07-.2a5.74,5.74,0,0,0,1-.51A12.9,12.9,0,0,0,156.56,53.05Z"/><path class="cls-6" d="M168,51.27c.6.6,1,1,1.26,1.29l-.53.44a16.53,16.53,0,0,0-1.2-1.33Zm1.66,4.41a4.56,4.56,0,0,0,.14.65c-.62.6-1.09,1.08-1.4,1.43l-.44-.48a1.26,1.26,0,0,0,.23-.75V54.19h-.93v-.54h1.52v2.92C169.06,56.35,169.35,56.05,169.7,55.68Zm-.46,1.88h1.07V53.42h.6v4.14h1.22V52.09h-2.46v-.55h5.14v.55h-2.07v2.25h1.79v.56h-1.79v2.66h2.19v.55h-5.69Z"/><path class="cls-6" d="M178.83,53.9c0,.23,0,.43,0,.61q-1.35.33-2.22.6a1.66,1.66,0,0,0-.4.19l-.33-.55a.53.53,0,0,0,.23-.42V51.26h.6v1.16h2.1V53h-2.1v1.5Zm-3.49,2.31h3.3v-1h.61v1h3.33v.56h-3.33v1.75h-.61V56.77h-3.3Zm3.92-5h.6v1.61a22.33,22.33,0,0,0,2.25-1.08l.32.54c-.73.33-1.59.7-2.57,1.11v.64a.41.41,0,0,0,.46.47h1.21c.3,0,.47-.13.49-.39a9.67,9.67,0,0,0,.08-1l.6.23c0,.43-.09.78-.13,1-.08.43-.44.65-1.06.65h-1.33a.8.8,0,0,1-.92-.89Z"/><path class="cls-6" d="M12.1,69a4.89,4.89,0,0,0,.71,1,2.45,2.45,0,0,0,.66.51l-.07.2a7.16,7.16,0,0,0-1.07.54,14.18,14.18,0,0,0-1.36,1h-.35A8.5,8.5,0,0,1,12,70.8H4.68l.16-.45h7.32a5.71,5.71,0,0,1-.26-.64c0-.14-.09-.39-.15-.74Z"/><path class="cls-6" d="M26.05,67.58l-1.72,3h1.93Zm1.82,5.2a.15.15,0,0,1-.13.1q-.45,0-.9,0h-.15l-1.06,0c-.06,0-.09,0-.09-.07v0l0-.07c0-.08.06-.11.13-.11H26a.7.7,0,0,0,.27-.08l.09-.08a.32.32,0,0,0,0-.09v0l-.12-1.5H24.16l-.73,1.25a.4.4,0,0,0-.07.22.27.27,0,0,0,.06.16.45.45,0,0,0,.41.16c.05,0,.08,0,.08.06a.11.11,0,0,1,0,0v.07a.15.15,0,0,1-.14.1l-.82,0h-.12q-.36,0-.72,0a.06.06,0,0,1-.06,0s0,0,0,0,0,0,0,0l0-.07c0-.08.06-.11.13-.11a1.53,1.53,0,0,0,.3,0,.72.72,0,0,0,.27-.12,1.12,1.12,0,0,0,.24-.19,1.85,1.85,0,0,0,.19-.27l3.2-5.47a.17.17,0,0,1,.16-.1h.09a.11.11,0,0,1,.12.1l.4,5.73a.5.5,0,0,0,0,.19.14.14,0,0,0,.08.1.44.44,0,0,0,.23,0h.33q.09,0,.09.06a.43.43,0,0,0,0,0Z"/><path class="cls-6" d="M31.86,66.91s0,0,0,0h-.1s-.05,0-.05,0v0a1.57,1.57,0,0,0,0-.23l0-.22v-.08a.41.41,0,0,0,0-.11.21.21,0,0,0,0-.12.38.38,0,0,0-.23-.13,1.58,1.58,0,0,0-.32,0h-.31a.48.48,0,0,0-.2,0s0,.07-.06.16l-.8,2.74s0,0,0,.07a.08.08,0,0,0,.06.08l.26,0h.35s0,0,0,0v.06a.08.08,0,0,1-.09.06l-.93,0-.95,0-.05,0a0,0,0,0,1,0,0,0,0,0,0,1,0,0v0a.05.05,0,0,1,0,0l.05,0h.36l.28,0a.19.19,0,0,0,.12-.15l.8-2.74a1.15,1.15,0,0,0,0-.14v0s-.08,0-.18,0h-.32l-.34,0a.67.67,0,0,0-.3.13.68.68,0,0,0-.12.12c0,.06-.07.12-.1.19a1.12,1.12,0,0,0-.1.22,1.6,1.6,0,0,0-.1.23.07.07,0,0,1-.08,0H28.4a0,0,0,0,1,0,0v0a5.17,5.17,0,0,1,.18-.51l.21-.52a.09.09,0,0,1,.08,0H32s0,0,0,0v0Z"/><path class="cls-6" d="M36.45,70.22a.55.55,0,0,1-.55.55.56.56,0,1,1,0-1.11A.55.55,0,0,1,36.45,70.22Z"/><path class="cls-6" d="M43.56,67.58l-1.72,3h1.93Zm1.82,5.2a.15.15,0,0,1-.13.1q-.45,0-.9,0H44.2l-1.06,0c-.06,0-.09,0-.09-.07v0l0-.07c0-.08.06-.11.13-.11h.31a.61.61,0,0,0,.26-.08.39.39,0,0,0,.1-.08l0-.09v0l-.12-1.5H41.67l-.73,1.25a.4.4,0,0,0-.07.22.27.27,0,0,0,.06.16.44.44,0,0,0,.4.16q.09,0,.09.06a.11.11,0,0,1,0,0l0,.07a.14.14,0,0,1-.13.1l-.82,0h-.12q-.36,0-.72,0a.06.06,0,0,1-.06,0s0,0,0,0,0,0,0,0l0-.07a.12.12,0,0,1,.13-.11,1.43,1.43,0,0,0,.29,0,.77.77,0,0,0,.28-.12,1.43,1.43,0,0,0,.24-.19,1.85,1.85,0,0,0,.19-.27l3.19-5.47a.2.2,0,0,1,.17-.1h.09a.11.11,0,0,1,.12.1l.39,5.73c0,.08,0,.14,0,.19a.15.15,0,0,0,.09.1.42.42,0,0,0,.22,0h.34c.06,0,.08,0,.08.06v0Z"/><path class="cls-6" d="M21,74.57a5.18,5.18,0,0,1,0-8.71h.47a5.46,5.46,0,0,0,0,8.71"/><path class="cls-6" d="M46.38,65.86a5.18,5.18,0,0,1,0,8.71h-.46a5.47,5.47,0,0,0,0-8.71"/><path class="cls-6" d="M54.63,66.91s0,0,0,0h-.1s0,0,0,0v0a2.23,2.23,0,0,1,0-.23,1.8,1.8,0,0,0,0-.22v-.19a.22.22,0,0,0-.05-.12.36.36,0,0,0-.22-.13,1.66,1.66,0,0,0-.32,0h-.32a.42.42,0,0,0-.19,0,.29.29,0,0,0-.07.16l-.79,2.74a.2.2,0,0,0,0,.07.08.08,0,0,0,.05.08l.26,0h.36s.05,0,.05,0a0,0,0,0,1,0,0v0a.07.07,0,0,1-.08.06l-.94,0-.95,0a.05.05,0,0,1,0,0s0,0,0,0v-.06l0,0,.06,0h.35l.28,0a.2.2,0,0,0,.13-.15l.79-2.74a.5.5,0,0,0,0-.14s0,0,0,0-.07,0-.18,0h-.31a1.87,1.87,0,0,0-.34,0,.67.67,0,0,0-.3.13.68.68,0,0,0-.12.12l-.11.19a2.35,2.35,0,0,0-.1.22c0,.07-.06.15-.1.23s0,0-.08,0h0s0,0,0,0a0,0,0,0,1,0,0v0a3.52,3.52,0,0,1,.19-.51l.21-.52a.08.08,0,0,1,.08,0h3.13s0,0,0,0v0Z"/><line class="cls-7" x1="57.67" y1="69.27" x2="63.97" y2="69.27"/><line class="cls-7" x1="57.67" y1="71.16" x2="63.97" y2="71.16"/><path class="cls-8" d="M70.62,67.58l-1.72,3h1.93Zm1.82,5.2a.15.15,0,0,1-.13.1q-.45,0-.9,0h-.15l-1.06,0c-.06,0-.09,0-.09-.07v0l0-.07c0-.08.06-.11.13-.11h.31a.7.7,0,0,0,.27-.08l.09-.08,0-.09v0l-.12-1.5H68.73L68,72.06a.4.4,0,0,0-.07.22.27.27,0,0,0,.06.16.44.44,0,0,0,.4.16q.09,0,.09.06a.11.11,0,0,1,0,0l0,.07a.13.13,0,0,1-.13.1l-.82,0h-.12q-.36,0-.72,0a.06.06,0,0,1-.06,0s0,0,0,0,0,0,0,0l0-.07a.12.12,0,0,1,.13-.11,1.36,1.36,0,0,0,.29,0,.77.77,0,0,0,.28-.12,1.12,1.12,0,0,0,.24-.19,1.85,1.85,0,0,0,.19-.27l3.2-5.47a.17.17,0,0,1,.16-.1h.09a.11.11,0,0,1,.12.1l.39,5.73c0,.08,0,.14,0,.19a.18.18,0,0,0,.09.1.42.42,0,0,0,.22,0h.34c.06,0,.08,0,.08.06v0Z"/><path class="cls-6" d="M76.43,66.91a.13.13,0,0,1,0,0h-.1s0,0,0,0v0a1.57,1.57,0,0,0,0-.23l0-.22v-.08a.41.41,0,0,0,0-.11.34.34,0,0,0,0-.12A.38.38,0,0,0,76,66a1.58,1.58,0,0,0-.32,0h-.31a.48.48,0,0,0-.2,0s0,.07-.07.16l-.79,2.74s0,0,0,.07a.08.08,0,0,0,.06.08l.26,0H75s0,0,0,0v.06a.08.08,0,0,1-.09.06l-.94,0-.94,0,0,0a0,0,0,0,1,0,0,0,0,0,0,1,0,0v0a.05.05,0,0,1,0,0l.05,0h.36l.28,0a.19.19,0,0,0,.12-.15l.79-2.74a.5.5,0,0,0,0-.14v0s-.08,0-.18,0H74.2a2,2,0,0,0-.34,0,.67.67,0,0,0-.3.13.68.68,0,0,0-.12.12c0,.06-.07.12-.1.19a2.25,2.25,0,0,0-.11.22l-.09.23a.07.07,0,0,1-.08,0H73a0,0,0,0,1,0,0v0a5.17,5.17,0,0,1,.18-.51l.21-.52a.08.08,0,0,1,.08,0h3.13s.05,0,.05,0v0Z"/><path class="cls-6" d="M81,70.22a.56.56,0,1,1-.55-.56A.55.55,0,0,1,81,70.22Z"/><path class="cls-9" d="M93.13,67.58l-1.73,3h1.93Zm1.81,5.2a.13.13,0,0,1-.12.1l-.91,0h-.14l-1.07,0a.07.07,0,0,1-.08-.07v-.1a.13.13,0,0,1,.14-.11h.3a.7.7,0,0,0,.27-.08.24.24,0,0,0,.09-.08.16.16,0,0,0,0-.09v0l-.11-1.5H91.23l-.73,1.25a.49.49,0,0,0-.06.22.33.33,0,0,0,0,.16.46.46,0,0,0,.41.16.08.08,0,0,1,.09.06.43.43,0,0,0,0,0l0,.07a.15.15,0,0,1-.13.1l-.83,0h-.12l-.72,0a.06.06,0,0,1-.06,0s0,0,0,0,0,0,0,0l0-.07c0-.08.06-.11.13-.11a1.53,1.53,0,0,0,.3,0,.77.77,0,0,0,.28-.12,1.37,1.37,0,0,0,.23-.19,1.31,1.31,0,0,0,.19-.27l3.2-5.47a.19.19,0,0,1,.17-.1h.08a.11.11,0,0,1,.12.1l.4,5.73c0,.08,0,.14,0,.19a.14.14,0,0,0,.08.1.46.46,0,0,0,.23,0h.34s.08,0,.08.06a.11.11,0,0,1,0,0Z"/><path class="cls-9" d="M98.93,66.91s0,0,0,0h-.1s-.06,0-.06,0v0a1.57,1.57,0,0,0,0-.23.89.89,0,0,0,0-.22v-.19a.33.33,0,0,0,0-.12.35.35,0,0,0-.23-.13,1.48,1.48,0,0,0-.31,0h-.32a.42.42,0,0,0-.19,0,.29.29,0,0,0-.07.16l-.79,2.74a.2.2,0,0,0,0,.07s0,.07.05.08l.26,0h.36s0,0,0,0a0,0,0,0,1,0,0v0a.07.07,0,0,1-.08.06l-.94,0-1,0a.05.05,0,0,1,0,0s0,0,0,0v-.06l0,0,.06,0H96l.28,0a.22.22,0,0,0,.13-.15l.79-2.74a.5.5,0,0,0,0-.14s0,0,0,0-.07,0-.18,0h-.31a1.87,1.87,0,0,0-.34,0,.67.67,0,0,0-.3.13.46.46,0,0,0-.12.12l-.11.19a2.35,2.35,0,0,0-.1.22c0,.07-.06.15-.1.23s0,0-.08,0h0s0,0,0,0l0,0s0,0,0,0a3.52,3.52,0,0,1,.19-.51c.07-.17.14-.34.2-.52a.11.11,0,0,1,.09,0h3.13s0,0,0,0v0Z"/><path class="cls-6" d="M88.11,74.57a5.18,5.18,0,0,1,0-8.71h.46a5.47,5.47,0,0,0,0,8.71"/><path class="cls-6" d="M101.14,65.86a5.18,5.18,0,0,1,0,8.71h-.46a5.47,5.47,0,0,0,0-8.71"/><path class="cls-6" d="M109.4,66.91l0,0h-.1s0,0,0,0v0c0-.07,0-.15,0-.23a1.8,1.8,0,0,0,0-.22v-.19a.22.22,0,0,0,0-.12A.36.36,0,0,0,109,66a1.66,1.66,0,0,0-.32,0h-.32a.42.42,0,0,0-.19,0s0,.07-.07.16l-.79,2.74a.2.2,0,0,0,0,.07.08.08,0,0,0,0,.08l.26,0H108s0,0,0,0a0,0,0,0,1,0,0v0s0,.06-.08.06l-.94,0-.95,0a.05.05,0,0,1,0,0s0,0,0,0a0,0,0,0,1,0,0v0a.05.05,0,0,1,0,0l0,0h.36l.27,0a.2.2,0,0,0,.13-.15l.79-2.74a.5.5,0,0,0,0-.14s0,0,0,0-.07,0-.17,0h-.32a1.87,1.87,0,0,0-.34,0,.67.67,0,0,0-.3.13.68.68,0,0,0-.12.12l-.11.19a2.35,2.35,0,0,0-.1.22l-.09.23a.08.08,0,0,1-.08,0h-.09a0,0,0,0,1,0,0v0a5.27,5.27,0,0,1,.19-.51l.21-.52a.08.08,0,0,1,.08,0h3.13s0,0,0,0v0Z"/><line class="cls-7" x1="112.43" y1="69.27" x2="118.73" y2="69.27"/><line class="cls-7" x1="112.43" y1="71.16" x2="118.73" y2="71.16"/><path class="cls-6" d="M125.38,67.58l-1.73,3h1.93Zm1.81,5.2a.13.13,0,0,1-.12.1l-.91,0H126l-1.07,0a.07.07,0,0,1-.08-.07v-.1a.13.13,0,0,1,.14-.11h.3a.7.7,0,0,0,.27-.08.24.24,0,0,0,.09-.08.16.16,0,0,0,0-.09v0l-.11-1.5h-2.11l-.74,1.25a.49.49,0,0,0-.06.22.33.33,0,0,0,0,.16.46.46,0,0,0,.41.16.08.08,0,0,1,.09.06.43.43,0,0,0,0,0l0,.07a.14.14,0,0,1-.13.1l-.83,0h-.12l-.71,0a.09.09,0,0,1-.07,0,0,0,0,0,1,0,0v0l0-.07c0-.08.06-.11.13-.11a1.53,1.53,0,0,0,.3,0,.77.77,0,0,0,.28-.12,1.37,1.37,0,0,0,.23-.19,1.31,1.31,0,0,0,.19-.27l3.2-5.47a.19.19,0,0,1,.17-.1h.08a.11.11,0,0,1,.12.1l.4,5.73a.5.5,0,0,0,0,.19.14.14,0,0,0,.08.1.46.46,0,0,0,.23,0h.34s.08,0,.08.06a.11.11,0,0,1,0,0Z"/><path class="cls-6" d="M131.19,66.91s0,0,0,0h-.11s-.05,0-.05,0v0a1.57,1.57,0,0,0,0-.23l0-.22v-.19a.33.33,0,0,0-.05-.12.38.38,0,0,0-.23-.13,1.51,1.51,0,0,0-.32,0h-.31c-.1,0-.17,0-.19,0s0,.07-.07.16l-.79,2.74a.2.2,0,0,0,0,.07s0,.07,0,.08l.26,0h.35s.06,0,.06,0v.06a.08.08,0,0,1-.08.06l-.94,0-.95,0a.05.05,0,0,1,0,0s0,0,0,0v-.06l0,0,0,0h.36l.28,0a.22.22,0,0,0,.13-.15l.79-2.74a.5.5,0,0,0,0-.14,0,0,0,0,0,0,0s-.07,0-.18,0H129a1.87,1.87,0,0,0-.34,0,.67.67,0,0,0-.3.13.34.34,0,0,0-.12.12,1.18,1.18,0,0,0-.11.19,1.12,1.12,0,0,0-.1.22c0,.07-.07.15-.1.23s0,0-.08,0h-.09v0a5.17,5.17,0,0,1,.18-.51,4.71,4.71,0,0,0,.21-.52.11.11,0,0,1,.09,0h3.12s0,0,0,0v0Z"/><path class="cls-6" d="M135.78,70.22a.55.55,0,0,1-.55.55.56.56,0,1,1,0-1.11A.55.55,0,0,1,135.78,70.22Z"/><path class="cls-6" d="M142.89,67.58l-1.73,3h1.93Zm1.81,5.2a.13.13,0,0,1-.12.1l-.91,0h-.14l-1.07,0a.07.07,0,0,1-.08-.07v-.1a.13.13,0,0,1,.14-.11h.3a.7.7,0,0,0,.27-.08.24.24,0,0,0,.09-.08.16.16,0,0,0,0-.09v0l-.11-1.5H141l-.74,1.25a.49.49,0,0,0-.06.22.33.33,0,0,0,.05.16.46.46,0,0,0,.41.16.08.08,0,0,1,.09.06.43.43,0,0,0,0,0l0,.07a.15.15,0,0,1-.13.1l-.83,0h-.12l-.71,0a.09.09,0,0,1-.07,0,0,0,0,0,1,0,0v0l0-.07c0-.08.06-.11.13-.11a1.53,1.53,0,0,0,.3,0,.77.77,0,0,0,.28-.12,1.37,1.37,0,0,0,.23-.19A1.31,1.31,0,0,0,140,72l3.2-5.47a.19.19,0,0,1,.17-.1h.08a.11.11,0,0,1,.12.1l.4,5.73a.5.5,0,0,0,0,.19.14.14,0,0,0,.08.1.46.46,0,0,0,.23,0h.34s.08,0,.08.06a.11.11,0,0,1,0,0Z"/><path class="cls-6" d="M156,69h.34c-.3.35-.52.6-.66.74s-.38.35-.71.64h7.32l-.16.45h-7.33a3.2,3.2,0,0,1,.44,1.38h-.36a5.91,5.91,0,0,0-.69-1,2.94,2.94,0,0,0-.69-.54l.07-.2a5.37,5.37,0,0,0,1-.51A12.88,12.88,0,0,0,156,69Z"/><path class="cls-6" d="M167.49,67.19q.9.89,1.26,1.29l-.54.44A16.25,16.25,0,0,0,167,67.59Zm1.66,4.41a3.5,3.5,0,0,0,.14.65c-.62.6-1.09,1.08-1.41,1.43l-.44-.49a1.15,1.15,0,0,0,.24-.74V70.11h-.94v-.54h1.53v2.91C168.5,72.26,168.8,72,169.15,71.6Zm-.46,1.88h1.07V69.34h.59v4.14h1.23V68h-2.47v-.55h5.14V68h-2.06v2.25H174v.56h-1.79v2.66h2.19V74h-5.69Z"/><path class="cls-6" d="M178.28,69.81c0,.23,0,.44,0,.62-.9.22-1.64.42-2.23.6a1.77,1.77,0,0,0-.39.19l-.33-.55a.52.52,0,0,0,.22-.42V67.18h.6v1.15h2.1v.56h-2.1v1.5Zm-3.49,2.32h3.3v-.95h.61v.95H182v.56H178.7v1.75h-.61V72.69h-3.3Zm3.92-5h.6v1.61c.79-.33,1.54-.7,2.25-1.08l.31.54c-.73.33-1.58.7-2.56,1.11V70c0,.31.15.47.45.47H181c.3,0,.47-.13.49-.39s.06-.57.08-1l.58.23c0,.43-.08.78-.13,1-.07.43-.42.65-1,.65h-1.33a.8.8,0,0,1-.92-.89Z"/></g></g></g></svg>