<?xml version="1.0" encoding="UTF-8"?>
<svg id="_图层_1" data-name="图层 1" xmlns="http://www.w3.org/2000/svg" xmlns:xlink="http://www.w3.org/1999/xlink" viewBox="0 0 147 133.22">
  <defs>
    <style>
      .cls-1 {
        stroke-width: 0px;
      }

      .cls-1, .cls-2, .cls-3, .cls-4, .cls-5, .cls-6, .cls-7, .cls-8, .cls-9, .cls-10, .cls-11, .cls-12 {
        fill: none;
      }

      .cls-1, .cls-2, .cls-3, .cls-4, .cls-5, .cls-6, .cls-7, .cls-9, .cls-10, .cls-11, .cls-12 {
        stroke: #000;
      }

      .cls-2 {
        stroke-width: .01px;
      }

      .cls-13 {
        clip-path: url(#clippath-2);
      }

      .cls-14 {
        clip-path: url(#clippath-6);
      }

      .cls-3 {
        stroke-width: 0px;
      }

      .cls-15 {
        font-family: ArialMT, Arial;
        font-size: 10.81px;
      }

      .cls-4 {
        stroke-width: .01px;
      }

      .cls-16 {
        clip-path: url(#clippath-7);
      }

      .cls-17 {
        clip-path: url(#clippath-1);
      }

      .cls-18 {
        clip-path: url(#clippath-4);
      }

      .cls-5 {
        stroke-width: .01px;
      }

      .cls-6 {
        stroke-width: 0px;
      }

      .cls-7 {
        stroke-width: .01px;
      }

      .cls-19 {
        clip-path: url(#clippath-9);
      }

      .cls-20 {
        clip-path: url(#clippath);
      }

      .cls-9 {
        stroke-width: .01px;
      }

      .cls-21 {
        clip-path: url(#clippath-3);
      }

      .cls-22 {
        clip-path: url(#clippath-8);
      }

      .cls-23 {
        clip-path: url(#clippath-5);
      }

      .cls-10 {
        stroke-width: 0px;
      }

      .cls-11 {
        stroke-miterlimit: 10;
        stroke-width: .9px;
      }

      .cls-12 {
        stroke-width: .01px;
      }
    </style>
    <clipPath id="clippath">
      <rect class="cls-8" x="-28.29" y="-38.18" width="595.92" height="841.92"/>
    </clipPath>
    <clipPath id="clippath-1">
      <rect class="cls-8" x="5.21" y="5.23" width="132.45" height="15.32"/>
    </clipPath>
    <clipPath id="clippath-2">
      <rect class="cls-8" x="5.21" y="59.29" width="28.83" height="15.32"/>
    </clipPath>
    <clipPath id="clippath-3">
      <rect class="cls-8" x="113.33" y="59.29" width="22.53" height="15.32"/>
    </clipPath>
    <clipPath id="clippath-4">
      <rect class="cls-8" x=".71" y="-9.18" width="154.07" height="145.06"/>
    </clipPath>
    <clipPath id="clippath-5">
      <rect class="cls-8" x="5.21" y="87.23" width="26.13" height="15.32"/>
    </clipPath>
    <clipPath id="clippath-6">
      <rect class="cls-8" x="113.33" y="87.23" width="26.13" height="13.52"/>
    </clipPath>
    <clipPath id="clippath-7">
      <rect class="cls-8" x=".71" y="-9.18" width="154.07" height="145.06"/>
    </clipPath>
    <clipPath id="clippath-8">
      <rect class="cls-8" x="5.21" y="114.26" width="26.13" height="15.32"/>
    </clipPath>
    <clipPath id="clippath-9">
      <rect class="cls-8" x="113.33" y="114.26" width="6.31" height="11.71"/>
    </clipPath>
  </defs>
  <g class="cls-20">
    <g class="cls-17">
      <path d="M11.73,12.78c0-.09-.05-.74-.15-1.95-.1-1.21-.16-1.82-.18-1.83l-.34,.54c-.13,.23-.4,.67-.79,1.34l-1.13,1.9h1.29c.86,.01,1.29,0,1.29,0Zm-3.87,2.33c0,.2,.19,.32,.58,.35,.15,0,.23,.05,.23,.14,0,0,0,.06-.03,.16-.03,.12-.05,.19-.08,.23-.03,.03-.08,.05-.16,.05h-.15c-.08,0-.23,0-.43-.01s-.47-.01-.8-.01c-.59,0-.98,0-1.14,.03h-.1c-.06-.06-.09-.1-.09-.14,.02-.23,.07-.37,.16-.44h.18c.59-.03,1.01-.23,1.28-.63,.05-.05,.81-1.32,2.27-3.82,1.47-2.49,2.21-3.76,2.24-3.79,.06-.1,.16-.15,.3-.15h.31c.05,.08,.08,.12,.08,.13l.35,4.04c.23,2.69,.36,4.05,.38,4.08,.04,.09,.31,.14,.82,.14,.21,0,.31,.04,.31,.13,0,.02-.01,.08-.04,.18-.03,.13-.05,.2-.06,.23s-.08,.04-.18,.05h-.18c-.09,0-.26,0-.49-.01-.23,0-.54-.01-.92-.01-.79,0-1.3,0-1.54,.03h-.15c-.05-.05-.08-.09-.08-.11s0-.1,.03-.23c.03-.11,.06-.18,.08-.2l.05-.04h.25c.45-.03,.72-.1,.8-.21l-.15-1.88h-2.99l-.43,.73c-.34,.58-.51,.91-.51,1.01Z"/>
      <path class="cls-12" d="M11.73,12.78c0-.09-.05-.74-.15-1.95-.1-1.21-.16-1.82-.18-1.83l-.34,.54c-.13,.23-.4,.67-.79,1.34l-1.13,1.9h1.29c.86,.01,1.29,0,1.29,0Zm-3.87,2.33c0,.2,.19,.32,.58,.35,.15,0,.23,.05,.23,.14,0,0,0,.06-.03,.16-.03,.12-.05,.19-.08,.23-.03,.03-.08,.05-.16,.05h-.15c-.08,0-.23,0-.43-.01s-.47-.01-.8-.01c-.59,0-.98,0-1.14,.03h-.1c-.06-.06-.09-.1-.09-.14,.02-.23,.07-.37,.16-.44h.18c.59-.03,1.01-.23,1.28-.63,.05-.05,.81-1.32,2.27-3.82,1.47-2.49,2.21-3.76,2.24-3.79,.06-.1,.16-.15,.3-.15h.31c.05,.08,.08,.12,.08,.13l.35,4.04c.23,2.69,.36,4.05,.38,4.08,.04,.09,.31,.14,.82,.14,.21,0,.31,.04,.31,.13,0,.02-.01,.08-.04,.18-.03,.13-.05,.2-.06,.23s-.08,.04-.18,.05h-.18c-.09,0-.26,0-.49-.01s-.54-.01-.92-.01c-.79,0-1.3,0-1.54,.03h-.15c-.05-.05-.08-.09-.08-.11s0-.1,.03-.23c.03-.11,.06-.18,.08-.2l.05-.04h.25c.45-.03,.72-.1,.8-.21l-.15-1.88h-2.99l-.43,.73c-.34,.58-.51,.91-.51,1.01Z"/>
      <path d="M20.33,12.46c-.11-1.12-.16-1.74-.16-1.88,0-.15,.1-.27,.3-.35h.06s.06,0,.08-.01c.1,0,.19,.05,.28,.11,.08,.07,.13,.15,.13,.25,0,.14-.03,.48-.08,1s-.08,.82-.09,.88l.73-.53c.47-.34,.72-.53,.77-.55s.08-.04,.13-.04c.11,0,.21,.04,.3,.13,.09,.08,.14,.2,.15,.34,0,.11-.04,.2-.13,.29-.04,.03-.33,.16-.85,.41s-.81,.38-.85,.4l.83,.39,.88,.44c.08,.08,.11,.17,.11,.29,0,.13-.04,.23-.11,.31-.08,.08-.18,.13-.3,.14-.07,0-.14-.03-.23-.08s-.31-.22-.69-.5l-.73-.53c.11,1.12,.16,1.74,.16,1.88,0,.08-.03,.16-.09,.24-.06,.08-.17,.11-.33,.11s-.27-.04-.33-.11c-.06-.08-.09-.15-.1-.24,0-.14,.03-.48,.08-1,.05-.53,.08-.82,.09-.88l-.73,.53c-.47,.34-.72,.53-.77,.55-.03,.03-.08,.04-.13,.04-.11,0-.21-.04-.3-.13s-.14-.2-.15-.34v-.1s.01-.05,.04-.08c.03-.03,.05-.05,.06-.08s.05-.05,.11-.09c.06-.03,.11-.06,.16-.09s.13-.06,.24-.11,.21-.1,.31-.14c.1-.04,.23-.1,.4-.19,.17-.08,.33-.17,.5-.25l-1.71-.81c-.08-.08-.11-.17-.11-.29,0-.13,.04-.23,.11-.31,.08-.08,.18-.13,.3-.14,.07,0,.14,.03,.23,.08,.08,.05,.31,.22,.69,.5l.73,.53Z"/>
      <path class="cls-12" d="M20.33,12.46c-.11-1.12-.16-1.74-.16-1.88,0-.15,.1-.27,.3-.35h.06s.06,0,.08-.01c.1,0,.19,.05,.28,.11,.08,.07,.13,.15,.13,.25,0,.14-.03,.48-.08,1s-.08,.82-.09,.88l.73-.53c.47-.34,.72-.53,.77-.55,.04-.03,.08-.04,.13-.04,.11,0,.21,.04,.3,.13,.09,.08,.14,.2,.15,.34,0,.11-.04,.2-.13,.29-.04,.03-.33,.16-.85,.41-.53,.25-.81,.38-.85,.4l.83,.39,.88,.44c.08,.08,.11,.17,.11,.29,0,.13-.04,.23-.11,.31-.08,.08-.18,.13-.3,.14-.07,0-.14-.03-.23-.08s-.31-.22-.69-.5l-.73-.53c.11,1.12,.16,1.74,.16,1.88,0,.08-.03,.16-.09,.24-.06,.08-.17,.11-.33,.11s-.27-.04-.33-.11-.09-.15-.1-.24c0-.14,.03-.48,.08-1,.05-.53,.08-.82,.09-.88l-.73,.53c-.47,.34-.72,.53-.77,.55-.03,.03-.08,.04-.13,.04-.11,0-.21-.04-.3-.13-.09-.08-.14-.2-.15-.34v-.1s.01-.05,.04-.08,.05-.05,.06-.08,.05-.05,.11-.09c.06-.03,.11-.06,.16-.09,.05-.03,.13-.06,.24-.11s.21-.1,.31-.14c.1-.04,.23-.1,.4-.19l.5-.25-1.71-.81c-.08-.08-.11-.17-.11-.29,0-.13,.04-.23,.11-.31s.18-.13,.3-.14c.07,0,.14,.03,.23,.08,.08,.05,.31,.22,.69,.5l.73,.53Z"/>
      <path d="M33.02,12.78c0-.09-.05-.74-.15-1.95-.1-1.21-.16-1.82-.18-1.83l-.34,.54c-.13,.23-.4,.67-.79,1.34l-1.13,1.9h1.29c.86,.01,1.29,0,1.29,0Zm-3.87,2.33c0,.2,.19,.32,.58,.35,.15,0,.23,.05,.23,.14,0,0,0,.06-.03,.16-.03,.12-.05,.19-.08,.23-.03,.03-.08,.05-.16,.05h-.15c-.08,0-.23,0-.43-.01s-.47-.01-.8-.01c-.59,0-.98,0-1.14,.03h-.1c-.06-.06-.09-.1-.09-.14,.02-.23,.07-.37,.16-.44h.18c.59-.03,1.01-.23,1.28-.63,.05-.05,.81-1.32,2.27-3.82,1.47-2.49,2.21-3.76,2.24-3.79,.06-.1,.16-.15,.3-.15h.31c.05,.08,.08,.12,.08,.13l.35,4.04c.23,2.69,.36,4.05,.38,4.08,.04,.09,.31,.14,.82,.14,.21,0,.31,.04,.31,.13,0,.02-.01,.08-.04,.18-.03,.13-.05,.2-.06,.23-.02,.03-.08,.04-.18,.05h-.18c-.09,0-.26,0-.49-.01-.23,0-.54-.01-.92-.01-.79,0-1.3,0-1.54,.03h-.15c-.05-.05-.08-.09-.08-.11s0-.1,.03-.23c.03-.11,.06-.18,.08-.2l.05-.04h.25c.45-.03,.72-.1,.8-.21l-.15-1.88h-2.99l-.43,.73c-.34,.58-.51,.91-.51,1.01Z"/>
      <path class="cls-12" d="M33.02,12.78c0-.09-.05-.74-.15-1.95-.1-1.21-.16-1.82-.18-1.83l-.34,.54c-.13,.23-.4,.67-.79,1.34l-1.13,1.9h1.29c.86,.01,1.29,0,1.29,0Zm-3.87,2.33c0,.2,.19,.32,.58,.35,.15,0,.23,.05,.23,.14,0,0,0,.06-.03,.16-.03,.12-.05,.19-.08,.23-.03,.03-.08,.05-.16,.05h-.15c-.08,0-.23,0-.43-.01s-.47-.01-.8-.01c-.59,0-.98,0-1.14,.03h-.1c-.06-.06-.09-.1-.09-.14,.02-.23,.07-.37,.16-.44h.18c.59-.03,1.01-.23,1.28-.63,.05-.05,.81-1.32,2.27-3.82,1.47-2.49,2.21-3.76,2.24-3.79,.06-.1,.16-.15,.3-.15h.31c.05,.08,.08,.12,.08,.13l.35,4.04c.23,2.69,.36,4.05,.38,4.08,.04,.09,.31,.14,.82,.14,.21,0,.31,.04,.31,.13,0,.02-.01,.08-.04,.18-.03,.13-.05,.2-.06,.23s-.08,.04-.18,.05h-.18c-.09,0-.26,0-.49-.01s-.54-.01-.92-.01c-.79,0-1.3,0-1.54,.03h-.15c-.05-.05-.08-.09-.08-.11s0-.1,.03-.23c.03-.11,.06-.18,.08-.2l.05-.04h.25c.45-.03,.72-.1,.8-.21l-.15-1.88h-2.99l-.43,.73c-.34,.58-.51,.91-.51,1.01Z"/>
      <path d="M37.99,8.35c-.08-.79-.12-1.23-.12-1.33,0-.11,.07-.19,.21-.25h.04s.04,0,.05,0c.07,0,.14,.03,.2,.08,.06,.05,.09,.11,.09,.18,0,.1-.02,.34-.05,.71-.04,.37-.06,.58-.06,.62l.52-.37c.33-.24,.51-.37,.54-.39,.03-.02,.06-.03,.09-.03,.08,0,.15,.03,.21,.09,.07,.06,.1,.14,.11,.24,0,.08-.03,.14-.09,.2-.03,.02-.23,.11-.6,.29-.37,.18-.57,.27-.6,.28l.59,.27,.62,.31c.05,.05,.08,.12,.08,.2,0,.09-.03,.16-.08,.22-.05,.06-.12,.09-.21,.1-.05,0-.1-.02-.16-.05s-.22-.15-.49-.35l-.52-.37c.08,.79,.12,1.23,.12,1.33,0,.06-.02,.12-.06,.17s-.12,.08-.23,.08-.19-.03-.23-.08-.07-.11-.07-.17c0-.1,.02-.34,.05-.71,.04-.37,.06-.58,.06-.62l-.52,.37c-.33,.24-.51,.37-.54,.39-.02,.02-.05,.03-.09,.03-.08,0-.15-.03-.21-.09-.07-.06-.1-.14-.11-.24v-.07s0-.04,.03-.05c.02-.02,.03-.04,.04-.05s.04-.04,.08-.06c.04-.02,.08-.04,.12-.06s.09-.04,.17-.08c.08-.04,.15-.07,.22-.1,.07-.03,.17-.07,.28-.13,.12-.06,.24-.12,.36-.18l-1.21-.58c-.05-.05-.08-.12-.08-.2,0-.09,.03-.16,.08-.22,.05-.06,.12-.09,.21-.1,.05,0,.1,.02,.16,.05,.06,.04,.22,.15,.49,.35l.52,.37Z"/>
      <path class="cls-6" d="M37.99,8.35c-.08-.79-.12-1.23-.12-1.33,0-.11,.07-.19,.21-.25h.04s.04,0,.05,0c.07,0,.14,.03,.2,.08,.06,.05,.09,.11,.09,.18,0,.1-.02,.34-.05,.71-.04,.37-.06,.58-.06,.62l.52-.37c.33-.24,.51-.37,.54-.39s.06-.03,.09-.03c.08,0,.15,.03,.21,.09,.07,.06,.1,.14,.11,.24,0,.08-.03,.14-.09,.2-.03,.02-.23,.12-.6,.29-.37,.18-.57,.27-.6,.28l.59,.27,.62,.31c.05,.05,.08,.12,.08,.2,0,.09-.03,.16-.08,.22-.05,.06-.12,.09-.21,.1-.05,0-.1-.02-.16-.05-.06-.04-.22-.15-.49-.35l-.52-.37c.08,.79,.12,1.23,.12,1.33,0,.06-.02,.12-.06,.17-.04,.05-.12,.08-.23,.08s-.19-.03-.23-.08c-.04-.05-.07-.11-.07-.17,0-.1,.02-.34,.05-.71,.04-.37,.06-.58,.06-.62l-.52,.37c-.33,.24-.51,.37-.54,.39-.02,.02-.05,.03-.09,.03-.08,0-.15-.03-.21-.09-.07-.06-.1-.14-.11-.24v-.07s0-.04,.03-.05,.03-.04,.04-.05c.01-.02,.04-.04,.08-.06,.04-.02,.08-.04,.12-.06,.04-.02,.09-.04,.17-.08,.08-.04,.15-.07,.22-.1,.07-.03,.17-.07,.28-.13,.12-.06,.24-.12,.36-.18l-1.21-.58c-.05-.05-.08-.12-.08-.2,0-.09,.03-.16,.08-.22,.05-.06,.12-.09,.21-.1,.05,0,.1,.02,.16,.05s.22,.15,.49,.35l.52,.37Z"/>
      <path d="M45.85,14.12c0-.13,.07-.21,.2-.25h7.99c.12,.08,.18,.17,.18,.25,0,.11-.06,.19-.19,.25h-8c-.12-.06-.18-.14-.18-.25Zm0-2.43c0-.11,.06-.19,.18-.25h8c.13,.07,.19,.15,.19,.25,0,.09-.06,.17-.18,.24h-3.99s-3.99,.01-3.99,.01c-.13-.04-.2-.13-.2-.25Z"/>
      <path class="cls-12" d="M45.85,14.12c0-.13,.07-.21,.2-.25h7.99c.12,.08,.18,.17,.18,.25,0,.11-.06,.19-.19,.25h-8c-.12-.06-.18-.14-.18-.25Zm0-2.43c0-.11,.06-.19,.18-.25h8c.13,.07,.19,.15,.19,.25,0,.09-.06,.17-.18,.24h-3.99s-3.99,.01-3.99,.01c-.13-.04-.2-.13-.2-.25Z"/>
      <path d="M64.89,12.78c0-.09-.05-.74-.15-1.95s-.16-1.82-.18-1.83l-.34,.54c-.13,.23-.4,.67-.79,1.34l-1.13,1.9h1.29c.86,.01,1.29,0,1.29,0Zm-3.87,2.33c0,.2,.19,.32,.58,.35,.15,0,.23,.05,.23,.14,0,0,0,.06-.03,.16-.03,.12-.05,.19-.08,.23-.03,.03-.08,.05-.16,.05h-.15c-.08,0-.23,0-.43-.01-.2,0-.47-.01-.8-.01-.59,0-.98,0-1.14,.03h-.1c-.06-.06-.09-.1-.09-.14,.02-.23,.07-.37,.16-.44h.18c.59-.03,1.01-.23,1.28-.63,.05-.05,.81-1.32,2.27-3.82,1.47-2.49,2.21-3.76,2.24-3.79,.06-.1,.16-.15,.3-.15h.31c.05,.08,.08,.12,.08,.13l.35,4.04c.23,2.69,.36,4.05,.38,4.08,.04,.09,.31,.14,.82,.14,.21,0,.31,.04,.31,.13,0,.02-.01,.08-.04,.18-.03,.13-.05,.2-.06,.23s-.08,.04-.18,.05h-.18c-.09,0-.26,0-.49-.01s-.54-.01-.92-.01c-.79,0-1.3,0-1.54,.03h-.15c-.05-.05-.08-.09-.08-.11s0-.1,.03-.23c.03-.11,.06-.18,.08-.2l.05-.04h.25c.45-.03,.72-.1,.8-.21l-.15-1.88h-2.99l-.43,.73c-.34,.58-.51,.91-.51,1.01Z"/>
      <path class="cls-12" d="M64.89,12.78c0-.09-.05-.74-.15-1.95-.1-1.21-.16-1.82-.18-1.83l-.34,.54c-.13,.23-.4,.67-.79,1.34l-1.13,1.9h1.29c.86,.01,1.29,0,1.29,0Zm-3.87,2.33c0,.2,.19,.32,.58,.35,.15,0,.23,.05,.23,.14,0,0,0,.06-.03,.16-.03,.12-.05,.19-.08,.23-.03,.03-.08,.05-.16,.05h-.15c-.08,0-.23,0-.43-.01-.2,0-.47-.01-.8-.01-.59,0-.98,0-1.14,.03h-.1c-.06-.06-.09-.1-.09-.14,.02-.23,.07-.37,.16-.44h.18c.59-.03,1.01-.23,1.28-.63,.05-.05,.81-1.32,2.27-3.82,1.47-2.49,2.21-3.76,2.24-3.79,.06-.1,.16-.15,.3-.15h.31c.05,.08,.08,.12,.08,.13l.35,4.04c.23,2.69,.36,4.05,.38,4.08,.04,.09,.31,.14,.82,.14,.21,0,.31,.04,.31,.13,0,.02-.01,.08-.04,.18-.03,.13-.05,.2-.06,.23s-.08,.04-.18,.05h-.18c-.09,0-.26,0-.49-.01-.23,0-.54-.01-.92-.01-.79,0-1.3,0-1.54,.03h-.15c-.05-.05-.08-.09-.08-.11s0-.1,.03-.23c.03-.11,.06-.18,.08-.2l.05-.04h.25c.45-.03,.72-.1,.8-.21l-.15-1.88h-2.99l-.43,.73c-.34,.58-.51,.91-.51,1.01Z"/>
      <path d="M69.87,8.35c-.08-.79-.12-1.23-.12-1.33,0-.11,.07-.19,.21-.25h.04s.04,0,.05,0c.07,0,.14,.03,.2,.08,.06,.05,.09,.11,.09,.18,0,.1-.02,.34-.05,.71-.04,.37-.06,.58-.06,.62l.52-.37c.33-.24,.51-.37,.54-.39s.06-.03,.09-.03c.08,0,.15,.03,.21,.09,.07,.06,.1,.14,.11,.24,0,.08-.03,.14-.09,.2-.03,.02-.23,.11-.6,.29-.37,.18-.57,.27-.6,.28l.59,.27,.62,.31c.05,.05,.08,.12,.08,.2,0,.09-.03,.16-.08,.22-.05,.06-.12,.09-.21,.1-.05,0-.1-.02-.16-.05-.06-.04-.22-.15-.49-.35l-.52-.37c.08,.79,.12,1.23,.12,1.33,0,.06-.02,.12-.06,.17-.04,.05-.12,.08-.23,.08s-.19-.03-.23-.08c-.04-.05-.07-.11-.07-.17,0-.1,.02-.34,.05-.71,.04-.37,.06-.58,.06-.62l-.52,.37c-.33,.24-.51,.37-.54,.39-.02,.02-.05,.03-.09,.03-.08,0-.15-.03-.21-.09-.07-.06-.1-.14-.11-.24v-.07s0-.04,.03-.05c.02-.02,.03-.04,.04-.05,.01-.02,.04-.04,.08-.06,.04-.02,.08-.04,.12-.06s.09-.04,.17-.08c.08-.04,.15-.07,.22-.1,.07-.03,.17-.07,.28-.13,.12-.06,.24-.12,.36-.18l-1.21-.58c-.05-.05-.08-.12-.08-.2,0-.09,.03-.16,.08-.22,.05-.06,.12-.09,.21-.1,.05,0,.1,.02,.16,.05,.06,.04,.22,.15,.49,.35l.52,.37Z"/>
      <path class="cls-6" d="M69.87,8.35c-.08-.79-.12-1.23-.12-1.33,0-.11,.07-.19,.21-.25h.04s.04,0,.05,0c.07,0,.14,.03,.2,.08,.06,.05,.09,.11,.09,.18,0,.1-.02,.34-.05,.71-.04,.37-.06,.58-.06,.62l.52-.37c.33-.24,.51-.37,.54-.39s.06-.03,.09-.03c.08,0,.15,.03,.21,.09,.07,.06,.1,.14,.11,.24,0,.08-.03,.14-.09,.2-.03,.02-.23,.12-.6,.29-.37,.18-.57,.27-.6,.28l.59,.27,.62,.31c.05,.05,.08,.12,.08,.2,0,.09-.03,.16-.08,.22-.05,.06-.12,.09-.21,.1-.05,0-.1-.02-.16-.05-.06-.04-.22-.15-.49-.35l-.52-.37c.08,.79,.12,1.23,.12,1.33,0,.06-.02,.12-.06,.17-.04,.05-.12,.08-.23,.08s-.19-.03-.23-.08c-.04-.05-.07-.11-.07-.17,0-.1,.02-.34,.05-.71,.04-.37,.06-.58,.06-.62l-.52,.37c-.33,.24-.51,.37-.54,.39-.02,.02-.05,.03-.09,.03-.08,0-.15-.03-.21-.09-.07-.06-.1-.14-.11-.24v-.07s0-.04,.03-.05,.03-.04,.04-.05c.01-.02,.04-.04,.08-.06,.04-.02,.08-.04,.12-.06,.04-.02,.09-.04,.17-.08,.08-.04,.15-.07,.22-.1,.07-.03,.17-.07,.28-.13,.12-.06,.24-.12,.36-.18l-1.21-.58c-.05-.05-.08-.12-.08-.2,0-.09,.03-.16,.08-.22,.05-.06,.12-.09,.21-.1,.05,0,.1,.02,.16,.05s.22,.15,.49,.35l.52,.37Z"/>
      <path d="M79.21,12.46c-.11-1.12-.16-1.74-.16-1.88,0-.15,.1-.27,.3-.35h.06s.06,0,.08-.01c.1,0,.19,.05,.28,.11,.08,.07,.13,.15,.13,.25,0,.14-.03,.48-.08,1-.05,.53-.08,.82-.09,.88l.73-.53c.47-.34,.72-.53,.77-.55,.04-.03,.08-.04,.13-.04,.11,0,.21,.04,.3,.13s.14,.2,.15,.34c0,.11-.04,.2-.13,.29-.04,.03-.33,.16-.85,.41s-.81,.38-.85,.4l.83,.39,.88,.44c.08,.08,.11,.17,.11,.29,0,.13-.04,.23-.11,.31-.08,.08-.18,.13-.3,.14-.07,0-.14-.03-.23-.08-.08-.05-.31-.22-.69-.5l-.73-.53c.11,1.12,.16,1.74,.16,1.88,0,.08-.03,.16-.09,.24-.06,.08-.17,.11-.33,.11s-.27-.04-.33-.11c-.06-.08-.09-.15-.1-.24,0-.14,.03-.48,.08-1,.05-.53,.08-.82,.09-.88l-.73,.53c-.47,.34-.72,.53-.77,.55-.03,.03-.08,.04-.13,.04-.11,0-.21-.04-.3-.13-.09-.08-.14-.2-.15-.34v-.1s.01-.05,.04-.08c.03-.03,.05-.05,.06-.08,.02-.03,.05-.05,.11-.09,.06-.03,.11-.06,.16-.09s.13-.06,.24-.11,.21-.1,.31-.14c.1-.04,.23-.1,.4-.19,.17-.08,.33-.17,.5-.25l-1.71-.81c-.08-.08-.11-.17-.11-.29,0-.13,.04-.23,.11-.31,.08-.08,.18-.13,.3-.14,.07,0,.14,.03,.23,.08s.31,.22,.69,.5l.73,.53Z"/>
      <path class="cls-12" d="M79.21,12.46c-.11-1.12-.16-1.74-.16-1.88,0-.15,.1-.27,.3-.35h.06s.06,0,.08-.01c.1,0,.19,.05,.28,.11,.08,.07,.13,.15,.13,.25,0,.14-.03,.48-.08,1-.05,.53-.08,.82-.09,.88l.73-.53c.47-.34,.72-.53,.77-.55,.04-.03,.08-.04,.13-.04,.11,0,.21,.04,.3,.13s.14,.2,.15,.34c0,.11-.04,.2-.13,.29-.04,.03-.33,.16-.85,.41s-.81,.38-.85,.4l.83,.39,.88,.44c.08,.08,.11,.17,.11,.29,0,.13-.04,.23-.11,.31-.08,.08-.18,.13-.3,.14-.07,0-.14-.03-.23-.08-.08-.05-.31-.22-.69-.5l-.73-.53c.11,1.12,.16,1.74,.16,1.88,0,.08-.03,.16-.09,.24-.06,.08-.17,.11-.33,.11s-.27-.04-.33-.11c-.06-.08-.09-.15-.1-.24,0-.14,.03-.48,.08-1,.05-.53,.08-.82,.09-.88l-.73,.53c-.47,.34-.72,.53-.77,.55-.03,.03-.08,.04-.13,.04-.11,0-.21-.04-.3-.13-.09-.08-.14-.2-.15-.34v-.1s.01-.05,.04-.08,.05-.05,.06-.08,.05-.05,.11-.09c.06-.03,.11-.06,.16-.09,.05-.03,.13-.06,.24-.11s.21-.1,.31-.14c.1-.04,.23-.1,.4-.19,.17-.08,.33-.17,.5-.25l-1.71-.81c-.08-.08-.11-.17-.11-.29,0-.13,.04-.23,.11-.31s.18-.13,.3-.14c.07,0,.14,.03,.23,.08,.08,.05,.31,.22,.69,.5l.73,.53Z"/>
      <path d="M91.9,12.78c0-.09-.05-.74-.15-1.95-.1-1.21-.16-1.82-.18-1.83l-.34,.54c-.13,.23-.4,.67-.79,1.34l-1.13,1.9h1.29c.86,.01,1.29,0,1.29,0Zm-3.87,2.33c0,.2,.19,.32,.58,.35,.15,0,.23,.05,.23,.14,0,0,0,.06-.03,.16-.03,.12-.05,.19-.08,.23-.03,.03-.08,.05-.16,.05h-.15c-.08,0-.23,0-.43-.01-.2,0-.47-.01-.8-.01-.59,0-.98,0-1.14,.03h-.1c-.06-.06-.09-.1-.09-.14,.02-.23,.07-.37,.16-.44h.18c.59-.03,1.01-.23,1.28-.63,.05-.05,.81-1.32,2.27-3.82,1.47-2.49,2.21-3.76,2.24-3.79,.06-.1,.16-.15,.3-.15h.31c.05,.08,.08,.12,.08,.13l.35,4.04c.23,2.69,.36,4.05,.38,4.08,.04,.09,.31,.14,.82,.14,.21,0,.31,.04,.31,.13,0,.02-.01,.08-.04,.18-.03,.13-.05,.2-.06,.23-.02,.03-.08,.04-.18,.05h-.18c-.09,0-.26,0-.49-.01-.23,0-.54-.01-.92-.01-.79,0-1.3,0-1.54,.03h-.15c-.05-.05-.08-.09-.08-.11s0-.1,.03-.23c.03-.11,.06-.18,.08-.2l.05-.04h.25c.45-.03,.72-.1,.8-.21l-.15-1.88h-2.99l-.43,.73c-.34,.58-.51,.91-.51,1.01Z"/>
      <path class="cls-12" d="M91.9,12.78c0-.09-.05-.74-.15-1.95-.1-1.21-.16-1.82-.18-1.83l-.34,.54c-.13,.23-.4,.67-.79,1.34l-1.13,1.9h1.29c.86,.01,1.29,0,1.29,0Zm-3.87,2.33c0,.2,.19,.32,.58,.35,.15,0,.23,.05,.23,.14,0,0,0,.06-.03,.16-.03,.12-.05,.19-.08,.23-.03,.03-.08,.05-.16,.05h-.15c-.08,0-.23,0-.43-.01-.2,0-.47-.01-.8-.01-.59,0-.98,0-1.14,.03h-.1c-.06-.06-.09-.1-.09-.14,.02-.23,.07-.37,.16-.44h.18c.59-.03,1.01-.23,1.28-.63,.05-.05,.81-1.32,2.27-3.82,1.47-2.49,2.21-3.76,2.24-3.79,.06-.1,.16-.15,.3-.15h.31c.05,.08,.08,.12,.08,.13l.35,4.04c.23,2.69,.36,4.05,.38,4.08,.04,.09,.31,.14,.82,.14,.21,0,.31,.04,.31,.13,0,.02-.01,.08-.04,.18-.03,.13-.05,.2-.06,.23s-.08,.04-.18,.05h-.18c-.09,0-.26,0-.49-.01-.23,0-.54-.01-.92-.01-.79,0-1.3,0-1.54,.03h-.15c-.05-.05-.08-.09-.08-.11s0-.1,.03-.23c.03-.11,.06-.18,.08-.2l.05-.04h.25c.45-.03,.72-.1,.8-.21l-.15-1.88h-2.99l-.43,.73c-.34,.58-.51,.91-.51,1.01Z"/>
      <path d="M99.03,14.12c0-.13,.07-.21,.2-.25h7.99c.12,.08,.18,.17,.18,.25,0,.11-.06,.19-.19,.25h-8c-.12-.06-.18-.14-.18-.25Zm0-2.43c0-.11,.06-.19,.18-.25h8c.13,.07,.19,.15,.19,.25,0,.09-.06,.17-.18,.24h-3.99s-3.99,.01-3.99,.01c-.13-.04-.2-.13-.2-.25Z"/>
      <path class="cls-12" d="M99.03,14.12c0-.13,.07-.21,.2-.25h7.99c.12,.08,.18,.17,.18,.25,0,.11-.06,.19-.19,.25h-8c-.12-.06-.18-.14-.18-.25Zm0-2.43c0-.11,.06-.19,.18-.25h8c.13,.07,.19,.15,.19,.25,0,.09-.06,.17-.18,.24h-3.99s-3.99,.01-3.99,.01c-.13-.04-.2-.13-.2-.25Z"/>
      <path d="M113.34,19.15h-.03c-.1,0-.18-.06-.23-.18V6.81c.1-.11,.18-.16,.25-.16,.11,0,.19,.06,.25,.19v12.14c-.07,.12-.14,.18-.23,.18h-.03Z"/>
      <path class="cls-12" d="M113.34,19.15h-.03c-.1,0-.18-.06-.23-.18V6.81c.1-.11,.18-.16,.25-.16,.11,0,.19,.06,.25,.19v12.14c-.07,.12-.14,.18-.23,.18h-.03Z"/>
      <path d="M121.58,12.78c0-.09-.05-.74-.15-1.95-.1-1.21-.16-1.82-.18-1.83l-.34,.54c-.13,.23-.4,.67-.79,1.34l-1.13,1.9h1.29c.86,.01,1.29,0,1.29,0Zm-3.87,2.33c0,.2,.19,.32,.58,.35,.15,0,.23,.05,.23,.14,0,0,0,.06-.03,.16-.03,.12-.05,.19-.08,.23-.03,.03-.08,.05-.16,.05h-.15c-.08,0-.23,0-.43-.01s-.47-.01-.8-.01c-.59,0-.98,0-1.14,.03h-.1c-.06-.06-.09-.1-.09-.14,.02-.23,.07-.37,.16-.44h.18c.59-.03,1.01-.23,1.28-.63,.05-.05,.81-1.32,2.27-3.82,1.47-2.49,2.21-3.76,2.24-3.79,.06-.1,.16-.15,.3-.15h.31c.05,.08,.08,.12,.08,.13l.35,4.04c.23,2.69,.36,4.05,.38,4.08,.04,.09,.31,.14,.82,.14,.21,0,.31,.04,.31,.13,0,.02-.01,.08-.04,.18-.03,.13-.05,.2-.06,.23-.02,.03-.08,.04-.18,.05h-.18c-.09,0-.26,0-.49-.01-.23,0-.54-.01-.92-.01-.79,0-1.3,0-1.54,.03h-.15c-.05-.05-.08-.09-.08-.11s0-.1,.03-.23c.03-.11,.06-.18,.08-.2l.05-.04h.25c.45-.03,.72-.1,.8-.21l-.15-1.88h-2.99l-.43,.73c-.34,.58-.51,.91-.51,1.01Z"/>
      <path class="cls-12" d="M121.58,12.78c0-.09-.05-.74-.15-1.95-.1-1.21-.16-1.82-.18-1.83l-.34,.54c-.13,.23-.4,.67-.79,1.34l-1.13,1.9h1.29c.86,.01,1.29,0,1.29,0Zm-3.87,2.33c0,.2,.19,.32,.58,.35,.15,0,.23,.05,.23,.14,0,0,0,.06-.03,.16-.03,.12-.05,.19-.08,.23-.03,.03-.08,.05-.16,.05h-.15c-.08,0-.23,0-.43-.01s-.47-.01-.8-.01c-.59,0-.98,0-1.14,.03h-.1c-.06-.06-.09-.1-.09-.14,.02-.23,.07-.37,.16-.44h.18c.59-.03,1.01-.23,1.28-.63,.05-.05,.81-1.32,2.27-3.82s2.21-3.76,2.24-3.79c.06-.1,.16-.15,.3-.15h.31c.05,.08,.08,.12,.08,.13l.35,4.04c.23,2.69,.36,4.05,.38,4.08,.04,.09,.31,.14,.82,.14,.21,0,.31,.04,.31,.13,0,.02-.01,.08-.04,.18-.03,.13-.05,.2-.06,.23-.02,.03-.08,.04-.18,.05h-.18c-.09,0-.26,0-.49-.01-.23,0-.54-.01-.92-.01-.79,0-1.3,0-1.54,.03h-.15c-.05-.05-.08-.09-.08-.11s0-.1,.03-.23c.03-.11,.06-.18,.08-.2l.05-.04h.25c.45-.03,.72-.1,.8-.21l-.15-1.88h-2.99l-.43,.73c-.34,.58-.51,.91-.51,1.01Z"/>
      <path d="M126.26,19.15h-.03c-.1,0-.18-.06-.23-.18V6.81c.1-.11,.18-.16,.25-.16,.11,0,.19,.06,.25,.19v12.14c-.07,.12-.14,.18-.23,.18h-.03Z"/>
      <path class="cls-12" d="M126.26,19.15h-.03c-.1,0-.18-.06-.23-.18V6.81c.1-.11,.18-.16,.25-.16,.11,0,.19,.06,.25,.19v12.14c-.07,.12-.14,.18-.23,.18h-.03Z"/>
      <path d="M134.2,13.37c-.17,0-.25-.05-.25-.16,0-.03,.02-.13,.06-.3s.06-.31,.06-.44c0-.26-.09-.42-.26-.48-.18-.06-.58-.09-1.22-.09h-.65s-.15,.59-.44,1.73c-.28,1.13-.43,1.72-.43,1.75s.05,.05,.14,.05,.43,0,1,.03c.79,0,1.31,0,1.56-.03,.25-.02,.5-.07,.75-.16,.41-.13,.75-.37,1.02-.7,.27-.33,.57-.88,.89-1.64,.08-.18,.14-.28,.16-.3,.06-.02,.12-.03,.19-.03,.17,0,.25,.05,.25,.16-.88,2.12-1.34,3.2-1.38,3.24-.03,.02-1.22,.03-3.59,.03h-2.37c-.85,0-1.28-.05-1.28-.14,0-.02,.01-.08,.04-.18,.03-.13,.07-.21,.1-.23s.13-.03,.29-.04c.23,0,.48-.01,.75-.04,.12-.03,.2-.08,.24-.15,.02-.04,.31-1.21,.89-3.52,.58-2.3,.87-3.47,.88-3.5,0-.06-.02-.09-.05-.09-.07-.03-.29-.05-.67-.06h-.39c-.05-.05-.08-.08-.08-.1s0-.09,.03-.21c.03-.14,.08-.23,.13-.26h6.96c.06,.03,.09,.08,.09,.14,0,.04-.05,.51-.16,1.4-.11,.89-.17,1.35-.18,1.38-.02,.06-.1,.09-.25,.09h-.15c-.06-.04-.09-.1-.09-.16l.04-.29c.03-.2,.04-.42,.04-.65,0-.25-.03-.46-.09-.63-.06-.17-.14-.3-.24-.39-.1-.09-.25-.16-.44-.2-.19-.04-.39-.07-.59-.09-.2-.02-.47-.03-.8-.03h-.59c-.74,0-1.13,.02-1.17,.04-.03,.02-.06,.05-.08,.11,0,.03-.14,.54-.39,1.54-.25,1-.38,1.51-.39,1.53,.19,0,.39,.01,.6,.01h.33c.55,0,.93-.06,1.14-.19,.21-.13,.4-.46,.57-1.01,.03-.13,.06-.21,.08-.23,.02-.02,.09-.03,.21-.04h.1s.05,0,.06,.01c.02,0,.03,.01,.03,.01,0,0,0,.02,.03,.05,.02,.03,.03,.05,.04,.05l-.41,1.65c-.28,1.11-.43,1.67-.45,1.69-.03,.03-.09,.04-.2,.04Z"/>
      <path class="cls-12" d="M134.2,13.37c-.17,0-.25-.05-.25-.16,0-.03,.02-.13,.06-.3,.04-.17,.06-.31,.06-.44,0-.26-.09-.42-.26-.48-.18-.06-.58-.09-1.22-.09h-.65s-.15,.59-.44,1.73c-.28,1.13-.43,1.72-.43,1.75s.05,.05,.14,.05,.43,0,1,.03c.79,0,1.31,0,1.56-.03,.25-.02,.5-.07,.75-.16,.41-.13,.75-.37,1.02-.7s.57-.88,.89-1.64c.08-.18,.14-.28,.16-.3,.06-.02,.12-.03,.19-.03,.17,0,.25,.05,.25,.16-.88,2.12-1.34,3.2-1.38,3.24-.03,.02-1.22,.03-3.59,.03h-2.37c-.85,0-1.28-.05-1.28-.14,0-.02,.01-.08,.04-.18,.03-.13,.07-.21,.1-.23s.13-.03,.29-.04c.23,0,.48-.01,.75-.04,.12-.03,.2-.08,.24-.15,.02-.04,.31-1.21,.89-3.52,.58-2.3,.87-3.47,.88-3.5,0-.06-.02-.09-.05-.09-.07-.03-.29-.05-.67-.06h-.39c-.05-.05-.08-.08-.08-.1s0-.09,.03-.21c.03-.14,.08-.23,.13-.26h6.96c.06,.03,.09,.08,.09,.14,0,.04-.05,.51-.16,1.4-.11,.89-.17,1.35-.18,1.38-.02,.06-.1,.09-.25,.09h-.15c-.06-.04-.09-.1-.09-.16l.04-.29c.03-.2,.04-.42,.04-.65,0-.25-.03-.46-.09-.63-.06-.17-.14-.3-.24-.39-.1-.09-.25-.16-.44-.2-.19-.04-.39-.07-.59-.09-.2-.02-.47-.03-.8-.03h-.59c-.74,0-1.13,.02-1.17,.04-.03,.02-.06,.05-.08,.11,0,.03-.14,.54-.39,1.54-.25,1-.38,1.51-.39,1.53,.19,0,.39,.01,.6,.01h.33c.55,0,.93-.06,1.14-.19,.21-.13,.4-.46,.57-1.01,.03-.13,.06-.21,.08-.23,.02-.02,.09-.03,.21-.04h.1s.05,0,.06,.01c.02,0,.03,.01,.03,.01,0,0,0,.02,.03,.05,.02,.03,.03,.05,.04,.05l-.41,1.65c-.28,1.11-.43,1.67-.45,1.69-.03,.03-.09,.04-.2,.04Z"/>
    </g>
    <g class="cls-13">
      <polygon points="6.72 73.22 6.72 60.71 8.47 60.71 8.47 61.21 7.23 61.21 7.23 72.72 8.47 72.72 8.47 73.22 6.72 73.22"/>
      <polygon class="cls-5" points="6.72 73.22 6.72 60.71 8.47 60.71 8.47 61.21 7.23 61.21 7.23 72.72 8.47 72.72 8.47 73.22 6.72 73.22"/>
      <path d="M10.85,68.13c0,.2-.07,.37-.2,.5s-.3,.2-.5,.2h-.09c.39,.66,.91,.99,1.55,.99,.59,0,1.03-.25,1.3-.75,.16-.28,.24-.81,.24-1.6,0-.86-.11-1.44-.34-1.74-.22-.28-.47-.41-.74-.41h-.08c-.66,0-1.16,.28-1.5,.85-.03,.06-.06,.09-.09,.1-.03,0-.09,.02-.19,.03-.14,0-.23-.03-.24-.08-.02-.03-.03-.76-.03-2.19v-1.61c0-.42,.02-.63,.06-.63,.02-.02,.03-.03,.05-.03,0,0,.1,.03,.27,.1,.17,.07,.4,.13,.7,.2,.3,.07,.62,.1,.96,.1,.6,0,1.18-.12,1.73-.35,.07-.03,.12-.05,.17-.05,.07,0,.1,.08,.1,.23v.16c-.7,.81-1.57,1.21-2.61,1.21-.26,0-.5-.03-.71-.08l-.13-.03v2.15c.16-.12,.29-.21,.38-.28,.09-.07,.25-.13,.46-.2,.21-.07,.43-.1,.65-.1,.69,0,1.27,.27,1.75,.81,.48,.54,.71,1.18,.71,1.93s-.27,1.42-.82,1.96c-.54,.54-1.21,.82-1.99,.83-.69,0-1.24-.23-1.66-.68-.42-.45-.62-.96-.62-1.53,0-.2,.05-.36,.14-.48,.09-.12,.19-.19,.29-.23,.1-.03,.2-.05,.29-.05,.21,0,.39,.07,.52,.21s.2,.31,.2,.5Z"/>
      <path class="cls-5" d="M10.85,68.13c0,.2-.07,.37-.2,.5-.14,.13-.3,.2-.5,.2h-.09c.39,.66,.91,.99,1.55,.99,.59,0,1.03-.25,1.3-.75,.16-.28,.24-.81,.24-1.6,0-.86-.11-1.44-.34-1.74-.22-.28-.47-.41-.74-.41h-.08c-.66,0-1.16,.28-1.5,.85-.03,.06-.06,.09-.09,.1-.03,0-.09,.02-.19,.03-.14,0-.23-.03-.24-.08-.02-.03-.03-.76-.03-2.19v-1.61c0-.42,.02-.63,.06-.63,.02-.02,.03-.03,.05-.03,0,0,.1,.03,.27,.1,.17,.07,.4,.13,.7,.2,.3,.07,.62,.1,.96,.1,.6,0,1.18-.12,1.73-.35,.07-.03,.12-.05,.17-.05,.07,0,.1,.08,.1,.23v.16c-.7,.81-1.57,1.21-2.61,1.21-.26,0-.5-.03-.71-.08l-.13-.03v2.15c.16-.12,.29-.21,.38-.28,.09-.07,.25-.13,.46-.2,.21-.07,.43-.1,.65-.1,.69,0,1.27,.27,1.75,.81,.48,.54,.71,1.18,.71,1.93s-.27,1.42-.82,1.96c-.54,.54-1.21,.82-1.99,.83-.69,0-1.24-.23-1.66-.68-.42-.45-.62-.96-.62-1.53,0-.2,.05-.36,.14-.48,.09-.12,.19-.19,.29-.23,.1-.03,.2-.05,.29-.05,.21,0,.39,.07,.52,.21,.14,.14,.2,.31,.2,.5Z"/>
      <polygon points="15.42 61.21 15.42 60.71 17.17 60.71 17.17 73.22 15.42 73.22 15.42 72.72 16.66 72.72 16.66 61.21 15.42 61.21"/>
      <polygon class="cls-5" points="15.42 61.21 15.42 60.71 17.17 60.71 17.17 73.22 15.42 73.22 15.42 72.72 16.66 72.72 16.66 61.21 15.42 61.21"/>
      <path d="M25.26,66.84c0-.09-.05-.74-.15-1.95-.1-1.21-.16-1.82-.18-1.83l-.34,.54c-.14,.23-.4,.67-.8,1.34l-1.15,1.9h1.31c.87,.01,1.31,0,1.31,0Zm-3.92,2.33c0,.2,.2,.32,.59,.35,.15,0,.23,.05,.23,.14,0,0,0,.06-.03,.16-.03,.12-.05,.19-.08,.23-.03,.03-.08,.05-.17,.05h-.15c-.08,0-.23,0-.43-.01-.2,0-.48-.01-.82-.01-.6,0-.99,0-1.16,.03h-.1c-.06-.06-.09-.1-.09-.14,.02-.23,.07-.37,.17-.44h.18c.59-.03,1.03-.23,1.3-.63,.05-.05,.82-1.32,2.31-3.82,1.49-2.49,2.24-3.76,2.27-3.79,.06-.1,.16-.15,.31-.15h.32c.05,.08,.08,.12,.08,.13l.36,4.04c.24,2.69,.37,4.05,.38,4.08,.04,.09,.32,.14,.83,.14,.21,0,.32,.04,.32,.13,0,.02-.01,.08-.04,.18-.03,.13-.05,.2-.06,.23-.02,.03-.08,.04-.18,.05h-.18c-.09,0-.26,0-.5-.01-.24,0-.55-.01-.93-.01-.8,0-1.32,0-1.57,.03h-.15c-.05-.05-.08-.09-.08-.11s0-.1,.03-.23c.03-.11,.06-.18,.08-.2l.05-.04h.25c.46-.03,.73-.1,.82-.21l-.15-1.88h-3.03l-.43,.73c-.35,.58-.52,.91-.52,1.01Z"/>
      <path class="cls-5" d="M25.26,66.84c0-.09-.05-.74-.15-1.95-.1-1.21-.16-1.82-.18-1.83l-.34,.54c-.14,.23-.4,.67-.8,1.34l-1.15,1.9h1.31c.87,.01,1.31,0,1.31,0Zm-3.92,2.33c0,.2,.2,.32,.59,.35,.15,0,.23,.05,.23,.14,0,0,0,.06-.03,.16-.03,.12-.05,.19-.08,.23-.03,.03-.08,.05-.17,.05h-.15c-.08,0-.23,0-.43-.01-.2,0-.48-.01-.82-.01-.6,0-.99,0-1.16,.03h-.1c-.06-.06-.09-.1-.09-.14,.02-.23,.07-.37,.17-.44h.18c.59-.03,1.03-.23,1.3-.63,.05-.05,.82-1.32,2.31-3.82,1.49-2.49,2.24-3.76,2.27-3.79,.06-.1,.16-.15,.31-.15h.32c.05,.08,.08,.12,.08,.13l.36,4.04c.24,2.69,.37,4.05,.38,4.08,.04,.09,.32,.14,.83,.14,.21,0,.32,.04,.32,.13,0,.02-.01,.08-.04,.18-.03,.13-.05,.2-.06,.23s-.08,.04-.18,.05h-.18c-.09,0-.26,0-.5-.01s-.55-.01-.93-.01c-.8,0-1.32,0-1.57,.03h-.15c-.05-.05-.08-.09-.08-.11s0-.1,.03-.23c.03-.11,.06-.18,.08-.2l.05-.04h.25c.46-.03,.73-.1,.82-.21l-.15-1.88h-3.03l-.43,.73c-.35,.58-.52,.91-.52,1.01Z"/>
      <path d="M30.31,62.41c-.08-.79-.12-1.23-.12-1.33,0-.11,.07-.19,.22-.25h.05s.04,0,.05,0c.07,0,.14,.03,.2,.08s.09,.11,.09,.18c0,.1-.02,.34-.05,.71-.04,.37-.06,.58-.06,.62l.52-.37c.34-.24,.52-.37,.55-.39s.06-.03,.09-.03c.08,0,.15,.03,.22,.09,.07,.06,.1,.14,.11,.24,0,.08-.03,.14-.09,.2-.03,.02-.23,.12-.61,.29-.38,.18-.58,.27-.61,.28l.59,.27,.63,.31c.05,.05,.08,.12,.08,.2,0,.09-.03,.16-.08,.22-.05,.06-.13,.09-.22,.1-.05,0-.1-.02-.16-.05s-.23-.15-.5-.35l-.52-.37c.08,.79,.12,1.23,.12,1.33,0,.06-.02,.11-.06,.17-.04,.05-.12,.08-.23,.08s-.19-.03-.23-.08c-.04-.05-.07-.11-.07-.17,0-.1,.02-.34,.05-.71,.04-.37,.06-.58,.06-.62l-.52,.37c-.34,.24-.52,.37-.55,.39-.02,.02-.05,.03-.09,.03-.08,0-.15-.03-.22-.09-.07-.06-.1-.14-.11-.24v-.07s0-.04,.03-.05,.03-.04,.05-.05c.01-.02,.04-.04,.08-.06,.04-.02,.08-.04,.12-.06,.04-.02,.09-.04,.17-.08,.08-.04,.15-.07,.23-.1,.07-.03,.17-.07,.29-.13,.12-.06,.24-.12,.36-.18l-1.23-.58c-.05-.05-.08-.12-.08-.2,0-.09,.03-.16,.08-.22,.05-.06,.13-.09,.22-.1,.05,0,.1,.02,.16,.05s.23,.15,.5,.35l.52,.37Z"/>
      <path class="cls-10" d="M30.31,62.41c-.08-.79-.12-1.23-.12-1.33,0-.11,.07-.19,.22-.25h.05s.04,0,.05,0c.07,0,.14,.03,.2,.08s.09,.11,.09,.18c0,.1-.02,.34-.05,.71-.04,.37-.06,.58-.06,.62l.52-.37c.34-.24,.52-.37,.55-.39s.06-.03,.09-.03c.08,0,.15,.03,.22,.09,.07,.06,.1,.14,.11,.24,0,.08-.03,.14-.09,.2-.03,.02-.23,.12-.61,.29-.38,.18-.58,.27-.61,.28l.59,.27,.63,.31c.05,.05,.08,.12,.08,.2,0,.09-.03,.16-.08,.22-.05,.06-.13,.09-.22,.1-.05,0-.1-.02-.16-.05s-.23-.15-.5-.35l-.52-.37c.08,.79,.12,1.23,.12,1.33,0,.06-.02,.12-.06,.17-.04,.05-.12,.08-.23,.08s-.19-.03-.23-.08c-.04-.05-.07-.11-.07-.17,0-.1,.02-.34,.05-.71,.04-.37,.06-.58,.06-.62l-.52,.37c-.34,.24-.52,.37-.55,.39-.02,.02-.05,.03-.09,.03-.08,0-.15-.03-.22-.09-.07-.06-.1-.14-.11-.24v-.07s0-.04,.03-.05,.03-.04,.05-.05,.04-.04,.08-.06c.04-.02,.08-.04,.12-.06,.04-.02,.09-.04,.17-.08,.08-.04,.15-.07,.23-.1,.07-.03,.17-.07,.29-.13,.12-.06,.24-.12,.36-.18l-1.23-.58c-.05-.05-.08-.12-.08-.2,0-.09,.03-.16,.08-.22,.05-.06,.13-.09,.22-.1,.05,0,.1,.02,.16,.05s.23,.15,.5,.35l.52,.37Z"/>
    </g>
    <g class="cls-21">
      <path d="M115.06,73.21h-.02c-.1,0-.17-.06-.22-.18v-12.16c.09-.11,.17-.16,.25-.16,.11,0,.19,.06,.25,.19v12.14c-.07,.12-.14,.18-.22,.18h-.02Z"/>
      <path class="cls-9" d="M115.06,73.21h-.02c-.1,0-.17-.06-.22-.18v-12.16c.09-.11,.17-.16,.25-.16,.11,0,.19,.06,.25,.19v12.14c-.07,.12-.14,.18-.22,.18h-.02Z"/>
      <path d="M118.8,68.13c0,.2-.07,.37-.2,.5s-.29,.2-.48,.2h-.09c.38,.66,.88,.99,1.51,.99,.58,0,1-.25,1.26-.75,.16-.28,.23-.81,.23-1.6,0-.86-.11-1.44-.33-1.74-.21-.28-.45-.41-.72-.41h-.07c-.64,0-1.13,.28-1.46,.85-.03,.06-.06,.09-.09,.1-.02,0-.09,.02-.19,.03-.14,0-.22-.03-.23-.08-.02-.03-.02-.76-.02-2.19v-1.61c0-.42,.02-.63,.06-.63,.02-.02,.03-.03,.05-.03,0,0,.09,.03,.26,.1,.16,.07,.39,.13,.68,.2,.29,.07,.6,.1,.93,.1,.58,0,1.15-.12,1.68-.35,.07-.03,.12-.05,.16-.05,.07,0,.1,.08,.1,.23v.16c-.68,.81-1.52,1.21-2.53,1.21-.26,0-.49-.03-.69-.08l-.12-.03v2.15c.16-.12,.28-.21,.37-.28,.09-.07,.24-.13,.44-.2,.21-.07,.42-.1,.63-.1,.67,0,1.23,.27,1.69,.81,.46,.54,.69,1.18,.69,1.93s-.26,1.42-.79,1.96c-.53,.54-1.17,.82-1.93,.83-.67,0-1.2-.23-1.61-.68-.4-.45-.61-.96-.61-1.53,0-.2,.05-.36,.14-.48,.09-.12,.19-.19,.28-.23s.19-.05,.28-.05c.21,0,.37,.07,.51,.21s.2,.31,.2,.5Z"/>
      <path class="cls-9" d="M118.8,68.13c0,.2-.07,.37-.2,.5s-.29,.2-.48,.2h-.09c.38,.66,.88,.99,1.51,.99,.58,0,1-.25,1.26-.75,.16-.28,.23-.81,.23-1.6,0-.86-.11-1.44-.33-1.74-.21-.28-.45-.41-.72-.41h-.07c-.64,0-1.13,.28-1.46,.85-.03,.06-.06,.09-.09,.1-.02,0-.09,.02-.19,.03-.14,0-.22-.03-.23-.08-.02-.03-.02-.76-.02-2.19v-1.61c0-.42,.02-.63,.06-.63,.02-.02,.03-.03,.05-.03,0,0,.09,.03,.26,.1,.16,.07,.39,.13,.68,.2,.29,.07,.6,.1,.93,.1,.58,0,1.15-.12,1.68-.35,.07-.03,.12-.05,.16-.05,.07,0,.1,.08,.1,.23v.16c-.68,.81-1.52,1.21-2.53,1.21-.26,0-.49-.03-.69-.08l-.12-.03v2.15c.16-.12,.28-.21,.37-.28,.09-.07,.24-.13,.44-.2,.21-.07,.42-.1,.63-.1,.67,0,1.23,.27,1.69,.81s.69,1.18,.69,1.93-.26,1.42-.79,1.96-1.17,.82-1.93,.83c-.67,0-1.2-.23-1.61-.68-.4-.45-.61-.96-.61-1.53,0-.2,.05-.36,.14-.48,.09-.12,.19-.19,.28-.23,.1-.03,.19-.05,.28-.05,.21,0,.37,.07,.51,.21s.2,.31,.2,.5Z"/>
      <path d="M124.68,73.21h-.02c-.1,0-.17-.06-.22-.18v-12.16c.09-.11,.17-.16,.25-.16,.11,0,.19,.06,.25,.19v12.14c-.07,.12-.14,.18-.22,.18h-.02Z"/>
      <path class="cls-9" d="M124.68,73.21h-.02c-.1,0-.17-.06-.22-.18v-12.16c.09-.11,.17-.16,.25-.16,.11,0,.19,.06,.25,.19v12.14c-.07,.12-.14,.18-.22,.18h-.02Z"/>
      <path d="M132.48,67.43c-.16,0-.25-.05-.25-.16,0-.03,.02-.13,.06-.3,.04-.17,.06-.31,.06-.44,0-.26-.09-.42-.26-.48-.17-.06-.57-.09-1.2-.09h-.64s-.15,.59-.43,1.73c-.28,1.13-.42,1.72-.42,1.75s.05,.05,.14,.05,.42,0,.99,.03c.77,0,1.29,0,1.53-.03,.25-.02,.49-.07,.74-.16,.4-.13,.74-.37,1-.7,.26-.33,.56-.88,.88-1.64,.08-.18,.14-.28,.16-.3,.06-.02,.12-.03,.19-.03,.16,0,.25,.05,.25,.16-.86,2.12-1.32,3.2-1.36,3.24-.02,.02-1.2,.03-3.53,.03h-2.34c-.84,0-1.26-.05-1.26-.14,0-.02,.01-.08,.04-.18,.03-.13,.07-.21,.1-.23,.03-.02,.13-.03,.28-.04,.22,0,.47-.01,.74-.04,.12-.03,.19-.08,.23-.15,.02-.04,.31-1.21,.88-3.52,.57-2.3,.86-3.47,.86-3.5,0-.06-.02-.09-.05-.09-.07-.03-.28-.05-.65-.06h-.38c-.05-.05-.07-.08-.07-.1s0-.09,.02-.21c.03-.14,.07-.23,.12-.26h6.85c.06,.03,.09,.08,.09,.14,0,.04-.05,.51-.16,1.4-.11,.89-.16,1.35-.17,1.38-.02,.06-.1,.09-.25,.09h-.15c-.06-.04-.09-.1-.09-.16l.04-.29c.02-.2,.04-.42,.04-.65,0-.25-.03-.46-.09-.63-.06-.17-.14-.3-.23-.39s-.24-.16-.43-.2c-.19-.04-.38-.07-.58-.09-.2-.02-.46-.03-.79-.03h-.58c-.72,0-1.11,.02-1.15,.04-.03,.02-.06,.05-.07,.11,0,.03-.14,.54-.38,1.54-.25,1-.37,1.51-.38,1.53,.19,0,.39,.01,.59,.01h.32c.54,0,.92-.06,1.12-.19,.21-.13,.39-.46,.56-1.01,.03-.13,.06-.21,.07-.23,.02-.02,.09-.03,.21-.04h.1s.05,0,.06,.01c.02,0,.02,.01,.02,.01,0,0,0,.02,.02,.05,.02,.03,.03,.05,.04,.05l-.41,1.65c-.27,1.11-.42,1.67-.44,1.69-.02,.03-.09,.04-.2,.04Z"/>
      <path class="cls-9" d="M132.48,67.43c-.16,0-.25-.05-.25-.16,0-.03,.02-.13,.06-.3,.04-.17,.06-.31,.06-.44,0-.26-.09-.42-.26-.48-.17-.06-.57-.09-1.2-.09h-.64s-.15,.59-.43,1.73c-.28,1.13-.42,1.72-.42,1.75s.05,.05,.14,.05,.42,0,.99,.03c.77,0,1.29,0,1.53-.03,.25-.02,.49-.07,.74-.16,.4-.13,.74-.37,1-.7,.26-.33,.56-.88,.88-1.64,.08-.18,.14-.28,.16-.3,.06-.02,.12-.03,.19-.03,.16,0,.25,.05,.25,.16-.86,2.12-1.32,3.2-1.36,3.24-.02,.02-1.2,.03-3.53,.03h-2.34c-.84,0-1.26-.05-1.26-.14,0-.02,.01-.08,.04-.18,.03-.13,.07-.21,.1-.23,.03-.02,.13-.03,.28-.04,.22,0,.47-.01,.74-.04,.12-.03,.19-.08,.23-.15,.02-.04,.31-1.21,.88-3.52,.57-2.3,.86-3.47,.86-3.5,0-.06-.02-.09-.05-.09-.07-.03-.28-.05-.65-.06h-.38c-.05-.05-.07-.08-.07-.1s0-.09,.02-.21c.03-.14,.07-.23,.12-.26h6.85c.06,.03,.09,.08,.09,.14,0,.04-.05,.51-.16,1.4-.11,.89-.16,1.35-.17,1.38-.02,.06-.1,.09-.25,.09h-.15c-.06-.04-.09-.1-.09-.16l.04-.29c.02-.2,.04-.42,.04-.65,0-.25-.03-.46-.09-.63s-.14-.3-.23-.39c-.1-.09-.24-.16-.43-.2-.19-.04-.38-.07-.58-.09-.2-.02-.46-.03-.79-.03h-.58c-.72,0-1.11,.02-1.15,.04-.03,.02-.06,.05-.07,.11,0,.03-.14,.54-.38,1.54-.25,1-.37,1.51-.38,1.53,.19,0,.39,.01,.59,.01h.32c.54,0,.92-.06,1.12-.19,.21-.13,.39-.46,.56-1.01,.03-.13,.06-.21,.07-.23s.09-.03,.21-.04h.1s.05,0,.06,.01c.02,0,.02,.01,.02,.01,0,0,0,.02,.02,.05,.02,.03,.03,.05,.04,.05l-.41,1.65c-.27,1.11-.42,1.67-.44,1.69-.02,.03-.09,.04-.2,.04Z"/>
    </g>
    <g class="cls-18">
      <line class="cls-11" x1="19.18" y1="21.9" x2="19.18" y2="43.19"/>
      <polygon points="19.18 47.92 16.02 41.62 19.18 43.19 22.33 41.62 19.18 47.92"/>
      <polygon class="cls-11" points="19.18 47.92 16.02 41.62 19.18 43.19 22.33 41.62 19.18 47.92"/>
      <line class="cls-11" x1="127.3" y1="21.9" x2="127.3" y2="43.19"/>
      <polygon points="127.3 47.92 124.14 41.62 127.3 43.19 130.45 41.62 127.3 47.92"/>
      <polygon class="cls-11" points="127.3 47.92 124.14 41.62 127.3 43.19 130.45 41.62 127.3 47.92"/>
    </g>
    <g class="cls-23">
      <path d="M11.61,93.87c0-.09-.05-.74-.15-1.95-.1-1.21-.16-1.82-.17-1.83l-.33,.54c-.13,.23-.39,.67-.78,1.34l-1.12,1.9h1.28c.85,.01,1.28,0,1.28,0Zm-3.82,2.33c0,.2,.19,.32,.57,.35,.15,0,.22,.05,.22,.14,0,0,0,.06-.02,.16-.02,.12-.05,.19-.07,.23s-.08,.05-.16,.05h-.15c-.08,0-.22,0-.42-.01-.2,0-.46-.01-.79-.01-.59,0-.96,0-1.13,.03h-.1c-.06-.06-.09-.1-.09-.14,.02-.23,.07-.37,.16-.44h.17c.58-.03,1-.23,1.26-.63,.05-.05,.8-1.32,2.24-3.82,1.45-2.49,2.18-3.76,2.21-3.79,.06-.1,.16-.15,.3-.15h.31c.05,.08,.07,.12,.07,.13l.35,4.04c.23,2.69,.36,4.05,.37,4.08,.04,.09,.31,.14,.81,.14,.21,0,.31,.04,.31,.13,0,.02-.01,.08-.04,.18-.02,.13-.05,.2-.06,.23-.02,.03-.07,.04-.17,.05h-.17c-.09,0-.25,0-.48-.01-.23,0-.53-.01-.9-.01-.78,0-1.28,0-1.52,.03h-.15c-.05-.05-.07-.09-.07-.11s0-.1,.02-.23c.03-.11,.06-.18,.07-.2l.05-.04h.25c.45-.03,.71-.1,.79-.21l-.15-1.88h-2.95l-.42,.73c-.34,.58-.51,.91-.51,1.01Z"/>
      <path class="cls-2" d="M11.61,93.87c0-.09-.05-.74-.15-1.95s-.16-1.82-.17-1.83l-.33,.54c-.13,.23-.39,.67-.78,1.34l-1.12,1.9h1.28c.85,.01,1.28,0,1.28,0Zm-3.82,2.33c0,.2,.19,.32,.57,.35,.15,0,.22,.05,.22,.14,0,0,0,.06-.02,.16-.02,.12-.05,.19-.07,.23-.02,.03-.08,.05-.16,.05h-.15c-.08,0-.22,0-.42-.01s-.46-.01-.79-.01c-.59,0-.96,0-1.13,.03h-.1c-.06-.06-.09-.1-.09-.14,.02-.23,.07-.37,.16-.44h.17c.58-.03,1-.23,1.26-.63,.05-.05,.8-1.32,2.24-3.82,1.45-2.49,2.18-3.76,2.21-3.79,.06-.1,.16-.15,.3-.15h.31c.05,.08,.07,.12,.07,.13l.35,4.04c.23,2.69,.36,4.05,.37,4.08,.04,.09,.31,.14,.81,.14,.21,0,.31,.04,.31,.13,0,.02-.01,.08-.04,.18-.02,.13-.05,.2-.06,.23-.02,.03-.07,.04-.17,.05h-.17c-.09,0-.25,0-.48-.01-.23,0-.53-.01-.9-.01-.78,0-1.28,0-1.52,.03h-.15c-.05-.05-.07-.09-.07-.11s0-.1,.02-.23c.03-.11,.06-.18,.07-.2l.05-.04h.25c.45-.03,.71-.1,.79-.21l-.15-1.88h-2.95l-.42,.73c-.34,.58-.51,.91-.51,1.01Z"/>
      <path d="M16.51,90.59c-.08-.79-.11-1.23-.11-1.33,0-.11,.07-.19,.21-.25h.04s.04,0,.05,0c.07,0,.13,.03,.19,.08,.06,.05,.09,.11,.09,.18,0,.1-.02,.34-.05,.71-.04,.37-.06,.58-.06,.62l.51-.37c.33-.24,.51-.37,.53-.39s.06-.03,.09-.03c.08,0,.15,.03,.21,.09,.06,.06,.1,.14,.11,.24,0,.08-.03,.14-.09,.2-.03,.02-.23,.12-.6,.29s-.57,.27-.6,.28l.58,.27,.61,.31c.05,.05,.08,.12,.08,.2,0,.09-.03,.16-.08,.22-.05,.06-.12,.09-.21,.1-.05,0-.1-.02-.16-.05-.06-.04-.22-.15-.48-.35l-.51-.37c.08,.79,.11,1.23,.11,1.33,0,.06-.02,.11-.06,.17-.04,.05-.12,.08-.23,.08s-.19-.03-.23-.08c-.04-.05-.06-.11-.07-.17,0-.1,.02-.34,.05-.71,.04-.37,.06-.58,.06-.62l-.51,.37c-.33,.24-.51,.37-.53,.39-.02,.02-.05,.03-.09,.03-.08,0-.15-.03-.21-.09-.06-.06-.1-.14-.11-.24v-.07s0-.04,.03-.05c.02-.02,.03-.04,.04-.05,.01-.02,.04-.04,.08-.06,.04-.02,.08-.04,.11-.06,.04-.02,.09-.04,.17-.08,.08-.04,.15-.07,.22-.1s.16-.07,.28-.13c.12-.06,.23-.12,.35-.18l-1.19-.58c-.05-.05-.08-.12-.08-.2,0-.09,.03-.16,.08-.22,.05-.06,.12-.09,.21-.1,.05,0,.1,.02,.16,.05s.22,.15,.48,.35l.51,.37Z"/>
      <path class="cls-1" d="M16.51,90.59c-.08-.79-.11-1.23-.11-1.33,0-.11,.07-.19,.21-.25h.04s.04,0,.05,0c.07,0,.13,.03,.19,.08,.06,.05,.09,.11,.09,.18,0,.1-.02,.34-.05,.71-.04,.37-.06,.58-.06,.62l.51-.37c.33-.24,.51-.37,.53-.39,.03-.02,.06-.03,.09-.03,.08,0,.15,.03,.21,.09,.06,.06,.1,.14,.11,.24,0,.08-.03,.14-.09,.2-.03,.02-.23,.12-.6,.29-.37,.18-.57,.27-.6,.28l.58,.27,.61,.31c.05,.05,.08,.12,.08,.2,0,.09-.03,.16-.08,.22-.05,.06-.12,.09-.21,.1-.05,0-.1-.02-.16-.05-.06-.04-.22-.15-.48-.35l-.51-.37c.08,.79,.11,1.23,.11,1.33,0,.06-.02,.12-.06,.17-.04,.05-.12,.08-.23,.08s-.19-.03-.23-.08c-.04-.05-.06-.11-.07-.17,0-.1,.02-.34,.05-.71,.04-.37,.06-.58,.06-.62l-.51,.37c-.33,.24-.51,.37-.53,.39-.02,.02-.05,.03-.09,.03-.08,0-.15-.03-.21-.09-.06-.06-.1-.14-.11-.24v-.07s0-.04,.03-.05c.02-.02,.03-.04,.04-.05,.01-.02,.04-.04,.08-.06,.04-.02,.08-.04,.11-.06,.04-.02,.09-.04,.17-.08,.08-.04,.15-.07,.22-.1s.16-.07,.28-.13c.12-.06,.23-.12,.35-.18l-1.19-.58c-.05-.05-.08-.12-.08-.2,0-.09,.03-.16,.08-.22s.12-.09,.21-.1c.05,0,.1,.02,.16,.05s.22,.15,.48,.35l.51,.37Z"/>
      <path d="M16.37,95.87l-.11,.04c-.08,.03-.2,.06-.35,.09-.15,.03-.32,.05-.51,.06h-.17v-.41h.17c.27-.01,.53-.06,.76-.13,.23-.08,.4-.15,.49-.21,.09-.06,.18-.13,.25-.19,.01-.02,.05-.03,.11-.03,.05,0,.1,.02,.15,.05v5.3s.08,.07,.11,.08c.03,.01,.1,.02,.21,.04,.11,.01,.29,.02,.54,.02h.23v.41h-.1c-.12-.02-.59-.03-1.39-.03s-1.25,0-1.38,.03h-.11v-.41h.56c.09,0,.17,0,.22,0,.05,0,.1-.01,.14-.03,.04-.01,.06-.02,.07-.02s.02-.01,.05-.04c.03-.03,.05-.04,.05-.04v-4.57Z"/>
      <path class="cls-1" d="M16.37,95.87l-.11,.04c-.08,.03-.2,.06-.35,.09-.15,.03-.32,.05-.51,.06h-.17v-.41h.17c.27-.01,.53-.06,.76-.13,.23-.08,.4-.15,.49-.21,.09-.06,.18-.13,.25-.19,.01-.02,.05-.03,.11-.03,.05,0,.1,.02,.15,.05v5.3s.08,.07,.11,.08c.03,.01,.1,.02,.21,.04,.11,.01,.29,.02,.54,.02h.23v.41h-.1c-.12-.02-.59-.03-1.39-.03s-1.25,0-1.38,.03h-.11v-.41h.56c.09,0,.17,0,.22,0,.05,0,.1-.01,.14-.03,.04-.01,.06-.02,.07-.02s.02-.01,.05-.04,.05-.04,.05-.04v-4.57Z"/>
      <path d="M24.4,100.73c0,.12-.06,.18-.18,.18-.03,0-.09-.05-.19-.14-.1-.09-.37-.37-.82-.82l-.91-.92-.92,.93c-.62,.61-.94,.93-.95,.94-.02,.01-.04,.02-.06,.02-.05,0-.09-.02-.12-.05-.04-.04-.06-.08-.06-.12,0-.04,.04-.11,.12-.19,.08-.09,.36-.37,.82-.84l.91-.92-.91-.92c-.47-.48-.75-.76-.82-.84s-.12-.15-.12-.19c0-.05,.02-.09,.05-.12,.04-.03,.08-.04,.13-.04,.03,0,.05,0,.06,0,.02,.01,.34,.32,.95,.94l.92,.93,.91-.92c.45-.45,.72-.73,.82-.82,.1-.09,.16-.14,.19-.14,.12,0,.18,.06,.18,.18,0,.04-.03,.09-.09,.16s-.34,.35-.86,.87l-.91,.93,.91,.93c.49,.5,.77,.78,.84,.86,.07,.08,.11,.13,.11,.17Z"/>
      <path class="cls-1" d="M24.4,100.73c0,.12-.06,.18-.18,.18-.03,0-.09-.05-.19-.14s-.37-.37-.82-.82l-.91-.92-.92,.93c-.62,.61-.94,.93-.95,.94-.02,.01-.04,.02-.06,.02-.05,0-.09-.02-.12-.05-.04-.04-.06-.08-.06-.12,0-.04,.04-.11,.12-.19,.08-.09,.36-.37,.82-.84l.91-.92-.91-.92c-.47-.48-.75-.76-.82-.84s-.12-.15-.12-.19c0-.05,.02-.09,.05-.12,.04-.03,.08-.04,.13-.04,.03,0,.05,0,.06,0,.02,.01,.34,.32,.95,.94l.92,.93,.91-.92c.45-.45,.72-.73,.82-.82,.1-.09,.16-.14,.19-.14,.12,0,.18,.06,.18,.18,0,.04-.03,.09-.09,.16-.06,.06-.34,.35-.86,.87l-.91,.93,.91,.93c.49,.5,.77,.78,.84,.86,.07,.08,.11,.13,.11,.17Z"/>
      <path d="M27.57,95.87l-.11,.04c-.08,.03-.2,.06-.35,.09-.15,.03-.32,.05-.51,.06h-.17v-.41h.17c.27-.01,.53-.06,.76-.13,.23-.08,.4-.15,.49-.21,.09-.06,.18-.13,.25-.19,.01-.02,.05-.03,.11-.03,.05,0,.1,.02,.15,.05v5.3s.08,.07,.11,.08,.1,.02,.21,.04c.11,.01,.29,.02,.54,.02h.23v.41h-.1c-.12-.02-.59-.03-1.39-.03s-1.25,0-1.38,.03h-.11v-.41h.56c.09,0,.17,0,.22,0,.05,0,.1-.01,.14-.03,.04-.01,.06-.02,.07-.02s.02-.01,.05-.04c.03-.03,.05-.04,.05-.04v-4.57Z"/>
      <path class="cls-1" d="M27.57,95.87l-.11,.04c-.08,.03-.2,.06-.35,.09-.15,.03-.32,.05-.51,.06h-.17v-.41h.17c.27-.01,.53-.06,.76-.13,.23-.08,.4-.15,.49-.21,.09-.06,.18-.13,.25-.19,.01-.02,.05-.03,.11-.03,.05,0,.1,.02,.15,.05v5.3s.08,.07,.11,.08c.03,.01,.1,.02,.21,.04,.11,.01,.29,.02,.54,.02h.23v.41h-.1c-.12-.02-.59-.03-1.39-.03s-1.25,0-1.38,.03h-.11v-.41h.56c.09,0,.17,0,.22,0,.05,0,.1-.01,.14-.03,.04-.01,.06-.02,.07-.02s.02-.01,.05-.04,.05-.04,.05-.04v-4.57Z"/>
    </g>
    <g class="cls-14">
      <path d="M119.47,94.46c-.17,0-.25-.05-.25-.16,0-.03,.02-.13,.06-.3,.04-.17,.06-.31,.06-.44,0-.26-.09-.42-.26-.48-.17-.06-.58-.09-1.21-.09h-.65s-.15,.59-.44,1.73c-.28,1.13-.42,1.72-.42,1.75s.05,.05,.14,.05,.42,0,1,.03c.78,0,1.3,0,1.54-.03,.25-.02,.5-.07,.75-.16,.41-.13,.74-.37,1.01-.7,.27-.33,.56-.88,.88-1.64,.08-.18,.14-.28,.16-.3,.06-.02,.12-.03,.19-.03,.17,0,.25,.05,.25,.16-.87,2.12-1.33,3.2-1.37,3.24-.02,.02-1.21,.03-3.56,.03h-2.35c-.85,0-1.27-.05-1.27-.14,0-.02,.01-.08,.04-.18,.03-.13,.07-.21,.1-.23,.03-.02,.13-.03,.29-.04,.22,0,.47-.01,.75-.04,.12-.03,.2-.08,.24-.15,.02-.04,.31-1.21,.88-3.52s.86-3.47,.87-3.5c0-.06-.02-.09-.05-.09-.07-.02-.29-.05-.66-.06h-.39c-.05-.05-.07-.08-.07-.1s0-.09,.02-.21c.03-.14,.07-.23,.12-.26h6.9c.06,.03,.09,.08,.09,.14,0,.04-.05,.51-.16,1.4-.11,.89-.17,1.35-.17,1.38-.02,.06-.1,.09-.25,.09h-.15c-.06-.04-.09-.1-.09-.16l.04-.29c.02-.2,.04-.42,.04-.65,0-.25-.03-.46-.09-.63-.06-.17-.14-.3-.24-.39s-.24-.16-.44-.2c-.19-.04-.39-.07-.59-.09-.2-.02-.46-.03-.8-.03h-.59c-.73,0-1.12,.02-1.16,.04-.03,.02-.06,.05-.07,.11,0,.03-.14,.54-.39,1.54-.25,1-.38,1.51-.39,1.53,.19,0,.39,.01,.6,.01h.32c.55,0,.93-.06,1.13-.19,.21-.13,.39-.46,.56-1.01,.03-.13,.06-.21,.07-.23,.02-.02,.09-.03,.21-.04h.1s.05,0,.06,.01,.02,.01,.02,.01c0,0,0,.02,.02,.05,.02,.03,.03,.05,.04,.05l-.41,1.65c-.27,1.11-.42,1.67-.45,1.69-.02,.03-.09,.04-.2,.04Z"/>
      <path class="cls-4" d="M119.47,94.46c-.17,0-.25-.05-.25-.16,0-.03,.02-.13,.06-.3,.04-.17,.06-.31,.06-.44,0-.26-.09-.42-.26-.48-.17-.06-.58-.09-1.21-.09h-.65s-.15,.59-.44,1.73c-.28,1.13-.42,1.72-.42,1.75s.05,.05,.14,.05,.42,0,1,.03c.78,0,1.3,0,1.54-.03,.25-.02,.5-.07,.75-.16,.41-.13,.74-.37,1.01-.7,.27-.33,.56-.88,.88-1.64,.08-.18,.14-.28,.16-.3,.06-.02,.12-.03,.19-.03,.17,0,.25,.05,.25,.16-.87,2.12-1.33,3.2-1.37,3.24-.02,.02-1.21,.03-3.56,.03h-2.35c-.85,0-1.27-.05-1.27-.14,0-.02,.01-.08,.04-.18,.03-.13,.07-.21,.1-.23s.13-.03,.29-.04c.22,0,.47-.01,.75-.04,.12-.03,.2-.08,.24-.15,.02-.04,.31-1.21,.88-3.52,.57-2.3,.86-3.47,.87-3.5,0-.06-.02-.09-.05-.09-.07-.03-.29-.05-.66-.06h-.39c-.05-.05-.07-.08-.07-.1s0-.09,.02-.21c.03-.14,.07-.23,.12-.26h6.9c.06,.03,.09,.08,.09,.14,0,.04-.05,.51-.16,1.4-.11,.89-.17,1.35-.17,1.38-.02,.06-.1,.09-.25,.09h-.15c-.06-.04-.09-.1-.09-.16l.04-.29c.02-.2,.04-.42,.04-.65,0-.25-.03-.46-.09-.63-.06-.17-.14-.3-.24-.39-.1-.09-.24-.16-.44-.2s-.39-.07-.59-.09c-.2-.02-.46-.03-.8-.03h-.59c-.73,0-1.12,.02-1.16,.04-.03,.02-.06,.05-.07,.11,0,.03-.14,.54-.39,1.54s-.38,1.51-.39,1.53c.19,0,.39,.01,.6,.01h.32c.55,0,.93-.06,1.13-.19,.21-.13,.39-.46,.56-1.01,.03-.13,.06-.21,.07-.23,.02-.02,.09-.03,.21-.04h.1s.05,0,.06,.01c.02,0,.02,.01,.02,.01,0,0,0,.02,.02,.05,.02,.03,.03,.05,.04,.05l-.41,1.65c-.27,1.11-.42,1.67-.45,1.69-.02,.03-.09,.04-.2,.04Z"/>
      <path d="M124.41,93.89l-.11,.04c-.08,.03-.2,.06-.35,.09-.15,.03-.32,.05-.51,.06h-.17v-.41h.17c.28-.01,.53-.06,.77-.13,.23-.08,.4-.15,.49-.21,.09-.06,.18-.13,.25-.19,.01-.02,.05-.03,.11-.03,.05,0,.1,.02,.15,.05v5.3s.09,.07,.11,.08c.03,.01,.1,.02,.21,.04,.11,.01,.29,.02,.55,.02h.23v.41h-.1c-.12-.02-.59-.03-1.4-.03s-1.26,0-1.38,.03h-.11v-.41h.56c.09,0,.17,0,.22,0,.05,0,.1-.01,.14-.03,.04-.01,.06-.02,.07-.02s.02-.01,.05-.04,.05-.04,.05-.04v-4.57Z"/>
      <path class="cls-3" d="M124.41,93.89l-.11,.04c-.08,.03-.2,.06-.35,.09-.15,.03-.32,.05-.51,.06h-.17v-.41h.17c.28-.01,.53-.06,.77-.13s.4-.15,.49-.21c.09-.06,.18-.13,.25-.19,.01-.02,.05-.03,.11-.03,.05,0,.1,.02,.15,.05v5.3s.09,.07,.11,.08c.03,.01,.1,.02,.21,.04,.11,.01,.29,.02,.55,.02h.23v.41h-.1c-.12-.02-.59-.03-1.4-.03s-1.26,0-1.38,.03h-.11v-.41h.56c.09,0,.17,0,.22,0,.05,0,.1-.01,.14-.03s.06-.02,.07-.02,.02-.01,.05-.04c.03-.03,.05-.04,.05-.04v-4.57Z"/>
      <path d="M132.47,98.74c0,.12-.06,.18-.18,.18-.03,0-.09-.05-.19-.14-.1-.09-.38-.37-.83-.82l-.92-.92-.92,.93c-.62,.61-.94,.93-.96,.94-.02,.01-.04,.02-.06,.02-.05,0-.09-.02-.12-.05-.04-.04-.06-.08-.06-.12,0-.04,.04-.11,.12-.19,.08-.09,.36-.37,.83-.84l.92-.92-.92-.92c-.48-.48-.75-.76-.83-.84-.08-.08-.12-.15-.12-.19,0-.05,.02-.09,.05-.12,.04-.03,.08-.04,.13-.04,.03,0,.05,0,.06,0,.02,.01,.34,.32,.96,.94l.92,.93,.92-.92c.45-.45,.73-.73,.83-.82,.1-.09,.16-.14,.19-.14,.12,0,.18,.06,.18,.18,0,.04-.03,.09-.09,.16-.06,.06-.35,.35-.86,.87l-.92,.93,.92,.93c.49,.5,.77,.78,.85,.86,.07,.08,.11,.13,.11,.17Z"/>
      <path class="cls-3" d="M132.47,98.74c0,.12-.06,.18-.18,.18-.03,0-.09-.05-.19-.14-.1-.09-.38-.37-.83-.82l-.92-.92-.92,.93c-.62,.61-.94,.93-.96,.94-.02,.01-.04,.02-.06,.02-.05,0-.09-.02-.12-.05-.04-.04-.06-.08-.06-.12,0-.04,.04-.11,.12-.19s.36-.37,.83-.84l.92-.92-.92-.92c-.48-.48-.75-.76-.83-.84-.08-.08-.12-.15-.12-.19,0-.05,.02-.09,.05-.12s.08-.04,.13-.04c.03,0,.05,0,.06,0,.02,.01,.34,.32,.96,.94l.92,.93,.92-.92c.45-.45,.73-.73,.83-.82,.1-.09,.16-.14,.19-.14,.12,0,.18,.06,.18,.18,0,.04-.03,.09-.09,.16-.06,.06-.35,.35-.86,.87l-.92,.93,.92,.93c.49,.5,.77,.78,.85,.86,.07,.08,.11,.13,.11,.17Z"/>
      <path d="M135.67,93.89l-.11,.04c-.08,.03-.2,.06-.35,.09s-.32,.05-.51,.06h-.17v-.41h.17c.28-.01,.53-.06,.77-.13,.23-.08,.4-.15,.49-.21,.09-.06,.18-.13,.25-.19,.01-.02,.05-.03,.11-.03,.05,0,.1,.02,.15,.05v5.3s.09,.07,.11,.08c.03,.01,.1,.02,.21,.04,.11,.01,.29,.02,.55,.02h.23v.41h-.1c-.12-.02-.59-.03-1.4-.03s-1.26,0-1.38,.03h-.11v-.41h.56c.09,0,.17,0,.22,0,.05,0,.1-.01,.14-.03,.04-.01,.06-.02,.07-.02s.02-.01,.05-.04,.05-.04,.05-.04v-4.57Z"/>
      <path class="cls-3" d="M135.67,93.89l-.11,.04c-.08,.03-.2,.06-.35,.09-.15,.03-.32,.05-.51,.06h-.17v-.41h.17c.28-.01,.53-.06,.77-.13s.4-.15,.49-.21c.09-.06,.18-.13,.25-.19,.01-.02,.05-.03,.11-.03,.05,0,.1,.02,.15,.05v5.3s.09,.07,.11,.08c.03,.01,.1,.02,.21,.04,.11,.01,.29,.02,.55,.02h.23v.41h-.1c-.12-.02-.59-.03-1.4-.03s-1.26,0-1.38,.03h-.11v-.41h.56c.09,0,.17,0,.22,0,.05,0,.1-.01,.14-.03s.06-.02,.07-.02,.02-.01,.05-.04c.03-.03,.05-.04,.05-.04v-4.57Z"/>
    </g>
    <g class="cls-16">
      <text class="cls-15" transform="translate(70.08 98.04)"><tspan x="0" y="0">=</tspan></text>
    </g>
    <g class="cls-22">
      <path d="M11.61,120.9c0-.09-.05-.74-.15-1.95-.1-1.21-.16-1.82-.17-1.83l-.33,.54c-.13,.23-.39,.67-.78,1.34l-1.12,1.9h1.28c.85,.01,1.28,0,1.28,0Zm-3.82,2.33c0,.2,.19,.32,.57,.35,.15,0,.22,.05,.22,.14,0,0,0,.06-.02,.16-.02,.12-.05,.19-.07,.23-.02,.03-.08,.05-.16,.05h-.15c-.08,0-.22,0-.42-.01-.2,0-.46-.01-.79-.01-.59,0-.96,0-1.13,.03h-.1c-.06-.06-.09-.1-.09-.14,.02-.23,.07-.37,.16-.44h.17c.58-.03,1-.23,1.26-.63,.05-.05,.8-1.32,2.24-3.82,1.45-2.49,2.18-3.76,2.21-3.79,.06-.1,.16-.15,.3-.15h.31c.05,.08,.07,.12,.07,.13l.35,4.04c.23,2.69,.36,4.05,.37,4.08,.04,.09,.31,.14,.81,.14,.21,0,.31,.04,.31,.13,0,.02-.01,.08-.04,.18-.02,.13-.05,.2-.06,.23-.02,.03-.07,.04-.17,.05h-.17c-.09,0-.25,0-.48-.01-.23,0-.53-.01-.9-.01-.78,0-1.28,0-1.52,.03h-.15c-.05-.05-.07-.09-.07-.11s0-.1,.02-.23c.03-.11,.06-.18,.07-.2l.05-.04h.25c.45-.03,.71-.1,.79-.21l-.15-1.88h-2.95l-.42,.73c-.34,.58-.51,.91-.51,1.01Z"/>
      <path class="cls-2" d="M11.61,120.9c0-.09-.05-.74-.15-1.95s-.16-1.82-.17-1.83l-.33,.54c-.13,.23-.39,.67-.78,1.34l-1.12,1.9h1.28c.85,.01,1.28,0,1.28,0Zm-3.82,2.33c0,.2,.19,.32,.57,.35,.15,0,.22,.05,.22,.14,0,0,0,.06-.02,.16-.02,.12-.05,.19-.07,.23-.02,.03-.08,.05-.16,.05h-.15c-.08,0-.22,0-.42-.01s-.46-.01-.79-.01c-.59,0-.96,0-1.13,.03h-.1c-.06-.06-.09-.1-.09-.14,.02-.23,.07-.37,.16-.44h.17c.58-.03,1-.23,1.26-.63,.05-.05,.8-1.32,2.24-3.82,1.45-2.49,2.18-3.76,2.21-3.79,.06-.1,.16-.15,.3-.15h.31c.05,.08,.07,.12,.07,.13l.35,4.04c.23,2.69,.36,4.05,.37,4.08,.04,.09,.31,.14,.81,.14,.21,0,.31,.04,.31,.13,0,.02-.01,.08-.04,.18-.02,.13-.05,.2-.06,.23-.02,.03-.07,.04-.17,.05h-.17c-.09,0-.25,0-.48-.01-.23,0-.53-.01-.9-.01-.78,0-1.28,0-1.52,.03h-.15c-.05-.05-.07-.09-.07-.11s0-.1,.02-.23c.03-.11,.06-.18,.07-.2l.05-.04h.25c.45-.03,.71-.1,.79-.21l-.15-1.88h-2.95l-.42,.73c-.34,.58-.51,.91-.51,1.01Z"/>
      <path d="M16.51,117.62c-.08-.79-.11-1.23-.11-1.33,0-.11,.07-.19,.21-.25h.04s.04,0,.05,0c.07,0,.13,.03,.19,.08,.06,.05,.09,.11,.09,.18,0,.1-.02,.34-.05,.71-.04,.37-.06,.58-.06,.62l.51-.37c.33-.24,.51-.37,.53-.39s.06-.03,.09-.03c.08,0,.15,.03,.21,.09,.06,.06,.1,.14,.11,.24,0,.08-.03,.14-.09,.2-.03,.02-.23,.12-.6,.29s-.57,.27-.6,.28l.58,.27,.61,.31c.05,.05,.08,.12,.08,.2,0,.09-.03,.16-.08,.22s-.12,.09-.21,.1c-.05,0-.1-.02-.16-.05-.06-.04-.22-.15-.48-.35l-.51-.37c.08,.79,.11,1.23,.11,1.33,0,.06-.02,.11-.06,.17-.04,.05-.12,.08-.23,.08s-.19-.03-.23-.08c-.04-.05-.06-.11-.07-.17,0-.1,.02-.34,.05-.71,.04-.37,.06-.58,.06-.62l-.51,.37c-.33,.24-.51,.37-.53,.39-.02,.02-.05,.03-.09,.03-.08,0-.15-.03-.21-.09-.06-.06-.1-.14-.11-.24v-.07s0-.04,.03-.05c.02-.02,.03-.04,.04-.05,.01-.02,.04-.04,.08-.06,.04-.02,.08-.04,.11-.06,.04-.02,.09-.04,.17-.08,.08-.04,.15-.07,.22-.1,.07-.03,.16-.07,.28-.13,.12-.06,.23-.12,.35-.18l-1.19-.58c-.05-.05-.08-.12-.08-.2,0-.09,.03-.16,.08-.22,.05-.06,.12-.09,.21-.1,.05,0,.1,.02,.16,.05s.22,.15,.48,.35l.51,.37Z"/>
      <path class="cls-1" d="M16.51,117.62c-.08-.79-.11-1.23-.11-1.33,0-.11,.07-.19,.21-.25h.04s.04,0,.05,0c.07,0,.13,.03,.19,.08,.06,.05,.09,.11,.09,.18,0,.1-.02,.34-.05,.71-.04,.37-.06,.58-.06,.62l.51-.37c.33-.24,.51-.37,.53-.39,.03-.02,.06-.03,.09-.03,.08,0,.15,.03,.21,.09,.06,.06,.1,.14,.11,.24,0,.08-.03,.14-.09,.2-.03,.02-.23,.12-.6,.29-.37,.18-.57,.27-.6,.28l.58,.27,.61,.31c.05,.05,.08,.12,.08,.2,0,.09-.03,.16-.08,.22-.05,.06-.12,.09-.21,.1-.05,0-.1-.02-.16-.05-.06-.04-.22-.15-.48-.35l-.51-.37c.08,.79,.11,1.23,.11,1.33,0,.06-.02,.12-.06,.17-.04,.05-.12,.08-.23,.08s-.19-.03-.23-.08c-.04-.05-.06-.11-.07-.17,0-.1,.02-.34,.05-.71,.04-.37,.06-.58,.06-.62l-.51,.37c-.33,.24-.51,.37-.53,.39-.02,.02-.05,.03-.09,.03-.08,0-.15-.03-.21-.09-.06-.06-.1-.14-.11-.24v-.07s0-.04,.03-.05c.02-.02,.03-.04,.04-.05,.01-.02,.04-.04,.08-.06,.04-.02,.08-.04,.11-.06,.04-.02,.09-.04,.17-.08,.08-.04,.15-.07,.22-.1s.16-.07,.28-.13c.12-.06,.23-.12,.35-.18l-1.19-.58c-.05-.05-.08-.12-.08-.2,0-.09,.03-.16,.08-.22s.12-.09,.21-.1c.05,0,.1,.02,.16,.05s.22,.15,.48,.35l.51,.37Z"/>
      <path d="M16.37,122.9l-.11,.04c-.08,.03-.2,.06-.35,.09-.15,.03-.32,.05-.51,.06h-.17v-.41h.17c.27-.01,.53-.06,.76-.13,.23-.08,.4-.15,.49-.21,.09-.06,.18-.13,.25-.19,.01-.02,.05-.03,.11-.03,.05,0,.1,.02,.15,.05v5.3s.08,.07,.11,.08c.03,.01,.1,.02,.21,.04,.11,.01,.29,.02,.54,.02h.23v.41h-.1c-.12-.02-.59-.03-1.39-.03s-1.25,0-1.38,.03h-.11v-.41h.56c.09,0,.17,0,.22,0,.05,0,.1-.01,.14-.03,.04-.01,.06-.02,.07-.02s.02-.01,.05-.04,.05-.04,.05-.04v-4.57Z"/>
      <path class="cls-1" d="M16.37,122.9l-.11,.04c-.08,.03-.2,.06-.35,.09-.15,.03-.32,.05-.51,.06h-.17v-.41h.17c.27-.01,.53-.06,.76-.13,.23-.08,.4-.15,.49-.21,.09-.06,.18-.13,.25-.19,.01-.02,.05-.03,.11-.03,.05,0,.1,.02,.15,.05v5.3s.08,.07,.11,.08c.03,.01,.1,.02,.21,.04,.11,.01,.29,.02,.54,.02h.23v.41h-.1c-.12-.02-.59-.03-1.39-.03s-1.25,0-1.38,.03h-.11v-.41h.56c.09,0,.17,0,.22,0,.05,0,.1-.01,.14-.03,.04-.01,.06-.02,.07-.02s.02-.01,.05-.04,.05-.04,.05-.04v-4.57Z"/>
      <path d="M24.4,127.76c0,.12-.06,.18-.18,.18-.03,0-.09-.05-.19-.14-.1-.09-.37-.37-.82-.82l-.91-.92-.92,.93c-.62,.61-.94,.93-.95,.94-.02,.01-.04,.02-.06,.02-.05,0-.09-.02-.12-.05-.04-.04-.06-.08-.06-.12,0-.04,.04-.11,.12-.19,.08-.09,.36-.37,.82-.84l.91-.92-.91-.92c-.47-.48-.75-.76-.82-.84s-.12-.15-.12-.19c0-.05,.02-.09,.05-.12,.04-.03,.08-.04,.13-.04,.03,0,.05,0,.06,0,.02,.01,.34,.32,.95,.94l.92,.93,.91-.92c.45-.45,.72-.73,.82-.82,.1-.09,.16-.14,.19-.14,.12,0,.18,.06,.18,.18,0,.04-.03,.09-.09,.16s-.34,.35-.86,.87l-.91,.93,.91,.93c.49,.5,.77,.78,.84,.86,.07,.08,.11,.13,.11,.17Z"/>
      <path class="cls-1" d="M24.4,127.76c0,.12-.06,.18-.18,.18-.03,0-.09-.05-.19-.14s-.37-.37-.82-.82l-.91-.92-.92,.93c-.62,.61-.94,.93-.95,.94-.02,.01-.04,.02-.06,.02-.05,0-.09-.02-.12-.05-.04-.04-.06-.08-.06-.12,0-.04,.04-.11,.12-.19,.08-.09,.36-.37,.82-.84l.91-.92-.91-.92c-.47-.48-.75-.76-.82-.84s-.12-.15-.12-.19c0-.05,.02-.09,.05-.12,.04-.03,.08-.04,.13-.04,.03,0,.05,0,.06,0,.02,.01,.34,.32,.95,.94l.92,.93,.91-.92c.45-.45,.72-.73,.82-.82,.1-.09,.16-.14,.19-.14,.12,0,.18,.06,.18,.18,0,.04-.03,.09-.09,.16-.06,.06-.34,.35-.86,.87l-.91,.93,.91,.93c.49,.5,.77,.78,.84,.86,.07,.08,.11,.13,.11,.17Z"/>
      <path d="M27.57,122.9l-.11,.04c-.08,.03-.2,.06-.35,.09-.15,.03-.32,.05-.51,.06h-.17v-.41h.17c.27-.01,.53-.06,.76-.13,.23-.08,.4-.15,.49-.21,.09-.06,.18-.13,.25-.19,.01-.02,.05-.03,.11-.03,.05,0,.1,.02,.15,.05v5.3s.08,.07,.11,.08c.03,.01,.1,.02,.21,.04,.11,.01,.29,.02,.54,.02h.23v.41h-.1c-.12-.02-.59-.03-1.39-.03s-1.25,0-1.38,.03h-.11v-.41h.56c.09,0,.17,0,.22,0,.05,0,.1-.01,.14-.03,.04-.01,.06-.02,.07-.02s.02-.01,.05-.04,.05-.04,.05-.04v-4.57Z"/>
      <path class="cls-1" d="M27.57,122.9l-.11,.04c-.08,.03-.2,.06-.35,.09-.15,.03-.32,.05-.51,.06h-.17v-.41h.17c.27-.01,.53-.06,.76-.13,.23-.08,.4-.15,.49-.21,.09-.06,.18-.13,.25-.19,.01-.02,.05-.03,.11-.03,.05,0,.1,.02,.15,.05v5.3s.08,.07,.11,.08c.03,.01,.1,.02,.21,.04,.11,.01,.29,.02,.54,.02h.23v.41h-.1c-.12-.02-.59-.03-1.39-.03s-1.25,0-1.38,.03h-.11v-.41h.56c.09,0,.17,0,.22,0,.05,0,.1-.01,.14-.03,.04-.01,.06-.02,.07-.02s.02-.01,.05-.04,.05-.04,.05-.04v-4.57Z"/>
    </g>
    <g class="cls-19">
      <path d="M116.02,116.92l-.16,.06c-.12,.04-.29,.08-.5,.12-.22,.04-.46,.07-.73,.09h-.24v-.58h.24c.39-.02,.76-.08,1.1-.19,.34-.11,.57-.21,.71-.3,.13-.09,.25-.18,.35-.27,.02-.03,.07-.04,.15-.04,.08,0,.15,.03,.21,.08v7.49c.07,.06,.12,.1,.16,.11,.04,.02,.14,.03,.3,.05,.16,.02,.42,.02,.78,.02h.33v.58h-.14c-.18-.03-.84-.04-2-.04s-1.8,.01-1.98,.04h-.15v-.58h.81c.13,0,.24,0,.32-.01,.08,0,.14-.02,.2-.04s.09-.02,.1-.02,.03-.02,.08-.06c.04-.04,.07-.06,.08-.05v-6.46Z"/>
      <path class="cls-7" d="M116.02,116.92l-.16,.06c-.12,.04-.29,.08-.5,.12-.22,.04-.46,.07-.73,.09h-.24v-.58h.24c.39-.02,.76-.08,1.1-.19,.34-.11,.57-.21,.71-.3s.25-.18,.35-.28c.02-.02,.07-.04,.15-.04,.08,0,.15,.03,.21,.08v7.49c.07,.06,.12,.1,.16,.11s.14,.03,.3,.05c.16,.02,.42,.02,.78,.02h.33v.58h-.14c-.18-.03-.84-.04-2-.04s-1.8,.01-1.98,.04h-.15v-.58h.81c.13,0,.24,0,.32-.01,.08,0,.14-.02,.2-.04s.09-.03,.1-.03,.03-.02,.08-.06c.04-.04,.07-.06,.08-.05v-6.46Z"/>
    </g>
  </g>
</svg>