<?xml version="1.0" encoding="UTF-8"?>
<svg id="_图层_1" data-name="图层 1" xmlns="http://www.w3.org/2000/svg" xmlns:xlink="http://www.w3.org/1999/xlink" viewBox="0 0 309 115">
  <defs>
    <style>
      .cls-1 {
        fill: #0000f0;
      }

      .cls-1, .cls-2 {
        fill-rule: evenodd;
      }

      .cls-3 {
        fill: #fff;
      }

      .cls-4 {
        clip-path: url(#clippath-2);
      }

      .cls-5 {
        clip-path: url(#clippath-1);
      }

      .cls-6 {
        stroke-width: .43px;
      }

      .cls-6, .cls-7, .cls-8 {
        fill: none;
      }

      .cls-6, .cls-8 {
        stroke: #000;
        stroke-linecap: round;
        stroke-miterlimit: 10;
      }

      .cls-9 {
        clip-path: url(#clippath);
      }

      .cls-10 {
        clip-path: url(#clippath-3);
      }

      .cls-8 {
        stroke-width: .36px;
      }
    </style>
    <clipPath id="clippath">
      <rect class="cls-7" x="-115" y="-337" width="540" height="780"/>
    </clipPath>
    <clipPath id="clippath-1">
      <rect class="cls-7" x="-115" y="-337" width="540" height="780"/>
    </clipPath>
    <clipPath id="clippath-2">
      <rect class="cls-7" x="-.64" y="-2.08" width="311.28" height="110.16"/>
    </clipPath>
    <clipPath id="clippath-3">
      <rect class="cls-7" x="-.64" y="-2.08" width="311.28" height="110.16"/>
    </clipPath>
  </defs>
  <g class="cls-9">
    <g class="cls-5">
      <rect class="cls-3" x="-115" y="-337" width="540" height="780"/>
    </g>
    <g class="cls-4">
      <g class="cls-10">
        <path class="cls-2" d="M13.16,9.6l-1.73,2.95h1.93l-.2-2.95Zm1.82,5.19c-.02,.07-.07,.1-.13,.1-.3-.02-.6-.03-.9-.03h-.15c-.35,0-.71,.01-1.06,.03-.05,0-.08-.02-.09-.07v-.03l.02-.07c.02-.07,.06-.11,.13-.1,.11,0,.21,0,.31-.01,.09,0,.18-.03,.27-.08,.04-.02,.07-.04,.09-.08,.02-.03,.03-.06,.03-.09v-.03l-.11-1.5h-2.11l-.73,1.25c-.04,.08-.06,.15-.06,.22,0,.06,.02,.11,.05,.16,.08,.11,.21,.16,.41,.16,.05,0,.08,.02,.09,.06,0,.01,0,.03,0,.04l-.02,.07c-.02,.07-.07,.1-.13,.1-.28-.01-.55-.02-.82-.03h-.12c-.24,0-.47,0-.71,.03-.03,0-.05,0-.06-.03-.01-.01-.02-.02-.02-.03,0-.01,0-.02,0-.04l.02-.07c.02-.07,.06-.11,.13-.1,.1,0,.2-.01,.3-.03,.1-.02,.19-.06,.28-.11s.16-.12,.24-.2c.07-.08,.14-.16,.19-.26l3.2-5.47c.04-.07,.1-.1,.17-.1h.09c.07,0,.11,.03,.12,.1l.4,5.72c0,.08,.02,.14,.03,.19,.01,.05,.04,.08,.08,.11,.05,.03,.12,.05,.23,.05,.1,0,.22,0,.34,0,.06,0,.08,.02,.08,.06,0,.01,0,.03,0,.04l-.02,.07Z"/>
        <path class="cls-8" d="M17.53,11.12c2.55-3.35,3.92,2.41,6.47-.93"/>
        <line class="cls-8" x1="17.61" y1="12.23" x2="23.91" y2="12.23"/>
        <line class="cls-8" x1="17.61" y1="13.49" x2="23.91" y2="13.49"/>
        <path class="cls-2" d="M31.31,13.24c.04-.15,.06-.31,.06-.46v-.09c-.01-.17-.06-.33-.14-.47-.07-.13-.16-.23-.29-.31-.12-.08-.26-.12-.42-.12h-1.66l-.64,2.49c-.02,.1-.04,.18-.04,.22,0,.03,0,.05,0,.06,.02,.02,.11,.04,.28,.04h1.21c.17,0,.35-.04,.52-.11,.17-.07,.34-.17,.48-.29,.16-.14,.29-.29,.39-.46s.18-.34,.23-.51Zm.56-2.98c.03-.12,.05-.24,.05-.36v-.11c-.01-.15-.06-.29-.13-.41-.07-.11-.16-.2-.27-.27-.11-.07-.24-.1-.39-.1h-1.2c-.17,0-.28,.02-.31,.04-.04,.03-.08,.13-.12,.28l-.58,2.26h1.3c.18,0,.35-.03,.53-.1,.17-.07,.34-.17,.5-.29,.33-.26,.54-.57,.62-.94Zm.82,0c-.05,.21-.15,.4-.3,.58-.15,.18-.32,.33-.52,.46-.15,.1-.31,.18-.47,.24-.16,.06-.32,.1-.48,.13,.2,.02,.38,.06,.54,.14s.31,.18,.43,.31c.14,.14,.23,.3,.28,.5,.02,.1,.04,.19,.04,.29,0,.11-.02,.22-.05,.33-.05,.22-.16,.43-.31,.63-.15,.2-.33,.38-.54,.52-.22,.16-.46,.28-.71,.36-.25,.08-.5,.12-.75,.12h-3.24s-.05,0-.07-.03c-.01-.01-.02-.02-.02-.03,0-.01,0-.02,0-.04l.02-.07c.01-.07,.06-.11,.13-.1,.14,0,.28,0,.4,0,.13,0,.23-.02,.29-.05,.07-.03,.12-.12,.15-.27l1.27-4.95c.02-.07,.03-.12,.03-.16,0-.05-.01-.09-.04-.1-.05-.03-.14-.05-.26-.05-.13,0-.26,0-.41,0-.03,0-.05,0-.06-.03-.01-.01-.02-.02-.02-.04,0-.01,0-.02,0-.03l.02-.07s.02-.05,.05-.07c.02-.02,.05-.03,.08-.03h3c.24,0,.47,.04,.68,.11,.21,.07,.39,.18,.53,.33,.14,.14,.23,.3,.29,.48,.02,.09,.04,.18,.04,.28,0,.1-.01,.21-.04,.31Z"/>
        <path class="cls-2" d="M11.94,41.52h-1.22c-.16,.71-.34,1.37-.53,1.97,.31,.24,.64,.49,.98,.76,.41-.68,.66-1.6,.77-2.74Zm3.75-.68h-1.83v4.45h1.83v-4.45Zm-2.76,4.81l-.48,.49c-.39-.35-.78-.69-1.15-1.01-.5,.63-1.1,1.17-1.82,1.61-.1-.16-.23-.34-.37-.53,.7-.41,1.27-.9,1.73-1.47-.46-.38-.9-.73-1.32-1.06,.22-.69,.41-1.41,.57-2.16h-.95v-.57h1.07c.1-.5,.19-1.02,.27-1.55l.65,.09c-.09,.51-.18,.99-.28,1.46h1.7v.55c-.15,1.36-.45,2.4-.9,3.13,.4,.32,.83,.65,1.27,1.02Zm.33-5.36h3.03v6.12h-.6v-.58h-1.83v.64h-.6v-6.18Z"/>
        <path class="cls-2" d="M19.51,44.72c-.03,.13-.11,.25-.23,.34-.12,.09-.25,.14-.39,.14s-.24-.05-.31-.14c-.05-.06-.07-.13-.07-.21,0-.03,0-.08,.02-.13,.03-.13,.11-.24,.23-.34,.12-.09,.25-.14,.39-.14s.24,.05,.32,.14c.04,.07,.06,.14,.06,.22,0,.03,0,.08-.02,.12Zm.76-2.92c-.04,.13-.11,.24-.23,.34-.12,.09-.25,.14-.38,.14s-.25-.05-.32-.14c-.05-.06-.07-.13-.07-.22,0-.03,0-.07,.02-.11,.03-.13,.11-.24,.23-.34,.12-.09,.25-.14,.39-.14,.14,0,.24,.05,.32,.14,.05,.07,.07,.14,.07,.22,0,.03,0,.07-.02,.12Z"/>
        <path class="cls-2" d="M29.1,39.91l-1.72,2.95h1.93l-.2-2.95Zm1.82,5.19c-.02,.07-.07,.1-.13,.1-.3-.02-.6-.03-.9-.03h-.15c-.35,0-.71,.01-1.06,.03-.05,0-.08-.02-.09-.07v-.03l.02-.07c.02-.07,.06-.11,.13-.1,.11,0,.21,0,.31-.01,.09,0,.18-.03,.27-.08,.04-.02,.07-.04,.09-.08,.02-.03,.03-.06,.03-.09v-.03l-.11-1.5h-2.11l-.73,1.25c-.04,.08-.06,.15-.06,.22,0,.06,.02,.11,.05,.16,.08,.11,.21,.16,.41,.16,.06,0,.08,.02,.09,.06,0,.01,0,.03,0,.04l-.02,.07c-.02,.07-.07,.1-.13,.1-.28-.01-.55-.02-.82-.03h-.12c-.24,0-.47,0-.72,.03-.03,0-.05,0-.06-.03-.01-.01-.02-.02-.02-.03,0-.01,0-.02,0-.04l.02-.07c.02-.07,.06-.11,.13-.1,.1,0,.2-.01,.3-.03,.1-.02,.19-.06,.28-.11,.09-.05,.17-.12,.24-.2,.07-.08,.14-.16,.19-.26l3.2-5.47c.04-.07,.1-.1,.17-.1h.09c.07,0,.11,.03,.12,.1l.4,5.72c0,.08,.02,.14,.03,.19,.01,.05,.04,.08,.08,.11,.05,.03,.12,.05,.23,.05,.1,0,.22,0,.34,0,.05,0,.08,.02,.08,.06,0,.01,0,.03,0,.04l-.02,.07Z"/>
        <path class="cls-2" d="M34.33,46.38s-.02,.04-.05,.06c-.09,.03-.18,.05-.27,.07-.09,.02-.18,.03-.27,.03h-.06s-.04,0-.06,0l-.23,.78c-.01,.06-.05,.1-.1,.13-.05,.03-.1,.04-.15,.04-.05,0-.09-.01-.12-.04-.02-.02-.03-.04-.03-.07,0-.02,0-.03,0-.06l.25-.87c-.12-.04-.25-.08-.36-.12-.12-.04-.25-.06-.39-.06-.09,0-.18,0-.26,0-.08,0-.15,.02-.22,.04-.03,.02-.06,.05-.1,.07-.04,.02-.07,.05-.11,.06-.01,0-.02,.01-.03,.01,0,0,0,0,0,0-.01,0-.03,0-.03,0l-.04-.04s-.01-.02-.01-.03c0-.01,.01-.03,.03-.04,.04-.03,.08-.05,.12-.08,.04-.03,.08-.06,.12-.09,.27-.19,.51-.41,.72-.65,.21-.24,.39-.49,.55-.75,.16-.26,.3-.54,.41-.82,.11-.28,.21-.56,.29-.84,.01-.05,.05-.09,.09-.12,.05-.03,.09-.04,.14-.04,.05,0,.1,.01,.14,.04,.02,.02,.03,.05,.03,.08,0,.01,0,.03,0,.04-.08,.28-.18,.55-.31,.82-.12,.27-.27,.53-.43,.79-.17,.26-.36,.5-.57,.74-.22,.24-.45,.46-.71,.66,.05,0,.09,0,.13,0h.13c.14,0,.28,.02,.4,.06,.12,.04,.24,.08,.37,.12l.27-.94c.02-.06,.05-.1,.09-.12,.05-.03,.1-.04,.15-.04,.05,0,.09,.01,.13,.03,.02,.02,.03,.05,.03,.08,0,.01,0,.03,0,.05l-.29,1.02s.07,0,.1,0c.14,0,.29-.02,.44-.07,.01,0,.02,0,.03,0,.01,0,.02,0,.04,.01l.03,.04s0,0,0,.01h0Z"/>
        <path class="cls-2" d="M38.81,44.02s.02,.03,.02,.05c0,0,0,.01,0,.02,0,.03-.03,.05-.06,.08l-1.51,1.04,.91,1.04s.02,.03,.02,.04v.03s-.03,.05-.06,.07c-.03,.02-.06,.03-.09,.03-.03,0-.06,0-.08-.03l-.89-1.05-1.51,1.05s-.05,.03-.08,.03c-.03,0-.06,0-.08-.03-.01-.01-.02-.03-.02-.04,0,0,0-.02,0-.03,0-.03,.03-.05,.06-.07l1.5-1.04-.9-1.04s-.02-.03-.02-.05c0,0,0-.02,0-.03,0-.03,.03-.05,.06-.07,.03-.02,.06-.03,.09-.03,.03,0,.06,.01,.08,.03l.9,1.05,1.5-1.05s.06-.03,.09-.03c.03,0,.06,.01,.08,.03Z"/>
        <path class="cls-2" d="M41.78,46.38s-.02,.04-.05,.06c-.09,.03-.18,.05-.27,.07-.09,.02-.18,.03-.27,.03h-.06s-.04,0-.06,0l-.23,.78c-.01,.06-.05,.1-.1,.13-.05,.03-.1,.04-.15,.04-.05,0-.09-.01-.12-.04-.02-.02-.03-.04-.03-.07,0-.02,0-.03,0-.06l.25-.87c-.12-.04-.25-.08-.36-.12-.12-.04-.25-.06-.39-.06-.09,0-.18,0-.26,0-.08,0-.15,.02-.22,.04-.03,.02-.06,.05-.1,.07s-.07,.05-.11,.06c-.01,0-.02,.01-.03,.01,0,0,0,0,0,0-.01,0-.03,0-.03,0l-.04-.04s-.01-.02-.01-.03c0-.01,.01-.03,.03-.04,.04-.03,.08-.05,.12-.08,.04-.03,.08-.06,.12-.09,.27-.19,.51-.41,.72-.65,.21-.24,.39-.49,.55-.75,.16-.26,.3-.54,.41-.82,.11-.28,.21-.56,.29-.84,.01-.05,.05-.09,.09-.12s.09-.04,.14-.04c.05,0,.1,.01,.14,.04,.02,.02,.03,.05,.03,.08,0,.01,0,.03,0,.04-.08,.28-.18,.55-.31,.82-.12,.27-.27,.53-.43,.79-.17,.26-.36,.5-.57,.74-.22,.24-.45,.46-.71,.66,.05,0,.09,0,.13,0h.13c.14,0,.28,.02,.4,.06,.12,.04,.24,.08,.36,.12l.27-.94c.01-.06,.05-.1,.09-.12,.05-.03,.1-.04,.15-.04,.05,0,.09,.01,.13,.03,.02,.02,.03,.05,.03,.08,0,.01,0,.03,0,.05l-.29,1.02s.07,0,.1,0c.14,0,.29-.02,.44-.07,.01,0,.02,0,.03,0,.01,0,.02,0,.04,.01l.03,.04s0,0,0,.01h0Z"/>
        <path class="cls-2" d="M50.84,42.21h-2.18v1.89h2.18v-1.89Zm-3.64-2.2h7.6v.57h-1.28v5.05c0,.67-.34,1.01-1.01,1.02-.48,0-.95,0-1.41,0-.03-.23-.07-.46-.12-.68,.58,.04,1.02,.06,1.32,.06,.38,0,.57-.2,.57-.6v-4.84h-5.68v-.57Zm.85,1.67h3.39v2.95h-2.79v.53h-.61v-3.48Z"/>
        <path class="cls-2" d="M58.11,39.41c.34,.53,.73,1.16,1.15,1.9l-.6,.33c-.4-.77-.77-1.41-1.09-1.94l.55-.28Zm.32,4.31c.01,.32,.04,.56,.06,.71-1.23,.75-2,1.22-2.3,1.42-.17,.11-.33,.24-.49,.37l-.44-.59c.24-.21,.36-.46,.35-.75v-5.19h.63v5.34c.57-.33,1.29-.76,2.18-1.31Zm2.39-4.14h.63v1.34c0,1.38-.18,2.47-.55,3.28,.64,.64,1.24,1.26,1.8,1.88l-.53,.47c-.53-.63-1.05-1.23-1.57-1.8-.59,.87-1.48,1.56-2.67,2.05-.12-.15-.26-.33-.42-.52,1.29-.58,2.16-1.25,2.61-2.01,.48-.75,.71-1.87,.7-3.37v-1.33Z"/>
        <path class="cls-2" d="M62.81,43.1c.89-1.15,1.55-2.37,1.97-3.66l.67,.19c-.24,.62-.51,1.2-.79,1.74v5.34h-.65v-4.22c-.29,.45-.59,.87-.91,1.26-.09-.21-.18-.43-.29-.65Zm2.16,.92c.67-.3,1.3-.65,1.88-1.05v-3.42h.66v2.94c.79-.61,1.48-1.32,2.09-2.13l.56,.4c-.75,.96-1.63,1.81-2.65,2.53v2.11c0,.34,.19,.51,.55,.51h.98c.35,0,.55-.16,.61-.48,.07-.34,.12-.73,.14-1.17,.22,.08,.44,.15,.68,.22-.04,.42-.1,.8-.16,1.15-.1,.57-.47,.86-1.11,.86h-1.3c-.7,0-1.05-.33-1.05-1v-1.75c-.48,.3-.98,.57-1.52,.82-.11-.16-.23-.34-.37-.52Z"/>
        <path class="cls-2" d="M76.12,39.8l.32-.39c.43,.24,.83,.49,1.21,.75l-.37,.45c-.37-.28-.76-.55-1.16-.81Zm-2.21,6.37c.59-.39,1.12-.83,1.59-1.35-.3-.73-.47-1.92-.53-3.56h-2.91v1.13h2.22c-.03,.95-.07,1.75-.12,2.4-.06,.69-.41,1.03-1.03,1.03-.21,0-.49,0-.84-.03-.03-.18-.07-.39-.12-.62,.36,.05,.66,.07,.9,.07,.3,0,.46-.2,.5-.6,.04-.46,.07-1.03,.09-1.7h-1.6c-.04,1.73-.4,3.01-1.08,3.84-.13-.17-.26-.34-.4-.51,.58-.75,.87-1.93,.87-3.54v-2.02h3.5c-.02-.39-.03-.82-.05-1.28h.64c0,.35,0,.78,.02,1.28h2.65v.55h-2.63c.05,1.34,.18,2.34,.38,3,.5-.65,.91-1.4,1.23-2.22l.61,.25c-.44,1.01-.97,1.89-1.59,2.64,.38,.74,.75,1.12,1.1,1.12,.13,0,.23-.12,.3-.35,.07-.36,.13-.74,.17-1.12,.22,.08,.42,.15,.59,.21-.08,.53-.16,.97-.25,1.31-.1,.36-.31,.56-.65,.59-.31,.02-.61-.08-.9-.31-.31-.23-.57-.55-.79-.96-.43,.45-.91,.85-1.42,1.19-.13-.15-.28-.3-.44-.45Z"/>
        <path class="cls-2" d="M82.59,39.61l.53-.25c.16,.23,.35,.54,.56,.92l-.55,.28c-.2-.37-.38-.68-.54-.94Zm-3.18-.07c.26,.31,.62,.78,1.08,1.41l-.55,.37c-.42-.63-.76-1.12-1.02-1.46l.49-.32Zm1.32,1.03h5.2v.52h-5.2v-.52Zm.43,1.47l.37-.39c.51,.4,1.13,.89,1.86,1.48,.49-.56,.89-1.21,1.18-1.94l.58,.27c-.35,.77-.78,1.46-1.3,2.05,.55,.45,1.17,.96,1.83,1.51l-.48,.5c-.66-.58-1.25-1.1-1.78-1.56-.7,.67-1.52,1.21-2.48,1.6-.1-.14-.22-.31-.38-.5,.94-.38,1.74-.88,2.4-1.5-.75-.65-1.36-1.16-1.81-1.52Zm.44,3.94l2.01,.04,2.51-.07c-.06,.16-.13,.36-.22,.59h-2.49l-1.89-.03c-.86-.01-1.47-.3-1.84-.87-.21,.19-.52,.52-.92,1l-.32-.62c.45-.42,.78-.73,.99-.91v-2.51h-.92v-.55h1.51v3.18c.32,.49,.84,.74,1.57,.75Z"/>
        <path class="cls-2" d="M91.91,39.08s0,.02-.01,.04c0,.01-.01,.03-.02,.04-.25,.26-.55,.47-.88,.62-.33,.15-.66,.22-1,.22-.25,0-.49-.04-.72-.12l-.47,1.86c.17-.15,.36-.26,.56-.34,.21-.08,.43-.12,.66-.12s.45,.06,.62,.17c.17,.11,.31,.26,.4,.43,.11,.21,.17,.43,.19,.67v.14c0,.2-.03,.41-.08,.62-.07,.27-.19,.53-.35,.78-.16,.25-.35,.48-.59,.68-.22,.19-.47,.34-.73,.44-.26,.1-.52,.16-.79,.16-.23,0-.43-.05-.6-.14-.17-.09-.3-.22-.4-.38-.1-.16-.16-.35-.18-.56,0-.05,0-.1,0-.16,0-.16,.02-.32,.06-.48,.04-.13,.1-.23,.2-.3,.1-.06,.2-.1,.3-.1,.11,0,.2,.03,.27,.09,.05,.05,.07,.11,.07,.18,0,.04,0,.08-.02,.12-.04,.15-.12,.25-.24,.31-.09,.05-.18,.08-.27,.08-.02,0-.05,0-.07,0v.06c0,.28,.08,.52,.24,.71,.17,.21,.41,.32,.72,.32,.17,0,.35-.05,.53-.14,.18-.09,.33-.22,.47-.36,.16-.18,.29-.38,.38-.61,.09-.23,.17-.46,.23-.69,.06-.23,.12-.46,.16-.69,.02-.09,.03-.18,.03-.27,0-.12-.01-.24-.04-.35-.04-.14-.11-.26-.19-.36-.08-.1-.2-.15-.35-.15-.25,0-.49,.05-.7,.16-.21,.11-.4,.25-.57,.43-.04,.04-.06,.07-.08,.09-.03,.03-.06,.04-.09,.04,0,0-.01,0-.02,0h-.04c-.05,0-.08-.02-.08-.07v-.03l.62-2.41,.16-.62c.02-.06,.06-.09,.11-.09,.01,0,.02,0,.02,0,0,0,0,0,.02,0,.01,0,.02,.01,.02,.01,0,0,0,0,.02,.01,.31,.18,.68,.26,1.1,.26s.85-.1,1.29-.29c.02,0,.04,0,.05,0,.04,0,.06,.02,.06,.05v.03Z"/>
        <path class="cls-2" d="M96.92,43.62h1.19v-2.21h-1.19v2.21Zm2.96-2.21h-1.19v2.21h1.19v-2.21Zm-6.73,3.29c.48-.65,.88-1.48,1.2-2.5h-1.16v-.53h1.23v-1.22c-.31,.02-.65,.05-1.02,.07-.02-.17-.06-.35-.12-.55,1.05-.05,1.96-.14,2.74-.25l.14,.57c-.33,.03-.72,.07-1.18,.1v1.26h1.1v.53h-1.1v.97l.33-.26c.28,.28,.59,.62,.93,1.03l-.47,.37c-.28-.37-.54-.7-.79-.98v3.41h-.57v-3.25c-.27,.73-.6,1.35-1,1.85-.08-.21-.17-.42-.27-.64Zm3.22-3.81h1.74v-1.49h.59v1.49h1.75v3.6h-.56v-.36h-1.19v2.62h-.59v-2.62h-1.19v.36h-.55v-3.6Z"/>
        <path class="cls-2" d="M104.48,43.29l.57,.22c-.42,.91-.84,1.72-1.25,2.43-.16-.09-.35-.18-.56-.26,.41-.64,.82-1.44,1.24-2.39Zm2.46,.25l.55-.25c.49,.91,.89,1.7,1.22,2.38l-.62,.26c-.33-.77-.71-1.57-1.15-2.39Zm-2.83-3.67h4.1v.52h-4.1v-.52Zm-.35,2.19h4.8v.52h-2.12v3.12c0,.62-.3,.93-.89,.93-.27,0-.62,0-1.02,0-.03-.18-.06-.39-.11-.62,.36,.04,.68,.06,.97,.06,.31,0,.46-.18,.46-.55v-2.93h-2.09v-.52Zm-2.8,2.02c.57-.85,.96-1.74,1.17-2.67h-1.12v-.51h1.17v-1.46h.54v1.46h1.05v.51h-1.05v1.32l.33-.34c.33,.27,.62,.54,.87,.79l-.41,.41c-.24-.27-.51-.54-.79-.82v3.94h-.54v-4.04c-.27,.86-.59,1.54-.97,2.06-.07-.21-.15-.43-.25-.66Z"/>
        <path class="cls-2" d="M113.52,39.64l.5-.31c.2,.24,.42,.54,.68,.9l-.53,.34c-.24-.36-.46-.67-.65-.93Zm-4.17,.15c.42,.48,.85,.99,1.29,1.53-.04,.02-.21,.17-.53,.44-.39-.52-.8-1.05-1.25-1.59l.49-.38Zm2.75,2.51h1.75v-1.11h-1.75v1.11Zm0,1.63h1.75v-1.11h-1.75v1.11Zm-2.08-1.07c.2,.1,.4,.19,.59,.25-.37,1.03-.73,2.06-1.08,3.08l-.63-.28c.39-.91,.77-1.93,1.12-3.06Zm2.08,2.8h1.75v-1.22h-1.75v1.22Zm-1.67-3.21c.74-.88,1.34-1.9,1.79-3.07l.57,.19c-.16,.38-.34,.75-.52,1.1h4.05v.51h-1.87v1.11h1.66v.52h-1.66v1.11h1.67v.51h-1.67v1.22h1.97v.5h-4.32v.6h-.6v-4.74c-.2,.31-.41,.61-.63,.89-.11-.15-.26-.31-.44-.45Z"/>
        <path class="cls-2" d="M123.95,39.86c-.7,.74-1.54,1.4-2.53,1.99-.09-.13-.22-.29-.38-.48,.95-.52,1.77-1.15,2.46-1.9l.45,.38Zm.12,2.11c-.73,.81-1.6,1.53-2.61,2.18-.11-.14-.24-.29-.4-.45,.96-.57,1.81-1.27,2.56-2.1l.45,.37Zm.22,2.17c-.81,.95-1.87,1.82-3.17,2.61-.09-.13-.24-.3-.44-.49,1.27-.65,2.32-1.49,3.17-2.5l.44,.38Zm-5.93-1.54h1.26v-2.12h-1.26v2.12Zm-1.63,0h1.04v-2.12h-.82v-.54h4.21v.54h-.94v2.12h1.19v.54h-1.19v3.57h-.6v-3.57h-1.26c0,1.65-.45,2.86-1.34,3.63-.13-.17-.26-.34-.41-.49,.78-.63,1.16-1.68,1.16-3.13h-1.04v-.54Z"/>
        <path class="cls-2" d="M127.01,44.72c-.03,.13-.1,.25-.22,.34-.12,.09-.25,.14-.39,.14-.13,0-.24-.05-.31-.14-.04-.06-.07-.13-.07-.21,0-.03,.01-.08,.02-.13,.03-.13,.1-.24,.23-.34,.12-.09,.24-.14,.38-.14s.24,.05,.32,.14c.04,.07,.06,.14,.06,.22,0,.03,0,.08-.02,.12Zm.76-2.92c-.03,.13-.11,.24-.23,.34-.12,.09-.24,.14-.38,.14s-.25-.05-.32-.14c-.04-.06-.07-.13-.07-.22,0-.03,.01-.07,.02-.11,.03-.13,.11-.24,.23-.34,.12-.09,.25-.14,.38-.14,.14,0,.24,.05,.32,.14,.05,.07,.07,.14,.07,.22,0,.03,0,.07-.02,.12Z"/>
        <path class="cls-2" d="M17.9,52.72c-.02-.2-.1-.36-.22-.49s-.29-.2-.49-.2c-.21,0-.42,.07-.61,.2-.19,.13-.35,.3-.48,.49-.08,.12-.15,.27-.22,.44-.07,.17-.13,.35-.2,.55-.06,.2-.12,.4-.18,.6-.06,.2-.1,.4-.15,.58-.05,.2-.1,.41-.15,.63-.06,.22-.11,.44-.15,.65-.05,.21-.08,.41-.11,.6-.02,.13-.03,.24-.03,.34,0,.05,0,.1,0,.14,.02,.21,.09,.38,.2,.53,.12,.15,.29,.22,.51,.22s.42-.07,.61-.22c.19-.15,.35-.32,.48-.53,.08-.13,.16-.29,.23-.47,.07-.19,.14-.39,.21-.6,.07-.21,.13-.43,.19-.65,.06-.22,.12-.43,.16-.63,.05-.18,.1-.37,.15-.58,.05-.2,.1-.4,.13-.6,.04-.2,.06-.38,.08-.55,.01-.1,.02-.19,.02-.28,0-.06,0-.11,0-.16Zm.49-.09c.07,.25,.11,.5,.11,.77,0,.12,0,.25-.02,.38-.05,.42-.14,.83-.24,1.25-.11,.41-.24,.82-.39,1.22-.15,.4-.38,.78-.68,1.14-.2,.24-.44,.43-.72,.58-.28,.14-.56,.21-.85,.21s-.53-.07-.73-.21c-.2-.14-.34-.34-.42-.58-.07-.25-.11-.5-.11-.78,0-.12,0-.24,.02-.37,.05-.4,.13-.8,.24-1.22,.11-.41,.24-.82,.4-1.24,.15-.41,.38-.8,.68-1.17,.2-.25,.44-.44,.72-.59,.28-.15,.56-.22,.85-.22s.53,.07,.73,.22c.2,.15,.34,.34,.42,.59Z"/>
        <path class="cls-2" d="M29.19,65.18c-.02-.2-.1-.36-.22-.49-.12-.13-.29-.2-.49-.2s-.42,.07-.61,.2-.35,.3-.48,.49c-.08,.12-.15,.27-.22,.44-.07,.17-.13,.35-.2,.55-.06,.2-.12,.4-.18,.6-.05,.2-.1,.4-.14,.58-.05,.2-.1,.41-.15,.63-.06,.22-.11,.44-.15,.65-.05,.21-.08,.41-.1,.6-.02,.13-.03,.24-.03,.34,0,.05,0,.1,0,.14,.02,.21,.09,.38,.2,.53,.12,.15,.29,.22,.51,.22s.42-.07,.61-.22c.19-.15,.35-.32,.48-.53,.08-.13,.16-.29,.23-.48,.07-.19,.14-.39,.21-.6,.07-.21,.13-.43,.19-.65,.06-.22,.11-.43,.16-.63,.05-.18,.1-.37,.15-.58,.05-.2,.1-.4,.13-.6,.04-.2,.07-.38,.08-.55,.01-.1,.02-.19,.02-.27,0-.06,0-.11,0-.16Zm.49-.09c.07,.25,.11,.51,.11,.78,0,.12,0,.25-.02,.38-.05,.42-.14,.83-.24,1.25-.11,.41-.24,.82-.39,1.22-.15,.4-.38,.78-.68,1.14-.2,.24-.44,.43-.72,.58-.28,.14-.56,.21-.85,.21s-.53-.07-.73-.21c-.2-.14-.34-.34-.42-.58-.07-.25-.11-.5-.11-.77,0-.12,0-.24,.02-.37,.05-.4,.13-.8,.24-1.22,.11-.41,.24-.82,.4-1.24s.38-.8,.68-1.17c.2-.25,.44-.44,.72-.59,.28-.15,.56-.22,.85-.22,.28,0,.53,.07,.73,.22,.2,.15,.34,.34,.42,.59Z"/>
        <path class="cls-2" d="M40.48,77.63c-.02-.2-.1-.36-.22-.49s-.29-.2-.49-.2c-.21,0-.42,.07-.61,.2s-.35,.3-.48,.49c-.08,.12-.15,.27-.22,.44-.07,.17-.13,.35-.2,.55-.06,.2-.12,.4-.18,.6-.06,.2-.1,.4-.14,.58-.05,.2-.1,.41-.15,.63-.05,.22-.1,.44-.15,.65-.05,.21-.08,.41-.1,.6-.02,.13-.03,.24-.03,.34,0,.05,0,.1,0,.14,.02,.21,.09,.38,.2,.53,.12,.15,.29,.22,.51,.22s.42-.07,.61-.22c.19-.15,.35-.32,.48-.53,.08-.13,.16-.29,.23-.47,.07-.19,.14-.39,.21-.6,.07-.21,.13-.43,.19-.65,.06-.22,.11-.43,.16-.63,.05-.18,.1-.37,.15-.58,.05-.2,.1-.4,.13-.6,.04-.2,.07-.38,.08-.55,.01-.1,.02-.19,.02-.28,0-.06,0-.11,0-.16Zm.49-.09c.07,.25,.11,.5,.11,.77,0,.12,0,.25-.02,.38-.05,.42-.13,.83-.24,1.25-.11,.41-.24,.82-.39,1.22-.15,.4-.38,.78-.68,1.14-.2,.24-.44,.43-.72,.58-.28,.14-.56,.21-.85,.21s-.53-.07-.73-.21c-.2-.14-.34-.34-.42-.58-.07-.25-.11-.5-.11-.77,0-.12,0-.24,.02-.37,.05-.4,.13-.8,.24-1.22,.11-.41,.24-.82,.4-1.24,.15-.41,.38-.8,.68-1.17,.2-.25,.44-.44,.72-.59s.57-.22,.85-.22,.53,.07,.73,.22c.2,.15,.34,.34,.42,.59Z"/>
        <path class="cls-2" d="M51.77,90.09c-.02-.2-.1-.36-.22-.49-.12-.13-.29-.2-.49-.2s-.42,.07-.61,.2c-.19,.13-.35,.3-.48,.49-.08,.12-.15,.27-.22,.44-.07,.17-.13,.35-.2,.55-.06,.2-.12,.4-.18,.6-.05,.2-.1,.4-.14,.58-.05,.2-.1,.41-.15,.63-.06,.22-.11,.44-.15,.65-.04,.21-.08,.41-.1,.6-.02,.13-.03,.24-.03,.34,0,.05,0,.1,0,.14,.02,.21,.09,.38,.2,.53,.12,.15,.29,.22,.51,.22s.42-.07,.61-.22c.19-.15,.35-.32,.48-.53,.08-.13,.16-.29,.23-.48,.07-.19,.14-.39,.21-.6,.07-.21,.13-.43,.19-.65,.06-.22,.12-.43,.16-.63,.05-.18,.1-.37,.15-.58,.05-.2,.1-.4,.13-.6,.04-.2,.06-.38,.08-.55,.01-.1,.02-.19,.02-.27,0-.06,0-.11,0-.16Zm.49-.09c.07,.25,.11,.5,.11,.77,0,.12,0,.25-.02,.38-.05,.42-.13,.83-.24,1.25-.11,.41-.24,.82-.39,1.22-.15,.4-.38,.78-.68,1.14-.2,.24-.44,.43-.72,.58-.28,.14-.56,.21-.85,.21s-.53-.07-.73-.21c-.2-.14-.34-.34-.42-.58-.07-.25-.11-.5-.11-.77,0-.12,0-.24,.02-.37,.05-.4,.13-.8,.24-1.22,.11-.41,.24-.82,.4-1.24,.15-.41,.38-.8,.68-1.17,.2-.25,.44-.44,.72-.59,.28-.15,.57-.22,.85-.22s.53,.07,.73,.22c.2,.15,.34,.34,.42,.59Z"/>
        <polyline class="cls-6" points="12.29 51.54 9.4 51.54 9.4 96.54 12.29 96.54"/>
        <polyline class="cls-6" points="53.79 96.54 56.68 96.54 56.68 51.54 53.79 51.54"/>
        <path class="cls-2" d="M61.91,96.29s-.02,.04-.05,.06c-.09,.03-.18,.05-.27,.07-.09,.02-.18,.03-.27,.03h-.06s-.04,0-.06,0l-.23,.78c-.01,.06-.05,.1-.1,.13-.05,.03-.1,.04-.15,.04-.05,0-.09-.01-.12-.04-.02-.02-.03-.04-.03-.07,0-.02,0-.03,0-.06l.25-.87c-.13-.04-.25-.08-.36-.12-.12-.04-.25-.06-.39-.06-.09,0-.18,0-.26,0-.08,0-.15,.02-.22,.04-.03,.02-.06,.05-.1,.07-.04,.02-.07,.05-.11,.06-.01,0-.02,.01-.03,.01,0,0,0,0,0,0-.01,0-.03,0-.03,0l-.04-.04s-.01-.02-.01-.03c0-.01,.01-.03,.03-.04,.04-.03,.08-.05,.12-.08,.04-.03,.08-.06,.12-.09,.27-.19,.51-.41,.72-.65,.21-.24,.39-.49,.55-.75,.16-.26,.3-.54,.41-.82,.11-.28,.21-.56,.29-.84,.01-.05,.05-.09,.09-.12,.05-.03,.09-.04,.14-.04,.05,0,.1,.01,.14,.04,.02,.02,.03,.05,.03,.08,0,.01,0,.03,0,.04-.08,.28-.18,.55-.31,.82-.12,.27-.27,.53-.43,.79-.17,.26-.36,.5-.57,.74-.22,.24-.45,.46-.71,.66,.05,0,.09,0,.13,0h.13c.14,0,.28,.02,.4,.06,.12,.04,.24,.08,.37,.12l.27-.94c.02-.06,.05-.1,.09-.12,.05-.03,.1-.04,.15-.04,.05,0,.09,.01,.13,.03,.02,.02,.03,.05,.03,.08,0,.01,0,.03,0,.05l-.29,1.02s.07,0,.1,0c.14,0,.29-.02,.44-.07,.01,0,.02,0,.03,0,.01,0,.02,0,.04,.01l.03,.04s0,0,0,.01h0Z"/>
        <path class="cls-1" d="M66.01,96.3s-.05,.03-.09,.03c-.03,0-.06-.01-.08-.03l-1.2-1.05-1.2,1.05s-.05,.03-.08,.03c-.03,0-.06,0-.08-.03-.02-.02-.04-.04-.04-.07,0-.03,.01-.05,.03-.08l1.2-1.04-1.2-1.04s-.03-.04-.03-.07,.01-.05,.03-.07c.03-.02,.05-.03,.08-.04,.03,0,.05,.01,.08,.04l1.2,1.05,1.2-1.05s.05-.03,.08-.03c.03,0,.06,.01,.09,.03,.02,.02,.04,.05,.04,.07,0,.03-.01,.05-.03,.07l-1.2,1.04,1.2,1.04s.03,.05,.03,.08c0,.03-.01,.05-.03,.07Z"/>
        <path class="cls-2" d="M69.93,96.29s-.02,.04-.05,.06c-.09,.03-.18,.05-.27,.07-.09,.02-.18,.03-.27,.03h-.06s-.04,0-.06,0l-.23,.78c-.01,.06-.05,.1-.1,.13-.05,.03-.1,.04-.15,.04-.05,0-.09-.01-.12-.04-.02-.02-.03-.04-.03-.07,0-.02,0-.03,0-.06l.25-.87c-.12-.04-.25-.08-.36-.12-.12-.04-.25-.06-.39-.06-.09,0-.18,0-.26,0-.08,0-.15,.02-.22,.04-.03,.02-.06,.05-.1,.07-.04,.02-.07,.05-.11,.06-.01,0-.02,.01-.03,.01,0,0,0,0,0,0-.02,0-.03,0-.03,0l-.04-.04s-.01-.02-.01-.03c0-.01,.01-.03,.03-.04,.04-.03,.08-.05,.12-.08,.04-.03,.08-.06,.12-.09,.27-.19,.51-.41,.72-.65,.21-.24,.39-.49,.55-.75,.16-.26,.3-.54,.41-.82,.11-.28,.21-.56,.29-.84,.01-.05,.05-.09,.09-.12,.05-.03,.09-.04,.14-.04,.05,0,.1,.01,.14,.04,.02,.02,.03,.05,.03,.08,0,.01,0,.03,0,.04-.08,.28-.18,.55-.31,.82-.12,.27-.27,.53-.43,.79-.17,.26-.36,.5-.57,.74-.22,.24-.45,.46-.71,.66,.05,0,.09,0,.13,0h.13c.14,0,.28,.02,.4,.06,.12,.04,.24,.08,.37,.12l.27-.94c.02-.06,.05-.1,.09-.12,.05-.03,.1-.04,.15-.04,.05,0,.09,.01,.13,.03,.02,.02,.03,.05,.03,.08,0,.01,0,.03,0,.05l-.29,1.02s.07,0,.1,0c.14,0,.29-.02,.44-.07,.01,0,.02,0,.03,0,.01,0,.02,0,.04,.01l.03,.04s0,0,0,.01h0Z"/>
        <path class="cls-2" d="M9.26,98.61c.34,.93,1.23,1.55,2.22,1.55h26.06c.88,0,1.67,.55,1.97,1.38h.25c.3-.83,1.09-1.38,1.97-1.38h26.06c.99,0,1.88-.62,2.22-1.55l-.05-.19c-.34,.74-1.08,1.21-1.9,1.21h-26.33c-.88,0-1.67,.55-1.97,1.38h-.25c-.3-.83-1.09-1.38-1.97-1.38H11.21c-.81,0-1.55-.47-1.9-1.21"/>
        <path class="cls-2" d="M35.69,105.69c.3-.37,.55-.83,.75-1.4h-.73v-.3h.77v-.66c-.22,.02-.43,.03-.64,.04-.02-.09-.04-.2-.07-.31,.59-.03,1.16-.07,1.72-.14l.09,.32c-.25,.02-.5,.04-.74,.06v.69h.67v.3h-.67v.56l.19-.15c.18,.15,.38,.34,.59,.57l-.27,.2c-.18-.21-.35-.39-.51-.54v1.89h-.36v-1.82c-.17,.41-.38,.75-.63,1.04-.05-.12-.11-.24-.17-.36Zm1.86-1.02h1.27c.02-.2,.03-.47,.03-.79h-.69c-.07,.21-.15,.42-.22,.6-.11-.05-.23-.08-.36-.11,.21-.42,.37-.88,.48-1.38l.34,.07c-.05,.18-.1,.36-.14,.53h.59c0-.26,0-.55,0-.86h.36c0,.31,0,.6,0,.86h1.11v.3h-1.11c0,.31-.01,.58-.03,.79h1.3v.3h-1.25c.21,.66,.63,1.16,1.27,1.48-.11,.11-.21,.21-.3,.32-.59-.37-.98-.88-1.18-1.51-.19,.64-.67,1.17-1.45,1.58-.07-.1-.16-.2-.26-.3,.79-.35,1.28-.87,1.45-1.58h-1.21v-.3Z"/>
        <path class="cls-2" d="M43.69,102.93c-.01-.11-.06-.21-.14-.28-.08-.08-.18-.11-.32-.11-.14,0-.27,.04-.39,.11-.12,.08-.23,.17-.31,.28-.05,.07-.1,.15-.14,.25-.04,.1-.08,.2-.12,.31-.04,.11-.08,.23-.11,.34s-.07,.23-.09,.33c-.03,.11-.06,.23-.1,.36-.04,.13-.07,.25-.1,.37-.03,.12-.05,.24-.07,.34-.01,.07-.02,.14-.02,.19,0,.03,0,.06,0,.08,.01,.12,.06,.22,.13,.3,.08,.08,.18,.13,.33,.13s.27-.04,.39-.13c.12-.08,.22-.18,.31-.3,.05-.07,.1-.16,.15-.27,.05-.11,.09-.22,.13-.34,.04-.12,.08-.24,.12-.37,.04-.13,.07-.25,.1-.36,.03-.1,.06-.21,.1-.33s.06-.23,.09-.34c.02-.11,.04-.22,.05-.31,0-.06,.01-.11,.01-.16,0-.03,0-.06,0-.09Zm.32-.05c.05,.14,.07,.29,.07,.44,0,.07,0,.14-.01,.22-.03,.24-.09,.48-.16,.72-.07,.23-.15,.47-.25,.7-.1,.23-.24,.45-.44,.65-.13,.14-.28,.25-.46,.33-.18,.08-.36,.12-.54,.12s-.34-.04-.47-.12c-.13-.08-.22-.19-.27-.33-.05-.14-.07-.29-.07-.44,0-.07,0-.14,.01-.21,.03-.23,.08-.46,.15-.7,.07-.23,.15-.47,.25-.71,.1-.24,.24-.46,.44-.67,.13-.14,.28-.25,.46-.34,.18-.08,.36-.13,.55-.13,.18,0,.34,.04,.47,.13,.13,.08,.22,.2,.27,.34Z"/>
        <path class="cls-2" d="M90.18,57.37s-.03,.09-.03,.14c0,.07,.03,.11,.08,.12,.07,.03,.19,.05,.35,.06,.17,0,.33,0,.5,0,.06,0,.09,.02,.09,.06,0,.01,0,.03,0,.04l-.02,.08c-.03,.07-.08,.1-.14,.1-.43-.02-.87-.03-1.31-.03s-.87,0-1.32,.03c-.05,0-.08-.02-.08-.07v-.03l.02-.08c.02-.07,.06-.11,.14-.11,.17,0,.34,0,.51,0,.17,0,.3-.03,.38-.06,.09-.03,.15-.12,.18-.26l1.15-4.47c-.18,.12-.36,.22-.55,.29-.19,.07-.39,.11-.6,.1-.03,0-.05,0-.06-.02-.01-.01-.02-.03-.02-.04,0-.01,0-.02,0-.03l.02-.08c.02-.07,.07-.11,.14-.1,.33,0,.65-.11,.95-.33,.31-.22,.57-.48,.8-.8,.03-.04,.07-.06,.11-.06h.03s.05,0,.07,.03c0,.01,0,.02,0,.03,0,.01,0,.02,0,.03l-1.4,5.46Z"/>
        <path class="cls-2" d="M102.99,65.18c-.02-.2-.09-.36-.21-.49-.12-.13-.29-.2-.49-.2-.22,0-.42,.07-.61,.2-.19,.13-.35,.3-.48,.49-.08,.12-.15,.27-.22,.44-.07,.17-.13,.35-.2,.55-.06,.2-.12,.4-.17,.6-.06,.2-.11,.4-.15,.58-.04,.2-.1,.41-.15,.63-.06,.22-.11,.44-.15,.65-.05,.21-.08,.41-.11,.6,0,.13-.02,.24-.02,.34,0,.05,0,.1,.01,.14,0,.21,.08,.38,.2,.53,.12,.15,.29,.22,.51,.22s.42-.07,.61-.22c.19-.15,.35-.32,.47-.53,.08-.13,.16-.29,.23-.48s.14-.39,.21-.6c.07-.21,.13-.43,.19-.65,.06-.22,.12-.43,.16-.63,.05-.18,.1-.37,.15-.58,.05-.2,.1-.4,.13-.6,.04-.2,.07-.38,.09-.55,0-.1,0-.19,0-.27,0-.06,0-.11,0-.16Zm.5-.09c.07,.25,.1,.51,.1,.78,0,.12,0,.25-.01,.38-.06,.42-.14,.83-.25,1.25-.11,.41-.24,.82-.39,1.22-.15,.4-.38,.78-.68,1.14-.2,.24-.44,.43-.72,.58-.29,.14-.57,.21-.85,.21s-.53-.07-.73-.21c-.2-.14-.34-.34-.42-.58-.08-.25-.12-.5-.12-.77,0-.12,.01-.24,.02-.37,.05-.4,.13-.8,.24-1.22,.11-.41,.24-.82,.4-1.24,.15-.41,.38-.8,.68-1.17,.2-.25,.44-.44,.72-.59,.28-.15,.57-.22,.85-.22,.29,0,.53,.07,.73,.22,.21,.15,.35,.34,.43,.59Z"/>
        <path class="cls-2" d="M114.28,77.63c-.02-.2-.09-.36-.21-.49-.13-.13-.29-.2-.5-.2-.21,0-.41,.07-.61,.2-.19,.13-.35,.3-.47,.49-.08,.12-.16,.27-.22,.44-.07,.17-.14,.35-.2,.55-.06,.2-.12,.4-.18,.6-.05,.2-.1,.4-.14,.58-.05,.2-.1,.41-.15,.63-.06,.22-.11,.44-.15,.65-.05,.21-.08,.41-.11,.6-.02,.13-.02,.24-.02,.34v.14c.02,.21,.09,.38,.21,.53,.12,.15,.29,.22,.51,.22s.41-.07,.6-.22c.19-.15,.35-.32,.48-.53,.08-.13,.16-.29,.23-.47,.07-.19,.14-.39,.21-.6,.06-.21,.13-.43,.19-.65,.06-.22,.11-.43,.16-.63,.05-.18,.1-.37,.15-.58,.05-.2,.09-.4,.13-.6,.04-.2,.07-.38,.08-.55,.01-.1,.02-.19,.02-.28,0-.06,0-.11,0-.16Zm.49-.09c.08,.25,.11,.5,.11,.77,0,.12-.01,.25-.02,.38-.05,.42-.13,.83-.24,1.25-.11,.41-.24,.82-.39,1.22-.15,.4-.38,.78-.68,1.14-.2,.24-.45,.43-.73,.58-.28,.14-.56,.21-.84,.21s-.53-.07-.73-.21c-.21-.14-.35-.34-.43-.58-.07-.25-.11-.5-.11-.77,0-.12,.01-.24,.02-.37,.05-.4,.13-.8,.24-1.22,.11-.41,.24-.82,.39-1.24,.16-.41,.39-.8,.69-1.17,.2-.25,.44-.44,.72-.59,.28-.15,.56-.22,.85-.22s.53,.07,.73,.22c.2,.15,.34,.34,.42,.59Z"/>
        <path class="cls-2" d="M125.57,90.09c-.02-.2-.1-.36-.22-.49-.12-.13-.28-.2-.49-.2s-.42,.07-.61,.2c-.19,.13-.35,.3-.48,.49-.08,.12-.15,.27-.22,.44-.06,.17-.13,.35-.19,.55-.06,.2-.12,.4-.18,.6-.05,.2-.1,.4-.14,.58-.05,.2-.1,.41-.16,.63-.05,.22-.1,.44-.15,.65-.04,.21-.08,.41-.1,.6-.02,.13-.03,.24-.03,.34,0,.05,0,.1,0,.14,.02,.21,.09,.38,.21,.53,.11,.15,.28,.22,.51,.22,.21,0,.41-.07,.6-.22,.19-.15,.35-.32,.48-.53,.08-.13,.15-.29,.23-.48,.07-.19,.14-.39,.2-.6,.07-.21,.13-.43,.19-.65,.07-.22,.12-.43,.17-.63,.04-.18,.09-.37,.15-.58,.05-.2,.09-.4,.13-.6,.04-.2,.06-.38,.08-.55,.01-.1,.02-.19,.02-.27,0-.06,0-.11,0-.16Zm.49-.09c.07,.25,.11,.5,.11,.77,0,.12-.01,.25-.02,.38-.05,.42-.13,.83-.24,1.25-.11,.41-.24,.82-.39,1.22-.15,.4-.38,.78-.69,1.14-.2,.24-.44,.43-.72,.58-.28,.14-.56,.21-.85,.21s-.52-.07-.73-.21c-.2-.14-.34-.34-.42-.58-.07-.25-.11-.5-.11-.77,0-.12,.01-.24,.02-.37,.04-.4,.12-.8,.24-1.22,.11-.41,.24-.82,.39-1.24,.16-.41,.38-.8,.68-1.17,.21-.25,.45-.44,.73-.59,.28-.15,.56-.22,.85-.22s.53,.07,.73,.22c.2,.15,.34,.34,.42,.59Z"/>
        <polyline class="cls-6" points="86.72 51.54 83.83 51.54 83.83 96.54 86.72 96.54"/>
        <polyline class="cls-6" points="127.59 96.54 130.48 96.54 130.48 51.54 127.59 51.54"/>
        <path class="cls-2" d="M83.69,98.61c.34,.93,1.23,1.55,2.22,1.55h19.16c.88,0,1.66,.55,1.96,1.38h.26c.3-.83,1.08-1.38,1.96-1.38h19.16c.99,0,1.88-.62,2.22-1.55l-.06-.19c-.34,.74-1.08,1.21-1.89,1.21h-19.43c-.88,0-1.66,.55-1.96,1.38h-.26c-.3-.83-1.08-1.38-1.96-1.38h-19.43c-.81,0-1.55-.47-1.9-1.21"/>
        <path class="cls-2" d="M107.45,105.69c.3-.37,.55-.83,.76-1.4h-.73v-.3h.77v-.66c-.22,.02-.43,.03-.64,.04-.01-.09-.04-.2-.07-.31,.59-.03,1.17-.07,1.72-.14l.09,.32c-.26,.02-.5,.04-.74,.06v.69h.67v.3h-.67v.56l.19-.15c.18,.15,.37,.34,.59,.57l-.27,.2c-.18-.21-.35-.39-.51-.54v1.89h-.36v-1.82c-.17,.41-.38,.75-.63,1.04-.05-.12-.1-.24-.17-.36Zm1.87-1.02h1.26c.02-.2,.03-.47,.03-.79h-.68c-.07,.21-.15,.42-.22,.6-.12-.05-.24-.08-.36-.11,.2-.42,.37-.88,.48-1.38l.34,.07c-.05,.18-.1,.36-.14,.53h.59c0-.26,.01-.55,.01-.86h.36c-.01,.31-.01,.6-.01,.86h1.1v.3h-1.11c0,.31,0,.58-.03,.79h1.3v.3h-1.25c.21,.66,.63,1.16,1.27,1.48-.11,.11-.21,.21-.29,.32-.59-.37-.99-.88-1.19-1.51-.19,.64-.67,1.17-1.44,1.58-.08-.1-.17-.2-.26-.3,.79-.35,1.27-.87,1.45-1.58h-1.21v-.3Z"/>
        <path class="cls-2" d="M114.29,105.59s0,.05-.02,.08c0,.04,.02,.06,.05,.07,.05,.02,.12,.03,.23,.03,.1,0,.21,0,.32,0,.03,0,.05,.01,.06,.04,0,0,0,.01,0,.02v.04s-.06,.06-.1,.06c-.27,0-.55-.01-.84-.01-.27,0-.56,0-.84,.01-.03,0-.05-.01-.05-.04v-.06s.05-.06,.1-.06c.11,0,.22,0,.32,0,.11,0,.19-.01,.25-.03,.05-.02,.09-.07,.11-.15l.74-2.55c-.11,.07-.23,.13-.35,.17-.12,.04-.25,.06-.38,.06-.02,0-.03,0-.04-.01-.01,0-.01-.01-.01-.02v-.07s.06-.06,.1-.06c.21,0,.42-.06,.61-.19,.2-.12,.37-.28,.51-.46,.02-.02,.05-.03,.07-.04h.02s.04,0,.05,.02v.04l-.9,3.12Z"/>
        <path class="cls-2" d="M148.02,57.37s-.03,.09-.03,.14c0,.07,.03,.11,.08,.12,.06,.03,.18,.05,.35,.06,.16,0,.33,0,.5,0,.06,0,.09,.02,.09,.06,0,.01,0,.03-.01,.04l-.02,.08c-.03,.07-.07,.1-.13,.1-.43-.02-.87-.03-1.31-.03s-.87,0-1.32,.03c-.05,0-.08-.02-.08-.07v-.03l.02-.08c.02-.07,.06-.11,.14-.11,.17,0,.33,0,.5,0,.17,0,.3-.03,.38-.06,.09-.03,.15-.12,.19-.26l1.15-4.47c-.18,.12-.36,.22-.55,.29-.19,.07-.39,.11-.6,.1-.02,0-.05,0-.06-.02-.01-.01-.02-.03-.02-.04,0-.01,0-.02,0-.03l.02-.08c.03-.07,.07-.11,.14-.1,.33,0,.65-.11,.95-.33,.31-.22,.58-.48,.8-.8,.03-.04,.07-.06,.11-.06h.03s.05,0,.07,.03c.01,.01,.01,.02,.01,.03,0,.01,0,.02-.01,.03l-1.4,5.46Z"/>
        <path class="cls-2" d="M158.68,69.82s-.03,.09-.03,.14c0,.07,.02,.11,.07,.12,.07,.03,.19,.05,.36,.06,.16,0,.33,0,.5,0,.06,0,.09,.02,.09,.06,0,.01,0,.03-.01,.04l-.02,.08c-.03,.07-.07,.1-.13,.1-.43-.02-.87-.02-1.31-.03-.44,0-.88,0-1.32,.03-.05,0-.08-.02-.08-.07v-.03l.02-.08c.02-.07,.06-.11,.14-.11,.16,0,.33,0,.5,0,.17,0,.3-.03,.38-.06,.09-.03,.15-.12,.18-.26l1.16-4.47c-.18,.12-.36,.22-.55,.29-.19,.07-.39,.1-.6,.1-.03,0-.05,0-.06-.03-.01-.01-.02-.02-.02-.04,0-.01,0-.02,0-.03l.02-.08c.02-.07,.07-.11,.14-.1,.33,0,.64-.11,.95-.33,.31-.22,.57-.48,.8-.8,.03-.04,.06-.06,.11-.06h.03s.05,.01,.07,.03c0,.01,.01,.02,.01,.03,0,.01-.01,.02-.01,.03l-1.4,5.46Z"/>
        <path class="cls-2" d="M171.49,77.63c-.02-.2-.09-.36-.22-.49-.12-.13-.28-.2-.49-.2-.21,0-.41,.07-.61,.2-.19,.13-.35,.3-.47,.49-.08,.12-.16,.27-.22,.44-.07,.17-.14,.35-.2,.55-.06,.2-.12,.4-.18,.6-.05,.2-.1,.4-.14,.58-.05,.2-.1,.41-.15,.63-.06,.22-.11,.44-.15,.65-.05,.21-.09,.41-.11,.6-.02,.13-.03,.24-.03,.34,0,.05,.01,.1,.01,.14,.02,.21,.09,.38,.21,.53,.12,.15,.29,.22,.51,.22s.41-.07,.6-.22c.19-.15,.35-.32,.48-.53,.08-.13,.16-.29,.23-.47,.07-.19,.14-.39,.21-.6,.06-.21,.13-.43,.19-.65,.06-.22,.11-.43,.16-.63,.05-.18,.1-.37,.15-.58,.05-.2,.09-.4,.13-.6,.04-.2,.06-.38,.08-.55,0-.1,.02-.19,.02-.28,0-.06,0-.11-.01-.16Zm.49-.09c.07,.25,.11,.5,.11,.77,0,.12-.01,.25-.02,.38-.05,.42-.13,.83-.24,1.25-.11,.41-.24,.82-.39,1.22-.15,.4-.38,.78-.69,1.14-.2,.24-.44,.43-.72,.58-.28,.14-.56,.21-.84,.21s-.53-.07-.73-.21c-.21-.14-.35-.34-.43-.58-.07-.25-.11-.5-.11-.77,0-.12,.01-.24,.02-.37,.05-.4,.13-.8,.24-1.22,.11-.41,.24-.82,.39-1.24,.16-.41,.38-.8,.69-1.17,.2-.25,.44-.44,.72-.59s.56-.22,.85-.22,.53,.07,.73,.22,.34,.34,.42,.59Z"/>
        <path class="cls-2" d="M182.78,90.09c-.03-.2-.1-.36-.22-.49-.12-.13-.28-.2-.49-.2s-.42,.07-.61,.2c-.19,.13-.35,.3-.48,.49-.08,.12-.15,.27-.22,.44-.06,.17-.13,.35-.19,.55-.07,.2-.12,.4-.18,.6-.05,.2-.1,.4-.14,.58-.05,.2-.1,.41-.16,.63-.05,.22-.1,.44-.15,.65-.04,.21-.08,.41-.1,.6-.02,.13-.03,.24-.03,.34,0,.05,0,.1,0,.14,.02,.21,.09,.38,.2,.53,.12,.15,.29,.22,.51,.22s.42-.07,.61-.22c.19-.15,.35-.32,.48-.53,.08-.13,.15-.29,.22-.48,.08-.19,.15-.39,.21-.6,.07-.21,.13-.43,.19-.65,.06-.22,.12-.43,.17-.63,.04-.18,.09-.37,.14-.58,.06-.2,.1-.4,.14-.6,.03-.2,.06-.38,.08-.55,.01-.1,.02-.19,.02-.27,0-.06-.01-.11-.01-.16Zm.49-.09c.07,.25,.11,.5,.11,.77,0,.12-.01,.25-.02,.38-.05,.42-.14,.83-.24,1.25-.11,.41-.24,.82-.39,1.22-.16,.4-.38,.78-.69,1.14-.2,.24-.44,.43-.72,.58-.28,.14-.56,.21-.85,.21s-.52-.07-.73-.21c-.2-.14-.34-.34-.42-.58-.07-.25-.11-.5-.11-.77,0-.12,0-.24,.02-.37,.04-.4,.12-.8,.24-1.22,.11-.41,.24-.82,.39-1.24,.15-.41,.38-.8,.68-1.17,.2-.25,.45-.44,.73-.59,.28-.15,.56-.22,.85-.22s.52,.07,.73,.22c.2,.15,.34,.34,.42,.59Z"/>
        <polyline class="cls-6" points="144.57 51.54 141.68 51.54 141.68 96.54 144.57 96.54"/>
        <polyline class="cls-6" points="184.8 96.54 187.69 96.54 187.69 51.54 184.8 51.54"/>
        <path class="cls-2" d="M141.53,98.61c.34,.93,1.23,1.55,2.22,1.55h18.84c.88,0,1.67,.55,1.97,1.38h.25c.3-.83,1.09-1.38,1.97-1.38h18.84c.99,0,1.88-.62,2.22-1.55l-.06-.19c-.34,.74-1.08,1.21-1.89,1.21h-19.11c-.88,0-1.67,.55-1.97,1.38h-.25c-.3-.83-1.09-1.38-1.97-1.38h-19.11c-.81,0-1.55-.47-1.9-1.21"/>
        <path class="cls-2" d="M164.98,105.69c.3-.37,.55-.83,.75-1.4h-.73v-.3h.77v-.66c-.22,.02-.43,.03-.63,.04-.02-.09-.04-.2-.08-.31,.6-.03,1.17-.07,1.72-.14l.09,.32c-.26,.02-.5,.04-.74,.06v.69h.67v.3h-.67v.56l.19-.15c.18,.15,.38,.34,.6,.57l-.28,.2c-.18-.21-.35-.39-.51-.54v1.89h-.36v-1.82c-.17,.41-.38,.75-.62,1.04-.06-.12-.11-.24-.17-.36Zm1.86-1.02h1.26c.02-.2,.03-.47,.04-.79h-.69c-.07,.21-.14,.42-.22,.6-.11-.05-.23-.08-.36-.11,.21-.42,.37-.88,.48-1.38l.34,.07c-.04,.18-.09,.36-.14,.53h.59c0-.26,0-.55,0-.86h.36c0,.31-.01,.6-.01,.86h1.1v.3h-1.1c-.01,.31-.02,.58-.03,.79h1.29v.3h-1.25c.21,.66,.63,1.16,1.28,1.48-.11,.11-.21,.21-.3,.32-.59-.37-.98-.88-1.18-1.51-.19,.64-.68,1.17-1.45,1.58-.07-.1-.16-.2-.26-.3,.79-.35,1.27-.87,1.45-1.58h-1.21v-.3Z"/>
        <path class="cls-2" d="M173.24,103.61c-.04,.13-.11,.26-.22,.37-.11,.11-.23,.22-.38,.32-.14,.1-.3,.19-.46,.28-.17,.09-.32,.16-.47,.24-.19,.09-.35,.2-.5,.32-.14,.12-.27,.26-.37,.42,.04-.02,.08-.02,.14-.02,.11,0,.21,0,.31,.03,.09,.02,.19,.03,.29,.05,.1,.02,.2,.04,.29,.05,.1,.02,.2,.03,.3,.03,.08,0,.16-.02,.23-.05,.08-.03,.15-.08,.21-.14,.07-.06,.12-.12,.17-.2,.04-.08,.08-.15,.1-.23,.01-.03,.03-.04,.08-.05h.06s.04,0,.05,0v.02h0c-.04,.13-.08,.25-.14,.37s-.13,.22-.22,.32c-.08,.1-.18,.17-.29,.23-.11,.06-.22,.09-.35,.09-.12,0-.23-.02-.32-.06-.09-.04-.18-.09-.26-.14-.08-.05-.16-.09-.25-.14-.08-.04-.18-.07-.29-.07-.07,0-.13,.03-.19,.1-.06,.07-.1,.15-.13,.26,0,.03-.04,.04-.08,.04h-.06s-.03,0-.04-.01c-.01,0-.02,0-.02-.01,0,0,.01,0,.01-.01,.08-.27,.22-.51,.43-.75,.2-.23,.46-.42,.76-.57,.27-.13,.51-.28,.72-.47,.21-.18,.35-.39,.41-.61,.05-.14,.08-.27,.09-.41v-.08c0-.1,0-.19-.05-.28-.04-.09-.1-.16-.19-.22-.08-.06-.18-.08-.3-.08-.14,0-.27,.03-.39,.09-.12,.06-.23,.15-.33,.25-.11,.1-.19,.22-.27,.36-.07,.14-.13,.28-.17,.42-.02,.08-.03,.14-.03,.2,0,.03,0,.05,.01,.07,.01,.07,.05,.11,.13,.11,.06,0,.13-.02,.19-.05,.05-.03,.11-.08,.16-.13,.04-.06,.09-.12,.13-.19,.03-.07,.07-.15,.1-.24,0-.03,.01-.06,.01-.09,0-.02,0-.04-.01-.06,0-.05-.03-.1-.06-.14-.01,0-.01-.01-.01-.02,0-.02,.01-.03,.03-.04h.01s.04-.03,.06-.03c.01,0,.02,0,.03,.02,.06,.07,.09,.14,.09,.23,0,.05,0,.09-.02,.14-.03,.09-.06,.17-.11,.26-.04,.09-.1,.16-.16,.23-.05,.07-.13,.13-.21,.17-.08,.04-.17,.07-.26,.06-.08,0-.14-.01-.18-.04-.04-.03-.07-.07-.09-.12-.02-.05-.03-.1-.03-.15v-.02c0-.06,.01-.11,.03-.17,.05-.15,.11-.31,.2-.45,.08-.15,.18-.28,.3-.4,.12-.12,.26-.21,.41-.29,.15-.07,.31-.11,.48-.11,.17,0,.32,.03,.45,.1,.13,.06,.24,.15,.32,.26,.08,.12,.14,.25,.16,.39,.01,.05,.01,.09,.01,.13,0,.11-.02,.22-.05,.32Z"/>
        <path class="cls-2" d="M205.23,57.37s-.03,.09-.03,.14c0,.07,.03,.11,.08,.12,.06,.03,.18,.05,.35,.06,.16,0,.33,0,.5,0,.06,0,.09,.02,.09,.06,0,.01,0,.03-.01,.04l-.02,.08c-.03,.07-.07,.1-.13,.1-.43-.02-.87-.03-1.31-.03s-.88,0-1.32,.03c-.05,0-.08-.02-.08-.07v-.03l.02-.08c.02-.07,.06-.11,.14-.11,.16,0,.33,0,.5,0,.17,0,.3-.03,.38-.06,.09-.03,.15-.12,.18-.26l1.16-4.47c-.18,.12-.36,.22-.55,.29-.19,.07-.39,.11-.6,.1-.03,0-.05,0-.06-.02,0-.01-.02-.03-.02-.04,0-.01,.01-.02,.01-.03l.02-.08c.02-.07,.07-.11,.14-.1,.33,0,.64-.11,.95-.33,.31-.22,.58-.48,.8-.8,.03-.04,.06-.06,.11-.06h.03s.05,0,.07,.03c0,.01,.01,.02,.01,.03,0,.01-.01,.02-.01,.03l-1.4,5.46Z"/>
        <path class="cls-2" d="M215.89,69.82s-.03,.09-.03,.14c0,.07,.02,.11,.07,.12,.07,.03,.19,.05,.35,.06,.17,0,.34,0,.51,0,.05,0,.09,.02,.09,.06,0,.01,0,.03-.01,.04l-.02,.08c-.03,.07-.07,.1-.14,.1-.42-.02-.86-.02-1.3-.03-.44,0-.88,0-1.32,.03-.05,0-.08-.02-.08-.07v-.03l.02-.08c0-.07,.06-.11,.13-.11,.17,0,.34,0,.51,0,.17,0,.3-.03,.38-.06,.09-.03,.15-.12,.18-.26l1.16-4.47c-.18,.12-.36,.22-.55,.29-.19,.07-.39,.1-.6,.1-.03,0-.05,0-.06-.03,0-.01-.02-.02-.02-.04,0-.01,.01-.02,.01-.03l.02-.08c.02-.07,.07-.11,.14-.1,.32,0,.64-.11,.95-.33,.31-.22,.57-.48,.8-.8,.03-.04,.06-.06,.1-.06h.04s.05,.01,.07,.03c0,.01,.01,.02,.01,.03,0,.01-.01,.02-.01,.03l-1.4,5.46Z"/>
        <path class="cls-2" d="M226.55,82.28s-.03,.09-.03,.14c0,.07,.02,.11,.07,.12,.07,.03,.19,.05,.35,.06,.17,0,.34,0,.5,0,.06,0,.09,.02,.1,.06,0,.01-.01,.03-.01,.04l-.02,.08c-.03,.07-.08,.1-.14,.1-.43-.02-.86-.03-1.31-.03s-.87,0-1.31,.03c-.06,0-.08-.02-.08-.07v-.03l.02-.08c0-.07,.06-.11,.13-.11,.17,0,.34,0,.51,0,.17,0,.3-.03,.38-.06,.09-.03,.15-.12,.18-.26l1.15-4.47c-.17,.12-.35,.22-.54,.29-.19,.07-.39,.11-.6,.11-.03,0-.05,0-.06-.03,0-.01-.02-.03-.02-.04,0-.01,0-.02,.01-.03l.02-.08c.02-.07,.07-.11,.13-.1,.33,0,.65-.11,.96-.33,.31-.22,.57-.48,.8-.8,.03-.04,.06-.06,.1-.06h.03s.06,0,.07,.03c.01,.01,.01,.02,.01,.03,0,.01,0,.02-.01,.03l-1.39,5.46Z"/>
        <path class="cls-2" d="M239.37,90.09c-.02-.2-.1-.36-.22-.49-.12-.13-.28-.2-.49-.2s-.42,.07-.61,.2c-.19,.13-.35,.3-.48,.49-.08,.12-.15,.27-.22,.44-.06,.17-.13,.35-.19,.55-.07,.2-.12,.4-.18,.6-.05,.2-.1,.4-.14,.58-.05,.2-.1,.41-.16,.63-.05,.22-.1,.44-.15,.65-.04,.21-.08,.41-.1,.6-.02,.13-.03,.24-.03,.34,0,.05,0,.1,.01,.14,.02,.21,.09,.38,.2,.53,.12,.15,.29,.22,.51,.22s.42-.07,.61-.22c.19-.15,.35-.32,.48-.53,.08-.13,.15-.29,.23-.48,.07-.19,.14-.39,.2-.6,.07-.21,.13-.43,.19-.65,.07-.22,.12-.43,.17-.63,.04-.18,.09-.37,.14-.58,.06-.2,.1-.4,.14-.6,.04-.2,.06-.38,.08-.55,.01-.1,.02-.19,.02-.27,0-.06,0-.11,0-.16Zm.49-.09c.07,.25,.11,.5,.11,.77,0,.12-.01,.25-.02,.38-.05,.42-.13,.83-.24,1.25-.11,.41-.24,.82-.39,1.22-.16,.4-.38,.78-.69,1.14-.2,.24-.44,.43-.72,.58-.28,.14-.56,.21-.85,.21s-.52-.07-.73-.21c-.2-.14-.34-.34-.42-.58-.07-.25-.11-.5-.11-.77,0-.12,0-.24,.02-.37,.04-.4,.12-.8,.24-1.22,.11-.41,.24-.82,.39-1.24,.15-.41,.38-.8,.68-1.17,.2-.25,.45-.44,.73-.59,.28-.15,.56-.22,.85-.22s.53,.07,.73,.22c.2,.15,.34,.34,.42,.59Z"/>
        <polyline class="cls-6" points="201.78 51.54 198.89 51.54 198.89 96.54 201.78 96.54"/>
        <polyline class="cls-6" points="241.39 96.54 244.28 96.54 244.28 51.54 241.39 51.54"/>
        <path class="cls-2" d="M198.74,98.61c.34,.93,1.23,1.55,2.22,1.55h18.53c.88,0,1.66,.55,1.96,1.38h.25c.31-.83,1.09-1.38,1.97-1.38h18.53c.99,0,1.88-.62,2.22-1.55l-.06-.19c-.34,.74-1.08,1.21-1.89,1.21h-18.8c-.88,0-1.66,.55-1.97,1.38h-.25c-.3-.83-1.08-1.38-1.96-1.38h-18.8c-.81,0-1.55-.47-1.9-1.21"/>
        <path class="cls-2" d="M221.87,105.69c.3-.37,.55-.83,.75-1.4h-.72v-.3h.77v-.66c-.22,.02-.43,.03-.64,.04-.01-.09-.04-.2-.07-.31,.59-.03,1.16-.07,1.72-.14l.08,.32c-.25,.02-.5,.04-.73,.06v.69h.67v.3h-.67v.56l.19-.15c.18,.15,.37,.34,.59,.57l-.27,.2c-.18-.21-.35-.39-.51-.54v1.89h-.36v-1.82c-.17,.41-.38,.75-.63,1.04-.05-.12-.11-.24-.17-.36Zm1.86-1.02h1.27c.02-.2,.03-.47,.03-.79h-.68c-.07,.21-.15,.42-.22,.6-.12-.05-.24-.08-.37-.11,.21-.42,.37-.88,.49-1.38l.34,.07c-.05,.18-.1,.36-.15,.53h.6c0-.26,0-.55,.01-.86h.35c0,.31,0,.6-.01,.86h1.11v.3h-1.11c0,.31-.01,.58-.03,.79h1.3v.3h-1.25c.2,.66,.63,1.16,1.27,1.48-.11,.11-.21,.21-.3,.32-.58-.37-.98-.88-1.18-1.51-.19,.64-.67,1.17-1.45,1.58-.07-.1-.16-.2-.26-.3,.79-.35,1.28-.87,1.46-1.58h-1.22v-.3Z"/>
        <path class="cls-2" d="M230.32,103.32c-.04,.12-.1,.24-.18,.36-.09,.11-.2,.21-.33,.3-.14,.1-.29,.17-.45,.21,.13,.05,.24,.12,.33,.22,.07,.09,.12,.19,.15,.31,0,.04,.01,.08,.01,.13,0,.08-.01,.16-.04,.24-.04,.13-.11,.26-.2,.38-.1,.12-.22,.22-.37,.31-.14,.09-.3,.16-.46,.21-.17,.05-.33,.07-.5,.07-.14,0-.26-.02-.37-.07-.1-.05-.19-.11-.26-.19-.07-.08-.11-.17-.13-.28-.02-.04-.03-.08-.03-.12,0-.07,.02-.14,.05-.22,.01-.07,.06-.12,.12-.16,.06-.04,.12-.05,.18-.05,.06,0,.11,.02,.16,.05,.02,.03,.03,.06,.03,.1,0,.02,0,.04-.01,.07-.02,.08-.06,.13-.13,.17-.06,.03-.12,.04-.17,.04h-.03c.01,.16,.06,.29,.18,.39,.11,.1,.26,.16,.45,.16,.11,0,.23-.02,.34-.06,.11-.04,.21-.1,.31-.18,.1-.08,.18-.17,.23-.28,.06-.11,.1-.22,.13-.33,.04-.11,.06-.22,.08-.32v-.08c0-.07-.02-.14-.04-.2-.04-.07-.09-.13-.16-.17-.07-.04-.15-.07-.24-.07h-.32s-.04-.01-.04-.03v-.02l.02-.06s.03-.04,.07-.05h.31c.1,0,.2-.02,.31-.06,.1-.04,.19-.09,.27-.16,.1-.07,.17-.16,.22-.25,.05-.1,.09-.2,.12-.3,.03-.1,.05-.2,.05-.3h0c0-.1-.02-.19-.07-.26-.04-.07-.1-.12-.18-.16-.08-.04-.16-.06-.26-.06-.13,0-.25,.02-.38,.06-.12,.04-.23,.09-.33,.16s-.19,.15-.26,.24c-.08,.09-.13,.19-.16,.29-.02,.05-.03,.1-.03,.14,0,.04,.01,.08,.03,.11,.02,.07,.08,.1,.15,.1,.08,0,.15-.02,.22-.07,.06-.04,.1-.1,.12-.17,.01-.02,.02-.05,.02-.08,0-.06-.03-.12-.08-.18v-.03s0-.03,.03-.04h0s.03-.03,.05-.03c.02,0,.03,0,.03,.02,.04,.04,.07,.09,.09,.15,0,.03,0,.06,0,.09,0,.03,0,.07,0,.11-.04,.1-.1,.19-.2,.26-.1,.07-.21,.11-.33,.11-.07,0-.13-.01-.17-.04-.05-.03-.08-.06-.11-.11-.02-.04-.03-.1-.03-.15,0,0,0,0,0-.01,0-.05,0-.1,.03-.15,.03-.12,.09-.24,.19-.35,.09-.11,.19-.2,.32-.28,.12-.08,.25-.14,.39-.18,.14-.04,.29-.07,.43-.07,.15,0,.28,.02,.4,.07,.12,.05,.22,.11,.29,.2,.08,.09,.13,.18,.16,.29,0,.05,0,.09,0,.14,0,.07,0,.14-.03,.22Z"/>
        <path class="cls-2" d="M261.82,57.37s-.03,.09-.03,.14c0,.07,.03,.11,.08,.12,.06,.03,.18,.05,.35,.06,.16,0,.33,0,.5,0,.06,0,.09,.02,.09,.06,0,.01,0,.03-.01,.04l-.02,.08c-.03,.07-.07,.1-.13,.1-.43-.02-.87-.03-1.31-.03s-.88,0-1.32,.03c-.05,0-.08-.02-.08-.07v-.03l.02-.08c.02-.07,.06-.11,.14-.11,.16,0,.33,0,.5,0,.17,0,.3-.03,.38-.06,.09-.03,.15-.12,.19-.26l1.15-4.47c-.18,.12-.36,.22-.55,.29-.19,.07-.39,.11-.6,.1-.03,0-.05,0-.06-.02-.01-.01-.02-.03-.02-.04,0-.01,.01-.02,.01-.03l.02-.08c.02-.07,.07-.11,.14-.1,.33,0,.64-.11,.95-.33,.31-.22,.58-.48,.8-.8,.03-.04,.07-.06,.11-.06h.03s.05,0,.07,.03c0,.01,.01,.02,.01,.03,0,.01-.01,.02-.01,.03l-1.4,5.46Z"/>
        <path class="cls-2" d="M272.48,69.82s-.03,.09-.03,.14c0,.07,.02,.11,.07,.12,.07,.03,.19,.05,.35,.06,.17,0,.34,0,.51,0,.05,0,.09,.02,.09,.06,0,.01,0,.03-.01,.04l-.02,.08c-.03,.07-.07,.1-.14,.1-.42-.02-.86-.02-1.3-.03-.44,0-.88,0-1.32,.03-.05,0-.08-.02-.08-.07v-.03l.02-.08c.01-.07,.06-.11,.13-.11,.17,0,.34,0,.51,0,.17,0,.3-.03,.38-.06,.09-.03,.15-.12,.18-.26l1.16-4.47c-.18,.12-.36,.22-.55,.29-.19,.07-.39,.1-.6,.1-.03,0-.05,0-.06-.03-.01-.01-.02-.02-.02-.04,0-.01,.01-.02,.01-.03l.02-.08c.02-.07,.07-.11,.14-.1,.32,0,.64-.11,.95-.33,.31-.22,.57-.48,.8-.8,.03-.04,.06-.06,.1-.06h.04s.05,.01,.07,.03c0,.01,.01,.02,.01,.03,0,.01-.01,.02-.01,.03l-1.4,5.46Z"/>
        <path class="cls-2" d="M283.14,82.28s-.03,.09-.03,.14c0,.07,.02,.11,.07,.12,.07,.03,.19,.05,.35,.06,.17,0,.34,0,.5,0,.06,0,.09,.02,.1,.06,0,.01-.01,.03-.01,.04l-.02,.08c-.03,.07-.07,.1-.14,.1-.43-.02-.86-.03-1.31-.03s-.87,0-1.31,.03c-.06,0-.08-.02-.08-.07v-.03l.02-.08c.01-.07,.06-.11,.13-.11,.17,0,.34,0,.51,0,.17,0,.3-.03,.38-.06,.09-.03,.15-.12,.18-.26l1.15-4.47c-.17,.12-.35,.22-.54,.29-.19,.07-.39,.11-.6,.11-.03,0-.05,0-.06-.03-.01-.01-.02-.03-.02-.04,0-.01,0-.02,.01-.03l.02-.08c.02-.07,.07-.11,.13-.1,.33,0,.65-.11,.96-.33,.31-.22,.57-.48,.8-.8,.03-.04,.06-.06,.1-.06h.03s.06,0,.08,.03v.07l-1.4,5.46Z"/>
        <path class="cls-2" d="M293.8,94.73s-.03,.09-.03,.14c0,.07,.02,.11,.07,.12,.07,.03,.19,.05,.35,.06,.17,0,.33,0,.5,0,.06,0,.09,.02,.1,.06,0,.01-.01,.03-.01,.04l-.02,.08c-.03,.07-.08,.1-.14,.1-.43-.02-.86-.02-1.31-.03-.43,0-.87,0-1.31,.03-.06,0-.08-.02-.08-.07v-.11c.03-.07,.08-.11,.15-.11,.17,0,.34,0,.51,0,.17,0,.3-.03,.38-.06,.08-.03,.14-.12,.18-.26l1.15-4.47c-.17,.12-.35,.22-.54,.29-.2,.07-.39,.1-.6,.1-.03,0-.05,0-.06-.03-.02-.01-.02-.02-.02-.04,0-.01,0-.02,.01-.03l.02-.08c.02-.07,.07-.11,.13-.1,.33,0,.65-.11,.96-.33,.3-.22,.57-.48,.79-.8,.03-.04,.07-.06,.11-.06h.03s.06,0,.07,.03c.01,.01,.01,.02,.01,.03,0,.01,0,.02-.01,.03l-1.39,5.46Z"/>
        <polyline class="cls-6" points="258.37 51.54 255.48 51.54 255.48 96.54 258.37 96.54"/>
        <polyline class="cls-6" points="297.34 96.54 300.23 96.54 300.23 51.54 297.34 51.54"/>
        <path class="cls-2" d="M255.33,98.61c.34,.93,1.23,1.55,2.22,1.55h18.21c.88,0,1.67,.55,1.97,1.38h.25c.3-.83,1.09-1.38,1.97-1.38h18.21c.99,0,1.88-.62,2.22-1.55l-.06-.19c-.34,.74-1.08,1.21-1.89,1.21h-18.48c-.88,0-1.67,.55-1.97,1.38h-.25c-.3-.83-1.09-1.38-1.97-1.38h-18.48c-.81,0-1.55-.47-1.9-1.21"/>
        <path class="cls-2" d="M278.15,105.69c.3-.37,.55-.83,.75-1.4h-.73v-.3h.77v-.66c-.21,.02-.43,.03-.63,.04-.02-.09-.04-.2-.08-.31,.6-.03,1.17-.07,1.72-.14l.09,.32c-.25,.02-.5,.04-.74,.06v.69h.67v.3h-.67v.56l.19-.15c.18,.15,.38,.34,.6,.57l-.28,.2c-.18-.21-.35-.39-.51-.54v1.89h-.36v-1.82c-.17,.41-.38,.75-.62,1.04-.05-.12-.11-.24-.17-.36Zm1.86-1.02h1.26c.02-.2,.04-.47,.04-.79h-.69c-.07,.21-.14,.42-.22,.6-.11-.05-.23-.08-.36-.11,.21-.42,.37-.88,.48-1.38l.34,.07c-.04,.18-.09,.36-.14,.53h.59c.01-.26,.01-.55,.01-.86h.36c0,.31,0,.6,0,.86h1.11v.3h-1.11c-.01,.31-.02,.58-.03,.79h1.29v.3h-1.25c.21,.66,.64,1.16,1.28,1.48-.11,.11-.21,.21-.3,.32-.59-.37-.98-.88-1.18-1.51-.19,.64-.68,1.17-1.45,1.58-.07-.1-.16-.2-.26-.3,.79-.35,1.27-.87,1.45-1.58h-1.21v-.3Z"/>
        <path class="cls-2" d="M285.99,105.86s-.02,.05-.05,.06c-.09,.03-.18,.05-.27,.08-.09,.02-.18,.03-.27,.03h-.05s-.04,0-.06,0l-.23,.78c-.01,.06-.05,.1-.09,.13-.05,.03-.1,.04-.15,.04s-.09-.01-.12-.04c-.02-.02-.03-.04-.03-.07v-.06l.25-.87c-.12-.04-.24-.08-.36-.12-.12-.04-.25-.07-.39-.07-.1,0-.18,0-.26,0-.09,0-.16,.02-.22,.04-.03,.02-.06,.05-.1,.07-.03,.02-.07,.05-.11,.06-.01,.01-.02,.01-.03,.01s-.01,0-.01,0c-.01,0-.03,0-.03,0l-.05-.04s-.01-.02-.01-.03c0-.01,.01-.03,.04-.04,.03-.03,.07-.05,.11-.08,.04-.03,.08-.06,.12-.09,.27-.19,.51-.41,.72-.65,.21-.24,.39-.49,.55-.75,.16-.26,.29-.54,.41-.82,.11-.28,.21-.56,.29-.84,.01-.05,.04-.09,.09-.12,.05-.03,.09-.04,.14-.04,.05,0,.09,.01,.13,.04,.02,.02,.03,.05,.03,.08v.04c-.09,.28-.19,.55-.31,.82-.12,.27-.27,.53-.43,.79-.17,.26-.36,.5-.58,.74-.21,.24-.45,.46-.71,.66,.05,0,.09,0,.13,0h.13c.15,0,.28,.02,.4,.06,.12,.04,.25,.08,.37,.12l.26-.94c.02-.06,.05-.1,.1-.13,.04-.03,.09-.04,.14-.04,.05,0,.09,.01,.13,.03,.02,.02,.03,.05,.03,.08,0,.01,0,.03-.01,.05l-.29,1.02s.07,0,.1,0c.15,0,.3-.02,.45-.07,0,0,.02,0,.03,0,.01,0,.02,0,.03,.01l.04,.04h0v.03Z"/>
      </g>
    </g>
  </g>
</svg>