<?xml version="1.0" encoding="UTF-8"?>
<svg id="_图层_1" data-name="图层 1" xmlns="http://www.w3.org/2000/svg" xmlns:xlink="http://www.w3.org/1999/xlink" viewBox="0 0 215 125">
  <defs>
    <style>
      .cls-1 {
        clip-path: url(#clippath-2);
      }

      .cls-2 {
        font-family: MicrosoftYaHei, 'Microsoft YaHei';
        font-size: 12.61px;
      }

      .cls-3 {
        stroke-linecap: square;
        stroke-width: .49px;
      }

      .cls-3, .cls-4, .cls-5, .cls-6 {
        fill: none;
      }

      .cls-3, .cls-4, .cls-6 {
        stroke: #000;
      }

      .cls-4 {
        stroke-width: .02px;
      }

      .cls-7 {
        clip-path: url(#clippath-1);
      }

      .cls-8 {
        clip-path: url(#clippath);
      }

      .cls-9 {
        clip-path: url(#clippath-3);
      }

      .cls-6 {
        stroke-miterlimit: 10;
        stroke-width: .9px;
      }
    </style>
    <clipPath id="clippath">
      <rect class="cls-5" x="-31.96" y="-32.96" width="595.92" height="841.92"/>
    </clipPath>
    <clipPath id="clippath-1">
      <rect class="cls-5" x="-2.96" y="-3.96" width="223.45" height="145.06"/>
    </clipPath>
    <clipPath id="clippath-2">
      <rect class="cls-5" x="1.55" y="69.02" width="97.31" height="53.16"/>
    </clipPath>
    <clipPath id="clippath-3">
      <rect class="cls-5" x="-2.96" y="-3.96" width="223.45" height="145.06"/>
    </clipPath>
  </defs>
  <g class="cls-8">
    <g class="cls-7">
      <text class="cls-2" transform="translate(25.87 18.57)"><tspan x="0" y="0">输入三维</tspan></text>
    </g>
    <g class="cls-1">
      <polygon points="6.07 120.47 6.07 70.16 11.25 70.16 11.25 71.38 7.3 71.38 7.3 119.25 11.25 119.25 11.25 120.47 6.07 120.47"/>
      <polygon class="cls-4" points="6.07 120.47 6.07 70.16 11.25 70.16 11.25 71.38 7.3 71.38 7.3 119.25 11.25 119.25 11.25 120.47 6.07 120.47"/>
      <path d="M22.76,80.84c-.3,0-.54-.1-.71-.29s-.26-.44-.27-.74c0-.62,.27-1.16,.81-1.64,.54-.48,1.19-.72,1.95-.72,.39,0,.64,0,.74,.02,.83,.13,1.46,.43,1.9,.89,.44,.46,.66,.96,.67,1.49,0,.58-.19,1.15-.57,1.69-.38,.55-.91,.95-1.58,1.19l-.05,.03s.05,.03,.15,.05c.1,.02,.26,.07,.49,.15s.44,.2,.64,.35c.92,.59,1.38,1.38,1.38,2.35,0,.88-.35,1.66-1.04,2.32s-1.57,.99-2.64,.99c-.9,0-1.67-.24-2.32-.72-.65-.48-.98-1.09-.98-1.83,0-.31,.1-.56,.3-.76,.2-.19,.45-.29,.76-.3,.31,0,.57,.1,.77,.3s.3,.45,.3,.76c0,.12-.02,.23-.05,.34-.03,.1-.07,.19-.12,.27s-.11,.15-.18,.2c-.08,.06-.15,.1-.2,.13-.06,.03-.11,.06-.17,.07-.06,.01-.1,.03-.13,.05l-.07,.02c.57,.5,1.27,.76,2.08,.76,.62,0,1.08-.3,1.4-.89,.19-.37,.29-.93,.29-1.69v-.34c0-1.06-.36-1.77-1.08-2.13-.17-.07-.51-.11-1.03-.12l-.71-.02-.05-.03s-.03-.12-.03-.27c0-.2,.04-.3,.13-.3,.31,0,.64-.03,.98-.08,.38-.06,.73-.29,1.04-.7s.47-1.04,.47-1.88v-.13c0-.64-.2-1.08-.59-1.33-.25-.16-.51-.23-.79-.23-.36,0-.69,.06-.99,.18-.3,.12-.52,.25-.64,.39-.12,.13-.18,.2-.18,.2h.05s.08,.02,.13,.03c.06,.01,.11,.04,.17,.08,.06,.04,.12,.08,.2,.12,.08,.03,.13,.1,.17,.18,.03,.09,.08,.17,.13,.25s.07,.19,.05,.34c0,.25-.08,.46-.24,.65s-.41,.29-.76,.3Z"/>
      <path class="cls-4" d="M22.76,80.84c-.3,0-.54-.1-.71-.29-.17-.19-.26-.44-.27-.74,0-.62,.27-1.16,.81-1.64,.54-.48,1.19-.72,1.95-.72,.39,0,.64,0,.74,.02,.83,.13,1.46,.43,1.9,.89,.44,.46,.66,.96,.67,1.49,0,.58-.19,1.15-.57,1.69-.38,.55-.91,.95-1.58,1.19l-.05,.03s.05,.03,.15,.05c.1,.02,.26,.07,.49,.15,.22,.08,.44,.2,.64,.35,.92,.59,1.38,1.38,1.38,2.35,0,.88-.35,1.66-1.04,2.32-.69,.66-1.57,.99-2.64,.99-.9,0-1.67-.24-2.32-.72-.65-.48-.98-1.09-.98-1.83,0-.31,.1-.56,.3-.76,.2-.19,.45-.29,.76-.3,.31,0,.57,.1,.77,.3,.2,.2,.3,.45,.3,.76,0,.12-.02,.23-.05,.34-.03,.1-.07,.19-.12,.27-.04,.08-.11,.15-.18,.2-.08,.06-.15,.1-.2,.13-.06,.03-.11,.06-.17,.07s-.1,.03-.13,.05l-.07,.02c.57,.5,1.27,.76,2.08,.76,.62,0,1.08-.3,1.4-.89,.19-.37,.29-.93,.29-1.69v-.34c0-1.06-.36-1.77-1.08-2.13-.17-.07-.51-.11-1.03-.12l-.71-.02-.05-.03s-.03-.12-.03-.27c0-.2,.04-.3,.13-.3,.31,0,.64-.03,.98-.08,.38-.06,.73-.29,1.04-.7s.47-1.04,.47-1.88v-.13c0-.64-.2-1.08-.59-1.33-.25-.16-.51-.23-.79-.23-.36,0-.69,.06-.99,.18-.3,.12-.52,.25-.64,.39-.12,.13-.18,.2-.18,.2h.05s.08,.02,.13,.03,.11,.04,.17,.08,.12,.08,.2,.12c.08,.03,.13,.1,.17,.18,.03,.09,.08,.17,.13,.25s.07,.19,.05,.34c0,.25-.08,.46-.24,.65-.16,.19-.41,.29-.76,.3Z"/>
      <path d="M24.21,102.4l-.22,.08c-.16,.06-.38,.11-.67,.17-.29,.06-.62,.1-.98,.12h-.32v-.77h.32c.53-.02,1.01-.11,1.46-.25,.45-.15,.76-.28,.94-.4,.18-.12,.34-.25,.47-.37,.02-.03,.09-.05,.2-.05,.1,0,.2,.03,.29,.1v5.02l.02,5.03c.08,.08,.15,.13,.2,.15,.06,.02,.19,.04,.4,.07,.21,.02,.56,.03,1.04,.03h.44v.77h-.18c-.24-.03-1.13-.05-2.67-.05s-2.4,.02-2.64,.05h-.2v-.77h1.08c.18,0,.32,0,.42-.02,.1-.01,.19-.03,.27-.05,.08-.02,.12-.03,.13-.03s.04-.03,.1-.08c.06-.06,.09-.08,.1-.07v-8.67Z"/>
      <path class="cls-4" d="M24.21,102.4l-.22,.08c-.16,.06-.38,.11-.67,.17-.29,.06-.62,.1-.98,.12h-.32v-.77h.32c.53-.02,1.01-.11,1.46-.25,.45-.15,.76-.28,.94-.4s.34-.25,.47-.37c.02-.03,.09-.05,.2-.05,.1,0,.2,.03,.29,.1v5.02l.02,5.03c.08,.08,.15,.13,.2,.15,.06,.02,.19,.04,.4,.07,.21,.02,.56,.03,1.04,.03h.44v.77h-.18c-.24-.03-1.13-.05-2.67-.05s-2.4,.02-2.64,.05h-.2v-.77h1.08c.18,0,.32,0,.42-.02s.19-.03,.27-.05c.08-.02,.12-.03,.13-.03s.04-.03,.1-.08c.06-.06,.09-.08,.1-.07v-8.67Z"/>
      <line class="cls-3" x1="37.69" y1="118.85" x2="37.69" y2="71.83"/>
      <path d="M49.44,78.91l-.22,.08c-.16,.06-.38,.11-.67,.17-.29,.06-.62,.1-.98,.12h-.32v-.77h.32c.53-.02,1.01-.11,1.46-.25,.45-.15,.76-.28,.94-.4s.34-.25,.47-.37c.02-.03,.09-.05,.2-.05,.1,0,.2,.03,.29,.1v5.02l.02,5.03c.08,.08,.15,.13,.2,.15,.06,.02,.19,.04,.4,.07,.21,.02,.56,.03,1.04,.03h.44v.77h-.18c-.24-.03-1.13-.05-2.67-.05s-2.4,.02-2.64,.05h-.2v-.77h1.08c.18,0,.32,0,.42-.02s.19-.03,.27-.05c.08-.02,.12-.03,.13-.03s.04-.03,.1-.08c.06-.06,.09-.08,.1-.07v-8.67Z"/>
      <path class="cls-4" d="M49.44,78.91l-.22,.08c-.16,.06-.38,.11-.67,.17-.29,.06-.62,.1-.98,.12h-.32v-.77h.32c.53-.02,1.01-.11,1.46-.25,.45-.15,.76-.28,.94-.4,.18-.12,.34-.25,.47-.37,.02-.03,.09-.05,.2-.05,.1,0,.2,.03,.29,.1v5.02l.02,5.03c.08,.08,.15,.13,.2,.15,.06,.02,.19,.04,.4,.07,.21,.02,.56,.03,1.04,.03h.44v.77h-.18c-.24-.03-1.13-.05-2.67-.05s-2.4,.02-2.64,.05h-.2v-.77h1.08c.18,0,.32,0,.42-.02s.19-.03,.27-.05c.08-.02,.12-.03,.13-.03s.04-.03,.1-.08c.06-.06,.09-.08,.1-.07v-8.67Z"/>
      <path d="M48.62,109.47c0,.27-.09,.49-.27,.67-.18,.18-.4,.27-.66,.27h-.12c.52,.88,1.2,1.33,2.05,1.33,.78,0,1.36-.34,1.71-1.01,.21-.37,.32-1.09,.32-2.15,0-1.15-.15-1.93-.45-2.33-.29-.37-.62-.55-.98-.55h-.1c-.87,0-1.54,.38-1.98,1.14-.04,.08-.08,.12-.12,.13-.03,.01-.12,.02-.25,.03-.19,0-.3-.03-.32-.1-.02-.04-.03-1.02-.03-2.94v-2.16c0-.56,.03-.84,.08-.84,.02-.02,.04-.03,.07-.03,.01,0,.13,.04,.35,.13,.22,.09,.53,.18,.92,.27,.39,.09,.81,.13,1.26,.13,.8,0,1.56-.16,2.29-.47,.09-.04,.16-.07,.22-.07,.09,0,.13,.1,.13,.3v.22c-.92,1.09-2.07,1.63-3.45,1.63-.35,0-.66-.03-.94-.1l-.17-.03v2.89c.21-.16,.38-.28,.5-.37s.33-.18,.61-.27c.28-.09,.57-.13,.86-.13,.91,0,1.68,.36,2.3,1.09,.63,.73,.94,1.59,.94,2.58s-.36,1.91-1.08,2.63-1.59,1.1-2.62,1.11c-.91,0-1.64-.3-2.19-.91-.55-.6-.82-1.29-.82-2.05,0-.27,.06-.48,.18-.64s.25-.26,.39-.3c.13-.04,.26-.07,.39-.07,.28,0,.51,.1,.69,.29,.18,.19,.27,.41,.27,.67Z"/>
      <path class="cls-4" d="M48.62,109.47c0,.27-.09,.49-.27,.67s-.4,.27-.66,.27h-.12c.52,.88,1.2,1.33,2.05,1.33,.78,0,1.36-.34,1.71-1.01,.21-.37,.32-1.08,.32-2.15,0-1.15-.15-1.93-.45-2.33-.29-.37-.62-.55-.98-.55h-.1c-.87,0-1.54,.38-1.98,1.14-.04,.08-.08,.12-.12,.13s-.12,.02-.25,.03c-.19,0-.3-.03-.32-.1-.02-.04-.03-1.02-.03-2.94v-2.16c0-.56,.03-.84,.08-.84,.02-.02,.04-.03,.07-.03,.01,0,.13,.04,.35,.13,.22,.09,.53,.18,.92,.27,.39,.09,.81,.13,1.26,.13,.8,0,1.56-.16,2.29-.47,.09-.04,.16-.07,.22-.07,.09,0,.13,.1,.13,.3v.22c-.92,1.08-2.07,1.63-3.45,1.63-.35,0-.66-.03-.94-.1l-.17-.03v2.89c.21-.16,.38-.28,.5-.37s.33-.18,.61-.27,.57-.13,.86-.13c.91,0,1.68,.36,2.3,1.09,.63,.73,.94,1.59,.94,2.58s-.36,1.91-1.08,2.63c-.72,.73-1.59,1.1-2.62,1.11-.91,0-1.64-.3-2.19-.91-.55-.6-.82-1.29-.82-2.05,0-.27,.06-.48,.18-.64,.12-.16,.25-.26,.39-.3s.26-.07,.39-.07c.28,0,.51,.1,.69,.29,.18,.19,.27,.41,.27,.67Z"/>
      <line class="cls-3" x1="62.91" y1="118.85" x2="62.91" y2="71.83"/>
      <path d="M76,85.07v-5.6l-3.68,5.59,1.83,.02h1.85Zm2.84,3.54c-.2-.03-.92-.05-2.17-.05s-2.05,.02-2.25,.05h-.15v-.77h.98c.08,0,.17-.01,.29-.03,.11-.02,.19-.05,.24-.08,.04-.03,.08-.08,.12-.13,.01-.02,.02-.32,.02-.91v-.84h-4.35v-.77l2.54-3.88c1.71-2.6,2.58-3.9,2.61-3.91,.02-.02,.14-.03,.35-.03h.3l.1,.1v7.72h1.55v.77h-1.55v1.66c0,.08,.03,.15,.1,.2,.09,.08,.41,.12,.96,.13h.49v.77h-.15Z"/>
      <path class="cls-4" d="M76,85.07v-5.6l-3.68,5.59,1.83,.02h1.85Zm2.84,3.54c-.2-.03-.92-.05-2.17-.05s-2.05,.02-2.25,.05h-.15v-.77h.98c.08,0,.17-.01,.29-.03,.11-.02,.19-.05,.24-.08,.04-.03,.08-.08,.12-.13,.01-.02,.02-.32,.02-.91v-.84h-4.35v-.77l2.54-3.88c1.71-2.6,2.58-3.9,2.61-3.91,.02-.02,.14-.03,.35-.03h.3l.1,.1v7.72h1.55v.77h-1.55v1.66c0,.08,.03,.15,.1,.2,.09,.08,.41,.12,.96,.13h.49v.77h-.15Z"/>
      <path d="M75.18,107.94c.54,0,.97-.27,1.29-.82s.49-1.29,.5-2.23c0-.87-.04-1.5-.13-1.88-.02-.11-.06-.22-.1-.34-.04-.11-.12-.26-.24-.44s-.28-.33-.5-.45c-.22-.12-.49-.18-.79-.17-.43,0-.79,.15-1.09,.45-.24,.25-.39,.54-.45,.87s-.11,.92-.12,1.76c0,.93,.03,1.55,.08,1.88s.17,.59,.34,.79c.28,.38,.68,.57,1.21,.57Zm1.82-.65c-.54,.85-1.21,1.28-2.02,1.28-.87,0-1.59-.33-2.15-.99-.56-.66-.9-1.36-1.01-2.11-.02-.18-.03-.4-.03-.67v-.13c0-1.04,.39-1.95,1.16-2.72,.67-.67,1.41-1.01,2.22-1.01h.1s.09,0,.13,.02h.07c.13,0,.27,.01,.42,.03,.15,.02,.35,.09,.62,.2,.27,.11,.53,.29,.79,.54,.26,.25,.5,.58,.72,.99,.48,.98,.72,2.25,.72,3.79s-.34,2.89-1.01,3.98c-.39,.63-.86,1.11-1.41,1.46-.55,.35-1.13,.53-1.75,.54-.68,0-1.24-.16-1.68-.49-.44-.32-.66-.81-.67-1.44-.01-.64,.29-.95,.89-.94,.25,0,.45,.08,.62,.23,.17,.16,.25,.37,.25,.65,0,.2-.05,.37-.15,.52-.1,.15-.19,.23-.27,.27-.08,.03-.15,.06-.22,.08l-.07,.02s.04,.06,.12,.1,.22,.1,.44,.17c.21,.07,.45,.1,.71,.08h.1c.67,0,1.24-.36,1.7-1.07,.44-.63,.66-1.71,.66-3.26v-.12Z"/>
      <path class="cls-4" d="M75.18,107.94c.54,0,.97-.27,1.29-.82s.49-1.29,.5-2.23c0-.87-.04-1.5-.13-1.88-.02-.11-.06-.22-.1-.34-.04-.11-.12-.26-.24-.44s-.28-.33-.5-.45c-.22-.12-.49-.18-.79-.17-.43,0-.79,.15-1.09,.45-.24,.25-.39,.54-.45,.87-.07,.34-.11,.92-.12,1.76,0,.93,.03,1.55,.08,1.88,.06,.32,.17,.59,.34,.79,.28,.38,.68,.57,1.21,.57Zm1.82-.65c-.54,.85-1.21,1.28-2.02,1.28-.87,0-1.59-.33-2.15-.99-.56-.66-.9-1.36-1.01-2.11-.02-.18-.03-.4-.03-.67v-.13c0-1.04,.39-1.95,1.16-2.72,.67-.67,1.41-1.01,2.22-1.01h.1s.09,0,.13,.02h.07c.13,0,.27,.01,.42,.03,.15,.02,.35,.09,.62,.2,.27,.11,.53,.29,.79,.54s.5,.58,.72,.99c.48,.98,.72,2.25,.72,3.79s-.34,2.89-1.01,3.98c-.39,.63-.86,1.11-1.41,1.46-.55,.35-1.13,.53-1.75,.54-.68,0-1.24-.16-1.68-.49-.44-.32-.66-.81-.67-1.44-.01-.64,.29-.95,.89-.94,.25,0,.45,.08,.62,.23,.17,.16,.25,.37,.25,.65,0,.2-.05,.37-.15,.52-.1,.15-.19,.23-.27,.27s-.15,.06-.22,.08l-.07,.02s.04,.06,.12,.1,.22,.1,.44,.17c.21,.07,.45,.1,.71,.08h.1c.67,0,1.24-.36,1.7-1.07,.44-.63,.66-1.71,.66-3.26v-.12Z"/>
      <polygon points="89.12 71.4 89.12 70.17 94.3 70.17 94.3 120.49 89.12 120.49 89.12 119.27 93.07 119.27 93.07 71.4 89.12 71.4"/>
      <polygon class="cls-4" points="89.12 71.4 89.12 70.17 94.3 70.17 94.3 120.49 89.12 120.49 89.12 119.27 93.07 119.27 93.07 71.4 89.12 71.4"/>
    </g>
    <g class="cls-9">
      <line class="cls-6" x1="51.55" y1="32.53" x2="51.55" y2="53.82"/>
      <polygon points="51.55 58.55 48.4 52.24 51.55 53.82 54.7 52.24 51.55 58.55"/>
      <polygon class="cls-6" points="51.55 58.55 48.4 52.24 51.55 53.82 54.7 52.24 51.55 58.55"/>
      <line class="cls-6" x1="114.62" y1="99.66" x2="144.92" y2="99.66"/>
      <polygon points="149.65 99.66 143.34 102.81 144.92 99.66 143.34 96.5 149.65 99.66"/>
      <polygon class="cls-6" points="149.65 99.66 143.34 102.81 144.92 99.66 143.34 96.5 149.65 99.66"/>
      <text class="cls-2" transform="translate(158.32 104.16)"><tspan x="0" y="0">输出二维</tspan></text>
    </g>
  </g>
</svg>