<?xml version="1.0" encoding="UTF-8"?>
<svg id="_图层_1" data-name="图层 1" xmlns="http://www.w3.org/2000/svg" xmlns:xlink="http://www.w3.org/1999/xlink" viewBox="0 0 127.67 129.22">
  <defs>
    <style>
      .cls-1 {
        fill: #7b9fd3;
      }

      .cls-2 {
        stroke-width: .01px;
      }

      .cls-2, .cls-3, .cls-4, .cls-5, .cls-6, .cls-7, .cls-8, .cls-9, .cls-10 {
        fill: none;
      }

      .cls-2, .cls-6 {
        stroke: #bf1a20;
      }

      .cls-11 {
        fill: #bf1a20;
      }

      .cls-12 {
        clip-path: url(#clippath-2);
      }

      .cls-3 {
        stroke-linecap: square;
      }

      .cls-3, .cls-4, .cls-8, .cls-9 {
        stroke-miterlimit: 10;
        stroke-width: .9px;
      }

      .cls-3, .cls-5, .cls-9 {
        stroke: #000;
      }

      .cls-13 {
        fill: #b1524e;
      }

      .cls-14 {
        fill: #6988b6;
      }

      .cls-15 {
        clip-path: url(#clippath-1);
      }

      .cls-16 {
        clip-path: url(#clippath-4);
      }

      .cls-4 {
        stroke: #6988b6;
      }

      .cls-5 {
        stroke-width: .01px;
      }

      .cls-6 {
        stroke-width: 0px;
      }

      .cls-17 {
        clip-path: url(#clippath);
      }

      .cls-18 {
        font-family: ArialUnicodeMS, 'Arial Unicode MS';
        font-size: 11.37px;
      }

      .cls-19 {
        clip-path: url(#clippath-3);
      }

      .cls-20 {
        clip-path: url(#clippath-5);
      }

      .cls-8 {
        stroke: #b1524e;
      }

      .cls-10 {
        stroke: #7b9fd3;
        stroke-width: .01px;
      }
    </style>
    <clipPath id="clippath">
      <rect class="cls-7" x="-26.96" y="-18.4" width="595.92" height="841.92"/>
    </clipPath>
    <clipPath id="clippath-1">
      <rect class="cls-7" x="2.04" y="10.6" width="133.35" height="117.13"/>
    </clipPath>
    <clipPath id="clippath-2">
      <rect class="cls-7" x="61.51" y="60.15" width="9.91" height="11.71"/>
    </clipPath>
    <clipPath id="clippath-3">
      <rect class="cls-7" x="22.76" y="94.39" width="22.53" height="14.42"/>
    </clipPath>
    <clipPath id="clippath-4">
      <rect class="cls-7" x="48.89" y="21.41" width="17.12" height="17.12"/>
    </clipPath>
    <clipPath id="clippath-5">
      <rect class="cls-7" x="85.83" y="78.17" width="17.12" height="17.12"/>
    </clipPath>
  </defs>
  <g class="cls-17">
    <g class="cls-15">
      <path class="cls-3" d="M120.52,120.07H12.4m0,0V11.95"/>
      <line class="cls-9" x1="12.4" y1="120.07" x2="50.36" y2="45"/>
      <polygon points="52.5 40.78 52.46 47.82 50.36 45 46.83 44.99 52.5 40.78"/>
      <polygon class="cls-9" points="52.5 40.78 52.46 47.82 50.36 45 46.83 44.99 52.5 40.78"/>
      <line class="cls-9" x1="12.4" y1="120.07" x2="79.17" y2="92.52"/>
      <polygon points="83.55 90.72 78.92 96.04 79.17 92.52 76.52 90.21 83.55 90.72"/>
      <polygon class="cls-9" points="83.55 90.72 78.92 96.04 79.17 92.52 76.52 90.21 83.55 90.72"/>
      <line class="cls-8" x1="51.14" y1="102.05" x2="37.18" y2="88.08"/>
      <polygon class="cls-13" points="33.84 84.74 40.53 86.97 37.18 88.08 36.07 91.43 33.84 84.74"/>
      <polygon class="cls-8" points="33.84 84.74 40.53 86.97 37.18 88.08 36.07 91.43 33.84 84.74"/>
      <line class="cls-4" x1="50.24" y1="66.01" x2="64.21" y2="79.97"/>
      <polygon class="cls-14" points="67.55 83.32 60.86 81.08 64.21 79.97 65.32 76.62 67.55 83.32"/>
      <polygon class="cls-4" points="67.55 83.32 60.86 81.08 64.21 79.97 65.32 76.62 67.55 83.32"/>
    </g>
    <g class="cls-12">
      <path class="cls-1" d="M68.32,66.79c0-.09-.05-.74-.16-1.95s-.17-1.82-.18-1.83l-.36,.54c-.14,.23-.42,.67-.83,1.34l-1.19,1.9h1.36c.91,.01,1.36,0,1.36,0Zm-4.07,2.33c0,.2,.2,.32,.61,.35,.16,0,.24,.05,.24,.14,0,0,0,.06-.03,.16-.03,.12-.05,.19-.08,.23-.03,.03-.08,.05-.17,.05h-.16c-.09,0-.24,0-.45-.01-.21,0-.49-.01-.85-.01-.62,0-1.03,0-1.2,.03h-.11c-.06-.06-.09-.1-.09-.14,.02-.23,.07-.37,.17-.44h.18c.62-.03,1.07-.23,1.35-.63,.05-.05,.85-1.32,2.39-3.81,1.54-2.49,2.32-3.75,2.35-3.79,.06-.1,.17-.15,.32-.15h.33c.05,.08,.08,.12,.08,.12l.37,4.04c.25,2.69,.38,4.05,.4,4.08,.04,.09,.33,.14,.86,.14,.22,0,.33,.04,.33,.12,0,.02-.01,.08-.04,.18-.03,.12-.05,.2-.07,.23-.02,.02-.08,.04-.18,.05h-.18c-.1,0-.27,0-.51-.01-.25,0-.57-.01-.96-.01-.83,0-1.37,0-1.62,.03h-.16c-.05-.05-.08-.09-.08-.11s0-.1,.03-.22c.04-.11,.06-.18,.08-.2l.05-.04h.26c.48-.03,.76-.1,.85-.21l-.16-1.88h-3.14l-.45,.73c-.36,.58-.54,.91-.54,1.01Z"/>
      <path class="cls-10" d="M68.32,66.79c0-.09-.05-.74-.16-1.95-.11-1.21-.17-1.82-.18-1.83l-.36,.54c-.14,.22-.42,.67-.83,1.34l-1.19,1.9h1.36c.91,.01,1.36,0,1.36,0Zm-4.07,2.33c0,.2,.2,.32,.61,.35,.16,0,.24,.05,.24,.14,0,0,0,.06-.03,.16-.03,.12-.05,.19-.08,.23-.03,.03-.08,.05-.17,.05h-.16c-.09,0-.24,0-.45-.01-.21,0-.49-.01-.85-.01-.62,0-1.03,0-1.2,.03h-.11c-.06-.06-.09-.1-.09-.14,.02-.23,.07-.37,.17-.44h.18c.62-.03,1.07-.23,1.35-.63,.05-.05,.85-1.32,2.39-3.81,1.54-2.49,2.32-3.75,2.35-3.79,.06-.1,.17-.15,.32-.15h.33c.05,.08,.08,.12,.08,.12l.37,4.04c.25,2.69,.38,4.05,.4,4.08,.04,.09,.33,.14,.86,.14,.22,0,.33,.04,.33,.12,0,.02-.01,.08-.04,.18-.03,.12-.05,.2-.07,.23-.02,.02-.08,.04-.18,.05h-.18c-.1,0-.27,0-.51-.01-.25,0-.57-.01-.96-.01-.83,0-1.37,0-1.62,.03h-.16c-.05-.05-.08-.09-.08-.11s0-.1,.03-.23c.04-.11,.06-.18,.08-.2l.05-.04h.26c.48-.03,.76-.1,.85-.21l-.16-1.88h-3.14l-.45,.73c-.36,.58-.54,.91-.54,1.01Z"/>
    </g>
    <g class="cls-19">
      <path class="cls-11" d="M29.39,103.73c0-.09-.05-.74-.15-1.95-.1-1.21-.16-1.82-.18-1.83l-.35,.54c-.14,.23-.41,.67-.81,1.34l-1.15,1.9h1.32c.88,.01,1.32,0,1.32,0Zm-3.95,2.33c0,.2,.2,.32,.59,.35,.15,0,.23,.05,.23,.14,0,0,0,.06-.03,.16-.03,.12-.05,.19-.08,.23s-.08,.05-.17,.05h-.15c-.09,0-.23,0-.44-.01s-.48-.01-.82-.01c-.61,0-1,0-1.17,.03h-.1c-.06-.06-.09-.1-.09-.14,.02-.23,.07-.37,.17-.44h.18c.6-.03,1.03-.23,1.31-.63,.05-.05,.83-1.32,2.32-3.82,1.5-2.49,2.26-3.76,2.28-3.79,.06-.1,.16-.15,.31-.15h.32c.05,.08,.08,.12,.08,.13l.36,4.04c.24,2.69,.37,4.05,.38,4.08,.04,.09,.32,.14,.83,.14,.21,0,.32,.04,.32,.13,0,.02-.01,.08-.04,.18-.03,.13-.05,.2-.06,.23-.02,.03-.08,.04-.18,.05h-.18c-.09,0-.26,0-.5-.01-.24,0-.55-.01-.94-.01-.8,0-1.33,0-1.58,.03h-.15c-.05-.05-.08-.09-.08-.11s0-.1,.03-.23c.03-.11,.06-.18,.08-.2l.05-.04h.26c.46-.03,.74-.1,.82-.21l-.15-1.88h-3.05l-.44,.73c-.35,.58-.53,.91-.53,1.01Z"/>
      <path class="cls-2" d="M29.39,103.73c0-.09-.05-.74-.15-1.95-.1-1.21-.16-1.82-.18-1.83l-.35,.54c-.14,.23-.41,.67-.81,1.34l-1.15,1.9h1.32c.88,.01,1.32,0,1.32,0Zm-3.95,2.33c0,.2,.2,.32,.59,.35,.15,0,.23,.05,.23,.14,0,0,0,.06-.03,.16-.03,.12-.05,.19-.08,.23s-.08,.05-.17,.05h-.15c-.09,0-.23,0-.44-.01s-.48-.01-.82-.01c-.61,0-1,0-1.17,.03h-.1c-.06-.06-.09-.1-.09-.14,.02-.23,.07-.37,.17-.44h.18c.6-.03,1.03-.23,1.31-.63,.05-.05,.83-1.32,2.32-3.82,1.5-2.49,2.26-3.76,2.28-3.79,.06-.1,.16-.15,.31-.15h.32c.05,.08,.08,.12,.08,.13l.36,4.04c.24,2.69,.37,4.05,.38,4.08,.04,.09,.32,.14,.83,.14,.21,0,.32,.04,.32,.13,0,.02-.01,.08-.04,.18-.03,.13-.05,.2-.06,.23-.02,.03-.08,.04-.18,.05h-.18c-.09,0-.26,0-.5-.01-.24,0-.55-.01-.94-.01-.8,0-1.33,0-1.58,.03h-.15c-.05-.05-.08-.09-.08-.11s0-.1,.03-.23c.03-.11,.06-.18,.08-.2l.05-.04h.26c.46-.03,.74-.1,.82-.21l-.15-1.88h-3.05l-.44,.73c-.35,.58-.53,.91-.53,1.01Z"/>
      <path class="cls-11" d="M33.15,99.73v-.11c0-.08,.04-.14,.13-.18h5.27c.09,.05,.14,.11,.14,.18s-.05,.13-.14,.18h-5.27c-.08-.04-.13-.1-.13-.18v.11Z"/>
      <path class="cls-6" d="M33.15,99.73v-.12c0-.08,.04-.14,.13-.18h5.27c.09,.05,.14,.11,.14,.18s-.05,.13-.14,.18h-5.27c-.08-.04-.13-.1-.13-.18v.12Z"/>
      <path class="cls-11" d="M41.38,96.72l-.12,.04c-.08,.03-.21,.06-.36,.09-.16,.03-.33,.05-.53,.06h-.17v-.41h.17c.28-.01,.55-.06,.79-.13s.41-.15,.51-.21c.1-.06,.18-.13,.25-.19,.01-.02,.05-.03,.11-.03,.05,0,.11,.02,.15,.05v5.3c.05,.04,.09,.07,.12,.08,.03,.01,.1,.02,.22,.04,.11,.01,.3,.02,.56,.02h.24v.41h-.1c-.13-.02-.61-.03-1.44-.03s-1.3,0-1.42,.03h-.11v-.41h.58c.1,0,.17,0,.23,0,.05,0,.1-.01,.15-.03,.04-.01,.07-.02,.07-.02s.02-.01,.05-.04,.05-.04,.05-.04v-4.57Z"/>
      <path class="cls-6" d="M41.38,96.72l-.12,.04c-.08,.03-.21,.06-.36,.09-.16,.03-.33,.05-.53,.06h-.17v-.41h.17c.28-.01,.55-.06,.79-.13,.24-.08,.41-.15,.51-.21,.1-.06,.18-.13,.25-.19,.01-.02,.05-.03,.11-.03,.05,0,.11,.02,.15,.05v5.3c.05,.04,.09,.07,.12,.08,.03,.01,.1,.02,.22,.04s.3,.02,.56,.02h.24v.41h-.1c-.13-.02-.61-.03-1.44-.03s-1.3,0-1.42,.03h-.11v-.41h.58c.1,0,.17,0,.23,0,.05,0,.1-.01,.15-.03,.04-.01,.07-.02,.07-.02s.02-.01,.05-.04c.03-.03,.05-.04,.05-.04v-4.57Z"/>
    </g>
    <g class="cls-16">
      <text class="cls-18" transform="translate(48.89 34.71) scale(.9 1)"><tspan x="0" y="0">原</tspan></text>
      <path d="M59.79,30.89c.06-.37,.27-.8,.64-1.28,.37-.48,.84-.73,1.39-.74,.28,0,.53,.08,.76,.24s.4,.36,.51,.59c.33-.55,.74-.83,1.21-.83,.29,0,.55,.1,.76,.29,.21,.19,.33,.45,.33,.78,0,.26-.06,.46-.17,.62-.11,.16-.22,.26-.32,.29s-.2,.05-.27,.05c-.15,0-.27-.05-.37-.15-.1-.1-.14-.22-.14-.38,0-.41,.2-.68,.6-.83-.09-.11-.25-.17-.48-.17-.1,0-.18,0-.23,.03-.3,.14-.53,.43-.67,.87-.48,1.95-.72,3.08-.72,3.41,0,.25,.06,.42,.19,.53s.27,.16,.42,.16c.29,0,.59-.15,.87-.44,.29-.29,.48-.65,.59-1.07,.02-.09,.05-.14,.07-.15s.09-.02,.19-.03h.05c.12,0,.18,.04,.18,.11,0,0,0,.06-.02,.15-.13,.5-.37,.95-.74,1.33-.37,.39-.79,.58-1.28,.58-.56,0-.98-.28-1.27-.83-.33,.55-.7,.82-1.12,.82h-.07c-.39,0-.67-.11-.84-.34-.17-.23-.25-.47-.26-.73,0-.28,.08-.51,.23-.69,.15-.18,.33-.26,.54-.26,.34,0,.51,.18,.51,.55,0,.18-.05,.33-.14,.46-.1,.13-.19,.22-.27,.26-.09,.04-.14,.07-.16,.07h-.04s.02,.04,.07,.07,.11,.06,.19,.09c.08,.04,.16,.05,.23,.04,.29,0,.53-.2,.74-.59,.07-.14,.16-.44,.27-.9,.11-.46,.22-.93,.33-1.43,.11-.49,.18-.78,.19-.87,.04-.24,.06-.41,.06-.52,0-.25-.06-.42-.18-.53s-.25-.16-.41-.16c-.32,0-.62,.14-.9,.42-.28,.28-.47,.64-.59,1.08-.02,.08-.04,.12-.06,.13-.02,0-.09,.02-.19,.03h-.17c-.05-.05-.07-.1-.07-.15Z"/>
      <path class="cls-5" d="M59.79,30.89c.06-.37,.27-.8,.64-1.28,.37-.48,.84-.73,1.39-.74,.28,0,.53,.08,.76,.24,.23,.16,.4,.36,.51,.59,.33-.55,.74-.83,1.21-.83,.29,0,.55,.1,.76,.29,.21,.19,.33,.45,.33,.78,0,.26-.06,.46-.17,.62-.11,.16-.22,.26-.32,.29s-.2,.05-.27,.05c-.15,0-.27-.05-.37-.15-.1-.1-.14-.22-.14-.38,0-.41,.2-.68,.6-.83-.09-.11-.25-.17-.48-.17-.1,0-.18,0-.23,.03-.3,.14-.53,.43-.67,.87-.48,1.95-.72,3.08-.72,3.41,0,.25,.06,.42,.19,.53,.13,.11,.27,.16,.42,.16,.29,0,.59-.15,.87-.44,.29-.29,.48-.65,.59-1.07,.02-.09,.05-.14,.07-.15,.02,0,.09-.02,.19-.03h.05c.12,0,.18,.04,.18,.11,0,0,0,.06-.02,.15-.13,.5-.37,.95-.74,1.33-.37,.39-.79,.58-1.28,.58-.56,0-.98-.28-1.27-.83-.33,.55-.7,.82-1.12,.82h-.07c-.39,0-.67-.11-.84-.34-.17-.23-.25-.47-.26-.73,0-.28,.08-.51,.23-.69,.15-.18,.33-.26,.54-.26,.34,0,.51,.18,.51,.55,0,.18-.05,.33-.14,.46-.1,.13-.19,.22-.27,.26-.09,.04-.14,.07-.16,.07h-.04s.02,.04,.07,.07c.05,.03,.11,.06,.19,.09,.08,.04,.16,.05,.23,.04,.29,0,.53-.2,.74-.59,.07-.14,.16-.44,.27-.9,.11-.46,.22-.93,.33-1.43,.11-.49,.18-.78,.19-.87,.04-.24,.06-.41,.06-.52,0-.25-.06-.42-.18-.53s-.25-.16-.41-.16c-.32,0-.62,.14-.9,.42-.28,.28-.47,.64-.59,1.08-.02,.08-.04,.12-.06,.13-.02,0-.09,.02-.19,.03h-.17c-.05-.05-.07-.1-.07-.15Z"/>
      <path d="M64.25,25.08c0-.07,.02-.13,.06-.18,.04-.05,.1-.08,.18-.08s.14,.04,.18,.11c.04,.07,.07,.15,.1,.25,.02,.1,.08,.22,.16,.36s.19,.26,.32,.36c.09,.06,.13,.14,.13,.24,0,.08-.03,.15-.08,.2-.06,.05-.12,.1-.2,.13s-.2,.12-.36,.25c-.16,.13-.31,.31-.45,.53-.11,.13-.2,.2-.26,.2s-.12-.03-.17-.08-.07-.11-.07-.18,.04-.17,.13-.3c.09-.13,.18-.24,.27-.33s.15-.14,.16-.15h-4.08s-.02-.04-.04-.05c-.02-.02-.04-.03-.06-.04-.02,0-.04-.03-.04-.07s0-.07-.02-.11c0-.06,.05-.15,.16-.26h4.29c-.19-.33-.29-.59-.29-.78Z"/>
      <path class="cls-5" d="M64.25,25.08c0-.07,.02-.13,.06-.18,.04-.05,.1-.08,.18-.08s.14,.04,.18,.11c.04,.07,.07,.15,.1,.25,.02,.1,.08,.22,.16,.36s.19,.26,.32,.36c.09,.06,.13,.14,.13,.24,0,.08-.03,.15-.08,.2s-.12,.1-.2,.13c-.08,.04-.2,.12-.36,.25-.16,.13-.31,.31-.45,.53-.11,.13-.2,.2-.26,.2s-.12-.03-.17-.08c-.05-.05-.07-.11-.07-.18s.04-.17,.13-.3,.18-.24,.27-.33c.1-.09,.15-.14,.16-.15h-4.08s-.02-.04-.04-.05c-.02-.02-.04-.03-.06-.04-.02,0-.04-.03-.04-.07s0-.07-.02-.11c0-.06,.05-.15,.16-.26h4.29c-.19-.33-.29-.59-.29-.78Z"/>
    </g>
    <g class="cls-20">
      <path d="M88.38,88.87c-.44,1.03-1.02,1.76-1.74,2.2l-.46-.67c.75-.46,1.29-1.12,1.64-2l.56,.47Zm2.92-2.39h-1.93v.82h1.64v.83h-1.64v.81h.03l.28-.42c.51,.35,.93,.85,1.28,1.5l-.52,.66c-.21-.54-.56-1.03-1.07-1.46v2.19c0,.24-.07,.46-.22,.65-.15,.19-.33,.29-.55,.29h-.83l-.27-.91,.82,.07c.05,0,.11-.02,.17-.08,.06-.06,.09-.12,.09-.19v-3.09h-1.67v-.83h1.67v-.82h-2.03v-.83h1.48c-.09-.39-.35-.77-.79-1.14l.68-.31c.44,.39,.73,.87,.88,1.46h.43c.32-.37,.56-.84,.72-1.43l.69,.31c-.14,.45-.33,.83-.58,1.12h1.22v.83Zm-.23-2.47h-4.25v-.83h1.68c-.13-.25-.34-.54-.65-.88l.75-.38c.38,.5,.62,.92,.73,1.26h1.74v.83Zm4.28,2.26h-1.15v5.93h-.78v-5.93h-1.02v1.47c0,1.53-.41,3-1.23,4.43l-.7-.54c.77-1.13,1.15-2.71,1.15-4.74v-3.75c1.11-.14,2.13-.5,3.08-1.07l.5,.71c-.76,.49-1.69,.85-2.8,1.06v1.63h2.96v.83Z"/>
      <path d="M96.74,87.65c.06-.37,.27-.8,.64-1.28,.37-.48,.84-.73,1.39-.74,.28,0,.53,.08,.76,.24,.23,.16,.4,.36,.51,.59,.33-.55,.74-.83,1.21-.83,.29,0,.55,.1,.76,.29,.21,.19,.33,.45,.33,.78,0,.26-.06,.46-.17,.62-.11,.16-.22,.26-.32,.29-.1,.04-.2,.05-.27,.05-.15,0-.27-.05-.37-.15s-.14-.22-.14-.38c0-.41,.2-.68,.6-.83-.09-.11-.25-.17-.48-.17-.1,0-.18,0-.23,.03-.3,.14-.53,.43-.67,.87-.48,1.95-.72,3.08-.72,3.41,0,.25,.06,.42,.19,.53,.13,.11,.27,.16,.42,.16,.29,0,.59-.15,.87-.44,.29-.29,.48-.65,.59-1.07,.02-.09,.05-.14,.07-.15,.02,0,.09-.02,.19-.03h.05c.12,0,.18,.04,.18,.11,0,0,0,.06-.02,.15-.13,.5-.37,.95-.74,1.33-.37,.39-.79,.58-1.28,.58-.56,0-.98-.28-1.27-.83-.33,.55-.7,.82-1.12,.82h-.07c-.39,0-.67-.11-.84-.34s-.25-.47-.26-.73c0-.28,.08-.51,.23-.69,.15-.18,.33-.26,.54-.26,.34,0,.51,.18,.51,.55,0,.18-.05,.33-.14,.46-.1,.13-.19,.22-.27,.26-.09,.04-.14,.07-.16,.07h-.04s.02,.04,.07,.07c.05,.03,.11,.06,.19,.09,.08,.04,.16,.05,.23,.04,.29,0,.53-.2,.74-.59,.07-.14,.16-.44,.27-.9s.22-.93,.33-1.43c.11-.49,.18-.78,.19-.87,.04-.24,.06-.41,.06-.52,0-.25-.06-.42-.18-.53-.12-.11-.25-.16-.41-.16-.32,0-.62,.14-.9,.42-.28,.28-.47,.64-.59,1.08-.02,.08-.04,.12-.06,.13-.02,0-.09,.02-.19,.03h-.17c-.05-.05-.07-.1-.07-.15Z"/>
      <path class="cls-5" d="M96.74,87.65c.06-.37,.27-.8,.64-1.28,.37-.48,.84-.73,1.39-.74,.28,0,.53,.08,.76,.24,.23,.16,.4,.36,.51,.59,.33-.55,.74-.83,1.21-.83,.29,0,.55,.1,.76,.29,.21,.19,.33,.45,.33,.78,0,.26-.06,.46-.17,.62-.11,.16-.22,.26-.32,.29s-.2,.05-.27,.05c-.15,0-.27-.05-.37-.15-.1-.1-.14-.22-.14-.38,0-.41,.2-.68,.6-.83-.09-.11-.25-.17-.48-.17-.1,0-.18,0-.23,.03-.3,.14-.53,.43-.67,.87-.48,1.95-.72,3.08-.72,3.41,0,.25,.06,.42,.19,.53,.13,.11,.27,.16,.42,.16,.29,0,.59-.15,.87-.44,.29-.29,.48-.65,.59-1.07,.02-.09,.05-.14,.07-.15,.02,0,.09-.02,.19-.03h.05c.12,0,.18,.04,.18,.11,0,0,0,.06-.02,.15-.13,.5-.37,.95-.74,1.33-.37,.39-.79,.58-1.28,.58-.56,0-.98-.28-1.27-.83-.33,.55-.7,.82-1.12,.82h-.07c-.39,0-.67-.11-.84-.34-.17-.23-.25-.47-.26-.73,0-.28,.08-.51,.23-.69,.15-.18,.33-.26,.54-.26,.34,0,.51,.18,.51,.55,0,.18-.05,.33-.14,.46-.1,.13-.19,.22-.27,.26-.09,.04-.14,.07-.16,.07h-.04s.02,.04,.07,.07c.05,.03,.11,.06,.19,.09,.08,.04,.16,.05,.23,.04,.29,0,.53-.2,.74-.59,.07-.14,.16-.44,.27-.9,.11-.46,.22-.93,.33-1.43,.11-.49,.18-.78,.19-.87,.04-.24,.06-.41,.06-.52,0-.25-.06-.42-.18-.53s-.25-.16-.41-.16c-.32,0-.62,.14-.9,.42-.28,.28-.47,.64-.59,1.08-.02,.08-.04,.12-.06,.13-.02,0-.09,.02-.19,.03h-.17c-.05-.05-.07-.1-.07-.15Z"/>
      <path d="M101.19,81.84c0-.07,.02-.13,.06-.18s.1-.08,.18-.08,.14,.04,.18,.11c.04,.07,.07,.15,.1,.25,.02,.1,.08,.22,.16,.36,.08,.14,.19,.26,.32,.36,.09,.06,.13,.14,.13,.24,0,.08-.03,.15-.08,.2-.06,.05-.12,.1-.2,.13-.08,.04-.2,.12-.36,.25s-.31,.31-.45,.53c-.11,.13-.2,.2-.26,.2s-.12-.03-.17-.08c-.05-.05-.07-.11-.07-.18s.04-.17,.13-.3c.09-.13,.18-.24,.27-.33,.1-.09,.15-.14,.16-.15h-4.08s-.02-.04-.04-.05-.04-.03-.06-.04c-.02,0-.04-.03-.04-.07s0-.07-.02-.11c0-.06,.05-.15,.16-.26h4.29c-.19-.33-.29-.59-.29-.78Z"/>
      <path class="cls-5" d="M101.19,81.84c0-.07,.02-.13,.06-.18,.04-.05,.1-.08,.18-.08s.14,.04,.18,.11c.04,.07,.07,.15,.1,.25,.02,.1,.08,.22,.16,.36s.19,.26,.32,.36c.09,.06,.13,.14,.13,.24,0,.08-.03,.15-.08,.2-.06,.05-.12,.1-.2,.13-.08,.04-.2,.12-.36,.25-.16,.13-.31,.31-.45,.53-.11,.13-.2,.2-.26,.2s-.12-.03-.17-.08c-.05-.05-.07-.11-.07-.18s.04-.17,.13-.3,.18-.24,.27-.33c.1-.09,.15-.14,.16-.15h-4.08s-.02-.04-.04-.05c-.02-.02-.04-.03-.06-.04-.02,0-.04-.03-.04-.07s0-.07-.02-.11c0-.06,.05-.15,.16-.26h4.29c-.19-.33-.29-.59-.29-.78Z"/>
    </g>
  </g>
</svg>