<svg id="图层_1" data-name="图层 1" xmlns="http://www.w3.org/2000/svg" xmlns:xlink="http://www.w3.org/1999/xlink" viewBox="0 0 244.02 96.05"><defs><style>.cls-1,.cls-10,.cls-11,.cls-14,.cls-16,.cls-17,.cls-19,.cls-4,.cls-5,.cls-8{fill:none;}.cls-2{clip-path:url(#clip-path);}.cls-3{clip-path:url(#clip-path-2);}.cls-10,.cls-14,.cls-16,.cls-17,.cls-19,.cls-4,.cls-8{stroke:#000;}.cls-11,.cls-17,.cls-4,.cls-5{stroke-miterlimit:10;}.cls-11,.cls-4,.cls-5{stroke-width:0.9px;}.cls-5{stroke:#304ea0;}.cls-6{fill:#304ea0;}.cls-7{clip-path:url(#clip-path-3);}.cls-8{stroke-width:0.01px;}.cls-9{clip-path:url(#clip-path-4);}.cls-10{stroke-width:0.01px;}.cls-11{stroke:#bf1a20;}.cls-12{fill:#bf1a20;}.cls-13{clip-path:url(#clip-path-6);}.cls-14{stroke-width:0.01px;}.cls-15{clip-path:url(#clip-path-7);}.cls-16{stroke-width:0.01px;}.cls-17{stroke-width:0.9px;}.cls-18{clip-path:url(#clip-path-9);}.cls-19{stroke-width:0.01px;}</style><clipPath id="clip-path"><rect class="cls-1" x="-24.23" y="-26.02" width="595.92" height="841.92"/></clipPath><clipPath id="clip-path-2"><rect class="cls-1" x="4.77" y="2.98" width="239.67" height="97.31"/></clipPath><clipPath id="clip-path-3"><rect class="cls-1" x="130.01" y="39.02" width="6.31" height="12.61"/></clipPath><clipPath id="clip-path-4"><rect class="cls-1" x="48.92" y="38.11" width="6.31" height="15.32"/></clipPath><clipPath id="clip-path-6"><rect class="cls-1" x="197.58" y="25.5" width="15.32" height="22.53"/></clipPath><clipPath id="clip-path-7"><rect class="cls-1" x="159.74" y="70.55" width="27.93" height="22.53"/></clipPath><clipPath id="clip-path-9"><rect class="cls-1" x="98.47" y="39.02" width="6.31" height="12.61"/></clipPath></defs><title>0096</title><g class="cls-2"><g class="cls-3"><line class="cls-4" x1="101.63" y1="63.79" x2="142.62" y2="22.8"/><polygon points="145.97 19.45 143.73 26.15 142.62 22.8 139.27 21.69 145.97 19.45"/><polygon class="cls-4" points="145.97 19.45 143.73 26.15 142.62 22.8 139.27 21.69 145.97 19.45"/><line class="cls-5" x1="101.63" y1="63.79" x2="16.45" y2="12.69"/><polygon class="cls-6" points="12.39 10.26 19.42 10.8 16.45 12.69 16.18 16.2 12.39 10.26"/><polygon class="cls-5" points="12.39 10.26 19.42 10.8 16.45 12.69 16.18 16.2 12.39 10.26"/></g><g class="cls-7"><path d="M130.58,46a2.63,2.63,0,0,1,.6-1.18,1.58,1.58,0,0,1,1.27-.68,1.19,1.19,0,0,1,.71.22,1.29,1.29,0,0,1,.47.54,1.32,1.32,0,0,1,1.12-.76,1,1,0,0,1,.7.26,1.05,1.05,0,0,1,.16,1.29.71.71,0,0,1-.3.27.91.91,0,0,1-.26,0,.46.46,0,0,1-.34-.14.45.45,0,0,1-.13-.35.75.75,0,0,1,.55-.76.51.51,0,0,0-.44-.16l-.21,0a1.27,1.27,0,0,0-.62.81,24.08,24.08,0,0,0-.66,3.13.6.6,0,0,0,.18.49.64.64,0,0,0,.39.14,1.12,1.12,0,0,0,.8-.4,2.2,2.2,0,0,0,.54-1c0-.08,0-.13.07-.14l.17,0h.05c.11,0,.16,0,.16.1s0,0,0,.13a2.88,2.88,0,0,1-.68,1.23,1.6,1.6,0,0,1-1.18.53,1.25,1.25,0,0,1-1.17-.76,1.26,1.26,0,0,1-1,.75h-.06a.89.89,0,0,1-.77-.32,1.16,1.16,0,0,1-.25-.67.94.94,0,0,1,.21-.63.65.65,0,0,1,.5-.24c.32,0,.47.17.47.51a.73.73,0,0,1-.13.43.78.78,0,0,1-.25.24L131,49h0s0,0,.07,0l.17.08a.34.34,0,0,0,.21,0c.27,0,.49-.18.69-.55a5,5,0,0,0,.25-.82c.1-.42.2-.86.31-1.31s.16-.72.17-.81a2.82,2.82,0,0,0,.06-.47.63.63,0,0,0-.17-.49.57.57,0,0,0-.37-.14,1.17,1.17,0,0,0-.83.39,2.26,2.26,0,0,0-.54,1c0,.08,0,.12-.05.13l-.18,0h-.15A.19.19,0,0,1,130.58,46Z"/><path class="cls-8" d="M130.58,46a2.63,2.63,0,0,1,.6-1.18,1.58,1.58,0,0,1,1.27-.68,1.19,1.19,0,0,1,.71.22,1.29,1.29,0,0,1,.47.54,1.32,1.32,0,0,1,1.12-.76,1,1,0,0,1,.7.26,1.05,1.05,0,0,1,.16,1.29.71.71,0,0,1-.3.27.91.91,0,0,1-.26,0,.46.46,0,0,1-.34-.14.45.45,0,0,1-.13-.35.75.75,0,0,1,.55-.76.51.51,0,0,0-.44-.16l-.21,0a1.27,1.27,0,0,0-.62.81,24.08,24.08,0,0,0-.66,3.13.6.6,0,0,0,.18.49.64.64,0,0,0,.39.14,1.12,1.12,0,0,0,.8-.4,2.2,2.2,0,0,0,.54-1c0-.08,0-.13.07-.14l.17,0h.05c.11,0,.16,0,.16.1s0,0,0,.13a2.88,2.88,0,0,1-.68,1.23,1.6,1.6,0,0,1-1.18.53,1.25,1.25,0,0,1-1.17-.76,1.26,1.26,0,0,1-1,.75h-.06a.89.89,0,0,1-.77-.32,1.16,1.16,0,0,1-.25-.67.94.94,0,0,1,.21-.63.65.65,0,0,1,.5-.24c.32,0,.47.17.47.51a.73.73,0,0,1-.13.43.78.78,0,0,1-.25.24L131,49h0s0,0,.07,0l.17.08a.34.34,0,0,0,.21,0c.27,0,.49-.18.69-.55a5,5,0,0,0,.25-.82c.1-.42.2-.86.31-1.31s.16-.72.17-.81a2.82,2.82,0,0,0,.06-.47.63.63,0,0,0-.17-.49.57.57,0,0,0-.37-.14,1.17,1.17,0,0,0-.83.39,2.26,2.26,0,0,0-.54,1c0,.08,0,.12-.05.13l-.18,0h-.15A.19.19,0,0,1,130.58,46Z"/><path d="M134.69,40.38a.27.27,0,0,1,.06-.17.2.2,0,0,1,.16-.07.19.19,0,0,1,.17.1,1,1,0,0,1,.08.23,1.5,1.5,0,0,0,.15.33.84.84,0,0,0,.3.32.26.26,0,0,1,.12.22.26.26,0,0,1-.08.19,1,1,0,0,1-.19.12,1.83,1.83,0,0,0-.33.23,2,2,0,0,0-.42.48c-.1.13-.18.19-.24.19a.19.19,0,0,1-.15-.08.22.22,0,0,1-.07-.17.65.65,0,0,1,.12-.28,2,2,0,0,1,.25-.3l.15-.13h-1.89l-1.88,0,0,0-.06,0a.06.06,0,0,1,0-.06.44.44,0,0,0,0-.1.44.44,0,0,1,.14-.24h4A1.62,1.62,0,0,1,134.69,40.38Z"/><path class="cls-8" d="M134.69,40.38a.27.27,0,0,1,.06-.17.2.2,0,0,1,.16-.07.19.19,0,0,1,.17.1,1,1,0,0,1,.08.23,1.5,1.5,0,0,0,.15.33.84.84,0,0,0,.3.32.26.26,0,0,1,.12.22.26.26,0,0,1-.08.19,1,1,0,0,1-.19.12,1.83,1.83,0,0,0-.33.23,2,2,0,0,0-.42.48c-.1.13-.18.19-.24.19a.19.19,0,0,1-.15-.08.22.22,0,0,1-.07-.17.65.65,0,0,1,.12-.28,2,2,0,0,1,.25-.3l.15-.13h-1.89l-1.88,0,0,0-.06,0a.06.06,0,0,1,0-.06.44.44,0,0,0,0-.1.44.44,0,0,1,.14-.24h4A1.62,1.62,0,0,1,134.69,40.38Z"/></g><g class="cls-9"><path d="M49.16,45.41a1.92,1.92,0,0,1,.18-.61,3.76,3.76,0,0,1,.55-.9,1.06,1.06,0,0,1,.86-.45,1,1,0,0,1,.76.29,1.06,1.06,0,0,1,.3.81,1.09,1.09,0,0,1,0,.26,5.3,5.3,0,0,1-.19.59c-.12.36-.25.77-.38,1.22A3.74,3.74,0,0,0,51,47.71a1.28,1.28,0,0,0,.16.76.59.59,0,0,0,.49.23,1,1,0,0,0,.49-.14,1.23,1.23,0,0,0,.36-.29c.09-.1.19-.24.32-.42l0-.25c0-.16.1-.41.17-.75s.14-.65.22-.93c.29-1.27.45-1.93.48-2a.51.51,0,0,1,.5-.34.32.32,0,0,1,.24.09.42.42,0,0,1,.13.15.15.15,0,0,1,0,.11c0,.11-.18,1-.56,2.66s-.6,2.57-.65,2.73A3.25,3.25,0,0,1,52.32,51a2.63,2.63,0,0,1-1.59.64,1.59,1.59,0,0,1-.92-.28,1,1,0,0,1-.39-.84,1.05,1.05,0,0,1,.08-.46.58.58,0,0,1,.22-.28l.23-.13a.45.45,0,0,1,.2,0,.46.46,0,0,1,.51.53.77.77,0,0,1-.14.45.87.87,0,0,1-.27.25l-.15.06,0,0s.08.09.22.15a.92.92,0,0,0,.39.09h.09a1.15,1.15,0,0,0,.3,0,1.45,1.45,0,0,0,.71-.48,2.87,2.87,0,0,0,.5-.78c.11-.28.2-.52.26-.71a1.47,1.47,0,0,0,.1-.38l-.07,0-.22.14a2.1,2.1,0,0,1-.3.15,1.88,1.88,0,0,1-.46.06,1.57,1.57,0,0,1-.93-.28,1.37,1.37,0,0,1-.54-.9s0-.19,0-.39a6,6,0,0,1,.41-1.88,6.38,6.38,0,0,0,.4-1.48v-.18a.12.12,0,0,0,0-.09.19.19,0,0,0-.13,0h0a.63.63,0,0,0-.48.24,1.76,1.76,0,0,0-.35.52,3.16,3.16,0,0,0-.2.53,1.42,1.42,0,0,1-.09.28s-.08,0-.19,0h-.16C49.18,45.47,49.16,45.44,49.16,45.41Z"/><path class="cls-10" d="M49.16,45.41a1.92,1.92,0,0,1,.18-.61,3.76,3.76,0,0,1,.55-.9,1.06,1.06,0,0,1,.86-.45,1,1,0,0,1,.76.29,1.06,1.06,0,0,1,.3.81,1.09,1.09,0,0,1,0,.26,5.3,5.3,0,0,1-.19.59c-.12.36-.25.77-.38,1.22A3.74,3.74,0,0,0,51,47.71a1.28,1.28,0,0,0,.16.76.59.59,0,0,0,.49.23,1,1,0,0,0,.49-.14,1.23,1.23,0,0,0,.36-.29c.09-.1.19-.24.32-.42l0-.25c0-.16.1-.41.17-.75s.14-.65.22-.93c.29-1.27.45-1.93.48-2a.51.51,0,0,1,.5-.34.32.32,0,0,1,.24.09.42.42,0,0,1,.13.15.15.15,0,0,1,0,.11c0,.11-.18,1-.56,2.66s-.6,2.57-.65,2.73A3.25,3.25,0,0,1,52.32,51a2.63,2.63,0,0,1-1.59.64,1.59,1.59,0,0,1-.92-.28,1,1,0,0,1-.39-.84,1.05,1.05,0,0,1,.08-.46.58.58,0,0,1,.22-.28l.23-.13a.45.45,0,0,1,.2,0,.46.46,0,0,1,.51.53.77.77,0,0,1-.14.45.87.87,0,0,1-.27.25l-.15.06,0,0s.08.09.22.15a.92.92,0,0,0,.39.09h.09a1.15,1.15,0,0,0,.3,0,1.45,1.45,0,0,0,.71-.48,2.87,2.87,0,0,0,.5-.78c.11-.28.2-.52.26-.71a1.47,1.47,0,0,0,.1-.38l-.07,0-.22.14a2.1,2.1,0,0,1-.3.15,1.88,1.88,0,0,1-.46.06,1.57,1.57,0,0,1-.93-.28,1.37,1.37,0,0,1-.54-.9s0-.19,0-.39a6,6,0,0,1,.41-1.88,6.38,6.38,0,0,0,.4-1.48v-.18a.12.12,0,0,0,0-.09.19.19,0,0,0-.13,0h0a.63.63,0,0,0-.48.24,1.76,1.76,0,0,0-.35.52,3.16,3.16,0,0,0-.2.53,1.42,1.42,0,0,1-.09.28s-.08,0-.19,0h-.16C49.18,45.47,49.16,45.44,49.16,45.41Z"/><path d="M53.78,39.52a.27.27,0,0,1,.06-.17.22.22,0,0,1,.18-.08.19.19,0,0,1,.17.1.85.85,0,0,1,.09.24,1.87,1.87,0,0,0,.15.34,1.06,1.06,0,0,0,.32.35.25.25,0,0,1,.12.22.22.22,0,0,1-.08.19.64.64,0,0,1-.19.13,1.35,1.35,0,0,0-.35.24,2.25,2.25,0,0,0-.44.51c-.11.12-.2.19-.26.19a.23.23,0,0,1-.16-.08.24.24,0,0,1-.07-.18.61.61,0,0,1,.13-.29,1.64,1.64,0,0,1,.26-.31l.16-.14h-2l-2,0,0,0-.06,0s0,0,0-.07a.22.22,0,0,0,0-.1c0-.06,0-.14.15-.25h4.16A1.75,1.75,0,0,1,53.78,39.52Z"/><path class="cls-10" d="M53.78,39.52a.27.27,0,0,1,.06-.17.22.22,0,0,1,.18-.08.19.19,0,0,1,.17.1.85.85,0,0,1,.09.24,1.87,1.87,0,0,0,.15.34,1.06,1.06,0,0,0,.32.35.25.25,0,0,1,.12.22.22.22,0,0,1-.08.19.64.64,0,0,1-.19.13,1.35,1.35,0,0,0-.35.24,2.25,2.25,0,0,0-.44.51c-.11.12-.2.19-.26.19a.23.23,0,0,1-.16-.08.24.24,0,0,1-.07-.18.61.61,0,0,1,.13-.29,1.64,1.64,0,0,1,.26-.31l.16-.14h-2l-2,0,0,0-.06,0s0,0,0-.07a.22.22,0,0,0,0-.1c0-.06,0-.14.15-.25h4.16A1.75,1.75,0,0,1,53.78,39.52Z"/></g><g class="cls-3"><line class="cls-5" x1="146.68" y1="18.74" x2="231.86" y2="69.85"/><polygon class="cls-6" points="235.91 72.28 228.88 71.74 231.86 69.85 232.13 66.33 235.91 72.28"/><polygon class="cls-5" points="235.91 72.28 228.88 71.74 231.86 69.85 232.13 66.33 235.91 72.28"/><line class="cls-11" x1="101.63" y1="63.79" x2="231.06" y2="72.42"/><polygon class="cls-12" points="235.77 72.74 229.27 75.46 231.06 72.42 229.69 69.17 235.77 72.74"/><polygon class="cls-11" points="235.77 72.74 229.27 75.46 231.06 72.42 229.69 69.17 235.77 72.74"/></g><g class="cls-13"><path d="M198.59,40.41v-.17a.29.29,0,0,1,.17-.26h7a.31.31,0,0,1,.18.26.3.3,0,0,1-.18.26h-7a.28.28,0,0,1-.17-.26Z"/><path class="cls-14" d="M198.59,40.41v-.17a.29.29,0,0,1,.17-.26h7a.31.31,0,0,1,.18.26.3.3,0,0,1-.18.26h-7a.28.28,0,0,1-.17-.26Z"/><path d="M207.17,39.76a2.06,2.06,0,0,1,.18-.63,3.85,3.85,0,0,1,.58-.92,1.1,1.1,0,0,1,.89-.47,1.06,1.06,0,0,1,.79.3,1.17,1.17,0,0,1,.31.83c0,.17,0,.26,0,.28s-.07.22-.2.6-.26.79-.39,1.26a3.71,3.71,0,0,0-.19,1.13,1.37,1.37,0,0,0,.16.78.63.63,0,0,0,.51.23.94.94,0,0,0,.51-.14,1.8,1.8,0,0,0,.38-.3l.32-.43s0-.1.06-.26.1-.42.17-.77.15-.67.23-1c.3-1.3.47-2,.5-2.05a.54.54,0,0,1,.52-.35.37.37,0,0,1,.25.09.76.76,0,0,1,.13.16.17.17,0,0,1,0,.12c0,.11-.19,1-.58,2.74s-.62,2.65-.68,2.82a3.37,3.37,0,0,1-1.16,1.72,2.81,2.81,0,0,1-1.66.65,1.59,1.59,0,0,1-.94-.29,1,1,0,0,1-.41-.86,1.34,1.34,0,0,1,.08-.48.62.62,0,0,1,.23-.29l.24-.13a.65.65,0,0,1,.2,0c.36,0,.53.19.53.55a.81.81,0,0,1-.14.46.94.94,0,0,1-.28.26l-.15.06,0,0s.09.09.23.15a1,1,0,0,0,.41.09h.09a1.28,1.28,0,0,0,.31,0,1.65,1.65,0,0,0,.74-.5,2.9,2.9,0,0,0,.51-.81c.12-.28.21-.53.28-.73a1.83,1.83,0,0,0,.09-.39l-.07.05a1.53,1.53,0,0,1-.23.15,1.77,1.77,0,0,1-.31.15,1.53,1.53,0,0,1-.47.07,1.71,1.71,0,0,1-1-.29,1.41,1.41,0,0,1-.55-.92,3.91,3.91,0,0,1,0-.41,6.23,6.23,0,0,1,.42-1.94,6.58,6.58,0,0,0,.42-1.53v-.18a.14.14,0,0,0-.05-.09.16.16,0,0,0-.13-.06h0a.69.69,0,0,0-.5.25,1.82,1.82,0,0,0-.36.54,3.72,3.72,0,0,0-.21.54,2.78,2.78,0,0,1-.09.29s-.08,0-.2,0h-.16C207.2,39.83,207.17,39.79,207.17,39.76Z"/><path class="cls-14" d="M207.17,39.76a2.06,2.06,0,0,1,.18-.63,3.85,3.85,0,0,1,.58-.92,1.1,1.1,0,0,1,.89-.47,1.06,1.06,0,0,1,.79.3,1.17,1.17,0,0,1,.31.83c0,.17,0,.26,0,.28s-.07.22-.2.6-.26.79-.39,1.26a3.71,3.71,0,0,0-.19,1.13,1.37,1.37,0,0,0,.16.78.63.63,0,0,0,.51.23.94.94,0,0,0,.51-.14,1.8,1.8,0,0,0,.38-.3l.32-.43s0-.1.06-.26.1-.42.17-.77.15-.67.23-1c.3-1.3.47-2,.5-2.05a.54.54,0,0,1,.52-.35.37.37,0,0,1,.25.09.76.76,0,0,1,.13.16.17.17,0,0,1,0,.12c0,.11-.19,1-.58,2.74s-.62,2.65-.68,2.82a3.37,3.37,0,0,1-1.16,1.72,2.81,2.81,0,0,1-1.66.65,1.59,1.59,0,0,1-.94-.29,1,1,0,0,1-.41-.86,1.34,1.34,0,0,1,.08-.48.62.62,0,0,1,.23-.29l.24-.13a.65.65,0,0,1,.2,0c.36,0,.53.19.53.55a.81.81,0,0,1-.14.46.94.94,0,0,1-.28.26l-.15.06,0,0s.09.09.23.15a1,1,0,0,0,.41.09h.09a1.28,1.28,0,0,0,.31,0,1.65,1.65,0,0,0,.74-.5,2.9,2.9,0,0,0,.51-.81c.12-.28.21-.53.28-.73a1.83,1.83,0,0,0,.09-.39l-.07.05a1.53,1.53,0,0,1-.23.15,1.77,1.77,0,0,1-.31.15,1.53,1.53,0,0,1-.47.07,1.71,1.71,0,0,1-1-.29,1.41,1.41,0,0,1-.55-.92,3.91,3.91,0,0,1,0-.41,6.23,6.23,0,0,1,.42-1.94,6.58,6.58,0,0,0,.42-1.53v-.18a.14.14,0,0,0-.05-.09.16.16,0,0,0-.13-.06h0a.69.69,0,0,0-.5.25,1.82,1.82,0,0,0-.36.54,3.72,3.72,0,0,0-.21.54,2.78,2.78,0,0,1-.09.29s-.08,0-.2,0h-.16C207.2,39.83,207.17,39.79,207.17,39.76Z"/><path d="M200,31v-.17a.29.29,0,0,1,.17-.26h9.18a4.77,4.77,0,0,1-1.72-2.91v0a.06.06,0,0,0,0,0q0-.15.21-.15H208l.07.05a.21.21,0,0,1,0,.12,1.23,1.23,0,0,0,0,.21c0,.09.06.19.1.32a4,4,0,0,0,.87,1.57,3.44,3.44,0,0,0,1.43,1c.07,0,.11.07.11.14a.14.14,0,0,1-.06.12,1.78,1.78,0,0,1-.29.13,2.34,2.34,0,0,0-.46.25,4.22,4.22,0,0,0-.85.78,3.67,3.67,0,0,0-.54.88c-.12.28-.2.5-.25.65a2.59,2.59,0,0,0-.1.4c0,.09,0,.14-.06.16a.4.4,0,0,1-.19,0q-.24,0-.24-.15a1.6,1.6,0,0,1,.06-.32A4.71,4.71,0,0,1,209.31,31h-9.18a.28.28,0,0,1-.17-.26Z"/><path class="cls-14" d="M200,31v-.17a.29.29,0,0,1,.17-.26h9.18a4.77,4.77,0,0,1-1.72-2.91v0a.06.06,0,0,0,0,0q0-.15.21-.15H208l.07.05a.21.21,0,0,1,0,.12,1.23,1.23,0,0,0,0,.21c0,.09.06.19.1.32a4,4,0,0,0,.87,1.57,3.44,3.44,0,0,0,1.43,1c.07,0,.11.07.11.14a.14.14,0,0,1-.06.12,1.78,1.78,0,0,1-.29.13,2.34,2.34,0,0,0-.46.25,4.22,4.22,0,0,0-.85.78,3.67,3.67,0,0,0-.54.88c-.12.28-.2.5-.25.65a2.59,2.59,0,0,0-.1.4c0,.09,0,.14-.06.16a.4.4,0,0,1-.19,0q-.24,0-.24-.15a1.6,1.6,0,0,1,.06-.32A4.71,4.71,0,0,1,209.31,31h-9.18a.28.28,0,0,1-.17-.26Z"/></g><g class="cls-15"><path d="M160.38,84.78a3,3,0,0,1,.66-1.26,1.77,1.77,0,0,1,1.41-.73,1.44,1.44,0,0,1,1.3.82,1.45,1.45,0,0,1,1.23-.82,1.11,1.11,0,0,1,.78.29,1,1,0,0,1,.34.76,1,1,0,0,1-.17.62.78.78,0,0,1-.33.29,1,1,0,0,1-.28,0,.51.51,0,0,1-.52-.52.83.83,0,0,1,.61-.83.6.6,0,0,0-.49-.17.67.67,0,0,0-.23,0,1.36,1.36,0,0,0-.68.86,24.59,24.59,0,0,0-.73,3.37.62.62,0,0,0,.19.52.72.72,0,0,0,.43.16,1.31,1.31,0,0,0,.89-.43,2.18,2.18,0,0,0,.59-1.06c0-.09.05-.14.08-.14l.19,0h0c.12,0,.18,0,.18.1a.69.69,0,0,1,0,.15,2.87,2.87,0,0,1-.76,1.31,1.73,1.73,0,0,1-1.3.58,1.38,1.38,0,0,1-1.29-.82,1.38,1.38,0,0,1-1.14.81h-.08a1,1,0,0,1-.85-.34,1.28,1.28,0,0,1-.27-.72,1,1,0,0,1,.23-.68.74.74,0,0,1,.55-.26c.35,0,.53.18.53.55a.72.72,0,0,1-.15.45,1,1,0,0,1-.28.27l-.16.06h0s0,0,.07.06l.19.09a.66.66,0,0,0,.23,0c.3,0,.55-.2.76-.59a5,5,0,0,0,.28-.89c.11-.45.23-.92.34-1.41l.2-.86A3.31,3.31,0,0,0,163,84a.62.62,0,0,0-.19-.52.64.64,0,0,0-.41-.16,1.27,1.27,0,0,0-.91.42,2.22,2.22,0,0,0-.6,1.07c0,.08,0,.12-.06.13l-.2,0h-.17A.21.21,0,0,1,160.38,84.78Z"/><path class="cls-16" d="M160.38,84.78a3,3,0,0,1,.66-1.26,1.77,1.77,0,0,1,1.41-.73,1.44,1.44,0,0,1,1.3.82,1.45,1.45,0,0,1,1.23-.82,1.11,1.11,0,0,1,.78.29,1,1,0,0,1,.34.76,1,1,0,0,1-.17.62.78.78,0,0,1-.33.29,1,1,0,0,1-.28,0,.51.51,0,0,1-.52-.52.83.83,0,0,1,.61-.83.6.6,0,0,0-.49-.17.67.67,0,0,0-.23,0,1.36,1.36,0,0,0-.68.86,24.59,24.59,0,0,0-.73,3.37.62.62,0,0,0,.19.52.72.72,0,0,0,.43.16,1.31,1.31,0,0,0,.89-.43,2.18,2.18,0,0,0,.59-1.06c0-.09.05-.14.08-.14l.19,0h0c.12,0,.18,0,.18.1a.69.69,0,0,1,0,.15,2.87,2.87,0,0,1-.76,1.31,1.73,1.73,0,0,1-1.3.58,1.38,1.38,0,0,1-1.29-.82,1.38,1.38,0,0,1-1.14.81h-.08a1,1,0,0,1-.85-.34,1.28,1.28,0,0,1-.27-.72,1,1,0,0,1,.23-.68.74.74,0,0,1,.55-.26c.35,0,.53.18.53.55a.72.72,0,0,1-.15.45,1,1,0,0,1-.28.27l-.16.06h0s0,0,.07.06l.19.09a.66.66,0,0,0,.23,0c.3,0,.55-.2.76-.59a5,5,0,0,0,.28-.89c.11-.45.23-.92.34-1.41l.2-.86A3.31,3.31,0,0,0,163,84a.62.62,0,0,0-.19-.52.64.64,0,0,0-.41-.16,1.27,1.27,0,0,0-.91.42,2.22,2.22,0,0,0-.6,1.07c0,.08,0,.12-.06.13l-.2,0h-.17A.21.21,0,0,1,160.38,84.78Z"/><path d="M170.44,85.46v-.17a.29.29,0,0,1,.17-.26h7.07a.3.3,0,0,1,.19.26.29.29,0,0,1-.19.26h-7.07a.28.28,0,0,1-.17-.26Z"/><path class="cls-16" d="M170.44,85.46v-.17a.29.29,0,0,1,.17-.26h7.07a.3.3,0,0,1,.19.26.29.29,0,0,1-.19.26h-7.07a.28.28,0,0,1-.17-.26Z"/><path d="M181.86,84.81a2.06,2.06,0,0,1,.18-.63,3.62,3.62,0,0,1,.59-.92,1.13,1.13,0,0,1,.9-.47,1.09,1.09,0,0,1,.8.3,1.14,1.14,0,0,1,.32.83,2,2,0,0,1,0,.28s-.06.22-.19.6-.27.79-.4,1.26a3.78,3.78,0,0,0-.2,1.13A1.36,1.36,0,0,0,184,88a.65.65,0,0,0,.51.23,1,1,0,0,0,.53-.14,1.71,1.71,0,0,0,.37-.3c.09-.1.2-.25.33-.43,0,0,0-.1.06-.26s.1-.42.17-.77.15-.67.24-1c.3-1.3.47-2,.51-2a.54.54,0,0,1,.52-.35.37.37,0,0,1,.26.09.76.76,0,0,1,.13.16.17.17,0,0,1,0,.12c0,.11-.19,1-.59,2.74s-.63,2.65-.68,2.82a3.42,3.42,0,0,1-1.19,1.72,2.89,2.89,0,0,1-1.68.65,1.67,1.67,0,0,1-1-.29,1,1,0,0,1-.41-.86,1.34,1.34,0,0,1,.08-.48.69.69,0,0,1,.23-.29l.25-.13a.65.65,0,0,1,.21,0,.48.48,0,0,1,.53.55.81.81,0,0,1-.14.46,1.07,1.07,0,0,1-.28.26l-.16.06,0,0s.09.09.23.15a1.06,1.06,0,0,0,.42.09h.09a1.38,1.38,0,0,0,.32,0,1.53,1.53,0,0,0,.74-.5,3,3,0,0,0,.53-.81c.12-.28.21-.53.28-.73a1.83,1.83,0,0,0,.09-.39l-.07,0-.23.15a2.3,2.3,0,0,1-.32.15,1.58,1.58,0,0,1-.47.07,1.75,1.75,0,0,1-1-.29,1.42,1.42,0,0,1-.56-.92,3.91,3.91,0,0,1,0-.41,6,6,0,0,1,.43-1.94,6.58,6.58,0,0,0,.42-1.53v-.18a.11.11,0,0,0-.05-.09.15.15,0,0,0-.13-.06h-.05a.7.7,0,0,0-.51.25,2.08,2.08,0,0,0-.37.54,2.77,2.77,0,0,0-.2.54,1.12,1.12,0,0,1-.1.29s-.08,0-.2,0h-.17A.19.19,0,0,1,181.86,84.81Z"/><path class="cls-16" d="M181.86,84.81a2.06,2.06,0,0,1,.18-.63,3.62,3.62,0,0,1,.59-.92,1.13,1.13,0,0,1,.9-.47,1.09,1.09,0,0,1,.8.3,1.14,1.14,0,0,1,.32.83,2,2,0,0,1,0,.28s-.06.22-.19.6-.27.79-.4,1.26a3.78,3.78,0,0,0-.2,1.13A1.36,1.36,0,0,0,184,88a.65.65,0,0,0,.51.23,1,1,0,0,0,.53-.14,1.71,1.71,0,0,0,.37-.3c.09-.1.2-.25.33-.43,0,0,0-.1.06-.26s.1-.42.17-.77.15-.67.24-1c.3-1.3.47-2,.51-2a.54.54,0,0,1,.52-.35.37.37,0,0,1,.26.09.76.76,0,0,1,.13.16.17.17,0,0,1,0,.12c0,.11-.19,1-.59,2.74s-.63,2.65-.68,2.82a3.42,3.42,0,0,1-1.19,1.72,2.89,2.89,0,0,1-1.68.65,1.67,1.67,0,0,1-1-.29,1,1,0,0,1-.41-.86,1.34,1.34,0,0,1,.08-.48.69.69,0,0,1,.23-.29l.25-.13a.65.65,0,0,1,.21,0,.48.48,0,0,1,.53.55.81.81,0,0,1-.14.46,1.07,1.07,0,0,1-.28.26l-.16.06,0,0s.09.09.23.15a1.06,1.06,0,0,0,.42.09h.09a1.38,1.38,0,0,0,.32,0,1.53,1.53,0,0,0,.74-.5,3,3,0,0,0,.53-.81c.12-.28.21-.53.28-.73a1.83,1.83,0,0,0,.09-.39l-.07,0-.23.15a2.3,2.3,0,0,1-.32.15,1.58,1.58,0,0,1-.47.07,1.75,1.75,0,0,1-1-.29,1.42,1.42,0,0,1-.56-.92,3.91,3.91,0,0,1,0-.41,6,6,0,0,1,.43-1.94,6.58,6.58,0,0,0,.42-1.53v-.18a.11.11,0,0,0-.05-.09.15.15,0,0,0-.13-.06h-.05a.7.7,0,0,0-.51.25,2.08,2.08,0,0,0-.37.54,2.77,2.77,0,0,0-.2.54,1.12,1.12,0,0,1-.1.29s-.08,0-.2,0h-.17A.19.19,0,0,1,181.86,84.81Z"/><path d="M168.34,76v-.17a.29.29,0,0,1,.17-.26h9.32a4.7,4.7,0,0,1-1.74-2.91v0s0,0,0,0,.07-.15.2-.15h.19l.07,0a.21.21,0,0,1,0,.12,1,1,0,0,0,0,.21l.1.32a4,4,0,0,0,.89,1.57,3.44,3.44,0,0,0,1.45,1c.07,0,.11.07.11.14a.13.13,0,0,1-.06.12,1.63,1.63,0,0,1-.3.13,2.34,2.34,0,0,0-.46.25,4,4,0,0,0-.86.78,3.43,3.43,0,0,0-.55.88c-.12.28-.21.5-.26.65a1.73,1.73,0,0,0-.09.4c0,.09,0,.14-.07.16a.4.4,0,0,1-.19,0c-.16,0-.24,0-.24-.14a1.54,1.54,0,0,1,.06-.33,4.69,4.69,0,0,1,1.69-2.68h-9.32a.28.28,0,0,1-.17-.26Z"/><path class="cls-16" d="M168.34,76v-.17a.29.29,0,0,1,.17-.26h9.32a4.7,4.7,0,0,1-1.74-2.91v0s0,0,0,0,.07-.15.2-.15h.19l.07,0a.21.21,0,0,1,0,.12,1,1,0,0,0,0,.21l.1.32a4,4,0,0,0,.89,1.57,3.44,3.44,0,0,0,1.45,1c.07,0,.11.07.11.14a.13.13,0,0,1-.06.12,1.63,1.63,0,0,1-.3.13,2.34,2.34,0,0,0-.46.25,4,4,0,0,0-.86.78,3.43,3.43,0,0,0-.55.88c-.12.28-.21.5-.26.65a1.73,1.73,0,0,0-.09.4c0,.09,0,.14-.07.16a.4.4,0,0,1-.19,0c-.16,0-.24,0-.24-.14a1.54,1.54,0,0,1,.06-.33,4.69,4.69,0,0,1,1.69-2.68h-9.32a.28.28,0,0,1-.17-.26Z"/></g><g class="cls-3"><path class="cls-17" d="M94,59a9,9,0,0,1,13.55-2"/></g><g class="cls-18"><path d="M100,47.9c0,.86.24,1.29.71,1.29a.9.9,0,0,0,.43-.12,2.25,2.25,0,0,0,.55-.46,3.9,3.9,0,0,0,.65-1.06,15.69,15.69,0,0,0,.64-1.77l.07-.21h-2.62a4.37,4.37,0,0,1-.12.46,9.7,9.7,0,0,0-.21.95A4.67,4.67,0,0,0,100,47.9Zm3.63-5.27c0-.82-.24-1.24-.71-1.24a1.26,1.26,0,0,0-.94.55,4.85,4.85,0,0,0-.76,1.24c-.19.46-.35.87-.45,1.21s-.17.55-.18.61h2.61s0-.14.11-.4.13-.58.21-1A4.34,4.34,0,0,0,103.62,42.63Zm-4.68,4.45a7.28,7.28,0,0,1,.53-2.61,7.37,7.37,0,0,1,1.42-2.37A3.14,3.14,0,0,1,102.76,41H103a1.46,1.46,0,0,1,1.13.59,3.29,3.29,0,0,1,.52,2,7.41,7.41,0,0,1-.6,2.85,7.12,7.12,0,0,1-1.55,2.36,2.68,2.68,0,0,1-1.8.93h-.09a1.46,1.46,0,0,1-.84-.25,1.49,1.49,0,0,1-.52-.64,4.23,4.23,0,0,1-.26-.81A4.8,4.8,0,0,1,98.94,47.08Z"/><path class="cls-19" d="M100,47.9c0,.86.24,1.29.71,1.29a.9.9,0,0,0,.43-.12,2.25,2.25,0,0,0,.55-.46,3.9,3.9,0,0,0,.65-1.06,15.69,15.69,0,0,0,.64-1.77l.07-.21h-2.62a4.37,4.37,0,0,1-.12.46,9.7,9.7,0,0,0-.21.95A4.67,4.67,0,0,0,100,47.9Zm3.63-5.27c0-.82-.24-1.24-.71-1.24a1.26,1.26,0,0,0-.94.55,4.85,4.85,0,0,0-.76,1.24c-.19.46-.35.87-.45,1.21s-.17.55-.18.61h2.61s0-.14.11-.4.13-.58.21-1A4.34,4.34,0,0,0,103.62,42.63Zm-4.68,4.45a7.28,7.28,0,0,1,.53-2.61,7.37,7.37,0,0,1,1.42-2.37A3.14,3.14,0,0,1,102.76,41H103a1.46,1.46,0,0,1,1.13.59,3.29,3.29,0,0,1,.52,2,7.41,7.41,0,0,1-.6,2.85,7.12,7.12,0,0,1-1.55,2.36,2.68,2.68,0,0,1-1.8.93h-.09a1.46,1.46,0,0,1-.84-.25,1.49,1.49,0,0,1-.52-.64,4.23,4.23,0,0,1-.26-.81A4.8,4.8,0,0,1,98.94,47.08Z"/></g></g></svg>