<svg id="图层_1" data-name="图层 1" xmlns="http://www.w3.org/2000/svg" xmlns:xlink="http://www.w3.org/1999/xlink" viewBox="0 0 198.64 80.66"><defs><style>.cls-1,.cls-7,.cls-8{fill:none;}.cls-2{clip-path:url(#clip-path);}.cls-3{fill:#fff;}.cls-4{clip-path:url(#clip-path-3);}.cls-5{clip-path:url(#clip-path-4);}.cls-6{fill-rule:evenodd;}.cls-7,.cls-8{stroke:#000;stroke-miterlimit:10;}.cls-7{stroke-linecap:round;stroke-width:0.36px;}.cls-8{stroke-width:0.27px;}</style><clipPath id="clip-path"><rect class="cls-1" x="-173.38" y="-346.57" width="540" height="780"/></clipPath><clipPath id="clip-path-3"><rect class="cls-1" x="-2.02" y="-0.49" width="197.28" height="87.84"/></clipPath><clipPath id="clip-path-4"><rect class="cls-1" x="-2.02" y="-0.49" width="197.28" height="87.84"/></clipPath></defs><title>0100</title><g class="cls-2"><g class="cls-2"><rect class="cls-3" x="-173.38" y="-346.57" width="540" height="780"/></g><g class="cls-4"><g class="cls-5"><path class="cls-6" d="M8.91,14.2l.55.36a18.1,18.1,0,0,1-1.77,1.81c-.14-.13-.32-.26-.52-.41A9.07,9.07,0,0,0,8.91,14.2Zm3.49,0c.81.61,1.5,1.15,2.06,1.64l-.47.47c-.64-.58-1.31-1.16-2-1.71ZM10.84,10A8.79,8.79,0,0,1,9,11.72h3.79A9.65,9.65,0,0,1,10.84,10ZM7.28,13.32h3.29v-1H8.68v-.38a12.55,12.55,0,0,1-1.31.77q-.17-.25-.39-.54a9.58,9.58,0,0,0,3.59-2.77h.81l-.15.19A8,8,0,0,0,14.65,12c-.15.22-.29.41-.4.58a10.79,10.79,0,0,1-1.3-.71v.42H11.19v1h3.17v.57H11.19v1.72a.92.92,0,0,1-1,1l-1,0c0-.19-.06-.4-.1-.62.39,0,.71.06,1,.07a.46.46,0,0,0,.53-.53V13.89H7.28Z"/><path class="cls-6" d="M15,9.81h2.48V12.4h-.57v-.33H15.74l-.13,1.21h1.84c-.07,1-.12,1.67-.17,2.14a1.06,1.06,0,0,1-1.15,1.1l-1.06,0c0-.18-.08-.4-.13-.65a8.62,8.62,0,0,0,1.15.09.56.56,0,0,0,.61-.58q.06-.45.12-1.53H15l.25-2.29h1.69V10.35H15ZM18.62,13l1.46,0c.29-.43.56-.88.83-1.34l.61.28a31.67,31.67,0,0,1-2.77,3.74c.8,0,1.66-.07,2.56-.12-.21-.45-.43-.89-.67-1.33l.52-.25c.44.82.85,1.65,1.25,2.49l-.58.27-.3-.7c-1.75.11-2.92.2-3.49.26l-.18-.57a18.22,18.22,0,0,0,1.86-2.22l-1.7.11-.16-.54A9.47,9.47,0,0,0,19.25,11H17.8v-.54h2.12c-.15-.26-.34-.55-.56-.86l.49-.29c.19.25.41.56.67,1l-.35.19h2.19V11H20Q19.38,11.93,18.62,13Z"/><path class="cls-6" d="M23.09,10.22h3.28q-.23-.32-.48-.63l.58-.3.66.75-.35.18H29.9v1.42h-.61v-.86h-5.6v.85h-.6Zm-.46,5.92A4.45,4.45,0,0,0,24.11,13l.65.1a8.14,8.14,0,0,1-.29,1.29,2.37,2.37,0,0,0,1.85,1.42V12.52H22.81V12h7.31v.56H27v1.21h2.68v.55H27v1.57c1,0,2.14,0,3.34,0a4.16,4.16,0,0,0-.23.62c-1.25,0-2.35,0-3.29,0a2.75,2.75,0,0,1-2.55-1.37A5,5,0,0,1,23,16.73,5.24,5.24,0,0,0,22.63,16.14Z"/><path class="cls-6" d="M34,11.25h1.24v-1H34Zm3-1H35.84v1h1.23Zm-3,2.57h1.24v-1H34Zm1.81,0h1.23v-1H35.84Zm-5.43,2.65,1.15-.28V12.9h-1v-.53h1V10.51h-1V10h2.64v.53h-1v1.86h1v.53h-1V15l1-.27c0,.22,0,.42.09.58-.88.23-1.74.47-2.58.73Zm2.45.44h2.41V14.81h-2v-.53h2v-1H34v.28h-.57V9.71h4.18v3.86h-.57v-.28H35.84v1h2v.53h-2v1.07h2.3v.53H32.86Z"/><path class="cls-6" d="M40.43,14.64a.44.44,0,0,1-.14.34.5.5,0,0,1-.35.14.52.52,0,0,1-.35-.14.48.48,0,0,1-.14-.34.46.46,0,0,1,.14-.34.52.52,0,0,1,.35-.14.5.5,0,0,1,.35.14A.42.42,0,0,1,40.43,14.64Zm0-2.93a.44.44,0,0,1-.14.34.5.5,0,0,1-.35.14.52.52,0,0,1-.35-.14.48.48,0,0,1-.14-.34.49.49,0,0,1,.14-.34.52.52,0,0,1,.35-.14.5.5,0,0,1,.35.14A.45.45,0,0,1,40.43,11.71Z"/><path class="cls-6" d="M42.59,17.2a.16.16,0,0,1-.06.12.17.17,0,0,1-.26,0,.18.18,0,0,1-.05-.12V8.55a.18.18,0,0,1,.31-.13.18.18,0,0,1,.06.13Z"/><path class="cls-6" d="M50.3,15.12l-.81,0h-.13l-1,0v-.28l.16,0a.27.27,0,0,0,.12-.09.15.15,0,0,0,.06-.11.17.17,0,0,0,0-.11l-.87-1.1-.7.86a.4.4,0,0,0-.1.18s0,.06,0,.1,0,.06,0,.1a.24.24,0,0,0,.26.19v.28l-.82,0h-.12l-.72,0v-.28a1.47,1.47,0,0,0,.67-.15.88.88,0,0,0,.29-.18l.25-.24.85-1-1.1-1.39-.15-.16a.42.42,0,0,0-.18-.11.68.68,0,0,0-.27-.05h-.31v-.28a7.87,7.87,0,0,0,.84,0h.11l.94,0v.28a.4.4,0,0,0-.29.11.21.21,0,0,0,0,.12.19.19,0,0,0,0,.1l.77,1,.6-.72a.44.44,0,0,0,.12-.3.28.28,0,0,0,0-.09.26.26,0,0,0-.1-.13.23.23,0,0,0-.16-.06v-.28c.27,0,.55,0,.82,0h.1a6.06,6.06,0,0,0,.73,0v.28a1.47,1.47,0,0,0-.67.15,1.41,1.41,0,0,0-.29.18,3,3,0,0,0-.25.25l-.74.9,1.2,1.52a1.14,1.14,0,0,0,.14.16.42.42,0,0,0,.18.11.78.78,0,0,0,.28.05h.31Z"/><line class="cls-7" x1="53.08" y1="12.46" x2="59.39" y2="12.46"/><path class="cls-6" d="M66.51,11.51a.78.78,0,0,0-.26,0,.64.64,0,0,0-.25.11.61.61,0,0,0-.2.19,1.12,1.12,0,0,0-.13.24l-1.61,3.8a3,3,0,0,1-.21.4,1.91,1.91,0,0,1-.27.35,1.27,1.27,0,0,1-.33.24.9.9,0,0,1-.4.09,1.26,1.26,0,0,1-.33,0,.92.92,0,0,1-.27-.16.58.58,0,0,1-.18-.23.6.6,0,0,1-.07-.3.34.34,0,0,1,.12-.28.44.44,0,0,1,.27-.09.43.43,0,0,1,.26.09.34.34,0,0,1,.12.28.31.31,0,0,1-.11.27.42.42,0,0,1-.26.1.41.41,0,0,0,.2.12.7.7,0,0,0,.25.05.72.72,0,0,0,.32-.08,1.25,1.25,0,0,0,.47-.48,3.18,3.18,0,0,0,.16-.32l.33-.77-1.38-3.28-.09-.16a.33.33,0,0,0-.13-.11.54.54,0,0,0-.24-.05H62v-.28a7.94,7.94,0,0,0,.85,0H63l.95,0v.28h-.23a.48.48,0,0,0-.21.07.21.21,0,0,0-.08.11v0a.44.44,0,0,0,0,.1l1,2.48,1-2.23a.41.41,0,0,0,0-.19v0a.37.37,0,0,0-.07-.2.42.42,0,0,0-.16-.13.78.78,0,0,0-.21,0v-.28l.75,0h.08a4.87,4.87,0,0,0,.66,0Z"/><path class="cls-6" d="M68.45,17.2a.16.16,0,0,1-.06.12.17.17,0,0,1-.26,0,.16.16,0,0,1-.06-.12V8.55a.18.18,0,0,1,.06-.13.19.19,0,0,1,.26,0,.18.18,0,0,1,.06.13Z"/><path class="cls-6" d="M74.58,11.5H72.33v-.11a0,0,0,0,1,0,0l.92-.9.34-.33c.11-.12.21-.23.3-.35a2.4,2.4,0,0,0,.22-.37,1.1,1.1,0,0,0,0-.74A1.25,1.25,0,0,0,74,8.39a.75.75,0,0,0-.6-.26.85.85,0,0,0-.52.16.81.81,0,0,0-.32.39h.14a.29.29,0,0,1,.13.05.28.28,0,0,1,.1.09A.29.29,0,0,1,73,9a.27.27,0,0,1-.1.21.38.38,0,0,1-.44,0,.24.24,0,0,1-.1-.21.88.88,0,0,1,.33-.7A1.07,1.07,0,0,1,73,8,1.23,1.23,0,0,1,73.46,8,1.79,1.79,0,0,1,74,8a1.34,1.34,0,0,1,.41.22,1.15,1.15,0,0,1,.26.33.88.88,0,0,1,0,.87,2,2,0,0,1-.32.39c-.13.12-.27.23-.41.34s-.28.21-.39.31l-.71.59h1.53l.13,0a.21.21,0,0,0,0-.07.5.5,0,0,0,0-.13s0-.1,0-.15l0-.13h.15Z"/><line class="cls-7" x1="77.54" y1="11.52" x2="83.84" y2="11.52"/><line class="cls-7" x1="77.54" y1="13.41" x2="83.84" y2="13.41"/><path class="cls-6" d="M91.1,15.12l-.81,0h-.12l-1,0v-.28l.15,0a.25.25,0,0,0,.13-.09.3.3,0,0,0,.06-.11.25.25,0,0,0,0-.11l-.87-1.1-.7.86a.4.4,0,0,0-.1.18s0,.06,0,.1,0,.06,0,.1a.24.24,0,0,0,.26.19v.28l-.82,0h-.13l-.71,0v-.28a1.47,1.47,0,0,0,.67-.15,1,1,0,0,0,.29-.18l.25-.24.85-1-1.1-1.39-.15-.16a.42.42,0,0,0-.18-.11.68.68,0,0,0-.27-.05H86.5v-.28a7.87,7.87,0,0,0,.84,0h.1c.32,0,.63,0,1,0v.28a.4.4,0,0,0-.29.11.16.16,0,0,0,0,.12.19.19,0,0,0,0,.1l.77,1,.59-.72a.41.41,0,0,0,.13-.3s0-.06,0-.09a.26.26,0,0,0-.1-.13.25.25,0,0,0-.17-.06v-.28l.83,0h.09a6.12,6.12,0,0,0,.74,0v.28a1.47,1.47,0,0,0-.67.15,1.19,1.19,0,0,0-.29.18,3,3,0,0,0-.25.25L89,13l1.2,1.52a.73.73,0,0,0,.14.16.42.42,0,0,0,.18.11.78.78,0,0,0,.28.05h.3Z"/><path class="cls-6" d="M94.18,11.5H91.92v-.11a0,0,0,0,1,0,0l.93-.9.33-.33c.11-.12.22-.23.31-.35a1.74,1.74,0,0,0,.21-.37A1,1,0,0,0,93.79,9a1.14,1.14,0,0,0-.05-.33,1.25,1.25,0,0,0-.15-.28.75.75,0,0,0-.6-.26.85.85,0,0,0-.52.16.81.81,0,0,0-.32.39h.14a.34.34,0,0,1,.14.05.26.26,0,0,1,.09.09.21.21,0,0,1,0,.14.24.24,0,0,1-.1.21.38.38,0,0,1-.44,0,.24.24,0,0,1-.1-.21A.82.82,0,0,1,92,8.57a1,1,0,0,1,.6-.53A1.27,1.27,0,0,1,93.05,8a1.79,1.79,0,0,1,.53.07,1.23,1.23,0,0,1,.41.22,1.15,1.15,0,0,1,.26.33.8.8,0,0,1,.1.41.82.82,0,0,1-.13.46,1.66,1.66,0,0,1-.32.39,4.62,4.62,0,0,1-.41.34l-.39.31-.7.59h1.52l.13,0s0,0,0-.07a.93.93,0,0,1,0-.13l0-.15,0-.13h.15Z"/><line class="cls-7" x1="97.14" y1="12.46" x2="103.44" y2="12.46"/><line class="cls-7" x1="100.29" y1="9.31" x2="100.29" y2="15.62"/><path class="cls-6" d="M110.56,11.51a.84.84,0,0,0-.27,0,.66.66,0,0,0-.24.11.61.61,0,0,0-.2.19,1.88,1.88,0,0,0-.14.24l-1.61,3.8a2.14,2.14,0,0,1-.2.4,1.91,1.91,0,0,1-.27.35,1.27,1.27,0,0,1-.33.24.9.9,0,0,1-.4.09,1.2,1.2,0,0,1-.33,0,.92.92,0,0,1-.27-.16.71.71,0,0,1-.19-.23.73.73,0,0,1-.07-.3.34.34,0,0,1,.12-.28.45.45,0,0,1,.54,0,.39.39,0,0,1,0,.55.42.42,0,0,1-.26.1.41.41,0,0,0,.2.12.7.7,0,0,0,.25.05.72.72,0,0,0,.32-.08,1.25,1.25,0,0,0,.47-.48,3.18,3.18,0,0,0,.16-.32l.33-.77-1.38-3.28-.09-.16a.3.3,0,0,0-.14-.11.54.54,0,0,0-.24-.05H106v-.28a8.25,8.25,0,0,0,.86,0H107l.95,0v.28h-.23a.48.48,0,0,0-.21.07.21.21,0,0,0-.08.11v0a.44.44,0,0,0,0,.1l1.05,2.48,1-2.23a.41.41,0,0,0,0-.19v0a.39.39,0,0,0-.08-.2.32.32,0,0,0-.15-.13.78.78,0,0,0-.21,0v-.28l.74,0h.09a4.87,4.87,0,0,0,.66,0Z"/><path class="cls-6" d="M113.63,11.5h-2.26v-.11a0,0,0,0,1,0,0l.93-.9.33-.33a3.25,3.25,0,0,0,.31-.35,1.74,1.74,0,0,0,.21-.37,1,1,0,0,0,.08-.41.88.88,0,0,0,0-.33.76.76,0,0,0-.15-.28.75.75,0,0,0-.6-.26.85.85,0,0,0-.52.16.87.87,0,0,0-.32.39h.14a.34.34,0,0,1,.14.05.2.2,0,0,1,.09.09A.21.21,0,0,1,112,9a.24.24,0,0,1-.1.21.41.41,0,0,1-.22.07.44.44,0,0,1-.22-.07.24.24,0,0,1-.1-.21.82.82,0,0,1,.09-.38,1,1,0,0,1,.6-.53A1.31,1.31,0,0,1,112.5,8,1.79,1.79,0,0,1,113,8a1.23,1.23,0,0,1,.41.22,1.4,1.4,0,0,1,.27.33.91.91,0,0,1,.09.41.82.82,0,0,1-.13.46,1.66,1.66,0,0,1-.32.39,3.53,3.53,0,0,1-.41.34l-.39.31-.7.59h1.52l.13,0a.13.13,0,0,0,0-.07s0-.08,0-.13l0-.15,0-.13h.15Z"/><line class="cls-7" x1="116.59" y1="12.46" x2="122.89" y2="12.46"/><path class="cls-6" d="M129.06,15.09h-3.53V14.9s0,0,0-.06L127,13.27c.17-.19.35-.38.52-.58a5.43,5.43,0,0,0,.48-.62,3.09,3.09,0,0,0,.34-.65,2,2,0,0,0,.12-.7,2.14,2.14,0,0,0-.08-.58,1.35,1.35,0,0,0-.24-.48,1.07,1.07,0,0,0-.39-.34,1.05,1.05,0,0,0-.54-.13,1.23,1.23,0,0,0-.81.28,1.44,1.44,0,0,0-.5.69.32.32,0,0,1,.14,0h.08a.49.49,0,0,1,.21.08.46.46,0,0,1,.15.16.48.48,0,0,1,.06.24.44.44,0,0,1-.16.37.54.54,0,0,1-.34.12.57.57,0,0,1-.35-.12.47.47,0,0,1-.16-.37,1.75,1.75,0,0,1,.14-.67,1.6,1.6,0,0,1,.38-.54,1.76,1.76,0,0,1,.56-.37,1.8,1.8,0,0,1,.69-.13,2.45,2.45,0,0,1,.83.13,1.94,1.94,0,0,1,.64.38,1.8,1.8,0,0,1,.41.58,1.66,1.66,0,0,1,.15.72,1.73,1.73,0,0,1-.2.81,3.21,3.21,0,0,1-.5.68,7.21,7.21,0,0,1-.64.59c-.22.18-.43.36-.61.54l-1.1,1h2l.42,0,.19,0a.22.22,0,0,0,.08-.13c0-.06,0-.14.06-.22s0-.17.05-.25,0-.17,0-.25h.23Z"/><path class="cls-6" d="M130.91,17.2a.15.15,0,0,1,0,.12.17.17,0,0,1-.26,0,.16.16,0,0,1-.06-.12V8.55a.18.18,0,0,1,.06-.13.19.19,0,0,1,.13-.05.21.21,0,0,1,.13.05.17.17,0,0,1,0,.13Z"/><path class="cls-6" d="M138.62,15.12l-.81,0h-.13l-.94,0v-.28l.15,0a.3.3,0,0,0,.13-.09.18.18,0,0,0,0-.11.17.17,0,0,0,0-.11l-.87-1.1-.69.86a.4.4,0,0,0-.1.18.31.31,0,0,0,0,.1.38.38,0,0,0,0,.1.23.23,0,0,0,.26.19v.28l-.83,0h-.12c-.24,0-.47,0-.71,0v-.28a1.4,1.4,0,0,0,.66-.15.92.92,0,0,0,.3-.18,2.72,2.72,0,0,0,.24-.24l.85-1-1.1-1.39a1.1,1.1,0,0,0-.15-.16.39.39,0,0,0-.17-.11.78.78,0,0,0-.28-.05H134v-.28a7.94,7.94,0,0,0,.85,0h.1l.95,0v.28a.38.38,0,0,0-.29.11.17.17,0,0,0-.06.12.14.14,0,0,0,0,.1l.77,1,.59-.72a.44.44,0,0,0,.12-.3.28.28,0,0,0,0-.09.24.24,0,0,0-.09-.13.25.25,0,0,0-.17-.06v-.28l.83,0h.09a6,6,0,0,0,.73,0v.28a1.5,1.5,0,0,0-.67.15,1.75,1.75,0,0,0-.29.18,1.88,1.88,0,0,0-.24.25l-.74.9,1.19,1.52a1.17,1.17,0,0,0,.15.16.42.42,0,0,0,.18.11.68.68,0,0,0,.27.05h.31Z"/><path class="cls-6" d="M140.49,17.2a.16.16,0,0,1-.06.12.17.17,0,0,1-.26,0,.15.15,0,0,1,0-.12V8.55a.17.17,0,0,1,0-.13.19.19,0,0,1,.26,0,.18.18,0,0,1,.06.13Z"/><path class="cls-6" d="M143,17.2a.21.21,0,0,1-.18.18.16.16,0,0,1-.13-.06.16.16,0,0,1-.06-.12V8.55a.21.21,0,0,1,0-.13.22.22,0,0,1,.14-.05.18.18,0,0,1,.12.05.18.18,0,0,1,.06.13Z"/><path class="cls-6" d="M150.62,11.51a.82.82,0,0,0-.26,0,.8.8,0,0,0-.25.11.72.72,0,0,0-.2.19,1.83,1.83,0,0,0-.13.24l-1.61,3.8a2.19,2.19,0,0,1-.21.4,1.91,1.91,0,0,1-.27.35,1.27,1.27,0,0,1-.33.24.87.87,0,0,1-.4.09,1.13,1.13,0,0,1-.32,0,.85.85,0,0,1-.28-.16.84.84,0,0,1-.18-.23.6.6,0,0,1-.07-.3.34.34,0,0,1,.12-.28.45.45,0,0,1,.54,0,.34.34,0,0,1,.12.28.32.32,0,0,1-.12.27.39.39,0,0,1-.25.1.37.37,0,0,0,.2.12.64.64,0,0,0,.24.05.69.69,0,0,0,.32-.08,1.05,1.05,0,0,0,.27-.2,1,1,0,0,0,.2-.28,1.91,1.91,0,0,0,.16-.32l.33-.77-1.38-3.28a.65.65,0,0,0-.09-.16.28.28,0,0,0-.13-.11.54.54,0,0,0-.24-.05h-.29v-.28a8.06,8.06,0,0,0,.85,0h.11l1,0v.28h-.24a.52.52,0,0,0-.21.07.19.19,0,0,0-.07.11v0a.2.2,0,0,0,0,.1l1.05,2.48.95-2.23a.41.41,0,0,0,.05-.19v0a.5.5,0,0,0-.08-.2.42.42,0,0,0-.16-.13.78.78,0,0,0-.21,0v-.28l.75,0H150a4.87,4.87,0,0,0,.66,0Z"/><path class="cls-6" d="M152.56,17.2a.18.18,0,0,1-.05.12.17.17,0,0,1-.26,0,.16.16,0,0,1-.06-.12V8.55a.18.18,0,0,1,.06-.13.19.19,0,0,1,.13-.05.17.17,0,0,1,.18.18Z"/><path class="cls-6" d="M159.35,14a1.24,1.24,0,0,1-.5.86,1.69,1.69,0,0,1-1,.32,2,2,0,0,1-1.41-.6A2,2,0,0,1,156,14a2.08,2.08,0,0,1-.15-.78,2.22,2.22,0,0,1,.15-.8,2.15,2.15,0,0,1,.44-.68,2.06,2.06,0,0,1,.64-.45,1.87,1.87,0,0,1,.77-.16,3,3,0,0,1,.52.05,2.09,2.09,0,0,1,.46.17,1.18,1.18,0,0,1,.33.3.69.69,0,0,1,.13.43.41.41,0,0,1-.13.31.48.48,0,0,1-.3.11.48.48,0,0,1-.29-.11.37.37,0,0,1-.13-.31.39.39,0,0,1,.14-.32.44.44,0,0,1,.27-.09h0a1.05,1.05,0,0,0-.43-.24,2.17,2.17,0,0,0-.59-.07.93.93,0,0,0-.5.14,1.15,1.15,0,0,0-.41.38,1.74,1.74,0,0,0-.25.63,4.08,4.08,0,0,0-.06.71,3.08,3.08,0,0,0,.08.68,1.57,1.57,0,0,0,.27.62,1.25,1.25,0,0,0,.42.37,1,1,0,0,0,.52.14,1.18,1.18,0,0,0,.81-.27,1.32,1.32,0,0,0,.43-.69.1.1,0,0,1,.08-.08h.08C159.33,14,159.35,14,159.35,14Z"/><path class="cls-6" d="M163.14,13.1a5.06,5.06,0,0,0,0-.68,1.39,1.39,0,0,0-.24-.62,1.33,1.33,0,0,0-.44-.38,1.25,1.25,0,0,0-1.11,0,1.33,1.33,0,0,0-.44.38,1.47,1.47,0,0,0-.24.61,5.32,5.32,0,0,0,0,.69,5.53,5.53,0,0,0,0,.71,1.55,1.55,0,0,0,.24.66,1.13,1.13,0,0,0,.43.38,1.26,1.26,0,0,0,.57.14,1.22,1.22,0,0,0,.56-.14,1.13,1.13,0,0,0,.43-.38,1.43,1.43,0,0,0,.24-.66A5.52,5.52,0,0,0,163.14,13.1Zm.77.1a2,2,0,0,1-.61,1.43,2.09,2.09,0,0,1-.66.43,1.88,1.88,0,0,1-.78.16A2.06,2.06,0,0,1,160,14a2,2,0,0,1-.15-.77,2.18,2.18,0,0,1,.15-.8,2,2,0,0,1,.45-.69,2.15,2.15,0,0,1,.66-.45,1.93,1.93,0,0,1,.79-.17,1.89,1.89,0,0,1,.78.17,2.07,2.07,0,0,1,1.11,1.14A2,2,0,0,1,163.91,13.2Z"/><path class="cls-6" d="M167.45,14a1.25,1.25,0,0,1-.1.51,1,1,0,0,1-.3.43,1.38,1.38,0,0,1-.53.26,2.79,2.79,0,0,1-.58.07,1.41,1.41,0,0,1-.57-.11,1.55,1.55,0,0,1-.43-.29l-.32.37-.07,0h0c-.06,0-.09,0-.09-.1V13.67s0-.06.07-.08h.1a.17.17,0,0,1,.06.06,2.25,2.25,0,0,0,.42,1,1,1,0,0,0,.86.37,1.57,1.57,0,0,0,.43,0,1,1,0,0,0,.37-.17.66.66,0,0,0,.19-.27.88.88,0,0,0,.06-.33.64.64,0,0,0-.23-.51,1.19,1.19,0,0,0-.57-.29l-.62-.12a2.16,2.16,0,0,1-.43-.14,1.28,1.28,0,0,1-.36-.22,1.11,1.11,0,0,1-.25-.32.77.77,0,0,1-.1-.4,1.06,1.06,0,0,1,.1-.46.89.89,0,0,1,.31-.36,1.28,1.28,0,0,1,.53-.24,3.66,3.66,0,0,1,.57-.05,1.32,1.32,0,0,1,.83.25l.26-.23.06,0h0c.06,0,.09,0,.09.08v1.17a.08.08,0,0,1-.09.09h0a.08.08,0,0,1-.09-.09,1.14,1.14,0,0,0-.28-.79,1,1,0,0,0-.77-.29,1.87,1.87,0,0,0-.42,0,.84.84,0,0,0-.38.15.56.56,0,0,0-.26.5.55.55,0,0,0,.22.43,1.31,1.31,0,0,0,.55.23l.62.12a1.9,1.9,0,0,1,.46.15,1.68,1.68,0,0,1,.37.27,1,1,0,0,1,.25.36A1,1,0,0,1,167.45,14Z"/><path class="cls-6" d="M168.68,12.12c0,.36,0,.71,0,1.05a3.94,3.94,0,0,0,.2,1c0,.11.08.22.13.33a1.17,1.17,0,0,0,.15.27.84.84,0,0,0,.2.18.44.44,0,0,0,.25.06.49.49,0,0,0,.45-.25,2.16,2.16,0,0,0,.29-.59,3.94,3.94,0,0,0,.2-1q0-.51,0-1.05Zm1.94-.26c0-.36,0-.71,0-1a4.21,4.21,0,0,0-.19-1,2.79,2.79,0,0,0-.29-.6.53.53,0,0,0-.45-.25.45.45,0,0,0-.25.07,1.12,1.12,0,0,0-.2.18,1.06,1.06,0,0,0-.15.28,3.05,3.05,0,0,0-.13.32,3.86,3.86,0,0,0-.2,1c0,.34,0,.69,0,1Zm.75.13a6.51,6.51,0,0,1-.11,1.16,4,4,0,0,1-.37,1.1,1.86,1.86,0,0,1-.22.35,1.67,1.67,0,0,1-.28.31,1.46,1.46,0,0,1-.33.22.91.91,0,0,1-.41.09.9.9,0,0,1-.4-.09,1.33,1.33,0,0,1-.34-.22,1.38,1.38,0,0,1-.28-.31,2.5,2.5,0,0,1-.21-.35,4.46,4.46,0,0,1-.37-1.1,6.51,6.51,0,0,1-.11-1.16,5.63,5.63,0,0,1,.11-1.16,4,4,0,0,1,.37-1.1,3.35,3.35,0,0,1,.21-.36,1.38,1.38,0,0,1,.28-.31,1.33,1.33,0,0,1,.34-.22.9.9,0,0,1,.4-.09.91.91,0,0,1,.41.09,1.46,1.46,0,0,1,.33.22,1.67,1.67,0,0,1,.28.31,3.48,3.48,0,0,1,.22.36,4,4,0,0,1,.37,1.1A6.42,6.42,0,0,1,171.37,12Z"/><path class="cls-6" d="M7,31.6c1.06-.21,2-.41,2.7-.58,0,.2,0,.38,0,.55-.69.14-1.53.33-2.5.58ZM8,29.86c.51-.06,1.06-.14,1.66-.24,0,.21-.06.4-.07.56-.63.08-1.4.2-2.29.35L7.13,30a10.62,10.62,0,0,0,1.21-1.51c-.49,0-.88.05-1.15.08L7,28A13.24,13.24,0,0,0,8.6,25.37l.58.22A23.4,23.4,0,0,1,7.74,28l.93,0q.3-.48.6-1l.57.27A27.18,27.18,0,0,1,8,29.86Zm1.56,2h2.19V30H10.05V29.5H14V30H12.33v1.83h2.16v.54h-5ZM10,26.3v-.54h3.71v.54a7.19,7.19,0,0,1-1.18,1.3c.78.39,1.48.77,2.11,1.14l-.39.51c-.66-.44-1.37-.87-2.15-1.29a8.84,8.84,0,0,1-2.34,1.28,2.6,2.6,0,0,0-.37-.52A7.28,7.28,0,0,0,13,26.3Z"/><path class="cls-6" d="M15.64,25.45a17.74,17.74,0,0,1,1.11,1.39,5.25,5.25,0,0,0-.55.36c-.35-.53-.7-1-1-1.43Zm1.79,2.84L17.9,28c.56.69,1,1.24,1.29,1.64l-.54.38C18.23,29.34,17.83,28.78,17.43,28.29Zm.64,3.65,2.07,0,2.34-.07c-.09.19-.17.39-.25.59l-2.25,0-2-.05a2.31,2.31,0,0,1-2-.85,9,9,0,0,0-.89.94l-.32-.63.94-.82V28.55H14.9V28h1.48v3.24A2.15,2.15,0,0,0,18.07,31.94Zm-.95-5.09h3.3V25.42h.63v1.43h1.32v.55H21.05v3.1a.85.85,0,0,1-1,1H18.92c0-.2-.06-.42-.11-.68q.61.06,1.14.06c.32,0,.48-.17.47-.52V27.4h-3.3Z"/><path class="cls-6" d="M24.23,27.29l.46.38c-.52.59-1,1.11-1.54,1.59a4.63,4.63,0,0,0-.45-.42A11.82,11.82,0,0,0,24.23,27.29Zm3.91.37.42-.35c.66.57,1.2,1.08,1.62,1.51l-.48.42C29.21,28.69,28.68,28.17,28.14,27.66ZM28,29.81h-2.9a4.22,4.22,0,0,0,1.33,1.27A6.16,6.16,0,0,0,28,29.81Zm-5.22-3.47h3.5c-.15-.28-.3-.52-.43-.72l.55-.27c.25.38.43.66.52.84l-.29.15h3.49v.53H27.68V29h-.59V26.87H25.85V29h-.59v-2.1H22.82Zm.74,3.47V29.3h5.23v.51A7,7,0,0,1,27,31.4a9.21,9.21,0,0,0,3.26.72c-.18.25-.33.46-.44.63a9.59,9.59,0,0,1-3.42-1,13.71,13.71,0,0,1-3.39,1.07,5.44,5.44,0,0,0-.39-.55,14,14,0,0,0,3.23-.88,5.58,5.58,0,0,1-1.45-1.56Z"/><path class="cls-6" d="M36.33,26.68H34.38a12,12,0,0,1-.82,1h1.91ZM33.86,30h1.2a14.83,14.83,0,0,0,.06-1.74H33.86ZM37,28.23H35.67c0,.63,0,1.21-.05,1.74H37Zm-6.5,1.14,1-.3V27.34h-.9v-.51h.9V25.44H32v1.39h.87v.51H32v1.54l.8-.29c0,.25,0,.44,0,.59l-.81.29v2.41c0,.51-.24.78-.71.8h-.76c0-.21-.07-.41-.1-.62a7.09,7.09,0,0,0,.71,0c.18,0,.27-.11.27-.32V29.68l-.88.32Zm2.18.6h.67V28l-.45-.34a8.35,8.35,0,0,0,1.62-2.25l.62.11a7.69,7.69,0,0,1-.39.69H37v.5c-.2.24-.5.59-.91,1.05h1.38V30h.62v.51H35.74a3,3,0,0,0,2.35,1.65,5.13,5.13,0,0,0-.46.61,3.59,3.59,0,0,1-2.24-1.87c-.29.78-1.14,1.42-2.57,1.93a3.44,3.44,0,0,0-.43-.55c1.48-.42,2.32-1,2.54-1.77H32.64Z"/><path class="cls-6" d="M39.93,30.72a.48.48,0,0,1-.14.34.5.5,0,0,1-.35.14.52.52,0,0,1-.35-.14.48.48,0,0,1,0-.68.52.52,0,0,1,.35-.14.5.5,0,0,1,.35.14A.48.48,0,0,1,39.93,30.72Z"/><path class="cls-6" d="M42.44,30.72a.45.45,0,0,1-.15.34.48.48,0,0,1-.34.14.48.48,0,0,1-.35-.14.46.46,0,0,1,0-.68.48.48,0,0,1,.35-.14.48.48,0,0,1,.34.14A.45.45,0,0,1,42.44,30.72Z"/><path class="cls-6" d="M44.94,30.72a.48.48,0,0,1-.14.34.51.51,0,0,1-.7,0,.48.48,0,0,1,0-.68.51.51,0,0,1,.7,0A.48.48,0,0,1,44.94,30.72Z"/><path class="cls-6" d="M47.71,31.18a2.24,2.24,0,0,1-.21,1,2.6,2.6,0,0,1-.58.79l-.06,0-.06,0,0,0s0,0,0,0a.13.13,0,0,1,0-.07,2.11,2.11,0,0,0,.53-.73,2,2,0,0,0,.19-.87.17.17,0,0,0,0-.07V31a.5.5,0,0,1-.38.16.47.47,0,0,1-.37-.15.51.51,0,0,1,0-.66.47.47,0,0,1,.37-.15.46.46,0,0,1,.29.09.84.84,0,0,1,.18.23,1.32,1.32,0,0,1,.1.3A1.82,1.82,0,0,1,47.71,31.18Z"/><path class="cls-6" d="M55.53,30.26,56,30c.29.37.53.71.73,1l-.48.31A10.51,10.51,0,0,0,55.53,30.26Zm3-4.09.36-.39c.41.28.8.57,1.18.87l-.4.44A12.37,12.37,0,0,0,58.55,26.17ZM53.81,30.1l.5.19A9.43,9.43,0,0,1,53.45,32,3.07,3.07,0,0,0,53,31.7,8.41,8.41,0,0,0,53.81,30.1Zm2.19-2H54v1.08h2Zm-3-1.67h1.9a8,8,0,0,0-.49-.82l.52-.24a8,8,0,0,1,.5.83l-.49.23h2v.51H53Zm.46,1.17h3v2.25H56v-.18h-.72v2.22a.68.68,0,0,1-.78.76h-.68A2.85,2.85,0,0,0,53.7,32a5.36,5.36,0,0,0,.7.05c.23,0,.34-.11.34-.33V29.65H54v.18h-.54Zm3.25,0h.81q0-.6,0-2.13h.56c0,.95,0,1.65,0,2.13h2.25v.54H59v3.59c0,.23.1.35.29.35h.25c.22,0,.35-.15.39-.44a6.82,6.82,0,0,0,.1-1.15l.58.23c0,.44-.09.81-.13,1.1a.81.81,0,0,1-.86.8h-.52c-.44,0-.66-.27-.66-.79V28.08h-.34a6.7,6.7,0,0,1-1.74,4.73l-.44-.43a6.09,6.09,0,0,0,1.63-4.3h-.79Z"/><path class="cls-6" d="M66.8,28.25H62.92v.89H66.8Zm-3.88,2.29H66.8v-.89H62.92Zm0,2.2h-.61V28.87a12.9,12.9,0,0,1-1.23,1.22,5.3,5.3,0,0,0-.37-.55A9.37,9.37,0,0,0,63,26.86h-2.1v-.55h2.39a8,8,0,0,0,.38-1l.64.15c-.1.27-.22.55-.34.81h4.35v.55H63.72a8.18,8.18,0,0,1-.52.86h4.22v4a.82.82,0,0,1-.94.92H65.25c0-.17-.07-.37-.12-.61.47,0,.85.05,1.14.05a.46.46,0,0,0,.53-.51v-.53H62.92Z"/><path class="cls-6" d="M70.71,30.72a.44.44,0,0,1-.14.34.5.5,0,0,1-.35.14.52.52,0,0,1-.35-.14.48.48,0,0,1,0-.68.52.52,0,0,1,.35-.14.5.5,0,0,1,.35.14A.44.44,0,0,1,70.71,30.72Zm0-2.93a.42.42,0,0,1-.14.34.5.5,0,0,1-.35.14.52.52,0,0,1-.35-.14.46.46,0,0,1-.14-.34.45.45,0,0,1,.14-.33.49.49,0,0,1,.35-.15.47.47,0,0,1,.35.15A.42.42,0,0,1,70.71,27.79Z"/><rect class="cls-8" x="73.3" y="23.39" width="78.5" height="10.32"/><path class="cls-6" d="M82.34,31.2q-.41,0-.81,0h-.12l-1,0v-.28l.15,0a.25.25,0,0,0,.13-.09.24.24,0,0,0,.06-.11.21.21,0,0,0,0-.1l-.87-1.1-.7.85a.4.4,0,0,0-.1.18.31.31,0,0,0,0,.1.38.38,0,0,0,0,.1.24.24,0,0,0,.26.19v.28l-.83,0H78.4l-.71,0v-.28a1.6,1.6,0,0,0,.67-.14,1.32,1.32,0,0,0,.29-.19,2.83,2.83,0,0,0,.25-.24l.85-1-1.1-1.4-.15-.16a.42.42,0,0,0-.18-.11.72.72,0,0,0-.27,0h-.31v-.29a7.87,7.87,0,0,0,.84,0h.1c.32,0,.63,0,.95,0v.29a.39.39,0,0,0-.29.1.16.16,0,0,0,0,.12.19.19,0,0,0,0,.1l.77,1,.59-.72a.45.45,0,0,0,.13-.3s0-.06,0-.09a.31.31,0,0,0-.1-.13.25.25,0,0,0-.17,0v-.29l.83,0h.09a6.23,6.23,0,0,0,.74,0v.29a1.46,1.46,0,0,0-.67.14,1.49,1.49,0,0,0-.3.18,2.83,2.83,0,0,0-.24.25l-.74.9,1.19,1.53.15.16a.4.4,0,0,0,.18.1,1.07,1.07,0,0,0,.27.06h.31Z"/><path class="cls-6" d="M86.52,28.54A.56.56,0,1,1,86,28,.56.56,0,0,1,86.52,28.54Z"/><path class="cls-6" d="M94.09,27.6l-.26,0a.8.8,0,0,0-.25.11.9.9,0,0,0-.2.19c0,.08-.09.16-.13.24L91.64,32a3,3,0,0,1-.2.4,2.53,2.53,0,0,1-.28.35,1.07,1.07,0,0,1-.33.24.76.76,0,0,1-.4.09.9.9,0,0,1-.59-.2.88.88,0,0,1-.19-.24.59.59,0,0,1-.07-.29A.36.36,0,0,1,89.7,32a.45.45,0,0,1,.54,0,.36.36,0,0,1,.12.29.32.32,0,0,1-.12.27.46.46,0,0,1-.25.1.56.56,0,0,0,.2.12.93.93,0,0,0,.24,0,.66.66,0,0,0,.32-.08,1.05,1.05,0,0,0,.27-.2,1,1,0,0,0,.2-.28,3.24,3.24,0,0,0,.17-.32l.32-.77-1.38-3.28a.89.89,0,0,0-.09-.16.28.28,0,0,0-.13-.11.54.54,0,0,0-.24,0h-.29v-.29a8.06,8.06,0,0,0,.85,0h.11q.48,0,1,0v.29h-.24a.52.52,0,0,0-.21.07.19.19,0,0,0-.07.11v0a.2.2,0,0,0,0,.1l1,2.49,1-2.24a.41.41,0,0,0,0-.19h0a.44.44,0,0,0-.08-.2.34.34,0,0,0-.16-.13.46.46,0,0,0-.21,0v-.29c.26,0,.5,0,.75,0h.09a4.82,4.82,0,0,0,.65,0Z"/><line class="cls-7" x1="96.7" y1="27.6" x2="103" y2="27.6"/><line class="cls-7" x1="96.7" y1="29.49" x2="103" y2="29.49"/><path class="cls-6" d="M106,33.28a.14.14,0,0,1-.06.12.17.17,0,0,1-.26,0,.14.14,0,0,1-.06-.12V24.63a.14.14,0,0,1,.06-.12.16.16,0,0,1,.13-.06.18.18,0,0,1,.13.06.14.14,0,0,1,.06.12Z"/><path class="cls-6" d="M113.69,31.2q-.41,0-.81,0h-.13l-.94,0v-.28l.15,0a.27.27,0,0,0,.12-.09.14.14,0,0,0,.06-.11.14.14,0,0,0,0-.1l-.87-1.1-.69.85a.4.4,0,0,0-.1.18.31.31,0,0,0,0,.1.38.38,0,0,0,0,.1.23.23,0,0,0,.26.19v.28l-.83,0h-.12c-.24,0-.47,0-.71,0v-.28a1.53,1.53,0,0,0,.66-.14,1.17,1.17,0,0,0,.3-.19,1.81,1.81,0,0,0,.24-.24l.85-1-1.1-1.4-.15-.16a.45.45,0,0,0-.17-.11.78.78,0,0,0-.28,0h-.31v-.29a7.94,7.94,0,0,0,.85,0h.1l1,0v.29a.38.38,0,0,0-.29.1.17.17,0,0,0-.06.12.14.14,0,0,0,0,.1l.77,1,.59-.72a.44.44,0,0,0,.12-.3.28.28,0,0,0,0-.09.28.28,0,0,0-.09-.13.26.26,0,0,0-.17,0v-.29c.28,0,.55,0,.83,0h.09a6,6,0,0,0,.73,0v.29a1.49,1.49,0,0,0-.67.14,1.75,1.75,0,0,0-.29.18,1.88,1.88,0,0,0-.24.25l-.74.9,1.19,1.53.15.16a.4.4,0,0,0,.18.1.9.9,0,0,0,.27.06h.31Z"/><path class="cls-6" d="M115.56,33.28a.14.14,0,0,1-.06.12.17.17,0,0,1-.26,0,.14.14,0,0,1-.06-.12V24.63a.14.14,0,0,1,.06-.12.17.17,0,0,1,.26,0,.14.14,0,0,1,.06.12Z"/><path class="cls-6" d="M118.06,33.28a.14.14,0,0,1-.06.12.16.16,0,0,1-.13.06.16.16,0,0,1-.12-.06.14.14,0,0,1-.06-.12V24.63a.17.17,0,0,1,0-.12.18.18,0,0,1,.13-.06.16.16,0,0,1,.13.06.14.14,0,0,1,.06.12Z"/><path class="cls-6" d="M125.69,27.6l-.26,0a.8.8,0,0,0-.25.11.9.9,0,0,0-.2.19c0,.08-.09.16-.13.24L123.24,32a2.19,2.19,0,0,1-.21.4,1.91,1.91,0,0,1-.27.35,1.07,1.07,0,0,1-.33.24.76.76,0,0,1-.4.09.86.86,0,0,1-.32,0,1.06,1.06,0,0,1-.28-.15,1.08,1.08,0,0,1-.18-.24.59.59,0,0,1-.07-.29.36.36,0,0,1,.12-.29.45.45,0,0,1,.54,0,.36.36,0,0,1,.12.29.32.32,0,0,1-.12.27.49.49,0,0,1-.25.1.56.56,0,0,0,.2.12.93.93,0,0,0,.24,0,.69.69,0,0,0,.32-.08,1.05,1.05,0,0,0,.27-.2,1,1,0,0,0,.2-.28A1.91,1.91,0,0,0,123,32l.33-.77-1.38-3.28a.89.89,0,0,0-.09-.16.28.28,0,0,0-.13-.11.54.54,0,0,0-.24,0h-.29v-.29a8.06,8.06,0,0,0,.85,0h.11c.32,0,.63,0,1,0v.29h-.24a.48.48,0,0,0-.21.07.19.19,0,0,0-.07.11v0a.2.2,0,0,0,0,.1l1.05,2.49.95-2.24a.41.41,0,0,0,.05-.19h0a.44.44,0,0,0-.08-.2.34.34,0,0,0-.16-.13.52.52,0,0,0-.21,0v-.29c.26,0,.5,0,.75,0H125a4.87,4.87,0,0,0,.66,0Z"/><path class="cls-6" d="M127.63,33.28a.17.17,0,0,1,0,.12.17.17,0,0,1-.26,0,.14.14,0,0,1-.06-.12V24.63a.14.14,0,0,1,.06-.12.16.16,0,0,1,.13-.06.18.18,0,0,1,.13.06.17.17,0,0,1,0,.12Z"/><path class="cls-6" d="M134.42,30.13a1.22,1.22,0,0,1-.5.85,1.69,1.69,0,0,1-1,.32,1.83,1.83,0,0,1-.77-.16,1.88,1.88,0,0,1-.64-.44A2,2,0,0,1,131,30a2.08,2.08,0,0,1-.15-.78,2.22,2.22,0,0,1,.15-.8,2,2,0,0,1,.44-.68,2.06,2.06,0,0,1,.64-.45,2,2,0,0,1,.77-.16,2.24,2.24,0,0,1,.52.06,1.41,1.41,0,0,1,.46.17,1,1,0,0,1,.33.29.71.71,0,0,1,.13.43.39.39,0,0,1-.13.31.43.43,0,0,1-.3.11.42.42,0,0,1-.29-.11.36.36,0,0,1-.13-.31.37.37,0,0,1,.14-.32.44.44,0,0,1,.27-.09h0a1,1,0,0,0-.43-.23,1.83,1.83,0,0,0-.59-.08,1,1,0,0,0-.5.14,1.24,1.24,0,0,0-.41.38,1.7,1.7,0,0,0-.25.63,4.17,4.17,0,0,0-.06.71,3.84,3.84,0,0,0,.07.69,1.78,1.78,0,0,0,.28.61,1.21,1.21,0,0,0,.41.37,1,1,0,0,0,.53.14,1.2,1.2,0,0,0,.81-.27,1.32,1.32,0,0,0,.43-.69.08.08,0,0,1,.08-.07h.08C134.4,30.06,134.42,30.08,134.42,30.13Z"/><path class="cls-6" d="M138.21,29.18a5.06,5.06,0,0,0-.05-.68,1.43,1.43,0,0,0-.24-.62,1.3,1.3,0,0,0-.44-.37,1.17,1.17,0,0,0-1.11,0,1.3,1.3,0,0,0-.44.37,1.39,1.39,0,0,0-.24.62,5.06,5.06,0,0,0-.05.68,5.81,5.81,0,0,0,.05.72,1.56,1.56,0,0,0,.24.65,1.13,1.13,0,0,0,.43.38,1.21,1.21,0,0,0,1.13,0,1.13,1.13,0,0,0,.43-.38,1.56,1.56,0,0,0,.24-.65A5.81,5.81,0,0,0,138.21,29.18Zm.77.1a2.09,2.09,0,0,1-.16.78,1.9,1.9,0,0,1-.45.65,1.93,1.93,0,0,1-.66.43,1.88,1.88,0,0,1-.78.16,2.09,2.09,0,0,1-.79-.15,2.12,2.12,0,0,1-.66-.44,1.85,1.85,0,0,1-.45-.66,2,2,0,0,1-.15-.77,2.22,2.22,0,0,1,.15-.8,2.07,2.07,0,0,1,1.11-1.14,1.9,1.9,0,0,1,1.57,0,2.07,2.07,0,0,1,1.11,1.14A2.24,2.24,0,0,1,139,29.28Z"/><path class="cls-6" d="M142.52,30a1.32,1.32,0,0,1-.1.51,1,1,0,0,1-.3.42,1.25,1.25,0,0,1-.53.26,2.3,2.3,0,0,1-.58.07,1.41,1.41,0,0,1-.57-.11,1.36,1.36,0,0,1-.43-.29l-.32.37a.08.08,0,0,1-.07,0h0a.08.08,0,0,1-.09-.09V29.76c0-.05,0-.07.07-.08h.1a.09.09,0,0,1,.06.06,2.21,2.21,0,0,0,.42,1,1,1,0,0,0,.86.38,2.1,2.1,0,0,0,.43-.05.84.84,0,0,0,.37-.17.7.7,0,0,0,.19-.26,1,1,0,0,0,.06-.34.64.64,0,0,0-.23-.51,1.1,1.1,0,0,0-.57-.28l-.63-.13a2,2,0,0,1-.42-.13,1.31,1.31,0,0,1-.36-.23,1.07,1.07,0,0,1-.25-.31.79.79,0,0,1-.1-.4,1.1,1.1,0,0,1,.1-.47,1,1,0,0,1,.31-.36,1.15,1.15,0,0,1,.53-.23,2.76,2.76,0,0,1,.57-.06,1.39,1.39,0,0,1,.83.25l.26-.23.06,0h0c.06,0,.09,0,.09.08v1.17a.08.08,0,0,1-.09.09h0c-.06,0-.09,0-.09-.09a1.14,1.14,0,0,0-.28-.79,1,1,0,0,0-.77-.29,2,2,0,0,0-.43,0,.85.85,0,0,0-.37.15A.57.57,0,0,0,140,28a.55.55,0,0,0,.22.42,1.46,1.46,0,0,0,.55.24l.62.11a1.9,1.9,0,0,1,.46.15,2.07,2.07,0,0,1,.37.27,1.11,1.11,0,0,1,.25.36A1,1,0,0,1,142.52,30Z"/><path class="cls-6" d="M143.75,28.21c0,.35,0,.7,0,1a4.35,4.35,0,0,0,.21,1,2.53,2.53,0,0,0,.12.33,1.75,1.75,0,0,0,.16.27.67.67,0,0,0,.2.18.43.43,0,0,0,.25.07.53.53,0,0,0,.45-.25,2.38,2.38,0,0,0,.28-.6,3.48,3.48,0,0,0,.2-1c0-.34,0-.69,0-1Zm1.94-.27c0-.36,0-.7,0-1.05a3.86,3.86,0,0,0-.2-1,2.7,2.7,0,0,0-.28-.59.51.51,0,0,0-.7-.19.89.89,0,0,0-.2.19,1.17,1.17,0,0,0-.15.27,3.05,3.05,0,0,0-.13.32,4.35,4.35,0,0,0-.21,1c0,.35,0,.69,0,1.05Zm.75.13a6.42,6.42,0,0,1-.11,1.16,4,4,0,0,1-.37,1.1,2.56,2.56,0,0,1-.22.35,1.67,1.67,0,0,1-.28.31,1.11,1.11,0,0,1-.34.22.87.87,0,0,1-.4.09,1,1,0,0,1-.41-.09A1.19,1.19,0,0,1,144,31a1.38,1.38,0,0,1-.28-.31,2.5,2.5,0,0,1-.21-.35,4,4,0,0,1-.37-1.1,5.63,5.63,0,0,1-.11-1.16,6.49,6.49,0,0,1,.1-1.16,4.11,4.11,0,0,1,.38-1.1,3.35,3.35,0,0,1,.21-.36,1.64,1.64,0,0,1,.28-.31,1.46,1.46,0,0,1,.33-.22,1.11,1.11,0,0,1,.41-.08,1,1,0,0,1,.4.08,1.33,1.33,0,0,1,.34.22,2.8,2.8,0,0,1,.28.31c.08.12.15.24.22.36a4.08,4.08,0,0,1,.37,1.1A6.51,6.51,0,0,1,146.44,28.07Z"/><path class="cls-6" d="M7.14,42.3h2v-.83h.6v.83h2.32v-.82h.62v.82h1.9v.53H12.7v.73h-.62v-.73H9.76v.69h-.6v-.69h-2Zm5.88,4H9.21v1.58H13ZM7.16,44.11H10a6.63,6.63,0,0,0,.48-.81l.55.22c-.09.19-.2.39-.32.59H14.5v.53H10.34a8.43,8.43,0,0,1-1,1.1h4.28v3.11H13v-.47H9.21v.48h-.6V46.35a13.1,13.1,0,0,1-1.16.8A4.08,4.08,0,0,0,7,46.69a9.19,9.19,0,0,0,2.6-2H7.16Z"/><path class="cls-6" d="M19.64,44.8h-2v1.55h2ZM17,44.26h3.18v2.63h-2.6v.51H17ZM16,48.77h-.6V42.63h2.27c.13-.37.26-.75.37-1.16l.67.18c-.14.35-.27.68-.4,1h3.6v5.26a.76.76,0,0,1-.87.85l-1.17,0c0-.17-.06-.37-.1-.58.44,0,.81,0,1.12,0a.37.37,0,0,0,.42-.43V43.19H16Z"/><path class="cls-6" d="M24.37,45.71H26.2v-.48H24.37Zm4.22-.48H26.74v.48h1.85Zm-4.22,1.32H26.2v-.48H24.37Zm2.37,0h1.85v-.48H26.74Zm1.8-4.38H24.43v.4h4.11Zm-4.11,1.16h4.11v-.41H24.43Zm-1.7.75h7.51v.4H22.73Zm1.18-2.3h5.15v2.14h-.52v-.2H24.43v.2h-.52Zm-1.24,6.4H26.2v-.42H23.12v-.39H26.2v-.43H24.37v.2h-.52v-2.3h5.27v2.3h-.53v-.2H26.74v.43h3.09v.39H26.74v.42h3.53v.41h-7.6Z"/><path class="cls-6" d="M35.1,47.28q-.41,0-.81,0h-.12l-1,0V47a.39.39,0,0,0,.15,0,.24.24,0,0,0,.13-.09.16.16,0,0,0,0-.11.14.14,0,0,0,0-.1l-.86-1.1-.7.85a.46.46,0,0,0-.1.18.5.5,0,0,0,0,.2.23.23,0,0,0,.26.19v.28l-.83,0h-.12l-.71,0V47a1.46,1.46,0,0,0,.67-.14,1.32,1.32,0,0,0,.29-.19,1.36,1.36,0,0,0,.24-.24l.85-1L31.41,44l-.15-.15a.41.41,0,0,0-.18-.12,1.08,1.08,0,0,0-.27,0H30.5V43.4l.84,0,.1,0,.95,0v.28a.38.38,0,0,0-.29.1.17.17,0,0,0-.06.12.18.18,0,0,0,0,.1l.77,1,.59-.73a.44.44,0,0,0,.12-.3.25.25,0,0,0,0-.08.26.26,0,0,0-.09-.14.31.31,0,0,0-.17,0V43.4l.83,0,.09,0c.24,0,.49,0,.74,0v.28a1.57,1.57,0,0,0-.67.14A1.17,1.17,0,0,0,34,44a1.36,1.36,0,0,0-.24.24l-.74.91,1.19,1.52.15.16a.54.54,0,0,0,.18.11,1.08,1.08,0,0,0,.27,0h.31Z"/><path class="cls-6" d="M35.27,46.78a9.5,9.5,0,0,0,1.39-2.52H35.31v-.51h1.47V42.57l-1.21.17c0-.17-.1-.34-.17-.52a25.37,25.37,0,0,0,3.1-.51l.18.53-1.31.24v1.27h1.44v.51H37.37v1l.28-.27c.4.34.8.7,1.19,1.08l-.44.43c-.31-.34-.65-.7-1-1.06v3.48h-.59V45.3a9.23,9.23,0,0,1-1.22,2.12C35.48,47.23,35.38,47,35.27,46.78ZM42,43H39.81v4.43H42Zm-2.79-.55h3.4v6.25H42v-.73H39.81v.73h-.62Z"/><path class="cls-6" d="M47.67,43.68l-.26,0a1.12,1.12,0,0,0-.25.11.76.76,0,0,0-.2.2,1,1,0,0,0-.13.23l-1.61,3.81a2.56,2.56,0,0,1-.21.4,2.24,2.24,0,0,1-.27.34,1.11,1.11,0,0,1-.33.25.91.91,0,0,1-.72,0,.84.84,0,0,1-.28-.15.89.89,0,0,1-.18-.24.54.54,0,0,1-.07-.29.36.36,0,0,1,.12-.29.45.45,0,0,1,.54,0,.36.36,0,0,1,.12.29.32.32,0,0,1-.12.27.49.49,0,0,1-.25.1.62.62,0,0,0,.19.12.69.69,0,0,0,.25,0,.59.59,0,0,0,.32-.08,1,1,0,0,0,.27-.19,1.79,1.79,0,0,0,.2-.28,3.18,3.18,0,0,0,.16-.32l.33-.78L43.91,44a.6.6,0,0,0-.09-.15.25.25,0,0,0-.13-.12.72.72,0,0,0-.24,0h-.29V43.4l.85,0,.11,0,1,0v.28h-.24a.38.38,0,0,0-.21.07.16.16,0,0,0-.07.11v0a.34.34,0,0,0,0,.1l1,2.49,1-2.24a.37.37,0,0,0,0-.18v0a.38.38,0,0,0-.23-.33.52.52,0,0,0-.21,0V43.4l.75,0,.08,0c.22,0,.44,0,.66,0Z"/><path class="cls-6" d="M52.9,47.88h2v-.82h-2Zm2-2.1h-2v.82h2ZM58,44.48a2.49,2.49,0,0,1,1,2c0,.79-.34,1.23-1,1.31a4.56,4.56,0,0,1-1,0c0-.18-.06-.4-.1-.65a4.44,4.44,0,0,0,.85.1c.5,0,.73-.31.67-.92a2.62,2.62,0,0,0-1.12-1.67c.28-.54.61-1.25,1-2.12H56.81v6.38h-.57v-6.9h2.69v.58C58.65,43.19,58.35,43.84,58,44.48ZM51.5,44h1.66V43H51.78v-.49h1.38v-1h.56v1h1.13V43H53.72v1h.39a8.5,8.5,0,0,0,1.32-1.74l.52.28A10.66,10.66,0,0,1,54.83,44H56v.5H54.36a12,12,0,0,1-.91.82h2V48.8h-.56v-.45h-2v.46h-.55v-2.7l-.53.34a4.74,4.74,0,0,0-.38-.5,11,11,0,0,0,2.14-1.46H51.5Z"/><path class="cls-6" d="M64.19,44.43c1,.57,1.89,1.14,2.78,1.73l-.44.59c-1.06-.76-2-1.36-2.72-1.81Zm-4.73-2.29h7.33v.58H64c-.25.42-.57.91-1,1.48h.44v4.69h-.66V44.43a12.92,12.92,0,0,1-3.1,2.69,6.77,6.77,0,0,0-.43-.54,11.73,11.73,0,0,0,3.91-3.86H59.46Z"/><path class="cls-6" d="M73,42.28H68.93v.65H73Zm-4.06,1.8H73v-.65H68.93ZM68.73,46l.58.17a6.09,6.09,0,0,1-.28.75A2.4,2.4,0,0,0,70.78,48V45.76H67.27v-.52h7.4v.52H71.39v.75h2.74V47H71.39v1c1,0,2.13,0,3.43,0-.09.21-.16.41-.22.59q-2.26,0-3.48,0a2.59,2.59,0,0,1-2.35-1.17,4.6,4.6,0,0,1-1.33,1.5c-.11-.15-.23-.32-.38-.49A4,4,0,0,0,68.73,46Zm-.39-4.22h5.24v3.12H73v-.3H68.93v.3h-.59Z"/><path class="cls-6" d="M79.63,43.63h1.59v.43H79.63Zm-3.38,0h1.6v.43h-1.6Zm3.38.8h1.68v.43H79.63Zm-3.48,0h1.7v.43h-1.7Zm3,0-.1.13a7,7,0,0,0,3.56,1.6c-.15.21-.28.41-.38.58a8.62,8.62,0,0,1-3.5-1.83,11.14,11.14,0,0,1-3.54,2l-.34-.52a9.13,9.13,0,0,0,3.68-1.91Zm-2.33,3.39.24-.46,1.66.52L80.17,47H76.35v-.48h2.49c-.2-.25-.44-.52-.69-.8l.43-.32c.25.26.49.53.73.81l-.45.31H81v.56l-1.62,1,1,.33-.24.51C78.83,48.49,77.76,48.12,76.86,47.85Zm-1.53-5.07h3.12v-.45H75.57v-.48h6.28v.48H79v.45h3.21v1.39h-.57v-.91H79v1.05h-.58V43.26H75.9v.91h-.57Z"/><path class="cls-6" d="M87.59,44.8h-2v1.55h2ZM85,44.26h3.18v2.63h-2.6v.51H85Zm-1.06,4.51h-.6V42.63H85.6c.13-.37.25-.75.37-1.16l.66.18c-.13.35-.26.68-.39,1h3.6v5.26a.76.76,0,0,1-.87.85l-1.17,0c0-.17-.06-.37-.1-.58.44,0,.81,0,1.12,0a.37.37,0,0,0,.42-.43V43.19H83.93Z"/><path class="cls-6" d="M92.32,45.71h1.83v-.48H92.32Zm4.22-.48H94.69v.48h1.85Zm-4.22,1.32h1.83v-.48H92.32Zm2.37,0h1.85v-.48H94.69Zm1.8-4.38H92.38v.4h4.11Zm-4.11,1.16h4.11v-.41H92.38Zm-1.7.75h7.51v.4H90.68Zm1.18-2.3H97v2.14h-.52v-.2H92.38v.2h-.52Zm-1.24,6.4h3.53v-.42H91.06v-.39h3.09v-.43H92.32v.2H91.8v-2.3h5.27v2.3h-.53v-.2H94.69v.43h3.09v.39H94.69v.42h3.53v.41h-7.6Z"/><path class="cls-6" d="M102.5,44.76l.47-.33a21.34,21.34,0,0,1,1.36,1.7l-.57.38A18.09,18.09,0,0,0,102.5,44.76Zm-1.41-1.48H99.36V45.1h1.73Zm-1.73,4.25h1.73V45.64H99.36Zm2.46-3.27A10.9,10.9,0,0,0,103,41.48l.65.16c-.13.37-.26.73-.4,1.06h2.48c-.06,2.56-.11,4.18-.15,4.84a1.11,1.11,0,0,1-1.27,1.17c-.47,0-.95,0-1.43,0a5.41,5.41,0,0,0-.12-.67h0a10.48,10.48,0,0,0,1.41.11.68.68,0,0,0,.75-.72c.06-.74.1-2.12.13-4.13H103a9.29,9.29,0,0,1-.69,1.27A3.23,3.23,0,0,0,101.82,44.26Zm-3.08-1.54h.78c.19-.45.35-.86.47-1.24l.65.18c-.17.38-.32.74-.47,1.06h1.54v6h-.62v-.59H99.36v.64h-.62Z"/><path class="cls-6" d="M107,41.6c.56.56,1,1,1.21,1.24l-.54.44A14,14,0,0,0,106.57,42ZM108.81,47c0,.27,0,.49,0,.66-.58.38-1.1.74-1.55,1.09l-.36-.5a.84.84,0,0,0,.26-.67V44.6h-1v-.54h1.56v3.59C108.07,47.49,108.4,47.26,108.81,47Zm3.78-.88h-2.87v1.71h2.87Zm-3.47-.54h1.72V44.29h-2.48v-.55h2.48V42.49l-2,.11a5.54,5.54,0,0,0-.14-.55c1.7-.07,3.26-.17,4.67-.31l.14.55c-.61.06-1.29.11-2,.16v1.29h2.39v.55h-2.39v1.25h1.74v3.32h-.6v-.54h-2.87v.54h-.6Z"/><path class="cls-6" d="M116,47.26a2.24,2.24,0,0,1-.21,1,2.45,2.45,0,0,1-.57.79l-.07,0-.06,0,0,0a.05.05,0,0,1,0,0,.09.09,0,0,1,0-.06,2.24,2.24,0,0,0,.53-.74,2,2,0,0,0,.19-.87v-.07a.17.17,0,0,1,0-.07.46.46,0,0,1-.38.16.43.43,0,0,1-.36-.15.48.48,0,0,1,0-.66.46.46,0,0,1,.36-.14.44.44,0,0,1,.29.09.55.55,0,0,1,.18.22,1,1,0,0,1,.1.3A1.82,1.82,0,0,1,116,47.26Z"/><path class="cls-6" d="M125,48.6c-.51-.51-1.06-1-1.66-1.53a3.86,3.86,0,0,1-1.84,1.84c-.11-.16-.24-.32-.39-.5a3.12,3.12,0,0,0,1.85-2,16.14,16.14,0,0,0,.19-3.34h.59a15.87,15.87,0,0,1-.21,3.5c.61.47,1.26,1,2,1.61Zm-3.3-6.66h3.42v4.83h-.59V42.48h-2.24v4.29h-.59Zm5,5h-.6V42.29h.6Zm1-5.28h.62v6.22a.82.82,0,0,1-.92.92h-1.2c0-.17-.07-.4-.13-.67.53.05.9.07,1.13.07a.42.42,0,0,0,.5-.48Z"/><path class="cls-6" d="M135.06,44.33h-3.88v.89h3.88Zm-3.88,2.3h3.88v-.9h-3.88Zm0,2.2h-.6V45a14.23,14.23,0,0,1-1.24,1.21c-.1-.17-.23-.36-.37-.55A9.34,9.34,0,0,0,131.29,43h-2.1v-.56h2.39a7,7,0,0,0,.38-1l.64.14c-.1.28-.22.55-.34.81h4.35V43H132c-.16.29-.33.58-.52.86h4.22v4a.82.82,0,0,1-.93.93h-1.24c0-.17-.07-.38-.12-.62.47,0,.85.05,1.14.05s.53-.16.53-.5v-.53h-3.88Z"/><path class="cls-6" d="M139,46.8a.49.49,0,0,1-1,0,.45.45,0,0,1,.14-.33.51.51,0,0,1,.7,0A.45.45,0,0,1,139,46.8Zm0-2.92a.45.45,0,0,1-.14.33.51.51,0,0,1-.7,0,.45.45,0,0,1-.14-.33.49.49,0,0,1,1,0Z"/><rect class="cls-8" x="7.12" y="55.55" width="76.91" height="21.44"/><path class="cls-6" d="M12.26,65.94c0,.35,0,.7,0,1a3.94,3.94,0,0,0,.2,1,3.24,3.24,0,0,0,.13.33,1.73,1.73,0,0,0,.15.27.67.67,0,0,0,.2.18.55.55,0,0,0,.25.07.53.53,0,0,0,.45-.25A2.39,2.39,0,0,0,14,68a3.94,3.94,0,0,0,.2-1c0-.34,0-.69,0-1Zm1.94-.27c0-.36,0-.71,0-1a4.21,4.21,0,0,0-.19-1,2.5,2.5,0,0,0-.29-.59.52.52,0,0,0-.45-.26.55.55,0,0,0-.25.07.89.89,0,0,0-.2.19,1.13,1.13,0,0,0-.15.27,3.05,3.05,0,0,0-.13.32,3.86,3.86,0,0,0-.2,1c0,.34,0,.69,0,1Zm.75.13A6.42,6.42,0,0,1,14.84,67a4,4,0,0,1-.37,1.1,1.86,1.86,0,0,1-.22.35,1.67,1.67,0,0,1-.28.31,1.19,1.19,0,0,1-.33.22.91.91,0,0,1-.41.09.9.9,0,0,1-.4-.09,1.11,1.11,0,0,1-.34-.22,1.67,1.67,0,0,1-.28-.31,2.5,2.5,0,0,1-.21-.35,4.32,4.32,0,0,1-.37-1.1,6.46,6.46,0,0,1,0-2.32,4.35,4.35,0,0,1,.38-1.1,3.35,3.35,0,0,1,.21-.36,2.06,2.06,0,0,1,.28-.31,1.33,1.33,0,0,1,.34-.22.9.9,0,0,1,.4-.08.91.91,0,0,1,.41.08,1.46,1.46,0,0,1,.33.22,2.06,2.06,0,0,1,.28.31,3.48,3.48,0,0,1,.22.36,4,4,0,0,1,.37,1.1A6.42,6.42,0,0,1,15,65.8Z"/><line class="cls-7" x1="17.56" y1="65.33" x2="23.86" y2="65.33"/><line class="cls-7" x1="17.56" y1="67.22" x2="23.86" y2="67.22"/><path class="cls-6" d="M29.08,66.76q-.34,0-.69.09a2,2,0,0,0-.64.26,1.15,1.15,0,0,0-.41.41,1,1,0,0,0-.16.55.6.6,0,0,0,.07.3.81.81,0,0,0,.17.24,1,1,0,0,0,.26.16.87.87,0,0,0,.32.06,1,1,0,0,0,.42-.09,1,1,0,0,0,.35-.23,1.18,1.18,0,0,0,.23-.35,1.06,1.06,0,0,0,.08-.43Zm1.56,1.44a.73.73,0,0,1-.06.3,1.32,1.32,0,0,1-.16.25.74.74,0,0,1-.25.17.73.73,0,0,1-.3.06.61.61,0,0,1-.49-.22.84.84,0,0,1-.21-.53,1.37,1.37,0,0,1-.47.57A1.21,1.21,0,0,1,28,69a2.48,2.48,0,0,1-.54-.06,1.88,1.88,0,0,1-.49-.16,1.14,1.14,0,0,1-.35-.3.7.7,0,0,1-.13-.44,1,1,0,0,1,.23-.66,1.8,1.8,0,0,1,.56-.46,3.18,3.18,0,0,1,.89-.28c.31,0,.62-.08.93-.1v-.39a1.14,1.14,0,0,0-.07-.41.82.82,0,0,0-.21-.36.85.85,0,0,0-.67-.31,1.63,1.63,0,0,0-.59.1,1,1,0,0,0-.42.3h.05a.52.52,0,0,1,.27.07.37.37,0,0,1,.15.33.34.34,0,0,1-.14.31.44.44,0,0,1-.28.1.47.47,0,0,1-.3-.1.36.36,0,0,1-.13-.31.8.8,0,0,1,.12-.43,1.08,1.08,0,0,1,.32-.32,1.85,1.85,0,0,1,.45-.19,2.08,2.08,0,0,1,1.1,0,1.8,1.8,0,0,1,.53.28,1.49,1.49,0,0,1,.34.41,1,1,0,0,1,.13.5v2a.77.77,0,0,0,.08.34.29.29,0,0,0,.26.15.26.26,0,0,0,.25-.15.67.67,0,0,0,.09-.34v-.58h.23Z"/><path class="cls-6" d="M34,65.5a.35.35,0,0,1-.12.3.42.42,0,0,1-.28.1.41.41,0,0,1-.27-.1.35.35,0,0,1-.12-.3.37.37,0,0,1,.06-.21.37.37,0,0,1,.15-.13h-.09a.82.82,0,0,0-.47.14,1.07,1.07,0,0,0-.35.38,1.9,1.9,0,0,0-.21.54,3.2,3.2,0,0,0-.07.63v1.48a.47.47,0,0,0,0,.17c0,.05.06.09.11.1a1,1,0,0,0,.35,0h.4v.28L32,68.9h-.17c-.32,0-.63,0-.95,0v-.28h.33a.62.62,0,0,0,.27,0,.18.18,0,0,0,.1-.11.78.78,0,0,0,0-.16V65.83a1.77,1.77,0,0,0,0-.24.31.31,0,0,0-.11-.19.59.59,0,0,0-.27-.07h-.33V65L32.2,65v1a1.83,1.83,0,0,1,.41-.72,1,1,0,0,1,.73-.28.86.86,0,0,1,.46.14A.48.48,0,0,1,34,65.5Z"/><path class="cls-6" d="M38.06,67.85a1.28,1.28,0,0,1-.5.86,1.71,1.71,0,0,1-1,.32,1.91,1.91,0,0,1-.78-.16,2.15,2.15,0,0,1-.64-.44,1.93,1.93,0,0,1-.43-.66,2.08,2.08,0,0,1-.15-.78,2.45,2.45,0,0,1,.14-.8,2.15,2.15,0,0,1,.44-.68,2.18,2.18,0,0,1,.64-.45,2.09,2.09,0,0,1,.78-.16A2.22,2.22,0,0,1,37,65a1.56,1.56,0,0,1,.46.16,1,1,0,0,1,.33.3.69.69,0,0,1,.13.43.36.36,0,0,1-.13.31.48.48,0,0,1-.29.11.44.44,0,0,1-.29-.11.37.37,0,0,1-.14-.31.39.39,0,0,1,.14-.32.44.44,0,0,1,.27-.09h0a1.15,1.15,0,0,0-.44-.23,1.81,1.81,0,0,0-.58-.08.94.94,0,0,0-.51.14,1.12,1.12,0,0,0-.4.38,1.59,1.59,0,0,0-.26.63,5.52,5.52,0,0,0-.05.71,3.17,3.17,0,0,0,.07.69,1.75,1.75,0,0,0,.27.61,1.35,1.35,0,0,0,.42.37,1.07,1.07,0,0,0,.52.14,1.21,1.21,0,0,0,.82-.27,1.38,1.38,0,0,0,.43-.69s0-.07.08-.07H38C38,67.79,38.06,67.81,38.06,67.85Z"/><path class="cls-6" d="M42.1,67.85a1.28,1.28,0,0,1-.5.86,1.71,1.71,0,0,1-1,.32,1.83,1.83,0,0,1-.77-.16,2.07,2.07,0,0,1-.65-.44,1.93,1.93,0,0,1-.43-.66,2.08,2.08,0,0,1-.15-.78,2.22,2.22,0,0,1,.15-.8,2,2,0,0,1,.43-.68,2.1,2.1,0,0,1,.65-.45,2,2,0,0,1,.77-.16,2.22,2.22,0,0,1,.51.06,1.56,1.56,0,0,1,.46.16,1.1,1.1,0,0,1,.34.3.75.75,0,0,1,.12.43.36.36,0,0,1-.13.31.48.48,0,0,1-.29.11.46.46,0,0,1-.29-.11.37.37,0,0,1-.14-.31.39.39,0,0,1,.14-.32.46.46,0,0,1,.27-.09h0a1.08,1.08,0,0,0-.44-.23,1.77,1.77,0,0,0-.58-.08.94.94,0,0,0-.51.14,1.21,1.21,0,0,0-.4.38,1.57,1.57,0,0,0-.25.63,4.17,4.17,0,0,0-.06.71,3.17,3.17,0,0,0,.07.69,1.61,1.61,0,0,0,.28.61,1.32,1.32,0,0,0,.41.37,1.07,1.07,0,0,0,.52.14,1.21,1.21,0,0,0,.82-.27,1.38,1.38,0,0,0,.43-.69.08.08,0,0,1,.08-.07H42S42.1,67.81,42.1,67.85Z"/><path class="cls-6" d="M45.88,66.91a3.82,3.82,0,0,0-.05-.68,1.39,1.39,0,0,0-.24-.62,1.3,1.3,0,0,0-.43-.38,1.27,1.27,0,0,0-1.12,0,1.3,1.3,0,0,0-.43.38,1.39,1.39,0,0,0-.24.62,5.06,5.06,0,0,0,0,.68,5.79,5.79,0,0,0,0,.72,1.45,1.45,0,0,0,.25.65,1.13,1.13,0,0,0,.43.38,1.19,1.19,0,0,0,.56.14,1.26,1.26,0,0,0,.57-.14,1.1,1.1,0,0,0,.42-.38,1.45,1.45,0,0,0,.25-.65A5.79,5.79,0,0,0,45.88,66.91Zm.77.1a2,2,0,0,1-.15.77,2,2,0,0,1-.46.66,2,2,0,0,1-.65.43,2,2,0,0,1-1.58,0,2.14,2.14,0,0,1-.66-.43,1.85,1.85,0,0,1-.45-.66,2,2,0,0,1-.15-.77,2.18,2.18,0,0,1,.15-.8,2.29,2.29,0,0,1,.45-.69,2.15,2.15,0,0,1,.66-.45,1.92,1.92,0,0,1,1.58,0,2.1,2.1,0,0,1,.65.45,2.38,2.38,0,0,1,.46.69A2.18,2.18,0,0,1,46.65,67Z"/><path class="cls-6" d="M50.19,67.77a1.43,1.43,0,0,1-.09.5,1,1,0,0,1-.3.43,1.25,1.25,0,0,1-.53.26,2.32,2.32,0,0,1-.59.07,1.36,1.36,0,0,1-.56-.11,1.42,1.42,0,0,1-.43-.29l-.32.37a.1.1,0,0,1-.08,0h0a.08.08,0,0,1-.09-.09V67.48s0-.06.07-.08h.1a.13.13,0,0,1,.06.07,2.38,2.38,0,0,0,.41,1,1,1,0,0,0,.86.38,2,2,0,0,0,.43,0,.79.79,0,0,0,.37-.17.6.6,0,0,0,.2-.27.88.88,0,0,0,.06-.33.68.68,0,0,0-.23-.51,1.18,1.18,0,0,0-.57-.28l-.63-.13a1.88,1.88,0,0,1-.42-.14,1.28,1.28,0,0,1-.36-.22,1.1,1.1,0,0,1-.26-.31.9.9,0,0,1-.09-.4,1.07,1.07,0,0,1,.1-.47.87.87,0,0,1,.3-.36,1.19,1.19,0,0,1,.53-.23,2.91,2.91,0,0,1,.57-.06,1.4,1.4,0,0,1,.84.25l.26-.23.06,0h0c.06,0,.09,0,.09.08v1.17a.08.08,0,0,1-.09.09h0a.08.08,0,0,1-.09-.09,1.13,1.13,0,0,0-.27-.79,1,1,0,0,0-.78-.29,2,2,0,0,0-.42,0,.81.81,0,0,0-.37.15.54.54,0,0,0-.26.5.53.53,0,0,0,.22.43,1.31,1.31,0,0,0,.55.23l.62.12a1.7,1.7,0,0,1,.45.15,1.84,1.84,0,0,1,.38.27,1.16,1.16,0,0,1,.25.36A1.13,1.13,0,0,1,50.19,67.77Z"/><line class="cls-7" x1="52.32" y1="66.27" x2="77.77" y2="66.27"/><path class="cls-6" d="M61.5,63.36l-.81,0h-.13l-1,0v-.27l.15,0a.2.2,0,0,0,.13-.08.2.2,0,0,0,.06-.11.25.25,0,0,0,0-.11L59,61.66l-.7.85a.54.54,0,0,0-.1.18s0,.07,0,.11,0,.06,0,.1a.24.24,0,0,0,.26.19v.27l-.82,0h-.13l-.71,0v-.27a1.47,1.47,0,0,0,.67-.15,1.75,1.75,0,0,0,.29-.18,3,3,0,0,0,.25-.25l.85-1-1.1-1.39-.15-.16a.44.44,0,0,0-.18-.12.7.7,0,0,0-.27,0h-.31v-.28c.28,0,.56,0,.84,0h.1c.32,0,.63,0,1,0v.28a.4.4,0,0,0-.29.11.15.15,0,0,0-.05.11.23.23,0,0,0,0,.11l.77,1,.59-.72A.41.41,0,0,0,60,60S60,60,60,60a.26.26,0,0,0-.1-.13.25.25,0,0,0-.16-.06v-.28c.27,0,.55,0,.82,0h.09a6.12,6.12,0,0,0,.74,0v.28a1.47,1.47,0,0,0-.67.15.79.79,0,0,0-.29.18,2,2,0,0,0-.25.25l-.74.9,1.2,1.52a1.07,1.07,0,0,0,.14.16.42.42,0,0,0,.18.11.78.78,0,0,0,.28,0h.31Z"/><path class="cls-6" d="M65.67,60.71a.56.56,0,1,1-1.11,0,.56.56,0,0,1,1.11,0Z"/><path class="cls-6" d="M73.24,59.76a.82.82,0,0,0-.26,0,.66.66,0,0,0-.24.11.64.64,0,0,0-.21.19,1.36,1.36,0,0,0-.13.24l-1.61,3.8a2.14,2.14,0,0,1-.2.4,3.3,3.3,0,0,1-.28.35,1.12,1.12,0,0,1-.33.24.87.87,0,0,1-.4.09,1.13,1.13,0,0,1-.32,0A.72.72,0,0,1,69,65a.71.71,0,0,1-.19-.23.6.6,0,0,1-.07-.3.32.32,0,0,1,.12-.28.41.41,0,0,1,.54,0,.32.32,0,0,1,.12.28.32.32,0,0,1-.12.27.39.39,0,0,1-.25.1.56.56,0,0,0,.2.12.67.67,0,0,0,.24,0,.66.66,0,0,0,.32-.07,1.05,1.05,0,0,0,.27-.2,1.46,1.46,0,0,0,.21-.28l.16-.32.32-.78-1.38-3.27a.51.51,0,0,0-.09-.16.3.3,0,0,0-.13-.12.55.55,0,0,0-.24,0h-.29v-.28c.28,0,.57,0,.85,0h.11q.48,0,1,0v.28h-.24a.43.43,0,0,0-.2.07.17.17,0,0,0-.08.11v0a.23.23,0,0,0,0,.11l1,2.48,1-2.23a.41.41,0,0,0,0-.19v0a.39.39,0,0,0-.08-.2A.34.34,0,0,0,72,59.8a.46.46,0,0,0-.21,0v-.28l.75,0h.09a4.82,4.82,0,0,0,.65,0Z"/><path class="cls-6" d="M53.64,76.57a.18.18,0,0,1-.06.13.19.19,0,0,1-.26,0,.17.17,0,0,1,0-.13V67.92a.15.15,0,0,1,0-.12.17.17,0,0,1,.26,0,.16.16,0,0,1,.06.12Z"/><path class="cls-6" d="M61.34,74.49q-.41,0-.81,0h-.12l-.95,0v-.28a.39.39,0,0,0,.15,0,.25.25,0,0,0,.13-.09A.24.24,0,0,0,59.8,74a.21.21,0,0,0,0-.1l-.87-1.1-.7.85a.46.46,0,0,0-.1.18.51.51,0,0,0,0,.2.24.24,0,0,0,.26.19v.28l-.83,0H57.4l-.71,0v-.28a1.46,1.46,0,0,0,.67-.14,1.32,1.32,0,0,0,.29-.19,1.88,1.88,0,0,0,.25-.24l.85-1-1.1-1.4-.15-.15a.36.36,0,0,0-.18-.12,1,1,0,0,0-.27,0h-.31v-.28l.84,0,.1,0,1,0v.28a.39.39,0,0,0-.29.1.17.17,0,0,0-.06.12.18.18,0,0,0,0,.1l.77,1,.59-.73a.45.45,0,0,0,.13-.3s0,0,0-.08a.28.28,0,0,0-.1-.14.31.31,0,0,0-.17,0v-.28l.83,0,.09,0c.24,0,.49,0,.74,0v.28a1.6,1.6,0,0,0-.67.14,1.17,1.17,0,0,0-.3.19,1.81,1.81,0,0,0-.24.24l-.74.91,1.19,1.52.15.16a.54.54,0,0,0,.18.11,1.08,1.08,0,0,0,.27,0h.31Z"/><path class="cls-6" d="M63.21,76.57a.18.18,0,0,1-.06.13.18.18,0,0,1-.31-.13V67.92a.18.18,0,0,1,0-.12.17.17,0,0,1,.26,0,.16.16,0,0,1,.06.12Z"/><path class="cls-6" d="M65.71,76.57a.18.18,0,0,1-.31.13.18.18,0,0,1-.06-.13V67.92a.16.16,0,0,1,.06-.12.16.16,0,0,1,.13-.06.18.18,0,0,1,.13.06.18.18,0,0,1,0,.12Z"/><path class="cls-6" d="M73.34,70.89l-.26,0a.88.88,0,0,0-.24.11.91.91,0,0,0-.2.19,1.49,1.49,0,0,0-.14.24l-1.61,3.81a2.49,2.49,0,0,1-.2.4,2.24,2.24,0,0,1-.27.34,1.11,1.11,0,0,1-.33.25,1,1,0,0,1-.41.09.87.87,0,0,1-.32-.06.7.7,0,0,1-.27-.15.88.88,0,0,1-.19-.24.65.65,0,0,1-.07-.29.36.36,0,0,1,.12-.29.45.45,0,0,1,.54,0,.36.36,0,0,1,.12.29.32.32,0,0,1-.12.27.46.46,0,0,1-.25.1.56.56,0,0,0,.2.12.67.67,0,0,0,.24,0,.66.66,0,0,0,.32-.08,1,1,0,0,0,.27-.19,1.86,1.86,0,0,0,.21-.28c.06-.11.11-.22.16-.32l.32-.78-1.38-3.28a.6.6,0,0,0-.09-.15.22.22,0,0,0-.13-.12.72.72,0,0,0-.24,0h-.29v-.28l.85,0,.12,0,1,0v.28h-.24a.37.37,0,0,0-.2.07.15.15,0,0,0-.08.11v0a.36.36,0,0,0,0,.1l1,2.49,1-2.24a.38.38,0,0,0,0-.19h0a.36.36,0,0,0-.08-.2.37.37,0,0,0-.15-.13.54.54,0,0,0-.22,0v-.28l.75,0,.09,0c.21,0,.43,0,.65,0Z"/><path class="cls-6" d="M75.29,76.57a.18.18,0,0,1-.06.13.19.19,0,0,1-.26,0,.17.17,0,0,1,0-.13V67.92a.15.15,0,0,1,0-.12.17.17,0,0,1,.26,0,.16.16,0,0,1,.06.12Z"/><path class="cls-6" d="M91.37,65h.35l-.67.74c-.14.14-.38.35-.71.64h7.32l-.16.45H90.18a3.35,3.35,0,0,1,.43,1.38h-.36a4.94,4.94,0,0,0-.68-1,2.83,2.83,0,0,0-.69-.55l.07-.2a5.28,5.28,0,0,0,1-.5A15.86,15.86,0,0,0,91.37,65Z"/><path class="cls-6" d="M102.68,63.34l.53-.26c.16.24.35.54.56.92l-.55.28C103,63.91,102.84,63.6,102.68,63.34Zm-3.18-.07q.39.46,1.08,1.41l-.55.38c-.41-.64-.76-1.12-1-1.47Zm1.32,1H106v.53h-5.2Zm.43,1.48.37-.39c.51.39,1.13.89,1.85,1.48a6.7,6.7,0,0,0,1.19-1.94l.58.27a8.23,8.23,0,0,1-1.3,2l1.83,1.51-.48.5-1.77-1.56A7.73,7.73,0,0,1,101,69.3c-.1-.14-.22-.31-.38-.5a7.42,7.42,0,0,0,2.4-1.5C102.31,66.65,101.7,66.14,101.25,65.78Zm.44,3.94,2,0,2.51-.08c0,.17-.13.37-.21.59H103.5l-1.88,0a2,2,0,0,1-1.84-.86,11.74,11.74,0,0,0-.93,1l-.31-.62,1-.92V66.34h-.91v-.56h1.51V69A1.74,1.74,0,0,0,101.69,69.72Z"/><path class="cls-6" d="M109,68l.44-.27c.29.37.53.71.73,1l-.48.31A10.51,10.51,0,0,0,109,68Zm3-4.09.36-.39c.41.28.8.57,1.18.87l-.4.44C112.91,64.6,112.53,64.29,112,63.9Zm-4.74,3.92.5.2a9.32,9.32,0,0,1-.86,1.67,3.11,3.11,0,0,0-.49-.26A8.77,8.77,0,0,0,107.27,67.82Zm2.19-2h-2v1.08h2Zm-3-1.67h1.9a9.41,9.41,0,0,0-.49-.83l.52-.23a8,8,0,0,1,.5.83l-.5.23h2v.51h-3.94Zm.46,1.17h3v2.25h-.53v-.18h-.72V69.6a.68.68,0,0,1-.78.76l-.68,0a2.9,2.9,0,0,0-.12-.57,5.36,5.36,0,0,0,.7,0,.3.3,0,0,0,.34-.34v-2.1h-.71v.18H107Zm3.25,0H111c0-.4,0-1.11,0-2.13h.57c0,1,0,1.65,0,2.13h2.25v.54h-1.37v3.58c0,.24.1.36.29.36H113q.33,0,.39-.45a7.9,7.9,0,0,0,.1-1.14l.58.22c0,.45-.09.82-.13,1.1a.81.81,0,0,1-.86.8h-.52q-.66,0-.66-.78V65.81h-.34a6.75,6.75,0,0,1-1.75,4.73c-.13-.14-.27-.29-.43-.44A6,6,0,0,0,111,65.81h-.78Z"/><path class="cls-6" d="M120.08,63.93H116v.65h4.06ZM116,65.73h4.06v-.66H116Zm-.2,1.91.58.17a5.4,5.4,0,0,1-.28.74,2.41,2.41,0,0,0,1.75,1.11V67.4h-3.51v-.52h7.4v.52h-3.28v.75h2.74v.51h-2.74v1c1,0,2.13,0,3.43,0-.09.22-.16.41-.22.59-1.51,0-2.67,0-3.48,0a2.59,2.59,0,0,1-2.35-1.17,4.68,4.68,0,0,1-1.33,1.49c-.11-.15-.23-.31-.38-.49A4,4,0,0,0,115.82,67.64Zm-.39-4.22h5.24v3.12h-.59v-.3H116v.3h-.59Z"/><path class="cls-6" d="M130.2,68.93q-.4,0-.81,0h-.12l-1,0v-.28l.15,0a.3.3,0,0,0,.13-.09.18.18,0,0,0,.05-.11.17.17,0,0,0,0-.11l-.86-1.1-.7.86a.4.4,0,0,0-.1.18.31.31,0,0,0,0,.1.38.38,0,0,0,0,.1.23.23,0,0,0,.26.19v.28l-.83,0h-.12l-.71,0v-.28a1.47,1.47,0,0,0,.67-.15,1,1,0,0,0,.29-.18,2.72,2.72,0,0,0,.24-.24l.85-1-1.09-1.39-.15-.16a.49.49,0,0,0-.18-.11.76.76,0,0,0-.27,0h-.31V65a7.63,7.63,0,0,0,.84,0h.1l.95,0v.28a.38.38,0,0,0-.29.11.17.17,0,0,0-.06.12.21.21,0,0,0,0,.1l.77,1,.59-.72a.44.44,0,0,0,.12-.3.28.28,0,0,0,0-.09.28.28,0,0,0-.09-.13.25.25,0,0,0-.17-.06V65l.83,0h.09a6,6,0,0,0,.73,0v.28a1.5,1.5,0,0,0-.67.15,1.75,1.75,0,0,0-.29.18,1.88,1.88,0,0,0-.24.25l-.74.9,1.19,1.52a1.17,1.17,0,0,0,.15.16.42.42,0,0,0,.18.11.72.72,0,0,0,.27,0h.31Z"/><polygon class="cls-6" points="129.87 63.24 128.7 63.97 128.36 63.97 128.86 63.41 125.98 63.41 125.98 63.07 128.86 63.07 128.36 62.51 128.7 62.51 129.87 63.24"/><path class="cls-6" d="M133.9,68.42a9.47,9.47,0,0,0,1.4-2.51H134V65.4h1.47V64.22l-1.22.16a4.35,4.35,0,0,0-.17-.51,30.11,30.11,0,0,0,3.11-.51l.17.52c-.42.09-.86.17-1.31.24V65.4h1.44v.51H136v1l.28-.27c.41.34.8.7,1.19,1.08l-.43.44c-.31-.35-.66-.7-1-1.06v3.48h-.58V67a9.45,9.45,0,0,1-1.22,2.12C134.11,68.87,134,68.66,133.9,68.42Zm6.71-3.82h-2.17V69h2.17Zm-2.78-.55h3.4v6.24h-.62v-.72h-2.17v.72h-.61Z"/><path class="cls-6" d="M149.84,65.32a1.27,1.27,0,0,0-.26,0,.66.66,0,0,0-.24.11.77.77,0,0,0-.21.19c0,.08-.09.16-.13.24l-1.61,3.8a3,3,0,0,1-.2.4,2.53,2.53,0,0,1-.28.35,1.27,1.27,0,0,1-.33.24.87.87,0,0,1-.4.09.9.9,0,0,1-.59-.2.88.88,0,0,1-.19-.24.6.6,0,0,1-.07-.3.34.34,0,0,1,.12-.28.45.45,0,0,1,.54,0,.34.34,0,0,1,.12.28.32.32,0,0,1-.12.27.39.39,0,0,1-.25.1.46.46,0,0,0,.2.13.93.93,0,0,0,.24,0,.66.66,0,0,0,.32-.08,1.05,1.05,0,0,0,.27-.2A1.21,1.21,0,0,0,147,70c.05-.1.11-.21.16-.32l.32-.77-1.38-3.28a.65.65,0,0,0-.09-.16.28.28,0,0,0-.13-.11.54.54,0,0,0-.24,0h-.29V65a8.06,8.06,0,0,0,.85,0h.11q.48,0,1,0v.28H147a.43.43,0,0,0-.2.07.17.17,0,0,0-.08.11v0a.2.2,0,0,0,0,.1l1.05,2.49.95-2.24a.41.41,0,0,0,.05-.19v0a.41.41,0,0,0-.08-.19.29.29,0,0,0-.16-.13.46.46,0,0,0-.21-.05V65l.75,0h.09a4.82,4.82,0,0,0,.65,0Z"/><polygon class="cls-6" points="149.59 63.24 148.42 63.97 148.08 63.97 148.57 63.41 145.7 63.41 145.7 63.07 148.57 63.07 148.08 62.51 148.42 62.51 149.59 63.24"/><path class="cls-6" d="M157.72,66.41l.47-.34c.57.66,1,1.22,1.36,1.7l-.57.39A16.94,16.94,0,0,0,157.72,66.41Zm-1.41-1.48h-1.73v1.82h1.73Zm-1.73,4.25h1.73V67.29h-1.73ZM157,65.9a10.82,10.82,0,0,0,1.23-2.77l.64.15c-.13.38-.26.74-.4,1.07H161q-.09,3.84-.15,4.83a1.12,1.12,0,0,1-1.27,1.18c-.47,0-.94,0-1.43,0a5.23,5.23,0,0,0-.12-.66h0a10.59,10.59,0,0,0,1.41.1.69.69,0,0,0,.76-.71c0-.75.09-2.12.12-4.13h-2.06a13.24,13.24,0,0,1-.69,1.27A2.69,2.69,0,0,0,157,65.9ZM154,64.37h.77c.19-.45.35-.87.47-1.24l.65.18c-.16.38-.32.73-.47,1.06h1.54v5.95h-.62v-.58h-1.73v.63H154Z"/><path class="cls-6" d="M162.39,65.43l.45-.36c.37.35.77.75,1.21,1.2l-.51.43C163.18,66.27,162.8,65.85,162.39,65.43Zm4,.85a12.88,12.88,0,0,0,1.28-1.23l.52.45q-.52.5-1.38,1.2ZM161.47,70c1.89-.64,3-1.43,3.34-2.38h-3.26v-.52h3.36c0-.43,0-1.21,0-2.33h-3.09V64.2h3.1v-1h.67c0,.37,0,.72,0,1h3.13v.53H165.6c0,1.18,0,2,0,2.33h3.47v.52h-3.34a4.46,4.46,0,0,0,3.41,2.25c-.19.22-.35.42-.49.6a4.72,4.72,0,0,1-3.33-2.55q-.62,1.53-3.36,2.64A4.8,4.8,0,0,0,161.47,70Z"/><path class="cls-6" d="M170.91,65.62v1h2v-1Zm0,2.47H173v-1h-2C170.91,67.46,170.89,67.78,170.86,68.09Zm2.69,0h2.15v-1h-2.15Zm2.15-2.47h-2.15v1h2.15Zm-1.52-1.33h-2.71a10.55,10.55,0,0,1-.71.79h2.72Zm-4.89,1.3a8.66,8.66,0,0,0,2.33-2.54l.62.17c-.12.18-.24.37-.37.54H175v.53l-.74.79h2.09v4.38a.8.8,0,0,1-.89.92h-1.11c0-.19-.07-.39-.11-.62.37,0,.7,0,1,0s.51-.15.51-.44v-.74h-2.15v1.73H173V68.61h-2.17a3.75,3.75,0,0,1-.87,2c-.15-.17-.3-.34-.46-.5a4.15,4.15,0,0,0,.85-3V65.52a6,6,0,0,1-.54.46Z"/><path class="cls-6" d="M177.09,66.66a8.64,8.64,0,0,0,2.57-3.2l.6.24a10.16,10.16,0,0,1-2.67,3.44A3.85,3.85,0,0,0,177.09,66.66Zm4.35-3.09.57-.22a6,6,0,0,0,2.78,3.1,4.76,4.76,0,0,0-.48.58A7.17,7.17,0,0,1,181.44,63.57Zm.66,4c.74.93,1.36,1.78,1.87,2.54l-.58.38-.46-.72c-1.69.08-3.07.17-4.13.25a7,7,0,0,0-.71.12l-.33-.63a2,2,0,0,0,.63-.41,15.75,15.75,0,0,0,2-3l.66.3a29.82,29.82,0,0,1-2,3c1.06,0,2.26-.08,3.6-.14-.29-.43-.62-.88-1-1.36Z"/><path class="cls-6" d="M190.42,63.54l.37-.38a13.84,13.84,0,0,1,1.12.88l-.44.44A13.73,13.73,0,0,0,190.42,63.54ZM185,69.3c.58-.06,1.18-.14,1.79-.22V67h-1.5v-.56h3.61V67h-1.48v2l1.84-.26c0,.19,0,.39,0,.6l-4.08.59Zm0-4.74h4.28c0-.46,0-1-.05-1.46h.66c0,.49,0,1,0,1.46h2.65v.56h-2.62c.1,2.52.53,4,1.29,4.58.28.22.48.16.59-.18a8.13,8.13,0,0,0,.21-1.15c.24.08.45.15.62.19a10,10,0,0,1-.32,1.42.69.69,0,0,1-.7.51,1.51,1.51,0,0,1-1.06-.52c-.73-.76-1.15-2.37-1.26-4.85h-4.31Z"/><path class="cls-6" d="M194.4,68.45a.48.48,0,0,1-.14.34.5.5,0,0,1-.35.14.48.48,0,0,1-.34-.14.46.46,0,0,1,0-.68.48.48,0,0,1,.34-.14.5.5,0,0,1,.35.14A.48.48,0,0,1,194.4,68.45Z"/></g></g></g></svg>