<?xml version="1.0" encoding="UTF-8" standalone="no"?>
<svg
   xmlns:dc="http://purl.org/dc/elements/1.1/"
   xmlns:cc="http://creativecommons.org/ns#"
   xmlns:rdf="http://www.w3.org/1999/02/22-rdf-syntax-ns#"
   xmlns:svg="http://www.w3.org/2000/svg"
   xmlns="http://www.w3.org/2000/svg"
   id="svg73"
   height="15.23mm"
   width="53.619999mm"
   version="1.0">
  <metadata
     id="metadata77">
    <rdf:RDF>
      <cc:Work
         rdf:about="">
        <dc:format>image/svg+xml</dc:format>
        <dc:type
           rdf:resource="http://purl.org/dc/dcmitype/StillImage" />
      </cc:Work>
    </rdf:RDF>
  </metadata>
  <defs
     id="defs3">
    <pattern
       y="0"
       x="0"
       height="6"
       width="6"
       patternUnits="userSpaceOnUse"
       id="EMFhbasepattern" />
  </defs>
  <path
     id="path5"
     d="  M 22.719564,21.653543   C 22.652938,21.853422 22.586311,22.053301 22.586311,22.319806   C 22.519685,22.519685 22.386432,22.719564 22.319806,22.919443   C 22.186554,23.119322 22.053301,23.3192 21.920048,23.452453   C 21.786796,23.585706 21.586917,23.652332 21.320412,23.652332   C 21.053907,23.652332 20.787402,23.585706 20.587523,23.385827   C 20.387644,23.185948 20.321018,22.986069 20.254391,22.719564   C 20.054512,22.986069 19.854634,23.185948 19.521502,23.385827   C 19.254997,23.519079 18.988492,23.652332 18.65536,23.652332   C 18.322229,23.652332 18.055724,23.585706 17.855845,23.385827   C 17.58934,23.252574 17.456087,23.052695 17.322835,22.78619   C 17.189582,22.453059 17.122956,22.186554 17.056329,21.786796   L 17.056329,21.72017   C 17.056329,21.387038 17.122956,21.053907 17.189582,20.720775   C 17.322835,20.387644 17.456087,20.054512 17.655966,19.721381   C 17.855845,19.321623 18.055724,18.988492 18.388855,18.721987   C 18.588734,18.455482 18.921866,18.255603 19.188371,18.12235   C 19.521502,17.922471 19.854634,17.855845 20.121139,17.855845   C 20.387644,17.855845 20.654149,17.922471 20.787402,18.055724   C 20.98728,18.188976 21.120533,18.388855 21.187159,18.588734   L 21.253786,18.522108   C 21.253786,18.388855 21.320412,18.255603 21.387038,18.188976   C 21.520291,18.12235 21.653543,18.12235 21.72017,18.12235   C 21.853422,18.12235 21.920048,18.12235 21.986675,18.188976   C 22.053301,18.255603 22.053301,18.322229 22.053301,18.388855   C 22.053301,18.455482 22.053301,18.455482 22.053301,18.522108   L 21.120533,22.119927   C 21.120533,22.319806 21.053907,22.453059 21.053907,22.586311   C 21.053907,22.652938 21.053907,22.78619 21.053907,22.852816   C 21.053907,22.852816 21.053907,22.919443 21.053907,22.986069   C 21.053907,23.119322 21.120533,23.185948 21.187159,23.252574   C 21.253786,23.3192 21.320412,23.385827 21.387038,23.385827   C 21.520291,23.385827 21.586917,23.3192 21.72017,23.252574   C 21.786796,23.119322 21.853422,23.052695 21.920048,22.852816   C 21.986675,22.719564 22.053301,22.519685 22.119927,22.319806   C 22.186554,22.119927 22.25318,21.920048 22.319806,21.653543   C 22.319806,21.586917 22.386432,21.520291 22.453059,21.520291   L 22.652938,21.520291   C 22.719564,21.520291 22.719564,21.586917 22.719564,21.653543   L 22.719564,21.653543   z  M 20.98728,19.38825   C 20.98728,19.254997 20.98728,19.188371 20.98728,19.121744   C 20.98728,19.055118 20.920654,18.988492 20.920654,18.855239   C 20.854028,18.65536 20.720775,18.522108 20.587523,18.322229   C 20.45427,18.188976 20.254391,18.12235 20.054512,18.12235   C 19.854634,18.12235 19.721381,18.188976 19.521502,18.322229   C 19.321623,18.455482 19.188371,18.65536 18.988492,18.855239   C 18.788613,19.121744 18.65536,19.454876 18.522108,19.788007   C 18.455482,20.054512 18.322229,20.387644 18.255603,20.720775   C 18.188976,21.053907 18.12235,21.387038 18.055724,21.72017   C 17.989098,21.853422 17.989098,22.053301 17.989098,22.186554   C 17.989098,22.319806 17.989098,22.519685 18.055724,22.652938   C 18.055724,22.852816 18.188976,22.986069 18.255603,23.119322   C 18.388855,23.3192 18.522108,23.385827 18.721987,23.385827   C 18.921866,23.385827 19.121744,23.3192 19.38825,23.119322   C 19.588128,22.986069 19.788007,22.852816 19.92126,22.652938   C 19.987886,22.519685 20.054512,22.453059 20.121139,22.386432   C 20.187765,22.319806 20.254391,22.186554 20.321018,22.119927   L 20.98728,19.38825   z "
     style="fill:#008000;fill-rule:evenodd;fill-opacity:1;stroke:none;" />
  <path
     id="path7"
     d="  M 27.050273,22.719564   C 27.050273,22.78619 26.983646,22.852816 26.91702,22.919443   C 26.783767,22.986069 26.717141,22.986069 26.650515,22.986069   C 26.583889,22.986069 26.517262,22.986069 26.450636,22.919443   C 26.38401,22.852816 26.38401,22.852816 26.38401,22.78619   C 26.38401,22.78619 26.38401,22.719564 26.38401,22.719564   C 26.38401,22.586311 26.450636,22.519685 26.517262,22.519685   C 26.583889,22.453059 26.650515,22.453059 26.717141,22.386432   C 26.583889,22.319806 26.450636,22.319806 26.317383,22.319806   C 26.117505,22.319806 25.984252,22.386432 25.917626,22.519685   C 25.784373,22.652938 25.717747,22.78619 25.651121,22.986069   L 25.251363,24.251969   C 25.251363,24.385221 25.184737,24.518474 25.184737,24.651726   C 25.184737,24.718353 25.184737,24.718353 25.184737,24.784979   C 25.184737,24.851605 25.184737,24.918231 25.184737,24.984858   C 25.251363,25.051484 25.251363,25.11811 25.317989,25.184737   C 25.384615,25.184737 25.451242,25.251363 25.584494,25.251363   C 25.717747,25.251363 25.784373,25.184737 25.917626,25.184737   C 25.984252,25.11811 26.117505,25.051484 26.184131,24.918231   C 26.250757,24.851605 26.317383,24.784979 26.38401,24.651726   C 26.450636,24.518474 26.517262,24.385221 26.583889,24.251969   C 26.583889,24.251969 26.650515,24.251969 26.650515,24.251969   L 26.783767,24.251969   C 26.783767,24.251969 26.850394,24.251969 26.850394,24.251969   C 26.850394,24.251969 26.850394,24.251969 26.850394,24.251969   C 26.783767,24.451847 26.717141,24.5851 26.650515,24.718353   C 26.583889,24.851605 26.450636,24.918231 26.317383,25.051484   C 26.250757,25.11811 26.117505,25.251363 25.984252,25.317989   C 25.850999,25.384615 25.717747,25.384615 25.517868,25.384615   C 25.384615,25.384615 25.251363,25.384615 25.11811,25.317989   C 24.984858,25.251363 24.918231,25.184737 24.851605,25.051484   C 24.784979,25.051484 24.784979,24.984858 24.784979,24.984858   C 24.784979,24.984858 24.784979,24.918231 24.718353,24.918231   C 24.651726,25.051484 24.518474,25.184737 24.385221,25.251363   C 24.251969,25.317989 24.118716,25.384615 23.918837,25.384615   C 23.852211,25.384615 23.718958,25.384615 23.652332,25.384615   C 23.585706,25.317989 23.452453,25.317989 23.385827,25.251363   C 23.3192,25.184737 23.252574,25.184737 23.252574,25.11811   C 23.252574,25.051484 23.252574,24.984858 23.252574,24.984858   C 23.252574,24.918231 23.252574,24.918231 23.252574,24.851605   C 23.252574,24.784979 23.3192,24.718353 23.385827,24.651726   C 23.519079,24.5851 23.585706,24.5851 23.652332,24.5851   C 23.718958,24.5851 23.785584,24.5851 23.852211,24.651726   C 23.918837,24.651726 23.918837,24.718353 23.918837,24.784979   C 23.918837,24.784979 23.918837,24.851605 23.918837,24.851605   C 23.918837,24.918231 23.852211,24.984858 23.785584,25.051484   C 23.718958,25.11811 23.652332,25.11811 23.585706,25.11811   C 23.718958,25.184737 23.852211,25.251363 23.985463,25.251363   C 24.118716,25.251363 24.318595,25.184737 24.385221,25.051484   C 24.518474,24.918231 24.5851,24.718353 24.651726,24.518474   L 25.051484,23.252574   C 25.051484,23.119322 25.11811,22.986069 25.11811,22.919443   C 25.11811,22.852816 25.11811,22.852816 25.11811,22.78619   C 25.11811,22.719564 25.11811,22.652938 25.11811,22.586311   C 25.051484,22.519685 25.051484,22.453059 24.984858,22.386432   C 24.918231,22.319806 24.784979,22.319806 24.718353,22.319806   C 24.5851,22.319806 24.518474,22.319806 24.385221,22.386432   C 24.318595,22.453059 24.185342,22.519685 24.118716,22.586311   C 24.05209,22.719564 23.918837,22.78619 23.852211,22.919443   C 23.785584,22.986069 23.785584,23.119322 23.718958,23.252574   C 23.718958,23.3192 23.652332,23.3192 23.652332,23.3192   L 23.519079,23.3192   C 23.519079,23.3192 23.452453,23.3192 23.452453,23.252574   L 23.452453,23.252574   C 23.519079,23.119322 23.585706,22.986069 23.652332,22.852816   C 23.718958,22.719564 23.852211,22.586311 23.918837,22.519685   C 24.05209,22.386432 24.185342,22.319806 24.318595,22.25318   C 24.451847,22.186554 24.5851,22.119927 24.784979,22.119927   C 24.918231,22.119927 25.051484,22.186554 25.184737,22.25318   C 25.317989,22.319806 25.384615,22.386432 25.451242,22.453059   C 25.451242,22.519685 25.517868,22.519685 25.517868,22.586311   C 25.517868,22.586311 25.517868,22.586311 25.517868,22.652938   C 25.651121,22.519685 25.784373,22.386432 25.917626,22.319806   C 26.050878,22.186554 26.184131,22.119927 26.317383,22.119927   C 26.450636,22.119927 26.517262,22.186554 26.650515,22.186554   C 26.717141,22.186554 26.850394,22.25318 26.91702,22.25318   C 26.983646,22.319806 26.983646,22.386432 27.050273,22.453059   C 27.050273,22.519685 27.050273,22.519685 27.050273,22.586311   C 27.050273,22.586311 27.050273,22.652938 27.050273,22.719564   z "
     style="fill:#008000;fill-rule:evenodd;fill-opacity:1;stroke:none;" />
  <path
     id="path9"
     d="  M 41.574803,20.720775   C 41.508177,21.120533 41.374924,21.453664 41.175045,21.786796   C 40.975167,22.186554 40.708661,22.519685 40.442156,22.78619   C 40.175651,23.052695 39.909146,23.252574 39.576015,23.385827   C 39.309509,23.585706 38.976378,23.652332 38.643247,23.652332   C 38.376741,23.652332 38.110236,23.585706 37.910357,23.385827   C 37.643852,23.252574 37.5106,23.052695 37.377347,22.78619   C 37.244094,22.453059 37.177468,22.119927 37.177468,21.786796   L 37.177468,21.72017   C 37.177468,21.387038 37.244094,21.053907 37.310721,20.720775   L 38.57662,15.723804   C 38.643247,15.590551 38.643247,15.457299 38.643247,15.390672   L 38.643247,15.390672   C 38.643247,15.324046 38.643247,15.25742 38.643247,15.25742   C 38.57662,15.190793 38.443368,15.190793 38.310115,15.190793   C 38.176863,15.124167 37.976984,15.124167 37.777105,15.124167   C 37.777105,15.124167 37.710478,15.124167 37.710478,15.124167   C 37.710478,15.124167 37.710478,15.057541 37.710478,15.057541   C 37.710478,15.057541 37.710478,14.990915 37.710478,14.990915   L 37.710478,14.924288   C 37.777105,14.857662 37.777105,14.791036 37.910357,14.791036   L 39.576015,14.657783   L 39.642641,14.657783   C 39.642641,14.657783 39.709267,14.657783 39.709267,14.657783   C 39.709267,14.657783 39.709267,14.657783 39.709267,14.724409   C 39.709267,14.724409 39.709267,14.724409 39.709267,14.791036   L 38.709873,18.588734   C 38.909752,18.388855 39.109631,18.188976 39.376136,18.055724   C 39.642641,17.922471 39.909146,17.855845 40.175651,17.855845   C 40.442156,17.855845 40.775288,17.922471 40.975167,18.12235   C 41.175045,18.255603 41.374924,18.455482 41.508177,18.721987   C 41.641429,18.988492 41.708056,19.321623 41.708056,19.721381   L 41.708056,19.788007   C 41.708056,20.121139 41.641429,20.387644 41.574803,20.720775   z  M 40.775288,18.855239   C 40.708661,18.65536 40.642035,18.455482 40.508783,18.322229   C 40.442156,18.188976 40.242277,18.12235 40.109025,18.12235   C 39.84252,18.12235 39.642641,18.188976 39.442762,18.322229   C 39.242883,18.522108 39.043004,18.65536 38.843125,18.855239   C 38.709873,19.055118 38.643247,19.188371 38.509994,19.38825   L 38.176863,20.720775   C 38.04361,21.053907 37.976984,21.387038 37.976984,21.72017   C 37.976984,21.853422 37.910357,21.986675 37.910357,22.119927   C 37.910357,22.25318 37.976984,22.453059 37.976984,22.652938   C 38.04361,22.852816 38.110236,22.986069 38.243489,23.119322   C 38.376741,23.3192 38.509994,23.385827 38.709873,23.385827   C 38.909752,23.385827 39.109631,23.3192 39.309509,23.119322   C 39.509388,22.986069 39.642641,22.852816 39.775893,22.652938   C 40.042399,22.319806 40.175651,22.053301 40.308904,21.72017   C 40.37553,21.387038 40.508783,21.053907 40.575409,20.720775   C 40.642035,20.387644 40.708661,20.054512 40.775288,19.788007   C 40.841914,19.588128 40.841914,19.454876 40.841914,19.321623   C 40.841914,19.188371 40.841914,18.988492 40.775288,18.855239   z "
     style="fill:#008000;fill-rule:evenodd;fill-opacity:1;stroke:none;" />
  <path
     id="path11"
     d="  M 46.038764,22.719564   C 46.038764,22.78619 45.972138,22.852816 45.905512,22.919443   C 45.772259,22.986069 45.705633,22.986069 45.639007,22.986069   C 45.57238,22.986069 45.505754,22.986069 45.439128,22.919443   C 45.372502,22.852816 45.372502,22.852816 45.372502,22.78619   C 45.372502,22.78619 45.372502,22.719564 45.372502,22.719564   C 45.372502,22.586311 45.439128,22.519685 45.505754,22.519685   C 45.57238,22.453059 45.639007,22.453059 45.705633,22.386432   C 45.57238,22.319806 45.439128,22.319806 45.305875,22.319806   C 45.105996,22.319806 44.972744,22.386432 44.906118,22.519685   C 44.772865,22.652938 44.706239,22.78619 44.639612,22.986069   L 44.239855,24.251969   C 44.239855,24.385221 44.173228,24.518474 44.173228,24.651726   C 44.173228,24.718353 44.173228,24.718353 44.173228,24.784979   C 44.173228,24.851605 44.173228,24.918231 44.173228,24.984858   C 44.239855,25.051484 44.239855,25.11811 44.306481,25.184737   C 44.373107,25.184737 44.439733,25.251363 44.572986,25.251363   C 44.706239,25.251363 44.772865,25.184737 44.906118,25.184737   C 44.972744,25.11811 45.105996,25.051484 45.172623,24.918231   C 45.239249,24.851605 45.305875,24.784979 45.372502,24.651726   C 45.439128,24.518474 45.505754,24.385221 45.57238,24.251969   C 45.57238,24.251969 45.57238,24.251969 45.639007,24.251969   L 45.772259,24.251969   C 45.772259,24.251969 45.838886,24.251969 45.838886,24.251969   C 45.838886,24.251969 45.838886,24.251969 45.838886,24.251969   C 45.772259,24.451847 45.705633,24.5851 45.639007,24.718353   C 45.57238,24.851605 45.439128,24.918231 45.305875,25.051484   C 45.239249,25.11811 45.105996,25.251363 44.972744,25.317989   C 44.839491,25.384615 44.639612,25.384615 44.50636,25.384615   C 44.373107,25.384615 44.239855,25.384615 44.106602,25.317989   C 43.973349,25.251363 43.906723,25.184737 43.840097,25.051484   C 43.773471,25.051484 43.773471,24.984858 43.773471,24.984858   C 43.773471,24.984858 43.773471,24.918231 43.706844,24.918231   C 43.640218,25.051484 43.506965,25.184737 43.373713,25.251363   C 43.24046,25.317989 43.107208,25.384615 42.907329,25.384615   C 42.840703,25.384615 42.70745,25.384615 42.640824,25.384615   C 42.574197,25.317989 42.440945,25.317989 42.374319,25.251363   C 42.307692,25.184737 42.241066,25.184737 42.241066,25.11811   C 42.241066,25.051484 42.241066,24.984858 42.241066,24.984858   C 42.241066,24.918231 42.241066,24.918231 42.241066,24.851605   C 42.241066,24.784979 42.307692,24.718353 42.374319,24.651726   C 42.507571,24.5851 42.574197,24.5851 42.640824,24.5851   C 42.70745,24.5851 42.774076,24.5851 42.840703,24.651726   C 42.907329,24.651726 42.907329,24.718353 42.907329,24.784979   C 42.907329,24.784979 42.907329,24.851605 42.907329,24.851605   C 42.907329,24.918231 42.840703,24.984858 42.774076,25.051484   C 42.70745,25.11811 42.640824,25.11811 42.574197,25.11811   C 42.70745,25.184737 42.840703,25.251363 42.973955,25.251363   C 43.107208,25.251363 43.24046,25.184737 43.373713,25.051484   C 43.506965,24.918231 43.573592,24.718353 43.640218,24.518474   L 44.039976,23.252574   C 44.039976,23.119322 44.106602,22.986069 44.106602,22.919443   C 44.106602,22.852816 44.106602,22.852816 44.106602,22.78619   C 44.106602,22.719564 44.106602,22.652938 44.106602,22.586311   C 44.039976,22.519685 44.039976,22.453059 43.973349,22.386432   C 43.906723,22.319806 43.773471,22.319806 43.706844,22.319806   C 43.573592,22.319806 43.506965,22.319806 43.373713,22.386432   C 43.24046,22.453059 43.173834,22.519685 43.107208,22.586311   C 42.973955,22.719564 42.907329,22.78619 42.840703,22.919443   C 42.774076,22.986069 42.774076,23.119322 42.70745,23.252574   C 42.70745,23.3192 42.640824,23.3192 42.640824,23.3192   L 42.507571,23.3192   C 42.507571,23.3192 42.440945,23.3192 42.440945,23.252574   L 42.440945,23.252574   C 42.507571,23.119322 42.574197,22.986069 42.640824,22.852816   C 42.70745,22.719564 42.840703,22.586311 42.907329,22.519685   C 43.040581,22.386432 43.173834,22.319806 43.307087,22.25318   C 43.440339,22.186554 43.573592,22.119927 43.773471,22.119927   C 43.906723,22.119927 44.039976,22.186554 44.173228,22.25318   C 44.306481,22.319806 44.373107,22.386432 44.439733,22.453059   C 44.439733,22.519685 44.50636,22.519685 44.50636,22.586311   C 44.50636,22.586311 44.50636,22.586311 44.50636,22.652938   C 44.639612,22.519685 44.772865,22.386432 44.906118,22.319806   C 45.03937,22.186554 45.172623,22.119927 45.305875,22.119927   C 45.439128,22.119927 45.505754,22.186554 45.639007,22.186554   C 45.705633,22.186554 45.838886,22.25318 45.905512,22.25318   C 45.972138,22.319806 45.972138,22.386432 46.038764,22.453059   C 46.038764,22.519685 46.038764,22.519685 46.038764,22.586311   C 46.038764,22.586311 46.038764,22.652938 46.038764,22.719564   z "
     style="fill:#008000;fill-rule:evenodd;fill-opacity:1;stroke:none;" />
  <path
     id="path13"
     d="  M 22.852816,39.509388   C 22.78619,39.709267 22.78619,39.909146 22.719564,40.175651   C 22.652938,40.37553 22.519685,40.575409 22.453059,40.775288   C 22.319806,40.975167 22.186554,41.175045 22.053301,41.308298   C 21.920048,41.441551 21.72017,41.508177 21.453664,41.508177   C 21.187159,41.508177 20.920654,41.441551 20.720775,41.241672   C 20.587523,41.108419 20.45427,40.841914 20.387644,40.575409   C 20.187765,40.841914 19.987886,41.041793 19.654755,41.241672   C 19.38825,41.441551 19.121744,41.508177 18.788613,41.508177   C 18.455482,41.508177 18.188976,41.441551 17.989098,41.241672   C 17.722592,41.108419 17.58934,40.90854 17.456087,40.642035   C 17.322835,40.37553 17.256208,40.042399 17.189582,39.642641   L 17.189582,39.576015   C 17.189582,39.242883 17.256208,38.909752 17.389461,38.643247   C 17.456087,38.243489 17.58934,37.910357 17.789219,37.577226   C 17.989098,37.177468 18.188976,36.844337 18.522108,36.577832   C 18.721987,36.311326 19.055118,36.111448 19.321623,35.978195   C 19.654755,35.778316 19.987886,35.71169 20.254391,35.71169   C 20.520896,35.71169 20.787402,35.778316 20.920654,35.911569   C 21.120533,36.044821 21.253786,36.2447 21.320412,36.444579   L 21.387038,36.377953   C 21.387038,36.2447 21.453664,36.111448 21.520291,36.044821   C 21.653543,35.978195 21.786796,35.978195 21.853422,35.978195   C 21.986675,35.978195 22.053301,35.978195 22.119927,36.044821   C 22.186554,36.111448 22.186554,36.178074 22.186554,36.2447   C 22.186554,36.311326 22.186554,36.311326 22.186554,36.377953   L 21.253786,39.975772   C 21.253786,40.175651 21.187159,40.308904 21.187159,40.442156   C 21.187159,40.575409 21.187159,40.642035 21.187159,40.708661   C 21.187159,40.708661 21.187159,40.775288 21.187159,40.841914   C 21.187159,40.975167 21.253786,41.041793 21.320412,41.108419   C 21.387038,41.175045 21.453664,41.241672 21.520291,41.241672   C 21.653543,41.241672 21.72017,41.175045 21.853422,41.108419   C 21.920048,41.041793 21.986675,40.90854 22.053301,40.708661   C 22.119927,40.575409 22.186554,40.37553 22.25318,40.175651   C 22.319806,39.975772 22.386432,39.775893 22.453059,39.509388   C 22.453059,39.442762 22.519685,39.376136 22.586311,39.376136   L 22.78619,39.376136   C 22.852816,39.376136 22.852816,39.442762 22.852816,39.509388   L 22.852816,39.509388   z  M 21.120533,37.244094   C 21.120533,37.110842 21.120533,37.044216 21.120533,36.977589   C 21.120533,36.910963 21.053907,36.844337 21.053907,36.711084   C 20.98728,36.511205 20.854028,36.377953 20.720775,36.2447   C 20.587523,36.044821 20.45427,35.978195 20.187765,35.978195   C 19.987886,35.978195 19.854634,36.044821 19.654755,36.178074   C 19.454876,36.311326 19.321623,36.511205 19.121744,36.711084   C 18.921866,37.044216 18.788613,37.310721 18.65536,37.643852   C 18.588734,37.976984 18.455482,38.243489 18.388855,38.643247   C 18.322229,38.976378 18.255603,39.242883 18.188976,39.576015   C 18.12235,39.775893 18.12235,39.909146 18.12235,40.042399   C 18.12235,40.175651 18.12235,40.37553 18.188976,40.508783   C 18.188976,40.708661 18.322229,40.841914 18.388855,41.041793   C 18.522108,41.175045 18.65536,41.241672 18.855239,41.241672   C 19.055118,41.241672 19.254997,41.175045 19.521502,40.975167   C 19.721381,40.841914 19.92126,40.708661 20.054512,40.508783   C 20.121139,40.37553 20.187765,40.308904 20.254391,40.242277   C 20.321018,40.175651 20.387644,40.042399 20.45427,39.975772   L 21.120533,37.244094   z "
     style="fill:#000000;fill-rule:evenodd;fill-opacity:1;stroke:none;" />
  <path
     id="path15"
     d="  M 26.117505,43.173834   C 26.050878,43.373713 25.984252,43.573592 25.850999,43.706844   C 25.717747,43.906723 25.584494,44.039976 25.451242,44.173228   C 25.251363,44.306481 25.051484,44.439733 24.851605,44.50636   C 24.651726,44.639612 24.451847,44.639612 24.251969,44.639612   C 24.118716,44.639612 23.985463,44.639612 23.918837,44.572986   C 23.785584,44.572986 23.718958,44.50636 23.652332,44.439733   C 23.585706,44.373107 23.519079,44.306481 23.519079,44.173228   C 23.519079,44.106602 23.519079,44.106602 23.519079,44.039976   C 23.519079,43.973349 23.519079,43.906723 23.519079,43.840097   C 23.585706,43.773471 23.585706,43.706844 23.718958,43.640218   C 23.785584,43.640218 23.852211,43.573592 23.918837,43.573592   C 24.05209,43.573592 24.118716,43.640218 24.185342,43.640218   C 24.185342,43.706844 24.185342,43.706844 24.185342,43.773471   C 24.185342,43.840097 24.185342,43.840097 24.185342,43.840097   C 24.185342,43.973349 24.118716,44.039976 24.05209,44.106602   C 23.918837,44.106602 23.852211,44.173228 23.785584,44.173228   C 23.785584,44.239855 23.852211,44.306481 23.985463,44.373107   C 24.05209,44.439733 24.185342,44.50636 24.318595,44.50636   C 24.451847,44.50636 24.5851,44.439733 24.718353,44.373107   C 24.851605,44.306481 24.984858,44.239855 25.11811,44.106602   C 25.184737,43.973349 25.317989,43.840097 25.384615,43.640218   C 25.451242,43.506965 25.517868,43.373713 25.584494,43.173834   L 25.651121,42.973955   C 25.517868,43.040581 25.384615,43.107208 25.317989,43.173834   C 25.184737,43.24046 25.051484,43.24046 24.851605,43.24046   C 24.718353,43.24046 24.518474,43.24046 24.385221,43.173834   C 24.251969,43.107208 24.185342,43.040581 24.05209,42.907329   C 23.985463,42.774076 23.985463,42.640824 23.985463,42.440945   L 23.985463,42.440945   C 23.985463,42.307692 23.985463,42.107813 24.05209,41.974561   C 24.118716,41.774682 24.118716,41.641429 24.251969,41.441551   C 24.318595,41.241672 24.385221,41.041793 24.451847,40.841914   C 24.518474,40.642035 24.5851,40.508783 24.5851,40.37553   C 24.5851,40.242277 24.518474,40.175651 24.385221,40.175651   C 24.318595,40.175651 24.185342,40.175651 24.118716,40.242277   C 24.05209,40.308904 23.985463,40.37553 23.918837,40.442156   C 23.852211,40.508783 23.785584,40.642035 23.718958,40.775288   C 23.718958,40.841914 23.652332,40.975167 23.652332,41.108419   C 23.585706,41.175045 23.585706,41.175045 23.519079,41.175045   L 23.452453,41.175045   C 23.385827,41.175045 23.385827,41.175045 23.385827,41.108419   L 23.385827,41.108419   C 23.385827,40.975167 23.452453,40.841914 23.519079,40.708661   C 23.585706,40.575409 23.652332,40.508783 23.718958,40.37553   C 23.852211,40.242277 23.918837,40.175651 24.05209,40.109025   C 24.185342,40.042399 24.318595,40.042399 24.451847,40.042399   C 24.5851,40.042399 24.651726,40.042399 24.784979,40.109025   C 24.851605,40.109025 24.918231,40.175651 24.984858,40.242277   C 25.051484,40.37553 25.051484,40.442156 25.051484,40.575409   L 25.051484,40.575409   C 25.051484,40.642035 25.051484,40.775288 24.984858,40.841914   C 24.918231,41.041793 24.851605,41.241672 24.784979,41.441551   C 24.651726,41.641429 24.5851,41.774682 24.5851,41.974561   C 24.518474,42.107813 24.518474,42.241066 24.451847,42.374319   C 24.451847,42.440945 24.451847,42.507571 24.451847,42.507571   C 24.451847,42.640824 24.451847,42.70745 24.518474,42.840703   C 24.518474,42.907329 24.5851,42.973955 24.651726,43.040581   C 24.718353,43.040581 24.851605,43.107208 24.918231,43.107208   C 25.11811,43.107208 25.251363,43.040581 25.384615,42.973955   C 25.517868,42.840703 25.651121,42.70745 25.717747,42.574197   L 26.38401,40.308904   C 26.450636,40.242277 26.450636,40.175651 26.517262,40.175651   C 26.583889,40.109025 26.650515,40.109025 26.717141,40.109025   C 26.783767,40.109025 26.850394,40.109025 26.91702,40.175651   C 26.91702,40.175651 26.91702,40.175651 26.91702,40.242277   C 26.91702,40.242277 26.91702,40.308904 26.91702,40.308904   z "
     style="fill:#000000;fill-rule:evenodd;fill-opacity:1;stroke:none;" />
  <path
     id="path17"
     d="  M 41.708056,38.643247   C 41.641429,38.976378 41.508177,39.309509 41.308298,39.642641   C 41.108419,40.042399 40.841914,40.37553 40.575409,40.642035   C 40.308904,40.90854 40.042399,41.108419 39.775893,41.241672   C 39.442762,41.441551 39.109631,41.508177 38.776499,41.508177   C 38.509994,41.508177 38.243489,41.441551 38.04361,41.241672   C 37.777105,41.108419 37.643852,40.90854 37.5106,40.642035   C 37.377347,40.308904 37.310721,39.975772 37.310721,39.642641   L 37.310721,39.576015   C 37.310721,39.242883 37.377347,38.909752 37.443973,38.643247   L 38.709873,33.579649   C 38.776499,33.446396 38.776499,33.313144 38.776499,33.246517   L 38.776499,33.246517   C 38.776499,33.179891 38.776499,33.113265 38.776499,33.113265   C 38.709873,33.046638 38.57662,33.046638 38.443368,33.046638   C 38.310115,33.046638 38.110236,32.980012 37.910357,32.980012   C 37.910357,32.980012 37.843731,32.980012 37.843731,32.980012   C 37.843731,32.980012 37.843731,32.913386 37.843731,32.913386   C 37.843731,32.913386 37.843731,32.913386 37.843731,32.84676   L 37.843731,32.780133   C 37.910357,32.713507 37.976984,32.646881 38.04361,32.646881   L 39.709267,32.513628   L 39.775893,32.513628   C 39.775893,32.513628 39.84252,32.513628 39.84252,32.513628   C 39.84252,32.513628 39.84252,32.580254 39.84252,32.580254   C 39.84252,32.580254 39.84252,32.580254 39.84252,32.646881   L 38.843125,36.444579   C 39.043004,36.2447 39.242883,36.044821 39.509388,35.911569   C 39.775893,35.778316 40.042399,35.71169 40.308904,35.71169   C 40.642035,35.71169 40.90854,35.778316 41.108419,35.978195   C 41.308298,36.111448 41.508177,36.311326 41.641429,36.577832   C 41.774682,36.844337 41.841308,37.177468 41.841308,37.577226   L 41.841308,37.643852   C 41.841308,37.976984 41.774682,38.310115 41.708056,38.643247   z  M 40.90854,36.711084   C 40.841914,36.511205 40.775288,36.311326 40.708661,36.178074   C 40.575409,36.044821 40.37553,35.978195 40.242277,35.978195   C 39.975772,35.978195 39.775893,36.044821 39.576015,36.2447   C 39.376136,36.377953 39.176257,36.511205 38.976378,36.711084   C 38.843125,36.910963 38.776499,37.044216 38.643247,37.244094   L 38.310115,38.643247   C 38.176863,38.976378 38.110236,39.242883 38.110236,39.576015   C 38.110236,39.709267 38.04361,39.84252 38.04361,39.975772   C 38.04361,40.175651 38.110236,40.308904 38.110236,40.508783   C 38.176863,40.708661 38.243489,40.841914 38.376741,41.041793   C 38.509994,41.175045 38.643247,41.241672 38.843125,41.241672   C 39.043004,41.241672 39.242883,41.175045 39.442762,41.041793   C 39.642641,40.841914 39.775893,40.708661 39.909146,40.508783   C 40.175651,40.242277 40.308904,39.909146 40.442156,39.576015   C 40.508783,39.242883 40.642035,38.976378 40.708661,38.643247   C 40.775288,38.243489 40.841914,37.910357 40.90854,37.643852   C 40.975167,37.443973 40.975167,37.310721 40.975167,37.177468   C 40.975167,37.044216 40.975167,36.844337 40.90854,36.711084   z "
     style="fill:#000000;fill-rule:evenodd;fill-opacity:1;stroke:none;" />
  <path
     id="path19"
     d="  M 45.105996,43.173834   C 45.03937,43.373713 44.972744,43.573592 44.839491,43.706844   C 44.706239,43.906723 44.572986,44.039976 44.373107,44.173228   C 44.239855,44.306481 44.039976,44.439733 43.840097,44.50636   C 43.640218,44.639612 43.440339,44.639612 43.24046,44.639612   C 43.107208,44.639612 42.973955,44.639612 42.907329,44.572986   C 42.774076,44.572986 42.70745,44.50636 42.640824,44.439733   C 42.574197,44.373107 42.507571,44.306481 42.507571,44.173228   C 42.507571,44.106602 42.507571,44.106602 42.507571,44.039976   C 42.507571,43.973349 42.507571,43.906723 42.507571,43.840097   C 42.574197,43.773471 42.574197,43.706844 42.70745,43.640218   C 42.774076,43.640218 42.840703,43.573592 42.907329,43.573592   C 43.040581,43.573592 43.107208,43.640218 43.107208,43.640218   C 43.173834,43.706844 43.173834,43.706844 43.173834,43.773471   C 43.173834,43.840097 43.173834,43.840097 43.173834,43.840097   C 43.173834,43.973349 43.107208,44.039976 43.040581,44.106602   C 42.907329,44.106602 42.840703,44.173228 42.774076,44.173228   C 42.774076,44.239855 42.840703,44.306481 42.973955,44.373107   C 43.040581,44.439733 43.173834,44.50636 43.307087,44.50636   C 43.440339,44.50636 43.573592,44.439733 43.706844,44.373107   C 43.840097,44.306481 43.973349,44.239855 44.106602,44.106602   C 44.173228,43.973349 44.306481,43.840097 44.373107,43.640218   C 44.439733,43.506965 44.50636,43.373713 44.572986,43.173834   L 44.639612,42.973955   C 44.50636,43.040581 44.373107,43.107208 44.306481,43.173834   C 44.173228,43.24046 44.039976,43.24046 43.840097,43.24046   C 43.706844,43.24046 43.506965,43.24046 43.373713,43.173834   C 43.24046,43.107208 43.173834,43.040581 43.040581,42.907329   C 42.973955,42.774076 42.973955,42.640824 42.973955,42.440945   L 42.973955,42.440945   C 42.973955,42.307692 42.973955,42.107813 43.040581,41.974561   C 43.040581,41.774682 43.107208,41.641429 43.24046,41.441551   C 43.307087,41.241672 43.373713,41.041793 43.440339,40.841914   C 43.506965,40.642035 43.573592,40.508783 43.573592,40.37553   C 43.573592,40.242277 43.506965,40.175651 43.373713,40.175651   C 43.307087,40.175651 43.173834,40.175651 43.107208,40.242277   C 43.040581,40.308904 42.973955,40.37553 42.907329,40.442156   C 42.840703,40.508783 42.774076,40.642035 42.70745,40.775288   C 42.70745,40.841914 42.640824,40.975167 42.640824,41.108419   C 42.574197,41.175045 42.574197,41.175045 42.507571,41.175045   L 42.440945,41.175045   C 42.374319,41.175045 42.374319,41.175045 42.374319,41.108419   L 42.374319,41.108419   C 42.374319,40.975167 42.440945,40.841914 42.507571,40.708661   C 42.574197,40.575409 42.640824,40.508783 42.70745,40.37553   C 42.840703,40.242277 42.907329,40.175651 43.040581,40.109025   C 43.173834,40.042399 43.307087,40.042399 43.440339,40.042399   C 43.573592,40.042399 43.640218,40.042399 43.773471,40.109025   C 43.840097,40.109025 43.906723,40.175651 43.973349,40.242277   C 44.039976,40.37553 44.039976,40.442156 44.039976,40.575409   L 44.039976,40.575409   C 44.039976,40.642035 44.039976,40.775288 43.973349,40.841914   C 43.906723,41.041793 43.840097,41.241672 43.773471,41.441551   C 43.640218,41.641429 43.573592,41.774682 43.573592,41.974561   C 43.506965,42.107813 43.506965,42.241066 43.440339,42.374319   C 43.440339,42.440945 43.440339,42.507571 43.440339,42.507571   C 43.440339,42.640824 43.440339,42.70745 43.506965,42.840703   C 43.506965,42.907329 43.573592,42.973955 43.640218,43.040581   C 43.706844,43.040581 43.773471,43.107208 43.906723,43.107208   C 44.106602,43.107208 44.239855,43.040581 44.373107,42.973955   C 44.50636,42.840703 44.639612,42.70745 44.706239,42.574197   L 45.372502,40.308904   C 45.439128,40.242277 45.439128,40.175651 45.505754,40.175651   C 45.57238,40.109025 45.639007,40.109025 45.705633,40.109025   C 45.772259,40.109025 45.838886,40.109025 45.905512,40.175651   C 45.905512,40.175651 45.905512,40.175651 45.905512,40.242277   C 45.905512,40.242277 45.905512,40.308904 45.905512,40.308904   z "
     style="fill:#000000;fill-rule:evenodd;fill-opacity:1;stroke:none;" />
  <path
     id="path21"
     d="  M 14.324652,14.058147   L 14.324652,43.373713  "
     style="fill:none;stroke:#000000;stroke-width:0.59963655px;stroke-linecap:round;stroke-linejoin:miter;stroke-miterlimit:10;stroke-dasharray:none;stroke-opacity:1;" />
  <path
     id="path23"
     d="  M 48.703816,43.373713   L 48.703816,14.058147  "
     style="fill:none;stroke:#000000;stroke-width:0.59963655px;stroke-linecap:round;stroke-linejoin:miter;stroke-miterlimit:10;stroke-dasharray:none;stroke-opacity:1;" />
  <path
     id="path25"
     d="  M 55.433071,27.383404   L 64.360993,27.383404  "
     style="fill:none;stroke:#000000;stroke-width:0.5330103px;stroke-linecap:round;stroke-linejoin:miter;stroke-miterlimit:10;stroke-dasharray:none;stroke-opacity:1;" />
  <path
     id="path27"
     d="  M 55.433071,30.048455   L 64.360993,30.048455  "
     style="fill:none;stroke:#000000;stroke-width:0.5330103px;stroke-linecap:round;stroke-linejoin:miter;stroke-miterlimit:10;stroke-dasharray:none;stroke-opacity:1;" />
  <path
     id="path29"
     d="  M 100.60569,21.653543   C 100.53907,21.853422 100.47244,22.053301 100.40581,22.319806   C 100.33919,22.519685 100.27256,22.719564 100.20594,22.919443   C 100.07268,23.119322 99.939431,23.3192 99.806178,23.452453   C 99.606299,23.585706 99.473047,23.652332 99.206541,23.652332   C 98.940036,23.652332 98.673531,23.585706 98.473652,23.385827   C 98.273773,23.185948 98.207147,22.986069 98.140521,22.719564   C 97.940642,22.986069 97.674137,23.185948 97.407632,23.385827   C 97.141127,23.519079 96.807995,23.652332 96.54149,23.652332   C 96.208359,23.652332 95.941853,23.585706 95.741975,23.385827   C 95.475469,23.252574 95.342217,23.052695 95.208964,22.78619   C 95.075712,22.453059 94.942459,22.186554 94.942459,21.786796   L 94.942459,21.72017   C 94.942459,21.387038 95.009085,21.053907 95.075712,20.720775   C 95.208964,20.387644 95.342217,20.054512 95.542096,19.721381   C 95.675348,19.321623 95.941853,18.988492 96.208359,18.721987   C 96.474864,18.455482 96.741369,18.255603 97.0745,18.12235   C 97.407632,17.922471 97.674137,17.855845 98.007268,17.855845   C 98.273773,17.855845 98.540279,17.922471 98.673531,18.055724   C 98.87341,18.188976 99.006663,18.388855 99.073289,18.588734   L 99.073289,18.522108   C 99.139915,18.388855 99.206541,18.255603 99.273168,18.188976   C 99.40642,18.12235 99.473047,18.12235 99.606299,18.12235   C 99.739552,18.12235 99.806178,18.12235 99.872804,18.188976   C 99.939431,18.255603 99.939431,18.322229 99.939431,18.388855   C 99.939431,18.455482 99.939431,18.455482 99.939431,18.522108   L 99.006663,22.119927   C 99.006663,22.319806 98.940036,22.453059 98.940036,22.586311   C 98.940036,22.652938 98.940036,22.78619 98.940036,22.852816   C 98.940036,22.852816 98.940036,22.919443 98.940036,22.986069   C 98.940036,23.119322 99.006663,23.185948 99.073289,23.252574   C 99.073289,23.3192 99.206541,23.385827 99.273168,23.385827   C 99.40642,23.385827 99.473047,23.3192 99.606299,23.252574   C 99.672925,23.119322 99.739552,23.052695 99.806178,22.852816   C 99.872804,22.719564 99.939431,22.519685 100.00606,22.319806   C 100.07268,22.119927 100.13931,21.920048 100.20594,21.653543   C 100.20594,21.586917 100.27256,21.520291 100.33919,21.520291   L 100.47244,21.520291   C 100.53907,21.520291 100.60569,21.586917 100.60569,21.653543   L 100.60569,21.653543   z  M 98.87341,19.38825   C 98.87341,19.254997 98.87341,19.188371 98.87341,19.121744   C 98.806784,19.055118 98.806784,18.988492 98.806784,18.855239   C 98.740157,18.65536 98.606905,18.522108 98.473652,18.322229   C 98.3404,18.188976 98.140521,18.12235 97.940642,18.12235   C 97.740763,18.12235 97.540884,18.188976 97.407632,18.322229   C 97.207753,18.455482 97.007874,18.65536 96.874621,18.855239   C 96.674743,19.121744 96.54149,19.454876 96.408237,19.788007   C 96.274985,20.054512 96.208359,20.387644 96.141732,20.720775   C 96.00848,21.053907 95.941853,21.387038 95.941853,21.72017   C 95.875227,21.853422 95.875227,22.053301 95.875227,22.186554   C 95.875227,22.319806 95.875227,22.519685 95.941853,22.652938   C 95.941853,22.852816 96.00848,22.986069 96.141732,23.119322   C 96.274985,23.3192 96.408237,23.385827 96.608116,23.385827   C 96.807995,23.385827 97.007874,23.3192 97.207753,23.119322   C 97.407632,22.986069 97.607511,22.852816 97.807389,22.652938   C 97.874016,22.519685 97.940642,22.453059 98.007268,22.386432   C 98.073895,22.319806 98.140521,22.186554 98.207147,22.119927   L 98.87341,19.38825   z "
     style="fill:#000000;fill-rule:evenodd;fill-opacity:1;stroke:none;" />
  <path
     id="path31"
     d="  M 104.9364,22.719564   C 104.86978,22.78619 104.86978,22.852816 104.73652,22.919443   C 104.6699,22.986069 104.60327,22.986069 104.53664,22.986069   C 104.40339,22.986069 104.33677,22.986069 104.33677,22.919443   C 104.27014,22.852816 104.27014,22.852816 104.27014,22.78619   C 104.27014,22.78619 104.27014,22.719564 104.27014,22.719564   C 104.27014,22.586311 104.33677,22.519685 104.40339,22.519685   C 104.47002,22.453059 104.47002,22.453059 104.53664,22.386432   C 104.47002,22.319806 104.33677,22.319806 104.20351,22.319806   C 104.00363,22.319806 103.87038,22.386432 103.73713,22.519685   C 103.6705,22.652938 103.53725,22.78619 103.53725,22.986069   L 103.13749,24.251969   C 103.07087,24.385221 103.07087,24.518474 103.07087,24.651726   C 103.07087,24.718353 103.07087,24.718353 103.07087,24.784979   C 103.07087,24.851605 103.07087,24.918231 103.07087,24.984858   C 103.13749,25.051484 103.13749,25.11811 103.20412,25.184737   C 103.27075,25.184737 103.33737,25.251363 103.47062,25.251363   C 103.53725,25.251363 103.6705,25.184737 103.80376,25.184737   C 103.87038,25.11811 104.00363,25.051484 104.07026,24.918231   C 104.13689,24.851605 104.20351,24.784979 104.27014,24.651726   C 104.33677,24.518474 104.40339,24.385221 104.47002,24.251969   C 104.47002,24.251969 104.47002,24.251969 104.53664,24.251969   L 104.60327,24.251969   C 104.6699,24.251969 104.6699,24.251969 104.6699,24.251969   C 104.6699,24.251969 104.6699,24.251969 104.6699,24.251969   C 104.6699,24.451847 104.60327,24.5851 104.53664,24.718353   C 104.40339,24.851605 104.33677,24.918231 104.20351,25.051484   C 104.13689,25.11811 104.00363,25.251363 103.87038,25.317989   C 103.73713,25.384615 103.53725,25.384615 103.404,25.384615   C 103.27075,25.384615 103.13749,25.384615 103.00424,25.317989   C 102.87099,25.251363 102.80436,25.184737 102.73773,25.051484   C 102.67111,25.051484 102.67111,24.984858 102.67111,24.984858   C 102.67111,24.984858 102.60448,24.918231 102.60448,24.918231   C 102.53786,25.051484 102.4046,25.184737 102.27135,25.251363   C 102.1381,25.317989 102.00485,25.384615 101.80497,25.384615   C 101.73834,25.384615 101.60509,25.384615 101.53846,25.384615   C 101.40521,25.317989 101.33858,25.317989 101.27196,25.251363   C 101.20533,25.184737 101.1387,25.184737 101.1387,25.11811   C 101.1387,25.051484 101.07208,24.984858 101.07208,24.984858   C 101.07208,24.918231 101.07208,24.918231 101.1387,24.851605   C 101.1387,24.784979 101.20533,24.718353 101.27196,24.651726   C 101.33858,24.5851 101.47184,24.5851 101.53846,24.5851   C 101.60509,24.5851 101.67171,24.5851 101.73834,24.651726   C 101.80497,24.651726 101.80497,24.718353 101.80497,24.784979   C 101.80497,24.784979 101.80497,24.851605 101.80497,24.851605   C 101.73834,24.918231 101.73834,24.984858 101.67171,25.051484   C 101.60509,25.11811 101.53846,25.11811 101.47184,25.11811   C 101.53846,25.184737 101.67171,25.251363 101.87159,25.251363   C 102.00485,25.251363 102.1381,25.184737 102.27135,25.051484   C 102.4046,24.918231 102.47123,24.718353 102.53786,24.518474   L 102.93761,23.252574   C 102.93761,23.119322 103.00424,22.986069 103.00424,22.919443   C 103.00424,22.852816 103.00424,22.852816 103.00424,22.78619   C 103.00424,22.719564 103.00424,22.652938 102.93761,22.586311   C 102.93761,22.519685 102.87099,22.453059 102.80436,22.386432   C 102.73773,22.319806 102.67111,22.319806 102.60448,22.319806   C 102.47123,22.319806 102.33798,22.319806 102.27135,22.386432   C 102.1381,22.453059 102.07147,22.519685 102.00485,22.586311   C 101.87159,22.719564 101.80497,22.78619 101.73834,22.919443   C 101.67171,22.986069 101.60509,23.119322 101.60509,23.252574   C 101.60509,23.3192 101.53846,23.3192 101.47184,23.3192   L 101.40521,23.3192   C 101.33858,23.3192 101.33858,23.3192 101.33858,23.252574   L 101.33858,23.252574   C 101.40521,23.119322 101.47184,22.986069 101.53846,22.852816   C 101.60509,22.719564 101.73834,22.586311 101.80497,22.519685   C 101.93822,22.386432 102.07147,22.319806 102.20472,22.25318   C 102.33798,22.186554 102.47123,22.119927 102.67111,22.119927   C 102.80436,22.119927 102.93761,22.186554 103.07087,22.25318   C 103.13749,22.319806 103.27075,22.386432 103.33737,22.453059   C 103.33737,22.519685 103.33737,22.519685 103.404,22.586311   C 103.404,22.586311 103.404,22.586311 103.404,22.652938   C 103.53725,22.519685 103.60388,22.386432 103.73713,22.319806   C 103.87038,22.186554 104.07026,22.119927 104.20351,22.119927   C 104.33677,22.119927 104.40339,22.186554 104.53664,22.186554   C 104.60327,22.186554 104.6699,22.25318 104.73652,22.25318   C 104.80315,22.319806 104.86978,22.386432 104.9364,22.453059   C 104.9364,22.519685 104.9364,22.519685 104.9364,22.586311   C 104.9364,22.586311 104.9364,22.652938 104.9364,22.719564   z "
     style="fill:#000000;fill-rule:evenodd;fill-opacity:1;stroke:none;" />
  <path
     id="path33"
     d="  M 161.16899,20.720775   C 161.03574,21.120533 160.90248,21.453664 160.76923,21.786796   C 160.56935,22.186554 160.30285,22.519685 160.03634,22.78619   C 159.76984,23.052695 159.50333,23.252574 159.1702,23.385827   C 158.90369,23.585706 158.57056,23.652332 158.23743,23.652332   C 157.9043,23.652332 157.6378,23.585706 157.43792,23.385827   C 157.23804,23.252574 157.10478,23.052695 156.97153,22.78619   C 156.83828,22.453059 156.77165,22.119927 156.77165,21.786796   L 156.77165,21.72017   C 156.77165,21.387038 156.83828,21.053907 156.90491,20.720775   L 158.17081,15.723804   C 158.23743,15.590551 158.23743,15.457299 158.23743,15.390672   L 158.23743,15.390672   C 158.23743,15.324046 158.23743,15.25742 158.17081,15.25742   C 158.17081,15.190793 158.03755,15.190793 157.9043,15.190793   C 157.70442,15.124167 157.57117,15.124167 157.37129,15.124167   C 157.37129,15.124167 157.30466,15.124167 157.30466,15.124167   C 157.30466,15.124167 157.23804,15.057541 157.23804,15.057541   C 157.23804,15.057541 157.30466,14.990915 157.30466,14.990915   L 157.30466,14.924288   C 157.30466,14.857662 157.37129,14.791036 157.50454,14.791036   L 159.1702,14.657783   L 159.23683,14.657783   C 159.23683,14.657783 159.23683,14.657783 159.30345,14.657783   C 159.30345,14.657783 159.30345,14.657783 159.30345,14.724409   C 159.30345,14.724409 159.30345,14.724409 159.30345,14.791036   L 158.30406,18.588734   C 158.50394,18.388855 158.70382,18.188976 158.97032,18.055724   C 159.23683,17.922471 159.43671,17.855845 159.70321,17.855845   C 160.03634,17.855845 160.30285,17.922471 160.56935,18.12235   C 160.76923,18.255603 160.96911,18.455482 161.10236,18.721987   C 161.23561,18.988492 161.30224,19.321623 161.30224,19.721381   L 161.30224,19.788007   C 161.30224,20.121139 161.23561,20.387644 161.16899,20.720775   z  M 160.36947,18.855239   C 160.30285,18.65536 160.23622,18.455482 160.10297,18.322229   C 160.03634,18.188976 159.83646,18.12235 159.63658,18.12235   C 159.43671,18.12235 159.23683,18.188976 159.03695,18.322229   C 158.83707,18.522108 158.63719,18.65536 158.43731,18.855239   C 158.30406,19.055118 158.17081,19.188371 158.10418,19.38825   L 157.70442,20.720775   C 157.6378,21.053907 157.57117,21.387038 157.57117,21.72017   C 157.50454,21.853422 157.50454,21.986675 157.50454,22.119927   C 157.50454,22.25318 157.57117,22.453059 157.57117,22.652938   C 157.6378,22.852816 157.70442,22.986069 157.83767,23.119322   C 157.97093,23.3192 158.10418,23.385827 158.30406,23.385827   C 158.50394,23.385827 158.70382,23.3192 158.90369,23.119322   C 159.10357,22.986069 159.23683,22.852816 159.37008,22.652938   C 159.56996,22.319806 159.76984,22.053301 159.83646,21.72017   C 159.96972,21.387038 160.03634,21.053907 160.16959,20.720775   C 160.23622,20.387644 160.30285,20.054512 160.36947,19.788007   C 160.36947,19.588128 160.4361,19.454876 160.4361,19.321623   C 160.4361,19.188371 160.36947,18.988492 160.36947,18.855239   z "
     style="fill:#000000;fill-rule:evenodd;fill-opacity:1;stroke:none;" />
  <path
     id="path35"
     d="  M 165.63295,22.719564   C 165.56632,22.78619 165.56632,22.852816 165.43307,22.919443   C 165.36644,22.986069 165.29982,22.986069 165.23319,22.986069   C 165.09994,22.986069 165.03331,22.986069 165.03331,22.919443   C 164.96669,22.852816 164.96669,22.852816 164.96669,22.78619   C 164.96669,22.78619 164.96669,22.719564 164.96669,22.719564   C 164.96669,22.586311 165.03331,22.519685 165.09994,22.519685   C 165.16657,22.453059 165.16657,22.453059 165.23319,22.386432   C 165.16657,22.319806 165.03331,22.319806 164.90006,22.319806   C 164.70018,22.319806 164.56693,22.386432 164.43368,22.519685   C 164.36705,22.652938 164.2338,22.78619 164.2338,22.986069   L 163.83404,24.251969   C 163.76741,24.385221 163.76741,24.518474 163.76741,24.651726   C 163.76741,24.718353 163.76741,24.718353 163.76741,24.784979   C 163.76741,24.851605 163.76741,24.918231 163.76741,24.984858   C 163.83404,25.051484 163.83404,25.11811 163.90067,25.184737   C 163.96729,25.184737 164.03392,25.251363 164.16717,25.251363   C 164.2338,25.251363 164.36705,25.184737 164.5003,25.184737   C 164.56693,25.11811 164.70018,25.051484 164.76681,24.918231   C 164.83343,24.851605 164.90006,24.784979 164.96669,24.651726   C 165.03331,24.518474 165.09994,24.385221 165.16657,24.251969   C 165.16657,24.251969 165.16657,24.251969 165.23319,24.251969   L 165.29982,24.251969   C 165.36644,24.251969 165.36644,24.251969 165.36644,24.251969   C 165.36644,24.251969 165.36644,24.251969 165.36644,24.251969   C 165.36644,24.451847 165.29982,24.5851 165.23319,24.718353   C 165.09994,24.851605 165.03331,24.918231 164.90006,25.051484   C 164.83343,25.11811 164.70018,25.251363 164.56693,25.317989   C 164.43368,25.384615 164.2338,25.384615 164.10055,25.384615   C 163.96729,25.384615 163.83404,25.384615 163.70079,25.317989   C 163.56753,25.251363 163.50091,25.184737 163.43428,25.051484   C 163.36766,25.051484 163.36766,24.984858 163.36766,24.984858   C 163.36766,24.984858 163.30103,24.918231 163.30103,24.918231   C 163.2344,25.051484 163.10115,25.184737 162.9679,25.251363   C 162.83465,25.317989 162.70139,25.384615 162.50151,25.384615   C 162.43489,25.384615 162.30164,25.384615 162.23501,25.384615   C 162.10176,25.317989 162.03513,25.317989 161.9685,25.251363   C 161.90188,25.184737 161.83525,25.184737 161.83525,25.11811   C 161.83525,25.051484 161.76863,24.984858 161.76863,24.984858   C 161.76863,24.918231 161.76863,24.918231 161.83525,24.851605   C 161.83525,24.784979 161.90188,24.718353 161.9685,24.651726   C 162.03513,24.5851 162.16838,24.5851 162.23501,24.5851   C 162.30164,24.5851 162.36826,24.5851 162.43489,24.651726   C 162.50151,24.651726 162.50151,24.718353 162.50151,24.784979   C 162.50151,24.784979 162.50151,24.851605 162.50151,24.851605   C 162.43489,24.918231 162.43489,24.984858 162.36826,25.051484   C 162.30164,25.11811 162.23501,25.11811 162.16838,25.11811   C 162.23501,25.184737 162.36826,25.251363 162.56814,25.251363   C 162.70139,25.251363 162.83465,25.184737 162.9679,25.051484   C 163.10115,24.918231 163.16778,24.718353 163.2344,24.518474   L 163.63416,23.252574   C 163.63416,23.119322 163.70079,22.986069 163.70079,22.919443   C 163.70079,22.852816 163.70079,22.852816 163.70079,22.78619   C 163.70079,22.719564 163.70079,22.652938 163.63416,22.586311   C 163.63416,22.519685 163.56753,22.453059 163.50091,22.386432   C 163.43428,22.319806 163.36766,22.319806 163.30103,22.319806   C 163.16778,22.319806 163.03452,22.319806 162.9679,22.386432   C 162.83465,22.453059 162.76802,22.519685 162.70139,22.586311   C 162.56814,22.719564 162.50151,22.78619 162.43489,22.919443   C 162.36826,22.986069 162.30164,23.119322 162.30164,23.252574   C 162.30164,23.3192 162.23501,23.3192 162.16838,23.3192   L 162.10176,23.3192   C 162.03513,23.3192 162.03513,23.3192 162.03513,23.252574   L 162.03513,23.252574   C 162.10176,23.119322 162.16838,22.986069 162.23501,22.852816   C 162.30164,22.719564 162.43489,22.586311 162.50151,22.519685   C 162.63477,22.386432 162.76802,22.319806 162.90127,22.25318   C 163.03452,22.186554 163.16778,22.119927 163.36766,22.119927   C 163.50091,22.119927 163.63416,22.186554 163.76741,22.25318   C 163.83404,22.319806 163.96729,22.386432 164.03392,22.453059   C 164.03392,22.519685 164.03392,22.519685 164.10055,22.586311   C 164.10055,22.586311 164.10055,22.586311 164.10055,22.652938   C 164.2338,22.519685 164.30042,22.386432 164.43368,22.319806   C 164.56693,22.186554 164.76681,22.119927 164.90006,22.119927   C 165.03331,22.119927 165.09994,22.186554 165.23319,22.186554   C 165.29982,22.186554 165.36644,22.25318 165.43307,22.25318   C 165.4997,22.319806 165.56632,22.386432 165.63295,22.453059   C 165.63295,22.519685 165.63295,22.519685 165.63295,22.586311   C 165.63295,22.586311 165.63295,22.652938 165.63295,22.719564   z "
     style="fill:#000000;fill-rule:evenodd;fill-opacity:1;stroke:none;" />
  <path
     id="path37"
     d="  M 79.485161,39.509388   C 79.418534,39.709267 79.351908,39.909146 79.285282,40.175651   C 79.218655,40.37553 79.152029,40.575409 79.018776,40.775288   C 78.95215,40.975167 78.818898,41.175045 78.685645,41.308298   C 78.485766,41.441551 78.285887,41.508177 78.086008,41.508177   C 77.752877,41.508177 77.552998,41.441551 77.353119,41.241672   C 77.15324,41.108419 77.019988,40.841914 77.019988,40.575409   C 76.820109,40.841914 76.553604,41.041793 76.287099,41.241672   C 76.020594,41.441551 75.687462,41.508177 75.420957,41.508177   C 75.087826,41.508177 74.82132,41.441551 74.554815,41.241672   C 74.354936,41.108419 74.155058,40.90854 74.088431,40.642035   C 73.888552,40.37553 73.821926,40.042399 73.821926,39.642641   L 73.821926,39.576015   C 73.821926,39.242883 73.888552,38.909752 73.955179,38.643247   C 74.088431,38.243489 74.221684,37.910357 74.354936,37.577226   C 74.554815,37.177468 74.82132,36.844337 75.087826,36.577832   C 75.354331,36.311326 75.620836,36.111448 75.953967,35.978195   C 76.287099,35.778316 76.553604,35.71169 76.886735,35.71169   C 77.15324,35.71169 77.353119,35.778316 77.552998,35.911569   C 77.752877,36.044821 77.88613,36.2447 77.952756,36.444579   L 77.952756,36.377953   C 78.019382,36.2447 78.086008,36.111448 78.152635,36.044821   C 78.285887,35.978195 78.352514,35.978195 78.485766,35.978195   C 78.552392,35.978195 78.685645,35.978195 78.752271,36.044821   C 78.818898,36.111448 78.818898,36.178074 78.818898,36.2447   C 78.818898,36.311326 78.818898,36.311326 78.818898,36.377953   L 77.88613,39.975772   C 77.819503,40.175651 77.819503,40.308904 77.819503,40.442156   C 77.752877,40.575409 77.752877,40.642035 77.752877,40.708661   C 77.752877,40.708661 77.752877,40.775288 77.819503,40.841914   C 77.819503,40.975167 77.819503,41.041793 77.88613,41.108419   C 77.952756,41.175045 78.019382,41.241672 78.152635,41.241672   C 78.285887,41.241672 78.352514,41.175045 78.41914,41.108419   C 78.552392,41.041793 78.619019,40.90854 78.685645,40.708661   C 78.752271,40.575409 78.818898,40.37553 78.885524,40.175651   C 78.95215,39.975772 79.018776,39.775893 79.085403,39.509388   C 79.085403,39.442762 79.152029,39.376136 79.218655,39.376136   L 79.351908,39.376136   C 79.418534,39.376136 79.485161,39.442762 79.485161,39.509388   L 79.485161,39.509388   z  M 77.752877,37.244094   C 77.752877,37.110842 77.752877,37.044216 77.686251,36.977589   C 77.686251,36.910963 77.686251,36.844337 77.619624,36.711084   C 77.552998,36.511205 77.486372,36.377953 77.353119,36.2447   C 77.219867,36.044821 77.019988,35.978195 76.820109,35.978195   C 76.62023,35.978195 76.420351,36.044821 76.220472,36.178074   C 76.08722,36.311326 75.887341,36.511205 75.754088,36.711084   C 75.55421,37.044216 75.354331,37.310721 75.287704,37.643852   C 75.154452,37.976984 75.087826,38.243489 75.021199,38.643247   C 74.887947,38.976378 74.82132,39.242883 74.754694,39.576015   C 74.754694,39.775893 74.754694,39.909146 74.754694,40.042399   C 74.754694,40.175651 74.754694,40.37553 74.754694,40.508783   C 74.82132,40.708661 74.887947,40.841914 75.021199,41.041793   C 75.087826,41.175045 75.287704,41.241672 75.487583,41.241672   C 75.687462,41.241672 75.887341,41.175045 76.08722,40.975167   C 76.287099,40.841914 76.486978,40.708661 76.686856,40.508783   C 76.753483,40.37553 76.820109,40.308904 76.886735,40.242277   C 76.953362,40.175651 77.019988,40.042399 77.019988,39.975772   L 77.752877,37.244094   z "
     style="fill:#000000;fill-rule:evenodd;fill-opacity:1;stroke:none;" />
  <path
     id="path39"
     d="  M 82.683222,43.173834   C 82.683222,43.373713 82.54997,43.573592 82.416717,43.706844   C 82.350091,43.906723 82.216838,44.039976 82.016959,44.173228   C 81.883707,44.306481 81.683828,44.439733 81.483949,44.50636   C 81.28407,44.639612 81.084191,44.639612 80.884313,44.639612   C 80.75106,44.639612 80.617807,44.639612 80.484555,44.572986   C 80.417929,44.572986 80.351302,44.50636 80.284676,44.439733   C 80.21805,44.373107 80.151423,44.306481 80.151423,44.173228   C 80.084797,44.106602 80.084797,44.106602 80.084797,44.039976   C 80.084797,43.973349 80.151423,43.906723 80.151423,43.840097   C 80.151423,43.773471 80.21805,43.706844 80.284676,43.640218   C 80.351302,43.640218 80.484555,43.573592 80.551181,43.573592   C 80.617807,43.573592 80.684434,43.640218 80.75106,43.640218   C 80.817686,43.706844 80.817686,43.706844 80.817686,43.773471   C 80.817686,43.840097 80.817686,43.840097 80.817686,43.840097   C 80.75106,43.973349 80.684434,44.039976 80.617807,44.106602   C 80.551181,44.106602 80.484555,44.173228 80.417929,44.173228   C 80.417929,44.239855 80.484555,44.306481 80.551181,44.373107   C 80.684434,44.439733 80.75106,44.50636 80.884313,44.50636   C 81.084191,44.50636 81.217444,44.439733 81.350697,44.373107   C 81.483949,44.306481 81.617202,44.239855 81.683828,44.106602   C 81.817081,43.973349 81.883707,43.840097 81.950333,43.640218   C 82.083586,43.506965 82.150212,43.373713 82.150212,43.173834   L 82.216838,42.973955   C 82.150212,43.040581 82.016959,43.107208 81.883707,43.173834   C 81.750454,43.24046 81.617202,43.24046 81.483949,43.24046   C 81.28407,43.24046 81.150818,43.24046 81.017565,43.173834   C 80.884313,43.107208 80.75106,43.040581 80.684434,42.907329   C 80.617807,42.774076 80.551181,42.640824 80.551181,42.440945   L 80.551181,42.440945   C 80.551181,42.307692 80.617807,42.107813 80.617807,41.974561   C 80.684434,41.774682 80.75106,41.641429 80.817686,41.441551   C 80.884313,41.241672 81.017565,41.041793 81.084191,40.841914   C 81.150818,40.642035 81.217444,40.508783 81.217444,40.37553   C 81.217444,40.242277 81.150818,40.175651 81.017565,40.175651   C 80.884313,40.175651 80.817686,40.175651 80.75106,40.242277   C 80.684434,40.308904 80.551181,40.37553 80.551181,40.442156   C 80.484555,40.508783 80.417929,40.642035 80.351302,40.775288   C 80.284676,40.841914 80.284676,40.975167 80.21805,41.108419   C 80.21805,41.175045 80.151423,41.175045 80.151423,41.175045   L 80.018171,41.175045   C 80.018171,41.175045 79.951545,41.175045 79.951545,41.108419   L 79.951545,41.108419   C 80.018171,40.975167 80.084797,40.841914 80.084797,40.708661   C 80.151423,40.575409 80.284676,40.508783 80.351302,40.37553   C 80.417929,40.242277 80.551181,40.175651 80.684434,40.109025   C 80.75106,40.042399 80.884313,40.042399 81.084191,40.042399   C 81.150818,40.042399 81.28407,40.042399 81.350697,40.109025   C 81.483949,40.109025 81.550575,40.175651 81.550575,40.242277   C 81.617202,40.37553 81.683828,40.442156 81.683828,40.575409   L 81.683828,40.575409   C 81.683828,40.642035 81.617202,40.775288 81.617202,40.841914   C 81.483949,41.041793 81.417323,41.241672 81.350697,41.441551   C 81.28407,41.641429 81.217444,41.774682 81.150818,41.974561   C 81.150818,42.107813 81.084191,42.241066 81.084191,42.374319   C 81.084191,42.440945 81.084191,42.507571 81.084191,42.507571   C 81.084191,42.640824 81.084191,42.70745 81.150818,42.840703   C 81.150818,42.907329 81.217444,42.973955 81.28407,43.040581   C 81.350697,43.040581 81.417323,43.107208 81.550575,43.107208   C 81.683828,43.107208 81.883707,43.040581 82.016959,42.973955   C 82.150212,42.840703 82.283465,42.70745 82.350091,42.574197   L 83.016354,40.308904   C 83.016354,40.242277 83.08298,40.175651 83.149606,40.175651   C 83.216233,40.109025 83.282859,40.109025 83.349485,40.109025   C 83.416111,40.109025 83.482738,40.109025 83.482738,40.175651   C 83.549364,40.175651 83.549364,40.175651 83.549364,40.242277   C 83.549364,40.242277 83.549364,40.308904 83.549364,40.308904   z "
     style="fill:#000000;fill-rule:evenodd;fill-opacity:1;stroke:none;" />
  <path
     id="path41"
     d="  M 87.546941,37.577226   L 96.474864,37.577226  "
     style="fill:none;stroke:#000000;stroke-width:0.5330103px;stroke-linecap:round;stroke-linejoin:miter;stroke-miterlimit:10;stroke-dasharray:none;stroke-opacity:1;" />
  <path
     id="path43"
     d="  M 92.010902,33.113265   L 92.010902,42.041187  "
     style="fill:none;stroke:#000000;stroke-width:0.5330103px;stroke-linecap:round;stroke-linejoin:miter;stroke-miterlimit:10;stroke-dasharray:none;stroke-opacity:1;" />
  <path
     id="path45"
     d="  M 105.73592,36.644458   C 105.73592,36.844337 105.60267,36.977589 105.46941,37.044216   C 105.33616,37.177468 105.26953,37.177468 105.13628,37.177468   C 105.00303,37.177468 104.86978,37.177468 104.80315,37.044216   C 104.73652,36.977589 104.6699,36.910963 104.6699,36.844337   C 104.6699,36.77771 104.6699,36.711084 104.73652,36.644458   C 104.73652,36.511205 104.80315,36.377953 104.9364,36.311326   C 105.06965,36.2447 105.13628,36.178074 105.26953,36.178074   C 105.20291,36.044821 105.06965,35.978195 104.9364,35.978195   C 104.6699,35.978195 104.40339,36.111448 104.13689,36.2447   C 103.93701,36.444579 103.73713,36.644458 103.47062,36.844337   C 103.27075,37.110842 103.07087,37.310721 102.87099,37.577226   C 102.60448,37.843731 102.4046,38.04361 102.1381,38.176863   C 102.4046,38.176863 102.67111,38.243489 102.87099,38.310115   C 103.13749,38.443368 103.33737,38.509994 103.47062,38.643247   C 103.6705,38.776499 103.80376,38.976378 103.87038,39.109631   C 103.87038,39.242883 103.87038,39.376136 103.93701,39.509388   C 103.93701,39.576015 103.87038,39.709267 103.87038,39.84252   C 103.80376,39.975772 103.80376,40.175651 103.73713,40.37553   C 103.73713,40.442156 103.73713,40.575409 103.73713,40.642035   C 103.73713,40.708661 103.73713,40.775288 103.73713,40.841914   C 103.73713,40.90854 103.80376,41.041793 103.87038,41.108419   C 103.93701,41.175045 104.00363,41.241672 104.13689,41.241672   C 104.27014,41.241672 104.40339,41.175045 104.47002,41.108419   C 104.60327,40.975167 104.6699,40.841914 104.80315,40.708661   C 104.86978,40.575409 104.9364,40.37553 105.00303,40.175651   C 105.06965,39.975772 105.13628,39.775893 105.13628,39.509388   C 105.20291,39.442762 105.26953,39.376136 105.33616,39.376136   L 105.46941,39.376136   C 105.53604,39.376136 105.60267,39.442762 105.60267,39.509388   L 105.60267,39.509388   C 105.53604,39.709267 105.46941,39.975772 105.40279,40.175651   C 105.33616,40.442156 105.20291,40.642035 105.06965,40.841914   C 104.9364,41.041793 104.80315,41.175045 104.6699,41.308298   C 104.47002,41.441551 104.27014,41.508177 104.07026,41.508177   C 103.80376,41.508177 103.6705,41.441551 103.47062,41.374924   C 103.33737,41.241672 103.20412,41.108419 103.13749,40.975167   C 103.00424,40.841914 103.00424,40.642035 102.93761,40.442156   L 102.93761,40.308904   C 102.93761,40.109025 103.00424,39.975772 103.00424,39.84252   C 103.07087,39.709267 103.07087,39.642641 103.07087,39.509388   C 103.07087,39.242883 103.00424,39.043004 102.80436,38.909752   C 102.53786,38.643247 102.1381,38.509994 101.73834,38.443368   L 101.00545,41.108419   C 101.00545,41.241672 100.93882,41.308298 100.80557,41.374924   C 100.73895,41.441551 100.60569,41.508177 100.47244,41.508177   C 100.40581,41.508177 100.33919,41.441551 100.27256,41.374924   C 100.20594,41.374924 100.20594,41.308298 100.20594,41.241672   C 100.20594,41.175045 100.20594,41.108419 100.20594,41.108419   L 102.1381,33.579649   C 102.1381,33.446396 102.20472,33.313144 102.20472,33.246517   L 102.20472,33.246517   C 102.20472,33.179891 102.20472,33.113265 102.1381,33.113265   C 102.07147,33.046638 102.00485,33.046638 101.80497,33.046638   C 101.67171,33.046638 101.53846,32.980012 101.33858,32.980012   C 101.27196,32.980012 101.27196,32.980012 101.20533,32.980012   C 101.20533,32.980012 101.20533,32.913386 101.20533,32.913386   C 101.20533,32.913386 101.20533,32.913386 101.20533,32.84676   L 101.27196,32.780133   C 101.27196,32.713507 101.33858,32.646881 101.40521,32.646881   L 103.07087,32.513628   L 103.13749,32.513628   C 103.13749,32.513628 103.20412,32.513628 103.20412,32.513628   C 103.20412,32.513628 103.20412,32.580254 103.20412,32.580254   C 103.20412,32.580254 103.20412,32.580254 103.20412,32.646881   L 101.80497,38.04361   C 102.00485,37.976984 102.20472,37.843731 102.33798,37.710478   C 102.53786,37.577226 102.67111,37.443973 102.80436,37.244094   C 103.00424,37.044216 103.13749,36.910963 103.33737,36.711084   C 103.47062,36.511205 103.60388,36.377953 103.80376,36.2447   C 104.00363,36.044821 104.20351,35.911569 104.33677,35.844942   C 104.53664,35.778316 104.80315,35.71169 105.00303,35.71169   C 105.26953,35.71169 105.53604,35.778316 105.66929,35.978195   C 105.73592,36.111448 105.80254,36.2447 105.80254,36.444579   C 105.80254,36.511205 105.80254,36.577832 105.73592,36.644458   z "
     style="fill:#008000;fill-rule:evenodd;fill-opacity:1;stroke:none;" />
  <path
     id="path47"
     d="  M 111.73228,37.577226   C 111.73228,38.04361 111.39915,38.376741 110.93277,38.376741   C 110.53301,38.376741 110.13325,38.04361 110.13325,37.577226   C 110.13325,37.177468 110.53301,36.77771 110.93277,36.77771   C 111.39915,36.77771 111.73228,37.177468 111.73228,37.577226   z "
     style="fill:#008000;fill-rule:evenodd;fill-opacity:1;stroke:none;" />
  <path
     id="path49"
     d="  M 121.72623,39.509388   C 121.6596,39.709267 121.59297,39.909146 121.59297,40.175651   C 121.52635,40.37553 121.3931,40.575409 121.32647,40.775288   C 121.19322,40.975167 121.05996,41.175045 120.92671,41.308298   C 120.79346,41.441551 120.59358,41.508177 120.32707,41.508177   C 120.06057,41.508177 119.79406,41.441551 119.59419,41.241672   C 119.39431,41.108419 119.32768,40.841914 119.26105,40.575409   C 119.06118,40.841914 118.79467,41.041793 118.52816,41.241672   C 118.26166,41.441551 117.99515,41.508177 117.66202,41.508177   C 117.32889,41.508177 117.06239,41.441551 116.86251,41.241672   C 116.596,41.108419 116.46275,40.90854 116.3295,40.642035   C 116.19624,40.37553 116.12962,40.042399 116.06299,39.642641   L 116.06299,39.576015   C 116.06299,39.242883 116.12962,38.909752 116.19624,38.643247   C 116.3295,38.243489 116.46275,37.910357 116.66263,37.577226   C 116.86251,37.177468 117.06239,36.844337 117.39552,36.577832   C 117.5954,36.311326 117.8619,36.111448 118.19503,35.978195   C 118.52816,35.778316 118.8613,35.71169 119.1278,35.71169   C 119.39431,35.71169 119.66081,35.778316 119.79406,35.911569   C 119.99394,36.044821 120.1272,36.2447 120.19382,36.444579   L 120.26045,36.377953   C 120.26045,36.2447 120.32707,36.111448 120.3937,36.044821   C 120.52695,35.978195 120.59358,35.978195 120.72683,35.978195   C 120.86008,35.978195 120.92671,35.978195 120.99334,36.044821   C 121.05996,36.111448 121.05996,36.178074 121.05996,36.2447   C 121.05996,36.311326 121.05996,36.311326 121.05996,36.377953   L 120.1272,39.975772   C 120.1272,40.175651 120.06057,40.308904 120.06057,40.442156   C 120.06057,40.575409 120.06057,40.642035 120.06057,40.708661   C 120.06057,40.708661 120.06057,40.775288 120.06057,40.841914   C 120.06057,40.975167 120.1272,41.041793 120.19382,41.108419   C 120.26045,41.175045 120.32707,41.241672 120.3937,41.241672   C 120.52695,41.241672 120.59358,41.175045 120.72683,41.108419   C 120.79346,41.041793 120.86008,40.90854 120.92671,40.708661   C 120.99334,40.575409 121.05996,40.37553 121.12659,40.175651   C 121.19322,39.975772 121.25984,39.775893 121.32647,39.509388   C 121.32647,39.442762 121.3931,39.376136 121.45972,39.376136   L 121.6596,39.376136   C 121.72623,39.376136 121.72623,39.442762 121.72623,39.509388   L 121.72623,39.509388   z  M 119.99394,37.244094   C 119.99394,37.110842 119.99394,37.044216 119.99394,36.977589   C 119.99394,36.910963 119.92732,36.844337 119.92732,36.711084   C 119.86069,36.511205 119.72744,36.377953 119.59419,36.2447   C 119.46093,36.044821 119.26105,35.978195 119.06118,35.978195   C 118.8613,35.978195 118.72804,36.044821 118.52816,36.178074   C 118.32829,36.311326 118.19503,36.511205 117.99515,36.711084   C 117.79528,37.044216 117.66202,37.310721 117.52877,37.643852   C 117.46214,37.976984 117.32889,38.243489 117.26227,38.643247   C 117.19564,38.976378 117.12901,39.242883 117.06239,39.576015   C 116.99576,39.775893 116.99576,39.909146 116.99576,40.042399   C 116.99576,40.175651 116.99576,40.37553 117.06239,40.508783   C 117.06239,40.708661 117.19564,40.841914 117.26227,41.041793   C 117.39552,41.175045 117.52877,41.241672 117.72865,41.241672   C 117.92853,41.241672 118.12841,41.175045 118.39491,40.975167   C 118.59479,40.841914 118.79467,40.708661 118.92792,40.508783   C 118.99455,40.37553 119.06118,40.308904 119.1278,40.242277   C 119.19443,40.175651 119.26105,40.042399 119.32768,39.975772   L 119.99394,37.244094   z "
     style="fill:#008000;fill-rule:evenodd;fill-opacity:1;stroke:none;" />
  <path
     id="path51"
     d="  M 126.05694,40.575409   C 126.05694,40.642035 125.99031,40.708661 125.92368,40.775288   C 125.79043,40.841914 125.7238,40.841914 125.65718,40.841914   C 125.59055,40.841914 125.52392,40.841914 125.4573,40.775288   C 125.39067,40.708661 125.39067,40.708661 125.39067,40.642035   C 125.39067,40.642035 125.39067,40.575409 125.39067,40.575409   C 125.39067,40.442156 125.4573,40.37553 125.52392,40.37553   C 125.59055,40.308904 125.65718,40.308904 125.7238,40.242277   C 125.59055,40.175651 125.4573,40.175651 125.32405,40.175651   C 125.12417,40.175651 124.99091,40.242277 124.92429,40.37553   C 124.79104,40.508783 124.72441,40.708661 124.65778,40.841914   L 124.25803,42.17444   C 124.25803,42.241066 124.1914,42.374319 124.1914,42.507571   C 124.1914,42.574197 124.1914,42.574197 124.1914,42.640824   C 124.1914,42.70745 124.1914,42.774076 124.1914,42.840703   C 124.25803,42.907329 124.25803,42.973955 124.32465,43.040581   C 124.39128,43.040581 124.4579,43.107208 124.59116,43.107208   C 124.72441,43.107208 124.79104,43.040581 124.92429,43.040581   C 124.99091,42.973955 125.12417,42.907329 125.19079,42.774076   C 125.25742,42.70745 125.32405,42.640824 125.39067,42.507571   C 125.4573,42.374319 125.52392,42.241066 125.59055,42.17444   C 125.59055,42.107813 125.59055,42.107813 125.65718,42.107813   L 125.79043,42.107813   C 125.79043,42.107813 125.85706,42.107813 125.85706,42.107813   C 125.85706,42.107813 125.85706,42.107813 125.85706,42.17444   C 125.79043,42.307692 125.7238,42.440945 125.65718,42.574197   C 125.59055,42.70745 125.4573,42.774076 125.32405,42.907329   C 125.25742,43.040581 125.12417,43.107208 124.99091,43.173834   C 124.85766,43.24046 124.65778,43.24046 124.52453,43.24046   C 124.39128,43.24046 124.25803,43.24046 124.12477,43.173834   C 123.99152,43.107208 123.92489,43.040581 123.85827,42.907329   C 123.79164,42.907329 123.79164,42.907329 123.79164,42.840703   C 123.79164,42.840703 123.79164,42.774076 123.72502,42.774076   C 123.65839,42.907329 123.52514,43.040581 123.39188,43.107208   C 123.25863,43.24046 123.12538,43.24046 122.9255,43.24046   C 122.85887,43.24046 122.72562,43.24046 122.65899,43.24046   C 122.59237,43.173834 122.45912,43.173834 122.39249,43.107208   C 122.32586,43.107208 122.25924,43.040581 122.25924,42.973955   C 122.25924,42.907329 122.25924,42.907329 122.25924,42.840703   C 122.25924,42.774076 122.25924,42.774076 122.25924,42.70745   C 122.25924,42.640824 122.32586,42.574197 122.39249,42.507571   C 122.52574,42.440945 122.59237,42.440945 122.65899,42.440945   C 122.72562,42.440945 122.79225,42.440945 122.85887,42.507571   C 122.9255,42.507571 122.9255,42.574197 122.9255,42.640824   C 122.9255,42.640824 122.9255,42.70745 122.9255,42.70745   C 122.9255,42.774076 122.85887,42.840703 122.79225,42.907329   C 122.72562,42.973955 122.65899,42.973955 122.59237,42.973955   C 122.72562,43.040581 122.85887,43.107208 122.99213,43.107208   C 123.12538,43.107208 123.25863,43.040581 123.39188,42.907329   C 123.52514,42.774076 123.59176,42.574197 123.65839,42.374319   L 124.05815,41.108419   C 124.05815,40.975167 124.12477,40.841914 124.12477,40.775288   C 124.12477,40.708661 124.12477,40.708661 124.12477,40.642035   C 124.12477,40.575409 124.12477,40.508783 124.12477,40.442156   C 124.05815,40.37553 124.05815,40.308904 123.99152,40.242277   C 123.92489,40.175651 123.79164,40.175651 123.72502,40.175651   C 123.59176,40.175651 123.52514,40.175651 123.39188,40.242277   C 123.32526,40.308904 123.192,40.37553 123.12538,40.442156   C 122.99213,40.575409 122.9255,40.642035 122.85887,40.775288   C 122.79225,40.90854 122.79225,40.975167 122.72562,41.108419   C 122.72562,41.175045 122.65899,41.175045 122.65899,41.175045   L 122.52574,41.175045   C 122.52574,41.175045 122.45912,41.175045 122.45912,41.108419   L 122.45912,41.108419   C 122.52574,40.975167 122.59237,40.841914 122.65899,40.708661   C 122.72562,40.575409 122.85887,40.442156 122.9255,40.37553   C 123.05875,40.242277 123.192,40.175651 123.32526,40.109025   C 123.45851,40.042399 123.59176,40.042399 123.79164,40.042399   C 123.92489,40.042399 124.05815,40.042399 124.1914,40.109025   C 124.32465,40.175651 124.39128,40.242277 124.4579,40.308904   C 124.4579,40.37553 124.52453,40.37553 124.52453,40.442156   C 124.52453,40.442156 124.52453,40.442156 124.52453,40.508783   C 124.65778,40.37553 124.79104,40.242277 124.92429,40.175651   C 125.05754,40.042399 125.19079,40.042399 125.32405,40.042399   C 125.4573,40.042399 125.52392,40.042399 125.65718,40.042399   C 125.7238,40.042399 125.85706,40.109025 125.92368,40.109025   C 125.99031,40.175651 125.99031,40.242277 126.05694,40.308904   C 126.05694,40.37553 126.05694,40.37553 126.05694,40.442156   C 126.05694,40.442156 126.05694,40.508783 126.05694,40.575409   z "
     style="fill:#008000;fill-rule:evenodd;fill-opacity:1;stroke:none;" />
  <path
     id="path53"
     d="  M 140.58147,38.643247   C 140.51484,38.976378 140.38159,39.309509 140.18171,39.642641   C 139.98183,40.042399 139.71532,40.37553 139.44882,40.642035   C 139.18231,40.90854 138.91581,41.108419 138.58268,41.241672   C 138.31617,41.441551 137.98304,41.508177 137.64991,41.508177   C 137.3834,41.508177 137.1169,41.441551 136.91702,41.241672   C 136.65051,41.108419 136.51726,40.90854 136.38401,40.642035   C 136.25076,40.308904 136.18413,39.975772 136.18413,39.642641   L 136.18413,39.576015   C 136.18413,39.242883 136.25076,38.909752 136.31738,38.643247   L 137.58328,33.579649   C 137.64991,33.446396 137.64991,33.313144 137.64991,33.246517   L 137.64991,33.246517   C 137.64991,33.179891 137.64991,33.113265 137.64991,33.113265   C 137.58328,33.046638 137.45003,33.046638 137.31678,33.046638   C 137.18353,33.046638 136.98365,32.980012 136.78377,32.980012   C 136.78377,32.980012 136.71714,32.980012 136.71714,32.980012   C 136.71714,32.980012 136.71714,32.913386 136.71714,32.913386   C 136.71714,32.913386 136.71714,32.913386 136.71714,32.84676   L 136.71714,32.780133   C 136.78377,32.713507 136.78377,32.646881 136.91702,32.646881   L 138.58268,32.513628   L 138.6493,32.513628   C 138.6493,32.513628 138.71593,32.513628 138.71593,32.513628   C 138.71593,32.513628 138.71593,32.580254 138.71593,32.580254   C 138.71593,32.580254 138.71593,32.580254 138.71593,32.646881   L 137.71654,36.444579   C 137.91641,36.2447 138.11629,36.044821 138.3828,35.911569   C 138.6493,35.778316 138.91581,35.71169 139.18231,35.71169   C 139.44882,35.71169 139.78195,35.778316 139.98183,35.978195   C 140.18171,36.111448 140.38159,36.311326 140.51484,36.577832   C 140.64809,36.844337 140.71472,37.177468 140.71472,37.577226   L 140.71472,37.643852   C 140.71472,37.976984 140.64809,38.310115 140.58147,38.643247   z  M 139.78195,36.711084   C 139.71532,36.511205 139.6487,36.311326 139.51545,36.178074   C 139.44882,36.044821 139.24894,35.978195 139.11569,35.978195   C 138.84918,35.978195 138.6493,36.044821 138.44942,36.2447   C 138.24955,36.377953 138.04967,36.511205 137.84979,36.711084   C 137.71654,36.910963 137.64991,37.044216 137.51666,37.244094   L 137.18353,38.643247   C 137.05027,38.976378 136.98365,39.242883 136.98365,39.576015   C 136.91702,39.709267 136.91702,39.84252 136.91702,39.975772   C 136.91702,40.175651 136.98365,40.308904 136.98365,40.508783   C 137.05027,40.708661 137.1169,40.841914 137.25015,41.041793   C 137.3834,41.175045 137.51666,41.241672 137.71654,41.241672   C 137.91641,41.241672 138.11629,41.175045 138.31617,41.041793   C 138.51605,40.841914 138.6493,40.708661 138.78256,40.508783   C 139.04906,40.242277 139.18231,39.909146 139.31557,39.576015   C 139.38219,39.242883 139.51545,38.976378 139.58207,38.643247   C 139.6487,38.243489 139.71532,37.910357 139.78195,37.643852   C 139.84858,37.443973 139.84858,37.310721 139.84858,37.177468   C 139.84858,37.044216 139.84858,36.844337 139.78195,36.711084   z "
     style="fill:#000000;fill-rule:evenodd;fill-opacity:1;stroke:none;" />
  <path
     id="path55"
     d="  M 143.97941,43.173834   C 143.91278,43.373713 143.84615,43.573592 143.7129,43.706844   C 143.57965,43.906723 143.4464,44.039976 143.24652,44.173228   C 143.11326,44.306481 142.91339,44.439733 142.71351,44.50636   C 142.51363,44.639612 142.31375,44.639612 142.11387,44.639612   C 141.98062,44.639612 141.84737,44.639612 141.78074,44.572986   C 141.64749,44.572986 141.58086,44.50636 141.51423,44.439733   C 141.44761,44.373107 141.38098,44.306481 141.38098,44.173228   C 141.38098,44.106602 141.38098,44.106602 141.38098,44.039976   C 141.38098,43.973349 141.38098,43.906723 141.38098,43.840097   C 141.44761,43.773471 141.44761,43.706844 141.58086,43.640218   C 141.64749,43.640218 141.71411,43.573592 141.78074,43.573592   C 141.91399,43.573592 141.98062,43.640218 141.98062,43.640218   C 142.04724,43.706844 142.04724,43.706844 142.04724,43.773471   C 142.04724,43.840097 142.04724,43.840097 142.04724,43.840097   C 142.04724,43.973349 141.98062,44.039976 141.91399,44.106602   C 141.78074,44.106602 141.71411,44.173228 141.64749,44.173228   C 141.64749,44.239855 141.71411,44.306481 141.84737,44.373107   C 141.91399,44.439733 142.04724,44.50636 142.1805,44.50636   C 142.31375,44.50636 142.447,44.439733 142.58025,44.373107   C 142.71351,44.306481 142.84676,44.239855 142.98001,44.106602   C 143.04664,43.973349 143.17989,43.840097 143.24652,43.640218   C 143.31314,43.506965 143.37977,43.373713 143.4464,43.173834   L 143.51302,42.973955   C 143.37977,43.040581 143.24652,43.107208 143.11326,43.173834   C 143.04664,43.24046 142.91339,43.24046 142.71351,43.24046   C 142.58025,43.24046 142.38038,43.24046 142.24712,43.173834   C 142.11387,43.107208 142.04724,43.040581 141.91399,42.907329   C 141.84737,42.774076 141.84737,42.640824 141.84737,42.440945   L 141.84737,42.440945   C 141.84737,42.307692 141.84737,42.107813 141.91399,41.974561   C 141.91399,41.774682 141.98062,41.641429 142.11387,41.441551   C 142.1805,41.241672 142.24712,41.041793 142.31375,40.841914   C 142.38038,40.642035 142.447,40.508783 142.447,40.37553   C 142.447,40.242277 142.38038,40.175651 142.24712,40.175651   C 142.1805,40.175651 142.04724,40.175651 141.98062,40.242277   C 141.91399,40.308904 141.84737,40.37553 141.78074,40.442156   C 141.71411,40.508783 141.64749,40.642035 141.58086,40.775288   C 141.58086,40.841914 141.51423,40.975167 141.51423,41.108419   C 141.44761,41.175045 141.44761,41.175045 141.38098,41.175045   L 141.24773,41.175045   C 141.24773,41.175045 141.24773,41.175045 141.24773,41.108419   L 141.24773,41.108419   C 141.24773,40.975167 141.31435,40.841914 141.38098,40.708661   C 141.44761,40.575409 141.51423,40.508783 141.58086,40.37553   C 141.71411,40.242277 141.78074,40.175651 141.91399,40.109025   C 142.04724,40.042399 142.1805,40.042399 142.31375,40.042399   C 142.447,40.042399 142.51363,40.042399 142.64688,40.109025   C 142.71351,40.109025 142.78013,40.175651 142.84676,40.242277   C 142.84676,40.37553 142.91339,40.442156 142.91339,40.575409   L 142.91339,40.575409   C 142.91339,40.642035 142.91339,40.775288 142.84676,40.841914   C 142.78013,41.041793 142.71351,41.241672 142.58025,41.441551   C 142.51363,41.641429 142.447,41.774682 142.447,41.974561   C 142.38038,42.107813 142.38038,42.241066 142.31375,42.374319   C 142.31375,42.440945 142.31375,42.507571 142.31375,42.507571   C 142.31375,42.640824 142.31375,42.70745 142.38038,42.840703   C 142.38038,42.907329 142.447,42.973955 142.51363,43.040581   C 142.58025,43.040581 142.64688,43.107208 142.78013,43.107208   C 142.98001,43.107208 143.11326,43.040581 143.24652,42.973955   C 143.37977,42.840703 143.51302,42.70745 143.57965,42.574197   L 144.24591,40.308904   C 144.24591,40.242277 144.31254,40.175651 144.37916,40.175651   C 144.44579,40.109025 144.51242,40.109025 144.57904,40.109025   C 144.64567,40.109025 144.7123,40.109025 144.77892,40.175651   C 144.77892,40.175651 144.77892,40.175651 144.77892,40.242277   C 144.77892,40.242277 144.77892,40.308904 144.77892,40.308904   z "
     style="fill:#000000;fill-rule:evenodd;fill-opacity:1;stroke:none;" />
  <path
     id="path57"
     d="  M 148.7765,37.577226   L 157.70442,37.577226  "
     style="fill:none;stroke:#000000;stroke-width:0.5330103px;stroke-linecap:round;stroke-linejoin:miter;stroke-miterlimit:10;stroke-dasharray:none;stroke-opacity:1;" />
  <path
     id="path59"
     d="  M 153.24046,33.113265   L 153.24046,42.041187  "
     style="fill:none;stroke:#000000;stroke-width:0.5330103px;stroke-linecap:round;stroke-linejoin:miter;stroke-miterlimit:10;stroke-dasharray:none;stroke-opacity:1;" />
  <path
     id="path61"
     d="  M 167.0321,36.644458   C 166.96548,36.844337 166.89885,36.977589 166.7656,37.044216   C 166.63234,37.177468 166.49909,37.177468 166.36584,37.177468   C 166.23259,37.177468 166.09933,37.177468 166.03271,37.044216   C 165.96608,36.977589 165.96608,36.910963 165.96608,36.844337   C 165.96608,36.77771 165.96608,36.711084 165.96608,36.644458   C 166.03271,36.511205 166.09933,36.377953 166.16596,36.311326   C 166.29921,36.2447 166.43247,36.178074 166.56572,36.178074   C 166.43247,36.044821 166.36584,35.978195 166.16596,35.978195   C 165.89945,35.978195 165.63295,36.111448 165.43307,36.2447   C 165.16657,36.444579 164.96669,36.644458 164.76681,36.844337   C 164.56693,37.110842 164.30042,37.310721 164.10055,37.577226   C 163.90067,37.843731 163.63416,38.04361 163.36766,38.176863   C 163.63416,38.176863 163.90067,38.243489 164.16717,38.310115   C 164.36705,38.443368 164.56693,38.509994 164.76681,38.643247   C 164.90006,38.776499 165.03331,38.976378 165.09994,39.109631   C 165.16657,39.242883 165.16657,39.376136 165.16657,39.509388   C 165.16657,39.576015 165.16657,39.709267 165.09994,39.84252   C 165.09994,39.975772 165.03331,40.175651 165.03331,40.37553   C 164.96669,40.442156 164.96669,40.575409 164.96669,40.642035   C 164.96669,40.708661 164.96669,40.775288 164.96669,40.841914   C 165.03331,40.90854 165.03331,41.041793 165.09994,41.108419   C 165.16657,41.175045 165.23319,41.241672 165.36644,41.241672   C 165.4997,41.241672 165.63295,41.175045 165.7662,41.108419   C 165.83283,40.975167 165.96608,40.841914 166.03271,40.708661   C 166.09933,40.575409 166.16596,40.37553 166.23259,40.175651   C 166.29921,39.975772 166.36584,39.775893 166.43247,39.509388   C 166.43247,39.442762 166.49909,39.376136 166.56572,39.376136   L 166.69897,39.376136   C 166.7656,39.376136 166.83222,39.442762 166.83222,39.509388   L 166.83222,39.509388   C 166.7656,39.709267 166.69897,39.975772 166.63234,40.175651   C 166.56572,40.442156 166.43247,40.642035 166.36584,40.841914   C 166.23259,41.041793 166.09933,41.175045 165.89945,41.308298   C 165.7662,41.441551 165.56632,41.508177 165.29982,41.508177   C 165.09994,41.508177 164.90006,41.441551 164.76681,41.374924   C 164.56693,41.241672 164.43368,41.108419 164.36705,40.975167   C 164.30042,40.841914 164.2338,40.642035 164.2338,40.442156   L 164.2338,40.308904   C 164.2338,40.109025 164.2338,39.975772 164.30042,39.84252   C 164.30042,39.709267 164.30042,39.642641 164.30042,39.509388   C 164.30042,39.242883 164.2338,39.043004 164.03392,38.909752   C 163.76741,38.643247 163.43428,38.509994 162.9679,38.443368   L 162.30164,41.108419   C 162.23501,41.241672 162.16838,41.308298 162.10176,41.374924   C 161.9685,41.441551 161.83525,41.508177 161.76863,41.508177   C 161.63537,41.508177 161.56875,41.441551 161.50212,41.374924   C 161.43549,41.374924 161.43549,41.308298 161.43549,41.241672   C 161.43549,41.175045 161.43549,41.108419 161.43549,41.108419   L 163.36766,33.579649   C 163.43428,33.446396 163.43428,33.313144 163.43428,33.246517   L 163.43428,33.246517   C 163.43428,33.179891 163.43428,33.113265 163.36766,33.113265   C 163.30103,33.046638 163.2344,33.046638 163.10115,33.046638   C 162.90127,33.046638 162.76802,32.980012 162.56814,32.980012   C 162.50151,32.980012 162.50151,32.980012 162.50151,32.980012   C 162.43489,32.980012 162.43489,32.913386 162.43489,32.913386   C 162.43489,32.913386 162.43489,32.913386 162.50151,32.84676   L 162.50151,32.780133   C 162.50151,32.713507 162.56814,32.646881 162.70139,32.646881   L 164.36705,32.513628   L 164.36705,32.513628   C 164.43368,32.513628 164.43368,32.513628 164.43368,32.513628   C 164.5003,32.513628 164.5003,32.580254 164.5003,32.580254   C 164.5003,32.580254 164.5003,32.580254 164.5003,32.646881   L 163.10115,38.04361   C 163.2344,37.976984 163.43428,37.843731 163.56753,37.710478   C 163.76741,37.577226 163.90067,37.443973 164.10055,37.244094   C 164.2338,37.044216 164.36705,36.910963 164.56693,36.711084   C 164.70018,36.511205 164.90006,36.377953 165.03331,36.2447   C 165.23319,36.044821 165.43307,35.911569 165.63295,35.844942   C 165.83283,35.778316 166.03271,35.71169 166.23259,35.71169   C 166.56572,35.71169 166.7656,35.778316 166.89885,35.978195   C 167.0321,36.111448 167.0321,36.2447 167.0321,36.444579   C 167.0321,36.511205 167.0321,36.577832 167.0321,36.644458   z "
     style="fill:#008000;fill-rule:evenodd;fill-opacity:1;stroke:none;" />
  <path
     id="path63"
     d="  M 172.96184,37.577226   C 172.96184,38.04361 172.62871,38.376741 172.22895,38.376741   C 171.76257,38.376741 171.42944,38.04361 171.42944,37.577226   C 171.42944,37.177468 171.76257,36.77771 172.22895,36.77771   C 172.62871,36.77771 172.96184,37.177468 172.96184,37.577226   z "
     style="fill:#008000;fill-rule:evenodd;fill-opacity:1;stroke:none;" />
  <path
     id="path65"
     d="  M 181.75651,38.643247   C 181.62326,38.976378 181.49001,39.309509 181.29013,39.642641   C 181.15687,40.042399 180.89037,40.37553 180.62386,40.642035   C 180.35736,40.90854 180.09085,41.108419 179.75772,41.241672   C 179.49122,41.441551 179.15809,41.508177 178.82495,41.508177   C 178.49182,41.508177 178.22532,41.441551 178.02544,41.241672   C 177.82556,41.108419 177.69231,40.90854 177.55906,40.642035   C 177.4258,40.308904 177.35918,39.975772 177.35918,39.642641   L 177.35918,39.576015   C 177.35918,39.242883 177.35918,38.909752 177.49243,38.643247   L 178.75833,33.579649   C 178.82495,33.446396 178.82495,33.313144 178.82495,33.246517   L 178.82495,33.246517   C 178.82495,33.179891 178.82495,33.113265 178.75833,33.113265   C 178.6917,33.046638 178.62508,33.046638 178.49182,33.046638   C 178.29194,33.046638 178.15869,32.980012 177.95881,32.980012   C 177.89219,32.980012 177.89219,32.980012 177.89219,32.980012   C 177.82556,32.980012 177.82556,32.913386 177.82556,32.913386   C 177.82556,32.913386 177.82556,32.913386 177.82556,32.84676   L 177.89219,32.780133   C 177.89219,32.713507 177.95881,32.646881 178.09207,32.646881   L 179.75772,32.513628   L 179.75772,32.513628   C 179.82435,32.513628 179.82435,32.513628 179.89098,32.513628   C 179.89098,32.513628 179.89098,32.580254 179.89098,32.580254   C 179.89098,32.580254 179.89098,32.580254 179.89098,32.646881   L 178.89158,36.444579   C 179.09146,36.2447 179.29134,36.044821 179.55784,35.911569   C 179.75772,35.778316 180.02423,35.71169 180.29073,35.71169   C 180.62386,35.71169 180.89037,35.778316 181.15687,35.978195   C 181.35675,36.111448 181.55663,36.311326 181.62326,36.577832   C 181.75651,36.844337 181.88976,37.177468 181.88976,37.577226   L 181.88976,37.643852   C 181.88976,37.976984 181.82314,38.310115 181.75651,38.643247   z  M 180.957,36.711084   C 180.89037,36.511205 180.82374,36.311326 180.69049,36.178074   C 180.55724,36.044821 180.42399,35.978195 180.22411,35.978195   C 180.02423,35.978195 179.82435,36.044821 179.62447,36.2447   C 179.42459,36.377953 179.22471,36.511205 179.02483,36.711084   C 178.89158,36.910963 178.75833,37.044216 178.6917,37.244094   L 178.29194,38.643247   C 178.22532,38.976378 178.15869,39.242883 178.09207,39.576015   C 178.09207,39.709267 178.09207,39.84252 178.09207,39.975772   C 178.09207,40.175651 178.09207,40.308904 178.15869,40.508783   C 178.22532,40.708661 178.29194,40.841914 178.4252,41.041793   C 178.55845,41.175045 178.6917,41.241672 178.89158,41.241672   C 179.09146,41.241672 179.29134,41.175045 179.49122,41.041793   C 179.62447,40.841914 179.82435,40.708661 179.9576,40.508783   C 180.15748,40.242277 180.35736,39.909146 180.42399,39.576015   C 180.55724,39.242883 180.62386,38.976378 180.75712,38.643247   C 180.82374,38.243489 180.89037,37.910357 180.957,37.643852   C 180.957,37.443973 180.957,37.310721 180.957,37.177468   C 180.957,37.044216 180.957,36.844337 180.957,36.711084   z "
     style="fill:#008000;fill-rule:evenodd;fill-opacity:1;stroke:none;" />
  <path
     id="path67"
     d="  M 186.22047,40.575409   C 186.15385,40.642035 186.08722,40.708661 186.02059,40.775288   C 185.95397,40.841914 185.88734,40.841914 185.75409,40.841914   C 185.68746,40.841914 185.62084,40.841914 185.55421,40.775288   C 185.55421,40.708661 185.55421,40.708661 185.48758,40.642035   C 185.48758,40.642035 185.55421,40.575409 185.55421,40.575409   C 185.55421,40.442156 185.62084,40.37553 185.68746,40.37553   C 185.68746,40.308904 185.75409,40.308904 185.82071,40.242277   C 185.75409,40.175651 185.62084,40.175651 185.42096,40.175651   C 185.2877,40.175651 185.15445,40.242277 185.0212,40.37553   C 184.95457,40.508783 184.82132,40.708661 184.75469,40.841914   L 184.42156,42.17444   C 184.35494,42.241066 184.35494,42.374319 184.35494,42.507571   C 184.28831,42.574197 184.28831,42.574197 184.28831,42.640824   C 184.28831,42.70745 184.35494,42.774076 184.35494,42.840703   C 184.35494,42.907329 184.42156,42.973955 184.48819,43.040581   C 184.55482,43.040581 184.62144,43.107208 184.68807,43.107208   C 184.82132,43.107208 184.95457,43.040581 185.0212,43.040581   C 185.15445,42.973955 185.22108,42.907329 185.35433,42.774076   C 185.42096,42.70745 185.48758,42.640824 185.55421,42.507571   C 185.62084,42.374319 185.68746,42.241066 185.68746,42.17444   C 185.75409,42.107813 185.75409,42.107813 185.82071,42.107813   L 185.88734,42.107813   C 185.95397,42.107813 185.95397,42.107813 185.95397,42.107813   C 185.95397,42.107813 185.95397,42.107813 185.95397,42.17444   C 185.95397,42.307692 185.88734,42.440945 185.75409,42.574197   C 185.68746,42.70745 185.62084,42.774076 185.48758,42.907329   C 185.35433,43.040581 185.2877,43.107208 185.08783,43.173834   C 184.95457,43.24046 184.82132,43.24046 184.68807,43.24046   C 184.48819,43.24046 184.35494,43.24046 184.28831,43.173834   C 184.15506,43.107208 184.0218,43.040581 183.95518,42.907329   C 183.95518,42.907329 183.95518,42.907329 183.95518,42.840703   C 183.88855,42.840703 183.88855,42.774076 183.88855,42.774076   C 183.82193,42.907329 183.68867,43.040581 183.55542,43.107208   C 183.42217,43.24046 183.28892,43.24046 183.08904,43.24046   C 183.02241,43.24046 182.88916,43.24046 182.82253,43.24046   C 182.68928,43.173834 182.62265,43.173834 182.55603,43.107208   C 182.4894,43.107208 182.42277,43.040581 182.42277,42.973955   C 182.35615,42.907329 182.35615,42.907329 182.35615,42.840703   C 182.35615,42.774076 182.35615,42.774076 182.35615,42.70745   C 182.42277,42.640824 182.4894,42.574197 182.55603,42.507571   C 182.62265,42.440945 182.68928,42.440945 182.82253,42.440945   C 182.88916,42.440945 182.95578,42.440945 183.02241,42.507571   C 183.02241,42.507571 183.08904,42.574197 183.08904,42.640824   C 183.08904,42.640824 183.08904,42.70745 183.08904,42.70745   C 183.02241,42.774076 183.02241,42.840703 182.95578,42.907329   C 182.88916,42.973955 182.82253,42.973955 182.75591,42.973955   C 182.82253,43.040581 182.95578,43.107208 183.15566,43.107208   C 183.28892,43.107208 183.42217,43.040581 183.55542,42.907329   C 183.68867,42.774076 183.7553,42.574197 183.82193,42.374319   L 184.15506,41.108419   C 184.22168,40.975167 184.22168,40.841914 184.28831,40.775288   C 184.28831,40.708661 184.28831,40.708661 184.28831,40.642035   C 184.28831,40.575409 184.28831,40.508783 184.22168,40.442156   C 184.22168,40.37553 184.15506,40.308904 184.08843,40.242277   C 184.0218,40.175651 183.95518,40.175651 183.88855,40.175651   C 183.7553,40.175651 183.62205,40.175651 183.55542,40.242277   C 183.42217,40.308904 183.35554,40.37553 183.22229,40.442156   C 183.15566,40.575409 183.08904,40.642035 183.02241,40.775288   C 182.95578,40.90854 182.88916,40.975167 182.88916,41.108419   C 182.82253,41.175045 182.82253,41.175045 182.75591,41.175045   L 182.68928,41.175045   C 182.62265,41.175045 182.62265,41.175045 182.62265,41.108419   L 182.62265,41.108419   C 182.68928,40.975167 182.68928,40.841914 182.82253,40.708661   C 182.88916,40.575409 182.95578,40.442156 183.08904,40.37553   C 183.22229,40.242277 183.35554,40.175651 183.48879,40.109025   C 183.62205,40.042399 183.7553,40.042399 183.88855,40.042399   C 184.08843,40.042399 184.22168,40.042399 184.35494,40.109025   C 184.42156,40.175651 184.55482,40.242277 184.62144,40.308904   C 184.62144,40.37553 184.62144,40.37553 184.68807,40.442156   C 184.68807,40.442156 184.68807,40.442156 184.68807,40.508783   C 184.82132,40.37553 184.88795,40.242277 185.0212,40.175651   C 185.15445,40.042399 185.35433,40.042399 185.48758,40.042399   C 185.62084,40.042399 185.68746,40.042399 185.82071,40.042399   C 185.88734,40.042399 185.95397,40.109025 186.02059,40.109025   C 186.08722,40.175651 186.15385,40.242277 186.22047,40.308904   C 186.22047,40.37553 186.22047,40.37553 186.22047,40.442156   C 186.22047,40.442156 186.22047,40.508783 186.22047,40.575409   z "
     style="fill:#008000;fill-rule:evenodd;fill-opacity:1;stroke:none;" />
  <path
     id="path69"
     d="  M 71.023622,14.058147   L 71.023622,43.373713  "
     style="fill:none;stroke:#000000;stroke-width:0.59963655px;stroke-linecap:round;stroke-linejoin:miter;stroke-miterlimit:10;stroke-dasharray:none;stroke-opacity:1;" />
  <path
     id="path71"
     d="  M 188.88552,43.373713   L 188.88552,14.058147  "
     style="fill:none;stroke:#000000;stroke-width:0.59963655px;stroke-linecap:round;stroke-linejoin:miter;stroke-miterlimit:10;stroke-dasharray:none;stroke-opacity:1;" />
</svg>
